mtllib SM_Air_Duct_02.mtl
g SM_Air_Duct_02
#Vertices 408
#Indices 1464
#Section 0 Offset 0 NumIndices 516 MaterialIndex 0 MI_Air_Duct_Metal
#Section 1 Offset 516 NumIndices 948 MaterialIndex 1 MI_Air_Duct_Plastic
v 0.808450 -0.400840 0.000000
v 0.808450 -0.970551 0.000000
v 0.991550 -0.970551 0.000000
v 0.991550 -0.251889 0.000000
v 0.801271 -0.366946 0.000000
v 0.982348 -0.211737 0.000000
v 0.788526 -0.334404 0.000000
v 0.966148 -0.173394 0.000000
v 0.772446 -0.303243 0.000000
v 0.945871 -0.136800 0.000000
v 0.752798 -0.273820 0.000000
v 0.921253 -0.102466 0.000000
v 0.732875 -0.245633 0.000000
v 0.896680 -0.069983 0.000000
v 0.708463 -0.222155 0.000000
v 0.867030 -0.043132 0.000000
v 0.833862 -0.021209 0.000000
v 0.681018 -0.202870 0.000000
v 0.797160 -0.008450 0.000000
v 0.650364 -0.191550 0.000000
v 0.027889 -0.008450 0.000000
v 0.027889 -0.191550 0.000000
v 0.808450 -0.400839 0.800000
v 0.991550 -0.970551 0.800000
v 0.808450 -0.970551 0.800000
v 0.991550 -0.251889 0.800000
v 0.801271 -0.366946 0.800000
v 0.982348 -0.211737 0.800000
v 0.788526 -0.334404 0.800000
v 0.966148 -0.173394 0.800000
v 0.772446 -0.303243 0.800000
v 0.945871 -0.136800 0.800000
v 0.752798 -0.273820 0.800000
v 0.921253 -0.102466 0.800000
v 0.732875 -0.245633 0.800000
v 0.896680 -0.069983 0.800000
v 0.708463 -0.222155 0.800000
v 0.867030 -0.043132 0.800000
v 0.833862 -0.021209 0.800000
v 0.681018 -0.202870 0.800000
v 0.797160 -0.008450 0.800000
v 0.650364 -0.191550 0.800000
v 0.027889 -0.008450 0.800000
v 0.027889 -0.191550 0.800000
v 0.027889 0.000000 0.008450
v 0.088400 0.000000 0.172225
v 0.027889 0.000000 0.172225
v 0.091921 0.000000 0.175746
v 0.027889 -0.008450 0.000000
v 0.797160 -0.008450 0.000000
v 0.800000 -0.000000 0.008450
v 0.091921 0.000000 0.624254
v 0.833862 -0.021209 0.000000
v 0.800000 -0.000000 0.791550
v 0.088400 0.000000 0.627775
v 0.837861 -0.013162 0.008450
v 0.027889 0.000000 0.791550
v 0.027889 0.000000 0.627775
v 0.797160 -0.008450 0.800000
v 0.027889 -0.008450 0.800000
v 0.833862 -0.021209 0.800000
v 0.837861 -0.013162 0.791550
v 0.872077 -0.035777 0.791550
v 0.867030 -0.043132 0.800000
v 0.872077 -0.035777 0.008450
v 0.867030 -0.043132 0.000000
v 0.902664 -0.063477 0.008450
v 0.896680 -0.069983 0.000000
v 0.902664 -0.063477 0.791550
v 0.896680 -0.069983 0.800000
v 0.928014 -0.096987 0.008450
v 0.921253 -0.102466 0.000000
v 0.928014 -0.096986 0.791550
v 0.921253 -0.102466 0.800000
v 0.953223 -0.132145 0.008450
v 0.945871 -0.136800 0.000000
v 0.953223 -0.132145 0.791550
v 0.945871 -0.136800 0.800000
v 0.973988 -0.169620 0.008450
v 0.966148 -0.173394 0.000000
v 0.982348 -0.211737 0.000000
v 0.973988 -0.169620 0.791550
v 0.966148 -0.173394 0.800000
v 0.982348 -0.211737 0.800000
v 0.990577 -0.208884 0.008450
v 0.990577 -0.208884 0.791550
v 1.000000 -0.250000 0.008450
v 0.991550 -0.251889 0.000000
v 1.000000 -0.250000 0.791550
v 0.991550 -0.251889 0.800000
v 1.000000 -0.970551 0.008450
v 0.991550 -0.970551 0.000000
v 1.000000 -0.970551 0.172225
v 1.000000 -0.917055 0.172225
v 1.000000 -0.913534 0.175746
v 1.000000 -0.913534 0.624254
v 1.000000 -0.917055 0.627775
v 1.000000 -0.970551 0.791550
v 1.000000 -0.970551 0.627775
v 0.991550 -0.970551 0.800000
v 0.647391 -0.200000 0.008450
v 0.027889 -0.191550 0.000000
v 0.027889 -0.200000 0.008450
v 0.027889 -0.200000 0.791550
v 0.650364 -0.191550 0.000000
v 0.647391 -0.200000 0.791550
v 0.027889 -0.191550 0.800000
v 0.650364 -0.191550 0.800000
v 0.676867 -0.210885 0.008450
v 0.681018 -0.202870 0.000000
v 0.708463 -0.222155 0.000000
v 0.676867 -0.210885 0.791550
v 0.681018 -0.202870 0.800000
v 0.708463 -0.222155 0.800000
v 0.703258 -0.229430 0.008450
v 0.732875 -0.245633 0.000000
v 0.703258 -0.229430 0.791550
v 0.732875 -0.245633 0.800000
v 0.726732 -0.252006 0.008450
v 0.752798 -0.273820 0.000000
v 0.726732 -0.252006 0.791550
v 0.752798 -0.273820 0.800000
v 0.745890 -0.279110 0.008450
v 0.772446 -0.303243 0.000000
v 0.745890 -0.279110 0.791550
v 0.772446 -0.303243 0.800000
v 0.764994 -0.307718 0.008450
v 0.788526 -0.334404 0.000000
v 0.764994 -0.307717 0.791550
v 0.788526 -0.334404 0.800000
v 0.780628 -0.338015 0.008450
v 0.780628 -0.338015 0.791550
v 0.793020 -0.369655 0.008450
v 0.801271 -0.366946 0.000000
v 0.808450 -0.400840 0.000000
v 0.793020 -0.369655 0.791550
v 0.801271 -0.366946 0.800000
v 0.808450 -0.400839 0.800000
v 0.800000 -0.402610 0.008450
v 0.808450 -0.970551 0.000000
v 0.800000 -0.970551 0.008450
v 0.800000 -0.970551 0.791550
v 0.800000 -0.402609 0.791550
v 0.808450 -0.970551 0.800000
v 0.024368 -0.006992 0.803521
v 0.024368 -0.193008 0.803521
v 0.024368 -0.006992 -0.003521
v 0.024368 -0.193008 -0.003521
v 0.806992 -0.974072 -0.003521
v 0.993008 -0.974072 -0.003521
v 0.993008 -0.974072 0.803521
v 0.806992 -0.974072 0.803521
v 0.778171 -0.977593 0.800591
v 0.778171 -0.977594 -0.000591
v 0.781692 -0.974072 0.000867
v 0.781692 -0.974072 0.799133
v 0.796479 -0.974072 0.006992
v 0.796479 -0.974072 0.793008
v 0.024368 -0.203521 0.006992
v 0.024368 -0.218307 0.799133
v 0.024368 -0.203521 0.793008
v 0.024368 -0.218308 0.000867
v 0.020847 -0.221829 0.800591
v 0.020847 -0.221829 -0.000591
v 0.024368 -0.006992 0.803521
v 0.024368 0.003521 0.793008
v 0.024368 0.003521 0.627775
v 0.027889 0.003521 0.624254
v 0.080231 0.003521 0.624254
v 0.024368 -0.203521 0.793008
v 0.024368 -0.193008 0.803521
v 0.024368 -0.203521 0.006992
v 0.024368 -0.193008 -0.003521
v 0.806992 -0.974072 -0.003521
v 0.796479 -0.974072 0.006992
v 0.796479 -0.974072 0.793008
v 0.806992 -0.974072 0.803521
v 0.080231 0.003521 0.175746
v 0.027889 0.003521 0.175746
v 0.024368 0.003521 0.172225
v 0.024368 0.003521 0.006992
v 0.024368 -0.006992 -0.003521
v 1.003521 -0.925231 0.624254
v 1.003521 -0.970551 0.624254
v 1.003521 -0.974072 0.627775
v 1.003521 -0.974072 0.793008
v 0.993008 -0.974072 0.803521
v 1.003521 -0.925231 0.175746
v 1.003521 -0.970551 0.175746
v 1.003521 -0.974072 0.172225
v 1.003521 -0.974072 0.006992
v 0.993008 -0.974072 -0.003521
v 0.024368 -0.193008 -0.003521
v 0.024368 -0.218308 0.000867
v 0.024368 -0.203521 0.006992
v 0.024368 -0.199133 -0.018308
v 0.020847 -0.221829 -0.000591
v 0.024368 -0.006992 -0.003521
v 0.020847 -0.200591 -0.021829
v 0.024368 -0.000867 -0.018308
v 0.020847 0.000592 -0.021829
v 0.024368 0.018308 0.000867
v 0.020847 0.021829 -0.000591
v 0.020847 0.021830 0.172225
v 0.024368 0.003521 0.006992
v 0.024368 0.018309 0.172225
v 0.024368 0.003521 0.172225
v 1.003521 -0.974072 0.793008
v 1.003521 -0.974072 0.627775
v 1.018302 -0.974072 0.627775
v 1.018307 -0.974072 0.799132
v 1.021823 -0.977593 0.627775
v 1.021829 -0.977593 0.800591
v 0.993008 -0.974072 0.803521
v 1.000591 -0.977593 0.821829
v 0.999132 -0.974072 0.818307
v 0.806992 -0.974072 0.803521
v 0.799408 -0.977593 0.821829
v 0.800867 -0.974072 0.818308
v 0.781692 -0.974072 0.799133
v 0.796479 -0.974072 0.793008
v 0.778171 -0.977593 0.800591
v 0.020847 -0.221829 0.800591
v 0.020847 -0.200591 0.821829
v 0.024368 -0.218307 0.799133
v 0.024368 -0.199133 0.818307
v 0.024368 -0.203521 0.793008
v 0.020847 0.000592 0.821829
v 0.024368 -0.193008 0.803521
v 0.024368 -0.000867 0.818307
v 0.024368 -0.006992 0.803521
v 0.024368 0.003521 0.793008
v 0.024368 0.018308 0.799133
v 0.020847 0.021829 0.800591
v 0.020847 0.021901 0.627775
v 0.024368 0.018380 0.627775
v 0.024368 0.003521 0.627775
v 1.003521 -0.974072 0.172225
v 1.003521 -0.974072 0.006992
v 1.018511 -0.974072 0.172225
v 1.018307 -0.974072 0.000867
v 1.022020 -0.977594 0.172225
v 1.021829 -0.977594 -0.000591
v 0.999133 -0.974072 -0.018307
v 0.993008 -0.974072 -0.003521
v 1.000591 -0.977594 -0.021829
v 0.806992 -0.974072 -0.003521
v 0.800867 -0.974072 -0.018307
v 0.799408 -0.977594 -0.021829
v 0.781692 -0.974072 0.000867
v 0.796479 -0.974072 0.006992
v 0.778171 -0.977594 -0.000591
v 0.027889 0.003521 0.175746
v 0.080231 0.003521 0.175746
v 0.043810 0.041771 0.175746
v 0.024368 0.018309 0.172225
v 0.024368 0.003521 0.172225
v 0.027889 0.022132 0.175746
v 0.024368 0.025352 0.175746
v 0.024368 0.047199 0.175746
v 0.004713 0.047199 0.175746
v 0.020847 0.021830 0.172225
v 0.004713 0.025352 0.175746
v 0.000000 0.045618 0.177989
v 0.000000 0.024207 0.177989
v 0.000000 0.020757 0.174503
v 0.004032 0.021830 0.172225
v 0.000000 0.020755 0.003414
v 0.004032 0.021829 -0.000591
v 0.020847 0.021829 -0.000591
v 0.000000 -0.000057 -0.017610
v 0.004032 0.000592 -0.021829
v 0.020847 0.000592 -0.021829
v -0.000000 -0.197217 -0.017610
v 0.020847 -0.200591 -0.021829
v 0.004032 -0.200591 -0.021829
v 0.020847 -0.221829 -0.000591
v 0.004032 -0.221829 -0.000591
v -0.000000 -0.218029 0.003414
v 0.004032 -0.221829 0.800591
v -0.000000 -0.218029 0.796585
v 0.020847 -0.221829 0.800591
v -0.000000 -0.197217 0.817610
v 0.004032 -0.200591 0.821829
v 0.020847 -0.200591 0.821829
v 0.004032 0.000592 0.821829
v 0.020847 0.000592 0.821829
v 0.000000 -0.000057 0.817610
v 0.020847 0.021829 0.800591
v 0.004032 0.021829 0.800591
v 0.000000 0.020755 0.796585
v 0.020847 0.021901 0.627775
v 0.004032 0.021901 0.627775
v 0.000000 0.020826 0.625497
v 0.004713 0.025424 0.624254
v 0.000000 0.024278 0.622011
v 0.000000 0.045618 0.622011
v 0.004713 0.047199 0.624254
v 0.024368 0.025424 0.624254
v 0.024368 0.047199 0.624254
v 0.024368 0.018380 0.627775
v 0.043807 0.041772 0.624254
v 0.027889 0.022192 0.624254
v 0.027889 0.003521 0.624254
v 0.024368 0.003521 0.627775
v 0.080231 0.003521 0.624254
v 1.003521 -0.970551 0.624254
v 1.003521 -0.925231 0.624254
v 1.036596 -0.956614 0.624254
v 1.018302 -0.974072 0.627775
v 1.003521 -0.974072 0.627775
v 1.022273 -0.970551 0.624254
v 1.025344 -0.974072 0.624254
v 1.047199 -0.974072 0.624254
v 1.021823 -0.977593 0.627775
v 1.025348 -0.994017 0.624254
v 1.047199 -0.994017 0.624254
v 1.045617 -1.000000 0.622011
v 1.024205 -1.000000 0.622011
v 1.020755 -1.000000 0.625497
v 1.021827 -0.994830 0.627775
v 1.021829 -0.977593 0.800591
v 1.020755 -1.000000 0.796585
v 1.021829 -0.994830 0.800591
v 0.999943 -1.000000 0.817610
v 1.000592 -0.994829 0.821829
v 1.000591 -0.977593 0.821829
v 0.802783 -1.000000 0.817610
v 0.799408 -0.994830 0.821829
v 0.799408 -0.977593 0.821829
v 0.778171 -0.977593 0.800591
v 0.778171 -0.994830 0.800591
v 0.781971 -1.000000 0.796586
v 0.778171 -0.977594 -0.000591
v 0.781971 -1.000000 0.003415
v 0.778171 -0.994830 -0.000591
v 0.802783 -1.000000 -0.017610
v 0.799408 -0.994830 -0.021829
v 0.799408 -0.977594 -0.021829
v 1.000591 -0.994830 -0.021829
v 0.999942 -1.000000 -0.017610
v 1.000591 -0.977594 -0.021829
v 1.021829 -0.994830 -0.000591
v 1.021829 -0.977594 -0.000591
v 1.020755 -1.000000 0.003415
v 1.022020 -0.977594 0.172225
v 1.021873 -0.994830 0.172225
v 1.020755 -1.000000 0.174503
v 1.025398 -0.994017 0.175746
v 1.024205 -1.000000 0.177989
v 1.045617 -1.000000 0.177989
v 1.047199 -0.994017 0.175746
v 1.025557 -0.974072 0.175746
v 1.047199 -0.974072 0.175746
v 1.018511 -0.974072 0.172225
v 1.036601 -0.956624 0.175746
v 1.022446 -0.970551 0.175746
v 1.003521 -0.970551 0.175746
v 1.003521 -0.974072 0.172225
v 1.003521 -0.925231 0.175746
v 0.091921 0.000000 0.175746
v 0.085982 0.002560 0.179267
v 0.088400 0.000000 0.172225
v 0.091921 0.000000 0.624254
v 0.080231 0.003521 0.175746
v 0.085982 0.002560 0.620732
v 0.088400 0.000000 0.627775
v 0.080231 0.003521 0.624254
v 0.045109 0.045838 0.179267
v 0.043810 0.041771 0.175746
v 0.045109 0.045838 0.620732
v 0.043807 0.041772 0.624254
v 0.024368 0.047199 0.175746
v 0.024368 0.047199 0.624254
v 0.024368 0.050720 0.179267
v 0.024368 0.050720 0.620732
v 0.004713 0.047199 0.624254
v 0.004713 0.050720 0.179267
v 0.004713 0.047199 0.175746
v 0.000000 0.045618 0.177989
v 0.000000 0.049069 0.181475
v 0.000000 0.049069 0.618525
v 0.004713 0.050720 0.620732
v 0.000000 0.045618 0.622011
v 1.000000 -0.917055 0.627775
v 1.000000 -0.913534 0.624254
v 1.002558 -0.919474 0.620732
v 1.003521 -0.925231 0.624254
v 1.000000 -0.913534 0.175746
v 1.040452 -0.955311 0.620732
v 1.036596 -0.956614 0.624254
v 1.002558 -0.919474 0.179268
v 1.000000 -0.917055 0.172225
v 1.003521 -0.925231 0.175746
v 1.047199 -0.974072 0.624254
v 1.040452 -0.955311 0.179268
v 1.036601 -0.956624 0.175746
v 1.047199 -0.974072 0.175746
v 1.050720 -0.974072 0.620732
v 1.050720 -0.974072 0.179268
v 1.047199 -0.994017 0.175746
v 1.050720 -0.994017 0.620732
v 1.047199 -0.994017 0.624254
v 1.045617 -1.000000 0.622011
v 1.049068 -1.000000 0.618525
v 1.049068 -1.000000 0.181475
v 1.050720 -0.994017 0.179268
v 1.045617 -1.000000 0.177989
vt 0.906250 0.846924
vt 0.906250 0.562256
vt 0.997559 0.562256
vt 0.997559 0.921265
vt 0.902344 0.863892
vt 0.993164 0.941315
vt 0.895996 0.880188
vt 0.984863 0.960510
vt 0.888184 0.895813
vt 0.974609 0.978821
vt 0.878418 0.910583
vt 0.962402 0.996014
vt 0.868164 0.924744
vt 0.950195 1.012291
vt 0.855957 0.936523
vt 0.935547 1.025757
vt 0.918945 1.036743
vt 0.842285 0.946198
vt 0.900391 1.043182
vt 0.826660 0.951935
vt 0.516113 1.044586
vt 0.515625 0.953094
vt 0.177002 0.669434
vt 0.085510 0.384766
vt 0.177002 0.384766
vt 0.085449 0.743896
vt 0.180542 0.686523
vt 0.090027 0.763916
vt 0.187012 0.702881
vt 0.098145 0.783081
vt 0.195068 0.718506
vt 0.108215 0.801392
vt 0.204834 0.733154
vt 0.120544 0.818604
vt 0.214844 0.747314
vt 0.132812 0.834839
vt 0.227051 0.759033
vt 0.147583 0.848389
vt 0.164185 0.859375
vt 0.240845 0.768799
vt 0.182495 0.865723
vt 0.256104 0.774536
vt 0.566895 0.867188
vt 0.566895 0.775635
vt 0.037231 0.974167
vt 0.119202 0.944092
vt 0.119202 0.974243
vt 0.121094 0.942352
vt 0.031097 0.973831
vt 0.031860 0.589111
vt 0.037903 0.588379
vt 0.345459 0.942535
vt 0.031799 0.568848
vt 0.429199 0.588623
vt 0.347412 0.944275
vt 0.037933 0.568848
vt 0.429199 0.974396
vt 0.347412 0.974426
vt 0.435303 0.589355
vt 0.435303 0.974075
vt 0.435547 0.569092
vt 0.429443 0.569092
vt 0.429443 0.548828
vt 0.435547 0.548584
vt 0.037933 0.548828
vt 0.031799 0.548584
vt 0.037994 0.528564
vt 0.031921 0.528076
vt 0.429443 0.528564
vt 0.435547 0.528076
vt 0.037933 0.507812
vt 0.031830 0.507568
vt 0.429443 0.507812
vt 0.435547 0.507568
vt 0.037964 0.486328
vt 0.031921 0.486328
vt 0.429443 0.486328
vt 0.435303 0.486328
vt 0.037903 0.465332
vt 0.031860 0.465332
vt 0.031860 0.443848
vt 0.429443 0.465332
vt 0.435547 0.465332
vt 0.435303 0.443848
vt 0.037903 0.444336
vt 0.429199 0.444336
vt 0.037842 0.423340
vt 0.031860 0.422852
vt 0.429199 0.423340
vt 0.435303 0.422852
vt 0.037750 0.063477
vt 0.031616 0.063477
vt 0.119690 0.063477
vt 0.119690 0.089844
vt 0.121460 0.091797
vt 0.345703 0.091797
vt 0.347412 0.089844
vt 0.429443 0.063477
vt 0.347412 0.063477
vt 0.435547 0.063477
vt 0.928711 0.569336
vt 0.935059 0.879028
vt 0.929199 0.879150
vt 0.537109 0.879456
vt 0.934570 0.568604
vt 0.537109 0.569580
vt 0.530762 0.879333
vt 0.531250 0.568848
vt 0.928223 0.553223
vt 0.934570 0.553223
vt 0.934570 0.536865
vt 0.537109 0.553467
vt 0.530762 0.553467
vt 0.530762 0.537109
vt 0.928223 0.536621
vt 0.934570 0.520508
vt 0.537109 0.536865
vt 0.530762 0.520508
vt 0.928223 0.520264
vt 0.934570 0.503662
vt 0.537109 0.520264
vt 0.531250 0.503662
vt 0.928223 0.503418
vt 0.934570 0.486328
vt 0.537109 0.503418
vt 0.530762 0.486328
vt 0.928223 0.486328
vt 0.934570 0.468750
vt 0.537109 0.486328
vt 0.531250 0.468750
vt 0.928223 0.468750
vt 0.537109 0.468750
vt 0.928223 0.451660
vt 0.934570 0.451660
vt 0.934570 0.435059
vt 0.537109 0.451660
vt 0.531250 0.451660
vt 0.531250 0.435059
vt 0.928711 0.434570
vt 0.935059 0.150391
vt 0.928711 0.150391
vt 0.537109 0.150391
vt 0.537109 0.434570
vt 0.530762 0.150391
vt 0.569336 0.867920
vt 0.569336 0.774902
vt 0.513672 1.045319
vt 0.513184 0.952393
vt 0.905273 0.559814
vt 0.998047 0.559814
vt 0.084778 0.382324
vt 0.177734 0.382324
vt -0.091003 0.692383
vt 0.310059 0.692139
vt 0.309082 0.694580
vt -0.090027 0.694824
vt 0.305908 0.701904
vt -0.086975 0.702148
vt -0.075500 0.461426
vt 0.320557 0.454102
vt 0.317383 0.461426
vt -0.078552 0.454102
vt 0.321533 0.451660
vt -0.079529 0.451660
vt 0.436523 0.976349
vt 0.429443 0.976944
vt 0.346924 0.976791
vt 0.344971 0.974731
vt 0.344971 0.948395
vt 0.537109 0.882080
vt 0.530273 0.881653
vt 0.929199 0.881775
vt 0.936035 0.881348
vt 0.936035 0.148438
vt 0.928711 0.147949
vt 0.536621 0.147949
vt 0.529785 0.148438
vt 0.121643 0.948212
vt 0.121582 0.974564
vt 0.119568 0.976608
vt 0.037140 0.976730
vt 0.030075 0.976105
vt 0.344971 0.085938
vt 0.344971 0.062988
vt 0.346924 0.061035
vt 0.429443 0.060547
vt 0.436523 0.061035
vt 0.122192 0.085938
vt 0.122070 0.062988
vt 0.120117 0.061035
vt 0.037659 0.060547
vt 0.030609 0.061523
vt -0.080872 0.466797
vt -0.078552 0.454102
vt -0.075500 0.461426
vt -0.088257 0.463379
vt -0.079529 0.451660
vt -0.080994 0.559326
vt -0.090576 0.462402
vt -0.088318 0.562500
vt -0.090698 0.563477
vt -0.078918 0.572021
vt -0.079895 0.574219
vt 0.006550 0.574463
vt -0.075806 0.564697
vt 0.006603 0.572021
vt 0.006653 0.564697
vt -0.087158 0.805420
vt -0.004715 0.805420
vt -0.004761 0.812744
vt -0.090271 0.812744
vt -0.004810 0.815308
vt -0.091248 0.815063
vt -0.092346 0.800171
vt -0.102051 0.804199
vt -0.099731 0.803223
vt -0.092346 0.707275
vt -0.101990 0.703369
vt -0.099670 0.704346
vt -0.090027 0.694824
vt -0.086975 0.702148
vt -0.091003 0.692383
vt 0.321533 0.451660
vt 0.332520 0.462402
vt 0.320557 0.454102
vt 0.330078 0.463379
vt 0.317383 0.461426
vt 0.332764 0.563477
vt 0.322754 0.466797
vt 0.330322 0.562500
vt 0.322998 0.559326
vt 0.317871 0.564697
vt 0.320801 0.572021
vt 0.321777 0.574219
vt 0.235474 0.574463
vt 0.235352 0.572021
vt 0.235352 0.564697
vt 0.223999 0.804932
vt 0.306396 0.805054
vt 0.223999 0.812378
vt 0.309570 0.812378
vt 0.224121 0.814819
vt 0.310547 0.814697
vt 0.318848 0.802734
vt 0.311523 0.799683
vt 0.321289 0.803711
vt 0.311523 0.707031
vt 0.318848 0.703857
vt 0.321045 0.702881
vt 0.309082 0.694580
vt 0.305908 0.701904
vt 0.310059 0.692139
vt -0.137451 0.114746
vt -0.137451 0.141113
vt -0.156616 0.122559
vt -0.144653 0.112305
vt -0.137451 0.112305
vt -0.146851 0.114746
vt -0.148438 0.112793
vt -0.159424 0.112793
vt -0.159424 0.103027
vt -0.146118 0.110840
vt -0.148560 0.103027
vt -0.159424 0.100586
vt -0.148560 0.100586
vt -0.146118 0.100586
vt -0.146118 0.102539
vt -0.059753 0.100586
vt -0.059753 0.102539
vt -0.059753 0.111328
vt -0.044708 0.100586
vt -0.044708 0.102539
vt -0.044708 0.110840
vt 0.055847 0.100586
vt 0.055847 0.110840
vt 0.055847 0.102539
vt 0.070862 0.110840
vt 0.070862 0.102539
vt 0.070862 0.100586
vt 0.471191 0.102051
vt 0.471191 0.099609
vt 0.471436 0.110352
vt 0.486328 0.099609
vt 0.486328 0.101562
vt 0.486328 0.110352
vt 0.586914 0.101562
vt 0.586914 0.110352
vt 0.586914 0.099609
vt 0.601562 0.110352
vt 0.602051 0.102051
vt 0.602051 0.100098
vt 0.687988 0.111328
vt 0.688477 0.103027
vt 0.688477 0.101074
vt 0.690918 0.103516
vt 0.690918 0.101074
vt 0.701660 0.102051
vt 0.701660 0.104492
vt 0.690430 0.113281
vt 0.701172 0.114258
vt 0.686523 0.112793
vt 0.697754 0.123535
vt 0.688477 0.115234
vt 0.679199 0.114746
vt 0.679199 0.112305
vt 0.677734 0.140625
vt 0.029953 0.313477
vt 0.030609 0.335938
vt 0.013618 0.320801
vt 0.022644 0.311035
vt 0.029892 0.311035
vt 0.020538 0.313477
vt 0.018845 0.312012
vt 0.007965 0.312012
vt 0.021042 0.309570
vt 0.018509 0.301758
vt 0.007591 0.302246
vt 0.007481 0.299316
vt 0.018417 0.298828
vt 0.020981 0.298828
vt 0.020996 0.301270
vt 0.107361 0.309570
vt 0.107361 0.298340
vt 0.107361 0.301270
vt 0.122314 0.298340
vt 0.122375 0.301270
vt 0.122498 0.309570
vt 0.222778 0.294922
vt 0.222900 0.297852
vt 0.223022 0.306152
vt 0.237915 0.306152
vt 0.237915 0.297852
vt 0.237915 0.294922
vt 0.638184 0.306152
vt 0.638184 0.294922
vt 0.638184 0.297363
vt 0.653320 0.294922
vt 0.653320 0.297363
vt 0.653320 0.306152
vt 0.753906 0.296387
vt 0.753906 0.293945
vt 0.753906 0.305176
vt 0.769043 0.296387
vt 0.769043 0.305176
vt 0.769043 0.293945
vt 0.855469 0.305176
vt 0.855469 0.296387
vt 0.855469 0.293945
vt 0.857910 0.296875
vt 0.857910 0.293945
vt 0.868652 0.294434
vt 0.868652 0.297363
vt 0.857910 0.307129
vt 0.868652 0.307129
vt 0.854004 0.306641
vt 0.862793 0.315918
vt 0.855957 0.308594
vt 0.846680 0.308594
vt 0.846680 0.306152
vt 0.846191 0.331543
vt 0.480713 0.011719
vt 0.482666 0.014648
vt 0.478760 0.013184
vt 0.705078 0.010742
vt 0.480469 0.017578
vt 0.703613 0.014160
vt 0.707031 0.011719
vt 0.705566 0.016602
vt 0.482910 0.044434
vt 0.480225 0.043945
vt 0.703613 0.043457
vt 0.706055 0.042969
vt 0.480469 0.054688
vt 0.706055 0.053223
vt 0.482910 0.055176
vt 0.703613 0.053711
vt 0.706055 0.062988
vt 0.483154 0.064941
vt 0.480469 0.064941
vt 0.480469 0.067383
vt 0.483154 0.067383
vt 0.703613 0.065430
vt 0.703613 0.063477
vt 0.706055 0.065430
vt 0.711426 0.177734
vt 0.709473 0.179199
vt 0.708008 0.175781
vt 0.709961 0.173340
vt 0.485596 0.179199
vt 0.708008 0.149902
vt 0.710449 0.150391
vt 0.487305 0.175781
vt 0.483887 0.177734
vt 0.485107 0.173340
vt 0.710449 0.139648
vt 0.487549 0.149902
vt 0.484863 0.150391
vt 0.484863 0.139648
vt 0.708008 0.139160
vt 0.487305 0.139160
vt 0.484863 0.129395
vt 0.708008 0.129395
vt 0.710449 0.129395
vt 0.710449 0.126465
vt 0.708008 0.126465
vt 0.487305 0.126465
vt 0.487305 0.129395
vt 0.484863 0.126465
vt1 0.894531 0.579102
vt1 0.894531 0.398926
vt1 0.952637 0.398926
vt1 0.952637 0.626221
vt1 0.892578 0.589844
vt1 0.949707 0.638916
vt1 0.888184 0.600098
vt1 0.944336 0.650879
vt1 0.883301 0.610107
vt1 0.937988 0.662598
vt1 0.876953 0.619385
vt1 0.930176 0.673340
vt1 0.870605 0.628418
vt1 0.922852 0.683838
vt1 0.862793 0.635742
vt1 0.913086 0.692139
vt1 0.902832 0.699219
vt1 0.854492 0.641846
vt1 0.891113 0.703369
vt1 0.844727 0.645508
vt1 0.647949 0.704102
vt1 0.647949 0.646240
vt1 0.462646 0.704102
vt1 0.404785 0.524170
vt1 0.462646 0.524170
vt1 0.404785 0.751221
vt1 0.464844 0.714844
vt1 0.407471 0.763916
vt1 0.468994 0.725342
vt1 0.412598 0.776001
vt1 0.473877 0.735107
vt1 0.418945 0.787598
vt1 0.480225 0.744385
vt1 0.426758 0.798462
vt1 0.486572 0.753418
vt1 0.434570 0.808838
vt1 0.494141 0.760864
vt1 0.444092 0.817261
vt1 0.454346 0.824219
vt1 0.502930 0.766968
vt1 0.466064 0.828369
vt1 0.512695 0.770630
vt1 0.708984 0.829224
vt1 0.709473 0.771362
vt1 0.364746 0.051758
vt1 0.312988 0.070801
vt1 0.312988 0.051758
vt1 0.311768 0.072266
vt1 0.368652 0.052246
vt1 0.368164 0.295410
vt1 0.364258 0.295898
vt1 0.169800 0.071777
vt1 0.368164 0.308594
vt1 0.116821 0.295898
vt1 0.168701 0.070801
vt1 0.364258 0.308594
vt1 0.116821 0.051758
vt1 0.168701 0.051758
vt1 0.112976 0.295410
vt1 0.112976 0.052246
vt1 0.112915 0.308105
vt1 0.116821 0.308105
vt1 0.116760 0.321289
vt1 0.112915 0.321289
vt1 0.364258 0.321289
vt1 0.368164 0.321289
vt1 0.364258 0.333984
vt1 0.368164 0.333984
vt1 0.116760 0.333984
vt1 0.112976 0.333984
vt1 0.364258 0.347168
vt1 0.368164 0.347168
vt1 0.116760 0.347168
vt1 0.112915 0.347168
vt1 0.364258 0.360840
vt1 0.368164 0.360840
vt1 0.116760 0.360840
vt1 0.112976 0.360840
vt1 0.364258 0.374023
vt1 0.368164 0.374023
vt1 0.368164 0.387207
vt1 0.116821 0.374023
vt1 0.112976 0.374023
vt1 0.112976 0.387207
vt1 0.364258 0.387207
vt1 0.116821 0.387207
vt1 0.364502 0.400391
vt1 0.368164 0.400879
vt1 0.116821 0.400391
vt1 0.113037 0.400879
vt1 0.364502 0.628174
vt1 0.368408 0.627930
vt1 0.312744 0.628174
vt1 0.312744 0.611328
vt1 0.311523 0.610107
vt1 0.169678 0.610107
vt1 0.168579 0.611328
vt1 0.116760 0.628174
vt1 0.168579 0.628174
vt1 0.112915 0.627930
vt1 0.836914 0.355469
vt1 0.841309 0.551270
vt1 0.837402 0.551270
vt1 0.589355 0.551514
vt1 0.840820 0.354980
vt1 0.589355 0.355469
vt1 0.585449 0.551514
vt1 0.585449 0.354980
vt1 0.836914 0.345215
vt1 0.840820 0.345215
vt1 0.840820 0.334961
vt1 0.589355 0.345215
vt1 0.585449 0.345215
vt1 0.585449 0.334961
vt1 0.836914 0.334961
vt1 0.840820 0.324707
vt1 0.589355 0.334961
vt1 0.585449 0.324707
vt1 0.836914 0.324219
vt1 0.840820 0.313965
vt1 0.589355 0.324219
vt1 0.585449 0.313965
vt1 0.836914 0.313477
vt1 0.840820 0.302734
vt1 0.589355 0.313477
vt1 0.585449 0.302734
vt1 0.836914 0.302734
vt1 0.840820 0.291992
vt1 0.589355 0.302734
vt1 0.585449 0.291992
vt1 0.836914 0.291992
vt1 0.589355 0.291992
vt1 0.836914 0.280762
vt1 0.840820 0.280762
vt1 0.840820 0.270508
vt1 0.589355 0.280762
vt1 0.585449 0.280762
vt1 0.585449 0.270508
vt1 0.836914 0.270020
vt1 0.840820 0.090332
vt1 0.836914 0.090332
vt1 0.589355 0.090332
vt1 0.589355 0.270020
vt1 0.585449 0.090332
vt1 0.710449 0.829712
vt1 0.710938 0.770874
vt1 0.646484 0.704590
vt1 0.645996 0.645752
vt1 0.894043 0.397461
vt1 0.953125 0.397461
vt1 0.404297 0.522461
vt1 0.463135 0.522461
vt1 0.592773 0.881775
vt1 0.846191 0.881653
vt1 0.845703 0.883118
vt1 0.593262 0.883301
vt1 0.843750 0.887756
vt1 0.595215 0.888000
vt1 0.074341 0.817505
vt1 0.324951 0.812988
vt1 0.322998 0.817505
vt1 0.072388 0.812988
vt1 0.325439 0.811523
vt1 0.071777 0.811523
vt1 0.112305 0.050781
vt1 0.116760 0.050293
vt1 0.168945 0.050293
vt1 0.170166 0.051758
vt1 0.170166 0.068359
vt1 0.589355 0.553223
vt1 0.584961 0.552979
vt1 0.837402 0.552979
vt1 0.841797 0.552734
vt1 0.841797 0.088867
vt1 0.837402 0.088867
vt1 0.589355 0.088867
vt1 0.584961 0.088867
vt1 0.311279 0.068359
vt1 0.311523 0.051758
vt1 0.312744 0.050293
vt1 0.364746 0.050293
vt1 0.369385 0.050781
vt1 0.170166 0.613770
vt1 0.170044 0.628418
vt1 0.168823 0.629639
vt1 0.116699 0.629883
vt1 0.112244 0.629395
vt1 0.311035 0.614014
vt1 0.311035 0.628418
vt1 0.312256 0.629639
vt1 0.364502 0.629883
vt1 0.368896 0.629395
vt1 0.070923 0.820801
vt1 0.072388 0.812988
vt1 0.074341 0.817505
vt1 0.066284 0.818970
vt1 0.071777 0.811523
vt1 0.070862 0.879578
vt1 0.064819 0.818359
vt1 0.066223 0.881470
vt1 0.064758 0.882080
vt1 0.072205 0.887512
vt1 0.071533 0.888977
vt1 0.126221 0.889099
vt1 0.074158 0.882874
vt1 0.126221 0.887573
vt1 0.126343 0.882874
vt1 0.595215 0.953308
vt1 0.647461 0.953278
vt1 0.647461 0.957947
vt1 0.593262 0.957947
vt1 0.647461 0.959503
vt1 0.592773 0.959442
vt1 0.591797 0.949982
vt1 0.585938 0.952515
vt1 0.587402 0.951904
vt1 0.591797 0.891296
vt1 0.585938 0.888733
vt1 0.587402 0.889343
vt1 0.593262 0.883301
vt1 0.595215 0.888000
vt1 0.592773 0.881775
vt1 0.325439 0.811523
vt1 0.332520 0.818359
vt1 0.324951 0.812988
vt1 0.331055 0.818970
vt1 0.322998 0.817505
vt1 0.332520 0.882080
vt1 0.326416 0.820923
vt1 0.331055 0.881470
vt1 0.326416 0.879578
vt1 0.322998 0.882874
vt1 0.324951 0.887512
vt1 0.325684 0.889038
vt1 0.270996 0.889099
vt1 0.270996 0.887573
vt1 0.270996 0.882874
vt1 0.791992 0.952972
vt1 0.844238 0.953033
vt1 0.791992 0.957703
vt1 0.846191 0.957703
vt1 0.791992 0.959259
vt1 0.846680 0.959198
vt1 0.852051 0.951599
vt1 0.847168 0.949707
vt1 0.853516 0.952209
vt1 0.847168 0.890991
vt1 0.852051 0.889038
vt1 0.853516 0.888428
vt1 0.845703 0.883118
vt1 0.843750 0.887756
vt1 0.846191 0.881653
vt1 0.512207 0.594482
vt1 0.528809 0.594482
vt1 0.517090 0.606689
vt1 0.510742 0.599121
vt1 0.510742 0.594482
vt1 0.512207 0.600342
vt1 0.510742 0.601562
vt1 0.510742 0.608398
vt1 0.504395 0.608398
vt1 0.509766 0.599854
vt1 0.504395 0.601562
vt1 0.502930 0.608398
vt1 0.502930 0.601562
vt1 0.502930 0.599854
vt1 0.504395 0.599854
vt1 0.502930 0.545410
vt1 0.504395 0.545410
vt1 0.509766 0.545410
vt1 0.502930 0.535889
vt1 0.504395 0.535889
vt1 0.509766 0.535889
vt1 0.502930 0.472168
vt1 0.509766 0.472168
vt1 0.504395 0.472168
vt1 0.509766 0.462891
vt1 0.504395 0.462891
vt1 0.502930 0.462891
vt1 0.503906 0.209473
vt1 0.502441 0.209473
vt1 0.509277 0.209473
vt1 0.502441 0.199707
vt1 0.503906 0.199707
vt1 0.509277 0.199707
vt1 0.503906 0.136230
vt1 0.509277 0.136230
vt1 0.502441 0.136230
vt1 0.509277 0.126953
vt1 0.503906 0.126953
vt1 0.502441 0.126953
vt1 0.509766 0.072266
vt1 0.504395 0.072266
vt1 0.503418 0.072266
vt1 0.504883 0.070312
vt1 0.503418 0.070312
vt1 0.503906 0.063477
vt1 0.505371 0.063477
vt1 0.511230 0.070801
vt1 0.511719 0.063965
vt1 0.510742 0.073242
vt1 0.517578 0.066406
vt1 0.512207 0.072266
vt1 0.511719 0.078125
vt1 0.510254 0.077637
vt1 0.528320 0.079102
vt1 0.062317 0.704834
vt1 0.076599 0.704590
vt1 0.067017 0.715332
vt1 0.060974 0.709473
vt1 0.060730 0.705078
vt1 0.062469 0.710938
vt1 0.061340 0.711914
vt1 0.061615 0.718750
vt1 0.060059 0.710693
vt1 0.054993 0.712158
vt1 0.055298 0.718994
vt1 0.053406 0.719238
vt1 0.053101 0.712158
vt1 0.053009 0.710693
vt1 0.054626 0.710693
vt1 0.060059 0.656006
vt1 0.052979 0.656006
vt1 0.054626 0.656006
vt1 0.052979 0.646484
vt1 0.054596 0.646484
vt1 0.060059 0.646484
vt1 0.050751 0.583008
vt1 0.052399 0.583008
vt1 0.057831 0.582764
vt1 0.057831 0.573486
vt1 0.052368 0.573486
vt1 0.050751 0.573486
vt1 0.057800 0.320312
vt1 0.050720 0.320312
vt1 0.052368 0.320312
vt1 0.050720 0.310547
vt1 0.052338 0.310547
vt1 0.057800 0.310547
vt1 0.051666 0.247070
vt1 0.050049 0.247070
vt1 0.057129 0.247070
vt1 0.051605 0.237305
vt1 0.057068 0.237305
vt1 0.049988 0.237305
vt1 0.057037 0.182617
vt1 0.051636 0.183105
vt1 0.050018 0.183105
vt1 0.051941 0.181152
vt1 0.050049 0.181152
vt1 0.050232 0.174316
vt1 0.052124 0.174316
vt1 0.058289 0.181152
vt1 0.058441 0.174805
vt1 0.057983 0.183594
vt1 0.063904 0.178223
vt1 0.059448 0.182617
vt1 0.059357 0.188477
vt1 0.057800 0.188477
vt1 0.073669 0.188477
vt1 0.939453 0.089844
vt1 0.937012 0.091309
vt1 0.937988 0.088867
vt1 0.939941 0.231934
vt1 0.935547 0.089844
vt1 0.937500 0.230957
vt1 0.938965 0.232910
vt1 0.936035 0.232422
vt1 0.918457 0.091309
vt1 0.918457 0.089844
vt1 0.918945 0.230957
vt1 0.919434 0.232422
vt1 0.912109 0.089844
vt1 0.912598 0.232910
vt1 0.911621 0.091309
vt1 0.912598 0.230957
vt1 0.906738 0.232910
vt1 0.905273 0.091309
vt1 0.905762 0.089844
vt1 0.903809 0.089844
vt1 0.903809 0.091309
vt1 0.905273 0.230957
vt1 0.906738 0.230957
vt1 0.905273 0.232910
vt1 0.313721 0.738525
vt1 0.312500 0.739258
vt1 0.311279 0.737061
vt1 0.312744 0.735596
vt1 0.170898 0.739258
vt1 0.311279 0.720703
vt1 0.312988 0.721191
vt1 0.171875 0.737061
vt1 0.169678 0.738525
vt1 0.170410 0.735596
vt1 0.312988 0.714355
vt1 0.171997 0.720703
vt1 0.170288 0.721191
vt1 0.170410 0.714355
vt1 0.311279 0.714111
vt1 0.171875 0.714111
vt1 0.170410 0.707764
vt1 0.311279 0.707764
vt1 0.312988 0.707764
vt1 0.312988 0.705811
vt1 0.311279 0.705811
vt1 0.171875 0.705811
vt1 0.171875 0.707764
vt1 0.170410 0.705811
vn -0.023622 -0.000000 -1.000000
vn -0.047244 0.007874 -1.000000
vn 0.055118 0.007874 -1.000000
vn 0.078740 -0.000000 -1.000000
vn -0.031496 -0.007874 -1.000000
vn 0.039370 0.015748 -1.000000
vn -0.031496 -0.015748 -1.000000
vn 0.031496 0.015748 -1.000000
vn -0.031496 -0.015748 -1.000000
vn 0.031496 0.023622 -1.000000
vn -0.023622 -0.015748 -1.000000
vn 0.031496 0.023622 -1.000000
vn -0.023622 -0.015748 -1.000000
vn 0.031496 0.023622 -1.000000
vn -0.015748 -0.023622 -1.000000
vn 0.023622 0.031496 -1.000000
vn 0.015748 0.039370 -1.000000
vn -0.015748 -0.023622 -1.000000
vn 0.000000 0.078740 -1.000000
vn 0.000000 -0.023622 -1.000000
vn 0.007874 0.055118 -1.000000
vn 0.007874 -0.047244 -1.000000
vn -0.023622 0.000000 1.000000
vn 0.055118 0.007874 1.000000
vn -0.047244 0.007874 1.000000
vn 0.078740 0.000000 1.000000
vn -0.031496 -0.007874 1.000000
vn 0.039370 0.015748 1.000000
vn -0.031496 -0.015748 1.000000
vn 0.031496 0.015748 1.000000
vn -0.031496 -0.015748 1.000000
vn 0.031496 0.023622 1.000000
vn -0.023622 -0.015748 1.000000
vn 0.031496 0.023622 1.000000
vn -0.023622 -0.015748 1.000000
vn 0.031496 0.023622 1.000000
vn -0.015748 -0.023622 1.000000
vn 0.023622 0.031496 1.000000
vn 0.015748 0.039370 1.000000
vn -0.015748 -0.023622 1.000000
vn 0.000000 0.078740 1.000000
vn 0.000000 -0.023622 1.000000
vn 0.007874 0.055118 1.000000
vn 0.007874 -0.047244 1.000000
vn 0.007874 1.000000 -0.062992
vn 0.000000 1.000000 -0.007874
vn 0.055118 1.000000 -0.015748
vn 0.000000 1.000000 -0.000000
vn 0.007874 0.055118 -1.000000
vn 0.000000 0.078740 -1.000000
vn 0.023622 1.000000 -0.007874
vn 0.000000 1.000000 -0.000000
vn 0.015748 0.039370 -1.000000
vn 0.023622 1.000000 0.015748
vn 0.000000 1.000000 -0.000000
vn 0.440945 0.897638 -0.007874
vn 0.007874 1.000000 0.062992
vn 0.055118 1.000000 0.015748
vn 0.000000 0.078740 1.000000
vn 0.007874 0.055118 1.000000
vn 0.015748 0.039370 1.000000
vn 0.440945 0.897638 0.007874
vn 0.614173 0.787401 0.007874
vn 0.023622 0.031496 1.000000
vn 0.614173 0.787401 -0.007874
vn 0.023622 0.031496 -1.000000
vn 0.740157 0.677165 -0.007874
vn 0.031496 0.023622 -1.000000
vn 0.740157 0.677165 0.007874
vn 0.031496 0.023622 1.000000
vn 0.803150 0.590551 -0.007874
vn 0.031496 0.023622 -1.000000
vn 0.803150 0.590551 0.007874
vn 0.031496 0.023622 1.000000
vn 0.842520 0.535433 -0.007874
vn 0.031496 0.023622 -1.000000
vn 0.842520 0.535433 0.007874
vn 0.031496 0.023622 1.000000
vn 0.897638 0.440945 -0.007874
vn 0.031496 0.015748 -1.000000
vn 0.039370 0.015748 -1.000000
vn 0.897638 0.440945 0.007874
vn 0.031496 0.015748 1.000000
vn 0.039370 0.015748 1.000000
vn 0.952756 0.307087 -0.007874
vn 0.952756 0.307087 0.007874
vn 1.000000 0.015748 -0.015748
vn 0.078740 -0.000000 -1.000000
vn 1.000000 0.015748 0.007874
vn 0.078740 0.000000 1.000000
vn 1.000000 0.007874 -0.062992
vn 0.055118 0.007874 -1.000000
vn 1.000000 0.062992 -0.015748
vn 1.000000 0.000000 0.000000
vn 1.000000 0.000000 0.000000
vn 1.000000 0.000000 0.000000
vn 1.000000 0.000000 0.000000
vn 1.000000 0.007874 0.062992
vn 1.000000 0.062992 0.015748
vn 0.055118 0.007874 1.000000
vn -0.015748 -1.000000 -0.015748
vn 0.007874 -0.047244 -1.000000
vn 0.007874 -1.000000 -0.007874
vn 0.007874 -1.000000 0.007874
vn 0.000000 -0.023622 -1.000000
vn -0.015748 -1.000000 0.015748
vn 0.007874 -0.047244 1.000000
vn 0.000000 -0.023622 1.000000
vn -0.464567 -0.881890 -0.015748
vn -0.015748 -0.023622 -1.000000
vn -0.015748 -0.023622 -1.000000
vn -0.464567 -0.881890 0.015748
vn -0.015748 -0.023622 1.000000
vn -0.015748 -0.023622 1.000000
vn -0.637795 -0.771653 -0.015748
vn -0.023622 -0.015748 -1.000000
vn -0.637795 -0.771653 0.015748
vn -0.023622 -0.015748 1.000000
vn -0.755906 -0.653543 -0.007874
vn -0.023622 -0.015748 -1.000000
vn -0.755906 -0.653543 0.007874
vn -0.023622 -0.015748 1.000000
vn -0.826772 -0.566929 -0.007874
vn -0.031496 -0.015748 -1.000000
vn -0.826772 -0.566929 0.007874
vn -0.031496 -0.015748 1.000000
vn -0.858268 -0.511811 -0.007874
vn -0.031496 -0.015748 -1.000000
vn -0.858268 -0.511811 0.007874
vn -0.031496 -0.015748 1.000000
vn -0.913386 -0.409449 -0.007874
vn -0.913386 -0.409449 0.007874
vn -0.960630 -0.283465 -0.007874
vn -0.031496 -0.007874 -1.000000
vn -0.023622 -0.000000 -1.000000
vn -0.960630 -0.283465 0.007874
vn -0.031496 -0.007874 1.000000
vn -0.023622 0.000000 1.000000
vn -1.000000 -0.007874 -0.007874
vn -0.047244 0.007874 -1.000000
vn -1.000000 0.007874 -0.007874
vn -1.000000 0.007874 0.007874
vn -1.000000 -0.007874 0.007874
vn -0.047244 0.007874 1.000000
vn 0.992126 0.007874 0.125984
vn 0.992126 -0.007874 0.125984
vn 0.992126 0.007874 -0.125984
vn 0.992126 -0.007874 -0.125984
vn -0.007874 0.992126 -0.125984
vn 0.007874 0.992126 -0.125984
vn 0.007874 0.992126 0.125984
vn -0.007874 0.992126 0.125984
vn -0.992126 0.141732 0.023622
vn -0.992126 0.141732 -0.023622
vn -0.267717 0.960630 -0.007874
vn -0.259843 0.968504 0.007874
vn -0.133858 0.992126 -0.000000
vn -0.133858 0.992126 -0.000000
vn 0.992126 -0.133858 0.000000
vn 0.960630 -0.267716 0.007874
vn 0.992126 -0.133858 0.000000
vn 0.968504 -0.259842 -0.007874
vn 0.149606 -0.992126 0.023622
vn 0.141732 -0.992126 -0.023622
vn 0.992126 0.007874 0.125984
vn 0.992126 0.125984 0.007874
vn 0.984252 0.188976 0.015748
vn 0.031496 0.102362 0.992126
vn 0.125984 0.322835 0.937008
vn 0.992126 -0.133858 0.000000
vn 0.992126 -0.007874 0.125984
vn 0.992126 -0.133858 0.000000
vn 0.992126 -0.007874 -0.125984
vn -0.007874 0.992126 -0.125984
vn -0.133858 0.992126 -0.000000
vn -0.133858 0.992126 -0.000000
vn -0.007874 0.992126 0.125984
vn 0.125984 0.322834 -0.937008
vn 0.031496 0.102362 -0.992126
vn 0.984252 0.188976 -0.015748
vn 0.992126 0.125984 -0.007874
vn 0.992126 0.007874 -0.125984
vn 0.354331 0.141732 0.921260
vn 0.118110 0.047244 0.992126
vn 0.188976 0.984252 0.015748
vn 0.125984 0.992126 0.007874
vn 0.007874 0.992126 0.125984
vn 0.354331 0.141732 -0.921260
vn 0.118110 0.047244 -0.992126
vn 0.181102 0.984252 -0.015748
vn 0.125984 0.992126 -0.007874
vn 0.007874 0.992126 -0.125984
vn 0.992126 -0.007874 -0.125984
vn 0.968504 -0.259842 -0.007874
vn 0.992126 -0.133858 0.000000
vn 0.960630 -0.023622 -0.267716
vn 0.141732 -0.992126 -0.023622
vn 0.992126 0.007874 -0.125984
vn 0.149606 -0.094488 -0.984252
vn 0.968504 0.023622 -0.259842
vn 0.149606 0.094488 -0.984252
vn 0.968504 0.259842 -0.031496
vn 0.149606 0.984252 -0.110236
vn 0.165354 0.984252 -0.031496
vn 0.992126 0.125984 -0.007874
vn 0.984252 0.188976 -0.039370
vn 0.984252 0.188976 -0.015748
vn 0.125984 0.992126 0.007874
vn 0.188976 0.984252 0.015748
vn 0.188976 0.984252 0.039370
vn 0.259843 0.968504 0.031496
vn 0.984252 0.165354 0.031496
vn 0.984252 0.149606 0.110236
vn 0.007874 0.992126 0.125984
vn 0.094488 0.141732 0.984252
vn 0.023622 0.968504 0.259842
vn -0.007874 0.992126 0.125984
vn -0.094488 0.141732 0.984252
vn -0.023622 0.960630 0.267716
vn -0.259843 0.968504 0.007874
vn -0.133858 0.992126 -0.000000
vn -0.992126 0.141732 0.023622
vn 0.149606 -0.992126 0.023622
vn 0.149606 -0.094488 0.984252
vn 0.960630 -0.267716 0.007874
vn 0.968504 -0.023622 0.259842
vn 0.992126 -0.133858 0.000000
vn 0.149606 0.094488 0.984252
vn 0.992126 -0.007874 0.125984
vn 0.960630 0.023622 0.267716
vn 0.992126 0.007874 0.125984
vn 0.992126 0.125984 0.007874
vn 0.968504 0.259842 0.023622
vn 0.149606 0.984252 0.110236
vn 0.165354 0.984252 0.031496
vn 0.984252 0.188976 0.039370
vn 0.984252 0.188976 0.015748
vn 0.181102 0.984252 -0.015748
vn 0.125984 0.992126 -0.007874
vn 0.188976 0.984252 -0.039370
vn 0.259843 0.968504 -0.023622
vn 0.984252 0.157480 -0.031496
vn 0.984252 0.149606 -0.110236
vn 0.023622 0.960630 -0.267717
vn 0.007874 0.992126 -0.125984
vn 0.094488 0.141732 -0.984252
vn -0.007874 0.992126 -0.125984
vn -0.023622 0.968504 -0.259843
vn -0.094488 0.141732 -0.984252
vn -0.267717 0.960630 -0.007874
vn -0.133858 0.992126 -0.000000
vn -0.992126 0.141732 -0.023622
vn 0.031496 0.102362 -0.992126
vn 0.125984 0.322834 -0.937008
vn 0.086614 0.102362 -0.992126
vn 0.984252 0.188976 -0.039370
vn 0.984252 0.188976 -0.015748
vn 0.062992 0.015748 -1.000000
vn 0.015748 0.086614 -0.992126
vn 0.023622 0.157480 -0.984252
vn -0.086614 0.141732 -0.984252
vn 0.165354 0.984252 -0.031496
vn -0.102362 0.133858 -0.984252
vn -0.456693 0.110236 -0.881890
vn -0.448819 0.125984 -0.881890
vn -0.275591 0.960630 -0.031496
vn -0.062992 1.000000 -0.015748
vn -0.307087 0.952756 -0.055118
vn -0.062992 0.992126 -0.125984
vn 0.149606 0.984252 -0.110236
vn -0.724409 0.078740 -0.685039
vn -0.181102 0.086614 -0.976378
vn 0.149606 0.094488 -0.984252
vn -0.740157 -0.055118 -0.669291
vn 0.149606 -0.094488 -0.984252
vn -0.165354 -0.102362 -0.984252
vn 0.141732 -0.992126 -0.023622
vn -0.125984 -0.992126 -0.031496
vn -0.692913 -0.724409 -0.015748
vn -0.125984 -0.992126 0.031496
vn -0.692913 -0.724409 0.015748
vn 0.149606 -0.992126 0.023622
vn -0.740157 -0.055118 0.669291
vn -0.165354 -0.102362 0.984252
vn 0.149606 -0.094488 0.984252
vn -0.181102 0.086614 0.976378
vn 0.149606 0.094488 0.984252
vn -0.724409 0.078740 0.685039
vn 0.149606 0.984252 0.110236
vn -0.062992 0.992126 0.125984
vn -0.307087 0.952756 0.055118
vn 0.165354 0.984252 0.031496
vn -0.062992 1.000000 0.015748
vn -0.275591 0.960630 0.031496
vn -0.102362 0.133858 0.984252
vn -0.448819 0.125984 0.881890
vn -0.456693 0.110236 0.881890
vn -0.086614 0.141732 0.984252
vn 0.015748 0.086614 0.992126
vn 0.023622 0.157480 0.984252
vn 0.984252 0.188976 0.039370
vn 0.086614 0.102362 0.992126
vn 0.062992 0.015748 1.000000
vn 0.031496 0.102362 0.992126
vn 0.984252 0.188976 0.015748
vn 0.125984 0.322835 0.937008
vn 0.118110 0.047244 0.992126
vn 0.354331 0.141732 0.921260
vn 0.110236 0.102362 0.992126
vn 0.188976 0.984252 0.039370
vn 0.188976 0.984252 0.015748
vn 0.023622 0.086614 0.992126
vn 0.070866 0.015748 1.000000
vn 0.181102 0.055118 0.984252
vn 0.984252 0.165354 0.031496
vn 0.133858 -0.094488 0.984252
vn 0.141732 -0.086614 0.984252
vn 0.118110 -0.377953 0.921260
vn 0.133858 -0.370079 0.921260
vn 0.976378 -0.212598 0.031496
vn 1.000000 -0.055118 0.015748
vn 0.984252 0.149606 0.110236
vn 0.968504 -0.251968 0.062992
vn 0.992126 -0.055118 0.125984
vn 0.086614 -0.637795 0.763779
vn 0.086614 -0.173228 0.984252
vn 0.094488 0.141732 0.984252
vn -0.062992 -0.653543 0.755905
vn -0.102362 -0.157480 0.984252
vn -0.094488 0.141732 0.984252
vn -0.992126 0.141732 0.023622
vn -0.992126 -0.125984 0.031496
vn -0.803150 -0.598425 0.015748
vn -0.992126 0.141732 -0.023622
vn -0.803150 -0.598425 -0.015748
vn -0.992126 -0.125984 -0.031496
vn -0.062992 -0.653543 -0.755905
vn -0.102362 -0.157480 -0.984252
vn -0.094488 0.141732 -0.984252
vn 0.086614 -0.173228 -0.984252
vn 0.086614 -0.637795 -0.763779
vn 0.094488 0.141732 -0.984252
vn 0.992126 -0.055118 -0.125984
vn 0.984252 0.149606 -0.110236
vn 0.968504 -0.251968 -0.062992
vn 0.984252 0.157480 -0.031496
vn 1.000000 -0.062992 -0.015748
vn 0.976378 -0.220472 -0.031496
vn 0.133858 -0.102362 -0.984252
vn 0.133858 -0.370079 -0.921260
vn 0.118110 -0.377953 -0.921260
vn 0.141732 -0.086614 -0.984252
vn 0.070866 0.015748 -1.000000
vn 0.181102 0.055118 -0.984252
vn 0.188976 0.984252 -0.039370
vn 0.110236 0.102362 -0.992126
vn 0.023622 0.086614 -0.992126
vn 0.118110 0.047244 -0.992126
vn 0.181102 0.984252 -0.015748
vn 0.354331 0.141732 -0.921260
vn 0.000000 1.000000 -0.000000
vn 0.692913 0.724409 -0.007874
vn 0.000000 1.000000 -0.007874
vn 0.000000 1.000000 -0.000000
vn 0.125984 0.322834 -0.937008
vn 0.692913 0.724409 0.007874
vn 0.000000 1.000000 -0.000000
vn 0.125984 0.322835 0.937008
vn 0.614173 0.787401 -0.007874
vn 0.086614 0.102362 -0.992126
vn 0.614173 0.787401 0.007874
vn 0.086614 0.102362 0.992126
vn 0.023622 0.157480 -0.984252
vn 0.023622 0.157480 0.984252
vn 0.118110 0.992126 -0.007874
vn 0.118110 0.992126 0.007874
vn -0.086614 0.141732 0.984252
vn -0.055118 1.000000 -0.007874
vn -0.086614 0.141732 -0.984252
vn -0.456693 0.110236 -0.881890
vn -0.330709 0.944882 -0.007874
vn -0.330709 0.944882 0.007874
vn -0.055118 1.000000 0.007874
vn -0.456693 0.110236 0.881890
vn 1.000000 0.000000 0.000000
vn 1.000000 0.000000 0.000000
vn 0.724409 0.685039 0.007874
vn 0.354331 0.141732 0.921260
vn 1.000000 0.000000 0.000000
vn 0.748031 0.661417 0.007874
vn 0.110236 0.102362 0.992126
vn 0.724409 0.685039 -0.007874
vn 1.000000 0.000000 0.000000
vn 0.354331 0.141732 -0.921260
vn 0.181102 0.055118 0.984252
vn 0.748031 0.661417 -0.007874
vn 0.110236 0.102362 -0.992126
vn 0.181102 0.055118 -0.984252
vn 0.968504 0.259842 0.007874
vn 0.968504 0.259842 -0.007874
vn 0.141732 -0.086614 -0.984252
vn 1.000000 -0.055118 0.007874
vn 0.141732 -0.086614 0.984252
vn 0.118110 -0.377953 0.921260
vn 0.960630 -0.267716 0.007874
vn 0.960630 -0.267716 -0.007874
vn 1.000000 -0.055118 -0.007874
vn 0.118110 -0.377953 -0.921260
tan 0.000000 -1.000558 0.000000 1.000000
tan -0.000372 -1.002232 -0.007874 1.000000
tan 0.000434 -1.003038 -0.007874 1.000000
tan 0.000000 -1.006200 0.000000 1.000000
tan 0.000248 -1.000992 0.007874 1.000000
tan 0.000620 -1.001550 -0.015748 1.000000
tan 0.000496 -1.000992 0.015748 1.000000
tan 0.000496 -1.000992 -0.015748 1.000000
tan 0.000496 -1.000992 0.015748 1.000000
tan 0.000744 -1.000992 -0.023622 1.000000
tan 0.000372 -1.000558 0.015748 1.000000
tan 0.000744 -1.000992 -0.023622 1.000000
tan 0.000372 -1.000558 0.015748 1.000000
tan 0.000744 -1.000992 -0.023622 1.000000
tan 0.000372 -1.000248 0.023622 1.000000
tan 0.000744 -1.000558 -0.031496 1.000000
tan 0.000620 -1.000248 -0.039370 1.000000
tan 0.008246 -1.000248 0.023498 1.000000
tan 0.000000 -1.000000 -0.078740 1.000000
tan 0.007874 -1.000000 0.023622 1.000000
tan 0.031930 -1.000062 -0.054870 1.000000
tan -0.016120 -1.000062 0.047120 1.000000
tan 0.000000 -1.000558 0.000000 1.000000
tan 0.000434 -1.003038 0.007874 1.000000
tan -0.000372 -1.002232 0.007874 1.000000
tan 0.000000 -1.006200 0.000000 1.000000
tan 0.000248 -1.000992 -0.007874 1.000000
tan 0.000620 -1.001550 0.015748 1.000000
tan 0.000496 -1.000992 -0.015748 1.000000
tan 0.000496 -1.000992 0.015748 1.000000
tan 0.000496 -1.000992 -0.015748 1.000000
tan 0.000744 -1.000992 0.023622 1.000000
tan 0.000372 -1.000558 -0.015748 1.000000
tan 0.000744 -1.000992 0.023622 1.000000
tan 0.000372 -1.000558 -0.015748 1.000000
tan 0.000744 -1.000992 0.023622 1.000000
tan 0.000372 -1.000248 -0.023622 1.000000
tan 0.000744 -1.000558 0.031496 1.000000
tan 0.000620 -1.000248 0.039370 1.000000
tan 0.008246 -1.000248 -0.023498 1.000000
tan 0.000000 -1.000000 0.078740 1.000000
tan 0.007874 -1.000000 -0.023622 1.000000
tan 0.031930 -1.000062 0.054870 1.000000
tan -0.016120 -1.000062 -0.047120 1.000000
tan 1.003968 -0.009858 -0.031000 1.000000
tan 1.000062 0.000000 0.000000 1.000000
tan 1.000248 -0.055862 -0.046376 1.000000
tan 1.000000 0.000000 0.000000 1.000000
tan 0.995164 -0.071300 0.003906 1.000000
tan 0.990452 -0.173228 -0.013640 1.000000
tan 0.992188 -0.024180 -0.094302 1.000000
tan 1.000000 0.000000 0.007874 1.000000
tan 0.899188 -0.433691 -0.002914 1.000000
tan 0.992250 -0.024924 0.094302 1.000000
tan 1.000000 0.000000 0.007874 1.000000
tan 0.897700 -0.440945 0.003472 1.000000
tan 1.003968 -0.009362 0.023126 1.000000
tan 1.000248 -0.055862 0.046376 1.000000
tan 0.990452 -0.173228 0.013640 1.000000
tan 0.995164 -0.079174 -0.003472 1.000000
tan 0.907062 -0.433691 0.002790 1.000000
tan 0.897762 -0.440945 -0.006944 1.000000
tan 0.787526 -0.614173 -0.009672 1.000000
tan 0.788642 -0.615103 0.000744 1.000000
tan 0.787526 -0.614173 0.009672 1.000000
tan 0.788642 -0.622977 -0.000992 1.000000
tan 0.677289 -0.740157 0.011656 1.000000
tan 0.678095 -0.741397 0.003844 1.000000
tan 0.677289 -0.740157 -0.011656 1.000000
tan 0.678095 -0.733523 -0.004030 1.000000
tan 0.590613 -0.803211 0.001674 1.000000
tan 0.591481 -0.804389 -0.000372 1.000000
tan 0.590613 -0.803211 -0.001674 1.000000
tan 0.591295 -0.804141 0.000372 1.000000
tan 0.535495 -0.842582 0.002418 1.000000
tan 0.528489 -0.851634 -0.003472 1.000000
tan 0.535495 -0.842582 -0.002418 1.000000
tan 0.528489 -0.851634 0.003472 1.000000
tan 0.440945 -0.897700 -0.003472 1.000000
tan 0.433691 -0.898878 -0.000496 1.000000
tan 0.299833 -0.954306 -0.003224 1.000000
tan 0.440945 -0.897700 0.003472 1.000000
tan 0.433691 -0.898878 0.000496 1.000000
tan 0.299833 -0.954306 0.003224 1.000000
tan 0.307087 -0.952818 -0.002418 1.000000
tan 0.307087 -0.952818 0.002418 1.000000
tan 0.016740 -1.000248 0.062744 1.000000
tan 0.118110 -0.998326 0.009300 1.000000
tan 0.016244 -1.000062 -0.062868 1.000000
tan 0.110236 -0.998326 -0.008680 1.000000
tan 0.009362 -1.003968 0.023126 1.000000
tan 0.063426 -1.003038 -0.004402 1.000000
tan 0.063736 -1.000248 0.046252 1.000000
tan 0.000000 -1.000000 0.007874 1.000000
tan 0.000000 -1.000000 0.007874 1.000000
tan 0.000000 -1.000000 -0.007874 1.000000
tan 0.000000 -1.000000 -0.007874 1.000000
tan 0.009362 -1.003968 -0.023126 1.000000
tan 0.063736 -1.000248 -0.046252 1.000000
tan 0.063426 -1.003038 0.004402 1.000000
tan 1.000124 -0.017112 0.086490 1.000000
tan 1.002232 0.031868 0.006386 1.000000
tan 1.000062 0.007998 -0.015686 1.000000
tan 1.000062 0.007936 0.007812 1.000000
tan 0.976936 -0.204724 0.004836 1.000000
tan 1.000124 -0.017112 -0.086490 1.000000
tan 1.002232 0.039742 -0.006014 1.000000
tan 0.976936 -0.212598 -0.005022 1.000000
tan 0.882138 -0.464443 -0.014260 1.000000
tan 0.890508 -0.449315 -0.003410 1.000000
tan 0.788146 -0.614669 0.002108 1.000000
tan 0.882138 -0.464567 0.007316 1.000000
tan 0.890508 -0.457189 0.003224 1.000000
tan 0.788146 -0.614669 -0.002108 1.000000
tan 0.771778 -0.637919 0.001054 1.000000
tan 0.669787 -0.740901 -0.004154 1.000000
tan 0.771778 -0.637919 -0.001054 1.000000
tan 0.669787 -0.740901 0.004154 1.000000
tan 0.653605 -0.755967 -0.000806 1.000000
tan 0.583173 -0.811767 -0.000992 1.000000
tan 0.653605 -0.755967 0.000806 1.000000
tan 0.575299 -0.819641 0.000682 1.000000
tan 0.566991 -0.826834 -0.002046 1.000000
tan 0.512307 -0.859260 -0.002604 1.000000
tan 0.566991 -0.826834 0.002046 1.000000
tan 0.512307 -0.859260 0.002604 1.000000
tan 0.511811 -0.858392 0.008060 1.000000
tan 0.409945 -0.914378 0.001488 1.000000
tan 0.511811 -0.858392 -0.008060 1.000000
tan 0.409945 -0.914378 -0.001488 1.000000
tan 0.409449 -0.913448 0.003224 1.000000
tan 0.409449 -0.913448 -0.003224 1.000000
tan 0.283465 -0.960754 0.004464 1.000000
tan 0.275839 -0.961622 -0.001116 1.000000
tan 0.110236 -0.992684 -0.002604 1.000000
tan 0.283465 -0.960754 -0.004464 1.000000
tan 0.283713 -0.961622 0.001364 1.000000
tan 0.118110 -0.992684 0.002790 1.000000
tan 0.008246 -1.000062 -0.047182 1.000000
tan -0.039742 -1.002232 -0.006014 1.000000
tan -0.007998 -1.000062 0.015686 1.000000
tan -0.007936 -1.000062 -0.007812 1.000000
tan 0.008246 -1.000062 0.047182 1.000000
tan -0.047616 -1.002232 0.005642 1.000000
tan 0.007812 -1.000186 0.000992 1.000000
tan -0.006820 -1.000186 -0.008804 1.000000
tan 0.007812 -1.000186 -0.000992 1.000000
tan -0.006820 -1.000186 0.008804 1.000000
tan 0.000992 -0.125984 -0.992188 1.000000
tan -0.000992 -0.125984 -0.992188 1.000000
tan -0.000992 -0.125984 0.992188 1.000000
tan 0.000992 -0.125984 0.992188 1.000000
tan -0.143034 -0.952694 -0.291276 1.000000
tan -0.143034 -0.952694 0.291277 1.000000
tan -0.960692 -0.267778 -0.005456 1.000000
tan -0.968566 -0.259904 0.005580 1.000000
tan -0.992126 -0.133858 -0.007812 1.000000
tan -0.992126 -0.133858 0.000000 1.000000
tan -0.133858 -0.992126 0.000000 1.000000
tan -0.267717 -0.960692 -0.002108 1.000000
tan -0.133858 -0.992126 0.000000 1.000000
tan -0.259967 -0.968504 -0.015252 1.000000
tan -0.944882 -0.149420 -0.291401 1.000000
tan -0.952694 -0.143034 0.291277 1.000000
tan 0.089156 -0.745241 -0.655527 1.000000
tan 0.120776 -0.929320 -0.348689 1.000000
tan 0.185008 -0.937132 -0.317440 1.000000
tan 0.979974 -0.175336 -0.013020 1.000000
tan 0.987290 -0.123814 -0.090086 1.000000
tan 0.125426 0.929630 -0.357865 1.000000
tan 0.091078 0.737429 -0.671151 1.000000
tan 0.125426 0.929630 0.350053 1.000000
tan 0.092938 0.721805 0.686775 1.000000
tan -0.721805 -0.092938 -0.686775 1.000000
tan -0.929630 -0.125426 -0.350053 1.000000
tan -0.929630 -0.125426 0.357865 1.000000
tan -0.737429 -0.091078 0.671151 1.000000
tan 0.987290 -0.123814 0.090086 1.000000
tan 0.979974 -0.175336 0.013020 1.000000
tan 0.185008 -0.937132 0.317441 1.000000
tan 0.120714 -0.929382 0.339885 1.000000
tan 0.091078 -0.737429 0.671151 1.000000
tan 0.132246 -0.987104 0.100998 1.000000
tan 0.185628 -0.983570 0.024738 1.000000
tan 0.937132 -0.185008 0.317441 1.000000
tan 0.929382 -0.120776 0.347697 1.000000
tan 0.737429 -0.091078 0.671151 1.000000
tan 0.139500 -0.979850 -0.097092 1.000000
tan 0.185628 -0.983570 -0.024738 1.000000
tan 0.937132 -0.177506 -0.317131 1.000000
tan 0.929320 -0.120776 -0.348689 1.000000
tan 0.737429 -0.091078 -0.671151 1.000000
tan -0.007812 -1.000186 0.000992 1.000000
tan -0.259967 -0.968504 -0.015252 1.000000
tan -0.133858 -0.992126 0.000000 1.000000
tan -0.039556 -0.992374 -0.054374 1.000000
tan -0.952694 -0.143034 0.291277 1.000000
tan 0.007812 -1.000186 -0.000992 1.000000
tan -0.217124 -0.977990 0.060884 1.000000
tan 0.034968 -0.997892 0.039618 1.000000
tan 0.209374 -0.977990 -0.062062 1.000000
tan 0.260091 -0.969248 0.001488 1.000000
tan 0.944696 -0.174654 -0.277326 1.000000
tan 0.985244 -0.165602 -0.002542 1.000000
tan 0.125984 -0.992188 -0.000992 1.000000
tan 0.189286 -0.985492 0.001798 1.000000
tan 0.188976 -0.984500 -0.002976 1.000000
tan -0.992188 0.125984 0.000992 1.000000
tan -0.984500 0.189100 -0.004774 1.000000
tan -0.985802 0.189286 -0.000310 1.000000
tan -0.969248 0.260091 -0.001488 1.000000
tan -0.165602 0.985244 0.002542 1.000000
tan -0.174654 0.944696 0.277326 1.000000
tan -1.000186 0.007812 0.000992 1.000000
tan -0.976688 0.217124 0.062496 1.000000
tan -0.997892 0.034968 -0.039618 1.000000
tan -1.000186 -0.008804 0.006820 1.000000
tan -0.968938 -0.224874 -0.060636 1.000000
tan -0.992374 -0.037448 0.046810 1.000000
tan -0.968566 -0.259904 0.005580 1.000000
tan -0.992126 -0.133858 0.000000 1.000000
tan -0.143034 -0.952694 -0.291276 1.000000
tan -0.944882 -0.149420 -0.291401 1.000000
tan -0.232624 -0.970240 -0.057784 1.000000
tan -0.267717 -0.960692 -0.002108 1.000000
tan -0.039060 -0.997892 0.054870 1.000000
tan -0.133858 -0.992126 0.000000 1.000000
tan 0.209374 -0.977990 0.062062 1.000000
tan -0.007812 -1.000186 -0.000992 1.000000
tan 0.035340 -0.992374 -0.039246 1.000000
tan 0.007812 -1.000186 0.000992 1.000000
tan 0.125984 -0.992188 0.000992 1.000000
tan 0.260029 -0.969062 -0.001488 1.000000
tan 0.944696 -0.174654 0.277327 1.000000
tan 0.985244 -0.165602 0.002542 1.000000
tan 0.189286 -0.985492 -0.001798 1.000000
tan 0.188976 -0.984500 0.002976 1.000000
tan -0.984500 0.181226 0.004898 1.000000
tan -0.992188 0.125984 -0.000992 1.000000
tan -0.985802 0.189286 0.000310 1.000000
tan -0.969062 0.260214 0.009114 1.000000
tan -0.157728 0.985244 -0.002790 1.000000
tan -0.174654 0.944696 -0.277327 1.000000
tan -0.992374 0.035340 0.039246 1.000000
tan -1.000186 0.006820 -0.008804 1.000000
tan -0.975572 0.193130 -0.065844 1.000000
tan -1.000186 -0.008804 -0.006820 1.000000
tan -0.997892 -0.039060 -0.054870 1.000000
tan -0.968938 -0.240374 0.058404 1.000000
tan -0.960692 -0.267778 -0.005456 1.000000
tan -0.992126 -0.133858 -0.007812 1.000000
tan -0.143034 -0.952694 0.291277 1.000000
tan -0.994792 -0.004588 -0.032054 1.000000
tan -0.989584 0.003782 -0.131750 1.000000
tan -0.994792 0.001054 -0.086738 1.000000
tan -0.062248 0.116560 -0.996714 1.000000
tan -0.014012 -0.010726 -1.004464 1.000000
tan -1.000248 -0.006882 -0.063116 1.000000
tan -0.991816 -0.029884 -0.018352 1.000000
tan -0.993552 -0.004030 -0.024490 1.000000
tan -0.996590 -0.004526 0.087048 1.000000
tan -0.963234 0.154752 -0.220968 1.000000
tan -0.994420 -0.067952 0.094178 1.000000
tan -0.886230 -0.005084 0.458305 1.000000
tan -0.880898 -0.220410 0.416827 1.000000
tan -0.955050 -0.269949 0.123256 1.000000
tan -1.000248 -0.062992 0.000992 1.000000
tan -0.949594 -0.300763 0.091698 1.000000
tan -1.000186 -0.059520 0.031372 1.000000
tan -0.989522 0.142352 -0.071920 1.000000
tan -0.670221 -0.329717 0.670841 1.000000
tan -0.977556 -0.087730 0.173538 1.000000
tan -0.986174 0.069564 -0.143220 1.000000
tan -0.655961 0.269701 0.703205 1.000000
tan -0.986174 -0.069564 -0.143220 1.000000
tan -0.987786 0.087978 0.156798 1.000000
tan -0.992870 -0.140058 -0.074772 1.000000
tan -0.993366 0.123752 0.075268 1.000000
tan -0.704445 0.668485 0.245272 1.000000
tan -0.993366 0.124000 -0.067456 1.000000
tan -0.704321 0.668485 -0.239817 1.000000
tan -0.993056 -0.147932 0.076198 1.000000
tan -0.655961 0.274970 -0.702771 1.000000
tan -0.987786 0.087978 -0.156798 1.000000
tan -0.986174 -0.069564 0.143220 1.000000
tan -0.977556 -0.087730 -0.173538 1.000000
tan -0.986174 0.069564 0.143220 1.000000
tan -0.664827 -0.329717 -0.665137 1.000000
tan -0.989522 0.141484 0.079670 1.000000
tan -1.000186 -0.060512 -0.023560 1.000000
tan -0.949594 -0.301631 -0.076694 1.000000
tan -0.947982 0.150164 0.284271 1.000000
tan -1.000248 -0.063488 0.030504 1.000000
tan -0.962366 -0.273607 -0.075702 1.000000
tan -0.987724 -0.130758 -0.084940 1.000000
tan -0.869986 -0.279621 -0.402815 1.000000
tan -0.889702 -0.075020 -0.451361 1.000000
tan -0.988840 -0.066526 -0.077438 1.000000
tan -0.991816 -0.092380 0.023808 1.000000
tan -0.993552 -0.066030 0.034410 1.000000
tan -0.053320 0.070060 0.996714 1.000000
tan -0.993986 -0.062124 0.093186 1.000000
tan -1.000124 -0.070370 0.064108 1.000000
tan -0.994792 -0.059272 0.037696 1.000000
tan -0.005084 -0.057226 1.004464 1.000000
tan -0.987042 -0.063612 0.154628 1.000000
tan -0.033480 -0.998264 0.051522 1.000000
tan -0.030690 -0.985988 0.163494 1.000000
tan -0.028582 -0.995598 0.105896 1.000000
tan 0.085560 -0.056296 0.996714 1.000000
tan -0.033976 -0.009548 1.004464 1.000000
tan -0.037696 -0.992498 0.087544 1.000000
tan -0.069874 -0.996590 0.020646 1.000000
tan -0.036952 -1.000124 0.062806 1.000000
tan 0.152458 -0.955484 0.251969 1.000000
tan -0.106392 -0.987724 -0.080352 1.000000
tan -0.043276 -0.996590 -0.081468 1.000000
tan -0.047616 -0.928886 -0.374977 1.000000
tan -0.220844 -0.919648 -0.337343 1.000000
tan -0.210862 -0.977866 -0.063860 1.000000
tan -0.055366 -1.000248 0.014880 1.000000
tan 0.142352 -0.989522 0.071920 1.000000
tan -0.246017 -0.965838 -0.080848 1.000000
tan -0.051708 -1.000186 -0.030380 1.000000
tan -0.310063 -0.744188 -0.586273 1.000000
tan -0.095232 -0.985368 -0.165044 1.000000
tan 0.053258 -0.986174 0.136896 1.000000
tan 0.224688 -0.749954 -0.629673 1.000000
tan 0.063860 -0.987786 -0.151404 1.000000
tan -0.084258 -0.986174 0.133920 1.000000
tan -0.140244 -0.992870 0.066960 1.000000
tan 0.123752 -0.993366 -0.075268 1.000000
tan 0.581685 -0.786409 -0.217620 1.000000
tan -0.140058 -0.993056 -0.075888 1.000000
tan 0.581685 -0.786409 0.217620 1.000000
tan 0.124000 -0.993366 0.067456 1.000000
tan 0.257982 -0.745489 0.623039 1.000000
tan 0.087110 -0.987786 0.148986 1.000000
tan -0.061008 -0.986174 -0.136152 1.000000
tan -0.071982 -0.985368 0.167090 1.000000
tan -0.281977 -0.748837 0.593341 1.000000
tan 0.076508 -0.986174 -0.134664 1.000000
tan -0.050716 -1.000186 0.038192 1.000000
tan 0.143220 -0.989522 -0.064170 1.000000
tan -0.246017 -0.965838 0.080848 1.000000
tan 0.146816 -0.963234 -0.228160 1.000000
tan -0.062992 -1.000248 0.000992 1.000000
tan -0.216256 -0.970178 0.087296 1.000000
tan -0.084258 -0.987724 0.091264 1.000000
tan -0.196168 -0.918594 0.340505 1.000000
tan -0.022878 -0.927956 0.377767 1.000000
tan -0.027776 -0.996590 0.083700 1.000000
tan -0.046252 -1.004464 -0.019096 1.000000
tan -0.021452 -1.000124 -0.059954 1.000000
tan 0.101370 -0.059272 -0.995226 1.000000
tan -0.012152 -0.996466 -0.104160 1.000000
tan -0.021390 -0.992684 -0.087172 1.000000
tan -0.017856 -0.998264 -0.049662 1.000000
tan -0.026102 -0.011222 -1.001550 1.000000
tan -0.016182 -0.985988 -0.157914 1.000000
tan 1.000000 -0.000000 -0.047244 1.000000
tan 0.724719 -0.692603 0.055800 1.000000
tan 1.000062 -0.000682 -0.086614 1.000000
tan 0.992126 0.000000 0.149606 1.000000
tan 0.886540 -0.464195 -0.040734 1.000000
tan 0.724285 -0.693099 0.028024 1.000000
tan 0.960630 0.000000 0.267716 1.000000
tan 0.788084 -0.610763 0.104470 1.000000
tan 0.781946 -0.608469 0.144832 1.000000
tan 0.903466 -0.432761 0.034224 1.000000
tan 0.787712 -0.613863 -0.055180 1.000000
tan 0.833964 -0.558435 -0.015190 1.000000
tan 0.985802 -0.143220 0.000744 1.000000
tan 0.978052 -0.189720 0.006882 1.000000
tan 0.992188 -0.118110 0.000930 1.000000
tan 0.992188 -0.118358 0.030318 1.000000
tan 0.996590 0.020026 0.084816 1.000000
tan 1.000062 0.054746 -0.047678 1.000000
tan 0.996590 0.043276 -0.081468 1.000000
tan 0.841094 0.361709 -0.390353 1.000000
tan 0.937876 0.327113 -0.137268 1.000000
tan 0.937876 0.326989 0.152148 1.000000
tan 1.000062 0.054622 0.063426 1.000000
tan 0.847170 0.351169 0.394817 1.000000
tan 0.000000 -0.976378 -0.196850 1.000000
tan 0.000000 -0.992126 -0.110236 1.000000
tan 0.685039 -0.724471 0.005394 1.000000
tan 0.552979 -0.827516 -0.085374 1.000000
tan 0.000000 -0.992126 0.110236 1.000000
tan 0.661169 -0.748341 0.049600 1.000000
tan 0.616839 -0.797693 0.013764 1.000000
tan 0.685039 -0.724471 -0.005394 1.000000
tan 0.000000 -0.976378 0.196850 1.000000
tan 0.552979 -0.827516 0.085374 1.000000
tan 0.265733 -0.962800 0.005022 1.000000
tan 0.661169 -0.748341 -0.049600 1.000000
tan 0.616839 -0.797693 -0.013764 1.000000
tan 0.273917 -0.964226 -0.003596 1.000000
tan 0.259843 -0.968566 0.002046 1.000000
tan 0.259781 -0.968566 -0.009672 1.000000
tan -0.012276 -0.996590 0.085932 1.000000
tan -0.054622 -1.000062 -0.063426 1.000000
tan -0.027776 -0.996590 -0.083700 1.000000
tan -0.308203 -0.896522 -0.328291 1.000000
tan -0.264803 -0.953376 -0.108872 1.000000
tan -0.264803 -0.953376 0.108872 1.000000
tan -0.054684 -1.000062 0.055552 1.000000
tan -0.308203 -0.896522 0.328291 1.000000
f 3/3/3 2/2/2 1/1/1
f 1/1/1 4/4/4 3/3/3
f 5/5/5 4/4/4 1/1/1
f 6/6/6 4/4/4 5/5/5
f 7/7/7 6/6/6 5/5/5
f 8/8/8 6/6/6 7/7/7
f 9/9/9 8/8/8 7/7/7
f 10/10/10 8/8/8 9/9/9
f 9/9/9 11/11/11 10/10/10
f 12/12/12 10/10/10 11/11/11
f 11/11/11 13/13/13 12/12/12
f 14/14/14 12/12/12 13/13/13
f 13/13/13 15/15/15 14/14/14
f 16/16/16 14/14/14 15/15/15
f 17/17/17 16/16/16 15/15/15
f 15/15/15 18/18/18 17/17/17
f 19/19/19 17/17/17 18/18/18
f 20/20/20 19/19/19 18/18/18
f 20/20/20 21/21/21 19/19/19
f 21/21/21 20/20/20 22/22/22
f 25/25/25 24/24/24 23/23/23
f 23/23/23 24/24/24 26/26/26
f 23/23/23 26/26/26 27/27/27
f 28/28/28 27/27/27 26/26/26
f 29/29/29 27/27/27 28/28/28
f 28/28/28 30/30/30 29/29/29
f 31/31/31 29/29/29 30/30/30
f 30/30/30 32/32/32 31/31/31
f 33/33/33 31/31/31 32/32/32
f 32/32/32 34/34/34 33/33/33
f 35/35/35 33/33/33 34/34/34
f 34/34/34 36/36/36 35/35/35
f 35/35/35 36/36/36 37/37/37
f 38/38/38 37/37/37 36/36/36
f 39/39/39 37/37/37 38/38/38
f 37/37/37 39/39/39 40/40/40
f 41/41/41 40/40/40 39/39/39
f 40/40/40 41/41/41 42/42/42
f 41/41/41 43/43/43 42/42/42
f 44/44/44 42/42/42 43/43/43
f 47/47/47 46/46/46 45/45/45
f 46/46/46 48/48/48 45/45/45
f 45/45/45 50/50/50 49/49/49
f 48/48/48 51/51/51 45/45/45
f 50/50/50 45/45/45 51/51/51
f 48/48/48 52/52/52 51/51/51
f 53/53/53 50/50/50 51/51/51
f 54/54/54 51/51/51 52/52/52
f 54/54/54 52/52/52 55/55/55
f 53/53/53 51/51/51 56/56/56
f 55/55/55 58/58/58 57/57/57
f 54/54/54 55/55/55 57/57/57
f 60/60/60 59/59/59 57/57/57
f 54/54/54 57/57/57 59/59/59
f 59/59/59 61/61/61 54/54/54
f 62/62/62 51/51/51 54/54/54
f 62/62/62 54/54/54 61/61/61
f 56/56/56 51/51/51 62/62/62
f 62/62/62 61/61/61 63/63/63
f 64/64/64 63/63/63 61/61/61
f 56/56/56 62/62/62 65/65/65
f 63/63/63 65/65/65 62/62/62
f 53/53/53 56/56/56 65/65/65
f 65/65/65 66/66/66 53/53/53
f 66/66/66 65/65/65 67/67/67
f 65/65/65 63/63/63 67/67/67
f 67/67/67 68/68/68 66/66/66
f 63/63/63 64/64/64 69/69/69
f 69/69/69 67/67/67 63/63/63
f 70/70/70 69/69/69 64/64/64
f 68/68/68 67/67/67 71/71/71
f 71/71/71 67/67/67 69/69/69
f 71/71/71 72/72/72 68/68/68
f 69/69/69 70/70/70 73/73/73
f 73/73/73 71/71/71 69/69/69
f 74/74/74 73/73/73 70/70/70
f 71/71/71 75/75/75 72/72/72
f 75/75/75 71/71/71 73/73/73
f 75/75/75 76/76/76 72/72/72
f 73/73/73 74/74/74 77/77/77
f 77/77/77 75/75/75 73/73/73
f 78/78/78 77/77/77 74/74/74
f 75/75/75 79/79/79 76/76/76
f 79/79/79 75/75/75 77/77/77
f 79/79/79 80/80/80 76/76/76
f 80/80/80 79/79/79 81/81/81
f 77/77/77 78/78/78 82/82/82
f 82/82/82 79/79/79 77/77/77
f 83/83/83 82/82/82 78/78/78
f 82/82/82 83/83/83 84/84/84
f 85/85/85 81/81/81 79/79/79
f 85/85/85 79/79/79 82/82/82
f 86/86/86 82/82/82 84/84/84
f 86/86/86 85/85/85 82/82/82
f 85/85/85 87/87/87 81/81/81
f 87/87/87 85/85/85 86/86/86
f 88/88/88 81/81/81 87/87/87
f 84/84/84 89/89/89 86/86/86
f 89/89/89 87/87/87 86/86/86
f 90/90/90 89/89/89 84/84/84
f 92/92/92 88/88/88 91/91/91
f 87/87/87 91/91/91 88/88/88
f 94/94/94 93/93/93 91/91/91
f 87/87/87 94/94/94 91/91/91
f 87/87/87 95/95/95 94/94/94
f 96/96/96 95/95/95 87/87/87
f 96/96/96 87/87/87 89/89/89
f 96/96/96 89/89/89 97/97/97
f 89/89/89 98/98/98 97/97/97
f 99/99/99 97/97/97 98/98/98
f 89/89/89 90/90/90 98/98/98
f 100/100/100 98/98/98 90/90/90
f 103/103/103 102/102/102 101/101/101
f 103/103/103 101/101/101 104/104/104
f 105/105/105 101/101/101 102/102/102
f 106/106/106 104/104/104 101/101/101
f 104/104/104 106/106/106 107/107/107
f 108/108/108 107/107/107 106/106/106
f 109/109/109 101/101/101 105/105/105
f 101/101/101 109/109/109 106/106/106
f 109/109/109 105/105/105 110/110/110
f 109/109/109 110/110/110 111/111/111
f 108/108/108 106/106/106 112/112/112
f 112/112/112 106/106/106 109/109/109
f 112/112/112 113/113/113 108/108/108
f 114/114/114 113/113/113 112/112/112
f 111/111/111 115/115/115 109/109/109
f 115/115/115 112/112/112 109/109/109
f 115/115/115 111/111/111 116/116/116
f 114/114/114 112/112/112 117/117/117
f 117/117/117 112/112/112 115/115/115
f 118/118/118 114/114/114 117/117/117
f 116/116/116 119/119/119 115/115/115
f 119/119/119 117/117/117 115/115/115
f 119/119/119 116/116/116 120/120/120
f 118/118/118 117/117/117 121/121/121
f 121/121/121 117/117/117 119/119/119
f 121/121/121 122/122/122 118/118/118
f 120/120/120 123/123/123 119/119/119
f 119/119/119 123/123/123 121/121/121
f 120/120/120 124/124/124 123/123/123
f 122/122/122 121/121/121 125/125/125
f 125/125/125 121/121/121 123/123/123
f 122/122/122 125/125/125 126/126/126
f 124/124/124 127/127/127 123/123/123
f 123/123/123 127/127/127 125/125/125
f 124/124/124 128/128/128 127/127/127
f 129/129/129 126/126/126 125/125/125
f 129/129/129 125/125/125 127/127/127
f 126/126/126 129/129/129 130/130/130
f 128/128/128 131/131/131 127/127/127
f 127/127/127 131/131/131 129/129/129
f 132/132/132 130/130/130 129/129/129
f 132/132/132 129/129/129 131/131/131
f 131/131/131 128/128/128 133/133/133
f 131/131/131 133/133/133 132/132/132
f 134/134/134 133/133/133 128/128/128
f 134/134/134 135/135/135 133/133/133
f 132/132/132 136/136/136 130/130/130
f 136/136/136 132/132/132 133/133/133
f 137/137/137 130/130/130 136/136/136
f 136/136/136 138/138/138 137/137/137
f 139/139/139 133/133/133 135/135/135
f 133/133/133 139/139/139 136/136/136
f 135/135/135 140/140/140 139/139/139
f 141/141/141 139/139/139 140/140/140
f 141/141/141 142/142/142 139/139/139
f 143/143/143 138/138/138 136/136/136
f 143/143/143 136/136/136 139/139/139
f 142/142/142 143/143/143 139/139/139
f 138/138/138 143/143/143 144/144/144
f 142/142/142 144/144/144 143/143/143
f 145/145/145 44/44/44 43/43/43
f 146/146/146 44/44/44 145/145/145
f 21/21/21 148/148/148 147/147/147
f 22/22/22 148/148/148 21/21/21
f 2/2/2 150/150/150 149/149/149
f 3/3/3 150/150/150 2/2/2
f 24/24/24 25/25/25 151/151/151
f 152/152/152 151/151/151 25/25/25
f 155/155/155 154/154/154 153/153/153
f 153/153/153 156/156/156 155/155/155
f 155/155/155 156/156/156 157/157/157
f 158/158/158 157/157/157 156/156/156
f 161/161/161 160/160/160 159/159/159
f 159/159/159 160/160/160 162/162/162
f 160/160/160 163/163/163 162/162/162
f 164/164/164 162/162/162 163/163/163
f 60/60/60 166/166/166 165/165/165
f 57/57/57 166/166/166 60/60/60
f 57/57/57 167/167/167 166/166/166
f 58/58/58 167/167/167 57/57/57
f 168/168/168 167/167/167 58/58/58
f 168/168/168 58/58/58 169/169/169
f 169/169/169 58/58/58 55/55/55
f 171/171/171 170/170/170 107/107/107
f 104/104/104 107/107/107 170/170/170
f 104/104/104 170/170/170 172/172/172
f 103/103/103 104/104/104 172/172/172
f 172/172/172 173/173/173 103/103/103
f 102/102/102 103/103/103 173/173/173
f 140/140/140 174/174/174 141/141/141
f 175/175/175 141/141/141 174/174/174
f 141/141/141 175/175/175 142/142/142
f 176/176/176 142/142/142 175/175/175
f 176/176/176 144/144/144 142/142/142
f 144/144/144 176/176/176 177/177/177
f 178/178/178 46/46/46 47/47/47
f 47/47/47 179/179/179 178/178/178
f 47/47/47 180/180/180 179/179/179
f 180/180/180 47/47/47 45/45/45
f 45/45/45 181/181/181 180/180/180
f 45/45/45 182/182/182 181/181/181
f 182/182/182 45/45/45 49/49/49
f 183/183/183 97/97/97 99/99/99
f 99/99/99 184/184/184 183/183/183
f 99/99/99 185/185/185 184/184/184
f 99/99/99 98/98/98 185/185/185
f 186/186/186 185/185/185 98/98/98
f 98/98/98 187/187/187 186/186/186
f 100/100/100 187/187/187 98/98/98
f 188/188/188 93/93/93 94/94/94
f 189/189/189 93/93/93 188/188/188
f 189/189/189 190/190/190 93/93/93
f 93/93/93 190/190/190 91/91/91
f 91/91/91 190/190/190 191/191/191
f 191/191/191 192/192/192 91/91/91
f 92/92/92 91/91/91 192/192/192
f 195/195/195 194/194/194 193/193/193
f 193/193/193 194/194/194 196/196/196
f 197/197/197 196/196/196 194/194/194
f 193/193/193 196/196/196 198/198/198
f 199/199/199 196/196/196 197/197/197
f 196/196/196 199/199/199 200/200/200
f 198/198/198 196/196/196 200/200/200
f 200/200/200 199/199/199 201/201/201
f 200/200/200 202/202/202 198/198/198
f 201/201/201 202/202/202 200/200/200
f 202/202/202 201/201/201 203/203/203
f 202/202/202 203/203/203 204/204/204
f 205/205/205 198/198/198 202/202/202
f 204/204/204 206/206/206 202/202/202
f 205/205/205 202/202/202 206/206/206
f 207/207/207 205/205/205 206/206/206
f 210/210/210 209/209/209 208/208/208
f 208/208/208 211/211/211 210/210/210
f 210/210/210 211/211/211 212/212/212
f 213/213/213 212/212/212 211/211/211
f 208/208/208 214/214/214 211/211/211
f 211/211/211 215/215/215 213/213/213
f 216/216/216 211/211/211 214/214/214
f 216/216/216 215/215/215 211/211/211
f 214/214/214 217/217/217 216/216/216
f 216/216/216 218/218/218 215/215/215
f 219/219/219 216/216/216 217/217/217
f 219/219/219 218/218/218 216/216/216
f 219/219/219 217/217/217 220/220/220
f 219/219/219 220/220/220 218/218/218
f 221/221/221 220/220/220 217/217/217
f 222/222/222 218/218/218 220/220/220
f 225/225/225 224/224/224 223/223/223
f 226/226/226 224/224/224 225/225/225
f 227/227/227 226/226/226 225/225/225
f 224/224/224 226/226/226 228/228/228
f 227/227/227 229/229/229 226/226/226
f 229/229/229 230/230/230 226/226/226
f 228/228/228 226/226/226 230/230/230
f 231/231/231 230/230/230 229/229/229
f 231/231/231 232/232/232 230/230/230
f 230/230/230 233/233/233 228/228/228
f 233/233/233 230/230/230 232/232/232
f 234/234/234 228/228/228 233/233/233
f 233/233/233 235/235/235 234/234/234
f 235/235/235 233/233/233 236/236/236
f 232/232/232 236/236/236 233/233/233
f 237/237/237 236/236/236 232/232/232
f 240/240/240 239/239/239 238/238/238
f 241/241/241 239/239/239 240/240/240
f 240/240/240 242/242/242 241/241/241
f 243/243/243 241/241/241 242/242/242
f 241/241/241 244/244/244 239/239/239
f 241/241/241 243/243/243 244/244/244
f 245/245/245 239/239/239 244/244/244
f 244/244/244 243/243/243 246/246/246
f 245/245/245 244/244/244 247/247/247
f 244/244/244 246/246/246 248/248/248
f 248/248/248 247/247/247 244/244/244
f 248/248/248 246/246/246 249/249/249
f 248/248/248 250/250/250 247/247/247
f 249/249/249 250/250/250 248/248/248
f 251/251/251 247/247/247 250/250/250
f 252/252/252 250/250/250 249/249/249
f 255/255/255 254/254/254 253/253/253
f 253/253/253 257/257/257 256/256/256
f 258/258/258 255/255/255 253/253/253
f 256/256/256 258/258/258 253/253/253
f 258/258/258 259/259/259 255/255/255
f 258/258/258 256/256/256 259/259/259
f 260/260/260 255/255/255 259/259/259
f 260/260/260 259/259/259 261/261/261
f 262/262/262 259/259/259 256/256/256
f 263/263/263 261/261/261 259/259/259
f 262/262/262 263/263/263 259/259/259
f 264/264/264 261/261/261 263/263/263
f 263/263/263 265/265/265 264/264/264
f 266/266/266 265/265/265 263/263/263
f 266/266/266 263/263/263 267/267/267
f 267/267/267 263/263/263 262/262/262
f 267/267/267 268/268/268 266/266/266
f 262/262/262 269/269/269 267/267/267
f 268/268/268 267/267/267 269/269/269
f 270/270/270 269/269/269 262/262/262
f 268/268/268 269/269/269 271/271/271
f 270/270/270 272/272/272 269/269/269
f 271/271/271 269/269/269 272/272/272
f 273/273/273 272/272/272 270/270/270
f 272/272/272 274/274/274 271/271/271
f 273/273/273 275/275/275 272/272/272
f 276/276/276 272/272/272 275/275/275
f 276/276/276 274/274/274 272/272/272
f 275/275/275 277/277/277 276/276/276
f 274/274/274 276/276/276 278/278/278
f 278/278/278 276/276/276 277/277/277
f 278/278/278 279/279/279 274/274/274
f 277/277/277 280/280/280 278/278/278
f 279/279/279 278/278/278 280/280/280
f 281/281/281 279/279/279 280/280/280
f 282/282/282 280/280/280 277/277/277
f 280/280/280 283/283/283 281/281/281
f 282/282/282 284/284/284 280/280/280
f 283/283/283 280/280/280 284/284/284
f 285/285/285 284/284/284 282/282/282
f 283/283/283 284/284/284 286/286/286
f 284/284/284 285/285/285 286/286/286
f 287/287/287 286/286/286 285/285/285
f 286/286/286 288/288/288 283/283/283
f 287/287/287 289/289/289 286/286/286
f 288/288/288 286/286/286 290/290/290
f 290/290/290 286/286/286 289/289/289
f 290/290/290 291/291/291 288/288/288
f 289/289/289 292/292/292 290/290/290
f 291/291/291 290/290/290 293/293/293
f 293/293/293 290/290/290 292/292/292
f 293/293/293 294/294/294 291/291/291
f 293/293/293 295/295/295 294/294/294
f 293/293/293 292/292/292 295/295/295
f 294/294/294 295/295/295 296/296/296
f 296/296/296 295/295/295 297/297/297
f 297/297/297 295/295/295 298/298/298
f 292/292/292 299/299/299 295/295/295
f 295/295/295 299/299/299 298/298/298
f 299/299/299 300/300/300 298/298/298
f 292/292/292 301/301/301 299/299/299
f 300/300/300 299/299/299 302/302/302
f 303/303/303 299/299/299 301/301/301
f 303/303/303 302/302/302 299/299/299
f 301/301/301 304/304/304 303/303/303
f 304/304/304 302/302/302 303/303/303
f 305/305/305 304/304/304 301/301/301
f 302/302/302 304/304/304 306/306/306
f 309/309/309 308/308/308 307/307/307
f 311/311/311 310/310/310 307/307/307
f 312/312/312 309/309/309 307/307/307
f 310/310/310 312/312/312 307/307/307
f 313/313/313 309/309/309 312/312/312
f 312/312/312 310/310/310 313/313/313
f 313/313/313 314/314/314 309/309/309
f 315/315/315 313/313/313 310/310/310
f 313/313/313 316/316/316 314/314/314
f 315/315/315 316/316/316 313/313/313
f 317/317/317 314/314/314 316/316/316
f 318/318/318 317/317/317 316/316/316
f 319/319/319 318/318/318 316/316/316
f 320/320/320 319/319/319 316/316/316
f 321/321/321 316/316/316 315/315/315
f 316/316/316 321/321/321 320/320/320
f 315/315/315 322/322/322 321/321/321
f 321/321/321 323/323/323 320/320/320
f 323/323/323 321/321/321 324/324/324
f 324/324/324 321/321/321 322/322/322
f 323/323/323 324/324/324 325/325/325
f 324/324/324 322/322/322 326/326/326
f 325/325/325 324/324/324 326/326/326
f 327/327/327 326/326/326 322/322/322
f 325/325/325 326/326/326 328/328/328
f 326/326/326 327/327/327 329/329/329
f 328/328/328 326/326/326 329/329/329
f 330/330/330 329/329/329 327/327/327
f 331/331/331 329/329/329 330/330/330
f 329/329/329 332/332/332 328/328/328
f 332/332/332 329/329/329 331/331/331
f 333/333/333 328/328/328 332/332/332
f 332/332/332 331/331/331 334/334/334
f 333/333/333 332/332/332 335/335/335
f 336/336/336 335/335/335 332/332/332
f 336/336/336 332/332/332 334/334/334
f 336/336/336 337/337/337 335/335/335
f 336/336/336 334/334/334 338/338/338
f 337/337/337 336/336/336 338/338/338
f 339/339/339 338/338/338 334/334/334
f 337/337/337 338/338/338 340/340/340
f 338/338/338 339/339/339 340/340/340
f 341/341/341 337/337/337 340/340/340
f 342/342/342 340/340/340 339/339/339
f 341/341/341 340/340/340 343/343/343
f 343/343/343 340/340/340 342/342/342
f 343/343/343 342/342/342 344/344/344
f 343/343/343 345/345/345 341/341/341
f 343/343/343 344/344/344 346/346/346
f 345/345/345 343/343/343 347/347/347
f 347/347/347 343/343/343 346/346/346
f 348/348/348 345/345/345 347/347/347
f 349/349/349 348/348/348 347/347/347
f 349/349/349 347/347/347 346/346/346
f 349/349/349 350/350/350 348/348/348
f 350/350/350 349/349/349 351/351/351
f 352/352/352 351/351/351 349/349/349
f 346/346/346 353/353/353 349/349/349
f 349/349/349 353/353/353 352/352/352
f 354/354/354 352/352/352 353/353/353
f 346/346/346 355/355/355 353/353/353
f 356/356/356 354/354/354 353/353/353
f 357/357/357 353/353/353 355/355/355
f 353/353/353 357/357/357 356/356/356
f 355/355/355 358/358/358 357/357/357
f 358/358/358 356/356/356 357/357/357
f 359/359/359 358/358/358 355/355/355
f 356/356/356 358/358/358 360/360/360
f 363/363/363 362/362/362 361/361/361
f 362/362/362 364/364/364 361/361/361
f 362/362/362 363/363/363 365/365/365
f 366/366/366 364/364/364 362/362/362
f 367/367/367 364/364/364 366/366/366
f 367/367/367 366/366/366 368/368/368
f 365/365/365 369/369/369 362/362/362
f 362/362/362 369/369/369 366/366/366
f 370/370/370 369/369/369 365/365/365
f 368/368/368 366/366/366 371/371/371
f 371/371/371 366/366/366 369/369/369
f 372/372/372 368/368/368 371/371/371
f 370/370/370 373/373/373 369/369/369
f 371/371/371 374/374/374 372/372/372
f 373/373/373 375/375/375 369/369/369
f 374/374/374 371/371/371 376/376/376
f 376/376/376 371/371/371 369/369/369
f 369/369/369 375/375/375 376/376/376
f 374/374/374 376/376/376 377/377/377
f 375/375/375 373/373/373 378/378/378
f 375/375/375 378/378/378 376/376/376
f 379/379/379 378/378/378 373/373/373
f 379/379/379 380/380/380 378/378/378
f 380/380/380 381/381/381 378/378/378
f 381/381/381 382/382/382 378/378/378
f 383/383/383 377/377/377 376/376/376
f 383/383/383 376/376/376 378/378/378
f 382/382/382 383/383/383 378/378/378
f 383/383/383 384/384/384 377/377/377
f 384/384/384 383/383/383 382/382/382
f 387/387/387 386/386/386 385/385/385
f 387/387/387 385/385/385 388/388/388
f 387/387/387 389/389/389 386/386/386
f 388/388/388 390/390/390 387/387/387
f 391/391/391 390/390/390 388/388/388
f 392/392/392 389/389/389 387/387/387
f 390/390/390 392/392/392 387/387/387
f 393/393/393 389/389/389 392/392/392
f 392/392/392 394/394/394 393/393/393
f 390/390/390 391/391/391 395/395/395
f 394/394/394 392/392/392 396/396/396
f 396/396/396 392/392/392 390/390/390
f 396/396/396 397/397/397 394/394/394
f 397/397/397 396/396/396 398/398/398
f 395/395/395 399/399/399 390/390/390
f 400/400/400 398/398/398 396/396/396
f 400/400/400 396/396/396 390/390/390
f 399/399/399 400/400/400 390/390/390
f 400/400/400 401/401/401 398/398/398
f 395/395/395 402/402/402 399/399/399
f 402/402/402 400/400/400 399/399/399
f 403/403/403 402/402/402 395/395/395
f 403/403/403 404/404/404 402/402/402
f 405/405/405 402/402/402 404/404/404
f 405/405/405 406/406/406 402/402/402
f 400/400/400 402/402/402 407/407/407
f 406/406/406 407/407/407 402/402/402
f 407/407/407 401/401/401 400/400/400
f 407/407/407 406/406/406 408/408/408
f 407/407/407 408/408/408 401/401/401
