mtllib SM_Air_Duct_04.mtl
g SM_Air_Duct_04
#Vertices 412
#Indices 1464
#Section 0 Offset 0 NumIndices 516 MaterialIndex 0 MI_Air_Duct_Metal
#Section 1 Offset 516 NumIndices 948 MaterialIndex 1 MI_Air_Duct_Plastic
v 0.700000 0.191550 -0.000000
v 0.029449 0.191550 0.000000
v 0.029449 0.008450 0.000000
v 0.700000 0.008450 -0.000000
v 0.877350 0.191550 0.013173
v 0.877350 0.008450 0.013173
v 1.050000 0.191550 0.050000
v 1.050000 0.008450 0.050000
v 1.154980 0.191550 0.093916
v 1.154980 0.008450 0.093916
v 1.255715 0.191550 0.156834
v 1.255715 0.008450 0.156834
v 1.338971 0.191550 0.240859
v 1.338971 0.008450 0.240859
v 1.402758 0.008450 0.342595
v 1.402758 0.191550 0.342595
v 1.450000 0.008450 0.450000
v 1.450000 0.191550 0.450000
v 1.487456 0.008450 0.622381
v 1.487456 0.191550 0.622381
v 1.500000 0.008450 0.800000
v 1.500000 0.191550 0.800000
v 1.500000 0.191550 1.470550
v 1.500000 0.008450 1.470551
v 0.507351 0.191550 0.800000
v 0.029449 0.008450 0.800000
v 0.029449 0.191550 0.800000
v 0.507351 0.008450 0.800000
v 0.550059 0.008450 0.803172
v 0.550059 0.191550 0.803172
v 0.600131 0.191550 0.814897
v 0.600131 0.008450 0.814897
v 0.645516 0.191550 0.841924
v 0.645516 0.008450 0.841924
v 0.673765 0.008450 0.876095
v 0.673765 0.191550 0.876095
v 0.687959 0.008450 0.908365
v 0.687959 0.191550 0.908365
v 0.696979 0.008450 0.949877
v 0.696979 0.191550 0.949877
v 0.700000 0.008450 0.992649
v 0.700000 0.191550 0.992649
v 0.700000 0.191550 1.470551
v 0.700000 0.008450 1.470551
v 0.700000 0.008450 0.992649
v 0.700000 0.008450 1.470551
v 0.708450 0.000000 1.470551
v 0.708429 -0.000000 0.992054
v 0.696979 0.008450 0.949877
v 1.491550 0.000000 1.470551
v 0.705366 -0.000000 0.948676
v 0.687959 0.008450 0.908365
v 1.491550 -0.000000 0.800000
v 1.500000 0.008450 0.800000
v 1.500000 0.008450 1.470551
v 1.479069 -0.000000 0.623582
v 1.487456 0.008450 0.622381
v 0.696037 -0.000000 0.905740
v 0.673765 0.008450 0.876095
v 1.441923 -0.000000 0.452624
v 1.450000 0.008450 0.450000
v 0.681071 -0.000000 0.871717
v 1.395452 -0.000000 0.346974
v 1.402758 0.008450 0.342595
v 0.651266 -0.000000 0.835726
v 0.645516 0.008450 0.841924
v 1.332636 -0.000000 0.246509
v 1.338971 0.008450 0.240859
v 1.250524 -0.000000 0.163592
v 1.255715 0.008450 0.156834
v 1.151458 -0.000000 0.101647
v 1.154980 0.008450 0.093916
v 0.603009 -0.000000 0.806950
v 0.600131 0.008450 0.814897
v 1.047765 -0.000000 0.058163
v 1.050000 0.008450 0.050000
v 0.551259 -0.000000 0.794788
v 0.550059 0.008450 0.803172
v 0.876150 -0.000000 0.021558
v 0.877350 0.008450 0.013173
v 0.700000 0.008450 -0.000000
v 0.507351 0.008450 0.800000
v 0.699374 -0.000000 0.008427
v 0.029449 0.008450 0.000000
v 0.029449 0.000000 0.008450
v 0.507351 0.000000 0.791550
v 0.029449 0.000000 0.791550
v 0.029449 0.008450 0.800000
v 1.491550 0.200000 1.470550
v 1.327775 0.200000 1.470551
v 1.327775 0.200000 1.417054
v 1.491571 0.200000 0.800595
v 1.500000 0.191550 1.470550
v 1.324254 0.200000 1.413533
v 1.500000 0.191550 0.800000
v 0.708450 0.200000 0.992649
v 0.875747 0.200000 1.413533
v 0.872225 0.200000 1.417054
v 1.479069 0.200000 0.623582
v 1.487456 0.191550 0.622381
v 0.708450 0.200000 1.470551
v 0.872225 0.200000 1.470551
v 0.700000 0.191550 0.992649
v 0.700000 0.191550 1.470551
v 0.696979 0.191550 0.949877
v 0.705366 0.200000 0.948676
v 0.687959 0.191550 0.908365
v 0.696037 0.200000 0.905741
v 0.673765 0.191550 0.876095
v 1.441923 0.200000 0.452624
v 1.450000 0.191550 0.450000
v 0.681071 0.200000 0.871717
v 1.395452 0.200000 0.346974
v 1.402758 0.191550 0.342595
v 0.651266 0.200000 0.835726
v 0.645516 0.191550 0.841924
v 1.332636 0.200000 0.246510
v 1.338971 0.191550 0.240859
v 1.250524 0.200000 0.163592
v 1.255715 0.191550 0.156834
v 1.151458 0.200000 0.101647
v 1.154980 0.191550 0.093916
v 0.603009 0.200000 0.806950
v 0.600131 0.191550 0.814897
v 1.047765 0.200000 0.058163
v 1.050000 0.191550 0.050000
v 0.551259 0.200000 0.794788
v 0.550059 0.191550 0.803172
v 0.876150 0.200000 0.021558
v 0.877350 0.191550 0.013173
v 0.507977 0.200000 0.791573
v 0.507351 0.191550 0.800000
v 0.700000 0.200000 0.008450
v 0.700000 0.191550 -0.000000
v 0.029449 0.191550 0.000000
v 0.029449 0.200000 0.008450
v 0.082945 0.200000 0.172225
v 0.029449 0.200000 0.172225
v 0.086466 0.200000 0.175746
v 0.086466 0.200000 0.624254
v 0.082945 0.200000 0.627775
v 0.029449 0.200000 0.791550
v 0.029449 0.200000 0.627775
v 0.029449 0.191550 0.800000
v 1.503521 0.193008 1.474072
v 1.503521 0.006992 1.474072
v 0.696479 0.193008 1.474072
v 0.696479 0.006992 1.474072
v 0.025928 0.193008 0.803521
v 0.025928 0.006992 0.803521
v 0.025927 0.193008 -0.003521
v 0.025927 0.006992 -0.003521
v 1.503521 0.006992 1.474072
v 1.493008 -0.003521 1.474072
v 0.706992 -0.003521 1.474072
v 0.696479 0.006992 1.474072
v 0.706992 0.203521 1.474072
v 0.696479 0.193008 1.474072
v 0.872225 0.203521 1.474072
v 0.875747 0.203521 1.470551
v 0.875747 0.203521 1.425231
v 1.322011 0.245618 1.499999
v 1.324254 0.225398 1.493997
v 1.322011 0.224206 1.499999
v 1.324254 0.247199 1.493997
v 1.324254 0.225557 1.474072
v 1.324254 0.247199 1.474072
v 1.324254 0.236601 1.456623
v 1.324254 0.203521 1.425231
v 1.324254 0.203521 1.470551
v 1.324254 0.222446 1.470551
v 1.327775 0.218511 1.474072
v 1.327775 0.203521 1.474072
v 1.327775 0.222020 1.477593
v 1.493008 0.203521 1.474072
v 1.499133 0.218308 1.474072
v 1.500592 0.221829 1.477593
v 1.503521 0.193008 1.474072
v 1.521829 0.200591 1.477593
v 1.518308 0.199133 1.474072
v 1.503521 0.006992 1.474072
v 1.518308 0.000867 1.474072
v 1.521829 -0.000591 1.477593
v 1.499133 -0.018308 1.474072
v 1.493008 -0.003521 1.474072
v 1.500592 -0.021829 1.477593
v 0.025927 -0.003521 0.006992
v 0.025928 -0.018307 0.799133
v 0.025928 -0.003521 0.793008
v 0.025927 -0.018307 0.000867
v 0.022406 -0.021829 0.800591
v 0.022406 -0.021829 -0.000591
v 0.025928 0.203521 0.793008
v 0.025928 0.193008 0.803521
v 0.025928 0.203521 0.627775
v 0.029449 0.203521 0.624254
v 0.074769 0.203521 0.624254
v 0.025928 0.006992 0.803521
v 0.025928 -0.003521 0.793008
v 0.025927 -0.003521 0.006992
v 0.025927 0.006992 -0.003521
v 0.025927 0.203521 0.006992
v 0.025927 0.193008 -0.003521
v 0.025928 0.203521 0.172225
v 0.029449 0.203521 0.175746
v 0.074769 0.203521 0.175746
v -0.000000 0.245618 0.622011
v 0.006002 0.225398 0.624254
v -0.000000 0.224206 0.622011
v 0.006002 0.247199 0.624254
v 0.025928 0.225557 0.624254
v 0.025928 0.247199 0.624254
v 0.043376 0.236601 0.624254
v 0.074769 0.203521 0.624254
v 0.029449 0.203521 0.624254
v 0.029449 0.222446 0.624254
v 0.025928 0.218511 0.627775
v 0.025928 0.203521 0.627775
v 0.022406 0.222020 0.627775
v 0.025928 0.203521 0.793008
v 0.025928 0.218308 0.799133
v 0.022407 0.221829 0.800591
v 0.025928 0.199133 0.818308
v 0.025928 0.193008 0.803521
v 0.022406 0.200591 0.821829
v 0.025928 0.006992 0.803521
v 0.025928 0.000867 0.818308
v 0.022406 -0.000591 0.821829
v 0.025928 -0.018307 0.799133
v 0.025928 -0.003521 0.793008
v 0.022406 -0.021829 0.800591
v 0.700867 -0.018308 1.474072
v 1.493008 -0.003521 1.474072
v 0.706992 -0.003521 1.474072
v 1.499133 -0.018308 1.474072
v 1.500592 -0.021829 1.477593
v 0.699409 -0.021829 1.477593
v 0.875747 0.225348 1.493997
v 0.877989 0.245618 1.499999
v 0.877989 0.224206 1.499999
v 0.875747 0.247199 1.493997
v 0.875747 0.247199 1.474072
v 0.875747 0.225344 1.474072
v 0.875747 0.236596 1.456614
v 0.875747 0.203521 1.470551
v 0.875747 0.203521 1.425231
v 0.875747 0.222273 1.470551
v 0.872226 0.218302 1.474072
v 0.872225 0.203521 1.474072
v 0.872226 0.221823 1.477593
v 0.706992 0.203521 1.474072
v 0.700868 0.218307 1.474072
v 0.699409 0.221829 1.477593
v 0.678171 0.200591 1.477593
v 0.681693 0.199132 1.474072
v 0.696479 0.193008 1.474072
v 0.678172 -0.000591 1.477593
v 0.696479 0.006992 1.474072
v 0.681693 0.000867 1.474072
v 0.700867 -0.018308 1.474072
v 0.699409 -0.021829 1.477593
v 0.706992 -0.003521 1.474072
v 1.324254 0.203521 1.425231
v 1.324254 0.203521 1.470551
v 1.327775 0.203521 1.474072
v 1.493008 0.203521 1.474072
v 1.503521 0.193008 1.474072
v 0.006002 0.225349 0.175746
v -0.000000 0.245618 0.177989
v -0.000000 0.224206 0.177989
v 0.006002 0.247199 0.175746
v 0.025928 0.247199 0.175746
v 0.025928 0.225344 0.175746
v 0.043386 0.236596 0.175746
v 0.029449 0.203521 0.175746
v 0.074769 0.203521 0.175746
v 0.029449 0.222273 0.175746
v 0.025928 0.218302 0.172225
v 0.025928 0.203521 0.172225
v 0.022406 0.221823 0.172225
v 0.025927 0.203521 0.006992
v 0.025927 0.218308 0.000868
v 0.022406 0.221829 -0.000591
v 0.025927 0.193008 -0.003521
v 0.022406 0.200591 -0.021829
v 0.025927 0.199132 -0.018307
v 0.025927 0.006992 -0.003521
v 0.022406 -0.000591 -0.021829
v 0.025927 -0.018307 0.000867
v 0.025927 -0.003521 0.006992
v 0.025927 0.000867 -0.018307
v 0.022406 -0.021829 -0.000591
v 0.875747 0.225348 1.493997
v 0.877989 0.224206 1.499999
v 0.874503 0.220755 1.499999
v 0.872226 0.221827 1.494812
v 0.703415 0.220755 1.499999
v 0.875747 0.225344 1.474072
v 0.872226 0.221823 1.477593
v 0.699409 0.221829 1.494812
v 0.682390 0.199943 1.499999
v 0.699409 0.221829 1.477593
v 0.678172 0.200592 1.494812
v 0.682390 0.002783 1.499999
v 0.678171 0.200591 1.477593
v 0.678172 -0.000591 1.494812
v 0.678172 -0.000591 1.477593
v 0.699409 -0.021829 1.494812
v 0.703415 -0.018029 1.499999
v 0.699409 -0.021829 1.477593
v 1.496586 -0.018029 1.499999
v 1.500592 -0.021829 1.494812
v 1.500592 -0.021829 1.477593
v 1.517611 0.002783 1.499999
v 1.521829 -0.000591 1.494812
v 1.521829 -0.000591 1.477593
v 1.521829 0.200591 1.494812
v 1.517611 0.199942 1.499999
v 1.521829 0.200591 1.477593
v 1.500591 0.221829 1.494812
v 1.500592 0.221829 1.477593
v 1.496585 0.220755 1.499999
v 1.327775 0.222020 1.477593
v 1.327775 0.221873 1.494812
v 1.325497 0.220755 1.499999
v 1.324254 0.225398 1.493997
v 1.324254 0.225557 1.474072
v 1.322011 0.224206 1.499999
v 0.025928 0.225344 0.175746
v 0.006002 0.225349 0.175746
v 0.022406 0.221823 0.172225
v -0.000000 0.224206 0.177989
v -0.000000 0.220755 0.174503
v 0.005187 0.221828 0.172225
v 0.022406 0.221829 -0.000591
v -0.000000 0.220755 0.003415
v 0.005187 0.221829 -0.000591
v -0.000000 0.199943 -0.017610
v 0.005187 0.200592 -0.021829
v 0.022406 0.200591 -0.021829
v -0.000000 0.002783 -0.017610
v 0.005187 -0.000591 -0.021829
v 0.022406 -0.000591 -0.021829
v 0.022406 -0.021829 -0.000591
v 0.005187 -0.021829 -0.000591
v -0.000000 -0.018029 0.003415
v -0.000000 -0.018029 0.796585
v 0.005187 -0.021829 0.800591
v 0.022406 -0.021829 0.800591
v 0.000000 0.002783 0.817610
v 0.005187 -0.000591 0.821829
v 0.022406 -0.000591 0.821829
v 0.005187 0.200591 0.821829
v 0.000000 0.199942 0.817610
v 0.022406 0.200591 0.821829
v 0.005187 0.221829 0.800591
v 0.022407 0.221829 0.800591
v 0.000000 0.220755 0.796585
v 0.022406 0.222020 0.627775
v 0.005187 0.221873 0.627775
v -0.000000 0.220755 0.625497
v 0.006002 0.225398 0.624254
v 0.025928 0.225557 0.624254
v -0.000000 0.224206 0.622011
v 0.879268 0.250720 1.493997
v 0.881475 0.249068 1.499999
v 0.877989 0.245618 1.499999
v 1.318525 0.249068 1.499999
v 0.875747 0.247199 1.493997
v 1.320733 0.250720 1.493997
v 1.322011 0.245618 1.499999
v 1.324254 0.247199 1.493997
v 1.324254 0.247199 1.474072
v 0.879268 0.250720 1.474072
v 0.875747 0.247199 1.474072
v 1.320733 0.250720 1.474072
v 0.879268 0.240452 1.455310
v 0.875747 0.236596 1.456614
v 0.875747 0.203521 1.425231
v 1.320733 0.240452 1.455310
v 1.324254 0.236601 1.456623
v 1.324254 0.203521 1.425231
v 0.879268 0.202558 1.419474
v 0.872225 0.200000 1.417054
v 0.875747 0.200000 1.413533
v 1.320733 0.202558 1.419474
v 1.327775 0.200000 1.417054
v 1.324254 0.200000 1.413533
v 0.080526 0.202558 0.620733
v 0.086466 0.200000 0.624254
v 0.082945 0.200000 0.627775
v 0.074769 0.203521 0.624254
v 0.086466 0.200000 0.175746
v 0.044689 0.240452 0.620733
v 0.043376 0.236601 0.624254
v 0.080526 0.202558 0.179268
v 0.082945 0.200000 0.172225
v 0.074769 0.203521 0.175746
v 0.025928 0.247199 0.624254
v 0.044689 0.240452 0.179268
v 0.043386 0.236596 0.175746
v 0.025928 0.247199 0.175746
v 0.025928 0.250720 0.179268
v 0.025928 0.250720 0.620732
v 0.006002 0.250720 0.179268
v 0.006002 0.247199 0.175746
v -0.000000 0.245618 0.177989
v -0.000000 0.249068 0.181475
v 0.006002 0.250720 0.620732
v 0.006002 0.247199 0.624254
v -0.000000 0.249068 0.618525
v -0.000000 0.245618 0.622011
vt -0.089172 1.126587
vt -0.426270 1.126587
vt -0.426270 1.034912
vt -0.089172 1.034912
vt -0.001596 1.126587
vt -0.001596 1.034912
vt 0.085693 1.126587
vt 0.085693 1.034912
vt 0.142334 1.126587
vt 0.142334 1.034912
vt 0.202271 1.126587
vt 0.202271 1.034912
vt 0.262207 1.126587
vt 0.262207 1.034912
vt 0.322754 1.034912
vt 0.322754 1.126587
vt 0.381104 1.034912
vt 0.381104 1.126587
vt 0.468506 1.034912
vt 0.468506 1.126587
vt 0.556152 1.034912
vt 0.556152 1.126587
vt 0.890625 1.126587
vt 0.890625 1.034912
vt 0.558594 0.944000
vt 0.799805 0.852661
vt 0.799805 0.944000
vt 0.558594 0.852661
vt 0.537109 0.852661
vt 0.537109 0.944000
vt 0.511719 0.944000
vt 0.511719 0.852661
vt 0.485352 0.944000
vt 0.485352 0.852661
vt 0.463379 0.852661
vt 0.463379 0.944000
vt 0.445801 0.852661
vt 0.445801 0.944000
vt 0.424561 0.852661
vt 0.424561 0.944000
vt 0.403320 0.852661
vt 0.403320 0.944000
vt 0.164795 0.944000
vt 0.164795 0.852661
vt 0.736328 0.286621
vt 0.736328 0.048340
vt 0.742188 0.047852
vt 0.742188 0.287109
vt 0.734375 0.308105
vt 1.132812 0.046387
vt 0.740234 0.309082
vt 0.729492 0.329102
vt 1.132812 0.380859
vt 1.138672 0.380859
vt 1.138672 0.046387
vt 1.125977 0.469238
vt 1.131836 0.470215
vt 0.734863 0.330566
vt 0.722168 0.344727
vt 1.107422 0.554932
vt 1.113281 0.556641
vt 0.727051 0.348145
vt 1.083984 0.608154
vt 1.088867 0.611084
vt 0.711914 0.366211
vt 0.708008 0.361816
vt 1.052734 0.658691
vt 1.056641 0.662354
vt 1.011719 0.700439
vt 1.014648 0.705078
vt 0.961914 0.731934
vt 0.964355 0.737061
vt 0.687500 0.380859
vt 0.685547 0.375488
vt 0.909668 0.754028
vt 0.911133 0.759644
vt 0.661621 0.387695
vt 0.660645 0.381836
vt 0.823730 0.772949
vt 0.824707 0.778687
vt 0.735352 0.786133
vt 0.639160 0.384277
vt 0.735352 0.780151
vt 0.398438 0.787964
vt 0.398193 0.781738
vt 0.639160 0.390137
vt 0.397949 0.391113
vt 0.398438 0.385254
vt 0.342285 -0.303711
vt 0.342041 -0.221680
vt 0.315430 -0.221680
vt 0.008026 -0.303711
vt 0.342041 -0.309570
vt 0.313477 -0.219727
vt 0.007656 -0.309570
vt 0.102600 0.086426
vt 0.312744 0.003418
vt 0.314209 0.004883
vt -0.080261 -0.297852
vt -0.081116 -0.303711
vt 0.341064 0.086914
vt 0.340820 0.004883
vt 0.102661 0.092773
vt 0.340820 0.092773
vt 0.081482 0.094238
vt 0.080627 0.088379
vt 0.061005 0.099121
vt 0.059113 0.093262
vt 0.045166 0.106445
vt -0.165527 -0.279297
vt -0.167358 -0.285156
vt 0.042023 0.101074
vt -0.218262 -0.255859
vt -0.221191 -0.260742
vt 0.023926 0.116211
vt 0.028336 0.120117
vt -0.268311 -0.224609
vt -0.272217 -0.229492
vt -0.310059 -0.183594
vt -0.314697 -0.187500
vt -0.341064 -0.134766
vt -0.346436 -0.136719
vt 0.009171 0.140137
vt 0.014732 0.142578
vt -0.363281 -0.083008
vt -0.368896 -0.084961
vt 0.002588 0.166016
vt 0.008461 0.166992
vt -0.382324 0.002441
vt -0.388184 0.001465
vt 0.000562 0.187988
vt 0.006489 0.188477
vt -0.389404 0.089844
vt -0.395508 0.089844
vt -0.398193 0.426758
vt -0.392090 0.427246
vt -0.310059 0.401367
vt -0.310303 0.427734
vt -0.308105 0.399414
vt -0.084351 0.400391
vt -0.082825 0.401855
vt -0.001433 0.429199
vt -0.083191 0.428223
vt 0.004681 0.429199
vt 0.892578 1.127319
vt 0.892578 1.034180
vt 0.162354 0.944733
vt 0.162354 0.851929
vt 0.802246 0.944733
vt 0.802246 0.851929
vt -0.428223 1.127319
vt -0.428223 1.034180
vt 1.139648 0.043945
vt 1.132812 0.043457
vt 0.742188 0.045410
vt 0.735352 0.046387
vt 0.343506 0.086914
vt 0.343018 0.093750
vt 0.343018 0.004395
vt 0.341064 0.002441
vt 0.318359 0.002441
vt 0.485596 0.335449
vt 0.482422 0.324707
vt 0.485596 0.324707
vt 0.482422 0.335449
vt 0.472412 0.324707
vt 0.472656 0.335449
vt 0.464111 0.330078
vt 0.448242 0.313477
vt 0.470947 0.313477
vt 0.470947 0.323242
vt 0.473877 0.321289
vt 0.473633 0.313477
vt 0.474365 0.323242
vt 0.556152 0.313477
vt 0.559570 0.320801
vt 0.560547 0.323242
vt 0.561035 0.308105
vt 0.570801 0.312012
vt 0.568848 0.311035
vt 0.561035 0.215332
vt 0.568359 0.212402
vt 0.570801 0.211426
vt 0.559082 0.202637
vt 0.555664 0.209961
vt 0.560059 0.200195
vt -0.639160 0.855957
vt -0.243408 0.848511
vt -0.246460 0.855957
vt -0.642578 0.848511
vt -0.242554 0.846191
vt -0.643066 0.846191
vt -0.001396 0.431641
vt 0.005653 0.431152
vt -0.083618 0.430664
vt -0.085571 0.428711
vt -0.085388 0.405762
vt 0.396240 0.383789
vt 0.395264 0.391113
vt 0.395264 0.781982
vt 0.395996 0.789062
vt -0.392090 0.429688
vt -0.399170 0.429199
vt -0.309814 0.430176
vt -0.307861 0.428223
vt -0.307617 0.405273
vt -0.316895 0.981262
vt -0.319824 0.970352
vt -0.316895 0.970322
vt -0.319824 0.981247
vt -0.329834 0.970459
vt -0.329834 0.981232
vt -0.338379 0.975861
vt -0.354004 0.959320
vt -0.331299 0.959290
vt -0.331543 0.968750
vt -0.328613 0.966766
vt -0.328857 0.959290
vt -0.327881 0.969040
vt -0.246216 0.959351
vt -0.242920 0.966705
vt -0.241821 0.969040
vt -0.233765 0.956940
vt -0.241089 0.953979
vt -0.231445 0.957855
vt -0.241211 0.861084
vt -0.233887 0.857910
vt -0.231445 0.856934
vt -0.243408 0.848511
vt -0.246460 0.855957
vt -0.242554 0.846191
vt 0.160034 0.202637
vt 0.555664 0.209961
vt 0.162964 0.209961
vt 0.559082 0.202637
vt 0.560059 0.200195
vt 0.159058 0.200195
vt 0.234009 0.326660
vt 0.230957 0.337891
vt 0.230957 0.326660
vt 0.234009 0.337891
vt 0.243896 0.337891
vt 0.244019 0.327148
vt 0.252441 0.332520
vt 0.245483 0.315918
vt 0.268066 0.315918
vt 0.245483 0.325195
vt 0.242676 0.323242
vt 0.242920 0.315918
vt 0.241943 0.325684
vt 0.160278 0.313477
vt 0.156860 0.320801
vt 0.155762 0.323242
vt 0.145386 0.312012
vt 0.147705 0.311035
vt 0.155151 0.308105
vt 0.147949 0.210938
vt 0.157593 0.215332
vt 0.150269 0.211914
vt 0.160034 0.202637
vt 0.159058 0.200195
vt 0.162964 0.209961
vt 0.319580 -0.219727
vt 0.342529 -0.219727
vt 0.344482 -0.221680
vt 0.344727 -0.303711
vt 0.344238 -0.310547
vt -0.568359 0.972595
vt -0.571289 0.983521
vt -0.571289 0.972595
vt -0.568359 0.983505
vt -0.558594 0.983490
vt -0.558594 0.972626
vt -0.549805 0.978119
vt -0.557129 0.961578
vt -0.534180 0.961578
vt -0.556641 0.970917
vt -0.559570 0.968948
vt -0.559570 0.961578
vt -0.560547 0.971268
vt -0.642090 0.959259
vt -0.645508 0.966492
vt -0.646484 0.968811
vt -0.646973 0.953888
vt -0.657227 0.957611
vt -0.654785 0.956726
vt -0.644531 0.860962
vt -0.654297 0.856812
vt -0.642578 0.848511
vt -0.639160 0.855957
vt -0.651855 0.857788
vt -0.643066 0.846191
vt -0.962891 0.675293
vt -0.962891 0.672363
vt -0.959961 0.672363
vt -0.959961 0.674805
vt -0.873535 0.672363
vt -0.962891 0.685303
vt -0.959961 0.683350
vt -0.873535 0.674805
vt -0.858398 0.672363
vt -0.873535 0.683350
vt -0.858398 0.674805
vt -0.757812 0.672363
vt -0.858398 0.683350
vt -0.757812 0.675049
vt -0.757812 0.683594
vt -0.742676 0.675049
vt -0.742676 0.672363
vt -0.742676 0.683594
vt -0.341797 0.672363
vt -0.341797 0.675049
vt -0.341797 0.683594
vt -0.326904 0.672363
vt -0.326904 0.675049
vt -0.326904 0.683594
vt -0.226196 0.674805
vt -0.226196 0.672363
vt -0.226196 0.683594
vt -0.211060 0.674805
vt -0.211060 0.683350
vt -0.211060 0.672363
vt -0.124634 0.683350
vt -0.124634 0.674805
vt -0.124634 0.672363
vt -0.122131 0.675293
vt -0.122070 0.685303
vt -0.122192 0.672363
vt -0.454590 0.625977
vt -0.454590 0.615967
vt -0.452148 0.624023
vt -0.454590 0.612793
vt -0.452148 0.612793
vt -0.452148 0.615479
vt -0.365479 0.624023
vt -0.365479 0.612793
vt -0.365479 0.615479
vt -0.350586 0.612793
vt -0.350586 0.615479
vt -0.350586 0.624023
vt -0.249878 0.613037
vt -0.249878 0.615723
vt -0.249878 0.624268
vt -0.234863 0.624268
vt -0.234863 0.615723
vt -0.234863 0.613037
vt 0.166138 0.613037
vt 0.166138 0.615723
vt 0.166138 0.624268
vt 0.181152 0.613037
vt 0.181152 0.615723
vt 0.181152 0.624268
vt 0.281982 0.615479
vt 0.281982 0.612793
vt 0.281982 0.624023
vt 0.296875 0.615479
vt 0.296875 0.624023
vt 0.296875 0.612793
vt 0.383545 0.624023
vt 0.383301 0.615479
vt 0.383301 0.612793
vt 0.385986 0.615967
vt 0.385986 0.625977
vt 0.385986 0.612793
vt 0.111816 0.570801
vt 0.111816 0.573730
vt 0.109253 0.573730
vt 0.332275 0.573730
vt 0.109314 0.570557
vt 0.332275 0.570801
vt 0.334961 0.573730
vt 0.334961 0.570557
vt 0.334717 0.560547
vt 0.111877 0.561035
vt 0.109497 0.560547
vt 0.332275 0.561035
vt 0.111877 0.550537
vt 0.109314 0.549805
vt 0.109802 0.526855
vt 0.332275 0.550537
vt 0.334961 0.549805
vt 0.334473 0.527100
vt 0.111938 0.524414
vt 0.107971 0.522461
vt 0.110168 0.520996
vt 0.332520 0.524414
vt 0.336426 0.522705
vt 0.334229 0.521240
vt 0.663574 0.076660
vt 0.665527 0.073242
vt 0.667969 0.075195
vt 0.666016 0.079102
vt 0.441650 0.073242
vt 0.663574 0.102539
vt 0.666504 0.102051
vt 0.443359 0.076660
vt 0.439453 0.074707
vt 0.441162 0.079102
vt 0.666016 0.112793
vt 0.443359 0.102539
vt 0.440674 0.102051
vt 0.440918 0.112793
vt 0.443359 0.113281
vt 0.663574 0.113281
vt 0.443115 0.123047
vt 0.440674 0.123047
vt 0.440674 0.125977
vt 0.443115 0.125977
vt 0.663574 0.123047
vt 0.666016 0.123047
vt 0.663574 0.125977
vt 0.666016 0.125977
vt1 0.671875 0.040527
vt1 0.889160 0.040527
vt1 0.889160 0.099609
vt1 0.671875 0.099609
vt1 0.615723 0.040527
vt1 0.615723 0.099609
vt1 0.559570 0.040527
vt1 0.559570 0.099609
vt1 0.522949 0.040527
vt1 0.522949 0.099609
vt1 0.484375 0.040527
vt1 0.484375 0.099609
vt1 0.445801 0.040527
vt1 0.445801 0.099609
vt1 0.406738 0.099609
vt1 0.406738 0.040527
vt1 0.369141 0.099609
vt1 0.369141 0.040527
vt1 0.312988 0.099609
vt1 0.312988 0.040527
vt1 0.256592 0.099609
vt1 0.256592 0.040527
vt1 0.041290 0.040527
vt1 0.041290 0.099609
vt1 0.295166 0.957520
vt1 0.450439 0.898682
vt1 0.450439 0.957520
vt1 0.295166 0.898682
vt1 0.281494 0.898682
vt1 0.281494 0.957520
vt1 0.264893 0.957520
vt1 0.264893 0.898682
vt1 0.248047 0.957520
vt1 0.248047 0.898682
vt1 0.233887 0.898682
vt1 0.233887 0.957520
vt1 0.222534 0.898682
vt1 0.222534 0.957520
vt1 0.208984 0.898682
vt1 0.208984 0.957520
vt1 0.195190 0.898682
vt1 0.195190 0.957520
vt1 0.041595 0.957520
vt1 0.041595 0.898682
vt1 0.300049 0.562744
vt1 0.300049 0.716064
vt1 0.296143 0.716309
vt1 0.296143 0.562500
vt1 0.301270 0.548828
vt1 0.044708 0.717285
vt1 0.297363 0.548340
vt1 0.304443 0.535400
vt1 0.044617 0.501953
vt1 0.040771 0.501953
vt1 0.040649 0.717285
vt1 0.048828 0.445312
vt1 0.045044 0.444824
vt1 0.300781 0.534180
vt1 0.309082 0.525146
vt1 0.060883 0.390137
vt1 0.057281 0.388672
vt1 0.305664 0.523193
vt1 0.075989 0.355957
vt1 0.072693 0.354004
vt1 0.315674 0.511475
vt1 0.318115 0.514160
vt1 0.096375 0.323242
vt1 0.093506 0.320801
vt1 0.122925 0.296387
vt1 0.120605 0.293457
vt1 0.154907 0.276367
vt1 0.153320 0.272949
vt1 0.331299 0.501953
vt1 0.332764 0.505371
vt1 0.188477 0.261719
vt1 0.187378 0.258301
vt1 0.348145 0.497559
vt1 0.348877 0.501465
vt1 0.243774 0.249512
vt1 0.243286 0.246094
vt1 0.300537 0.241211
vt1 0.362549 0.500000
vt1 0.300781 0.245117
vt1 0.517578 0.239746
vt1 0.517578 0.244141
vt1 0.362549 0.496094
vt1 0.517578 0.495605
vt1 0.517578 0.499512
vt1 0.390869 0.827759
vt1 0.391113 0.775024
vt1 0.408203 0.775024
vt1 0.605957 0.827881
vt1 0.391113 0.831665
vt1 0.409424 0.773682
vt1 0.606445 0.831665
vt1 0.545410 0.576172
vt1 0.409912 0.629639
vt1 0.408936 0.628662
vt1 0.663086 0.823853
vt1 0.663574 0.827637
vt1 0.391846 0.575928
vt1 0.391846 0.628662
vt1 0.545410 0.572266
vt1 0.391846 0.572021
vt1 0.559082 0.571045
vt1 0.559570 0.574951
vt1 0.572266 0.568115
vt1 0.573242 0.571777
vt1 0.582031 0.563477
vt1 0.717773 0.811890
vt1 0.719238 0.815552
vt1 0.584473 0.566650
vt1 0.751953 0.796875
vt1 0.753906 0.800293
vt1 0.596191 0.557129
vt1 0.593262 0.554443
vt1 0.784180 0.776733
vt1 0.786621 0.779663
vt1 0.811035 0.750488
vt1 0.813965 0.752808
vt1 0.831055 0.718750
vt1 0.834473 0.720459
vt1 0.605469 0.541504
vt1 0.602051 0.540039
vt1 0.845215 0.685547
vt1 0.849121 0.686523
vt1 0.609863 0.524902
vt1 0.605957 0.524170
vt1 0.857422 0.630371
vt1 0.861328 0.631104
vt1 0.610840 0.510742
vt1 0.607422 0.510498
vt1 0.862305 0.573975
vt1 0.866211 0.573975
vt1 0.868164 0.356934
vt1 0.863770 0.356934
vt1 0.811035 0.373535
vt1 0.811523 0.356445
vt1 0.810059 0.375000
vt1 0.665527 0.374023
vt1 0.664551 0.373047
vt1 0.612305 0.355469
vt1 0.665039 0.355957
vt1 0.608398 0.355469
vt1 0.039978 0.040039
vt1 0.039978 0.100098
vt1 0.039978 0.958008
vt1 0.039978 0.898193
vt1 0.452148 0.958008
vt1 0.452148 0.898193
vt1 0.890137 0.040039
vt1 0.890137 0.100098
vt1 0.039978 0.718750
vt1 0.044525 0.719238
vt1 0.296143 0.718018
vt1 0.300781 0.717529
vt1 0.390137 0.575928
vt1 0.390381 0.571533
vt1 0.390381 0.628906
vt1 0.391602 0.630371
vt1 0.406494 0.630371
vt1 0.572754 0.873169
vt1 0.574707 0.880127
vt1 0.572754 0.880127
vt1 0.574707 0.873169
vt1 0.581055 0.880066
vt1 0.581055 0.873169
vt1 0.586426 0.876587
vt1 0.596680 0.887268
vt1 0.582031 0.887268
vt1 0.582031 0.881165
vt1 0.580078 0.882446
vt1 0.580078 0.887268
vt1 0.579590 0.880981
vt1 0.526855 0.887207
vt1 0.524902 0.882507
vt1 0.524414 0.880981
vt1 0.523926 0.890686
vt1 0.517578 0.888184
vt1 0.519043 0.888794
vt1 0.523926 0.950439
vt1 0.519043 0.952454
vt1 0.517578 0.953094
vt1 0.525391 0.958496
vt1 0.527344 0.953735
vt1 0.524414 0.959991
vt1 0.672852 0.172363
vt1 0.927246 0.167480
vt1 0.925781 0.172363
vt1 0.670898 0.167480
vt1 0.928223 0.166016
vt1 0.670410 0.166016
vt1 0.612305 0.354004
vt1 0.607910 0.354004
vt1 0.665039 0.354492
vt1 0.666504 0.355957
vt1 0.666504 0.370605
vt1 0.519043 0.500000
vt1 0.519531 0.495605
vt1 0.519531 0.243652
vt1 0.519043 0.239258
vt1 0.864258 0.354980
vt1 0.868652 0.355469
vt1 0.811035 0.354980
vt1 0.810059 0.355957
vt1 0.809570 0.371094
vt1 0.880371 0.252930
vt1 0.878418 0.246094
vt1 0.880371 0.246094
vt1 0.878418 0.252930
vt1 0.872070 0.246094
vt1 0.872070 0.252930
vt1 0.866211 0.249512
vt1 0.856445 0.238770
vt1 0.871094 0.238770
vt1 0.871094 0.245117
vt1 0.872559 0.243652
vt1 0.872559 0.238770
vt1 0.873047 0.245117
vt1 0.925781 0.238770
vt1 0.927734 0.243652
vt1 0.928711 0.245117
vt1 0.933594 0.237305
vt1 0.929199 0.235352
vt1 0.935059 0.237793
vt1 0.928711 0.175781
vt1 0.933594 0.173828
vt1 0.935059 0.172852
vt1 0.927246 0.167480
vt1 0.925781 0.172363
vt1 0.928223 0.166016
vt1 0.781738 0.958496
vt1 0.527344 0.953735
vt1 0.779785 0.953735
vt1 0.525391 0.958496
vt1 0.524414 0.959991
vt1 0.782715 0.960022
vt1 0.734375 0.878723
vt1 0.736328 0.871704
vt1 0.736328 0.878723
vt1 0.734375 0.871704
vt1 0.728027 0.871704
vt1 0.728027 0.878662
vt1 0.722656 0.875122
vt1 0.727051 0.885803
vt1 0.712402 0.885803
vt1 0.727051 0.879761
vt1 0.728516 0.881042
vt1 0.728516 0.885803
vt1 0.729004 0.879517
vt1 0.781738 0.887268
vt1 0.783691 0.882629
vt1 0.784668 0.881104
vt1 0.791504 0.888367
vt1 0.790039 0.888916
vt1 0.785156 0.890747
vt1 0.789551 0.953217
vt1 0.783691 0.950470
vt1 0.788086 0.952545
vt1 0.781738 0.958496
vt1 0.782715 0.960022
vt1 0.779785 0.953735
vt1 0.405518 0.773438
vt1 0.390869 0.773560
vt1 0.389404 0.774780
vt1 0.389160 0.827759
vt1 0.389648 0.832397
vt1 0.718262 0.247559
vt1 0.716309 0.254395
vt1 0.716309 0.247559
vt1 0.718262 0.254395
vt1 0.724609 0.254395
vt1 0.724609 0.247559
vt1 0.730469 0.250977
vt1 0.725586 0.240234
vt1 0.740234 0.240234
vt1 0.725586 0.246582
vt1 0.724121 0.245117
vt1 0.724121 0.240234
vt1 0.723633 0.246582
vt1 0.670898 0.238770
vt1 0.668945 0.243652
vt1 0.667969 0.245117
vt1 0.667480 0.235352
vt1 0.661621 0.237793
vt1 0.663086 0.237305
vt1 0.669434 0.175781
vt1 0.663086 0.172852
vt1 0.670898 0.167480
vt1 0.672852 0.172363
vt1 0.664551 0.173340
vt1 0.670410 0.166016
vt1 0.039978 0.192383
vt1 0.039978 0.190430
vt1 0.041595 0.190430
vt1 0.041595 0.192383
vt1 0.097229 0.190430
vt1 0.039978 0.199219
vt1 0.041595 0.197754
vt1 0.097229 0.192383
vt1 0.106873 0.190430
vt1 0.097229 0.197754
vt1 0.106873 0.192383
vt1 0.171631 0.190918
vt1 0.106873 0.197754
vt1 0.171631 0.192383
vt1 0.171631 0.197754
vt1 0.181274 0.192383
vt1 0.181274 0.190918
vt1 0.181274 0.197754
vt1 0.439209 0.190918
vt1 0.439209 0.192383
vt1 0.439209 0.197754
vt1 0.448975 0.190918
vt1 0.448975 0.192383
vt1 0.448975 0.197754
vt1 0.513672 0.192383
vt1 0.513672 0.190430
vt1 0.513672 0.197754
vt1 0.523438 0.192383
vt1 0.523438 0.197754
vt1 0.523438 0.190430
vt1 0.578613 0.197754
vt1 0.578613 0.192383
vt1 0.578613 0.190430
vt1 0.580566 0.192383
vt1 0.580566 0.199219
vt1 0.580566 0.190430
vt1 0.039978 0.150391
vt1 0.039978 0.144043
vt1 0.041595 0.149414
vt1 0.039978 0.142090
vt1 0.041595 0.142090
vt1 0.041595 0.143555
vt1 0.097229 0.149414
vt1 0.097229 0.142090
vt1 0.097229 0.143555
vt1 0.106873 0.142090
vt1 0.106873 0.143555
vt1 0.106873 0.149414
vt1 0.171631 0.142090
vt1 0.171631 0.143555
vt1 0.171631 0.149414
vt1 0.181274 0.149414
vt1 0.181274 0.143555
vt1 0.181274 0.142090
vt1 0.439209 0.142090
vt1 0.439209 0.143555
vt1 0.439209 0.149414
vt1 0.448975 0.142090
vt1 0.448975 0.143555
vt1 0.448975 0.149414
vt1 0.513672 0.143555
vt1 0.513672 0.142090
vt1 0.513672 0.149414
vt1 0.523438 0.143555
vt1 0.523438 0.149414
vt1 0.523438 0.142090
vt1 0.578613 0.149414
vt1 0.578613 0.143555
vt1 0.578613 0.142090
vt1 0.580566 0.144043
vt1 0.580566 0.150391
vt1 0.580566 0.142090
vt1 0.912598 0.930237
vt1 0.914551 0.930237
vt1 0.914551 0.931824
vt1 0.914551 0.788330
vt1 0.912109 0.931824
vt1 0.912598 0.788330
vt1 0.914551 0.786743
vt1 0.912598 0.786743
vt1 0.905762 0.786865
vt1 0.906250 0.930176
vt1 0.905762 0.931702
vt1 0.906250 0.788330
vt1 0.899414 0.930176
vt1 0.898926 0.931824
vt1 0.884277 0.931519
vt1 0.899414 0.788330
vt1 0.898926 0.786621
vt1 0.884277 0.786987
vt1 0.882812 0.930115
vt1 0.881348 0.932678
vt1 0.880371 0.931274
vt1 0.882812 0.788330
vt1 0.881348 0.785767
vt1 0.880371 0.787109
vt1 0.229858 0.798828
vt1 0.230957 0.796753
vt1 0.232422 0.797852
vt1 0.231201 0.800537
vt1 0.086853 0.796753
vt1 0.229858 0.815674
vt1 0.231445 0.815186
vt1 0.088013 0.798828
vt1 0.085449 0.797729
vt1 0.086670 0.800415
vt1 0.231323 0.822021
vt1 0.088013 0.815552
vt1 0.086304 0.815186
vt1 0.086426 0.822021
vt1 0.088013 0.822388
vt1 0.229736 0.822388
vt1 0.087952 0.828735
vt1 0.086304 0.828613
vt1 0.086304 0.830566
vt1 0.087952 0.830566
vt1 0.229736 0.828735
vt1 0.231445 0.828613
vt1 0.229858 0.830566
vt1 0.231445 0.830566
vn 0.015748 0.047244 -1.000000
vn 0.007874 0.047244 -1.000000
vn 0.007874 -0.047244 -1.000000
vn 0.015748 -0.039370 -1.000000
vn 0.141732 0.039370 -0.992126
vn 0.141732 -0.039370 -0.992126
vn 0.275591 0.039370 -0.960630
vn 0.275591 -0.039370 -0.960630
vn 0.456693 0.039370 -0.889764
vn 0.456693 -0.039370 -0.889764
vn 0.622047 0.039370 -0.779527
vn 0.622047 -0.039370 -0.779527
vn 0.779528 0.039370 -0.622047
vn 0.779528 -0.039370 -0.622047
vn 0.881890 -0.039370 -0.472441
vn 0.881890 0.039370 -0.464567
vn 0.952756 -0.039370 -0.291339
vn 0.952756 0.039370 -0.291339
vn 0.992126 -0.039370 -0.141732
vn 0.992126 0.039370 -0.141732
vn 1.000000 -0.047244 -0.015748
vn 1.000000 0.039370 -0.015748
vn 1.000000 0.047244 -0.007874
vn 1.000000 -0.047244 -0.007874
vn -0.007874 0.047244 1.000000
vn 0.007874 -0.047244 1.000000
vn 0.007874 0.047244 1.000000
vn -0.007874 -0.047244 1.000000
vn -0.157480 -0.047244 0.984252
vn -0.157480 0.047244 0.984252
vn -0.377953 0.047244 0.929134
vn -0.377953 -0.047244 0.929134
vn -0.637795 0.047244 0.771653
vn -0.637795 -0.047244 0.771653
vn -0.842520 -0.047244 0.535433
vn -0.842520 0.047244 0.535433
vn -0.952756 -0.047244 0.299213
vn -0.952756 0.047244 0.299213
vn -0.992126 -0.047244 0.141732
vn -0.992126 0.047244 0.141732
vn -1.000000 -0.047244 0.007874
vn -1.000000 0.047244 0.007874
vn -1.000000 0.047244 -0.007874
vn -1.000000 -0.047244 -0.007874
vn -1.000000 -0.047244 0.007874
vn -1.000000 -0.047244 -0.007874
vn -0.007874 -1.000000 -0.007874
vn -0.007874 -1.000000 0.000000
vn -0.992126 -0.047244 0.141732
vn 0.015748 -1.000000 -0.007874
vn -0.007874 -1.000000 0.000000
vn -0.952756 -0.047244 0.299213
vn 0.015748 -1.000000 0.000000
vn 1.000000 -0.047244 -0.015748
vn 1.000000 -0.047244 -0.007874
vn 0.007874 -1.000000 0.000000
vn 0.992126 -0.039370 -0.141732
vn -0.007874 -1.000000 0.000000
vn -0.842520 -0.047244 0.535433
vn 0.007874 -1.000000 0.000000
vn 0.952756 -0.039370 -0.291339
vn -0.007874 -1.000000 0.007874
vn 0.007874 -1.000000 -0.007874
vn 0.881890 -0.039370 -0.472441
vn -0.007874 -1.000000 0.007874
vn -0.637795 -0.047244 0.771653
vn 0.007874 -1.000000 -0.007874
vn 0.779528 -0.039370 -0.622047
vn 0.007874 -1.000000 -0.007874
vn 0.622047 -0.039370 -0.779527
vn 0.007874 -1.000000 -0.007874
vn 0.456693 -0.039370 -0.889764
vn 0.000000 -1.000000 0.007874
vn -0.377953 -0.047244 0.929134
vn 0.000000 -1.000000 -0.007874
vn 0.275591 -0.039370 -0.960630
vn 0.000000 -1.000000 0.007874
vn -0.157480 -0.047244 0.984252
vn 0.000000 -1.000000 -0.007874
vn 0.141732 -0.039370 -0.992126
vn 0.015748 -0.039370 -1.000000
vn -0.007874 -0.047244 1.000000
vn 0.000000 -1.000000 -0.015748
vn 0.007874 -0.047244 -1.000000
vn 0.007874 -1.000000 -0.015748
vn 0.000000 -1.000000 0.007874
vn 0.007874 -1.000000 0.007874
vn 0.007874 -0.047244 1.000000
vn 0.062992 1.000000 -0.007874
vn 0.015748 1.000000 -0.062992
vn 0.000000 1.000000 -0.000000
vn 0.015748 1.000000 -0.000000
vn 1.000000 0.047244 -0.007874
vn 0.000000 1.000000 -0.000000
vn 1.000000 0.039370 -0.015748
vn -0.015748 1.000000 -0.000000
vn 0.000000 1.000000 -0.000000
vn 0.000000 1.000000 -0.000000
vn 0.007874 1.000000 -0.000000
vn 0.992126 0.039370 -0.141732
vn -0.055118 1.000000 -0.007874
vn -0.015748 1.000000 -0.062992
vn -1.000000 0.047244 0.007874
vn -1.000000 0.047244 -0.007874
vn -0.992126 0.047244 0.141732
vn -0.007874 1.000000 -0.000000
vn -0.952756 0.047244 0.299213
vn -0.007874 1.000000 -0.000000
vn -0.842520 0.047244 0.535433
vn 0.007874 1.000000 -0.000000
vn 0.952756 0.039370 -0.291339
vn -0.007874 1.000000 0.007874
vn 0.007874 1.000000 -0.007874
vn 0.881890 0.039370 -0.464567
vn -0.007874 1.000000 0.007874
vn -0.637795 0.047244 0.771653
vn 0.007874 1.000000 -0.007874
vn 0.779528 0.039370 -0.622047
vn 0.007874 1.000000 -0.007874
vn 0.622047 0.039370 -0.779527
vn 0.007874 1.000000 -0.007874
vn 0.456693 0.039370 -0.889764
vn 0.000000 1.000000 0.007874
vn -0.377953 0.047244 0.929134
vn 0.000000 1.000000 -0.007874
vn 0.275591 0.039370 -0.960630
vn 0.000000 1.000000 0.007874
vn -0.157480 0.047244 0.984252
vn 0.000000 1.000000 -0.007874
vn 0.141732 0.039370 -0.992126
vn 0.000000 1.000000 0.007874
vn -0.007874 0.047244 1.000000
vn 0.000000 1.000000 -0.015748
vn 0.015748 0.047244 -1.000000
vn 0.007874 0.047244 -1.000000
vn 0.007874 1.000000 -0.062992
vn 0.000000 1.000000 -0.000000
vn 0.062992 1.000000 -0.015748
vn 0.000000 1.000000 -0.000000
vn 0.000000 1.000000 -0.000000
vn 0.000000 1.000000 -0.000000
vn 0.007874 1.000000 0.055118
vn 0.062992 1.000000 0.015748
vn 0.007874 0.047244 1.000000
vn 0.125984 0.007874 -0.992126
vn 0.125984 -0.007874 -0.992126
vn -0.125984 0.007874 -0.992126
vn -0.125984 -0.007874 -0.992126
vn 0.992126 0.007874 0.125984
vn 0.992126 -0.007874 0.125984
vn 0.992126 0.007874 -0.125984
vn 0.992126 -0.007874 -0.125984
vn 0.125984 -0.007874 -0.992126
vn 0.000000 -0.133858 -0.992126
vn 0.000000 -0.133858 -0.992126
vn -0.125984 -0.007874 -0.992126
vn -0.007874 0.125984 -0.992126
vn -0.125984 0.007874 -0.992126
vn -0.015748 0.188976 -0.984252
vn -0.992126 0.118110 -0.047244
vn -0.921260 0.354331 -0.141732
vn 0.921260 0.118110 0.377953
vn 0.984252 0.133858 0.094488
vn 0.921260 0.133858 0.370079
vn 0.984252 0.141732 0.086614
vn 1.000000 0.070866 -0.015748
vn 0.984252 0.181102 -0.055118
vn 0.992126 0.110236 -0.102362
vn 0.921260 0.354331 -0.141732
vn 0.992126 0.118110 -0.047244
vn 0.992126 0.023622 -0.086614
vn 0.039370 0.188976 -0.984252
vn 0.015748 0.181102 -0.984252
vn 0.031496 0.984252 -0.157480
vn 0.007874 0.125984 -0.992126
vn 0.031496 0.251968 -0.968504
vn 0.110236 0.984252 -0.149606
vn 0.125984 0.007874 -0.992126
vn 0.984252 0.094488 -0.141732
vn 0.259843 0.023622 -0.968504
vn 0.125984 -0.007874 -0.992126
vn 0.267717 -0.023622 -0.960630
vn 0.984252 -0.094488 -0.141732
vn 0.007874 -0.267717 -0.960630
vn 0.000000 -0.133858 -0.992126
vn 0.023622 -0.992126 -0.141732
vn 0.992126 -0.133858 0.000000
vn 0.960630 -0.267716 0.007874
vn 0.992126 -0.133858 0.000000
vn 0.968504 -0.259842 -0.007874
vn 0.141732 -0.992126 0.023622
vn 0.141732 -0.992126 -0.023622
vn 0.992126 0.125984 0.007874
vn 0.992126 0.007874 0.125984
vn 0.984252 0.181102 0.015748
vn 0.047244 0.118110 0.992126
vn 0.141732 0.354331 0.921260
vn 0.992126 -0.007874 0.125984
vn 0.992126 -0.133858 0.000000
vn 0.992126 -0.133858 0.000000
vn 0.992126 -0.007874 -0.125984
vn 0.992126 0.125984 -0.007874
vn 0.992126 0.007874 -0.125984
vn 0.984252 0.188976 -0.015748
vn 0.047244 0.118110 -0.992126
vn 0.141732 0.354331 -0.921260
vn -0.377953 0.118110 0.921260
vn -0.094488 0.133858 0.984252
vn -0.370079 0.133858 0.921260
vn -0.086614 0.141732 0.984252
vn 0.015748 0.070866 1.000000
vn 0.055118 0.181102 0.984252
vn 0.102362 0.110236 0.992126
vn 0.141732 0.354331 0.921260
vn 0.047244 0.118110 0.992126
vn 0.086614 0.023622 0.992126
vn 0.984252 0.188976 0.039370
vn 0.984252 0.181102 0.015748
vn 0.157480 0.984252 0.031496
vn 0.992126 0.125984 0.007874
vn 0.968504 0.251968 0.031496
vn 0.149606 0.984252 0.110236
vn 0.968504 0.023622 0.259842
vn 0.992126 0.007874 0.125984
vn 0.141732 0.094488 0.984252
vn 0.992126 -0.007874 0.125984
vn 0.960630 -0.023622 0.267716
vn 0.141732 -0.094488 0.984252
vn 0.960630 -0.267716 0.007874
vn 0.992126 -0.133858 0.000000
vn 0.141732 -0.992126 0.023622
vn -0.007874 -0.259843 -0.968504
vn 0.000000 -0.133858 -0.992126
vn 0.000000 -0.133858 -0.992126
vn 0.007874 -0.267717 -0.960630
vn 0.023622 -0.992126 -0.141732
vn -0.023622 -0.992126 -0.141732
vn -0.984252 0.133858 0.094488
vn -0.921260 0.118110 0.377953
vn -0.921260 0.133858 0.370079
vn -0.984252 0.141732 0.086614
vn -0.984252 0.181102 -0.055118
vn -1.000000 0.070866 -0.015748
vn -0.992126 0.110236 -0.102362
vn -0.992126 0.118110 -0.047244
vn -0.921260 0.354331 -0.141732
vn -0.992126 0.023622 -0.086614
vn -0.039370 0.188976 -0.984252
vn -0.015748 0.188976 -0.984252
vn -0.031496 0.984252 -0.165354
vn -0.007874 0.125984 -0.992126
vn -0.023622 0.259842 -0.968504
vn -0.110236 0.984252 -0.149606
vn -0.984252 0.094488 -0.141732
vn -0.267717 0.023622 -0.960630
vn -0.125984 0.007874 -0.992126
vn -0.984252 -0.094488 -0.141732
vn -0.125984 -0.007874 -0.992126
vn -0.259843 -0.023622 -0.968504
vn -0.007874 -0.259843 -0.968504
vn -0.023622 -0.992126 -0.141732
vn 0.000000 -0.133858 -0.992126
vn 0.921260 0.354331 -0.141732
vn 0.992126 0.118110 -0.047244
vn 0.015748 0.181102 -0.984252
vn 0.007874 0.125984 -0.992126
vn 0.125984 0.007874 -0.992126
vn -0.094488 0.133858 -0.984252
vn -0.377953 0.118110 -0.921260
vn -0.370079 0.133858 -0.921260
vn -0.086614 0.141732 -0.984252
vn 0.055118 0.181102 -0.984252
vn 0.015748 0.070866 -1.000000
vn 0.102362 0.110236 -0.992126
vn 0.047244 0.118110 -0.992126
vn 0.141732 0.354331 -0.921260
vn 0.086614 0.023622 -0.992126
vn 0.984252 0.188976 -0.039370
vn 0.984252 0.188976 -0.015748
vn 0.165354 0.984252 -0.031496
vn 0.992126 0.125984 -0.007874
vn 0.968504 0.259842 -0.023622
vn 0.149606 0.984252 -0.110236
vn 0.992126 0.007874 -0.125984
vn 0.141732 0.094488 -0.984252
vn 0.960630 0.023622 -0.267716
vn 0.992126 -0.007874 -0.125984
vn 0.141732 -0.094488 -0.984252
vn 0.968504 -0.259842 -0.007874
vn 0.992126 -0.133858 0.000000
vn 0.968504 -0.023622 -0.259842
vn 0.141732 -0.992126 -0.023622
vn -0.984252 0.133858 0.094488
vn -0.921260 0.133858 0.370079
vn -0.031496 0.976378 0.212598
vn -0.015748 1.000000 0.055118
vn -0.062992 0.968504 0.244094
vn -1.000000 0.070866 -0.015748
vn -0.031496 0.984252 -0.165354
vn -0.125984 0.992126 0.055118
vn -0.763780 0.086614 0.637795
vn -0.110236 0.984252 -0.149606
vn -0.984252 0.086614 0.173228
vn -0.755906 -0.062992 0.653543
vn -0.984252 0.094488 -0.141732
vn -0.984252 -0.102362 0.157480
vn -0.984252 -0.094488 -0.141732
vn -0.031496 -0.992126 0.125984
vn -0.015748 -0.803149 0.598425
vn -0.023622 -0.992126 -0.141732
vn 0.015748 -0.803149 0.598425
vn 0.031496 -0.992126 0.125984
vn 0.023622 -0.992126 -0.141732
vn 0.755906 -0.062992 0.653543
vn 0.984252 -0.102362 0.157480
vn 0.984252 -0.094488 -0.141732
vn 0.984252 0.086614 0.173228
vn 0.763780 0.086614 0.637795
vn 0.984252 0.094488 -0.141732
vn 0.125984 0.992126 0.055118
vn 0.110236 0.984252 -0.149606
vn 0.062992 0.968504 0.244094
vn 0.031496 0.984252 -0.157480
vn 0.015748 1.000000 0.062992
vn 0.031496 0.976378 0.220472
vn 0.984252 0.133858 0.094488
vn 1.000000 0.070866 -0.015748
vn 0.921260 0.133858 0.370079
vn 0.015748 0.070866 -1.000000
vn -0.094488 0.133858 -0.984252
vn 0.165354 0.984252 -0.031496
vn -0.370079 0.133858 -0.921260
vn -0.212598 0.976378 -0.031496
vn -0.055118 1.000000 -0.015748
vn 0.149606 0.984252 -0.110236
vn -0.244094 0.968504 -0.062992
vn -0.055118 0.992126 -0.125984
vn -0.637795 0.086614 -0.763779
vn -0.173228 0.086614 -0.984252
vn 0.141732 0.094488 -0.984252
vn -0.653543 -0.062992 -0.755905
vn -0.157480 -0.102362 -0.984252
vn 0.141732 -0.094488 -0.984252
vn 0.141732 -0.992126 -0.023622
vn -0.125984 -0.992126 -0.031496
vn -0.598425 -0.803149 -0.015748
vn -0.598425 -0.803149 0.015748
vn -0.125984 -0.992126 0.031496
vn 0.141732 -0.992126 0.023622
vn -0.653543 -0.062992 0.755905
vn -0.157480 -0.102362 0.984252
vn 0.141732 -0.094488 0.984252
vn -0.173228 0.086614 0.984252
vn -0.637795 0.086614 0.763779
vn 0.141732 0.094488 0.984252
vn -0.055118 0.992126 0.125984
vn 0.149606 0.984252 0.110236
vn -0.244094 0.968504 0.062992
vn 0.157480 0.984252 0.031496
vn -0.062992 1.000000 0.015748
vn -0.220472 0.976378 0.031496
vn -0.094488 0.133858 0.984252
vn 0.015748 0.070866 1.000000
vn -0.370079 0.133858 0.921260
vn -0.007874 1.000000 0.055118
vn -0.007874 0.960630 0.267716
vn -0.921260 0.118110 0.377953
vn 0.007874 0.960630 0.267716
vn -0.984252 0.141732 0.086614
vn 0.007874 1.000000 0.055118
vn 0.921260 0.118110 0.377953
vn 0.984252 0.141732 0.086614
vn 0.984252 0.181102 -0.055118
vn -0.007874 0.968504 -0.259843
vn -0.984252 0.181102 -0.055118
vn 0.007874 0.968504 -0.259843
vn -0.007874 0.748031 -0.661417
vn -0.992126 0.110236 -0.102362
vn -0.921260 0.354331 -0.141732
vn 0.007874 0.748031 -0.661417
vn 0.992126 0.110236 -0.102362
vn 0.921260 0.354331 -0.141732
vn -0.007874 0.724409 -0.685039
vn 0.000000 1.000000 -0.000000
vn 0.000000 1.000000 -0.000000
vn 0.007874 0.724409 -0.685039
vn 0.000000 1.000000 -0.000000
vn 0.000000 1.000000 -0.000000
vn 0.685039 0.724409 0.007874
vn 0.000000 1.000000 -0.000000
vn 0.000000 1.000000 -0.000000
vn 0.141732 0.354331 0.921260
vn 0.000000 1.000000 -0.000000
vn 0.661417 0.748031 0.007874
vn 0.102362 0.110236 0.992126
vn 0.685039 0.724409 -0.007874
vn 0.000000 1.000000 -0.000000
vn 0.141732 0.354331 -0.921260
vn 0.055118 0.181102 0.984252
vn 0.661417 0.748031 -0.007874
vn 0.102362 0.110236 -0.992126
vn 0.055118 0.181102 -0.984252
vn 0.259843 0.968504 -0.007874
vn 0.259843 0.968504 0.007874
vn -0.055118 1.000000 -0.007874
vn -0.086614 0.141732 -0.984252
vn -0.377953 0.118110 -0.921260
vn -0.267717 0.960630 -0.007874
vn -0.055118 1.000000 0.007874
vn -0.086614 0.141732 0.984252
vn -0.267717 0.960630 0.007874
vn -0.377953 0.118110 0.921260
tan 0.000744 -1.000248 -0.047244 1.000000
tan 0.023994 -1.000062 -0.047058 1.000000
tan -0.023994 -1.000062 0.047058 1.000000
tan -0.000620 -1.000248 0.039370 1.000000
tan 0.005580 -1.004402 -0.039060 1.000000
tan -0.005580 -1.004402 0.039060 1.000000
tan 0.010850 -0.998760 -0.037820 1.000000
tan -0.010850 -0.998760 0.037820 1.000000
tan 0.018290 -1.003844 -0.035030 1.000000
tan -0.018290 -1.003844 0.035030 1.000000
tan 0.024490 -0.994606 -0.030690 1.000000
tan -0.024490 -0.994606 0.030690 1.000000
tan 0.031000 -1.000744 -0.024490 1.000000
tan -0.031000 -1.000744 0.024490 1.000000
tan -0.034720 -1.000930 0.018600 1.000000
tan 0.034720 -0.997210 -0.018600 1.000000
tan -0.037820 -1.000124 0.011470 1.000000
tan 0.037820 -1.000124 -0.011470 1.000000
tan -0.039060 -1.004402 0.005580 1.000000
tan 0.039060 -1.004402 -0.005580 1.000000
tan -0.047244 -1.000248 0.000744 1.000000
tan 0.039370 -1.000248 -0.000620 1.000000
tan 0.047058 -1.000062 -0.023994 1.000000
tan -0.047058 -1.000062 0.023994 1.000000
tan -0.000372 -1.000062 0.047244 1.000000
tan -0.023994 -1.000062 -0.047058 1.000000
tan 0.023994 -1.000062 0.047058 1.000000
tan 0.000372 -1.000062 -0.047244 1.000000
tan 0.007440 -0.993552 -0.046500 1.000000
tan -0.007440 -0.993552 0.046500 1.000000
tan -0.017856 -1.006138 0.043896 1.000000
tan 0.017856 -1.006138 -0.043896 1.000000
tan -0.030132 -1.002232 0.036456 1.000000
tan 0.030132 -1.002232 -0.036456 1.000000
tan 0.039804 -0.996528 -0.025296 1.000000
tan -0.039804 -0.996528 0.025296 1.000000
tan 0.045012 -0.997272 -0.014136 1.000000
tan -0.045012 -0.997272 0.014136 1.000000
tan 0.046872 -1.004402 -0.006696 1.000000
tan -0.046872 -1.004402 0.006696 1.000000
tan 0.047244 -1.000062 -0.000372 1.000000
tan -0.047244 -1.000062 0.000372 1.000000
tan -0.047058 -1.000062 -0.023994 1.000000
tan 0.047058 -1.000062 0.023994 1.000000
tan 0.007502 0.008246 1.002232 1.000000
tan -0.003348 -0.094860 0.994358 1.000000
tan 0.039308 -0.008184 1.000062 1.000000
tan 0.000000 0.000000 1.000062 1.000000
tan 0.129456 0.197532 0.972038 1.000000
tan -0.015686 -0.008122 1.000124 1.000000
tan -0.031496 0.000248 1.000062 1.000000
tan 0.255812 0.399715 0.877674 1.000000
tan 0.000000 0.000000 1.000248 1.000000
tan 0.015004 -0.016492 1.002232 1.000000
tan 0.006014 -0.039742 1.002232 1.000000
tan -0.023622 -0.000186 1.000062 1.000000
tan 0.132370 -0.189720 0.979292 1.000000
tan -0.055118 0.000434 1.000062 1.000000
tan 0.384029 0.646847 0.661355 1.000000
tan -0.055118 -0.000434 1.000062 1.000000
tan 0.254449 -0.381177 0.883626 1.000000
tan -0.062930 0.008370 1.000062 1.000000
tan -0.070804 -0.008432 1.000062 1.000000
tan 0.363631 -0.578833 0.727013 1.000000
tan -0.062992 0.008370 1.000000 1.000000
tan 0.382541 0.847914 0.368095 1.000000
tan -0.078678 -0.008494 1.000062 1.000000
tan 0.404427 -0.723541 0.552607 1.000000
tan -0.070804 -0.008432 1.000062 1.000000
tan 0.384649 -0.857275 0.350239 1.000000
tan -0.055056 -0.008308 1.000062 1.000000
tan 0.305847 -0.933226 0.198276 1.000000
tan -0.031496 0.007874 1.000000 1.000000
tan 0.261641 0.957654 0.155124 1.000000
tan -0.031496 -0.007874 1.000000 1.000000
tan 0.209126 -0.971728 0.099820 1.000000
tan 0.000000 0.007874 1.000000 1.000000
tan 0.124682 0.984562 0.067208 1.000000
tan -0.015748 -0.007874 1.000000 1.000000
tan 0.104098 -0.995474 0.054374 1.000000
tan 0.030876 -1.000248 0.039866 1.000000
tan 0.038998 1.000062 0.047554 1.000000
tan 0.000000 -0.015748 1.000000 1.000000
tan 0.291711 -0.960568 0.047678 1.000000
tan -0.133734 -0.016678 0.992188 1.000000
tan 0.007874 0.007874 1.000000 1.000000
tan 0.181040 0.009176 0.984314 1.000000
tan -0.291711 0.960568 0.047678 1.000000
tan 0.984252 -0.063178 -0.149606 1.000000
tan 0.996094 -0.020584 -0.077748 1.000000
tan 1.000000 0.000000 0.007874 1.000000
tan 1.000000 -0.015748 -0.007874 1.000000
tan 0.047616 -0.960568 0.283837 1.000000
tan 1.000000 0.000000 0.015748 1.000000
tan 0.039742 -1.000248 0.023002 1.000000
tan 1.000000 0.015748 -0.000000 1.000000
tan 1.000000 0.000000 0.015748 1.000000
tan 1.000000 0.000000 0.007874 1.000000
tan 1.000000 -0.007874 -0.023622 1.000000
tan 0.053258 -0.995474 0.096286 1.000000
tan 0.984252 0.055490 0.157480 1.000000
tan 0.996094 0.021080 0.085622 1.000000
tan 0.047492 1.000062 0.031124 1.000000
tan 0.047368 0.952694 -0.299585 1.000000
tan 0.062124 0.995474 0.103044 1.000000
tan 1.000000 0.007874 -0.007874 1.000000
tan 0.114576 0.970054 0.211668 1.000000
tan 1.000000 0.007874 -0.031496 1.000000
tan 0.264121 0.903094 0.335917 1.000000
tan 1.000000 -0.007874 -0.047244 1.000000
tan 0.103416 -0.973030 0.206708 1.000000
tan 1.000000 0.008308 -0.055118 1.000000
tan 1.000062 -0.008370 -0.062930 1.000000
tan 0.200818 -0.926654 0.302685 1.000000
tan 1.000062 0.008494 -0.078678 1.000000
tan 0.528117 0.752805 0.390415 1.000000
tan 1.000062 -0.008494 -0.078678 1.000000
tan 0.340753 -0.863414 0.372373 1.000000
tan 0.992188 -0.008494 -0.086552 1.000000
tan 0.546779 -0.734577 0.399219 1.000000
tan 1.000062 -0.008494 -0.078678 1.000000
tan 0.733399 -0.578027 0.350859 1.000000
tan 1.000062 0.000558 -0.070866 1.000000
tan 0.815178 0.493025 0.306529 1.000000
tan 1.000062 -0.000496 -0.062992 1.000000
tan 0.890570 -0.379441 0.239940 1.000000
tan 1.000062 0.000372 -0.047244 1.000000
tan 0.956972 0.229400 0.142104 1.000000
tan 1.000062 -0.000310 -0.039370 1.000000
tan 0.971480 -0.205344 0.130634 1.000000
tan 1.000062 0.000124 -0.015748 1.000000
tan 1.002232 0.031868 0.006386 1.000000
tan 1.000248 -0.000248 -0.015748 1.000000
tan 1.002232 -0.040114 0.013888 1.000000
tan 0.994358 -0.079112 0.004092 1.000000
tan 1.003968 -0.009362 -0.023126 1.000000
tan 1.000000 0.000000 0.007874 1.000000
tan 1.000248 -0.063860 -0.054126 1.000000
tan 1.000000 0.000000 0.039370 1.000000
tan 1.000000 0.000000 0.047244 1.000000
tan 1.000000 0.000000 0.015748 1.000000
tan 1.003038 -0.008308 0.007440 1.000000
tan 1.000248 -0.063612 0.038378 1.000000
tan 1.002232 -0.055490 -0.005270 1.000000
tan 0.008804 -1.000186 -0.006820 1.000000
tan -0.008804 -1.000186 0.006820 1.000000
tan -0.008804 -1.000186 -0.006820 1.000000
tan 0.008804 -1.000186 0.006820 1.000000
tan 0.006820 -1.000186 0.008804 1.000000
tan -0.006820 -1.000186 -0.008804 1.000000
tan 0.006820 -1.000186 -0.008804 1.000000
tan -0.006820 -1.000186 0.008804 1.000000
tan 0.686775 -0.721805 0.092938 1.000000
tan 0.350053 -0.929630 0.125426 1.000000
tan -0.333375 -0.937442 0.126480 1.000000
tan -0.655527 -0.745241 0.089156 1.000000
tan 0.936698 0.352471 0.037324 1.000000
tan 0.766259 0.643685 -0.092194 1.000000
tan 0.981214 0.196726 0.022072 1.000000
tan 0.127410 0.945626 -0.311551 1.000000
tan 0.358237 0.932978 0.003906 1.000000
tan 0.194184 -0.969434 -0.170376 1.000000
tan 0.140988 -0.984686 -0.073656 1.000000
tan 0.187426 -0.976936 -0.113212 1.000000
tan 0.149482 -0.982640 -0.090706 1.000000
tan 0.069874 -1.000248 -0.064108 1.000000
tan 0.181536 -0.987290 -0.002232 1.000000
tan 0.110174 -0.994792 -0.003472 1.000000
tan 0.358237 -0.932978 -0.003906 1.000000
tan 0.115878 -0.994358 -0.052452 1.000000
tan 0.021390 -0.991816 -0.025482 1.000000
tan 0.078678 -0.978362 -0.184698 1.000000
tan 0.100130 -0.977122 -0.178188 1.000000
tan 0.352471 -0.158720 -0.921508 1.000000
tan 0.008804 -0.992188 -0.125922 1.000000
tan 0.007936 -0.969496 -0.251968 1.000000
tan 0.285077 -0.175522 -0.944696 1.000000
tan 0.016616 -1.000186 -0.005828 1.000000
tan 0.065844 -0.975572 -0.193130 1.000000
tan -0.031992 -1.005518 -0.033108 1.000000
tan 0.006820 -1.000186 0.008804 1.000000
tan 0.054374 -0.992374 0.039556 1.000000
tan -0.058404 -0.968938 0.240375 1.000000
tan 0.005456 -0.960692 0.267779 1.000000
tan 0.007812 -0.992126 0.133858 1.000000
tan -0.291277 -0.143034 0.952694 1.000000
tan -0.133858 -0.992126 -0.007812 1.000000
tan -0.267779 -0.960692 0.005456 1.000000
tan -0.133858 -0.992126 0.007812 1.000000
tan -0.260029 -0.968504 -0.022878 1.000000
tan -0.952694 -0.143034 -0.291277 1.000000
tan -0.952694 -0.142848 0.283465 1.000000
tan 0.119908 -0.921508 -0.364313 1.000000
tan 0.091078 -0.737429 -0.671151 1.000000
tan 0.176204 -0.929382 -0.324881 1.000000
tan 0.983570 -0.177816 -0.025668 1.000000
tan 0.987104 -0.103230 -0.112158 1.000000
tan -0.096534 0.595821 0.797445 1.000000
tan 0.042160 0.312481 0.946494 1.000000
tan -0.030566 -0.226548 0.977742 1.000000
tan 0.096534 -0.595821 0.797446 1.000000
tan 0.120776 -0.929320 0.348689 1.000000
tan 0.089218 -0.753053 0.655527 1.000000
tan 0.184884 -0.937132 0.309691 1.000000
tan 0.983570 -0.201252 0.022878 1.000000
tan 0.979850 -0.168516 0.085932 1.000000
tan 0.170376 -0.969434 0.194184 1.000000
tan 0.073656 -0.984686 0.140988 1.000000
tan 0.113212 -0.976936 0.187426 1.000000
tan 0.090706 -0.982640 0.149482 1.000000
tan 0.064108 -1.000248 0.069874 1.000000
tan 0.002232 -0.987290 0.181536 1.000000
tan 0.003472 -0.994792 0.110174 1.000000
tan 0.003906 -0.932978 0.358237 1.000000
tan 0.052452 -0.994358 0.115878 1.000000
tan 0.025482 -0.991816 0.021390 1.000000
tan 0.184698 -0.978362 0.078678 1.000000
tan 0.178188 -0.977122 0.100130 1.000000
tan 0.921508 -0.158720 0.352471 1.000000
tan 0.125922 -0.992188 0.008804 1.000000
tan 0.252465 -0.969248 -0.009300 1.000000
tan 0.944696 -0.174654 0.277327 1.000000
tan 0.033108 -1.005518 -0.031992 1.000000
tan 0.005828 -1.000186 0.016616 1.000000
tan 0.177630 -0.983322 0.068820 1.000000
tan -0.008804 -1.000186 0.006820 1.000000
tan -0.039556 -0.992374 0.054374 1.000000
tan -0.240374 -0.968938 -0.058404 1.000000
tan -0.267779 -0.960692 0.005456 1.000000
tan -0.133858 -0.992126 0.007812 1.000000
tan -0.952694 -0.143034 -0.291277 1.000000
tan -0.015252 -0.968504 0.259967 1.000000
tan 0.007812 -0.992126 0.133858 1.000000
tan -0.007812 -0.992126 0.133858 1.000000
tan 0.005456 -0.960692 0.267779 1.000000
tan -0.291277 -0.143034 0.952694 1.000000
tan 0.283465 -0.142848 0.952694 1.000000
tan -0.140988 -0.984686 -0.073656 1.000000
tan -0.194184 -0.969434 -0.170376 1.000000
tan -0.187426 -0.976936 -0.113212 1.000000
tan -0.149482 -0.982640 -0.090706 1.000000
tan -0.181536 -0.987290 -0.002232 1.000000
tan -0.069874 -1.000248 -0.064108 1.000000
tan -0.110174 -0.994792 -0.003472 1.000000
tan -0.115878 -0.994358 -0.052452 1.000000
tan -0.358237 -0.932978 -0.003906 1.000000
tan -0.021390 -0.991816 -0.025482 1.000000
tan -0.087916 -0.978672 -0.184388 1.000000
tan -0.108190 -0.977122 -0.185876 1.000000
tan -0.361709 -0.165044 -0.913510 1.000000
tan -0.024428 -0.992188 -0.125798 1.000000
tan -0.023436 -0.969248 -0.259470 1.000000
tan -0.294005 -0.175212 -0.936078 1.000000
tan -0.066960 -0.975572 -0.185380 1.000000
tan 0.016368 -0.994482 -0.029016 1.000000
tan -0.032240 -1.000186 -0.003844 1.000000
tan 0.055428 -0.961188 0.255875 1.000000
tan -0.022444 -1.000186 0.010788 1.000000
tan -0.070122 -0.997892 0.043152 1.000000
tan -0.015252 -0.968504 0.259967 1.000000
tan 0.283465 -0.142848 0.952694 1.000000
tan -0.007812 -0.992126 0.133858 1.000000
tan 0.359353 -0.931862 0.006138 1.000000
tan 0.126480 -0.937814 0.311551 1.000000
tan 0.978300 -0.188852 -0.019096 1.000000
tan 0.952322 -0.305599 -0.031248 1.000000
tan 0.781822 -0.611445 0.094426 1.000000
tan 0.073656 -0.984686 -0.140988 1.000000
tan 0.170376 -0.969434 -0.194184 1.000000
tan 0.113212 -0.976936 -0.187426 1.000000
tan 0.090706 -0.982640 -0.149482 1.000000
tan 0.002232 -0.987290 -0.181536 1.000000
tan 0.064108 -1.000248 -0.069874 1.000000
tan 0.003472 -0.994792 -0.110174 1.000000
tan 0.052452 -0.994358 -0.115878 1.000000
tan 0.003906 -0.932978 -0.358237 1.000000
tan 0.025482 -0.991816 -0.021390 1.000000
tan 0.184388 -0.978672 -0.087916 1.000000
tan 0.185876 -0.977122 -0.108190 1.000000
tan 0.913510 -0.165044 -0.361709 1.000000
tan 0.125798 -0.992188 -0.024428 1.000000
tan 0.259471 -0.969248 -0.023436 1.000000
tan 0.936078 -0.175212 -0.294005 1.000000
tan 0.003844 -1.000186 -0.032240 1.000000
tan 0.185380 -0.975572 -0.066960 1.000000
tan 0.029016 -0.994482 0.016368 1.000000
tan -0.010788 -1.000186 -0.022444 1.000000
tan -0.240374 -0.968938 0.058404 1.000000
tan -0.260029 -0.968504 -0.022878 1.000000
tan -0.133858 -0.992126 -0.007812 1.000000
tan -0.043152 -0.997892 -0.070122 1.000000
tan -0.952694 -0.142848 0.283465 1.000000
tan 0.082460 -0.090892 0.987724 1.000000
tan 0.313039 -0.319548 0.894848 1.000000
tan 0.119350 -0.207452 0.970426 1.000000
tan 0.024490 -0.054746 1.000248 1.000000
tan 0.080228 -0.238204 0.965838 1.000000
tan -0.014632 0.016864 1.005022 1.000000
tan -0.093062 0.161324 0.977990 1.000000
tan 0.030380 -0.051708 1.000186 1.000000
tan 0.592659 -0.293012 0.749520 1.000000
tan -0.071920 0.142352 0.989522 1.000000
tan 0.166408 -0.079732 0.985368 1.000000
tan 0.623535 0.246885 0.744993 1.000000
tan -0.135408 0.068758 0.986174 1.000000
tan 0.149792 0.079360 0.987786 1.000000
tan -0.135408 -0.068758 0.986174 1.000000
tan 0.075268 0.123752 0.993366 1.000000
tan 0.217620 0.581685 0.786409 1.000000
tan -0.075888 -0.140058 0.993056 1.000000
tan -0.217620 0.581685 0.786409 1.000000
tan -0.075268 0.123752 0.993366 1.000000
tan 0.074772 -0.140058 0.992870 1.000000
tan -0.623535 0.246885 0.744993 1.000000
tan -0.149792 0.079360 0.987786 1.000000
tan 0.135408 -0.068758 0.986174 1.000000
tan -0.166408 -0.079732 0.985368 1.000000
tan -0.592659 -0.293012 0.749520 1.000000
tan 0.135408 0.068758 0.986174 1.000000
tan -0.030380 -0.051708 1.000186 1.000000
tan 0.071920 0.142352 0.989522 1.000000
tan -0.080228 -0.238204 0.965838 1.000000
tan 0.084940 0.153760 0.977990 1.000000
tan -0.024614 -0.062620 1.000248 1.000000
tan -0.119784 -0.215264 0.970426 1.000000
tan -0.082460 -0.090892 0.987724 1.000000
tan 0.014632 0.016864 1.005022 1.000000
tan -0.313039 -0.319548 0.894848 1.000000
tan -1.005022 0.016864 -0.014632 1.000000
tan -0.987724 -0.090892 0.082460 1.000000
tan -0.977990 0.161324 -0.093062 1.000000
tan -0.894848 -0.319549 0.313039 1.000000
tan -0.970426 -0.207452 0.119350 1.000000
tan -1.000248 -0.054746 0.024490 1.000000
tan -0.989522 0.142352 -0.071920 1.000000
tan -0.965838 -0.238204 0.080228 1.000000
tan -1.000186 -0.051708 0.030380 1.000000
tan -0.749520 -0.293012 0.592659 1.000000
tan -0.985368 -0.079732 0.166408 1.000000
tan -0.986174 0.068758 -0.135408 1.000000
tan -0.744993 0.246885 0.623535 1.000000
tan -0.987786 0.079360 0.149792 1.000000
tan -0.986174 -0.068758 -0.135408 1.000000
tan -0.993056 -0.140058 -0.075888 1.000000
tan -0.993366 0.123752 0.075268 1.000000
tan -0.786410 0.581685 0.217620 1.000000
tan -0.786410 0.581685 -0.217620 1.000000
tan -0.993366 0.123752 -0.075268 1.000000
tan -0.992870 -0.140058 0.074772 1.000000
tan -0.744993 0.246884 -0.623535 1.000000
tan -0.987786 0.079360 -0.149792 1.000000
tan -0.986174 -0.068758 0.135408 1.000000
tan -0.985368 -0.079732 -0.166408 1.000000
tan -0.749520 -0.293013 -0.592659 1.000000
tan -0.986174 0.068758 0.135408 1.000000
tan -1.000186 -0.051708 -0.030380 1.000000
tan -0.989522 0.142352 0.071920 1.000000
tan -0.965838 -0.238204 -0.080228 1.000000
tan -0.977990 0.153760 0.084940 1.000000
tan -1.000248 -0.062620 -0.024614 1.000000
tan -0.970426 -0.215264 -0.119784 1.000000
tan -0.987724 -0.090892 -0.082460 1.000000
tan -1.005022 0.016864 0.014632 1.000000
tan -0.894848 -0.319549 -0.313039 1.000000
tan -0.087482 0.054436 -1.000124 1.000000
tan -0.141236 0.264554 -0.953438 1.000000
tan -0.340753 0.248496 -0.908240 1.000000
tan 0.131564 0.264616 -0.953376 1.000000
tan -0.091512 -0.027156 -0.995474 1.000000
tan 0.087482 0.054436 -1.000124 1.000000
tan 0.338893 0.265980 -0.909170 1.000000
tan 0.089280 -0.010974 -0.996590 1.000000
tan -0.003596 -0.273917 -0.964226 1.000000
tan 0.002046 -0.259843 -0.968566 1.000000
tan 0.000744 -0.288983 -0.962800 1.000000
tan -0.002046 -0.259843 -0.968566 1.000000
tan 0.055490 -0.661107 -0.748341 1.000000
tan 0.014632 -0.609027 -0.797693 1.000000
tan -0.086490 -0.552979 -0.820261 1.000000
tan -0.060698 -0.661107 -0.748403 1.000000
tan -0.017174 -0.593403 -0.805505 1.000000
tan 0.071982 -0.525079 -0.844813 1.000000
tan 0.005394 -0.685039 -0.724471 1.000000
tan -0.165354 -0.000000 -0.984252 1.000000
tan -0.086614 -0.000000 -0.992126 1.000000
tan -0.027590 -0.684915 -0.724595 1.000000
tan 0.125984 -0.000000 -0.992126 1.000000
tan 0.062992 -0.000000 -1.000000 1.000000
tan 0.724595 -0.684915 -0.027590 1.000000
tan 1.000000 0.000000 0.062992 1.000000
tan 0.992126 0.000000 0.125984 1.000000
tan 0.844814 -0.525079 0.071982 1.000000
tan 0.992126 -0.000000 -0.086614 1.000000
tan 0.748403 -0.661107 -0.060698 1.000000
tan 0.805506 -0.593403 -0.017174 1.000000
tan 0.724471 -0.685039 0.005394 1.000000
tan 0.984252 -0.000000 -0.165354 1.000000
tan 0.820262 -0.552979 -0.086490 1.000000
tan 0.964226 -0.273917 -0.003596 1.000000
tan 0.748342 -0.661107 0.055490 1.000000
tan 0.797694 -0.609027 0.014632 1.000000
tan 0.962800 -0.281233 0.002170 1.000000
tan 0.968566 -0.259904 -0.005580 1.000000
tan 0.968566 -0.259842 -0.002046 1.000000
tan 0.992250 0.054002 -0.087482 1.000000
tan 0.995474 -0.019406 -0.090396 1.000000
tan 0.908240 0.248496 -0.340753 1.000000
tan 0.953438 0.264554 -0.141236 1.000000
tan 1.000124 0.054436 0.087482 1.000000
tan 0.996590 -0.010974 0.089280 1.000000
tan 0.953376 0.264617 0.131564 1.000000
tan 0.909170 0.265981 0.338893 1.000000
f 3/3/3 2/2/2 1/1/1
f 4/4/4 3/3/3 1/1/1
f 1/1/1 5/5/5 4/4/4
f 6/6/6 4/4/4 5/5/5
f 7/7/7 6/6/6 5/5/5
f 8/8/8 6/6/6 7/7/7
f 7/7/7 9/9/9 8/8/8
f 10/10/10 8/8/8 9/9/9
f 11/11/11 10/10/10 9/9/9
f 12/12/12 10/10/10 11/11/11
f 13/13/13 12/12/12 11/11/11
f 14/14/14 12/12/12 13/13/13
f 14/14/14 13/13/13 15/15/15
f 16/16/16 15/15/15 13/13/13
f 17/17/17 15/15/15 16/16/16
f 17/17/17 16/16/16 18/18/18
f 17/17/17 18/18/18 19/19/19
f 20/20/20 19/19/19 18/18/18
f 21/21/21 19/19/19 20/20/20
f 21/21/21 20/20/20 22/22/22
f 22/22/22 23/23/23 21/21/21
f 24/24/24 21/21/21 23/23/23
f 27/27/27 26/26/26 25/25/25
f 28/28/28 25/25/25 26/26/26
f 28/28/28 29/29/29 25/25/25
f 30/30/30 25/25/25 29/29/29
f 30/30/30 29/29/29 31/31/31
f 32/32/32 31/31/31 29/29/29
f 31/31/31 32/32/32 33/33/33
f 34/34/34 33/33/33 32/32/32
f 34/34/34 35/35/35 33/33/33
f 33/33/33 35/35/35 36/36/36
f 35/35/35 37/37/37 36/36/36
f 38/38/38 36/36/36 37/37/37
f 37/37/37 39/39/39 38/38/38
f 38/38/38 39/39/39 40/40/40
f 39/39/39 41/41/41 40/40/40
f 42/42/42 40/40/40 41/41/41
f 41/41/41 43/43/43 42/42/42
f 43/43/43 41/41/41 44/44/44
f 47/47/47 46/46/46 45/45/45
f 48/48/48 47/47/47 45/45/45
f 45/45/45 49/49/49 48/48/48
f 50/50/50 47/47/47 48/48/48
f 51/51/51 48/48/48 49/49/49
f 49/49/49 52/52/52 51/51/51
f 50/50/50 48/48/48 53/53/53
f 51/51/51 53/53/53 48/48/48
f 55/55/55 50/50/50 54/54/54
f 53/53/53 54/54/54 50/50/50
f 53/53/53 56/56/56 54/54/54
f 53/53/53 51/51/51 56/56/56
f 57/57/57 54/54/54 56/56/56
f 58/58/58 51/51/51 52/52/52
f 58/58/58 56/56/56 51/51/51
f 58/58/58 52/52/52 59/59/59
f 56/56/56 60/60/60 57/57/57
f 56/56/56 58/58/58 60/60/60
f 61/61/61 57/57/57 60/60/60
f 62/62/62 58/58/58 59/59/59
f 62/62/62 60/60/60 58/58/58
f 60/60/60 63/63/63 61/61/61
f 63/63/63 60/60/60 62/62/62
f 64/64/64 61/61/61 63/63/63
f 62/62/62 59/59/59 65/65/65
f 62/62/62 65/65/65 63/63/63
f 66/66/66 65/65/65 59/59/59
f 63/63/63 67/67/67 64/64/64
f 67/67/67 63/63/63 65/65/65
f 68/68/68 64/64/64 67/67/67
f 67/67/67 69/69/69 68/68/68
f 69/69/69 67/67/67 65/65/65
f 70/70/70 68/68/68 69/69/69
f 69/69/69 71/71/71 70/70/70
f 71/71/71 69/69/69 65/65/65
f 72/72/72 70/70/70 71/71/71
f 66/66/66 73/73/73 65/65/65
f 65/65/65 73/73/73 71/71/71
f 74/74/74 73/73/73 66/66/66
f 71/71/71 75/75/75 72/72/72
f 75/75/75 71/71/71 73/73/73
f 76/76/76 72/72/72 75/75/75
f 74/74/74 77/77/77 73/73/73
f 77/77/77 74/74/74 78/78/78
f 79/79/79 75/75/75 73/73/73
f 75/75/75 79/79/79 76/76/76
f 77/77/77 79/79/79 73/73/73
f 80/80/80 76/76/76 79/79/79
f 80/80/80 79/79/79 81/81/81
f 78/78/78 82/82/82 77/77/77
f 83/83/83 81/81/81 79/79/79
f 79/79/79 77/77/77 83/83/83
f 81/81/81 83/83/83 84/84/84
f 85/85/85 84/84/84 83/83/83
f 86/86/86 83/83/83 77/77/77
f 83/83/83 86/86/86 85/85/85
f 86/86/86 77/77/77 82/82/82
f 87/87/87 85/85/85 86/86/86
f 86/86/86 82/82/82 87/87/87
f 88/88/88 87/87/87 82/82/82
f 91/91/91 90/90/90 89/89/89
f 92/92/92 91/91/91 89/89/89
f 89/89/89 93/93/93 92/92/92
f 91/91/91 92/92/92 94/94/94
f 95/95/95 92/92/92 93/93/93
f 92/92/92 96/96/96 94/94/94
f 94/94/94 96/96/96 97/97/97
f 98/98/98 97/97/97 96/96/96
f 95/95/95 99/99/99 92/92/92
f 100/100/100 99/99/99 95/95/95
f 102/102/102 98/98/98 101/101/101
f 96/96/96 101/101/101 98/98/98
f 104/104/104 101/101/101 103/103/103
f 96/96/96 103/103/103 101/101/101
f 103/103/103 96/96/96 105/105/105
f 106/106/106 105/105/105 96/96/96
f 106/106/106 96/96/96 92/92/92
f 92/92/92 99/99/99 106/106/106
f 106/106/106 107/107/107 105/105/105
f 107/107/107 106/106/106 108/108/108
f 108/108/108 106/106/106 99/99/99
f 108/108/108 109/109/109 107/107/107
f 99/99/99 110/110/110 108/108/108
f 100/100/100 110/110/110 99/99/99
f 111/111/111 110/110/110 100/100/100
f 109/109/109 108/108/108 112/112/112
f 112/112/112 108/108/108 110/110/110
f 111/111/111 113/113/113 110/110/110
f 110/110/110 113/113/113 112/112/112
f 114/114/114 113/113/113 111/111/111
f 112/112/112 115/115/115 109/109/109
f 115/115/115 112/112/112 113/113/113
f 116/116/116 109/109/109 115/115/115
f 113/113/113 114/114/114 117/117/117
f 113/113/113 117/117/117 115/115/115
f 118/118/118 117/117/117 114/114/114
f 117/117/117 118/118/118 119/119/119
f 115/115/115 117/117/117 119/119/119
f 120/120/120 119/119/119 118/118/118
f 119/119/119 120/120/120 121/121/121
f 121/121/121 115/115/115 119/119/119
f 121/121/121 120/120/120 122/122/122
f 115/115/115 123/123/123 116/116/116
f 115/115/115 121/121/121 123/123/123
f 124/124/124 116/116/116 123/123/123
f 121/121/121 122/122/122 125/125/125
f 123/123/123 121/121/121 125/125/125
f 125/125/125 122/122/122 126/126/126
f 123/123/123 127/127/127 124/124/124
f 128/128/128 124/124/124 127/127/127
f 129/129/129 123/123/123 125/125/125
f 125/125/125 126/126/126 129/129/129
f 123/123/123 129/129/129 127/127/127
f 129/129/129 126/126/126 130/130/130
f 127/127/127 131/131/131 128/128/128
f 131/131/131 132/132/132 128/128/128
f 133/133/133 127/127/127 129/129/129
f 130/130/130 133/133/133 129/129/129
f 127/127/127 133/133/133 131/131/131
f 133/133/133 130/130/130 134/134/134
f 134/134/134 135/135/135 133/133/133
f 135/135/135 136/136/136 133/133/133
f 138/138/138 137/137/137 136/136/136
f 136/136/136 137/137/137 133/133/133
f 137/137/137 139/139/139 133/133/133
f 131/131/131 133/133/133 139/139/139
f 139/139/139 140/140/140 131/131/131
f 141/141/141 131/131/131 140/140/140
f 131/131/131 141/141/141 142/142/142
f 141/141/141 143/143/143 142/142/142
f 132/132/132 131/131/131 142/142/142
f 144/144/144 132/132/132 142/142/142
f 146/146/146 24/24/24 145/145/145
f 23/23/23 145/145/145 24/24/24
f 43/43/43 44/44/44 147/147/147
f 44/44/44 148/148/148 147/147/147
f 150/150/150 26/26/26 149/149/149
f 27/27/27 149/149/149 26/26/26
f 2/2/2 3/3/3 151/151/151
f 3/3/3 152/152/152 151/151/151
f 55/55/55 153/153/153 50/50/50
f 154/154/154 50/50/50 153/153/153
f 50/50/50 154/154/154 47/47/47
f 155/155/155 47/47/47 154/154/154
f 47/47/47 155/155/155 156/156/156
f 46/46/46 47/47/47 156/156/156
f 104/104/104 158/158/158 157/157/157
f 157/157/157 101/101/101 104/104/104
f 101/101/101 157/157/157 159/159/159
f 102/102/102 101/101/101 159/159/159
f 102/102/102 159/159/159 160/160/160
f 160/160/160 161/161/161 102/102/102
f 161/161/161 98/98/98 102/102/102
f 164/164/164 163/163/163 162/162/162
f 162/162/162 163/163/163 165/165/165
f 163/163/163 166/166/166 165/165/165
f 167/167/167 165/165/165 166/166/166
f 167/167/167 166/166/166 168/168/168
f 168/168/168 170/170/170 169/169/169
f 166/166/166 171/171/171 168/168/168
f 170/170/170 168/168/168 171/171/171
f 171/171/171 166/166/166 172/172/172
f 172/172/172 170/170/170 171/171/171
f 173/173/173 170/170/170 172/172/172
f 174/174/174 172/172/172 166/166/166
f 173/173/173 172/172/172 175/175/175
f 174/174/174 176/176/176 172/172/172
f 175/175/175 172/172/172 176/176/176
f 176/176/176 174/174/174 177/177/177
f 175/175/175 176/176/176 178/178/178
f 177/177/177 179/179/179 176/176/176
f 180/180/180 178/178/178 176/176/176
f 180/180/180 176/176/176 179/179/179
f 178/178/178 180/180/180 181/181/181
f 180/180/180 179/179/179 182/182/182
f 182/182/182 181/181/181 180/180/180
f 183/183/183 182/182/182 179/179/179
f 181/181/181 182/182/182 184/184/184
f 182/182/182 183/183/183 184/184/184
f 185/185/185 181/181/181 184/184/184
f 186/186/186 184/184/184 183/183/183
f 189/189/189 188/188/188 187/187/187
f 190/190/190 187/187/187 188/188/188
f 188/188/188 191/191/191 190/190/190
f 192/192/192 190/190/190 191/191/191
f 194/194/194 144/144/144 193/193/193
f 142/142/142 193/193/193 144/144/144
f 142/142/142 195/195/195 193/193/193
f 143/143/143 195/195/195 142/142/142
f 196/196/196 195/195/195 143/143/143
f 196/196/196 143/143/143 197/197/197
f 197/197/197 143/143/143 141/141/141
f 88/88/88 198/198/198 87/87/87
f 199/199/199 87/87/87 198/198/198
f 87/87/87 199/199/199 85/85/85
f 200/200/200 85/85/85 199/199/199
f 85/85/85 200/200/200 201/201/201
f 84/84/84 85/85/85 201/201/201
f 135/135/135 203/203/203 202/202/202
f 202/202/202 136/136/136 135/135/135
f 136/136/136 202/202/202 204/204/204
f 138/138/138 136/136/136 204/204/204
f 138/138/138 204/204/204 205/205/205
f 138/138/138 205/205/205 206/206/206
f 206/206/206 137/137/137 138/138/138
f 209/209/209 208/208/208 207/207/207
f 207/207/207 208/208/208 210/210/210
f 208/208/208 211/211/211 210/210/210
f 210/210/210 211/211/211 212/212/212
f 212/212/212 211/211/211 213/213/213
f 213/213/213 215/215/215 214/214/214
f 211/211/211 216/216/216 213/213/213
f 215/215/215 213/213/213 216/216/216
f 216/216/216 211/211/211 217/217/217
f 217/217/217 215/215/215 216/216/216
f 218/218/218 215/215/215 217/217/217
f 219/219/219 217/217/217 211/211/211
f 218/218/218 217/217/217 220/220/220
f 217/217/217 219/219/219 221/221/221
f 220/220/220 217/217/217 221/221/221
f 221/221/221 219/219/219 222/222/222
f 220/220/220 221/221/221 223/223/223
f 221/221/221 222/222/222 223/223/223
f 223/223/223 224/224/224 220/220/220
f 225/225/225 223/223/223 222/222/222
f 224/224/224 223/223/223 226/226/226
f 223/223/223 225/225/225 227/227/227
f 227/227/227 226/226/226 223/223/223
f 228/228/228 227/227/227 225/225/225
f 226/226/226 227/227/227 229/229/229
f 227/227/227 228/228/228 229/229/229
f 230/230/230 226/226/226 229/229/229
f 231/231/231 229/229/229 228/228/228
f 234/234/234 233/233/233 232/232/232
f 235/235/235 232/232/232 233/233/233
f 235/235/235 236/236/236 232/232/232
f 237/237/237 232/232/232 236/236/236
f 240/240/240 239/239/239 238/238/238
f 241/241/241 238/238/238 239/239/239
f 242/242/242 238/238/238 241/241/241
f 243/243/243 238/238/238 242/242/242
f 244/244/244 243/243/243 242/242/242
f 244/244/244 246/246/246 245/245/245
f 243/243/243 244/244/244 247/247/247
f 247/247/247 244/244/244 245/245/245
f 243/243/243 247/247/247 248/248/248
f 248/248/248 247/247/247 245/245/245
f 249/249/249 248/248/248 245/245/245
f 250/250/250 243/243/243 248/248/248
f 249/249/249 251/251/251 248/248/248
f 248/248/248 252/252/252 250/250/250
f 251/251/251 252/252/252 248/248/248
f 252/252/252 253/253/253 250/250/250
f 253/253/253 252/252/252 254/254/254
f 252/252/252 251/251/251 255/255/255
f 255/255/255 254/254/254 252/252/252
f 256/256/256 255/255/255 251/251/251
f 254/254/254 255/255/255 257/257/257
f 255/255/255 256/256/256 258/258/258
f 259/259/259 257/257/257 255/255/255
f 258/258/258 259/259/259 255/255/255
f 259/259/259 260/260/260 257/257/257
f 259/259/259 258/258/258 260/260/260
f 260/260/260 261/261/261 257/257/257
f 262/262/262 260/260/260 258/258/258
f 263/263/263 90/90/90 91/91/91
f 90/90/90 263/263/263 264/264/264
f 264/264/264 265/265/265 90/90/90
f 265/265/265 89/89/89 90/90/90
f 89/89/89 265/265/265 266/266/266
f 266/266/266 267/267/267 89/89/89
f 93/93/93 89/89/89 267/267/267
f 270/270/270 269/269/269 268/268/268
f 271/271/271 268/268/268 269/269/269
f 271/271/271 272/272/272 268/268/268
f 273/273/273 268/268/268 272/272/272
f 274/274/274 273/273/273 272/272/272
f 274/274/274 276/276/276 275/275/275
f 273/273/273 274/274/274 277/277/277
f 277/277/277 274/274/274 275/275/275
f 273/273/273 277/277/277 278/278/278
f 278/278/278 277/277/277 275/275/275
f 279/279/279 278/278/278 275/275/275
f 280/280/280 273/273/273 278/278/278
f 279/279/279 281/281/281 278/278/278
f 278/278/278 282/282/282 280/280/280
f 281/281/281 282/282/282 278/278/278
f 282/282/282 283/283/283 280/280/280
f 281/281/281 284/284/284 282/282/282
f 283/283/283 282/282/282 285/285/285
f 286/286/286 282/282/282 284/284/284
f 286/286/286 285/285/285 282/282/282
f 286/286/286 284/284/284 287/287/287
f 285/285/285 286/286/286 288/288/288
f 290/290/290 289/289/289 287/287/287
f 291/291/291 288/288/288 286/286/286
f 287/287/287 291/291/291 286/286/286
f 291/291/291 287/287/287 289/289/289
f 288/288/288 291/291/291 292/292/292
f 289/289/289 292/292/292 291/291/291
f 295/295/295 294/294/294 293/293/293
f 293/293/293 296/296/296 295/295/295
f 296/296/296 297/297/297 295/295/295
f 299/299/299 293/293/293 298/298/298
f 296/296/296 293/293/293 299/299/299
f 297/297/297 296/296/296 300/300/300
f 296/296/296 299/299/299 300/300/300
f 300/300/300 301/301/301 297/297/297
f 302/302/302 300/300/300 299/299/299
f 301/301/301 300/300/300 303/303/303
f 302/302/302 303/303/303 300/300/300
f 303/303/303 304/304/304 301/301/301
f 302/302/302 305/305/305 303/303/303
f 305/305/305 306/306/306 303/303/303
f 306/306/306 304/304/304 303/303/303
f 307/307/307 306/306/306 305/305/305
f 304/304/304 306/306/306 308/308/308
f 306/306/306 307/307/307 308/308/308
f 309/309/309 304/304/304 308/308/308
f 310/310/310 308/308/308 307/307/307
f 309/309/309 308/308/308 311/311/311
f 310/310/310 312/312/312 308/308/308
f 312/312/312 311/311/311 308/308/308
f 312/312/312 310/310/310 313/313/313
f 312/312/312 314/314/314 311/311/311
f 312/312/312 313/313/313 315/315/315
f 315/315/315 314/314/314 312/312/312
f 315/315/315 313/313/313 316/316/316
f 314/314/314 315/315/315 317/317/317
f 315/315/315 316/316/316 317/317/317
f 318/318/318 314/314/314 317/317/317
f 317/317/317 316/316/316 319/319/319
f 318/318/318 317/317/317 320/320/320
f 317/317/317 319/319/319 320/320/320
f 319/319/319 321/321/321 320/320/320
f 320/320/320 322/322/322 318/318/318
f 321/321/321 323/323/323 320/320/320
f 320/320/320 324/324/324 322/322/322
f 324/324/324 320/320/320 323/323/323
f 324/324/324 325/325/325 322/322/322
f 324/324/324 323/323/323 326/326/326
f 324/324/324 326/326/326 325/325/325
f 323/323/323 327/327/327 326/326/326
f 325/325/325 326/326/326 328/328/328
f 331/331/331 330/330/330 329/329/329
f 333/333/333 332/332/332 330/330/330
f 334/334/334 330/330/330 331/331/331
f 334/334/334 333/333/333 330/330/330
f 331/331/331 335/335/335 334/334/334
f 334/334/334 336/336/336 333/333/333
f 337/337/337 336/336/336 334/334/334
f 337/337/337 334/334/334 335/335/335
f 337/337/337 338/338/338 336/336/336
f 339/339/339 337/337/337 335/335/335
f 339/339/339 338/338/338 337/337/337
f 340/340/340 339/339/339 335/335/335
f 339/339/339 341/341/341 338/338/338
f 340/340/340 342/342/342 339/339/339
f 342/342/342 341/341/341 339/339/339
f 343/343/343 342/342/342 340/340/340
f 343/343/343 344/344/344 342/342/342
f 341/341/341 342/342/342 345/345/345
f 345/345/345 342/342/342 344/344/344
f 346/346/346 341/341/341 345/345/345
f 346/346/346 345/345/345 347/347/347
f 344/344/344 348/348/348 345/345/345
f 348/348/348 347/347/347 345/345/345
f 349/349/349 348/348/348 344/344/344
f 348/348/348 350/350/350 347/347/347
f 351/351/351 348/348/348 349/349/349
f 351/351/351 350/350/350 348/348/348
f 352/352/352 351/351/351 349/349/349
f 350/350/350 351/351/351 353/353/353
f 351/351/351 352/352/352 353/353/353
f 354/354/354 350/350/350 353/353/353
f 353/353/353 352/352/352 355/355/355
f 354/354/354 353/353/353 356/356/356
f 353/353/353 355/355/355 356/356/356
f 355/355/355 357/357/357 356/356/356
f 356/356/356 358/358/358 354/354/354
f 357/357/357 359/359/359 356/356/356
f 358/358/358 356/356/356 360/360/360
f 360/360/360 356/356/356 359/359/359
f 360/360/360 361/361/361 358/358/358
f 362/362/362 360/360/360 359/359/359
f 360/360/360 362/362/362 361/361/361
f 363/363/363 362/362/362 359/359/359
f 361/361/361 362/362/362 364/364/364
f 367/367/367 366/366/366 365/365/365
f 366/366/366 368/368/368 365/365/365
f 365/365/365 369/369/369 367/367/367
f 368/368/368 370/370/370 365/365/365
f 371/371/371 370/370/370 368/368/368
f 371/371/371 372/372/372 370/370/370
f 372/372/372 373/373/373 370/370/370
f 369/369/369 365/365/365 374/374/374
f 365/365/365 370/370/370 374/374/374
f 374/374/374 375/375/375 369/369/369
f 376/376/376 370/370/370 373/373/373
f 376/376/376 374/374/374 370/370/370
f 375/375/375 374/374/374 377/377/377
f 374/374/374 376/376/376 377/377/377
f 377/377/377 378/378/378 375/375/375
f 378/378/378 377/377/377 379/379/379
f 373/373/373 380/380/380 376/376/376
f 380/380/380 377/377/377 376/376/376
f 380/380/380 373/373/373 381/381/381
f 381/381/381 382/382/382 380/380/380
f 379/379/379 377/377/377 383/383/383
f 379/379/379 383/383/383 384/384/384
f 385/385/385 384/384/384 383/383/383
f 380/380/380 386/386/386 377/377/377
f 383/383/383 377/377/377 386/386/386
f 382/382/382 386/386/386 380/380/380
f 383/383/383 386/386/386 385/385/385
f 382/382/382 387/387/387 386/386/386
f 386/386/386 388/388/388 385/385/385
f 386/386/386 387/387/387 388/388/388
f 391/391/391 390/390/390 389/389/389
f 391/391/391 389/389/389 392/392/392
f 390/390/390 393/393/393 389/389/389
f 392/392/392 389/389/389 394/394/394
f 395/395/395 392/392/392 394/394/394
f 396/396/396 389/389/389 393/393/393
f 389/389/389 396/396/396 394/394/394
f 397/397/397 396/396/396 393/393/393
f 396/396/396 397/397/397 398/398/398
f 394/394/394 399/399/399 395/395/395
f 398/398/398 400/400/400 396/396/396
f 396/396/396 400/400/400 394/394/394
f 401/401/401 400/400/400 398/398/398
f 400/400/400 401/401/401 402/402/402
f 400/400/400 403/403/403 394/394/394
f 402/402/402 403/403/403 400/400/400
f 399/399/399 394/394/394 404/404/404
f 394/394/394 403/403/403 404/404/404
f 403/403/403 402/402/402 405/405/405
f 403/403/403 405/405/405 404/404/404
f 406/406/406 405/405/405 402/402/402
f 406/406/406 407/407/407 405/405/405
f 407/407/407 408/408/408 405/405/405
f 399/399/399 404/404/404 409/409/409
f 404/404/404 405/405/405 409/409/409
f 405/405/405 408/408/408 409/409/409
f 410/410/410 399/399/399 409/409/409
f 411/411/411 409/409/409 408/408/408
f 410/410/410 409/409/409 412/412/412
f 411/411/411 412/412/412 409/409/409
