mtllib SM_Air_Duct_01.mtl
g SM_Air_Duct_01
#Vertices 304
#Indices 1032
#Section 0 Offset 0 NumIndices 948 MaterialIndex 1 MI_Air_Duct_Plastic
#Section 1 Offset 948 NumIndices 84 MaterialIndex 0 MI_Air_Duct_Metal
v 1.470088 -0.018308 0.799133
v 1.470088 -0.003521 0.006992
v 1.470088 -0.003521 0.793008
v 1.470088 -0.018308 0.000867
v 1.470088 0.193008 0.803521
v 1.466706 0.008450 0.800000
v 1.466706 0.191550 0.800000
v 1.470088 0.006992 0.803521
v 1.466706 0.191550 0.000000
v 1.466706 0.008450 -0.000000
v 1.470088 0.193008 -0.003521
v 1.470088 0.006992 -0.003521
v 0.029912 -0.003521 0.006992
v 0.029912 -0.018308 0.799133
v 0.029912 -0.003521 0.793008
v 0.029912 -0.018308 0.000867
v 0.029912 0.193008 0.803521
v 0.033294 0.008450 0.800000
v 0.029912 0.006992 0.803521
v 0.033294 0.191550 0.800000
v 0.033294 0.008450 -0.000000
v 0.033294 0.191550 0.000000
v 0.029912 0.193008 -0.003521
v 0.029912 0.006992 -0.003521
v 1.470088 -0.003521 0.793008
v 1.470088 0.000867 0.818307
v 1.470088 -0.018308 0.799133
v 1.470088 0.006992 0.803521
v 1.470088 0.199133 0.818307
v 1.470088 0.193008 0.803521
v 1.470088 0.203521 0.793008
v 1.470088 0.218380 0.799238
v 1.470088 0.218380 0.627775
v 1.470088 0.203521 0.627775
v 1.466706 0.203521 0.624253
v 1.466706 0.222191 0.624254
v 1.422337 0.203521 0.624253
v 1.455419 0.241772 0.624254
v 1.470996 0.225424 0.624254
v 1.476747 0.247199 0.624254
v 1.493971 0.225424 0.624254
v 1.495166 0.247199 0.624254
v 1.500000 0.245618 0.622011
v 1.500000 0.224278 0.622011
v 1.466706 0.191550 0.800000
v 1.470088 0.203521 0.793008
v 1.470088 0.193008 0.803521
v 1.466706 0.200000 0.791550
v 1.470088 0.203521 0.627775
v 1.466706 0.200000 0.627775
v 1.466706 0.203521 0.624253
v 1.422337 0.203521 0.624253
v 1.415054 0.200000 0.627775
v 1.470088 0.193008 -0.003521
v 1.470088 0.203521 0.006992
v 1.466706 0.191550 0.000000
v 1.466706 0.200000 0.008450
v 1.470088 0.203521 0.172225
v 1.466706 0.200000 0.172225
v 1.466706 0.203521 0.175746
v 1.422337 0.203521 0.175746
v 1.415053 0.200000 0.172225
v 1.466706 0.000000 0.008450
v 1.470088 0.006992 -0.003521
v 1.466706 0.008450 -0.000000
v 1.470088 -0.003521 0.006992
v 1.466706 0.000000 0.791550
v 1.470088 -0.003521 0.793008
v 1.470088 0.006992 0.803521
v 1.466706 0.008450 0.800000
v 0.029912 0.006992 -0.003521
v 0.029912 -0.018308 0.000867
v 0.029912 -0.003521 0.006992
v 0.029912 0.000867 -0.018308
v 0.029912 0.193008 -0.003521
v 0.029912 0.199133 -0.018308
v 0.029912 0.218307 0.000867
v 0.029912 0.203521 0.006992
v 0.029912 0.218309 0.172225
v 0.029912 0.203521 0.172225
v 0.033294 0.203521 0.175746
v 0.033294 0.222132 0.175746
v 0.077663 0.203521 0.175746
v 0.044581 0.241771 0.175746
v 0.029004 0.225351 0.175746
v 0.023253 0.247199 0.175746
v 0.005727 0.225351 0.175746
v 0.004591 0.247199 0.175746
v 0.000000 0.245618 0.177989
v 0.000000 0.224207 0.177989
v 0.029912 0.203521 0.793008
v 0.033294 0.191550 0.800000
v 0.029912 0.193008 0.803521
v 0.033294 0.200000 0.791550
v 0.029912 0.203521 0.627775
v 0.033294 0.200000 0.627775
v 0.033294 0.203521 0.624253
v 0.077663 0.203521 0.624253
v 0.084946 0.200000 0.627775
v 0.033294 0.191550 0.000000
v 0.029912 0.203521 0.006992
v 0.029912 0.193008 -0.003521
v 0.033294 0.200000 0.008450
v 0.029912 0.203521 0.172225
v 0.033294 0.200000 0.172225
v 0.033294 0.203521 0.175746
v 0.077663 0.203521 0.175746
v 0.084947 0.200000 0.172225
v 0.029912 0.006992 -0.003521
v 0.033294 0.000000 0.008450
v 0.033294 0.008450 -0.000000
v 0.029912 -0.003521 0.006992
v 0.033294 0.000000 0.791550
v 0.029912 -0.003521 0.793008
v 0.029912 0.006992 0.803521
v 0.033294 0.008450 0.800000
v 1.470088 -0.018308 0.000867
v 1.470088 0.006992 -0.003521
v 1.470088 -0.003521 0.006992
v 1.470088 0.000867 -0.018308
v 1.470088 0.199133 -0.018308
v 1.470088 0.193008 -0.003521
v 1.470088 0.218307 0.000867
v 1.470088 0.203521 0.006992
v 1.470088 0.218309 0.172225
v 1.470088 0.203521 0.172225
v 1.466706 0.203521 0.175746
v 1.466706 0.222132 0.175746
v 1.422337 0.203521 0.175746
v 1.455419 0.241771 0.175746
v 1.470996 0.225351 0.175746
v 1.476747 0.247199 0.175746
v 1.493971 0.225351 0.175746
v 1.495166 0.247199 0.175746
v 1.500000 0.245618 0.177989
v 1.500000 0.224207 0.177989
v 0.029912 0.000867 0.818307
v 0.029912 -0.003521 0.793008
v 0.029912 -0.018308 0.799133
v 0.029912 0.006992 0.803521
v 0.029912 0.193008 0.803521
v 0.029912 0.199133 0.818307
v 0.029912 0.203521 0.793008
v 0.029912 0.218380 0.799238
v 0.029912 0.218380 0.627775
v 0.029912 0.203521 0.627775
v 0.033294 0.203521 0.624253
v 0.033294 0.222192 0.624254
v 0.077663 0.203521 0.624253
v 0.044581 0.241772 0.624254
v 0.029004 0.225424 0.624254
v 0.023253 0.247199 0.624254
v 0.005727 0.225424 0.624254
v 0.004591 0.247199 0.624254
v 0.000000 0.245618 0.622011
v 0.000000 0.224278 0.622011
v 1.500000 0.220826 0.625497
v 1.493971 0.225424 0.624254
v 1.500000 0.224278 0.622011
v 1.494485 0.221901 0.627775
v 1.500000 0.220755 0.796633
v 1.473470 0.221901 0.627775
v 1.470996 0.225424 0.624254
v 1.466706 0.222191 0.624254
v 1.470088 0.218380 0.627775
v 1.470088 0.218380 0.799238
v 1.494485 0.221829 0.800639
v 1.500000 0.199943 0.817610
v 1.473470 0.221829 0.800639
v 1.494485 0.200591 0.821829
v 1.500000 0.002783 0.817610
v 1.473470 0.200591 0.821829
v 1.470088 0.199133 0.818307
v 1.470088 0.000867 0.818307
v 1.494485 -0.000591 0.821829
v 1.473470 -0.000592 0.821829
v 1.470088 -0.018308 0.799133
v 1.494485 -0.021829 0.800591
v 1.500000 -0.018029 0.796586
v 1.473470 -0.021829 0.800591
v 1.470088 -0.018308 0.000867
v 1.500000 -0.018029 0.003414
v 1.473470 -0.021829 -0.000591
v 1.494485 -0.021829 -0.000592
v 1.500000 0.002783 -0.017610
v 1.473470 -0.000592 -0.021829
v 1.470088 0.000867 -0.018308
v 1.494485 -0.000591 -0.021829
v 1.473470 0.200591 -0.021829
v 1.470088 0.199133 -0.018308
v 1.470088 0.218307 0.000867
v 1.494485 0.200591 -0.021829
v 1.500000 0.199942 -0.017610
v 1.473470 0.221828 -0.000591
v 1.494485 0.221828 -0.000591
v 1.500000 0.220755 0.003414
v 1.473470 0.221830 0.172225
v 1.470088 0.218309 0.172225
v 1.466706 0.222132 0.175746
v 1.470996 0.225351 0.175746
v 1.493971 0.225351 0.175746
v 1.494485 0.221830 0.172225
v 1.500000 0.220756 0.174503
v 1.500000 0.224207 0.177989
v 0.005727 0.225351 0.175746
v 0.000000 0.224207 0.177989
v 0.000000 0.220757 0.174503
v 0.005238 0.221830 0.172225
v 0.000000 0.220755 0.003414
v 0.026530 0.221830 0.172225
v 0.029004 0.225351 0.175746
v 0.033294 0.222132 0.175746
v 0.029912 0.218309 0.172225
v 0.029912 0.218307 0.000867
v 0.005238 0.221829 -0.000591
v 0.000000 0.199942 -0.017610
v 0.026530 0.221829 -0.000591
v 0.026530 0.200591 -0.021829
v 0.029912 0.199133 -0.018308
v 0.029912 0.000867 -0.018308
v 0.005238 0.200591 -0.021829
v 0.000000 0.002783 -0.017610
v 0.026530 -0.000592 -0.021829
v 0.029912 -0.018308 0.000867
v 0.005238 -0.000591 -0.021829
v 0.005238 -0.021829 -0.000592
v 0.000000 -0.018029 0.003414
v 0.026530 -0.021829 -0.000591
v 0.026530 -0.021829 0.800591
v 0.029912 -0.018308 0.799133
v 0.005238 -0.021829 0.800591
v 0.000000 -0.018029 0.796586
v 0.000000 0.002784 0.817610
v 0.026530 -0.000592 0.821829
v 0.029912 0.000867 0.818307
v 0.005238 -0.000591 0.821829
v 0.005238 0.200591 0.821829
v 0.000000 0.199943 0.817610
v 0.026530 0.200591 0.821829
v 0.029912 0.199133 0.818307
v 0.029912 0.218380 0.799238
v 0.005238 0.221829 0.800639
v 0.000000 0.220755 0.796633
v 0.026530 0.221829 0.800639
v 0.026530 0.221901 0.627775
v 0.029912 0.218380 0.627775
v 0.033294 0.222192 0.624254
v 0.029004 0.225424 0.624254
v 0.005727 0.225424 0.624254
v 0.005238 0.221901 0.627775
v 0.000000 0.220826 0.625497
v 0.000000 0.224278 0.622011
v 1.495166 0.247199 0.624254
v 1.500000 0.249068 0.618525
v 1.500000 0.245618 0.622011
v 1.495355 0.250720 0.620732
v 1.500000 0.249068 0.181475
v 1.477655 0.250720 0.620732
v 1.476747 0.247199 0.624254
v 1.495355 0.250720 0.179267
v 1.495166 0.247199 0.175746
v 1.500000 0.245618 0.177989
v 1.477655 0.250720 0.179267
v 1.476747 0.247199 0.175746
v 1.453295 0.245838 0.179267
v 1.455419 0.241771 0.175746
v 1.422337 0.203521 0.175746
v 1.453295 0.245838 0.620732
v 1.455419 0.241772 0.624254
v 1.422337 0.203521 0.624253
v 1.417052 0.202560 0.179267
v 1.415053 0.200000 0.172225
v 1.411423 0.200000 0.175746
v 1.417052 0.202560 0.620732
v 1.415054 0.200000 0.627775
v 1.411423 0.200000 0.624254
v 0.000000 0.249068 0.618525
v 0.004591 0.247199 0.624254
v 0.000000 0.245618 0.622011
v 0.004412 0.250720 0.620732
v 0.000000 0.249068 0.181475
v 0.022345 0.250720 0.620732
v 0.023253 0.247199 0.624254
v 0.004412 0.250720 0.179267
v 0.004591 0.247199 0.175746
v 0.000000 0.245618 0.177989
v 0.022345 0.250720 0.179267
v 0.023253 0.247199 0.175746
v 0.046705 0.245838 0.179267
v 0.044581 0.241771 0.175746
v 0.077663 0.203521 0.175746
v 0.046705 0.245838 0.620732
v 0.044581 0.241772 0.624254
v 0.077663 0.203521 0.624253
v 0.082948 0.202560 0.179267
v 0.084947 0.200000 0.172225
v 0.088577 0.200000 0.175746
v 0.082948 0.202560 0.620732
v 0.084946 0.200000 0.627775
v 0.088577 0.200000 0.624254
v 1.411423 0.200000 0.175746
v 0.088577 0.200000 0.175746
v 0.088577 0.200000 0.624254
v 1.411423 0.200000 0.624254
vt 0.572754 0.053711
vt 0.968750 0.061035
vt 0.575684 0.061035
vt 0.971680 0.053711
vt 0.798340 0.364258
vt 0.800781 0.271973
vt 0.800781 0.363281
vt 0.798340 0.270996
vt 1.598633 0.505859
vt 1.598633 0.414551
vt 1.601562 0.506592
vt 1.601562 0.413574
vt 0.715820 -0.159180
vt 1.111328 -0.166992
vt 1.108398 -0.159180
vt 0.712891 -0.166992
vt 1.519531 0.364258
vt 1.516602 0.271973
vt 1.519531 0.270996
vt 1.516602 0.363281
vt 0.882812 0.414551
vt 0.882812 0.505859
vt 0.880371 0.506592
vt 0.880371 0.413574
vt 0.575684 0.061035
vt 0.562988 0.062988
vt 0.572754 0.053711
vt 0.570312 0.066406
vt 0.556641 0.161621
vt 0.564453 0.159180
vt 0.569336 0.164551
vt 0.565918 0.171875
vt 0.651855 0.171875
vt 0.651855 0.164551
vt 0.654297 0.164551
vt 0.654297 0.173828
vt 0.676270 0.164551
vt 0.659668 0.183594
vt 0.651855 0.175293
vt 0.649414 0.186035
vt 0.640625 0.175293
vt 0.640137 0.186035
vt 0.637695 0.186035
vt 0.637695 0.175293
vt 0.781250 0.657471
vt 0.784180 0.651611
vt 0.783691 0.658447
vt 0.781738 0.651367
vt 0.783691 0.569092
vt 0.781250 0.569580
vt 0.781738 0.567139
vt 0.759277 0.567627
vt 0.755859 0.569580
vt 0.783691 0.252441
vt 0.784180 0.259277
vt 0.781250 0.253418
vt 0.781738 0.259277
vt 0.783691 0.341797
vt 0.781250 0.341309
vt 0.781738 0.343750
vt 0.759277 0.343262
vt 0.755859 0.341309
vt 0.062744 0.586670
vt 0.060699 0.579346
vt 0.062927 0.580566
vt 0.060181 0.586426
vt 0.062744 0.978149
vt 0.060181 0.978302
vt 0.060699 0.985321
vt 0.062927 0.984314
vt 0.710449 -0.154297
vt 0.712891 -0.166992
vt 0.715820 -0.159180
vt 0.703125 -0.158203
vt 0.704102 -0.061523
vt 0.696289 -0.058594
vt 0.705566 -0.048828
vt 0.708984 -0.056641
vt 0.791504 -0.048828
vt 0.791504 -0.056641
vt 0.793945 -0.056641
vt 0.793945 -0.046875
vt 0.815918 -0.057617
vt 0.800293 -0.038086
vt 0.791992 -0.044922
vt 0.790039 -0.034180
vt 0.780273 -0.043945
vt 0.780762 -0.033203
vt 0.778809 -0.033203
vt 0.777832 -0.043945
vt 0.062988 0.651611
vt 0.065674 0.657471
vt 0.063477 0.658447
vt 0.065491 0.651367
vt 0.063354 0.569092
vt 0.065613 0.569580
vt 0.065308 0.567139
vt 0.087646 0.567627
vt 0.091370 0.569580
vt 0.065674 0.253418
vt 0.062988 0.259277
vt 0.063477 0.252441
vt 0.065491 0.259277
vt 0.063354 0.341797
vt 0.065613 0.341309
vt 0.065308 0.343750
vt 0.087646 0.343262
vt 0.091370 0.341309
vt 0.780762 0.579346
vt 0.778809 0.586670
vt 0.778809 0.580566
vt 0.781250 0.586426
vt 0.778809 0.978149
vt 0.781250 0.978302
vt 0.780762 0.985321
vt 0.778809 0.984314
vt 0.971680 0.053711
vt 0.974121 0.066406
vt 0.968750 0.061035
vt 0.981445 0.062988
vt 0.987793 0.161621
vt 0.980469 0.159180
vt 0.978516 0.171875
vt 0.975098 0.164551
vt 0.892578 0.171875
vt 0.892578 0.164551
vt 0.890137 0.164551
vt 0.890137 0.173828
vt 0.868164 0.164551
vt 0.884766 0.183594
vt 0.892578 0.175293
vt 0.895508 0.186035
vt 0.903809 0.175293
vt 0.904785 0.186035
vt 0.907227 0.186035
vt 0.907227 0.175293
vt 1.121094 -0.158203
vt 1.108398 -0.159180
vt 1.111328 -0.166992
vt 1.114258 -0.154297
vt 1.120117 -0.061523
vt 1.127930 -0.058594
vt 1.115234 -0.056641
vt 1.119141 -0.048828
vt 1.033203 -0.048828
vt 1.033203 -0.056641
vt 1.030273 -0.056641
vt 1.030273 -0.046875
vt 1.008789 -0.057617
vt 1.023438 -0.038086
vt 1.032227 -0.044922
vt 1.034180 -0.034180
vt 1.043945 -0.043945
vt 1.042969 -0.033203
vt 1.045898 -0.033203
vt 1.046875 -0.043945
vt -0.152832 0.719971
vt -0.149536 0.721436
vt -0.152710 0.721680
vt -0.150269 0.719971
vt -0.152954 0.635254
vt -0.140015 0.719971
vt -0.137695 0.720703
vt -0.137085 0.717529
vt -0.139404 0.718994
vt -0.137207 0.634766
vt -0.150146 0.635010
vt -0.153076 0.622559
vt -0.139648 0.635010
vt -0.150269 0.622559
vt -0.152954 0.524414
vt -0.139771 0.622559
vt -0.137329 0.622559
vt -0.137329 0.524414
vt -0.150269 0.524414
vt -0.139771 0.524414
vt -0.137329 0.511475
vt -0.150269 0.511475
vt -0.152954 0.511475
vt -0.139771 0.511475
vt -0.137329 0.111816
vt -0.153076 0.111816
vt -0.139771 0.111816
vt -0.150269 0.111816
vt -0.153076 0.096191
vt -0.139771 0.096191
vt -0.137329 0.096191
vt -0.150269 0.096191
vt -0.139771 -0.005859
vt -0.137329 -0.005859
vt -0.137329 -0.023438
vt -0.150269 -0.005859
vt -0.153076 -0.005859
vt -0.139771 -0.023438
vt -0.150391 -0.023438
vt -0.153076 -0.023438
vt -0.139771 -0.111328
vt -0.137207 -0.111328
vt -0.136597 -0.115234
vt -0.139038 -0.115234
vt -0.150269 -0.115234
vt -0.150391 -0.111328
vt -0.153198 -0.112305
vt -0.153320 -0.115234
vt -0.091614 -0.090820
vt -0.088806 -0.090820
vt -0.088867 -0.087891
vt -0.091492 -0.087891
vt -0.088928 0.000000
vt -0.102234 -0.087891
vt -0.103088 -0.090820
vt -0.105469 -0.089844
vt -0.104736 -0.086914
vt -0.104614 0.000000
vt -0.091553 0.000000
vt -0.088928 0.015625
vt -0.102173 0.000000
vt -0.102234 0.015625
vt -0.104675 0.015625
vt -0.104675 0.116699
vt -0.091553 0.015625
vt -0.088989 0.116699
vt -0.102234 0.116699
vt -0.104675 0.132324
vt -0.091614 0.116699
vt -0.091614 0.132324
vt -0.088989 0.132324
vt -0.102234 0.132324
vt -0.102234 0.532471
vt -0.104675 0.532471
vt -0.091614 0.532471
vt -0.088989 0.532471
vt -0.088989 0.546387
vt -0.102234 0.546387
vt -0.104675 0.546387
vt -0.091614 0.546387
vt -0.091553 0.645508
vt -0.088928 0.645508
vt -0.102234 0.645508
vt -0.104675 0.645508
vt -0.104797 0.658447
vt -0.091675 0.658936
vt -0.089050 0.658936
vt -0.102356 0.658691
vt -0.101990 0.744141
vt -0.103210 0.743164
vt -0.105530 0.743164
vt -0.104065 0.745850
vt -0.092163 0.746338
vt -0.091614 0.744385
vt -0.089050 0.744385
vt -0.089233 0.746338
vt 0.795898 0.582031
vt 0.798340 0.579590
vt 0.798340 0.582275
vt 0.796387 0.579590
vt 0.798340 0.358887
vt 0.787598 0.579590
vt 0.786621 0.582031
vt 0.796387 0.358887
vt 0.795898 0.356445
vt 0.798340 0.356445
vt 0.787598 0.358887
vt 0.786621 0.356445
vt 0.775391 0.359375
vt 0.775391 0.356445
vt 0.749512 0.356934
vt 0.775391 0.579590
vt 0.775391 0.582275
vt 0.749512 0.582031
vt 0.747070 0.358887
vt 0.745605 0.355469
vt 0.744141 0.357422
vt 0.747070 0.579590
vt 0.745605 0.583252
vt 0.744141 0.581299
vt 0.819824 0.587158
vt 0.822266 0.589600
vt 0.819824 0.589600
vt 0.821777 0.587158
vt 0.819824 0.366699
vt 0.830566 0.587158
vt 0.831543 0.589600
vt 0.821777 0.366699
vt 0.822266 0.364258
vt 0.819824 0.364258
vt 0.830566 0.366699
vt 0.831543 0.364258
vt 0.842773 0.366699
vt 0.843262 0.363770
vt 0.868652 0.364258
vt 0.842773 0.587158
vt 0.843262 0.589844
vt 0.868652 0.589600
vt 0.871094 0.366699
vt 0.872559 0.362793
vt 0.874023 0.364746
vt 0.871094 0.587158
vt 0.872559 0.590820
vt 0.874023 0.588867
vt 0.753906 0.343262
vt 0.093201 0.343262
vt 0.093201 0.567383
vt 0.753906 0.567383
vt1 0.920410 0.492188
vt1 0.915039 0.786743
vt1 0.915039 0.494141
vt1 0.920410 0.788940
vt1 0.054169 0.836914
vt1 0.055969 0.768188
vt1 0.055969 0.836426
vt1 0.054169 0.767700
vt1 0.589355 0.948975
vt1 0.589355 0.880798
vt1 0.591309 0.949524
vt1 0.591309 0.880249
vt1 0.916016 0.102051
vt1 0.921387 0.397461
vt1 0.916016 0.395020
vt1 0.921387 0.100098
vt1 0.591309 0.836914
vt1 0.589355 0.768188
vt1 0.591309 0.767700
vt1 0.589355 0.836426
vt1 0.055969 0.880798
vt1 0.055969 0.948975
vt1 0.054169 0.949524
vt1 0.054169 0.880249
vt1 0.915039 0.494141
vt1 0.913574 0.484863
vt1 0.920410 0.492188
vt1 0.911133 0.490234
vt1 0.839844 0.479980
vt1 0.841797 0.485352
vt1 0.837891 0.489258
vt1 0.832520 0.486816
vt1 0.832520 0.550537
vt1 0.837891 0.550537
vt1 0.837891 0.552490
vt1 0.831055 0.552490
vt1 0.837891 0.569092
vt1 0.823730 0.556641
vt1 0.829590 0.550781
vt1 0.821777 0.548828
vt1 0.829590 0.542236
vt1 0.821777 0.541748
vt1 0.821777 0.540039
vt1 0.829590 0.540039
vt1 0.698242 0.189941
vt1 0.693848 0.187988
vt1 0.698730 0.188477
vt1 0.693848 0.189941
vt1 0.632324 0.187988
vt1 0.632812 0.189941
vt1 0.630859 0.189453
vt1 0.630859 0.206055
vt1 0.632324 0.208984
vt1 0.396240 0.188477
vt1 0.401367 0.187988
vt1 0.396973 0.189941
vt1 0.401367 0.189941
vt1 0.462891 0.187988
vt1 0.462402 0.189941
vt1 0.464111 0.189453
vt1 0.464111 0.206055
vt1 0.462646 0.208984
vt1 0.347168 0.189941
vt1 0.352539 0.188477
vt1 0.351807 0.189941
vt1 0.347168 0.187988
vt1 0.055328 0.189941
vt1 0.055206 0.187988
vt1 0.049988 0.188477
vt1 0.050751 0.189941
vt1 0.912109 0.098145
vt1 0.921387 0.100098
vt1 0.916016 0.102051
vt1 0.914551 0.092773
vt1 0.842773 0.093262
vt1 0.840820 0.087891
vt1 0.833496 0.094727
vt1 0.838867 0.097168
vt1 0.833496 0.158691
vt1 0.838867 0.158691
vt1 0.838867 0.160156
vt1 0.832031 0.160645
vt1 0.840332 0.176758
vt1 0.825195 0.165527
vt1 0.830566 0.159180
vt1 0.822266 0.157715
vt1 0.830078 0.150391
vt1 0.821777 0.150879
vt1 0.821777 0.148926
vt1 0.829590 0.148438
vt1 0.693848 0.725586
vt1 0.698242 0.723389
vt1 0.698730 0.725098
vt1 0.693848 0.723633
vt1 0.632324 0.725098
vt1 0.632812 0.723389
vt1 0.630859 0.723633
vt1 0.630859 0.707031
vt1 0.632324 0.704346
vt1 0.396973 0.723389
vt1 0.401367 0.725586
vt1 0.396240 0.725098
vt1 0.401367 0.723633
vt1 0.462891 0.725098
vt1 0.462402 0.723389
vt1 0.464111 0.723633
vt1 0.464111 0.707031
vt1 0.462646 0.704346
vt1 0.352539 0.725098
vt1 0.347168 0.723633
vt1 0.351807 0.723389
vt1 0.347168 0.725586
vt1 0.055328 0.723633
vt1 0.055206 0.725586
vt1 0.049988 0.725098
vt1 0.050751 0.723389
vt1 0.920410 0.788940
vt1 0.911133 0.790894
vt1 0.915039 0.786743
vt1 0.913574 0.796265
vt1 0.839844 0.801025
vt1 0.841797 0.795410
vt1 0.832520 0.794067
vt1 0.837891 0.791748
vt1 0.832520 0.730225
vt1 0.837891 0.730225
vt1 0.837891 0.728516
vt1 0.831055 0.728516
vt1 0.837891 0.711914
vt1 0.823730 0.724365
vt1 0.829590 0.729980
vt1 0.821777 0.732178
vt1 0.829590 0.738525
vt1 0.821777 0.739014
vt1 0.821777 0.740967
vt1 0.829590 0.740967
vt1 0.914551 0.404785
vt1 0.916016 0.395020
vt1 0.921387 0.397461
vt1 0.912109 0.399414
vt1 0.842773 0.403809
vt1 0.840820 0.409668
vt1 0.838867 0.400391
vt1 0.833496 0.402832
vt1 0.833496 0.338867
vt1 0.838867 0.338867
vt1 0.838867 0.336914
vt1 0.832031 0.336914
vt1 0.840332 0.320801
vt1 0.825195 0.332031
vt1 0.830566 0.338379
vt1 0.822266 0.339844
vt1 0.830078 0.347168
vt1 0.821777 0.346680
vt1 0.821777 0.348145
vt1 0.829590 0.349121
vt1 0.676758 0.116699
vt1 0.677734 0.114258
vt1 0.678223 0.116699
vt1 0.676758 0.114746
vt1 0.613281 0.116699
vt1 0.676758 0.106934
vt1 0.677246 0.105469
vt1 0.674805 0.104980
vt1 0.675781 0.106445
vt1 0.613281 0.104980
vt1 0.613281 0.114746
vt1 0.604004 0.116699
vt1 0.613281 0.106934
vt1 0.604004 0.114746
vt1 0.531250 0.116699
vt1 0.604004 0.106934
vt1 0.604004 0.104980
vt1 0.531250 0.104980
vt1 0.531250 0.114746
vt1 0.531250 0.106934
vt1 0.521484 0.104980
vt1 0.521484 0.114746
vt1 0.521484 0.116699
vt1 0.521484 0.106934
vt1 0.223389 0.104980
vt1 0.223389 0.116699
vt1 0.223389 0.106934
vt1 0.223389 0.114746
vt1 0.211670 0.116699
vt1 0.211670 0.106934
vt1 0.211670 0.104980
vt1 0.211670 0.114746
vt1 0.135376 0.106934
vt1 0.135376 0.104980
vt1 0.122620 0.104980
vt1 0.135376 0.114746
vt1 0.135376 0.116699
vt1 0.122559 0.106934
vt1 0.122498 0.114746
vt1 0.122498 0.116699
vt1 0.056732 0.106934
vt1 0.057037 0.104980
vt1 0.054352 0.104492
vt1 0.054169 0.106445
vt1 0.054260 0.114746
vt1 0.056702 0.114746
vt1 0.056702 0.116699
vt1 0.054291 0.116699
vt1 0.054291 0.052246
vt1 0.054321 0.050293
vt1 0.056427 0.050293
vt1 0.056427 0.052246
vt1 0.121460 0.050293
vt1 0.056458 0.060059
vt1 0.054169 0.061035
vt1 0.054413 0.062500
vt1 0.056793 0.062012
vt1 0.121643 0.062012
vt1 0.121521 0.052246
vt1 0.133423 0.050293
vt1 0.121582 0.060059
vt1 0.133423 0.060059
vt1 0.133423 0.062012
vt1 0.208984 0.062012
vt1 0.133423 0.052246
vt1 0.208984 0.050293
vt1 0.208984 0.060059
vt1 0.220337 0.062012
vt1 0.208984 0.052246
vt1 0.220337 0.052246
vt1 0.220337 0.050293
vt1 0.220337 0.060059
vt1 0.518555 0.060059
vt1 0.518555 0.062012
vt1 0.518555 0.052246
vt1 0.518555 0.050293
vt1 0.528809 0.050293
vt1 0.528809 0.060059
vt1 0.528809 0.062012
vt1 0.528809 0.052246
vt1 0.603027 0.052246
vt1 0.603027 0.050293
vt1 0.603027 0.060059
vt1 0.603027 0.062012
vt1 0.612793 0.062012
vt1 0.612793 0.052246
vt1 0.612793 0.050293
vt1 0.612793 0.060547
vt1 0.676270 0.060059
vt1 0.675781 0.061035
vt1 0.675781 0.062500
vt1 0.677734 0.061523
vt1 0.678223 0.052734
vt1 0.676758 0.052246
vt1 0.676758 0.050293
vt1 0.678223 0.050781
vt1 0.751465 0.910645
vt1 0.753418 0.912537
vt1 0.751465 0.912476
vt1 0.753418 0.910828
vt1 0.917969 0.912537
vt1 0.753418 0.904236
vt1 0.751465 0.903748
vt1 0.917969 0.910828
vt1 0.919922 0.910706
vt1 0.919922 0.912476
vt1 0.917969 0.904236
vt1 0.919434 0.903748
vt1 0.917969 0.895203
vt1 0.919922 0.895142
vt1 0.919434 0.876038
vt1 0.753418 0.895203
vt1 0.751465 0.895142
vt1 0.751465 0.876038
vt1 0.917969 0.874390
vt1 0.920410 0.873047
vt1 0.918945 0.871948
vt1 0.753418 0.874390
vt1 0.750488 0.873047
vt1 0.751953 0.871948
vt1 0.663086 0.947327
vt1 0.665039 0.949188
vt1 0.663086 0.949188
vt1 0.664551 0.947327
vt1 0.663086 0.782959
vt1 0.671387 0.947296
vt1 0.671875 0.949127
vt1 0.664551 0.782837
vt1 0.665039 0.781006
vt1 0.663086 0.781006
vt1 0.671387 0.782837
vt1 0.671875 0.781006
vt1 0.680176 0.782959
vt1 0.680664 0.780884
vt1 0.699707 0.781128
vt1 0.680176 0.947235
vt1 0.680664 0.949280
vt1 0.699707 0.949036
vt1 0.701172 0.782837
vt1 0.702637 0.780151
vt1 0.703613 0.781616
vt1 0.701172 0.947327
vt1 0.702637 0.950012
vt1 0.703613 0.948547
vt1 0.464111 0.210449
vt1 0.464111 0.702881
vt1 0.630859 0.702881
vt1 0.630859 0.210449
vn -0.968504 -0.251968 0.007874
vn -0.992126 -0.125984 0.000000
vn -0.992126 -0.125984 0.000000
vn -0.968504 -0.251968 -0.007874
vn -0.992126 0.007874 0.118110
vn 0.000000 -0.047244 1.000000
vn 0.000000 0.047244 1.000000
vn -0.992126 -0.007874 0.118110
vn 0.000000 0.047244 -1.000000
vn 0.000000 -0.047244 -1.000000
vn -0.992126 0.007874 -0.118110
vn -0.992126 -0.007874 -0.118110
vn 0.992126 -0.125984 0.000000
vn 0.968504 -0.251968 0.007874
vn 0.992126 -0.125984 0.000000
vn 0.968504 -0.251968 -0.007874
vn 0.992126 0.007874 0.118110
vn 0.000000 -0.047244 1.000000
vn 0.992126 -0.007874 0.118110
vn 0.000000 0.047244 1.000000
vn 0.000000 -0.047244 -1.000000
vn 0.000000 0.047244 -1.000000
vn 0.992126 0.007874 -0.118110
vn 0.992126 -0.007874 -0.118110
vn -0.992126 -0.125984 0.000000
vn -0.968504 -0.023622 0.251968
vn -0.968504 -0.251968 0.007874
vn -0.992126 -0.007874 0.118110
vn -0.968504 0.023622 0.251968
vn -0.992126 0.007874 0.118110
vn -0.992126 0.118110 0.007874
vn -0.968504 0.244094 0.023622
vn -0.984252 0.181102 0.031496
vn -0.984252 0.181102 0.015748
vn -0.039370 0.102362 0.992126
vn -0.094488 0.023622 0.992126
vn -0.141732 0.314961 0.937008
vn -0.102362 0.125984 0.984252
vn -0.015748 0.078740 1.000000
vn -0.023622 0.165354 0.984252
vn 0.086614 0.141732 0.984252
vn 0.094488 0.133858 0.984252
vn 0.433071 0.086614 0.897638
vn 0.370079 0.133858 0.921260
vn 0.000000 0.047244 1.000000
vn -0.992126 0.118110 0.007874
vn -0.992126 0.007874 0.118110
vn 0.000000 1.000000 0.062992
vn -0.984252 0.181102 0.015748
vn -0.062992 1.000000 0.015748
vn -0.039370 0.102362 0.992126
vn -0.141732 0.314961 0.937008
vn 0.000000 1.000000 -0.000000
vn -0.992126 0.007874 -0.118110
vn -0.992126 0.118110 -0.007874
vn 0.000000 0.047244 -1.000000
vn 0.000000 1.000000 -0.062992
vn -0.984252 0.181102 -0.015748
vn -0.062992 1.000000 -0.015748
vn -0.039370 0.102362 -0.992126
vn -0.141732 0.314960 -0.937008
vn 0.000000 1.000000 -0.000000
vn 0.000000 -1.000000 -0.007874
vn -0.992126 -0.007874 -0.118110
vn 0.000000 -0.047244 -1.000000
vn -0.992126 -0.125984 0.000000
vn 0.000000 -1.000000 0.007874
vn -0.992126 -0.125984 0.000000
vn -0.992126 -0.007874 0.118110
vn 0.000000 -0.047244 1.000000
vn 0.992126 -0.007874 -0.118110
vn 0.968504 -0.251968 -0.007874
vn 0.992126 -0.125984 0.000000
vn 0.968504 -0.023622 -0.251968
vn 0.992126 0.007874 -0.118110
vn 0.968504 0.023622 -0.251968
vn 0.968504 0.251968 -0.023622
vn 0.992126 0.118110 -0.007874
vn 0.984252 0.181102 -0.031496
vn 0.984252 0.181102 -0.015748
vn 0.039370 0.102362 -0.992126
vn 0.094488 0.023622 -0.992126
vn 0.141732 0.314960 -0.937008
vn 0.102362 0.125984 -0.984252
vn 0.015748 0.078740 -1.000000
vn 0.023622 0.157480 -0.984252
vn -0.086614 0.141732 -0.984252
vn -0.094488 0.133858 -0.984252
vn -0.448819 0.086614 -0.889764
vn -0.385827 0.133858 -0.913386
vn 0.992126 0.118110 0.007874
vn 0.000000 0.047244 1.000000
vn 0.992126 0.007874 0.118110
vn 0.000000 1.000000 0.062992
vn 0.984252 0.181102 0.015748
vn 0.062992 1.000000 0.015748
vn 0.039370 0.102362 0.992126
vn 0.141732 0.314961 0.937008
vn 0.000000 1.000000 -0.000000
vn 0.000000 0.047244 -1.000000
vn 0.992126 0.118110 -0.007874
vn 0.992126 0.007874 -0.118110
vn 0.000000 1.000000 -0.062992
vn 0.984252 0.181102 -0.015748
vn 0.062992 1.000000 -0.015748
vn 0.039370 0.102362 -0.992126
vn 0.141732 0.314960 -0.937008
vn 0.000000 1.000000 -0.000000
vn 0.992126 -0.007874 -0.118110
vn 0.000000 -1.000000 -0.007874
vn 0.000000 -0.047244 -1.000000
vn 0.992126 -0.125984 0.000000
vn 0.000000 -1.000000 0.007874
vn 0.992126 -0.125984 0.000000
vn 0.992126 -0.007874 0.118110
vn 0.000000 -0.047244 1.000000
vn -0.968504 -0.251968 -0.007874
vn -0.992126 -0.007874 -0.118110
vn -0.992126 -0.125984 0.000000
vn -0.968504 -0.023622 -0.251968
vn -0.968504 0.023622 -0.251968
vn -0.992126 0.007874 -0.118110
vn -0.968504 0.251968 -0.023622
vn -0.992126 0.118110 -0.007874
vn -0.984252 0.181102 -0.031496
vn -0.984252 0.181102 -0.015748
vn -0.039370 0.102362 -0.992126
vn -0.094488 0.023622 -0.992126
vn -0.141732 0.314960 -0.937008
vn -0.102362 0.125984 -0.984252
vn -0.015748 0.078740 -1.000000
vn -0.023622 0.165354 -0.984252
vn 0.086614 0.141732 -0.984252
vn 0.094488 0.133858 -0.984252
vn 0.433071 0.086614 -0.897638
vn 0.370079 0.133858 -0.921260
vn 0.968504 -0.023622 0.251968
vn 0.992126 -0.125984 0.000000
vn 0.968504 -0.251968 0.007874
vn 0.992126 -0.007874 0.118110
vn 0.992126 0.007874 0.118110
vn 0.968504 0.023622 0.251968
vn 0.992126 0.118110 0.007874
vn 0.968504 0.244094 0.023622
vn 0.984252 0.181102 0.031496
vn 0.984252 0.181102 0.015748
vn 0.039370 0.102362 0.992126
vn 0.094488 0.023622 0.992126
vn 0.141732 0.314961 0.937008
vn 0.102362 0.125984 0.984252
vn 0.015748 0.078740 1.000000
vn 0.023622 0.165354 0.984252
vn -0.086614 0.141732 0.984252
vn -0.094488 0.133858 0.984252
vn -0.448819 0.086614 0.889764
vn -0.385827 0.133858 0.913386
vn 0.204724 0.976378 0.031496
vn 0.086614 0.141732 0.984252
vn 0.370079 0.133858 0.921260
vn 0.047244 1.000000 0.015748
vn 0.236220 0.968504 0.062992
vn -0.141732 0.992126 0.031496
vn -0.015748 0.078740 1.000000
vn -0.094488 0.023622 0.992126
vn -0.984252 0.181102 0.031496
vn -0.968504 0.244094 0.023622
vn 0.047244 0.992126 0.118110
vn 0.614173 0.086614 0.787401
vn -0.125984 0.984252 0.110236
vn 0.149606 0.094488 0.984252
vn 0.629921 -0.062992 0.771653
vn -0.125984 0.094488 0.984252
vn -0.968504 0.023622 0.251968
vn -0.968504 -0.023622 0.251968
vn 0.133858 -0.102362 0.984252
vn -0.125984 -0.094488 0.984252
vn -0.968504 -0.251968 0.007874
vn 0.102362 -0.992126 0.023622
vn 0.574803 -0.818897 0.015748
vn -0.118110 -0.992126 0.023622
vn -0.968504 -0.251968 -0.007874
vn 0.574803 -0.818897 -0.015748
vn -0.118110 -0.992126 -0.023622
vn 0.102362 -0.992126 -0.031496
vn 0.629921 -0.062992 -0.771653
vn -0.125984 -0.094488 -0.984252
vn -0.968504 -0.023622 -0.251968
vn 0.133858 -0.102362 -0.984252
vn -0.125984 0.094488 -0.984252
vn -0.968504 0.023622 -0.251968
vn -0.968504 0.251968 -0.023622
vn 0.149606 0.094488 -0.984252
vn 0.614173 0.086614 -0.787401
vn -0.125984 0.984252 -0.110236
vn 0.047244 0.992126 -0.118110
vn 0.236220 0.968504 -0.062992
vn -0.141732 0.992126 -0.031496
vn -0.984252 0.181102 -0.031496
vn -0.094488 0.023622 -0.992126
vn -0.015748 0.078740 -1.000000
vn 0.086614 0.141732 -0.984252
vn 0.047244 1.000000 -0.015748
vn 0.204724 0.976378 -0.031496
vn 0.370079 0.133858 -0.921260
vn -0.086614 0.141732 -0.984252
vn -0.385827 0.133858 -0.913386
vn -0.212598 0.976378 -0.031496
vn -0.047244 1.000000 -0.015748
vn -0.244094 0.968504 -0.062992
vn 0.141732 0.992126 -0.031496
vn 0.015748 0.078740 -1.000000
vn 0.094488 0.023622 -0.992126
vn 0.984252 0.181102 -0.031496
vn 0.968504 0.251968 -0.023622
vn -0.047244 0.992126 -0.118110
vn -0.629921 0.086614 -0.771653
vn 0.118110 0.984252 -0.110236
vn 0.118110 0.094488 -0.984252
vn 0.968504 0.023622 -0.251968
vn 0.968504 -0.023622 -0.251968
vn -0.149606 0.094488 -0.984252
vn -0.645669 -0.062992 -0.755905
vn 0.118110 -0.094488 -0.992126
vn 0.968504 -0.251968 -0.007874
vn -0.133858 -0.102362 -0.984252
vn -0.102362 -0.992126 -0.023622
vn -0.598425 -0.803149 -0.015748
vn 0.118110 -0.992126 -0.023622
vn 0.118110 -0.992126 0.023622
vn 0.968504 -0.251968 0.007874
vn -0.102362 -0.992126 0.023622
vn -0.598425 -0.803149 0.015748
vn -0.645669 -0.062992 0.755905
vn 0.118110 -0.094488 0.984252
vn 0.968504 -0.023622 0.251968
vn -0.133858 -0.102362 0.984252
vn -0.149606 0.094488 0.984252
vn -0.629921 0.086614 0.771653
vn 0.118110 0.094488 0.992126
vn 0.968504 0.023622 0.251968
vn 0.968504 0.244094 0.023622
vn -0.047244 0.992126 0.118110
vn -0.244094 0.968504 0.062992
vn 0.118110 0.984252 0.110236
vn 0.141732 0.992126 0.031496
vn 0.984252 0.181102 0.031496
vn 0.094488 0.023622 0.992126
vn 0.015748 0.078740 1.000000
vn -0.086614 0.141732 0.984252
vn -0.047244 1.000000 0.015748
vn -0.212598 0.976378 0.031496
vn -0.385827 0.133858 0.913386
vn 0.094488 0.133858 0.984252
vn 0.338583 0.944882 0.007874
vn 0.433071 0.086614 0.897638
vn 0.055118 1.000000 0.007874
vn 0.338583 0.944882 -0.007874
vn -0.118110 0.992126 0.007874
vn -0.023622 0.165354 0.984252
vn 0.055118 1.000000 -0.007874
vn 0.094488 0.133858 -0.984252
vn 0.433071 0.086614 -0.897638
vn -0.118110 0.992126 -0.007874
vn -0.023622 0.165354 -0.984252
vn -0.622047 0.779527 -0.007874
vn -0.102362 0.125984 -0.984252
vn -0.141732 0.314960 -0.937008
vn -0.622047 0.779527 0.007874
vn -0.102362 0.125984 0.984252
vn -0.141732 0.314961 0.937008
vn -0.732283 0.685039 -0.007874
vn 0.000000 1.000000 -0.000000
vn 0.000000 1.000000 -0.000000
vn -0.732283 0.685039 0.007874
vn 0.000000 1.000000 -0.000000
vn 0.000000 1.000000 -0.000000
vn -0.354331 0.937008 0.007874
vn -0.094488 0.133858 0.984252
vn -0.448819 0.086614 0.889764
vn -0.055118 1.000000 0.007874
vn -0.354331 0.937008 -0.007874
vn 0.118110 0.992126 0.007874
vn 0.023622 0.165354 0.984252
vn -0.055118 1.000000 -0.007874
vn -0.094488 0.133858 -0.984252
vn -0.448819 0.086614 -0.889764
vn 0.118110 0.992126 -0.007874
vn 0.023622 0.157480 -0.984252
vn 0.622047 0.779527 -0.007874
vn 0.102362 0.125984 -0.984252
vn 0.141732 0.314960 -0.937008
vn 0.622047 0.779527 0.007874
vn 0.102362 0.125984 0.984252
vn 0.141732 0.314961 0.937008
vn 0.732283 0.685039 -0.007874
vn 0.000000 1.000000 -0.000000
vn 0.000000 1.000000 -0.000000
vn 0.732283 0.685039 0.007874
vn 0.000000 1.000000 -0.000000
vn 0.000000 1.000000 -0.000000
vn 0.000000 1.000000 -0.000000
vn 0.000000 1.000000 -0.000000
vn 0.000000 1.000000 -0.000000
vn 0.000000 1.000000 -0.000000
tan 0.252093 -0.968504 0.015252 1.000000
tan 0.125984 -0.992126 -0.007812 1.000000
tan 0.125984 -0.992126 0.015624 1.000000
tan 0.252093 -0.968504 -0.015252 1.000000
tan -0.006882 -0.998264 0.008742 1.000000
tan 0.023994 -1.000000 -0.047244 1.000000
tan -0.023994 -1.000000 0.047244 1.000000
tan 0.006882 -0.998264 -0.008742 1.000000
tan -0.023994 -1.000000 -0.047244 1.000000
tan 0.023994 -1.000000 0.047244 1.000000
tan -0.006882 -0.998264 -0.008742 1.000000
tan 0.006882 -0.998264 0.008742 1.000000
tan -0.125984 -0.992126 -0.007812 1.000000
tan -0.252093 -0.968504 0.015252 1.000000
tan -0.125984 -0.992126 0.015624 1.000000
tan -0.252093 -0.968504 -0.015252 1.000000
tan 0.006882 -0.998264 0.008742 1.000000
tan -0.023994 -1.000000 -0.047244 1.000000
tan -0.006882 -0.998264 -0.008742 1.000000
tan 0.023994 -1.000000 0.047244 1.000000
tan -0.023994 -1.000000 0.047244 1.000000
tan 0.023994 -1.000000 -0.047244 1.000000
tan 0.006882 -0.998264 -0.008742 1.000000
tan -0.006882 -0.998264 0.008742 1.000000
tan 0.125984 -0.992126 0.015624 1.000000
tan 0.036766 -1.001488 0.047430 1.000000
tan 0.252093 -0.968504 0.015252 1.000000
tan 0.013392 -0.998264 0.045942 1.000000
tan -0.012958 -1.001488 0.044082 1.000000
tan -0.002232 -0.998264 0.047802 1.000000
tan -0.117986 -0.992188 0.016554 1.000000
tan -0.243908 -0.969248 0.015314 1.000000
tan -0.176700 -0.978238 0.102982 1.000000
tan -0.178312 -0.976998 0.090954 1.000000
tan -0.050902 -0.993676 0.100502 1.000000
tan -0.002232 -0.993242 0.023436 1.000000
tan 0.002108 -0.948602 0.319177 1.000000
tan 0.002604 -0.986980 0.126604 1.000000
tan -0.001240 -1.000248 0.078740 1.000000
tan -0.003906 -0.984810 0.165354 1.000000
tan -0.074090 -0.983322 0.148118 1.000000
tan -0.113460 -0.983942 0.144708 1.000000
tan -0.206212 -0.955050 0.191642 1.000000
tan -0.113212 -0.976936 0.187426 1.000000
tan -0.307459 0.952756 -0.045012 1.000000
tan 0.033604 0.344597 -0.934838 1.000000
tan -0.086180 0.634261 -0.766197 1.000000
tan 0.157976 0.062000 -0.984252 1.000000
tan 0.021948 0.204352 -0.978300 1.000000
tan 0.093496 0.021576 -0.996094 1.000000
tan -0.311675 0.937752 -0.109120 1.000000
tan -0.002108 0.948602 -0.319177 1.000000
tan 0.000000 -0.000000 -1.000000 1.000000
tan 0.086180 -0.634261 -0.766197 1.000000
tan -0.033604 -0.344659 -0.935768 1.000000
tan 0.307459 -0.952756 -0.045012 1.000000
tan -0.157976 -0.062000 -0.984252 1.000000
tan -0.021948 -0.204352 -0.978300 1.000000
tan -0.093496 -0.021576 -0.996094 1.000000
tan 0.311675 -0.937752 -0.109120 1.000000
tan 0.002108 -0.948602 -0.319176 1.000000
tan 0.000000 -0.000000 -1.000000 1.000000
tan -0.173228 0.007750 -0.984252 1.000000
tan 0.089218 0.603013 -0.789634 1.000000
tan 0.291711 0.960630 -0.045384 1.000000
tan -0.035712 0.281232 -0.960134 1.000000
tan 0.173228 -0.007750 -0.984252 1.000000
tan 0.035712 -0.281233 -0.960134 1.000000
tan -0.089218 -0.603013 -0.789633 1.000000
tan -0.291711 -0.960630 -0.045384 1.000000
tan -0.013392 -0.998264 -0.045942 1.000000
tan -0.252093 -0.968504 -0.015252 1.000000
tan -0.125984 -0.992126 -0.007812 1.000000
tan -0.036766 -1.001488 -0.047430 1.000000
tan 0.002232 -0.998264 -0.047802 1.000000
tan 0.010974 -1.003472 -0.051894 1.000000
tan 0.251783 -0.969248 -0.015562 1.000000
tan 0.118048 -0.992188 -0.008742 1.000000
tan 0.177196 -0.977990 -0.086056 1.000000
tan 0.180110 -0.984748 -0.067704 1.000000
tan 0.098580 -0.986174 -0.097836 1.000000
tan 0.072540 -0.993242 -0.016740 1.000000
tan 0.064356 -0.944572 -0.307768 1.000000
tan 0.075888 -0.987786 -0.118544 1.000000
tan 0.096348 -0.992498 -0.076632 1.000000
tan 0.091450 -0.977432 -0.154194 1.000000
tan 0.169322 -0.974208 -0.155186 1.000000
tan 0.208568 -0.966954 -0.151528 1.000000
tan 0.281171 -0.933350 -0.232686 1.000000
tan 0.199206 -0.957716 -0.224502 1.000000
tan -0.033604 0.344597 -0.934838 1.000000
tan 0.307459 0.952756 -0.045012 1.000000
tan 0.086180 0.634261 -0.766197 1.000000
tan -0.157976 0.062000 -0.984252 1.000000
tan -0.021948 0.204352 -0.978300 1.000000
tan -0.093496 0.021576 -0.996094 1.000000
tan 0.311675 0.937752 -0.109120 1.000000
tan 0.002108 0.948602 -0.319177 1.000000
tan 0.000000 -0.000000 -1.000000 1.000000
tan -0.307459 -0.952756 -0.045012 1.000000
tan 0.033604 -0.344659 -0.935768 1.000000
tan -0.086180 -0.634261 -0.766197 1.000000
tan 0.157976 -0.062000 -0.984252 1.000000
tan 0.021948 -0.204352 -0.978300 1.000000
tan 0.093496 -0.021576 -0.996094 1.000000
tan -0.311675 -0.937752 -0.109120 1.000000
tan -0.002108 -0.948602 -0.319176 1.000000
tan 0.000000 -0.000000 -1.000000 1.000000
tan -0.089218 0.603013 -0.789634 1.000000
tan 0.173228 0.007750 -0.984252 1.000000
tan -0.291711 0.960630 -0.045384 1.000000
tan 0.035712 0.281232 -0.960134 1.000000
tan -0.173228 -0.007750 -0.984252 1.000000
tan -0.035712 -0.281233 -0.960134 1.000000
tan 0.089218 -0.603013 -0.789633 1.000000
tan 0.291711 -0.960630 -0.045384 1.000000
tan 0.252093 -0.968504 -0.015252 1.000000
tan 0.013392 -0.998264 -0.045942 1.000000
tan 0.125984 -0.992126 -0.007812 1.000000
tan 0.036766 -1.001488 -0.047430 1.000000
tan -0.010974 -1.003472 -0.051894 1.000000
tan -0.003162 -0.998264 -0.039990 1.000000
tan -0.251783 -0.969248 -0.015562 1.000000
tan -0.118048 -0.992188 -0.008742 1.000000
tan -0.176700 -0.978238 -0.102982 1.000000
tan -0.178312 -0.976998 -0.090954 1.000000
tan -0.050902 -0.993676 -0.100502 1.000000
tan -0.002232 -0.993242 -0.023436 1.000000
tan 0.002108 -0.948602 -0.319176 1.000000
tan -0.005146 -0.986980 -0.125798 1.000000
tan -0.001240 -1.000248 -0.078740 1.000000
tan -0.003906 -0.984810 -0.165354 1.000000
tan -0.074090 -0.983322 -0.148118 1.000000
tan -0.113460 -0.983942 -0.144708 1.000000
tan -0.206212 -0.955050 -0.191642 1.000000
tan -0.113212 -0.976936 -0.187426 1.000000
tan -0.036766 -1.001488 0.047430 1.000000
tan -0.125984 -0.992126 0.015624 1.000000
tan -0.252093 -0.968504 0.015252 1.000000
tan -0.013392 -0.998264 0.045942 1.000000
tan 0.002232 -0.998264 0.047802 1.000000
tan 0.012958 -1.001488 0.044082 1.000000
tan 0.117986 -0.992188 0.016554 1.000000
tan 0.243908 -0.969248 0.015314 1.000000
tan 0.177196 -0.977990 0.086056 1.000000
tan 0.180110 -0.984748 0.067704 1.000000
tan 0.098580 -0.986174 0.097836 1.000000
tan 0.072540 -0.993242 0.016740 1.000000
tan 0.064356 -0.944572 0.307769 1.000000
tan 0.075888 -0.987786 0.118544 1.000000
tan 0.096348 -0.992498 0.076632 1.000000
tan 0.091760 -0.977432 0.162006 1.000000
tan 0.169322 -0.974208 0.155186 1.000000
tan 0.208568 -0.966954 0.151528 1.000000
tan 0.281171 -0.933350 0.232687 1.000000
tan 0.199206 -0.957716 0.224503 1.000000
tan 0.324881 -0.098332 0.936574 1.000000
tan -0.081840 -0.983322 0.148800 1.000000
tan -0.180606 -0.963854 0.212599 1.000000
tan 0.203980 -0.025048 0.978610 1.000000
tan 0.546779 -0.186372 0.815054 1.000000
tan -0.324137 -0.076384 0.947486 1.000000
tan -0.436791 -0.898382 0.063860 1.000000
tan -0.907682 -0.412177 -0.076632 1.000000
tan -0.145080 -0.871722 0.478641 1.000000
tan -0.079112 -0.402133 0.911774 1.000000
tan 0.279373 -0.126852 0.953810 1.000000
tan -0.028086 -0.992374 0.131068 1.000000
tan -0.159216 -0.129456 0.973898 1.000000
tan -0.025358 -0.997706 0.099634 1.000000
tan 0.299957 -0.895158 -0.317936 1.000000
tan 0.136834 -0.982640 0.111848 1.000000
tan 0.059768 -0.946122 0.318433 1.000000
tan -0.063922 -0.940480 -0.333871 1.000000
tan 0.213466 -0.968008 -0.129704 1.000000
tan -0.153078 -0.981648 -0.113832 1.000000
tan 0.080166 -0.337405 -0.936512 1.000000
tan -0.279001 -0.051522 -0.954926 1.000000
tan -0.411433 -0.305351 -0.860934 1.000000
tan 0.161262 -0.042594 -0.982640 1.000000
tan -0.080166 0.337467 -0.938496 1.000000
tan 0.411433 0.305350 -0.860934 1.000000
tan -0.161262 0.042594 -0.982640 1.000000
tan 0.278257 0.059024 -0.954926 1.000000
tan -0.299957 0.895158 -0.317937 1.000000
tan 0.152334 0.982640 -0.113832 1.000000
tan 0.061752 0.946122 -0.326059 1.000000
tan -0.213466 0.968008 -0.129704 1.000000
tan -0.144584 0.982640 0.112840 1.000000
tan -0.061752 0.948106 0.326245 1.000000
tan 0.078182 0.386881 0.921260 1.000000
tan 0.017608 0.997706 0.098456 1.000000
tan 0.028086 0.992374 0.131068 1.000000
tan 0.151466 0.129332 0.981648 1.000000
tan -0.287185 0.126294 0.945998 1.000000
tan -0.546779 0.186372 0.815054 1.000000
tan 0.050220 0.039060 1.004402 1.000000
tan 0.003968 0.191952 0.979726 1.000000
tan -0.584413 0.802777 0.074772 1.000000
tan -0.347697 0.936760 0.079236 1.000000
tan 0.058590 0.983322 0.146754 1.000000
tan -0.203980 0.025048 0.978610 1.000000
tan -0.347945 0.102920 0.928886 1.000000
tan 0.105958 0.976936 0.184512 1.000000
tan -0.058590 0.983322 0.146754 1.000000
tan -0.109740 0.974022 0.189100 1.000000
tan 0.363073 0.108872 0.924298 1.000000
tan 0.211854 0.025420 0.978610 1.000000
tan 0.561535 0.193750 0.802963 1.000000
tan -0.066092 0.041292 1.003286 1.000000
tan 0.331949 0.944634 0.079608 1.000000
tan 0.560977 0.818401 0.072912 1.000000
tan -0.008246 0.215203 0.979726 1.000000
tan -0.078182 0.386881 0.921260 1.000000
tan 0.303739 0.127038 0.945626 1.000000
tan -0.025110 0.987290 0.131316 1.000000
tan -0.151466 0.128030 0.980842 1.000000
tan 0.145328 0.980842 0.111600 1.000000
tan 0.061752 0.948106 0.326245 1.000000
tan -0.061752 0.946122 -0.326059 1.000000
tan -0.017608 0.997706 0.098456 1.000000
tan 0.304049 0.884742 -0.333437 1.000000
tan -0.154380 0.988592 -0.112530 1.000000
tan 0.080166 0.337467 -0.938496 1.000000
tan 0.221216 0.968008 -0.130758 1.000000
tan -0.286813 0.052328 -0.954926 1.000000
tan -0.415897 0.326617 -0.853370 1.000000
tan 0.169260 0.043524 -0.981710 1.000000
tan -0.161448 -0.042594 -0.981710 1.000000
tan -0.080166 -0.337405 -0.936512 1.000000
tan 0.286813 -0.052328 -0.954926 1.000000
tan 0.415897 -0.326493 -0.847045 1.000000
tan -0.304049 -0.884742 -0.333437 1.000000
tan 0.153078 -0.980842 -0.112530 1.000000
tan 0.063922 -0.940480 -0.333871 1.000000
tan -0.221216 -0.968008 -0.130758 1.000000
tan 0.025358 -0.997706 0.099634 1.000000
tan 0.025110 -0.987290 0.131316 1.000000
tan -0.138012 -0.989522 0.110670 1.000000
tan -0.059768 -0.946122 0.318433 1.000000
tan 0.083142 -0.417385 0.904148 1.000000
tan -0.295927 -0.126666 0.945626 1.000000
tan -0.561535 -0.194246 0.810589 1.000000
tan 0.166966 -0.129022 0.973092 1.000000
tan 0.261641 -0.067952 0.963110 1.000000
tan 0.143406 -0.863972 0.486391 1.000000
tan 0.510013 -0.852626 -0.028272 1.000000
tan 0.230826 -0.976874 0.073284 1.000000
tan 0.081840 -0.983322 0.148800 1.000000
tan -0.203980 -0.025048 0.978610 1.000000
tan -0.347697 -0.105772 0.931986 1.000000
tan 0.153946 -0.970984 0.207328 1.000000
tan 0.128960 0.976192 -0.145142 1.000000
tan -0.384463 0.145390 -0.914936 1.000000
tan 0.213280 0.955050 -0.195052 1.000000
tan -0.212164 0.019406 -0.979416 1.000000
tan 0.377023 -0.142724 -0.914936 1.000000
tan -0.000930 0.007812 -0.998264 1.000000
tan -0.124000 0.976502 -0.167028 1.000000
tan 0.212164 -0.019406 -0.979416 1.000000
tan -0.128960 -0.976192 -0.145142 1.000000
tan -0.220348 -0.955050 -0.198462 1.000000
tan 0.000930 -0.007812 -0.998264 1.000000
tan 0.124000 -0.976502 -0.167028 1.000000
tan 0.004898 -0.006138 -0.994606 1.000000
tan 0.525017 -0.830864 -0.160952 1.000000
tan 0.661851 -0.670531 -0.325501 1.000000
tan -0.004898 0.006138 -0.994606 1.000000
tan -0.525017 0.830864 -0.160952 1.000000
tan -0.661851 0.670531 -0.325501 1.000000
tan 0.038130 0.029202 -1.005518 1.000000
tan 0.102362 -0.000000 -0.992126 1.000000
tan 0.047244 -0.000000 -1.000000 1.000000
tan -0.038068 -0.029202 -0.999752 1.000000
tan -0.102362 -0.000000 -0.992126 1.000000
tan -0.055118 -0.000000 -1.000000 1.000000
tan 0.395933 0.157356 -0.908426 1.000000
tan -0.130014 0.975448 -0.145142 1.000000
tan -0.223758 0.954430 -0.205779 1.000000
tan 0.220038 0.019840 -0.979416 1.000000
tan -0.388555 -0.154566 -0.908426 1.000000
tan 0.000930 0.007812 -0.998264 1.000000
tan 0.124000 0.976502 -0.167028 1.000000
tan -0.220038 -0.019840 -0.979416 1.000000
tan 0.137764 -0.975448 -0.145886 1.000000
tan 0.223758 -0.954430 -0.205778 1.000000
tan -0.000930 -0.007812 -0.998264 1.000000
tan -0.124000 -0.976502 -0.159216 1.000000
tan -0.004898 -0.006138 -0.994606 1.000000
tan -0.525017 -0.830864 -0.160952 1.000000
tan -0.661851 -0.670531 -0.325501 1.000000
tan 0.004898 0.006138 -0.994606 1.000000
tan 0.525017 0.830864 -0.160952 1.000000
tan 0.661851 0.670531 -0.325501 1.000000
tan -0.038130 0.029202 -1.005518 1.000000
tan -0.102362 -0.000000 -0.992126 1.000000
tan -0.047244 -0.000000 -1.000000 1.000000
tan 0.038068 -0.029202 -0.999752 1.000000
tan 0.102362 -0.000000 -0.992126 1.000000
tan 0.055118 -0.000000 -1.000000 1.000000
tan 0.000000 -0.000000 -1.000000 1.000000
tan 0.000000 -0.000000 -1.000000 1.000000
tan 0.000000 -0.000000 -1.000000 1.000000
tan 0.000000 -0.000000 -1.000000 1.000000
f 3/3/3 2/2/2 1/1/1
f 4/4/4 1/1/1 2/2/2
f 7/7/7 6/6/6 5/5/5
f 8/8/8 5/5/5 6/6/6
f 11/11/11 10/10/10 9/9/9
f 12/12/12 10/10/10 11/11/11
f 15/15/15 14/14/14 13/13/13
f 16/16/16 13/13/13 14/14/14
f 19/19/19 18/18/18 17/17/17
f 20/20/20 17/17/17 18/18/18
f 23/23/23 22/22/22 21/21/21
f 21/21/21 24/24/24 23/23/23
f 27/27/27 26/26/26 25/25/25
f 28/28/28 25/25/25 26/26/26
f 26/26/26 29/29/29 28/28/28
f 30/30/30 28/28/28 29/29/29
f 30/30/30 29/29/29 31/31/31
f 32/32/32 31/31/31 29/29/29
f 31/31/31 32/32/32 33/33/33
f 34/34/34 31/31/31 33/33/33
f 35/35/35 34/34/34 33/33/33
f 33/33/33 36/36/36 35/35/35
f 35/35/35 36/36/36 37/37/37
f 38/38/38 37/37/37 36/36/36
f 39/39/39 38/38/38 36/36/36
f 38/38/38 39/39/39 40/40/40
f 40/40/40 39/39/39 41/41/41
f 41/41/41 42/42/42 40/40/40
f 42/42/42 41/41/41 43/43/43
f 44/44/44 43/43/43 41/41/41
f 47/47/47 46/46/46 45/45/45
f 48/48/48 45/45/45 46/46/46
f 48/48/48 46/46/46 49/49/49
f 50/50/50 48/48/48 49/49/49
f 49/49/49 51/51/51 50/50/50
f 51/51/51 52/52/52 50/50/50
f 52/52/52 53/53/53 50/50/50
f 56/56/56 55/55/55 54/54/54
f 57/57/57 55/55/55 56/56/56
f 57/57/57 58/58/58 55/55/55
f 58/58/58 57/57/57 59/59/59
f 59/59/59 60/60/60 58/58/58
f 59/59/59 61/61/61 60/60/60
f 61/61/61 59/59/59 62/62/62
f 65/65/65 64/64/64 63/63/63
f 63/63/63 64/64/64 66/66/66
f 63/63/63 66/66/66 67/67/67
f 67/67/67 66/66/66 68/68/68
f 68/68/68 69/69/69 67/67/67
f 70/70/70 67/67/67 69/69/69
f 73/73/73 72/72/72 71/71/71
f 74/74/74 71/71/71 72/72/72
f 71/71/71 74/74/74 75/75/75
f 76/76/76 75/75/75 74/74/74
f 76/76/76 77/77/77 75/75/75
f 77/77/77 78/78/78 75/75/75
f 77/77/77 79/79/79 78/78/78
f 80/80/80 78/78/78 79/79/79
f 81/81/81 80/80/80 79/79/79
f 79/79/79 82/82/82 81/81/81
f 81/81/81 82/82/82 83/83/83
f 84/84/84 83/83/83 82/82/82
f 85/85/85 84/84/84 82/82/82
f 84/84/84 85/85/85 86/86/86
f 85/85/85 87/87/87 86/86/86
f 86/86/86 87/87/87 88/88/88
f 89/89/89 88/88/88 87/87/87
f 87/87/87 90/90/90 89/89/89
f 93/93/93 92/92/92 91/91/91
f 94/94/94 91/91/91 92/92/92
f 94/94/94 95/95/95 91/91/91
f 95/95/95 94/94/94 96/96/96
f 97/97/97 95/95/95 96/96/96
f 97/97/97 96/96/96 98/98/98
f 98/98/98 96/96/96 99/99/99
f 102/102/102 101/101/101 100/100/100
f 103/103/103 100/100/100 101/101/101
f 103/103/103 101/101/101 104/104/104
f 105/105/105 103/103/103 104/104/104
f 106/106/106 105/105/105 104/104/104
f 105/105/105 106/106/106 107/107/107
f 107/107/107 108/108/108 105/105/105
f 111/111/111 110/110/110 109/109/109
f 112/112/112 109/109/109 110/110/110
f 110/110/110 113/113/113 112/112/112
f 113/113/113 114/114/114 112/112/112
f 114/114/114 113/113/113 115/115/115
f 116/116/116 115/115/115 113/113/113
f 119/119/119 118/118/118 117/117/117
f 120/120/120 117/117/117 118/118/118
f 118/118/118 121/121/121 120/120/120
f 122/122/122 121/121/121 118/118/118
f 121/121/121 122/122/122 123/123/123
f 124/124/124 123/123/123 122/122/122
f 124/124/124 125/125/125 123/123/123
f 126/126/126 125/125/125 124/124/124
f 126/126/126 127/127/127 125/125/125
f 125/125/125 127/127/127 128/128/128
f 127/127/127 129/129/129 128/128/128
f 130/130/130 128/128/128 129/129/129
f 128/128/128 130/130/130 131/131/131
f 131/131/131 130/130/130 132/132/132
f 133/133/133 131/131/131 132/132/132
f 133/133/133 132/132/132 134/134/134
f 135/135/135 133/133/133 134/134/134
f 136/136/136 133/133/133 135/135/135
f 139/139/139 138/138/138 137/137/137
f 140/140/140 137/137/137 138/138/138
f 140/140/140 141/141/141 137/137/137
f 141/141/141 142/142/142 137/137/137
f 141/141/141 143/143/143 142/142/142
f 144/144/144 142/142/142 143/143/143
f 143/143/143 145/145/145 144/144/144
f 146/146/146 145/145/145 143/143/143
f 146/146/146 147/147/147 145/145/145
f 145/145/145 147/147/147 148/148/148
f 147/147/147 149/149/149 148/148/148
f 150/150/150 148/148/148 149/149/149
f 148/148/148 150/150/150 151/151/151
f 151/151/151 150/150/150 152/152/152
f 153/153/153 151/151/151 152/152/152
f 153/153/153 152/152/152 154/154/154
f 155/155/155 153/153/153 154/154/154
f 156/156/156 153/153/153 155/155/155
f 159/159/159 158/158/158 157/157/157
f 158/158/158 160/160/160 157/157/157
f 157/157/157 160/160/160 161/161/161
f 160/160/160 158/158/158 162/162/162
f 162/162/162 158/158/158 163/163/163
f 163/163/163 164/164/164 162/162/162
f 165/165/165 162/162/162 164/164/164
f 165/165/165 166/166/166 162/162/162
f 161/161/161 160/160/160 167/167/167
f 160/160/160 162/162/162 167/167/167
f 167/167/167 168/168/168 161/161/161
f 169/169/169 162/162/162 166/166/166
f 167/167/167 162/162/162 169/169/169
f 168/168/168 167/167/167 170/170/170
f 167/167/167 169/169/169 170/170/170
f 168/168/168 170/170/170 171/171/171
f 166/166/166 172/172/172 169/169/169
f 172/172/172 170/170/170 169/169/169
f 172/172/172 166/166/166 173/173/173
f 173/173/173 174/174/174 172/172/172
f 171/171/171 170/170/170 175/175/175
f 170/170/170 172/172/172 175/175/175
f 176/176/176 172/172/172 174/174/174
f 176/176/176 175/175/175 172/172/172
f 174/174/174 177/177/177 176/176/176
f 171/171/171 175/175/175 178/178/178
f 175/175/175 176/176/176 178/178/178
f 179/179/179 171/171/171 178/178/178
f 180/180/180 176/176/176 177/177/177
f 180/180/180 178/178/178 176/176/176
f 177/177/177 181/181/181 180/180/180
f 179/179/179 178/178/178 182/182/182
f 183/183/183 180/180/180 181/181/181
f 178/178/178 180/180/180 183/183/183
f 184/184/184 182/182/182 178/178/178
f 183/183/183 184/184/184 178/178/178
f 184/184/184 185/185/185 182/182/182
f 181/181/181 186/186/186 183/183/183
f 184/184/184 183/183/183 186/186/186
f 187/187/187 186/186/186 181/181/181
f 188/188/188 185/185/185 184/184/184
f 184/184/184 186/186/186 188/188/188
f 186/186/186 187/187/187 189/189/189
f 188/188/188 186/186/186 189/189/189
f 189/189/189 187/187/187 190/190/190
f 190/190/190 191/191/191 189/189/189
f 185/185/185 188/188/188 192/192/192
f 189/189/189 192/192/192 188/188/188
f 192/192/192 193/193/193 185/185/185
f 194/194/194 189/189/189 191/191/191
f 189/189/189 194/194/194 192/192/192
f 193/193/193 192/192/192 195/195/195
f 195/195/195 192/192/192 194/194/194
f 196/196/196 193/193/193 195/195/195
f 191/191/191 197/197/197 194/194/194
f 195/195/195 194/194/194 197/197/197
f 197/197/197 191/191/191 198/198/198
f 198/198/198 199/199/199 197/197/197
f 200/200/200 197/197/197 199/199/199
f 197/197/197 200/200/200 201/201/201
f 197/197/197 202/202/202 195/195/195
f 202/202/202 197/197/197 201/201/201
f 196/196/196 195/195/195 202/202/202
f 202/202/202 203/203/203 196/196/196
f 201/201/201 203/203/203 202/202/202
f 203/203/203 201/201/201 204/204/204
f 207/207/207 206/206/206 205/205/205
f 208/208/208 207/207/207 205/205/205
f 208/208/208 209/209/209 207/207/207
f 208/208/208 205/205/205 210/210/210
f 210/210/210 205/205/205 211/211/211
f 211/211/211 212/212/212 210/210/210
f 213/213/213 210/210/210 212/212/212
f 213/213/213 214/214/214 210/210/210
f 215/215/215 209/209/209 208/208/208
f 208/208/208 210/210/210 215/215/215
f 215/215/215 216/216/216 209/209/209
f 214/214/214 217/217/217 210/210/210
f 217/217/217 215/215/215 210/210/210
f 217/217/217 214/214/214 218/218/218
f 217/217/217 218/218/218 215/215/215
f 219/219/219 218/218/218 214/214/214
f 218/218/218 219/219/219 220/220/220
f 216/216/216 215/215/215 221/221/221
f 221/221/221 215/215/215 218/218/218
f 221/221/221 222/222/222 216/216/216
f 220/220/220 223/223/223 218/218/218
f 220/220/220 224/224/224 223/223/223
f 221/221/221 218/218/218 225/225/225
f 223/223/223 225/225/225 218/218/218
f 225/225/225 222/222/222 221/221/221
f 222/222/222 225/225/225 226/226/226
f 225/225/225 223/223/223 226/226/226
f 227/227/227 222/222/222 226/226/226
f 228/228/228 223/223/223 224/224/224
f 228/228/228 226/226/226 223/223/223
f 228/228/228 224/224/224 229/229/229
f 230/230/230 229/229/229 224/224/224
f 226/226/226 228/228/228 231/231/231
f 226/226/226 231/231/231 227/227/227
f 229/229/229 231/231/231 228/228/228
f 232/232/232 227/227/227 231/231/231
f 231/231/231 233/233/233 232/232/232
f 229/229/229 230/230/230 234/234/234
f 229/229/229 234/234/234 231/231/231
f 235/235/235 234/234/234 230/230/230
f 233/233/233 231/231/231 236/236/236
f 236/236/236 231/231/231 234/234/234
f 233/233/233 236/236/236 237/237/237
f 238/238/238 233/233/233 237/237/237
f 234/234/234 239/239/239 236/236/236
f 234/234/234 235/235/235 239/239/239
f 237/237/237 236/236/236 239/239/239
f 240/240/240 239/239/239 235/235/235
f 239/239/239 240/240/240 241/241/241
f 238/238/238 237/237/237 242/242/242
f 237/237/237 239/239/239 242/242/242
f 242/242/242 243/243/243 238/238/238
f 241/241/241 244/244/244 239/239/239
f 244/244/244 242/242/242 239/239/239
f 241/241/241 245/245/245 244/244/244
f 242/242/242 244/244/244 245/245/245
f 245/245/245 241/241/241 246/246/246
f 245/245/245 246/246/246 247/247/247
f 247/247/247 248/248/248 245/245/245
f 245/245/245 248/248/248 249/249/249
f 245/245/245 250/250/250 242/242/242
f 250/250/250 245/245/245 249/249/249
f 243/243/243 242/242/242 250/250/250
f 250/250/250 251/251/251 243/243/243
f 249/249/249 251/251/251 250/250/250
f 251/251/251 249/249/249 252/252/252
f 255/255/255 254/254/254 253/253/253
f 256/256/256 253/253/253 254/254/254
f 254/254/254 257/257/257 256/256/256
f 253/253/253 256/256/256 258/258/258
f 259/259/259 253/253/253 258/258/258
f 257/257/257 260/260/260 256/256/256
f 256/256/256 260/260/260 258/258/258
f 262/262/262 261/261/261 257/257/257
f 260/260/260 257/257/257 261/261/261
f 261/261/261 263/263/263 260/260/260
f 263/263/263 258/258/258 260/260/260
f 263/263/263 261/261/261 264/264/264
f 264/264/264 265/265/265 263/263/263
f 263/263/263 265/265/265 258/258/258
f 266/266/266 265/265/265 264/264/264
f 266/266/266 267/267/267 265/265/265
f 259/259/259 258/258/258 268/268/268
f 268/268/268 258/258/258 265/265/265
f 269/269/269 259/259/259 268/268/268
f 269/269/269 268/268/268 270/270/270
f 267/267/267 271/271/271 265/265/265
f 271/271/271 268/268/268 265/265/265
f 271/271/271 267/267/267 272/272/272
f 273/273/273 271/271/271 272/272/272
f 270/270/270 268/268/268 274/274/274
f 268/268/268 271/271/271 274/274/274
f 271/271/271 273/273/273 274/274/274
f 275/275/275 270/270/270 274/274/274
f 274/274/274 273/273/273 276/276/276
f 276/276/276 275/275/275 274/274/274
f 279/279/279 278/278/278 277/277/277
f 280/280/280 277/277/277 278/278/278
f 277/277/277 280/280/280 281/281/281
f 278/278/278 282/282/282 280/280/280
f 282/282/282 278/278/278 283/283/283
f 284/284/284 281/281/281 280/280/280
f 280/280/280 282/282/282 284/284/284
f 286/286/286 281/281/281 285/285/285
f 284/284/284 285/285/285 281/281/281
f 285/285/285 284/284/284 287/287/287
f 287/287/287 284/284/284 282/282/282
f 287/287/287 288/288/288 285/285/285
f 288/288/288 287/287/287 289/289/289
f 287/287/287 282/282/282 289/289/289
f 290/290/290 288/288/288 289/289/289
f 290/290/290 289/289/289 291/291/291
f 282/282/282 283/283/283 292/292/292
f 292/292/292 289/289/289 282/282/282
f 292/292/292 283/283/283 293/293/293
f 293/293/293 294/294/294 292/292/292
f 291/291/291 289/289/289 295/295/295
f 295/295/295 289/289/289 292/292/292
f 295/295/295 296/296/296 291/291/291
f 296/296/296 295/295/295 297/297/297
f 294/294/294 298/298/298 292/292/292
f 298/298/298 295/295/295 292/292/292
f 295/295/295 298/298/298 297/297/297
f 294/294/294 299/299/299 298/298/298
f 298/298/298 300/300/300 297/297/297
f 300/300/300 298/298/298 299/299/299
f 20/20/20 18/18/18 7/7/7
f 6/6/6 7/7/7 18/18/18
f 22/22/22 9/9/9 21/21/21
f 10/10/10 21/21/21 9/9/9
f 70/70/70 116/116/116 67/67/67
f 116/116/116 113/113/113 67/67/67
f 67/67/67 113/113/113 63/63/63
f 113/113/113 110/110/110 63/63/63
f 111/111/111 63/63/63 110/110/110
f 63/63/63 111/111/111 65/65/65
f 56/56/56 100/100/100 57/57/57
f 100/100/100 103/103/103 57/57/57
f 62/62/62 59/59/59 57/57/57
f 62/62/62 57/57/57 103/103/103
f 108/108/108 62/62/62 103/103/103
f 105/105/105 108/108/108 103/103/103
f 301/301/301 62/62/62 108/108/108
f 302/302/302 301/301/301 108/108/108
f 302/302/302 303/303/303 301/301/301
f 304/304/304 301/301/301 303/303/303
f 303/303/303 99/99/99 304/304/304
f 53/53/53 304/304/304 99/99/99
f 53/53/53 48/48/48 50/50/50
f 53/53/53 99/99/99 48/48/48
f 94/94/94 48/48/48 99/99/99
f 94/94/94 99/99/99 96/96/96
f 48/48/48 94/94/94 45/45/45
f 94/94/94 92/92/92 45/45/45
