mtllib SM_Air_Duct_03.mtl
g SM_Air_Duct_03
#Vertices 514
#Indices 1872
#Section 0 Offset 0 NumIndices 924 MaterialIndex 0 MI_Air_Duct_Metal_2
#Section 1 Offset 924 NumIndices 948 MaterialIndex 1 MI_Air_Duct_Plastic_2
v 0.200000 -0.029448 0.791550
v 0.200000 -0.029448 0.627775
v 0.200000 -0.082945 0.627775
v 0.200000 -0.397390 0.791501
v 0.200000 -0.086466 0.624254
v 0.200000 -0.086466 0.175746
v 0.200000 -0.397390 0.008499
v 0.200000 -0.082945 0.172225
v 0.200000 -0.029448 0.008450
v 0.200000 -0.029448 0.172225
v 0.206820 -0.437364 0.008499
v 0.206820 -0.437364 0.791501
v 0.220728 -0.475432 0.008499
v 0.220728 -0.475432 0.791501
v 0.240011 -0.508692 0.008499
v 0.240011 -0.508692 0.791501
v 0.266132 -0.537621 0.008499
v 0.266132 -0.537621 0.791501
v 0.295091 -0.562074 0.008499
v 0.295091 -0.562074 0.791501
v 0.328983 -0.579415 0.008499
v 0.328983 -0.579415 0.791501
v 0.365062 -0.592755 0.008499
v 0.365062 -0.592754 0.791501
v 0.402610 -0.600000 0.791501
v 0.402610 -0.600000 0.008499
v 0.442625 -0.600000 0.791501
v 0.499432 -0.600000 0.008499
v 0.469799 -0.600000 0.796108
v 0.870247 -0.600000 0.058309
v 0.935395 -0.600000 0.080991
v 0.490880 -0.600000 0.809120
v 0.995951 -0.600000 0.116284
v 1.052681 -0.600000 0.157497
v 1.104033 -0.600000 0.206169
v 1.151661 -0.600000 0.257186
v 1.191724 -0.600000 0.317769
v 1.225204 -0.600000 0.383724
v 1.244282 -0.600000 0.452279
v 0.503892 -0.600000 0.830201
v 1.276163 -0.600000 0.625409
v 1.291534 -0.600000 0.800744
v 0.508499 -0.600000 0.857375
v 1.124254 -0.600000 1.313534
v 0.675746 -0.600000 1.313534
v 1.127775 -0.600000 1.317055
v 0.672225 -0.600000 1.317055
v 1.291550 -0.600000 1.370551
v 1.127775 -0.600000 1.370551
v 0.508450 -0.600000 1.370551
v 0.672225 -0.600000 1.370551
v 1.291550 -0.800000 1.370551
v 0.508499 -0.799999 0.857375
v 0.508450 -0.800000 1.370551
v 1.291501 -0.799999 0.800000
v 0.503892 -0.799999 0.830201
v 1.276055 -0.799999 0.624613
v 1.244112 -0.799999 0.451541
v 0.490880 -0.799999 0.809120
v 1.225204 -0.799999 0.383724
v 1.191724 -0.799999 0.317769
v 1.151661 -0.799999 0.257186
v 1.103669 -0.799999 0.205801
v 1.052681 -0.799999 0.157497
v 0.995239 -0.799999 0.115820
v 0.935395 -0.799999 0.080991
v 0.469799 -0.799999 0.796108
v 0.870247 -0.799999 0.058309
v 0.499432 -0.799999 0.008499
v 0.442625 -0.799999 0.791501
v 0.250000 -0.799999 0.008499
v 0.250000 -0.799999 0.791501
v 0.206855 -0.787012 0.008499
v 0.206855 -0.787012 0.791501
v 0.166512 -0.765028 0.008499
v 0.166512 -0.765027 0.791501
v 0.128090 -0.738512 0.008499
v 0.128090 -0.738512 0.791501
v 0.094064 -0.705935 0.008499
v 0.094064 -0.705935 0.791501
v 0.060808 -0.672754 0.008499
v 0.060808 -0.672754 0.791501
v 0.033388 -0.635671 0.008499
v 0.033388 -0.635671 0.791501
v 0.011911 -0.594412 0.008499
v 0.011911 -0.594412 0.791501
v 0.000000 -0.549999 0.791501
v 0.000000 -0.549999 0.008499
v 0.000000 -0.029448 0.008450
v 0.000000 -0.029448 0.791550
v 0.191550 -0.029448 0.000000
v 0.200000 -0.397390 0.008499
v 0.200000 -0.029448 0.008450
v 0.191501 -0.398110 -0.000000
v 0.008451 -0.029448 0.000000
v 0.206820 -0.437364 0.008499
v 0.008499 -0.548880 0.000000
v 0.000000 -0.029448 0.008450
v 0.000000 -0.549999 0.008499
v 0.011911 -0.594412 0.008499
v 0.198572 -0.439555 -0.000000
v 0.019879 -0.591312 0.000000
v 0.033388 -0.635671 0.008499
v 0.213001 -0.479050 0.000000
v 0.220728 -0.475432 0.008499
v 0.240011 -0.508692 0.008499
v 0.040619 -0.631155 0.000000
v 0.060808 -0.672754 0.008499
v 0.233106 -0.513726 0.000000
v 0.067263 -0.667188 0.000000
v 0.094064 -0.705935 0.008499
v 0.100067 -0.699919 0.000000
v 0.260209 -0.543744 0.000000
v 0.266132 -0.537621 0.008499
v 0.295091 -0.562074 0.008499
v 0.133476 -0.731903 0.000000
v 0.128090 -0.738512 0.008499
v 0.166512 -0.765028 0.008499
v 0.290353 -0.569196 0.000000
v 0.170972 -0.757779 0.000000
v 0.325562 -0.587211 0.000000
v 0.328983 -0.579415 0.008499
v 0.365062 -0.592755 0.008499
v 0.210148 -0.779128 0.000000
v 0.206855 -0.787012 0.008499
v 0.362768 -0.600968 0.000000
v 0.402610 -0.600000 0.008499
v 0.251252 -0.791500 0.000000
v 0.250000 -0.799999 0.008499
v 0.499432 -0.799999 0.008499
v 0.401797 -0.608499 0.000000
v 0.500000 -0.791500 0.000000
v 0.870247 -0.799999 0.058309
v 0.500000 -0.608499 0.000000
v 0.499432 -0.600000 0.008499
v 0.870247 -0.600000 0.058309
v 0.872230 -0.791500 0.050000
v 0.872230 -0.608499 0.050000
v 0.938965 -0.791500 0.073234
v 0.935395 -0.799999 0.080991
v 0.995239 -0.799999 0.115820
v 0.938965 -0.608499 0.073234
v 0.935395 -0.600000 0.080991
v 1.000230 -0.791500 0.108941
v 1.052681 -0.799999 0.157497
v 1.000230 -0.608499 0.108941
v 0.995951 -0.600000 0.116284
v 1.058123 -0.791500 0.150945
v 1.058123 -0.608499 0.150945
v 1.052681 -0.600000 0.157497
v 1.109880 -0.791500 0.200000
v 1.103669 -0.799999 0.205801
v 1.151661 -0.799999 0.257186
v 1.109880 -0.608499 0.200000
v 1.104033 -0.600000 0.206169
v 1.151661 -0.600000 0.257186
v 1.158358 -0.791500 0.251905
v 1.158358 -0.608499 0.251905
v 1.199082 -0.791500 0.313488
v 1.191724 -0.799999 0.317769
v 1.225204 -0.799999 0.383724
v 1.199082 -0.608499 0.313488
v 1.191724 -0.600000 0.317769
v 1.225204 -0.600000 0.383724
v 1.233165 -0.791500 0.380631
v 1.233165 -0.608499 0.380631
v 1.252470 -0.608499 0.450000
v 1.244282 -0.600000 0.452279
v 1.252470 -0.791500 0.450000
v 1.244112 -0.799999 0.451541
v 1.276055 -0.799999 0.624613
v 1.284521 -0.608499 0.623868
v 1.276163 -0.600000 0.625409
v 1.284521 -0.791500 0.623869
v 1.291501 -0.799999 0.800000
v 1.300000 -0.608499 0.800000
v 1.291534 -0.600000 0.800744
v 1.300000 -0.791500 0.800000
v 1.291550 -0.800000 1.370551
v 1.300000 -0.791550 1.370551
v 1.300000 -0.608450 1.370551
v 1.291550 -0.600000 1.370551
v 0.200000 -0.029448 0.791550
v 0.200000 -0.397390 0.791501
v 0.191550 -0.029448 0.800000
v 0.191501 -0.398110 0.800000
v 0.008450 -0.029448 0.800000
v 0.206820 -0.437364 0.791501
v 0.008499 -0.548879 0.800000
v 0.000000 -0.029448 0.791550
v 0.000000 -0.549999 0.791501
v 0.011911 -0.594412 0.791501
v 0.198572 -0.439555 0.800000
v 0.019879 -0.591312 0.800000
v 0.033388 -0.635671 0.791501
v 0.213001 -0.479050 0.800000
v 0.220728 -0.475432 0.791501
v 0.040619 -0.631155 0.800000
v 0.060808 -0.672754 0.791501
v 0.240011 -0.508692 0.791501
v 0.067263 -0.667188 0.800000
v 0.094064 -0.705935 0.791501
v 0.233106 -0.513726 0.800000
v 0.099942 -0.699796 0.800000
v 0.260209 -0.543744 0.800000
v 0.266132 -0.537621 0.791501
v 0.295091 -0.562074 0.791501
v 0.133476 -0.731903 0.800000
v 0.128090 -0.738512 0.791501
v 0.166512 -0.765027 0.791501
v 0.290353 -0.569196 0.800000
v 0.170972 -0.757778 0.800000
v 0.325562 -0.587211 0.800000
v 0.328983 -0.579415 0.791501
v 0.365062 -0.592754 0.791501
v 0.210148 -0.779127 0.800000
v 0.206855 -0.787012 0.791501
v 0.362768 -0.600968 0.800000
v 0.402610 -0.600000 0.791501
v 0.251252 -0.791500 0.800000
v 0.250000 -0.799999 0.791501
v 0.442625 -0.799999 0.791501
v 0.401797 -0.608499 0.800000
v 0.441910 -0.791500 0.800000
v 0.441910 -0.608499 0.800000
v 0.442625 -0.600000 0.791501
v 0.466745 -0.791500 0.804210
v 0.469799 -0.799999 0.796108
v 0.466745 -0.608499 0.804210
v 0.469799 -0.600000 0.796108
v 0.484704 -0.791500 0.815295
v 0.490880 -0.799999 0.809120
v 0.503892 -0.799999 0.830201
v 0.484705 -0.608499 0.815295
v 0.490880 -0.600000 0.809120
v 0.503892 -0.600000 0.830201
v 0.495790 -0.791500 0.833255
v 0.508499 -0.799999 0.857375
v 0.495790 -0.608499 0.833255
v 0.508499 -0.600000 0.857375
v 0.500000 -0.791500 0.858090
v 0.508450 -0.800000 1.370551
v 0.500000 -0.791549 1.370551
v 0.500000 -0.608450 1.370551
v 0.500000 -0.608499 0.858090
v 0.508450 -0.600000 1.370551
v -0.003521 -0.025927 0.006992
v -0.003521 -0.025927 0.793008
v 0.506992 -0.803521 1.374073
v 1.293008 -0.803521 1.374073
v -0.021828 -0.022406 -0.000591
v -0.021828 -0.022406 0.800591
v -0.018307 -0.025927 0.000867
v -0.018307 -0.025927 0.799133
v -0.003521 -0.025927 0.006992
v -0.003521 -0.025927 0.793008
v 0.203521 -0.025927 0.793008
v 0.203521 -0.025927 0.627775
v 0.203521 -0.029448 0.624254
v 0.203521 -0.074768 0.624254
v -0.003521 -0.025927 0.793008
v 0.006992 -0.025927 0.803521
v 0.193008 -0.025927 0.803521
v 0.203521 -0.025927 0.793008
v 0.006992 -0.025927 -0.003521
v -0.003521 -0.025927 0.006992
v 0.193008 -0.025927 -0.003521
v 0.203521 -0.025927 0.006992
v 0.203521 -0.025927 0.172225
v 0.203521 -0.025927 0.006992
v 0.203521 -0.029448 0.175746
v 0.203521 -0.074768 0.175746
v 0.506992 -0.803521 1.374073
v 1.299133 -0.818307 1.374073
v 1.293008 -0.803521 1.374073
v 0.500867 -0.818307 1.374073
v 1.300591 -0.821828 1.377594
v 0.499409 -0.821828 1.377594
v 1.293008 -0.596479 1.374073
v 1.127775 -0.596479 1.374073
v 1.124254 -0.596479 1.370551
v 1.124254 -0.596479 1.325231
v 1.293008 -0.596479 1.374073
v 1.303521 -0.606992 1.374073
v 1.303521 -0.793008 1.374073
v 1.293008 -0.803521 1.374073
v 0.496479 -0.793008 1.374073
v 0.506992 -0.803521 1.374073
v 0.496479 -0.606991 1.374073
v 0.506992 -0.596478 1.374073
v 0.672225 -0.596479 1.374073
v 0.506992 -0.596478 1.374073
v 0.675746 -0.596479 1.370551
v 0.675746 -0.596479 1.325231
v 0.245618 0.000000 0.622011
v 0.225398 -0.006002 0.624254
v 0.224206 0.000000 0.622011
v 0.247199 -0.006002 0.624254
v 0.225558 -0.025927 0.624254
v 0.247199 -0.025927 0.624254
v 0.236602 -0.043376 0.624254
v 0.203521 -0.074768 0.624254
v 0.203521 -0.029448 0.624254
v 0.222447 -0.029448 0.624254
v 0.218511 -0.025927 0.627775
v 0.203521 -0.025927 0.627775
v 0.222020 -0.022406 0.627775
v 0.203521 -0.025927 0.793008
v 0.218308 -0.025927 0.799133
v 0.221829 -0.022406 0.800591
v 0.200592 -0.022406 0.821829
v 0.199133 -0.025927 0.818307
v 0.193008 -0.025927 0.803521
v 0.006992 -0.025927 0.803521
v 0.000867 -0.025927 0.818307
v -0.003521 -0.025927 0.793008
v -0.000591 -0.022406 0.821829
v -0.018307 -0.025927 0.799133
v -0.021828 -0.022406 0.800591
v 1.122011 -0.554973 1.400000
v 1.124254 -0.574613 1.395416
v 1.122011 -0.576221 1.400000
v 1.124254 -0.552801 1.395416
v 1.124254 -0.574442 1.374073
v 1.124254 -0.552801 1.374073
v 1.124254 -0.563398 1.356624
v 1.124254 -0.596479 1.325231
v 1.124254 -0.596479 1.370551
v 1.124254 -0.577553 1.370551
v 1.127775 -0.581489 1.374073
v 1.127775 -0.596479 1.374073
v 1.127775 -0.577980 1.377594
v 1.293008 -0.596479 1.374073
v 1.299133 -0.581692 1.374073
v 1.300592 -0.578171 1.377594
v 1.318308 -0.600867 1.374073
v 1.303521 -0.606992 1.374073
v 1.321829 -0.599408 1.377594
v 1.303521 -0.793008 1.374073
v 1.318308 -0.799133 1.374073
v 1.293008 -0.803521 1.374073
v 1.321829 -0.800591 1.377594
v 1.299133 -0.818307 1.374073
v 1.300591 -0.821828 1.377594
v 0.245618 0.000000 0.177989
v 0.224206 0.000000 0.177989
v 0.225349 -0.006002 0.175746
v 0.247199 -0.006002 0.175746
v 0.247199 -0.025927 0.175746
v 0.225344 -0.025927 0.175746
v 0.236596 -0.043385 0.175746
v 0.203521 -0.029448 0.175746
v 0.203521 -0.074768 0.175746
v 0.222273 -0.029448 0.175746
v 0.218302 -0.025927 0.172225
v 0.203521 -0.025927 0.172225
v 0.221824 -0.022406 0.172225
v 0.203521 -0.025927 0.006992
v 0.218308 -0.025927 0.000868
v 0.221829 -0.022406 -0.000591
v 0.193008 -0.025927 -0.003521
v 0.200591 -0.022406 -0.021829
v 0.199133 -0.025927 -0.018307
v 0.006992 -0.025927 -0.003521
v -0.000591 -0.022406 -0.021829
v -0.003521 -0.025927 0.006992
v -0.018307 -0.025927 0.000867
v 0.000867 -0.025927 -0.018308
v -0.021828 -0.022406 -0.000591
v 0.677989 -0.554973 1.400000
v 0.677989 -0.576223 1.400000
v 0.675746 -0.574651 1.395416
v 0.675746 -0.552801 1.395416
v 0.675746 -0.552801 1.374073
v 0.675746 -0.574656 1.374073
v 0.675746 -0.563404 1.356614
v 0.675746 -0.596479 1.370551
v 0.675746 -0.596479 1.325231
v 0.675746 -0.577726 1.370551
v 0.672225 -0.581698 1.374073
v 0.672225 -0.596479 1.374073
v 0.672225 -0.578176 1.377594
v 0.506992 -0.596478 1.374073
v 0.500868 -0.581692 1.374073
v 0.499409 -0.578171 1.377594
v 0.496479 -0.606991 1.374073
v 0.478171 -0.599409 1.377594
v 0.481693 -0.600867 1.374073
v 0.496479 -0.793008 1.374073
v 0.478171 -0.800591 1.377594
v 0.481692 -0.799133 1.374073
v 0.500867 -0.818307 1.374073
v 0.506992 -0.803521 1.374073
v 0.499409 -0.821828 1.377594
v 0.225349 -0.006002 0.175746
v 0.221824 -0.022406 0.172225
v 0.225344 -0.025927 0.175746
v 0.220755 0.000000 0.174503
v 0.224206 0.000000 0.177989
v 0.221828 -0.005187 0.172225
v 0.221829 -0.022406 -0.000591
v 0.220755 0.000000 0.003415
v 0.221829 -0.005187 -0.000591
v 0.199943 0.000000 -0.017610
v 0.200592 -0.005187 -0.021829
v 0.200591 -0.022406 -0.021829
v 0.002783 0.000000 -0.017610
v -0.000591 -0.005187 -0.021829
v -0.000591 -0.022406 -0.021829
v -0.021828 -0.022406 -0.000591
v -0.021828 -0.005187 -0.000591
v -0.018029 0.000000 0.003414
v -0.021828 -0.022406 0.800591
v -0.018029 0.000000 0.796585
v -0.021828 -0.005187 0.800591
v -0.000591 -0.022406 0.821829
v 0.002783 0.000000 0.817610
v -0.000591 -0.005187 0.821829
v 0.200591 -0.005187 0.821829
v 0.200592 -0.022406 0.821829
v 0.199942 0.000000 0.817610
v 0.221829 -0.005187 0.800591
v 0.221829 -0.022406 0.800591
v 0.220755 0.000000 0.796585
v 0.222020 -0.022406 0.627775
v 0.221873 -0.005187 0.627775
v 0.220755 0.000000 0.625497
v 0.225398 -0.006002 0.624254
v 0.225558 -0.025927 0.624254
v 0.224206 0.000000 0.622011
v 0.675746 -0.574656 1.374073
v 0.675746 -0.574651 1.395416
v 0.672225 -0.578176 1.377594
v 0.674503 -0.579646 1.400000
v 0.677989 -0.576223 1.400000
v 0.672225 -0.578172 1.396039
v 0.499409 -0.578171 1.377594
v 0.503415 -0.579643 1.400000
v 0.499409 -0.578171 1.396039
v 0.482390 -0.600298 1.400000
v 0.478171 -0.599408 1.396039
v 0.478171 -0.599409 1.377594
v 0.482390 -0.795952 1.400000
v 0.478171 -0.800591 1.396039
v 0.478171 -0.800591 1.377594
v 0.503415 -0.816606 1.400000
v 0.499409 -0.821828 1.377594
v 0.499409 -0.821828 1.396039
v 1.300591 -0.821828 1.377594
v 1.300591 -0.821828 1.396039
v 1.296586 -0.816606 1.400000
v 1.321829 -0.800591 1.377594
v 1.321829 -0.800591 1.396039
v 1.317611 -0.795952 1.400000
v 1.321829 -0.599409 1.396039
v 1.321829 -0.599408 1.377594
v 1.317611 -0.600298 1.400000
v 1.300591 -0.578171 1.396039
v 1.300592 -0.578171 1.377594
v 1.296585 -0.579644 1.400000
v 1.127775 -0.577980 1.377594
v 1.127775 -0.578137 1.396039
v 1.125497 -0.579646 1.400000
v 1.124254 -0.574613 1.395416
v 1.124254 -0.574442 1.374073
v 1.122011 -0.576221 1.400000
v 0.250720 -0.006002 0.179268
v 0.245618 0.000000 0.177989
v 0.247199 -0.006002 0.175746
v 0.249069 0.000000 0.181475
v 0.247199 -0.025927 0.175746
v 0.250720 -0.006002 0.620732
v 0.249069 0.000000 0.618525
v 0.245618 0.000000 0.622011
v 0.247199 -0.006002 0.624254
v 0.250720 -0.025927 0.179268
v 0.250720 -0.025927 0.620732
v 0.247199 -0.025927 0.624254
v 0.240452 -0.044688 0.179268
v 0.236596 -0.043385 0.175746
v 0.203521 -0.074768 0.175746
v 0.240452 -0.044688 0.620732
v 0.236602 -0.043376 0.624254
v 0.203521 -0.074768 0.624254
v 0.202559 -0.080525 0.179268
v 0.200000 -0.082945 0.172225
v 0.200000 -0.086466 0.175746
v 0.200000 -0.086466 0.624254
v 0.202558 -0.080525 0.620732
v 0.200000 -0.082945 0.627775
v 0.679268 -0.549280 1.395416
v 0.677989 -0.554973 1.400000
v 0.675746 -0.552801 1.395416
v 0.681475 -0.551550 1.400000
v 0.675746 -0.552801 1.374073
v 1.120733 -0.549280 1.395416
v 1.118525 -0.551548 1.400000
v 1.122011 -0.554973 1.400000
v 1.124254 -0.552801 1.395416
v 1.124254 -0.552801 1.374073
v 0.679268 -0.549280 1.374073
v 1.120733 -0.549280 1.374073
v 0.679268 -0.559548 1.355311
v 0.675746 -0.563404 1.356614
v 0.675746 -0.596479 1.325231
v 1.120733 -0.559548 1.355311
v 1.124254 -0.563398 1.356624
v 1.124254 -0.596479 1.325231
v 0.679268 -0.597441 1.319474
v 0.672225 -0.600000 1.317055
v 0.675746 -0.600000 1.313534
v 1.124254 -0.600000 1.313534
v 1.120733 -0.597442 1.319474
v 1.127775 -0.600000 1.317055
vt 0.795410 0.440430
vt 0.795410 0.521973
vt 0.768555 0.522217
vt 0.611328 0.440430
vt 0.766602 0.523926
vt 0.766602 0.748047
vt 0.611328 0.831665
vt 0.768555 0.750000
vt 0.795410 0.831787
vt 0.795410 0.750000
vt 0.591309 0.831543
vt 0.591309 0.439941
vt 0.570801 0.831299
vt 0.570801 0.439941
vt 0.551758 0.831055
vt 0.551758 0.439941
vt 0.532227 0.830933
vt 0.532715 0.439453
vt 0.512695 0.830566
vt 0.514648 0.438965
vt 0.493408 0.830200
vt 0.496582 0.438965
vt 0.473877 0.829834
vt 0.478027 0.438477
vt 0.459717 0.437988
vt 0.454346 0.829224
vt 0.440430 0.437500
vt 0.405762 0.828247
vt 0.427490 0.434570
vt 0.220581 0.799805
vt 0.188110 0.787598
vt 0.417480 0.427734
vt 0.158081 0.769043
vt 0.130005 0.747803
vt 0.104736 0.722656
vt 0.081360 0.696533
vt 0.061920 0.665771
vt 0.045929 0.632324
vt 0.037231 0.597656
vt 0.411621 0.416992
vt 0.023346 0.510498
vt 0.017746 0.422852
vt 0.409668 0.402832
vt 0.106506 0.167969
vt 0.330811 0.172852
vt 0.104614 0.166016
vt 0.332520 0.171387
vt 0.023071 0.138672
vt 0.104858 0.139160
vt 0.414551 0.145996
vt 0.332764 0.145020
vt 0.526855 0.016113
vt 0.783203 0.407715
vt 0.526855 0.407227
vt 0.812012 0.016113
vt 0.796387 0.410156
vt 0.899902 0.023926
vt 0.986328 0.040039
vt 0.807129 0.416504
vt 1.020508 0.049805
vt 1.052734 0.066895
vt 1.083008 0.086914
vt 1.109375 0.110840
vt 1.132812 0.136230
vt 1.154297 0.165039
vt 1.170898 0.194824
vt 0.813477 0.427246
vt 1.182617 0.227539
vt 1.207031 0.413086
vt 0.815918 0.440918
vt 1.207031 0.537354
vt 0.815918 0.537109
vt 1.207031 0.559814
vt 0.815918 0.559570
vt 1.207031 0.582764
vt 0.815918 0.582520
vt 1.207031 0.605957
vt 0.815918 0.605957
vt 1.207031 0.629639
vt 0.816406 0.629639
vt 1.207031 0.653076
vt 0.816406 0.653076
vt 1.207031 0.676025
vt 0.816406 0.676025
vt 1.207031 0.699219
vt 0.816406 0.699219
vt 0.816406 0.722168
vt 1.207031 0.722168
vt 1.208008 0.982330
vt 0.816406 0.982330
vt -0.061401 0.079590
vt 0.122620 0.085938
vt -0.061157 0.085938
vt 0.123108 0.079590
vt -0.061310 -0.011719
vt 0.142456 0.088867
vt 0.198486 -0.011719
vt -0.061005 -0.018555
vt 0.199341 -0.017578
vt 0.221802 -0.011719
vt 0.143921 0.083496
vt 0.219727 -0.005859
vt 0.242798 -0.000977
vt 0.163818 0.090332
vt 0.161255 0.095703
vt 0.177856 0.105469
vt 0.239624 0.003906
vt 0.261475 0.012695
vt 0.181396 0.100586
vt 0.257568 0.017090
vt 0.278320 0.028809
vt 0.274170 0.033203
vt 0.196533 0.113770
vt 0.192261 0.118164
vt 0.204590 0.132324
vt 0.290283 0.049805
vt 0.294922 0.045898
vt 0.308594 0.065430
vt 0.209473 0.128906
vt 0.303467 0.068359
vt 0.218750 0.146484
vt 0.213379 0.148926
vt 0.220215 0.166504
vt 0.314453 0.087891
vt 0.319824 0.085449
vt 0.225952 0.165039
vt 0.223999 0.185059
vt 0.320801 0.108398
vt 0.326904 0.107422
vt 0.327148 0.232422
vt 0.229858 0.184570
vt 0.321533 0.232422
vt 0.330566 0.419922
vt 0.230103 0.233398
vt 0.223999 0.233887
vt 0.227173 0.421387
vt 0.324707 0.419922
vt 0.233154 0.421387
vt 0.325195 0.455078
vt 0.331299 0.455078
vt 0.331787 0.490234
vt 0.233765 0.456055
vt 0.227783 0.456055
vt 0.325928 0.490234
vt 0.332275 0.525879
vt 0.234253 0.491211
vt 0.228271 0.491699
vt 0.326172 0.525879
vt 0.234741 0.526611
vt 0.228760 0.526611
vt 0.326660 0.561523
vt 0.332520 0.561523
vt 0.332764 0.596924
vt 0.235107 0.562012
vt 0.229004 0.562256
vt 0.229248 0.597168
vt 0.326660 0.597168
vt 0.235229 0.597168
vt 0.326904 0.633789
vt 0.332764 0.633789
vt 0.332764 0.671143
vt 0.235229 0.633789
vt 0.229248 0.633789
vt 0.229370 0.671387
vt 0.326904 0.671143
vt 0.235352 0.671387
vt 0.235474 0.707031
vt 0.229370 0.707275
vt 0.326904 0.707031
vt 0.333008 0.706787
vt 0.333008 0.795166
vt 0.235474 0.795288
vt 0.229492 0.795532
vt 0.326904 0.795288
vt 0.333008 0.883423
vt 0.235596 0.883606
vt 0.229492 0.883789
vt 0.327148 0.883606
vt 0.333496 1.168701
vt 0.327393 1.169067
vt 0.235474 1.169067
vt 0.229370 1.168701
vt 0.363770 0.876587
vt 0.547363 0.877136
vt 0.363525 0.882751
vt 0.547852 0.883118
vt 0.363525 0.974609
vt 0.567383 0.873779
vt 0.623047 0.974701
vt 0.363770 0.980774
vt 0.624023 0.980667
vt 0.646484 0.974747
vt 0.568848 0.879639
vt 0.644531 0.969131
vt 0.667480 0.964050
vt 0.588867 0.872437
vt 0.586426 0.867065
vt 0.664551 0.958923
vt 0.686523 0.950348
vt 0.602539 0.857544
vt 0.682617 0.945740
vt 0.703613 0.933777
vt 0.606445 0.862549
vt 0.699219 0.929565
vt 0.621582 0.848999
vt 0.617188 0.844849
vt 0.629395 0.830566
vt 0.715332 0.912842
vt 0.720215 0.916626
vt 0.733887 0.897339
vt 0.634766 0.833984
vt 0.728516 0.894104
vt 0.644043 0.816406
vt 0.638184 0.813965
vt 0.645020 0.796143
vt 0.739746 0.874512
vt 0.745117 0.876892
vt 0.650879 0.797852
vt 0.648926 0.777588
vt 0.746094 0.854004
vt 0.751953 0.854980
vt 0.752441 0.758667
vt 0.654785 0.778320
vt 0.746582 0.758423
vt 0.655273 0.758057
vt 0.649414 0.758057
vt 0.746582 0.745361
vt 0.752930 0.745605
vt 0.655273 0.745117
vt 0.649414 0.745117
vt 0.747070 0.734131
vt 0.752930 0.734131
vt 0.753418 0.722900
vt 0.655273 0.733887
vt 0.649414 0.733887
vt 0.649414 0.722656
vt 0.747070 0.722900
vt 0.753418 0.709717
vt 0.655762 0.722900
vt 0.649902 0.709717
vt 0.747070 0.709717
vt 0.753418 0.453613
vt 0.747559 0.453613
vt 0.655762 0.453613
vt 0.655762 0.709717
vt 0.649414 0.453613
vt 1.208008 0.984810
vt 0.815918 0.984810
vt 0.524414 0.408203
vt 0.524414 0.015137
vt -0.667480 0.861938
vt -0.266357 0.861938
vt -0.666504 0.864258
vt -0.267334 0.864258
vt -0.663574 0.871582
vt -0.270264 0.871582
vt 0.797852 0.439941
vt 0.797363 0.522461
vt 0.795410 0.524414
vt 0.772949 0.524658
vt 0.361572 0.981796
vt 0.361084 0.974777
vt 0.361084 0.882568
vt 0.361572 0.875549
vt -0.063904 -0.012695
vt -0.063293 -0.019531
vt -0.063965 0.080078
vt -0.063416 0.086914
vt 0.797363 0.749756
vt 0.797852 0.832520
vt 0.795410 0.747803
vt 0.772461 0.747559
vt 0.018448 1.313965
vt 0.414551 1.306641
vt 0.411621 1.313965
vt 0.015457 1.306641
vt 0.415527 1.304199
vt 0.014496 1.304199
vt 0.022400 0.136230
vt 0.105225 0.136719
vt 0.107178 0.138672
vt 0.107178 0.161621
vt 0.228271 1.171021
vt 0.235352 1.171631
vt 0.327637 1.171631
vt 0.334717 1.171021
vt 0.747559 0.450684
vt 0.754395 0.451660
vt 0.655273 0.450684
vt 0.648438 0.451172
vt 0.332520 0.143066
vt 0.415283 0.143066
vt 0.330566 0.144531
vt 0.330078 0.167480
vt -0.340820 0.997047
vt -0.343750 0.986145
vt -0.340820 0.986115
vt -0.343750 0.997040
vt -0.353760 0.986244
vt -0.353760 0.997017
vt -0.362305 0.991653
vt -0.377930 0.975098
vt -0.355225 0.975082
vt -0.355469 0.984528
vt -0.352539 0.982544
vt -0.352783 0.975052
vt -0.351807 0.984825
vt -0.270020 0.975128
vt -0.266846 0.982468
vt -0.265625 0.984825
vt -0.255127 0.973633
vt -0.257568 0.972702
vt -0.264893 0.969757
vt -0.264893 0.876709
vt -0.257568 0.873657
vt -0.270264 0.871582
vt -0.255371 0.872681
vt -0.267334 0.864258
vt -0.266357 0.861938
vt 0.341553 1.439453
vt 0.339355 1.428467
vt 0.341553 1.428467
vt 0.339355 1.439453
vt 0.328613 1.428711
vt 0.328857 1.439453
vt 0.320068 1.434082
vt 0.304443 1.417480
vt 0.327148 1.417480
vt 0.327148 1.427002
vt 0.329834 1.424805
vt 0.329834 1.417480
vt 0.330566 1.427246
vt 0.412598 1.417480
vt 0.415771 1.424805
vt 0.416992 1.427246
vt 0.425049 1.415283
vt 0.417725 1.412109
vt 0.427490 1.416016
vt 0.416992 1.319092
vt 0.424316 1.316162
vt 0.411621 1.313965
vt 0.426514 1.315186
vt 0.414551 1.306641
vt 0.415527 1.304199
vt -0.595703 0.999311
vt -0.595703 0.988380
vt -0.592285 0.988388
vt -0.592285 0.999305
vt -0.582520 0.999283
vt -0.582520 0.988411
vt -0.573730 0.993916
vt -0.581055 0.977356
vt -0.558105 0.977356
vt -0.581055 0.986702
vt -0.583984 0.984741
vt -0.583496 0.977341
vt -0.584473 0.987061
vt -0.666504 0.975021
vt -0.669434 0.982285
vt -0.670898 0.984596
vt -0.671387 0.969650
vt -0.681152 0.973389
vt -0.678711 0.972488
vt -0.668945 0.876709
vt -0.678711 0.872437
vt -0.663574 0.871582
vt -0.666504 0.864258
vt -0.676270 0.873535
vt -0.667480 0.861938
vt 0.087463 1.439453
vt 0.087463 1.428467
vt 0.089783 1.428467
vt 0.089783 1.439453
vt 0.100403 1.439453
vt 0.100525 1.428467
vt 0.109009 1.434082
vt 0.101990 1.417480
vt 0.124695 1.417480
vt 0.101990 1.426758
vt 0.099182 1.424805
vt 0.099304 1.417480
vt 0.098511 1.427246
vt 0.016586 1.417480
vt 0.013390 1.424805
vt 0.012299 1.427002
vt 0.011436 1.412109
vt 0.001657 1.416016
vt 0.004025 1.415039
vt 0.013130 1.319092
vt 0.003477 1.314941
vt 0.005814 1.315918
vt 0.015457 1.306641
vt 0.018448 1.313965
vt 0.014496 1.304199
vt -0.990234 0.681396
vt -0.987793 0.689697
vt -0.990234 0.691406
vt -0.987793 0.678467
vt -0.990234 0.678467
vt -0.987793 0.681152
vt -0.901367 0.689697
vt -0.901367 0.678467
vt -0.901367 0.681152
vt -0.886230 0.678467
vt -0.886230 0.681152
vt -0.886230 0.689697
vt -0.785645 0.678711
vt -0.785645 0.681152
vt -0.785645 0.689697
vt -0.770508 0.689697
vt -0.770508 0.681152
vt -0.770508 0.678711
vt -0.370117 0.689697
vt -0.370117 0.678711
vt -0.370117 0.681152
vt -0.354980 0.689697
vt -0.354980 0.678711
vt -0.354980 0.681152
vt -0.254395 0.681152
vt -0.254395 0.689697
vt -0.254395 0.678467
vt -0.239380 0.681152
vt -0.239380 0.689697
vt -0.239380 0.678467
vt -0.152954 0.689697
vt -0.152954 0.681152
vt -0.152954 0.678467
vt -0.150513 0.681396
vt -0.150391 0.691406
vt -0.150513 0.678467
vt -0.978516 0.734863
vt -0.978516 0.724365
vt -0.976074 0.733154
vt -0.976074 0.721924
vt -0.978516 0.721924
vt -0.976074 0.723877
vt -0.889648 0.733154
vt -0.889648 0.721924
vt -0.889648 0.723877
vt -0.874512 0.721924
vt -0.874512 0.723877
vt -0.874512 0.733154
vt -0.773926 0.722168
vt -0.773926 0.724121
vt -0.773926 0.733398
vt -0.758789 0.722168
vt -0.758789 0.733398
vt -0.758789 0.724121
vt -0.358154 0.733398
vt -0.358154 0.724121
vt -0.358154 0.722168
vt -0.343262 0.733398
vt -0.343262 0.724121
vt -0.343262 0.722168
vt -0.242554 0.723877
vt -0.242554 0.733154
vt -0.242554 0.721924
vt -0.227539 0.723877
vt -0.227539 0.733154
vt -0.227539 0.721924
vt -0.141113 0.733154
vt -0.141113 0.723877
vt -0.141113 0.721924
vt -0.138672 0.724365
vt -0.138550 0.734863
vt -0.138672 0.721924
vt -0.776367 0.185059
vt -0.778809 0.187988
vt -0.778809 0.185059
vt -0.776367 0.187988
vt -0.778320 0.174805
vt -0.555176 0.185059
vt -0.555176 0.187988
vt -0.552734 0.187988
vt -0.552734 0.185059
vt -0.776367 0.175293
vt -0.555176 0.175293
vt -0.553223 0.174805
vt -0.776367 0.165039
vt -0.778809 0.164062
vt -0.778320 0.141113
vt -0.555176 0.165039
vt -0.552734 0.164062
vt -0.553223 0.141602
vt -0.775879 0.138672
vt -0.780273 0.136719
vt -0.777832 0.135254
vt -0.553223 0.135254
vt -0.555176 0.138672
vt -0.551270 0.137207
vt -0.358887 0.496094
vt -0.361328 0.498047
vt -0.361328 0.496094
vt -0.358887 0.498535
vt -0.361084 0.484863
vt -0.137939 0.496094
vt -0.137939 0.498535
vt -0.135376 0.498047
vt -0.135376 0.496094
vt -0.135620 0.484863
vt -0.358643 0.485352
vt -0.137939 0.485352
vt -0.358643 0.475098
vt -0.361328 0.474121
vt -0.361084 0.451660
vt -0.137939 0.475098
vt -0.135376 0.474609
vt -0.135620 0.451660
vt -0.358887 0.448730
vt -0.362305 0.446777
vt -0.360352 0.445801
vt -0.136230 0.445801
vt -0.137939 0.448730
vt -0.134277 0.446777
vt1 0.427490 0.557617
vt1 0.427490 0.510498
vt1 0.442871 0.510498
vt1 0.533203 0.557617
vt1 0.443848 0.509521
vt1 0.443848 0.380859
vt1 0.533203 0.333008
vt1 0.442871 0.379883
vt1 0.427490 0.333008
vt1 0.427490 0.379883
vt1 0.544434 0.333008
vt1 0.544434 0.557617
vt1 0.556152 0.333008
vt1 0.556152 0.557861
vt1 0.566895 0.333496
vt1 0.566895 0.557861
vt1 0.578613 0.333496
vt1 0.578125 0.558105
vt1 0.589355 0.333496
vt1 0.588379 0.558350
vt1 0.600586 0.333984
vt1 0.599121 0.558350
vt1 0.611816 0.333984
vt1 0.609375 0.558594
vt1 0.620117 0.559082
vt1 0.623047 0.334473
vt1 0.631348 0.559326
vt1 0.650879 0.334961
vt1 0.638672 0.560791
vt1 0.757324 0.351074
vt1 0.775879 0.358398
vt1 0.644531 0.564941
vt1 0.793457 0.369141
vt1 0.809570 0.381348
vt1 0.823730 0.395508
vt1 0.837402 0.410645
vt1 0.848633 0.428223
vt1 0.857910 0.447266
vt1 0.862793 0.467285
vt1 0.647949 0.571045
vt1 0.870605 0.517090
vt1 0.874023 0.567627
vt1 0.648926 0.579102
vt1 0.822754 0.713867
vt1 0.694336 0.710938
vt1 0.824219 0.715088
vt1 0.693359 0.711914
vt1 0.870605 0.730957
vt1 0.823730 0.730469
vt1 0.645996 0.726562
vt1 0.692871 0.727051
vt1 0.431396 0.957489
vt1 0.284180 0.732666
vt1 0.431396 0.732910
vt1 0.267578 0.957336
vt1 0.276367 0.731445
vt1 0.217285 0.952820
vt1 0.167480 0.943542
vt1 0.270508 0.727539
vt1 0.148071 0.938049
vt1 0.129150 0.928406
vt1 0.111755 0.916870
vt1 0.097046 0.903076
vt1 0.083191 0.888367
vt1 0.071289 0.871948
vt1 0.061310 0.854736
vt1 0.266602 0.721436
vt1 0.054840 0.836060
vt1 0.040680 0.729736
vt1 0.265381 0.713623
vt1 0.040710 0.658203
vt1 0.265381 0.658203
vt1 0.040680 0.645264
vt1 0.265381 0.645264
vt1 0.040649 0.632080
vt1 0.265381 0.632080
vt1 0.040619 0.618652
vt1 0.265381 0.618652
vt1 0.040558 0.605225
vt1 0.265137 0.605225
vt1 0.040527 0.591553
vt1 0.265137 0.591553
vt1 0.040497 0.578369
vt1 0.265137 0.578369
vt1 0.040466 0.564941
vt1 0.265137 0.564941
vt1 0.265137 0.551758
vt1 0.040436 0.551758
vt1 0.040405 0.402344
vt1 0.265137 0.402344
vt1 0.083252 0.265625
vt1 0.088501 0.159668
vt1 0.086792 0.265625
vt1 0.085022 0.159668
vt1 0.030518 0.264648
vt1 0.090637 0.148438
vt1 0.033234 0.115234
vt1 0.026993 0.264160
vt1 0.029831 0.114746
vt1 0.033417 0.102051
vt1 0.087280 0.147461
vt1 0.036621 0.103516
vt1 0.039764 0.090332
vt1 0.091614 0.136230
vt1 0.094727 0.137695
vt1 0.100281 0.128418
vt1 0.042664 0.091797
vt1 0.047791 0.079590
vt1 0.097473 0.126465
vt1 0.050385 0.081543
vt1 0.057434 0.069824
vt1 0.059845 0.072266
vt1 0.105347 0.117676
vt1 0.107727 0.120117
vt1 0.115967 0.113281
vt1 0.069458 0.063477
vt1 0.067322 0.060547
vt1 0.078491 0.053223
vt1 0.114075 0.110352
vt1 0.080261 0.056152
vt1 0.124207 0.105469
vt1 0.125610 0.108398
vt1 0.135864 0.104492
vt1 0.091492 0.049805
vt1 0.090210 0.046875
vt1 0.134888 0.101562
vt1 0.146484 0.102539
vt1 0.103271 0.046387
vt1 0.102722 0.042969
vt1 0.174561 0.043945
vt1 0.146118 0.099121
vt1 0.174438 0.047363
vt1 0.282227 0.043457
vt1 0.174316 0.099609
vt1 0.174316 0.103027
vt1 0.281982 0.103027
vt1 0.281982 0.046875
vt1 0.281982 0.099609
vt1 0.302246 0.046875
vt1 0.302246 0.043457
vt1 0.322510 0.043457
vt1 0.302002 0.099609
vt1 0.302002 0.103027
vt1 0.322510 0.046875
vt1 0.343018 0.043945
vt1 0.322266 0.099609
vt1 0.322266 0.103027
vt1 0.343018 0.047363
vt1 0.342529 0.099609
vt1 0.342529 0.103027
vt1 0.363525 0.047363
vt1 0.363525 0.043945
vt1 0.383789 0.043945
vt1 0.362793 0.100098
vt1 0.362793 0.103516
vt1 0.383057 0.103516
vt1 0.383789 0.047852
vt1 0.383057 0.100098
vt1 0.404785 0.047852
vt1 0.405029 0.044434
vt1 0.426514 0.044922
vt1 0.404053 0.100586
vt1 0.404053 0.104004
vt1 0.425537 0.104004
vt1 0.426270 0.048340
vt1 0.425537 0.100586
vt1 0.446045 0.101074
vt1 0.446045 0.104492
vt1 0.447021 0.048340
vt1 0.446777 0.044922
vt1 0.497559 0.045898
vt1 0.496826 0.102051
vt1 0.496826 0.105469
vt1 0.497559 0.049316
vt1 0.547852 0.046387
vt1 0.547363 0.102539
vt1 0.547363 0.105957
vt1 0.548340 0.050293
vt1 0.711914 0.049316
vt1 0.711914 0.052734
vt1 0.710938 0.105469
vt1 0.710938 0.108887
vt1 0.562988 0.735840
vt1 0.562500 0.841187
vt1 0.559082 0.735596
vt1 0.559082 0.841431
vt1 0.506348 0.735596
vt1 0.564453 0.852539
vt1 0.506348 0.884583
vt1 0.502930 0.735840
vt1 0.502930 0.885010
vt1 0.506348 0.897949
vt1 0.561035 0.853394
vt1 0.509766 0.896729
vt1 0.512695 0.910034
vt1 0.565430 0.864868
vt1 0.568359 0.863403
vt1 0.515625 0.908203
vt1 0.520508 0.920898
vt1 0.573730 0.872925
vt1 0.522949 0.918640
vt1 0.529785 0.930664
vt1 0.570801 0.874878
vt1 0.532227 0.928162
vt1 0.578613 0.883667
vt1 0.581055 0.881226
vt1 0.589355 0.888245
vt1 0.541992 0.937500
vt1 0.540039 0.940155
vt1 0.550781 0.948029
vt1 0.587402 0.891113
vt1 0.552734 0.945099
vt1 0.597168 0.896423
vt1 0.598633 0.893311
vt1 0.608887 0.897217
vt1 0.563965 0.951385
vt1 0.562500 0.954559
vt1 0.607910 0.900574
vt1 0.619629 0.899414
vt1 0.575684 0.955139
vt1 0.575195 0.958588
vt1 0.630371 0.958679
vt1 0.619141 0.902832
vt1 0.630859 0.955322
vt1 0.630859 0.902954
vt1 0.630859 0.899536
vt1 0.638184 0.955536
vt1 0.638184 0.958984
vt1 0.638184 0.903015
vt1 0.638184 0.899536
vt1 0.644531 0.955658
vt1 0.644531 0.959167
vt1 0.650879 0.959229
vt1 0.644531 0.903137
vt1 0.645020 0.899658
vt1 0.651367 0.899780
vt1 0.650879 0.955750
vt1 0.658691 0.959259
vt1 0.651367 0.903259
vt1 0.658691 0.899841
vt1 0.658691 0.955811
vt1 0.805664 0.959381
vt1 0.805664 0.955902
vt1 0.805664 0.903259
vt1 0.658691 0.903320
vt1 0.805664 0.899719
vt1 0.039978 0.401367
vt1 0.265625 0.401367
vt1 0.432861 0.732422
vt1 0.432861 0.957916
vt1 0.685059 0.770630
vt1 0.915527 0.770630
vt1 0.685547 0.771973
vt1 0.915039 0.771973
vt1 0.687500 0.776245
vt1 0.913086 0.776245
vt1 0.426270 0.557861
vt1 0.426270 0.510498
vt1 0.427246 0.509277
vt1 0.440430 0.509033
vt1 0.502441 0.734375
vt1 0.506348 0.734131
vt1 0.559570 0.734131
vt1 0.563477 0.734375
vt1 0.030396 0.266113
vt1 0.026367 0.265625
vt1 0.083313 0.267090
vt1 0.087402 0.266602
vt1 0.426270 0.379883
vt1 0.426025 0.332520
vt1 0.427490 0.381348
vt1 0.440430 0.381348
vt1 0.150146 0.245117
vt1 0.377441 0.241211
vt1 0.375732 0.245117
vt1 0.148438 0.241211
vt1 0.378174 0.239746
vt1 0.147949 0.239746
vt1 0.871094 0.732178
vt1 0.823730 0.731934
vt1 0.822754 0.730713
vt1 0.822754 0.717529
vt1 0.712402 0.109375
vt1 0.712402 0.105469
vt1 0.713379 0.052734
vt1 0.713379 0.048340
vt1 0.807129 0.955994
vt1 0.807129 0.960022
vt1 0.807129 0.903137
vt1 0.807129 0.899109
vt1 0.692871 0.728271
vt1 0.645508 0.728271
vt1 0.694336 0.727295
vt1 0.694336 0.714111
vt1 0.872559 0.848267
vt1 0.871094 0.841919
vt1 0.872559 0.841919
vt1 0.871094 0.848267
vt1 0.865234 0.842041
vt1 0.865234 0.848267
vt1 0.860352 0.845093
vt1 0.851562 0.835571
vt1 0.864258 0.835571
vt1 0.864258 0.841064
vt1 0.865723 0.839844
vt1 0.865723 0.835571
vt1 0.866211 0.841187
vt1 0.913574 0.835693
vt1 0.915039 0.839844
vt1 0.916016 0.841187
vt1 0.921875 0.834839
vt1 0.920410 0.834229
vt1 0.916504 0.832520
vt1 0.916016 0.779175
vt1 0.920410 0.777344
vt1 0.913086 0.776245
vt1 0.921875 0.776855
vt1 0.915039 0.771973
vt1 0.915527 0.770630
vt1 0.335693 0.317383
vt1 0.334229 0.311035
vt1 0.335693 0.311035
vt1 0.334229 0.317383
vt1 0.328125 0.311035
vt1 0.328125 0.317383
vt1 0.323242 0.313965
vt1 0.314209 0.304688
vt1 0.327393 0.304688
vt1 0.327393 0.310059
vt1 0.328857 0.309082
vt1 0.328857 0.304688
vt1 0.329346 0.310059
vt1 0.376465 0.304688
vt1 0.378174 0.309082
vt1 0.378906 0.310059
vt1 0.383545 0.303223
vt1 0.379395 0.301758
vt1 0.385010 0.303711
vt1 0.378906 0.248047
vt1 0.383057 0.246582
vt1 0.375732 0.245117
vt1 0.384277 0.246094
vt1 0.377441 0.241211
vt1 0.378174 0.239746
vt1 0.726562 0.849487
vt1 0.726562 0.843262
vt1 0.728027 0.843262
vt1 0.728027 0.849487
vt1 0.733887 0.849487
vt1 0.733887 0.843262
vt1 0.738770 0.846436
vt1 0.734863 0.836914
vt1 0.748047 0.836914
vt1 0.734863 0.842285
vt1 0.733398 0.841187
vt1 0.733398 0.836914
vt1 0.732910 0.842529
vt1 0.686035 0.835571
vt1 0.684082 0.839722
vt1 0.683105 0.841064
vt1 0.683105 0.832520
vt1 0.677246 0.834595
vt1 0.678711 0.834106
vt1 0.684570 0.779175
vt1 0.678711 0.776733
vt1 0.687500 0.776245
vt1 0.685547 0.771973
vt1 0.680176 0.777344
vt1 0.685059 0.770630
vt1 0.189819 0.317383
vt1 0.189819 0.311035
vt1 0.191162 0.311035
vt1 0.191162 0.317383
vt1 0.197266 0.317383
vt1 0.197266 0.311035
vt1 0.202148 0.313965
vt1 0.198120 0.304688
vt1 0.211182 0.304688
vt1 0.198120 0.310059
vt1 0.196533 0.309082
vt1 0.196533 0.304688
vt1 0.196167 0.310059
vt1 0.149048 0.304688
vt1 0.147217 0.308594
vt1 0.146606 0.310059
vt1 0.146118 0.301758
vt1 0.140503 0.303711
vt1 0.141846 0.303223
vt1 0.147095 0.248047
vt1 0.141602 0.246094
vt1 0.142944 0.246582
vt1 0.148438 0.241211
vt1 0.150146 0.245117
vt1 0.147949 0.239746
vt1 0.219604 0.166504
vt1 0.221069 0.171387
vt1 0.219604 0.172363
vt1 0.221069 0.165039
vt1 0.219604 0.165039
vt1 0.221069 0.166504
vt1 0.270508 0.171387
vt1 0.270508 0.165039
vt1 0.270508 0.166504
vt1 0.279297 0.165039
vt1 0.279297 0.166504
vt1 0.279297 0.171387
vt1 0.336914 0.165039
vt1 0.336914 0.166504
vt1 0.336914 0.171387
vt1 0.345459 0.171387
vt1 0.345459 0.166504
vt1 0.345459 0.165039
vt1 0.575195 0.171387
vt1 0.575195 0.165039
vt1 0.575195 0.166504
vt1 0.583984 0.171387
vt1 0.583984 0.165039
vt1 0.583984 0.166504
vt1 0.641602 0.166504
vt1 0.641602 0.171387
vt1 0.641602 0.165039
vt1 0.650391 0.166504
vt1 0.650391 0.171387
vt1 0.650391 0.165039
vt1 0.700195 0.171387
vt1 0.700195 0.166504
vt1 0.700195 0.165039
vt1 0.701660 0.166504
vt1 0.701660 0.172363
vt1 0.701660 0.165039
vt1 0.925781 0.114258
vt1 0.932129 0.114258
vt1 0.926758 0.115723
vt1 0.933594 0.115723
vt1 0.933594 0.114258
vt1 0.932129 0.115723
vt1 0.926758 0.165527
vt1 0.933594 0.165527
vt1 0.932129 0.165527
vt1 0.933594 0.173828
vt1 0.932129 0.173828
vt1 0.926758 0.173828
vt1 0.933105 0.231445
vt1 0.932129 0.231445
vt1 0.926758 0.231445
vt1 0.933105 0.240234
vt1 0.926758 0.240234
vt1 0.932129 0.240234
vt1 0.926758 0.470215
vt1 0.932129 0.470215
vt1 0.933105 0.470215
vt1 0.926758 0.479004
vt1 0.932129 0.479004
vt1 0.933105 0.479004
vt1 0.932129 0.536621
vt1 0.926758 0.536621
vt1 0.933594 0.536621
vt1 0.932129 0.545166
vt1 0.926758 0.545166
vt1 0.933594 0.545166
vt1 0.926758 0.594727
vt1 0.932129 0.594727
vt1 0.933594 0.594727
vt1 0.932129 0.596191
vt1 0.925781 0.596191
vt1 0.933594 0.596191
vt1 0.804688 0.116699
vt1 0.803223 0.115234
vt1 0.805176 0.115234
vt1 0.803223 0.116699
vt1 0.811035 0.115234
vt1 0.804688 0.243164
vt1 0.803223 0.243164
vt1 0.803223 0.244629
vt1 0.805176 0.244629
vt1 0.810547 0.116699
vt1 0.810547 0.243164
vt1 0.811035 0.244629
vt1 0.816406 0.116699
vt1 0.816895 0.115234
vt1 0.830078 0.115234
vt1 0.816406 0.243164
vt1 0.816895 0.244629
vt1 0.830078 0.244629
vt1 0.831543 0.116699
vt1 0.832520 0.114258
vt1 0.833496 0.115723
vt1 0.833496 0.244141
vt1 0.831543 0.243164
vt1 0.832520 0.245605
vt1 0.332764 0.546631
vt1 0.331543 0.545166
vt1 0.332764 0.545166
vt1 0.331299 0.546387
vt1 0.339111 0.545166
vt1 0.332764 0.673340
vt1 0.331299 0.673340
vt1 0.331543 0.674805
vt1 0.332764 0.674805
vt1 0.339111 0.674561
vt1 0.338623 0.546631
vt1 0.338623 0.673340
vt1 0.344727 0.546631
vt1 0.345215 0.545166
vt1 0.358154 0.545166
vt1 0.344727 0.673340
vt1 0.345215 0.674805
vt1 0.358154 0.674561
vt1 0.359619 0.546387
vt1 0.360840 0.544434
vt1 0.361572 0.545654
vt1 0.361572 0.674316
vt1 0.359619 0.673340
vt1 0.360840 0.675293
vn 1.000000 -0.015748 0.055118
vn 1.000000 -0.062992 0.015748
vn 1.000000 0.000000 0.000000
vn 1.000000 0.023622 0.015748
vn 1.000000 0.000000 0.000000
vn 1.000000 -0.007874 0.000000
vn 1.000000 0.031496 -0.023622
vn 1.000000 0.000000 0.000000
vn 1.000000 -0.015748 -0.055118
vn 1.000000 -0.062992 -0.015748
vn 0.968504 0.259842 -0.007874
vn 0.968504 0.259842 0.007874
vn 0.905512 0.425197 -0.007874
vn 0.905512 0.425197 0.007874
vn 0.811024 0.590551 -0.007874
vn 0.811024 0.590551 0.007874
vn 0.692913 0.716535 -0.007874
vn 0.692913 0.716535 0.007874
vn 0.551181 0.834646 -0.007874
vn 0.551181 0.834646 0.007874
vn 0.401575 0.913386 -0.007874
vn 0.401575 0.913386 0.007874
vn 0.267717 0.960630 -0.007874
vn 0.267717 0.960630 0.007874
vn 0.094488 0.992126 0.007874
vn 0.055118 1.000000 -0.007874
vn 0.000000 1.000000 0.007874
vn 0.000000 1.000000 -0.007874
vn 0.000000 1.000000 -0.000000
vn 0.000000 1.000000 -0.015748
vn 0.007874 1.000000 -0.007874
vn -0.007874 1.000000 0.007874
vn 0.007874 1.000000 -0.007874
vn 0.007874 1.000000 -0.007874
vn 0.007874 1.000000 -0.007874
vn 0.007874 1.000000 -0.007874
vn 0.007874 1.000000 -0.007874
vn 0.007874 1.000000 -0.007874
vn 0.007874 1.000000 -0.000000
vn -0.007874 1.000000 -0.000000
vn 0.007874 1.000000 -0.000000
vn 0.015748 1.000000 -0.000000
vn -0.015748 1.000000 -0.000000
vn 0.000000 1.000000 -0.000000
vn 0.000000 1.000000 -0.000000
vn 0.000000 1.000000 -0.000000
vn 0.000000 1.000000 -0.000000
vn 0.062992 1.000000 -0.007874
vn 0.015748 1.000000 -0.062992
vn -0.055118 1.000000 -0.007874
vn -0.015748 1.000000 -0.062992
vn 0.007874 -1.000000 -0.007874
vn -0.007874 -1.000000 0.000000
vn -0.007874 -1.000000 -0.007874
vn 0.007874 -1.000000 0.000000
vn -0.007874 -1.000000 0.000000
vn 0.007874 -1.000000 0.000000
vn 0.007874 -1.000000 0.000000
vn -0.007874 -1.000000 0.007874
vn 0.007874 -1.000000 -0.007874
vn 0.007874 -1.000000 -0.007874
vn 0.007874 -1.000000 -0.007874
vn 0.007874 -1.000000 -0.007874
vn 0.007874 -1.000000 -0.007874
vn 0.007874 -1.000000 -0.007874
vn 0.007874 -1.000000 -0.007874
vn 0.000000 -1.000000 0.000000
vn 0.000000 -1.000000 -0.015748
vn 0.000000 -1.000000 -0.007874
vn 0.000000 -1.000000 0.007874
vn -0.047244 -1.000000 -0.007874
vn -0.055118 -1.000000 0.007874
vn -0.385827 -0.921260 -0.007874
vn -0.385827 -0.921260 0.007874
vn -0.527559 -0.850394 -0.007874
vn -0.527559 -0.850394 0.007874
vn -0.629921 -0.771653 -0.007874
vn -0.629921 -0.771653 0.007874
vn -0.700787 -0.716535 -0.007874
vn -0.700787 -0.716535 0.007874
vn -0.755906 -0.653543 -0.007874
vn -0.755906 -0.653543 0.007874
vn -0.850394 -0.527559 -0.007874
vn -0.850394 -0.527559 0.007874
vn -0.929134 -0.362205 -0.007874
vn -0.929134 -0.362205 0.007874
vn -1.000000 -0.023622 0.007874
vn -1.000000 -0.023622 -0.007874
vn -1.000000 -0.007874 -0.007874
vn -1.000000 -0.007874 0.007874
vn 0.047244 -0.007874 -1.000000
vn 1.000000 0.031496 -0.023622
vn 1.000000 -0.015748 -0.055118
vn 0.023622 -0.000000 -1.000000
vn -0.055118 -0.007874 -1.000000
vn 0.968504 0.259842 -0.007874
vn -0.070866 -0.000000 -1.000000
vn -1.000000 -0.007874 -0.007874
vn -1.000000 -0.023622 -0.007874
vn -0.929134 -0.362205 -0.007874
vn 0.031496 0.007874 -1.000000
vn -0.039370 -0.015748 -1.000000
vn -0.850394 -0.527559 -0.007874
vn 0.031496 0.015748 -1.000000
vn 0.905512 0.425197 -0.007874
vn 0.811024 0.590551 -0.007874
vn -0.031496 -0.023622 -1.000000
vn -0.755906 -0.653543 -0.007874
vn 0.023622 0.015748 -1.000000
vn -0.031496 -0.023622 -1.000000
vn -0.700787 -0.716535 -0.007874
vn -0.023622 -0.023622 -1.000000
vn 0.023622 0.023622 -1.000000
vn 0.692913 0.716535 -0.007874
vn 0.551181 0.834646 -0.007874
vn -0.023622 -0.031496 -1.000000
vn -0.629921 -0.771653 -0.007874
vn -0.527559 -0.850394 -0.007874
vn 0.015748 0.023622 -1.000000
vn -0.023622 -0.031496 -1.000000
vn 0.015748 0.031496 -1.000000
vn 0.401575 0.913386 -0.007874
vn 0.267717 0.960630 -0.007874
vn -0.015748 -0.039370 -1.000000
vn -0.385827 -0.921260 -0.007874
vn 0.007874 0.031496 -1.000000
vn 0.055118 1.000000 -0.007874
vn 0.000000 -0.062992 -1.000000
vn -0.047244 -1.000000 -0.007874
vn 0.000000 -1.000000 -0.007874
vn 0.000000 0.023622 -1.000000
vn 0.086614 -0.047244 -0.992126
vn 0.000000 -1.000000 -0.015748
vn 0.102362 0.039370 -0.992126
vn 0.000000 1.000000 -0.007874
vn 0.000000 1.000000 -0.015748
vn 0.165354 -0.039370 -0.984252
vn 0.165354 0.039370 -0.984252
vn 0.417323 -0.039370 -0.905512
vn 0.007874 -1.000000 -0.007874
vn 0.007874 -1.000000 -0.007874
vn 0.417323 0.039370 -0.905512
vn 0.007874 1.000000 -0.007874
vn 0.543307 -0.039370 -0.834646
vn 0.007874 -1.000000 -0.007874
vn 0.543307 0.039370 -0.834646
vn 0.007874 1.000000 -0.007874
vn 0.637795 -0.039370 -0.771653
vn 0.637795 0.039370 -0.771653
vn 0.007874 1.000000 -0.007874
vn 0.708661 -0.039370 -0.700787
vn 0.007874 -1.000000 -0.007874
vn 0.007874 -1.000000 -0.007874
vn 0.708661 0.039370 -0.700787
vn 0.007874 1.000000 -0.007874
vn 0.007874 1.000000 -0.007874
vn 0.787402 -0.039370 -0.614173
vn 0.787402 0.039370 -0.614173
vn 0.866142 -0.039370 -0.503937
vn 0.007874 -1.000000 -0.007874
vn 0.007874 -1.000000 -0.007874
vn 0.866142 0.039370 -0.503937
vn 0.007874 1.000000 -0.007874
vn 0.007874 1.000000 -0.007874
vn 0.929134 -0.039370 -0.362205
vn 0.929134 0.039370 -0.362205
vn 0.976378 0.039370 -0.204724
vn 0.007874 1.000000 -0.000000
vn 0.976378 -0.047244 -0.204724
vn 0.007874 -1.000000 0.000000
vn 0.007874 -1.000000 0.000000
vn 0.992126 0.039370 -0.133858
vn 0.007874 1.000000 -0.000000
vn 0.992126 -0.039370 -0.133858
vn 0.007874 -1.000000 0.000000
vn 1.000000 0.039370 -0.023622
vn 0.015748 1.000000 -0.000000
vn 1.000000 -0.047244 -0.023622
vn 0.007874 -1.000000 -0.007874
vn 1.000000 -0.047244 -0.007874
vn 1.000000 0.047244 -0.007874
vn 0.062992 1.000000 -0.007874
vn 1.000000 -0.015748 0.055118
vn 1.000000 0.023622 0.015748
vn 0.047244 -0.007874 1.000000
vn 0.023622 0.000000 1.000000
vn -0.055118 -0.007874 1.000000
vn 0.968504 0.259842 0.007874
vn -0.070866 0.000000 1.000000
vn -1.000000 -0.007874 0.007874
vn -1.000000 -0.023622 0.007874
vn -0.929134 -0.362205 0.007874
vn 0.031496 0.007874 1.000000
vn -0.039370 -0.015748 1.000000
vn -0.850394 -0.527559 0.007874
vn 0.031496 0.015748 1.000000
vn 0.905512 0.425197 0.007874
vn -0.031496 -0.023622 1.000000
vn -0.755906 -0.653543 0.007874
vn 0.811024 0.590551 0.007874
vn -0.031496 -0.023622 1.000000
vn -0.700787 -0.716535 0.007874
vn 0.023622 0.015748 1.000000
vn -0.023622 -0.023622 1.000000
vn 0.023622 0.023622 1.000000
vn 0.692913 0.716535 0.007874
vn 0.551181 0.834646 0.007874
vn -0.023622 -0.031496 1.000000
vn -0.629921 -0.771653 0.007874
vn -0.527559 -0.850394 0.007874
vn 0.015748 0.023622 1.000000
vn -0.023622 -0.031496 1.000000
vn 0.015748 0.031496 1.000000
vn 0.401575 0.913386 0.007874
vn 0.267717 0.960630 0.007874
vn -0.015748 -0.039370 1.000000
vn -0.385827 -0.921260 0.007874
vn 0.007874 0.031496 1.000000
vn 0.094488 0.992126 0.007874
vn 0.000000 -0.062992 1.000000
vn -0.055118 -1.000000 0.007874
vn 0.000000 -1.000000 0.007874
vn 0.000000 0.015748 1.000000
vn -0.023622 -0.047244 1.000000
vn -0.062992 0.047244 1.000000
vn 0.000000 1.000000 0.007874
vn -0.338583 -0.047244 0.937008
vn 0.000000 -1.000000 0.000000
vn -0.338583 0.047244 0.937008
vn 0.000000 1.000000 -0.000000
vn -0.708661 -0.055118 0.708661
vn -0.007874 -1.000000 0.007874
vn -0.007874 -1.000000 0.000000
vn -0.708661 0.055118 0.708661
vn -0.007874 1.000000 0.007874
vn -0.007874 1.000000 -0.000000
vn -0.937008 -0.047244 0.338583
vn -0.007874 -1.000000 0.000000
vn -0.937008 0.047244 0.338583
vn -0.015748 1.000000 -0.000000
vn -1.000000 -0.047244 0.007874
vn -0.007874 -1.000000 -0.007874
vn -1.000000 -0.047244 -0.007874
vn -1.000000 0.047244 -0.007874
vn -1.000000 0.047244 0.007874
vn -0.055118 1.000000 -0.007874
vn -0.133858 -0.992126 0.000000
vn -0.133858 -0.992126 0.000000
vn 0.000000 -0.133858 -0.992126
vn 0.000000 -0.133858 -0.992126
vn -0.992126 -0.141732 -0.023622
vn -0.992126 -0.141732 0.023622
vn -0.267717 -0.960630 -0.007874
vn -0.259843 -0.968504 0.007874
vn -0.133858 -0.992126 0.000000
vn -0.133858 -0.992126 0.000000
vn 0.125984 -0.992126 0.007874
vn 0.181102 -0.984252 0.015748
vn 0.118110 -0.047244 0.992126
vn 0.354331 -0.141732 0.921260
vn -0.133858 -0.992126 0.000000
vn -0.007874 -0.992126 0.125984
vn 0.007874 -0.992126 0.125984
vn 0.125984 -0.992126 0.007874
vn -0.007874 -0.992126 -0.125984
vn -0.133858 -0.992126 0.000000
vn 0.007874 -0.992126 -0.125984
vn 0.125984 -0.992126 -0.007874
vn 0.188976 -0.984252 -0.015748
vn 0.125984 -0.992126 -0.007874
vn 0.118110 -0.047244 -0.992126
vn 0.354331 -0.141732 -0.921260
vn 0.000000 -0.133858 -0.992126
vn 0.007874 -0.259843 -0.968504
vn 0.000000 -0.133858 -0.992126
vn -0.007874 -0.267717 -0.960630
vn 0.023622 -0.992126 -0.133858
vn -0.023622 -0.992126 -0.133858
vn 0.007874 0.125984 -0.992126
vn 0.015748 0.181102 -0.984252
vn 0.992126 0.118110 -0.047244
vn 0.921260 0.354331 -0.141732
vn 0.007874 0.125984 -0.992126
vn 0.125984 0.007874 -0.992126
vn 0.125984 -0.007874 -0.992126
vn 0.000000 -0.133858 -0.992126
vn -0.125984 -0.007874 -0.992126
vn 0.000000 -0.133858 -0.992126
vn -0.125984 0.007874 -0.992126
vn -0.007874 0.125984 -0.992126
vn -0.015748 0.188976 -0.984252
vn -0.007874 0.125984 -0.992126
vn -0.992126 0.118110 -0.047244
vn -0.921260 0.354331 -0.141732
vn 0.118110 0.377953 0.921260
vn 0.133858 0.102362 0.984252
vn 0.133858 0.377953 0.921260
vn 0.141732 0.086614 0.984252
vn 0.070866 -0.015748 1.000000
vn 0.181102 -0.055118 0.984252
vn 0.110236 -0.102362 0.992126
vn 0.354331 -0.141732 0.921260
vn 0.118110 -0.047244 0.992126
vn 0.023622 -0.086614 0.992126
vn 0.188976 -0.984252 0.039370
vn 0.181102 -0.984252 0.015748
vn 0.984252 -0.157480 0.031496
vn 0.125984 -0.992126 0.007874
vn 0.259843 -0.968504 0.023622
vn 0.984252 -0.149606 0.110236
vn 0.094488 -0.141732 0.984252
vn 0.023622 -0.960630 0.267717
vn 0.007874 -0.992126 0.125984
vn -0.007874 -0.992126 0.125984
vn -0.023622 -0.968504 0.259843
vn -0.133858 -0.992126 0.000000
vn -0.094488 -0.141732 0.984252
vn -0.259843 -0.968504 0.007874
vn -0.992126 -0.141732 0.023622
vn 0.015748 0.055118 1.000000
vn 0.952756 0.110236 0.267716
vn 0.007874 0.078740 1.000000
vn 0.795276 0.141732 0.582677
vn 1.000000 0.070866 -0.015748
vn 0.984252 0.173228 -0.047244
vn 0.992126 0.110236 -0.102362
vn 0.921260 0.354331 -0.141732
vn 0.992126 0.118110 -0.047244
vn 0.992126 0.023622 -0.086614
vn 0.039370 0.188976 -0.984252
vn 0.015748 0.181102 -0.984252
vn 0.031496 0.992126 -0.149606
vn 0.007874 0.125984 -0.992126
vn 0.023622 0.259842 -0.968504
vn 0.110236 0.984252 -0.133858
vn 0.267717 0.023622 -0.960630
vn 0.125984 0.007874 -0.992126
vn 0.984252 0.094488 -0.133858
vn 0.125984 -0.007874 -0.992126
vn 0.259843 -0.023622 -0.968504
vn 0.000000 -0.133858 -0.992126
vn 0.984252 -0.094488 -0.133858
vn 0.007874 -0.259843 -0.968504
vn 0.023622 -0.992126 -0.133858
vn 0.118110 0.377953 -0.921260
vn 0.133858 0.370079 -0.921260
vn 0.133858 0.094488 -0.984252
vn 0.141732 0.086614 -0.984252
vn 0.181102 -0.055118 -0.984252
vn 0.070866 -0.015748 -1.000000
vn 0.110236 -0.102362 -0.992126
vn 0.118110 -0.047244 -0.992126
vn 0.354331 -0.141732 -0.921260
vn 0.023622 -0.086614 -0.992126
vn 0.188976 -0.984252 -0.039370
vn 0.188976 -0.984252 -0.015748
vn 0.984252 -0.165354 -0.031496
vn 0.125984 -0.992126 -0.007874
vn 0.259843 -0.968504 -0.031496
vn 0.984252 -0.149606 -0.110236
vn 0.007874 -0.992126 -0.125984
vn 0.094488 -0.141732 -0.984252
vn 0.023622 -0.968504 -0.259842
vn -0.007874 -0.992126 -0.125984
vn -0.094488 -0.141732 -0.984252
vn -0.133858 -0.992126 0.000000
vn -0.267717 -0.960630 -0.007874
vn -0.023622 -0.960630 -0.267716
vn -0.992126 -0.141732 -0.023622
vn -0.023622 0.055118 1.000000
vn 0.000000 0.078740 1.000000
vn -0.960630 0.110236 0.267716
vn -0.787402 0.133858 0.598425
vn -0.984252 0.173228 -0.047244
vn -1.000000 0.070866 -0.015748
vn -0.992126 0.110236 -0.102362
vn -0.992126 0.118110 -0.047244
vn -0.921260 0.354331 -0.141732
vn -0.992126 0.023622 -0.086614
vn -0.039370 0.188976 -0.984252
vn -0.015748 0.188976 -0.984252
vn -0.031496 0.984252 -0.157480
vn -0.007874 0.125984 -0.992126
vn -0.031496 0.259842 -0.968504
vn -0.110236 0.984252 -0.141732
vn -0.125984 0.007874 -0.992126
vn -0.984252 0.094488 -0.133858
vn -0.259843 0.023622 -0.968504
vn -0.125984 -0.007874 -0.992126
vn -0.984252 -0.094488 -0.133858
vn -0.267717 -0.023622 -0.960630
vn -0.007874 -0.267717 -0.960630
vn 0.000000 -0.133858 -0.992126
vn -0.023622 -0.992126 -0.133858
vn 0.133858 0.094488 -0.984252
vn 0.984252 -0.165354 -0.031496
vn 0.070866 -0.015748 -1.000000
vn 0.976378 0.212598 -0.031496
vn 0.133858 0.370079 -0.921260
vn 1.000000 0.055118 -0.015748
vn 0.984252 -0.149606 -0.110236
vn 0.968504 0.244094 -0.062992
vn 0.992126 0.062992 -0.125984
vn 0.086614 0.637795 -0.771653
vn 0.086614 0.173228 -0.984252
vn 0.094488 -0.141732 -0.984252
vn -0.062992 0.653543 -0.755905
vn -0.102362 0.157480 -0.984252
vn -0.094488 -0.141732 -0.984252
vn -0.992126 -0.141732 -0.023622
vn -0.992126 0.125984 -0.031496
vn -0.803150 0.598425 -0.015748
vn -0.992126 -0.141732 0.023622
vn -0.803150 0.598425 0.015748
vn -0.992126 0.125984 0.031496
vn -0.094488 -0.141732 0.984252
vn -0.062992 0.653543 0.755905
vn -0.102362 0.157480 0.984252
vn 0.086614 0.173228 0.984252
vn 0.094488 -0.141732 0.984252
vn 0.086614 0.637795 0.771653
vn 0.992126 0.062992 0.125984
vn 0.984252 -0.149606 0.110236
vn 0.968504 0.251968 0.062992
vn 0.984252 -0.157480 0.031496
vn 1.000000 0.062992 0.015748
vn 0.976378 0.220472 0.031496
vn 0.133858 0.102362 0.984252
vn 0.070866 -0.015748 1.000000
vn 0.133858 0.377953 0.921260
vn -1.000000 0.070866 -0.015748
vn -0.960630 0.110236 0.267716
vn -0.031496 0.984252 -0.157480
vn 0.000000 0.078740 1.000000
vn 0.000000 0.078740 1.000000
vn 0.000000 0.385827 0.921260
vn -0.110236 0.984252 -0.141732
vn 0.000000 0.078740 1.000000
vn -0.039370 0.417323 0.905512
vn -0.543307 0.031496 0.842520
vn -0.929134 0.110236 0.354331
vn -0.984252 0.094488 -0.133858
vn -0.007874 -0.023622 1.000000
vn -0.622047 -0.078740 0.779527
vn -0.984252 -0.094488 -0.133858
vn 0.000000 -0.023622 1.000000
vn -0.023622 -0.992126 -0.133858
vn 0.000000 -0.125984 0.992126
vn 0.023622 -0.992126 -0.133858
vn 0.000000 -0.118110 0.992126
vn 0.000000 -0.023622 1.000000
vn 0.984252 -0.094488 -0.133858
vn 0.574803 -0.070866 0.811023
vn 0.283465 -0.015748 0.960630
vn 0.929134 0.110236 0.346457
vn 0.984252 0.094488 -0.133858
vn 0.039370 0.118110 0.992126
vn 0.039370 0.417323 0.905512
vn 0.110236 0.984252 -0.133858
vn 0.000000 0.078740 1.000000
vn 0.031496 0.992126 -0.149606
vn 0.000000 0.385827 0.921260
vn 0.000000 0.078740 1.000000
vn 0.952756 0.110236 0.267716
vn 1.000000 0.070866 -0.015748
vn 0.007874 0.078740 1.000000
vn 1.000000 0.055118 -0.007874
vn 0.118110 0.377953 -0.921260
vn 0.141732 0.086614 -0.984252
vn 0.960630 0.267716 -0.007874
vn 0.181102 -0.055118 -0.984252
vn 1.000000 0.055118 0.007874
vn 0.960630 0.267716 0.007874
vn 0.118110 0.377953 0.921260
vn 0.141732 0.086614 0.984252
vn 0.968504 -0.259842 -0.007874
vn 0.968504 -0.259842 0.007874
vn 0.181102 -0.055118 0.984252
vn 0.748031 -0.661417 -0.007874
vn 0.110236 -0.102362 -0.992126
vn 0.354331 -0.141732 -0.921260
vn 0.748031 -0.661417 0.007874
vn 0.110236 -0.102362 0.992126
vn 0.354331 -0.141732 0.921260
vn 0.724409 -0.685039 -0.007874
vn 1.000000 0.000000 0.000000
vn 1.000000 -0.007874 0.000000
vn 1.000000 0.000000 0.000000
vn 0.724409 -0.685039 0.007874
vn 1.000000 0.000000 0.000000
vn 0.000000 0.307087 0.952756
vn -0.023622 0.055118 1.000000
vn -0.787402 0.133858 0.598425
vn 0.000000 0.055118 1.000000
vn -0.984252 0.173228 -0.047244
vn 0.000000 0.314961 0.952756
vn 0.000000 0.055118 1.000000
vn 0.015748 0.055118 1.000000
vn 0.795276 0.141732 0.582677
vn 0.984252 0.173228 -0.047244
vn -0.007874 0.968504 -0.244095
vn 0.007874 0.968504 -0.244095
vn -0.007874 0.748031 -0.661417
vn -0.992126 0.110236 -0.102362
vn -0.921260 0.354331 -0.141732
vn 0.007874 0.748031 -0.661417
vn 0.992126 0.110236 -0.102362
vn 0.921260 0.354331 -0.141732
vn -0.007874 0.724409 -0.685039
vn 0.000000 1.000000 -0.000000
vn 0.000000 1.000000 -0.000000
vn 0.000000 1.000000 -0.000000
vn 0.007874 0.724409 -0.685039
vn 0.000000 1.000000 -0.000000
tan -0.054994 0.008742 1.000248 1.000000
tan -0.020088 -0.069874 0.996094 1.000000
tan 0.000000 0.000000 1.000000 1.000000
tan -0.015562 -0.008246 1.000558 1.000000
tan 0.000000 0.000000 1.000000 1.000000
tan 0.000000 0.000000 1.000062 1.000000
tan 0.023622 0.000744 1.000992 1.000000
tan 0.000000 0.000000 1.000000 1.000000
tan 0.054746 -0.024490 1.000248 1.000000
tan 0.019592 0.062000 0.996094 1.000000
tan 0.009672 -0.005580 1.005518 1.000000
tan -0.005580 -0.009672 1.005518 1.000000
tan 0.010478 -0.003782 1.000744 1.000000
tan -0.003782 -0.010478 1.000744 1.000000
tan 0.011036 -0.001736 1.006510 1.000000
tan -0.001736 -0.011036 1.006510 1.000000
tan 0.016740 -0.005270 0.993552 1.000000
tan 0.005828 -0.016554 0.993552 1.000000
tan 0.017484 -0.002108 1.000434 1.000000
tan 0.008804 -0.015252 1.000434 1.000000
tan 0.024738 -0.002294 0.995536 1.000000
tan 0.018414 -0.016678 0.995536 1.000000
tan 0.024800 0.001240 0.994482 1.000000
tan 0.020584 -0.013888 0.994482 1.000000
tan 0.022692 -0.010044 0.993242 1.000000
tan 0.024056 0.006572 1.003038 1.000000
tan 0.031496 -0.007874 1.000000 1.000000
tan 0.023622 0.007874 1.000000 1.000000
tan 0.031496 0.000000 1.000000 1.000000
tan 0.023622 0.015748 1.000000 1.000000
tan 0.023684 0.007688 1.000062 1.000000
tan 0.031558 -0.007626 1.000062 1.000000
tan 0.023684 0.007688 1.000062 1.000000
tan 0.023684 0.007688 1.000062 1.000000
tan 0.023684 0.007688 1.000062 1.000000
tan 0.023684 0.007688 1.000062 1.000000
tan 0.023684 0.007688 1.000062 1.000000
tan 0.023684 0.007688 1.000062 1.000000
tan 0.023622 -0.000186 1.000062 1.000000
tan 0.023622 0.000186 1.000062 1.000000
tan 0.023622 -0.000186 1.000062 1.000000
tan 0.023622 -0.000372 1.000248 1.000000
tan 0.023622 0.000372 1.000248 1.000000
tan 0.086614 0.000000 1.000000 1.000000
tan 0.062992 0.000000 1.000000 1.000000
tan 0.031496 0.000000 1.000000 1.000000
tan 0.031496 0.000000 1.000000 1.000000
tan 0.008370 0.007378 1.003968 1.000000
tan -0.022630 0.063364 1.000248 1.000000
tan 0.007440 0.008308 1.003038 1.000000
tan 0.085622 0.064356 1.000248 1.000000
tan 1.000062 0.007812 0.007936 1.000000
tan 1.000000 -0.007874 0.000000 1.000000
tan 1.000062 -0.007874 -0.000062 1.000000
tan 1.000000 0.007874 -0.000000 1.000000
tan 1.000000 -0.007874 0.007874 1.000000
tan 1.000000 0.007874 -0.000000 1.000000
tan 1.000000 0.007874 -0.000000 1.000000
tan 1.000062 -0.007812 0.007936 1.000000
tan 1.000062 0.007874 0.000062 1.000000
tan 1.000062 0.007874 0.000062 1.000000
tan 1.000062 0.007874 0.000062 1.000000
tan 1.000062 0.007874 0.000062 1.000000
tan 1.000062 0.007874 0.000062 1.000000
tan 1.000062 0.007874 0.000062 1.000000
tan 1.000062 0.007874 0.000062 1.000000
tan 1.000000 0.000000 0.000000 1.000000
tan 1.000248 0.000000 0.000000 1.000000
tan 1.000062 0.000000 0.000000 1.000000
tan 1.000062 0.000000 0.000000 1.000000
tan 1.000062 -0.047244 -0.000372 1.000000
tan 1.000062 -0.055118 0.000434 1.000000
tan 0.921322 -0.385889 0.004216 1.000000
tan 0.921322 -0.385827 0.003038 1.000000
tan 0.850456 -0.527621 0.002542 1.000000
tan 0.850456 -0.527621 -0.002542 1.000000
tan 0.771716 -0.629983 0.001116 1.000000
tan 0.771716 -0.629983 -0.001116 1.000000
tan 0.716597 -0.700849 0.000124 1.000000
tan 0.716597 -0.700849 -0.000124 1.000000
tan 0.653605 -0.755967 -0.000806 1.000000
tan 0.653605 -0.755967 0.000806 1.000000
tan 0.527621 -0.850456 -0.002542 1.000000
tan 0.527621 -0.850456 0.002542 1.000000
tan 0.362205 -0.929196 0.002852 1.000000
tan 0.362205 -0.929196 -0.002852 1.000000
tan 0.023622 -1.000062 -0.000186 1.000000
tan 0.023622 -1.000062 0.000186 1.000000
tan 0.007874 -1.000062 0.000062 1.000000
tan 0.007874 -1.000062 -0.000062 1.000000
tan -0.992188 0.141360 -0.047988 1.000000
tan -0.025358 0.054374 -1.000992 1.000000
tan -0.057350 -0.307521 -0.952632 1.000000
tan -1.000000 -0.007874 -0.023622 1.000000
tan -0.992126 -0.125984 0.055676 1.000000
tan -0.054560 0.173414 -0.988220 1.000000
tan -1.000000 -0.015748 0.070866 1.000000
tan -0.009920 0.307025 0.952818 1.000000
tan -0.010044 0.094302 0.992684 1.000000
tan -0.101184 0.238701 0.959514 1.000000
tan -1.000062 -0.031248 -0.031744 1.000000
tan -1.000248 -0.054498 0.040238 1.000000
tan -0.217992 0.337715 0.916300 1.000000
tan -1.000248 -0.054622 -0.032364 1.000000
tan -0.137392 0.274908 -0.955050 1.000000
tan -0.275405 0.366297 -0.894414 1.000000
tan -1.000372 -0.070370 0.033170 1.000000
tan -0.344783 0.388431 0.859384 1.000000
tan -1.000248 -0.070494 -0.024738 1.000000
tan -1.000558 -0.085870 0.033542 1.000000
tan -0.422035 0.403807 0.814681 1.000000
tan -0.992684 -0.086056 0.025482 1.000000
tan -1.000558 -0.086056 -0.025668 1.000000
tan -0.421973 0.399157 -0.810342 1.000000
tan -0.607725 0.394755 -0.696757 1.000000
tan -0.993118 -0.085870 0.026164 1.000000
tan -0.508091 0.407093 0.752185 1.000000
tan -0.638911 0.390229 0.662347 1.000000
tan -1.000558 -0.078368 -0.017608 1.000000
tan -0.993118 -0.085870 0.026164 1.000000
tan -1.000992 -0.078244 -0.018228 1.000000
tan -0.771344 0.334491 -0.537603 1.000000
tan -0.885858 0.243722 -0.385021 1.000000
tan -1.001550 -0.078120 0.018848 1.000000
tan -0.792300 0.327423 0.514229 1.000000
tan -1.000992 -0.054870 -0.009610 1.000000
tan -0.992250 0.053692 -0.126852 1.000000
tan -1.003968 -0.047244 0.002976 1.000000
tan -0.992250 0.045880 0.126728 1.000000
tan -1.000062 0.000434 -0.055118 1.000000
tan -1.000558 -0.031496 -0.000744 1.000000
tan -0.994358 -0.019716 -0.085870 1.000000
tan -0.976626 0.003596 -0.228346 1.000000
tan -0.993676 0.004030 -0.102362 1.000000
tan -0.992188 -0.000682 -0.086614 1.000000
tan -0.968752 -0.003968 -0.251968 1.000000
tan -0.985802 0.024490 -0.166594 1.000000
tan -0.985492 -0.049042 -0.167524 1.000000
tan -0.907372 -0.019716 -0.417323 1.000000
tan -0.913448 -0.004030 -0.401637 1.000000
tan -0.850456 -0.002542 -0.527621 1.000000
tan -0.906752 -0.008246 -0.418253 1.000000
tan -0.897700 0.003658 -0.433133 1.000000
tan -0.836196 -0.008246 -0.543927 1.000000
tan -0.779590 -0.001178 -0.629983 1.000000
tan -0.835886 -0.009176 -0.544547 1.000000
tan -0.826834 0.002108 -0.559117 1.000000
tan -0.773204 -0.012958 -0.638415 1.000000
tan -0.772894 -0.004216 -0.639035 1.000000
tan -0.763842 0.000868 -0.653605 1.000000
tan -0.702337 -0.011346 -0.709591 1.000000
tan -0.716597 -0.000124 -0.700849 1.000000
tan -0.629983 0.001178 -0.779589 1.000000
tan -0.701717 -0.010850 -0.710211 1.000000
tan -0.692975 -0.000248 -0.724471 1.000000
tan -0.606361 -0.001488 -0.795337 1.000000
tan -0.615413 -0.005456 -0.788641 1.000000
tan -0.615103 -0.005580 -0.788951 1.000000
tan -0.504867 -0.000620 -0.867692 1.000000
tan -0.503999 0.002790 -0.858330 1.000000
tan -0.370141 0.004402 -0.929196 1.000000
tan -0.504557 -0.006200 -0.867692 1.000000
tan -0.496125 -0.002914 -0.866204 1.000000
tan -0.362267 -0.004464 -0.929196 1.000000
tan -0.362825 -0.000372 -0.930684 1.000000
tan -0.362825 0.000372 -0.930684 1.000000
tan -0.205654 0.015004 -0.977928 1.000000
tan -0.228346 0.001798 -0.976502 1.000000
tan -0.205840 -0.015004 -0.978238 1.000000
tan -0.228346 -0.001798 -0.976440 1.000000
tan -0.141732 -0.001116 -0.992188 1.000000
tan -0.134168 0.002542 -0.993676 1.000000
tan -0.133858 0.001054 -0.992188 1.000000
tan -0.134168 -0.002542 -0.993676 1.000000
tan -0.055118 -0.000434 -1.000062 1.000000
tan -0.024242 0.014818 -1.001550 1.000000
tan -0.055118 0.000868 -1.000248 1.000000
tan -0.024366 -0.014632 -1.002232 1.000000
tan -0.070928 0.007316 -1.000062 1.000000
tan -0.008990 -0.023250 -1.002232 1.000000
tan -0.008990 0.023250 -1.002232 1.000000
tan -0.071362 -0.003348 -0.996094 1.000000
tan 0.057350 0.307520 -0.952632 1.000000
tan 0.017050 -0.054746 -1.000558 1.000000
tan 0.992188 -0.141360 -0.047988 1.000000
tan 1.000000 0.015748 -0.023622 1.000000
tan 0.992126 0.133858 0.055738 1.000000
tan 0.054560 -0.173414 -0.988220 1.000000
tan 1.000000 0.015748 0.070866 1.000000
tan 0.009920 -0.307024 0.952818 1.000000
tan 0.010044 -0.094302 0.992684 1.000000
tan 0.101184 -0.238700 0.959514 1.000000
tan 1.000062 0.031248 -0.031744 1.000000
tan 1.000248 0.054498 0.040238 1.000000
tan 0.217992 -0.337715 0.916300 1.000000
tan 1.000248 0.054622 -0.032364 1.000000
tan 0.137392 -0.274909 -0.955050 1.000000
tan 1.000372 0.070370 0.033170 1.000000
tan 0.344783 -0.388493 0.854238 1.000000
tan 0.275405 -0.366297 -0.894414 1.000000
tan 1.000558 0.085870 0.033542 1.000000
tan 0.422035 -0.403807 0.814682 1.000000
tan 1.000248 0.070494 -0.024738 1.000000
tan 1.000558 0.086056 0.025668 1.000000
tan 1.000558 0.078182 -0.025482 1.000000
tan 0.421973 -0.399157 -0.810341 1.000000
tan 0.607663 -0.394817 -0.685845 1.000000
tan 1.000992 0.077996 0.026102 1.000000
tan 0.514167 -0.412053 0.752185 1.000000
tan 0.645607 -0.394383 0.662347 1.000000
tan 1.000558 0.078368 -0.017608 1.000000
tan 1.000992 0.077996 0.026102 1.000000
tan 1.000992 0.070370 -0.017980 1.000000
tan 0.771344 -0.334491 -0.537603 1.000000
tan 0.885858 -0.243784 -0.377457 1.000000
tan 1.001550 0.070246 0.018538 1.000000
tan 0.792300 -0.327485 0.506975 1.000000
tan 1.000992 0.046996 -0.009362 1.000000
tan 0.984500 -0.092690 -0.135036 1.000000
tan 1.003968 0.047244 0.002976 1.000000
tan 0.992250 -0.053568 0.142600 1.000000
tan 0.984314 0.001302 0.165354 1.000000
tan 1.000248 0.023622 -0.000372 1.000000
tan 1.002232 0.054002 0.026226 1.000000
tan 1.002232 -0.004898 0.063364 1.000000
tan 0.992188 -0.000930 0.118110 1.000000
tan 0.938868 0.023560 0.340443 1.000000
tan 0.889764 0.000000 0.448819 1.000000
tan 0.939240 0.001240 0.339327 1.000000
tan 0.913386 0.000000 0.401575 1.000000
tan 0.710397 0.011160 0.711265 1.000000
tan 0.685101 0.000310 0.724471 1.000000
tan 0.401575 -0.003162 0.913448 1.000000
tan 0.711265 0.011160 0.710397 1.000000
tan 0.724471 0.000310 0.685101 1.000000
tan 0.440945 0.003472 0.897700 1.000000
tan 0.339327 0.001240 0.939240 1.000000
tan 0.118110 -0.000930 0.992188 1.000000
tan 0.340071 0.016182 0.938868 1.000000
tan 0.141732 0.002232 0.992374 1.000000
tan 0.009734 -0.038998 1.002232 1.000000
tan -0.070928 -0.007316 1.000062 1.000000
tan -0.008618 0.015376 1.002232 1.000000
tan -0.008618 -0.015376 1.002232 1.000000
tan 0.010106 0.046872 1.002232 1.000000
tan -0.063488 0.004402 1.003472 1.000000
tan 0.992126 -0.133858 0.000000 1.000000
tan 0.992126 -0.133858 0.000000 1.000000
tan 1.002232 -0.007812 0.001054 1.000000
tan 1.002232 -0.007812 0.001054 1.000000
tan -0.142848 0.952694 0.283464 1.000000
tan -0.143034 0.952694 -0.291277 1.000000
tan -0.960630 0.267902 -0.022692 1.000000
tan -0.968566 0.259904 0.005580 1.000000
tan -0.992126 0.133858 -0.007812 1.000000
tan -0.992126 0.133858 0.007812 1.000000
tan -0.040052 0.002852 1.000186 1.000000
tan -0.165726 -0.014694 0.987476 1.000000
tan -0.937814 0.319363 0.126852 1.000000
tan -0.931862 0.006138 0.359353 1.000000
tan 0.773390 -0.104346 0.628743 1.000000
tan 0.952322 0.032240 0.313411 1.000000
tan 0.952322 -0.031248 -0.305599 1.000000
tan 0.774072 0.093310 -0.628061 1.000000
tan -0.952322 -0.031248 0.305599 1.000000
tan -0.773390 0.104346 0.620931 1.000000
tan -0.952322 0.032240 -0.313411 1.000000
tan -0.774010 -0.093310 -0.627069 1.000000
tan 0.157976 0.014508 0.988964 1.000000
tan 0.024428 -0.004836 1.000186 1.000000
tan 0.937442 -0.320293 0.126852 1.000000
tan 0.931862 -0.006138 0.359353 1.000000
tan -0.007812 -0.992126 0.133858 1.000000
tan 0.005580 -0.968566 0.259905 1.000000
tan 0.007812 -0.992126 0.133858 1.000000
tan -0.007564 -0.960630 0.267779 1.000000
tan -0.291153 -0.134416 0.944882 1.000000
tan 0.291153 -0.135470 0.952694 1.000000
tan -0.000992 0.992188 0.125984 1.000000
tan 0.324881 0.929382 0.176204 1.000000
tan 0.029760 0.146568 0.991382 1.000000
tan 0.073656 0.198648 0.975386 1.000000
tan -0.737429 -0.671151 -0.091078 1.000000
tan -0.929320 -0.340877 -0.120714 1.000000
tan -0.929320 0.340877 -0.120714 1.000000
tan -0.739165 0.671833 -0.090644 1.000000
tan -0.929320 -0.356501 0.120838 1.000000
tan -0.746978 -0.656209 0.088536 1.000000
tan -0.929320 0.356501 0.120838 1.000000
tan -0.745241 0.663339 0.090148 1.000000
tan -0.286441 0.944882 0.186000 1.000000
tan 0.000992 0.992188 0.125984 1.000000
tan -0.014694 0.263749 0.967946 1.000000
tan -0.109368 0.110484 0.987104 1.000000
tan -0.969434 -0.170376 0.194184 1.000000
tan -0.985368 -0.073656 0.141670 1.000000
tan -0.979664 -0.113212 0.188790 1.000000
tan -0.982640 -0.090706 0.149482 1.000000
tan -1.000248 -0.064108 0.069874 1.000000
tan -0.987290 -0.002232 0.181536 1.000000
tan -0.994792 -0.003472 0.110174 1.000000
tan -0.932978 -0.003906 0.358237 1.000000
tan -0.994358 -0.052452 0.115878 1.000000
tan -0.991816 -0.025482 0.021390 1.000000
tan -0.978362 -0.184698 0.078678 1.000000
tan -0.977122 -0.178188 0.100130 1.000000
tan -0.158720 -0.921508 0.352471 1.000000
tan -0.992188 -0.125922 0.008804 1.000000
tan -0.969062 -0.259842 0.006138 1.000000
tan -0.175522 -0.944696 0.285077 1.000000
tan -0.975572 -0.193130 0.065844 1.000000
tan -0.994482 -0.033232 -0.031496 1.000000
tan -1.000186 -0.005828 0.016616 1.000000
tan -1.000186 0.008804 0.006820 1.000000
tan -0.997892 0.039060 0.054870 1.000000
tan -0.992126 0.133858 0.007812 1.000000
tan -0.968938 0.240374 -0.058404 1.000000
tan -0.968566 0.259904 0.005580 1.000000
tan -0.143034 0.952694 -0.291277 1.000000
tan 0.719573 -0.693781 0.026908 1.000000
tan 0.151404 -0.975200 -0.137268 1.000000
tan 0.642135 -0.764213 0.055118 1.000000
tan 0.246884 -0.959886 -0.103478 1.000000
tan 0.069874 -1.000248 -0.064108 1.000000
tan 0.173228 -0.986484 -0.008184 1.000000
tan 0.110174 -0.994792 -0.003472 1.000000
tan 0.358237 -0.932978 -0.003906 1.000000
tan 0.116250 -0.994358 -0.044640 1.000000
tan 0.021390 -0.991816 -0.025482 1.000000
tan 0.078678 -0.986112 -0.186186 1.000000
tan 0.100130 -0.977122 -0.178188 1.000000
tan 0.347263 -0.151094 -0.928886 1.000000
tan 0.008804 -0.992188 -0.125922 1.000000
tan -0.009114 -0.969062 -0.260214 1.000000
tan 0.278319 -0.159650 -0.944696 1.000000
tan -0.031682 -0.992374 -0.033232 1.000000
tan 0.008804 -1.000186 -0.006820 1.000000
tan 0.069068 -0.981028 -0.184636 1.000000
tan 0.006820 -1.000186 0.008804 1.000000
tan 0.054870 -0.997892 0.039060 1.000000
tan 0.007812 -0.992126 0.133858 1.000000
tan -0.061256 -0.966582 0.231881 1.000000
tan 0.005580 -0.968566 0.259905 1.000000
tan -0.291153 -0.134416 0.944882 1.000000
tan -0.969434 -0.170376 -0.194184 1.000000
tan -0.976936 -0.113212 -0.187426 1.000000
tan -0.984686 -0.073656 -0.140988 1.000000
tan -0.982640 -0.090706 -0.149482 1.000000
tan -0.987290 -0.002232 -0.181536 1.000000
tan -1.000248 -0.064108 -0.069874 1.000000
tan -0.994792 -0.003472 -0.110174 1.000000
tan -0.994358 -0.052452 -0.115878 1.000000
tan -0.932978 -0.003906 -0.358237 1.000000
tan -0.991816 -0.025482 -0.021390 1.000000
tan -0.978672 -0.184388 -0.087916 1.000000
tan -0.977122 -0.185876 -0.108190 1.000000
tan -0.165044 -0.913510 -0.361709 1.000000
tan -0.992188 -0.125798 -0.024428 1.000000
tan -0.969496 -0.259346 -0.023436 1.000000
tan -0.176390 -0.943828 -0.294004 1.000000
tan -1.000186 -0.003844 -0.032240 1.000000
tan -0.983322 -0.185380 -0.067704 1.000000
tan -1.005518 -0.029016 0.016740 1.000000
tan -1.000186 0.010788 -0.022444 1.000000
tan -0.968938 0.240374 0.058404 1.000000
tan -0.992126 0.133858 -0.007812 1.000000
tan -0.960630 0.267902 -0.022692 1.000000
tan -0.992374 0.043772 -0.069502 1.000000
tan -0.142848 0.952694 0.283464 1.000000
tan -0.719573 -0.694215 0.021266 1.000000
tan -0.649389 -0.763779 0.060140 1.000000
tan -0.151404 -0.980594 -0.139500 1.000000
tan -0.247814 -0.965466 -0.110112 1.000000
tan -0.173600 -0.986484 -0.000434 1.000000
tan -0.069874 -1.000248 -0.064108 1.000000
tan -0.110174 -0.994792 -0.003472 1.000000
tan -0.115878 -0.994358 -0.052452 1.000000
tan -0.358237 -0.932978 -0.003906 1.000000
tan -0.021390 -0.991816 -0.025482 1.000000
tan -0.070928 -0.986112 -0.186496 1.000000
tan -0.100440 -0.977122 -0.186000 1.000000
tan -0.344721 -0.158472 -0.921508 1.000000
tan -0.000992 -0.992188 -0.125984 1.000000
tan -0.008184 -0.969496 -0.259842 1.000000
tan -0.285573 -0.168020 -0.944696 1.000000
tan -0.016616 -1.000186 -0.005828 1.000000
tan -0.066216 -0.973278 -0.200136 1.000000
tan 0.031992 -1.005518 -0.033108 1.000000
tan -0.014632 -1.000186 0.009796 1.000000
tan 0.059148 -0.966582 0.247381 1.000000
tan -0.061938 -0.992374 0.041664 1.000000
tan -0.007564 -0.960630 0.267779 1.000000
tan -0.007812 -0.992126 0.133858 1.000000
tan 0.291153 -0.135470 0.952694 1.000000
tan -0.090892 0.987724 0.082460 1.000000
tan 0.161324 0.977990 -0.093062 1.000000
tan 0.016864 1.005022 -0.014632 1.000000
tan -0.207452 0.970426 0.119350 1.000000
tan -0.319549 0.894848 0.313038 1.000000
tan -0.054746 1.000248 0.024490 1.000000
tan 0.142352 0.989522 -0.071920 1.000000
tan -0.238204 0.965838 0.080228 1.000000
tan -0.059520 1.000186 0.031372 1.000000
tan -0.289355 0.756339 0.592659 1.000000
tan -0.079732 0.985368 0.166408 1.000000
tan 0.068758 0.986174 -0.135408 1.000000
tan 0.246884 0.744993 0.623535 1.000000
tan 0.079360 0.987786 0.149792 1.000000
tan -0.068758 0.986174 -0.135408 1.000000
tan -0.140058 0.992870 -0.074772 1.000000
tan 0.123752 0.993366 0.075268 1.000000
tan 0.581685 0.786409 0.217620 1.000000
tan -0.140058 0.993056 0.075888 1.000000
tan 0.581685 0.786409 -0.217620 1.000000
tan 0.123752 0.993366 -0.075268 1.000000
tan -0.068758 0.986174 0.135408 1.000000
tan 0.246884 0.744993 -0.623535 1.000000
tan 0.079360 0.987786 -0.149792 1.000000
tan -0.079732 0.985368 -0.166408 1.000000
tan 0.068758 0.986174 0.135408 1.000000
tan -0.294377 0.757021 -0.592659 1.000000
tan -0.059520 1.000186 -0.031372 1.000000
tan 0.142352 0.989522 0.071920 1.000000
tan -0.246017 0.965838 -0.080848 1.000000
tan 0.153512 0.977990 0.092690 1.000000
tan -0.062620 1.000248 -0.024614 1.000000
tan -0.215264 0.970426 -0.119784 1.000000
tan -0.092008 0.987724 -0.090210 1.000000
tan 0.016864 1.005022 0.014632 1.000000
tan -0.321409 0.894848 -0.320417 1.000000
tan -0.015190 0.008990 1.005022 1.000000
tan 0.233740 -0.248496 0.941038 1.000000
tan -0.084940 0.153760 0.977990 1.000000
tan 0.507037 -0.866142 0.068200 1.000000
tan 0.705127 -0.716535 0.056420 1.000000
tan 0.264369 -0.884990 0.370637 1.000000
tan -0.063240 0.135408 0.989522 1.000000
tan 0.229586 -0.976378 0.076880 1.000000
tan 0.447455 -0.799801 0.388059 1.000000
tan 0.777358 -0.372745 0.515221 1.000000
tan 0.336599 -0.158224 0.931862 1.000000
tan -0.127596 0.067952 0.986174 1.000000
tan 0.953128 0.299089 0.014570 1.000000
tan 0.703887 0.376589 0.599727 1.000000
tan -0.128340 -0.060202 0.986174 1.000000
tan 0.330895 0.944882 0.022320 1.000000
tan -0.066712 -0.132370 0.992870 1.000000
tan 0.452229 0.882758 0.112096 1.000000
tan 0.066712 -0.132370 0.992870 1.000000
tan -0.451795 0.882758 0.105090 1.000000
tan -0.330895 0.944882 0.022320 1.000000
tan 0.128340 -0.060202 0.986174 1.000000
tan -0.734887 0.386943 0.554653 1.000000
tan -0.914130 0.307521 0.274784 1.000000
tan -0.328849 -0.156984 0.931862 1.000000
tan 0.127596 0.067952 0.986174 1.000000
tan -0.909542 -0.402505 0.084010 1.000000
tan -0.447455 -0.799801 0.388059 1.000000
tan 0.062310 0.127596 0.989522 1.000000
tan -0.229586 -0.976378 0.076880 1.000000
tan 0.085188 0.145948 0.985802 1.000000
tan -0.264369 -0.884990 0.370637 1.000000
tan -0.507037 -0.866142 0.068200 1.000000
tan -0.233740 -0.246822 0.933474 1.000000
tan 0.015190 0.008990 1.005022 1.000000
tan -0.704507 -0.716163 0.061938 1.000000
tan 0.054002 -0.992250 -0.087482 1.000000
tan 0.248497 -0.908240 -0.340753 1.000000
tan -0.019406 -0.995474 -0.090396 1.000000
tan 0.264555 -0.953438 -0.141236 1.000000
tan -0.281233 -0.962800 0.002170 1.000000
tan 0.054498 -1.000124 0.079608 1.000000
tan 0.264617 -0.953376 0.131564 1.000000
tan 0.265981 -0.909170 0.338893 1.000000
tan -0.018724 -0.996590 0.090396 1.000000
tan -0.259905 -0.968566 -0.005580 1.000000
tan -0.259781 -0.968566 -0.009672 1.000000
tan -0.273917 -0.964226 -0.003596 1.000000
tan -0.661107 -0.748341 0.055490 1.000000
tan -0.609027 -0.797693 0.014632 1.000000
tan -0.552979 -0.820262 -0.086490 1.000000
tan -0.661107 -0.748403 -0.060698 1.000000
tan -0.593403 -0.805505 -0.017174 1.000000
tan -0.525079 -0.844814 0.071982 1.000000
tan -0.685039 -0.724471 0.005394 1.000000
tan 0.000000 -0.984252 -0.165354 1.000000
tan -0.007812 -0.992126 -0.086614 1.000000
tan 0.000000 -1.000000 0.062992 1.000000
tan -0.684915 -0.724595 -0.027590 1.000000
tan 0.000000 -0.992126 0.125984 1.000000
tan -0.456135 0.847728 -0.273235 1.000000
tan -0.734019 0.676421 -0.054622 1.000000
tan -0.502387 0.416641 -0.754231 1.000000
tan -0.323703 0.944882 -0.052080 1.000000
tan -0.001736 -0.272057 -0.961374 1.000000
tan 0.449749 0.847728 -0.280241 1.000000
tan 0.323703 0.944882 -0.052080 1.000000
tan 0.734019 0.676669 -0.048856 1.000000
tan 0.490793 0.408519 -0.769235 1.000000
tan 0.001736 -0.272057 -0.961374 1.000000
tan -0.005704 -0.244157 -0.968566 1.000000
tan 0.005704 -0.244157 -0.968566 1.000000
tan 0.060698 -0.661107 -0.748403 1.000000
tan 0.016306 -0.601215 -0.805505 1.000000
tan -0.085374 -0.552979 -0.827515 1.000000
tan -0.060698 -0.661107 -0.748403 1.000000
tan -0.016306 -0.601215 -0.805505 1.000000
tan 0.085374 -0.552979 -0.827515 1.000000
tan 0.005394 -0.685039 -0.724471 1.000000
tan -0.196850 -0.000000 -0.976378 1.000000
tan -0.110236 -0.000000 -0.992126 1.000000
tan 0.110236 -0.000000 -0.992126 1.000000
tan -0.005394 -0.685039 -0.724471 1.000000
tan 0.196850 -0.000000 -0.976378 1.000000
f 3/3/3 2/2/2 1/1/1
f 3/3/3 1/1/1 4/4/4
f 5/5/5 3/3/3 4/4/4
f 5/5/5 4/4/4 6/6/6
f 7/7/7 6/6/6 4/4/4
f 6/6/6 7/7/7 8/8/8
f 7/7/7 9/9/9 8/8/8
f 10/10/10 8/8/8 9/9/9
f 11/11/11 7/7/7 4/4/4
f 12/12/12 11/11/11 4/4/4
f 13/13/13 11/11/11 12/12/12
f 14/14/14 13/13/13 12/12/12
f 15/15/15 13/13/13 14/14/14
f 16/16/16 15/15/15 14/14/14
f 17/17/17 15/15/15 16/16/16
f 18/18/18 17/17/17 16/16/16
f 17/17/17 18/18/18 19/19/19
f 20/20/20 19/19/19 18/18/18
f 19/19/19 20/20/20 21/21/21
f 22/22/22 21/21/21 20/20/20
f 21/21/21 22/22/22 23/23/23
f 24/24/24 23/23/23 22/22/22
f 25/25/25 23/23/23 24/24/24
f 26/26/26 23/23/23 25/25/25
f 27/27/27 26/26/26 25/25/25
f 28/28/28 26/26/26 27/27/27
f 27/27/27 29/29/29 28/28/28
f 30/30/30 28/28/28 29/29/29
f 31/31/31 30/30/30 29/29/29
f 29/29/29 32/32/32 31/31/31
f 31/31/31 32/32/32 33/33/33
f 34/34/34 33/33/33 32/32/32
f 35/35/35 34/34/34 32/32/32
f 36/36/36 35/35/35 32/32/32
f 37/37/37 36/36/36 32/32/32
f 38/38/38 37/37/37 32/32/32
f 38/38/38 32/32/32 39/39/39
f 40/40/40 39/39/39 32/32/32
f 40/40/40 41/41/41 39/39/39
f 42/42/42 41/41/41 40/40/40
f 40/40/40 43/43/43 42/42/42
f 44/44/44 42/42/42 43/43/43
f 45/45/45 44/44/44 43/43/43
f 44/44/44 46/46/46 42/42/42
f 47/47/47 45/45/45 43/43/43
f 46/46/46 48/48/48 42/42/42
f 46/46/46 49/49/49 48/48/48
f 43/43/43 50/50/50 47/47/47
f 51/51/51 47/47/47 50/50/50
f 54/54/54 53/53/53 52/52/52
f 55/55/55 52/52/52 53/53/53
f 56/56/56 55/55/55 53/53/53
f 55/55/55 56/56/56 57/57/57
f 58/58/58 57/57/57 56/56/56
f 56/56/56 59/59/59 58/58/58
f 60/60/60 58/58/58 59/59/59
f 61/61/61 60/60/60 59/59/59
f 62/62/62 61/61/61 59/59/59
f 63/63/63 62/62/62 59/59/59
f 64/64/64 63/63/63 59/59/59
f 65/65/65 64/64/64 59/59/59
f 66/66/66 65/65/65 59/59/59
f 59/59/59 67/67/67 66/66/66
f 68/68/68 66/66/66 67/67/67
f 68/68/68 67/67/67 69/69/69
f 70/70/70 69/69/69 67/67/67
f 71/71/71 69/69/69 70/70/70
f 70/70/70 72/72/72 71/71/71
f 71/71/71 72/72/72 73/73/73
f 74/74/74 73/73/73 72/72/72
f 73/73/73 74/74/74 75/75/75
f 76/76/76 75/75/75 74/74/74
f 75/75/75 76/76/76 77/77/77
f 78/78/78 77/77/77 76/76/76
f 77/77/77 78/78/78 79/79/79
f 80/80/80 79/79/79 78/78/78
f 81/81/81 79/79/79 80/80/80
f 80/80/80 82/82/82 81/81/81
f 81/81/81 82/82/82 83/83/83
f 82/82/82 84/84/84 83/83/83
f 83/83/83 84/84/84 85/85/85
f 84/84/84 86/86/86 85/85/85
f 86/86/86 87/87/87 85/85/85
f 88/88/88 85/85/85 87/87/87
f 88/88/88 87/87/87 89/89/89
f 89/89/89 87/87/87 90/90/90
f 93/93/93 92/92/92 91/91/91
f 94/94/94 91/91/91 92/92/92
f 91/91/91 94/94/94 95/95/95
f 94/94/94 92/92/92 96/96/96
f 94/94/94 97/97/97 95/95/95
f 95/95/95 97/97/97 98/98/98
f 99/99/99 98/98/98 97/97/97
f 99/99/99 97/97/97 100/100/100
f 96/96/96 101/101/101 94/94/94
f 101/101/101 97/97/97 94/94/94
f 102/102/102 100/100/100 97/97/97
f 97/97/97 101/101/101 102/102/102
f 102/102/102 103/103/103 100/100/100
f 101/101/101 96/96/96 104/104/104
f 101/101/101 104/104/104 102/102/102
f 105/105/105 104/104/104 96/96/96
f 105/105/105 106/106/106 104/104/104
f 103/103/103 102/102/102 107/107/107
f 102/102/102 104/104/104 107/107/107
f 103/103/103 107/107/107 108/108/108
f 109/109/109 104/104/104 106/106/106
f 104/104/104 109/109/109 107/107/107
f 110/110/110 108/108/108 107/107/107
f 110/110/110 107/107/107 109/109/109
f 110/110/110 111/111/111 108/108/108
f 110/110/110 109/109/109 112/112/112
f 111/111/111 110/110/110 112/112/112
f 109/109/109 106/106/106 113/113/113
f 113/113/113 112/112/112 109/109/109
f 114/114/114 113/113/113 106/106/106
f 114/114/114 115/115/115 113/113/113
f 112/112/112 116/116/116 111/111/111
f 112/112/112 113/113/113 116/116/116
f 117/117/117 111/111/111 116/116/116
f 117/117/117 116/116/116 118/118/118
f 119/119/119 113/113/113 115/115/115
f 113/113/113 119/119/119 116/116/116
f 120/120/120 118/118/118 116/116/116
f 116/116/116 119/119/119 120/120/120
f 119/119/119 115/115/115 121/121/121
f 119/119/119 121/121/121 120/120/120
f 122/122/122 121/121/121 115/115/115
f 121/121/121 122/122/122 123/123/123
f 120/120/120 124/124/124 118/118/118
f 120/120/120 121/121/121 124/124/124
f 125/125/125 118/118/118 124/124/124
f 123/123/123 126/126/126 121/121/121
f 121/121/121 126/126/126 124/124/124
f 126/126/126 123/123/123 127/127/127
f 124/124/124 128/128/128 125/125/125
f 128/128/128 124/124/124 126/126/126
f 129/129/129 125/125/125 128/128/128
f 129/129/129 128/128/128 130/130/130
f 131/131/131 126/126/126 127/127/127
f 126/126/126 131/131/131 128/128/128
f 132/132/132 130/130/130 128/128/128
f 132/132/132 128/128/128 131/131/131
f 130/130/130 132/132/132 133/133/133
f 131/131/131 127/127/127 134/134/134
f 131/131/131 134/134/134 132/132/132
f 135/135/135 134/134/134 127/127/127
f 134/134/134 135/135/135 136/136/136
f 137/137/137 133/133/133 132/132/132
f 132/132/132 134/134/134 137/137/137
f 138/138/138 134/134/134 136/136/136
f 138/138/138 137/137/137 134/134/134
f 133/133/133 137/137/137 139/139/139
f 137/137/137 138/138/138 139/139/139
f 139/139/139 140/140/140 133/133/133
f 140/140/140 139/139/139 141/141/141
f 138/138/138 136/136/136 142/142/142
f 142/142/142 139/139/139 138/138/138
f 143/143/143 142/142/142 136/136/136
f 144/144/144 141/141/141 139/139/139
f 144/144/144 139/139/139 142/142/142
f 141/141/141 144/144/144 145/145/145
f 143/143/143 146/146/146 142/142/142
f 142/142/142 146/146/146 144/144/144
f 147/147/147 146/146/146 143/143/143
f 145/145/145 144/144/144 148/148/148
f 148/148/148 144/144/144 146/146/146
f 146/146/146 147/147/147 149/149/149
f 146/146/146 149/149/149 148/148/148
f 150/150/150 149/149/149 147/147/147
f 145/145/145 148/148/148 151/151/151
f 151/151/151 148/148/148 149/149/149
f 151/151/151 152/152/152 145/145/145
f 152/152/152 151/151/151 153/153/153
f 149/149/149 150/150/150 154/154/154
f 149/149/149 154/154/154 151/151/151
f 155/155/155 154/154/154 150/150/150
f 154/154/154 155/155/155 156/156/156
f 153/153/153 151/151/151 157/157/157
f 151/151/151 154/154/154 157/157/157
f 156/156/156 158/158/158 154/154/154
f 158/158/158 157/157/157 154/154/154
f 157/157/157 159/159/159 153/153/153
f 157/157/157 158/158/158 159/159/159
f 159/159/159 160/160/160 153/153/153
f 160/160/160 159/159/159 161/161/161
f 158/158/158 156/156/156 162/162/162
f 162/162/162 159/159/159 158/158/158
f 163/163/163 162/162/162 156/156/156
f 163/163/163 164/164/164 162/162/162
f 165/165/165 161/161/161 159/159/159
f 159/159/159 162/162/162 165/165/165
f 166/166/166 162/162/162 164/164/164
f 166/166/166 165/165/165 162/162/162
f 166/166/166 164/164/164 167/167/167
f 167/167/167 165/165/165 166/166/166
f 167/167/167 164/164/164 168/168/168
f 165/165/165 169/169/169 161/161/161
f 169/169/169 165/165/165 167/167/167
f 170/170/170 161/161/161 169/169/169
f 170/170/170 169/169/169 171/171/171
f 167/167/167 168/168/168 172/172/172
f 173/173/173 172/172/172 168/168/168
f 169/169/169 167/167/167 174/174/174
f 174/174/174 171/171/171 169/169/169
f 172/172/172 174/174/174 167/167/167
f 171/171/171 174/174/174 175/175/175
f 172/172/172 173/173/173 176/176/176
f 174/174/174 172/172/172 176/176/176
f 177/177/177 176/176/176 173/173/173
f 178/178/178 175/175/175 174/174/174
f 178/178/178 174/174/174 176/176/176
f 178/178/178 179/179/179 175/175/175
f 180/180/180 179/179/179 178/178/178
f 180/180/180 178/178/178 181/181/181
f 176/176/176 181/181/181 178/178/178
f 176/176/176 177/177/177 181/181/181
f 182/182/182 181/181/181 177/177/177
f 185/185/185 184/184/184 183/183/183
f 186/186/186 184/184/184 185/185/185
f 187/187/187 186/186/186 185/185/185
f 184/184/184 186/186/186 188/188/188
f 189/189/189 186/186/186 187/187/187
f 187/187/187 190/190/190 189/189/189
f 191/191/191 189/189/189 190/190/190
f 191/191/191 192/192/192 189/189/189
f 193/193/193 188/188/188 186/186/186
f 193/193/193 186/186/186 189/189/189
f 194/194/194 189/189/189 192/192/192
f 194/194/194 193/193/193 189/189/189
f 194/194/194 192/192/192 195/195/195
f 193/193/193 196/196/196 188/188/188
f 193/193/193 194/194/194 196/196/196
f 197/197/197 188/188/188 196/196/196
f 198/198/198 194/194/194 195/195/195
f 198/198/198 196/196/196 194/194/194
f 198/198/198 195/195/195 199/199/199
f 197/197/197 196/196/196 200/200/200
f 201/201/201 198/198/198 199/199/199
f 201/201/201 199/199/199 202/202/202
f 196/196/196 198/198/198 203/203/203
f 201/201/201 203/203/203 198/198/198
f 203/203/203 200/200/200 196/196/196
f 204/204/204 201/201/201 202/202/202
f 201/201/201 204/204/204 203/203/203
f 200/200/200 203/203/203 205/205/205
f 205/205/205 203/203/203 204/204/204
f 206/206/206 200/200/200 205/205/205
f 206/206/206 205/205/205 207/207/207
f 202/202/202 208/208/208 204/204/204
f 208/208/208 205/205/205 204/204/204
f 208/208/208 202/202/202 209/209/209
f 209/209/209 210/210/210 208/208/208
f 211/211/211 207/207/207 205/205/205
f 205/205/205 208/208/208 211/211/211
f 212/212/212 208/208/208 210/210/210
f 212/212/212 211/211/211 208/208/208
f 211/211/211 213/213/213 207/207/207
f 211/211/211 212/212/212 213/213/213
f 214/214/214 207/207/207 213/213/213
f 214/214/214 213/213/213 215/215/215
f 212/212/212 210/210/210 216/216/216
f 216/216/216 213/213/213 212/212/212
f 216/216/216 210/210/210 217/217/217
f 218/218/218 215/215/215 213/213/213
f 213/213/213 216/216/216 218/218/218
f 215/215/215 218/218/218 219/219/219
f 216/216/216 217/217/217 220/220/220
f 220/220/220 218/218/218 216/216/216
f 220/220/220 217/217/217 221/221/221
f 220/220/220 221/221/221 222/222/222
f 223/223/223 219/219/219 218/218/218
f 218/218/218 220/220/220 223/223/223
f 224/224/224 220/220/220 222/222/222
f 220/220/220 224/224/224 223/223/223
f 223/223/223 225/225/225 219/219/219
f 223/223/223 224/224/224 225/225/225
f 225/225/225 226/226/226 219/219/219
f 222/222/222 227/227/227 224/224/224
f 224/224/224 227/227/227 225/225/225
f 227/227/227 222/222/222 228/228/228
f 226/226/226 225/225/225 229/229/229
f 225/225/225 227/227/227 229/229/229
f 229/229/229 230/230/230 226/226/226
f 227/227/227 228/228/228 231/231/231
f 227/227/227 231/231/231 229/229/229
f 231/231/231 228/228/228 232/232/232
f 231/231/231 232/232/232 233/233/233
f 230/230/230 229/229/229 234/234/234
f 229/229/229 231/231/231 234/234/234
f 234/234/234 235/235/235 230/230/230
f 234/234/234 236/236/236 235/235/235
f 233/233/233 237/237/237 231/231/231
f 231/231/231 237/237/237 234/234/234
f 233/233/233 238/238/238 237/237/237
f 236/236/236 234/234/234 239/239/239
f 234/234/234 237/237/237 239/239/239
f 239/239/239 240/240/240 236/236/236
f 241/241/241 237/237/237 238/238/238
f 237/237/237 241/241/241 239/239/239
f 238/238/238 242/242/242 241/241/241
f 243/243/243 241/241/241 242/242/242
f 243/243/243 244/244/244 241/241/241
f 240/240/240 239/239/239 245/245/245
f 239/239/239 241/241/241 245/245/245
f 245/245/245 241/241/241 244/244/244
f 240/240/240 245/245/245 246/246/246
f 244/244/244 246/246/246 245/245/245
f 90/90/90 248/248/248 247/247/247
f 89/89/89 90/90/90 247/247/247
f 52/52/52 250/250/250 249/249/249
f 54/54/54 52/52/52 249/249/249
f 253/253/253 252/252/252 251/251/251
f 254/254/254 252/252/252 253/253/253
f 253/253/253 255/255/255 254/254/254
f 256/256/256 254/254/254 255/255/255
f 1/1/1 258/258/258 257/257/257
f 258/258/258 1/1/1 2/2/2
f 259/259/259 258/258/258 2/2/2
f 2/2/2 260/260/260 259/259/259
f 260/260/260 2/2/2 3/3/3
f 190/190/190 262/262/262 261/261/261
f 187/187/187 262/262/262 190/190/190
f 262/262/262 187/187/187 263/263/263
f 185/185/185 263/263/263 187/187/187
f 185/185/185 183/183/183 263/263/263
f 264/264/264 263/263/263 183/183/183
f 266/266/266 265/265/265 98/98/98
f 95/95/95 98/98/98 265/265/265
f 265/265/265 267/267/267 95/95/95
f 91/91/91 95/95/95 267/267/267
f 91/91/91 267/267/267 93/93/93
f 93/93/93 267/267/267 268/268/268
f 270/270/270 269/269/269 9/9/9
f 10/10/10 9/9/9 269/269/269
f 10/10/10 269/269/269 271/271/271
f 271/271/271 272/272/272 10/10/10
f 272/272/272 8/8/8 10/10/10
f 275/275/275 274/274/274 273/273/273
f 276/276/276 273/273/273 274/274/274
f 274/274/274 277/277/277 276/276/276
f 278/278/278 276/276/276 277/277/277
f 48/48/48 280/280/280 279/279/279
f 280/280/280 48/48/48 49/49/49
f 281/281/281 280/280/280 49/49/49
f 49/49/49 282/282/282 281/281/281
f 282/282/282 49/49/49 46/46/46
f 182/182/182 283/283/283 181/181/181
f 181/181/181 283/283/283 284/284/284
f 181/181/181 284/284/284 180/180/180
f 180/180/180 284/284/284 285/285/285
f 285/285/285 286/286/286 180/180/180
f 179/179/179 180/180/180 286/286/286
f 288/288/288 287/287/287 242/242/242
f 243/243/243 242/242/242 287/287/287
f 287/287/287 289/289/289 243/243/243
f 244/244/244 243/243/243 289/289/289
f 244/244/244 289/289/289 246/246/246
f 290/290/290 246/246/246 289/289/289
f 50/50/50 292/292/292 291/291/291
f 51/51/51 50/50/50 291/291/291
f 51/51/51 291/291/291 293/293/293
f 293/293/293 294/294/294 51/51/51
f 294/294/294 47/47/47 51/51/51
f 297/297/297 296/296/296 295/295/295
f 298/298/298 295/295/295 296/296/296
f 296/296/296 299/299/299 298/298/298
f 300/300/300 298/298/298 299/299/299
f 299/299/299 301/301/301 300/300/300
f 301/301/301 303/303/303 302/302/302
f 304/304/304 301/301/301 299/299/299
f 303/303/303 301/301/301 304/304/304
f 304/304/304 299/299/299 305/305/305
f 305/305/305 303/303/303 304/304/304
f 303/303/303 305/305/305 306/306/306
f 307/307/307 305/305/305 299/299/299
f 305/305/305 308/308/308 306/306/306
f 307/307/307 309/309/309 305/305/305
f 309/309/309 308/308/308 305/305/305
f 309/309/309 307/307/307 310/310/310
f 310/310/310 311/311/311 309/309/309
f 309/309/309 312/312/312 308/308/308
f 312/312/312 309/309/309 311/311/311
f 313/313/313 308/308/308 312/312/312
f 313/313/313 312/312/312 314/314/314
f 312/312/312 311/311/311 315/315/315
f 314/314/314 312/312/312 315/315/315
f 314/314/314 315/315/315 316/316/316
f 317/317/317 315/315/315 311/311/311
f 318/318/318 316/316/316 315/315/315
f 315/315/315 317/317/317 318/318/318
f 318/318/318 317/317/317 319/319/319
f 322/322/322 321/321/321 320/320/320
f 323/323/323 320/320/320 321/321/321
f 321/321/321 324/324/324 323/323/323
f 325/325/325 323/323/323 324/324/324
f 325/325/325 324/324/324 326/326/326
f 326/326/326 328/328/328 327/327/327
f 324/324/324 329/329/329 326/326/326
f 328/328/328 326/326/326 329/329/329
f 329/329/329 324/324/324 330/330/330
f 330/330/330 328/328/328 329/329/329
f 331/331/331 328/328/328 330/330/330
f 332/332/332 330/330/330 324/324/324
f 331/331/331 330/330/330 333/333/333
f 332/332/332 334/334/334 330/330/330
f 333/333/333 330/330/330 334/334/334
f 334/334/334 332/332/332 335/335/335
f 334/334/334 336/336/336 333/333/333
f 334/334/334 335/335/335 336/336/336
f 337/337/337 333/333/333 336/336/336
f 336/336/336 335/335/335 338/338/338
f 336/336/336 339/339/339 337/337/337
f 336/336/336 338/338/338 340/340/340
f 340/340/340 339/339/339 336/336/336
f 339/339/339 340/340/340 341/341/341
f 340/340/340 338/338/338 342/342/342
f 341/341/341 340/340/340 343/343/343
f 342/342/342 343/343/343 340/340/340
f 343/343/343 342/342/342 344/344/344
f 347/347/347 346/346/346 345/345/345
f 345/345/345 348/348/348 347/347/347
f 348/348/348 349/349/349 347/347/347
f 350/350/350 347/347/347 349/349/349
f 351/351/351 350/350/350 349/349/349
f 351/351/351 353/353/353 352/352/352
f 354/354/354 350/350/350 351/351/351
f 354/354/354 351/351/351 352/352/352
f 354/354/354 355/355/355 350/350/350
f 355/355/355 354/354/354 352/352/352
f 352/352/352 356/356/356 355/355/355
f 357/357/357 350/350/350 355/355/355
f 355/355/355 356/356/356 358/358/358
f 355/355/355 359/359/359 357/357/357
f 358/358/358 359/359/359 355/355/355
f 360/360/360 357/357/357 359/359/359
f 358/358/358 361/361/361 359/359/359
f 359/359/359 362/362/362 360/360/360
f 363/363/363 359/359/359 361/361/361
f 363/363/363 362/362/362 359/359/359
f 361/361/361 364/364/364 363/363/363
f 363/363/363 365/365/365 362/362/362
f 367/367/367 364/364/364 366/366/366
f 368/368/368 365/365/365 363/363/363
f 368/368/368 363/363/363 364/364/364
f 367/367/367 368/368/368 364/364/364
f 365/365/365 368/368/368 369/369/369
f 367/367/367 369/369/369 368/368/368
f 372/372/372 371/371/371 370/370/370
f 373/373/373 372/372/372 370/370/370
f 373/373/373 374/374/374 372/372/372
f 375/375/375 372/372/372 374/374/374
f 376/376/376 375/375/375 374/374/374
f 376/376/376 378/378/378 377/377/377
f 375/375/375 376/376/376 379/379/379
f 379/379/379 376/376/376 377/377/377
f 379/379/379 380/380/380 375/375/375
f 380/380/380 379/379/379 377/377/377
f 381/381/381 380/380/380 377/377/377
f 382/382/382 375/375/375 380/380/380
f 381/381/381 383/383/383 380/380/380
f 380/380/380 384/384/384 382/382/382
f 383/383/383 384/384/384 380/380/380
f 384/384/384 385/385/385 382/382/382
f 383/383/383 386/386/386 384/384/384
f 385/385/385 384/384/384 387/387/387
f 388/388/388 384/384/384 386/386/386
f 388/388/388 387/387/387 384/384/384
f 386/386/386 389/389/389 388/388/388
f 388/388/388 390/390/390 387/387/387
f 391/391/391 388/388/388 389/389/389
f 391/391/391 390/390/390 388/388/388
f 391/391/391 389/389/389 392/392/392
f 391/391/391 392/392/392 390/390/390
f 393/393/393 392/392/392 389/389/389
f 394/394/394 390/390/390 392/392/392
f 397/397/397 396/396/396 395/395/395
f 399/399/399 395/395/395 398/398/398
f 395/395/395 396/396/396 400/400/400
f 400/400/400 398/398/398 395/395/395
f 396/396/396 401/401/401 400/400/400
f 400/400/400 402/402/402 398/398/398
f 402/402/402 400/400/400 403/403/403
f 401/401/401 403/403/403 400/400/400
f 402/402/402 403/403/403 404/404/404
f 403/403/403 401/401/401 405/405/405
f 405/405/405 404/404/404 403/403/403
f 406/406/406 405/405/405 401/401/401
f 404/404/404 405/405/405 407/407/407
f 405/405/405 406/406/406 408/408/408
f 408/408/408 407/407/407 405/405/405
f 409/409/409 408/408/408 406/406/406
f 409/409/409 410/410/410 408/408/408
f 407/407/407 408/408/408 411/411/411
f 411/411/411 408/408/408 410/410/410
f 411/411/411 412/412/412 407/407/407
f 410/410/410 413/413/413 411/411/411
f 412/412/412 411/411/411 414/414/414
f 413/413/413 415/415/415 411/411/411
f 414/414/414 411/411/411 415/415/415
f 413/413/413 416/416/416 415/415/415
f 414/414/414 415/415/415 417/417/417
f 415/415/415 416/416/416 418/418/418
f 418/418/418 417/417/417 415/415/415
f 418/418/418 416/416/416 419/419/419
f 418/418/418 419/419/419 417/417/417
f 420/420/420 419/419/419 416/416/416
f 419/419/419 421/421/421 417/417/417
f 419/419/419 420/420/420 422/422/422
f 419/419/419 422/422/422 421/421/421
f 423/423/423 422/422/422 420/420/420
f 424/424/424 421/421/421 422/422/422
f 423/423/423 425/425/425 422/422/422
f 422/422/422 426/426/426 424/424/424
f 425/425/425 426/426/426 422/422/422
f 426/426/426 427/427/427 424/424/424
f 426/426/426 425/425/425 428/428/428
f 426/426/426 428/428/428 427/427/427
f 425/425/425 429/429/429 428/428/428
f 430/430/430 427/427/427 428/428/428
f 433/433/433 432/432/432 431/431/431
f 435/435/435 432/432/432 434/434/434
f 436/436/436 432/432/432 433/433/433
f 436/436/436 434/434/434 432/432/432
f 433/433/433 437/437/437 436/436/436
f 436/436/436 438/438/438 434/434/434
f 438/438/438 436/436/436 439/439/439
f 437/437/437 439/439/439 436/436/436
f 438/438/438 439/439/439 440/440/440
f 439/439/439 437/437/437 441/441/441
f 441/441/441 440/440/440 439/439/439
f 442/442/442 441/441/441 437/437/437
f 440/440/440 441/441/441 443/443/443
f 441/441/441 442/442/442 444/444/444
f 444/444/444 443/443/443 441/441/441
f 445/445/445 444/444/444 442/442/442
f 443/443/443 444/444/444 446/446/446
f 444/444/444 445/445/445 447/447/447
f 448/448/448 444/444/444 447/447/447
f 448/448/448 446/446/446 444/444/444
f 448/448/448 447/447/447 449/449/449
f 448/448/448 450/450/450 446/446/446
f 450/450/450 448/448/448 449/449/449
f 451/451/451 446/446/446 450/450/450
f 450/450/450 449/449/449 452/452/452
f 451/451/451 450/450/450 453/453/453
f 453/453/453 450/450/450 452/452/452
f 453/453/453 454/454/454 451/451/451
f 453/453/453 452/452/452 455/455/455
f 454/454/454 453/453/453 455/455/455
f 456/456/456 455/455/455 452/452/452
f 457/457/457 454/454/454 455/455/455
f 455/455/455 456/456/456 458/458/458
f 455/455/455 458/458/458 457/457/457
f 459/459/459 458/458/458 456/456/456
f 460/460/460 457/457/457 458/458/458
f 459/459/459 461/461/461 458/458/458
f 458/458/458 462/462/462 460/460/460
f 461/461/461 462/462/462 458/458/458
f 462/462/462 463/463/463 460/460/460
f 462/462/462 461/461/461 464/464/464
f 462/462/462 464/464/464 463/463/463
f 461/461/461 465/465/465 464/464/464
f 466/466/466 463/463/463 464/464/464
f 469/469/469 468/468/468 467/467/467
f 470/470/470 467/467/467 468/468/468
f 469/469/469 467/467/467 471/471/471
f 470/470/470 472/472/472 467/467/467
f 473/473/473 472/472/472 470/470/470
f 474/474/474 472/472/472 473/473/473
f 474/474/474 475/475/475 472/472/472
f 476/476/476 471/471/471 467/467/467
f 476/476/476 467/467/467 472/472/472
f 475/475/475 477/477/477 472/472/472
f 477/477/477 476/476/476 472/472/472
f 478/478/478 477/477/477 475/475/475
f 476/476/476 479/479/479 471/471/471
f 479/479/479 476/476/476 477/477/477
f 480/480/480 471/471/471 479/479/479
f 479/479/479 481/481/481 480/480/480
f 478/478/478 482/482/482 477/477/477
f 482/482/482 479/479/479 477/477/477
f 482/482/482 478/478/478 483/483/483
f 483/483/483 484/484/484 482/482/482
f 481/481/481 479/479/479 485/485/485
f 479/479/479 482/482/482 485/485/485
f 481/481/481 485/485/485 486/486/486
f 487/487/487 486/486/486 485/485/485
f 485/485/485 488/488/488 487/487/487
f 484/484/484 489/489/489 482/482/482
f 489/489/489 485/485/485 482/482/482
f 489/489/489 488/488/488 485/485/485
f 484/484/484 490/490/490 489/489/489
f 489/489/489 490/490/490 488/488/488
f 493/493/493 492/492/492 491/491/491
f 494/494/494 491/491/491 492/492/492
f 493/493/493 491/491/491 495/495/495
f 494/494/494 496/496/496 491/491/491
f 497/497/497 496/496/496 494/494/494
f 498/498/498 496/496/496 497/497/497
f 498/498/498 499/499/499 496/496/496
f 499/499/499 500/500/500 496/496/496
f 501/501/501 495/495/495 491/491/491
f 501/501/501 491/491/491 496/496/496
f 502/502/502 496/496/496 500/500/500
f 502/502/502 501/501/501 496/496/496
f 495/495/495 501/501/501 503/503/503
f 503/503/503 501/501/501 502/502/502
f 503/503/503 504/504/504 495/495/495
f 504/504/504 503/503/503 505/505/505
f 500/500/500 506/506/506 502/502/502
f 506/506/506 503/503/503 502/502/502
f 506/506/506 500/500/500 507/507/507
f 507/507/507 508/508/508 506/506/506
f 505/505/505 503/503/503 509/509/509
f 503/503/503 506/506/506 509/509/509
f 505/505/505 509/509/509 510/510/510
f 511/511/511 510/510/510 509/509/509
f 509/509/509 512/512/512 511/511/511
f 508/508/508 513/513/513 506/506/506
f 513/513/513 509/509/509 506/506/506
f 513/513/513 512/512/512 509/509/509
f 508/508/508 514/514/514 513/513/513
f 513/513/513 514/514/514 512/512/512
