mtllib SM_Bar_Door_01.mtl
g SM_Bar_Door_01
#Vertices 420
#Indices 1740
#Section 0 Offset 0 NumIndices 348 MaterialIndex 2 MI_Metal_Rusty_03
#Section 1 Offset 348 NumIndices 1392 MaterialIndex 1 MI_Plastic_Dirty_06
v 1.467864 0.256677 -0.002191
v 0.101939 0.438297 -0.002191
v 1.467864 0.438297 -0.002191
v 1.192015 -0.019171 -0.002191
v 0.101939 -0.019171 -0.002191
v 0.101939 0.443297 0.002809
v 1.467864 0.438297 -0.002191
v 0.101939 0.438297 -0.002191
v 1.467864 0.443297 0.002809
v 1.467864 0.443297 0.007697
v 0.101939 0.443297 0.007697
v 1.477864 0.448297 0.012697
v 0.091939 0.448297 0.012697
v 1.497472 0.467905 0.012697
v 0.072331 0.467905 0.012697
v 0.072331 0.472905 0.007697
v 1.497472 0.472905 0.007697
v 1.497472 0.472905 -0.007697
v 0.072331 0.472905 -0.007697
v 0.072331 0.467905 -0.012697
v 1.497472 0.467905 -0.012697
v 1.497472 0.244413 -0.012697
v 1.502472 0.247342 -0.007697
v 1.502472 0.467905 -0.007697
v 1.497472 0.472905 -0.007697
v 1.502472 0.247342 0.007697
v 1.497472 0.472905 0.007697
v 1.502472 0.467905 0.007697
v 1.497472 0.467905 0.012697
v 1.497472 0.244413 0.012697
v 1.477864 0.448297 0.012697
v 1.477864 0.252535 0.012697
v 1.472864 0.438297 0.007697
v 1.467864 0.443297 0.007697
v 1.472864 0.259606 0.007697
v 1.467864 0.443297 0.002809
v 1.472864 0.438297 0.002809
v 1.472864 0.259606 0.002809
v 1.467864 0.438297 -0.002191
v 1.467864 0.256677 -0.002191
v 1.502472 0.247342 -0.007697
v 1.498936 0.238806 -0.007697
v 1.502472 0.247342 0.007697
v 1.204279 -0.048779 -0.012697
v 1.498936 0.238806 0.007697
v 1.497472 0.244413 0.012697
v 1.209886 -0.050243 -0.007697
v 1.204279 -0.048779 0.012697
v 1.209886 -0.050243 0.007697
v 1.477864 0.252535 0.012697
v 1.201350 -0.053779 0.007697
v 1.201350 -0.053779 -0.007697
v 1.196157 -0.029171 0.012697
v 1.197622 -0.020636 0.007697
v 1.189086 -0.024171 0.007697
v 1.469329 0.251070 0.007697
v 1.472864 0.259606 0.007697
v 1.472864 0.259606 0.002809
v 1.197622 -0.020636 0.002809
v 1.189086 -0.024171 0.002809
v 1.192015 -0.019171 -0.002191
v 1.469329 0.251070 0.002809
v 1.467864 0.256677 -0.002191
v 0.072331 -0.048779 -0.012697
v 1.201350 -0.053779 -0.007697
v 0.072331 -0.053779 -0.007697
v 0.072331 -0.053779 0.007697
v 1.201350 -0.053779 0.007697
v 0.072331 -0.048779 0.012697
v 1.204279 -0.048779 0.012697
v 0.091939 -0.029171 0.012697
v 1.196157 -0.029171 0.012697
v 0.101939 -0.024171 0.007697
v 1.189086 -0.024171 0.007697
v 1.189086 -0.024171 0.002809
v 0.101939 -0.024171 0.002809
v 0.101939 -0.019171 -0.002191
v 1.192015 -0.019171 -0.002191
v 0.067331 -0.048779 -0.007697
v 0.072331 -0.053779 -0.007697
v 0.072331 -0.053779 0.007697
v 0.067331 0.467905 -0.007697
v 0.072331 0.472905 -0.007697
v 0.067331 -0.048779 0.007697
v 0.067331 0.467905 0.007697
v 0.072331 0.472905 0.007697
v 0.072331 -0.048779 0.012697
v 0.072331 0.467905 0.012697
v 0.091939 0.448297 0.012697
v 0.091939 -0.029171 0.012697
v 0.096939 0.438297 0.007697
v 0.101939 0.443297 0.007697
v 0.096939 -0.019171 0.007697
v 0.101939 -0.024171 0.007697
v 0.101939 -0.024171 0.002809
v 0.096939 0.438297 0.002809
v 0.101939 0.443297 0.002809
v 0.101939 0.438297 -0.002191
v 0.096939 -0.019171 0.002809
v 0.101939 -0.019171 -0.002191
v 0.033462 0.011953 0.013892
v 0.109434 0.011185 -0.000000
v 0.101264 0.011084 0.013924
v 0.033462 0.011953 -0.014007
v 0.101264 0.011084 -0.013924
v 0.031437 0.011871 -0.000000
v 0.027585 0.011871 0.014375
v 0.019290 0.011871 0.027891
v 0.027585 0.011871 -0.014375
v 0.019290 0.011871 -0.027891
v 0.024682 0.006871 0.005893
v 0.024682 0.006871 -0.005894
v 0.018788 0.006871 0.016101
v 0.018788 0.006871 -0.016101
v 0.017062 0.011871 0.024898
v 0.008581 0.006871 0.021995
v 0.002687 0.011871 0.032340
v 0.002687 0.011871 0.028750
v -0.003206 0.006871 0.021995
v -0.013483 0.011871 0.028007
v -0.011688 0.011871 0.024898
v -0.013414 0.006871 0.016101
v -0.025320 0.011871 0.016170
v -0.022211 0.011871 0.014375
v -0.019308 0.006871 0.005893
v -0.026063 0.011871 -0.000000
v -0.029653 0.011871 -0.000000
v -0.019308 0.006871 -0.005894
v -0.025320 0.011871 -0.016170
v -0.022211 0.011871 -0.014375
v -0.013414 0.006871 -0.016101
v -0.011688 0.011871 -0.024899
v -0.013483 0.011871 -0.028007
v -0.003206 0.006871 -0.021995
v 0.002687 0.011871 -0.028750
v 0.002687 0.011871 -0.032340
v 0.008581 0.006871 -0.021995
v 0.017062 0.011871 -0.024899
v 0.033462 -0.011953 -0.014007
v 0.109434 -0.011185 -0.000000
v 0.101264 -0.011084 -0.013924
v 0.033462 -0.011953 0.013892
v 0.101264 -0.011084 0.013924
v 0.031437 -0.011870 -0.000000
v 0.027586 -0.011870 -0.014375
v 0.019290 -0.011871 -0.027891
v 0.027586 -0.011870 0.014375
v 0.019290 -0.011870 0.027891
v 0.024682 -0.006870 -0.005894
v 0.024682 -0.006870 0.005893
v 0.018788 -0.006870 -0.016101
v 0.018788 -0.006870 0.016101
v 0.017062 -0.011870 -0.024899
v 0.008581 -0.006871 -0.021995
v 0.002687 -0.011871 -0.032340
v 0.002687 -0.011871 -0.028750
v -0.003206 -0.006871 -0.021995
v -0.013483 -0.011871 -0.028007
v -0.011688 -0.011870 -0.024899
v -0.013414 -0.006870 -0.016101
v -0.025320 -0.011870 -0.016170
v -0.022211 -0.011870 -0.014375
v -0.019308 -0.006870 -0.005894
v -0.026063 -0.011870 -0.000000
v -0.029653 -0.011870 -0.000000
v -0.019308 -0.006870 0.005893
v -0.025320 -0.011870 0.016170
v -0.022211 -0.011870 0.014375
v -0.013414 -0.006870 0.016101
v -0.011688 -0.011870 0.024898
v -0.013483 -0.011870 0.028007
v -0.003206 -0.006870 0.021995
v 0.002687 -0.011870 0.028750
v 0.002687 -0.011870 0.032340
v 0.008581 -0.006870 0.021995
v 0.017062 -0.011870 0.024898
v 0.033462 0.431024 0.013883
v 0.109434 0.430742 -0.000000
v 0.101264 0.430636 0.013924
v 0.033462 0.431024 -0.014208
v 0.101264 0.430636 -0.013924
v 0.031437 0.430941 -0.000000
v 0.027585 0.430941 0.014375
v 0.019290 0.430941 0.027891
v 0.027585 0.430941 -0.014375
v 0.019290 0.430941 -0.027891
v 0.024682 0.425941 0.005893
v 0.024682 0.425941 -0.005894
v 0.018788 0.425941 0.016101
v 0.018788 0.425941 -0.016101
v 0.017062 0.430941 0.024898
v 0.008581 0.425941 0.021995
v 0.002687 0.430941 0.032340
v 0.002687 0.430941 0.028750
v -0.003206 0.425941 0.021995
v -0.013483 0.430941 0.028007
v -0.011688 0.430941 0.024898
v -0.013414 0.425941 0.016101
v -0.025320 0.430941 0.016170
v -0.022211 0.430941 0.014375
v -0.019308 0.425941 0.005893
v -0.026063 0.430941 -0.000000
v -0.029653 0.430941 -0.000000
v -0.019308 0.425941 -0.005894
v -0.025320 0.430941 -0.016170
v -0.022211 0.430941 -0.014375
v -0.013414 0.425941 -0.016101
v -0.011688 0.430941 -0.024899
v -0.013483 0.430941 -0.028007
v -0.003206 0.425941 -0.021995
v 0.002687 0.430941 -0.028750
v 0.002687 0.430941 -0.032340
v 0.008581 0.425941 -0.021995
v 0.017062 0.430941 -0.024899
v 0.033462 0.407118 -0.014208
v 0.109434 0.407400 -0.000000
v 0.101264 0.407506 -0.013924
v 0.033462 0.407118 0.013883
v 0.101264 0.407506 0.013924
v 0.031437 0.407200 -0.000000
v 0.027586 0.407200 -0.014375
v 0.019290 0.407200 -0.027891
v 0.027586 0.407200 0.014375
v 0.019290 0.407200 0.027891
v 0.024682 0.412200 -0.005894
v 0.024682 0.412200 0.005893
v 0.018788 0.412200 -0.016101
v 0.018788 0.412200 0.016101
v 0.017062 0.407200 -0.024899
v 0.008581 0.412200 -0.021995
v 0.002687 0.407200 -0.032340
v 0.002687 0.407200 -0.028750
v -0.003206 0.412200 -0.021995
v -0.013483 0.407200 -0.028007
v -0.011688 0.407200 -0.024899
v -0.013414 0.412200 -0.016101
v -0.025320 0.407200 -0.016170
v -0.022211 0.407200 -0.014375
v -0.019308 0.412200 -0.005894
v -0.026063 0.407200 -0.000000
v -0.029653 0.407200 -0.000000
v -0.019308 0.412200 0.005893
v -0.025320 0.407200 0.016170
v -0.022211 0.407200 0.014375
v -0.013414 0.412200 0.016101
v -0.011688 0.407200 0.024898
v -0.013483 0.407200 0.028007
v -0.003206 0.412200 0.021995
v 0.002687 0.407200 0.028750
v 0.002687 0.407200 0.032340
v 0.008581 0.412200 0.021995
v 0.017062 0.407200 0.024898
v 0.106742 0.412967 -0.014445
v 0.109434 0.407400 -0.000000
v 0.112684 0.412967 -0.004313
v 0.112684 0.425175 -0.004313
v 0.101264 0.407506 -0.013924
v 0.106742 0.425175 -0.014445
v 0.109434 0.430742 -0.000000
v 0.101264 0.430636 -0.013924
v 0.099221 0.412905 -0.019050
v 0.099221 0.425237 -0.019050
v 0.040168 0.425575 -0.019192
v 0.033462 0.431024 -0.014208
v 0.040168 0.412567 -0.019192
v 0.033462 0.407118 -0.014208
v 0.025530 0.425941 -0.029607
v 0.019290 0.430941 -0.027891
v 0.025530 0.412200 -0.029607
v 0.019290 0.407200 -0.027891
v 0.016616 0.425941 -0.033784
v 0.002687 0.430941 -0.032340
v 0.016616 0.412200 -0.033784
v 0.002687 0.407200 -0.032340
v 0.007517 0.425941 -0.036222
v 0.007517 0.412200 -0.036222
v -0.002142 0.425941 -0.036222
v -0.013483 0.430941 -0.028007
v -0.002142 0.412200 -0.036222
v -0.013483 0.407200 -0.028007
v -0.011241 0.412200 -0.033784
v -0.011241 0.425941 -0.033784
v -0.019606 0.425941 -0.028954
v -0.019606 0.412200 -0.028954
v -0.026267 0.412200 -0.022294
v -0.025320 0.407200 -0.016170
v -0.026267 0.425941 -0.022294
v -0.025320 0.430941 -0.016170
v -0.031097 0.412200 -0.013929
v -0.031097 0.425941 -0.013929
v -0.033535 0.412200 -0.004830
v -0.029653 0.407200 -0.000000
v -0.033535 0.425941 -0.004830
v -0.029653 0.430941 -0.000000
v -0.033535 0.412200 0.004830
v -0.025320 0.407200 0.016170
v -0.033535 0.425941 0.004830
v -0.025320 0.430941 0.016170
v -0.031097 0.412200 0.013928
v -0.031097 0.425941 0.013928
v -0.026267 0.425941 0.022293
v -0.013483 0.430941 0.028007
v -0.026267 0.412200 0.022293
v -0.013483 0.407200 0.028007
v -0.019606 0.412200 0.028954
v -0.019606 0.425941 0.028954
v -0.011241 0.425941 0.033784
v -0.011241 0.412200 0.033784
v -0.002142 0.412200 0.036222
v 0.002687 0.407200 0.032340
v -0.002142 0.425941 0.036222
v 0.002687 0.430941 0.032340
v 0.007517 0.412200 0.036222
v 0.007517 0.425941 0.036222
v 0.016616 0.412200 0.033784
v 0.019290 0.407200 0.027891
v 0.016616 0.425941 0.033784
v 0.019290 0.430941 0.027891
v 0.025530 0.412200 0.029607
v 0.033462 0.407118 0.013883
v 0.025530 0.425941 0.029607
v 0.033462 0.431024 0.013883
v 0.040168 0.412567 0.019018
v 0.101264 0.407506 0.013924
v 0.040168 0.425575 0.019018
v 0.101264 0.430636 0.013924
v 0.099221 0.412905 0.019050
v 0.099221 0.425237 0.019050
v 0.106742 0.425175 0.014445
v 0.109434 0.430742 -0.000000
v 0.106742 0.412967 0.014445
v 0.109434 0.407400 -0.000000
v 0.112684 0.425175 0.004313
v 0.112684 0.425175 -0.004313
v 0.112684 0.412967 0.004313
v 0.112684 0.412967 -0.004313
v 0.106742 0.006325 0.014445
v 0.109434 0.011185 -0.000000
v 0.112684 0.006325 0.004313
v 0.112684 -0.006324 0.004313
v 0.101264 0.011084 0.013924
v 0.106742 -0.006324 0.014445
v 0.109434 -0.011185 -0.000000
v 0.101264 -0.011084 0.013924
v 0.099221 -0.007421 0.019050
v 0.099221 0.007421 0.019050
v 0.040168 -0.006504 0.018845
v 0.033462 -0.011953 0.013892
v 0.040168 0.006504 0.018845
v 0.033462 0.011953 0.013892
v 0.025530 -0.006870 0.029607
v 0.019290 -0.011870 0.027891
v 0.025530 0.006871 0.029607
v 0.019290 0.011871 0.027891
v 0.016616 -0.006870 0.033784
v 0.002687 -0.011870 0.032340
v 0.016616 0.006871 0.033784
v 0.002687 0.011871 0.032340
v 0.007517 -0.006870 0.036222
v 0.007517 0.006871 0.036222
v -0.002142 -0.006870 0.036222
v -0.013483 -0.011870 0.028007
v -0.002142 0.006871 0.036222
v -0.013483 0.011871 0.028007
v -0.011241 0.006871 0.033784
v -0.011241 -0.006870 0.033784
v -0.019606 -0.006870 0.028954
v -0.019606 0.006871 0.028954
v -0.026267 0.006871 0.022294
v -0.025320 0.011871 0.016170
v -0.026267 -0.006870 0.022294
v -0.025320 -0.011870 0.016170
v -0.031097 0.006871 0.013928
v -0.031097 -0.006870 0.013928
v -0.033535 0.006871 0.004830
v -0.029653 0.011871 -0.000000
v -0.033535 -0.006870 0.004830
v -0.029653 -0.011870 -0.000000
v -0.033535 0.006871 -0.004830
v -0.025320 0.011871 -0.016170
v -0.033535 -0.006870 -0.004830
v -0.025320 -0.011870 -0.016170
v -0.031097 0.006871 -0.013928
v -0.031097 -0.006870 -0.013928
v -0.026267 -0.006871 -0.022294
v -0.013483 -0.011871 -0.028007
v -0.026267 0.006871 -0.022294
v -0.013483 0.011871 -0.028007
v -0.019606 0.006871 -0.028954
v -0.019606 -0.006871 -0.028954
v -0.011241 -0.006871 -0.033784
v -0.011241 0.006871 -0.033784
v -0.002142 0.006871 -0.036222
v 0.002687 0.011871 -0.032340
v -0.002142 -0.006871 -0.036222
v 0.002687 -0.011871 -0.032340
v 0.007517 0.006871 -0.036222
v 0.007517 -0.006871 -0.036222
v 0.016616 0.006871 -0.033784
v 0.019290 0.011871 -0.027891
v 0.016616 -0.006871 -0.033784
v 0.019290 -0.011871 -0.027891
v 0.025530 0.006871 -0.029607
v 0.033462 0.011953 -0.014007
v 0.025530 -0.006871 -0.029607
v 0.033462 -0.011953 -0.014007
v 0.040168 0.006504 -0.018809
v 0.101264 0.011084 -0.013924
v 0.040168 -0.006504 -0.018809
v 0.101264 -0.011084 -0.013924
v 0.099221 0.007421 -0.019050
v 0.099221 -0.007421 -0.019050
v 0.106742 -0.006324 -0.014445
v 0.109434 -0.011185 -0.000000
v 0.106742 0.006325 -0.014445
v 0.109434 0.011185 -0.000000
v 0.112684 -0.006324 -0.004313
v 0.112684 -0.006324 0.004313
v 0.112684 0.006325 0.004313
v 0.112684 0.006325 -0.004313
vt 0.120117 0.109863
vt 0.778320 0.197266
vt 0.120117 0.197266
vt 0.252930 -0.022461
vt 0.778320 -0.022461
vt 0.054810 0.801636
vt 0.743652 0.805298
vt 0.054810 0.805298
vt 0.743652 0.801636
vt 0.743652 0.799316
vt 0.054779 0.799316
vt 0.748535 0.795776
vt 0.049683 0.795776
vt 0.758301 0.786011
vt 0.039734 0.786011
vt 0.039642 0.782593
vt 0.758301 0.782593
vt 0.758301 0.775024
vt 0.039551 0.775024
vt 0.039612 0.771729
vt 0.757812 0.771729
vt 0.757812 0.659180
vt 0.761230 0.660156
vt 0.760742 0.771240
vt 0.760742 0.774536
vt 0.768066 0.659912
vt 0.768555 0.774292
vt 0.768066 0.770996
vt 0.770996 0.771240
vt 0.771484 0.658447
vt 0.780762 0.761230
vt 0.780762 0.662598
vt 0.784180 0.756226
vt 0.786133 0.759521
vt 0.784180 0.666016
vt 0.788086 0.758667
vt 0.786621 0.755737
vt 0.786621 0.665771
vt 0.790039 0.755737
vt 0.790039 0.664307
vt 0.762207 0.659180
vt 0.759277 0.655762
vt 0.767578 0.653320
vt 0.610352 0.511230
vt 0.764160 0.650391
vt 0.767578 0.649170
vt 0.613281 0.510010
vt 0.619629 0.500977
vt 0.618652 0.504639
vt 0.771484 0.639404
vt 0.615234 0.501221
vt 0.609863 0.507324
vt 0.629395 0.497070
vt 0.634277 0.497070
vt 0.631836 0.493164
vt 0.771484 0.634277
vt 0.775391 0.636719
vt 0.776855 0.634766
vt 0.636230 0.495605
vt 0.633789 0.491699
vt 0.637207 0.492188
vt 0.772949 0.632324
vt 0.776367 0.631104
vt 0.039886 0.510986
vt 0.609375 0.507812
vt 0.039825 0.507568
vt 0.039948 0.500000
vt 0.609375 0.500000
vt 0.040070 0.496582
vt 0.610840 0.496582
vt 0.050018 0.486816
vt 0.606934 0.486816
vt 0.055115 0.483398
vt 0.603516 0.483398
vt 0.603516 0.480469
vt 0.055145 0.480469
vt 0.055145 0.477051
vt 0.604980 0.477051
vt 0.036865 0.510986
vt 0.037781 0.507812
vt 0.029739 0.506836
vt 0.036682 0.771240
vt 0.036896 0.774658
vt 0.029709 0.510254
vt 0.029465 0.770630
vt 0.028519 0.773804
vt 0.026825 0.509033
vt 0.026062 0.770020
vt 0.016144 0.758301
vt 0.017654 0.517578
vt 0.013077 0.752197
vt 0.010567 0.754883
vt 0.013298 0.520996
vt 0.012604 0.517334
vt 0.010475 0.517090
vt 0.011070 0.750854
vt 0.008728 0.753296
vt 0.007607 0.750244
vt 0.010857 0.520508
vt 0.007515 0.519531
vt 0.140015 0.428223
vt 0.132935 0.390137
vt 0.139893 0.394043
vt 0.125732 0.428223
vt 0.125977 0.394043
vt 0.132935 0.429199
vt 0.140259 0.431152
vt 0.147095 0.435547
vt 0.125488 0.431152
vt 0.118774 0.435547
vt 0.135742 0.433105
vt 0.130127 0.433105
vt 0.140503 0.436035
vt 0.125244 0.436035
vt 0.145508 0.436523
vt 0.143311 0.440918
vt 0.149292 0.443848
vt 0.147461 0.443848
vt 0.143311 0.446289
vt 0.147095 0.452148
vt 0.145508 0.451172
vt 0.140503 0.451172
vt 0.141113 0.458008
vt 0.140259 0.456543
vt 0.135620 0.454102
vt 0.132935 0.458496
vt 0.132935 0.459961
vt 0.130127 0.454102
vt 0.124756 0.458008
vt 0.125610 0.456543
vt 0.125244 0.451172
vt 0.120300 0.451172
vt 0.118774 0.452148
vt 0.122559 0.446289
vt 0.118347 0.443848
vt 0.116577 0.443848
vt 0.122559 0.440918
vt 0.120239 0.436523
vt 0.129395 0.319824
vt 0.136475 0.357910
vt 0.129517 0.354004
vt 0.143677 0.319824
vt 0.143555 0.354004
vt 0.136597 0.319336
vt 0.129150 0.316895
vt 0.122437 0.312988
vt 0.143921 0.316895
vt 0.150635 0.312988
vt 0.133789 0.314941
vt 0.139282 0.314941
vt 0.128906 0.312012
vt 0.144165 0.312012
vt 0.123901 0.311523
vt 0.126099 0.307129
vt 0.120178 0.304199
vt 0.121948 0.304199
vt 0.126099 0.301758
vt 0.122375 0.296387
vt 0.123901 0.296875
vt 0.128906 0.296875
vt 0.128296 0.290039
vt 0.129272 0.291504
vt 0.133789 0.293945
vt 0.136475 0.289551
vt 0.136475 0.288086
vt 0.139282 0.293945
vt 0.144775 0.290039
vt 0.143799 0.291504
vt 0.144165 0.296875
vt 0.149170 0.296875
vt 0.150757 0.296387
vt 0.146973 0.301758
vt 0.151123 0.304199
vt 0.152954 0.304199
vt 0.146973 0.307129
vt 0.149170 0.311523
vt 0.143677 0.045898
vt 0.136475 0.007812
vt 0.143555 0.011719
vt 0.129150 0.045898
vt 0.129517 0.011719
vt 0.136475 0.046875
vt 0.143921 0.048828
vt 0.150757 0.053223
vt 0.129150 0.048828
vt 0.122375 0.053223
vt 0.139404 0.050781
vt 0.133667 0.050781
vt 0.144165 0.053711
vt 0.128906 0.053711
vt 0.149292 0.054199
vt 0.146973 0.058594
vt 0.152954 0.061523
vt 0.151123 0.061523
vt 0.146973 0.064453
vt 0.150757 0.069824
vt 0.149170 0.068848
vt 0.144165 0.069336
vt 0.144775 0.075684
vt 0.143799 0.074219
vt 0.139282 0.071777
vt 0.136475 0.076172
vt 0.136475 0.078125
vt 0.133789 0.071777
vt 0.128296 0.075684
vt 0.129150 0.074219
vt 0.128906 0.069336
vt 0.123901 0.068848
vt 0.122314 0.069824
vt 0.126099 0.064453
vt 0.121887 0.061523
vt 0.120117 0.061523
vt 0.126099 0.058594
vt 0.123840 0.054199
vt 0.649902 0.283691
vt 0.657227 0.321777
vt 0.649902 0.317383
vt 0.664062 0.283691
vt 0.664062 0.317383
vt 0.657227 0.282715
vt 0.649902 0.280762
vt 0.643066 0.276367
vt 0.664551 0.280762
vt 0.671387 0.276367
vt 0.654297 0.278320
vt 0.659668 0.278320
vt 0.649414 0.275879
vt 0.664551 0.275879
vt 0.644531 0.275391
vt 0.646484 0.270996
vt 0.640625 0.268066
vt 0.642578 0.268066
vt 0.646484 0.265137
vt 0.643066 0.259766
vt 0.644531 0.260742
vt 0.649414 0.260254
vt 0.648926 0.253906
vt 0.649902 0.255371
vt 0.654297 0.257324
vt 0.657227 0.253418
vt 0.657227 0.251465
vt 0.659668 0.257324
vt 0.665039 0.253906
vt 0.664551 0.255371
vt 0.664551 0.260254
vt 0.669434 0.260742
vt 0.671387 0.259766
vt 0.667480 0.265137
vt 0.671387 0.268066
vt 0.673340 0.268066
vt 0.667480 0.270996
vt 0.669922 0.275391
vt 0.721680 0.257324
vt 0.717285 0.251465
vt 0.721680 0.251953
vt 0.728027 0.251953
vt 0.718262 0.259766
vt 0.727539 0.257324
vt 0.731934 0.251465
vt 0.730957 0.259766
vt 0.721680 0.261719
vt 0.727539 0.261719
vt 0.728027 0.291504
vt 0.732422 0.293457
vt 0.721191 0.291504
vt 0.716797 0.293457
vt 0.728027 0.300293
vt 0.731445 0.303223
vt 0.721191 0.300293
vt 0.717773 0.302734
vt 0.728027 0.305176
vt 0.731445 0.312012
vt 0.721191 0.305176
vt 0.717773 0.312012
vt 0.728027 0.309570
vt 0.721191 0.309570
vt 0.728027 0.314453
vt 0.731445 0.320801
vt 0.721191 0.314453
vt 0.717773 0.320801
vt 0.721191 0.318848
vt 0.728027 0.318848
vt 0.728027 0.323242
vt 0.721191 0.323242
vt 0.721191 0.327637
vt 0.717773 0.330078
vt 0.728027 0.327637
vt 0.731445 0.330078
vt 0.721191 0.332031
vt 0.728027 0.332031
vt 0.721191 0.336426
vt 0.717773 0.338867
vt 0.728027 0.336426
vt 0.731445 0.338867
vt 0.721191 0.341309
vt 0.717773 0.347656
vt 0.728027 0.341309
vt 0.731445 0.347656
vt 0.721191 0.345703
vt 0.728027 0.345703
vt 0.728027 0.350098
vt 0.731445 0.356934
vt 0.721191 0.350098
vt 0.717773 0.356445
vt 0.721191 0.354492
vt 0.728027 0.354492
vt 0.728027 0.358887
vt 0.721191 0.358887
vt 0.721191 0.363281
vt 0.717773 0.365723
vt 0.728027 0.363281
vt 0.731445 0.365723
vt 0.721191 0.368164
vt 0.728027 0.368164
vt 0.721191 0.372559
vt 0.717773 0.374512
vt 0.728027 0.372559
vt 0.730957 0.374512
vt 0.721191 0.376953
vt 0.716309 0.384277
vt 0.727539 0.376953
vt 0.732422 0.384277
vt 0.720703 0.386230
vt 0.717773 0.417969
vt 0.728027 0.386230
vt 0.730957 0.417969
vt 0.721191 0.416016
vt 0.727539 0.416016
vt 0.727539 0.419922
vt 0.730957 0.426758
vt 0.721191 0.419922
vt 0.717773 0.426758
vt 0.727539 0.425781
vt 0.727539 0.429688
vt 0.721191 0.425781
vt 0.721191 0.429688
vt 0.701172 0.422852
vt 0.705078 0.429199
vt 0.701660 0.428711
vt 0.694824 0.429199
vt 0.704102 0.420898
vt 0.694824 0.423340
vt 0.690918 0.429688
vt 0.691406 0.421387
vt 0.693848 0.419434
vt 0.701172 0.418945
vt 0.692383 0.389648
vt 0.687500 0.387695
vt 0.699219 0.389648
vt 0.703613 0.386719
vt 0.691895 0.380371
vt 0.688477 0.377930
vt 0.698730 0.380371
vt 0.701660 0.377441
vt 0.691406 0.375488
vt 0.687988 0.368652
vt 0.698242 0.375488
vt 0.701660 0.368652
vt 0.691406 0.371094
vt 0.698242 0.371094
vt 0.691406 0.366699
vt 0.687988 0.359863
vt 0.698242 0.366699
vt 0.701660 0.359863
vt 0.698242 0.362305
vt 0.691406 0.362305
vt 0.691406 0.357422
vt 0.698242 0.357422
vt 0.698242 0.353027
vt 0.701660 0.351074
vt 0.691406 0.353027
vt 0.687988 0.351074
vt 0.698730 0.348633
vt 0.691406 0.348633
vt 0.698730 0.344238
vt 0.702148 0.342285
vt 0.691895 0.344238
vt 0.688477 0.341797
vt 0.698730 0.339844
vt 0.702148 0.333496
vt 0.691895 0.339844
vt 0.688477 0.333008
vt 0.698730 0.335449
vt 0.691895 0.335449
vt 0.691895 0.330566
vt 0.688965 0.323730
vt 0.698730 0.331055
vt 0.702637 0.324219
vt 0.699219 0.326660
vt 0.691895 0.326172
vt 0.692383 0.321777
vt 0.699219 0.322266
vt 0.699219 0.317871
vt 0.702637 0.315430
vt 0.692383 0.317383
vt 0.688965 0.314941
vt 0.699707 0.312988
vt 0.692871 0.312988
vt 0.699707 0.308594
vt 0.703125 0.306641
vt 0.692871 0.308105
vt 0.689453 0.305664
vt 0.699707 0.303711
vt 0.705078 0.297363
vt 0.693359 0.303711
vt 0.688965 0.296387
vt 0.700684 0.294922
vt 0.706055 0.263184
vt 0.693848 0.294434
vt 0.692871 0.262695
vt 0.703125 0.265137
vt 0.695801 0.264648
vt 0.696289 0.260742
vt 0.693848 0.253906
vt 0.702637 0.261230
vt 0.706543 0.254883
vt 0.696777 0.255371
vt 0.696777 0.250977
vt 0.703613 0.251465
vt 0.703125 0.255859
vt1 0.776367 0.821167
vt1 0.874512 0.084473
vt1 0.874512 0.821167
vt1 0.627441 0.672363
vt1 0.627441 0.084473
vt1 0.083801 0.129883
vt1 0.079956 0.867554
vt1 0.079956 0.129883
vt1 0.083801 0.867554
vt1 0.086426 0.867554
vt1 0.086426 0.129883
vt1 0.090149 0.872925
vt1 0.090149 0.124512
vt1 0.100647 0.883423
vt1 0.100647 0.113770
vt1 0.104248 0.113770
vt1 0.104248 0.883301
vt1 0.112244 0.883179
vt1 0.112244 0.113770
vt1 0.115540 0.113770
vt1 0.115723 0.882507
vt1 0.236206 0.882568
vt1 0.235352 0.885376
vt1 0.116394 0.885376
vt1 0.112793 0.884888
vt1 0.235596 0.892944
vt1 0.113098 0.893555
vt1 0.116638 0.892883
vt1 0.116333 0.896240
vt1 0.237183 0.896179
vt1 0.126953 0.906311
vt1 0.232788 0.906433
vt1 0.132324 0.910156
vt1 0.128784 0.912109
vt1 0.229004 0.910034
vt1 0.129639 0.914307
vt1 0.132935 0.912659
vt1 0.229248 0.912598
vt1 0.132812 0.916382
vt1 0.230957 0.916382
vt1 0.236206 0.886719
vt1 0.239746 0.883423
vt1 0.242432 0.892517
vt1 0.394287 0.724609
vt1 0.245483 0.888794
vt1 0.246826 0.892395
vt1 0.395752 0.727783
vt1 0.405273 0.733887
vt1 0.401367 0.732910
vt1 0.257324 0.896545
vt1 0.405029 0.729492
vt1 0.398438 0.723877
vt1 0.409424 0.744385
vt1 0.409424 0.749756
vt1 0.413818 0.747070
vt1 0.262695 0.896667
vt1 0.260010 0.900940
vt1 0.261963 0.902405
vt1 0.411133 0.751831
vt1 0.415283 0.749268
vt1 0.415039 0.753296
vt1 0.264648 0.898315
vt1 0.266113 0.902222
vt1 0.394531 0.114258
vt1 0.397949 0.723633
vt1 0.397949 0.113770
vt1 0.406250 0.114258
vt1 0.406250 0.723877
vt1 0.409912 0.114258
vt1 0.409912 0.725586
vt1 0.420654 0.125000
vt1 0.420654 0.721191
vt1 0.424316 0.130371
vt1 0.424316 0.717529
vt1 0.427002 0.717529
vt1 0.427002 0.130371
vt1 0.430908 0.130371
vt1 0.430908 0.718994
vt1 0.394531 0.111328
vt1 0.397949 0.112305
vt1 0.398438 0.103516
vt1 0.115784 0.111328
vt1 0.112244 0.111816
vt1 0.394775 0.103516
vt1 0.116211 0.103516
vt1 0.112732 0.103027
vt1 0.395996 0.100098
vt1 0.116638 0.100098
vt1 0.129395 0.088867
vt1 0.386719 0.089844
vt1 0.136597 0.085938
vt1 0.134644 0.082520
vt1 0.383545 0.084961
vt1 0.386719 0.085449
vt1 0.388184 0.084473
vt1 0.139282 0.083984
vt1 0.137573 0.081055
vt1 0.140869 0.080078
vt1 0.385498 0.083008
vt1 0.387695 0.080566
vt1 0.522461 0.735352
vt1 0.522461 0.777100
vt1 0.516113 0.771484
vt1 0.537598 0.738281
vt1 0.530762 0.774170
vt1 0.530273 0.735840
vt1 0.522461 0.732178
vt1 0.516113 0.726318
vt1 0.538086 0.735107
vt1 0.546387 0.731934
vt1 0.527832 0.730713
vt1 0.533691 0.731934
vt1 0.523438 0.726807
vt1 0.539551 0.729736
vt1 0.518066 0.725342
vt1 0.521484 0.721191
vt1 0.515625 0.717041
vt1 0.517578 0.717285
vt1 0.522461 0.715088
vt1 0.519531 0.708740
vt1 0.520996 0.709961
vt1 0.526367 0.710449
vt1 0.526855 0.703369
vt1 0.527832 0.705078
vt1 0.532227 0.708496
vt1 0.535645 0.704590
vt1 0.536133 0.702637
vt1 0.538086 0.709473
vt1 0.544434 0.706543
vt1 0.542969 0.708008
vt1 0.542480 0.713379
vt1 0.547852 0.714844
vt1 0.549805 0.714111
vt1 0.544434 0.719238
vt1 0.548340 0.722900
vt1 0.550293 0.723389
vt1 0.543457 0.725098
vt1 0.544922 0.730469
vt1 0.776367 0.913330
vt1 0.818359 0.913025
vt1 0.812500 0.919678
vt1 0.779297 0.898010
vt1 0.815430 0.904846
vt1 0.776855 0.905457
vt1 0.773438 0.912964
vt1 0.767578 0.919312
vt1 0.776367 0.897217
vt1 0.772949 0.889160
vt1 0.771973 0.907654
vt1 0.772949 0.901611
vt1 0.768066 0.912231
vt1 0.770996 0.895935
vt1 0.766602 0.917542
vt1 0.762207 0.914246
vt1 0.757812 0.920044
vt1 0.758301 0.918152
vt1 0.756348 0.913086
vt1 0.749512 0.916077
vt1 0.750977 0.914612
vt1 0.751465 0.909180
vt1 0.744629 0.908569
vt1 0.746094 0.907898
vt1 0.749512 0.903503
vt1 0.745605 0.899719
vt1 0.743652 0.899414
vt1 0.750488 0.897583
vt1 0.747559 0.891113
vt1 0.749023 0.892334
vt1 0.754395 0.893005
vt1 0.755859 0.887695
vt1 0.755371 0.885864
vt1 0.760254 0.890991
vt1 0.764160 0.887024
vt1 0.764648 0.885132
vt1 0.766113 0.892090
vt1 0.771484 0.890503
vt1 0.431641 0.877075
vt1 0.430664 0.835327
vt1 0.437256 0.840942
vt1 0.416016 0.874512
vt1 0.422363 0.838501
vt1 0.423828 0.876892
vt1 0.431152 0.880249
vt1 0.437744 0.886108
vt1 0.415527 0.877625
vt1 0.407471 0.881042
vt1 0.426025 0.881897
vt1 0.419922 0.880859
vt1 0.430664 0.885742
vt1 0.414307 0.882996
vt1 0.436035 0.887024
vt1 0.432617 0.891418
vt1 0.438477 0.895508
vt1 0.436768 0.895203
vt1 0.431641 0.897400
vt1 0.434814 0.903870
vt1 0.433350 0.902649
vt1 0.427734 0.902100
vt1 0.427246 0.909241
vt1 0.426514 0.907410
vt1 0.422119 0.904175
vt1 0.418457 0.908203
vt1 0.418213 0.910095
vt1 0.416260 0.903198
vt1 0.409668 0.906250
vt1 0.410889 0.904785
vt1 0.411621 0.899353
vt1 0.406250 0.898132
vt1 0.404541 0.898804
vt1 0.409424 0.893677
vt1 0.405518 0.889954
vt1 0.403564 0.889648
vt1 0.410400 0.887695
vt1 0.408936 0.882446
vt1 0.556152 0.885437
vt1 0.555176 0.843628
vt1 0.562012 0.849243
vt1 0.540527 0.882812
vt1 0.546875 0.846680
vt1 0.548340 0.885132
vt1 0.555664 0.888611
vt1 0.562012 0.894409
vt1 0.540039 0.885864
vt1 0.531738 0.889221
vt1 0.550293 0.890137
vt1 0.544434 0.889160
vt1 0.555176 0.894043
vt1 0.538574 0.891235
vt1 0.560059 0.895325
vt1 0.557129 0.899719
vt1 0.562988 0.903809
vt1 0.561035 0.903503
vt1 0.556152 0.905701
vt1 0.559082 0.912170
vt1 0.557617 0.910950
vt1 0.552246 0.910400
vt1 0.551758 0.917542
vt1 0.550781 0.915710
vt1 0.546387 0.912476
vt1 0.542969 0.916504
vt1 0.542480 0.918396
vt1 0.540527 0.911438
vt1 0.534180 0.914490
vt1 0.535156 0.913025
vt1 0.536133 0.907593
vt1 0.530762 0.906311
vt1 0.528809 0.906982
vt1 0.533691 0.901917
vt1 0.529785 0.898132
vt1 0.527832 0.897827
vt1 0.534668 0.895935
vt1 0.533203 0.890686
vt1 0.500488 0.452148
vt1 0.496094 0.445312
vt1 0.500488 0.446289
vt1 0.507324 0.446289
vt1 0.497070 0.454590
vt1 0.507324 0.452148
vt1 0.511719 0.445312
vt1 0.510742 0.454590
vt1 0.500488 0.456543
vt1 0.507324 0.456543
vt1 0.507324 0.488770
vt1 0.512207 0.491211
vt1 0.500000 0.488770
vt1 0.495361 0.491211
vt1 0.507324 0.498535
vt1 0.511230 0.501221
vt1 0.500000 0.498535
vt1 0.496582 0.501221
vt1 0.507324 0.503662
vt1 0.511230 0.510986
vt1 0.500000 0.503662
vt1 0.496582 0.510986
vt1 0.507324 0.508301
vt1 0.500000 0.508301
vt1 0.507324 0.513428
vt1 0.511230 0.520508
vt1 0.500000 0.513428
vt1 0.496338 0.520508
vt1 0.500000 0.518066
vt1 0.507324 0.518066
vt1 0.507324 0.522949
vt1 0.500000 0.522949
vt1 0.500000 0.527832
vt1 0.496338 0.530273
vt1 0.507324 0.527832
vt1 0.511230 0.530273
vt1 0.500000 0.532715
vt1 0.507324 0.532715
vt1 0.500000 0.537598
vt1 0.496338 0.540039
vt1 0.507324 0.537598
vt1 0.511230 0.540039
vt1 0.500000 0.542480
vt1 0.496338 0.549561
vt1 0.507324 0.542480
vt1 0.511230 0.549561
vt1 0.500000 0.547119
vt1 0.507324 0.547119
vt1 0.507324 0.552246
vt1 0.510742 0.559326
vt1 0.500000 0.552002
vt1 0.496338 0.559326
vt1 0.500000 0.556885
vt1 0.507324 0.556885
vt1 0.507324 0.561768
vt1 0.500000 0.561768
vt1 0.500000 0.566650
vt1 0.496338 0.569092
vt1 0.507324 0.566650
vt1 0.510742 0.569092
vt1 0.500000 0.571533
vt1 0.507324 0.571533
vt1 0.500000 0.576416
vt1 0.496338 0.578613
vt1 0.507324 0.576416
vt1 0.510742 0.578857
vt1 0.500000 0.581543
vt1 0.494873 0.588867
vt1 0.506836 0.581543
vt1 0.511719 0.588867
vt1 0.499756 0.591309
vt1 0.496338 0.625488
vt1 0.506836 0.591309
vt1 0.510254 0.625732
vt1 0.500000 0.623291
vt1 0.506836 0.623535
vt1 0.506348 0.627686
vt1 0.510254 0.635010
vt1 0.500000 0.627686
vt1 0.496094 0.635010
vt1 0.506348 0.633789
vt1 0.506836 0.638184
vt1 0.500000 0.633545
vt1 0.499512 0.638184
vt1 0.509277 0.324219
vt1 0.514160 0.331055
vt1 0.509766 0.330566
vt1 0.502441 0.330566
vt1 0.512695 0.321777
vt1 0.502441 0.324707
vt1 0.498779 0.331543
vt1 0.499023 0.322754
vt1 0.501953 0.320312
vt1 0.509766 0.319824
vt1 0.499756 0.288574
vt1 0.494873 0.286133
vt1 0.507324 0.288086
vt1 0.511719 0.285156
vt1 0.499512 0.278320
vt1 0.495605 0.275879
vt1 0.506348 0.277832
vt1 0.510254 0.275391
vt1 0.499268 0.272949
vt1 0.495361 0.265625
vt1 0.506348 0.272949
vt1 0.510254 0.265625
vt1 0.499023 0.268066
vt1 0.506348 0.268066
vt1 0.499023 0.263184
vt1 0.495361 0.255859
vt1 0.506348 0.263184
vt1 0.510254 0.255859
vt1 0.506348 0.258301
vt1 0.499023 0.258301
vt1 0.499023 0.253418
vt1 0.506348 0.253418
vt1 0.506348 0.249023
vt1 0.510254 0.246582
vt1 0.499023 0.249023
vt1 0.495605 0.246094
vt1 0.506348 0.244141
vt1 0.499268 0.243652
vt1 0.506836 0.239258
vt1 0.510254 0.236816
vt1 0.499268 0.239258
vt1 0.495605 0.236328
vt1 0.506836 0.234375
vt1 0.510742 0.227051
vt1 0.499268 0.234375
vt1 0.495850 0.226562
vt1 0.506836 0.229492
vt1 0.499512 0.229492
vt1 0.499512 0.224609
vt1 0.496094 0.216797
vt1 0.506836 0.224609
vt1 0.510742 0.217285
vt1 0.506836 0.219727
vt1 0.499756 0.219727
vt1 0.500000 0.214844
vt1 0.507324 0.214844
vt1 0.507324 0.209961
vt1 0.511230 0.208008
vt1 0.500000 0.209961
vt1 0.496582 0.207520
vt1 0.507812 0.205078
vt1 0.500000 0.205078
vt1 0.507812 0.200684
vt1 0.511719 0.198242
vt1 0.500488 0.200195
vt1 0.497070 0.197266
vt1 0.508301 0.195312
vt1 0.513184 0.188477
vt1 0.500977 0.194824
vt1 0.496582 0.187012
vt1 0.508789 0.185547
vt1 0.514648 0.151855
vt1 0.501465 0.185059
vt1 0.500977 0.150879
vt1 0.511230 0.153809
vt1 0.503418 0.152832
vt1 0.504395 0.148926
vt1 0.501465 0.141113
vt1 0.511230 0.149414
vt1 0.515137 0.142090
vt1 0.504883 0.143066
vt1 0.504883 0.138184
vt1 0.512207 0.138672
vt1 0.511719 0.143555
vn 0.000000 0.000000 1.000000
vn 0.000000 0.000000 1.000000
vn 0.000000 0.000000 1.000000
vn 0.000000 0.000000 1.000000
vn 0.000000 0.000000 1.000000
vn 0.000000 -0.708661 0.708661
vn 0.000000 0.000000 1.000000
vn 0.000000 0.000000 1.000000
vn 0.000000 -0.708661 0.708661
vn 0.000000 -0.708661 0.708661
vn 0.000000 -0.708661 0.708661
vn 0.000000 0.000000 1.000000
vn 0.000000 0.000000 1.000000
vn 0.000000 0.000000 1.000000
vn 0.000000 0.000000 1.000000
vn 0.000000 1.000000 -0.000000
vn 0.000000 1.000000 -0.000000
vn 0.000000 1.000000 -0.000000
vn 0.000000 1.000000 -0.000000
vn 0.000000 -0.000000 -1.000000
vn 0.000000 -0.000000 -1.000000
vn 0.000000 -0.000000 -1.000000
vn 1.000000 0.000000 0.000000
vn 1.000000 0.000000 0.000000
vn 0.000000 1.000000 -0.000000
vn 1.000000 0.000000 0.000000
vn 0.000000 1.000000 -0.000000
vn 1.000000 0.000000 0.000000
vn 0.000000 0.000000 1.000000
vn 0.000000 0.000000 1.000000
vn 0.000000 0.000000 1.000000
vn 0.000000 0.000000 1.000000
vn -0.708661 0.000000 0.708661
vn 0.000000 -0.708661 0.708661
vn -0.708661 0.000000 0.708661
vn 0.000000 -0.708661 0.708661
vn -0.708661 0.000000 0.708661
vn -0.708661 0.000000 0.708661
vn 0.000000 0.000000 1.000000
vn 0.000000 0.000000 1.000000
vn 1.000000 0.000000 0.000000
vn 0.708661 -0.708661 0.000000
vn 1.000000 0.000000 0.000000
vn 0.000000 -0.000000 -1.000000
vn 0.708661 -0.708661 0.000000
vn 0.000000 0.000000 1.000000
vn 0.708661 -0.708661 0.000000
vn 0.000000 0.000000 1.000000
vn 0.708661 -0.708661 0.000000
vn 0.000000 0.000000 1.000000
vn 0.000000 -1.000000 0.000000
vn 0.000000 -1.000000 0.000000
vn 0.000000 0.000000 1.000000
vn -0.503937 0.503937 0.708661
vn 0.000000 0.708661 0.708661
vn -0.503937 0.503937 0.708661
vn -0.708661 0.000000 0.708661
vn -0.708661 0.000000 0.708661
vn -0.503937 0.503937 0.708661
vn 0.000000 0.708661 0.708661
vn 0.000000 0.000000 1.000000
vn -0.503937 0.503937 0.708661
vn 0.000000 0.000000 1.000000
vn 0.000000 -0.000000 -1.000000
vn 0.000000 -1.000000 0.000000
vn 0.000000 -1.000000 0.000000
vn 0.000000 -1.000000 0.000000
vn 0.000000 -1.000000 0.000000
vn 0.000000 0.000000 1.000000
vn 0.000000 0.000000 1.000000
vn 0.000000 0.000000 1.000000
vn 0.000000 0.000000 1.000000
vn 0.000000 0.708661 0.708661
vn 0.000000 0.708661 0.708661
vn 0.000000 0.708661 0.708661
vn 0.000000 0.708661 0.708661
vn 0.000000 0.000000 1.000000
vn 0.000000 0.000000 1.000000
vn -1.000000 0.000000 0.000000
vn 0.000000 -1.000000 0.000000
vn 0.000000 -1.000000 0.000000
vn -1.000000 0.000000 0.000000
vn 0.000000 1.000000 -0.000000
vn -1.000000 0.000000 0.000000
vn -1.000000 0.000000 0.000000
vn 0.000000 1.000000 -0.000000
vn 0.000000 0.000000 1.000000
vn 0.000000 0.000000 1.000000
vn 0.000000 0.000000 1.000000
vn 0.000000 0.000000 1.000000
vn 0.708661 0.000000 0.708661
vn 0.000000 -0.708661 0.708661
vn 0.708661 0.000000 0.708661
vn 0.000000 0.708661 0.708661
vn 0.000000 0.708661 0.708661
vn 0.708661 0.000000 0.708661
vn 0.000000 -0.708661 0.708661
vn 0.000000 0.000000 1.000000
vn 0.708661 0.000000 0.708661
vn 0.000000 0.000000 1.000000
vn 0.007874 1.000000 -0.007874
vn 0.007874 1.000000 -0.000000
vn 0.015748 1.000000 0.015748
vn 0.007874 1.000000 0.007874
vn 0.015748 1.000000 -0.015748
vn 0.007874 1.000000 -0.000000
vn 0.007874 1.000000 -0.007874
vn -0.007874 1.000000 -0.000000
vn 0.007874 1.000000 0.007874
vn -0.007874 1.000000 -0.000000
vn -0.685039 0.708661 -0.181102
vn -0.685039 0.708661 0.181102
vn -0.503937 0.708661 -0.496063
vn -0.503937 0.708661 0.496063
vn -0.007874 1.000000 -0.000000
vn -0.181102 0.708661 -0.685039
vn 0.000000 1.000000 -0.000000
vn 0.000000 1.000000 -0.000000
vn 0.181102 0.708661 -0.685039
vn 0.000000 1.000000 -0.000000
vn 0.000000 1.000000 -0.000000
vn 0.503937 0.708661 -0.496063
vn 0.000000 1.000000 -0.000000
vn 0.000000 1.000000 -0.000000
vn 0.685039 0.708661 -0.181102
vn 0.000000 1.000000 -0.000000
vn 0.000000 1.000000 -0.000000
vn 0.685039 0.708661 0.181102
vn 0.000000 1.000000 -0.000000
vn 0.000000 1.000000 -0.000000
vn 0.503937 0.708661 0.496063
vn 0.000000 1.000000 -0.000000
vn 0.000000 1.000000 -0.000000
vn 0.181102 0.708661 0.685039
vn 0.000000 1.000000 -0.000000
vn 0.000000 1.000000 -0.000000
vn -0.181102 0.708661 0.685039
vn -0.007874 1.000000 -0.000000
vn 0.007874 -1.000000 0.007874
vn 0.007874 -1.000000 0.000000
vn 0.015748 -1.000000 -0.015748
vn 0.007874 -1.000000 -0.007874
vn 0.015748 -1.000000 0.015748
vn 0.007874 -1.000000 0.000000
vn 0.007874 -1.000000 0.007874
vn -0.007874 -1.000000 0.000000
vn 0.007874 -1.000000 -0.007874
vn -0.007874 -1.000000 0.000000
vn -0.685039 -0.708661 0.181102
vn -0.685039 -0.708661 -0.181102
vn -0.496063 -0.708661 0.496063
vn -0.496063 -0.708661 -0.496063
vn -0.007874 -1.000000 0.000000
vn -0.181102 -0.708661 0.685039
vn 0.000000 -1.000000 0.000000
vn 0.000000 -1.000000 0.000000
vn 0.181102 -0.708661 0.685039
vn 0.000000 -1.000000 0.000000
vn 0.000000 -1.000000 0.000000
vn 0.503937 -0.708661 0.496063
vn 0.000000 -1.000000 0.000000
vn 0.000000 -1.000000 0.000000
vn 0.685039 -0.708661 0.181102
vn 0.000000 -1.000000 0.000000
vn 0.000000 -1.000000 0.000000
vn 0.685039 -0.708661 -0.181102
vn 0.000000 -1.000000 0.000000
vn 0.000000 -1.000000 0.000000
vn 0.503937 -0.708661 -0.496063
vn 0.000000 -1.000000 0.000000
vn 0.000000 -1.000000 0.000000
vn 0.181102 -0.708661 -0.685039
vn 0.000000 -1.000000 0.000000
vn 0.000000 -1.000000 0.000000
vn -0.181102 -0.708661 -0.685039
vn -0.007874 -1.000000 0.000000
vn 0.000000 1.000000 -0.007874
vn 0.000000 1.000000 -0.000000
vn 0.007874 1.000000 0.007874
vn 0.000000 1.000000 0.007874
vn 0.007874 1.000000 -0.007874
vn 0.000000 1.000000 -0.000000
vn 0.000000 1.000000 -0.007874
vn -0.007874 1.000000 -0.000000
vn 0.000000 1.000000 0.007874
vn -0.007874 1.000000 -0.000000
vn -0.685039 0.708661 -0.181102
vn -0.685039 0.708661 0.181102
vn -0.503937 0.708661 -0.496063
vn -0.503937 0.708661 0.496063
vn -0.007874 1.000000 -0.000000
vn -0.181102 0.708661 -0.685039
vn 0.000000 1.000000 -0.000000
vn 0.000000 1.000000 -0.000000
vn 0.181102 0.708661 -0.685039
vn 0.000000 1.000000 -0.000000
vn 0.000000 1.000000 -0.000000
vn 0.503937 0.708661 -0.496063
vn 0.000000 1.000000 -0.000000
vn 0.000000 1.000000 -0.000000
vn 0.685039 0.708661 -0.181102
vn 0.000000 1.000000 -0.000000
vn 0.000000 1.000000 -0.000000
vn 0.685039 0.708661 0.181102
vn 0.000000 1.000000 -0.000000
vn 0.000000 1.000000 -0.000000
vn 0.503937 0.708661 0.496063
vn 0.000000 1.000000 -0.000000
vn 0.000000 1.000000 -0.000000
vn 0.181102 0.708661 0.685039
vn 0.000000 1.000000 -0.000000
vn 0.000000 1.000000 -0.000000
vn -0.181102 0.708661 0.685039
vn -0.007874 1.000000 -0.000000
vn 0.000000 -1.000000 0.007874
vn 0.000000 -1.000000 0.000000
vn 0.007874 -1.000000 -0.007874
vn 0.000000 -1.000000 -0.007874
vn 0.007874 -1.000000 0.007874
vn 0.000000 -1.000000 0.000000
vn 0.000000 -1.000000 0.007874
vn -0.007874 -1.000000 0.000000
vn 0.000000 -1.000000 -0.007874
vn -0.007874 -1.000000 0.000000
vn -0.685039 -0.708661 0.181102
vn -0.685039 -0.708661 -0.181102
vn -0.496063 -0.708661 0.496063
vn -0.496063 -0.708661 -0.496063
vn -0.007874 -1.000000 0.000000
vn -0.181102 -0.708661 0.685039
vn 0.000000 -1.000000 0.000000
vn 0.000000 -1.000000 0.000000
vn 0.181102 -0.708661 0.685039
vn 0.000000 -1.000000 0.000000
vn 0.000000 -1.000000 0.000000
vn 0.503937 -0.708661 0.496063
vn 0.000000 -1.000000 0.000000
vn 0.000000 -1.000000 0.000000
vn 0.685039 -0.708661 0.181102
vn 0.000000 -1.000000 0.000000
vn 0.000000 -1.000000 0.000000
vn 0.685039 -0.708661 -0.181102
vn 0.000000 -1.000000 0.000000
vn 0.000000 -1.000000 0.000000
vn 0.503937 -0.708661 -0.496063
vn 0.000000 -1.000000 0.000000
vn 0.000000 -1.000000 0.000000
vn 0.181102 -0.708661 -0.685039
vn 0.000000 -1.000000 0.000000
vn 0.000000 -1.000000 0.000000
vn -0.181102 -0.708661 -0.685039
vn -0.007874 -1.000000 0.000000
vn 0.866142 -0.000000 -0.503937
vn 0.000000 -1.000000 0.000000
vn 0.866142 -0.000000 -0.503937
vn 0.866142 -0.000000 -0.503937
vn 0.007874 -1.000000 -0.007874
vn 0.866142 -0.000000 -0.503937
vn 0.000000 1.000000 -0.000000
vn 0.007874 1.000000 -0.007874
vn 0.000000 -0.000000 -1.000000
vn 0.000000 -0.000000 -1.000000
vn 0.000000 -0.000000 -1.000000
vn 0.000000 1.000000 0.007874
vn 0.000000 -0.000000 -1.000000
vn 0.000000 -1.000000 0.007874
vn 0.582677 -0.000000 -0.811023
vn -0.007874 1.000000 -0.000000
vn 0.582677 -0.000000 -0.811023
vn -0.007874 -1.000000 0.000000
vn 0.425197 -0.000000 -0.905512
vn 0.000000 1.000000 -0.000000
vn 0.425197 -0.000000 -0.905512
vn 0.000000 -1.000000 0.000000
vn 0.000000 -0.000000 -1.000000
vn 0.000000 -0.000000 -1.000000
vn 0.000000 -0.000000 -1.000000
vn 0.000000 1.000000 -0.000000
vn 0.000000 -0.000000 -1.000000
vn 0.000000 -1.000000 0.000000
vn -0.503937 -0.000000 -0.866142
vn -0.503937 -0.000000 -0.866142
vn -0.503937 -0.000000 -0.866142
vn -0.503937 -0.000000 -0.866142
vn -0.866142 -0.000000 -0.503937
vn 0.000000 -1.000000 0.000000
vn -0.866142 -0.000000 -0.503937
vn 0.000000 1.000000 -0.000000
vn -0.866142 -0.000000 -0.503937
vn -0.866142 -0.000000 -0.503937
vn -1.000000 0.000000 0.000000
vn 0.000000 -1.000000 0.000000
vn -1.000000 0.000000 0.000000
vn 0.000000 1.000000 -0.000000
vn -1.000000 0.000000 0.000000
vn 0.000000 -1.000000 0.000000
vn -1.000000 0.000000 0.000000
vn 0.000000 1.000000 -0.000000
vn -0.866142 0.000000 0.503937
vn -0.866142 0.000000 0.503937
vn -0.866142 0.000000 0.503937
vn 0.000000 1.000000 -0.000000
vn -0.866142 0.000000 0.503937
vn 0.000000 -1.000000 0.000000
vn -0.503937 0.000000 0.866142
vn -0.503937 0.000000 0.866142
vn -0.503937 0.000000 0.866142
vn -0.503937 0.000000 0.866142
vn 0.000000 0.000000 1.000000
vn 0.000000 -1.000000 0.000000
vn 0.000000 0.000000 1.000000
vn 0.000000 1.000000 -0.000000
vn 0.000000 0.000000 1.000000
vn 0.000000 0.000000 1.000000
vn 0.425197 0.000000 0.905512
vn -0.007874 -1.000000 0.000000
vn 0.425197 0.000000 0.905512
vn -0.007874 1.000000 -0.000000
vn 0.582677 0.000000 0.811023
vn 0.000000 -1.000000 -0.007874
vn 0.582677 0.000000 0.811023
vn 0.000000 1.000000 -0.007874
vn 0.000000 0.000000 1.000000
vn 0.007874 -1.000000 0.007874
vn 0.000000 0.000000 1.000000
vn 0.007874 1.000000 0.007874
vn 0.000000 0.000000 1.000000
vn 0.000000 0.000000 1.000000
vn 0.866142 0.000000 0.503937
vn 0.000000 1.000000 -0.000000
vn 0.866142 0.000000 0.503937
vn 0.000000 -1.000000 0.000000
vn 0.866142 0.000000 0.503937
vn 0.866142 -0.000000 -0.503937
vn 0.866142 0.000000 0.503937
vn 0.866142 -0.000000 -0.503937
vn 0.866142 0.000000 0.503937
vn 0.007874 1.000000 -0.000000
vn 0.866142 0.000000 0.503937
vn 0.866142 0.000000 0.503937
vn 0.015748 1.000000 0.015748
vn 0.866142 0.000000 0.503937
vn 0.007874 -1.000000 0.000000
vn 0.015748 -1.000000 0.015748
vn 0.000000 0.000000 1.000000
vn 0.000000 0.000000 1.000000
vn 0.000000 0.000000 1.000000
vn 0.007874 -1.000000 -0.007874
vn 0.000000 0.000000 1.000000
vn 0.007874 1.000000 -0.007874
vn 0.590551 0.000000 0.803149
vn -0.007874 -1.000000 0.000000
vn 0.590551 0.000000 0.803149
vn -0.007874 1.000000 -0.000000
vn 0.425197 0.000000 0.905512
vn 0.000000 -1.000000 0.000000
vn 0.425197 0.000000 0.905512
vn 0.000000 1.000000 -0.000000
vn 0.000000 0.000000 1.000000
vn 0.000000 0.000000 1.000000
vn 0.000000 0.000000 1.000000
vn 0.000000 -1.000000 0.000000
vn 0.000000 0.000000 1.000000
vn 0.000000 1.000000 -0.000000
vn -0.503937 0.000000 0.866142
vn -0.503937 0.000000 0.866142
vn -0.503937 0.000000 0.866142
vn -0.503937 0.000000 0.866142
vn -0.866142 0.000000 0.503937
vn 0.000000 1.000000 -0.000000
vn -0.866142 0.000000 0.503937
vn 0.000000 -1.000000 0.000000
vn -0.866142 0.000000 0.503937
vn -0.866142 0.000000 0.503937
vn -1.000000 0.000000 0.000000
vn 0.000000 1.000000 -0.000000
vn -1.000000 0.000000 0.000000
vn 0.000000 -1.000000 0.000000
vn -1.000000 0.000000 0.000000
vn 0.000000 1.000000 -0.000000
vn -1.000000 0.000000 0.000000
vn 0.000000 -1.000000 0.000000
vn -0.866142 -0.000000 -0.503937
vn -0.866142 -0.000000 -0.503937
vn -0.866142 -0.000000 -0.503937
vn 0.000000 -1.000000 0.000000
vn -0.866142 -0.000000 -0.503937
vn 0.000000 1.000000 -0.000000
vn -0.503937 -0.000000 -0.866142
vn -0.503937 -0.000000 -0.866142
vn -0.503937 -0.000000 -0.866142
vn -0.503937 -0.000000 -0.866142
vn 0.000000 -0.000000 -1.000000
vn 0.000000 1.000000 -0.000000
vn 0.000000 -0.000000 -1.000000
vn 0.000000 -1.000000 0.000000
vn 0.000000 -0.000000 -1.000000
vn 0.000000 -0.000000 -1.000000
vn 0.425197 -0.000000 -0.905512
vn -0.007874 1.000000 -0.000000
vn 0.425197 -0.000000 -0.905512
vn -0.007874 -1.000000 0.000000
vn 0.590551 -0.000000 -0.803149
vn 0.007874 1.000000 0.007874
vn 0.590551 -0.000000 -0.803149
vn 0.007874 -1.000000 0.007874
vn -0.007874 -0.000000 -1.000000
vn 0.015748 1.000000 -0.015748
vn -0.007874 -0.000000 -1.000000
vn 0.015748 -1.000000 -0.015748
vn -0.007874 -0.000000 -1.000000
vn -0.007874 -0.000000 -1.000000
vn 0.866142 -0.000000 -0.503937
vn 0.007874 -1.000000 0.000000
vn 0.866142 -0.000000 -0.503937
vn 0.007874 1.000000 -0.000000
vn 0.866142 -0.000000 -0.503937
vn 0.866142 0.000000 0.503937
vn 0.866142 0.000000 0.503937
vn 0.866142 -0.000000 -0.503937
tan 0.000000 -1.000000 0.000000 1.000000
tan 0.000000 -1.000000 0.000000 1.000000
tan 0.000000 -1.000000 0.000000 1.000000
tan 0.000000 -1.000000 0.000000 1.000000
tan 0.000000 -1.000000 0.000000 1.000000
tan 0.000000 0.708661 0.708661 1.000000
tan 0.000000 1.000000 -0.000000 1.000000
tan 0.000000 1.000000 -0.000000 1.000000
tan 0.000000 0.708661 0.708661 1.000000
tan 0.000000 0.708661 0.708661 1.000000
tan 0.000000 0.708661 0.708661 1.000000
tan 0.000000 1.000000 -0.000000 1.000000
tan 0.000000 1.000000 -0.000000 1.000000
tan 0.000000 1.000000 -0.000000 1.000000
tan 0.000000 1.000000 -0.000000 1.000000
tan 0.000000 -0.000000 -1.000000 1.000000
tan 0.000000 -0.000000 -1.000000 1.000000
tan 0.000000 -0.000000 -1.000000 1.000000
tan 0.000000 -0.000000 -1.000000 1.000000
tan -0.086614 -0.992126 0.000000 1.000000
tan 0.094488 -0.992126 0.000000 1.000000
tan 0.204724 -0.976378 0.000000 1.000000
tan 0.000000 -0.992126 0.118110 1.000000
tan 0.000000 -0.992126 0.102362 1.000000
tan 0.944882 -0.000000 -0.330709 1.000000
tan 0.000000 -1.000000 0.015748 1.000000
tan 0.929134 0.000000 0.370079 1.000000
tan 0.000000 -1.000000 -0.031496 1.000000
tan 0.078740 -1.000000 0.000000 1.000000
tan 0.000000 -1.000000 0.000000 1.000000
tan 0.031496 -1.000000 0.000000 1.000000
tan -0.007874 -1.000000 0.000000 1.000000
tan -0.050220 -1.004402 -0.050220 1.000000
tan 0.647281 -0.535681 -0.535681 1.000000
tan -0.050220 -1.004402 -0.050220 1.000000
tan 0.848162 -0.385021 -0.385021 1.000000
tan -0.100440 -0.993242 -0.100440 1.000000
tan -0.044640 -1.004402 -0.044640 1.000000
tan 0.031496 -1.000000 0.000000 1.000000
tan -0.039370 -1.000000 0.000000 1.000000
tan 0.000000 -0.779527 0.622047 1.000000
tan -0.474301 -0.474301 0.747721 1.000000
tan 0.000000 -0.622047 0.787401 1.000000
tan 0.023622 -1.000000 0.000000 1.000000
tan -0.468721 -0.468721 0.747721 1.000000
tan -1.000000 0.031496 -0.000000 1.000000
tan -0.463141 -0.463141 0.758881 1.000000
tan -0.952756 0.291339 -0.000000 1.000000
tan -0.468721 -0.468721 0.758881 1.000000
tan -1.000000 -0.007874 0.000000 1.000000
tan -0.763780 0.000000 0.645669 1.000000
tan -0.606299 0.000000 0.795275 1.000000
tan -1.000000 0.086614 -0.000000 1.000000
tan -0.843946 -0.079484 -0.543617 1.000000
tan -0.915122 0.290161 -0.290161 1.000000
tan -0.846302 -0.104160 -0.527745 1.000000
tan -0.686341 -0.256681 -0.686341 1.000000
tan -0.686341 -0.256681 -0.686341 1.000000
tan -0.843946 -0.079484 -0.543617 1.000000
tan -0.870482 0.357121 -0.357121 1.000000
tan -0.937008 0.354331 -0.000000 1.000000
tan -0.842334 -0.089032 -0.535681 1.000000
tan -1.000000 0.086614 -0.000000 1.000000
tan -0.007874 -1.000000 0.000000 1.000000
tan 0.000000 0.000000 1.000000 1.000000
tan 0.000000 0.000000 1.000000 1.000000
tan 0.000000 0.000000 1.000000 1.000000
tan 0.000000 0.000000 1.000000 1.000000
tan 0.000000 1.000000 -0.000000 1.000000
tan 0.000000 1.000000 -0.000000 1.000000
tan 0.000000 1.000000 -0.000000 1.000000
tan 0.000000 1.000000 -0.000000 1.000000
tan 0.000000 0.708661 -0.708661 1.000000
tan 0.000000 0.708661 -0.708661 1.000000
tan 0.000000 0.708661 -0.708661 1.000000
tan 0.000000 0.708661 -0.708661 1.000000
tan 0.000000 1.000000 -0.000000 1.000000
tan 0.000000 1.000000 -0.000000 1.000000
tan 0.000000 -1.000000 0.047244 1.000000
tan 0.905512 0.000000 0.425197 1.000000
tan 0.968504 -0.000000 -0.251968 1.000000
tan 0.000000 -0.992126 0.118110 1.000000
tan -0.944882 -0.000000 -0.314961 1.000000
tan 0.000000 -0.976378 0.228347 1.000000
tan 0.000000 -0.992126 0.133858 1.000000
tan -0.889764 0.000000 0.456693 1.000000
tan 0.385827 -0.921260 0.000000 1.000000
tan 0.181102 -0.984252 0.000000 1.000000
tan 0.188976 -0.984252 0.000000 1.000000
tan 0.259843 -0.968504 0.000000 1.000000
tan 0.262261 -0.926282 -0.262260 1.000000
tan -0.256681 -0.686341 -0.686341 1.000000
tan 0.273421 -0.926282 -0.273420 1.000000
tan 0.881642 -0.329221 0.329221 1.000000
tan 0.993242 -0.089280 0.089280 1.000000
tan 0.273421 -0.926282 -0.273420 1.000000
tan -0.345961 -0.664021 -0.664021 1.000000
tan 0.204724 -0.976378 0.000000 1.000000
tan 0.206460 -0.959762 -0.206460 1.000000
tan 0.354331 -0.937008 0.000000 1.000000
tan 1.000062 -0.007936 -0.007812 1.000000
tan 1.000000 -0.007874 0.000000 1.000000
tan 1.000248 -0.015872 0.007626 1.000000
tan 1.000062 -0.007936 0.007812 1.000000
tan 1.000248 -0.015872 -0.007626 1.000000
tan 1.000000 -0.007874 0.000000 1.000000
tan 1.000062 -0.007626 0.031558 1.000000
tan 1.000000 0.007874 -0.023622 1.000000
tan 1.000062 -0.007626 -0.031558 1.000000
tan 1.000000 0.007874 0.023622 1.000000
tan 0.724719 0.681691 -0.073842 1.000000
tan 0.724719 0.681691 0.073842 1.000000
tan 0.852626 0.498853 -0.153512 1.000000
tan 0.852626 0.498853 0.153512 1.000000
tan 1.000000 0.007874 0.031496 1.000000
tan 0.982640 0.179738 -0.073842 1.000000
tan 1.000000 0.000000 0.000000 1.000000
tan 1.000000 0.000000 0.000000 1.000000
tan 0.982640 -0.179738 0.073842 1.000000
tan 1.000000 0.000000 0.015748 1.000000
tan 1.000000 -0.000000 -0.039370 1.000000
tan 0.852626 -0.498853 0.153512 1.000000
tan 1.000000 0.000000 0.015748 1.000000
tan 1.000000 -0.000000 -0.031496 1.000000
tan 0.724719 -0.681691 0.073842 1.000000
tan 1.000000 0.000000 0.000000 1.000000
tan 1.000000 0.000000 0.000000 1.000000
tan 0.724719 -0.681691 -0.073842 1.000000
tan 1.000000 -0.000000 -0.015748 1.000000
tan 1.000000 0.000000 0.031496 1.000000
tan 0.852626 -0.498853 -0.153512 1.000000
tan 1.000000 0.000000 0.039370 1.000000
tan 1.000000 -0.000000 -0.015748 1.000000
tan 0.982640 -0.179738 -0.073842 1.000000
tan 1.000000 0.000000 0.000000 1.000000
tan 1.000000 0.000000 0.000000 1.000000
tan 0.982640 0.179738 0.073842 1.000000
tan 1.000000 0.007874 -0.031496 1.000000
tan -1.000062 -0.007936 -0.007812 1.000000
tan -1.000000 -0.007874 0.000000 1.000000
tan -1.000248 -0.015872 0.007626 1.000000
tan -1.000062 -0.007936 0.007812 1.000000
tan -1.000248 -0.015872 -0.007626 1.000000
tan -1.000000 -0.007874 0.000000 1.000000
tan -1.000062 -0.007626 0.031558 1.000000
tan -1.000000 0.007874 -0.023622 1.000000
tan -1.000062 -0.007626 -0.031558 1.000000
tan -1.000000 0.007874 0.023622 1.000000
tan -0.724719 0.681691 -0.073842 1.000000
tan -0.724719 0.681691 0.073842 1.000000
tan -0.852626 0.492157 -0.149544 1.000000
tan -0.852626 0.492157 0.149544 1.000000
tan -1.000000 0.007874 0.031496 1.000000
tan -0.982640 0.179738 -0.073842 1.000000
tan -1.000000 0.000000 0.000000 1.000000
tan -1.000000 0.000000 0.000000 1.000000
tan -0.982640 -0.179738 0.073842 1.000000
tan -1.000000 0.000000 0.015748 1.000000
tan -1.000000 -0.000000 -0.039370 1.000000
tan -0.852626 -0.498853 0.153512 1.000000
tan -1.000000 0.000000 0.015748 1.000000
tan -1.000000 -0.000000 -0.031496 1.000000
tan -0.724719 -0.681691 0.073842 1.000000
tan -1.000000 0.000000 0.000000 1.000000
tan -1.000000 0.000000 0.000000 1.000000
tan -0.724719 -0.681691 -0.073842 1.000000
tan -1.000000 -0.000000 -0.015748 1.000000
tan -1.000000 0.000000 0.031496 1.000000
tan -0.852626 -0.498853 -0.153512 1.000000
tan -1.000000 0.000000 0.039370 1.000000
tan -1.000000 -0.000000 -0.015748 1.000000
tan -0.982640 -0.179738 -0.073842 1.000000
tan -1.000000 0.000000 0.000000 1.000000
tan -1.000000 0.000000 0.000000 1.000000
tan -0.982640 0.179738 0.073842 1.000000
tan -1.000000 0.007874 -0.031496 1.000000
tan 1.000062 -0.000062 -0.007874 1.000000
tan 1.000000 0.000000 0.000000 1.000000
tan 1.000062 -0.007936 0.007812 1.000000
tan 1.000062 -0.000062 0.007874 1.000000
tan 1.000062 -0.007936 -0.007812 1.000000
tan 1.000000 0.000000 0.000000 1.000000
tan 1.000062 0.000248 0.031496 1.000000
tan 1.000000 0.007874 -0.023622 1.000000
tan 1.000062 0.000248 -0.031496 1.000000
tan 1.000000 0.007874 0.023622 1.000000
tan 0.724719 0.681691 -0.073842 1.000000
tan 0.724719 0.681691 0.073842 1.000000
tan 0.852626 0.498853 -0.153512 1.000000
tan 0.852626 0.498853 0.153512 1.000000
tan 1.000000 0.007874 0.031496 1.000000
tan 0.982640 0.174344 -0.079422 1.000000
tan 1.000000 -0.000000 -0.007874 1.000000
tan 1.000000 0.000000 0.000000 1.000000
tan 0.982640 -0.185132 0.068262 1.000000
tan 1.000000 0.000000 0.015748 1.000000
tan 1.000000 -0.000000 -0.039370 1.000000
tan 0.852626 -0.498853 0.153512 1.000000
tan 1.000000 0.000000 0.015748 1.000000
tan 1.000000 -0.000000 -0.031496 1.000000
tan 0.724719 -0.681691 0.073842 1.000000
tan 1.000000 0.000000 0.000000 1.000000
tan 1.000000 0.000000 0.000000 1.000000
tan 0.724719 -0.681691 -0.073842 1.000000
tan 1.000000 -0.000000 -0.015748 1.000000
tan 1.000000 0.000000 0.031496 1.000000
tan 0.852626 -0.498853 -0.153512 1.000000
tan 1.000000 0.000000 0.039370 1.000000
tan 1.000000 -0.000000 -0.015748 1.000000
tan 0.982640 -0.179738 -0.073842 1.000000
tan 1.000000 0.000000 0.000000 1.000000
tan 1.000000 0.000000 0.007874 1.000000
tan 0.982640 0.179738 0.073842 1.000000
tan 1.000000 0.007874 -0.031496 1.000000
tan -1.000062 -0.000062 -0.007874 1.000000
tan -1.000000 0.000000 0.000000 1.000000
tan -1.000062 -0.007874 -0.000062 1.000000
tan -1.000062 -0.000062 0.007874 1.000000
tan -1.000062 -0.007936 -0.007812 1.000000
tan -1.000000 0.000000 0.000000 1.000000
tan -1.000062 0.000248 0.031496 1.000000
tan -1.000000 0.007874 -0.023622 1.000000
tan -1.000062 0.000248 -0.031496 1.000000
tan -1.000000 0.007874 0.023622 1.000000
tan -0.724719 0.681691 -0.073842 1.000000
tan -0.724719 0.681691 0.073842 1.000000
tan -0.852626 0.492157 -0.149544 1.000000
tan -0.852626 0.492157 0.149544 1.000000
tan -1.000000 0.007874 0.031496 1.000000
tan -0.982640 0.179738 -0.073842 1.000000
tan -1.000000 0.000000 0.000000 1.000000
tan -1.000000 0.000000 0.000000 1.000000
tan -0.982640 -0.179738 0.073842 1.000000
tan -1.000000 0.000000 0.015748 1.000000
tan -1.000000 -0.000000 -0.039370 1.000000
tan -0.852626 -0.498853 0.153512 1.000000
tan -1.000000 0.000000 0.015748 1.000000
tan -1.000000 -0.000000 -0.031496 1.000000
tan -0.724719 -0.681691 0.073842 1.000000
tan -1.000000 0.000000 0.000000 1.000000
tan -1.000000 0.000000 0.000000 1.000000
tan -0.724719 -0.681691 -0.073842 1.000000
tan -1.000000 -0.000000 -0.015748 1.000000
tan -1.000000 0.000000 0.031496 1.000000
tan -0.852626 -0.498853 -0.153512 1.000000
tan -1.000000 0.000000 0.039370 1.000000
tan -1.000000 -0.000000 -0.015748 1.000000
tan -0.982640 -0.179738 -0.073842 1.000000
tan -1.000000 0.000000 0.000000 1.000000
tan -1.000000 0.000000 0.007874 1.000000
tan -0.982640 0.179738 0.073842 1.000000
tan -1.000000 0.007874 -0.031496 1.000000
tan 0.499969 0.144832 0.859322 1.000000
tan 0.677165 0.000000 0.732283 1.000000
tan 0.503937 0.081220 0.866142 1.000000
tan 0.503937 -0.085188 0.866142 1.000000
tan 0.874140 0.003100 0.480439 1.000000
tan 0.499969 -0.144832 0.859322 1.000000
tan 0.685039 0.000000 0.732283 1.000000
tan 0.882014 -0.003162 0.480439 1.000000
tan 0.992126 -0.149606 0.000000 1.000000
tan 0.992126 0.149606 -0.000000 1.000000
tan 0.984252 0.188976 -0.000000 1.000000
tan 0.929196 -0.002914 0.370079 1.000000
tan 0.984252 -0.196850 0.000000 1.000000
tan 0.929196 0.002976 0.377953 1.000000
tan 0.804638 -0.117924 0.578089 1.000000
tan 0.937008 0.007378 0.354331 1.000000
tan 0.804638 0.113336 0.578089 1.000000
tan 0.929134 -0.007316 0.362205 1.000000
tan 0.905512 -0.070432 0.425197 1.000000
tan 1.000000 -0.000000 -0.007874 1.000000
tan 0.905512 0.070432 0.425197 1.000000
tan 1.000000 0.000000 0.000000 1.000000
tan 1.000000 0.015748 -0.000000 1.000000
tan 1.000000 -0.015748 0.000000 1.000000
tan 1.000000 -0.078740 0.000000 1.000000
tan 0.866142 -0.000000 -0.503937 1.000000
tan 1.000000 0.070866 -0.000000 1.000000
tan 0.866142 -0.000000 -0.496063 1.000000
tan 0.866142 -0.017608 -0.503937 1.000000
tan 0.866142 0.010788 -0.503937 1.000000
tan 0.866142 -0.017608 -0.503937 1.000000
tan 0.866142 0.006820 -0.503937 1.000000
tan 0.503937 -0.081220 -0.866142 1.000000
tan 0.503937 -0.000000 -0.866142 1.000000
tan 0.503937 0.074400 -0.866142 1.000000
tan 0.488189 -0.000000 -0.874016 1.000000
tan 0.503937 0.006820 -0.866142 1.000000
tan 0.503937 -0.017608 -0.866142 1.000000
tan 0.000000 -0.078740 -1.000000 1.000000
tan 0.007874 -0.000000 -1.000000 1.000000
tan 0.000000 0.070866 -1.000000 1.000000
tan -0.007874 -0.000000 -1.000000 1.000000
tan 0.000000 0.070866 -1.000000 1.000000
tan -0.488189 -0.000000 -0.874016 1.000000
tan 0.000000 -0.078740 -1.000000 1.000000
tan -0.503937 -0.000000 -0.866142 1.000000
tan -0.503937 -0.017608 -0.866142 1.000000
tan -0.503937 0.006820 -0.866142 1.000000
tan -0.503937 -0.081220 -0.866142 1.000000
tan -0.874016 -0.000000 -0.488189 1.000000
tan -0.503937 0.070432 -0.866142 1.000000
tan -0.866142 -0.000000 -0.503937 1.000000
tan -0.866142 -0.017608 -0.503937 1.000000
tan -0.866142 0.006820 -0.503937 1.000000
tan -0.866142 -0.017608 -0.503937 1.000000
tan -0.866142 0.010788 -0.503937 1.000000
tan -1.000000 -0.078740 0.000000 1.000000
tan -1.000000 -0.000000 -0.007874 1.000000
tan -1.000000 0.070866 -0.000000 1.000000
tan -1.000000 0.000000 0.000000 1.000000
tan -1.000000 0.015748 -0.000000 1.000000
tan -1.000000 -0.015748 0.000000 1.000000
tan -0.905512 -0.077562 0.425197 1.000000
tan -0.937008 0.007378 0.354393 1.000000
tan -0.905512 0.070432 0.425197 1.000000
tan -0.929134 -0.007316 0.370141 1.000000
tan -0.804638 -0.124310 0.578089 1.000000
tan -0.929196 -0.002976 0.377953 1.000000
tan -0.804638 0.117924 0.578089 1.000000
tan -0.921322 0.002976 0.377953 1.000000
tan -0.984252 0.196850 -0.000000 1.000000
tan -0.842644 -0.002418 0.535557 1.000000
tan -0.976378 -0.204724 0.000000 1.000000
tan -0.842644 0.002356 0.543431 1.000000
tan -0.984252 0.165354 -0.000000 1.000000
tan -0.984252 -0.173228 0.000000 1.000000
tan -0.499969 0.098828 0.859322 1.000000
tan -0.472441 0.000000 0.881890 1.000000
tan -0.499969 -0.102796 0.859322 1.000000
tan -0.488189 0.000000 0.874016 1.000000
tan -0.503937 -0.039184 0.866142 1.000000
tan 0.492033 0.219233 0.845682 1.000000
tan -0.503937 0.035216 0.866142 1.000000
tan 0.492033 -0.226052 0.845682 1.000000
tan -0.492033 0.219233 0.845682 1.000000
tan -0.724409 0.005704 0.692975 1.000000
tan -0.496001 0.162440 0.852502 1.000000
tan -0.503937 -0.010788 0.866142 1.000000
tan -0.905760 0.007564 0.425445 1.000000
tan -0.499969 -0.098828 0.859322 1.000000
tan -0.606299 -0.004774 0.795337 1.000000
tan -0.827020 -0.004216 0.559303 1.000000
tan -0.960630 0.283465 -0.000000 1.000000
tan -0.984252 -0.165354 0.000000 1.000000
tan -0.968504 0.251968 -0.000000 1.000000
tan -0.897638 -0.010540 0.440945 1.000000
tan -0.992126 -0.141732 0.000000 1.000000
tan -0.944944 0.010044 0.330647 1.000000
tan -0.803150 -0.078492 0.590551 1.000000
tan -0.913386 0.007192 0.409511 1.000000
tan -0.790502 0.163308 0.581251 1.000000
tan -0.944882 -0.007440 0.322835 1.000000
tan -0.905512 -0.042346 0.425197 1.000000
tan -1.000000 0.000000 0.015748 1.000000
tan -0.898382 0.095170 0.421849 1.000000
tan -1.000000 -0.000000 -0.023622 1.000000
tan -1.000000 0.023622 -0.000000 1.000000
tan -1.000000 0.000000 0.000000 1.000000
tan -1.000000 -0.070866 0.000000 1.000000
tan -0.866142 -0.000000 -0.503937 1.000000
tan -1.000000 0.078740 -0.000000 1.000000
tan -0.866142 -0.000000 -0.496063 1.000000
tan -0.866142 -0.017608 -0.503937 1.000000
tan -0.866142 0.010788 -0.503937 1.000000
tan -0.866142 -0.017608 -0.503937 1.000000
tan -0.866142 0.006820 -0.503937 1.000000
tan -0.503937 -0.081220 -0.866142 1.000000
tan -0.511811 -0.000000 -0.858268 1.000000
tan -0.503937 0.063612 -0.866142 1.000000
tan -0.480315 -0.000000 -0.874016 1.000000
tan -0.503937 -0.000000 -0.866142 1.000000
tan -0.503937 -0.028396 -0.866142 1.000000
tan 0.000000 -0.094488 -0.992126 1.000000
tan -0.031496 -0.000000 -1.000000 1.000000
tan 0.000000 0.055118 -1.000000 1.000000
tan 0.031496 -0.000000 -1.000000 1.000000
tan 0.000000 0.047244 -1.000000 1.000000
tan 0.456693 -0.000000 -0.889764 1.000000
tan 0.000000 -0.094488 -0.992126 1.000000
tan 0.535433 -0.000000 -0.850394 1.000000
tan 0.503937 -0.046004 -0.866142 1.000000
tan 0.503937 -0.017608 -0.866142 1.000000
tan 0.499969 -0.109616 -0.859322 1.000000
tan 0.889764 -0.000000 -0.448819 1.000000
tan 0.503937 0.046004 -0.866142 1.000000
tan 0.834646 -0.000000 -0.551181 1.000000
tan 0.866142 -0.052824 -0.503937 1.000000
tan 0.866142 -0.028396 -0.503937 1.000000
tan 0.866142 -0.056792 -0.503937 1.000000
tan 0.866142 -0.028396 -0.503937 1.000000
tan 0.992126 -0.125984 0.000000 1.000000
tan 1.000000 -0.000000 -0.078740 1.000000
tan 1.000000 0.023622 -0.000000 1.000000
tan 1.000000 0.000000 0.070866 1.000000
tan 1.000000 -0.039370 0.000000 1.000000
tan 1.000000 -0.070866 0.000000 1.000000
tan 0.898382 -0.130386 0.421849 1.000000
tan 0.960630 0.007564 0.291339 1.000000
tan 0.905512 0.010478 0.425197 1.000000
tan 0.897638 -0.007068 0.441007 1.000000
tan 0.790502 -0.185256 0.581251 1.000000
tan 0.944944 -0.009920 0.314899 1.000000
tan 0.803150 0.050220 0.590551 1.000000
tan 0.889764 0.010664 0.464567 1.000000
tan 0.992126 0.125984 -0.007812 1.000000
tan 0.890012 -0.006696 0.464815 1.000000
tan 0.960630 -0.267716 -0.007564 1.000000
tan 0.779776 0.002356 0.630169 1.000000
tan 0.984252 0.173228 -0.007750 1.000000
tan 0.952756 -0.314961 -0.007502 1.000000
tan 0.503937 0.035216 0.866142 1.000000
tan 0.370079 0.002914 0.929196 1.000000
tan 0.496001 -0.190836 0.852502 1.000000
tan 0.551181 -0.004340 0.834708 1.000000
tan 0.499969 -0.127224 0.859322 1.000000
tan -0.496001 0.173228 0.852502 1.000000
tan -0.480129 -0.293632 0.825222 1.000000
tan 0.503937 -0.028396 0.866142 1.000000
f 3/3/3 2/2/2 1/1/1
f 1/1/1 2/2/2 4/4/4
f 5/5/5 4/4/4 2/2/2
f 8/8/8 7/7/7 6/6/6
f 7/7/7 9/9/9 6/6/6
f 9/9/9 10/10/10 6/6/6
f 11/11/11 6/6/6 10/10/10
f 10/10/10 12/12/12 11/11/11
f 13/13/13 11/11/11 12/12/12
f 12/12/12 14/14/14 13/13/13
f 13/13/13 14/14/14 15/15/15
f 15/15/15 14/14/14 16/16/16
f 14/14/14 17/17/17 16/16/16
f 17/17/17 18/18/18 16/16/16
f 19/19/19 16/16/16 18/18/18
f 19/19/19 18/18/18 20/20/20
f 21/21/21 20/20/20 18/18/18
f 21/21/21 22/22/22 20/20/20
f 23/23/23 22/22/22 21/21/21
f 24/24/24 23/23/23 21/21/21
f 25/25/25 24/24/24 21/21/21
f 23/23/23 24/24/24 26/26/26
f 24/24/24 25/25/25 27/27/27
f 27/27/27 28/28/28 24/24/24
f 28/28/28 26/26/26 24/24/24
f 27/27/27 29/29/29 28/28/28
f 28/28/28 29/29/29 26/26/26
f 30/30/30 26/26/26 29/29/29
f 31/31/31 30/30/30 29/29/29
f 32/32/32 30/30/30 31/31/31
f 31/31/31 33/33/33 32/32/32
f 34/34/34 33/33/33 31/31/31
f 35/35/35 32/32/32 33/33/33
f 33/33/33 34/34/34 36/36/36
f 37/37/37 35/35/35 33/33/33
f 33/33/33 36/36/36 37/37/37
f 38/38/38 35/35/35 37/37/37
f 39/39/39 37/37/37 36/36/36
f 37/37/37 39/39/39 38/38/38
f 40/40/40 38/38/38 39/39/39
f 42/42/42 22/22/22 41/41/41
f 42/42/42 41/41/41 43/43/43
f 22/22/22 42/42/42 44/44/44
f 44/44/44 20/20/20 22/22/22
f 45/45/45 42/42/42 43/43/43
f 43/43/43 46/46/46 45/45/45
f 47/47/47 44/44/44 42/42/42
f 45/45/45 46/46/46 48/48/48
f 45/45/45 49/49/49 42/42/42
f 49/49/49 47/47/47 42/42/42
f 49/49/49 45/45/45 48/48/48
f 50/50/50 48/48/48 46/46/46
f 51/51/51 49/49/49 48/48/48
f 49/49/49 51/51/51 52/52/52
f 52/52/52 47/47/47 49/49/49
f 52/52/52 44/44/44 47/47/47
f 53/53/53 48/48/48 50/50/50
f 54/54/54 53/53/53 50/50/50
f 54/54/54 55/55/55 53/53/53
f 56/56/56 54/54/54 50/50/50
f 57/57/57 56/56/56 50/50/50
f 58/58/58 56/56/56 57/57/57
f 54/54/54 59/59/59 55/55/55
f 60/60/60 55/55/55 59/59/59
f 61/61/61 60/60/60 59/59/59
f 62/62/62 54/54/54 56/56/56
f 54/54/54 62/62/62 59/59/59
f 62/62/62 56/56/56 58/58/58
f 59/59/59 62/62/62 61/61/61
f 63/63/63 62/62/62 58/58/58
f 62/62/62 63/63/63 61/61/61
f 20/20/20 44/44/44 64/64/64
f 44/44/44 65/65/65 64/64/64
f 66/66/66 64/64/64 65/65/65
f 67/67/67 66/66/66 65/65/65
f 68/68/68 67/67/67 65/65/65
f 67/67/67 68/68/68 69/69/69
f 70/70/70 69/69/69 68/68/68
f 71/71/71 69/69/69 70/70/70
f 72/72/72 71/71/71 70/70/70
f 73/73/73 71/71/71 72/72/72
f 74/74/74 73/73/73 72/72/72
f 75/75/75 73/73/73 74/74/74
f 73/73/73 75/75/75 76/76/76
f 76/76/76 75/75/75 77/77/77
f 75/75/75 78/78/78 77/77/77
f 64/64/64 79/79/79 20/20/20
f 79/79/79 64/64/64 80/80/80
f 80/80/80 81/81/81 79/79/79
f 20/20/20 79/79/79 82/82/82
f 20/20/20 82/82/82 83/83/83
f 84/84/84 79/79/79 81/81/81
f 82/82/82 85/85/85 83/83/83
f 82/82/82 79/79/79 85/85/85
f 84/84/84 85/85/85 79/79/79
f 86/86/86 83/83/83 85/85/85
f 81/81/81 87/87/87 84/84/84
f 86/86/86 85/85/85 88/88/88
f 85/85/85 84/84/84 88/88/88
f 87/87/87 88/88/88 84/84/84
f 89/89/89 88/88/88 87/87/87
f 90/90/90 89/89/89 87/87/87
f 91/91/91 89/89/89 90/90/90
f 89/89/89 91/91/91 92/92/92
f 93/93/93 91/91/91 90/90/90
f 94/94/94 93/93/93 90/90/90
f 94/94/94 95/95/95 93/93/93
f 92/92/92 91/91/91 96/96/96
f 92/92/92 96/96/96 97/97/97
f 97/97/97 96/96/96 98/98/98
f 93/93/93 99/99/99 91/91/91
f 91/91/91 99/99/99 96/96/96
f 99/99/99 93/93/93 95/95/95
f 98/98/98 96/96/96 99/99/99
f 100/100/100 99/99/99 95/95/95
f 99/99/99 100/100/100 98/98/98
f 103/103/103 102/102/102 101/101/101
f 105/105/105 104/104/104 102/102/102
f 101/101/101 102/102/102 106/106/106
f 106/106/106 102/102/102 104/104/104
f 101/101/101 106/106/106 107/107/107
f 107/107/107 108/108/108 101/101/101
f 104/104/104 109/109/109 106/106/106
f 109/109/109 104/104/104 110/110/110
f 111/111/111 107/107/107 106/106/106
f 106/106/106 112/112/112 111/111/111
f 112/112/112 106/106/106 109/109/109
f 107/107/107 111/111/111 113/113/113
f 109/109/109 114/114/114 112/112/112
f 113/113/113 115/115/115 107/107/107
f 115/115/115 108/108/108 107/107/107
f 115/115/115 113/113/113 116/116/116
f 115/115/115 117/117/117 108/108/108
f 116/116/116 118/118/118 115/115/115
f 117/117/117 115/115/115 118/118/118
f 116/116/116 119/119/119 118/118/118
f 117/117/117 118/118/118 120/120/120
f 119/119/119 121/121/121 118/118/118
f 121/121/121 120/120/120 118/118/118
f 121/121/121 119/119/119 122/122/122
f 120/120/120 121/121/121 123/123/123
f 122/122/122 124/124/124 121/121/121
f 124/124/124 123/123/123 121/121/121
f 124/124/124 122/122/122 125/125/125
f 124/124/124 126/126/126 123/123/123
f 125/125/125 126/126/126 124/124/124
f 127/127/127 123/123/123 126/126/126
f 126/126/126 125/125/125 128/128/128
f 127/127/127 126/126/126 129/129/129
f 128/128/128 130/130/130 126/126/126
f 130/130/130 129/129/129 126/126/126
f 130/130/130 128/128/128 131/131/131
f 130/130/130 132/132/132 129/129/129
f 131/131/131 132/132/132 130/130/130
f 132/132/132 133/133/133 129/129/129
f 132/132/132 131/131/131 134/134/134
f 133/133/133 132/132/132 135/135/135
f 134/134/134 135/135/135 132/132/132
f 135/135/135 136/136/136 133/133/133
f 135/135/135 134/134/134 137/137/137
f 135/135/135 138/138/138 136/136/136
f 137/137/137 138/138/138 135/135/135
f 110/110/110 136/136/136 138/138/138
f 138/138/138 137/137/137 114/114/114
f 138/138/138 109/109/109 110/110/110
f 114/114/114 109/109/109 138/138/138
f 141/141/141 140/140/140 139/139/139
f 143/143/143 142/142/142 140/140/140
f 144/144/144 139/139/139 140/140/140
f 142/142/142 144/144/144 140/140/140
f 139/139/139 144/144/144 145/145/145
f 145/145/145 146/146/146 139/139/139
f 147/147/147 144/144/144 142/142/142
f 147/147/147 142/142/142 148/148/148
f 145/145/145 144/144/144 149/149/149
f 149/149/149 144/144/144 150/150/150
f 144/144/144 147/147/147 150/150/150
f 151/151/151 145/145/145 149/149/149
f 150/150/150 147/147/147 152/152/152
f 153/153/153 145/145/145 151/151/151
f 153/153/153 146/146/146 145/145/145
f 154/154/154 153/153/153 151/151/151
f 153/153/153 155/155/155 146/146/146
f 156/156/156 153/153/153 154/154/154
f 156/156/156 155/155/155 153/153/153
f 157/157/157 156/156/156 154/154/154
f 155/155/155 156/156/156 158/158/158
f 159/159/159 156/156/156 157/157/157
f 159/159/159 158/158/158 156/156/156
f 160/160/160 159/159/159 157/157/157
f 158/158/158 159/159/159 161/161/161
f 162/162/162 159/159/159 160/160/160
f 162/162/162 161/161/161 159/159/159
f 163/163/163 162/162/162 160/160/160
f 161/161/161 162/162/162 164/164/164
f 164/164/164 162/162/162 163/163/163
f 164/164/164 165/165/165 161/161/161
f 166/166/166 164/164/164 163/163/163
f 165/165/165 164/164/164 167/167/167
f 168/168/168 164/164/164 166/166/166
f 168/168/168 167/167/167 164/164/164
f 169/169/169 168/168/168 166/166/166
f 168/168/168 170/170/170 167/167/167
f 170/170/170 168/168/168 169/169/169
f 171/171/171 167/167/167 170/170/170
f 172/172/172 170/170/170 169/169/169
f 170/170/170 173/173/173 171/171/171
f 173/173/173 170/170/170 172/172/172
f 174/174/174 171/171/171 173/173/173
f 175/175/175 173/173/173 172/172/172
f 174/174/174 173/173/173 176/176/176
f 176/176/176 173/173/173 175/175/175
f 176/176/176 148/148/148 174/174/174
f 152/152/152 176/176/176 175/175/175
f 148/148/148 176/176/176 147/147/147
f 147/147/147 176/176/176 152/152/152
f 179/179/179 178/178/178 177/177/177
f 181/181/181 180/180/180 178/178/178
f 177/177/177 178/178/178 182/182/182
f 182/182/182 178/178/178 180/180/180
f 177/177/177 182/182/182 183/183/183
f 183/183/183 184/184/184 177/177/177
f 180/180/180 185/185/185 182/182/182
f 185/185/185 180/180/180 186/186/186
f 187/187/187 183/183/183 182/182/182
f 182/182/182 188/188/188 187/187/187
f 188/188/188 182/182/182 185/185/185
f 183/183/183 187/187/187 189/189/189
f 185/185/185 190/190/190 188/188/188
f 189/189/189 191/191/191 183/183/183
f 191/191/191 184/184/184 183/183/183
f 191/191/191 189/189/189 192/192/192
f 191/191/191 193/193/193 184/184/184
f 192/192/192 194/194/194 191/191/191
f 193/193/193 191/191/191 194/194/194
f 192/192/192 195/195/195 194/194/194
f 193/193/193 194/194/194 196/196/196
f 195/195/195 197/197/197 194/194/194
f 197/197/197 196/196/196 194/194/194
f 197/197/197 195/195/195 198/198/198
f 196/196/196 197/197/197 199/199/199
f 198/198/198 200/200/200 197/197/197
f 200/200/200 199/199/199 197/197/197
f 200/200/200 198/198/198 201/201/201
f 200/200/200 202/202/202 199/199/199
f 201/201/201 202/202/202 200/200/200
f 203/203/203 199/199/199 202/202/202
f 202/202/202 201/201/201 204/204/204
f 203/203/203 202/202/202 205/205/205
f 204/204/204 206/206/206 202/202/202
f 206/206/206 205/205/205 202/202/202
f 206/206/206 204/204/204 207/207/207
f 206/206/206 208/208/208 205/205/205
f 207/207/207 208/208/208 206/206/206
f 208/208/208 209/209/209 205/205/205
f 208/208/208 207/207/207 210/210/210
f 209/209/209 208/208/208 211/211/211
f 210/210/210 211/211/211 208/208/208
f 211/211/211 212/212/212 209/209/209
f 211/211/211 210/210/210 213/213/213
f 211/211/211 214/214/214 212/212/212
f 213/213/213 214/214/214 211/211/211
f 186/186/186 212/212/212 214/214/214
f 214/214/214 213/213/213 190/190/190
f 214/214/214 185/185/185 186/186/186
f 190/190/190 185/185/185 214/214/214
f 217/217/217 216/216/216 215/215/215
f 219/219/219 218/218/218 216/216/216
f 220/220/220 215/215/215 216/216/216
f 218/218/218 220/220/220 216/216/216
f 215/215/215 220/220/220 221/221/221
f 221/221/221 222/222/222 215/215/215
f 223/223/223 220/220/220 218/218/218
f 223/223/223 218/218/218 224/224/224
f 221/221/221 220/220/220 225/225/225
f 225/225/225 220/220/220 226/226/226
f 220/220/220 223/223/223 226/226/226
f 227/227/227 221/221/221 225/225/225
f 226/226/226 223/223/223 228/228/228
f 229/229/229 221/221/221 227/227/227
f 229/229/229 222/222/222 221/221/221
f 230/230/230 229/229/229 227/227/227
f 229/229/229 231/231/231 222/222/222
f 232/232/232 229/229/229 230/230/230
f 232/232/232 231/231/231 229/229/229
f 233/233/233 232/232/232 230/230/230
f 231/231/231 232/232/232 234/234/234
f 235/235/235 232/232/232 233/233/233
f 235/235/235 234/234/234 232/232/232
f 236/236/236 235/235/235 233/233/233
f 234/234/234 235/235/235 237/237/237
f 238/238/238 235/235/235 236/236/236
f 238/238/238 237/237/237 235/235/235
f 239/239/239 238/238/238 236/236/236
f 237/237/237 238/238/238 240/240/240
f 240/240/240 238/238/238 239/239/239
f 240/240/240 241/241/241 237/237/237
f 242/242/242 240/240/240 239/239/239
f 241/241/241 240/240/240 243/243/243
f 244/244/244 240/240/240 242/242/242
f 244/244/244 243/243/243 240/240/240
f 245/245/245 244/244/244 242/242/242
f 244/244/244 246/246/246 243/243/243
f 246/246/246 244/244/244 245/245/245
f 247/247/247 243/243/243 246/246/246
f 248/248/248 246/246/246 245/245/245
f 246/246/246 249/249/249 247/247/247
f 249/249/249 246/246/246 248/248/248
f 250/250/250 247/247/247 249/249/249
f 251/251/251 249/249/249 248/248/248
f 250/250/250 249/249/249 252/252/252
f 252/252/252 249/249/249 251/251/251
f 252/252/252 224/224/224 250/250/250
f 228/228/228 252/252/252 251/251/251
f 224/224/224 252/252/252 223/223/223
f 223/223/223 252/252/252 228/228/228
f 255/255/255 254/254/254 253/253/253
f 255/255/255 253/253/253 256/256/256
f 257/257/257 253/253/253 254/254/254
f 258/258/258 256/256/256 253/253/253
f 256/256/256 258/258/258 259/259/259
f 260/260/260 259/259/259 258/258/258
f 253/253/253 257/257/257 261/261/261
f 253/253/253 261/261/261 258/258/258
f 258/258/258 262/262/262 260/260/260
f 262/262/262 258/258/258 261/261/261
f 262/262/262 263/263/263 260/260/260
f 262/262/262 261/261/261 263/263/263
f 263/263/263 264/264/264 260/260/260
f 261/261/261 257/257/257 265/265/265
f 265/265/265 263/263/263 261/261/261
f 266/266/266 265/265/265 257/257/257
f 264/264/264 263/263/263 267/267/267
f 267/267/267 268/268/268 264/264/264
f 265/265/265 269/269/269 263/263/263
f 265/265/265 266/266/266 269/269/269
f 263/263/263 269/269/269 267/267/267
f 270/270/270 269/269/269 266/266/266
f 267/267/267 271/271/271 268/268/268
f 267/267/267 269/269/269 271/271/271
f 268/268/268 271/271/271 272/272/272
f 270/270/270 273/273/273 269/269/269
f 273/273/273 271/271/271 269/269/269
f 273/273/273 270/270/270 274/274/274
f 275/275/275 272/272/272 271/271/271
f 273/273/273 276/276/276 271/271/271
f 271/271/271 276/276/276 275/275/275
f 276/276/276 273/273/273 274/274/274
f 275/275/275 277/277/277 272/272/272
f 275/275/275 276/276/276 277/277/277
f 272/272/272 277/277/277 278/278/278
f 274/274/274 279/279/279 276/276/276
f 279/279/279 277/277/277 276/276/276
f 279/279/279 274/274/274 280/280/280
f 279/279/279 281/281/281 277/277/277
f 281/281/281 279/279/279 280/280/280
f 282/282/282 278/278/278 277/277/277
f 282/282/282 277/277/277 281/281/281
f 282/282/282 283/283/283 278/278/278
f 282/282/282 281/281/281 283/283/283
f 280/280/280 284/284/284 281/281/281
f 284/284/284 283/283/283 281/281/281
f 284/284/284 280/280/280 285/285/285
f 284/284/284 285/285/285 283/283/283
f 286/286/286 285/285/285 280/280/280
f 283/283/283 287/287/287 278/278/278
f 287/287/287 283/283/283 285/285/285
f 287/287/287 288/288/288 278/278/278
f 286/286/286 289/289/289 285/285/285
f 287/287/287 285/285/285 290/290/290
f 289/289/289 290/290/290 285/285/285
f 287/287/287 290/290/290 288/288/288
f 289/289/289 286/286/286 291/291/291
f 289/289/289 291/291/291 290/290/290
f 292/292/292 291/291/291 286/286/286
f 290/290/290 293/293/293 288/288/288
f 290/290/290 291/291/291 293/293/293
f 293/293/293 294/294/294 288/288/288
f 292/292/292 295/295/295 291/291/291
f 295/295/295 292/292/292 296/296/296
f 293/293/293 291/291/291 297/297/297
f 293/293/293 297/297/297 294/294/294
f 295/295/295 297/297/297 291/291/291
f 294/294/294 297/297/297 298/298/298
f 299/299/299 295/295/295 296/296/296
f 295/295/295 299/299/299 297/297/297
f 300/300/300 298/298/298 297/297/297
f 300/300/300 297/297/297 299/299/299
f 300/300/300 301/301/301 298/298/298
f 300/300/300 299/299/299 301/301/301
f 298/298/298 301/301/301 302/302/302
f 296/296/296 303/303/303 299/299/299
f 303/303/303 301/301/301 299/299/299
f 303/303/303 296/296/296 304/304/304
f 303/303/303 305/305/305 301/301/301
f 305/305/305 303/303/303 304/304/304
f 306/306/306 302/302/302 301/301/301
f 301/301/301 305/305/305 306/306/306
f 306/306/306 307/307/307 302/302/302
f 306/306/306 305/305/305 307/307/307
f 304/304/304 308/308/308 305/305/305
f 308/308/308 307/307/307 305/305/305
f 308/308/308 304/304/304 309/309/309
f 308/308/308 309/309/309 307/307/307
f 310/310/310 309/309/309 304/304/304
f 307/307/307 311/311/311 302/302/302
f 307/307/307 309/309/309 311/311/311
f 311/311/311 312/312/312 302/302/302
f 313/313/313 309/309/309 310/310/310
f 309/309/309 314/314/314 311/311/311
f 309/309/309 313/313/313 314/314/314
f 312/312/312 311/311/311 314/314/314
f 313/313/313 310/310/310 315/315/315
f 313/313/313 315/315/315 314/314/314
f 316/316/316 315/315/315 310/310/310
f 314/314/314 317/317/317 312/312/312
f 314/314/314 315/315/315 317/317/317
f 317/317/317 318/318/318 312/312/312
f 316/316/316 319/319/319 315/315/315
f 319/319/319 316/316/316 320/320/320
f 317/317/317 315/315/315 321/321/321
f 317/317/317 321/321/321 318/318/318
f 319/319/319 321/321/321 315/315/315
f 321/321/321 322/322/322 318/318/318
f 320/320/320 323/323/323 319/319/319
f 319/319/319 323/323/323 321/321/321
f 323/323/323 320/320/320 324/324/324
f 322/322/322 321/321/321 325/325/325
f 325/325/325 321/321/321 323/323/323
f 322/322/322 325/325/325 326/326/326
f 327/327/327 323/323/323 324/324/324
f 323/323/323 327/327/327 325/325/325
f 328/328/328 326/326/326 325/325/325
f 328/328/328 325/325/325 327/327/327
f 329/329/329 326/326/326 328/328/328
f 327/327/327 329/329/329 328/328/328
f 326/326/326 329/329/329 330/330/330
f 327/327/327 324/324/324 331/331/331
f 327/327/327 331/331/331 329/329/329
f 324/324/324 332/332/332 331/331/331
f 333/333/333 330/330/330 329/329/329
f 334/334/334 330/330/330 333/333/333
f 331/331/331 335/335/335 329/329/329
f 329/329/329 335/335/335 333/333/333
f 335/335/335 331/331/331 332/332/332
f 333/333/333 335/335/335 334/334/334
f 335/335/335 332/332/332 336/336/336
f 336/336/336 334/334/334 335/335/335
f 339/339/339 338/338/338 337/337/337
f 337/337/337 340/340/340 339/339/339
f 341/341/341 337/337/337 338/338/338
f 342/342/342 340/340/340 337/337/337
f 340/340/340 342/342/342 343/343/343
f 344/344/344 343/343/343 342/342/342
f 345/345/345 342/342/342 337/337/337
f 345/345/345 344/344/344 342/342/342
f 337/337/337 341/341/341 346/346/346
f 337/337/337 346/346/346 345/345/345
f 345/345/345 347/347/347 344/344/344
f 345/345/345 346/346/346 347/347/347
f 347/347/347 348/348/348 344/344/344
f 346/346/346 341/341/341 349/349/349
f 349/349/349 347/347/347 346/346/346
f 350/350/350 349/349/349 341/341/341
f 348/348/348 347/347/347 351/351/351
f 351/351/351 352/352/352 348/348/348
f 349/349/349 353/353/353 347/347/347
f 350/350/350 353/353/353 349/349/349
f 351/351/351 347/347/347 353/353/353
f 353/353/353 350/350/350 354/354/354
f 352/352/352 351/351/351 355/355/355
f 351/351/351 353/353/353 355/355/355
f 352/352/352 355/355/355 356/356/356
f 357/357/357 353/353/353 354/354/354
f 357/357/357 355/355/355 353/353/353
f 357/357/357 354/354/354 358/358/358
f 359/359/359 356/356/356 355/355/355
f 360/360/360 355/355/355 357/357/357
f 359/359/359 355/355/355 360/360/360
f 360/360/360 357/357/357 358/358/358
f 359/359/359 361/361/361 356/356/356
f 361/361/361 359/359/359 360/360/360
f 356/356/356 361/361/361 362/362/362
f 358/358/358 363/363/363 360/360/360
f 361/361/361 360/360/360 363/363/363
f 363/363/363 358/358/358 364/364/364
f 363/363/363 365/365/365 361/361/361
f 365/365/365 363/363/363 364/364/364
f 366/366/366 362/362/362 361/361/361
f 366/366/366 361/361/361 365/365/365
f 362/362/362 366/366/366 367/367/367
f 366/366/366 365/365/365 367/367/367
f 368/368/368 365/365/365 364/364/364
f 368/368/368 367/367/367 365/365/365
f 368/368/368 364/364/364 369/369/369
f 368/368/368 369/369/369 367/367/367
f 370/370/370 369/369/369 364/364/364
f 367/367/367 371/371/371 362/362/362
f 371/371/371 367/367/367 369/369/369
f 371/371/371 372/372/372 362/362/362
f 373/373/373 369/369/369 370/370/370
f 371/371/371 369/369/369 374/374/374
f 373/373/373 374/374/374 369/369/369
f 372/372/372 371/371/371 374/374/374
f 373/373/373 370/370/370 375/375/375
f 375/375/375 374/374/374 373/373/373
f 376/376/376 375/375/375 370/370/370
f 374/374/374 377/377/377 372/372/372
f 377/377/377 374/374/374 375/375/375
f 377/377/377 378/378/378 372/372/372
f 379/379/379 375/375/375 376/376/376
f 379/379/379 376/376/376 380/380/380
f 377/377/377 375/375/375 381/381/381
f 378/378/378 377/377/377 381/381/381
f 379/379/379 381/381/381 375/375/375
f 378/378/378 381/381/381 382/382/382
f 383/383/383 379/379/379 380/380/380
f 379/379/379 383/383/383 381/381/381
f 384/384/384 382/382/382 381/381/381
f 384/384/384 381/381/381 383/383/383
f 382/382/382 384/384/384 385/385/385
f 384/384/384 383/383/383 385/385/385
f 382/382/382 385/385/385 386/386/386
f 387/387/387 383/383/383 380/380/380
f 387/387/387 385/385/385 383/383/383
f 387/387/387 380/380/380 388/388/388
f 389/389/389 385/385/385 387/387/387
f 389/389/389 387/387/387 388/388/388
f 390/390/390 386/386/386 385/385/385
f 390/390/390 385/385/385 389/389/389
f 386/386/386 390/390/390 391/391/391
f 390/390/390 389/389/389 391/391/391
f 392/392/392 389/389/389 388/388/388
f 392/392/392 391/391/391 389/389/389
f 392/392/392 388/388/388 393/393/393
f 393/393/393 391/391/391 392/392/392
f 394/394/394 393/393/393 388/388/388
f 391/391/391 395/395/395 386/386/386
f 395/395/395 391/391/391 393/393/393
f 395/395/395 396/396/396 386/386/386
f 397/397/397 393/393/393 394/394/394
f 395/395/395 393/393/393 398/398/398
f 397/397/397 398/398/398 393/393/393
f 396/396/396 395/395/395 398/398/398
f 397/397/397 394/394/394 399/399/399
f 399/399/399 398/398/398 397/397/397
f 400/400/400 399/399/399 394/394/394
f 398/398/398 401/401/401 396/396/396
f 401/401/401 398/398/398 399/399/399
f 401/401/401 402/402/402 396/396/396
f 403/403/403 399/399/399 400/400/400
f 403/403/403 400/400/400 404/404/404
f 401/401/401 399/399/399 405/405/405
f 402/402/402 401/401/401 405/405/405
f 403/403/403 405/405/405 399/399/399
f 402/402/402 405/405/405 406/406/406
f 404/404/404 407/407/407 403/403/403
f 407/407/407 405/405/405 403/403/403
f 404/404/404 408/408/408 407/407/407
f 409/409/409 406/406/406 405/405/405
f 409/409/409 405/405/405 407/407/407
f 406/406/406 409/409/409 410/410/410
f 411/411/411 407/407/407 408/408/408
f 409/409/409 407/407/407 411/411/411
f 412/412/412 410/410/410 409/409/409
f 412/412/412 409/409/409 411/411/411
f 413/413/413 410/410/410 412/412/412
f 412/412/412 411/411/411 413/413/413
f 410/410/410 413/413/413 414/414/414
f 415/415/415 411/411/411 408/408/408
f 415/415/415 413/413/413 411/411/411
f 408/408/408 416/416/416 415/415/415
f 417/417/417 414/414/414 413/413/413
f 418/418/418 414/414/414 417/417/417
f 418/418/418 417/417/417 419/419/419
f 420/420/420 413/413/413 415/415/415
f 417/417/417 413/413/413 420/420/420
f 420/420/420 415/415/415 416/416/416
f 420/420/420 419/419/419 417/417/417
f 420/420/420 416/416/416 419/419/419
