mtllib SM_Bar_Door_01_LOD1.mtl
g SM_Bar_Door_01_LOD1
#Vertices 338
#Indices 1302
#Section 0 Offset 0 NumIndices 348 MaterialIndex 2 MI_Metal_Rusty_03
#Section 1 Offset 348 NumIndices 954 MaterialIndex 1 MI_Plastic_Dirty_06
v 1.467864 0.256677 -0.002191
v 0.101939 0.438297 -0.002191
v 1.467864 0.438297 -0.002191
v 1.192015 -0.019171 -0.002191
v 0.101939 -0.019171 -0.002191
v 0.101939 0.443297 0.002809
v 1.467864 0.438297 -0.002191
v 0.101939 0.438297 -0.002191
v 1.467864 0.443297 0.002809
v 1.467864 0.443297 0.007697
v 0.101939 0.443297 0.007697
v 1.477864 0.448297 0.012697
v 0.091939 0.448297 0.012697
v 1.497472 0.467905 0.012697
v 0.072331 0.467905 0.012697
v 0.072331 0.472905 0.007697
v 1.497472 0.472905 0.007697
v 1.497472 0.472905 -0.007697
v 0.072331 0.472905 -0.007697
v 0.072331 0.467905 -0.012697
v 1.497472 0.467905 -0.012697
v 1.497472 0.244413 -0.012697
v 1.502472 0.247342 -0.007697
v 1.502472 0.467905 -0.007697
v 1.497472 0.472905 -0.007697
v 1.502472 0.247342 0.007697
v 1.497472 0.472905 0.007697
v 1.502472 0.467905 0.007697
v 1.497472 0.467905 0.012697
v 1.497472 0.244413 0.012697
v 1.477864 0.448297 0.012697
v 1.477864 0.252535 0.012697
v 1.472864 0.438297 0.007697
v 1.467864 0.443297 0.007697
v 1.472864 0.259606 0.007697
v 1.467864 0.443297 0.002809
v 1.472864 0.438297 0.002809
v 1.472864 0.259606 0.002809
v 1.467864 0.438297 -0.002191
v 1.467864 0.256677 -0.002191
v 1.502472 0.247342 -0.007697
v 1.498936 0.238806 -0.007697
v 1.502472 0.247342 0.007697
v 1.204279 -0.048779 -0.012697
v 1.498936 0.238806 0.007697
v 1.497472 0.244413 0.012697
v 1.209886 -0.050243 -0.007697
v 1.204279 -0.048779 0.012697
v 1.209886 -0.050243 0.007697
v 1.477864 0.252535 0.012697
v 1.201350 -0.053779 0.007697
v 1.201350 -0.053779 -0.007697
v 1.196157 -0.029171 0.012697
v 1.197622 -0.020636 0.007697
v 1.189086 -0.024171 0.007697
v 1.469329 0.251070 0.007697
v 1.472864 0.259606 0.007697
v 1.472864 0.259606 0.002809
v 1.197622 -0.020636 0.002809
v 1.189086 -0.024171 0.002809
v 1.192015 -0.019171 -0.002191
v 1.469329 0.251070 0.002809
v 1.467864 0.256677 -0.002191
v 0.072331 -0.048779 -0.012697
v 1.201350 -0.053779 -0.007697
v 0.072331 -0.053779 -0.007697
v 0.072331 -0.053779 0.007697
v 1.201350 -0.053779 0.007697
v 0.072331 -0.048779 0.012697
v 1.204279 -0.048779 0.012697
v 0.091939 -0.029171 0.012697
v 1.196157 -0.029171 0.012697
v 0.101939 -0.024171 0.007697
v 1.189086 -0.024171 0.007697
v 1.189086 -0.024171 0.002809
v 0.101939 -0.024171 0.002809
v 0.101939 -0.019171 -0.002191
v 1.192015 -0.019171 -0.002191
v 0.067331 -0.048779 -0.007697
v 0.072331 -0.053779 -0.007697
v 0.072331 -0.053779 0.007697
v 0.067331 0.467905 -0.007697
v 0.072331 0.472905 -0.007697
v 0.067331 -0.048779 0.007697
v 0.067331 0.467905 0.007697
v 0.072331 0.472905 0.007697
v 0.072331 -0.048779 0.012697
v 0.072331 0.467905 0.012697
v 0.091939 0.448297 0.012697
v 0.091939 -0.029171 0.012697
v 0.096939 0.438297 0.007697
v 0.101939 0.443297 0.007697
v 0.096939 -0.019171 0.007697
v 0.101939 -0.024171 0.007697
v 0.101939 -0.024171 0.002809
v 0.096939 0.438297 0.002809
v 0.101939 0.443297 0.002809
v 0.101939 0.438297 -0.002191
v 0.096939 -0.019171 0.002809
v 0.101939 -0.019171 -0.002191
v 0.033462 0.011953 0.013892
v 0.109434 0.011185 -0.000000
v 0.101264 0.011084 0.013924
v 0.033462 0.011953 -0.014007
v 0.101264 0.011084 -0.013924
v 0.031200 0.011841 0.007644
v 0.019946 0.012993 0.028685
v 0.024068 0.011705 -0.021435
v 0.019290 0.011871 -0.027891
v 0.002687 0.011871 -0.032340
v 0.018788 0.006871 0.016101
v 0.026147 0.006946 -0.000121
v 0.008581 0.006871 0.021995
v 0.018788 0.006871 -0.016101
v 0.002811 0.006942 -0.023462
v -0.004930 0.011656 0.028331
v 0.002687 0.011871 0.032340
v -0.013483 0.011871 0.028007
v -0.025320 0.011871 0.016170
v -0.009212 0.006900 0.020296
v -0.030490 0.011916 0.000557
v -0.021036 0.006950 0.001226
v -0.022211 0.011871 -0.014375
v -0.025320 0.011871 -0.016170
v -0.013414 0.006871 -0.016101
v -0.004930 0.011656 -0.028331
v -0.013483 0.011871 -0.028007
v 0.109434 -0.011185 -0.000000
v 0.033462 -0.011953 0.013892
v 0.101264 -0.011084 0.013924
v 0.033462 -0.011953 -0.014007
v 0.101264 -0.011084 -0.013924
v 0.031200 -0.011841 0.007646
v 0.019929 -0.012992 0.028711
v 0.024069 -0.011705 -0.021435
v 0.019290 -0.011871 -0.027891
v 0.002687 -0.011871 -0.032340
v 0.018788 -0.006870 0.016101
v 0.026147 -0.006946 -0.000121
v 0.008581 -0.006870 0.021995
v 0.018788 -0.006870 -0.016101
v 0.002811 -0.006942 -0.023462
v -0.004930 -0.011656 0.028331
v 0.002687 -0.011870 0.032340
v -0.013483 -0.011870 0.028007
v -0.025320 -0.011870 0.016170
v -0.009212 -0.006899 0.020296
v -0.030494 -0.011910 0.000524
v -0.021036 -0.006950 0.001226
v -0.022211 -0.011870 -0.014375
v -0.013414 -0.006870 -0.016101
v -0.025320 -0.011870 -0.016170
v -0.004930 -0.011656 -0.028331
v -0.013483 -0.011871 -0.028007
v 0.109434 0.430742 -0.000000
v 0.033462 0.431024 -0.014208
v 0.101264 0.430636 -0.013924
v 0.033462 0.431024 0.013883
v 0.101264 0.430636 0.013924
v 0.031134 0.430905 -0.008822
v 0.019290 0.430941 -0.027891
v 0.027585 0.430941 0.014375
v 0.019290 0.430941 0.027891
v 0.010313 0.430738 -0.028350
v 0.002687 0.430941 -0.032340
v -0.013483 0.430941 -0.028007
v 0.026403 0.426030 -0.001228
v 0.014602 0.425969 -0.020291
v 0.018788 0.425941 0.016101
v -0.009297 0.425949 -0.020903
v 0.010313 0.430738 0.028350
v 0.002687 0.430941 0.032340
v 0.002557 0.426014 0.023463
v -0.013483 0.430941 0.028007
v -0.011688 0.430941 0.024898
v -0.013414 0.425941 0.016101
v -0.025320 0.430941 0.016170
v -0.025656 0.430730 0.007594
v -0.029653 0.430941 -0.000000
v -0.020777 0.426014 -0.000132
v -0.025320 0.430941 -0.016170
v -0.018852 0.430756 -0.021121
v 0.033462 0.407118 -0.014208
v 0.109434 0.407400 -0.000000
v 0.101264 0.407506 -0.013924
v 0.033462 0.407118 0.013883
v 0.101264 0.407506 0.013924
v 0.031134 0.407237 -0.008823
v 0.019290 0.407200 -0.027891
v 0.027586 0.407200 0.014375
v 0.019290 0.407200 0.027891
v 0.010313 0.407404 -0.028350
v 0.002687 0.407200 -0.032340
v -0.013483 0.407200 -0.028007
v 0.026403 0.412112 -0.001228
v 0.014601 0.412172 -0.020291
v 0.018788 0.412200 0.016101
v -0.009297 0.412193 -0.020903
v 0.010313 0.407403 0.028350
v 0.002687 0.407200 0.032340
v 0.002557 0.412127 0.023463
v -0.013483 0.407200 0.028007
v -0.011688 0.407200 0.024898
v -0.013414 0.412200 0.016101
v -0.025320 0.407200 0.016170
v -0.025656 0.407412 0.007594
v -0.029653 0.407200 -0.000000
v -0.020777 0.412128 -0.000132
v -0.025320 0.407200 -0.016170
v -0.018852 0.407386 -0.021121
v 0.106742 0.412967 -0.014445
v 0.109434 0.407400 -0.000000
v 0.112684 0.412967 -0.004313
v 0.112684 0.425175 -0.004313
v 0.101264 0.407506 -0.013924
v 0.106742 0.425175 -0.014445
v 0.109434 0.430742 -0.000000
v 0.101264 0.430636 -0.013924
v 0.099221 0.412905 -0.019050
v 0.099221 0.425237 -0.019050
v 0.040168 0.425575 -0.019192
v 0.033462 0.431024 -0.014208
v 0.040168 0.412567 -0.019192
v 0.033462 0.407118 -0.014208
v 0.023181 0.425712 -0.031497
v 0.019290 0.430941 -0.027891
v 0.002687 0.430941 -0.032340
v 0.023702 0.412479 -0.031079
v 0.019290 0.407200 -0.027891
v 0.002687 0.407200 -0.032340
v 0.002348 0.412348 -0.037280
v -0.013483 0.407200 -0.028007
v 0.000570 0.425872 -0.037009
v -0.013483 0.430941 -0.028007
v -0.015675 0.412038 -0.032010
v -0.026671 0.426067 -0.024252
v -0.025320 0.430941 -0.016170
v -0.029073 0.412309 -0.018982
v -0.025320 0.407200 -0.016170
v -0.034471 0.425648 0.000790
v -0.029653 0.430941 -0.000000
v -0.025320 0.430941 0.016170
v -0.034632 0.412485 0.000719
v -0.029653 0.407200 -0.000000
v -0.025320 0.407200 0.016170
v -0.029073 0.425833 0.018982
v -0.013483 0.430941 0.028007
v -0.026021 0.412020 0.025011
v -0.013483 0.407200 0.028007
v -0.015676 0.426104 0.032010
v 0.000587 0.412271 0.037012
v 0.002687 0.407200 0.032340
v 0.002369 0.425792 0.037282
v 0.002687 0.430941 0.032340
v 0.023300 0.412430 0.031450
v 0.019290 0.407200 0.027891
v 0.033462 0.407118 0.013883
v 0.023800 0.425662 0.031037
v 0.019290 0.430941 0.027891
v 0.033462 0.431024 0.013883
v 0.040168 0.412567 0.019018
v 0.101264 0.407506 0.013924
v 0.040168 0.425575 0.019018
v 0.101264 0.430636 0.013924
v 0.099221 0.412905 0.019050
v 0.099221 0.425237 0.019050
v 0.106742 0.425175 0.014445
v 0.109434 0.430742 -0.000000
v 0.106742 0.412967 0.014445
v 0.109434 0.407400 -0.000000
v 0.112684 0.425175 0.004313
v 0.112684 0.425175 -0.004313
v 0.112684 0.412967 0.004313
v 0.112684 0.412967 -0.004313
v 0.106742 0.006325 0.014445
v 0.109434 0.011185 -0.000000
v 0.112684 0.006325 0.004313
v 0.112684 -0.006324 0.004313
v 0.101264 0.011084 0.013924
v 0.106742 -0.006324 0.014445
v 0.109434 -0.011185 -0.000000
v 0.101264 -0.011084 0.013924
v 0.099221 -0.007421 0.019050
v 0.099221 0.007421 0.019050
v 0.040168 -0.006504 0.018845
v 0.033462 -0.011953 0.013892
v 0.040168 0.006504 0.018845
v 0.033462 0.011953 0.013892
v 0.023384 -0.006644 0.031412
v 0.019929 -0.012992 0.028711
v 0.002687 -0.011870 0.032340
v 0.023874 0.006596 0.031001
v 0.019946 0.012993 0.028685
v 0.002687 0.011871 0.032340
v 0.002394 0.006720 0.037285
v -0.013483 0.011871 0.028007
v 0.000605 -0.006799 0.037016
v -0.013483 -0.011870 0.028007
v -0.015677 0.007034 0.032009
v -0.026679 -0.006998 0.024252
v -0.025320 -0.011870 0.016170
v -0.029072 0.006762 0.018982
v -0.025320 0.011871 0.016170
v -0.034529 -0.006526 -0.001089
v -0.030494 -0.011910 0.000524
v -0.025320 -0.011870 -0.016170
v -0.034502 0.006575 -0.000389
v -0.030490 0.011916 0.000557
v -0.025320 0.011871 -0.016170
v -0.028655 0.006775 -0.020038
v -0.013483 0.011871 -0.028007
v -0.027990 -0.006825 -0.020625
v -0.013483 -0.011871 -0.028007
v -0.014787 0.006956 -0.032660
v -0.003398 -0.006986 -0.037757
v 0.002687 -0.011871 -0.032340
v 0.001720 0.006794 -0.037061
v 0.002687 0.011871 -0.032340
v 0.023883 -0.006598 -0.030995
v 0.019290 -0.011871 -0.027891
v 0.033462 -0.011953 -0.014007
v 0.023391 0.006646 -0.031407
v 0.019290 0.011871 -0.027891
v 0.033462 0.011953 -0.014007
v 0.040168 0.006504 -0.018809
v 0.101264 0.011084 -0.013924
v 0.040168 -0.006504 -0.018809
v 0.101264 -0.011084 -0.013924
v 0.099221 0.007421 -0.019050
v 0.099221 -0.007421 -0.019050
v 0.106742 -0.006324 -0.014445
v 0.109434 -0.011185 -0.000000
v 0.106742 0.006325 -0.014445
v 0.109434 0.011185 -0.000000
v 0.112684 -0.006324 -0.004313
v 0.112684 -0.006324 0.004313
v 0.112684 0.006325 0.004313
v 0.112684 0.006325 -0.004313
vt 0.120117 0.109863
vt 0.778320 0.197266
vt 0.120117 0.197266
vt 0.252930 -0.022461
vt 0.778320 -0.022461
vt 0.054810 0.801636
vt 0.743652 0.805298
vt 0.054810 0.805298
vt 0.743652 0.801636
vt 0.743652 0.799316
vt 0.054779 0.799316
vt 0.748535 0.795776
vt 0.049683 0.795776
vt 0.758301 0.786011
vt 0.039734 0.786011
vt 0.039642 0.782593
vt 0.758301 0.782593
vt 0.758301 0.775024
vt 0.039551 0.775024
vt 0.039612 0.771729
vt 0.757812 0.771729
vt 0.757812 0.659180
vt 0.761230 0.660156
vt 0.760742 0.771240
vt 0.760742 0.774536
vt 0.768066 0.659912
vt 0.768555 0.774292
vt 0.768066 0.770996
vt 0.770996 0.771240
vt 0.771484 0.658447
vt 0.780762 0.761230
vt 0.780762 0.662598
vt 0.784180 0.756226
vt 0.786133 0.759521
vt 0.784180 0.666016
vt 0.788086 0.758667
vt 0.786621 0.755737
vt 0.786621 0.665771
vt 0.790039 0.755737
vt 0.790039 0.664307
vt 0.762207 0.659180
vt 0.759277 0.655762
vt 0.767578 0.653320
vt 0.610352 0.511230
vt 0.764160 0.650391
vt 0.767578 0.649170
vt 0.613281 0.510010
vt 0.619629 0.500977
vt 0.618652 0.504639
vt 0.771484 0.639404
vt 0.615234 0.501221
vt 0.609863 0.507324
vt 0.629395 0.497070
vt 0.634277 0.497070
vt 0.631836 0.493164
vt 0.771484 0.634277
vt 0.775391 0.636719
vt 0.776855 0.634766
vt 0.636230 0.495605
vt 0.633789 0.491699
vt 0.637207 0.492188
vt 0.772949 0.632324
vt 0.776367 0.631104
vt 0.039886 0.510986
vt 0.609375 0.507812
vt 0.039825 0.507568
vt 0.039948 0.500000
vt 0.609375 0.500000
vt 0.040070 0.496582
vt 0.610840 0.496582
vt 0.050018 0.486816
vt 0.606934 0.486816
vt 0.055115 0.483398
vt 0.603516 0.483398
vt 0.603516 0.480469
vt 0.055145 0.480469
vt 0.055145 0.477051
vt 0.604980 0.477051
vt 0.036865 0.510986
vt 0.037781 0.507812
vt 0.029739 0.506836
vt 0.036682 0.771240
vt 0.036896 0.774658
vt 0.029709 0.510254
vt 0.029465 0.770630
vt 0.028519 0.773804
vt 0.026825 0.509033
vt 0.026062 0.770020
vt 0.016144 0.758301
vt 0.017654 0.517578
vt 0.013077 0.752197
vt 0.010567 0.754883
vt 0.013298 0.520996
vt 0.012604 0.517334
vt 0.010475 0.517090
vt 0.011070 0.750854
vt 0.008728 0.753296
vt 0.007607 0.750244
vt 0.010857 0.520508
vt 0.007515 0.519531
vt 0.140015 0.428223
vt 0.132935 0.390137
vt 0.139893 0.394043
vt 0.125732 0.428223
vt 0.125977 0.394043
vt 0.136841 0.429199
vt 0.147339 0.435059
vt 0.122009 0.432617
vt 0.118774 0.435547
vt 0.116577 0.443848
vt 0.140503 0.436035
vt 0.132935 0.432617
vt 0.143311 0.440918
vt 0.125244 0.436035
vt 0.121826 0.443848
vt 0.147217 0.447754
vt 0.149292 0.443848
vt 0.147095 0.452148
vt 0.141113 0.458008
vt 0.142578 0.449219
vt 0.133423 0.460449
vt 0.133545 0.455078
vt 0.125610 0.456543
vt 0.124756 0.458008
vt 0.125244 0.451172
vt 0.118591 0.447754
vt 0.118774 0.452148
vt 0.136475 0.357910
vt 0.143677 0.319824
vt 0.143555 0.354004
vt 0.129395 0.319824
vt 0.129517 0.354004
vt 0.140503 0.318848
vt 0.151001 0.312988
vt 0.125610 0.315430
vt 0.122437 0.312988
vt 0.120178 0.304199
vt 0.144165 0.312012
vt 0.136597 0.315430
vt 0.146973 0.307129
vt 0.128906 0.312012
vt 0.125488 0.304199
vt 0.150879 0.300293
vt 0.152954 0.304199
vt 0.150757 0.296387
vt 0.144775 0.290039
vt 0.146118 0.298828
vt 0.136963 0.287598
vt 0.137207 0.292969
vt 0.129272 0.291504
vt 0.128906 0.296875
vt 0.128296 0.290039
vt 0.122192 0.300293
vt 0.122375 0.296387
vt 0.136475 0.007812
vt 0.129150 0.045898
vt 0.129517 0.011719
vt 0.143677 0.045898
vt 0.143555 0.011719
vt 0.131958 0.046875
vt 0.122375 0.053223
vt 0.143921 0.048828
vt 0.150757 0.053223
vt 0.122131 0.057617
vt 0.120117 0.061523
vt 0.122314 0.069824
vt 0.135864 0.050293
vt 0.126831 0.055664
vt 0.144165 0.053711
vt 0.126709 0.067383
vt 0.151001 0.057617
vt 0.152954 0.061523
vt 0.147583 0.061523
vt 0.150757 0.069824
vt 0.149170 0.068848
vt 0.144165 0.069336
vt 0.144775 0.075684
vt 0.140381 0.075684
vt 0.136475 0.078125
vt 0.136597 0.072754
vt 0.128296 0.075684
vt 0.125732 0.072266
vt 0.649902 0.283691
vt 0.657227 0.321777
vt 0.649902 0.317383
vt 0.664062 0.283691
vt 0.664062 0.317383
vt 0.652344 0.282715
vt 0.643066 0.276367
vt 0.664551 0.280762
vt 0.671387 0.276367
vt 0.642578 0.271973
vt 0.640625 0.268066
vt 0.643066 0.259766
vt 0.656250 0.279297
vt 0.647461 0.273438
vt 0.664551 0.275879
vt 0.646973 0.262207
vt 0.671387 0.271973
vt 0.673340 0.268066
vt 0.667969 0.268066
vt 0.671387 0.259766
vt 0.669434 0.260742
vt 0.664551 0.260254
vt 0.665039 0.253906
vt 0.660645 0.253418
vt 0.657227 0.251465
vt 0.657227 0.256836
vt 0.648926 0.253906
vt 0.646484 0.256836
vt 0.721680 0.257324
vt 0.717285 0.251465
vt 0.721680 0.251953
vt 0.728027 0.251953
vt 0.718262 0.259766
vt 0.727539 0.257324
vt 0.731934 0.251465
vt 0.730957 0.259766
vt 0.721680 0.261719
vt 0.727539 0.261719
vt 0.728027 0.291504
vt 0.732422 0.293457
vt 0.721191 0.291504
vt 0.716797 0.293457
vt 0.728027 0.301758
vt 0.731445 0.303223
vt 0.731445 0.312012
vt 0.721680 0.301758
vt 0.717773 0.302734
vt 0.717773 0.312012
vt 0.721191 0.312012
vt 0.717773 0.320801
vt 0.728027 0.312988
vt 0.731445 0.320801
vt 0.721191 0.320801
vt 0.728027 0.327148
vt 0.731445 0.330078
vt 0.721191 0.329590
vt 0.717773 0.330078
vt 0.728027 0.339355
vt 0.731445 0.338867
vt 0.731445 0.347656
vt 0.721191 0.339355
vt 0.717773 0.338867
vt 0.717773 0.347656
vt 0.728027 0.348145
vt 0.731445 0.356934
vt 0.721191 0.351074
vt 0.717773 0.356445
vt 0.728027 0.356934
vt 0.721191 0.364746
vt 0.717773 0.365723
vt 0.728027 0.365723
vt 0.731445 0.365723
vt 0.721191 0.375977
vt 0.717773 0.374512
vt 0.716309 0.384277
vt 0.727539 0.375977
vt 0.730957 0.374512
vt 0.732422 0.384277
vt 0.720703 0.386230
vt 0.717773 0.417969
vt 0.728027 0.386230
vt 0.730957 0.417969
vt 0.721191 0.416016
vt 0.727539 0.416016
vt 0.727539 0.419922
vt 0.730957 0.426758
vt 0.721191 0.419922
vt 0.717773 0.426758
vt 0.727539 0.425781
vt 0.727539 0.429688
vt 0.721191 0.425781
vt 0.721191 0.429688
vt 0.701172 0.422852
vt 0.705078 0.429199
vt 0.701660 0.428711
vt 0.694824 0.429199
vt 0.704102 0.420898
vt 0.694824 0.423340
vt 0.690918 0.429688
vt 0.691406 0.421387
vt 0.693848 0.419434
vt 0.701172 0.418945
vt 0.692383 0.389648
vt 0.687500 0.387695
vt 0.699219 0.389648
vt 0.703613 0.386719
vt 0.691895 0.378906
vt 0.688477 0.377930
vt 0.687988 0.368652
vt 0.698242 0.379395
vt 0.701660 0.377930
vt 0.701660 0.368652
vt 0.698242 0.368652
vt 0.701660 0.359863
vt 0.691406 0.367676
vt 0.687988 0.359863
vt 0.698242 0.359863
vt 0.691406 0.354004
vt 0.687988 0.351074
vt 0.698242 0.351074
vt 0.701660 0.351074
vt 0.691895 0.341309
vt 0.688477 0.342285
vt 0.688477 0.333008
vt 0.698242 0.341797
vt 0.701660 0.342285
vt 0.702148 0.333496
vt 0.698730 0.332520
vt 0.702637 0.324219
vt 0.691895 0.332031
vt 0.688965 0.323730
vt 0.699219 0.323730
vt 0.692383 0.317871
vt 0.688965 0.314941
vt 0.699219 0.315918
vt 0.702637 0.315430
vt 0.693359 0.304688
vt 0.689453 0.305664
vt 0.688965 0.296387
vt 0.699707 0.305176
vt 0.703125 0.306641
vt 0.705078 0.297363
vt 0.700684 0.294922
vt 0.706055 0.263184
vt 0.693848 0.294434
vt 0.692871 0.262695
vt 0.703125 0.265137
vt 0.695801 0.264648
vt 0.696289 0.260742
vt 0.693848 0.253906
vt 0.702637 0.261230
vt 0.706543 0.254883
vt 0.696777 0.255371
vt 0.696777 0.250977
vt 0.703613 0.251465
vt 0.703125 0.255859
vt1 0.776367 0.821167
vt1 0.874512 0.084473
vt1 0.874512 0.821167
vt1 0.627441 0.672363
vt1 0.627441 0.084473
vt1 0.083801 0.129883
vt1 0.079956 0.867554
vt1 0.079956 0.129883
vt1 0.083801 0.867554
vt1 0.086426 0.867554
vt1 0.086426 0.129883
vt1 0.090149 0.872925
vt1 0.090149 0.124512
vt1 0.100647 0.883423
vt1 0.100647 0.113770
vt1 0.104248 0.113770
vt1 0.104248 0.883301
vt1 0.112244 0.883179
vt1 0.112244 0.113770
vt1 0.115540 0.113770
vt1 0.115723 0.882507
vt1 0.236206 0.882568
vt1 0.235352 0.885376
vt1 0.116394 0.885376
vt1 0.112793 0.884888
vt1 0.235596 0.892944
vt1 0.113098 0.893555
vt1 0.116638 0.892883
vt1 0.116333 0.896240
vt1 0.237183 0.896179
vt1 0.126953 0.906311
vt1 0.232788 0.906433
vt1 0.132324 0.910156
vt1 0.128784 0.912109
vt1 0.229004 0.910034
vt1 0.129639 0.914307
vt1 0.132935 0.912659
vt1 0.229248 0.912598
vt1 0.132812 0.916382
vt1 0.230957 0.916382
vt1 0.236206 0.886719
vt1 0.239746 0.883423
vt1 0.242432 0.892517
vt1 0.394287 0.724609
vt1 0.245483 0.888794
vt1 0.246826 0.892395
vt1 0.395752 0.727783
vt1 0.405273 0.733887
vt1 0.401367 0.732910
vt1 0.257324 0.896545
vt1 0.405029 0.729492
vt1 0.398438 0.723877
vt1 0.409424 0.744385
vt1 0.409424 0.749756
vt1 0.413818 0.747070
vt1 0.262695 0.896667
vt1 0.260010 0.900940
vt1 0.261963 0.902405
vt1 0.411133 0.751831
vt1 0.415283 0.749268
vt1 0.415039 0.753296
vt1 0.264648 0.898315
vt1 0.266113 0.902222
vt1 0.394531 0.114258
vt1 0.397949 0.723633
vt1 0.397949 0.113770
vt1 0.406250 0.114258
vt1 0.406250 0.723877
vt1 0.409912 0.114258
vt1 0.409912 0.725586
vt1 0.420654 0.125000
vt1 0.420654 0.721191
vt1 0.424316 0.130371
vt1 0.424316 0.717529
vt1 0.427002 0.717529
vt1 0.427002 0.130371
vt1 0.430908 0.130371
vt1 0.430908 0.718994
vt1 0.394531 0.111328
vt1 0.397949 0.112305
vt1 0.398438 0.103516
vt1 0.115784 0.111328
vt1 0.112244 0.111816
vt1 0.394775 0.103516
vt1 0.116211 0.103516
vt1 0.112732 0.103027
vt1 0.395996 0.100098
vt1 0.116638 0.100098
vt1 0.129395 0.088867
vt1 0.386719 0.089844
vt1 0.136597 0.085938
vt1 0.134644 0.082520
vt1 0.383545 0.084961
vt1 0.386719 0.085449
vt1 0.388184 0.084473
vt1 0.139282 0.083984
vt1 0.137573 0.081055
vt1 0.140869 0.080078
vt1 0.385498 0.083008
vt1 0.387695 0.080566
vt1 0.522461 0.735352
vt1 0.522461 0.777100
vt1 0.516113 0.771484
vt1 0.537598 0.738281
vt1 0.530762 0.774170
vt1 0.525879 0.734863
vt1 0.516113 0.726562
vt1 0.542480 0.733887
vt1 0.546387 0.731934
vt1 0.550293 0.723389
vt1 0.523438 0.726807
vt1 0.530762 0.731934
vt1 0.521484 0.721191
vt1 0.539551 0.729736
vt1 0.544922 0.722168
vt1 0.518555 0.713135
vt1 0.515625 0.717041
vt1 0.519531 0.708740
vt1 0.526855 0.703369
vt1 0.523926 0.712402
vt1 0.535645 0.702148
vt1 0.534180 0.708008
vt1 0.542969 0.708008
vt1 0.544434 0.706543
vt1 0.542480 0.713379
vt1 0.548828 0.718750
vt1 0.549805 0.714111
vt1 0.818359 0.913025
vt1 0.779297 0.898010
vt1 0.815430 0.904846
vt1 0.776367 0.913330
vt1 0.812500 0.919678
vt1 0.777344 0.901245
vt1 0.773438 0.888855
vt1 0.770508 0.916382
vt1 0.767578 0.919312
vt1 0.757812 0.920044
vt1 0.770996 0.895935
vt1 0.772949 0.904724
vt1 0.766113 0.892090
vt1 0.768066 0.912231
vt1 0.759277 0.914368
vt1 0.759766 0.886536
vt1 0.764648 0.885132
vt1 0.755371 0.885864
vt1 0.747559 0.891113
vt1 0.757324 0.891235
vt1 0.743652 0.898804
vt1 0.749512 0.899658
vt1 0.746094 0.907898
vt1 0.751465 0.909180
vt1 0.744629 0.908569
vt1 0.754395 0.917114
vt1 0.749512 0.916077
vt1 0.430664 0.835327
vt1 0.416016 0.874512
vt1 0.422363 0.838501
vt1 0.431641 0.877075
vt1 0.437256 0.840942
vt1 0.418945 0.876221
vt1 0.407471 0.881042
vt1 0.431152 0.880249
vt1 0.437744 0.886108
vt1 0.406494 0.885864
vt1 0.403564 0.889648
vt1 0.404541 0.898804
vt1 0.422363 0.880371
vt1 0.411865 0.884888
vt1 0.430664 0.885742
vt1 0.409668 0.896973
vt1 0.437256 0.890991
vt1 0.438477 0.895508
vt1 0.432861 0.894531
vt1 0.434814 0.903870
vt1 0.433350 0.902649
vt1 0.427734 0.902100
vt1 0.427246 0.909241
vt1 0.422607 0.908630
vt1 0.418213 0.910095
vt1 0.419189 0.904480
vt1 0.409668 0.906250
vt1 0.407715 0.902344
vt1 0.556152 0.885437
vt1 0.555176 0.843628
vt1 0.562012 0.849243
vt1 0.540527 0.882812
vt1 0.546875 0.846680
vt1 0.552734 0.886108
vt1 0.562012 0.894409
vt1 0.540039 0.885864
vt1 0.531738 0.889221
vt1 0.561523 0.899353
vt1 0.562988 0.903809
vt1 0.559082 0.912170
vt1 0.548340 0.888916
vt1 0.556641 0.896606
vt1 0.538574 0.891235
vt1 0.554688 0.908752
vt1 0.530762 0.894043
vt1 0.527832 0.897827
vt1 0.533691 0.898804
vt1 0.528809 0.906982
vt1 0.530762 0.906311
vt1 0.536133 0.907593
vt1 0.534180 0.914490
vt1 0.538574 0.915527
vt1 0.542480 0.918396
vt1 0.543457 0.912720
vt1 0.551758 0.917542
vt1 0.554688 0.914490
vt1 0.500488 0.452148
vt1 0.496094 0.445312
vt1 0.500488 0.446289
vt1 0.507324 0.446289
vt1 0.497070 0.454590
vt1 0.507324 0.452148
vt1 0.511719 0.445312
vt1 0.510742 0.454590
vt1 0.500488 0.456543
vt1 0.507324 0.456543
vt1 0.507324 0.488770
vt1 0.512207 0.491211
vt1 0.500000 0.488770
vt1 0.495361 0.491211
vt1 0.507324 0.500000
vt1 0.511230 0.501221
vt1 0.511230 0.510986
vt1 0.500488 0.500000
vt1 0.496582 0.501221
vt1 0.496582 0.510986
vt1 0.500000 0.510986
vt1 0.496338 0.520508
vt1 0.507324 0.511963
vt1 0.511230 0.520508
vt1 0.500000 0.520508
vt1 0.507324 0.527100
vt1 0.511230 0.530273
vt1 0.500000 0.530029
vt1 0.496338 0.530273
vt1 0.507324 0.540283
vt1 0.511230 0.540039
vt1 0.511230 0.549561
vt1 0.500000 0.540283
vt1 0.496338 0.540039
vt1 0.496338 0.549561
vt1 0.507324 0.549805
vt1 0.510742 0.559326
vt1 0.500000 0.553223
vt1 0.496338 0.559326
vt1 0.507324 0.559326
vt1 0.500000 0.567871
vt1 0.496338 0.569092
vt1 0.507324 0.568848
vt1 0.510742 0.569092
vt1 0.500000 0.580078
vt1 0.496338 0.578613
vt1 0.494873 0.588867
vt1 0.506836 0.580322
vt1 0.510742 0.578857
vt1 0.511719 0.588867
vt1 0.499756 0.591309
vt1 0.496338 0.625488
vt1 0.506836 0.591309
vt1 0.510254 0.625732
vt1 0.500000 0.623291
vt1 0.506836 0.623535
vt1 0.506348 0.627686
vt1 0.510254 0.635010
vt1 0.500000 0.627686
vt1 0.496094 0.635010
vt1 0.506348 0.633789
vt1 0.506836 0.638184
vt1 0.500000 0.633545
vt1 0.499512 0.638184
vt1 0.509277 0.324219
vt1 0.514160 0.331055
vt1 0.509766 0.330566
vt1 0.502441 0.330566
vt1 0.512695 0.321777
vt1 0.502441 0.324707
vt1 0.498779 0.331543
vt1 0.499023 0.322754
vt1 0.501953 0.320312
vt1 0.509766 0.319824
vt1 0.499756 0.288574
vt1 0.494873 0.286133
vt1 0.507324 0.288086
vt1 0.511719 0.285156
vt1 0.499512 0.276855
vt1 0.495605 0.275879
vt1 0.495361 0.265625
vt1 0.506348 0.276855
vt1 0.510254 0.275391
vt1 0.510254 0.265625
vt1 0.506348 0.265625
vt1 0.510254 0.255859
vt1 0.499023 0.264648
vt1 0.495361 0.255859
vt1 0.506348 0.256348
vt1 0.499023 0.249512
vt1 0.495605 0.246094
vt1 0.506348 0.246582
vt1 0.510254 0.246582
vt1 0.499512 0.235840
vt1 0.495850 0.236816
vt1 0.495850 0.226562
vt1 0.506348 0.236328
vt1 0.510254 0.237305
vt1 0.510742 0.227051
vt1 0.506836 0.226074
vt1 0.510742 0.217285
vt1 0.499512 0.225586
vt1 0.496094 0.216797
vt1 0.507324 0.216797
vt1 0.500000 0.210449
vt1 0.496582 0.207520
vt1 0.507324 0.208008
vt1 0.511230 0.208008
vt1 0.500977 0.196289
vt1 0.497070 0.197266
vt1 0.496582 0.187012
vt1 0.507812 0.196777
vt1 0.511719 0.198242
vt1 0.513184 0.188477
vt1 0.508789 0.185547
vt1 0.514648 0.151855
vt1 0.501465 0.185059
vt1 0.500977 0.150879
vt1 0.511230 0.153809
vt1 0.503418 0.152832
vt1 0.504395 0.148926
vt1 0.501465 0.141113
vt1 0.511230 0.149414
vt1 0.515137 0.142090
vt1 0.504883 0.143066
vt1 0.504883 0.138184
vt1 0.512207 0.138672
vt1 0.511719 0.143555
vn 0.000000 0.000000 1.000000
vn 0.000000 0.000000 1.000000
vn 0.000000 0.000000 1.000000
vn 0.000000 0.000000 1.000000
vn 0.000000 0.000000 1.000000
vn 0.000000 -0.708661 0.708661
vn 0.000000 0.000000 1.000000
vn 0.000000 0.000000 1.000000
vn 0.000000 -0.708661 0.708661
vn 0.000000 -0.708661 0.708661
vn 0.000000 -0.708661 0.708661
vn 0.000000 0.000000 1.000000
vn 0.000000 0.000000 1.000000
vn 0.000000 0.000000 1.000000
vn 0.000000 0.000000 1.000000
vn 0.000000 1.000000 -0.000000
vn 0.000000 1.000000 -0.000000
vn 0.000000 1.000000 -0.000000
vn 0.000000 1.000000 -0.000000
vn 0.000000 -0.000000 -1.000000
vn 0.000000 -0.000000 -1.000000
vn 0.000000 -0.000000 -1.000000
vn 1.000000 0.000000 0.000000
vn 1.000000 0.000000 0.000000
vn 0.000000 1.000000 -0.000000
vn 1.000000 0.000000 0.000000
vn 0.000000 1.000000 -0.000000
vn 1.000000 0.000000 0.000000
vn 0.000000 0.000000 1.000000
vn 0.000000 0.000000 1.000000
vn 0.000000 0.000000 1.000000
vn 0.000000 0.000000 1.000000
vn -0.708661 0.000000 0.708661
vn 0.000000 -0.708661 0.708661
vn -0.708661 0.000000 0.708661
vn 0.000000 -0.708661 0.708661
vn -0.708661 0.000000 0.708661
vn -0.708661 0.000000 0.708661
vn 0.000000 0.000000 1.000000
vn 0.000000 0.000000 1.000000
vn 1.000000 0.000000 0.000000
vn 0.708661 -0.708661 0.000000
vn 1.000000 0.000000 0.000000
vn 0.000000 -0.000000 -1.000000
vn 0.708661 -0.708661 0.000000
vn 0.000000 0.000000 1.000000
vn 0.708661 -0.708661 0.000000
vn 0.000000 0.000000 1.000000
vn 0.708661 -0.708661 0.000000
vn 0.000000 0.000000 1.000000
vn 0.000000 -1.000000 0.000000
vn 0.000000 -1.000000 0.000000
vn 0.000000 0.000000 1.000000
vn -0.503937 0.503937 0.708661
vn 0.000000 0.708661 0.708661
vn -0.503937 0.503937 0.708661
vn -0.708661 0.000000 0.708661
vn -0.708661 0.000000 0.708661
vn -0.503937 0.503937 0.708661
vn 0.000000 0.708661 0.708661
vn 0.000000 0.000000 1.000000
vn -0.503937 0.503937 0.708661
vn 0.000000 0.000000 1.000000
vn 0.000000 -0.000000 -1.000000
vn 0.000000 -1.000000 0.000000
vn 0.000000 -1.000000 0.000000
vn 0.000000 -1.000000 0.000000
vn 0.000000 -1.000000 0.000000
vn 0.000000 0.000000 1.000000
vn 0.000000 0.000000 1.000000
vn 0.000000 0.000000 1.000000
vn 0.000000 0.000000 1.000000
vn 0.000000 0.708661 0.708661
vn 0.000000 0.708661 0.708661
vn 0.000000 0.708661 0.708661
vn 0.000000 0.708661 0.708661
vn 0.000000 0.000000 1.000000
vn 0.000000 0.000000 1.000000
vn -1.000000 0.000000 0.000000
vn 0.000000 -1.000000 0.000000
vn 0.000000 -1.000000 0.000000
vn -1.000000 0.000000 0.000000
vn 0.000000 1.000000 -0.000000
vn -1.000000 0.000000 0.000000
vn -1.000000 0.000000 0.000000
vn 0.000000 1.000000 -0.000000
vn 0.000000 0.000000 1.000000
vn 0.000000 0.000000 1.000000
vn 0.000000 0.000000 1.000000
vn 0.000000 0.000000 1.000000
vn 0.708661 0.000000 0.708661
vn 0.000000 -0.708661 0.708661
vn 0.708661 0.000000 0.708661
vn 0.000000 0.708661 0.708661
vn 0.000000 0.708661 0.708661
vn 0.708661 0.000000 0.708661
vn 0.000000 -0.708661 0.708661
vn 0.000000 0.000000 1.000000
vn 0.708661 0.000000 0.708661
vn 0.000000 0.000000 1.000000
vn 0.007874 1.000000 -0.007874
vn 0.007874 1.000000 -0.000000
vn 0.015748 1.000000 0.015748
vn 0.007874 1.000000 0.007874
vn 0.015748 1.000000 -0.015748
vn 0.000000 1.000000 -0.007874
vn 0.070866 0.992126 0.133858
vn -0.015748 1.000000 0.023622
vn -0.007874 1.000000 -0.000000
vn 0.000000 1.000000 -0.000000
vn -0.503937 0.708661 -0.496063
vn -0.700787 0.708661 0.062992
vn -0.181102 0.708661 -0.685039
vn -0.503937 0.708661 0.496063
vn -0.062992 0.708661 0.700787
vn 0.007874 1.000000 -0.031496
vn 0.000000 1.000000 -0.000000
vn 0.000000 1.000000 -0.000000
vn 0.000000 1.000000 -0.000000
vn 0.417323 0.700787 -0.574803
vn 0.000000 1.000000 0.023622
vn 0.708661 0.708661 0.031496
vn 0.000000 1.000000 -0.000000
vn 0.000000 1.000000 -0.000000
vn 0.503937 0.708661 0.496063
vn 0.007874 1.000000 0.031496
vn 0.000000 1.000000 -0.000000
vn 0.007874 -1.000000 0.000000
vn 0.007874 -1.000000 -0.007874
vn 0.015748 -1.000000 0.015748
vn 0.007874 -1.000000 0.007874
vn 0.015748 -1.000000 -0.015748
vn 0.000000 -1.000000 -0.007874
vn 0.070866 -0.992126 0.133858
vn -0.015748 -1.000000 0.023622
vn -0.007874 -1.000000 0.000000
vn 0.000000 -1.000000 0.000000
vn -0.496063 -0.708661 -0.496063
vn -0.700787 -0.708661 0.062992
vn -0.181102 -0.708661 -0.685039
vn -0.496063 -0.708661 0.496063
vn -0.062992 -0.708661 0.700787
vn 0.007874 -1.000000 -0.031496
vn 0.000000 -1.000000 0.000000
vn 0.000000 -1.000000 0.000000
vn 0.000000 -1.000000 0.000000
vn 0.417323 -0.700787 -0.574803
vn 0.000000 -1.000000 0.023622
vn 0.708661 -0.708661 0.031496
vn 0.000000 -1.000000 0.000000
vn 0.503937 -0.708661 0.496063
vn 0.000000 -1.000000 0.000000
vn 0.007874 -1.000000 0.031496
vn 0.000000 -1.000000 0.000000
vn 0.000000 1.000000 -0.000000
vn 0.000000 1.000000 0.007874
vn 0.007874 1.000000 -0.007874
vn 0.000000 1.000000 -0.007874
vn 0.007874 1.000000 0.007874
vn -0.007874 1.000000 0.007874
vn -0.007874 1.000000 -0.000000
vn 0.000000 1.000000 -0.007874
vn -0.007874 1.000000 -0.000000
vn -0.007874 1.000000 0.031496
vn 0.000000 1.000000 -0.000000
vn 0.000000 1.000000 -0.000000
vn -0.708661 0.708661 -0.031496
vn -0.417323 0.700787 0.574803
vn -0.503937 0.708661 -0.496063
vn 0.299213 0.692913 0.653543
vn -0.007874 1.000000 -0.031496
vn 0.000000 1.000000 -0.000000
vn 0.062992 0.708661 -0.700787
vn 0.000000 1.000000 -0.000000
vn 0.000000 1.000000 -0.000000
vn 0.503937 0.708661 -0.496063
vn 0.000000 1.000000 -0.000000
vn 0.031496 1.000000 -0.007874
vn 0.000000 1.000000 -0.000000
vn 0.700787 0.708661 0.062992
vn 0.000000 1.000000 -0.000000
vn 0.015748 1.000000 0.023622
vn 0.000000 -1.000000 0.007874
vn 0.000000 -1.000000 0.000000
vn 0.007874 -1.000000 -0.007874
vn 0.000000 -1.000000 -0.007874
vn 0.007874 -1.000000 0.007874
vn -0.007874 -1.000000 0.007874
vn -0.007874 -1.000000 0.000000
vn 0.000000 -1.000000 -0.007874
vn -0.007874 -1.000000 0.000000
vn -0.007874 -1.000000 0.031496
vn 0.000000 -1.000000 0.000000
vn 0.000000 -1.000000 0.000000
vn -0.708661 -0.708661 -0.031496
vn -0.417323 -0.700787 0.574803
vn -0.496063 -0.708661 -0.496063
vn 0.299213 -0.692913 0.653543
vn -0.007874 -1.000000 -0.031496
vn 0.000000 -1.000000 0.000000
vn 0.062992 -0.708661 -0.700787
vn 0.000000 -1.000000 0.000000
vn 0.000000 -1.000000 0.000000
vn 0.503937 -0.708661 -0.496063
vn 0.000000 -1.000000 0.000000
vn 0.031496 -1.000000 -0.007874
vn 0.000000 -1.000000 0.000000
vn 0.700787 -0.708661 0.062992
vn 0.000000 -1.000000 0.000000
vn 0.015748 -1.000000 0.023622
vn 0.866142 -0.000000 -0.503937
vn 0.000000 -1.000000 0.000000
vn 0.866142 -0.000000 -0.503937
vn 0.866142 -0.000000 -0.503937
vn 0.007874 -1.000000 -0.007874
vn 0.866142 -0.000000 -0.503937
vn 0.000000 1.000000 -0.000000
vn 0.007874 1.000000 -0.007874
vn 0.000000 -0.000000 -1.000000
vn 0.000000 -0.000000 -1.000000
vn 0.000000 -0.000000 -1.000000
vn 0.000000 1.000000 0.007874
vn 0.000000 -0.000000 -1.000000
vn 0.000000 -1.000000 0.007874
vn 0.598425 -0.007874 -0.803149
vn -0.007874 1.000000 -0.000000
vn 0.000000 1.000000 -0.000000
vn 0.598425 0.007874 -0.803149
vn -0.007874 -1.000000 0.000000
vn 0.000000 -1.000000 0.000000
vn -0.039370 0.007874 -1.000000
vn 0.000000 -1.000000 0.000000
vn -0.023622 -0.000000 -1.000000
vn 0.000000 1.000000 -0.000000
vn -0.527559 -0.000000 -0.850394
vn -0.755906 -0.000000 -0.661417
vn 0.000000 1.000000 -0.000000
vn -0.874016 -0.000000 -0.488189
vn 0.000000 -1.000000 0.000000
vn -1.000000 -0.007874 -0.007874
vn 0.000000 1.000000 -0.000000
vn 0.000000 1.000000 -0.000000
vn -1.000000 0.015748 0.039370
vn 0.000000 -1.000000 0.000000
vn 0.000000 -1.000000 0.000000
vn -0.874016 0.000000 0.488189
vn 0.000000 1.000000 -0.000000
vn -0.740157 0.000000 0.669291
vn 0.000000 -1.000000 0.000000
vn -0.527559 0.000000 0.850394
vn -0.023622 0.000000 1.000000
vn 0.000000 -1.000000 0.000000
vn -0.039370 -0.007874 1.000000
vn 0.000000 1.000000 -0.000000
vn 0.598425 0.007874 0.795275
vn -0.007874 -1.000000 0.000000
vn 0.000000 -1.000000 -0.007874
vn 0.598425 -0.007874 0.803149
vn -0.007874 1.000000 -0.000000
vn 0.000000 1.000000 -0.007874
vn 0.000000 0.000000 1.000000
vn 0.007874 -1.000000 0.007874
vn 0.000000 0.000000 1.000000
vn 0.007874 1.000000 0.007874
vn 0.000000 0.000000 1.000000
vn 0.000000 0.000000 1.000000
vn 0.866142 0.000000 0.503937
vn 0.000000 1.000000 -0.000000
vn 0.866142 0.000000 0.503937
vn 0.000000 -1.000000 0.000000
vn 0.866142 0.000000 0.503937
vn 0.866142 -0.000000 -0.503937
vn 0.866142 0.000000 0.503937
vn 0.866142 -0.000000 -0.503937
vn 0.866142 0.000000 0.503937
vn 0.007874 1.000000 -0.000000
vn 0.866142 0.000000 0.503937
vn 0.866142 0.000000 0.503937
vn 0.015748 1.000000 0.015748
vn 0.866142 0.000000 0.503937
vn 0.007874 -1.000000 0.000000
vn 0.015748 -1.000000 0.015748
vn 0.000000 0.000000 1.000000
vn 0.000000 0.000000 1.000000
vn 0.000000 0.000000 1.000000
vn 0.007874 -1.000000 -0.007874
vn 0.000000 0.000000 1.000000
vn 0.007874 1.000000 -0.007874
vn 0.606299 0.007874 0.795275
vn -0.015748 -1.000000 -0.015748
vn 0.000000 -1.000000 0.000000
vn 0.606299 -0.007874 0.795275
vn -0.015748 1.000000 -0.023622
vn 0.000000 1.000000 -0.000000
vn -0.039370 -0.007874 1.000000
vn 0.000000 1.000000 -0.000000
vn -0.023622 0.000000 1.000000
vn 0.000000 -1.000000 0.000000
vn -0.527559 0.000000 0.850394
vn -0.755906 0.000000 0.661417
vn 0.000000 -1.000000 0.000000
vn -0.874016 0.000000 0.488189
vn 0.000000 1.000000 -0.000000
vn -1.000000 0.015748 -0.000000
vn -0.078740 -1.000000 0.000000
vn 0.000000 -1.000000 0.000000
vn -1.000000 -0.007874 -0.031496
vn -0.078740 1.000000 -0.000000
vn 0.000000 1.000000 -0.000000
vn -0.834646 -0.007874 -0.551181
vn 0.000000 1.000000 -0.000000
vn -0.850394 -0.000000 -0.519685
vn 0.000000 -1.000000 0.000000
vn -0.456693 -0.000000 -0.889764
vn -0.188976 -0.000000 -0.984252
vn 0.000000 -1.000000 0.000000
vn -0.007874 -0.000000 -1.000000
vn 0.000000 1.000000 -0.000000
vn 0.606299 0.007874 -0.795275
vn -0.007874 -1.000000 0.000000
vn 0.007874 -1.000000 0.007874
vn 0.606299 -0.007874 -0.795275
vn -0.007874 1.000000 -0.000000
vn 0.007874 1.000000 0.007874
vn -0.007874 -0.000000 -1.000000
vn 0.015748 1.000000 -0.015748
vn -0.007874 -0.000000 -1.000000
vn 0.015748 -1.000000 -0.015748
vn -0.007874 -0.000000 -1.000000
vn -0.007874 -0.000000 -1.000000
vn 0.866142 -0.000000 -0.503937
vn 0.007874 -1.000000 0.000000
vn 0.866142 -0.000000 -0.503937
vn 0.007874 1.000000 -0.000000
vn 0.866142 -0.000000 -0.503937
vn 0.866142 0.000000 0.503937
vn 0.866142 0.000000 0.503937
vn 0.866142 -0.000000 -0.503937
tan 0.000000 -1.000000 0.000000 1.000000
tan 0.000000 -1.000000 0.000000 1.000000
tan 0.000000 -1.000000 0.000000 1.000000
tan 0.000000 -1.000000 0.000000 1.000000
tan 0.000000 -1.000000 0.000000 1.000000
tan 0.000000 0.708661 0.708661 1.000000
tan 0.000000 1.000000 -0.000000 1.000000
tan 0.000000 1.000000 -0.000000 1.000000
tan 0.000000 0.708661 0.708661 1.000000
tan 0.000000 0.708661 0.708661 1.000000
tan 0.000000 0.708661 0.708661 1.000000
tan 0.000000 1.000000 -0.000000 1.000000
tan 0.000000 1.000000 -0.000000 1.000000
tan 0.000000 1.000000 -0.000000 1.000000
tan 0.000000 1.000000 -0.000000 1.000000
tan 0.000000 -0.000000 -1.000000 1.000000
tan 0.000000 -0.000000 -1.000000 1.000000
tan 0.000000 -0.000000 -1.000000 1.000000
tan 0.000000 -0.000000 -1.000000 1.000000
tan -0.086614 -0.992126 0.000000 1.000000
tan 0.094488 -0.992126 0.000000 1.000000
tan 0.204724 -0.976378 0.000000 1.000000
tan 0.000000 -0.992126 0.118110 1.000000
tan 0.000000 -0.992126 0.102362 1.000000
tan 0.944882 -0.000000 -0.330709 1.000000
tan 0.000000 -1.000000 0.015748 1.000000
tan 0.929134 0.000000 0.370079 1.000000
tan 0.000000 -1.000000 -0.031496 1.000000
tan 0.078740 -1.000000 0.000000 1.000000
tan 0.000000 -1.000000 0.000000 1.000000
tan 0.031496 -1.000000 0.000000 1.000000
tan -0.007874 -1.000000 0.000000 1.000000
tan -0.100440 -0.993242 -0.100440 1.000000
tan 0.390601 -0.652861 -0.652861 1.000000
tan -0.100440 -0.993242 -0.100440 1.000000
tan 0.613801 -0.558001 -0.558001 1.000000
tan -0.200880 -0.959762 -0.200880 1.000000
tan -0.089280 -0.993242 -0.089280 1.000000
tan 0.031496 -1.000000 0.000000 1.000000
tan -0.039370 -1.000000 0.000000 1.000000
tan 0.000000 -0.779527 0.622047 1.000000
tan -0.619381 -0.619381 0.479881 1.000000
tan 0.000000 -0.622047 0.787401 1.000000
tan 0.023622 -1.000000 0.000000 1.000000
tan -0.613801 -0.613801 0.491041 1.000000
tan -1.000000 0.031496 -0.000000 1.000000
tan -0.613801 -0.613801 0.502201 1.000000
tan -0.952756 0.291339 -0.000000 1.000000
tan -0.613801 -0.613801 0.502201 1.000000
tan -1.000000 -0.007874 0.000000 1.000000
tan -0.763780 0.000000 0.645669 1.000000
tan -0.606299 0.000000 0.795275 1.000000
tan -1.000000 0.086614 -0.000000 1.000000
tan -0.815550 -0.000868 -0.579329 1.000000
tan -0.747721 0.474301 -0.474301 1.000000
tan -0.823486 -0.025544 -0.567425 1.000000
tan -0.703081 -0.133920 -0.703081 1.000000
tan -0.703081 -0.133920 -0.703081 1.000000
tan -0.815550 -0.000868 -0.579329 1.000000
tan -0.658441 0.535681 -0.535681 1.000000
tan -0.937008 0.354331 -0.000000 1.000000
tan -0.819518 -0.015996 -0.571393 1.000000
tan -1.000000 0.086614 -0.000000 1.000000
tan -0.007874 -1.000000 0.000000 1.000000
tan 0.000000 0.000000 1.000000 1.000000
tan 0.000000 0.000000 1.000000 1.000000
tan 0.000000 0.000000 1.000000 1.000000
tan 0.000000 0.000000 1.000000 1.000000
tan 0.000000 1.000000 -0.000000 1.000000
tan 0.000000 1.000000 -0.000000 1.000000
tan 0.000000 1.000000 -0.000000 1.000000
tan 0.000000 1.000000 -0.000000 1.000000
tan 0.000000 0.708661 -0.708661 1.000000
tan 0.000000 0.708661 -0.708661 1.000000
tan 0.000000 0.708661 -0.708661 1.000000
tan 0.000000 0.708661 -0.708661 1.000000
tan 0.000000 1.000000 -0.000000 1.000000
tan 0.000000 1.000000 -0.000000 1.000000
tan 0.000000 -1.000000 0.047244 1.000000
tan 0.905512 0.000000 0.425197 1.000000
tan 0.968504 -0.000000 -0.251968 1.000000
tan 0.000000 -0.992126 0.118110 1.000000
tan -0.944882 -0.000000 -0.314961 1.000000
tan 0.000000 -0.976378 0.228347 1.000000
tan 0.000000 -0.992126 0.133858 1.000000
tan -0.889764 0.000000 0.456693 1.000000
tan 0.385827 -0.921260 0.000000 1.000000
tan 0.181102 -0.984252 0.000000 1.000000
tan 0.188976 -0.984252 0.000000 1.000000
tan 0.259843 -0.968504 0.000000 1.000000
tan 0.440821 -0.781201 -0.440821 1.000000
tan -0.133920 -0.703081 -0.703081 1.000000
tan 0.451981 -0.770041 -0.451981 1.000000
tan 0.691921 -0.513361 0.513361 1.000000
tan 0.970922 -0.167400 0.167400 1.000000
tan 0.457561 -0.770041 -0.457561 1.000000
tan -0.178560 -0.697501 -0.697501 1.000000
tan 0.204724 -0.976378 0.000000 1.000000
tan 0.368281 -0.859322 -0.368281 1.000000
tan 0.354331 -0.937008 0.000000 1.000000
tan 1.000000 -0.007936 -0.007874 1.000000
tan 1.000000 -0.007874 0.000000 1.000000
tan 1.000000 -0.015872 0.007874 1.000000
tan 1.000000 -0.007936 0.007874 1.000000
tan 1.000000 -0.015872 -0.007874 1.000000
tan 1.000000 0.000000 0.000000 1.000000
tan 0.992126 -0.067704 -0.023436 1.000000
tan 1.000000 0.016864 -0.047244 1.000000
tan 1.000000 0.007874 0.023622 1.000000
tan 1.000000 0.000000 0.000000 1.000000
tan 0.832538 0.538471 -0.076508 1.000000
tan 0.709653 0.701283 0.005456 1.000000
tan 0.972224 0.220348 -0.029078 1.000000
tan 0.832538 0.538471 0.076508 1.000000
tan 0.993366 0.094798 -0.006572 1.000000
tan 1.000000 -0.009114 -0.039370 1.000000
tan 1.000000 0.000000 0.000000 1.000000
tan 1.000000 0.000000 0.015748 1.000000
tan 1.000000 0.000000 0.015748 1.000000
tan 0.837250 -0.510385 -0.014384 1.000000
tan 1.000000 0.000000 0.000000 1.000000
tan 0.708909 -0.708661 -0.005580 1.000000
tan 1.000000 0.000000 0.031496 1.000000
tan 1.000000 -0.000000 -0.015748 1.000000
tan 0.832538 -0.542377 -0.070928 1.000000
tan 1.000000 -0.009114 0.039370 1.000000
tan 1.000000 -0.000000 -0.015748 1.000000
tan -1.000000 -0.007874 0.000000 1.000000
tan -1.000000 -0.007936 0.007874 1.000000
tan -1.000000 -0.015872 -0.007874 1.000000
tan -1.000000 -0.007936 -0.007874 1.000000
tan -1.000000 -0.015872 0.007874 1.000000
tan -1.000000 0.000000 0.000000 1.000000
tan -0.992126 -0.067704 0.023436 1.000000
tan -1.000000 0.016864 0.047244 1.000000
tan -1.000000 0.007874 -0.023622 1.000000
tan -1.000000 0.000000 0.000000 1.000000
tan -0.832538 0.531217 0.073656 1.000000
tan -0.709653 0.701283 -0.005456 1.000000
tan -0.972224 0.220348 0.029078 1.000000
tan -0.832538 0.531217 -0.073656 1.000000
tan -0.993366 0.094798 0.006572 1.000000
tan -1.000000 -0.009114 0.039370 1.000000
tan -1.000000 0.000000 0.000000 1.000000
tan -1.000000 -0.000000 -0.015748 1.000000
tan -1.000000 -0.000000 -0.015748 1.000000
tan -0.837250 -0.510385 0.014384 1.000000
tan -1.000000 0.000000 0.000000 1.000000
tan -0.708909 -0.708661 0.005580 1.000000
tan -1.000000 -0.000000 -0.031496 1.000000
tan -0.832538 -0.542377 0.070928 1.000000
tan -1.000000 0.000000 0.015748 1.000000
tan -1.000000 -0.009114 -0.039370 1.000000
tan -1.000000 0.000000 0.015748 1.000000
tan 1.000000 0.000000 0.000000 1.000000
tan 1.000000 -0.000062 0.007874 1.000000
tan 1.000000 -0.007936 -0.007874 1.000000
tan 1.000000 -0.000062 -0.007874 1.000000
tan 1.000000 -0.007936 0.007874 1.000000
tan 1.000000 0.007874 -0.000000 1.000000
tan 1.000000 0.007874 0.023622 1.000000
tan 1.000000 0.000248 0.031496 1.000000
tan 1.000000 0.007874 -0.023622 1.000000
tan 1.000000 0.008866 -0.031496 1.000000
tan 1.000000 0.000000 0.007874 1.000000
tan 1.000000 -0.000000 -0.015748 1.000000
tan 0.708909 0.708909 -0.000000 1.000000
tan 0.842768 0.509145 -0.008866 1.000000
tan 0.832538 0.538471 -0.076508 1.000000
tan 0.900676 -0.426003 0.039308 1.000000
tan 1.000000 0.008866 0.031496 1.000000
tan 1.000000 -0.000000 -0.007874 1.000000
tan 0.987848 -0.111352 -0.023808 1.000000
tan 1.000000 0.000000 0.015748 1.000000
tan 1.000000 -0.000000 -0.039370 1.000000
tan 0.832538 -0.542377 0.070928 1.000000
tan 1.000000 0.000000 0.015748 1.000000
tan 1.000000 -0.031620 -0.015748 1.000000
tan 1.000000 0.000000 0.000000 1.000000
tan 0.709653 -0.701283 -0.005456 1.000000
tan 1.000000 -0.000000 -0.015748 1.000000
tan 1.000000 -0.017050 0.055118 1.000000
tan -1.000000 -0.000062 -0.007874 1.000000
tan -1.000000 0.000000 0.000000 1.000000
tan -1.000000 -0.007874 0.000000 1.000000
tan -1.000000 -0.000062 0.007874 1.000000
tan -1.000000 -0.007936 -0.007874 1.000000
tan -1.000000 0.007874 -0.000000 1.000000
tan -1.000000 0.007874 -0.023622 1.000000
tan -1.000000 0.000248 -0.031496 1.000000
tan -1.000000 0.007874 0.023622 1.000000
tan -1.000000 0.008866 0.031496 1.000000
tan -1.000000 0.000000 0.000000 1.000000
tan -1.000000 0.000000 0.015748 1.000000
tan -0.708909 0.708661 0.005580 1.000000
tan -0.842768 0.509145 0.008866 1.000000
tan -0.832538 0.531217 0.073656 1.000000
tan -0.900676 -0.426003 -0.039308 1.000000
tan -1.000000 0.008866 -0.031496 1.000000
tan -1.000000 0.000000 0.007874 1.000000
tan -0.993366 -0.105834 0.017732 1.000000
tan -1.000000 -0.000000 -0.015748 1.000000
tan -1.000000 0.000000 0.039370 1.000000
tan -0.832538 -0.542377 -0.070928 1.000000
tan -1.000000 -0.000000 -0.015748 1.000000
tan -1.000000 -0.031620 0.015748 1.000000
tan -1.000000 0.000000 0.000000 1.000000
tan -0.709653 -0.701283 0.005456 1.000000
tan -1.000000 0.000000 0.015748 1.000000
tan -1.000000 -0.017050 -0.055118 1.000000
tan 0.499969 0.089776 0.859322 1.000000
tan 0.677165 0.000000 0.732283 1.000000
tan 0.503937 0.051708 0.866142 1.000000
tan 0.503937 -0.051708 0.866142 1.000000
tan 0.874016 0.003100 0.480315 1.000000
tan 0.499969 -0.089776 0.859322 1.000000
tan 0.685039 0.000000 0.732283 1.000000
tan 0.881890 -0.003162 0.480315 1.000000
tan 0.992126 -0.149606 0.000000 1.000000
tan 0.992126 0.149606 -0.000000 1.000000
tan 0.984252 0.188976 -0.000000 1.000000
tan 0.929134 -0.002914 0.370079 1.000000
tan 0.984252 -0.196850 0.000000 1.000000
tan 0.929134 0.002976 0.377953 1.000000
tan 0.803150 -0.031620 0.598735 1.000000
tan 0.937008 0.007378 0.354331 1.000000
tan 1.000000 -0.000000 -0.007874 1.000000
tan 0.803088 0.036332 0.598735 1.000000
tan 0.929134 -0.007316 0.362205 1.000000
tan 1.000000 0.000000 0.000000 1.000000
tan 1.000000 0.015748 -0.039246 1.000000
tan 0.866142 -0.000000 -0.496063 1.000000
tan 1.000000 -0.039370 -0.023622 1.000000
tan 0.866142 -0.000000 -0.503937 1.000000
tan 0.850394 -0.006696 -0.527559 1.000000
tan 0.661417 0.011160 -0.755905 1.000000
tan 0.488189 -0.000000 -0.874016 1.000000
tan 0.488189 -0.013764 -0.874016 1.000000
tan 0.503937 -0.000000 -0.866142 1.000000
tan 0.008060 -0.023622 -1.000000 1.000000
tan -0.007874 -0.000000 -1.000000 1.000000
tan -0.503937 -0.000000 -0.866142 1.000000
tan -0.039742 -0.023622 -1.000000 1.000000
tan 0.007874 -0.000000 -1.000000 1.000000
tan -0.488189 -0.000000 -0.874016 1.000000
tan -0.488189 -0.013764 -0.874016 1.000000
tan -0.874016 -0.000000 -0.488189 1.000000
tan -0.669291 0.011098 -0.740157 1.000000
tan -0.866142 -0.000000 -0.503937 1.000000
tan -0.850394 -0.006696 -0.527559 1.000000
tan -1.000000 -0.039370 -0.023622 1.000000
tan -1.000000 -0.000000 -0.007874 1.000000
tan -1.000000 0.007874 -0.039308 1.000000
tan -1.000000 0.000000 0.000000 1.000000
tan -0.795276 -0.031310 0.598735 1.000000
tan -0.937008 0.007378 0.354331 1.000000
tan -0.929134 -0.002976 0.377953 1.000000
tan -0.803088 0.036332 0.598735 1.000000
tan -0.929134 -0.007316 0.370079 1.000000
tan -0.921260 0.002976 0.377953 1.000000
tan -0.984252 0.196850 -0.000000 1.000000
tan -0.842520 -0.002418 0.535433 1.000000
tan -0.976378 -0.204724 0.000000 1.000000
tan -0.842520 0.002356 0.543307 1.000000
tan -0.984252 0.165354 -0.000000 1.000000
tan -0.984252 -0.173228 0.000000 1.000000
tan -0.503937 0.062496 0.866142 1.000000
tan -0.472441 0.000000 0.881890 1.000000
tan -0.503937 -0.069316 0.866142 1.000000
tan -0.488189 0.000000 0.874016 1.000000
tan -0.503937 -0.024428 0.866142 1.000000
tan 0.499969 0.138632 0.859322 1.000000
tan -0.503937 0.024428 0.866142 1.000000
tan 0.499969 -0.145452 0.859322 1.000000
tan -0.499969 0.138632 0.859322 1.000000
tan -0.724409 0.005704 0.692913 1.000000
tan -0.499969 0.100564 0.859322 1.000000
tan -0.503937 -0.006820 0.866142 1.000000
tan -0.905512 0.007564 0.425197 1.000000
tan -0.503937 -0.062496 0.866142 1.000000
tan -0.606299 -0.004774 0.795275 1.000000
tan -0.826772 -0.004216 0.559055 1.000000
tan -0.960630 0.283465 -0.000000 1.000000
tan -0.984252 -0.165354 0.000000 1.000000
tan -0.968504 0.251968 -0.000000 1.000000
tan -0.897638 -0.010540 0.440945 1.000000
tan -0.992126 -0.141732 0.000000 1.000000
tan -0.944882 0.010044 0.330709 1.000000
tan -0.795276 -0.018786 0.606485 1.000000
tan -0.913386 0.007812 0.417323 1.000000
tan -1.000000 0.000000 0.015748 1.000000
tan -0.795214 0.048608 0.606733 1.000000
tan -0.944882 -0.007254 0.322835 1.000000
tan -1.000000 -0.000000 -0.023622 1.000000
tan -1.000000 0.023622 -0.039184 1.000000
tan -0.866142 -0.000000 -0.496063 1.000000
tan -1.000000 -0.023622 -0.023622 1.000000
tan -0.866142 -0.000000 -0.503937 1.000000
tan -0.850394 -0.006696 -0.527559 1.000000
tan -0.661417 0.005952 -0.755905 1.000000
tan -0.480315 -0.000000 -0.874016 1.000000
tan -0.488189 -0.020646 -0.874016 1.000000
tan -0.511811 -0.000000 -0.858268 1.000000
tan -0.000620 -0.039370 -1.000000 1.000000
tan 0.015748 -0.001240 -1.000000 1.000000
tan 0.535433 -0.000000 -0.850394 1.000000
tan 0.031868 -0.047244 -1.000000 1.000000
tan -0.047244 -0.003720 -1.000000 1.000000
tan 0.456693 -0.000000 -0.889764 1.000000
tan 0.551243 -0.006572 -0.834646 1.000000
tan 0.834646 -0.000000 -0.551181 1.000000
tan 0.519685 -0.026784 -0.850394 1.000000
tan 0.889764 -0.000000 -0.448819 1.000000
tan 0.889764 -0.021018 -0.456693 1.000000
tan 0.984252 -0.038750 -0.188976 1.000000
tan 1.000000 0.000000 0.070866 1.000000
tan 0.992126 -0.094488 -0.007812 1.000000
tan 1.000000 -0.000000 -0.078740 1.000000
tan 0.795276 0.012524 0.606423 1.000000
tan 0.897638 -0.007068 0.440945 1.000000
tan 0.889764 0.010664 0.464567 1.000000
tan 0.795214 -0.054870 0.606795 1.000000
tan 0.960630 0.007564 0.291339 1.000000
tan 0.944882 -0.009920 0.314961 1.000000
tan 0.992126 0.125984 -0.007812 1.000000
tan 0.889764 -0.006696 0.464567 1.000000
tan 0.960630 -0.267716 -0.007564 1.000000
tan 0.779528 0.002356 0.629921 1.000000
tan 0.984252 0.173228 -0.007750 1.000000
tan 0.952756 -0.314961 -0.007502 1.000000
tan 0.503937 0.024428 0.866142 1.000000
tan 0.370079 0.002914 0.929134 1.000000
tan 0.499969 -0.121024 0.859322 1.000000
tan 0.551181 -0.004340 0.834646 1.000000
tan 0.503937 -0.082956 0.866142 1.000000
tan -0.499969 0.107384 0.859322 1.000000
tan -0.492033 -0.190340 0.845682 1.000000
tan 0.503937 -0.013640 0.866142 1.000000
f 3/3/3 2/2/2 1/1/1
f 1/1/1 2/2/2 4/4/4
f 5/5/5 4/4/4 2/2/2
f 8/8/8 7/7/7 6/6/6
f 7/7/7 9/9/9 6/6/6
f 9/9/9 10/10/10 6/6/6
f 11/11/11 6/6/6 10/10/10
f 10/10/10 12/12/12 11/11/11
f 13/13/13 11/11/11 12/12/12
f 12/12/12 14/14/14 13/13/13
f 13/13/13 14/14/14 15/15/15
f 15/15/15 14/14/14 16/16/16
f 14/14/14 17/17/17 16/16/16
f 17/17/17 18/18/18 16/16/16
f 19/19/19 16/16/16 18/18/18
f 19/19/19 18/18/18 20/20/20
f 21/21/21 20/20/20 18/18/18
f 21/21/21 22/22/22 20/20/20
f 23/23/23 22/22/22 21/21/21
f 24/24/24 23/23/23 21/21/21
f 25/25/25 24/24/24 21/21/21
f 23/23/23 24/24/24 26/26/26
f 24/24/24 25/25/25 27/27/27
f 27/27/27 28/28/28 24/24/24
f 28/28/28 26/26/26 24/24/24
f 27/27/27 29/29/29 28/28/28
f 28/28/28 29/29/29 26/26/26
f 30/30/30 26/26/26 29/29/29
f 31/31/31 30/30/30 29/29/29
f 32/32/32 30/30/30 31/31/31
f 31/31/31 33/33/33 32/32/32
f 34/34/34 33/33/33 31/31/31
f 35/35/35 32/32/32 33/33/33
f 33/33/33 34/34/34 36/36/36
f 37/37/37 35/35/35 33/33/33
f 33/33/33 36/36/36 37/37/37
f 38/38/38 35/35/35 37/37/37
f 39/39/39 37/37/37 36/36/36
f 37/37/37 39/39/39 38/38/38
f 40/40/40 38/38/38 39/39/39
f 42/42/42 22/22/22 41/41/41
f 42/42/42 41/41/41 43/43/43
f 22/22/22 42/42/42 44/44/44
f 44/44/44 20/20/20 22/22/22
f 45/45/45 42/42/42 43/43/43
f 43/43/43 46/46/46 45/45/45
f 47/47/47 44/44/44 42/42/42
f 45/45/45 46/46/46 48/48/48
f 45/45/45 49/49/49 42/42/42
f 49/49/49 47/47/47 42/42/42
f 49/49/49 45/45/45 48/48/48
f 50/50/50 48/48/48 46/46/46
f 51/51/51 49/49/49 48/48/48
f 49/49/49 51/51/51 52/52/52
f 52/52/52 47/47/47 49/49/49
f 52/52/52 44/44/44 47/47/47
f 53/53/53 48/48/48 50/50/50
f 54/54/54 53/53/53 50/50/50
f 54/54/54 55/55/55 53/53/53
f 56/56/56 54/54/54 50/50/50
f 57/57/57 56/56/56 50/50/50
f 58/58/58 56/56/56 57/57/57
f 54/54/54 59/59/59 55/55/55
f 60/60/60 55/55/55 59/59/59
f 61/61/61 60/60/60 59/59/59
f 62/62/62 54/54/54 56/56/56
f 54/54/54 62/62/62 59/59/59
f 62/62/62 56/56/56 58/58/58
f 59/59/59 62/62/62 61/61/61
f 63/63/63 62/62/62 58/58/58
f 62/62/62 63/63/63 61/61/61
f 20/20/20 44/44/44 64/64/64
f 44/44/44 65/65/65 64/64/64
f 66/66/66 64/64/64 65/65/65
f 67/67/67 66/66/66 65/65/65
f 68/68/68 67/67/67 65/65/65
f 67/67/67 68/68/68 69/69/69
f 70/70/70 69/69/69 68/68/68
f 71/71/71 69/69/69 70/70/70
f 72/72/72 71/71/71 70/70/70
f 73/73/73 71/71/71 72/72/72
f 74/74/74 73/73/73 72/72/72
f 75/75/75 73/73/73 74/74/74
f 73/73/73 75/75/75 76/76/76
f 76/76/76 75/75/75 77/77/77
f 75/75/75 78/78/78 77/77/77
f 64/64/64 79/79/79 20/20/20
f 79/79/79 64/64/64 80/80/80
f 80/80/80 81/81/81 79/79/79
f 20/20/20 79/79/79 82/82/82
f 20/20/20 82/82/82 83/83/83
f 84/84/84 79/79/79 81/81/81
f 82/82/82 85/85/85 83/83/83
f 82/82/82 79/79/79 85/85/85
f 84/84/84 85/85/85 79/79/79
f 86/86/86 83/83/83 85/85/85
f 81/81/81 87/87/87 84/84/84
f 86/86/86 85/85/85 88/88/88
f 85/85/85 84/84/84 88/88/88
f 87/87/87 88/88/88 84/84/84
f 89/89/89 88/88/88 87/87/87
f 90/90/90 89/89/89 87/87/87
f 91/91/91 89/89/89 90/90/90
f 89/89/89 91/91/91 92/92/92
f 93/93/93 91/91/91 90/90/90
f 94/94/94 93/93/93 90/90/90
f 94/94/94 95/95/95 93/93/93
f 92/92/92 91/91/91 96/96/96
f 92/92/92 96/96/96 97/97/97
f 97/97/97 96/96/96 98/98/98
f 93/93/93 99/99/99 91/91/91
f 91/91/91 99/99/99 96/96/96
f 99/99/99 93/93/93 95/95/95
f 98/98/98 96/96/96 99/99/99
f 100/100/100 99/99/99 95/95/95
f 99/99/99 100/100/100 98/98/98
f 103/103/103 102/102/102 101/101/101
f 105/105/105 104/104/104 102/102/102
f 101/101/101 102/102/102 106/106/106
f 106/106/106 102/102/102 104/104/104
f 106/106/106 107/107/107 101/101/101
f 104/104/104 108/108/108 106/106/106
f 108/108/108 104/104/104 109/109/109
f 109/109/109 110/110/110 108/108/108
f 111/111/111 107/107/107 106/106/106
f 106/106/106 112/112/112 111/111/111
f 112/112/112 106/106/106 108/108/108
f 107/107/107 111/111/111 113/113/113
f 108/108/108 114/114/114 112/112/112
f 108/108/108 115/115/115 114/114/114
f 113/113/113 116/116/116 107/107/107
f 117/117/117 107/107/107 116/116/116
f 117/117/117 116/116/116 118/118/118
f 118/118/118 116/116/116 119/119/119
f 113/113/113 120/120/120 116/116/116
f 121/121/121 119/119/119 116/116/116
f 120/120/120 121/121/121 116/116/116
f 121/121/121 120/120/120 122/122/122
f 122/122/122 123/123/123 121/121/121
f 123/123/123 124/124/124 121/121/121
f 123/123/123 122/122/122 125/125/125
f 123/123/123 126/126/126 124/124/124
f 125/125/125 126/126/126 123/123/123
f 126/126/126 125/125/125 115/115/115
f 115/115/115 108/108/108 126/126/126
f 126/126/126 108/108/108 110/110/110
f 126/126/126 127/127/127 124/124/124
f 126/126/126 110/110/110 127/127/127
f 130/130/130 129/129/129 128/128/128
f 132/132/132 128/128/128 131/131/131
f 129/129/129 133/133/133 128/128/128
f 133/133/133 131/131/131 128/128/128
f 133/133/133 129/129/129 134/134/134
f 131/131/131 133/133/133 135/135/135
f 135/135/135 136/136/136 131/131/131
f 135/135/135 137/137/137 136/136/136
f 133/133/133 134/134/134 138/138/138
f 139/139/139 133/133/133 138/138/138
f 135/135/135 133/133/133 139/139/139
f 138/138/138 134/134/134 140/140/140
f 141/141/141 135/135/135 139/139/139
f 142/142/142 135/135/135 141/141/141
f 134/134/134 143/143/143 140/140/140
f 144/144/144 143/143/143 134/134/134
f 144/144/144 145/145/145 143/143/143
f 145/145/145 146/146/146 143/143/143
f 140/140/140 143/143/143 147/147/147
f 148/148/148 143/143/143 146/146/146
f 143/143/143 148/148/148 147/147/147
f 147/147/147 148/148/148 149/149/149
f 148/148/148 150/150/150 149/149/149
f 149/149/149 150/150/150 151/151/151
f 152/152/152 150/150/150 148/148/148
f 150/150/150 153/153/153 151/151/151
f 150/150/150 152/152/152 153/153/153
f 151/151/151 153/153/153 142/142/142
f 153/153/153 135/135/135 142/142/142
f 153/153/153 137/137/137 135/135/135
f 154/154/154 153/153/153 152/152/152
f 137/137/137 153/153/153 154/154/154
f 157/157/157 156/156/156 155/155/155
f 159/159/159 155/155/155 158/158/158
f 160/160/160 155/155/155 156/156/156
f 158/158/158 155/155/155 160/160/160
f 160/160/160 156/156/156 161/161/161
f 158/158/158 160/160/160 162/162/162
f 162/162/162 163/163/163 158/158/158
f 164/164/164 160/160/160 161/161/161
f 161/161/161 165/165/165 164/164/164
f 164/164/164 165/165/165 166/166/166
f 167/167/167 162/162/162 160/160/160
f 160/160/160 168/168/168 167/167/167
f 168/168/168 160/160/160 164/164/164
f 162/162/162 167/167/167 169/169/169
f 164/164/164 170/170/170 168/168/168
f 169/169/169 171/171/171 162/162/162
f 171/171/171 163/163/163 162/162/162
f 171/171/171 172/172/172 163/163/163
f 171/171/171 169/169/169 173/173/173
f 172/172/172 171/171/171 174/174/174
f 173/173/173 175/175/175 171/171/171
f 175/175/175 174/174/174 171/171/171
f 175/175/175 173/173/173 176/176/176
f 174/174/174 175/175/175 177/177/177
f 176/176/176 178/178/178 175/175/175
f 178/178/178 177/177/177 175/175/175
f 179/179/179 177/177/177 178/178/178
f 178/178/178 176/176/176 180/180/180
f 179/179/179 178/178/178 181/181/181
f 180/180/180 182/182/182 178/178/178
f 182/182/182 181/181/181 178/178/178
f 182/182/182 180/180/180 170/170/170
f 182/182/182 166/166/166 181/181/181
f 170/170/170 164/164/164 182/182/182
f 166/166/166 182/182/182 164/164/164
f 185/185/185 184/184/184 183/183/183
f 187/187/187 186/186/186 184/184/184
f 188/188/188 183/183/183 184/184/184
f 186/186/186 188/188/188 184/184/184
f 188/188/188 189/189/189 183/183/183
f 190/190/190 188/188/188 186/186/186
f 190/190/190 186/186/186 191/191/191
f 192/192/192 189/189/189 188/188/188
f 192/192/192 193/193/193 189/189/189
f 193/193/193 192/192/192 194/194/194
f 188/188/188 190/190/190 195/195/195
f 196/196/196 188/188/188 195/195/195
f 192/192/192 188/188/188 196/196/196
f 195/195/195 190/190/190 197/197/197
f 198/198/198 192/192/192 196/196/196
f 190/190/190 199/199/199 197/197/197
f 191/191/191 199/199/199 190/190/190
f 199/199/199 191/191/191 200/200/200
f 197/197/197 199/199/199 201/201/201
f 200/200/200 202/202/202 199/199/199
f 199/199/199 203/203/203 201/201/201
f 203/203/203 199/199/199 202/202/202
f 201/201/201 203/203/203 204/204/204
f 202/202/202 205/205/205 203/203/203
f 203/203/203 206/206/206 204/204/204
f 206/206/206 203/203/203 205/205/205
f 207/207/207 206/206/206 205/205/205
f 204/204/204 206/206/206 208/208/208
f 206/206/206 207/207/207 209/209/209
f 206/206/206 210/210/210 208/208/208
f 209/209/209 210/210/210 206/206/206
f 208/208/208 210/210/210 198/198/198
f 194/194/194 210/210/210 209/209/209
f 210/210/210 192/192/192 198/198/198
f 210/210/210 194/194/194 192/192/192
f 213/213/213 212/212/212 211/211/211
f 213/213/213 211/211/211 214/214/214
f 215/215/215 211/211/211 212/212/212
f 216/216/216 214/214/214 211/211/211
f 214/214/214 216/216/216 217/217/217
f 218/218/218 217/217/217 216/216/216
f 211/211/211 215/215/215 219/219/219
f 211/211/211 219/219/219 216/216/216
f 216/216/216 220/220/220 218/218/218
f 220/220/220 216/216/216 219/219/219
f 220/220/220 221/221/221 218/218/218
f 220/220/220 219/219/219 221/221/221
f 221/221/221 222/222/222 218/218/218
f 219/219/219 215/215/215 223/223/223
f 223/223/223 221/221/221 219/219/219
f 224/224/224 223/223/223 215/215/215
f 222/222/222 221/221/221 225/225/225
f 225/225/225 226/226/226 222/222/222
f 226/226/226 225/225/225 227/227/227
f 223/223/223 228/228/228 221/221/221
f 223/223/223 224/224/224 228/228/228
f 221/221/221 228/228/228 225/225/225
f 229/229/229 228/228/228 224/224/224
f 228/228/228 229/229/229 230/230/230
f 231/231/231 228/228/228 230/230/230
f 228/228/228 231/231/231 225/225/225
f 231/231/231 230/230/230 232/232/232
f 233/233/233 227/227/227 225/225/225
f 225/225/225 231/231/231 233/233/233
f 227/227/227 233/233/233 234/234/234
f 235/235/235 231/231/231 232/232/232
f 231/231/231 235/235/235 233/233/233
f 236/236/236 234/234/234 233/233/233
f 236/236/236 233/233/233 235/235/235
f 236/236/236 237/237/237 234/234/234
f 235/235/235 232/232/232 238/238/238
f 235/235/235 238/238/238 236/236/236
f 239/239/239 238/238/238 232/232/232
f 236/236/236 240/240/240 237/237/237
f 240/240/240 241/241/241 237/237/237
f 241/241/241 240/240/240 242/242/242
f 238/238/238 243/243/243 236/236/236
f 238/238/238 239/239/239 243/243/243
f 236/236/236 243/243/243 240/240/240
f 244/244/244 243/243/243 239/239/239
f 243/243/243 244/244/244 245/245/245
f 246/246/246 242/242/242 240/240/240
f 242/242/242 246/246/246 247/247/247
f 243/243/243 248/248/248 240/240/240
f 248/248/248 243/243/243 245/245/245
f 246/246/246 240/240/240 248/248/248
f 248/248/248 245/245/245 249/249/249
f 250/250/250 247/247/247 246/246/246
f 246/246/246 248/248/248 250/250/250
f 248/248/248 249/249/249 251/251/251
f 248/248/248 251/251/251 250/250/250
f 252/252/252 251/251/251 249/249/249
f 250/250/250 253/253/253 247/247/247
f 250/250/250 251/251/251 253/253/253
f 253/253/253 254/254/254 247/247/247
f 251/251/251 252/252/252 255/255/255
f 251/251/251 255/255/255 253/253/253
f 256/256/256 255/255/255 252/252/252
f 255/255/255 256/256/256 257/257/257
f 253/253/253 258/258/258 254/254/254
f 253/253/253 255/255/255 258/258/258
f 258/258/258 259/259/259 254/254/254
f 258/258/258 260/260/260 259/259/259
f 257/257/257 261/261/261 255/255/255
f 255/255/255 261/261/261 258/258/258
f 261/261/261 257/257/257 262/262/262
f 260/260/260 258/258/258 263/263/263
f 263/263/263 258/258/258 261/261/261
f 260/260/260 263/263/263 264/264/264
f 265/265/265 261/261/261 262/262/262
f 261/261/261 265/265/265 263/263/263
f 266/266/266 264/264/264 263/263/263
f 266/266/266 263/263/263 265/265/265
f 267/267/267 264/264/264 266/266/266
f 265/265/265 267/267/267 266/266/266
f 264/264/264 267/267/267 268/268/268
f 265/265/265 262/262/262 269/269/269
f 265/265/265 269/269/269 267/267/267
f 262/262/262 270/270/270 269/269/269
f 271/271/271 268/268/268 267/267/267
f 272/272/272 268/268/268 271/271/271
f 269/269/269 273/273/273 267/267/267
f 267/267/267 273/273/273 271/271/271
f 273/273/273 269/269/269 270/270/270
f 271/271/271 273/273/273 272/272/272
f 273/273/273 270/270/270 274/274/274
f 274/274/274 272/272/272 273/273/273
f 277/277/277 276/276/276 275/275/275
f 275/275/275 278/278/278 277/277/277
f 279/279/279 275/275/275 276/276/276
f 280/280/280 278/278/278 275/275/275
f 278/278/278 280/280/280 281/281/281
f 282/282/282 281/281/281 280/280/280
f 283/283/283 280/280/280 275/275/275
f 283/283/283 282/282/282 280/280/280
f 275/275/275 279/279/279 284/284/284
f 275/275/275 284/284/284 283/283/283
f 283/283/283 285/285/285 282/282/282
f 283/283/283 284/284/284 285/285/285
f 285/285/285 286/286/286 282/282/282
f 284/284/284 279/279/279 287/287/287
f 287/287/287 285/285/285 284/284/284
f 288/288/288 287/287/287 279/279/279
f 286/286/286 285/285/285 289/289/289
f 289/289/289 290/290/290 286/286/286
f 290/290/290 289/289/289 291/291/291
f 287/287/287 292/292/292 285/285/285
f 288/288/288 292/292/292 287/287/287
f 289/289/289 285/285/285 292/292/292
f 292/292/292 288/288/288 293/293/293
f 292/292/292 293/293/293 294/294/294
f 295/295/295 292/292/292 294/294/294
f 295/295/295 289/289/289 292/292/292
f 295/295/295 294/294/294 296/296/296
f 297/297/297 291/291/291 289/289/289
f 297/297/297 289/289/289 295/295/295
f 291/291/291 297/297/297 298/298/298
f 299/299/299 295/295/295 296/296/296
f 295/295/295 299/299/299 297/297/297
f 300/300/300 298/298/298 297/297/297
f 300/300/300 297/297/297 299/299/299
f 300/300/300 301/301/301 298/298/298
f 299/299/299 296/296/296 302/302/302
f 299/299/299 302/302/302 300/300/300
f 303/303/303 302/302/302 296/296/296
f 300/300/300 304/304/304 301/301/301
f 304/304/304 305/305/305 301/301/301
f 305/305/305 304/304/304 306/306/306
f 307/307/307 300/300/300 302/302/302
f 302/302/302 303/303/303 307/307/307
f 304/304/304 300/300/300 307/307/307
f 308/308/308 307/307/307 303/303/303
f 307/307/307 308/308/308 309/309/309
f 310/310/310 307/307/307 309/309/309
f 307/307/307 310/310/310 304/304/304
f 310/310/310 309/309/309 311/311/311
f 312/312/312 306/306/306 304/304/304
f 312/312/312 304/304/304 310/310/310
f 306/306/306 312/312/312 313/313/313
f 314/314/314 310/310/310 311/311/311
f 314/314/314 312/312/312 310/310/310
f 315/315/315 313/313/313 312/312/312
f 315/315/315 312/312/312 314/314/314
f 315/315/315 316/316/316 313/313/313
f 314/314/314 311/311/311 317/317/317
f 317/317/317 315/315/315 314/314/314
f 318/318/318 317/317/317 311/311/311
f 315/315/315 319/319/319 316/316/316
f 319/319/319 320/320/320 316/316/316
f 320/320/320 319/319/319 321/321/321
f 322/322/322 315/315/315 317/317/317
f 317/317/317 318/318/318 322/322/322
f 319/319/319 315/315/315 322/322/322
f 323/323/323 322/322/322 318/318/318
f 322/322/322 323/323/323 324/324/324
f 324/324/324 325/325/325 322/322/322
f 325/325/325 319/319/319 322/322/322
f 324/324/324 326/326/326 325/325/325
f 327/327/327 321/321/321 319/319/319
f 327/327/327 319/319/319 325/325/325
f 321/321/321 327/327/327 328/328/328
f 329/329/329 325/325/325 326/326/326
f 327/327/327 325/325/325 329/329/329
f 330/330/330 328/328/328 327/327/327
f 330/330/330 327/327/327 329/329/329
f 331/331/331 328/328/328 330/330/330
f 330/330/330 329/329/329 331/331/331
f 328/328/328 331/331/331 332/332/332
f 333/333/333 329/329/329 326/326/326
f 333/333/333 331/331/331 329/329/329
f 326/326/326 334/334/334 333/333/333
f 335/335/335 332/332/332 331/331/331
f 336/336/336 332/332/332 335/335/335
f 336/336/336 335/335/335 337/337/337
f 338/338/338 331/331/331 333/333/333
f 335/335/335 331/331/331 338/338/338
f 338/338/338 333/333/333 334/334/334
f 338/338/338 337/337/337 335/335/335
f 338/338/338 334/334/334 337/337/337
