mtllib SM_Bar_Door_Holder_01.mtl
g SM_Bar_Door_Holder_01
#Vertices 380
#Indices 1434
#Section 0 Offset 0 NumIndices 180 MaterialIndex 1 MI_Metal_Rusty_02
#Section 1 Offset 180 NumIndices 1116 MaterialIndex 0 MI_Metal_Rusty_01
#Section 2 Offset 1296 NumIndices 138 MaterialIndex 2 MI_Walls_Plastic_02
v 0.017520 0.857511 0.032984
v 0.000258 0.000000 0.033036
v 0.000301 0.857525 0.032984
v 0.017471 0.000000 0.033036
v 0.019509 0.857506 0.030983
v 0.019471 0.000000 0.031035
v 0.019471 0.000000 0.013822
v 0.019508 0.857510 0.013769
v 0.017471 0.000000 0.011822
v 0.017520 0.857516 0.011771
v 0.000258 0.000000 0.011822
v 0.000302 0.857530 0.011770
v -0.001705 0.857527 0.013768
v -0.001742 0.000000 0.013822
v -0.001705 0.857524 0.030982
v -0.001742 0.000000 0.031036
v 0.000258 0.000000 0.033036
v 0.000301 0.857525 0.032984
v 0.017520 0.857511 -0.011960
v 0.000258 -0.000000 -0.011908
v 0.000301 0.857525 -0.011960
v 0.017471 -0.000000 -0.011908
v 0.019509 0.857506 -0.013961
v 0.019471 -0.000000 -0.013908
v 0.019471 -0.000000 -0.031121
v 0.019507 0.857510 -0.031175
v 0.017471 -0.000000 -0.033122
v 0.017520 0.857516 -0.033173
v 0.000258 -0.000000 -0.033122
v 0.000302 0.857530 -0.033174
v -0.001705 0.857527 -0.031175
v -0.001743 -0.000000 -0.031121
v -0.001705 0.857524 -0.013961
v -0.001742 -0.000000 -0.013908
v 0.000258 -0.000000 -0.011908
v 0.000301 0.857525 -0.011960
v 0.017520 0.857516 0.011771
v 0.019508 0.857510 0.013769
v 0.016083 0.860216 0.015200
v 0.000302 0.857530 0.011770
v 0.019509 0.857506 0.030983
v 0.001729 0.860228 0.015200
v -0.001705 0.857527 0.013768
v -0.001705 0.857524 0.030982
v 0.016083 0.860213 0.029553
v 0.017520 0.857511 0.032984
v 0.000301 0.857525 0.032984
v 0.001729 0.860225 0.029553
v 0.017520 0.857516 -0.033173
v 0.019507 0.857510 -0.031175
v 0.016083 0.860216 -0.029744
v 0.000302 0.857530 -0.033174
v 0.019509 0.857506 -0.013961
v 0.001729 0.860228 -0.029744
v -0.001705 0.857527 -0.031175
v -0.001705 0.857524 -0.013961
v 0.016083 0.860213 -0.015391
v 0.017520 0.857511 -0.011960
v 0.000301 0.857525 -0.011960
v 0.001729 0.860225 -0.015391
v 0.054211 0.785707 -0.014605
v 0.054211 0.831432 -0.014605
v 0.049391 0.825312 -0.012101
v 0.049391 0.791827 -0.012101
v 0.030151 0.791827 -0.012101
v 0.030151 0.825312 -0.012101
v 0.027092 0.825312 -0.015161
v 0.027092 0.791827 -0.015161
v 0.027092 0.791827 -0.034145
v 0.027092 0.825312 -0.034145
v 0.024031 0.825312 -0.037205
v 0.024031 0.791827 -0.037205
v -0.005803 0.825312 -0.037205
v -0.005803 0.791827 -0.037205
v -0.008864 0.825312 -0.034145
v -0.008864 0.791827 -0.034145
v -0.008864 0.825312 0.034145
v -0.008864 0.791827 0.034145
v -0.005803 0.825312 0.037205
v -0.005803 0.791827 0.037205
v 0.024031 0.825312 0.037205
v 0.024031 0.791827 0.037205
v 0.027092 0.825312 0.034145
v 0.027092 0.791827 0.034145
v 0.027092 0.791827 0.015161
v 0.027092 0.825312 0.015161
v 0.030151 0.825312 0.012101
v 0.030151 0.791827 0.012101
v 0.049391 0.791827 0.012101
v 0.049391 0.825312 0.012101
v 0.054211 0.831432 0.014604
v 0.054211 0.785707 0.014604
v 0.054211 0.492423 0.014604
v 0.054211 0.446698 0.014604
v 0.049391 0.452818 0.012101
v 0.049391 0.486303 0.012101
v 0.030151 0.486303 0.012101
v 0.030151 0.452818 0.012101
v 0.027092 0.452818 0.015161
v 0.027092 0.486303 0.015161
v 0.027092 0.486303 0.034145
v 0.027092 0.452818 0.034145
v 0.024031 0.452818 0.037205
v 0.024031 0.486303 0.037205
v -0.005803 0.452818 0.037205
v -0.005803 0.486303 0.037205
v -0.008864 0.452818 0.034145
v -0.008864 0.486303 0.034145
v -0.008864 0.486303 -0.034145
v -0.008864 0.452818 -0.034145
v -0.005803 0.452818 -0.037205
v -0.005803 0.486303 -0.037205
v 0.024031 0.452818 -0.037205
v 0.024031 0.486303 -0.037205
v 0.027092 0.452818 -0.034145
v 0.027092 0.486303 -0.034145
v 0.027092 0.486303 -0.015161
v 0.027092 0.452818 -0.015161
v 0.030151 0.452818 -0.012101
v 0.030151 0.486303 -0.012101
v 0.049391 0.486303 -0.012101
v 0.049391 0.452818 -0.012101
v 0.054211 0.446698 -0.014605
v 0.054211 0.492423 -0.014605
v 0.061310 0.895189 -0.020960
v 0.061310 0.642128 -0.020960
v 0.073411 0.895189 -0.024202
v 0.073411 0.642128 -0.024202
v 0.061310 0.376816 -0.020960
v 0.085512 0.895189 -0.020960
v 0.073411 0.376816 -0.024202
v 0.085512 0.642128 -0.020960
v 0.094371 0.895189 -0.012101
v 0.085512 0.376816 -0.020960
v 0.094371 0.642128 -0.012101
v 0.094371 0.376816 -0.012101
v 0.097613 0.376816 -0.000000
v 0.097613 0.642128 -0.000000
v 0.097613 0.895189 -0.000000
v 0.094371 0.895189 0.012101
v 0.094371 0.642128 0.012101
v 0.094371 0.376816 0.012101
v 0.085512 0.895189 0.020959
v 0.085512 0.642128 0.020959
v 0.085512 0.376816 0.020959
v 0.073411 0.895189 0.024202
v 0.073411 0.642128 0.024202
v 0.073411 0.376816 0.024202
v 0.061310 0.376816 0.020959
v 0.061310 0.642128 0.020959
v 0.061310 0.895189 0.020959
v 0.054211 0.492423 0.014604
v 0.054211 0.446698 0.014604
v 0.052452 0.376816 0.012101
v 0.049209 0.446698 -0.000000
v 0.049209 0.376816 -0.000000
v 0.052452 0.376816 -0.012101
v 0.054211 0.446698 -0.014605
v 0.061310 0.376816 -0.020960
v 0.054211 0.492423 -0.014605
v 0.061310 0.642128 -0.020960
v 0.052452 0.642128 -0.012101
v 0.049209 0.492423 -0.000000
v 0.054211 0.785707 -0.014605
v 0.061310 0.895189 -0.020960
v 0.054211 0.831432 -0.014605
v 0.052452 0.895189 -0.012101
v 0.049209 0.785707 -0.000000
v 0.049209 0.831432 -0.000000
v 0.049209 0.895189 -0.000000
v 0.052452 0.895189 0.012101
v 0.054211 0.831432 0.014604
v 0.054211 0.785707 0.014604
v 0.052452 0.642128 0.012101
v 0.049209 0.642128 -0.000000
v 0.048464 0.788767 0.009041
v 0.049391 0.791827 0.012101
v 0.054211 0.785707 0.014604
v 0.030151 0.791827 0.012101
v 0.049209 0.785707 -0.000000
v 0.024031 0.788767 0.009041
v 0.027092 0.791827 0.015161
v 0.046041 0.788767 -0.000000
v 0.048464 0.788767 -0.009041
v 0.054211 0.785707 -0.014605
v 0.049391 0.791827 -0.012101
v 0.030151 0.791827 -0.012101
v 0.024031 0.788767 -0.009041
v 0.027092 0.791827 -0.015161
v 0.024031 0.788767 -0.034145
v 0.027092 0.791827 -0.034145
v 0.024031 0.791827 -0.037205
v -0.005803 0.788767 -0.034145
v -0.005803 0.791827 -0.037205
v -0.008864 0.791827 -0.034145
v -0.005803 0.788767 0.034145
v -0.008864 0.791827 0.034145
v -0.005803 0.791827 0.037205
v 0.024031 0.788767 0.034145
v 0.024031 0.791827 0.037205
v 0.027092 0.791827 0.034145
v 0.048464 0.828372 -0.009041
v 0.049391 0.825312 -0.012101
v 0.054211 0.831432 -0.014605
v 0.030151 0.825312 -0.012101
v 0.049209 0.831432 -0.000000
v 0.024031 0.828372 -0.009041
v 0.027092 0.825312 -0.015161
v 0.046041 0.828372 -0.000000
v 0.048464 0.828372 0.009041
v 0.054211 0.831432 0.014604
v 0.049391 0.825312 0.012101
v 0.030151 0.825312 0.012101
v 0.024031 0.828372 0.009041
v 0.027092 0.825312 0.015161
v 0.024031 0.828372 -0.034145
v 0.027092 0.825312 -0.034145
v 0.024031 0.825312 -0.037205
v -0.005803 0.825312 -0.037205
v -0.005803 0.828372 -0.034145
v -0.008864 0.825312 -0.034145
v -0.008864 0.825312 0.034145
v -0.005803 0.828372 0.034145
v -0.005803 0.825312 0.037205
v 0.024031 0.825312 0.037205
v 0.024031 0.828372 0.034145
v 0.027092 0.825312 0.034145
v 0.048464 0.449758 0.009041
v 0.049391 0.452818 0.012101
v 0.054211 0.446698 0.014604
v 0.030151 0.452818 0.012101
v 0.049209 0.446698 -0.000000
v 0.024031 0.449758 0.009041
v 0.027092 0.452818 0.015161
v 0.046041 0.449758 -0.000000
v 0.048464 0.449758 -0.009041
v 0.054211 0.446698 -0.014605
v 0.049391 0.452818 -0.012101
v 0.030151 0.452818 -0.012101
v 0.024031 0.449758 -0.009041
v 0.027092 0.452818 -0.015161
v 0.024031 0.449758 -0.034145
v 0.027092 0.452818 -0.034145
v 0.024031 0.452818 -0.037205
v -0.005803 0.449758 -0.034145
v -0.005803 0.452818 -0.037205
v -0.008864 0.452818 -0.034145
v -0.005803 0.449758 0.034145
v -0.008864 0.452818 0.034145
v -0.005803 0.452818 0.037205
v 0.024031 0.449758 0.034145
v 0.024031 0.452818 0.037205
v 0.027092 0.452818 0.034145
v 0.048464 0.489363 -0.009041
v 0.049391 0.486303 -0.012101
v 0.054211 0.492423 -0.014605
v 0.030151 0.486303 -0.012101
v 0.049209 0.492423 -0.000000
v 0.024031 0.489363 -0.009041
v 0.027092 0.486303 -0.015161
v 0.046041 0.489363 -0.000000
v 0.048464 0.489363 0.009041
v 0.054211 0.492423 0.014604
v 0.049391 0.486303 0.012101
v 0.030151 0.486303 0.012101
v 0.024031 0.489363 0.009041
v 0.027092 0.486303 0.015161
v 0.024031 0.489363 -0.034145
v 0.027092 0.486303 -0.034145
v 0.024031 0.486303 -0.037205
v -0.005803 0.486303 -0.037205
v -0.005803 0.489363 -0.034145
v -0.008864 0.486303 -0.034145
v -0.008864 0.486303 0.034145
v -0.005803 0.489363 0.034145
v -0.005803 0.486303 0.037205
v 0.024031 0.486303 0.037205
v 0.024031 0.489363 0.034145
v 0.027092 0.486303 0.034145
v 0.094371 0.895189 0.012101
v 0.094496 0.898200 -0.000000
v 0.097613 0.895189 -0.000000
v 0.094371 0.895189 -0.012101
v 0.091671 0.898200 0.010542
v 0.085512 0.895189 0.020959
v 0.091671 0.898200 -0.010543
v 0.085512 0.895189 -0.020960
v 0.083953 0.898200 0.018260
v 0.073411 0.895189 0.024202
v 0.083953 0.898200 -0.018260
v 0.073411 0.895189 -0.024202
v 0.085657 0.901738 -0.000000
v 0.079534 0.901738 -0.010606
v 0.084017 0.901738 -0.006123
v 0.073411 0.901738 -0.012246
v 0.073411 0.898200 -0.021085
v 0.062869 0.898200 -0.018260
v 0.061310 0.895189 -0.020960
v 0.067288 0.901738 -0.010606
v 0.055151 0.898200 -0.010543
v 0.052452 0.895189 -0.012101
v 0.049209 0.895189 -0.000000
v 0.062805 0.901738 -0.006123
v 0.052326 0.898200 -0.000000
v 0.061165 0.901738 -0.000000
v 0.055151 0.898200 0.010542
v 0.052452 0.895189 0.012101
v 0.061310 0.895189 0.020959
v 0.062805 0.901738 0.006123
v 0.062869 0.898200 0.018260
v 0.067288 0.901738 0.010605
v 0.073411 0.898200 0.021085
v 0.073411 0.901738 0.012246
v 0.079534 0.901738 0.010605
v 0.084017 0.901738 0.006123
v 0.061310 0.376816 0.020959
v 0.055151 0.373805 0.010542
v 0.052452 0.376816 0.012101
v 0.049209 0.376816 -0.000000
v 0.062869 0.373805 0.018260
v 0.073411 0.376816 0.024202
v 0.052326 0.373805 -0.000000
v 0.062805 0.370267 0.006123
v 0.073411 0.373805 0.021085
v 0.067288 0.370267 0.010606
v 0.083953 0.373805 0.018260
v 0.085512 0.376816 0.020959
v 0.073411 0.370267 0.012246
v 0.061165 0.370267 -0.000000
v 0.091671 0.373805 0.010542
v 0.094371 0.376816 0.012101
v 0.079534 0.370267 0.010606
v 0.084017 0.370267 0.006123
v 0.085657 0.370267 -0.000000
v 0.094496 0.373805 -0.000000
v 0.097613 0.376816 -0.000000
v 0.094371 0.376816 -0.012101
v 0.091671 0.373805 -0.010543
v 0.085512 0.376816 -0.020960
v 0.084017 0.370267 -0.006123
v 0.083953 0.373805 -0.018260
v 0.079534 0.370267 -0.010606
v 0.073411 0.376816 -0.024202
v 0.073411 0.370267 -0.012246
v 0.073411 0.373805 -0.021085
v 0.062869 0.373805 -0.018260
v 0.061310 0.376816 -0.020960
v 0.067288 0.370267 -0.010606
v 0.062805 0.370267 -0.006123
v 0.055151 0.373805 -0.010543
v 0.052452 0.376816 -0.012101
v -0.027206 0.008314 0.057844
v -0.022127 0.000000 0.062844
v -0.027127 0.000000 0.057844
v -0.027127 -0.000000 -0.061206
v -0.027206 0.008314 -0.061206
v -0.022127 -0.000000 -0.066206
v -0.022127 0.008398 -0.066257
v 0.055690 -0.000000 -0.066206
v -0.025160 0.011037 -0.058070
v 0.055690 0.008398 -0.066257
v -0.019236 0.011155 -0.063982
v 0.052799 0.011155 -0.063982
v 0.060768 0.008314 -0.061206
v 0.060690 -0.000000 -0.061206
v 0.060690 0.000000 0.057844
v 0.050630 0.014965 -0.055744
v 0.060768 0.008314 0.057844
v 0.055690 0.000000 0.062844
v 0.058723 0.011037 -0.058070
v 0.058723 0.011037 0.054708
v 0.050630 0.014965 0.052382
v 0.052799 0.011155 0.060620
v 0.055690 0.008398 0.062896
v -0.022127 0.000000 0.062844
v -0.022127 0.008398 0.062896
v -0.019236 0.011155 0.060620
v -0.017067 0.014965 0.052382
v -0.025160 0.011037 0.054708
v -0.017067 0.014965 -0.055744
vt 0.038727 0.460938
vt 0.047424 0.000000
vt 0.047394 0.460938
vt 0.038788 0.000000
vt 0.037323 0.460938
vt 0.037354 0.000000
vt 0.028732 0.000000
vt 0.028717 0.460938
vt 0.027313 0.000000
vt 0.027313 0.460938
vt 0.018677 0.000000
vt 0.018692 0.460938
vt 0.017273 0.460938
vt 0.017258 0.000000
vt 0.008652 0.460938
vt 0.008621 0.000000
vt 0.007206 0.000000
vt 0.007233 0.460938
vt 0.093384 0.460938
vt 0.102051 0.000000
vt 0.102051 0.460938
vt 0.093384 0.000000
vt 0.091980 0.460938
vt 0.091980 0.000000
vt 0.083374 0.000000
vt 0.083313 0.460938
vt 0.081909 0.000000
vt 0.081909 0.460938
vt 0.073303 0.000000
vt 0.073303 0.460938
vt 0.071899 0.460938
vt 0.071838 0.000000
vt 0.063232 0.460938
vt 0.063232 0.000000
vt 0.061798 0.000000
vt 0.061829 0.460938
vt 0.007210 0.780273
vt 0.008385 0.779175
vt 0.009270 0.781250
vt 0.007206 0.789185
vt 0.017242 0.779175
vt 0.009270 0.788330
vt 0.008385 0.790405
vt 0.017242 0.790405
vt 0.016357 0.781250
vt 0.018417 0.780273
vt 0.018417 0.789185
vt 0.016357 0.788330
vt 0.007210 0.478516
vt 0.008385 0.477051
vt 0.009270 0.479004
vt 0.007206 0.487305
vt 0.017242 0.477051
vt 0.009270 0.486328
vt 0.008385 0.488281
vt 0.017242 0.488281
vt 0.016357 0.479004
vt 0.018417 0.478516
vt 0.018417 0.487305
vt 0.016357 0.486328
vt 0.241089 0.251465
vt 0.241089 0.274414
vt 0.238403 0.271484
vt 0.238403 0.254395
vt 0.228760 0.254395
vt 0.228760 0.271484
vt 0.226562 0.271484
vt 0.226562 0.254395
vt 0.217041 0.254395
vt 0.217041 0.271484
vt 0.214844 0.271484
vt 0.214844 0.254395
vt 0.199829 0.271484
vt 0.199829 0.254395
vt 0.197754 0.271484
vt 0.197754 0.254395
vt 0.163452 0.271484
vt 0.163452 0.254395
vt 0.161255 0.271484
vt 0.161255 0.254395
vt 0.146240 0.271484
vt 0.146240 0.254395
vt 0.144043 0.271484
vt 0.144043 0.254395
vt 0.134521 0.254395
vt 0.134521 0.271484
vt 0.132446 0.271484
vt 0.132446 0.254395
vt 0.122803 0.254395
vt 0.122803 0.271484
vt 0.120056 0.274414
vt 0.120056 0.251465
vt 0.254639 0.274414
vt 0.254639 0.251465
vt 0.257324 0.254395
vt 0.257324 0.271484
vt 0.267090 0.271484
vt 0.267090 0.254395
vt 0.269287 0.254395
vt 0.269287 0.271484
vt 0.278809 0.271484
vt 0.278809 0.254395
vt 0.281006 0.254395
vt 0.281006 0.271484
vt 0.295898 0.254395
vt 0.295898 0.271484
vt 0.298096 0.254395
vt 0.298096 0.271484
vt 0.332275 0.271484
vt 0.332275 0.254395
vt 0.334473 0.254395
vt 0.334473 0.271484
vt 0.349609 0.254395
vt 0.349609 0.271484
vt 0.351562 0.254395
vt 0.351562 0.271484
vt 0.361084 0.271484
vt 0.361084 0.254395
vt 0.363281 0.254395
vt 0.363281 0.271484
vt 0.373047 0.271484
vt 0.373047 0.254395
vt 0.375732 0.251465
vt 0.375732 0.274414
vt 0.783203 0.504883
vt 0.783203 0.379883
vt 0.789551 0.504883
vt 0.789551 0.379883
vt 0.783203 0.248535
vt 0.795410 0.504883
vt 0.789551 0.248535
vt 0.795410 0.379883
vt 0.801758 0.504883
vt 0.795410 0.248535
vt 0.801758 0.379883
vt 0.801758 0.248535
vt 0.807617 0.248535
vt 0.807617 0.379883
vt 0.807617 0.504883
vt 0.813477 0.504883
vt 0.813477 0.379883
vt 0.813477 0.248535
vt 0.819824 0.504883
vt 0.819824 0.379883
vt 0.819824 0.248535
vt 0.825684 0.504883
vt 0.825684 0.379883
vt 0.825684 0.248535
vt 0.832031 0.248535
vt 0.832031 0.379883
vt 0.832031 0.504883
vt 0.835938 0.305664
vt 0.835938 0.283203
vt 0.837402 0.248535
vt 0.843750 0.283203
vt 0.843750 0.248535
vt 0.849121 0.248535
vt 0.850098 0.283203
vt 0.852051 0.248535
vt 0.850098 0.305664
vt 0.852051 0.379883
vt 0.849121 0.379883
vt 0.843750 0.305664
vt 0.849121 0.450684
vt 0.852051 0.504883
vt 0.849121 0.473145
vt 0.849121 0.504883
vt 0.843750 0.451172
vt 0.843750 0.473633
vt 0.843750 0.504883
vt 0.837402 0.504883
vt 0.835938 0.473633
vt 0.835938 0.451172
vt 0.837402 0.379883
vt 0.843750 0.379883
vt 0.232910 0.429688
vt 0.230713 0.429688
vt 0.230591 0.426270
vt 0.230957 0.438965
vt 0.237549 0.428711
vt 0.232910 0.442383
vt 0.229614 0.440430
vt 0.237549 0.431152
vt 0.242188 0.430176
vt 0.244629 0.426270
vt 0.244385 0.430176
vt 0.244141 0.439453
vt 0.242188 0.442383
vt 0.245483 0.440430
vt 0.254639 0.442871
vt 0.255127 0.440430
vt 0.256592 0.442383
vt 0.254639 0.457520
vt 0.256592 0.458008
vt 0.254883 0.459473
vt 0.220459 0.457520
vt 0.220093 0.459473
vt 0.218384 0.457520
vt 0.220337 0.442383
vt 0.218262 0.442383
vt 0.220093 0.440430
vt 0.191162 0.037109
vt 0.193359 0.037109
vt 0.193481 0.041016
vt 0.193115 0.027832
vt 0.186523 0.038086
vt 0.191162 0.024902
vt 0.194458 0.026855
vt 0.186523 0.036133
vt 0.181885 0.037109
vt 0.179443 0.041016
vt 0.179688 0.037109
vt 0.179932 0.027832
vt 0.181885 0.024414
vt 0.178589 0.026367
vt 0.203735 0.024414
vt 0.204102 0.026855
vt 0.205811 0.024902
vt 0.205811 0.009277
vt 0.203735 0.009766
vt 0.203979 0.007812
vt 0.169189 0.007324
vt 0.169434 0.009766
vt 0.167358 0.009277
vt 0.167358 0.024414
vt 0.169434 0.024414
vt 0.169067 0.026367
vt 0.178345 0.429688
vt 0.176147 0.429688
vt 0.175903 0.426270
vt 0.176270 0.438965
vt 0.182983 0.428711
vt 0.178345 0.442383
vt 0.175049 0.440430
vt 0.182983 0.431152
vt 0.187500 0.430176
vt 0.189941 0.426270
vt 0.189697 0.430176
vt 0.189575 0.439453
vt 0.187500 0.442383
vt 0.190796 0.440430
vt 0.200073 0.442871
vt 0.200439 0.440430
vt 0.202148 0.442383
vt 0.200073 0.457520
vt 0.202148 0.458008
vt 0.200317 0.459473
vt 0.165771 0.457520
vt 0.165527 0.459473
vt 0.163696 0.457520
vt 0.165771 0.442383
vt 0.163696 0.442383
vt 0.165405 0.440430
vt 0.613281 0.281250
vt 0.615723 0.281250
vt 0.615723 0.284668
vt 0.615234 0.271973
vt 0.608887 0.282227
vt 0.613281 0.268555
vt 0.616699 0.270508
vt 0.608887 0.279785
vt 0.604004 0.281250
vt 0.601562 0.284668
vt 0.602051 0.281250
vt 0.602051 0.271973
vt 0.604004 0.268555
vt 0.600586 0.270508
vt 0.625977 0.268555
vt 0.625977 0.270508
vt 0.627930 0.268555
vt 0.627930 0.253418
vt 0.625977 0.253906
vt 0.625977 0.251465
vt 0.591309 0.251465
vt 0.591797 0.253418
vt 0.589355 0.252930
vt 0.589355 0.268555
vt 0.591309 0.268066
vt 0.591309 0.270508
vt 0.782227 0.811523
vt 0.783691 0.805176
vt 0.785645 0.805664
vt 0.785645 0.799072
vt 0.780762 0.809937
vt 0.776367 0.814819
vt 0.783203 0.799683
vt 0.782227 0.793335
vt 0.775879 0.812866
vt 0.770020 0.814941
vt 0.780762 0.794922
vt 0.776367 0.790039
vt 0.778809 0.804077
vt 0.777344 0.798218
vt 0.778809 0.800903
vt 0.774414 0.796631
vt 0.775879 0.792114
vt 0.770020 0.792236
vt 0.769531 0.790161
vt 0.771484 0.796753
vt 0.765625 0.795044
vt 0.763672 0.793579
vt 0.760742 0.799438
vt 0.768555 0.798340
vt 0.762695 0.799927
vt 0.767090 0.801025
vt 0.762695 0.805420
vt 0.760742 0.806030
vt 0.764160 0.811768
vt 0.767578 0.804199
vt 0.765625 0.810181
vt 0.769043 0.806885
vt 0.770508 0.812988
vt 0.771484 0.808472
vt 0.774902 0.808228
vt 0.777344 0.806641
vt 0.551758 0.271973
vt 0.558105 0.273926
vt 0.557129 0.275879
vt 0.563965 0.276855
vt 0.553711 0.270508
vt 0.549316 0.265625
vt 0.563477 0.274902
vt 0.560059 0.269531
vt 0.551758 0.265625
vt 0.557617 0.267578
vt 0.552246 0.259766
vt 0.550293 0.259277
vt 0.556152 0.264648
vt 0.562988 0.270020
vt 0.555664 0.255371
vt 0.554688 0.253906
vt 0.556641 0.261719
vt 0.558594 0.259277
vt 0.561523 0.258301
vt 0.561035 0.253418
vt 0.560547 0.251465
vt 0.567383 0.252441
vt 0.566406 0.254395
vt 0.572266 0.256348
vt 0.564453 0.258789
vt 0.570801 0.257812
vt 0.566895 0.260742
vt 0.575195 0.262695
vt 0.568359 0.263672
vt 0.572754 0.262695
vt 0.572266 0.268555
vt 0.574219 0.269043
vt 0.567871 0.266602
vt 0.565918 0.269043
vt 0.568848 0.272949
vt 0.569824 0.274414
vt 0.389648 0.338867
vt 0.383789 0.340332
vt 0.388184 0.335449
vt 0.454102 0.335449
vt 0.452881 0.338867
vt 0.458740 0.339844
vt 0.455322 0.341309
vt 0.458740 0.384277
vt 0.451172 0.339844
vt 0.455322 0.382812
vt 0.454102 0.342773
vt 0.454102 0.381348
vt 0.452881 0.385254
vt 0.454346 0.388672
vt 0.388184 0.388672
vt 0.449951 0.379883
vt 0.389648 0.385254
vt 0.383789 0.384277
vt 0.451172 0.384277
vt 0.391357 0.384277
vt 0.392578 0.379883
vt 0.388428 0.381348
vt 0.387207 0.382812
vt 0.383789 0.340332
vt 0.387207 0.341797
vt 0.388184 0.343262
vt 0.392578 0.344238
vt 0.391113 0.339844
vt 0.449707 0.344238
vt1 0.080017 0.137695
vt1 0.919922 0.153320
vt1 0.079956 0.153320
vt1 0.919922 0.137695
vt1 0.080017 0.135254
vt1 0.919922 0.135254
vt1 0.919922 0.119629
vt1 0.080017 0.119629
vt1 0.919922 0.116699
vt1 0.079956 0.116699
vt1 0.919922 0.101074
vt1 0.079956 0.101074
vt1 0.079956 0.098633
vt1 0.919922 0.098633
vt1 0.079956 0.083008
vt1 0.919922 0.083008
vt1 0.919922 0.080078
vt1 0.079956 0.080078
vt1 0.080017 0.322266
vt1 0.919922 0.337891
vt1 0.079956 0.337891
vt1 0.919922 0.322266
vt1 0.080017 0.319336
vt1 0.919922 0.319336
vt1 0.919922 0.303711
vt1 0.080017 0.303711
vt1 0.919922 0.301270
vt1 0.079956 0.301270
vt1 0.919922 0.285156
vt1 0.079956 0.285645
vt1 0.079956 0.282715
vt1 0.919922 0.282715
vt1 0.079956 0.267090
vt1 0.919922 0.267090
vt1 0.919922 0.264648
vt1 0.079956 0.264648
vt1 0.264648 0.929688
vt1 0.262451 0.927429
vt1 0.266357 0.925720
vt1 0.281982 0.929688
vt1 0.262451 0.910156
vt1 0.280273 0.925720
vt1 0.284180 0.927429
vt1 0.284180 0.910156
vt1 0.266357 0.911865
vt1 0.264648 0.907837
vt1 0.281982 0.907837
vt1 0.280273 0.911865
vt1 0.729492 0.768311
vt1 0.731934 0.765991
vt1 0.733887 0.770020
vt1 0.729492 0.785645
vt1 0.749512 0.765991
vt1 0.733887 0.783936
vt1 0.731934 0.787964
vt1 0.749512 0.787964
vt1 0.747559 0.770020
vt1 0.751465 0.768311
vt1 0.751465 0.785645
vt1 0.747559 0.783936
vt1 0.325439 0.658203
vt1 0.325439 0.703125
vt1 0.320068 0.697021
vt1 0.320068 0.664307
vt1 0.301270 0.664307
vt1 0.301270 0.697021
vt1 0.296875 0.697021
vt1 0.296875 0.664307
vt1 0.278320 0.664307
vt1 0.278320 0.697021
vt1 0.274170 0.697021
vt1 0.274170 0.664307
vt1 0.244995 0.697021
vt1 0.244995 0.664307
vt1 0.240723 0.697021
vt1 0.240723 0.664307
vt1 0.173950 0.697021
vt1 0.173950 0.664307
vt1 0.169678 0.697021
vt1 0.169678 0.664307
vt1 0.140503 0.697021
vt1 0.140503 0.664307
vt1 0.136230 0.697021
vt1 0.136230 0.664307
vt1 0.117676 0.664307
vt1 0.117676 0.697021
vt1 0.113464 0.697021
vt1 0.113464 0.664307
vt1 0.094604 0.664307
vt1 0.094604 0.697021
vt1 0.089294 0.703125
vt1 0.089294 0.658447
vt1 0.685059 0.656494
vt1 0.685059 0.701416
vt1 0.679688 0.695312
vt1 0.679688 0.662598
vt1 0.660645 0.662598
vt1 0.660645 0.695312
vt1 0.656738 0.695312
vt1 0.656738 0.662598
vt1 0.638184 0.662598
vt1 0.638184 0.695312
vt1 0.633789 0.695312
vt1 0.633789 0.662598
vt1 0.604492 0.695557
vt1 0.604492 0.662598
vt1 0.600586 0.695557
vt1 0.600586 0.662598
vt1 0.533691 0.662598
vt1 0.533691 0.695557
vt1 0.529297 0.695312
vt1 0.529297 0.662598
vt1 0.500000 0.695312
vt1 0.500000 0.662598
vt1 0.496094 0.695312
vt1 0.496094 0.662598
vt1 0.477539 0.662598
vt1 0.477539 0.695312
vt1 0.473145 0.695312
vt1 0.473145 0.662598
vt1 0.454346 0.662598
vt1 0.454346 0.695312
vt1 0.448975 0.701416
vt1 0.449219 0.656738
vt1 0.123047 0.440430
vt1 0.372070 0.440430
vt1 0.123047 0.452637
vt1 0.372070 0.452637
vt1 0.632812 0.440430
vt1 0.123047 0.464355
vt1 0.632812 0.452637
vt1 0.372070 0.464355
vt1 0.123047 0.476074
vt1 0.632812 0.464355
vt1 0.372070 0.476074
vt1 0.632812 0.476074
vt1 0.632812 0.487305
vt1 0.372070 0.487305
vt1 0.123047 0.487305
vt1 0.123047 0.498535
vt1 0.372070 0.498535
vt1 0.632812 0.498535
vt1 0.123047 0.509766
vt1 0.372070 0.509766
vt1 0.632812 0.509766
vt1 0.123047 0.521240
vt1 0.372070 0.521240
vt1 0.632812 0.521240
vt1 0.632812 0.533447
vt1 0.372070 0.533447
vt1 0.123047 0.533447
vt1 0.519043 0.541016
vt1 0.563965 0.541016
vt1 0.632812 0.543945
vt1 0.563965 0.556152
vt1 0.632812 0.556152
vt1 0.632812 0.566895
vt1 0.563965 0.569092
vt1 0.632812 0.573486
vt1 0.519043 0.569092
vt1 0.372070 0.573486
vt1 0.372070 0.566895
vt1 0.519043 0.556152
vt1 0.231323 0.567871
vt1 0.123047 0.573486
vt1 0.186401 0.567871
vt1 0.123047 0.566895
vt1 0.230713 0.556152
vt1 0.185791 0.556152
vt1 0.123047 0.556152
vt1 0.123047 0.543945
vt1 0.185791 0.541016
vt1 0.230713 0.541016
vt1 0.372070 0.543945
vt1 0.372070 0.556152
vt1 0.896484 0.925781
vt1 0.900879 0.925842
vt1 0.901367 0.932983
vt1 0.900391 0.907715
vt1 0.887695 0.927734
vt1 0.896484 0.901489
vt1 0.902832 0.905151
vt1 0.887695 0.923340
vt1 0.878418 0.925659
vt1 0.874023 0.932800
vt1 0.874512 0.925659
vt1 0.874512 0.907532
vt1 0.878906 0.901306
vt1 0.872070 0.904968
vt1 0.854004 0.900818
vt1 0.853516 0.904785
vt1 0.850098 0.901306
vt1 0.854492 0.871948
vt1 0.850098 0.871338
vt1 0.854004 0.867920
vt1 0.920898 0.872192
vt1 0.921387 0.868164
vt1 0.925293 0.871704
vt1 0.920898 0.901123
vt1 0.925293 0.901611
vt1 0.921875 0.905090
vt1 0.181030 0.836304
vt1 0.181030 0.832031
vt1 0.188232 0.831665
vt1 0.162964 0.832397
vt1 0.182861 0.845215
vt1 0.156738 0.836304
vt1 0.160400 0.829956
vt1 0.178467 0.845215
vt1 0.180786 0.854370
vt1 0.187988 0.859131
vt1 0.180786 0.858643
vt1 0.162720 0.858276
vt1 0.156494 0.854248
vt1 0.160156 0.860718
vt1 0.156372 0.811768
vt1 0.160400 0.811157
vt1 0.156860 0.807739
vt1 0.126953 0.807861
vt1 0.127441 0.811890
vt1 0.123474 0.811279
vt1 0.123047 0.879028
vt1 0.127075 0.878540
vt1 0.126465 0.882629
vt1 0.156372 0.882690
vt1 0.155884 0.878723
vt1 0.159912 0.879456
vt1 0.417725 0.821655
vt1 0.417725 0.817383
vt1 0.424805 0.817017
vt1 0.399658 0.817749
vt1 0.419678 0.830688
vt1 0.393311 0.821777
vt1 0.396973 0.815308
vt1 0.415283 0.830688
vt1 0.417480 0.839600
vt1 0.424805 0.844482
vt1 0.417480 0.843994
vt1 0.399414 0.843628
vt1 0.393311 0.839600
vt1 0.396973 0.846069
vt1 0.392822 0.864136
vt1 0.396729 0.864868
vt1 0.393066 0.868164
vt1 0.363770 0.864014
vt1 0.363281 0.868042
vt1 0.359863 0.864502
vt1 0.364014 0.797241
vt1 0.360107 0.796753
vt1 0.363525 0.793213
vt1 0.393066 0.797119
vt1 0.393555 0.793213
vt1 0.396973 0.796509
vt1 0.718750 0.925903
vt1 0.723145 0.925964
vt1 0.723633 0.933167
vt1 0.722656 0.907837
vt1 0.709961 0.927795
vt1 0.718750 0.901611
vt1 0.725098 0.905273
vt1 0.709961 0.923401
vt1 0.701172 0.925720
vt1 0.696289 0.932861
vt1 0.696777 0.925720
vt1 0.696777 0.907654
vt1 0.701172 0.901428
vt1 0.694336 0.905029
vt1 0.743652 0.901306
vt1 0.744141 0.905273
vt1 0.747559 0.901794
vt1 0.747559 0.871826
vt1 0.743164 0.872437
vt1 0.744141 0.868408
vt1 0.676270 0.867920
vt1 0.676758 0.871948
vt1 0.672852 0.871338
vt1 0.672363 0.901245
vt1 0.676270 0.900818
vt1 0.675781 0.904785
vt1 0.840820 0.691406
vt1 0.845215 0.703369
vt1 0.840820 0.704346
vt1 0.847656 0.715576
vt1 0.844727 0.692383
vt1 0.847168 0.680176
vt1 0.850586 0.712402
vt1 0.858887 0.721924
vt1 0.850098 0.683105
vt1 0.858398 0.673340
vt1 0.859863 0.717773
vt1 0.872070 0.721680
vt1 0.854004 0.700684
vt1 0.862305 0.708984
vt1 0.856934 0.705811
vt1 0.868164 0.708984
vt1 0.871094 0.717773
vt1 0.879883 0.712158
vt1 0.883301 0.715088
vt1 0.873535 0.705811
vt1 0.885254 0.702637
vt1 0.889648 0.703613
vt1 0.889160 0.690674
vt1 0.876465 0.700439
vt1 0.885254 0.691895
vt1 0.876465 0.694336
vt1 0.879883 0.682617
vt1 0.882812 0.679688
vt1 0.871094 0.673340
vt1 0.873535 0.689209
vt1 0.870117 0.677490
vt1 0.868164 0.686279
vt1 0.859375 0.677490
vt1 0.861816 0.686279
vt1 0.856934 0.689453
vt1 0.854004 0.694824
vt1 0.596191 0.808960
vt1 0.592285 0.797119
vt1 0.596191 0.796021
vt1 0.589844 0.784668
vt1 0.592285 0.807861
vt1 0.589844 0.820190
vt1 0.586914 0.787598
vt1 0.583008 0.799316
vt1 0.586914 0.817261
vt1 0.583008 0.805420
vt1 0.577148 0.822510
vt1 0.578125 0.826538
vt1 0.580078 0.810791
vt1 0.580566 0.794067
vt1 0.566406 0.822510
vt1 0.565430 0.826416
vt1 0.575195 0.813599
vt1 0.568848 0.813599
vt1 0.563477 0.810669
vt1 0.557129 0.817139
vt1 0.554199 0.819946
vt1 0.547852 0.808716
vt1 0.551758 0.807617
vt1 0.547852 0.795776
vt1 0.560547 0.805420
vt1 0.551758 0.796875
vt1 0.560547 0.799194
vt1 0.554199 0.784546
vt1 0.563477 0.793945
vt1 0.557129 0.787476
vt1 0.566895 0.782227
vt1 0.565430 0.778198
vt1 0.568848 0.791138
vt1 0.575195 0.791138
vt1 0.577637 0.782227
vt1 0.578613 0.778198
vt1 0.772949 0.457520
vt1 0.762207 0.459473
vt1 0.770020 0.451172
vt1 0.893066 0.450684
vt1 0.890625 0.457031
vt1 0.901367 0.458984
vt1 0.895020 0.461914
vt1 0.902832 0.540771
vt1 0.887695 0.458984
vt1 0.896484 0.538086
vt1 0.893066 0.464355
vt1 0.894531 0.535400
vt1 0.892090 0.542969
vt1 0.895020 0.549316
vt1 0.771973 0.549316
vt1 0.886230 0.532959
vt1 0.774414 0.542969
vt1 0.763672 0.541260
vt1 0.888672 0.541016
vt1 0.777344 0.541016
vt1 0.779785 0.533203
vt1 0.771973 0.535645
vt1 0.770020 0.538330
vt1 0.762207 0.459473
vt1 0.768555 0.461914
vt1 0.770508 0.464844
vt1 0.778809 0.467285
vt1 0.776367 0.458984
vt1 0.885254 0.466797
vn 0.000000 0.000000 1.000000
vn 0.000000 0.000000 1.000000
vn 0.000000 0.000000 1.000000
vn 0.000000 0.000000 1.000000
vn 1.000000 0.000000 0.000000
vn 1.000000 0.000000 0.000000
vn 1.000000 0.000000 0.000000
vn 1.000000 0.000000 0.000000
vn 0.000000 -0.000000 -1.000000
vn 0.000000 -0.000000 -1.000000
vn 0.000000 -0.000000 -1.000000
vn 0.000000 -0.000000 -1.000000
vn -1.000000 0.000000 0.000000
vn -1.000000 0.000000 0.000000
vn -1.000000 0.000000 0.000000
vn -1.000000 0.000000 0.000000
vn 0.000000 0.000000 1.000000
vn 0.000000 0.000000 1.000000
vn 0.000000 0.000000 1.000000
vn 0.000000 0.000000 1.000000
vn 0.000000 0.000000 1.000000
vn 0.000000 0.000000 1.000000
vn 1.000000 0.000000 0.000000
vn 1.000000 0.000000 0.000000
vn 1.000000 0.000000 0.000000
vn 1.000000 0.000000 0.000000
vn 0.000000 -0.000000 -1.000000
vn 0.000000 -0.000000 -1.000000
vn 0.000000 -0.000000 -1.000000
vn 0.000000 -0.000000 -1.000000
vn -1.000000 0.000000 0.000000
vn -1.000000 0.000000 0.000000
vn -1.000000 0.000000 0.000000
vn -1.000000 0.000000 0.000000
vn 0.000000 0.000000 1.000000
vn 0.000000 0.000000 1.000000
vn 0.000000 -0.000000 -1.000000
vn 1.000000 0.000000 0.000000
vn 0.000000 1.000000 -0.000000
vn 0.000000 -0.000000 -1.000000
vn 1.000000 0.000000 0.000000
vn 0.000000 1.000000 -0.000000
vn -1.000000 0.000000 0.000000
vn -1.000000 0.000000 0.000000
vn 0.000000 1.000000 -0.000000
vn 0.000000 0.000000 1.000000
vn 0.000000 0.000000 1.000000
vn 0.000000 1.000000 -0.000000
vn 0.000000 -0.000000 -1.000000
vn 1.000000 0.000000 0.000000
vn 0.000000 1.000000 -0.000000
vn 0.000000 -0.000000 -1.000000
vn 1.000000 0.000000 0.000000
vn 0.000000 1.000000 -0.000000
vn -1.000000 0.000000 0.000000
vn -1.000000 0.000000 0.000000
vn 0.000000 1.000000 -0.000000
vn 0.000000 0.000000 1.000000
vn 0.000000 0.000000 1.000000
vn 0.000000 1.000000 -0.000000
vn -0.952756 -0.000000 -0.291339
vn -0.669291 -0.000000 -0.748031
vn 0.000000 -0.000000 -1.000000
vn 0.000000 -0.000000 -1.000000
vn 0.000000 -0.000000 -1.000000
vn 0.000000 -0.000000 -1.000000
vn 1.000000 0.000000 0.000000
vn 1.000000 0.000000 0.000000
vn 1.000000 0.000000 0.000000
vn 1.000000 0.000000 0.000000
vn 0.000000 -0.000000 -1.000000
vn 0.000000 -0.000000 -1.000000
vn 0.000000 -0.000000 -1.000000
vn 0.000000 -0.000000 -1.000000
vn -1.000000 0.000000 0.000000
vn -1.000000 0.000000 0.000000
vn -1.000000 0.000000 0.000000
vn -1.000000 0.000000 0.000000
vn 0.000000 0.000000 1.000000
vn 0.000000 0.000000 1.000000
vn 0.000000 0.000000 1.000000
vn 0.000000 0.000000 1.000000
vn 1.000000 0.000000 0.000000
vn 1.000000 0.000000 0.000000
vn 1.000000 0.000000 0.000000
vn 1.000000 0.000000 0.000000
vn 0.000000 0.000000 1.000000
vn 0.000000 0.000000 1.000000
vn 0.000000 0.000000 1.000000
vn 0.000000 0.000000 1.000000
vn -0.669291 0.000000 0.748031
vn -0.952756 0.000000 0.291339
vn -0.952756 0.000000 0.291339
vn -0.669291 0.000000 0.748031
vn 0.000000 0.000000 1.000000
vn 0.000000 0.000000 1.000000
vn 0.000000 0.000000 1.000000
vn 0.000000 0.000000 1.000000
vn 1.000000 0.000000 0.000000
vn 1.000000 0.000000 0.000000
vn 1.000000 0.000000 0.000000
vn 1.000000 0.000000 0.000000
vn 0.000000 0.000000 1.000000
vn 0.000000 0.000000 1.000000
vn 0.000000 0.000000 1.000000
vn 0.000000 0.000000 1.000000
vn -1.000000 0.000000 0.000000
vn -1.000000 0.000000 0.000000
vn -1.000000 0.000000 0.000000
vn -1.000000 0.000000 0.000000
vn 0.000000 -0.000000 -1.000000
vn 0.000000 -0.000000 -1.000000
vn 0.000000 -0.000000 -1.000000
vn 0.000000 -0.000000 -1.000000
vn 1.000000 0.000000 0.000000
vn 1.000000 0.000000 0.000000
vn 1.000000 0.000000 0.000000
vn 1.000000 0.000000 0.000000
vn 0.000000 -0.000000 -1.000000
vn 0.000000 -0.000000 -1.000000
vn 0.000000 -0.000000 -1.000000
vn 0.000000 -0.000000 -1.000000
vn -0.669291 -0.000000 -0.748031
vn -0.952756 -0.000000 -0.291339
vn -0.259843 -0.000000 -0.968504
vn -0.259843 -0.000000 -0.968504
vn -0.259843 -0.000000 -0.968504
vn -0.259843 -0.000000 -0.968504
vn -0.259843 -0.000000 -0.968504
vn 0.708661 -0.000000 -0.708661
vn -0.259843 -0.000000 -0.968504
vn 0.708661 -0.000000 -0.708661
vn 0.708661 -0.000000 -0.708661
vn 0.708661 -0.000000 -0.708661
vn 0.708661 -0.000000 -0.708661
vn 0.708661 -0.000000 -0.708661
vn 0.968504 -0.000000 -0.259842
vn 0.968504 -0.000000 -0.259842
vn 0.968504 -0.000000 -0.259842
vn 0.708661 0.000000 0.708661
vn 0.708661 0.000000 0.708661
vn 0.708661 0.000000 0.708661
vn 0.708661 0.000000 0.708661
vn 0.708661 0.000000 0.708661
vn 0.708661 0.000000 0.708661
vn -0.259843 0.000000 0.968504
vn -0.259843 0.000000 0.968504
vn -0.259843 0.000000 0.968504
vn -0.259843 0.000000 0.968504
vn -0.259843 0.000000 0.968504
vn -0.259843 0.000000 0.968504
vn -0.952756 0.000000 0.291339
vn -0.669291 0.000000 0.748031
vn -0.952756 0.007874 0.291339
vn -0.952756 0.007874 -0.291339
vn -0.952756 0.007874 -0.291339
vn -0.952756 0.007874 -0.291339
vn -0.669291 -0.000000 -0.748031
vn -0.259843 -0.000000 -0.968504
vn -0.952756 -0.000000 -0.291339
vn -0.259843 -0.000000 -0.968504
vn -0.952756 -0.000000 -0.291339
vn -0.952756 -0.000000 -0.291339
vn -0.952756 -0.000000 -0.291339
vn -0.259843 -0.000000 -0.968504
vn -0.669291 -0.000000 -0.748031
vn -0.952756 -0.007874 -0.291339
vn -0.952756 -0.000000 -0.291339
vn -0.952756 -0.007874 -0.291339
vn -0.952756 -0.007874 -0.291339
vn -0.952756 -0.007874 0.291339
vn -0.669291 0.000000 0.748031
vn -0.952756 0.000000 0.291339
vn -0.952756 0.000000 0.291339
vn -0.952756 -0.000000 -0.291339
vn 0.000000 -1.000000 0.000000
vn 0.000000 0.000000 1.000000
vn -0.952756 0.000000 0.291339
vn 0.000000 0.000000 1.000000
vn -0.952756 -0.000000 -0.291339
vn 0.000000 -1.000000 0.000000
vn 1.000000 0.000000 0.000000
vn 0.000000 -1.000000 0.000000
vn 0.000000 -1.000000 0.000000
vn -0.952756 -0.000000 -0.291339
vn 0.000000 -0.000000 -1.000000
vn 0.000000 -0.000000 -1.000000
vn 0.000000 -1.000000 0.000000
vn 1.000000 0.000000 0.000000
vn 0.000000 -1.000000 0.000000
vn 1.000000 0.000000 0.000000
vn 0.000000 -0.000000 -1.000000
vn 0.000000 -1.000000 0.000000
vn 0.000000 -0.000000 -1.000000
vn -1.000000 0.000000 0.000000
vn 0.000000 -1.000000 0.000000
vn -1.000000 0.000000 0.000000
vn 0.000000 0.000000 1.000000
vn 0.000000 -1.000000 0.000000
vn 0.000000 0.000000 1.000000
vn 1.000000 0.000000 0.000000
vn 0.000000 1.000000 -0.000000
vn 0.000000 -0.000000 -1.000000
vn -0.669291 -0.000000 -0.748031
vn 0.000000 -0.000000 -1.000000
vn -0.952756 -0.007874 -0.291339
vn 0.000000 1.000000 -0.000000
vn 1.000000 0.000000 0.000000
vn 0.000000 1.000000 -0.000000
vn 0.000000 1.000000 -0.000000
vn -0.669291 0.000000 0.748031
vn 0.000000 0.000000 1.000000
vn 0.000000 0.000000 1.000000
vn 0.000000 1.000000 -0.000000
vn 1.000000 0.000000 0.000000
vn 0.000000 1.000000 -0.000000
vn 1.000000 0.000000 0.000000
vn 0.000000 -0.000000 -1.000000
vn 0.000000 -0.000000 -1.000000
vn 0.000000 1.000000 -0.000000
vn -1.000000 0.000000 0.000000
vn -1.000000 0.000000 0.000000
vn 0.000000 1.000000 -0.000000
vn 0.000000 0.000000 1.000000
vn 0.000000 0.000000 1.000000
vn 0.000000 1.000000 -0.000000
vn 1.000000 0.000000 0.000000
vn 0.000000 -1.000000 0.000000
vn 0.000000 0.000000 1.000000
vn -0.669291 0.000000 0.748031
vn 0.000000 0.000000 1.000000
vn -0.952756 0.007874 -0.291339
vn 0.000000 -1.000000 0.000000
vn 1.000000 0.000000 0.000000
vn 0.000000 -1.000000 0.000000
vn 0.000000 -1.000000 0.000000
vn -0.669291 -0.000000 -0.748031
vn 0.000000 -0.000000 -1.000000
vn 0.000000 -0.000000 -1.000000
vn 0.000000 -1.000000 0.000000
vn 1.000000 0.000000 0.000000
vn 0.000000 -1.000000 0.000000
vn 1.000000 0.000000 0.000000
vn 0.000000 -0.000000 -1.000000
vn 0.000000 -1.000000 0.000000
vn 0.000000 -0.000000 -1.000000
vn -1.000000 0.000000 0.000000
vn 0.000000 -1.000000 0.000000
vn -1.000000 0.000000 0.000000
vn 0.000000 0.000000 1.000000
vn 0.000000 -1.000000 0.000000
vn 0.000000 0.000000 1.000000
vn 1.000000 0.000000 0.000000
vn 0.000000 1.000000 -0.000000
vn 0.000000 -0.000000 -1.000000
vn -0.952756 -0.000000 -0.291339
vn 0.000000 -0.000000 -1.000000
vn -0.952756 -0.000000 -0.291339
vn 0.000000 1.000000 -0.000000
vn 1.000000 0.000000 0.000000
vn 0.000000 1.000000 -0.000000
vn 0.000000 1.000000 -0.000000
vn -0.952756 0.000000 0.291339
vn 0.000000 0.000000 1.000000
vn 0.000000 0.000000 1.000000
vn 0.000000 1.000000 -0.000000
vn 1.000000 0.000000 0.000000
vn 0.000000 1.000000 -0.000000
vn 1.000000 0.000000 0.000000
vn 0.000000 -0.000000 -1.000000
vn 0.000000 -0.000000 -1.000000
vn 0.000000 1.000000 -0.000000
vn -1.000000 0.000000 0.000000
vn -1.000000 0.000000 0.000000
vn 0.000000 1.000000 -0.000000
vn 0.000000 0.000000 1.000000
vn 0.000000 0.000000 1.000000
vn 0.000000 1.000000 -0.000000
vn 1.000000 0.000000 0.000000
vn 0.708661 0.000000 0.708661
vn 0.370079 0.921260 -0.102362
vn 0.968504 -0.000000 -0.259842
vn 0.708661 -0.000000 -0.708661
vn 0.370079 0.921260 0.102362
vn 0.708661 0.000000 0.708661
vn 0.370079 0.921260 -0.102362
vn 0.708661 -0.000000 -0.708661
vn 0.102362 0.921260 0.370079
vn -0.259843 0.000000 0.968504
vn 0.102362 0.921260 -0.370079
vn -0.259843 -0.000000 -0.968504
vn 0.000000 1.000000 -0.000000
vn 0.000000 1.000000 -0.000000
vn 0.000000 1.000000 -0.000000
vn 0.000000 1.000000 -0.000000
vn -0.102362 0.921260 -0.370079
vn -0.267717 0.921260 -0.267717
vn -0.259843 -0.000000 -0.968504
vn 0.000000 1.000000 -0.000000
vn -0.267717 0.921260 -0.267717
vn -0.952756 -0.007874 -0.291339
vn -0.952756 -0.007874 -0.291339
vn 0.000000 1.000000 -0.000000
vn -0.370079 0.921260 -0.102362
vn 0.000000 1.000000 -0.000000
vn -0.267717 0.921260 0.267716
vn -0.952756 -0.007874 0.291339
vn -0.259843 0.000000 0.968504
vn 0.000000 1.000000 -0.000000
vn -0.267717 0.921260 0.267716
vn 0.000000 1.000000 -0.000000
vn -0.102362 0.921260 0.370079
vn 0.000000 1.000000 -0.000000
vn 0.000000 1.000000 -0.000000
vn 0.000000 1.000000 -0.000000
vn -0.259843 0.000000 0.968504
vn -0.267717 -0.921260 0.267717
vn -0.952756 0.007874 0.291339
vn -0.952756 0.007874 -0.291339
vn -0.267717 -0.921260 0.267717
vn -0.259843 0.000000 0.968504
vn -0.370079 -0.921260 -0.102362
vn 0.000000 -1.000000 0.000000
vn -0.102362 -0.921260 0.370079
vn 0.000000 -1.000000 0.000000
vn 0.102362 -0.921260 0.370079
vn 0.708661 0.000000 0.708661
vn 0.000000 -1.000000 0.000000
vn 0.000000 -1.000000 0.000000
vn 0.370079 -0.921260 0.102362
vn 0.708661 0.000000 0.708661
vn 0.000000 -1.000000 0.000000
vn 0.000000 -1.000000 0.000000
vn 0.000000 -1.000000 0.000000
vn 0.370079 -0.921260 -0.102362
vn 0.968504 -0.000000 -0.259842
vn 0.708661 -0.000000 -0.708661
vn 0.370079 -0.921260 -0.102362
vn 0.708661 -0.000000 -0.708661
vn 0.000000 -1.000000 0.000000
vn 0.102362 -0.921260 -0.370079
vn 0.000000 -1.000000 0.000000
vn -0.259843 -0.000000 -0.968504
vn 0.000000 -1.000000 0.000000
vn -0.102362 -0.921260 -0.370079
vn -0.267717 -0.921260 -0.267716
vn -0.259843 -0.000000 -0.968504
vn 0.000000 -1.000000 0.000000
vn 0.000000 -1.000000 0.000000
vn -0.267717 -0.921260 -0.267716
vn -0.952756 0.007874 -0.291339
vn -1.000000 -0.007874 0.000000
vn 0.000000 -0.007874 1.000000
vn -1.000000 -0.007874 0.000000
vn -1.000000 -0.007874 0.000000
vn -1.000000 -0.007874 0.000000
vn 0.000000 -0.007874 -1.000000
vn 0.000000 -0.007874 -1.000000
vn 0.000000 -0.007874 -1.000000
vn -0.433071 0.897638 -0.000000
vn 0.000000 -0.007874 -1.000000
vn 0.000000 0.905512 -0.417323
vn 0.000000 0.905512 -0.417323
vn 1.000000 -0.007874 0.000000
vn 1.000000 -0.007874 0.000000
vn 1.000000 -0.007874 0.000000
vn 0.000000 1.000000 -0.000000
vn 1.000000 -0.007874 0.000000
vn 0.000000 -0.007874 1.000000
vn 0.433071 0.897638 -0.000000
vn 0.433071 0.897638 -0.000000
vn 0.000000 1.000000 -0.000000
vn 0.000000 0.905512 0.417323
vn 0.000000 -0.007874 1.000000
vn 0.000000 -0.007874 1.000000
vn 0.000000 -0.007874 1.000000
vn 0.000000 0.905512 0.417323
vn 0.000000 1.000000 -0.000000
vn -0.433071 0.897638 -0.000000
vn 0.000000 1.000000 -0.000000
tan 0.000000 -1.000000 0.000000 1.000000
tan 0.000000 -1.000000 0.000000 1.000000
tan 0.000000 -1.000000 0.000000 1.000000
tan 0.000000 -1.000000 0.000000 1.000000
tan 0.000000 -1.000000 0.000000 1.000000
tan 0.000000 -1.000000 0.000000 1.000000
tan 0.000000 -1.000000 0.000000 1.000000
tan 0.000000 -1.000000 0.000000 1.000000
tan 0.000000 -1.000000 0.000000 1.000000
tan 0.000000 -1.000000 0.000000 1.000000
tan 0.000000 -1.000000 0.000000 1.000000
tan 0.000000 -1.000000 0.000000 1.000000
tan 0.000000 -1.000000 0.000000 1.000000
tan 0.000000 -1.000000 0.000000 1.000000
tan 0.000000 -1.000000 0.000000 1.000000
tan 0.000000 -1.000000 0.000000 1.000000
tan 0.000000 -1.000000 0.000000 1.000000
tan 0.000000 -1.000000 0.000000 1.000000
tan 0.000000 -1.000000 0.000000 1.000000
tan 0.000000 -1.000000 0.000000 1.000000
tan 0.000000 -1.000000 0.000000 1.000000
tan 0.000000 -1.000000 0.000000 1.000000
tan 0.000000 -1.000000 0.000000 1.000000
tan 0.000000 -1.000000 0.000000 1.000000
tan 0.000000 -1.000000 0.000000 1.000000
tan 0.000000 -1.000000 0.000000 1.000000
tan 0.000000 -1.000000 0.000000 1.000000
tan 0.000000 -1.000000 0.000000 1.000000
tan 0.000000 -1.000000 0.000000 1.000000
tan 0.000000 -1.000000 0.000000 1.000000
tan 0.000000 -1.000000 0.000000 1.000000
tan 0.000000 -1.000000 0.000000 1.000000
tan 0.000000 -1.000000 0.000000 1.000000
tan 0.000000 -1.000000 0.000000 1.000000
tan 0.000000 -1.000000 0.000000 1.000000
tan 0.000000 -1.000000 0.000000 1.000000
tan 1.000000 -0.055118 0.000000 1.000000
tan 0.000000 -0.944882 0.322835 1.000000
tan 1.000000 -0.000000 -0.023622 1.000000
tan 1.000000 0.055118 -0.000000 1.000000
tan 0.000000 -0.944882 -0.322834 1.000000
tan 1.000000 0.000000 0.031496 1.000000
tan 0.000000 0.944882 -0.322835 1.000000
tan 0.000000 0.944882 0.322834 1.000000
tan 1.000000 0.000000 0.023622 1.000000
tan 1.000000 -0.055118 0.000000 1.000000
tan 1.000000 0.055118 -0.000000 1.000000
tan 1.000000 -0.000000 -0.031496 1.000000
tan 1.000000 -0.055118 0.000000 1.000000
tan 0.000000 -0.944882 0.322835 1.000000
tan 1.000000 -0.000000 -0.023622 1.000000
tan 1.000000 0.047244 -0.000000 1.000000
tan 0.000000 -0.944882 -0.322834 1.000000
tan 1.000000 0.000000 0.031496 1.000000
tan 0.000000 0.944882 -0.322835 1.000000
tan 0.000000 0.944882 0.322834 1.000000
tan 1.000000 0.000000 0.023622 1.000000
tan 1.000000 -0.055118 0.000000 1.000000
tan 1.000000 0.055118 -0.000000 1.000000
tan 1.000000 -0.000000 -0.031496 1.000000
tan 0.002294 -0.992622 -0.007502 1.000000
tan 0.000000 -1.007502 0.000000 1.000000
tan 0.000000 -1.000000 0.000000 1.000000
tan 0.000000 -1.000000 0.000000 1.000000
tan 0.000000 -1.000000 0.000000 1.000000
tan 0.000000 -1.000000 0.000000 1.000000
tan 0.000000 -1.000000 0.000000 1.000000
tan 0.000000 -1.000000 0.000000 1.000000
tan 0.000000 -1.000000 0.000000 1.000000
tan 0.000000 -1.000000 0.000000 1.000000
tan 0.000000 -1.000000 0.000000 1.000000
tan 0.000000 -1.000000 0.000000 1.000000
tan 0.000000 -1.000000 0.000000 1.000000
tan 0.000000 -1.000000 0.000000 1.000000
tan 0.000000 -1.000000 0.000000 1.000000
tan 0.000000 -1.000000 0.000000 1.000000
tan 0.000000 -1.000000 0.000000 1.000000
tan 0.000000 -1.000000 0.000000 1.000000
tan 0.000000 -1.000000 0.000000 1.000000
tan 0.000000 -1.000000 0.000000 1.000000
tan 0.000000 -1.000000 0.000000 1.000000
tan 0.000000 -1.000000 0.000000 1.000000
tan 0.000000 -1.000000 0.000000 1.000000
tan 0.000000 -1.000000 0.000000 1.000000
tan 0.000000 -1.000000 0.000000 1.000000
tan 0.000000 -1.000000 0.000000 1.000000
tan 0.000000 -1.000000 0.000000 1.000000
tan 0.000000 -1.000000 0.000000 1.000000
tan 0.000000 -1.000000 0.000000 1.000000
tan 0.000000 -1.000000 0.000000 1.000000
tan 0.000000 -1.007502 0.000000 1.000000
tan 0.002294 -0.992622 0.007502 1.000000
tan -0.002294 -0.992622 -0.007502 1.000000
tan 0.000000 -1.007502 0.000000 1.000000
tan 0.000000 -1.000000 0.000000 1.000000
tan 0.000000 -1.000000 0.000000 1.000000
tan 0.000000 -1.000000 0.000000 1.000000
tan 0.000000 -1.000000 0.000000 1.000000
tan 0.000000 -1.000000 0.000000 1.000000
tan 0.000000 -1.000000 0.000000 1.000000
tan 0.000000 -1.000000 0.000000 1.000000
tan 0.000000 -1.000000 0.000000 1.000000
tan 0.000000 -1.000000 0.000000 1.000000
tan 0.000000 -1.000000 0.000000 1.000000
tan 0.000000 -1.000000 0.000000 1.000000
tan 0.000000 -1.000000 0.000000 1.000000
tan 0.000000 -1.000000 0.000000 1.000000
tan 0.000000 -1.000000 0.000000 1.000000
tan 0.000000 -1.000000 0.000000 1.000000
tan 0.000000 -1.000000 0.000000 1.000000
tan 0.000000 -1.000000 0.000000 1.000000
tan 0.000000 -1.000000 0.000000 1.000000
tan 0.000000 -1.000000 0.000000 1.000000
tan 0.000000 -1.000000 0.000000 1.000000
tan 0.000000 -1.000000 0.000000 1.000000
tan 0.000000 -1.000000 0.000000 1.000000
tan 0.000000 -1.000000 0.000000 1.000000
tan 0.000000 -1.000000 0.000000 1.000000
tan 0.000000 -1.000000 0.000000 1.000000
tan 0.000000 -1.000000 0.000000 1.000000
tan 0.000000 -1.000000 0.000000 1.000000
tan 0.000000 -1.000000 0.000000 1.000000
tan 0.000000 -1.007502 0.000000 1.000000
tan -0.002294 -0.992622 0.007502 1.000000
tan 0.000000 -1.005518 0.000000 1.000000
tan 0.000000 -1.005518 0.000000 1.000000
tan 0.000000 -1.005518 0.000000 1.000000
tan 0.000000 -1.005518 0.000000 1.000000
tan 0.000000 -1.005518 0.000000 1.000000
tan 0.000000 -1.004402 0.000000 1.000000
tan 0.000000 -1.005518 0.000000 1.000000
tan 0.000000 -1.004402 0.000000 1.000000
tan 0.000000 -1.004402 0.000000 1.000000
tan 0.000000 -1.004402 0.000000 1.000000
tan 0.000000 -1.004402 0.000000 1.000000
tan 0.000000 -1.004402 0.000000 1.000000
tan 0.000000 -1.005518 0.000000 1.000000
tan 0.000000 -1.005518 0.000000 1.000000
tan 0.000000 -1.005518 0.000000 1.000000
tan 0.000000 -1.004402 0.000000 1.000000
tan 0.000000 -1.004402 0.000000 1.000000
tan 0.000000 -1.004402 0.000000 1.000000
tan 0.000000 -1.004402 0.000000 1.000000
tan 0.000000 -1.004402 0.000000 1.000000
tan 0.000000 -1.004402 0.000000 1.000000
tan 0.000000 -1.005518 0.000000 1.000000
tan 0.000000 -1.005518 0.000000 1.000000
tan 0.000000 -1.005518 0.000000 1.000000
tan 0.000000 -1.005518 0.000000 1.000000
tan 0.000000 -1.005518 0.000000 1.000000
tan 0.000000 -1.005518 0.000000 1.000000
tan 0.000000 -0.992622 0.000000 1.000000
tan 0.000000 -1.007502 0.000000 1.000000
tan -0.007502 -0.992622 0.002294 1.000000
tan -0.007502 -0.992622 -0.002294 1.000000
tan -0.007502 -0.992622 -0.002294 1.000000
tan -0.007502 -0.992622 -0.002294 1.000000
tan 0.000000 -1.007502 0.000000 1.000000
tan 0.000000 -1.005518 0.000000 1.000000
tan 0.000000 -0.992622 0.000000 1.000000
tan 0.000000 -1.005518 0.000000 1.000000
tan 0.000000 -0.992622 0.000000 1.000000
tan 0.000000 -0.992622 0.000000 1.000000
tan -0.009176 -0.992622 0.030008 1.000000
tan -0.007626 -1.005518 0.002046 1.000000
tan -0.017670 -1.007502 0.015810 1.000000
tan 0.007502 -0.992622 0.002294 1.000000
tan 0.004588 -0.992622 -0.015004 1.000000
tan 0.014384 -0.992622 -0.020212 1.000000
tan 0.007502 -0.992622 0.002294 1.000000
tan 0.007502 -0.992622 -0.002294 1.000000
tan 0.000000 -1.007502 0.000000 1.000000
tan 0.000000 -0.992622 0.000000 1.000000
tan 0.000000 -0.992622 0.000000 1.000000
tan 0.000000 -0.992622 0.000000 1.000000
tan 0.992126 -0.000000 -0.125984 1.000000
tan 0.960630 -0.275591 0.000000 1.000000
tan 0.151404 -0.853617 0.495133 1.000000
tan 1.000000 0.078740 -0.000000 1.000000
tan 0.006882 -0.992622 -0.022506 1.000000
tan 1.000000 0.000000 0.015748 1.000000
tan 0.000000 1.000000 -0.055118 1.000000
tan 1.000000 0.000000 0.007874 1.000000
tan 0.992126 0.000000 0.141732 1.000000
tan 0.149110 -0.853618 -0.487631 1.000000
tan 0.960630 -0.291339 0.000000 1.000000
tan 1.000000 0.078740 -0.000000 1.000000
tan 1.000000 -0.000000 -0.007874 1.000000
tan 0.000000 1.000000 0.055118 1.000000
tan 1.000000 -0.000000 -0.062992 1.000000
tan 0.000000 0.937008 0.354331 1.000000
tan 0.992126 0.133858 -0.000000 1.000000
tan 1.000000 0.000000 0.078740 1.000000
tan 0.984252 -0.173228 0.000000 1.000000
tan 0.000000 -0.937008 -0.346457 1.000000
tan 1.000000 -0.000000 -0.078740 1.000000
tan 0.000000 -0.937008 0.346457 1.000000
tan 0.984252 -0.157480 0.000000 1.000000
tan 1.000000 0.000000 0.055118 1.000000
tan 0.992126 0.149606 -0.000000 1.000000
tan 0.000000 0.937008 -0.354331 1.000000
tan -0.992126 -0.000000 -0.125984 1.000000
tan -0.960630 -0.275591 0.000000 1.000000
tan -0.429971 -0.817161 0.384711 1.000000
tan -1.000000 0.086614 -0.000000 1.000000
tan -0.003968 -0.992622 0.039804 1.000000
tan -1.000000 0.000000 0.023622 1.000000
tan 0.000000 1.000000 -0.047244 1.000000
tan -1.000000 0.000000 0.007874 1.000000
tan -0.992126 0.000000 0.141732 1.000000
tan -0.424081 -0.828322 -0.379441 1.000000
tan -0.952756 -0.291339 0.000000 1.000000
tan -1.000000 0.070866 -0.000000 1.000000
tan -1.000000 -0.000000 -0.007874 1.000000
tan 0.000000 1.000000 0.055118 1.000000
tan -1.000000 0.000000 0.062992 1.000000
tan 0.000000 0.937008 -0.354331 1.000000
tan -0.992126 0.149606 -0.000000 1.000000
tan -0.984252 -0.157480 0.000000 1.000000
tan -1.000000 -0.000000 -0.078740 1.000000
tan 0.000000 -0.937008 0.354331 1.000000
tan 0.000000 -0.937008 -0.346457 1.000000
tan -1.000000 0.000000 0.078740 1.000000
tan -0.984252 -0.173228 0.000000 1.000000
tan -0.992126 0.133858 -0.000000 1.000000
tan -1.000000 -0.000000 -0.055118 1.000000
tan 0.000000 0.937008 0.362205 1.000000
tan 0.992126 -0.000000 -0.125984 1.000000
tan 0.960630 -0.275591 0.000000 1.000000
tan 0.429971 -0.817161 0.384711 1.000000
tan 1.000000 0.078740 -0.000000 1.000000
tan -0.000620 -0.992622 -0.024800 1.000000
tan 1.000000 0.000000 0.015748 1.000000
tan 0.000000 1.000000 -0.055118 1.000000
tan 1.000000 0.000000 0.007874 1.000000
tan 0.992126 0.000000 0.141732 1.000000
tan 0.424081 -0.828322 -0.379441 1.000000
tan 0.960630 -0.291339 0.000000 1.000000
tan 1.000000 0.078740 -0.000000 1.000000
tan 1.000000 -0.000000 -0.007874 1.000000
tan 0.000000 1.000000 0.055118 1.000000
tan 1.000000 -0.000000 -0.062992 1.000000
tan 0.000000 0.937008 0.354331 1.000000
tan 0.992126 0.133858 -0.000000 1.000000
tan 1.000000 0.000000 0.078740 1.000000
tan 0.984252 -0.173228 0.000000 1.000000
tan 0.000000 -0.937008 -0.346457 1.000000
tan 1.000000 -0.000000 -0.078740 1.000000
tan 0.000000 -0.937008 0.346457 1.000000
tan 0.984252 -0.157480 0.000000 1.000000
tan 1.000000 0.000000 0.055118 1.000000
tan 0.992126 0.149606 -0.000000 1.000000
tan 0.000000 0.937008 -0.354331 1.000000
tan -0.992126 -0.000000 -0.125984 1.000000
tan -0.960630 -0.275591 0.000000 1.000000
tan -0.151404 -0.846115 0.495133 1.000000
tan -1.000000 0.086614 -0.000000 1.000000
tan -0.011470 -0.992622 0.037510 1.000000
tan -1.000000 0.000000 0.023622 1.000000
tan 0.000000 1.000000 -0.047244 1.000000
tan -1.000000 0.000000 0.007874 1.000000
tan -0.992126 0.000000 0.141732 1.000000
tan -0.149110 -0.853618 -0.487631 1.000000
tan -0.952756 -0.291339 0.000000 1.000000
tan -1.000000 0.070866 -0.000000 1.000000
tan -1.000000 -0.000000 -0.007874 1.000000
tan 0.000000 1.000000 0.055118 1.000000
tan -1.000000 0.000000 0.062992 1.000000
tan 0.000000 0.937008 -0.354331 1.000000
tan -0.992126 0.149606 -0.000000 1.000000
tan -0.984252 -0.157480 0.000000 1.000000
tan -1.000000 -0.000000 -0.078740 1.000000
tan 0.000000 -0.937008 0.354331 1.000000
tan 0.000000 -0.937008 -0.346457 1.000000
tan -1.000000 0.000000 0.078740 1.000000
tan -0.984252 -0.173228 0.000000 1.000000
tan -0.992126 0.125984 -0.000000 1.000000
tan -1.000000 -0.000000 -0.055118 1.000000
tan 0.000000 0.937008 0.362205 1.000000
tan 0.396181 0.837002 -0.396181 1.000000
tan -0.278877 0.005084 -0.962490 1.000000
tan -0.259843 0.057474 -0.968504 1.000000
tan -0.602641 -0.524521 -0.602641 1.000000
tan -0.241800 0.202616 -0.949346 1.000000
tan 0.128340 0.982082 -0.128340 1.000000
tan -0.206336 -0.025668 -0.976998 1.000000
tan -0.468721 -0.758881 -0.468721 1.000000
tan -0.204538 0.384711 -0.901110 1.000000
tan -0.144894 0.988220 -0.038874 1.000000
tan -0.290471 -0.328415 -0.897886 1.000000
tan -0.198276 -0.980594 0.053196 1.000000
tan -0.251969 -0.000000 -0.968504 1.000000
tan -0.244094 -0.000000 -0.968504 1.000000
tan -0.244094 -0.000000 -0.968504 1.000000
tan -0.236220 -0.000000 -0.968504 1.000000
tan -0.239382 -0.385021 -0.892244 1.000000
tan -0.217806 -0.328849 -0.913820 1.000000
tan 0.221154 -0.972968 -0.059334 1.000000
tan -0.244094 -0.000000 -0.968504 1.000000
tan -0.162812 -0.316201 -0.925290 1.000000
tan 0.198338 -0.744622 -0.628495 1.000000
tan 0.249489 -0.531217 -0.801537 1.000000
tan -0.251969 -0.000000 -0.968504 1.000000
tan -0.175708 -0.178002 -0.966768 1.000000
tan -0.259843 -0.000000 -0.968504 1.000000
tan -0.308265 0.181288 -0.932110 1.000000
tan -0.290099 0.136710 -0.945006 1.000000
tan -0.526195 0.842768 -0.141174 1.000000
tan -0.251969 -0.000000 -0.968504 1.000000
tan -0.246016 0.202368 -0.942402 1.000000
tan -0.236220 -0.000000 -0.968504 1.000000
tan -0.241118 0.339079 -0.910782 1.000000
tan -0.236220 -0.000000 -0.968504 1.000000
tan -0.236220 -0.000000 -0.968504 1.000000
tan -0.259843 -0.000000 -0.968504 1.000000
tan 0.770228 -0.612871 0.206646 1.000000
tan 0.948230 -0.301445 -0.089094 1.000000
tan 0.084630 -0.945316 0.302313 1.000000
tan 0.003968 -0.992622 -0.039804 1.000000
tan 0.952446 -0.286689 -0.034100 1.000000
tan 0.892244 -0.385021 0.239382 1.000000
tan 0.927708 -0.359911 -0.114824 1.000000
tan 0.992126 -0.000000 -0.110236 1.000000
tan 0.990018 -0.130076 -0.049972 1.000000
tan 0.992126 -0.000000 -0.118110 1.000000
tan 0.988592 0.070990 -0.096720 1.000000
tan 0.546841 0.636121 -0.546841 1.000000
tan 0.992126 -0.000000 -0.118110 1.000000
tan 0.992126 -0.000000 -0.110236 1.000000
tan 0.915618 0.348441 -0.174344 1.000000
tan 0.368281 0.859322 -0.368281 1.000000
tan 0.992126 -0.000000 -0.110236 1.000000
tan 0.992126 -0.000000 -0.110236 1.000000
tan 0.992126 -0.000000 -0.110236 1.000000
tan 0.911588 0.379565 -0.120342 1.000000
tan -0.032736 0.997892 -0.122016 1.000000
tan 0.212040 0.959762 0.212040 1.000000
tan 0.921260 0.376837 -0.060822 1.000000
tan 0.446401 0.781201 0.446401 1.000000
tan 0.992126 -0.000000 -0.118110 1.000000
tan 0.979850 0.155496 -0.116064 1.000000
tan 0.992126 -0.000000 -0.133858 1.000000
tan 0.960878 -0.107322 -0.257796 1.000000
tan 0.992126 -0.000000 -0.125984 1.000000
tan 0.981338 -0.043958 -0.162006 1.000000
tan 0.952694 -0.221340 -0.191022 1.000000
tan 0.922748 -0.310249 -0.247566 1.000000
tan 0.992126 -0.000000 -0.118110 1.000000
tan 0.992126 -0.000000 -0.118110 1.000000
tan 0.957840 -0.238204 -0.138136 1.000000
tan 0.128712 -0.880712 -0.444727 1.000000
tan 0.007006 -0.889764 -0.464629 1.000000
tan -0.905574 -0.425197 -0.003348 1.000000
tan 0.006634 -0.842520 -0.543369 1.000000
tan 0.006634 -0.842520 0.543369 1.000000
tan 0.007006 -0.889764 0.456755 1.000000
tan -0.937070 -0.346457 0.002728 1.000000
tan -0.984314 -0.165354 0.001302 1.000000
tan -0.944944 0.330709 -0.002604 1.000000
tan -0.897638 -0.433071 0.077252 1.000000
tan -0.984314 0.181102 -0.001426 1.000000
tan -0.994110 -0.003286 -0.007130 1.000000
tan -0.994110 0.003286 0.007130 1.000000
tan 0.007006 0.889764 -0.464629 1.000000
tan 0.006634 0.842520 -0.543369 1.000000
tan 0.006634 0.842520 0.543369 1.000000
tan -1.000000 0.000000 0.007874 1.000000
tan 0.007006 0.889764 0.456755 1.000000
tan -0.937070 0.346457 0.002728 1.000000
tan -0.897638 0.433071 -0.077252 1.000000
tan -0.897638 0.433071 0.077252 1.000000
tan -1.000000 -0.000000 -0.015748 1.000000
tan -0.994110 0.003286 -0.007130 1.000000
tan -0.984314 0.165354 0.001302 1.000000
tan -0.960692 -0.283465 -0.002232 1.000000
tan -0.984314 -0.181102 -0.001426 1.000000
tan -0.994110 -0.003286 0.007130 1.000000
tan -1.000000 0.000000 0.007874 1.000000
tan -0.897638 -0.433071 -0.077252 1.000000
tan -1.000000 -0.000000 -0.015748 1.000000
f 3/3/3 2/2/2 1/1/1
f 4/4/4 1/1/1 2/2/2
f 1/1/1 4/4/4 5/5/5
f 6/6/6 5/5/5 4/4/4
f 6/6/6 7/7/7 5/5/5
f 5/5/5 7/7/7 8/8/8
f 7/7/7 9/9/9 8/8/8
f 8/8/8 9/9/9 10/10/10
f 9/9/9 11/11/11 10/10/10
f 10/10/10 11/11/11 12/12/12
f 12/12/12 11/11/11 13/13/13
f 14/14/14 13/13/13 11/11/11
f 13/13/13 14/14/14 15/15/15
f 16/16/16 15/15/15 14/14/14
f 16/16/16 17/17/17 15/15/15
f 15/15/15 17/17/17 18/18/18
f 21/21/21 20/20/20 19/19/19
f 22/22/22 19/19/19 20/20/20
f 19/19/19 22/22/22 23/23/23
f 24/24/24 23/23/23 22/22/22
f 24/24/24 25/25/25 23/23/23
f 23/23/23 25/25/25 26/26/26
f 25/25/25 27/27/27 26/26/26
f 26/26/26 27/27/27 28/28/28
f 27/27/27 29/29/29 28/28/28
f 28/28/28 29/29/29 30/30/30
f 30/30/30 29/29/29 31/31/31
f 32/32/32 31/31/31 29/29/29
f 31/31/31 32/32/32 33/33/33
f 34/34/34 33/33/33 32/32/32
f 34/34/34 35/35/35 33/33/33
f 33/33/33 35/35/35 36/36/36
f 39/39/39 38/38/38 37/37/37
f 39/39/39 37/37/37 40/40/40
f 38/38/38 39/39/39 41/41/41
f 42/42/42 39/39/39 40/40/40
f 42/42/42 40/40/40 43/43/43
f 42/42/42 43/43/43 44/44/44
f 45/45/45 41/41/41 39/39/39
f 45/45/45 46/46/46 41/41/41
f 46/46/46 45/45/45 47/47/47
f 42/42/42 48/48/48 39/39/39
f 45/45/45 39/39/39 48/48/48
f 44/44/44 48/48/48 42/42/42
f 48/48/48 47/47/47 45/45/45
f 48/48/48 44/44/44 47/47/47
f 51/51/51 50/50/50 49/49/49
f 51/51/51 49/49/49 52/52/52
f 50/50/50 51/51/51 53/53/53
f 54/54/54 51/51/51 52/52/52
f 54/54/54 52/52/52 55/55/55
f 54/54/54 55/55/55 56/56/56
f 57/57/57 53/53/53 51/51/51
f 57/57/57 58/58/58 53/53/53
f 58/58/58 57/57/57 59/59/59
f 54/54/54 60/60/60 51/51/51
f 57/57/57 51/51/51 60/60/60
f 56/56/56 60/60/60 54/54/54
f 60/60/60 59/59/59 57/57/57
f 60/60/60 56/56/56 59/59/59
f 63/63/63 62/62/62 61/61/61
f 64/64/64 63/63/63 61/61/61
f 64/64/64 65/65/65 63/63/63
f 63/63/63 65/65/65 66/66/66
f 67/67/67 66/66/66 65/65/65
f 65/65/65 68/68/68 67/67/67
f 68/68/68 69/69/69 67/67/67
f 67/67/67 69/69/69 70/70/70
f 71/71/71 70/70/70 69/69/69
f 69/69/69 72/72/72 71/71/71
f 72/72/72 73/73/73 71/71/71
f 72/72/72 74/74/74 73/73/73
f 73/73/73 74/74/74 75/75/75
f 76/76/76 75/75/75 74/74/74
f 75/75/75 76/76/76 77/77/77
f 78/78/78 77/77/77 76/76/76
f 79/79/79 77/77/77 78/78/78
f 78/78/78 80/80/80 79/79/79
f 79/79/79 80/80/80 81/81/81
f 82/82/82 81/81/81 80/80/80
f 81/81/81 82/82/82 83/83/83
f 84/84/84 83/83/83 82/82/82
f 84/84/84 85/85/85 83/83/83
f 83/83/83 85/85/85 86/86/86
f 86/86/86 85/85/85 87/87/87
f 88/88/88 87/87/87 85/85/85
f 88/88/88 89/89/89 87/87/87
f 87/87/87 89/89/89 90/90/90
f 90/90/90 89/89/89 91/91/91
f 89/89/89 92/92/92 91/91/91
f 95/95/95 94/94/94 93/93/93
f 96/96/96 95/95/95 93/93/93
f 97/97/97 95/95/95 96/96/96
f 98/98/98 95/95/95 97/97/97
f 98/98/98 97/97/97 99/99/99
f 100/100/100 99/99/99 97/97/97
f 101/101/101 99/99/99 100/100/100
f 102/102/102 99/99/99 101/101/101
f 102/102/102 101/101/101 103/103/103
f 104/104/104 103/103/103 101/101/101
f 103/103/103 104/104/104 105/105/105
f 106/106/106 105/105/105 104/104/104
f 107/107/107 105/105/105 106/106/106
f 106/106/106 108/108/108 107/107/107
f 108/108/108 109/109/109 107/107/107
f 110/110/110 107/107/107 109/109/109
f 110/110/110 109/109/109 111/111/111
f 112/112/112 111/111/111 109/109/109
f 113/113/113 111/111/111 112/112/112
f 113/113/113 112/112/112 114/114/114
f 115/115/115 113/113/113 114/114/114
f 114/114/114 116/116/116 115/115/115
f 117/117/117 115/115/115 116/116/116
f 118/118/118 115/115/115 117/117/117
f 119/119/119 118/118/118 117/117/117
f 117/117/117 120/120/120 119/119/119
f 121/121/121 119/119/119 120/120/120
f 122/122/122 119/119/119 121/121/121
f 122/122/122 121/121/121 123/123/123
f 121/121/121 124/124/124 123/123/123
f 127/127/127 126/126/126 125/125/125
f 128/128/128 126/126/126 127/127/127
f 128/128/128 129/129/129 126/126/126
f 130/130/130 128/128/128 127/127/127
f 131/131/131 129/129/129 128/128/128
f 132/132/132 128/128/128 130/130/130
f 132/132/132 131/131/131 128/128/128
f 133/133/133 132/132/132 130/130/130
f 134/134/134 131/131/131 132/132/132
f 135/135/135 134/134/134 132/132/132
f 135/135/135 132/132/132 133/133/133
f 136/136/136 134/134/134 135/135/135
f 136/136/136 135/135/135 137/137/137
f 138/138/138 135/135/135 133/133/133
f 138/138/138 137/137/137 135/135/135
f 133/133/133 139/139/139 138/138/138
f 140/140/140 138/138/138 139/139/139
f 141/141/141 137/137/137 138/138/138
f 141/141/141 138/138/138 140/140/140
f 142/142/142 137/137/137 141/141/141
f 143/143/143 141/141/141 140/140/140
f 144/144/144 142/142/142 141/141/141
f 144/144/144 141/141/141 143/143/143
f 145/145/145 142/142/142 144/144/144
f 146/146/146 144/144/144 143/143/143
f 147/147/147 145/145/145 144/144/144
f 147/147/147 144/144/144 146/146/146
f 148/148/148 145/145/145 147/147/147
f 148/148/148 147/147/147 149/149/149
f 150/150/150 147/147/147 146/146/146
f 150/150/150 149/149/149 147/147/147
f 146/146/146 151/151/151 150/150/150
f 150/150/150 152/152/152 149/149/149
f 153/153/153 149/149/149 152/152/152
f 153/153/153 154/154/154 149/149/149
f 155/155/155 154/154/154 153/153/153
f 156/156/156 154/154/154 155/155/155
f 157/157/157 156/156/156 155/155/155
f 155/155/155 158/158/158 157/157/157
f 159/159/159 157/157/157 158/158/158
f 158/158/158 160/160/160 159/159/159
f 161/161/161 159/159/159 160/160/160
f 161/161/161 160/160/160 162/162/162
f 160/160/160 163/163/163 162/162/162
f 162/162/162 164/164/164 161/161/161
f 161/161/161 164/164/164 165/165/165
f 166/166/166 165/165/165 164/164/164
f 166/166/166 167/167/167 165/165/165
f 164/164/164 162/162/162 168/168/168
f 166/166/166 169/169/169 167/167/167
f 167/167/167 169/169/169 170/170/170
f 170/170/170 169/169/169 171/171/171
f 172/172/172 171/171/171 169/169/169
f 151/151/151 171/171/171 172/172/172
f 172/172/172 173/173/173 151/151/151
f 150/150/150 151/151/151 173/173/173
f 150/150/150 173/173/173 174/174/174
f 168/168/168 174/174/174 173/173/173
f 152/152/152 150/150/150 174/174/174
f 163/163/163 152/152/152 174/174/174
f 175/175/175 174/174/174 168/168/168
f 174/174/174 175/175/175 163/163/163
f 175/175/175 168/168/168 162/162/162
f 175/175/175 162/162/162 163/163/163
f 178/178/178 177/177/177 176/176/176
f 176/176/176 177/177/177 179/179/179
f 178/178/178 176/176/176 180/180/180
f 179/179/179 181/181/181 176/176/176
f 179/179/179 182/182/182 181/181/181
f 183/183/183 180/180/180 176/176/176
f 181/181/181 183/183/183 176/176/176
f 180/180/180 183/183/183 184/184/184
f 184/184/184 185/185/185 180/180/180
f 184/184/184 186/186/186 185/185/185
f 186/186/186 184/184/184 187/187/187
f 184/184/184 183/183/183 188/188/188
f 188/188/188 187/187/187 184/184/184
f 181/181/181 188/188/188 183/183/183
f 188/188/188 189/189/189 187/187/187
f 189/189/189 188/188/188 190/190/190
f 190/190/190 191/191/191 189/189/189
f 192/192/192 191/191/191 190/190/190
f 193/193/193 190/190/190 188/188/188
f 190/190/190 193/193/193 192/192/192
f 188/188/188 181/181/181 193/193/193
f 194/194/194 192/192/192 193/193/193
f 194/194/194 193/193/193 195/195/195
f 193/193/193 196/196/196 195/195/195
f 196/196/196 193/193/193 181/181/181
f 197/197/197 195/195/195 196/196/196
f 197/197/197 196/196/196 198/198/198
f 199/199/199 196/196/196 181/181/181
f 196/196/196 199/199/199 198/198/198
f 181/181/181 182/182/182 199/199/199
f 200/200/200 198/198/198 199/199/199
f 201/201/201 199/199/199 182/182/182
f 200/200/200 199/199/199 201/201/201
f 204/204/204 203/203/203 202/202/202
f 202/202/202 203/203/203 205/205/205
f 204/204/204 202/202/202 206/206/206
f 205/205/205 207/207/207 202/202/202
f 205/205/205 208/208/208 207/207/207
f 209/209/209 206/206/206 202/202/202
f 207/207/207 209/209/209 202/202/202
f 206/206/206 209/209/209 210/210/210
f 210/210/210 211/211/211 206/206/206
f 210/210/210 212/212/212 211/211/211
f 212/212/212 210/210/210 213/213/213
f 210/210/210 209/209/209 214/214/214
f 214/214/214 213/213/213 210/210/210
f 207/207/207 214/214/214 209/209/209
f 214/214/214 215/215/215 213/213/213
f 207/207/207 208/208/208 216/216/216
f 217/217/217 216/216/216 208/208/208
f 218/218/218 216/216/216 217/217/217
f 218/218/218 219/219/219 216/216/216
f 216/216/216 220/220/220 207/207/207
f 219/219/219 220/220/220 216/216/216
f 207/207/207 220/220/220 214/214/214
f 221/221/221 220/220/220 219/219/219
f 221/221/221 222/222/222 220/220/220
f 223/223/223 220/220/220 222/222/222
f 214/214/214 220/220/220 223/223/223
f 224/224/224 223/223/223 222/222/222
f 224/224/224 225/225/225 223/223/223
f 223/223/223 226/226/226 214/214/214
f 225/225/225 226/226/226 223/223/223
f 215/215/215 214/214/214 226/226/226
f 225/225/225 227/227/227 226/226/226
f 226/226/226 227/227/227 215/215/215
f 230/230/230 229/229/229 228/228/228
f 228/228/228 229/229/229 231/231/231
f 230/230/230 228/228/228 232/232/232
f 231/231/231 233/233/233 228/228/228
f 231/231/231 234/234/234 233/233/233
f 235/235/235 232/232/232 228/228/228
f 233/233/233 235/235/235 228/228/228
f 232/232/232 235/235/235 236/236/236
f 236/236/236 237/237/237 232/232/232
f 236/236/236 238/238/238 237/237/237
f 238/238/238 236/236/236 239/239/239
f 236/236/236 235/235/235 240/240/240
f 240/240/240 239/239/239 236/236/236
f 233/233/233 240/240/240 235/235/235
f 240/240/240 241/241/241 239/239/239
f 241/241/241 240/240/240 242/242/242
f 242/242/242 243/243/243 241/241/241
f 244/244/244 243/243/243 242/242/242
f 245/245/245 242/242/242 240/240/240
f 242/242/242 245/245/245 244/244/244
f 240/240/240 233/233/233 245/245/245
f 246/246/246 244/244/244 245/245/245
f 246/246/246 245/245/245 247/247/247
f 245/245/245 248/248/248 247/247/247
f 248/248/248 245/245/245 233/233/233
f 249/249/249 247/247/247 248/248/248
f 249/249/249 248/248/248 250/250/250
f 251/251/251 248/248/248 233/233/233
f 248/248/248 251/251/251 250/250/250
f 233/233/233 234/234/234 251/251/251
f 252/252/252 250/250/250 251/251/251
f 253/253/253 251/251/251 234/234/234
f 252/252/252 251/251/251 253/253/253
f 256/256/256 255/255/255 254/254/254
f 254/254/254 255/255/255 257/257/257
f 256/256/256 254/254/254 258/258/258
f 257/257/257 259/259/259 254/254/254
f 257/257/257 260/260/260 259/259/259
f 261/261/261 258/258/258 254/254/254
f 259/259/259 261/261/261 254/254/254
f 258/258/258 261/261/261 262/262/262
f 262/262/262 263/263/263 258/258/258
f 262/262/262 264/264/264 263/263/263
f 264/264/264 262/262/262 265/265/265
f 262/262/262 261/261/261 266/266/266
f 266/266/266 265/265/265 262/262/262
f 259/259/259 266/266/266 261/261/261
f 266/266/266 267/267/267 265/265/265
f 259/259/259 260/260/260 268/268/268
f 269/269/269 268/268/268 260/260/260
f 270/270/270 268/268/268 269/269/269
f 270/270/270 271/271/271 268/268/268
f 268/268/268 272/272/272 259/259/259
f 271/271/271 272/272/272 268/268/268
f 259/259/259 272/272/272 266/266/266
f 273/273/273 272/272/272 271/271/271
f 273/273/273 274/274/274 272/272/272
f 275/275/275 272/272/272 274/274/274
f 266/266/266 272/272/272 275/275/275
f 276/276/276 275/275/275 274/274/274
f 276/276/276 277/277/277 275/275/275
f 275/275/275 278/278/278 266/266/266
f 277/277/277 278/278/278 275/275/275
f 267/267/267 266/266/266 278/278/278
f 277/277/277 279/279/279 278/278/278
f 278/278/278 279/279/279 267/267/267
f 282/282/282 281/281/281 280/280/280
f 282/282/282 283/283/283 281/281/281
f 284/284/284 280/280/280 281/281/281
f 284/284/284 285/285/285 280/280/280
f 286/286/286 281/281/281 283/283/283
f 283/283/283 287/287/287 286/286/286
f 288/288/288 285/285/285 284/284/284
f 288/288/288 289/289/289 285/285/285
f 290/290/290 286/286/286 287/287/287
f 287/287/287 291/291/291 290/290/290
f 286/286/286 292/292/292 281/281/281
f 281/281/281 292/292/292 284/284/284
f 290/290/290 293/293/293 286/286/286
f 294/294/294 292/292/292 286/286/286
f 294/294/294 286/286/286 293/293/293
f 294/294/294 293/293/293 292/292/292
f 293/293/293 290/290/290 295/295/295
f 293/293/293 295/295/295 292/292/292
f 296/296/296 290/290/290 291/291/291
f 296/296/296 295/295/295 290/290/290
f 296/296/296 291/291/291 297/297/297
f 298/298/298 297/297/297 291/291/291
f 295/295/295 296/296/296 299/299/299
f 297/297/297 299/299/299 296/296/296
f 297/297/297 298/298/298 300/300/300
f 300/300/300 298/298/298 301/301/301
f 301/301/301 302/302/302 300/300/300
f 299/299/299 297/297/297 303/303/303
f 300/300/300 303/303/303 297/297/297
f 304/304/304 300/300/300 302/302/302
f 303/303/303 300/300/300 304/304/304
f 303/303/303 305/305/305 299/299/299
f 305/305/305 303/303/303 304/304/304
f 295/295/295 299/299/299 305/305/305
f 304/304/304 302/302/302 306/306/306
f 306/306/306 302/302/302 307/307/307
f 307/307/307 308/308/308 306/306/306
f 306/306/306 309/309/309 304/304/304
f 305/305/305 304/304/304 309/309/309
f 310/310/310 306/306/306 308/308/308
f 306/306/306 310/310/310 309/309/309
f 308/308/308 289/289/289 310/310/310
f 309/309/309 311/311/311 305/305/305
f 310/310/310 311/311/311 309/309/309
f 312/312/312 310/310/310 289/289/289
f 311/311/311 310/310/310 312/312/312
f 288/288/288 312/312/312 289/289/289
f 311/311/311 313/313/313 305/305/305
f 313/313/313 311/311/311 312/312/312
f 305/305/305 313/313/313 295/295/295
f 313/313/313 312/312/312 288/288/288
f 292/292/292 295/295/295 313/313/313
f 314/314/314 313/313/313 288/288/288
f 288/288/288 284/284/284 314/314/314
f 315/315/315 292/292/292 313/313/313
f 314/314/314 315/315/315 313/313/313
f 315/315/315 284/284/284 292/292/292
f 315/315/315 314/314/314 284/284/284
f 318/318/318 317/317/317 316/316/316
f 317/317/317 318/318/318 319/319/319
f 320/320/320 316/316/316 317/317/317
f 316/316/316 320/320/320 321/321/321
f 322/322/322 317/317/317 319/319/319
f 317/317/317 323/323/323 320/320/320
f 317/317/317 322/322/322 323/323/323
f 324/324/324 321/321/321 320/320/320
f 325/325/325 320/320/320 323/323/323
f 324/324/324 320/320/320 325/325/325
f 324/324/324 326/326/326 321/321/321
f 327/327/327 321/321/321 326/326/326
f 325/325/325 328/328/328 324/324/324
f 328/328/328 326/326/326 324/324/324
f 323/323/323 329/329/329 325/325/325
f 325/325/325 329/329/329 328/328/328
f 329/329/329 323/323/323 322/322/322
f 326/326/326 330/330/330 327/327/327
f 330/330/330 331/331/331 327/327/327
f 332/332/332 326/326/326 328/328/328
f 332/332/332 330/330/330 326/326/326
f 332/332/332 328/328/328 333/333/333
f 333/333/333 330/330/330 332/332/332
f 333/333/333 328/328/328 334/334/334
f 333/333/333 334/334/334 330/330/330
f 330/330/330 335/335/335 331/331/331
f 335/335/335 330/330/330 334/334/334
f 335/335/335 336/336/336 331/331/331
f 336/336/336 335/335/335 337/337/337
f 338/338/338 337/337/337 335/335/335
f 338/338/338 335/335/335 334/334/334
f 337/337/337 338/338/338 339/339/339
f 338/338/338 334/334/334 340/340/340
f 341/341/341 339/339/339 338/338/338
f 340/340/340 342/342/342 338/338/338
f 340/340/340 334/334/334 342/342/342
f 341/341/341 338/338/338 342/342/342
f 339/339/339 341/341/341 343/343/343
f 342/342/342 334/334/334 344/344/344
f 342/342/342 344/344/344 341/341/341
f 334/334/334 328/328/328 344/344/344
f 329/329/329 344/344/344 328/328/328
f 345/345/345 343/343/343 341/341/341
f 345/345/345 341/341/341 344/344/344
f 345/345/345 346/346/346 343/343/343
f 346/346/346 347/347/347 343/343/343
f 344/344/344 348/348/348 345/345/345
f 344/344/344 329/329/329 348/348/348
f 346/346/346 345/345/345 348/348/348
f 349/349/349 348/348/348 329/329/329
f 348/348/348 349/349/349 346/346/346
f 329/329/329 322/322/322 349/349/349
f 347/347/347 346/346/346 350/350/350
f 350/350/350 346/346/346 349/349/349
f 349/349/349 322/322/322 350/350/350
f 350/350/350 351/351/351 347/347/347
f 322/322/322 319/319/319 350/350/350
f 351/351/351 350/350/350 319/319/319
f 354/354/354 353/353/353 352/352/352
f 352/352/352 355/355/355 354/354/354
f 355/355/355 352/352/352 356/356/356
f 357/357/357 355/355/355 356/356/356
f 357/357/357 356/356/356 358/358/358
f 358/358/358 359/359/359 357/357/357
f 360/360/360 356/356/356 352/352/352
f 359/359/359 358/358/358 361/361/361
f 358/358/358 356/356/356 362/362/362
f 360/360/360 362/362/362 356/356/356
f 363/363/363 361/361/361 358/358/358
f 362/362/362 363/363/363 358/358/358
f 361/361/361 364/364/364 359/359/359
f 361/361/361 363/363/363 364/364/364
f 365/365/365 359/359/359 364/364/364
f 364/364/364 366/366/366 365/365/365
f 363/363/363 362/362/362 367/367/367
f 366/366/366 364/364/364 368/368/368
f 366/366/366 368/368/368 369/369/369
f 370/370/370 364/364/364 363/363/363
f 367/367/367 370/370/370 363/363/363
f 370/370/370 371/371/371 364/364/364
f 371/371/371 368/368/368 364/364/364
f 372/372/372 371/371/371 370/370/370
f 370/370/370 367/367/367 372/372/372
f 371/371/371 373/373/373 368/368/368
f 372/372/372 373/373/373 371/371/371
f 374/374/374 369/369/369 368/368/368
f 374/374/374 368/368/368 373/373/373
f 374/374/374 375/375/375 369/369/369
f 375/375/375 374/374/374 376/376/376
f 374/374/374 373/373/373 376/376/376
f 376/376/376 352/352/352 375/375/375
f 377/377/377 376/376/376 373/373/373
f 352/352/352 376/376/376 377/377/377
f 372/372/372 378/378/378 373/373/373
f 378/378/378 377/377/377 373/373/373
f 372/372/372 367/367/367 378/378/378
f 352/352/352 377/377/377 379/379/379
f 378/378/378 379/379/379 377/377/377
f 379/379/379 360/360/360 352/352/352
f 380/380/380 378/378/378 367/367/367
f 378/378/378 380/380/380 379/379/379
f 360/360/360 379/379/379 380/380/380
f 362/362/362 380/380/380 367/367/367
f 362/362/362 360/360/360 380/380/380
