mtllib SM_Big_Burger_Ring_02_LOD2.mtl
g SM_Big_Burger_Ring_02_LOD2
#Vertices 553
#Indices 1620
#Section 0 Offset 0 NumIndices 1620 MaterialIndex 0 MI_Burger_Hologram_02
v -0.673849 1.399091 -1.843027
v -0.663174 1.415188 -1.857961
v -0.654183 1.408897 -1.828651
v -0.509420 1.730222 -1.558154
v -0.494355 1.696462 -1.569258
v -0.450570 1.699935 -1.506997
v -0.459075 1.731860 -1.482382
v -0.445769 1.684458 -1.421024
v -0.460758 1.708564 -1.404310
v -0.514257 1.650105 -1.279357
v -0.481391 1.649702 -1.326128
v -0.583161 1.588901 -1.189779
v -0.541503 1.600895 -1.235735
v -0.619936 1.553344 -1.181538
v -0.722367 1.541253 -1.235730
v -0.713710 1.526125 -1.238218
v -0.781203 1.504133 -1.310573
v -0.834462 1.519509 -1.356570
v -0.841238 1.495547 -1.402938
v -0.871170 1.526597 -1.434711
v -0.860176 1.503399 -1.480687
v -0.869973 1.548110 -1.507112
v -0.834457 1.529053 -1.545431
v -0.782682 1.564663 -1.585367
v -0.799860 1.598134 -1.576569
v -0.664172 1.557290 -1.196958
v -0.583161 1.588901 -1.189779
v -0.619936 1.553344 -1.181538
v -0.722367 1.541253 -1.235730
v -0.713710 1.526125 -1.238218
v -0.834462 1.519509 -1.356570
v -0.871170 1.526597 -1.434711
v -0.722367 1.541253 -1.235730
v -0.869973 1.548110 -1.507112
v -0.664172 1.557290 -1.196958
v -0.514257 1.650105 -1.279357
v -0.583161 1.588901 -1.189779
v -0.459075 1.731860 -1.482382
v -0.460758 1.708564 -1.404310
v -0.509420 1.730222 -1.558154
v -0.602441 1.698266 -1.597804
v -0.704352 1.652121 -1.605012
v -0.799860 1.598134 -1.576569
v 1.125052 1.463574 -1.336602
v 0.960766 1.522649 -1.444227
v 1.129321 1.474317 -1.337751
v 0.957121 1.511727 -1.442683
v 0.778496 1.564411 -1.528593
v 0.663741 1.575178 -1.569571
v 0.585631 1.598888 -1.589406
v 0.959414 1.503649 -1.450711
v 0.777144 1.545411 -1.535077
v 0.385471 1.625492 -1.625626
v 0.584280 1.579888 -1.595891
v 0.293380 1.623941 -1.634067
v 0.181439 1.643766 -1.636633
v 0.384119 1.606492 -1.632110
v 0.180087 1.624766 -1.643117
v -0.030090 1.652820 -1.617553
v -0.024323 1.634397 -1.628722
v -0.315642 1.641158 -1.557570
v -0.225617 1.635223 -1.589173
v -0.224265 1.654222 -1.582688
v -0.420349 1.627226 -1.525143
v -0.418997 1.646225 -1.518659
v -0.605186 1.610546 -1.437732
v -0.601684 1.618227 -1.429752
v -0.603835 1.629546 -1.431248
v -0.776967 1.585466 -1.328434
v -0.772828 1.593241 -1.320859
v 0.957121 1.511727 -1.442683
v 1.127969 1.455317 -1.344236
v 0.959414 1.503649 -1.450711
v 1.125052 1.463574 -1.336602
v 1.279927 1.401244 -1.217472
v 1.394496 1.367205 -1.088423
v 1.412685 1.342352 -1.072590
v 1.129321 1.474317 -1.337751
v 1.296659 1.417876 -1.198781
v 1.523974 1.279649 -0.912068
v 1.576844 1.250678 -0.806983
v 1.611889 1.214211 -0.738654
v 1.536356 1.295770 -0.890924
v 1.613241 1.233210 -0.732170
v 1.674926 1.147154 -0.555314
v 1.669676 1.171733 -0.560522
v 1.712006 1.079627 -0.365184
v 1.717479 1.055740 -0.265111
v 1.713357 1.098627 -0.358700
v 1.723651 1.015370 -0.186535
v 1.723846 1.031787 -0.165035
v 1.701153 0.957912 0.024940
v 1.706212 0.947775 0.022368
v 1.707564 0.966774 0.028852
v 1.636387 0.871226 0.292441
v 1.662773 0.879778 0.220829
v 1.664790 0.904704 0.219644
v 1.594903 0.827637 0.397591
v 1.596255 0.846637 0.404076
v 1.497479 0.785345 0.573042
v 1.512779 0.776939 0.555334
v 1.503133 0.793567 0.578992
v 1.323771 0.717492 0.807082
v 1.385664 0.727402 0.734916
v 1.387017 0.746402 0.741400
v 1.264894 0.687367 0.868596
v 1.249892 0.705949 0.888520
v 1.092755 0.653900 1.011352
v 1.089968 0.665125 1.010261
v 1.094107 0.672900 1.017837
v 0.920975 0.628821 1.120650
v 0.918824 0.640139 1.119155
v 1.630165 1.227996 -0.742729
v 1.534093 1.280834 -0.917650
v 1.622659 1.214911 -0.742952
v 1.539829 1.290927 -0.917199
v 1.421980 1.344001 -1.079361
v 1.424023 1.360121 -1.086228
v 1.293070 1.413872 -1.225996
v 1.288238 1.403328 -1.225315
v 1.139424 1.468547 -1.354168
v 1.135155 1.457804 -1.353018
v 0.966703 1.525494 -1.453798
v 1.136507 1.476804 -1.346534
v 0.879934 1.540287 -1.510274
v 0.965351 1.506493 -1.460283
v 0.783084 1.567564 -1.538789
v 0.781732 1.548564 -1.545274
v 0.588790 1.602297 -1.600053
v 0.258487 1.640472 -1.674686
v 0.587438 1.583297 -1.606538
v 0.387146 1.629098 -1.636541
v 0.385794 1.610097 -1.643026
v 0.181603 1.647507 -1.647630
v 0.180252 1.628507 -1.654114
v -0.024322 1.657210 -1.633129
v -0.025673 1.638210 -1.639613
v -0.227105 1.658041 -1.593285
v -0.228458 1.639041 -1.599770
v -0.339849 1.648249 -1.571375
v -0.424632 1.630985 -1.535267
v -0.423281 1.649984 -1.528782
v -0.584406 1.619939 -1.464835
v -0.609487 1.633181 -1.440723
v -0.786678 1.600142 -1.338191
v -0.782540 1.607916 -1.330615
v -0.783891 1.588917 -1.337099
v -0.940832 1.555622 -1.206825
v -0.944196 1.566725 -1.207437
v -1.078971 1.514871 -1.058615
v -1.085524 1.528571 -1.057688
v -1.200249 1.478134 -0.894470
v -1.195948 1.467356 -0.895004
v -1.296544 1.426984 -0.717681
v -1.289759 1.413893 -0.718793
v 1.606900 0.844473 0.408195
v 1.680842 0.892605 0.220532
v 1.613434 0.831649 0.407138
v 1.675942 0.902971 0.222397
v 1.726362 0.953149 0.026395
v 1.719033 0.965501 0.030192
v 1.740554 1.021099 -0.168422
v 1.735436 1.030995 -0.165131
v 1.724869 1.098331 -0.360230
v 1.729950 1.088682 -0.364238
v 1.687515 1.166358 -0.551768
v 1.692458 1.156959 -0.556480
v 1.686163 1.147358 -0.558253
v 1.723518 1.079331 -0.366715
v 1.622659 1.214911 -0.742952
v 1.630165 1.227996 -0.742729
v 1.513088 0.791010 0.584407
v 1.606900 0.844473 0.408195
v 1.613434 0.831649 0.407138
v 1.517389 0.780232 0.583873
v 1.396111 0.743496 0.748018
v 1.403041 0.729942 0.746617
v 1.261334 0.691640 0.896841
v 1.257971 0.702743 0.896229
v 1.103819 0.658225 1.027593
v 1.101032 0.669450 1.026502
v 0.901541 0.638427 1.154240
v 0.926627 0.625185 1.130126
v 1.099680 0.650450 1.020018
v 0.740420 0.608380 1.218185
v 0.656990 0.610118 1.260777
v 0.741772 0.627381 1.224670
v 0.544246 0.600326 1.282689
v 0.545598 0.619325 1.289173
v 0.231502 0.610911 1.347893
v 0.341462 0.601157 1.322531
v 0.342814 0.620156 1.329015
v 0.136888 0.629859 1.343517
v 0.135537 0.610859 1.337032
v -0.068654 0.648269 1.332429
v -0.409671 0.682364 1.274507
v -0.070007 0.629269 1.325944
v -0.270297 0.675069 1.295941
v -0.271650 0.656070 1.289456
v -0.464591 0.709801 1.234677
v -0.465943 0.690802 1.228193
v -0.648211 0.751872 1.149686
v -0.649563 0.732873 1.143201
v -0.818015 0.800562 1.042421
v -0.822284 0.789820 1.043571
v -0.819367 0.781562 1.035937
v -0.971097 0.855037 0.914720
v -0.975929 0.844495 0.915399
v -1.104839 0.914366 0.768764
v -1.106881 0.898245 0.775634
v -1.222689 0.967440 0.606603
v -1.216953 0.977532 0.607054
v -1.312960 1.030311 0.432059
v -1.305519 1.043455 0.432354
v -0.810829 0.803048 1.033639
v -0.639981 0.746639 1.132086
v -0.642273 0.754717 1.140114
v -0.807913 0.794792 1.026005
v -0.962786 0.857122 0.906875
v -1.035744 0.878698 0.826655
v -0.812182 0.784049 1.027154
v -1.095544 0.916015 0.761994
v -0.979205 0.840335 0.888344
v -1.096896 0.897015 0.755510
v -1.206835 0.978717 0.601472
v -1.215285 0.960445 0.585526
v -1.202450 0.969810 0.595439
v -1.294749 1.044155 0.428058
v -1.296101 1.025156 0.421573
v -1.332999 1.074097 0.317081
v -1.357786 1.111212 0.244717
v -1.359137 1.092212 0.238232
v -1.396217 1.159738 0.048104
v -1.390562 1.177506 0.057429
v -1.406706 1.226580 -0.145562
v -1.397442 1.268558 -0.239274
v -1.406089 1.252605 -0.152298
v -1.390424 1.291591 -0.339449
v -1.389072 1.310592 -0.332965
v -1.341398 1.362296 -0.525621
v -1.347649 1.353662 -0.530240
v -1.352387 1.369381 -0.504882
v -1.240569 1.443170 -0.783614
v -1.279114 1.411729 -0.714674
v -1.277763 1.430729 -0.708189
v -1.185993 1.464799 -0.889589
v -1.200276 1.479546 -0.859835
v -1.022097 1.536744 -1.101657
v -1.069876 1.511964 -1.051996
v -1.068525 1.530964 -1.045512
v -0.947968 1.570911 -1.179128
v -0.932753 1.552418 -1.199117
v -0.775615 1.604466 -1.321949
v -0.772828 1.593241 -1.320859
v -0.776967 1.585466 -1.328434
v -0.603835 1.629546 -1.431248
v -0.601684 1.618227 -1.429752
v -0.643626 0.735717 1.133630
v -0.807913 0.794792 1.026005
v -0.812182 0.784049 1.027154
v -0.639981 0.746639 1.132086
v -0.461356 0.693955 1.217996
v -0.346593 0.683187 1.258977
v -0.642273 0.754717 1.140114
v -0.268491 0.659479 1.278809
v -0.460004 0.712954 1.224480
v -0.068331 0.632875 1.315029
v -0.267139 0.678478 1.285294
v 0.023758 0.634425 1.323470
v 0.135701 0.614601 1.326036
v -0.066979 0.651875 1.321513
v 0.137053 0.633601 1.332520
v 0.347231 0.605546 1.306955
v 0.341464 0.623968 1.318126
v 0.632776 0.617209 1.246974
v 0.541405 0.604144 1.272091
v 0.542757 0.623144 1.278575
v 0.737489 0.631140 1.214546
v 0.736137 0.612141 1.208063
v 0.922326 0.647821 1.127135
v 0.918824 0.640139 1.119155
v 0.920975 0.628821 1.120650
v 1.094107 0.672900 1.017837
v 1.089968 0.665125 1.010261
v -1.363702 1.365762 -0.531128
v -1.289759 1.413893 -0.718793
v -1.296544 1.426984 -0.717681
v -1.358802 1.355395 -0.532994
v -1.409061 1.305071 -0.337058
v -1.401892 1.292865 -0.340789
v -1.423415 1.237267 -0.142176
v -1.418295 1.227371 -0.145466
v -1.407729 1.160035 0.049635
v -1.412809 1.169683 0.053642
v -1.370375 1.092009 0.241172
v -1.375317 1.101407 0.245883
v -1.369023 1.111008 0.247656
v -1.406378 1.179035 0.056119
v -1.305519 1.043455 0.432354
v -1.312960 1.030311 0.432059
v -0.509420 1.730222 -1.558154
v -0.543573 1.677014 -1.598395
v -0.494355 1.696462 -1.569258
v -0.602441 1.698266 -1.597804
v -0.677048 1.618079 -1.617236
v -0.704352 1.652121 -1.605012
v -0.799860 1.598134 -1.576569
v -0.782682 1.564663 -1.585367
v -0.834457 1.529053 -1.545431
v -0.677048 1.618079 -1.617236
v -0.782682 1.564663 -1.585367
v -0.860176 1.503399 -1.480687
v -0.543573 1.677014 -1.598395
v -0.841238 1.495547 -1.402938
v -0.781203 1.504133 -1.310573
v -0.619936 1.553344 -1.181538
v -0.713710 1.526125 -1.238218
v -0.541503 1.600895 -1.235735
v -0.481391 1.649702 -1.326128
v -0.445769 1.684458 -1.421024
v -0.450570 1.699935 -1.506997
v -0.494355 1.696462 -1.569258
v -0.577075 1.257632 -1.930680
v -0.669081 1.276858 -1.964352
v -0.673592 1.265190 -1.942457
v -0.567085 1.271575 -1.934859
v -0.710826 1.348152 -1.931541
v -0.517306 1.327643 -1.875113
v -0.697842 1.395395 -1.889204
v -0.570916 1.404649 -1.832437
v -0.663174 1.415188 -1.857961
v -0.570916 1.404649 -1.832437
v -0.654183 1.408897 -1.828651
v -0.663174 1.415188 -1.857961
v -0.574497 1.386932 -1.814971
v -0.673849 1.399091 -1.843027
v -0.723544 1.337023 -1.908081
v -0.527518 1.304440 -1.858529
v -0.673592 1.265190 -1.942457
v -0.577075 1.257632 -1.930680
v -0.517306 1.327643 -1.875113
v -0.567085 1.271575 -1.934859
v -0.577075 1.257632 -1.930680
v -0.527518 1.304440 -1.858529
v -0.574497 1.386932 -1.814971
v -0.570916 1.404649 -1.832437
v -0.723544 1.337023 -1.908081
v -0.673592 1.265190 -1.942457
v -0.669081 1.276858 -1.964352
v -0.710826 1.348152 -1.931541
v -0.697842 1.395395 -1.889204
v -0.663174 1.415188 -1.857961
v -0.673849 1.399091 -1.843027
v 1.293070 1.413872 -1.225996
v 1.136507 1.476804 -1.346534
v 1.139424 1.468547 -1.354168
v 1.296659 1.417876 -1.198781
v 1.424023 1.360121 -1.086228
v 1.129321 1.474317 -1.337751
v 1.394496 1.367205 -1.088423
v 0.966703 1.525494 -1.453798
v 1.536356 1.295770 -0.890924
v 0.960766 1.522649 -1.444227
v 1.539829 1.290927 -0.917199
v 0.783084 1.567564 -1.538789
v 1.630165 1.227996 -0.742729
v 0.778496 1.564411 -1.528593
v 1.613241 1.233210 -0.732170
v 0.588790 1.602297 -1.600053
v 0.585631 1.598888 -1.589406
v 0.387146 1.629098 -1.636541
v 0.385471 1.625492 -1.625626
v 0.181603 1.647507 -1.647630
v 0.181439 1.643766 -1.636633
v -0.024322 1.657210 -1.633129
v -0.030090 1.652820 -1.617553
v -0.227105 1.658041 -1.593285
v -0.224265 1.654222 -1.582688
v -0.418997 1.646225 -1.518659
v -0.423281 1.649984 -1.528782
v -0.603835 1.629546 -1.431248
v -0.609487 1.633181 -1.440723
v -0.775615 1.604466 -1.321949
v -0.782540 1.607916 -1.330615
v -0.947968 1.570911 -1.179128
v -0.944196 1.566725 -1.207437
v -0.786678 1.600142 -1.338191
v -1.085524 1.528571 -1.057688
v -1.068525 1.530964 -1.045512
v -1.200276 1.479546 -0.859835
v -1.200249 1.478134 -0.894470
v -1.296544 1.426984 -0.717681
v -1.277763 1.430729 -0.708189
v -1.352387 1.369381 -0.504882
v -1.363702 1.365762 -0.531128
v -1.409061 1.305071 -0.337058
v -1.389072 1.310592 -0.332965
v -1.406089 1.252605 -0.152298
v -1.423415 1.237267 -0.142176
v -1.406378 1.179035 0.056119
v -1.412809 1.169683 0.053642
v -1.390562 1.177506 0.057429
v -1.357786 1.111212 0.244717
v -1.369023 1.111008 0.247656
v -1.305519 1.043455 0.432354
v -1.294749 1.044155 0.428058
v -1.216953 0.977532 0.607054
v -1.206835 0.978717 0.601472
v -1.104839 0.914366 0.768764
v -1.095544 0.916015 0.761994
v -0.971097 0.855037 0.914720
v -0.962786 0.857122 0.906875
v -0.818015 0.800562 1.042421
v -0.810829 0.803048 1.033639
v -0.648211 0.751872 1.149686
v -0.642273 0.754717 1.140114
v -0.464591 0.709801 1.234677
v -0.460004 0.712954 1.224480
v -0.270297 0.675069 1.295941
v -0.267139 0.678478 1.285294
v -0.068654 0.648269 1.332429
v -0.066979 0.651875 1.321513
v 0.136888 0.629859 1.343517
v 0.137053 0.633601 1.332520
v 0.342814 0.620156 1.329015
v 0.341464 0.623968 1.318126
v 0.545598 0.619325 1.289173
v 0.542757 0.623144 1.278575
v 0.737489 0.631140 1.214546
v 0.741772 0.627381 1.224670
v 0.922326 0.647821 1.127135
v 0.901541 0.638427 1.154240
v 1.094107 0.672900 1.017837
v 1.101032 0.669450 1.026502
v 1.249892 0.705949 0.888520
v 1.257971 0.702743 0.896229
v 1.387017 0.746402 0.741400
v 1.396111 0.743496 0.748018
v 1.503133 0.793567 0.578992
v 1.513088 0.791010 0.584407
v 1.596255 0.846637 0.404076
v 1.606900 0.844473 0.408195
v 1.664790 0.904704 0.219644
v 1.675942 0.902971 0.222397
v 1.707564 0.966774 0.028852
v 1.719033 0.965501 0.030192
v 1.723846 1.031787 -0.165035
v 1.735436 1.030995 -0.165131
v 1.713357 1.098627 -0.358700
v 1.724869 1.098331 -0.360230
v 1.669676 1.171733 -0.560522
v 1.687515 1.166358 -0.551768
v 1.692458 1.156959 -0.556480
v 1.261334 0.691640 0.896841
v 1.099680 0.650450 1.020018
v 1.103819 0.658225 1.027593
v 1.264894 0.687367 0.868596
v 1.403041 0.729942 0.746617
v 1.092755 0.653900 1.011352
v 1.385664 0.727402 0.734916
v 0.926627 0.625185 1.130126
v 1.512779 0.776939 0.555334
v 0.920975 0.628821 1.120650
v 1.517389 0.780232 0.583873
v 0.740420 0.608380 1.218185
v 1.613434 0.831649 0.407138
v 0.736137 0.612141 1.208063
v 1.594903 0.827637 0.397591
v 0.544246 0.600326 1.282689
v 1.662773 0.879778 0.220829
v 0.541405 0.604144 1.272091
v 1.680842 0.892605 0.220532
v 0.347231 0.605546 1.306955
v 1.726362 0.953149 0.026395
v 0.341462 0.601157 1.322531
v 1.706212 0.947775 0.022368
v 0.135701 0.614601 1.326036
v 1.723651 1.015370 -0.186535
v 0.135537 0.610859 1.337032
v 1.740554 1.021099 -0.168422
v -0.068331 0.632875 1.315029
v -0.070007 0.629269 1.325944
v -0.268491 0.659479 1.278809
v -0.271650 0.656070 1.289456
v -0.461356 0.693955 1.217996
v -0.465943 0.690802 1.228193
v -0.643626 0.735717 1.133630
v -0.649563 0.732873 1.143201
v -0.812182 0.784049 1.027154
v -0.819367 0.781562 1.035937
v -0.979205 0.840335 0.888344
v -0.975929 0.844495 0.915399
v -0.822284 0.789820 1.043571
v -1.106881 0.898245 0.775634
v -1.096896 0.897015 0.755510
v -1.215285 0.960445 0.585526
v -1.222689 0.967440 0.606603
v -1.312960 1.030311 0.432059
v -1.296101 1.025156 0.421573
v -1.359137 1.092212 0.238232
v -1.370375 1.092009 0.241172
v -1.375317 1.101407 0.245883
v -1.407729 1.160035 0.049635
v -1.396217 1.159738 0.048104
v -1.418295 1.227371 -0.145466
v -1.406706 1.226580 -0.145562
v -1.401892 1.292865 -0.340789
v -1.390424 1.291591 -0.339449
v -1.358802 1.355395 -0.532994
v -1.347649 1.353662 -0.530240
v -1.289759 1.413893 -0.718793
v -1.279114 1.411729 -0.714674
v -1.195948 1.467356 -0.895004
v -1.185993 1.464799 -0.889589
v -1.078971 1.514871 -1.058615
v -1.069876 1.511964 -1.051996
v -0.940832 1.555622 -1.206825
v -0.932753 1.552418 -1.199117
v -0.783891 1.588917 -1.337099
v -0.776967 1.585466 -1.328434
v -0.584406 1.619939 -1.464835
v -0.605186 1.610546 -1.437732
v -0.424632 1.630985 -1.535267
v -0.420349 1.627226 -1.525143
v -0.228458 1.639041 -1.599770
v -0.225617 1.635223 -1.589173
v -0.024323 1.634397 -1.628722
v -0.025673 1.638210 -1.639613
v 0.180087 1.624766 -1.643117
v 0.180252 1.628507 -1.654114
v 0.384119 1.606492 -1.632110
v 0.385794 1.610097 -1.643026
v 0.584280 1.579888 -1.595891
v 0.587438 1.583297 -1.606538
v 0.777144 1.545411 -1.535077
v 0.781732 1.548564 -1.545274
v 0.959414 1.503649 -1.450711
v 0.965351 1.506493 -1.460283
v 1.127969 1.455317 -1.344236
v 1.135155 1.457804 -1.353018
v 1.279927 1.401244 -1.217472
v 1.288238 1.403328 -1.225315
v 1.412685 1.342352 -1.072590
v 1.421980 1.344001 -1.079361
v 1.523974 1.279649 -0.912068
v 1.534093 1.280834 -0.917650
v 1.611889 1.214211 -0.738654
v 1.622659 1.214911 -0.742952
v 1.674926 1.147154 -0.555314
v 1.686163 1.147358 -0.558253
v 1.723518 1.079331 -0.366715
v 1.712006 1.079627 -0.365184
v 1.729950 1.088682 -0.364238
vt 0.290771 0.518311
vt 0.292725 0.515869
vt 0.294434 0.520264
vt 0.627441 0.235840
vt 0.633789 0.236816
vt 0.629883 0.246582
vt 0.623535 0.249512
vt 0.628418 0.262207
vt 0.624023 0.264160
vt 0.627441 0.288574
vt 0.629883 0.280273
vt 0.634277 0.306641
vt 0.633789 0.297852
vt 0.639648 0.309570
vt 0.591797 0.300293
vt 0.588867 0.299805
vt 0.584961 0.286621
vt 0.587891 0.277832
vt 0.583008 0.269043
vt 0.589355 0.263184
vt 0.584961 0.254395
vt 0.593262 0.249023
vt 0.589844 0.242188
vt 0.596191 0.234863
vt 0.602539 0.236816
vt 0.150879 0.683105
vt 0.151001 0.669189
vt 0.154175 0.676758
vt 0.149780 0.693359
vt 0.152588 0.692871
vt 0.198608 0.509277
vt 0.212158 0.513916
vt 0.171265 0.508789
vt 0.220581 0.522461
vt 0.159912 0.511475
vt 0.152466 0.538818
vt 0.149902 0.520020
vt 0.170410 0.568604
vt 0.161377 0.559570
vt 0.185181 0.571289
vt 0.200562 0.564941
vt 0.213135 0.553467
vt 0.220825 0.538818
vt 0.135986 0.083496
vt 0.126343 0.110352
vt 0.134277 0.082520
vt 0.128052 0.110840
vt 0.119446 0.140625
vt 0.117676 0.159180
vt 0.113831 0.171875
vt 0.129395 0.110840
vt 0.122620 0.140625
vt 0.109436 0.205078
vt 0.116943 0.172363
vt 0.109619 0.220215
vt 0.106445 0.238770
vt 0.112549 0.205078
vt 0.109558 0.238770
vt 0.105469 0.273438
vt 0.107971 0.272461
vt 0.106812 0.320312
vt 0.107849 0.305664
vt 0.104675 0.305176
vt 0.109131 0.337402
vt 0.106018 0.337402
vt 0.111877 0.368164
vt 0.110596 0.367188
vt 0.108765 0.367676
vt 0.116028 0.396484
vt 0.114746 0.395508
vt 0.485107 0.466309
vt 0.502930 0.476562
vt 0.483643 0.467773
vt 0.504395 0.475098
vt 0.525879 0.486328
vt 0.549316 0.493164
vt 0.552734 0.497070
vt 0.504395 0.473145
vt 0.529297 0.483398
vt 0.582031 0.508301
vt 0.601074 0.513672
vt 0.613281 0.520264
vt 0.585449 0.505615
vt 0.614746 0.516846
vt 0.646973 0.532471
vt 0.645996 0.528809
vt 0.681641 0.544922
vt 0.699707 0.549316
vt 0.682617 0.541504
vt 0.714355 0.556641
vt 0.718262 0.553711
vt 0.752930 0.567139
vt 0.752441 0.568848
vt 0.753418 0.565430
vt 0.801758 0.583008
vt 0.788574 0.581299
vt 0.788086 0.576904
vt 0.820801 0.590820
vt 0.821777 0.587402
vt 0.853027 0.598633
vt 0.849609 0.600098
vt 0.854004 0.597168
vt 0.895508 0.610840
vt 0.882324 0.609131
vt 0.883301 0.605713
vt 0.906738 0.616211
vt 0.910156 0.613037
vt 0.932617 0.622559
vt 0.932617 0.620605
vt 0.934082 0.619141
vt 0.952637 0.627197
vt 0.952637 0.625000
vt 0.023300 0.028809
vt 0.031555 0.046875
vt 0.020828 0.030273
vt 0.033447 0.045898
vt 0.041534 0.067871
vt 0.044464 0.067871
vt 0.052460 0.091797
vt 0.050507 0.092773
vt 0.060364 0.120117
vt 0.058380 0.121094
vt 0.068420 0.151855
vt 0.061829 0.121094
vt 0.070007 0.167969
vt 0.065002 0.151855
vt 0.073669 0.185547
vt 0.070251 0.185547
vt 0.077515 0.221191
vt 0.080200 0.280762
vt 0.074036 0.221191
vt 0.079773 0.257812
vt 0.076355 0.257812
vt 0.080505 0.294922
vt 0.077087 0.294922
vt 0.079651 0.332031
vt 0.076233 0.332031
vt 0.077271 0.368652
vt 0.073792 0.368652
vt 0.074036 0.388672
vt 0.069885 0.403809
vt 0.073364 0.403809
vt 0.066101 0.432129
vt 0.067993 0.437012
vt 0.059814 0.468262
vt 0.061279 0.467773
vt 0.057831 0.467773
vt 0.049866 0.495605
vt 0.051819 0.496094
vt 0.040802 0.519775
vt 0.043213 0.520996
vt 0.032654 0.541016
vt 0.030792 0.540283
vt 0.022324 0.557617
vt 0.019989 0.556396
vt 0.777344 0.136230
vt 0.746582 0.134277
vt 0.777832 0.133789
vt 0.746582 0.135742
vt 0.714355 0.133789
vt 0.713867 0.135742
vt 0.681152 0.134277
vt 0.681152 0.136230
vt 0.648438 0.136719
vt 0.647949 0.134766
vt 0.615723 0.137695
vt 0.615723 0.135742
vt 0.615723 0.134277
vt 0.648438 0.133301
vt 0.584473 0.135254
vt 0.583984 0.137695
vt 0.546875 0.939606
vt 0.563965 0.929993
vt 0.564941 0.932312
vt 0.547852 0.941559
vt 0.525879 0.948181
vt 0.526855 0.950653
vt 0.501465 0.957520
vt 0.500977 0.955505
vt 0.473389 0.963562
vt 0.472656 0.961517
vt 0.436768 0.967316
vt 0.441406 0.969498
vt 0.472412 0.964935
vt 0.407715 0.972534
vt 0.392822 0.972153
vt 0.407959 0.969101
vt 0.372314 0.973984
vt 0.372559 0.970551
vt 0.315918 0.972107
vt 0.335693 0.973831
vt 0.335938 0.970398
vt 0.298828 0.968658
vt 0.298584 0.972076
vt 0.261963 0.965332
vt 0.200684 0.959229
vt 0.261719 0.968765
vt 0.225586 0.960510
vt 0.225342 0.963928
vt 0.190552 0.954254
vt 0.190308 0.957672
vt 0.157349 0.946655
vt 0.157104 0.950073
vt 0.126831 0.937866
vt 0.125977 0.939819
vt 0.126587 0.941315
vt 0.099182 0.928101
vt 0.098328 0.929993
vt 0.075073 0.917358
vt 0.074768 0.920288
vt 0.053864 0.907776
vt 0.054901 0.906006
vt 0.037598 0.896484
vt 0.038910 0.894104
vt 0.094666 0.031250
vt 0.074402 0.035645
vt 0.073486 0.033691
vt 0.095520 0.033203
vt 0.119751 0.028809
vt 0.134888 0.029785
vt 0.094727 0.035156
vt 0.148193 0.026855
vt 0.122070 0.032715
vt 0.148193 0.030762
vt 0.179565 0.025391
vt 0.181274 0.029297
vt 0.180054 0.026855
vt 0.213379 0.023438
vt 0.213379 0.027344
vt 0.234253 0.024414
vt 0.248901 0.022461
vt 0.249023 0.025879
vt 0.285645 0.024902
vt 0.285156 0.021973
vt 0.322998 0.024414
vt 0.341797 0.022461
vt 0.325684 0.020020
vt 0.360352 0.023926
vt 0.360352 0.020020
vt 0.396729 0.021973
vt 0.396973 0.023926
vt 0.393555 0.020020
vt 0.446045 0.022461
vt 0.432373 0.024414
vt 0.432129 0.020508
vt 0.465576 0.024902
vt 0.461426 0.020996
vt 0.506348 0.024414
vt 0.496582 0.025879
vt 0.496338 0.021973
vt 0.521484 0.022949
vt 0.523926 0.027344
vt 0.548340 0.024902
vt 0.547363 0.026855
vt 0.548340 0.028809
vt 0.568848 0.026855
vt 0.567871 0.028809
vt 0.417236 0.047852
vt 0.444824 0.040039
vt 0.445557 0.041504
vt 0.416748 0.045898
vt 0.386963 0.052246
vt 0.367920 0.052734
vt 0.417236 0.044434
vt 0.354736 0.056152
vt 0.386963 0.049316
vt 0.321777 0.058105
vt 0.354736 0.052734
vt 0.306641 0.056641
vt 0.288086 0.058594
vt 0.321777 0.054688
vt 0.288086 0.055664
vt 0.253174 0.057129
vt 0.254395 0.054688
vt 0.206543 0.052734
vt 0.221313 0.055664
vt 0.221313 0.052734
vt 0.189453 0.048828
vt 0.189453 0.052246
vt 0.159302 0.043945
vt 0.159790 0.045410
vt 0.159302 0.047363
vt 0.131470 0.038086
vt 0.131958 0.039551
vt 0.737793 0.207031
vt 0.768066 0.214844
vt 0.767578 0.216797
vt 0.738281 0.205566
vt 0.707031 0.197266
vt 0.707520 0.195312
vt 0.675781 0.186523
vt 0.676270 0.185059
vt 0.645020 0.174316
vt 0.644531 0.175781
vt 0.614746 0.163574
vt 0.613770 0.165039
vt 0.613770 0.166504
vt 0.644043 0.177246
vt 0.583984 0.155762
vt 0.584473 0.153809
vt 0.783691 0.172363
vt 0.793457 0.174316
vt 0.785645 0.177734
vt 0.797363 0.165039
vt 0.815430 0.165527
vt 0.814453 0.158691
vt 0.831055 0.153320
vt 0.833008 0.159180
vt 0.150513 0.613037
vt 0.161865 0.639404
vt 0.152588 0.623779
vt 0.154541 0.602295
vt 0.180420 0.651855
vt 0.165405 0.594727
vt 0.183105 0.590088
vt 0.217285 0.592041
vt 0.199463 0.588623
vt 0.220947 0.607422
vt 0.218262 0.625244
vt 0.212158 0.640869
vt 0.202026 0.650879
vt 0.189819 0.654053
vt 0.237915 0.527588
vt 0.251709 0.535889
vt 0.250732 0.537842
vt 0.238403 0.524658
vt 0.265625 0.532471
vt 0.238892 0.511719
vt 0.269775 0.524902
vt 0.254883 0.508301
vt 0.267822 0.518066
vt 0.236572 0.608887
vt 0.246948 0.618164
vt 0.247925 0.620361
vt 0.238770 0.606689
vt 0.251221 0.619141
vt 0.264648 0.615967
vt 0.240967 0.590332
vt 0.265381 0.600586
vt 0.254395 0.588135
vt 0.587402 0.339355
vt 0.589844 0.353516
vt 0.587891 0.354980
vt 0.583496 0.340332
vt 0.586426 0.324707
vt 0.590332 0.323730
vt 0.797852 0.197754
vt 0.784668 0.203125
vt 0.783691 0.199219
vt 0.795898 0.193848
vt 0.807129 0.192871
vt 0.813965 0.194336
vt 0.813477 0.198242
vt 0.126587 0.458496
vt 0.105591 0.482422
vt 0.104370 0.481934
vt 0.130737 0.458496
vt 0.150635 0.439453
vt 0.106934 0.483887
vt 0.149780 0.443848
vt 0.086548 0.508301
vt 0.182739 0.423340
vt 0.088013 0.509277
vt 0.178711 0.422852
vt 0.070862 0.536621
vt 0.207764 0.410645
vt 0.072449 0.537598
vt 0.209229 0.413086
vt 0.058899 0.567139
vt 0.060577 0.567627
vt 0.050812 0.598877
vt 0.052551 0.599365
vt 0.046753 0.631592
vt 0.048492 0.631836
vt 0.046753 0.664795
vt 0.049164 0.666016
vt 0.050873 0.697754
vt 0.052582 0.697266
vt 0.060669 0.729248
vt 0.058990 0.729736
vt 0.072571 0.759766
vt 0.070984 0.760498
vt 0.088135 0.788452
vt 0.086670 0.789429
vt 0.108826 0.817749
vt 0.104553 0.816650
vt 0.085388 0.790039
vt 0.127075 0.840698
vt 0.129028 0.838379
vt 0.157104 0.861694
vt 0.151733 0.861084
vt 0.179077 0.878235
vt 0.180664 0.875610
vt 0.212280 0.890076
vt 0.208008 0.891296
vt 0.238647 0.900513
vt 0.239502 0.897583
vt 0.268066 0.902649
vt 0.269531 0.905212
vt 0.301514 0.904724
vt 0.301025 0.905701
vt 0.301758 0.902222
vt 0.332275 0.899048
vt 0.332520 0.900879
vt 0.362793 0.892761
vt 0.362305 0.890991
vt 0.391602 0.880554
vt 0.390869 0.878906
vt 0.418945 0.864502
vt 0.417969 0.862915
vt 0.443604 0.844727
vt 0.442627 0.843262
vt 0.465820 0.821655
vt 0.464600 0.820435
vt 0.484863 0.795654
vt 0.483398 0.794678
vt 0.500488 0.767212
vt 0.499023 0.766357
vt 0.512207 0.736816
vt 0.510742 0.736328
vt 0.520508 0.705078
vt 0.518555 0.704590
vt 0.524414 0.672363
vt 0.522949 0.672119
vt 0.524414 0.639160
vt 0.522949 0.639404
vt 0.520508 0.606201
vt 0.518555 0.606689
vt 0.510742 0.574707
vt 0.512207 0.574219
vt 0.498779 0.544189
vt 0.502930 0.547852
vt 0.483398 0.515625
vt 0.484863 0.514404
vt 0.464355 0.489258
vt 0.465576 0.488281
vt 0.442383 0.465820
vt 0.443604 0.464355
vt 0.417725 0.445312
vt 0.418701 0.443848
vt 0.390625 0.428223
vt 0.391602 0.426758
vt 0.362061 0.415527
vt 0.362549 0.413574
vt 0.332031 0.406250
vt 0.332275 0.404785
vt 0.301025 0.401855
vt 0.301270 0.399902
vt 0.270020 0.401367
vt 0.269775 0.399414
vt 0.237183 0.405762
vt 0.238892 0.403320
vt 0.238159 0.402344
vt 0.539551 0.425781
vt 0.563965 0.447266
vt 0.562988 0.448242
vt 0.539062 0.421387
vt 0.518555 0.399902
vt 0.564941 0.445801
vt 0.521484 0.398438
vt 0.590332 0.466797
vt 0.502930 0.368652
vt 0.591309 0.465332
vt 0.501953 0.372559
vt 0.619141 0.482910
vt 0.489014 0.343262
vt 0.620117 0.481445
vt 0.491699 0.342285
vt 0.649902 0.495605
vt 0.482666 0.312988
vt 0.650391 0.493652
vt 0.479980 0.312988
vt 0.681152 0.501465
vt 0.475098 0.281250
vt 0.681641 0.503906
vt 0.478027 0.280762
vt 0.714844 0.506836
vt 0.477295 0.247070
vt 0.714355 0.508545
vt 0.474854 0.250000
vt 0.747559 0.507324
vt 0.747559 0.509033
vt 0.779785 0.503906
vt 0.780273 0.505615
vt 0.811523 0.496582
vt 0.812012 0.498047
vt 0.841309 0.484863
vt 0.842285 0.486328
vt 0.869629 0.469727
vt 0.870605 0.471191
vt 0.897949 0.449707
vt 0.896973 0.453613
vt 0.871094 0.472656
vt 0.919434 0.432617
vt 0.918457 0.429688
vt 0.939453 0.403809
vt 0.939941 0.407227
vt 0.956055 0.379883
vt 0.954102 0.378418
vt 0.965820 0.349609
vt 0.967773 0.350098
vt 0.968262 0.351074
vt 0.976074 0.319824
vt 0.974121 0.319824
vt 0.979980 0.289062
vt 0.978027 0.288574
vt 0.979492 0.257324
vt 0.977539 0.257812
vt 0.974609 0.226074
vt 0.972656 0.226562
vt 0.965820 0.195801
vt 0.963867 0.196289
vt 0.952637 0.166504
vt 0.950684 0.167480
vt 0.935547 0.139160
vt 0.934082 0.140137
vt 0.915039 0.113770
vt 0.914062 0.114746
vt 0.891602 0.091309
vt 0.890625 0.092285
vt 0.861328 0.068359
vt 0.864258 0.073242
vt 0.836426 0.055664
vt 0.835449 0.057129
vt 0.805664 0.042969
vt 0.805176 0.044434
vt 0.773438 0.036133
vt 0.773438 0.034180
vt 0.740723 0.031250
vt 0.740723 0.029785
vt 0.708008 0.030762
vt 0.708008 0.029297
vt 0.675781 0.034668
vt 0.675293 0.032715
vt 0.644043 0.041992
vt 0.643555 0.040527
vt 0.613770 0.053711
vt 0.613281 0.051758
vt 0.585938 0.068848
vt 0.584961 0.067383
vt 0.560059 0.087402
vt 0.558594 0.085938
vt 0.537109 0.108887
vt 0.535645 0.107910
vt 0.517578 0.133301
vt 0.516113 0.132324
vt 0.501465 0.160156
vt 0.500000 0.159180
vt 0.489502 0.188965
vt 0.487793 0.187988
vt 0.479736 0.218262
vt 0.481445 0.218750
vt 0.478516 0.218750
vn -0.055118 -0.133858 0.992126
vn -0.299213 0.385827 0.874016
vn 0.118110 0.031496 0.992126
vn 0.377953 0.409449 -0.826772
vn 0.433071 0.259842 -0.866142
vn 0.858268 0.196850 -0.472441
vn 0.850394 0.456693 -0.259843
vn 0.952756 0.259843 0.157480
vn 0.897638 0.362205 0.251968
vn 0.771654 0.236221 0.590551
vn 0.913386 0.039370 0.409449
vn 0.543307 0.244095 0.803149
vn 0.566929 -0.818897 -0.007874
vn 0.496063 -0.834646 0.228347
vn -0.629921 -0.149606 0.763779
vn -0.543307 -0.433071 0.724409
vn -0.661417 -0.464567 0.582677
vn -0.803150 -0.354331 0.472441
vn -0.842520 -0.456693 0.275591
vn -0.968504 -0.259842 0.039370
vn -0.889764 -0.338583 -0.307087
vn -0.811024 -0.078740 -0.574803
vn -0.622047 -0.102362 -0.779527
vn -0.385827 0.047244 -0.921260
vn -0.448819 0.196850 -0.874016
vn -0.488189 -0.196850 0.850394
vn 0.574803 0.275591 0.771653
vn -0.094488 -0.307086 0.944882
vn -0.574803 -0.409449 0.708661
vn -0.543307 -0.433071 0.724409
vn -0.409449 0.881890 0.244094
vn -0.409449 0.881890 0.244094
vn -0.409449 0.881890 0.244094
vn -0.409449 0.881890 0.244094
vn -0.409449 0.881890 0.244094
vn -0.401575 0.881890 0.244094
vn -0.204724 0.834646 0.511811
vn -0.338583 0.913386 0.228346
vn -0.062992 0.937008 0.346457
vn -0.401575 0.881890 0.228346
vn -0.409449 0.881890 0.228346
vn -0.433071 0.897638 0.110236
vn -0.409449 0.881890 0.236220
vn -0.622047 -0.212598 0.755905
vn -0.188976 0.708661 0.677165
vn -0.244094 0.724409 0.645669
vn -0.511811 -0.244094 0.826772
vn -0.133858 0.692913 0.708661
vn -0.322835 -0.322834 0.889764
vn -0.070866 0.685039 0.724409
vn -0.307087 -0.944882 0.118110
vn -0.251969 -0.960630 0.141732
vn -0.007874 0.677165 0.740157
vn -0.188976 -0.968504 0.165354
vn -0.086614 -0.314960 0.944882
vn 0.055118 0.669291 0.740157
vn -0.125984 -0.976378 0.173228
vn -0.062992 -0.984252 0.173228
vn 0.141732 0.299213 0.944882
vn 0.000000 -0.984252 0.173228
vn 0.299213 -0.330709 0.897638
vn 0.062992 -0.984252 0.157480
vn 0.173228 0.669291 0.724409
vn 0.118110 -0.984252 0.141732
vn 0.236220 0.669291 0.700787
vn 0.173228 -0.976378 0.110236
vn 0.488189 -0.314961 0.818898
vn 0.291339 0.677165 0.677165
vn 0.228346 -0.968504 0.078740
vn 0.598425 -0.299212 0.748031
vn -0.511811 -0.244094 0.826772
vn -0.354331 -0.929134 0.086614
vn -0.307087 -0.944882 0.118110
vn -0.622047 -0.212598 0.755905
vn -0.401575 -0.913386 0.047244
vn -0.716535 0.149606 0.677165
vn -0.448819 -0.897638 0.000000
vn -0.244094 0.724409 0.645669
vn -0.204724 0.811024 0.551181
vn -0.480315 -0.874016 -0.047244
vn -0.905512 -0.078740 0.417323
vn -0.503937 -0.858268 -0.102362
vn -0.236220 0.858268 0.456693
vn -0.393701 0.795276 0.464567
vn -0.527559 -0.834646 -0.157480
vn -0.708661 0.574803 0.409449
vn -0.535433 -0.811023 -0.220472
vn -0.992126 0.047244 0.078740
vn -0.417323 0.842520 0.346457
vn -0.425197 -0.858268 -0.291338
vn -0.425197 0.858268 0.283464
vn -0.984252 0.110236 -0.118110
vn -0.535433 -0.771653 -0.338583
vn -0.417323 0.881890 0.228346
vn -0.944882 0.165354 -0.283465
vn -0.362205 -0.858268 -0.377953
vn -0.409449 0.897638 0.165354
vn -0.503937 -0.732283 -0.456693
vn -0.385827 0.913386 0.110236
vn -0.858268 0.220472 -0.464567
vn -0.377953 -0.803150 -0.456693
vn -0.354331 0.929134 0.055118
vn -0.748031 0.259842 -0.614173
vn -0.440945 -0.708661 -0.559055
vn -0.322835 0.944882 0.007874
vn -0.307087 -0.787401 -0.535433
vn -0.275591 0.960630 -0.039370
vn -0.346457 -0.685039 -0.645669
vn -0.598425 0.299212 -0.748031
vn -0.228346 0.968504 -0.078740
vn -0.291339 -0.677165 -0.677165
vn -0.488189 0.314961 -0.818898
vn 0.913386 0.267716 -0.299213
vn 0.393701 -0.755905 -0.527559
vn 0.417323 -0.779527 -0.464567
vn 0.874016 0.102362 -0.480315
vn 0.354331 -0.732283 -0.574803
vn 0.787402 0.354331 -0.496063
vn 0.716535 0.181102 -0.677165
vn 0.314961 -0.716535 -0.622047
vn 0.622047 0.212598 -0.755905
vn 0.259843 -0.700787 -0.669291
vn 0.322835 0.937008 -0.149606
vn 0.377953 0.921260 -0.110236
vn 0.456693 0.259842 -0.850394
vn 0.204724 -0.685039 -0.700787
vn 0.259843 0.952756 -0.173228
vn 0.149606 -0.669291 -0.732283
vn 0.196850 0.960630 -0.196850
vn 0.055118 0.314960 -0.944882
vn 0.078740 -0.661417 -0.748031
vn 0.133858 0.968504 -0.204724
vn 0.015748 -0.645669 -0.763779
vn 0.062992 0.976378 -0.212599
vn -0.047244 -0.645669 -0.763779
vn 0.000000 0.976378 -0.204724
vn -0.118110 -0.637795 -0.755905
vn -0.070866 0.976378 -0.196850
vn -0.181102 -0.637795 -0.748031
vn -0.314961 0.322834 -0.889764
vn -0.244094 -0.645669 -0.724409
vn -0.133858 0.976378 -0.173228
vn -0.409449 -0.291339 -0.866142
vn -0.196850 0.968504 -0.141732
vn -0.598425 0.299212 -0.748031
vn -0.251969 0.960630 -0.110236
vn -0.362205 -0.653543 -0.661417
vn -0.417323 -0.669291 -0.614173
vn -0.692913 0.275590 -0.661417
vn -0.464567 -0.677165 -0.566929
vn -0.748031 0.448819 -0.488189
vn -0.858268 0.220472 -0.464567
vn -0.496063 -0.692913 -0.519685
vn -0.881890 0.370079 -0.291339
vn -0.527559 -0.716535 -0.456693
vn 0.527559 0.716535 0.456693
vn 0.960630 -0.149606 0.236220
vn 0.889764 -0.354331 0.291339
vn 0.551181 0.732283 0.401575
vn 0.952756 -0.299213 0.055118
vn 0.566929 0.755905 0.338583
vn 1.000000 -0.070866 -0.007874
vn 0.574803 0.771653 0.275590
vn 0.566929 0.795275 0.204724
vn 0.992126 -0.023622 -0.133858
vn 0.559055 0.818897 0.149606
vn 0.968504 0.015748 -0.251968
vn 0.440945 -0.803150 -0.409449
vn 0.456693 -0.818898 -0.346457
vn 0.417323 -0.779527 -0.464567
vn 0.921260 0.259842 -0.291339
vn 0.496063 0.692913 0.519685
vn 0.527559 0.716535 0.456693
vn 0.889764 -0.354331 0.299213
vn 0.858268 -0.220472 0.464567
vn 0.464567 0.677165 0.566929
vn 0.748031 -0.448819 0.488189
vn 0.692913 -0.275590 0.661417
vn 0.417323 0.669291 0.614173
vn 0.598425 -0.299212 0.748031
vn 0.362205 0.653543 0.661417
vn 0.409449 0.291339 0.866142
vn 0.196850 -0.968504 0.141732
vn 0.251969 -0.960630 0.110236
vn 0.133858 -0.976378 0.173228
vn 0.314961 -0.322834 0.889764
vn 0.244094 0.645669 0.724409
vn 0.070866 -0.976378 0.196850
vn 0.181102 0.637795 0.748031
vn 0.047244 -0.338583 0.937008
vn 0.000000 -0.976378 0.204724
vn 0.118110 0.637795 0.755905
vn 0.047244 0.645669 0.763779
vn -0.062992 -0.976378 0.212599
vn -0.015748 0.645669 0.763779
vn -0.346457 -0.236220 0.905512
vn -0.133858 -0.968504 0.204724
vn -0.078740 0.661417 0.748031
vn -0.196850 -0.960630 0.196850
vn -0.149606 0.669291 0.732283
vn -0.259843 -0.952756 0.173228
vn -0.204724 0.685039 0.700787
vn -0.322835 -0.937008 0.149606
vn -0.259843 0.700787 0.669291
vn -0.622047 -0.212598 0.755905
vn -0.377953 -0.921260 0.110236
vn -0.314961 0.716535 0.622047
vn -0.716535 -0.181102 0.677165
vn -0.354331 0.732283 0.574803
vn -0.787402 -0.354331 0.496063
vn -0.874016 -0.102362 0.480315
vn -0.393701 0.755905 0.527559
vn -0.913386 -0.267716 0.299213
vn -0.417323 0.779527 0.464567
vn 0.354331 0.929134 -0.086614
vn 0.511811 0.244094 -0.826772
vn 0.307087 0.944882 -0.118110
vn 0.622047 0.212598 -0.755905
vn 0.401575 0.913386 -0.047244
vn 0.763780 0.157480 -0.622047
vn 0.244094 -0.724409 -0.645669
vn 0.448819 0.897638 -0.000000
vn 0.188976 -0.818898 -0.543307
vn 0.330709 -0.755905 -0.566929
vn 0.480315 0.874016 0.047244
vn 0.220472 -0.866142 -0.448819
vn 0.874016 0.102362 -0.480315
vn 0.503937 0.858268 0.102362
vn 0.393701 -0.795276 -0.464567
vn 0.952756 0.039370 -0.299213
vn 0.527559 0.834646 0.157480
vn 0.409449 -0.818898 -0.401575
vn 0.417323 -0.842520 -0.346457
vn 0.842520 0.535433 0.070866
vn 0.425197 -0.858268 -0.283464
vn 0.992126 -0.094488 0.062992
vn 0.425197 0.850394 0.307086
vn 0.417323 -0.881890 -0.228346
vn 0.535433 0.771653 0.338583
vn 0.960630 -0.149606 0.236220
vn 0.409449 -0.897638 -0.165354
vn 0.409449 0.834646 0.377953
vn 0.889764 -0.204724 0.401575
vn 0.385827 -0.913386 -0.110236
vn 0.503937 0.732283 0.456693
vn 0.354331 -0.929134 -0.055118
vn 0.401575 0.787401 0.464567
vn 0.755906 -0.251968 0.606299
vn 0.322835 -0.944882 -0.007874
vn 0.440945 0.708661 0.559055
vn 0.322835 0.771653 0.543307
vn 0.275591 -0.960630 0.039370
vn 0.346457 0.685039 0.645669
vn 0.598425 -0.299212 0.748031
vn 0.228346 -0.968504 0.078740
vn 0.291339 0.677165 0.677165
vn 0.488189 -0.314961 0.818898
vn 0.188976 -0.708661 -0.677165
vn 0.622047 0.212598 -0.755905
vn 0.244094 -0.724409 -0.645669
vn 0.511811 0.244094 -0.826772
vn 0.133858 -0.692913 -0.708661
vn 0.322835 0.322834 -0.889764
vn 0.307087 0.944882 -0.118110
vn 0.070866 -0.685039 -0.724409
vn 0.251969 0.960630 -0.141732
vn 0.007874 -0.677165 -0.740157
vn 0.188976 0.968504 -0.165354
vn 0.086614 0.314960 -0.944882
vn -0.055118 -0.669291 -0.740157
vn 0.125984 0.976378 -0.173228
vn 0.062992 0.984252 -0.173228
vn -0.141732 -0.299213 -0.944882
vn 0.000000 0.984252 -0.173228
vn -0.299213 0.330709 -0.897638
vn -0.173228 -0.669291 -0.724409
vn -0.062992 0.984252 -0.157480
vn -0.118110 0.984252 -0.141732
vn -0.236220 -0.669291 -0.700787
vn -0.173228 0.976378 -0.110236
vn -0.488189 0.314961 -0.818898
vn -0.291339 -0.677165 -0.677165
vn -0.228346 0.968504 -0.078740
vn -0.598425 0.299212 -0.748031
vn -0.960630 0.149606 -0.236220
vn -0.527559 -0.716535 -0.456693
vn -0.881890 0.370079 -0.283465
vn -0.551181 -0.732283 -0.401575
vn -0.952756 0.291339 -0.055118
vn -0.566929 -0.755905 -0.338583
vn -1.000000 0.070866 0.007874
vn -0.574803 -0.771653 -0.275590
vn -0.566929 -0.795275 -0.204724
vn -0.992126 0.023622 0.133858
vn -0.559055 -0.818897 -0.149606
vn -0.968504 -0.015748 0.251968
vn -0.440945 0.803150 0.409449
vn -0.456693 0.818898 0.346457
vn -0.417323 0.779527 0.464567
vn -0.921260 -0.259842 0.291339
vn 0.377953 0.401575 -0.834646
vn 0.188976 0.165354 -0.968504
vn 0.370079 0.385827 -0.842520
vn 0.000000 0.244094 -0.968504
vn -0.141732 0.157480 -0.976378
vn -0.149606 0.173228 -0.976378
vn -0.385827 0.047244 -0.921260
vn -0.385827 0.047244 -0.921260
vn 0.346457 -0.897638 -0.275590
vn 0.425197 -0.874016 -0.236220
vn 0.055118 -0.637795 -0.771653
vn 0.401575 -0.889764 -0.196850
vn 0.417323 -0.889764 -0.188976
vn 0.409449 -0.897638 -0.188976
vn 0.409449 -0.889764 -0.188976
vn 0.433071 -0.889764 -0.149606
vn -0.543307 -0.433071 0.724409
vn 0.417323 -0.889764 -0.188976
vn 0.417323 -0.889764 -0.188976
vn 0.417323 -0.889764 -0.188976
vn 0.417323 -0.889764 -0.188976
vn 0.417323 -0.889764 -0.188976
vn 0.157480 -0.275591 -0.944882
vn -0.763780 0.480315 -0.433071
vn -0.590551 -0.519685 -0.622047
vn -0.496063 0.850394 -0.173228
vn -0.519685 0.834646 -0.157480
vn -0.496063 0.850394 -0.173228
vn -0.503937 0.842520 -0.157480
vn -0.496063 0.850394 -0.173228
vn -0.496063 0.850394 -0.173228
vn 0.503937 0.645669 0.574803
vn 0.086614 0.110236 0.992126
vn -0.228346 0.259843 0.937008
vn 0.543307 -0.818897 0.188976
vn 0.496063 -0.850394 0.173228
vn 0.496063 -0.850394 0.173228
vn 0.551181 -0.818897 0.149606
vn 0.496063 -0.850394 0.173228
vn 0.496063 -0.850394 0.173228
vn 0.614173 0.653543 -0.448819
vn -0.015748 0.267716 -0.960630
vn 0.118110 -0.118110 -0.984252
vn 0.874016 0.204724 -0.433071
vn 0.732283 0.307087 0.606299
vn 0.385827 0.779527 0.496063
vn -0.629921 -0.653543 0.417323
vn -0.220472 -0.889764 -0.409449
vn -0.669291 -0.385827 -0.637795
vn -0.937008 -0.244094 0.251969
vn -0.637795 0.023622 0.771653
vn -0.228346 0.236221 0.944882
vn 0.007874 -0.314960 0.944882
vn 0.716535 0.181102 -0.677165
vn 0.377953 0.921260 -0.110236
vn 0.622047 0.212598 -0.755905
vn -0.039370 0.913386 0.401575
vn 0.779528 0.448819 -0.433071
vn -0.244094 0.724409 0.645669
vn -0.362205 0.732283 0.582677
vn 0.322835 0.937008 -0.149606
vn -0.062992 0.921260 0.377953
vn -0.188976 0.708661 0.677165
vn 0.874016 0.102362 -0.480315
vn 0.259843 0.952756 -0.173228
vn 0.905512 0.338583 -0.244095
vn -0.133858 0.692913 0.708661
vn -0.393701 0.795276 0.464567
vn 0.196850 0.960630 -0.196850
vn -0.070866 0.685039 0.724409
vn 0.133858 0.968504 -0.204724
vn -0.007874 0.677165 0.740157
vn 0.062992 0.976378 -0.212599
vn 0.055118 0.669291 0.740157
vn 0.000000 0.976378 -0.204724
vn 0.141732 0.480315 0.866142
vn -0.070866 0.976378 -0.196850
vn 0.173228 0.669291 0.724409
vn 0.236220 0.669291 0.700787
vn -0.133858 0.976378 -0.173228
vn 0.291339 0.677165 0.677165
vn -0.196850 0.968504 -0.141732
vn 0.346457 0.685039 0.645669
vn -0.251969 0.960630 -0.110236
vn 0.165354 0.905512 0.393701
vn -0.692913 0.275590 -0.661417
vn -0.598425 0.299212 -0.748031
vn -0.740157 0.511811 -0.433071
vn 0.440945 0.708661 0.559055
vn 0.220472 0.897638 0.385827
vn -0.858268 0.220472 -0.464567
vn -0.874016 0.425197 -0.236220
vn 0.503937 0.732283 0.456693
vn 0.275591 0.889764 0.354331
vn -0.960630 0.149606 -0.236220
vn -0.937008 0.346457 -0.007874
vn 0.535433 0.771653 0.338583
vn 0.291339 0.905512 0.291338
vn -1.000000 0.070866 0.007874
vn -0.456693 0.818898 0.346457
vn -0.992126 0.023622 0.133858
vn 0.724409 0.669291 0.141732
vn 0.527559 0.834646 0.157480
vn -0.440945 0.803150 0.409449
vn -0.417323 0.779527 0.464567
vn 0.503937 0.858268 0.102362
vn -0.393701 0.755905 0.527559
vn 0.480315 0.874016 0.047244
vn -0.354331 0.732283 0.574803
vn 0.448819 0.897638 -0.000000
vn -0.314961 0.716535 0.622047
vn 0.401575 0.913386 -0.047244
vn -0.259843 0.700787 0.669291
vn 0.354331 0.929134 -0.086614
vn -0.204724 0.685039 0.700787
vn 0.307087 0.944882 -0.118110
vn -0.149606 0.669291 0.732283
vn 0.251969 0.960630 -0.141732
vn -0.078740 0.661417 0.748031
vn 0.188976 0.968504 -0.165354
vn -0.015748 0.645669 0.763779
vn 0.125984 0.976378 -0.173228
vn 0.047244 0.645669 0.763779
vn 0.062992 0.984252 -0.173228
vn 0.118110 0.637795 0.755905
vn 0.000000 0.984252 -0.173228
vn 0.181102 0.637795 0.748031
vn -0.062992 0.984252 -0.157480
vn -0.118110 0.984252 -0.141732
vn 0.244094 0.645669 0.724409
vn -0.173228 0.976378 -0.110236
vn 0.370079 0.511811 0.779527
vn -0.228346 0.968504 -0.078740
vn 0.362205 0.653543 0.661417
vn -0.275591 0.960630 -0.039370
vn 0.417323 0.669291 0.614173
vn -0.322835 0.944882 0.007874
vn 0.464567 0.677165 0.566929
vn -0.354331 0.929134 0.055118
vn 0.496063 0.692913 0.519685
vn -0.385827 0.913386 0.110236
vn 0.527559 0.716535 0.456693
vn -0.409449 0.897638 0.165354
vn 0.551181 0.732283 0.401575
vn -0.417323 0.881890 0.228346
vn 0.566929 0.755905 0.338583
vn -0.425197 0.858268 0.283464
vn 0.574803 0.771653 0.275590
vn -0.417323 0.842520 0.346457
vn 0.566929 0.795275 0.204724
vn -0.566929 0.716535 0.409449
vn 0.559055 0.818897 0.149606
vn 0.968504 0.015748 -0.251968
vn 0.692913 -0.275590 0.661417
vn 0.251969 -0.960630 0.110236
vn 0.598425 -0.299212 0.748031
vn -0.173228 -0.897638 -0.401575
vn 0.740157 -0.511811 0.433071
vn -0.346457 -0.685039 -0.645669
vn -0.440945 -0.708661 -0.559055
vn 0.196850 -0.968504 0.141732
vn -0.259843 -0.881890 -0.401575
vn -0.291339 -0.677165 -0.677165
vn 0.858268 -0.220472 0.464567
vn 0.133858 -0.976378 0.173228
vn 0.874016 -0.409449 0.244095
vn -0.236220 -0.669291 -0.700787
vn -0.503937 -0.732283 -0.456693
vn 0.070866 -0.976378 0.196850
vn -0.220472 -0.921260 -0.330709
vn -0.173228 -0.669291 -0.724409
vn 0.960630 -0.149606 0.236220
vn -0.141732 -0.480315 -0.866142
vn 0.937008 -0.354331 0.007874
vn 0.000000 -0.976378 0.204724
vn -0.535433 -0.771653 -0.338583
vn -0.055118 -0.669291 -0.740157
vn -0.291339 -0.905512 -0.299212
vn -0.062992 -0.976378 0.212599
vn 1.000000 -0.070866 -0.007874
vn 0.007874 -0.677165 -0.740157
vn -0.133858 -0.968504 0.204724
vn 0.070866 -0.685039 -0.724409
vn -0.196850 -0.960630 0.196850
vn 0.133858 -0.692913 -0.708661
vn -0.259843 -0.952756 0.173228
vn 0.188976 -0.708661 -0.677165
vn -0.322835 -0.937008 0.149606
vn 0.244094 -0.724409 -0.645669
vn -0.377953 -0.921260 0.110236
vn 0.047244 -0.913386 -0.401575
vn -0.716535 -0.181102 0.677165
vn -0.622047 -0.212598 0.755905
vn -0.779528 -0.448819 0.433071
vn 0.330709 -0.755905 -0.566929
vn 0.102362 -0.913386 -0.393701
vn -0.874016 -0.102362 0.480315
vn -0.905512 -0.346457 0.236220
vn 0.393701 -0.795276 -0.464567
vn 0.409449 -0.818898 -0.401575
vn -0.559055 -0.818897 -0.149606
vn -0.968504 -0.015748 0.251968
vn -0.566929 -0.795275 -0.204724
vn 0.417323 -0.842520 -0.346457
vn -0.574803 -0.771653 -0.275590
vn 0.425197 -0.858268 -0.283464
vn -0.566929 -0.755905 -0.338583
vn 0.417323 -0.881890 -0.228346
vn -0.551181 -0.732283 -0.401575
vn 0.409449 -0.897638 -0.165354
vn -0.527559 -0.716535 -0.456693
vn 0.385827 -0.913386 -0.110236
vn -0.496063 -0.692913 -0.519685
vn 0.354331 -0.929134 -0.055118
vn -0.464567 -0.677165 -0.566929
vn 0.322835 -0.944882 -0.007874
vn -0.417323 -0.669291 -0.614173
vn 0.275591 -0.960630 0.039370
vn -0.362205 -0.653543 -0.661417
vn 0.228346 -0.968504 0.078740
vn -0.370079 -0.511811 -0.779527
vn 0.173228 -0.976378 0.110236
vn -0.244094 -0.645669 -0.724409
vn 0.118110 -0.984252 0.141732
vn -0.181102 -0.637795 -0.748031
vn 0.062992 -0.984252 0.157480
vn 0.000000 -0.984252 0.173228
vn -0.118110 -0.637795 -0.755905
vn -0.062992 -0.984252 0.173228
vn -0.047244 -0.645669 -0.763779
vn -0.125984 -0.976378 0.173228
vn 0.015748 -0.645669 -0.763779
vn -0.188976 -0.968504 0.165354
vn 0.078740 -0.661417 -0.748031
vn -0.251969 -0.960630 0.141732
vn 0.149606 -0.669291 -0.732283
vn -0.307087 -0.944882 0.118110
vn 0.204724 -0.685039 -0.700787
vn -0.354331 -0.929134 0.086614
vn 0.259843 -0.700787 -0.669291
vn -0.401575 -0.913386 0.047244
vn 0.314961 -0.716535 -0.622047
vn -0.448819 -0.897638 0.000000
vn 0.354331 -0.732283 -0.574803
vn -0.480315 -0.874016 -0.047244
vn 0.393701 -0.755905 -0.527559
vn -0.503937 -0.858268 -0.102362
vn 0.417323 -0.779527 -0.464567
vn -0.527559 -0.834646 -0.157480
vn 0.440945 -0.803150 -0.409449
vn 0.456693 -0.818898 -0.346457
vn -0.535433 -0.811023 -0.220472
vn 0.992126 -0.023622 -0.133858
tan -0.531217 0.843698 0.084320 1.000000
tan -0.199578 0.853370 -0.445037 1.000000
tan -0.531217 0.835886 0.036704 1.000000
tan -0.774754 -0.279373 -0.492529 1.000000
tan -0.814310 0.361461 -0.298717 1.000000
tan -0.509331 0.394011 -0.761113 1.000000
tan -0.427925 0.348751 -0.787526 1.000000
tan 0.037448 0.388865 -0.868188 1.000000
tan 0.118296 0.298840 -0.851014 1.000000
tan 0.571951 0.079360 -0.779093 1.000000
tan 0.402195 0.077376 -0.904644 1.000000
tan 0.800670 0.092628 -0.569781 1.000000
tan 0.263191 0.190402 -0.852130 1.000000
tan 0.227044 -0.086552 -0.809598 1.000000
tan -0.759997 0.179056 -0.591729 1.000000
tan -0.598921 -0.410689 -0.694711 1.000000
tan -0.530473 -0.197656 -0.759749 1.000000
tan -0.526381 0.139128 -0.790501 1.000000
tan -0.250418 -0.055118 -0.856904 1.000000
tan -0.016554 -0.083576 -0.958832 1.000000
tan 0.296423 0.030442 -0.892430 1.000000
tan 0.581003 -0.086490 -0.807923 1.000000
tan 0.778722 0.041726 -0.626883 1.000000
tan 0.921260 0.050778 -0.383223 1.000000
tan 0.767686 -0.419989 -0.488809 1.000000
tan 0.733958 0.431521 0.521235 1.000000
tan 0.771654 0.060760 -0.596503 1.000000
tan 0.840722 0.431521 0.224316 1.000000
tan 0.717713 0.114452 0.648273 1.000000
tan 0.741273 0.154008 0.648025 1.000000
tan -0.722177 -0.475603 0.506913 1.000000
tan -0.729121 -0.474983 0.493025 1.000000
tan -0.736066 -0.474363 0.479137 1.000000
tan -0.736066 -0.478207 0.493025 1.000000
tan -0.743010 -0.477587 0.479137 1.000000
tan -0.819394 -0.461529 0.319425 1.000000
tan -0.541881 -0.527931 0.644181 1.000000
tan -0.805506 -0.406473 0.431521 1.000000
tan -0.852006 -0.212040 0.418563 1.000000
tan -0.749954 -0.461963 0.465249 1.000000
tan -0.635253 -0.453035 0.610577 1.000000
tan -0.663525 -0.395189 0.611259 1.000000
tan -0.736066 -0.473805 0.493025 1.000000
tan 0.739724 0.143902 0.649203 1.000000
tan 0.961002 0.007440 0.260401 1.000000
tan 0.944758 0.033914 0.319115 1.000000
tan 0.839482 0.024800 0.527001 1.000000
tan 0.982578 -0.009796 0.195176 1.000000
tan 0.897390 -0.014632 0.320293 1.000000
tan 0.990204 -0.017546 0.113460 1.000000
tan 0.932792 -0.281791 0.170934 1.000000
tan 0.955298 -0.229896 0.140120 1.000000
tan 1.004526 -0.006820 0.016926 1.000000
tan 0.963482 -0.167958 0.117366 1.000000
tan 0.947362 -0.000682 0.086614 1.000000
tan 0.989708 0.014074 -0.086428 1.000000
tan 0.977742 -0.112344 0.077872 1.000000
tan 0.985616 -0.056172 0.039246 1.000000
tan 0.959018 0.045384 -0.158224 1.000000
tan 0.985616 0.000000 0.000000 1.000000
tan 0.902846 -0.002356 -0.301817 1.000000
tan 0.985492 0.056792 -0.039246 1.000000
tan 0.959948 0.040300 -0.266786 1.000000
tan 0.985368 0.108066 -0.070680 1.000000
tan 0.940790 0.025978 -0.341931 1.000000
tan 0.969558 0.161448 -0.093620 1.000000
tan 0.855602 0.141360 -0.455701 1.000000
tan 0.917106 0.011470 -0.406039 1.000000
tan 0.961498 0.216628 -0.123814 1.000000
tan 0.781016 0.366359 -0.478269 1.000000
tan -0.130448 0.931242 0.194184 1.000000
tan -0.766136 0.341373 0.527807 1.000000
tan -0.719821 0.310807 0.614917 1.000000
tan -0.129270 0.963296 0.164548 1.000000
tan -0.825594 0.383719 0.401017 1.000000
tan 0.136648 0.931738 -0.061256 1.000000
tan -0.855230 0.427615 0.279186 1.000000
tan 0.273917 0.686961 -0.667183 1.000000
tan 0.204600 0.582181 -0.780643 1.000000
tan -0.862112 0.464567 0.170314 1.000000
tan -0.078740 0.915370 0.001860 1.000000
tan -0.863104 0.496683 0.084630 1.000000
tan 0.429785 0.514477 -0.744560 1.000000
tan 0.640337 0.600657 -0.485585 1.000000
tan -0.843326 0.531279 0.009362 1.000000
tan 0.575423 0.774877 -0.091884 1.000000
tan -0.816790 0.557257 -0.066278 1.000000
tan 0.047244 0.992126 -0.000000 1.000000
tan 0.795276 0.518135 -0.302065 1.000000
tan -0.844876 0.479385 -0.179180 1.000000
tan 0.837870 0.482113 -0.202926 1.000000
tan 0.110236 0.984252 -0.000000 1.000000
tan -0.750449 0.612561 -0.209312 1.000000
tan 0.883936 0.446401 -0.108562 1.000000
tan 0.165354 0.944882 -0.000000 1.000000
tan -0.725277 0.507657 -0.457747 1.000000
tan 0.902846 0.412053 -0.001240 1.000000
tan -0.639965 0.672329 -0.371877 1.000000
tan 0.909666 0.370637 0.112840 1.000000
tan 0.220658 0.928886 0.033170 1.000000
tan -0.539277 0.592225 -0.595201 1.000000
tan 0.901172 0.329717 0.235166 1.000000
tan 0.249054 0.926096 0.088474 1.000000
tan -0.471635 0.714489 -0.533697 1.000000
tan 0.870606 0.294377 0.369645 1.000000
tan -0.285449 0.608097 -0.730547 1.000000
tan 0.816604 0.255441 0.516523 1.000000
tan -0.273855 0.728129 -0.625581 1.000000
tan 0.149606 0.941224 0.256804 1.000000
tan 0.761981 0.228160 0.596627 1.000000
tan -0.223944 0.730051 -0.633703 1.000000
tan 0.079360 0.916114 0.305040 1.000000
tan 0.226548 0.222829 0.890942 1.000000
tan 0.873086 0.184202 0.387625 1.000000
tan 0.860686 0.246575 0.359415 1.000000
tan 0.428607 0.285573 0.840784 1.000000
tan 0.876558 0.091698 0.423523 1.000000
tan 0.514477 0.001178 0.817472 1.000000
tan 0.666129 0.123876 0.737987 1.000000
tan 0.892058 0.015128 0.434249 1.000000
tan 0.773390 -0.044764 0.623845 1.000000
tan 0.906442 -0.057970 0.412611 1.000000
tan 0.933164 -0.303801 0.110918 1.000000
tan 0.917478 -0.360221 0.135222 1.000000
tan 0.858578 -0.067952 0.440325 1.000000
tan 0.922872 -0.100502 0.367847 1.000000
tan 0.949346 -0.242792 0.088660 1.000000
tan 0.949780 -0.121582 0.305165 1.000000
tan 0.963730 -0.186000 0.056048 1.000000
tan 0.944882 -0.081840 0.027838 1.000000
tan 0.966024 -0.128030 0.214892 1.000000
tan 0.971728 -0.129022 0.024986 1.000000
tan 0.973030 -0.118110 0.119908 1.000000
tan 0.978052 -0.066340 -0.014880 1.000000
tan 0.979974 -0.096348 0.020832 1.000000
tan 0.977990 -0.011284 -0.053816 1.000000
tan 0.980222 -0.079236 -0.086304 1.000000
tan 0.970240 0.051708 -0.092814 1.000000
tan 0.971728 -0.067518 -0.177692 1.000000
tan 0.894848 -0.058094 -0.337839 1.000000
tan 0.959266 -0.069936 -0.260896 1.000000
tan 0.970054 0.110980 -0.124062 1.000000
tan 0.891438 0.002604 -0.422283 1.000000
tan 0.961994 0.174096 -0.146444 1.000000
tan 0.771592 -0.035340 -0.631409 1.000000
tan 0.947238 0.228904 -0.170376 1.000000
tan 0.916610 -0.130200 -0.373303 1.000000
tan 0.890632 -0.187798 -0.400521 1.000000
tan 0.629735 -0.193936 -0.740529 1.000000
tan 0.867134 -0.263935 -0.395313 1.000000
tan 0.487569 -0.061256 -0.803397 1.000000
tan 0.360655 -0.349123 -0.831979 1.000000
tan 0.849774 -0.340195 -0.357555 1.000000
tan 0.144770 -0.314713 -0.837994 1.000000
tan 0.835328 -0.401079 -0.335669 1.000000
tan 0.753612 -0.637051 0.128960 1.000000
tan -0.066960 -0.913262 -0.306094 1.000000
tan -0.231074 -0.836010 -0.311054 1.000000
tan 0.773018 -0.621179 0.071734 1.000000
tan -0.264927 -0.900242 -0.307582 1.000000
tan 0.797322 -0.597991 0.000000 1.000000
tan -0.069936 -0.952756 -0.307086 1.000000
tan 0.804638 -0.574617 -0.069316 1.000000
tan 0.814806 -0.547957 -0.127782 1.000000
tan -0.064666 -0.945254 -0.312480 1.000000
tan 0.821316 -0.530225 -0.166842 1.000000
tan -0.068448 -0.919090 -0.320541 1.000000
tan -0.823238 -0.532953 0.158844 1.000000
tan -0.837746 -0.508649 0.097960 1.000000
tan -0.786348 -0.557133 0.228470 1.000000
tan 0.120342 -0.839172 -0.367909 1.000000
tan -0.551057 0.714799 -0.427057 1.000000
tan -0.613987 0.691487 -0.375659 1.000000
tan 0.342551 0.887408 0.032240 1.000000
tan 0.198710 0.928886 0.073718 1.000000
tan -0.452477 0.730919 -0.502263 1.000000
tan 0.422531 0.809287 0.096596 1.000000
tan 0.174902 0.961002 0.217186 1.000000
tan -0.355757 0.740529 -0.565255 1.000000
tan 0.131936 0.941224 0.270940 1.000000
tan -0.262695 0.748589 -0.595821 1.000000
tan -0.020584 0.885486 -0.288115 1.000000
tan 0.578461 0.231633 0.779403 1.000000
tan 0.657201 0.252465 0.697873 1.000000
tan 0.430529 0.214520 0.876434 1.000000
tan 0.005084 0.894724 0.322834 1.000000
tan -0.128340 0.757207 -0.631657 1.000000
tan 0.261393 0.208073 0.937938 1.000000
tan -0.075330 0.763531 -0.632773 1.000000
tan 0.000000 0.937008 0.338583 1.000000
tan 0.092256 0.203112 0.968690 1.000000
tan -0.034224 0.763345 -0.638725 1.000000
tan -0.003224 0.764895 -0.646413 1.000000
tan -0.076880 0.217559 0.976378 1.000000
tan 0.033294 0.764151 -0.645297 1.000000
tan -0.007130 0.905512 0.233492 1.000000
tan -0.234794 0.230951 0.939054 1.000000
tan 0.070432 0.753611 -0.658937 1.000000
tan -0.399343 0.261951 0.878976 1.000000
tan 0.113150 0.745365 -0.658131 1.000000
tan -0.544919 0.291215 0.784301 1.000000
tan 0.167958 0.724533 -0.659185 1.000000
tan -0.669043 0.334987 0.654349 1.000000
tan 0.235538 0.716597 -0.658875 1.000000
tan -0.085932 0.964350 0.200508 1.000000
tan -0.729183 0.367413 0.570463 1.000000
tan 0.321285 0.692169 -0.634633 1.000000
tan -0.104904 0.978858 0.150784 1.000000
tan 0.416765 0.672949 -0.600409 1.000000
tan -0.335917 0.831980 0.061070 1.000000
tan -0.089404 0.943456 0.038378 1.000000
tan 0.531403 0.656085 -0.543493 1.000000
tan -0.265361 0.908674 0.002976 1.000000
tan 0.608717 0.619443 -0.492591 1.000000
tan -0.633765 0.306157 0.691549 1.000000
tan 0.124620 0.902102 0.343481 1.000000
tan -0.570091 0.280117 0.758695 1.000000
tan 0.144336 0.911154 0.375039 1.000000
tan -0.716969 0.345217 0.579949 1.000000
tan 0.261827 0.750325 0.511439 1.000000
tan 0.382417 0.682683 -0.621365 1.000000
tan -0.777482 0.388741 0.473557 1.000000
tan 0.305165 0.577531 -0.764337 1.000000
tan 0.578833 0.635749 -0.510013 1.000000
tan -0.808916 0.424267 0.375039 1.000000
tan 0.590303 0.479757 -0.635873 1.000000
tan 0.088040 0.877736 0.347263 1.000000
tan -0.833344 0.455887 0.280178 1.000000
tan 0.767190 0.552049 -0.294873 1.000000
tan 0.071796 0.885238 0.345093 1.000000
tan -0.831050 0.487817 0.198586 1.000000
tan 0.830802 0.503937 -0.180544 1.000000
tan 0.867444 0.457127 -0.066774 1.000000
tan -0.539835 0.829252 0.152582 1.000000
tan 0.878294 0.421849 0.040176 1.000000
tan 0.070680 0.945254 0.304668 1.000000
tan -0.860066 0.432451 -0.006696 1.000000
tan 0.892926 0.385269 0.143964 1.000000
tan -0.810156 0.569657 -0.017112 1.000000
tan 0.065100 0.913262 0.313659 1.000000
tan 0.879782 0.354889 0.251968 1.000000
tan -0.819642 0.494513 -0.204104 1.000000
tan 0.030504 0.829190 0.355137 1.000000
tan 0.853866 0.317689 0.356253 1.000000
tan -0.744374 0.632897 -0.193440 1.000000
tan 0.806498 0.279559 0.472069 1.000000
tan -0.664207 0.592721 -0.430467 1.000000
tan -0.139748 0.783805 0.499969 1.000000
tan 0.744188 0.249365 0.587947 1.000000
tan -0.605803 0.693595 -0.401389 1.000000
tan -0.392027 0.629921 -0.661727 1.000000
tan 0.657449 0.217310 0.700229 1.000000
tan -0.389113 0.727633 -0.563209 1.000000
tan -0.081282 0.897638 0.424081 1.000000
tan 0.601835 0.204042 0.764399 1.000000
tan -0.319921 0.732407 -0.594767 1.000000
tan -0.085312 0.887842 0.392337 1.000000
tan 0.209808 0.698989 -0.672949 1.000000
tan 0.024552 0.948602 0.286998 1.000000
tan 0.252340 0.688201 -0.676731 1.000000
tan 0.023126 0.923182 0.286874 1.000000
tan 0.148304 0.717527 -0.673569 1.000000
tan 0.050964 0.894848 0.343171 1.000000
tan -0.577531 0.282535 0.758695 1.000000
tan 0.104656 0.725401 -0.675739 1.000000
tan -0.489429 0.250605 0.828445 1.000000
tan 0.061628 0.740467 -0.676793 1.000000
tan -0.326617 0.218922 0.908984 1.000000
tan 0.052080 0.944882 0.319734 1.000000
tan 0.029140 0.740157 -0.671461 1.000000
tan -0.160084 0.191332 0.961994 1.000000
tan 0.007750 0.172732 0.984252 1.000000
tan 0.052080 0.944882 -0.307025 1.000000
tan 0.178250 0.170500 0.968752 1.000000
tan 0.068820 0.902350 0.309504 1.000000
tan -0.051398 0.736437 -0.668113 1.000000
tan 0.341001 0.169384 0.922252 1.000000
tan 0.496001 0.181164 0.844752 1.000000
tan -0.099634 0.728811 -0.662471 1.000000
tan 0.638105 0.196540 0.738049 1.000000
tan 0.161696 0.917354 0.256432 1.000000
tan -0.138632 0.727695 -0.668051 1.000000
tan 0.700973 0.219356 0.665261 1.000000
tan 0.230888 0.938868 0.190836 1.000000
tan -0.144026 -0.966210 -0.026226 1.000000
tan 0.650939 -0.686527 0.325191 1.000000
tan -0.370079 -0.879658 0.002914 1.000000
tan 0.688387 -0.663525 0.265113 1.000000
tan -0.290905 -0.952322 -0.005208 1.000000
tan 0.741521 -0.641453 0.190464 1.000000
tan -0.070990 -1.000000 -0.015748 1.000000
tan 0.770786 -0.617645 0.121768 1.000000
tan 0.800298 -0.585033 0.056420 1.000000
tan -0.023622 -0.992126 0.000000 1.000000
tan 0.824788 -0.567301 0.023126 1.000000
tan 0.015748 -0.972472 -0.000248 1.000000
tan -0.715109 -0.584785 0.376961 1.000000
tan -0.764337 -0.558993 0.313721 1.000000
tan -0.660177 -0.613553 0.436481 1.000000
tan 0.264431 -0.916672 0.018600 1.000000
tan -0.629673 0.608097 0.007440 1.000000
tan -0.587203 0.770227 0.016926 1.000000
tan -0.631037 0.616653 0.005208 1.000000
tan -0.640585 0.724471 0.182590 1.000000
tan -0.676545 0.707297 0.212288 1.000000
tan -0.676545 0.699609 0.227788 1.000000
tan -0.754045 0.532581 0.343109 1.000000
tan -0.754045 0.532581 0.343109 1.000000
tan -0.798128 -0.433567 0.408829 1.000000
tan -0.798314 -0.485089 0.357865 1.000000
tan -0.554343 -0.660983 0.506727 1.000000
tan -0.798686 -0.448819 0.399343 1.000000
tan -0.728625 -0.448881 0.504433 1.000000
tan -0.763346 -0.447889 0.473557 1.000000
tan -0.770662 -0.449873 0.448385 1.000000
tan -0.742638 -0.443921 0.490421 1.000000
tan -0.436109 0.864158 0.189534 1.000000
tan -0.692107 -0.444355 0.563767 1.000000
tan -0.728625 -0.450369 0.511439 1.000000
tan -0.728625 -0.450369 0.511439 1.000000
tan -0.728625 -0.450369 0.511439 1.000000
tan -0.728625 -0.451857 0.518445 1.000000
tan 0.653791 0.688201 -0.091760 1.000000
tan 0.610081 0.734391 -0.261455 1.000000
tan 0.367351 0.504495 -0.770227 1.000000
tan 0.765949 0.522847 0.373303 1.000000
tan 0.829314 0.535433 0.101060 1.000000
tan 0.823610 0.524087 0.214272 1.000000
tan 0.822618 0.524273 0.172484 1.000000
tan 0.830306 0.523901 0.194184 1.000000
tan 0.823610 0.524087 0.214272 1.000000
tan 0.491537 -0.762167 0.425197 1.000000
tan 0.679645 -0.726517 0.021390 1.000000
tan 0.730423 -0.590241 0.341683 1.000000
tan 0.493025 0.173352 -0.666253 1.000000
tan 0.766074 0.370265 -0.376093 1.000000
tan 0.778102 0.383533 -0.345403 1.000000
tan 0.745055 0.435489 -0.361213 1.000000
tan 0.791494 0.398165 -0.311923 1.000000
tan 0.803522 0.411433 -0.281233 1.000000
tan -0.403497 0.680389 0.438589 1.000000
tan 0.733709 0.620249 0.160828 1.000000
tan 0.984252 0.031000 0.114390 1.000000
tan 0.225308 0.529853 0.705189 1.000000
tan -0.675181 0.447393 0.588877 1.000000
tan -0.735445 0.085064 0.438341 1.000000
tan -0.747659 0.650877 -0.109244 1.000000
tan -0.458615 0.464257 -0.761919 1.000000
tan 0.309877 0.582367 -0.677475 1.000000
tan -0.349743 0.639903 -0.680699 1.000000
tan -0.751565 0.220348 -0.627937 1.000000
tan -0.305041 0.892802 -0.296919 1.000000
tan -0.414161 0.848038 0.286130 1.000000
tan 0.657139 -0.508215 0.559427 1.000000
tan 0.915742 -0.385393 -0.081096 1.000000
tan 0.742141 -0.430157 0.489739 1.000000
tan 0.927460 0.092504 -0.119474 1.000000
tan 0.600161 -0.692231 0.362887 1.000000
tan 0.926902 0.372063 -0.067022 1.000000
tan 0.832848 0.511501 -0.125116 1.000000
tan 0.916052 -0.345837 -0.189286 1.000000
tan 0.931862 0.104160 -0.098580 1.000000
tan 0.940170 0.325005 -0.077748 1.000000
tan 0.335855 -0.800669 0.440511 1.000000
tan 0.932978 -0.289169 -0.190960 1.000000
tan 0.371691 -0.891252 0.142600 1.000000
tan 0.954678 0.274785 -0.088350 1.000000
tan 0.870048 0.447703 -0.029078 1.000000
tan 0.948602 -0.230950 -0.178436 1.000000
tan 0.967698 0.198648 -0.093186 1.000000
tan 0.956476 -0.163990 -0.150412 1.000000
tan 0.987538 0.121334 -0.100502 1.000000
tan 0.970364 -0.089280 -0.122512 1.000000
tan 0.989708 0.037386 -0.107508 1.000000
tan 0.977990 -0.016120 -0.076880 1.000000
tan 0.931180 -0.021204 -0.140616 1.000000
tan 0.977928 0.063116 -0.038998 1.000000
tan 0.981028 -0.136276 -0.108686 1.000000
tan 0.961374 -0.216938 -0.116870 1.000000
tan 0.977742 0.133858 -0.001054 1.000000
tan 0.954430 -0.288735 -0.121892 1.000000
tan 0.969620 0.200198 0.021328 1.000000
tan 0.930250 -0.348689 -0.129208 1.000000
tan 0.961498 0.248496 -0.032240 1.000000
tan 0.935582 -0.157852 -0.029884 1.000000
tan 0.704817 0.430529 -0.558993 1.000000
tan 0.784550 0.338087 -0.492405 1.000000
tan 0.660301 0.632835 -0.380619 1.000000
tan 0.884680 -0.446091 -0.132308 1.000000
tan 0.928018 -0.211358 -0.038564 1.000000
tan 0.462769 0.706181 -0.519809 1.000000
tan 0.473185 0.844628 -0.230455 1.000000
tan 0.835762 -0.497737 -0.124124 1.000000
tan 0.906504 -0.258850 -0.055056 1.000000
tan 0.198152 0.941658 -0.209437 1.000000
tan 0.346333 0.936946 0.012028 1.000000
tan 0.820076 -0.520119 -0.111476 1.000000
tan 0.910100 -0.275281 -0.054498 1.000000
tan 0.070742 0.976378 0.196850 1.000000
tan 0.852378 0.476781 -0.003348 1.000000
tan 0.064666 0.945254 0.312480 1.000000
tan 0.678219 -0.721061 -0.061442 1.000000
tan 0.840474 -0.509765 -0.113832 1.000000
tan 0.861554 0.475665 -0.005208 1.000000
tan 0.859756 0.467109 -0.011470 1.000000
tan 0.857152 -0.488685 -0.122388 1.000000
tan 0.866700 0.466551 -0.021700 1.000000
tan 0.868622 -0.470209 -0.132122 1.000000
tan 0.881146 0.452787 -0.033666 1.000000
tan 0.883502 -0.441751 -0.148428 1.000000
tan 0.900242 0.434249 -0.044392 1.000000
tan 0.898630 -0.403435 -0.161386 1.000000
tan 0.919462 0.394631 -0.056234 1.000000
tan 0.914502 -0.364437 -0.168268 1.000000
tan 0.938434 0.348317 -0.066340 1.000000
tan 0.930932 -0.324571 -0.176142 1.000000
tan 0.953562 0.292517 -0.072540 1.000000
tan 0.946618 -0.274785 -0.179552 1.000000
tan 0.964660 0.214830 -0.088412 1.000000
tan 0.954554 -0.214644 -0.166284 1.000000
tan 0.973030 0.134478 -0.093620 1.000000
tan 0.970054 -0.150908 -0.145080 1.000000
tan 0.985988 0.041974 -0.096472 1.000000
tan 0.977866 -0.082956 -0.115754 1.000000
tan 0.980222 -0.049476 -0.111414 1.000000
tan 0.985616 -0.013640 -0.077500 1.000000
tan 0.970860 -0.139624 -0.116002 1.000000
tan 0.985492 0.055552 -0.046996 1.000000
tan 0.985368 0.115878 -0.016430 1.000000
tan 0.963110 -0.224006 -0.124868 1.000000
tan 0.977246 0.174964 0.014012 1.000000
tan 0.881456 -0.267097 -0.243102 1.000000
tan 0.969124 0.230826 0.028706 1.000000
tan 0.916176 -0.363693 -0.142352 1.000000
tan 0.960630 0.277140 0.037820 1.000000
tan 0.894538 -0.420485 -0.149606 1.000000
tan 0.944882 0.322525 0.037200 1.000000
tan 0.866018 -0.466489 -0.152458 1.000000
tan 0.929568 0.352595 0.032054 1.000000
tan 0.842954 -0.494389 -0.145452 1.000000
tan 0.915990 0.384091 0.023498 1.000000
tan 0.829624 -0.523095 -0.137640 1.000000
tan 0.904148 0.409449 0.016120 1.000000
tan 0.814124 -0.538967 -0.134602 1.000000
tan 0.894476 0.422717 0.002170 1.000000
tan 0.810032 -0.553537 -0.120528 1.000000
tan 0.876062 0.435241 -0.003720 1.000000
tan 0.805072 -0.557071 -0.119350 1.000000
tan 0.879534 0.441317 -0.013764 1.000000
tan 0.814806 -0.549569 -0.121520 1.000000
tan 0.753612 0.599913 -0.006386 1.000000
tan 0.829500 -0.553165 -0.071858 1.000000
tan 0.043400 -0.964846 0.106516 1.000000
tan 0.571145 -0.333065 -0.737119 1.000000
tan 0.063116 -0.094364 -0.966582 1.000000
tan 0.609027 -0.442929 -0.664393 1.000000
tan 0.022134 0.401575 -0.907186 1.000000
tan 0.380061 -0.198214 -0.883812 1.000000
tan 0.067146 0.660797 -0.737119 1.000000
tan 0.042470 0.597681 -0.791122 1.000000
tan 0.032736 -0.135532 -0.971604 1.000000
tan 0.003844 0.409759 -0.902350 1.000000
tan 0.074648 0.687147 -0.719263 1.000000
tan 0.424267 -0.175956 -0.867320 1.000000
tan 0.032116 -0.169012 -0.977432 1.000000
tan 0.248621 -0.018910 -0.921942 1.000000
tan 0.073222 0.700911 -0.694091 1.000000
tan 0.014818 0.515593 -0.843078 1.000000
tan 0.030752 -0.194618 -0.976378 1.000000
tan -0.006138 0.335917 -0.931676 1.000000
tan 0.069750 0.722797 -0.684481 1.000000
tan 0.224440 -0.079360 -0.962986 1.000000
tan 0.078058 0.860438 -0.489925 1.000000
tan 0.049662 0.110112 -0.954740 1.000000
tan 0.046128 -0.204724 -0.976378 1.000000
tan -0.000806 0.394693 -0.898258 1.000000
tan 0.062992 0.739289 -0.673197 1.000000
tan -0.021514 0.310682 -0.919276 1.000000
tan 0.053816 -0.216071 -0.976378 1.000000
tan -0.004526 0.047244 -1.000000 1.000000
tan 0.055800 0.740467 -0.676855 1.000000
tan 0.067022 -0.214211 -0.969558 1.000000
tan 0.054560 0.728873 -0.683923 1.000000
tan 0.080104 -0.212351 -0.956166 1.000000
tan 0.059892 0.715729 -0.688511 1.000000
tan 0.093434 -0.198462 -0.951392 1.000000
tan 0.062372 0.694153 -0.709033 1.000000
tan 0.103602 -0.186558 -0.944882 1.000000
tan 0.083576 0.673941 -0.724533 1.000000
tan 0.071982 -0.142104 -0.940790 1.000000
tan 0.076818 0.402877 -0.907310 1.000000
tan -0.598859 -0.333003 -0.722735 1.000000
tan -0.636493 -0.427429 -0.643995 1.000000
tan -0.324633 -0.278257 -0.872714 1.000000
tan 0.119040 0.624589 -0.763345 1.000000
tan 0.105772 0.403497 -0.908612 1.000000
tan -0.447207 -0.216071 -0.859818 1.000000
tan -0.177940 -0.164920 -0.923988 1.000000
tan 0.166904 0.554219 -0.807304 1.000000
tan 0.194432 0.501953 -0.825346 1.000000
tan 0.092256 0.110546 -0.949842 1.000000
tan -0.245396 -0.162130 -0.953376 1.000000
tan 0.022444 0.225928 -0.939798 1.000000
tan 0.205716 0.452229 -0.851944 1.000000
tan 0.009114 0.324136 -0.926592 1.000000
tan 0.207576 0.390601 -0.871288 1.000000
tan 0.002356 0.404799 -0.907682 1.000000
tan 0.197036 0.324508 -0.893174 1.000000
tan 0.008184 0.473309 -0.874326 1.000000
tan 0.175212 0.248496 -0.915122 1.000000
tan 0.016678 0.525699 -0.844070 1.000000
tan 0.143220 0.172298 -0.926344 1.000000
tan 0.038192 0.576229 -0.804762 1.000000
tan 0.114018 0.099324 -0.941348 1.000000
tan 0.055924 0.610887 -0.775497 1.000000
tan 0.088970 0.038316 -0.950152 1.000000
tan 0.069130 0.647591 -0.752681 1.000000
tan 0.061442 -0.022010 -0.967140 1.000000
tan 0.079050 0.683365 -0.718519 1.000000
tan 0.046996 -0.067952 -0.972100 1.000000
tan 0.141546 0.778597 -0.578399 1.000000
tan 0.039308 -0.103416 -0.977742 1.000000
tan 0.084196 0.726455 -0.675863 1.000000
tan 0.039866 -0.137082 -0.985182 1.000000
tan 0.074152 0.747845 -0.655589 1.000000
tan 0.038750 -0.155000 -0.984252 1.000000
tan 0.046500 -0.173228 -0.984252 1.000000
tan 0.072354 0.750883 -0.644863 1.000000
tan 0.062000 -0.177196 -0.984252 1.000000
tan 0.064294 0.763035 -0.649017 1.000000
tan 0.067828 -0.182156 -0.977370 1.000000
tan 0.061504 0.764399 -0.644925 1.000000
tan 0.082584 -0.181722 -0.969992 1.000000
tan 0.053444 0.752991 -0.660177 1.000000
tan 0.094984 -0.166408 -0.959018 1.000000
tan 0.057474 0.740653 -0.665199 1.000000
tan 0.099510 -0.151032 -0.949532 1.000000
tan 0.064232 0.721061 -0.686093 1.000000
tan 0.104966 -0.127782 -0.941348 1.000000
tan 0.073718 0.701717 -0.706119 1.000000
tan 0.096596 -0.091140 -0.940976 1.000000
tan 0.092814 0.671833 -0.726889 1.000000
tan 0.091884 -0.045942 -0.940046 1.000000
tan 0.121148 0.641453 -0.742513 1.000000
tan 0.076632 0.008680 -0.939674 1.000000
tan 0.143654 0.614235 -0.772893 1.000000
tan 0.055552 0.080104 -0.945130 1.000000
tan 0.176018 0.566743 -0.792858 1.000000
tan 0.033108 0.156674 -0.941286 1.000000
tan 0.201128 0.526257 -0.815674 1.000000
tan 0.069936 0.411061 -0.879410 1.000000
tan 0.019530 0.239568 -0.928700 1.000000
tan -0.130014 0.117180 -0.984314 1.000000
f 3/3/3 2/2/2 1/1/1
f 6/6/6 5/5/5 4/4/4
f 6/6/6 4/4/4 7/7/7
f 8/8/8 6/6/6 7/7/7
f 7/7/7 9/9/9 8/8/8
f 9/9/9 10/10/10 8/8/8
f 11/11/11 8/8/8 10/10/10
f 12/12/12 11/11/11 10/10/10
f 12/12/12 13/13/13 11/11/11
f 13/13/13 12/12/12 14/14/14
f 17/17/17 16/16/16 15/15/15
f 17/17/17 15/15/15 18/18/18
f 19/19/19 17/17/17 18/18/18
f 18/18/18 20/20/20 19/19/19
f 21/21/21 19/19/19 20/20/20
f 22/22/22 21/21/21 20/20/20
f 22/22/22 23/23/23 21/21/21
f 22/22/22 24/24/24 23/23/23
f 25/25/25 24/24/24 22/22/22
f 28/28/28 27/27/27 26/26/26
f 28/28/28 26/26/26 29/29/29
f 30/30/30 28/28/28 29/29/29
f 33/33/33 32/32/32 31/31/31
f 32/32/32 33/33/33 34/34/34
f 33/33/33 35/35/35 34/34/34
f 37/37/37 36/36/36 35/35/35
f 34/34/34 35/35/35 36/36/36
f 36/36/36 39/39/39 38/38/38
f 38/38/38 40/40/40 36/36/36
f 36/36/36 40/40/40 34/34/34
f 40/40/40 41/41/41 34/34/34
f 42/42/42 34/34/34 41/41/41
f 43/43/43 34/34/34 42/42/42
f 46/46/46 45/45/45 44/44/44
f 47/47/47 44/44/44 45/45/45
f 45/45/45 48/48/48 47/47/47
f 49/49/49 47/47/47 48/48/48
f 48/48/48 50/50/50 49/49/49
f 47/47/47 49/49/49 51/51/51
f 49/49/49 52/52/52 51/51/51
f 50/50/50 53/53/53 49/49/49
f 49/49/49 54/54/54 52/52/52
f 55/55/55 49/49/49 53/53/53
f 49/49/49 55/55/55 54/54/54
f 53/53/53 56/56/56 55/55/55
f 55/55/55 57/57/57 54/54/54
f 55/55/55 58/58/58 57/57/57
f 55/55/55 56/56/56 59/59/59
f 55/55/55 59/59/59 58/58/58
f 59/59/59 60/60/60 58/58/58
f 59/59/59 61/61/61 60/60/60
f 61/61/61 62/62/62 60/60/60
f 63/63/63 61/61/61 59/59/59
f 62/62/62 61/61/61 64/64/64
f 65/65/65 61/61/61 63/63/63
f 64/64/64 61/61/61 66/66/66
f 61/61/61 65/65/65 67/67/67
f 67/67/67 66/66/66 61/61/61
f 68/68/68 67/67/67 65/65/65
f 66/66/66 67/67/67 69/69/69
f 70/70/70 69/69/69 67/67/67
f 73/73/73 72/72/72 71/71/71
f 74/74/74 71/71/71 72/72/72
f 72/72/72 75/75/75 74/74/74
f 76/76/76 74/74/74 75/75/75
f 75/75/75 77/77/77 76/76/76
f 74/74/74 76/76/76 78/78/78
f 79/79/79 78/78/78 76/76/76
f 77/77/77 80/80/80 76/76/76
f 81/81/81 76/76/76 80/80/80
f 80/80/80 82/82/82 81/81/81
f 81/81/81 83/83/83 76/76/76
f 83/83/83 81/81/81 84/84/84
f 82/82/82 85/85/85 81/81/81
f 84/84/84 81/81/81 86/86/86
f 86/86/86 81/81/81 85/85/85
f 85/85/85 87/87/87 86/86/86
f 88/88/88 86/86/86 87/87/87
f 88/88/88 89/89/89 86/86/86
f 87/87/87 90/90/90 88/88/88
f 89/89/89 88/88/88 91/91/91
f 88/88/88 90/90/90 92/92/92
f 88/88/88 92/92/92 91/91/91
f 93/93/93 92/92/92 90/90/90
f 94/94/94 91/91/91 92/92/92
f 92/92/92 93/93/93 95/95/95
f 92/92/92 95/95/95 94/94/94
f 96/96/96 95/95/95 93/93/93
f 97/97/97 94/94/94 95/95/95
f 98/98/98 95/95/95 96/96/96
f 99/99/99 97/97/97 95/95/95
f 95/95/95 98/98/98 100/100/100
f 95/95/95 100/100/100 99/99/99
f 101/101/101 100/100/100 98/98/98
f 102/102/102 99/99/99 100/100/100
f 100/100/100 101/101/101 103/103/103
f 100/100/100 103/103/103 102/102/102
f 104/104/104 103/103/103 101/101/101
f 105/105/105 102/102/102 103/103/103
f 104/104/104 106/106/106 103/103/103
f 103/103/103 107/107/107 105/105/105
f 106/106/106 108/108/108 103/103/103
f 107/107/107 103/103/103 109/109/109
f 109/109/109 103/103/103 108/108/108
f 109/109/109 110/110/110 107/107/107
f 108/108/108 111/111/111 109/109/109
f 112/112/112 109/109/109 111/111/111
f 115/115/115 114/114/114 113/113/113
f 114/114/114 116/116/116 113/113/113
f 114/114/114 117/117/117 116/116/116
f 117/117/117 118/118/118 116/116/116
f 118/118/118 117/117/117 119/119/119
f 120/120/120 119/119/119 117/117/117
f 119/119/119 120/120/120 121/121/121
f 122/122/122 121/121/121 120/120/120
f 124/124/124 121/121/121 123/123/123
f 121/121/121 122/122/122 125/125/125
f 125/125/125 123/123/123 121/121/121
f 126/126/126 125/125/125 122/122/122
f 123/123/123 125/125/125 127/127/127
f 128/128/128 125/125/125 126/126/126
f 127/127/127 125/125/125 129/129/129
f 125/125/125 128/128/128 130/130/130
f 130/130/130 129/129/129 125/125/125
f 131/131/131 130/130/130 128/128/128
f 129/129/129 130/130/130 132/132/132
f 133/133/133 130/130/130 131/131/131
f 132/132/132 130/130/130 134/134/134
f 135/135/135 130/130/130 133/133/133
f 134/134/134 130/130/130 136/136/136
f 135/135/135 137/137/137 130/130/130
f 136/136/136 130/130/130 138/138/138
f 137/137/137 139/139/139 130/130/130
f 140/140/140 138/138/138 130/130/130
f 139/139/139 140/140/140 130/130/130
f 139/139/139 141/141/141 140/140/140
f 142/142/142 138/138/138 140/140/140
f 141/141/141 143/143/143 140/140/140
f 140/140/140 143/143/143 142/142/142
f 144/144/144 142/142/142 143/143/143
f 143/143/143 145/145/145 144/144/144
f 146/146/146 144/144/144 145/145/145
f 147/147/147 145/145/145 143/143/143
f 147/147/147 148/148/148 145/145/145
f 148/148/148 149/149/149 145/145/145
f 149/149/149 148/148/148 150/150/150
f 150/150/150 151/151/151 149/149/149
f 151/151/151 150/150/150 152/152/152
f 153/153/153 152/152/152 150/150/150
f 152/152/152 153/153/153 154/154/154
f 155/155/155 154/154/154 153/153/153
f 158/158/158 157/157/157 156/156/156
f 157/157/157 159/159/159 156/156/156
f 157/157/157 160/160/160 159/159/159
f 161/161/161 159/159/159 160/160/160
f 160/160/160 162/162/162 161/161/161
f 163/163/163 161/161/161 162/162/162
f 163/163/163 162/162/162 164/164/164
f 165/165/165 164/164/164 162/162/162
f 164/164/164 165/165/165 166/166/166
f 167/167/167 166/166/166 165/165/165
f 169/169/169 168/168/168 165/165/165
f 168/168/168 167/167/167 165/165/165
f 168/168/168 170/170/170 167/167/167
f 170/170/170 171/171/171 167/167/167
f 174/174/174 173/173/173 172/172/172
f 175/175/175 174/174/174 172/172/172
f 175/175/175 172/172/172 176/176/176
f 177/177/177 175/175/175 176/176/176
f 177/177/177 176/176/176 178/178/178
f 179/179/179 178/178/178 176/176/176
f 178/178/178 179/179/179 180/180/180
f 181/181/181 180/180/180 179/179/179
f 180/180/180 181/181/181 182/182/182
f 184/184/184 180/180/180 183/183/183
f 182/182/182 183/183/183 180/180/180
f 183/183/183 182/182/182 185/185/185
f 186/186/186 185/185/185 182/182/182
f 187/187/187 186/186/186 182/182/182
f 185/185/185 186/186/186 188/188/188
f 189/189/189 186/186/186 187/187/187
f 186/186/186 190/190/190 188/188/188
f 186/186/186 189/189/189 190/190/190
f 191/191/191 188/188/188 190/190/190
f 192/192/192 190/190/190 189/189/189
f 193/193/193 190/190/190 192/192/192
f 194/194/194 191/191/191 190/190/190
f 190/190/190 193/193/193 195/195/195
f 194/194/194 190/190/190 196/196/196
f 196/196/196 190/190/190 195/195/195
f 196/196/196 197/197/197 194/194/194
f 196/196/196 195/195/195 198/198/198
f 196/196/196 199/199/199 197/197/197
f 196/196/196 198/198/198 200/200/200
f 196/196/196 201/201/201 199/199/199
f 196/196/196 200/200/200 202/202/202
f 196/196/196 203/203/203 201/201/201
f 196/196/196 202/202/202 204/204/204
f 203/203/203 196/196/196 205/205/205
f 204/204/204 205/205/205 196/196/196
f 205/205/205 206/206/206 203/203/203
f 205/205/205 204/204/204 207/207/207
f 207/207/207 208/208/208 205/205/205
f 208/208/208 207/207/207 209/209/209
f 209/209/209 210/210/210 208/208/208
f 210/210/210 209/209/209 211/211/211
f 212/212/212 211/211/211 209/209/209
f 211/211/211 212/212/212 213/213/213
f 214/214/214 213/213/213 212/212/212
f 217/217/217 216/216/216 215/215/215
f 218/218/218 215/215/215 216/216/216
f 215/215/215 218/218/218 219/219/219
f 220/220/220 219/219/219 218/218/218
f 218/218/218 221/221/221 220/220/220
f 219/219/219 220/220/220 222/222/222
f 223/223/223 220/220/220 221/221/221
f 224/224/224 220/220/220 223/223/223
f 222/222/222 220/220/220 225/225/225
f 220/220/220 224/224/224 226/226/226
f 227/227/227 225/225/225 220/220/220
f 226/226/226 227/227/227 220/220/220
f 225/225/225 227/227/227 228/228/228
f 227/227/227 226/226/226 229/229/229
f 230/230/230 228/228/228 227/227/227
f 229/229/229 230/230/230 227/227/227
f 228/228/228 230/230/230 231/231/231
f 230/230/230 229/229/229 232/232/232
f 230/230/230 232/232/232 233/233/233
f 231/231/231 230/230/230 234/234/234
f 233/233/233 234/234/234 230/230/230
f 234/234/234 233/233/233 235/235/235
f 235/235/235 236/236/236 234/234/234
f 236/236/236 237/237/237 234/234/234
f 238/238/238 236/236/236 235/235/235
f 236/236/236 239/239/239 237/237/237
f 236/236/236 238/238/238 240/240/240
f 239/239/239 236/236/236 240/240/240
f 241/241/241 240/240/240 238/238/238
f 240/240/240 242/242/242 239/239/239
f 240/240/240 241/241/241 243/243/243
f 242/242/242 240/240/240 243/243/243
f 244/244/244 243/243/243 241/241/241
f 243/243/243 245/245/245 242/242/242
f 246/246/246 243/243/243 244/244/244
f 243/243/243 247/247/247 245/245/245
f 243/243/243 246/246/246 248/248/248
f 247/247/247 243/243/243 248/248/248
f 249/249/249 248/248/248 246/246/246
f 248/248/248 250/250/250 247/247/247
f 250/250/250 248/248/248 251/251/251
f 252/252/252 248/248/248 249/249/249
f 251/251/251 248/248/248 253/253/253
f 248/248/248 252/252/252 254/254/254
f 254/254/254 253/253/253 248/248/248
f 255/255/255 254/254/254 252/252/252
f 253/253/253 254/254/254 256/256/256
f 257/257/257 256/256/256 254/254/254
f 260/260/260 259/259/259 258/258/258
f 261/261/261 258/258/258 259/259/259
f 258/258/258 261/261/261 262/262/262
f 263/263/263 262/262/262 261/261/261
f 261/261/261 264/264/264 263/263/263
f 262/262/262 263/263/263 265/265/265
f 266/266/266 263/263/263 264/264/264
f 265/265/265 263/263/263 267/267/267
f 268/268/268 263/263/263 266/266/266
f 269/269/269 267/267/267 263/263/263
f 263/263/263 268/268/268 269/269/269
f 267/267/267 269/269/269 270/270/270
f 271/271/271 269/269/269 268/268/268
f 272/272/272 269/269/269 271/271/271
f 270/270/270 269/269/269 273/273/273
f 269/269/269 272/272/272 273/273/273
f 274/274/274 273/273/273 272/272/272
f 273/273/273 274/274/274 275/275/275
f 276/276/276 273/273/273 275/275/275
f 277/277/277 275/275/275 274/274/274
f 275/275/275 277/277/277 278/278/278
f 279/279/279 276/276/276 275/275/275
f 275/275/275 278/278/278 280/280/280
f 275/275/275 281/281/281 279/279/279
f 280/280/280 281/281/281 275/275/275
f 282/282/282 279/279/279 281/281/281
f 281/281/281 280/280/280 283/283/283
f 283/283/283 284/284/284 281/281/281
f 287/287/287 286/286/286 285/285/285
f 288/288/288 285/285/285 286/286/286
f 285/285/285 288/288/288 289/289/289
f 290/290/290 289/289/289 288/288/288
f 289/289/289 290/290/290 291/291/291
f 292/292/292 291/291/291 290/290/290
f 291/291/291 292/292/292 293/293/293
f 293/293/293 294/294/294 291/291/291
f 294/294/294 293/293/293 295/295/295
f 295/295/295 296/296/296 294/294/294
f 298/298/298 294/294/294 297/297/297
f 296/296/296 297/297/297 294/294/294
f 297/297/297 296/296/296 299/299/299
f 300/300/300 299/299/299 296/296/296
f 303/303/303 302/302/302 301/301/301
f 304/304/304 301/301/301 302/302/302
f 302/302/302 305/305/305 304/304/304
f 306/306/306 304/304/304 305/305/305
f 306/306/306 305/305/305 307/307/307
f 307/307/307 305/305/305 308/308/308
f 311/311/311 310/310/310 309/309/309
f 309/309/309 310/310/310 312/312/312
f 310/310/310 313/313/313 312/312/312
f 312/312/312 313/313/313 314/314/314
f 315/315/315 314/314/314 313/313/313
f 317/317/317 315/315/315 316/316/316
f 315/315/315 318/318/318 316/316/316
f 313/313/313 318/318/318 315/315/315
f 318/318/318 320/320/320 319/319/319
f 320/320/320 318/318/318 313/313/313
f 321/321/321 320/320/320 313/313/313
f 322/322/322 321/321/321 313/313/313
f 325/325/325 324/324/324 323/323/323
f 326/326/326 323/323/323 324/324/324
f 324/324/324 327/327/327 326/326/326
f 328/328/328 326/326/326 327/327/327
f 329/329/329 328/328/328 327/327/327
f 328/328/328 329/329/329 330/330/330
f 330/330/330 329/329/329 331/331/331
f 334/334/334 333/333/333 332/332/332
f 335/335/335 332/332/332 333/333/333
f 336/336/336 335/335/335 333/333/333
f 336/336/336 337/337/337 335/335/335
f 335/335/335 337/337/337 338/338/338
f 337/337/337 339/339/339 338/338/338
f 339/339/339 340/340/340 338/338/338
f 343/343/343 342/342/342 341/341/341
f 343/343/343 341/341/341 344/344/344
f 344/344/344 341/341/341 345/345/345
f 346/346/346 345/345/345 341/341/341
f 349/349/349 348/348/348 347/347/347
f 347/347/347 350/350/350 349/349/349
f 350/350/350 347/347/347 351/351/351
f 351/351/351 347/347/347 352/352/352
f 353/353/353 352/352/352 347/347/347
f 356/356/356 355/355/355 354/354/354
f 357/357/357 354/354/354 355/355/355
f 354/354/354 357/357/357 358/358/358
f 355/355/355 359/359/359 357/357/357
f 360/360/360 358/358/358 357/357/357
f 359/359/359 355/355/355 361/361/361
f 358/358/358 360/360/360 362/362/362
f 361/361/361 363/363/363 359/359/359
f 362/362/362 364/364/364 358/358/358
f 363/363/363 361/361/361 365/365/365
f 364/364/364 362/362/362 366/366/366
f 365/365/365 367/367/367 363/363/363
f 366/366/366 362/362/362 368/368/368
f 367/367/367 365/365/365 369/369/369
f 369/369/369 370/370/370 367/367/367
f 370/370/370 369/369/369 371/371/371
f 371/371/371 372/372/372 370/370/370
f 371/371/371 373/373/373 372/372/372
f 373/373/373 374/374/374 372/372/372
f 373/373/373 375/375/375 374/374/374
f 375/375/375 376/376/376 374/374/374
f 375/375/375 377/377/377 376/376/376
f 378/378/378 376/376/376 377/377/377
f 378/378/378 377/377/377 379/379/379
f 380/380/380 379/379/379 377/377/377
f 379/379/379 380/380/380 381/381/381
f 382/382/382 381/381/381 380/380/380
f 381/381/381 382/382/382 383/383/383
f 384/384/384 383/383/383 382/382/382
f 383/383/383 384/384/384 385/385/385
f 387/387/387 386/386/386 384/384/384
f 385/385/385 384/384/384 386/386/386
f 386/386/386 388/388/388 385/385/385
f 388/388/388 389/389/389 385/385/385
f 389/389/389 388/388/388 390/390/390
f 391/391/391 390/390/390 388/388/388
f 390/390/390 391/391/391 392/392/392
f 392/392/392 393/393/393 390/390/390
f 393/393/393 392/392/392 394/394/394
f 395/395/395 394/394/394 392/392/392
f 394/394/394 395/395/395 396/396/396
f 396/396/396 397/397/397 394/394/394
f 397/397/397 396/396/396 398/398/398
f 399/399/399 398/398/398 396/396/396
f 398/398/398 399/399/399 400/400/400
f 401/401/401 400/400/400 399/399/399
f 400/400/400 402/402/402 398/398/398
f 402/402/402 400/400/400 403/403/403
f 404/404/404 403/403/403 400/400/400
f 403/403/403 404/404/404 405/405/405
f 405/405/405 406/406/406 403/403/403
f 405/405/405 407/407/407 406/406/406
f 407/407/407 408/408/408 406/406/406
f 407/407/407 409/409/409 408/408/408
f 409/409/409 410/410/410 408/408/408
f 409/409/409 411/411/411 410/410/410
f 411/411/411 412/412/412 410/410/410
f 411/411/411 413/413/413 412/412/412
f 414/414/414 412/412/412 413/413/413
f 413/413/413 415/415/415 414/414/414
f 416/416/416 414/414/414 415/415/415
f 415/415/415 417/417/417 416/416/416
f 418/418/418 416/416/416 417/417/417
f 417/417/417 419/419/419 418/418/418
f 420/420/420 418/418/418 419/419/419
f 419/419/419 421/421/421 420/420/420
f 422/422/422 420/420/420 421/421/421
f 421/421/421 423/423/423 422/422/422
f 424/424/424 422/422/422 423/423/423
f 424/424/424 423/423/423 425/425/425
f 425/425/425 426/426/426 424/424/424
f 426/426/426 425/425/425 427/427/427
f 427/427/427 428/428/428 426/426/426
f 428/428/428 427/427/427 429/429/429
f 430/430/430 429/429/429 427/427/427
f 429/429/429 430/430/430 431/431/431
f 432/432/432 431/431/431 430/430/430
f 431/431/431 432/432/432 433/433/433
f 434/434/434 433/433/433 432/432/432
f 433/433/433 434/434/434 435/435/435
f 436/436/436 435/435/435 434/434/434
f 435/435/435 436/436/436 437/437/437
f 438/438/438 437/437/437 436/436/436
f 437/437/437 438/438/438 439/439/439
f 440/440/440 439/439/439 438/438/438
f 439/439/439 440/440/440 441/441/441
f 442/442/442 441/441/441 440/440/440
f 441/441/441 442/442/442 443/443/443
f 444/444/444 443/443/443 442/442/442
f 443/443/443 444/444/444 445/445/445
f 446/446/446 445/445/445 444/444/444
f 445/445/445 446/446/446 447/447/447
f 448/448/448 447/447/447 446/446/446
f 447/447/447 448/448/448 449/449/449
f 450/450/450 449/449/449 448/448/448
f 449/449/449 450/450/450 451/451/451
f 452/452/452 451/451/451 450/450/450
f 452/452/452 366/366/366 451/451/451
f 368/368/368 451/451/451 366/366/366
f 452/452/452 453/453/453 366/366/366
f 456/456/456 455/455/455 454/454/454
f 457/457/457 454/454/454 455/455/455
f 454/454/454 457/457/457 458/458/458
f 459/459/459 457/457/457 455/455/455
f 460/460/460 458/458/458 457/457/457
f 455/455/455 461/461/461 459/459/459
f 460/460/460 462/462/462 458/458/458
f 463/463/463 459/459/459 461/461/461
f 462/462/462 464/464/464 458/458/458
f 461/461/461 465/465/465 463/463/463
f 464/464/464 462/462/462 466/466/466
f 467/467/467 463/463/463 465/465/465
f 468/468/468 466/466/466 462/462/462
f 465/465/465 469/469/469 467/467/467
f 468/468/468 470/470/470 466/466/466
f 471/471/471 467/467/467 469/469/469
f 470/470/470 472/472/472 466/466/466
f 471/471/471 469/469/469 473/473/473
f 472/472/472 470/470/470 474/474/474
f 475/475/475 473/473/473 469/469/469
f 476/476/476 474/474/474 470/470/470
f 473/473/473 475/475/475 477/477/477
f 474/474/474 476/476/476 478/478/478
f 479/479/479 477/477/477 475/475/475
f 478/478/478 480/480/480 474/474/474
f 477/477/477 479/479/479 481/481/481
f 482/482/482 481/481/481 479/479/479
f 481/481/481 482/482/482 483/483/483
f 484/484/484 483/483/483 482/482/482
f 483/483/483 484/484/484 485/485/485
f 486/486/486 485/485/485 484/484/484
f 485/485/485 486/486/486 487/487/487
f 488/488/488 487/487/487 486/486/486
f 487/487/487 488/488/488 489/489/489
f 490/490/490 489/489/489 488/488/488
f 489/489/489 490/490/490 491/491/491
f 490/490/490 493/493/493 492/492/492
f 492/492/492 491/491/491 490/490/490
f 491/491/491 492/492/492 494/494/494
f 494/494/494 495/495/495 491/491/491
f 495/495/495 494/494/494 496/496/496
f 497/497/497 496/496/496 494/494/494
f 496/496/496 497/497/497 498/498/498
f 498/498/498 499/499/499 496/496/496
f 499/499/499 498/498/498 500/500/500
f 502/502/502 501/501/501 498/498/498
f 501/501/501 500/500/500 498/498/498
f 501/501/501 503/503/503 500/500/500
f 504/504/504 500/500/500 503/503/503
f 503/503/503 505/505/505 504/504/504
f 506/506/506 504/504/504 505/505/505
f 505/505/505 507/507/507 506/506/506
f 508/508/508 506/506/506 507/507/507
f 507/507/507 509/509/509 508/508/508
f 510/510/510 508/508/508 509/509/509
f 509/509/509 511/511/511 510/510/510
f 512/512/512 510/510/510 511/511/511
f 511/511/511 513/513/513 512/512/512
f 514/514/514 512/512/512 513/513/513
f 514/514/514 513/513/513 515/515/515
f 515/515/515 516/516/516 514/514/514
f 516/516/516 515/515/515 517/517/517
f 517/517/517 518/518/518 516/516/516
f 518/518/518 517/517/517 519/519/519
f 519/519/519 520/520/520 518/518/518
f 520/520/520 519/519/519 521/521/521
f 521/521/521 522/522/522 520/520/520
f 522/522/522 521/521/521 523/523/523
f 523/523/523 524/524/524 522/522/522
f 524/524/524 523/523/523 525/525/525
f 525/525/525 526/526/526 524/524/524
f 526/526/526 525/525/525 527/527/527
f 528/528/528 527/527/527 525/525/525
f 527/527/527 528/528/528 529/529/529
f 530/530/530 529/529/529 528/528/528
f 529/529/529 530/530/530 531/531/531
f 532/532/532 531/531/531 530/530/530
f 531/531/531 532/532/532 533/533/533
f 534/534/534 533/533/533 532/532/532
f 533/533/533 534/534/534 535/535/535
f 536/536/536 535/535/535 534/534/534
f 535/535/535 536/536/536 537/537/537
f 538/538/538 537/537/537 536/536/536
f 537/537/537 538/538/538 539/539/539
f 540/540/540 539/539/539 538/538/538
f 539/539/539 540/540/540 541/541/541
f 542/542/542 541/541/541 540/540/540
f 541/541/541 542/542/542 543/543/543
f 544/544/544 543/543/543 542/542/542
f 543/543/543 544/544/544 545/545/545
f 546/546/546 545/545/545 544/544/544
f 545/545/545 546/546/546 547/547/547
f 548/548/548 547/547/547 546/546/546
f 547/547/547 548/548/548 549/549/549
f 550/550/550 549/549/549 548/548/548
f 549/549/549 550/550/550 551/551/551
f 551/551/551 552/552/552 549/549/549
f 552/552/552 551/551/551 478/478/478
f 478/478/478 551/551/551 480/480/480
f 553/553/553 480/480/480 551/551/551
