mtllib SM_Bar_Door_Holder_01_LOD1.mtl
g SM_Bar_Door_Holder_01_LOD1
#Vertices 319
#Indices 1077
#Section 0 Offset 0 NumIndices 144 MaterialIndex 1 MI_Metal_Rusty_02
#Section 1 Offset 144 NumIndices 798 MaterialIndex 0 MI_Metal_Rusty_01
#Section 2 Offset 942 NumIndices 135 MaterialIndex 2 MI_Walls_Plastic_02
v 0.017576 0.859520 0.032972
v 0.000258 0.000000 0.033036
v 0.000301 0.857525 0.032984
v 0.017471 0.000000 0.033036
v 0.019509 0.857506 0.030983
v 0.019471 0.000000 0.031035
v 0.019471 0.000000 0.013822
v 0.019508 0.857510 0.013769
v 0.017471 0.000000 0.011822
v 0.017520 0.857516 0.011771
v 0.000258 0.000000 0.011822
v 0.000302 0.857530 0.011770
v -0.001679 0.859540 0.013705
v -0.001742 0.000000 0.013822
v -0.001703 0.859404 0.031046
v -0.001742 0.000000 0.031036
v 0.000258 0.000000 0.033036
v 0.000301 0.857525 0.032984
v 0.017576 0.859520 -0.011972
v 0.000258 -0.000000 -0.011908
v 0.000301 0.857525 -0.011960
v 0.017471 -0.000000 -0.011908
v 0.019509 0.857506 -0.013961
v 0.019471 -0.000000 -0.013908
v 0.019471 -0.000000 -0.031121
v 0.019507 0.857510 -0.031175
v 0.017471 -0.000000 -0.033122
v 0.017520 0.857516 -0.033173
v 0.000258 -0.000000 -0.033122
v 0.000302 0.857530 -0.033174
v -0.001679 0.859540 -0.031238
v -0.001743 -0.000000 -0.031121
v -0.001703 0.859404 -0.013898
v -0.001742 -0.000000 -0.013908
v 0.000258 -0.000000 -0.011908
v 0.000301 0.857525 -0.011960
v 0.017576 0.859520 0.032972
v 0.000301 0.857525 0.032984
v -0.001703 0.859404 0.031046
v 0.016083 0.860216 0.015200
v -0.001679 0.859540 0.013705
v 0.019509 0.857506 0.030983
v 0.000302 0.857530 0.011770
v 0.019508 0.857510 0.013769
v 0.017520 0.857516 0.011771
v 0.017576 0.859520 -0.011972
v 0.000301 0.857525 -0.011960
v -0.001703 0.859404 -0.013898
v 0.016083 0.860216 -0.029744
v -0.001679 0.859540 -0.031238
v 0.019509 0.857506 -0.013961
v 0.000302 0.857530 -0.033174
v 0.019507 0.857510 -0.031175
v 0.017520 0.857516 -0.033173
v 0.054211 0.785707 -0.014605
v 0.054211 0.831432 -0.014605
v 0.049391 0.825312 -0.012101
v 0.049391 0.791827 -0.012101
v 0.030151 0.791827 -0.012101
v 0.030151 0.825312 -0.012101
v 0.027092 0.825312 -0.015161
v 0.027092 0.791827 -0.015161
v 0.027092 0.791827 -0.034145
v 0.027092 0.825312 -0.034145
v 0.024031 0.825312 -0.037205
v 0.024031 0.791827 -0.037205
v -0.005803 0.825312 -0.037205
v -0.005803 0.791827 -0.037205
v -0.008864 0.825312 -0.034145
v -0.008864 0.791827 -0.034145
v -0.008864 0.825312 0.034145
v -0.008864 0.791827 0.034145
v -0.005803 0.825312 0.037205
v -0.005803 0.791827 0.037205
v 0.024031 0.825312 0.037205
v 0.024031 0.791827 0.037205
v 0.027092 0.825312 0.034145
v 0.027092 0.791827 0.034145
v 0.027092 0.791827 0.015161
v 0.027092 0.825312 0.015161
v 0.030151 0.825312 0.012101
v 0.030151 0.791827 0.012101
v 0.049391 0.791827 0.012101
v 0.049391 0.825312 0.012101
v 0.054211 0.831432 0.014604
v 0.054211 0.785707 0.014604
v 0.054211 0.492423 0.014604
v 0.054211 0.446698 0.014604
v 0.049391 0.452818 0.012101
v 0.049391 0.486303 0.012101
v 0.030151 0.486303 0.012101
v 0.030151 0.452818 0.012101
v 0.027092 0.452818 0.015161
v 0.027092 0.486303 0.015161
v 0.027092 0.486303 0.034145
v 0.027092 0.452818 0.034145
v 0.024031 0.452818 0.037205
v 0.024031 0.486303 0.037205
v -0.005803 0.452818 0.037205
v -0.005803 0.486303 0.037205
v -0.008864 0.452818 0.034145
v -0.008864 0.486303 0.034145
v -0.008864 0.486303 -0.034145
v -0.008864 0.452818 -0.034145
v -0.005803 0.452818 -0.037205
v -0.005803 0.486303 -0.037205
v 0.024031 0.452818 -0.037205
v 0.024031 0.486303 -0.037205
v 0.027092 0.452818 -0.034145
v 0.027092 0.486303 -0.034145
v 0.027092 0.486303 -0.015161
v 0.027092 0.452818 -0.015161
v 0.030151 0.452818 -0.012101
v 0.030151 0.486303 -0.012101
v 0.049391 0.486303 -0.012101
v 0.051062 0.449699 -0.011836
v 0.054211 0.446698 -0.014605
v 0.054211 0.492423 -0.014605
v 0.061310 0.895189 -0.020960
v 0.061310 0.642128 -0.020960
v 0.073827 0.897084 -0.024205
v 0.061310 0.376816 -0.020960
v 0.073411 0.376816 -0.024202
v 0.085400 0.375553 -0.021015
v 0.085512 0.895189 -0.020960
v 0.094398 0.896409 -0.012046
v 0.094371 0.376816 -0.012101
v 0.097611 0.375865 0.000107
v 0.097613 0.895189 -0.000000
v 0.094431 0.896271 0.011980
v 0.094371 0.376816 0.012101
v 0.085419 0.896494 0.021009
v 0.085512 0.376816 0.020959
v 0.074401 0.897422 0.024204
v 0.073411 0.376816 0.024202
v 0.061310 0.376816 0.020959
v 0.061310 0.642128 0.020959
v 0.061310 0.895189 0.020959
v 0.054211 0.492423 0.014604
v 0.054211 0.446698 0.014604
v 0.052452 0.376816 0.012101
v 0.049209 0.446698 -0.000000
v 0.049209 0.376816 -0.000000
v 0.052452 0.376816 -0.012101
v 0.054211 0.446698 -0.014605
v 0.061310 0.376816 -0.020960
v 0.054211 0.492423 -0.014605
v 0.061310 0.642128 -0.020960
v 0.052452 0.642128 -0.012101
v 0.049196 0.490862 0.000304
v 0.054211 0.785707 -0.014605
v 0.061310 0.895189 -0.020960
v 0.049209 0.785707 -0.000000
v 0.054211 0.831432 -0.014605
v 0.052452 0.895189 -0.012101
v 0.049209 0.831432 -0.000000
v 0.050344 0.896154 0.009495
v 0.054211 0.831432 0.014604
v 0.054211 0.785707 0.014604
v 0.052452 0.642128 0.012101
v 0.049209 0.446698 -0.000000
v 0.054211 0.446698 -0.014605
v 0.051062 0.449699 -0.011836
v 0.047317 0.449753 0.008763
v 0.054211 0.446698 0.014604
v 0.049391 0.452818 0.012101
v 0.030151 0.452818 0.012101
v 0.024031 0.449758 -0.009041
v 0.030151 0.452818 -0.012101
v 0.027092 0.452818 -0.015161
v 0.024031 0.449758 0.009041
v 0.027092 0.452818 0.015161
v 0.024031 0.449758 -0.034145
v 0.027092 0.452818 -0.034145
v 0.024031 0.452818 -0.037205
v -0.005803 0.449758 -0.034145
v -0.005803 0.452818 -0.037205
v -0.008864 0.452818 -0.034145
v -0.005803 0.449758 0.034145
v -0.008864 0.452818 0.034145
v -0.005803 0.452818 0.037205
v 0.024031 0.449758 0.034145
v 0.024031 0.452818 0.037205
v 0.027092 0.452818 0.034145
v 0.052452 0.895189 -0.012101
v 0.061310 0.895189 -0.020960
v 0.054499 0.900143 -0.010064
v 0.050344 0.896154 0.009495
v 0.073827 0.897084 -0.024205
v 0.052833 0.900342 0.014438
v 0.061310 0.895189 0.020959
v 0.074401 0.897422 0.024204
v 0.088738 0.900462 -0.015969
v 0.085512 0.895189 -0.020960
v 0.094398 0.896409 -0.012046
v 0.094839 0.898264 0.006026
v 0.085419 0.896494 0.021009
v 0.097613 0.895189 -0.000000
v 0.094431 0.896271 0.011980
v 0.061310 0.376816 -0.020960
v 0.052452 0.376816 -0.012101
v 0.059474 0.372185 -0.018725
v 0.073411 0.376816 -0.024202
v 0.049209 0.376816 -0.000000
v 0.087709 0.372072 -0.016194
v 0.085400 0.375553 -0.021015
v 0.094371 0.376816 -0.012101
v 0.052392 0.371373 0.014693
v 0.052452 0.376816 0.012101
v 0.061310 0.376816 0.020959
v 0.073411 0.376816 0.024202
v 0.094607 0.373773 0.006384
v 0.097611 0.375865 0.000107
v 0.094371 0.376816 0.012101
v 0.085512 0.376816 0.020959
v 0.079719 0.373823 0.020756
v 0.048464 0.828372 -0.009041
v 0.049391 0.825312 -0.012101
v 0.054211 0.831432 -0.014605
v 0.030151 0.825312 -0.012101
v 0.049209 0.831432 -0.000000
v 0.024031 0.828372 -0.009041
v 0.027092 0.825312 -0.015161
v 0.047316 0.828377 0.008763
v 0.054211 0.831432 0.014604
v 0.049391 0.825312 0.012101
v 0.030151 0.825312 0.012101
v 0.024031 0.828372 0.009041
v 0.027092 0.825312 0.015161
v 0.024031 0.828372 -0.034145
v 0.027092 0.825312 -0.034145
v 0.024031 0.825312 -0.037205
v -0.005803 0.825312 -0.037205
v -0.005803 0.828372 -0.034145
v -0.008864 0.825312 -0.034145
v -0.008864 0.825312 0.034145
v -0.005803 0.828372 0.034145
v -0.005803 0.825312 0.037205
v 0.024031 0.825312 0.037205
v 0.024031 0.828372 0.034145
v 0.027092 0.825312 0.034145
v 0.048464 0.489363 -0.009041
v 0.049391 0.486303 -0.012101
v 0.054211 0.492423 -0.014605
v 0.030151 0.486303 -0.012101
v 0.049196 0.490862 0.000304
v 0.024031 0.489363 -0.009041
v 0.027092 0.486303 -0.015161
v 0.047337 0.489373 0.008744
v 0.054211 0.492423 0.014604
v 0.049391 0.486303 0.012101
v 0.030151 0.486303 0.012101
v 0.024031 0.489363 0.009041
v 0.027092 0.486303 0.015161
v 0.024031 0.489363 -0.034145
v 0.027092 0.486303 -0.034145
v 0.024031 0.486303 -0.037205
v -0.005803 0.486303 -0.037205
v -0.005803 0.489363 -0.034145
v -0.008864 0.486303 -0.034145
v -0.008864 0.486303 0.034145
v -0.005803 0.489363 0.034145
v -0.005803 0.486303 0.037205
v 0.024031 0.486303 0.037205
v 0.024031 0.489363 0.034145
v 0.027092 0.486303 0.034145
v 0.027092 0.791827 0.034145
v 0.024031 0.788767 0.034145
v 0.024031 0.791827 0.037205
v 0.027092 0.791827 0.015161
v -0.005803 0.791827 0.037205
v 0.024031 0.788767 0.009041
v 0.030151 0.791827 0.012101
v -0.005803 0.788767 0.034145
v -0.008864 0.791827 0.034145
v -0.008864 0.791827 -0.034145
v -0.005803 0.788767 -0.034145
v -0.005803 0.791827 -0.037205
v 0.024031 0.791827 -0.037205
v 0.024031 0.788767 -0.034145
v 0.027092 0.791827 -0.034145
v 0.027092 0.791827 -0.015161
v 0.024031 0.788767 -0.009041
v 0.030151 0.791827 -0.012101
v 0.047337 0.788758 0.008744
v 0.049391 0.791827 0.012101
v 0.054211 0.785707 0.014604
v 0.049209 0.785707 -0.000000
v 0.048464 0.788767 -0.009041
v 0.049391 0.791827 -0.012101
v 0.054211 0.785707 -0.014605
v -0.026345 0.000141 0.063017
v -0.027127 -0.000000 -0.061206
v -0.027206 0.008314 0.057844
v -0.027206 0.008314 -0.061206
v -0.022127 -0.000000 -0.066206
v -0.022127 0.008398 -0.066257
v 0.055690 -0.000000 -0.066206
v -0.025160 0.011037 -0.058070
v 0.055690 0.008398 -0.066257
v -0.019236 0.011155 -0.063982
v 0.052799 0.011155 -0.063982
v 0.060768 0.008314 -0.061206
v 0.060690 -0.000000 -0.061206
v 0.060690 0.000000 0.057844
v 0.050630 0.014965 -0.055744
v 0.060768 0.008314 0.057844
v 0.055690 0.000000 0.062844
v 0.058723 0.011037 -0.058070
v 0.058723 0.011037 0.054708
v 0.050630 0.014965 0.052382
v 0.052799 0.011155 0.060620
v 0.055690 0.008398 0.062896
v -0.026345 0.000141 0.063017
v -0.022127 0.008398 0.062896
v -0.019236 0.011155 0.060620
v -0.017067 0.014965 0.052382
v -0.025160 0.011037 0.054708
v -0.017067 0.014965 -0.055744
vt 0.038727 0.461914
vt 0.047424 0.000000
vt 0.047394 0.460938
vt 0.038788 0.000000
vt 0.037323 0.460938
vt 0.037354 0.000000
vt 0.028732 0.000000
vt 0.028717 0.460938
vt 0.027313 0.000000
vt 0.027313 0.460938
vt 0.018677 0.000000
vt 0.018692 0.460938
vt 0.017319 0.461914
vt 0.017258 0.000000
vt 0.008621 0.461914
vt 0.008621 0.000000
vt 0.007206 0.000000
vt 0.007233 0.460938
vt 0.093323 0.461914
vt 0.102051 0.000000
vt 0.102051 0.460938
vt 0.093384 0.000000
vt 0.091980 0.460938
vt 0.091980 0.000000
vt 0.083374 0.000000
vt 0.083313 0.460938
vt 0.081909 0.000000
vt 0.081909 0.460938
vt 0.073303 0.000000
vt 0.073303 0.460938
vt 0.071899 0.461914
vt 0.071838 0.000000
vt 0.063232 0.461914
vt 0.063232 0.000000
vt 0.061798 0.000000
vt 0.061829 0.460938
vt 0.017960 0.780518
vt 0.018417 0.789185
vt 0.017105 0.789917
vt 0.009270 0.781250
vt 0.008514 0.789917
vt 0.017242 0.779175
vt 0.007206 0.789185
vt 0.008385 0.779175
vt 0.007210 0.780273
vt 0.017960 0.478516
vt 0.018417 0.487305
vt 0.017105 0.487793
vt 0.009270 0.479004
vt 0.008514 0.487793
vt 0.017242 0.477051
vt 0.007206 0.487305
vt 0.008385 0.477051
vt 0.007210 0.478516
vt 0.241089 0.251465
vt 0.241089 0.274414
vt 0.238403 0.271484
vt 0.238403 0.254395
vt 0.228760 0.254395
vt 0.228760 0.271484
vt 0.226562 0.271484
vt 0.226562 0.254395
vt 0.217041 0.254395
vt 0.217041 0.271484
vt 0.214844 0.271484
vt 0.214844 0.254395
vt 0.199829 0.271484
vt 0.199829 0.254395
vt 0.197754 0.271484
vt 0.197754 0.254395
vt 0.163452 0.271484
vt 0.163452 0.254395
vt 0.161255 0.271484
vt 0.161255 0.254395
vt 0.146240 0.271484
vt 0.146240 0.254395
vt 0.144043 0.271484
vt 0.144043 0.254395
vt 0.134521 0.254395
vt 0.134521 0.271484
vt 0.132446 0.271484
vt 0.132446 0.254395
vt 0.122803 0.254395
vt 0.122803 0.271484
vt 0.120056 0.274414
vt 0.120056 0.251465
vt 0.254639 0.274414
vt 0.254639 0.251465
vt 0.257324 0.254395
vt 0.257324 0.271484
vt 0.267090 0.271484
vt 0.267090 0.254395
vt 0.269287 0.254395
vt 0.269287 0.271484
vt 0.278809 0.271484
vt 0.278809 0.254395
vt 0.281006 0.254395
vt 0.281006 0.271484
vt 0.295898 0.254395
vt 0.295898 0.271484
vt 0.298096 0.254395
vt 0.298096 0.271484
vt 0.332275 0.271484
vt 0.332275 0.254395
vt 0.334473 0.254395
vt 0.334473 0.271484
vt 0.349609 0.254395
vt 0.349609 0.271484
vt 0.351562 0.254395
vt 0.351562 0.271484
vt 0.361084 0.271484
vt 0.361084 0.254395
vt 0.363281 0.254395
vt 0.363281 0.271484
vt 0.373047 0.271484
vt 0.373779 0.252930
vt 0.375732 0.251465
vt 0.375732 0.274414
vt 0.783203 0.504883
vt 0.783203 0.379883
vt 0.789551 0.505859
vt 0.783203 0.248535
vt 0.789551 0.248535
vt 0.795410 0.248047
vt 0.795410 0.504883
vt 0.801758 0.505615
vt 0.801758 0.248535
vt 0.807617 0.248047
vt 0.807617 0.504883
vt 0.813477 0.505615
vt 0.813477 0.248535
vt 0.819824 0.505615
vt 0.819824 0.248535
vt 0.825195 0.506104
vt 0.825684 0.248535
vt 0.832031 0.248535
vt 0.832031 0.379883
vt 0.832031 0.504883
vt 0.835938 0.305664
vt 0.835938 0.283203
vt 0.837402 0.248535
vt 0.843750 0.283203
vt 0.843750 0.248535
vt 0.849121 0.248535
vt 0.850098 0.283203
vt 0.852051 0.248535
vt 0.850098 0.305664
vt 0.852051 0.379883
vt 0.849121 0.379883
vt 0.843262 0.305176
vt 0.849121 0.450684
vt 0.852051 0.504883
vt 0.843750 0.451172
vt 0.849121 0.473145
vt 0.849121 0.504883
vt 0.843750 0.473633
vt 0.838867 0.505371
vt 0.835938 0.473633
vt 0.835938 0.451172
vt 0.837402 0.379883
vt 0.182983 0.428711
vt 0.189941 0.426270
vt 0.188843 0.428711
vt 0.178467 0.430664
vt 0.175903 0.426270
vt 0.176147 0.429688
vt 0.176270 0.438965
vt 0.187500 0.442383
vt 0.189575 0.439453
vt 0.190796 0.440430
vt 0.178345 0.442383
vt 0.175049 0.440430
vt 0.200073 0.442871
vt 0.200439 0.440430
vt 0.202148 0.442383
vt 0.200073 0.457520
vt 0.202148 0.458008
vt 0.200317 0.459473
vt 0.165771 0.457520
vt 0.165527 0.459473
vt 0.163696 0.457520
vt 0.165771 0.442383
vt 0.163696 0.442383
vt 0.165405 0.440430
vt 0.763672 0.793579
vt 0.769531 0.790161
vt 0.765137 0.795410
vt 0.760254 0.804199
vt 0.776367 0.790649
vt 0.761719 0.806885
vt 0.764160 0.811768
vt 0.770508 0.814575
vt 0.782227 0.796875
vt 0.782227 0.793335
vt 0.785156 0.799194
vt 0.782715 0.808228
vt 0.776367 0.814453
vt 0.785645 0.805664
vt 0.782227 0.811157
vt 0.574219 0.269043
vt 0.569824 0.274414
vt 0.572266 0.270020
vt 0.575195 0.262695
vt 0.563965 0.276855
vt 0.569336 0.256348
vt 0.572266 0.256836
vt 0.567383 0.252441
vt 0.556152 0.274902
vt 0.557129 0.275879
vt 0.551758 0.271973
vt 0.549316 0.265625
vt 0.557617 0.253906
vt 0.560547 0.251953
vt 0.554688 0.253906
vt 0.550293 0.259277
vt 0.551270 0.262207
vt 0.191162 0.037109
vt 0.193359 0.037109
vt 0.193481 0.041016
vt 0.193115 0.027832
vt 0.186523 0.038086
vt 0.191162 0.024902
vt 0.194458 0.026855
vt 0.182129 0.036621
vt 0.179443 0.041016
vt 0.179688 0.037109
vt 0.179932 0.027832
vt 0.181885 0.024414
vt 0.178589 0.026367
vt 0.203735 0.024414
vt 0.204102 0.026855
vt 0.205811 0.024902
vt 0.205811 0.009277
vt 0.203735 0.009766
vt 0.203979 0.007812
vt 0.169189 0.007324
vt 0.169434 0.009766
vt 0.167358 0.009277
vt 0.167358 0.024414
vt 0.169434 0.024414
vt 0.169067 0.026367
vt 0.613281 0.281250
vt 0.615723 0.281250
vt 0.615723 0.284668
vt 0.615234 0.271973
vt 0.608398 0.281738
vt 0.613281 0.268555
vt 0.616699 0.270508
vt 0.604492 0.280273
vt 0.601562 0.284668
vt 0.602051 0.281250
vt 0.602051 0.271973
vt 0.604004 0.268555
vt 0.600586 0.270508
vt 0.625977 0.268555
vt 0.625977 0.270508
vt 0.627930 0.268555
vt 0.627930 0.253418
vt 0.625977 0.253906
vt 0.625977 0.251465
vt 0.591309 0.251465
vt 0.591797 0.253418
vt 0.589355 0.252930
vt 0.589355 0.268555
vt 0.591309 0.268066
vt 0.591309 0.270508
vt 0.220093 0.440430
vt 0.220337 0.442383
vt 0.218262 0.442383
vt 0.229614 0.440430
vt 0.218384 0.457520
vt 0.232910 0.442383
vt 0.230957 0.438965
vt 0.220459 0.457520
vt 0.220093 0.459473
vt 0.254883 0.459473
vt 0.254639 0.457520
vt 0.256592 0.458008
vt 0.256592 0.442383
vt 0.254639 0.442871
vt 0.255127 0.440430
vt 0.245483 0.440430
vt 0.242188 0.442383
vt 0.244141 0.439453
vt 0.233154 0.430664
vt 0.230713 0.429688
vt 0.230591 0.426270
vt 0.237549 0.428711
vt 0.242188 0.430176
vt 0.244385 0.430176
vt 0.244629 0.426270
vt 0.385254 0.335938
vt 0.454102 0.335449
vt 0.389648 0.338867
vt 0.452881 0.338867
vt 0.458740 0.339844
vt 0.455322 0.341309
vt 0.458740 0.384277
vt 0.451172 0.339844
vt 0.455322 0.382812
vt 0.454102 0.342773
vt 0.454102 0.381348
vt 0.452881 0.385254
vt 0.454346 0.388672
vt 0.388184 0.388672
vt 0.449951 0.379883
vt 0.389648 0.385254
vt 0.383789 0.384277
vt 0.451172 0.384277
vt 0.391357 0.384277
vt 0.392578 0.379883
vt 0.388428 0.381348
vt 0.387207 0.382812
vt 0.383789 0.337891
vt 0.387207 0.341797
vt 0.388184 0.343262
vt 0.392578 0.344238
vt 0.391113 0.339844
vt 0.449707 0.344238
vt1 0.078003 0.137695
vt1 0.919922 0.153320
vt1 0.079956 0.153320
vt1 0.919922 0.137695
vt1 0.080017 0.135254
vt1 0.919922 0.135254
vt1 0.919922 0.119629
vt1 0.080017 0.119629
vt1 0.919922 0.116699
vt1 0.079956 0.116699
vt1 0.919922 0.101074
vt1 0.079956 0.101074
vt1 0.078003 0.098633
vt1 0.919922 0.098633
vt1 0.078125 0.083008
vt1 0.919922 0.083008
vt1 0.919922 0.080078
vt1 0.079956 0.080078
vt1 0.078003 0.321777
vt1 0.919922 0.337891
vt1 0.079956 0.337891
vt1 0.919922 0.322266
vt1 0.080017 0.319336
vt1 0.919922 0.319336
vt1 0.919922 0.303711
vt1 0.080017 0.303711
vt1 0.919922 0.301270
vt1 0.079956 0.301270
vt1 0.919922 0.285156
vt1 0.079956 0.285645
vt1 0.078003 0.282715
vt1 0.919922 0.282715
vt1 0.078125 0.267090
vt1 0.919922 0.267090
vt1 0.919922 0.264648
vt1 0.079956 0.264648
vt1 0.264893 0.908752
vt1 0.281982 0.907837
vt1 0.283447 0.910400
vt1 0.266357 0.925720
vt1 0.283447 0.927185
vt1 0.262451 0.910156
vt1 0.281982 0.929688
vt1 0.262451 0.927429
vt1 0.264648 0.929688
vt1 0.750488 0.768555
vt1 0.751465 0.785645
vt1 0.749023 0.787109
vt1 0.733887 0.770020
vt1 0.732422 0.786987
vt1 0.749512 0.765991
vt1 0.729492 0.785645
vt1 0.731934 0.765991
vt1 0.729492 0.768311
vt1 0.325439 0.658203
vt1 0.325439 0.703125
vt1 0.320068 0.697021
vt1 0.320068 0.664307
vt1 0.301270 0.664307
vt1 0.301270 0.697021
vt1 0.296875 0.697021
vt1 0.296875 0.664307
vt1 0.278320 0.664307
vt1 0.278320 0.697021
vt1 0.274170 0.697021
vt1 0.274170 0.664307
vt1 0.244995 0.697021
vt1 0.244995 0.664307
vt1 0.240723 0.697021
vt1 0.240723 0.664307
vt1 0.173950 0.697021
vt1 0.173950 0.664307
vt1 0.169678 0.697021
vt1 0.169678 0.664307
vt1 0.140503 0.697021
vt1 0.140503 0.664307
vt1 0.136230 0.697021
vt1 0.136230 0.664307
vt1 0.117676 0.664307
vt1 0.117676 0.697021
vt1 0.113464 0.697021
vt1 0.113464 0.664307
vt1 0.094604 0.664307
vt1 0.094604 0.697021
vt1 0.089294 0.703125
vt1 0.089294 0.658447
vt1 0.685059 0.656494
vt1 0.685059 0.701416
vt1 0.679688 0.695312
vt1 0.679688 0.662598
vt1 0.660645 0.662598
vt1 0.660645 0.695312
vt1 0.656738 0.695312
vt1 0.656738 0.662598
vt1 0.638184 0.662598
vt1 0.638184 0.695312
vt1 0.633789 0.695312
vt1 0.633789 0.662598
vt1 0.604492 0.695557
vt1 0.604492 0.662598
vt1 0.600586 0.695557
vt1 0.600586 0.662598
vt1 0.533691 0.662598
vt1 0.533691 0.695557
vt1 0.529297 0.695312
vt1 0.529297 0.662598
vt1 0.500000 0.695312
vt1 0.500000 0.662598
vt1 0.496094 0.695312
vt1 0.496094 0.662598
vt1 0.477539 0.662598
vt1 0.477539 0.695312
vt1 0.473145 0.695312
vt1 0.473145 0.662598
vt1 0.454346 0.662598
vt1 0.452881 0.698486
vt1 0.448975 0.701416
vt1 0.449219 0.656738
vt1 0.123047 0.440430
vt1 0.372070 0.440430
vt1 0.121216 0.452637
vt1 0.632812 0.440430
vt1 0.632812 0.452637
vt1 0.634277 0.464355
vt1 0.123047 0.464355
vt1 0.121826 0.476074
vt1 0.632812 0.476074
vt1 0.633789 0.487305
vt1 0.123047 0.487305
vt1 0.122009 0.498535
vt1 0.632812 0.498535
vt1 0.121765 0.509766
vt1 0.632812 0.509766
vt1 0.120850 0.520508
vt1 0.632812 0.521240
vt1 0.632812 0.533447
vt1 0.372070 0.533447
vt1 0.123047 0.533447
vt1 0.519043 0.541016
vt1 0.563965 0.541016
vt1 0.632812 0.543945
vt1 0.563965 0.556152
vt1 0.632812 0.556152
vt1 0.632812 0.566895
vt1 0.563965 0.569092
vt1 0.632812 0.573486
vt1 0.519043 0.569092
vt1 0.372070 0.573486
vt1 0.372070 0.566895
vt1 0.520508 0.555908
vt1 0.231323 0.567871
vt1 0.123047 0.573486
vt1 0.230713 0.556152
vt1 0.186401 0.567871
vt1 0.123047 0.566895
vt1 0.185791 0.556152
vt1 0.122070 0.547119
vt1 0.185791 0.541016
vt1 0.230713 0.541016
vt1 0.372070 0.543945
vt1 0.419678 0.830688
vt1 0.424805 0.844482
vt1 0.419922 0.842163
vt1 0.416504 0.822021
vt1 0.424805 0.817017
vt1 0.417725 0.817383
vt1 0.399658 0.817749
vt1 0.393311 0.839600
vt1 0.399414 0.843628
vt1 0.396973 0.846069
vt1 0.393311 0.821777
vt1 0.396973 0.815308
vt1 0.392822 0.864136
vt1 0.396729 0.864868
vt1 0.393066 0.868164
vt1 0.363770 0.864014
vt1 0.363281 0.868042
vt1 0.359863 0.864502
vt1 0.364014 0.797241
vt1 0.360107 0.796753
vt1 0.363525 0.793213
vt1 0.393066 0.797119
vt1 0.393555 0.793213
vt1 0.396973 0.796509
vt1 0.889648 0.703613
vt1 0.883301 0.715088
vt1 0.885254 0.701904
vt1 0.885254 0.682129
vt1 0.871582 0.720703
vt1 0.879883 0.679199
vt1 0.871094 0.673340
vt1 0.857422 0.674805
vt1 0.854980 0.716064
vt1 0.858887 0.721924
vt1 0.848145 0.714844
vt1 0.843262 0.697510
vt1 0.848145 0.680664
vt1 0.840820 0.704346
vt1 0.841797 0.691650
vt1 0.565430 0.778198
vt1 0.578613 0.778198
vt1 0.568848 0.780029
vt1 0.554199 0.784546
vt1 0.589844 0.784668
vt1 0.551270 0.801025
vt1 0.548828 0.795776
vt1 0.547852 0.808716
vt1 0.595703 0.798340
vt1 0.596191 0.796021
vt1 0.596191 0.808960
vt1 0.589844 0.820190
vt1 0.561523 0.821655
vt1 0.554688 0.819580
vt1 0.565430 0.826416
vt1 0.578125 0.826538
vt1 0.582031 0.821289
vt1 0.181030 0.836304
vt1 0.181030 0.832031
vt1 0.188232 0.831665
vt1 0.162964 0.832397
vt1 0.182861 0.845215
vt1 0.156738 0.836304
vt1 0.160400 0.829956
vt1 0.179688 0.854004
vt1 0.187988 0.859131
vt1 0.180786 0.858643
vt1 0.162720 0.858276
vt1 0.156494 0.854248
vt1 0.160156 0.860718
vt1 0.156372 0.811768
vt1 0.160400 0.811157
vt1 0.156860 0.807739
vt1 0.126953 0.807861
vt1 0.127441 0.811890
vt1 0.123474 0.811279
vt1 0.123047 0.879028
vt1 0.127075 0.878540
vt1 0.126465 0.882629
vt1 0.156372 0.882690
vt1 0.155884 0.878723
vt1 0.159912 0.879456
vt1 0.718750 0.925903
vt1 0.723145 0.925964
vt1 0.723633 0.933167
vt1 0.722656 0.907837
vt1 0.709473 0.926819
vt1 0.718750 0.901611
vt1 0.725098 0.905273
vt1 0.701172 0.924622
vt1 0.696289 0.932861
vt1 0.696777 0.925720
vt1 0.696777 0.907654
vt1 0.701172 0.901428
vt1 0.694336 0.905029
vt1 0.743652 0.901306
vt1 0.744141 0.905273
vt1 0.747559 0.901794
vt1 0.747559 0.871826
vt1 0.743164 0.872437
vt1 0.744141 0.868408
vt1 0.676270 0.867920
vt1 0.676758 0.871948
vt1 0.672852 0.871338
vt1 0.672363 0.901245
vt1 0.676270 0.900818
vt1 0.675781 0.904785
vt1 0.921875 0.905090
vt1 0.920898 0.901123
vt1 0.925293 0.901611
vt1 0.902832 0.905151
vt1 0.925293 0.871704
vt1 0.896484 0.901489
vt1 0.900391 0.907715
vt1 0.920898 0.872192
vt1 0.921387 0.868164
vt1 0.854004 0.867920
vt1 0.854492 0.871948
vt1 0.850098 0.871338
vt1 0.850098 0.901306
vt1 0.854004 0.900818
vt1 0.853516 0.904785
vt1 0.872070 0.904968
vt1 0.878906 0.901306
vt1 0.874512 0.907532
vt1 0.896484 0.924683
vt1 0.900879 0.925842
vt1 0.901367 0.932983
vt1 0.887695 0.927734
vt1 0.878418 0.925659
vt1 0.874512 0.925659
vt1 0.874023 0.932800
vt1 0.765137 0.451660
vt1 0.893066 0.450684
vt1 0.772949 0.457520
vt1 0.890625 0.457031
vt1 0.901367 0.458984
vt1 0.895020 0.461914
vt1 0.902832 0.540771
vt1 0.887695 0.458984
vt1 0.896484 0.538086
vt1 0.893066 0.464355
vt1 0.894531 0.535400
vt1 0.892090 0.542969
vt1 0.895020 0.549316
vt1 0.771973 0.549316
vt1 0.886230 0.532959
vt1 0.774414 0.542969
vt1 0.763672 0.541260
vt1 0.888672 0.541016
vt1 0.777344 0.541016
vt1 0.779785 0.533203
vt1 0.771973 0.535645
vt1 0.770020 0.538330
vt1 0.762207 0.455078
vt1 0.768555 0.461914
vt1 0.770508 0.464844
vt1 0.778809 0.467285
vt1 0.776367 0.458984
vt1 0.885254 0.466797
vn 0.000000 0.000000 1.000000
vn 0.000000 0.000000 1.000000
vn 0.000000 0.000000 1.000000
vn 0.000000 0.000000 1.000000
vn 1.000000 0.000000 0.000000
vn 1.000000 0.000000 0.000000
vn 1.000000 0.000000 0.000000
vn 1.000000 0.000000 0.000000
vn 0.000000 -0.000000 -1.000000
vn 0.000000 -0.000000 -1.000000
vn 0.000000 -0.000000 -1.000000
vn 0.000000 -0.000000 -1.000000
vn -1.000000 -0.000000 -0.007874
vn -1.000000 0.000000 0.000000
vn -1.000000 0.000000 0.000000
vn -1.000000 0.000000 0.000000
vn 0.000000 0.000000 1.000000
vn 0.000000 0.000000 1.000000
vn 0.000000 0.000000 1.000000
vn 0.000000 0.000000 1.000000
vn 0.000000 0.000000 1.000000
vn 0.000000 0.000000 1.000000
vn 1.000000 0.000000 0.000000
vn 1.000000 0.000000 0.000000
vn 1.000000 0.000000 0.000000
vn 1.000000 0.000000 0.000000
vn 0.000000 -0.000000 -1.000000
vn 0.000000 -0.000000 -1.000000
vn 0.000000 -0.000000 -1.000000
vn 0.000000 -0.000000 -1.000000
vn -1.000000 -0.000000 -0.007874
vn -1.000000 0.000000 0.000000
vn -1.000000 0.000000 0.000000
vn -1.000000 0.000000 0.000000
vn 0.000000 0.000000 1.000000
vn 0.000000 0.000000 1.000000
vn 0.055118 0.874016 0.480315
vn 0.000000 0.000000 1.000000
vn -0.228346 0.976378 0.023622
vn 0.000000 1.000000 -0.000000
vn -0.480315 0.874016 -0.055118
vn 1.000000 0.000000 0.000000
vn 0.000000 -0.000000 -1.000000
vn 1.000000 0.000000 0.000000
vn 0.000000 -0.000000 -1.000000
vn 0.055118 0.874016 0.480315
vn 0.000000 0.000000 1.000000
vn -0.228346 0.976378 0.023622
vn 0.000000 1.000000 -0.000000
vn -0.480315 0.874016 -0.055118
vn 1.000000 0.000000 0.000000
vn 0.000000 -0.000000 -1.000000
vn 1.000000 0.000000 0.000000
vn 0.000000 -0.000000 -1.000000
vn -0.952756 -0.000000 -0.291339
vn -0.669291 -0.000000 -0.748031
vn 0.000000 -0.000000 -1.000000
vn 0.000000 -0.000000 -1.000000
vn 0.000000 -0.000000 -1.000000
vn 0.000000 -0.000000 -1.000000
vn 1.000000 0.000000 0.000000
vn 1.000000 0.000000 0.000000
vn 1.000000 0.000000 0.000000
vn 1.000000 0.000000 0.000000
vn 0.000000 -0.000000 -1.000000
vn 0.000000 -0.000000 -1.000000
vn 0.000000 -0.000000 -1.000000
vn 0.000000 -0.000000 -1.000000
vn -1.000000 0.000000 0.000000
vn -1.000000 0.000000 0.000000
vn -1.000000 0.000000 0.000000
vn -1.000000 0.000000 0.000000
vn 0.000000 0.000000 1.000000
vn 0.000000 0.000000 1.000000
vn 0.000000 0.000000 1.000000
vn 0.000000 0.000000 1.000000
vn 1.000000 0.000000 0.000000
vn 1.000000 0.000000 0.000000
vn 1.000000 0.000000 0.000000
vn 1.000000 0.000000 0.000000
vn 0.000000 0.000000 1.000000
vn 0.000000 0.000000 1.000000
vn 0.000000 0.000000 1.000000
vn 0.000000 0.000000 1.000000
vn -0.669291 0.000000 0.748031
vn -0.952756 0.000000 0.291339
vn -0.952756 0.000000 0.291339
vn -0.669291 0.000000 0.748031
vn 0.000000 0.000000 1.000000
vn 0.000000 0.000000 1.000000
vn 0.000000 0.000000 1.000000
vn 0.000000 0.000000 1.000000
vn 1.000000 0.000000 0.000000
vn 1.000000 0.000000 0.000000
vn 1.000000 0.000000 0.000000
vn 1.000000 0.000000 0.000000
vn 0.000000 0.000000 1.000000
vn 0.000000 0.000000 1.000000
vn 0.000000 0.000000 1.000000
vn 0.000000 0.000000 1.000000
vn -1.000000 0.000000 0.000000
vn -1.000000 0.000000 0.000000
vn -1.000000 0.000000 0.000000
vn -1.000000 0.000000 0.000000
vn 0.000000 -0.000000 -1.000000
vn 0.000000 -0.000000 -1.000000
vn 0.000000 -0.000000 -1.000000
vn 0.000000 -0.000000 -1.000000
vn 1.000000 0.000000 0.000000
vn 1.000000 0.000000 0.000000
vn 1.000000 0.000000 0.000000
vn 1.000000 0.000000 0.000000
vn 0.000000 -0.000000 -1.000000
vn 0.000000 -0.000000 -1.000000
vn 0.000000 -0.000000 -1.000000
vn -0.039370 -0.000000 -1.000000
vn -0.669291 -0.000000 -0.748031
vn -0.952756 -0.000000 -0.291339
vn -0.259843 -0.000000 -0.968504
vn -0.259843 -0.000000 -0.968504
vn -0.244094 -0.000000 -0.968504
vn -0.259843 -0.000000 -0.968504
vn -0.259843 -0.000000 -0.968504
vn 0.700787 -0.000000 -0.708661
vn 0.708661 -0.000000 -0.708661
vn 0.708661 -0.000000 -0.708661
vn 0.708661 -0.000000 -0.708661
vn 0.968504 -0.000000 -0.251968
vn 0.968504 -0.000000 -0.259842
vn 0.708661 0.000000 0.700787
vn 0.708661 0.000000 0.708661
vn 0.708661 0.000000 0.708661
vn 0.708661 0.000000 0.708661
vn -0.228346 0.000000 0.976378
vn -0.259843 0.000000 0.968504
vn -0.259843 0.000000 0.968504
vn -0.259843 0.000000 0.968504
vn -0.259843 0.000000 0.968504
vn -0.952756 0.000000 0.291339
vn -0.669291 0.000000 0.748031
vn -0.952756 0.007874 0.291339
vn -0.952756 0.007874 -0.291339
vn -0.952756 0.007874 -0.291339
vn -0.952756 0.007874 -0.291339
vn -0.669291 -0.000000 -0.748031
vn -0.259843 -0.000000 -0.968504
vn -0.952756 -0.000000 -0.291339
vn -0.259843 -0.000000 -0.968504
vn -0.952756 -0.000000 -0.291339
vn -0.960630 -0.000000 -0.291339
vn -0.952756 -0.000000 -0.291339
vn -0.259843 -0.000000 -0.968504
vn -0.952756 -0.000000 -0.291339
vn -0.669291 -0.000000 -0.748031
vn -0.952756 -0.007874 -0.291339
vn -0.952756 -0.007874 -0.291339
vn -1.000000 -0.007874 0.039370
vn -0.669291 0.000000 0.748031
vn -0.952756 0.000000 0.291339
vn -0.952756 0.000000 0.291339
vn -0.952756 0.007874 -0.291339
vn -0.669291 -0.000000 -0.748031
vn -0.062992 -0.968504 -0.251968
vn 0.000000 -1.000000 -0.015748
vn -0.669291 0.000000 0.748031
vn 0.000000 0.000000 1.000000
vn 0.000000 0.000000 1.000000
vn 0.000000 -1.000000 0.000000
vn 0.000000 -0.000000 -1.000000
vn 1.000000 0.000000 0.000000
vn 0.000000 -1.000000 0.000000
vn 1.000000 0.000000 0.000000
vn 0.000000 -1.000000 0.000000
vn 1.000000 0.000000 0.000000
vn 0.000000 -0.000000 -1.000000
vn 0.000000 -1.000000 0.000000
vn 0.000000 -0.000000 -1.000000
vn -1.000000 0.000000 0.000000
vn 0.000000 -1.000000 0.000000
vn -1.000000 0.000000 0.000000
vn 0.000000 0.000000 1.000000
vn 0.000000 -1.000000 0.000000
vn 0.000000 0.000000 1.000000
vn 1.000000 0.000000 0.000000
vn -0.952756 -0.007874 -0.291339
vn -0.259843 -0.000000 -0.968504
vn -0.165354 0.984252 -0.078740
vn -0.952756 0.291339 -0.070866
vn -0.283465 0.661417 -0.700787
vn -0.267717 0.960630 0.055118
vn -0.259843 0.000000 0.968504
vn -0.220472 0.700787 0.685039
vn 0.110236 0.984252 -0.125984
vn 0.708661 -0.000000 -0.708661
vn 0.692913 0.212598 -0.685039
vn 0.385827 0.921260 0.047244
vn 0.677165 0.212598 0.708661
vn 0.968504 -0.000000 -0.259842
vn 0.692913 0.181102 0.700787
vn -0.259843 -0.000000 -0.968504
vn -0.952756 0.007874 -0.291339
vn -0.125984 -0.976378 -0.181102
vn -0.259843 -0.000000 -0.968504
vn -0.952756 0.007874 -0.291339
vn 0.110236 -0.984252 -0.141732
vn 0.677165 -0.220472 -0.700787
vn 0.708661 -0.000000 -0.708661
vn -0.275591 -0.960630 0.055118
vn -0.952756 0.007874 0.291339
vn -0.259843 0.000000 0.968504
vn -0.259843 0.000000 0.968504
vn 0.393701 -0.921260 0.039370
vn 0.952756 -0.157480 -0.251968
vn 0.708661 0.000000 0.708661
vn 0.708661 0.000000 0.708661
vn -0.023622 -0.905512 0.417323
vn 0.000000 1.000000 -0.000000
vn 0.000000 -0.000000 -1.000000
vn -0.669291 -0.000000 -0.748031
vn 0.000000 -0.000000 -1.000000
vn -0.952756 -0.007874 -0.291339
vn 0.000000 1.000000 -0.000000
vn 1.000000 0.000000 0.000000
vn 0.000000 1.000000 -0.015748
vn -0.669291 0.000000 0.748031
vn 0.000000 0.000000 1.000000
vn 0.000000 0.000000 1.000000
vn 0.000000 1.000000 -0.000000
vn 1.000000 0.000000 0.000000
vn 0.000000 1.000000 -0.000000
vn 1.000000 0.000000 0.000000
vn 0.000000 -0.000000 -1.000000
vn 0.000000 -0.000000 -1.000000
vn 0.000000 1.000000 -0.000000
vn -1.000000 0.000000 0.000000
vn -1.000000 0.000000 0.000000
vn 0.000000 1.000000 -0.000000
vn 0.000000 0.000000 1.000000
vn 0.000000 0.000000 1.000000
vn 0.000000 1.000000 -0.000000
vn 1.000000 0.000000 0.000000
vn 0.000000 1.000000 -0.000000
vn 0.000000 -0.000000 -1.000000
vn -0.952756 -0.000000 -0.291339
vn 0.000000 -0.000000 -1.000000
vn -0.897638 0.314961 -0.299213
vn 0.000000 1.000000 -0.000000
vn 1.000000 0.000000 0.000000
vn 0.000000 1.000000 -0.007874
vn -0.952756 0.000000 0.291339
vn 0.000000 0.000000 1.000000
vn 0.000000 0.000000 1.000000
vn 0.000000 1.000000 -0.000000
vn 1.000000 0.000000 0.000000
vn 0.000000 1.000000 -0.000000
vn 1.000000 0.000000 0.000000
vn 0.000000 -0.000000 -1.000000
vn 0.000000 -0.000000 -1.000000
vn 0.000000 1.000000 -0.000000
vn -1.000000 0.000000 0.000000
vn -1.000000 0.000000 0.000000
vn 0.000000 1.000000 -0.000000
vn 0.000000 0.000000 1.000000
vn 0.000000 0.000000 1.000000
vn 0.000000 1.000000 -0.000000
vn 1.000000 0.000000 0.000000
vn 1.000000 0.000000 0.000000
vn 0.000000 -1.000000 0.000000
vn 0.000000 0.000000 1.000000
vn 1.000000 0.000000 0.000000
vn 0.000000 0.000000 1.000000
vn 0.000000 -1.000000 0.000000
vn 0.000000 0.000000 1.000000
vn 0.000000 -1.000000 0.000000
vn -1.000000 0.000000 0.000000
vn -1.000000 0.000000 0.000000
vn 0.000000 -1.000000 0.000000
vn 0.000000 -0.000000 -1.000000
vn 0.000000 -0.000000 -1.000000
vn 0.000000 -1.000000 0.000000
vn 1.000000 0.000000 0.000000
vn 1.000000 0.000000 0.000000
vn 0.000000 -1.000000 0.000000
vn 0.000000 -0.000000 -1.000000
vn 0.000000 -1.000000 -0.007874
vn 0.000000 0.000000 1.000000
vn -0.952756 0.000000 0.291339
vn -0.952756 -0.000000 -0.291339
vn 0.000000 -1.000000 0.000000
vn 0.000000 -0.000000 -1.000000
vn -0.952756 -0.000000 -0.291339
vn -1.000000 -0.007874 0.070866
vn -1.000000 -0.007874 0.000000
vn -1.000000 -0.007874 0.000000
vn -1.000000 -0.007874 0.000000
vn 0.000000 -0.007874 -1.000000
vn 0.000000 -0.007874 -1.000000
vn 0.000000 -0.007874 -1.000000
vn -0.433071 0.897638 -0.000000
vn 0.000000 -0.007874 -1.000000
vn 0.000000 0.905512 -0.417323
vn 0.000000 0.905512 -0.417323
vn 1.000000 -0.007874 0.000000
vn 1.000000 -0.007874 0.000000
vn 1.000000 -0.007874 0.000000
vn 0.000000 1.000000 -0.000000
vn 1.000000 -0.007874 0.000000
vn 0.000000 -0.007874 1.000000
vn 0.433071 0.897638 -0.000000
vn 0.433071 0.897638 -0.000000
vn 0.000000 1.000000 -0.000000
vn 0.000000 0.905512 0.417323
vn 0.000000 -0.007874 1.000000
vn -0.015748 -0.007874 1.000000
vn 0.000000 -0.007874 1.000000
vn 0.000000 0.905512 0.417323
vn 0.000000 1.000000 -0.000000
vn -0.433071 0.897638 -0.000000
vn 0.000000 1.000000 -0.000000
tan 0.000000 -1.000000 0.000000 1.000000
tan 0.000000 -1.000000 0.000000 1.000000
tan 0.000000 -1.000000 0.000000 1.000000
tan 0.000000 -1.000000 0.000000 1.000000
tan 0.000000 -1.000000 0.000000 1.000000
tan 0.000000 -1.000000 0.000000 1.000000
tan 0.000000 -1.000000 0.000000 1.000000
tan 0.000000 -1.000000 0.000000 1.000000
tan 0.000000 -1.000000 0.000000 1.000000
tan 0.000000 -1.000000 0.000000 1.000000
tan 0.000000 -1.000000 0.000000 1.000000
tan 0.000000 -1.000000 0.000000 1.000000
tan 0.000000 -1.000000 0.000000 1.000000
tan 0.000000 -1.000000 0.000000 1.000000
tan 0.000000 -1.000000 0.000000 1.000000
tan 0.000000 -1.000000 0.000000 1.000000
tan 0.000000 -1.000000 0.000000 1.000000
tan 0.000000 -1.000000 0.000000 1.000000
tan 0.000000 -1.000000 0.000000 1.000000
tan 0.000000 -1.000000 0.000000 1.000000
tan 0.000000 -1.000000 0.000000 1.000000
tan 0.000000 -1.000000 0.000000 1.000000
tan 0.000000 -1.000000 0.000000 1.000000
tan 0.000000 -1.000000 0.000000 1.000000
tan 0.000000 -1.000000 0.000000 1.000000
tan 0.000000 -1.000000 0.000000 1.000000
tan 0.000000 -1.000000 0.000000 1.000000
tan 0.000000 -1.000000 0.000000 1.000000
tan 0.000000 -1.000000 0.000000 1.000000
tan 0.000000 -1.000000 0.000000 1.000000
tan 0.000000 -1.000000 0.000000 1.000000
tan 0.000000 -1.000000 0.000000 1.000000
tan 0.000000 -1.000000 0.000000 1.000000
tan 0.000000 -1.000000 0.000000 1.000000
tan 0.000000 -1.000000 0.000000 1.000000
tan 0.000000 -1.000000 0.000000 1.000000
tan 0.939674 -0.088288 0.052824 1.000000
tan 1.000000 0.055118 -0.000000 1.000000
tan 0.976564 0.229090 -0.028954 1.000000
tan 1.000000 -0.000000 -0.023622 1.000000
tan 0.875318 0.482051 0.016182 1.000000
tan 0.000000 -0.944882 -0.322834 1.000000
tan 1.000000 0.055118 -0.000000 1.000000
tan 0.000000 -0.944882 0.322835 1.000000
tan 1.000000 -0.055118 0.000000 1.000000
tan 0.939674 -0.088288 0.052824 1.000000
tan 1.000000 0.055118 -0.000000 1.000000
tan 0.976564 0.229090 -0.028954 1.000000
tan 1.000000 -0.000000 -0.023622 1.000000
tan 0.875318 0.482051 0.016182 1.000000
tan 0.000000 -0.944882 -0.322834 1.000000
tan 1.000000 0.047244 -0.000000 1.000000
tan 0.000000 -0.944882 0.322835 1.000000
tan 1.000000 -0.055118 0.000000 1.000000
tan 0.002294 -0.961932 -0.007502 1.000000
tan 0.000000 -0.996652 0.000000 1.000000
tan 0.000000 -1.000000 0.000000 1.000000
tan 0.000000 -1.000000 0.000000 1.000000
tan 0.000000 -1.000000 0.000000 1.000000
tan 0.000000 -1.000000 0.000000 1.000000
tan 0.000000 -1.000000 0.000000 1.000000
tan 0.000000 -1.000000 0.000000 1.000000
tan 0.000000 -1.000000 0.000000 1.000000
tan 0.000000 -1.000000 0.000000 1.000000
tan 0.000000 -1.000000 0.000000 1.000000
tan 0.000000 -1.000000 0.000000 1.000000
tan 0.000000 -1.000000 0.000000 1.000000
tan 0.000000 -1.000000 0.000000 1.000000
tan 0.000000 -1.000000 0.000000 1.000000
tan 0.000000 -1.000000 0.000000 1.000000
tan 0.000000 -1.000000 0.000000 1.000000
tan 0.000000 -1.000000 0.000000 1.000000
tan 0.000000 -1.000000 0.000000 1.000000
tan 0.000000 -1.000000 0.000000 1.000000
tan 0.000000 -1.000000 0.000000 1.000000
tan 0.000000 -1.000000 0.000000 1.000000
tan 0.000000 -1.000000 0.000000 1.000000
tan 0.000000 -1.000000 0.000000 1.000000
tan 0.000000 -1.000000 0.000000 1.000000
tan 0.000000 -1.000000 0.000000 1.000000
tan 0.000000 -1.000000 0.000000 1.000000
tan 0.000000 -1.000000 0.000000 1.000000
tan 0.000000 -1.000000 0.000000 1.000000
tan 0.000000 -1.000000 0.000000 1.000000
tan 0.000000 -0.996652 0.000000 1.000000
tan 0.002294 -0.961932 0.007502 1.000000
tan -0.002294 -0.961932 -0.007502 1.000000
tan 0.000000 -0.996652 0.000000 1.000000
tan 0.000000 -1.000000 0.000000 1.000000
tan 0.000000 -1.000000 0.000000 1.000000
tan 0.000000 -1.000000 0.000000 1.000000
tan 0.000000 -1.000000 0.000000 1.000000
tan 0.000000 -1.000000 0.000000 1.000000
tan 0.000000 -1.000000 0.000000 1.000000
tan 0.000000 -1.000000 0.000000 1.000000
tan 0.000000 -1.000000 0.000000 1.000000
tan 0.000000 -1.000000 0.000000 1.000000
tan 0.000000 -1.000000 0.000000 1.000000
tan 0.000000 -1.000000 0.000000 1.000000
tan 0.000000 -1.000000 0.000000 1.000000
tan 0.000000 -1.000000 0.000000 1.000000
tan 0.000000 -1.000000 0.000000 1.000000
tan 0.000000 -1.000000 0.000000 1.000000
tan 0.000000 -1.000000 0.000000 1.000000
tan 0.000000 -1.000000 0.000000 1.000000
tan 0.000000 -1.000000 0.000000 1.000000
tan 0.000000 -1.000000 0.000000 1.000000
tan 0.000000 -1.000000 0.000000 1.000000
tan 0.000000 -1.000000 0.000000 1.000000
tan 0.000000 -1.000000 0.000000 1.000000
tan 0.000000 -1.000000 0.000000 1.000000
tan 0.000000 -1.000000 0.000000 1.000000
tan 0.000000 -1.000000 0.000000 1.000000
tan 0.000000 -1.000000 0.000000 1.000000
tan 0.000000 -1.000000 0.000000 1.000000
tan 0.000000 -1.000000 0.000000 1.000000
tan 0.000000 -0.996652 0.000000 1.000000
tan -0.002294 -0.961932 0.007502 1.000000
tan 0.000000 -0.972596 0.000000 1.000000
tan 0.000000 -0.972596 0.000000 1.000000
tan 0.000000 -0.968504 0.000000 1.000000
tan 0.000000 -0.972596 0.000000 1.000000
tan 0.000000 -0.972596 0.000000 1.000000
tan 0.000000 -0.998884 0.000000 1.000000
tan 0.000000 -1.004402 0.000000 1.000000
tan 0.000000 -0.998822 0.000000 1.000000
tan 0.000000 -1.004402 0.000000 1.000000
tan 0.000000 -0.968504 0.000000 1.000000
tan 0.000000 -0.972596 0.000000 1.000000
tan 0.000000 -0.998884 0.000000 1.000000
tan 0.000000 -1.004402 0.000000 1.000000
tan 0.000000 -0.998822 0.000000 1.000000
tan 0.000000 -1.004402 0.000000 1.000000
tan 0.000000 -0.976378 0.000000 1.000000
tan 0.000000 -0.972596 0.000000 1.000000
tan 0.000000 -0.972596 0.000000 1.000000
tan 0.000000 -0.972596 0.000000 1.000000
tan 0.000000 -0.972596 0.000000 1.000000
tan 0.000000 -0.961932 0.000000 1.000000
tan 0.000000 -0.996652 0.000000 1.000000
tan -0.007874 -0.961932 0.000248 1.000000
tan -0.007874 -0.961932 -0.000248 1.000000
tan -0.007874 -0.961932 -0.000248 1.000000
tan -0.007874 -0.961932 -0.000248 1.000000
tan 0.000000 -0.996652 0.000000 1.000000
tan 0.000000 -0.972596 0.000000 1.000000
tan 0.000000 -0.961932 0.000000 1.000000
tan 0.000000 -0.972596 0.000000 1.000000
tan 0.000000 -0.961932 0.000000 1.000000
tan -0.002294 -0.960630 0.007564 1.000000
tan -0.011470 -0.961932 0.037510 1.000000
tan -0.007626 -0.972596 0.002046 1.000000
tan 0.006882 -0.961932 -0.022506 1.000000
tan -0.041230 -0.996652 0.036890 1.000000
tan 0.007874 -0.961932 0.000248 1.000000
tan 0.014756 -0.961932 -0.022258 1.000000
tan 0.007874 -1.000000 0.000000 1.000000
tan 0.000000 -0.996652 0.000000 1.000000
tan 0.000000 -0.961932 0.000000 1.000000
tan 0.000000 -0.961932 0.000000 1.000000
tan 0.001302 -0.961932 -0.030256 1.000000
tan 0.600781 -0.591171 -0.537541 1.000000
tan 0.941968 -0.126480 0.250666 1.000000
tan 1.000000 0.001116 -0.070866 1.000000
tan 0.606671 -0.580011 0.542811 1.000000
tan 0.960630 -0.275591 0.000000 1.000000
tan 1.000000 0.078740 -0.000000 1.000000
tan 1.000000 -0.000000 -0.007874 1.000000
tan 1.000000 0.078740 -0.000000 1.000000
tan 0.000000 1.000000 0.055118 1.000000
tan 1.000000 0.000000 0.015748 1.000000
tan 0.000000 1.000000 -0.055118 1.000000
tan 1.000000 -0.000000 -0.062992 1.000000
tan 0.000000 0.937008 0.354331 1.000000
tan 0.992126 0.133858 -0.000000 1.000000
tan 1.000000 0.000000 0.078740 1.000000
tan 0.984252 -0.173228 0.000000 1.000000
tan 0.000000 -0.937008 -0.346457 1.000000
tan 1.000000 -0.000000 -0.078740 1.000000
tan 0.000000 -0.937008 0.346457 1.000000
tan 0.984252 -0.157480 0.000000 1.000000
tan 1.000000 0.000000 0.055118 1.000000
tan 0.992126 0.149606 -0.000000 1.000000
tan 0.000000 0.937008 -0.354331 1.000000
tan 0.214272 -0.674561 -0.682497 1.000000
tan 0.244032 -0.942092 -0.065472 1.000000
tan -0.255751 -0.119226 -0.953252 1.000000
tan -0.014508 -0.272305 -0.924422 1.000000
tan -0.095914 -0.719821 -0.640585 1.000000
tan -0.204228 -0.003100 -0.937938 1.000000
tan -0.564325 0.789571 -0.151404 1.000000
tan -0.032612 0.681567 -0.707731 1.000000
tan -0.217000 -0.098704 -0.961002 1.000000
tan -0.613801 -0.502201 -0.613801 1.000000
tan -0.637981 -0.238081 -0.719201 1.000000
tan -0.391345 0.206832 -0.837250 1.000000
tan 0.180234 0.886850 -0.438279 1.000000
tan -0.259843 0.053382 -0.968504 1.000000
tan 0.558311 0.472193 -0.674065 1.000000
tan 0.930374 -0.268957 -0.249612 1.000000
tan 0.142352 -0.824602 -0.487817 1.000000
tan 0.968690 -0.103602 -0.115320 1.000000
tan 0.960878 -0.099138 -0.257796 1.000000
tan 0.005890 -0.961932 -0.045260 1.000000
tan 0.976502 0.127224 -0.124000 1.000000
tan 0.714737 0.389299 0.568169 1.000000
tan 0.373861 0.848162 0.373861 1.000000
tan 0.953066 -0.279063 -0.098332 1.000000
tan 0.095852 -0.901916 0.337839 1.000000
tan 0.793106 -0.551119 0.212784 1.000000
tan 0.907496 -0.345217 0.243474 1.000000
tan 0.921570 0.390911 -0.068386 1.000000
tan 0.124496 0.945254 -0.120032 1.000000
tan 0.546841 0.636121 -0.546841 1.000000
tan 0.652861 0.390601 -0.652861 1.000000
tan 0.904954 -0.082584 -0.127968 1.000000
tan -0.992126 -0.000000 -0.125984 1.000000
tan -0.960630 -0.275591 0.000000 1.000000
tan -0.606671 -0.580011 0.542811 1.000000
tan -1.000000 0.086614 -0.000000 1.000000
tan -0.003596 -0.961932 0.037758 1.000000
tan -1.000000 0.000000 0.023622 1.000000
tan 0.000000 1.000000 -0.047244 1.000000
tan -0.992126 0.001364 0.086614 1.000000
tan -0.600781 -0.597061 -0.537541 1.000000
tan -0.952756 -0.291339 0.000000 1.000000
tan -1.000000 0.070866 -0.000000 1.000000
tan -1.000000 -0.000000 -0.007874 1.000000
tan 0.000000 1.000000 0.055118 1.000000
tan -1.000000 0.000000 0.062992 1.000000
tan 0.000000 0.937008 -0.354331 1.000000
tan -0.992126 0.149606 -0.000000 1.000000
tan -0.984252 -0.157480 0.000000 1.000000
tan -1.000000 -0.000000 -0.078740 1.000000
tan 0.000000 -0.937008 0.354331 1.000000
tan 0.000000 -0.937008 -0.346457 1.000000
tan -1.000000 0.000000 0.078740 1.000000
tan -0.984252 -0.173228 0.000000 1.000000
tan -0.992126 0.133858 -0.000000 1.000000
tan -1.000000 -0.000000 -0.055118 1.000000
tan 0.000000 0.937008 0.362205 1.000000
tan -0.992126 -0.000000 -0.125984 1.000000
tan -0.960630 -0.275591 0.000000 1.000000
tan -0.167462 -0.787091 0.547647 1.000000
tan -1.000000 0.086614 -0.000000 1.000000
tan -0.322029 -0.899994 0.018724 1.000000
tan -1.000000 0.000000 0.023622 1.000000
tan 0.000000 1.000000 -0.047244 1.000000
tan -0.992126 0.000744 0.094488 1.000000
tan -0.165168 -0.794594 -0.540145 1.000000
tan -0.952756 -0.291339 0.000000 1.000000
tan -1.000000 0.070866 -0.000000 1.000000
tan -1.000000 -0.000000 -0.007874 1.000000
tan 0.000000 1.000000 0.055118 1.000000
tan -1.000000 0.000000 0.062992 1.000000
tan 0.000000 0.937008 -0.354331 1.000000
tan -0.992126 0.149606 -0.000000 1.000000
tan -0.984252 -0.157480 0.000000 1.000000
tan -1.000000 -0.000000 -0.078740 1.000000
tan 0.000000 -0.937008 0.354331 1.000000
tan 0.000000 -0.937008 -0.346457 1.000000
tan -1.000000 0.000000 0.078740 1.000000
tan -0.984252 -0.173228 0.000000 1.000000
tan -0.992126 0.125984 -0.000000 1.000000
tan -1.000000 -0.000000 -0.055118 1.000000
tan 0.000000 0.937008 0.362205 1.000000
tan 0.000000 0.937008 -0.354331 1.000000
tan 1.000000 0.000000 0.055118 1.000000
tan 0.992126 0.149606 -0.000000 1.000000
tan 0.000000 1.000000 -0.055118 1.000000
tan 0.984252 -0.157480 0.000000 1.000000
tan 1.000000 0.000000 0.015748 1.000000
tan 1.000000 0.078740 -0.000000 1.000000
tan 1.000000 -0.000000 -0.078740 1.000000
tan 0.000000 -0.937008 0.346457 1.000000
tan 0.000000 -0.937008 -0.346457 1.000000
tan 1.000000 0.000000 0.078740 1.000000
tan 0.984252 -0.173228 0.000000 1.000000
tan 0.992126 0.133858 -0.000000 1.000000
tan 1.000000 -0.000000 -0.062992 1.000000
tan 0.000000 0.937008 0.354331 1.000000
tan 0.000000 1.000000 0.055118 1.000000
tan 1.000000 -0.000000 -0.007874 1.000000
tan 1.000000 0.078740 -0.000000 1.000000
tan 1.000000 0.000620 -0.078740 1.000000
tan 0.960630 -0.275591 0.000000 1.000000
tan 0.167462 -0.787091 0.547647 1.000000
tan 0.009176 -0.961932 -0.030008 1.000000
tan 0.992126 0.000000 0.141732 1.000000
tan 0.960630 -0.291339 0.000000 1.000000
tan 0.165168 -0.794594 -0.540145 1.000000
tan -0.037324 -0.787401 -0.614173 1.000000
tan 0.006634 -0.842520 0.543307 1.000000
tan 0.007006 -0.889764 -0.464567 1.000000
tan 0.007006 -0.889764 0.456693 1.000000
tan -0.937008 -0.346457 0.002728 1.000000
tan -0.984252 -0.165354 0.001302 1.000000
tan -0.944882 0.330709 -0.002604 1.000000
tan -0.897638 -0.433071 0.052886 1.000000
tan -0.984252 0.181102 -0.001426 1.000000
tan -0.937814 -0.003286 -0.007130 1.000000
tan -0.937814 0.003286 0.007130 1.000000
tan 0.007006 0.889764 -0.464567 1.000000
tan 0.006634 0.842520 -0.543307 1.000000
tan 0.006634 0.842520 0.543307 1.000000
tan -1.000000 0.000000 0.007874 1.000000
tan 0.007006 0.889764 0.456693 1.000000
tan -0.937008 0.346457 0.002728 1.000000
tan -0.897638 0.433071 -0.052886 1.000000
tan -0.897638 0.433071 0.052886 1.000000
tan -1.000000 -0.000000 -0.015748 1.000000
tan -0.937814 0.003286 -0.007130 1.000000
tan -0.984252 0.165354 0.001302 1.000000
tan -0.952756 -0.307087 -0.017422 1.000000
tan -0.984252 -0.181102 -0.001426 1.000000
tan -0.937814 -0.003286 0.007130 1.000000
tan -1.000000 0.000000 0.007874 1.000000
tan -0.897638 -0.433071 -0.052886 1.000000
tan -1.000000 -0.000000 -0.015748 1.000000
f 3/3/3 2/2/2 1/1/1
f 4/4/4 1/1/1 2/2/2
f 1/1/1 4/4/4 5/5/5
f 6/6/6 5/5/5 4/4/4
f 6/6/6 7/7/7 5/5/5
f 5/5/5 7/7/7 8/8/8
f 7/7/7 9/9/9 8/8/8
f 8/8/8 9/9/9 10/10/10
f 9/9/9 11/11/11 10/10/10
f 10/10/10 11/11/11 12/12/12
f 12/12/12 11/11/11 13/13/13
f 14/14/14 13/13/13 11/11/11
f 13/13/13 14/14/14 15/15/15
f 16/16/16 15/15/15 14/14/14
f 16/16/16 17/17/17 15/15/15
f 15/15/15 17/17/17 18/18/18
f 21/21/21 20/20/20 19/19/19
f 22/22/22 19/19/19 20/20/20
f 19/19/19 22/22/22 23/23/23
f 24/24/24 23/23/23 22/22/22
f 24/24/24 25/25/25 23/23/23
f 23/23/23 25/25/25 26/26/26
f 25/25/25 27/27/27 26/26/26
f 26/26/26 27/27/27 28/28/28
f 27/27/27 29/29/29 28/28/28
f 28/28/28 29/29/29 30/30/30
f 30/30/30 29/29/29 31/31/31
f 32/32/32 31/31/31 29/29/29
f 31/31/31 32/32/32 33/33/33
f 34/34/34 33/33/33 32/32/32
f 34/34/34 35/35/35 33/33/33
f 33/33/33 35/35/35 36/36/36
f 39/39/39 38/38/38 37/37/37
f 37/37/37 40/40/40 39/39/39
f 41/41/41 39/39/39 40/40/40
f 37/37/37 42/42/42 40/40/40
f 41/41/41 40/40/40 43/43/43
f 44/44/44 40/40/40 42/42/42
f 40/40/40 45/45/45 43/43/43
f 40/40/40 44/44/44 45/45/45
f 48/48/48 47/47/47 46/46/46
f 46/46/46 49/49/49 48/48/48
f 50/50/50 48/48/48 49/49/49
f 46/46/46 51/51/51 49/49/49
f 50/50/50 49/49/49 52/52/52
f 53/53/53 49/49/49 51/51/51
f 49/49/49 54/54/54 52/52/52
f 49/49/49 53/53/53 54/54/54
f 57/57/57 56/56/56 55/55/55
f 58/58/58 57/57/57 55/55/55
f 58/58/58 59/59/59 57/57/57
f 57/57/57 59/59/59 60/60/60
f 61/61/61 60/60/60 59/59/59
f 59/59/59 62/62/62 61/61/61
f 62/62/62 63/63/63 61/61/61
f 61/61/61 63/63/63 64/64/64
f 65/65/65 64/64/64 63/63/63
f 63/63/63 66/66/66 65/65/65
f 66/66/66 67/67/67 65/65/65
f 66/66/66 68/68/68 67/67/67
f 67/67/67 68/68/68 69/69/69
f 70/70/70 69/69/69 68/68/68
f 69/69/69 70/70/70 71/71/71
f 72/72/72 71/71/71 70/70/70
f 73/73/73 71/71/71 72/72/72
f 72/72/72 74/74/74 73/73/73
f 73/73/73 74/74/74 75/75/75
f 76/76/76 75/75/75 74/74/74
f 75/75/75 76/76/76 77/77/77
f 78/78/78 77/77/77 76/76/76
f 78/78/78 79/79/79 77/77/77
f 77/77/77 79/79/79 80/80/80
f 80/80/80 79/79/79 81/81/81
f 82/82/82 81/81/81 79/79/79
f 82/82/82 83/83/83 81/81/81
f 81/81/81 83/83/83 84/84/84
f 84/84/84 83/83/83 85/85/85
f 83/83/83 86/86/86 85/85/85
f 89/89/89 88/88/88 87/87/87
f 90/90/90 89/89/89 87/87/87
f 91/91/91 89/89/89 90/90/90
f 92/92/92 89/89/89 91/91/91
f 92/92/92 91/91/91 93/93/93
f 94/94/94 93/93/93 91/91/91
f 95/95/95 93/93/93 94/94/94
f 96/96/96 93/93/93 95/95/95
f 96/96/96 95/95/95 97/97/97
f 98/98/98 97/97/97 95/95/95
f 97/97/97 98/98/98 99/99/99
f 100/100/100 99/99/99 98/98/98
f 101/101/101 99/99/99 100/100/100
f 100/100/100 102/102/102 101/101/101
f 102/102/102 103/103/103 101/101/101
f 104/104/104 101/101/101 103/103/103
f 104/104/104 103/103/103 105/105/105
f 106/106/106 105/105/105 103/103/103
f 107/107/107 105/105/105 106/106/106
f 107/107/107 106/106/106 108/108/108
f 109/109/109 107/107/107 108/108/108
f 108/108/108 110/110/110 109/109/109
f 111/111/111 109/109/109 110/110/110
f 112/112/112 109/109/109 111/111/111
f 113/113/113 112/112/112 111/111/111
f 111/111/111 114/114/114 113/113/113
f 115/115/115 113/113/113 114/114/114
f 116/116/116 113/113/113 115/115/115
f 116/116/116 115/115/115 117/117/117
f 115/115/115 118/118/118 117/117/117
f 121/121/121 120/120/120 119/119/119
f 121/121/121 122/122/122 120/120/120
f 123/123/123 122/122/122 121/121/121
f 124/124/124 123/123/123 121/121/121
f 124/124/124 121/121/121 125/125/125
f 126/126/126 124/124/124 125/125/125
f 127/127/127 124/124/124 126/126/126
f 127/127/127 126/126/126 128/128/128
f 126/126/126 129/129/129 128/128/128
f 130/130/130 128/128/128 129/129/129
f 131/131/131 128/128/128 130/130/130
f 132/132/132 131/131/131 130/130/130
f 133/133/133 131/131/131 132/132/132
f 134/134/134 133/133/133 132/132/132
f 135/135/135 133/133/133 134/134/134
f 135/135/135 134/134/134 136/136/136
f 137/137/137 136/136/136 134/134/134
f 134/134/134 138/138/138 137/137/137
f 137/137/137 139/139/139 136/136/136
f 140/140/140 136/136/136 139/139/139
f 140/140/140 141/141/141 136/136/136
f 142/142/142 141/141/141 140/140/140
f 143/143/143 141/141/141 142/142/142
f 144/144/144 143/143/143 142/142/142
f 142/142/142 145/145/145 144/144/144
f 146/146/146 144/144/144 145/145/145
f 145/145/145 147/147/147 146/146/146
f 148/148/148 146/146/146 147/147/147
f 148/148/148 147/147/147 149/149/149
f 147/147/147 150/150/150 149/149/149
f 149/149/149 151/151/151 148/148/148
f 148/148/148 151/151/151 152/152/152
f 151/151/151 149/149/149 153/153/153
f 150/150/150 153/153/153 149/149/149
f 154/154/154 152/152/152 151/151/151
f 154/154/154 155/155/155 152/152/152
f 154/154/154 156/156/156 155/155/155
f 155/155/155 156/156/156 157/157/157
f 158/158/158 157/157/157 156/156/156
f 138/138/138 157/157/157 158/158/158
f 158/158/158 159/159/159 138/138/138
f 137/137/137 138/138/138 159/159/159
f 137/137/137 159/159/159 160/160/160
f 153/153/153 160/160/160 159/159/159
f 150/150/150 160/160/160 153/153/153
f 139/139/139 137/137/137 160/160/160
f 150/150/150 139/139/139 160/160/160
f 163/163/163 162/162/162 161/161/161
f 161/161/161 164/164/164 163/163/163
f 165/165/165 164/164/164 161/161/161
f 165/165/165 166/166/166 164/164/164
f 164/164/164 166/166/166 167/167/167
f 163/163/163 164/164/164 168/168/168
f 168/168/168 169/169/169 163/163/163
f 168/168/168 170/170/170 169/169/169
f 167/167/167 171/171/171 164/164/164
f 171/171/171 168/168/168 164/164/164
f 167/167/167 172/172/172 171/171/171
f 170/170/170 168/168/168 173/173/173
f 173/173/173 174/174/174 170/170/170
f 175/175/175 174/174/174 173/173/173
f 176/176/176 173/173/173 168/168/168
f 173/173/173 176/176/176 175/175/175
f 168/168/168 171/171/171 176/176/176
f 177/177/177 175/175/175 176/176/176
f 177/177/177 176/176/176 178/178/178
f 176/176/176 179/179/179 178/178/178
f 179/179/179 176/176/176 171/171/171
f 180/180/180 178/178/178 179/179/179
f 180/180/180 179/179/179 181/181/181
f 182/182/182 179/179/179 171/171/171
f 179/179/179 182/182/182 181/181/181
f 171/171/171 172/172/172 182/182/182
f 183/183/183 181/181/181 182/182/182
f 184/184/184 182/182/182 172/172/172
f 183/183/183 182/182/182 184/184/184
f 187/187/187 186/186/186 185/185/185
f 185/185/185 188/188/188 187/187/187
f 189/189/189 186/186/186 187/187/187
f 190/190/190 187/187/187 188/188/188
f 188/188/188 191/191/191 190/190/190
f 191/191/191 192/192/192 190/190/190
f 189/189/189 187/187/187 193/193/193
f 193/193/193 187/187/187 190/190/190
f 194/194/194 189/189/189 193/193/193
f 195/195/195 194/194/194 193/193/193
f 192/192/192 196/196/196 190/190/190
f 193/193/193 190/190/190 196/196/196
f 193/193/193 196/196/196 195/195/195
f 192/192/192 197/197/197 196/196/196
f 198/198/198 195/195/195 196/196/196
f 196/196/196 197/197/197 199/199/199
f 198/198/198 196/196/196 199/199/199
f 202/202/202 201/201/201 200/200/200
f 202/202/202 200/200/200 203/203/203
f 201/201/201 202/202/202 204/204/204
f 202/202/202 203/203/203 205/205/205
f 206/206/206 205/205/205 203/203/203
f 207/207/207 205/205/205 206/206/206
f 208/208/208 204/204/204 202/202/202
f 205/205/205 208/208/208 202/202/202
f 208/208/208 209/209/209 204/204/204
f 209/209/209 208/208/208 210/210/210
f 210/210/210 208/208/208 211/211/211
f 205/205/205 207/207/207 212/212/212
f 205/205/205 212/212/212 208/208/208
f 213/213/213 212/212/212 207/207/207
f 212/212/212 213/213/213 214/214/214
f 212/212/212 214/214/214 215/215/215
f 216/216/216 211/211/211 208/208/208
f 215/215/215 211/211/211 216/216/216
f 208/208/208 212/212/212 216/216/216
f 216/216/216 212/212/212 215/215/215
f 219/219/219 218/218/218 217/217/217
f 217/217/217 218/218/218 220/220/220
f 219/219/219 217/217/217 221/221/221
f 220/220/220 222/222/222 217/217/217
f 220/220/220 223/223/223 222/222/222
f 224/224/224 221/221/221 217/217/217
f 222/222/222 224/224/224 217/217/217
f 224/224/224 225/225/225 221/221/221
f 224/224/224 226/226/226 225/225/225
f 226/226/226 224/224/224 227/227/227
f 228/228/228 227/227/227 224/224/224
f 222/222/222 228/228/228 224/224/224
f 228/228/228 229/229/229 227/227/227
f 222/222/222 223/223/223 230/230/230
f 231/231/231 230/230/230 223/223/223
f 232/232/232 230/230/230 231/231/231
f 232/232/232 233/233/233 230/230/230
f 230/230/230 234/234/234 222/222/222
f 233/233/233 234/234/234 230/230/230
f 222/222/222 234/234/234 228/228/228
f 235/235/235 234/234/234 233/233/233
f 235/235/235 236/236/236 234/234/234
f 237/237/237 234/234/234 236/236/236
f 228/228/228 234/234/234 237/237/237
f 238/238/238 237/237/237 236/236/236
f 238/238/238 239/239/239 237/237/237
f 237/237/237 240/240/240 228/228/228
f 239/239/239 240/240/240 237/237/237
f 229/229/229 228/228/228 240/240/240
f 239/239/239 241/241/241 240/240/240
f 240/240/240 241/241/241 229/229/229
f 244/244/244 243/243/243 242/242/242
f 242/242/242 243/243/243 245/245/245
f 244/244/244 242/242/242 246/246/246
f 245/245/245 247/247/247 242/242/242
f 245/245/245 248/248/248 247/247/247
f 249/249/249 246/246/246 242/242/242
f 247/247/247 249/249/249 242/242/242
f 249/249/249 250/250/250 246/246/246
f 249/249/249 251/251/251 250/250/250
f 251/251/251 249/249/249 252/252/252
f 253/253/253 252/252/252 249/249/249
f 247/247/247 253/253/253 249/249/249
f 253/253/253 254/254/254 252/252/252
f 247/247/247 248/248/248 255/255/255
f 256/256/256 255/255/255 248/248/248
f 257/257/257 255/255/255 256/256/256
f 257/257/257 258/258/258 255/255/255
f 255/255/255 259/259/259 247/247/247
f 258/258/258 259/259/259 255/255/255
f 247/247/247 259/259/259 253/253/253
f 260/260/260 259/259/259 258/258/258
f 260/260/260 261/261/261 259/259/259
f 262/262/262 259/259/259 261/261/261
f 253/253/253 259/259/259 262/262/262
f 263/263/263 262/262/262 261/261/261
f 263/263/263 264/264/264 262/262/262
f 262/262/262 265/265/265 253/253/253
f 264/264/264 265/265/265 262/262/262
f 254/254/254 253/253/253 265/265/265
f 264/264/264 266/266/266 265/265/265
f 265/265/265 266/266/266 254/254/254
f 269/269/269 268/268/268 267/267/267
f 267/267/267 268/268/268 270/270/270
f 269/269/269 271/271/271 268/268/268
f 272/272/272 270/270/270 268/268/268
f 273/273/273 270/270/270 272/272/272
f 274/274/274 268/268/268 271/271/271
f 268/268/268 274/274/274 272/272/272
f 275/275/275 274/274/274 271/271/271
f 275/275/275 276/276/276 274/274/274
f 277/277/277 274/274/274 276/276/276
f 274/274/274 277/277/277 272/272/272
f 278/278/278 277/277/277 276/276/276
f 278/278/278 279/279/279 277/277/277
f 280/280/280 277/277/277 279/279/279
f 279/279/279 281/281/281 280/280/280
f 280/280/280 281/281/281 282/282/282
f 277/277/277 280/280/280 283/283/283
f 282/282/282 283/283/283 280/280/280
f 283/283/283 272/272/272 277/277/277
f 283/283/283 282/282/282 284/284/284
f 272/272/272 283/283/283 285/285/285
f 273/273/273 272/272/272 285/285/285
f 285/285/285 286/286/286 273/273/273
f 287/287/287 286/286/286 285/285/285
f 287/287/287 285/285/285 288/288/288
f 283/283/283 284/284/284 289/289/289
f 289/289/289 285/285/285 283/283/283
f 288/288/288 285/285/285 289/289/289
f 290/290/290 289/289/289 284/284/284
f 289/289/289 291/291/291 288/288/288
f 289/289/289 290/290/290 291/291/291
f 294/294/294 293/293/293 292/292/292
f 293/293/293 294/294/294 295/295/295
f 296/296/296 293/293/293 295/295/295
f 296/296/296 295/295/295 297/297/297
f 297/297/297 298/298/298 296/296/296
f 299/299/299 295/295/295 294/294/294
f 298/298/298 297/297/297 300/300/300
f 297/297/297 295/295/295 301/301/301
f 299/299/299 301/301/301 295/295/295
f 302/302/302 300/300/300 297/297/297
f 301/301/301 302/302/302 297/297/297
f 300/300/300 303/303/303 298/298/298
f 300/300/300 302/302/302 303/303/303
f 304/304/304 298/298/298 303/303/303
f 303/303/303 305/305/305 304/304/304
f 302/302/302 301/301/301 306/306/306
f 305/305/305 303/303/303 307/307/307
f 305/305/305 307/307/307 308/308/308
f 309/309/309 303/303/303 302/302/302
f 306/306/306 309/309/309 302/302/302
f 309/309/309 310/310/310 303/303/303
f 310/310/310 307/307/307 303/303/303
f 311/311/311 310/310/310 309/309/309
f 309/309/309 306/306/306 311/311/311
f 310/310/310 312/312/312 307/307/307
f 311/311/311 312/312/312 310/310/310
f 313/313/313 308/308/308 307/307/307
f 313/313/313 307/307/307 312/312/312
f 313/313/313 314/314/314 308/308/308
f 314/314/314 313/313/313 315/315/315
f 313/313/313 312/312/312 315/315/315
f 315/315/315 294/294/294 314/314/314
f 316/316/316 315/315/315 312/312/312
f 294/294/294 315/315/315 316/316/316
f 311/311/311 317/317/317 312/312/312
f 317/317/317 316/316/316 312/312/312
f 311/311/311 306/306/306 317/317/317
f 294/294/294 316/316/316 318/318/318
f 317/317/317 318/318/318 316/316/316
f 318/318/318 299/299/299 294/294/294
f 319/319/319 317/317/317 306/306/306
f 317/317/317 319/319/319 318/318/318
f 299/299/299 318/318/318 319/319/319
f 301/301/301 319/319/319 306/306/306
f 301/301/301 299/299/299 319/319/319
