mtllib SM_Big_Burger_Ring_01_LOD1.mtl
g SM_Big_Burger_Ring_01_LOD1
#Vertices 576
#Indices 1860
#Section 0 Offset 0 NumIndices 1860 MaterialIndex 0 MI_Burger_Hologram_02
v -0.876234 1.476895 -0.270357
v -0.932055 1.439859 -0.136557
v -0.936555 1.447019 -0.136451
v -0.872120 1.469545 -0.269608
v -0.800345 1.496582 -0.398091
v -0.796716 1.489107 -0.396525
v -0.710187 1.505743 -0.517463
v -0.707134 1.498208 -0.515135
v -0.607300 1.504219 -0.626434
v -0.604905 1.496695 -0.623409
v -0.493447 1.492039 -0.723137
v -0.491780 1.484592 -0.719494
v -0.370575 1.469408 -0.805919
v -0.369693 1.462106 -0.801746
v -0.240786 1.436716 -0.873362
v -0.240734 1.429623 -0.868759
v -0.107110 1.387699 -0.919384
v -0.106303 1.394521 -0.924313
v -0.244137 1.422537 -0.871873
v -0.110513 1.380612 -0.922499
v 0.028895 1.337050 -0.952757
v 0.025491 1.329963 -0.955872
v 0.164951 1.278542 -0.968306
v 0.161547 1.271455 -0.971420
v 0.298732 1.213178 -0.965765
v 0.295328 1.206091 -0.968879
v 0.427948 1.142075 -0.945177
v 0.424544 1.134988 -0.948291
v 0.550388 1.066451 -0.906895
v 0.546985 1.059365 -0.910009
v 0.663958 0.987599 -0.851574
v 0.660554 0.980513 -0.854688
v -0.943361 1.432844 -0.142679
v -0.887154 1.470071 -0.277336
v -0.947861 1.440003 -0.142572
v -0.883041 1.462722 -0.276586
v -0.810780 1.489884 -0.405885
v -0.807152 1.482409 -0.404319
v -0.720045 1.499103 -0.526020
v -0.716993 1.491569 -0.523692
v -0.616501 1.497570 -0.635688
v -0.614106 1.490046 -0.632663
v -0.501920 1.485311 -0.733009
v -0.500253 1.477865 -0.729365
v -0.378264 1.462537 -0.816319
v -0.377381 1.455235 -0.812147
v -0.247645 1.429636 -0.884193
v -0.247593 1.422543 -0.879590
v -0.113109 1.380349 -0.930542
v -0.112302 1.387172 -0.935471
v -0.108899 1.394259 -0.932356
v -0.244242 1.436722 -0.881079
v 0.028856 1.342958 -0.966158
v 0.025452 1.335871 -0.969273
v 0.166662 1.283698 -0.981907
v 0.163258 1.276611 -0.985021
v 0.302164 1.217493 -0.979333
v 0.298760 1.210407 -0.982448
v 0.433042 1.145476 -0.958481
v 0.429639 1.138389 -0.961595
v 0.557058 1.068878 -0.919706
v 0.553654 1.061792 -0.922821
v 0.672088 0.989012 -0.863674
v 0.668685 0.981926 -0.866788
v 0.776166 0.907242 -0.791342
v 0.672088 0.989012 -0.863674
v 0.668685 0.981926 -0.866788
v 0.772763 0.900156 -0.794456
v 0.867511 0.824970 -0.703947
v 0.864108 0.817883 -0.707061
v 0.944559 0.743601 -0.602986
v 0.941155 0.736514 -0.606100
v 1.005991 0.664527 -0.490186
v 1.002588 0.657441 -0.493300
v 1.047355 0.582017 -0.370590
v 1.050758 0.589103 -0.367476
v 1.074689 0.511533 -0.240071
v 1.078093 0.518620 -0.236957
v 1.084124 0.447194 -0.103976
v 1.087528 0.454281 -0.100862
v 1.075526 0.390146 0.030105
v 1.078901 0.397188 0.038482
v 1.048958 0.341233 0.175575
v 1.052361 0.348320 0.178689
v 1.004959 0.301424 0.314246
v 1.008362 0.308510 0.317360
v 1.047583 0.355226 0.179676
v 1.003863 0.315669 0.317466
v 0.766714 0.906869 -0.780160
v 0.660554 0.980513 -0.854688
v 0.663958 0.987599 -0.851574
v 0.763310 0.899782 -0.783275
v 0.856898 0.825640 -0.693876
v 0.853495 0.818554 -0.696990
v 0.932967 0.745305 -0.594198
v 0.929564 0.738218 -0.597311
v 0.993900 0.668673 -0.481860
v 0.990216 0.660150 -0.485944
v 1.034414 0.585684 -0.364793
v 1.037818 0.592770 -0.361678
v 1.061402 0.516095 -0.235931
v 1.064805 0.523181 -0.232817
v 1.070717 0.452573 -0.101565
v 1.074121 0.459660 -0.098451
v 1.062200 0.396206 0.036009
v 1.065604 0.403292 0.039123
v 1.035998 0.347959 0.174435
v 1.039401 0.355045 0.177549
v 0.995961 0.315741 0.314459
v 0.992557 0.308654 0.311345
v 0.997056 0.301496 0.311238
v 1.040776 0.341052 0.173448
v 0.947657 0.278443 0.452123
v 1.003863 0.315669 0.317466
v 1.008362 0.308510 0.317360
v 0.939657 0.286455 0.457166
v 0.871282 0.258629 0.580673
v 0.867653 0.266105 0.579108
v 0.780547 0.249411 0.700809
v 0.777495 0.256945 0.698480
v 0.677003 0.250943 0.810475
v 0.674609 0.258468 0.807450
v 0.562423 0.263202 0.907796
v 0.560756 0.270649 0.904153
v 0.438765 0.285977 0.991108
v 0.437883 0.293279 0.986935
v 0.308147 0.318878 1.058982
v 0.308095 0.325971 1.054379
v 0.173611 0.368165 1.105329
v 0.172804 0.361341 1.110258
v 0.169401 0.354255 1.107144
v 0.304744 0.311791 1.055867
v 0.031646 0.405556 1.140946
v 0.035050 0.412643 1.144060
v -0.106160 0.464816 1.156695
v -0.102757 0.471903 1.159810
v 0.936736 0.271619 0.445146
v 0.997056 0.301496 0.311238
v 0.992557 0.308654 0.311345
v 0.932622 0.278969 0.444396
v 0.860847 0.251931 0.572879
v 0.857218 0.259407 0.571313
v 0.770687 0.242771 0.692252
v 0.767636 0.250306 0.689923
v 0.667801 0.244294 0.801222
v 0.665407 0.251820 0.798196
v 0.553949 0.256476 0.897924
v 0.552282 0.263923 0.894281
v 0.431076 0.279106 0.980706
v 0.430194 0.286407 0.976534
v 0.301288 0.311797 1.048150
v 0.301236 0.318890 1.043546
v 0.167612 0.360815 1.094172
v 0.166804 0.353991 1.099101
v 0.304639 0.325976 1.046661
v 0.171015 0.367901 1.097286
v 0.031607 0.411465 1.127545
v 0.035010 0.418551 1.130659
v -0.104449 0.469972 1.143094
v -0.101046 0.477059 1.146208
v -0.101046 0.477059 1.146208
v -0.238230 0.535336 1.140553
v -0.104449 0.469972 1.143094
v -0.234827 0.542422 1.143667
v -0.367446 0.606438 1.119965
v -0.364888 0.615368 1.131288
v -0.234841 0.543808 1.152008
v -0.364043 0.613524 1.123080
v -0.489887 0.682062 1.081683
v -0.488117 0.691479 1.092760
v -0.486484 0.689149 1.084797
v -0.603457 0.760915 1.026362
v -0.602416 0.770838 1.037083
v -0.600053 0.768001 1.029476
v -0.706213 0.841645 0.954949
v -0.705833 0.852088 0.965210
v -0.702809 0.848732 0.958063
v -0.796397 0.922874 0.868664
v -0.796598 0.933839 0.878370
v -0.792993 0.929960 0.871778
v -0.872466 1.003209 0.768985
v -0.873157 1.014693 0.778051
v -0.902575 1.049901 0.718583
v -0.933118 1.081279 0.657617
v -0.934199 1.093263 0.665966
v -0.973913 1.162831 0.539581
v -0.977317 1.155744 0.536467
v -0.978682 1.168209 0.544036
v -1.000901 1.232420 0.410720
v -1.004304 1.225333 0.407605
v -1.005843 1.238245 0.414346
v -1.010215 1.295941 0.276352
v -1.013619 1.288854 0.273238
v -1.015218 1.302174 0.279115
v -1.001699 1.352308 0.138779
v -1.006646 1.358904 0.140656
v -1.005102 1.345221 0.135664
v -0.980275 1.407462 0.001340
v -0.975496 1.400556 0.000353
v -0.936555 1.447019 -0.136451
v -0.978899 1.393469 -0.002761
v -0.932055 1.439859 -0.136557
v -0.935459 1.432772 -0.139671
v -0.872120 1.469545 -0.269608
v -0.875523 1.462459 -0.272723
v -0.800120 1.482020 -0.399639
v -0.796716 1.489107 -0.396525
v -2.041891 0.840551 0.646678
v -2.078738 0.867230 0.683876
v -2.063010 0.842847 0.689950
v -2.050800 0.873786 0.625477
v -1.988103 0.863684 0.595410
v -1.954899 0.915316 0.575934
v -1.934966 0.893180 0.586613
v -2.006195 0.892153 0.594113
v -1.883891 0.924882 0.604221
v -1.934512 0.932435 0.583357
v -1.897844 0.951441 0.599882
v -1.874685 0.974553 0.621699
v -0.883751 1.477158 -0.274221
v -0.810780 1.489884 -0.405885
v -0.807377 1.496972 -0.402771
v -0.887154 1.470071 -0.277336
v -0.947861 1.440003 -0.142572
v -0.944458 1.447090 -0.139458
v -0.987081 1.393288 -0.004888
v -0.943361 1.432844 -0.142679
v -0.991860 1.400194 -0.003901
v -0.988457 1.407282 -0.000787
v -1.013453 1.344730 0.134428
v -1.017615 1.356491 0.144841
v -1.024312 1.286560 0.274571
v -1.023623 1.301320 0.278763
v -1.016341 1.236301 0.416510
v -1.012649 1.224071 0.408118
v -0.990256 1.159411 0.542264
v -0.986853 1.166498 0.545378
v -0.985488 1.154035 0.537808
v -0.945490 1.083988 0.664973
v -0.942087 1.091074 0.668087
v -0.941006 1.079090 0.659738
v -0.880654 1.012001 0.780888
v -0.879963 1.000518 0.771822
v -0.884057 1.004915 0.777773
v -0.803606 0.930631 0.881849
v -0.803405 0.919666 0.872142
v -0.807010 0.923545 0.878735
v -0.712261 0.848358 0.969244
v -0.712640 0.837915 0.958982
v -0.715665 0.841271 0.966130
v -0.608184 0.766588 1.041576
v -0.609224 0.756665 1.030855
v -0.611587 0.759502 1.038462
v -0.493153 0.686722 1.097609
v -0.494923 0.677306 1.086532
v -0.496556 0.679636 1.094494
v -0.369137 0.610124 1.136383
v -0.371695 0.601195 1.125060
v -0.372540 0.603038 1.133269
v -0.241647 0.529635 1.145780
v -0.238259 0.538108 1.157235
v -0.241662 0.531021 1.154121
v -0.102757 0.471903 1.159810
v -0.106160 0.464816 1.156695
v -1.852359 0.998870 0.698833
v -1.846225 0.955637 0.647745
v -1.839548 0.971663 0.706042
v -1.874685 0.974553 0.621699
v -1.897844 0.951441 0.599882
v -1.883891 0.924882 0.604221
v -2.080052 0.871111 0.708927
v -2.063010 0.842847 0.689950
v -2.078738 0.867230 0.683876
v -2.067448 0.844782 0.715495
v -2.061404 0.844252 0.721409
v -2.043623 0.869197 0.793397
v -2.041891 0.840551 0.646678
v -1.885655 0.964147 0.803963
v -2.000069 0.901386 0.824579
v -1.947306 0.933593 0.828515
v -1.883891 0.924882 0.604221
v -1.988103 0.863684 0.595410
v -1.934966 0.893180 0.586613
v -1.839548 0.971663 0.706042
v -1.843821 0.977523 0.730271
v -1.846225 0.955637 0.647745
v -2.073763 0.886987 0.761991
v -2.067448 0.844782 0.715495
v -2.080052 0.871111 0.708927
v -2.043623 0.869197 0.793397
v -2.022036 0.892013 0.814376
v -2.037430 0.917407 0.810809
v -2.037430 0.917407 0.810809
v -1.930799 0.981008 0.818090
v -1.987219 0.950033 0.828099
v -1.877982 1.002912 0.767419
v -1.858475 0.999204 0.692851
v -1.856869 1.000608 0.724309
v -2.073763 0.886987 0.761991
v -1.839548 0.971663 0.706042
v -1.843821 0.977523 0.730271
v -1.852359 0.998870 0.698833
v -1.874685 0.974553 0.621699
v -1.934512 0.932435 0.583357
v -2.078738 0.867230 0.683876
v -2.080052 0.871111 0.708927
v -2.006195 0.892153 0.594113
v -2.050800 0.873786 0.625477
v -1.856869 1.000608 0.724309
v -1.843821 0.977523 0.730271
v -1.877982 1.002912 0.767419
v -1.870475 0.975347 0.786765
v -1.930799 0.981008 0.818090
v -1.885655 0.964147 0.803963
v -1.947160 0.937520 0.836956
v -1.987219 0.950033 0.828099
v -1.947306 0.933593 0.828515
v -2.037430 0.917407 0.810809
v -2.000069 0.901386 0.824579
v -2.022036 0.892013 0.814376
v -2.043623 0.869197 0.793397
v -0.720045 1.499103 -0.526020
v -0.807377 1.496972 -0.402771
v -0.810780 1.489884 -0.405885
v -0.716642 1.506190 -0.522906
v -0.616501 1.497570 -0.635688
v -0.800345 1.496582 -0.398091
v -0.876234 1.476895 -0.270357
v -0.710187 1.505743 -0.517463
v -0.883751 1.477158 -0.274221
v -0.607300 1.504219 -0.626434
v -0.936555 1.447019 -0.136451
v -0.944458 1.447090 -0.139458
v -0.988457 1.407282 -0.000787
v -0.980275 1.407462 0.001340
v -1.017615 1.356491 0.144841
v -1.006646 1.358904 0.140656
v -1.023623 1.301320 0.278763
v -1.015218 1.302174 0.279115
v -1.016341 1.236301 0.416510
v -1.005843 1.238245 0.414346
v -0.986853 1.166498 0.545378
v -0.978682 1.168209 0.544036
v -0.942087 1.091074 0.668087
v -0.934199 1.093263 0.665966
v -0.880654 1.012001 0.780888
v -0.873157 1.014693 0.778051
v -0.803606 0.930631 0.881849
v -0.796598 0.933839 0.878370
v -0.712261 0.848358 0.969244
v -0.705833 0.852088 0.965210
v -0.608184 0.766588 1.041576
v -0.602416 0.770838 1.037083
v -0.493153 0.686722 1.097609
v -0.488117 0.691479 1.092760
v -0.369137 0.610124 1.136383
v -0.364888 0.615368 1.131288
v -0.238259 0.538108 1.157235
v -0.234841 0.543808 1.152008
v -0.102757 0.471903 1.159810
v -0.101046 0.477059 1.146208
v -0.234827 0.542422 1.143667
v -0.100200 0.478023 1.154566
v 0.035050 0.412643 1.144060
v 0.035010 0.418551 1.130659
v 0.036732 0.419141 1.138917
v 0.172804 0.361341 1.110258
v 0.171015 0.367901 1.097286
v 0.173611 0.368165 1.105329
v 0.304639 0.325976 1.046661
v 0.308095 0.325971 1.054379
v 0.437883 0.293279 0.986935
v 0.430194 0.286407 0.976534
v 0.301236 0.318890 1.043546
v 0.433598 0.293494 0.979648
v 0.560756 0.270649 0.904153
v 0.552282 0.263923 0.894281
v 0.555685 0.271009 0.897395
v 0.674609 0.258468 0.807450
v 0.665407 0.251820 0.798196
v 0.723009 0.255488 0.749102
v 0.767636 0.250306 0.689923
v 0.777495 0.256945 0.698480
v 0.857218 0.259407 0.571313
v 0.860621 0.266494 0.574428
v 0.867653 0.266105 0.579108
v 0.932622 0.278969 0.444396
v 0.939657 0.286455 0.457166
v 0.995961 0.315741 0.314459
v 0.992557 0.308654 0.311345
v 1.003863 0.315669 0.317466
v 1.047583 0.355226 0.179676
v 1.039401 0.355045 0.177549
v 1.073954 0.403784 0.040360
v 1.052361 0.348320 0.178689
v 1.078901 0.397188 0.038482
v 1.065604 0.403292 0.039123
v 1.087528 0.454281 -0.100862
v 1.082526 0.460514 -0.098099
v 1.074121 0.459660 -0.098451
v 1.078093 0.518620 -0.236957
v 1.073151 0.524444 -0.233330
v 1.064805 0.523181 -0.232817
v 1.050758 0.589103 -0.367476
v 1.045990 0.594480 -0.363020
v 1.037818 0.592770 -0.361678
v 1.005991 0.664527 -0.490186
v 0.993900 0.668673 -0.481860
v 0.940464 0.747996 -0.597034
v 0.944559 0.743601 -0.602986
v 0.932967 0.745305 -0.594198
v 0.863906 0.828848 -0.697354
v 0.867511 0.824970 -0.703947
v 0.856898 0.825640 -0.693876
v 0.773142 0.910599 -0.784194
v 0.776166 0.907242 -0.791342
v 0.766714 0.906869 -0.780160
v 0.669725 0.991849 -0.856067
v 0.672088 0.989012 -0.863674
v 0.663958 0.987599 -0.851574
v 0.555425 1.071209 -0.911744
v 0.557058 1.068878 -0.919706
v 0.550388 1.066451 -0.906895
v 0.432196 1.147319 -0.950272
v 0.433042 1.145476 -0.958481
v 0.427948 1.142075 -0.945177
v 0.302149 1.218879 -0.970992
v 0.302164 1.217493 -0.979333
v 0.298732 1.213178 -0.965765
v 0.167508 1.284663 -0.973549
v 0.166662 1.283698 -0.981907
v 0.164951 1.278542 -0.968306
v 0.030576 1.343547 -0.957901
v 0.028856 1.342958 -0.966158
v 0.028895 1.337050 -0.952757
v -0.106303 1.394521 -0.924313
v -0.107110 1.387699 -0.919384
v -0.108899 1.394259 -0.932356
v -0.240786 1.436716 -0.873362
v -0.244242 1.436722 -0.881079
v -0.374860 1.469623 -0.813205
v -0.247645 1.429636 -0.884193
v -0.370575 1.469408 -0.805919
v -0.378264 1.462537 -0.816319
v -0.498517 1.492398 -0.729895
v -0.493447 1.492039 -0.723137
v -0.501920 1.485311 -0.733009
v -0.613098 1.504656 -0.632573
v 0.031607 0.411465 1.127545
v 0.166804 0.353991 1.099101
v 0.167612 0.360815 1.094172
v 0.029925 0.404967 1.132689
v -0.104449 0.469972 1.143094
v 0.031646 0.405556 1.140946
v 0.169401 0.354255 1.107144
v -0.106160 0.464816 1.156695
v 0.301288 0.311797 1.048150
v 0.304744 0.311791 1.055867
v -0.107007 0.463850 1.148337
v -0.241662 0.531021 1.154121
v -0.238230 0.535336 1.140553
v -0.241647 0.529635 1.145780
v -0.367446 0.606438 1.119965
v -0.371695 0.601195 1.125060
v -0.489887 0.682062 1.081683
v -0.494923 0.677306 1.086532
v -0.603457 0.760915 1.026362
v -0.609224 0.756665 1.030855
v -0.706213 0.841645 0.954949
v -0.712640 0.837915 0.958982
v -0.796397 0.922874 0.868664
v -0.803405 0.919666 0.872142
v -0.872466 1.003209 0.768985
v -0.879963 1.000518 0.771822
v -0.933118 1.081279 0.657617
v -0.941006 1.079090 0.659738
v -0.977317 1.155744 0.536467
v -0.985488 1.154035 0.537808
v -1.004304 1.225333 0.407605
v -1.012649 1.224071 0.408118
v -1.013619 1.288854 0.273238
v -1.024312 1.286560 0.274571
v -1.005102 1.345221 0.135664
v -1.013453 1.344730 0.134428
v -0.978899 1.393469 -0.002761
v -0.987081 1.393288 -0.004888
v -0.935459 1.432772 -0.139671
v -0.943361 1.432844 -0.142679
v -0.883041 1.462722 -0.276586
v -0.875523 1.462459 -0.272723
v -0.807152 1.482409 -0.404319
v -0.800120 1.482020 -0.399639
v -0.716993 1.491569 -0.523692
v -0.662503 1.493026 -0.574319
v -0.796716 1.489107 -0.396525
v -0.707134 1.498208 -0.515135
v -0.614106 1.490046 -0.632663
v -0.604905 1.496695 -0.623409
v -0.495183 1.477505 -0.722608
v -0.500253 1.477865 -0.729365
v -0.491780 1.484592 -0.719494
v -0.373097 1.455020 -0.804860
v -0.377381 1.455235 -0.812147
v -0.369693 1.462106 -0.801746
v -0.244137 1.422537 -0.871873
v -0.240734 1.429623 -0.868759
v -0.247593 1.422543 -0.879590
v -0.113109 1.380349 -0.930542
v -0.110513 1.380612 -0.922499
v 0.023770 1.329374 -0.964129
v -0.112302 1.387172 -0.935471
v 0.025491 1.329963 -0.955872
v 0.025452 1.335871 -0.969273
v 0.160701 1.270490 -0.979778
v 0.161547 1.271455 -0.971420
v 0.163258 1.276611 -0.985021
v 0.295343 1.204706 -0.977220
v 0.295328 1.206091 -0.968879
v 0.298760 1.210407 -0.982448
v 0.425390 1.133145 -0.956500
v 0.424544 1.134988 -0.948291
v 0.429639 1.138389 -0.961595
v 0.548618 1.057035 -0.917972
v 0.546985 1.059365 -0.910009
v 0.553654 1.061792 -0.922821
v 0.662918 0.977676 -0.862296
v 0.660554 0.980513 -0.854688
v 0.668685 0.981926 -0.866788
v 0.766336 0.896426 -0.790422
v 0.763310 0.899782 -0.783275
v 0.772763 0.900156 -0.794456
v 0.857100 0.814675 -0.703583
v 0.853495 0.818554 -0.696990
v 0.864108 0.817883 -0.707061
v 0.933658 0.733823 -0.603262
v 0.929564 0.738218 -0.597311
v 0.941155 0.736514 -0.606100
v 0.994700 0.655252 -0.491179
v 0.990216 0.660150 -0.485944
v 1.002588 0.657441 -0.493300
v 1.034414 0.585684 -0.364793
v 1.039183 0.580307 -0.369249
v 1.047355 0.582017 -0.370590
v 1.061402 0.516095 -0.235931
v 1.066344 0.510271 -0.239559
v 1.074689 0.511533 -0.240071
v 1.070717 0.452573 -0.101565
v 1.075719 0.446341 -0.104327
v 1.084124 0.447194 -0.103976
v 1.062200 0.396206 0.036009
v 1.075526 0.390146 0.030105
v 1.040776 0.341052 0.173448
v 1.035998 0.347959 0.174435
v 1.048958 0.341233 0.175575
v 0.997056 0.301496 0.311238
v 1.004959 0.301424 0.314246
v 0.944253 0.271356 0.449009
v 1.008362 0.308510 0.317360
v 0.947657 0.278443 0.452123
v 0.936736 0.271619 0.445146
v 0.871282 0.258629 0.580673
v 0.867879 0.251543 0.577559
v 0.860847 0.251931 0.572879
v 0.780547 0.249411 0.700809
v 0.777144 0.242324 0.697694
v 0.770687 0.242771 0.692252
v 0.677003 0.250943 0.810475
v 0.667801 0.244294 0.801222
v 0.673600 0.243857 0.807361
v 0.562423 0.263202 0.907796
v 0.553949 0.256476 0.897924
v 0.559019 0.256115 0.904682
v 0.438765 0.285977 0.991108
v 0.431076 0.279106 0.980706
v 0.435362 0.278890 0.987992
v 0.308147 0.318878 1.058982
vt 0.890137 0.150391
vt 0.916992 0.141113
vt 0.917969 0.143066
vt 0.889160 0.148438
vt 0.858887 0.155273
vt 0.858398 0.153809
vt 0.825684 0.157715
vt 0.825195 0.155762
vt 0.790039 0.157227
vt 0.790039 0.155762
vt 0.753906 0.154297
vt 0.753906 0.152344
vt 0.716797 0.148438
vt 0.717285 0.146973
vt 0.680176 0.140137
vt 0.680664 0.138672
vt 0.644531 0.127930
vt 0.643555 0.129883
vt 0.680664 0.136719
vt 0.645020 0.125977
vt 0.609863 0.115234
vt 0.610352 0.113281
vt 0.576660 0.100586
vt 0.577148 0.098633
vt 0.546387 0.083984
vt 0.546875 0.082031
vt 0.519043 0.065918
vt 0.519531 0.063965
vt 0.495361 0.046875
vt 0.495850 0.044922
vt 0.475342 0.026855
vt 0.475586 0.024902
vt 0.918457 0.912048
vt 0.934082 0.887878
vt 0.919922 0.913513
vt 0.932617 0.886597
vt 0.946777 0.858765
vt 0.944824 0.857666
vt 0.957031 0.826782
vt 0.955566 0.825806
vt 0.965332 0.792236
vt 0.963379 0.791504
vt 0.971191 0.755981
vt 0.969238 0.755493
vt 0.974609 0.718506
vt 0.972656 0.718262
vt 0.975586 0.680420
vt 0.973633 0.680420
vt 0.972168 0.642578
vt 0.974121 0.642334
vt 0.975586 0.642334
vt 0.977539 0.680420
vt 0.971680 0.605225
vt 0.969727 0.605225
vt 0.965332 0.569336
vt 0.963379 0.569336
vt 0.956543 0.535400
vt 0.954590 0.535400
vt 0.945312 0.504150
vt 0.943359 0.504150
vt 0.932617 0.476074
vt 0.930664 0.476074
vt 0.917969 0.451172
vt 0.916016 0.451172
vt 0.335449 0.896790
vt 0.369629 0.892761
vt 0.369873 0.894836
vt 0.335693 0.898865
vt 0.299561 0.899902
vt 0.299561 0.901978
vt 0.262207 0.902039
vt 0.262207 0.904114
vt 0.224365 0.903137
vt 0.224487 0.905212
vt 0.186646 0.905273
vt 0.186523 0.903198
vt 0.149414 0.904297
vt 0.149414 0.902222
vt 0.113647 0.902283
vt 0.113586 0.900208
vt 0.080811 0.899902
vt 0.079651 0.897217
vt 0.048340 0.895386
vt 0.048309 0.893311
vt 0.020035 0.890625
vt 0.019989 0.888550
vt 0.049438 0.891968
vt 0.021286 0.887207
vt 0.113708 0.828247
vt 0.121216 0.861206
vt 0.119202 0.861816
vt 0.115723 0.827759
vt 0.106873 0.793213
vt 0.108887 0.792603
vt 0.098755 0.757202
vt 0.100708 0.756714
vt 0.089050 0.721191
vt 0.091492 0.720459
vt 0.081238 0.684570
vt 0.079224 0.685059
vt 0.070190 0.649658
vt 0.068176 0.650146
vt 0.058563 0.615967
vt 0.056549 0.616699
vt 0.046509 0.584717
vt 0.044495 0.585205
vt 0.034241 0.555908
vt 0.032227 0.556641
vt 0.019989 0.531006
vt 0.022003 0.530518
vt 0.022934 0.528809
vt 0.035248 0.554443
vt 0.826660 0.072754
vt 0.853516 0.063477
vt 0.854492 0.065430
vt 0.824707 0.070801
vt 0.796387 0.077637
vt 0.795898 0.075684
vt 0.763672 0.079590
vt 0.763184 0.078125
vt 0.729492 0.079590
vt 0.729004 0.077637
vt 0.693359 0.076172
vt 0.693848 0.074707
vt 0.657227 0.070801
vt 0.657715 0.068848
vt 0.621094 0.062500
vt 0.621582 0.061035
vt 0.586426 0.050781
vt 0.585938 0.052246
vt 0.585449 0.054199
vt 0.620605 0.064453
vt 0.551270 0.041504
vt 0.551270 0.039551
vt 0.518555 0.026855
vt 0.519043 0.024902
vt 0.943359 0.042480
vt 0.969727 0.053223
vt 0.968262 0.055176
vt 0.942383 0.043945
vt 0.914062 0.033203
vt 0.913574 0.035156
vt 0.882324 0.026367
vt 0.881836 0.028320
vt 0.848145 0.021973
vt 0.847656 0.023926
vt 0.812988 0.020020
vt 0.812500 0.021973
vt 0.776367 0.020508
vt 0.776367 0.022461
vt 0.739746 0.023926
vt 0.739746 0.025391
vt 0.703613 0.030762
vt 0.703125 0.029297
vt 0.740234 0.027344
vt 0.704102 0.032715
vt 0.668457 0.038574
vt 0.668945 0.040039
vt 0.634766 0.048340
vt 0.635254 0.050293
vt 0.773438 0.942688
vt 0.750977 0.947693
vt 0.773438 0.940460
vt 0.750977 0.949921
vt 0.724609 0.954346
vt 0.726074 0.957916
vt 0.752441 0.951233
vt 0.724609 0.956543
vt 0.694336 0.960266
vt 0.695801 0.963898
vt 0.694336 0.962494
vt 0.661133 0.965393
vt 0.662109 0.969040
vt 0.661133 0.967590
vt 0.625488 0.969604
vt 0.626465 0.973282
vt 0.625488 0.971817
vt 0.587891 0.972855
vt 0.588379 0.976547
vt 0.587891 0.975052
vt 0.548828 0.975067
vt 0.549316 0.978775
vt 0.529297 0.978058
vt 0.509277 0.976227
vt 0.509277 0.979935
vt 0.469727 0.978500
vt 0.469727 0.976288
vt 0.469482 0.980011
vt 0.430908 0.977478
vt 0.430664 0.975266
vt 0.430420 0.978989
vt 0.393311 0.975388
vt 0.393311 0.973190
vt 0.392578 0.976883
vt 0.357910 0.972275
vt 0.356934 0.973740
vt 0.357910 0.970062
vt 0.323730 0.969620
vt 0.324951 0.968170
vt 0.293945 0.964569
vt 0.324951 0.965973
vt 0.295410 0.963165
vt 0.295410 0.960968
vt 0.269287 0.957336
vt 0.269287 0.955139
vt 0.247681 0.948578
vt 0.247681 0.950775
vt 0.460449 0.710449
vt 0.474365 0.713867
vt 0.467773 0.716553
vt 0.466064 0.704102
vt 0.451416 0.693359
vt 0.453613 0.677002
vt 0.447021 0.678223
vt 0.459473 0.690674
vt 0.445312 0.665283
vt 0.453613 0.670898
vt 0.452393 0.662354
vt 0.454102 0.656250
vt 0.799805 0.267090
vt 0.785156 0.248535
vt 0.787109 0.248047
vt 0.797852 0.268066
vt 0.810547 0.291504
vt 0.812500 0.291016
vt 0.822754 0.320312
vt 0.809570 0.293457
vt 0.823730 0.318848
vt 0.825684 0.318359
vt 0.835938 0.351074
vt 0.838867 0.350586
vt 0.848633 0.384766
vt 0.852051 0.382812
vt 0.864258 0.419434
vt 0.860840 0.420410
vt 0.874023 0.457031
vt 0.876465 0.456543
vt 0.873047 0.457520
vt 0.885254 0.495605
vt 0.887207 0.495117
vt 0.883789 0.496094
vt 0.897461 0.533936
vt 0.893555 0.534668
vt 0.895020 0.534424
vt 0.906250 0.572510
vt 0.902344 0.572998
vt 0.903809 0.572998
vt 0.913574 0.610107
vt 0.909668 0.610352
vt 0.911133 0.610596
vt 0.919434 0.645996
vt 0.915527 0.646240
vt 0.916992 0.646729
vt 0.923340 0.679932
vt 0.919922 0.679688
vt 0.921387 0.680420
vt 0.926270 0.710938
vt 0.922363 0.710449
vt 0.923828 0.711426
vt 0.923340 0.737793
vt 0.927246 0.738525
vt 0.924805 0.739014
vt 0.926270 0.762085
vt 0.924316 0.762695
vt 0.524414 0.686523
vt 0.534668 0.675781
vt 0.530762 0.689453
vt 0.530273 0.667480
vt 0.535645 0.660156
vt 0.541992 0.662598
vt 0.583496 0.600586
vt 0.577148 0.598145
vt 0.580078 0.595215
vt 0.580566 0.603516
vt 0.580078 0.605469
vt 0.583008 0.624023
vt 0.567871 0.590088
vt 0.547363 0.641846
vt 0.575684 0.635498
vt 0.563965 0.641602
vt 0.527344 0.595947
vt 0.550293 0.583740
vt 0.537598 0.586914
vt 0.526855 0.623779
vt 0.530273 0.629395
vt 0.522949 0.609619
vt 0.680176 0.093262
vt 0.692871 0.087891
vt 0.692871 0.094727
vt 0.672852 0.085938
vt 0.664062 0.088379
vt 0.664062 0.095215
vt 0.446533 0.623291
vt 0.467285 0.639893
vt 0.454346 0.634033
vt 0.485352 0.637207
vt 0.500000 0.624756
vt 0.495850 0.631592
vt 0.446045 0.608154
vt 0.501953 0.630371
vt 0.497803 0.634521
vt 0.500000 0.626709
vt 0.506836 0.607910
vt 0.500000 0.591309
vt 0.456055 0.591309
vt 0.452393 0.596191
vt 0.483887 0.583252
vt 0.470459 0.583496
vt 0.505859 0.556152
vt 0.505859 0.562500
vt 0.497559 0.551514
vt 0.494141 0.558105
vt 0.478760 0.549561
vt 0.488037 0.558350
vt 0.468506 0.557373
vt 0.461914 0.551025
vt 0.468994 0.558594
vt 0.449951 0.554688
vt 0.454834 0.561279
vt 0.449951 0.562012
vt 0.445557 0.565918
vt 0.322754 0.501953
vt 0.360107 0.497070
vt 0.360107 0.498047
vt 0.322754 0.500732
vt 0.285156 0.501709
vt 0.359863 0.495117
vt 0.395996 0.487305
vt 0.322754 0.499023
vt 0.396729 0.489258
vt 0.285156 0.498535
vt 0.430664 0.475586
vt 0.431641 0.477539
vt 0.464355 0.461914
vt 0.463379 0.459961
vt 0.495850 0.442383
vt 0.493408 0.440918
vt 0.521484 0.420898
vt 0.520020 0.418945
vt 0.545410 0.395996
vt 0.542969 0.394531
vt 0.563965 0.368652
vt 0.562012 0.367188
vt 0.578613 0.339355
vt 0.576660 0.338379
vt 0.588867 0.309082
vt 0.586914 0.308105
vt 0.594238 0.277832
vt 0.592285 0.277344
vt 0.594727 0.246582
vt 0.592773 0.246094
vt 0.589844 0.214844
vt 0.588379 0.214844
vt 0.580566 0.184570
vt 0.579102 0.184570
vt 0.566895 0.155273
vt 0.564941 0.155273
vt 0.548340 0.127930
vt 0.546875 0.127930
vt 0.525879 0.102539
vt 0.522949 0.104492
vt 0.545410 0.129395
vt 0.524414 0.103027
vt 0.499512 0.080078
vt 0.497070 0.082520
vt 0.498291 0.080566
vt 0.469971 0.060547
vt 0.467773 0.062988
vt 0.468750 0.061523
vt 0.435791 0.047363
vt 0.436768 0.045410
vt 0.402344 0.033203
vt 0.401611 0.036621
vt 0.435791 0.048340
vt 0.401611 0.035156
vt 0.366211 0.024902
vt 0.365967 0.028320
vt 0.365967 0.026855
vt 0.329346 0.020508
vt 0.329102 0.023926
vt 0.310303 0.021484
vt 0.291992 0.023438
vt 0.291748 0.020020
vt 0.255127 0.027344
vt 0.255127 0.026367
vt 0.254639 0.023926
vt 0.219116 0.035156
vt 0.220337 0.031738
vt 0.184570 0.045410
vt 0.184570 0.046875
vt 0.183838 0.043457
vt 0.151123 0.059082
vt 0.152222 0.061035
vt 0.121277 0.078125
vt 0.150146 0.058594
vt 0.120117 0.077637
vt 0.122437 0.079590
vt 0.093140 0.099609
vt 0.094543 0.100098
vt 0.095886 0.101562
vt 0.069885 0.124512
vt 0.071411 0.124512
vt 0.072937 0.125977
vt 0.050720 0.151367
vt 0.052338 0.151855
vt 0.053986 0.152832
vt 0.035919 0.180664
vt 0.039154 0.181152
vt 0.027557 0.210938
vt 0.025772 0.210938
vt 0.029343 0.211426
vt 0.022247 0.241699
vt 0.020432 0.242188
vt 0.024063 0.242676
vt 0.021820 0.272949
vt 0.019989 0.273926
vt 0.023636 0.273438
vt 0.026276 0.304199
vt 0.024475 0.305176
vt 0.028076 0.304688
vt 0.035522 0.334473
vt 0.033783 0.335449
vt 0.037262 0.334961
vt 0.049438 0.363770
vt 0.047791 0.364746
vt 0.051086 0.363770
vt 0.067749 0.391113
vt 0.066223 0.392578
vt 0.069275 0.390625
vt 0.090210 0.416016
vt 0.088806 0.417480
vt 0.091553 0.415527
vt 0.116333 0.438477
vt 0.115112 0.439941
vt 0.117554 0.437988
vt 0.145752 0.457520
vt 0.146729 0.457031
vt 0.144653 0.459473
vt 0.177856 0.473633
vt 0.177124 0.475586
vt 0.211670 0.487793
vt 0.177124 0.476562
vt 0.212280 0.485840
vt 0.211670 0.488770
vt 0.247925 0.496094
vt 0.248291 0.494141
vt 0.247925 0.497559
vt 0.285156 0.500488
vt 0.847656 0.762207
vt 0.831055 0.792480
vt 0.830078 0.792358
vt 0.849121 0.762207
vt 0.861328 0.730957
vt 0.851074 0.763184
vt 0.833008 0.793701
vt 0.864746 0.731445
vt 0.809082 0.820801
vt 0.811035 0.822266
vt 0.862793 0.730713
vt 0.874023 0.698975
vt 0.870605 0.698730
vt 0.872070 0.698486
vt 0.875000 0.666504
vt 0.876465 0.665771
vt 0.875000 0.634521
vt 0.876465 0.633545
vt 0.869629 0.603271
vt 0.871582 0.602295
vt 0.860352 0.573730
vt 0.861816 0.572266
vt 0.846191 0.545898
vt 0.847656 0.544434
vt 0.828125 0.520508
vt 0.829102 0.518799
vt 0.805664 0.498047
vt 0.806641 0.496094
vt 0.780273 0.478516
vt 0.781250 0.476562
vt 0.751465 0.462891
vt 0.751953 0.460938
vt 0.719727 0.450684
vt 0.721191 0.448242
vt 0.686523 0.442871
vt 0.686523 0.440918
vt 0.651367 0.438965
vt 0.651367 0.437012
vt 0.615723 0.439453
vt 0.615723 0.437500
vt 0.579102 0.441895
vt 0.579590 0.443848
vt 0.542969 0.450684
vt 0.543945 0.452637
vt 0.508301 0.463379
vt 0.492188 0.472656
vt 0.544434 0.453613
vt 0.509277 0.466797
vt 0.474609 0.480469
vt 0.476318 0.482910
vt 0.444580 0.501953
vt 0.443359 0.500244
vt 0.445068 0.502930
vt 0.416016 0.525146
vt 0.414551 0.523682
vt 0.416504 0.526123
vt 0.390625 0.551025
vt 0.391113 0.552002
vt 0.389160 0.549561
vt 0.367188 0.578125
vt 0.368896 0.579346
vt 0.349121 0.608398
vt 0.365967 0.577881
vt 0.351074 0.609375
vt 0.347900 0.608398
vt 0.335449 0.639893
vt 0.337402 0.640625
vt 0.333984 0.640137
vt 0.326172 0.672119
vt 0.328369 0.672852
vt 0.324707 0.672607
vt 0.321777 0.704590
vt 0.323730 0.705078
vt 0.320312 0.705322
vt 0.322021 0.736816
vt 0.323975 0.737061
vt 0.320557 0.737793
vt 0.326904 0.768188
vt 0.328857 0.768188
vt 0.325439 0.769287
vt 0.336670 0.798096
vt 0.338623 0.797974
vt 0.335205 0.799316
vt 0.350830 0.826050
vt 0.352539 0.825684
vt 0.349365 0.827515
vt 0.369141 0.851685
vt 0.370850 0.851196
vt 0.367920 0.853271
vt 0.391357 0.874390
vt 0.393066 0.873779
vt 0.390381 0.876099
vt 0.418701 0.893066
vt 0.417236 0.893860
vt 0.416504 0.895752
vt 0.447510 0.908875
vt 0.446289 0.909790
vt 0.445557 0.911743
vt 0.479004 0.920898
vt 0.477783 0.921875
vt 0.477295 0.923889
vt 0.512207 0.928833
vt 0.509766 0.931274
vt 0.546387 0.933716
vt 0.547363 0.932678
vt 0.546387 0.935852
vt 0.582520 0.933289
vt 0.583008 0.935425
vt 0.619629 0.930725
vt 0.583496 0.936462
vt 0.620117 0.931763
vt 0.619141 0.928650
vt 0.656250 0.922913
vt 0.655762 0.921875
vt 0.655273 0.919861
vt 0.691406 0.909973
vt 0.690918 0.908936
vt 0.689941 0.906982
vt 0.725098 0.893250
vt 0.723633 0.890381
vt 0.724609 0.892212
vt 0.756836 0.873047
vt 0.754883 0.870239
vt 0.756348 0.871948
vt 0.785645 0.849487
vt 0.783691 0.846924
vt 0.785156 0.848511
vt 0.811523 0.823242
vn 0.385827 0.850394 0.362205
vn 0.937008 0.000000 0.354331
vn 0.385827 0.850394 0.362205
vn 0.889764 -0.023622 0.456693
vn 0.385827 0.850394 0.362205
vn 0.834646 -0.031496 0.551181
vn 0.385827 0.850394 0.354331
vn 0.763780 -0.039370 0.645669
vn 0.385827 0.850394 0.354331
vn 0.685039 -0.039370 0.724409
vn 0.393701 0.850394 0.354331
vn 0.598425 -0.031496 0.795275
vn 0.393701 0.850394 0.354331
vn 0.511811 -0.015748 0.858268
vn 0.393701 0.850394 0.346457
vn 0.409449 0.007874 0.913386
vn 0.307087 0.039370 0.952756
vn 0.401575 0.850394 0.346457
vn 0.000000 -0.842520 0.535433
vn -0.102362 -0.811023 0.574803
vn 0.204724 0.078740 0.976378
vn -0.204724 -0.771653 0.598425
vn 0.102362 0.125984 0.984252
vn -0.307087 -0.732283 0.614173
vn 0.000000 0.173228 0.984252
vn -0.409449 -0.677165 0.606299
vn -0.094488 0.228347 0.968504
vn -0.503937 -0.629921 0.590551
vn -0.188976 0.283465 0.937008
vn -0.598425 -0.566929 0.566929
vn -0.275591 0.346457 0.897638
vn -0.685039 -0.511811 0.519685
vn -0.425197 -0.826772 -0.370079
vn -0.889764 0.039370 -0.456693
vn -0.937008 0.023622 -0.354331
vn -0.417323 -0.826772 -0.377953
vn -0.834646 0.055118 -0.551181
vn -0.417323 -0.826772 -0.377953
vn -0.763780 0.062992 -0.645669
vn -0.417323 -0.826772 -0.377953
vn -0.685039 0.062992 -0.724409
vn -0.417323 -0.826772 -0.385827
vn -0.598425 0.055118 -0.803149
vn -0.409449 -0.826772 -0.385827
vn -0.503937 0.039370 -0.866142
vn -0.409449 -0.826772 -0.385827
vn -0.409449 0.015748 -0.913386
vn -0.409449 -0.826772 -0.385827
vn -0.401575 -0.826772 -0.385827
vn -0.307087 -0.023622 -0.952756
vn 0.094488 0.803149 -0.590551
vn -0.007874 0.834646 -0.551181
vn 0.196850 0.763779 -0.614173
vn -0.196850 -0.055118 -0.976378
vn 0.299213 0.716535 -0.629921
vn -0.094488 -0.102362 -0.992126
vn 0.401575 0.669291 -0.629921
vn 0.007874 -0.157480 -0.984252
vn 0.503937 0.614173 -0.614173
vn 0.102362 -0.204724 -0.968504
vn 0.590551 0.551181 -0.582677
vn 0.196850 -0.267717 -0.944882
vn 0.685039 0.496063 -0.543307
vn 0.283465 -0.322835 -0.897638
vn 0.755906 0.433071 -0.488189
vn 0.685039 0.496063 -0.543307
vn 0.283465 -0.322835 -0.897638
vn 0.362205 -0.385827 -0.842520
vn 0.826772 0.370079 -0.417323
vn 0.433071 -0.448819 -0.779527
vn 0.889764 0.307087 -0.346457
vn 0.496063 -0.511811 -0.700787
vn 0.937008 0.251968 -0.259843
vn 0.535433 -0.574803 -0.622047
vn 0.574803 -0.629921 -0.527559
vn 0.968504 0.188976 -0.165354
vn 0.590551 -0.685039 -0.425197
vn 0.984252 0.141732 -0.062992
vn 0.598425 -0.732283 -0.322835
vn 0.992126 0.086614 0.039370
vn 0.448819 -0.850394 -0.267716
vn 0.992126 0.047244 0.141732
vn 0.574803 -0.811023 -0.110236
vn 0.968504 0.007874 0.251968
vn 0.543307 -0.842520 -0.007874
vn 0.937008 -0.023622 0.354331
vn 0.425197 0.826772 0.370079
vn 0.425197 0.826772 0.370079
vn -0.346457 0.401575 0.842520
vn -0.685039 -0.511811 0.519685
vn -0.275591 0.346457 0.897638
vn -0.763780 -0.448819 0.472441
vn -0.417323 0.464567 0.779527
vn -0.826772 -0.385827 0.401575
vn -0.472441 0.527559 0.700787
vn -0.889764 -0.330709 0.330709
vn -0.393701 0.677165 0.622047
vn -0.929134 -0.267716 0.244094
vn -0.968504 -0.212598 0.149606
vn -0.551181 0.645669 0.527559
vn -0.984252 -0.157480 0.055118
vn -0.574803 0.692913 0.433071
vn -0.992126 -0.110236 -0.047244
vn -0.582677 0.740157 0.330709
vn -0.984252 -0.070866 -0.149606
vn -0.574803 0.787401 0.228346
vn -0.968504 -0.031496 -0.251968
vn -0.559055 0.818897 0.118110
vn -0.519685 0.850394 0.015748
vn -0.937008 -0.000000 -0.354331
vn -0.385827 -0.850394 -0.362205
vn -0.385827 -0.850394 -0.370079
vn 0.889764 -0.039370 0.456693
vn 0.425197 0.826772 0.370079
vn 0.937008 -0.023622 0.354331
vn 0.283465 0.905512 0.314960
vn 0.834646 -0.055118 0.551181
vn 0.417323 0.826772 0.377953
vn 0.763780 -0.062992 0.645669
vn 0.417323 0.826772 0.377953
vn 0.685039 -0.062992 0.724409
vn 0.417323 0.826772 0.385827
vn 0.598425 -0.055118 0.803149
vn 0.409449 0.826772 0.385827
vn 0.503937 -0.039370 0.866142
vn 0.409449 0.826772 0.385827
vn 0.409449 -0.015748 0.913386
vn 0.409449 0.826772 0.385827
vn 0.401575 0.826772 0.385827
vn 0.307087 0.023622 0.952756
vn -0.094488 -0.803149 0.590551
vn 0.007874 -0.834646 0.551181
vn -0.196850 -0.763779 0.614173
vn 0.196850 0.055118 0.976378
vn -0.299213 -0.716535 0.629921
vn 0.094488 0.102362 0.992126
vn -0.385827 -0.850394 -0.362205
vn -0.385827 -0.850394 -0.362205
vn -0.937008 -0.000000 -0.354331
vn -0.889764 0.023622 -0.456693
vn -0.385827 -0.850394 -0.362205
vn -0.834646 0.031496 -0.551181
vn -0.385827 -0.850394 -0.354331
vn -0.763780 0.039370 -0.645669
vn -0.385827 -0.850394 -0.354331
vn -0.685039 0.039370 -0.724409
vn -0.393701 -0.850394 -0.354331
vn -0.598425 0.031496 -0.795275
vn -0.393701 -0.850394 -0.354331
vn -0.511811 0.015748 -0.858268
vn -0.393701 -0.850394 -0.346457
vn -0.409449 -0.007874 -0.913386
vn -0.307087 -0.039370 -0.952756
vn -0.401575 -0.850394 -0.346457
vn 0.000000 0.842520 -0.535433
vn 0.102362 0.811023 -0.574803
vn -0.204724 -0.078740 -0.976378
vn 0.204724 0.771653 -0.598425
vn -0.102362 -0.125984 -0.984252
vn 0.307087 0.732283 -0.614173
vn 0.307087 0.732283 -0.614173
vn 0.000000 -0.173228 -0.984252
vn -0.102362 -0.125984 -0.984252
vn 0.409449 0.677165 -0.606299
vn 0.094488 -0.228347 -0.968504
vn 0.393701 0.834646 0.385827
vn 0.393701 0.834646 0.385827
vn 0.503937 0.629921 -0.590551
vn 0.188976 -0.283465 -0.937008
vn 0.393701 0.834646 0.385827
vn 0.598425 0.566929 -0.566929
vn 0.275591 -0.346457 -0.897638
vn 0.393701 0.834646 0.385827
vn 0.685039 0.511811 -0.519685
vn 0.346457 -0.401575 -0.842520
vn 0.385827 0.834646 0.385827
vn 0.763780 0.448819 -0.472441
vn 0.417323 -0.464567 -0.779527
vn 0.385827 0.842520 0.385827
vn 0.826772 0.385827 -0.401575
vn 0.472441 -0.527559 -0.700787
vn 0.385827 0.842520 0.377953
vn 0.905512 0.299213 -0.291339
vn 0.519685 -0.582677 -0.622047
vn 0.385827 0.842520 0.377953
vn 0.968504 0.212598 -0.149606
vn 0.551181 -0.645669 -0.527559
vn 0.385827 0.842520 0.377953
vn 0.984252 0.157480 -0.055118
vn 0.574803 -0.692913 -0.433071
vn 0.377953 0.842520 0.377953
vn 0.992126 0.110236 0.047244
vn 0.582677 -0.740157 -0.330709
vn 0.377953 0.842520 0.370079
vn 0.984252 0.070866 0.149606
vn 0.377953 0.850394 0.370079
vn 0.574803 -0.787401 -0.228346
vn 0.385827 0.850394 0.370079
vn 0.968504 0.031496 0.251968
vn 0.385827 0.850394 0.362205
vn 0.559055 -0.818897 -0.118110
vn 0.937008 0.000000 0.354331
vn 0.519685 -0.850394 -0.015748
vn 0.889764 -0.023622 0.456693
vn 0.480315 -0.874016 0.086614
vn 0.417323 -0.889764 0.181102
vn 0.834646 -0.031496 0.551181
vn -0.559055 -0.677165 -0.472441
vn -0.968504 -0.125984 -0.212598
vn -0.748031 -0.645669 -0.133858
vn -0.724409 -0.188976 -0.661417
vn -0.157480 -0.503937 -0.850394
vn 0.000000 -0.007874 -1.000000
vn 0.220472 -0.283465 -0.929134
vn -0.488189 0.779527 -0.393701
vn 0.598425 -0.062992 -0.803149
vn -0.480315 0.748031 -0.448819
vn 0.425197 0.259842 -0.866142
vn -0.023622 0.866142 -0.503937
vn -0.496063 0.866142 -0.094488
vn -0.834646 0.055118 -0.551181
vn -0.440945 0.881890 -0.188976
vn -0.889764 0.039370 -0.456693
vn -0.937008 0.023622 -0.354331
vn -0.543307 0.842520 0.007874
vn -0.425197 -0.826772 -0.370079
vn -0.425197 -0.826772 -0.370079
vn -0.968504 -0.007874 -0.251968
vn -0.574803 0.811023 0.110236
vn -0.425197 -0.826772 -0.370079
vn -0.771654 0.614173 0.141732
vn -0.669291 -0.685039 -0.283464
vn -0.598425 0.732283 0.322835
vn -0.795276 0.496063 0.354331
vn -0.425197 -0.834646 -0.362205
vn -0.968504 -0.188976 0.165354
vn -0.574803 0.629921 0.527559
vn -0.425197 -0.834646 -0.362205
vn -0.937008 -0.251968 0.259843
vn -0.535433 0.574803 0.622047
vn -0.425197 -0.834646 -0.354331
vn -0.496063 0.511811 0.700787
vn -0.417323 -0.834646 -0.354331
vn -0.889764 -0.307087 0.346457
vn -0.433071 0.448819 0.779527
vn -0.417323 -0.834646 -0.354331
vn -0.826772 -0.370079 0.417323
vn -0.362205 0.385827 0.842520
vn -0.417323 -0.834646 -0.354331
vn -0.755906 -0.433071 0.488189
vn -0.283465 0.322835 0.897638
vn -0.417323 -0.842520 -0.346457
vn -0.685039 -0.496063 0.543307
vn -0.196850 0.267717 0.944882
vn -0.409449 -0.842520 -0.346457
vn -0.590551 -0.559055 0.582677
vn -0.102362 0.204724 0.968504
vn -0.409449 -0.842520 -0.346457
vn -0.503937 -0.614173 0.614173
vn -0.409449 -0.842520 -0.346457
vn -0.007874 0.157480 0.984252
vn -0.401575 -0.669291 0.629921
vn 0.094488 0.102362 0.992126
vn -0.299213 -0.716535 0.629921
vn 0.771654 0.629921 -0.078740
vn 0.905512 0.055118 -0.417323
vn 1.000000 -0.015748 0.039370
vn 0.582677 0.448819 -0.677165
vn 0.425197 0.259842 -0.866142
vn 0.700787 -0.299213 -0.653543
vn -0.952756 -0.314961 0.000000
vn -0.748031 -0.645669 -0.133858
vn -0.921260 -0.338583 -0.204724
vn -0.716535 -0.692913 0.086614
vn 0.496063 -0.850394 0.173228
vn 0.480315 -0.850394 0.196850
vn 0.480315 -0.866142 0.157480
vn 0.496063 -0.850394 0.173228
vn 0.496063 -0.850394 0.173228
vn 0.496063 -0.850394 0.173228
vn 0.503937 -0.850394 0.165354
vn 0.448819 -0.897638 0.031496
vn 0.535433 -0.771653 -0.330709
vn 0.503937 -0.850394 0.173228
vn 0.503937 -0.850394 0.173228
vn 0.503937 -0.850394 0.173228
vn -0.921260 -0.031496 0.385827
vn -0.771654 -0.629921 0.078740
vn -1.000000 -0.047244 -0.023622
vn -0.566929 -0.456693 0.685039
vn -0.425197 -0.259842 0.866142
vn -0.708661 0.307087 0.637795
vn -0.503937 0.850394 -0.157480
vn -0.440945 0.897638 -0.031496
vn -0.527559 0.779527 0.338583
vn -0.480315 0.866142 -0.157480
vn -0.496063 0.850394 -0.173228
vn 0.748031 0.645669 0.133858
vn -0.503937 0.850394 -0.173228
vn 0.952756 0.299213 0.007874
vn 0.905512 0.362205 0.204724
vn 0.716535 0.692913 -0.086614
vn -0.425197 0.866142 -0.267717
vn -0.496063 0.850394 -0.181102
vn -0.503937 0.850394 -0.173228
vn -0.503937 0.850394 -0.173228
vn -0.496063 0.850394 -0.173228
vn -0.503937 0.850394 -0.173228
vn 0.748031 0.645669 0.133858
vn 0.944882 0.267717 0.212598
vn 0.559055 0.677165 0.472441
vn 0.677165 0.354331 0.645669
vn 0.165354 0.503937 0.850394
vn 0.535433 -0.795275 0.291339
vn 0.118110 0.062992 0.992126
vn -0.236220 0.275591 0.929134
vn 0.527559 -0.779527 0.330709
vn -0.606299 0.047244 0.795275
vn 0.409449 -0.818897 0.401575
vn -0.425197 -0.259842 0.866142
vn 0.118110 -0.874016 0.480315
vn -0.763780 0.062992 -0.645669
vn -0.440945 0.881890 -0.188976
vn -0.834646 0.055118 -0.551181
vn -0.370079 0.881890 -0.283465
vn -0.685039 0.062992 -0.724409
vn 0.385827 0.850394 0.362205
vn 0.385827 0.850394 0.362205
vn 0.385827 0.850394 0.354331
vn -0.496063 0.866142 -0.094488
vn 0.385827 0.850394 0.354331
vn 0.385827 0.850394 0.362205
vn -0.543307 0.842520 0.007874
vn -0.574803 0.811023 0.110236
vn 0.385827 0.850394 0.370079
vn -0.716535 0.677165 0.165354
vn 0.377953 0.850394 0.370079
vn -0.598425 0.732283 0.322835
vn 0.377953 0.842520 0.370079
vn -0.740157 0.551181 0.377953
vn 0.377953 0.842520 0.377953
vn -0.574803 0.629921 0.527559
vn 0.385827 0.842520 0.377953
vn -0.535433 0.574803 0.622047
vn 0.385827 0.842520 0.377953
vn -0.496063 0.511811 0.700787
vn 0.385827 0.842520 0.377953
vn -0.433071 0.448819 0.779527
vn 0.385827 0.842520 0.385827
vn -0.362205 0.385827 0.842520
vn 0.385827 0.834646 0.385827
vn -0.283465 0.322835 0.897638
vn 0.393701 0.834646 0.385827
vn -0.196850 0.267717 0.944882
vn 0.393701 0.834646 0.385827
vn -0.102362 0.204724 0.968504
vn 0.393701 0.834646 0.385827
vn -0.007874 0.157480 0.984252
vn 0.393701 0.834646 0.385827
vn 0.094488 0.102362 0.992126
vn 0.307087 0.732283 -0.614173
vn 0.409449 0.677165 -0.606299
vn 0.401575 0.826772 0.385827
vn 0.196850 0.055118 0.976378
vn 0.204724 0.771653 -0.598425
vn 0.401575 0.826772 0.385827
vn 0.307087 0.023622 0.952756
vn 0.102362 0.811023 -0.574803
vn 0.401575 0.826772 0.385827
vn 0.000000 0.842520 -0.535433
vn 0.409449 0.826772 0.385827
vn 0.409449 0.826772 0.385827
vn -0.511811 0.015748 -0.858268
vn -0.409449 -0.007874 -0.913386
vn -0.094488 0.866142 -0.488189
vn 0.409449 0.826772 0.385827
vn -0.598425 0.031496 -0.795275
vn -0.188976 0.881890 -0.425197
vn 0.417323 0.826772 0.385827
vn -0.685039 0.039370 -0.724409
vn -0.314961 0.897638 -0.314961
vn -0.763780 0.039370 -0.645669
vn 0.417323 0.826772 0.377953
vn -0.834646 0.031496 -0.551181
vn -0.417323 0.889764 -0.181102
vn 0.417323 0.826772 0.377953
vn -0.889764 0.023622 -0.456693
vn 0.181102 0.937008 0.283464
vn -0.519685 0.850394 0.015748
vn -0.937008 -0.000000 -0.354331
vn 0.425197 0.826772 0.370079
vn 0.425197 0.826772 0.370079
vn -0.559055 0.818897 0.118110
vn 0.425197 0.826772 0.370079
vn 0.968504 0.007874 0.251968
vn 0.992126 0.047244 0.141732
vn -0.574803 0.787401 0.228346
vn 0.992126 0.086614 0.039370
vn 0.425197 0.826772 0.362205
vn -0.582677 0.740157 0.330709
vn 0.984252 0.141732 -0.062992
vn 0.425197 0.834646 0.362205
vn -0.574803 0.692913 0.433071
vn 0.968504 0.188976 -0.165354
vn 0.425197 0.834646 0.362205
vn -0.551181 0.645669 0.527559
vn 0.937008 0.251968 -0.259843
vn -0.322835 0.724409 0.606299
vn 0.417323 0.834646 0.354331
vn 0.889764 0.307087 -0.346457
vn -0.472441 0.527559 0.700787
vn 0.417323 0.834646 0.354331
vn 0.826772 0.370079 -0.417323
vn -0.417323 0.464567 0.779527
vn 0.417323 0.834646 0.354331
vn 0.755906 0.433071 -0.488189
vn -0.346457 0.401575 0.842520
vn 0.417323 0.842520 0.346457
vn 0.685039 0.496063 -0.543307
vn -0.275591 0.346457 0.897638
vn 0.409449 0.842520 0.346457
vn 0.590551 0.551181 -0.582677
vn -0.188976 0.283465 0.937008
vn 0.409449 0.842520 0.346457
vn 0.503937 0.614173 -0.614173
vn -0.094488 0.228347 0.968504
vn 0.409449 0.842520 0.346457
vn 0.401575 0.669291 -0.629921
vn 0.000000 0.173228 0.984252
vn 0.401575 0.842520 0.346457
vn 0.299213 0.716535 -0.629921
vn 0.102362 0.125984 0.984252
vn 0.401575 0.850394 0.346457
vn 0.196850 0.763779 -0.614173
vn 0.204724 0.078740 0.976378
vn 0.401575 0.850394 0.346457
vn 0.307087 0.039370 0.952756
vn 0.094488 0.803149 -0.590551
vn 0.393701 0.850394 0.346457
vn -0.007874 0.834646 -0.551181
vn -0.110236 0.858268 -0.503937
vn -0.409449 0.015748 -0.913386
vn 0.393701 0.850394 0.354331
vn -0.503937 0.039370 -0.866142
vn -0.204724 0.874016 -0.440945
vn 0.393701 0.850394 0.354331
vn -0.598425 0.055118 -0.803149
vn -0.291339 0.881890 -0.362205
vn -0.204724 -0.078740 -0.976378
vn -0.401575 -0.850394 -0.346457
vn -0.307087 -0.039370 -0.952756
vn -0.401575 -0.850394 -0.346457
vn -0.102362 -0.125984 -0.984252
vn -0.196850 -0.763779 0.614173
vn -0.094488 -0.803149 0.590551
vn -0.299213 -0.716535 0.629921
vn -0.393701 -0.850394 -0.346457
vn 0.007874 -0.834646 0.551181
vn -0.401575 -0.842520 -0.346457
vn -0.401575 -0.669291 0.629921
vn 0.000000 -0.173228 -0.984252
vn -0.409449 -0.842520 -0.346457
vn 0.094488 -0.228347 -0.968504
vn -0.409449 -0.842520 -0.346457
vn 0.188976 -0.283465 -0.937008
vn -0.409449 -0.842520 -0.346457
vn 0.275591 -0.346457 -0.897638
vn -0.417323 -0.842520 -0.346457
vn 0.346457 -0.401575 -0.842520
vn -0.417323 -0.834646 -0.354331
vn 0.417323 -0.464567 -0.779527
vn -0.417323 -0.834646 -0.354331
vn 0.472441 -0.527559 -0.700787
vn -0.417323 -0.834646 -0.354331
vn 0.519685 -0.582677 -0.622047
vn -0.425197 -0.834646 -0.354331
vn 0.551181 -0.645669 -0.527559
vn -0.425197 -0.834646 -0.362205
vn 0.574803 -0.692913 -0.433071
vn -0.425197 -0.834646 -0.362205
vn 0.582677 -0.740157 -0.330709
vn -0.598425 -0.732283 -0.330709
vn 0.574803 -0.787401 -0.228346
vn -0.425197 -0.826772 -0.370079
vn 0.559055 -0.818897 -0.118110
vn -0.425197 -0.826772 -0.370079
vn 0.519685 -0.850394 -0.015748
vn -0.425197 -0.826772 -0.370079
vn -0.417323 -0.826772 -0.377953
vn 0.480315 -0.874016 0.086614
vn -0.417323 -0.826772 -0.377953
vn 0.417323 -0.889764 0.181102
vn -0.417323 -0.826772 -0.377953
vn 0.314961 -0.897638 0.314961
vn 0.834646 -0.031496 0.551181
vn 0.763780 -0.039370 0.645669
vn -0.417323 -0.826772 -0.385827
vn 0.685039 -0.039370 0.724409
vn 0.188976 -0.881890 0.425197
vn -0.409449 -0.826772 -0.385827
vn 0.598425 -0.031496 0.795275
vn 0.102362 -0.866142 0.488189
vn -0.409449 -0.826772 -0.385827
vn 0.511811 -0.015748 0.858268
vn 0.000000 -0.842520 0.535433
vn 0.409449 0.007874 0.913386
vn -0.409449 -0.826772 -0.385827
vn -0.401575 -0.826772 -0.385827
vn -0.102362 -0.811023 0.574803
vn -0.401575 -0.826772 -0.385827
vn -0.307087 -0.023622 -0.952756
vn -0.204724 -0.771653 0.598425
vn -0.196850 -0.055118 -0.976378
vn -0.401575 -0.826772 -0.385827
vn -0.307087 -0.732283 0.614173
vn -0.094488 -0.102362 -0.992126
vn -0.393701 -0.834646 -0.385827
vn -0.409449 -0.677165 0.606299
vn 0.007874 -0.157480 -0.984252
vn -0.393701 -0.834646 -0.385827
vn -0.503937 -0.629921 0.590551
vn 0.102362 -0.204724 -0.968504
vn -0.393701 -0.834646 -0.385827
vn -0.598425 -0.566929 0.566929
vn 0.196850 -0.267717 -0.944882
vn -0.393701 -0.834646 -0.385827
vn -0.685039 -0.511811 0.519685
vn 0.283465 -0.322835 -0.897638
vn -0.385827 -0.834646 -0.385827
vn -0.763780 -0.448819 0.472441
vn 0.362205 -0.385827 -0.842520
vn -0.385827 -0.842520 -0.385827
vn -0.826772 -0.385827 0.401575
vn 0.433071 -0.448819 -0.779527
vn -0.385827 -0.842520 -0.377953
vn -0.889764 -0.330709 0.330709
vn 0.496063 -0.511811 -0.700787
vn -0.385827 -0.842520 -0.377953
vn -0.929134 -0.267716 0.244094
vn 0.535433 -0.574803 -0.622047
vn -0.968504 -0.212598 0.149606
vn -0.385827 -0.842520 -0.377953
vn 0.574803 -0.629921 -0.527559
vn -0.984252 -0.157480 0.055118
vn -0.377953 -0.842520 -0.377953
vn 0.590551 -0.685039 -0.425197
vn -0.992126 -0.110236 -0.047244
vn -0.377953 -0.842520 -0.370079
vn 0.598425 -0.732283 -0.322835
vn -0.984252 -0.070866 -0.149606
vn 0.370079 -0.881890 -0.307086
vn -0.385827 -0.850394 -0.370079
vn -0.968504 -0.031496 -0.251968
vn 0.574803 -0.811023 -0.110236
vn -0.385827 -0.850394 -0.362205
vn 0.543307 -0.842520 -0.007874
vn 0.496063 -0.866142 0.094488
vn 0.937008 -0.023622 0.354331
vn 0.889764 -0.039370 0.456693
vn -0.385827 -0.850394 -0.362205
vn 0.834646 -0.055118 0.551181
vn 0.440945 -0.881890 0.188976
vn -0.385827 -0.850394 -0.362205
vn 0.763780 -0.062992 0.645669
vn 0.370079 -0.881890 0.283465
vn -0.385827 -0.850394 -0.354331
vn 0.685039 -0.062992 0.724409
vn -0.385827 -0.850394 -0.354331
vn 0.291339 -0.881890 0.362205
vn 0.598425 -0.055118 0.803149
vn -0.393701 -0.850394 -0.354331
vn 0.204724 -0.874016 0.440945
vn 0.503937 -0.039370 0.866142
vn -0.393701 -0.850394 -0.354331
vn 0.110236 -0.858268 0.503937
vn 0.409449 -0.015748 0.913386
tan 0.704941 -0.524149 0.479695 1.000000
tan 0.000000 -0.956538 0.000000 1.000000
tan 0.721186 -0.521669 0.456569 1.000000
tan -0.023436 -0.943890 -0.003162 1.000000
tan 0.675305 -0.526257 0.516213 1.000000
tan -0.030256 -0.958026 -0.008928 1.000000
tan 0.645607 -0.523219 0.552731 1.000000
tan -0.033790 -0.985988 -0.020150 1.000000
tan 0.613243 -0.522227 0.585591 1.000000
tan -0.025420 -0.995598 -0.030070 1.000000
tan 0.583669 -0.529481 0.622233 1.000000
tan -0.012400 -0.968256 -0.029016 1.000000
tan 0.544609 -0.525141 0.655217 1.000000
tan -0.003224 -0.942774 -0.015376 1.000000
tan 0.508649 -0.514601 0.685101 1.000000
tan 0.000744 -0.944882 0.007812 1.000000
tan 0.001240 -0.962428 0.039370 1.000000
tan 0.485833 -0.515407 0.701965 1.000000
tan -0.098890 -0.531217 -0.835886 1.000000
tan -0.046314 -0.572385 -0.815859 1.000000
tan -0.014756 -0.977990 0.081964 1.000000
tan 0.018352 -0.609833 -0.780085 1.000000
tan -0.031000 -0.984252 0.129208 1.000000
tan 0.080352 -0.657697 -0.744001 1.000000
tan -0.038750 -0.984252 0.173228 1.000000
tan 0.147002 -0.700291 -0.682869 1.000000
tan -0.055180 -0.969248 0.223139 1.000000
tan 0.218860 -0.753549 -0.617025 1.000000
tan -0.080476 -0.941472 0.268585 1.000000
tan 0.276769 -0.806250 -0.514105 1.000000
tan -0.095232 -0.910100 0.322029 1.000000
tan 0.308761 -0.840722 -0.420981 1.000000
tan 0.853370 -0.296423 -0.318247 1.000000
tan 0.396801 -0.407093 -0.808171 1.000000
tan 0.289045 -0.498109 -0.797569 1.000000
tan 0.855044 -0.286875 -0.316573 1.000000
tan 0.503875 -0.317069 -0.794717 1.000000
tan 0.855044 -0.286875 -0.316573 1.000000
tan 0.612437 -0.258045 -0.749643 1.000000
tan 0.855044 -0.286875 -0.316573 1.000000
tan 0.699857 -0.223510 -0.681257 1.000000
tan 0.856718 -0.284705 -0.316573 1.000000
tan 0.780706 -0.208444 -0.596007 1.000000
tan 0.856718 -0.277327 -0.314899 1.000000
tan 0.844442 -0.193192 -0.500093 1.000000
tan 0.856718 -0.277327 -0.314899 1.000000
tan 0.898754 -0.179056 -0.405977 1.000000
tan 0.856718 -0.277327 -0.314899 1.000000
tan 0.856718 -0.269949 -0.313225 1.000000
tan 0.930436 -0.219976 -0.294439 1.000000
tan 0.757207 -0.432637 -0.467233 1.000000
tan 0.715233 -0.358919 -0.553723 1.000000
tan 0.800980 -0.484035 -0.345217 1.000000
tan 0.915308 -0.332135 -0.165788 1.000000
tan 0.841280 -0.511005 -0.181660 1.000000
tan 0.906194 -0.406225 -0.044392 1.000000
tan 0.859012 -0.521359 -0.006324 1.000000
tan 0.860252 -0.472751 0.082522 1.000000
tan 0.846302 -0.515469 0.178932 1.000000
tan 0.817596 -0.517763 0.195858 1.000000
tan 0.793602 -0.505859 0.325811 1.000000
tan 0.770538 -0.554901 0.317751 1.000000
tan 0.736561 -0.515407 0.458119 1.000000
tan 0.697749 -0.568045 0.424639 1.000000
tan -0.004526 0.721557 0.633083 1.000000
tan 0.005766 0.731725 0.675367 1.000000
tan 0.504061 0.783061 -0.122450 1.000000
tan 0.533697 0.754603 -0.116126 1.000000
tan -0.032922 0.733337 0.585095 1.000000
tan 0.622915 0.721557 -0.069378 1.000000
tan -0.052638 0.765267 0.543121 1.000000
tan 0.704011 0.689565 -0.005270 1.000000
tan -0.073160 0.803770 0.515593 1.000000
tan 0.758138 0.650319 0.051646 1.000000
tan 0.774878 0.618699 0.105524 1.000000
tan -0.080352 0.841466 0.491041 1.000000
tan 0.787898 0.591481 0.141360 1.000000
tan -0.094736 0.868002 0.472751 1.000000
tan 0.788022 0.569409 0.169136 1.000000
tan -0.095046 0.882758 0.453097 1.000000
tan 0.854238 0.409449 0.131502 1.000000
tan -0.103788 0.890570 0.429661 1.000000
tan 0.793850 0.527001 0.262136 1.000000
tan -0.116188 0.873334 0.419307 1.000000
tan 0.796764 0.510881 0.312419 1.000000
tan -0.143778 0.843078 0.436419 1.000000
tan -0.863290 0.470953 -0.060264 1.000000
tan -0.863290 0.470953 -0.060264 1.000000
tan 0.425197 -0.734019 0.524707 1.000000
tan 0.684915 -0.687643 0.225619 1.000000
tan 0.484965 -0.758447 0.441627 1.000000
tan 0.627379 -0.699299 0.349929 1.000000
tan 0.347635 -0.704755 0.606113 1.000000
tan 0.543493 -0.705685 0.440945 1.000000
tan 0.241118 -0.683179 0.676855 1.000000
tan 0.460909 -0.719821 0.520243 1.000000
tan 0.072726 -0.642755 0.745737 1.000000
tan 0.360531 -0.724285 0.577965 1.000000
tan 0.257983 -0.724471 0.640585 1.000000
tan -0.048794 -0.656953 0.753053 1.000000
tan 0.151032 -0.705251 0.682001 1.000000
tan -0.227106 -0.643127 0.727571 1.000000
tan 0.040920 -0.679645 0.726517 1.000000
tan -0.405605 -0.620373 0.673817 1.000000
tan -0.070246 -0.628929 0.760059 1.000000
tan -0.547647 -0.575609 0.606299 1.000000
tan -0.156240 -0.690309 0.686837 1.000000
tan -0.654783 -0.522909 0.526195 1.000000
tan -0.734825 -0.457933 0.479137 1.000000
tan -0.245521 -0.692727 0.649265 1.000000
tan 0.527125 -0.522537 0.665323 1.000000
tan 0.526939 -0.531527 0.672019 1.000000
tan 0.035464 0.943890 0.012276 1.000000
tan -0.708227 0.559303 -0.435799 1.000000
tan 0.020832 0.956538 0.008680 1.000000
tan -0.694091 0.419865 -0.582429 1.000000
tan 0.048608 0.958026 0.022196 1.000000
tan -0.663463 0.561039 -0.494699 1.000000
tan 0.054064 0.985988 0.032240 1.000000
tan -0.634447 0.562775 -0.530535 1.000000
tan 0.040672 0.995598 0.048112 1.000000
tan -0.595883 0.566619 -0.569657 1.000000
tan 0.027590 0.970798 0.046066 1.000000
tan -0.557257 0.559985 -0.608593 1.000000
tan 0.014570 0.951702 0.034782 1.000000
tan -0.521669 0.559055 -0.644367 1.000000
tan 0.001364 0.948850 0.015748 1.000000
tan -0.483043 0.555087 -0.676855 1.000000
tan -0.463513 0.546903 -0.689503 1.000000
tan -0.000744 0.962428 -0.023622 1.000000
tan 0.046872 0.588319 0.807613 1.000000
tan 0.098456 0.547647 0.827887 1.000000
tan -0.016616 0.624837 0.771715 1.000000
tan 0.014942 0.977928 -0.058218 1.000000
tan -0.048360 0.667121 0.735879 1.000000
tan 0.015624 0.992126 -0.103850 1.000000
tan 0.645669 -0.528365 0.552731 1.000000
tan 0.661913 -0.528737 0.536301 1.000000
tan -0.053010 -0.941782 0.140182 1.000000
tan -0.098580 -0.929878 0.143964 1.000000
tan 0.613181 -0.530473 0.592287 1.000000
tan -0.142352 -0.933970 0.162192 1.000000
tan 0.576973 -0.523777 0.628805 1.000000
tan -0.185380 -0.957778 0.160890 1.000000
tan 0.537913 -0.519747 0.661665 1.000000
tan -0.207328 -0.961994 0.143778 1.000000
tan 0.501643 -0.520491 0.691797 1.000000
tan -0.206274 -0.938496 0.118048 1.000000
tan 0.455887 -0.513051 0.724781 1.000000
tan -0.185566 -0.925228 0.093682 1.000000
tan 0.413417 -0.498853 0.754665 1.000000
tan -0.164734 -0.927274 0.081840 1.000000
tan -0.148800 -0.947424 0.087110 1.000000
tan 0.390601 -0.496125 0.765019 1.000000
tan -0.184512 -0.527001 -0.829252 1.000000
tan -0.128278 -0.559799 -0.812697 1.000000
tan -0.145452 -0.970302 0.108748 1.000000
tan -0.049104 -0.596937 -0.786533 1.000000
tan -0.139500 -0.976502 0.139500 1.000000
tan -0.016926 -0.635935 -0.766693 1.000000
tan -0.043896 -0.628681 -0.771529 1.000000
tan -0.310001 -0.937752 0.165044 1.000000
tan -0.294501 -0.937752 0.150660 1.000000
tan -0.015810 -0.651807 -0.738669 1.000000
tan -0.352595 -0.900614 0.177940 1.000000
tan 0.462707 0.157480 -0.812822 1.000000
tan 0.420237 0.185194 -0.829438 1.000000
tan 0.007440 -0.684853 -0.724161 1.000000
tan -0.402195 -0.855912 0.177816 1.000000
tan 0.548143 0.092876 -0.760245 1.000000
tan 0.013392 -0.714985 -0.700849 1.000000
tan -0.463885 -0.810589 0.170438 1.000000
tan 0.620435 0.031434 -0.701097 1.000000
tan 0.036208 -0.729121 -0.670345 1.000000
tan -0.530163 -0.758137 0.143344 1.000000
tan 0.689689 -0.027342 -0.630541 1.000000
tan 0.050220 -0.738421 -0.620311 1.000000
tan -0.616343 -0.721991 0.100316 1.000000
tan 0.755100 -0.088102 -0.562713 1.000000
tan 0.069936 -0.742514 -0.569409 1.000000
tan -0.697749 -0.677971 0.039990 1.000000
tan 0.793850 -0.146568 -0.483663 1.000000
tan 0.096100 -0.767499 -0.489553 1.000000
tan -0.759130 -0.643437 -0.031496 1.000000
tan 0.837312 -0.206522 -0.394383 1.000000
tan 0.108748 -0.841218 -0.491413 1.000000
tan -0.789572 -0.606547 -0.082584 1.000000
tan 0.857896 -0.254386 -0.308699 1.000000
tan 0.111166 -0.860252 -0.472751 1.000000
tan -0.791122 -0.580631 -0.121024 1.000000
tan 0.881456 -0.294625 -0.224688 1.000000
tan 0.119164 -0.874946 -0.460909 1.000000
tan -0.794966 -0.553909 -0.160952 1.000000
tan 0.887532 -0.339947 -0.132494 1.000000
tan 0.131378 -0.875752 -0.449501 1.000000
tan 0.896150 -0.377891 -0.046872 1.000000
tan -0.808358 -0.530659 -0.204972 1.000000
tan 0.883626 -0.417633 0.038440 1.000000
tan 0.141360 -0.873334 -0.434187 1.000000
tan 0.876930 -0.431087 0.077996 1.000000
tan -0.801538 -0.509145 -0.263872 1.000000
tan 0.156240 -0.857834 -0.413169 1.000000
tan -0.798190 -0.481493 -0.339637 1.000000
tan 0.162006 -0.863228 -0.360283 1.000000
tan -0.766011 -0.464505 -0.439395 1.000000
tan -0.722921 -0.445843 -0.524583 1.000000
tan 0.207080 -0.866142 -0.363073 1.000000
tan 0.007936 0.561225 -0.813814 1.000000
tan -0.016678 0.861740 -0.434683 1.000000
tan -0.346953 0.554839 -0.737429 1.000000
tan 0.622729 0.165664 -0.729369 1.000000
tan 0.204848 0.822369 -0.525265 1.000000
tan 0.677165 0.732283 -0.005766 1.000000
tan 0.512121 0.775497 -0.115072 1.000000
tan 0.776738 0.574369 0.174096 1.000000
tan 0.748713 0.314465 0.533201 1.000000
tan 0.717403 0.612127 0.252464 1.000000
tan 0.779528 0.371753 0.494203 1.000000
tan 0.932978 0.090520 0.111848 1.000000
tan 0.813690 0.426685 -0.360593 1.000000
tan 0.522103 0.404737 -0.750139 1.000000
tan 0.858082 0.363569 -0.305537 1.000000
tan 0.415091 0.466551 -0.768491 1.000000
tan 0.280675 0.630913 -0.700167 1.000000
tan 0.742079 0.482733 -0.448943 1.000000
tan -0.525761 0.557629 -0.641701 1.000000
tan -0.519251 0.557195 -0.648211 1.000000
tan 0.160766 0.728439 -0.640709 1.000000
tan 0.660425 0.538781 -0.520243 1.000000
tan -0.532271 0.558063 -0.635191 1.000000
tan 0.516337 0.740529 -0.397793 1.000000
tan -0.521917 0.704693 -0.470705 1.000000
tan 0.406225 0.624217 -0.662905 1.000000
tan 0.164610 0.703701 -0.615723 1.000000
tan -0.550933 0.553165 -0.627937 1.000000
tan -0.250914 0.732097 -0.632959 1.000000
tan 0.041106 0.666997 -0.751628 1.000000
tan -0.560357 0.556513 -0.624589 1.000000
tan -0.362391 0.700911 -0.627131 1.000000
tan -0.125302 0.672329 -0.729122 1.000000
tan -0.560605 0.547957 -0.618017 1.000000
tan -0.261517 0.679583 -0.681443 1.000000
tan -0.567177 0.545849 -0.617769 1.000000
tan -0.462211 0.657015 -0.604687 1.000000
tan -0.369769 0.697005 -0.606733 1.000000
tan -0.567177 0.543059 -0.611197 1.000000
tan -0.554343 0.602269 -0.564139 1.000000
tan -0.442557 0.724099 -0.521855 1.000000
tan -0.567177 0.545849 -0.617769 1.000000
tan -0.649017 0.554901 -0.512679 1.000000
tan -0.499287 0.744373 -0.425383 1.000000
tan -0.572881 0.540145 -0.623473 1.000000
tan -0.732283 0.519685 -0.448819 1.000000
tan -0.543121 0.773761 -0.332383 1.000000
tan -0.566247 0.534193 -0.629859 1.000000
tan -0.799740 0.473619 -0.356129 1.000000
tan -0.571951 0.785479 -0.226487 1.000000
tan -0.559613 0.530969 -0.629859 1.000000
tan -0.860810 0.445533 -0.260773 1.000000
tan -0.552979 0.530473 -0.636493 1.000000
tan -0.589001 0.790501 -0.131192 1.000000
tan -0.823672 0.564635 0.074834 1.000000
tan -0.624961 0.773389 -0.020274 1.000000
tan -0.528861 0.670841 0.511873 1.000000
tan -0.450121 0.459545 -0.734825 1.000000
tan -0.416889 0.002728 -0.904210 1.000000
tan 0.038874 -0.031496 -1.000000 1.000000
tan -0.698307 -0.081344 -0.654783 1.000000
tan -0.857958 -0.157232 -0.468349 1.000000
tan -0.659309 0.089280 -0.747845 1.000000
tan -0.066960 0.202554 -0.930250 1.000000
tan -0.335731 0.544113 -0.748403 1.000000
tan 0.115630 0.226486 -0.894910 1.000000
tan -0.611755 0.564945 -0.541323 1.000000
tan -0.686961 -0.503255 -0.503317 1.000000
tan -0.681443 -0.502015 -0.505983 1.000000
tan -0.714861 -0.486391 -0.494823 1.000000
tan -0.520801 -0.443611 -0.686341 1.000000
tan -0.479261 -0.426995 -0.723727 1.000000
tan -0.479261 -0.425631 -0.717031 1.000000
tan -0.451423 -0.409139 -0.728377 1.000000
tan -0.543741 -0.297167 -0.720937 1.000000
tan -0.407093 0.057164 -0.792485 1.000000
tan -0.499349 -0.440697 -0.710769 1.000000
tan -0.609337 -0.481121 -0.589249 1.000000
tan -0.696385 -0.512245 -0.488809 1.000000
tan 0.267593 -0.718147 0.580321 1.000000
tan 0.632401 -0.763717 0.087792 1.000000
tan 0.039060 -0.960630 0.267717 1.000000
tan 0.713807 -0.576415 0.206460 1.000000
tan 0.461033 -0.817038 -0.018786 1.000000
tan 0.264679 -0.709219 0.635563 1.000000
tan -0.688449 -0.501705 -0.506169 1.000000
tan -0.663897 -0.347449 -0.607725 1.000000
tan -0.494699 -0.005208 -0.758819 1.000000
tan -0.784302 -0.501891 -0.368281 1.000000
tan -0.761982 -0.521669 -0.378883 1.000000
tan -0.450245 0.645483 -0.597433 1.000000
tan -0.721805 -0.519933 -0.452601 1.000000
tan -0.101060 0.345093 -0.885238 1.000000
tan 0.016740 0.416765 -0.811396 1.000000
tan -0.669043 0.645111 -0.373923 1.000000
tan -0.770166 -0.499349 -0.392337 1.000000
tan -0.642383 -0.494389 -0.561907 1.000000
tan -0.707049 -0.516089 -0.476657 1.000000
tan -0.578337 -0.473309 -0.641081 1.000000
tan -0.642693 -0.490731 -0.568603 1.000000
tan -0.693657 -0.512245 -0.496745 1.000000
tan -0.652179 0.745303 0.049538 1.000000
tan -0.303243 0.924236 0.183892 1.000000
tan -0.700973 0.670283 -0.131254 1.000000
tan -0.692045 0.554777 0.421353 1.000000
tan -0.133920 0.837002 -0.469961 1.000000
tan 0.657945 0.606733 0.447021 1.000000
tan -0.382789 0.914006 -0.012462 1.000000
tan -0.299957 0.877922 -0.336661 1.000000
tan 0.167028 0.456321 0.809163 1.000000
tan -0.486887 0.707669 -0.413231 1.000000
tan -0.205840 0.301817 0.825345 1.000000
tan -0.322587 0.875070 0.104160 1.000000
tan -0.407403 0.374357 0.781387 1.000000
tan -0.068944 0.973960 0.176576 1.000000
tan 0.693905 0.463761 0.545105 1.000000
tan -0.150598 0.890198 0.317068 1.000000
tan 0.655217 0.464319 0.589125 1.000000
tan 0.238824 0.956600 -0.142662 1.000000
tan 0.652365 -0.528551 0.546035 1.000000
tan 0.668609 -0.526071 0.522909 1.000000
tan 0.636121 -0.522971 0.562465 1.000000
tan 0.722301 0.467791 0.496001 1.000000
tan 0.619939 -0.525265 0.585591 1.000000
tan 0.684853 -0.526443 0.506479 1.000000
tan 0.730795 0.466799 0.477401 1.000000
tan 0.725029 0.448385 0.481679 1.000000
tan 0.701345 -0.528551 0.483353 1.000000
tan 0.676297 0.639283 0.312604 1.000000
tan 0.714737 -0.519375 0.463513 1.000000
tan 0.718953 0.333933 0.575237 1.000000
tan 0.724410 -0.519499 0.442867 1.000000
tan 0.643313 0.446897 0.608097 1.000000
tan 0.734330 -0.517825 0.419989 1.000000
tan 0.719449 0.083452 0.684233 1.000000
tan 0.750574 -0.524645 0.403311 1.000000
tan 0.731539 -0.062124 0.687085 1.000000
tan 0.757208 -0.518755 0.383409 1.000000
tan 0.733400 -0.175274 0.647157 1.000000
tan 0.766818 -0.515841 0.367103 1.000000
tan 0.753673 -0.279620 0.579701 1.000000
tan 0.776986 -0.516461 0.350797 1.000000
tan 0.776986 -0.352471 0.495443 1.000000
tan 0.776552 -0.513423 0.334119 1.000000
tan 0.794718 -0.429289 0.405357 1.000000
tan 0.779590 -0.517453 0.323889 1.000000
tan 0.800298 -0.502821 0.309195 1.000000
tan 0.786162 -0.517515 0.317317 1.000000
tan 0.779466 -0.571145 0.203112 1.000000
tan 0.786162 -0.517515 0.317317 1.000000
tan 0.751751 -0.635501 0.107694 1.000000
tan 0.705251 -0.544237 0.457685 1.000000
tan 0.703081 -0.703081 0.005580 1.000000
tan 0.626449 0.319177 0.693781 1.000000
tan 0.676855 0.209250 0.690805 1.000000
tan 0.644057 -0.555955 0.520987 1.000000
tan 0.638539 -0.739599 -0.086986 1.000000
tan 0.569905 0.385393 0.691921 1.000000
tan 0.644057 -0.552917 0.514477 1.000000
tan 0.600719 -0.749953 -0.175026 1.000000
tan 0.541819 0.427367 0.699485 1.000000
tan 0.605431 -0.555335 0.559861 1.000000
tan 0.571021 0.425817 0.670035 1.000000
tan 0.531217 -0.559241 0.634633 1.000000
tan 0.557257 -0.563023 0.615103 1.000000
tan 0.617211 0.653729 -0.356067 1.000000
tan 0.675553 0.637113 -0.308327 1.000000
tan 0.612189 0.430777 0.645793 1.000000
tan 0.579825 -0.563581 0.592349 1.000000
tan 0.473557 0.788083 -0.325129 1.000000
tan 0.624217 0.437473 0.629921 1.000000
tan 0.602393 -0.569905 0.569657 1.000000
tan 0.224130 0.956600 -0.159960 1.000000
tan 0.664393 0.446401 0.607849 1.000000
tan -0.088846 0.973960 0.164486 1.000000
tan 0.624961 -0.565441 0.546841 1.000000
tan -0.251720 0.828942 0.428545 1.000000
tan 0.686465 0.439395 0.576911 1.000000
tan 0.640957 -0.560109 0.517515 1.000000
tan -0.284581 0.705313 0.590923 1.000000
tan 0.698679 -0.325191 0.628557 1.000000
tan 0.711761 0.425321 0.520801 1.000000
tan -0.245521 0.685349 0.649265 1.000000
tan 0.679273 -0.560481 0.471697 1.000000
tan 0.615537 -0.562837 0.550189 1.000000
tan 0.725153 0.424019 0.492529 1.000000
tan 0.577159 -0.563581 0.595945 1.000000
tan -0.146506 -0.774195 0.587327 1.000000
tan -0.053940 -0.765577 0.632773 1.000000
tan 0.729927 0.379999 0.527063 1.000000
tan 0.034472 -0.710893 0.695269 1.000000
tan 0.577345 -0.555149 0.589435 1.000000
tan 0.720813 0.307769 0.581189 1.000000
tan 0.140244 -0.643251 0.744002 1.000000
tan 0.589497 -0.558497 0.594953 1.000000
tan 0.720193 0.195982 0.642321 1.000000
tan 0.245706 -0.570649 0.786968 1.000000
tan 0.596069 -0.558993 0.588381 1.000000
tan 0.720503 0.058528 0.681133 1.000000
tan 0.353897 -0.492281 0.798810 1.000000
tan 0.603881 -0.313101 0.695641 1.000000
tan 0.612189 -0.546035 0.565193 1.000000
tan 0.450617 -0.409449 0.794346 1.000000
tan 0.734392 -0.195486 0.642259 1.000000
tan 0.618761 -0.546531 0.558621 1.000000
tan 0.534875 -0.331763 0.765453 1.000000
tan 0.750821 -0.293570 0.576911 1.000000
tan 0.628123 -0.547027 0.548763 1.000000
tan 0.619381 -0.248000 0.739041 1.000000
tan 0.767996 -0.370761 0.492529 1.000000
tan 0.640771 -0.542439 0.547275 1.000000
tan 0.682621 -0.155310 0.718891 1.000000
tan 0.784054 -0.441503 0.411123 1.000000
tan 0.650133 -0.536921 0.537355 1.000000
tan 0.716597 -0.039928 0.688511 1.000000
tan 0.786534 -0.513485 0.313969 1.000000
tan 0.656767 -0.537417 0.530721 1.000000
tan 0.720565 0.099200 0.690433 1.000000
tan 0.779652 -0.578833 0.212536 1.000000
tan 0.656767 -0.534689 0.524087 1.000000
tan 0.686651 0.232811 0.685101 1.000000
tan 0.745366 -0.643251 0.113212 1.000000
tan 0.663401 -0.531713 0.524087 1.000000
tan 0.618513 0.344225 0.685349 1.000000
tan 0.698493 -0.690557 0.015748 1.000000
tan 0.672329 -0.531713 0.525823 1.000000
tan 0.561597 0.413045 0.693657 1.000000
tan 0.646413 -0.731973 -0.076508 1.000000
tan 0.633393 -0.532271 0.572323 1.000000
tan 0.608903 -0.744869 -0.165478 1.000000
tan 0.531589 0.451423 0.698989 1.000000
tan 0.567673 -0.520305 0.632029 1.000000
tan 0.570897 0.447207 0.669043 1.000000
tan 0.609709 0.452105 0.636617 1.000000
tan 0.684233 0.629921 -0.295865 1.000000
tan 0.583669 -0.526691 0.615537 1.000000
tan 0.633021 0.657945 -0.338397 1.000000
tan 0.616157 0.461529 0.628743 1.000000
tan 0.603757 -0.530411 0.602145 1.000000
tan 0.486205 0.792361 -0.307893 1.000000
tan 0.640461 0.462583 0.611135 1.000000
tan -0.923182 0.316821 0.168020 1.000000
tan -0.828074 0.491289 -0.246079 1.000000
tan -0.893360 0.342427 0.273792 1.000000
tan -0.846922 0.473061 -0.179490 1.000000
tan -0.946494 0.272057 0.063612 1.000000
tan -0.902412 -0.070742 -0.377209 1.000000
tan -0.866948 -0.187674 -0.393949 1.000000
tan -0.919276 0.064852 -0.362887 1.000000
tan -0.773018 0.505797 -0.363073 1.000000
tan -0.868374 -0.236902 -0.346333 1.000000
tan -0.839358 0.475789 -0.184140 1.000000
tan -0.911402 0.206584 -0.361523 1.000000
tan -0.962366 0.224750 -0.039556 1.000000
tan -0.858082 0.459793 -0.104036 1.000000
tan -0.956848 0.173910 -0.134354 1.000000
tan -0.882262 0.403497 0.061442 1.000000
tan -0.938558 0.126852 -0.227664 1.000000
tan -0.882262 0.408953 0.048174 1.000000
tan -0.917850 0.077252 -0.311613 1.000000
tan -0.882262 0.422221 0.035960 1.000000
tan -0.889330 0.027776 -0.378945 1.000000
tan -0.875504 0.430777 0.016430 1.000000
tan -0.873210 -0.044206 -0.441131 1.000000
tan -0.875504 0.439147 -0.003286 1.000000
tan -0.853370 -0.134664 -0.473929 1.000000
tan -0.866142 0.444231 -0.026288 1.000000
tan -0.842768 -0.250605 -0.469341 1.000000
tan -0.866142 0.460351 -0.045012 1.000000
tan -0.827330 -0.363197 -0.419865 1.000000
tan -0.864282 0.472689 -0.074648 1.000000
tan -0.807490 -0.450059 -0.351665 1.000000
tan -0.857710 0.477897 -0.094364 1.000000
tan -0.795710 -0.498481 -0.286316 1.000000
tan -0.733772 0.641081 -0.091760 1.000000
tan -0.805754 -0.517143 -0.245024 1.000000
tan -0.841528 0.499225 -0.148428 1.000000
tan -0.812574 -0.522599 -0.222828 1.000000
tan -0.832104 0.507533 -0.177816 1.000000
tan -0.824478 -0.499721 -0.222828 1.000000
tan -0.825594 0.512927 -0.197346 1.000000
tan -0.816914 0.516337 -0.227478 1.000000
tan -0.837560 -0.484593 -0.245334 1.000000
tan -0.800918 0.521669 -0.256805 1.000000
tan -0.864592 -0.448385 -0.210614 1.000000
tan -0.794408 0.527311 -0.276335 1.000000
tan -0.867258 -0.389361 -0.242420 1.000000
tan -0.374853 -0.734949 0.525637 1.000000
tan -0.519933 -0.624341 0.576973 1.000000
tan -0.779032 0.535867 -0.305661 1.000000
tan -0.651249 -0.466737 0.590489 1.000000
tan -0.876806 -0.312481 -0.258416 1.000000
tan -0.769484 0.534627 -0.329035 1.000000
tan -0.737863 -0.380743 0.540145 1.000000
tan -0.874822 -0.263439 -0.283961 1.000000
tan -0.762974 0.540517 -0.348565 1.000000
tan -0.805444 -0.337653 0.474115 1.000000
tan -0.865274 -0.219232 -0.344969 1.000000
tan -0.855602 -0.329345 0.386385 1.000000
tan -0.746916 0.543183 -0.371319 1.000000
tan -0.814186 0.506913 -0.238825 1.000000
tan -0.868870 -0.162688 -0.384277 1.000000
tan -0.839792 0.486019 -0.167400 1.000000
tan -0.885610 0.349929 0.276769 1.000000
tan -0.901854 -0.047492 -0.369769 1.000000
tan -0.922996 0.316759 0.168206 1.000000
tan -0.833282 0.488933 -0.180420 1.000000
tan -0.920888 0.089466 -0.353773 1.000000
tan -0.953066 0.273421 0.062558 1.000000
tan -0.837746 0.484469 -0.193192 1.000000
tan -0.898568 0.223572 -0.357121 1.000000
tan -0.961002 0.217000 -0.042408 1.000000
tan -0.831174 0.487445 -0.206336 1.000000
tan -0.861182 0.341125 -0.371009 1.000000
tan -0.954864 0.166966 -0.136214 1.000000
tan -0.828136 0.490483 -0.216008 1.000000
tan -0.803522 0.442433 -0.405729 1.000000
tan -0.945874 0.112840 -0.229028 1.000000
tan -0.828136 0.493521 -0.222580 1.000000
tan -0.726703 0.526195 -0.439705 1.000000
tan -0.913448 0.064728 -0.311737 1.000000
tan -0.821564 0.486081 -0.229958 1.000000
tan -0.647653 0.615413 -0.462397 1.000000
tan -0.883936 0.015004 -0.386881 1.000000
tan -0.825904 0.489119 -0.242173 1.000000
tan -0.546779 0.696013 -0.457003 1.000000
tan -0.861926 -0.053878 -0.447827 1.000000
tan -0.825160 0.486515 -0.242173 1.000000
tan -0.450493 0.781077 -0.430963 1.000000
tan -0.848162 -0.151838 -0.489491 1.000000
tan -0.825160 0.486515 -0.242173 1.000000
tan -0.342737 0.859818 -0.361585 1.000000
tan -0.838676 -0.261641 -0.480129 1.000000
tan -0.246636 0.931552 -0.272863 1.000000
tan -0.825160 0.486515 -0.242173 1.000000
tan -0.818402 -0.385393 -0.431521 1.000000
tan -0.164114 0.968752 -0.162750 1.000000
tan -0.828818 0.479137 -0.239258 1.000000
tan -0.798314 -0.463885 -0.361399 1.000000
tan -0.108376 0.992126 -0.039060 1.000000
tan -0.828136 0.473681 -0.232625 1.000000
tan -0.785294 -0.512431 -0.293323 1.000000
tan -0.084444 0.977680 0.092442 1.000000
tan -0.868622 -0.283465 -0.232748 1.000000
tan -0.842272 0.475417 -0.214334 1.000000
tan -0.074648 0.957220 0.167276 1.000000
tan -0.804886 -0.540393 -0.221154 1.000000
tan -0.841590 0.475975 -0.221030 1.000000
tan -0.823052 -0.528923 -0.195796 1.000000
tan -0.844194 -0.504433 -0.191952 1.000000
tan -0.029202 -0.956538 0.013454 1.000000
tan -0.124744 -0.926282 0.163184 1.000000
tan -0.832042 0.481493 -0.244157 1.000000
tan -0.339823 -0.802777 0.434311 1.000000
tan -0.864034 -0.473681 -0.194432 1.000000
tan -0.822494 0.487011 -0.267283 1.000000
tan -0.532953 -0.619257 0.570029 1.000000
tan -0.867506 -0.429847 -0.204724 1.000000
tan -0.815240 0.489615 -0.287371 1.000000
tan -0.659185 -0.466427 0.582801 1.000000
tan -0.805754 0.494947 -0.310497 1.000000
tan -0.868746 -0.380247 -0.227044 1.000000
tan -0.749023 -0.377209 0.532209 1.000000
tan -0.789572 0.501581 -0.326493 1.000000
tan -0.871040 -0.330709 -0.251100 1.000000
tan -0.814682 -0.332941 0.458863 1.000000
tan -0.782876 0.506851 -0.346581 1.000000
tan -0.877984 -0.280117 -0.285015 1.000000
tan -0.863538 -0.314961 0.381673 1.000000
f 3/3/3 2/2/2 1/1/1
f 4/4/4 1/1/1 2/2/2
f 1/1/1 4/4/4 5/5/5
f 6/6/6 5/5/5 4/4/4
f 5/5/5 6/6/6 7/7/7
f 8/8/8 7/7/7 6/6/6
f 7/7/7 8/8/8 9/9/9
f 10/10/10 9/9/9 8/8/8
f 9/9/9 10/10/10 11/11/11
f 12/12/12 11/11/11 10/10/10
f 11/11/11 12/12/12 13/13/13
f 14/14/14 13/13/13 12/12/12
f 13/13/13 14/14/14 15/15/15
f 16/16/16 15/15/15 14/14/14
f 15/15/15 16/16/16 17/17/17
f 17/17/17 18/18/18 15/15/15
f 16/16/16 19/19/19 17/17/17
f 20/20/20 17/17/17 19/19/19
f 17/17/17 20/20/20 21/21/21
f 22/22/22 21/21/21 20/20/20
f 21/21/21 22/22/22 23/23/23
f 24/24/24 23/23/23 22/22/22
f 23/23/23 24/24/24 25/25/25
f 26/26/26 25/25/25 24/24/24
f 25/25/25 26/26/26 27/27/27
f 28/28/28 27/27/27 26/26/26
f 27/27/27 28/28/28 29/29/29
f 30/30/30 29/29/29 28/28/28
f 29/29/29 30/30/30 31/31/31
f 32/32/32 31/31/31 30/30/30
f 35/35/35 34/34/34 33/33/33
f 36/36/36 33/33/33 34/34/34
f 34/34/34 37/37/37 36/36/36
f 38/38/38 36/36/36 37/37/37
f 37/37/37 39/39/39 38/38/38
f 40/40/40 38/38/38 39/39/39
f 40/40/40 39/39/39 41/41/41
f 42/42/42 40/40/40 41/41/41
f 42/42/42 41/41/41 43/43/43
f 43/43/43 44/44/44 42/42/42
f 44/44/44 43/43/43 45/45/45
f 45/45/45 46/46/46 44/44/44
f 46/46/46 45/45/45 47/47/47
f 47/47/47 48/48/48 46/46/46
f 48/48/48 47/47/47 49/49/49
f 50/50/50 49/49/49 47/47/47
f 47/47/47 52/52/52 51/51/51
f 51/51/51 50/50/50 47/47/47
f 50/50/50 51/51/51 53/53/53
f 53/53/53 54/54/54 50/50/50
f 54/54/54 53/53/53 55/55/55
f 55/55/55 56/56/56 54/54/54
f 56/56/56 55/55/55 57/57/57
f 57/57/57 58/58/58 56/56/56
f 58/58/58 57/57/57 59/59/59
f 59/59/59 60/60/60 58/58/58
f 60/60/60 59/59/59 61/61/61
f 61/61/61 62/62/62 60/60/60
f 62/62/62 61/61/61 63/63/63
f 63/63/63 64/64/64 62/62/62
f 67/67/67 66/66/66 65/65/65
f 65/65/65 68/68/68 67/67/67
f 68/68/68 65/65/65 69/69/69
f 69/69/69 70/70/70 68/68/68
f 70/70/70 69/69/69 71/71/71
f 71/71/71 72/72/72 70/70/70
f 72/72/72 71/71/71 73/73/73
f 73/73/73 74/74/74 72/72/72
f 74/74/74 73/73/73 75/75/75
f 76/76/76 75/75/75 73/73/73
f 75/75/75 76/76/76 77/77/77
f 78/78/78 77/77/77 76/76/76
f 77/77/77 78/78/78 79/79/79
f 80/80/80 79/79/79 78/78/78
f 79/79/79 80/80/80 81/81/81
f 82/82/82 81/81/81 80/80/80
f 81/81/81 82/82/82 83/83/83
f 84/84/84 83/83/83 82/82/82
f 83/83/83 84/84/84 85/85/85
f 86/86/86 85/85/85 84/84/84
f 84/84/84 87/87/87 86/86/86
f 88/88/88 86/86/86 87/87/87
f 91/91/91 90/90/90 89/89/89
f 92/92/92 89/89/89 90/90/90
f 89/89/89 92/92/92 93/93/93
f 94/94/94 93/93/93 92/92/92
f 93/93/93 94/94/94 95/95/95
f 96/96/96 95/95/95 94/94/94
f 95/95/95 96/96/96 97/97/97
f 98/98/98 97/97/97 96/96/96
f 97/97/97 98/98/98 99/99/99
f 99/99/99 100/100/100 97/97/97
f 100/100/100 99/99/99 101/101/101
f 101/101/101 102/102/102 100/100/100
f 102/102/102 101/101/101 103/103/103
f 103/103/103 104/104/104 102/102/102
f 104/104/104 103/103/103 105/105/105
f 105/105/105 106/106/106 104/104/104
f 106/106/106 105/105/105 107/107/107
f 107/107/107 108/108/108 106/106/106
f 110/110/110 109/109/109 108/108/108
f 108/108/108 107/107/107 110/110/110
f 111/111/111 110/110/110 107/107/107
f 107/107/107 112/112/112 111/111/111
f 115/115/115 114/114/114 113/113/113
f 116/116/116 113/113/113 114/114/114
f 113/113/113 116/116/116 117/117/117
f 118/118/118 117/117/117 116/116/116
f 117/117/117 118/118/118 119/119/119
f 120/120/120 119/119/119 118/118/118
f 119/119/119 120/120/120 121/121/121
f 122/122/122 121/121/121 120/120/120
f 121/121/121 122/122/122 123/123/123
f 124/124/124 123/123/123 122/122/122
f 123/123/123 124/124/124 125/125/125
f 126/126/126 125/125/125 124/124/124
f 125/125/125 126/126/126 127/127/127
f 128/128/128 127/127/127 126/126/126
f 128/128/128 129/129/129 127/127/127
f 130/130/130 127/127/127 129/129/129
f 132/132/132 127/127/127 131/131/131
f 130/130/130 131/131/131 127/127/127
f 131/131/131 130/130/130 133/133/133
f 134/134/134 133/133/133 130/130/130
f 133/133/133 134/134/134 135/135/135
f 136/136/136 135/135/135 134/134/134
f 139/139/139 138/138/138 137/137/137
f 137/137/137 140/140/140 139/139/139
f 140/140/140 137/137/137 141/141/141
f 141/141/141 142/142/142 140/140/140
f 142/142/142 141/141/141 143/143/143
f 143/143/143 144/144/144 142/142/142
f 143/143/143 145/145/145 144/144/144
f 145/145/145 146/146/146 144/144/144
f 145/145/145 147/147/147 146/146/146
f 147/147/147 148/148/148 146/146/146
f 147/147/147 149/149/149 148/148/148
f 149/149/149 150/150/150 148/148/148
f 149/149/149 151/151/151 150/150/150
f 152/152/152 150/150/150 151/151/151
f 152/152/152 151/151/151 153/153/153
f 154/154/154 153/153/153 151/151/151
f 152/152/152 153/153/153 155/155/155
f 153/153/153 156/156/156 155/155/155
f 153/153/153 157/157/157 156/156/156
f 158/158/158 156/156/156 157/157/157
f 157/157/157 159/159/159 158/158/158
f 160/160/160 158/158/158 159/159/159
f 163/163/163 162/162/162 161/161/161
f 164/164/164 161/161/161 162/162/162
f 162/162/162 165/165/165 164/164/164
f 167/167/167 164/164/164 166/166/166
f 168/168/168 164/164/164 165/165/165
f 168/168/168 166/166/166 164/164/164
f 165/165/165 169/169/169 168/168/168
f 166/166/166 168/168/168 170/170/170
f 171/171/171 168/168/168 169/169/169
f 171/171/171 170/170/170 168/168/168
f 169/169/169 172/172/172 171/171/171
f 170/170/170 171/171/171 173/173/173
f 174/174/174 171/171/171 172/172/172
f 174/174/174 173/173/173 171/171/171
f 172/172/172 175/175/175 174/174/174
f 173/173/173 174/174/174 176/176/176
f 177/177/177 174/174/174 175/175/175
f 177/177/177 176/176/176 174/174/174
f 175/175/175 178/178/178 177/177/177
f 176/176/176 177/177/177 179/179/179
f 180/180/180 177/177/177 178/178/178
f 180/180/180 179/179/179 177/177/177
f 178/178/178 181/181/181 180/180/180
f 179/179/179 180/180/180 182/182/182
f 183/183/183 180/180/180 181/181/181
f 183/183/183 182/182/182 180/180/180
f 181/181/181 184/184/184 183/183/183
f 182/182/182 183/183/183 185/185/185
f 183/183/183 184/184/184 186/186/186
f 183/183/183 186/186/186 185/185/185
f 187/187/187 186/186/186 184/184/184
f 188/188/188 185/185/185 186/186/186
f 186/186/186 187/187/187 189/189/189
f 186/186/186 189/189/189 188/188/188
f 190/190/190 189/189/189 187/187/187
f 189/189/189 191/191/191 188/188/188
f 189/189/189 190/190/190 192/192/192
f 189/189/189 192/192/192 191/191/191
f 193/193/193 192/192/192 190/190/190
f 192/192/192 194/194/194 191/191/191
f 192/192/192 193/193/193 195/195/195
f 192/192/192 195/195/195 194/194/194
f 195/195/195 196/196/196 194/194/194
f 197/197/197 195/195/195 193/193/193
f 196/196/196 195/195/195 198/198/198
f 195/195/195 197/197/197 199/199/199
f 199/199/199 198/198/198 195/195/195
f 198/198/198 199/199/199 200/200/200
f 201/201/201 199/199/199 197/197/197
f 202/202/202 200/200/200 199/199/199
f 199/199/199 201/201/201 202/202/202
f 203/203/203 202/202/202 201/201/201
f 202/202/202 203/203/203 204/204/204
f 205/205/205 204/204/204 203/203/203
f 204/204/204 205/205/205 206/206/206
f 206/206/206 207/207/207 204/204/204
f 210/210/210 209/209/209 208/208/208
f 211/211/211 208/208/208 209/209/209
f 212/212/212 208/208/208 211/211/211
f 211/211/211 213/213/213 212/212/212
f 212/212/212 213/213/213 214/214/214
f 211/211/211 215/215/215 213/213/213
f 214/214/214 213/213/213 216/216/216
f 213/213/213 215/215/215 217/217/217
f 218/218/218 216/216/216 213/213/213
f 217/217/217 218/218/218 213/213/213
f 218/218/218 217/217/217 219/219/219
f 222/222/222 221/221/221 220/220/220
f 223/223/223 220/220/220 221/221/221
f 223/223/223 224/224/224 220/220/220
f 225/225/225 220/220/220 224/224/224
f 227/227/227 226/226/226 224/224/224
f 224/224/224 228/228/228 225/225/225
f 228/228/228 224/224/224 226/226/226
f 229/229/229 225/225/225 228/228/228
f 226/226/226 230/230/230 228/228/228
f 228/228/228 231/231/231 229/229/229
f 231/231/231 228/228/228 230/230/230
f 231/231/231 230/230/230 232/232/232
f 233/233/233 231/231/231 232/232/232
f 232/232/232 234/234/234 233/233/233
f 235/235/235 234/234/234 232/232/232
f 234/234/234 235/235/235 236/236/236
f 237/237/237 234/234/234 236/236/236
f 238/238/238 236/236/236 235/235/235
f 236/236/236 239/239/239 237/237/237
f 236/236/236 238/238/238 239/239/239
f 240/240/240 237/237/237 239/239/239
f 241/241/241 239/239/239 238/238/238
f 240/240/240 239/239/239 242/242/242
f 241/241/241 243/243/243 239/239/239
f 244/244/244 242/242/242 239/239/239
f 244/244/244 239/239/239 243/243/243
f 242/242/242 244/244/244 245/245/245
f 243/243/243 246/246/246 244/244/244
f 247/247/247 245/245/245 244/244/244
f 247/247/247 244/244/244 246/246/246
f 245/245/245 247/247/247 248/248/248
f 246/246/246 249/249/249 247/247/247
f 250/250/250 248/248/248 247/247/247
f 250/250/250 247/247/247 249/249/249
f 248/248/248 250/250/250 251/251/251
f 249/249/249 252/252/252 250/250/250
f 253/253/253 251/251/251 250/250/250
f 253/253/253 250/250/250 252/252/252
f 251/251/251 253/253/253 254/254/254
f 253/253/253 252/252/252 255/255/255
f 256/256/256 254/254/254 253/253/253
f 256/256/256 253/253/253 255/255/255
f 254/254/254 256/256/256 257/257/257
f 256/256/256 255/255/255 258/258/258
f 259/259/259 257/257/257 256/256/256
f 259/259/259 256/256/256 258/258/258
f 259/259/259 258/258/258 260/260/260
f 257/257/257 259/259/259 261/261/261
f 262/262/262 259/259/259 260/260/260
f 262/262/262 261/261/261 259/259/259
f 261/261/261 262/262/262 263/263/263
f 264/264/264 263/263/263 262/262/262
f 267/267/267 266/266/266 265/265/265
f 268/268/268 265/265/265 266/266/266
f 268/268/268 266/266/266 269/269/269
f 270/270/270 269/269/269 266/266/266
f 273/273/273 272/272/272 271/271/271
f 274/274/274 271/271/271 272/272/272
f 272/272/272 275/275/275 274/274/274
f 274/274/274 275/275/275 276/276/276
f 275/275/275 272/272/272 277/277/277
f 275/275/275 278/278/278 276/276/276
f 279/279/279 276/276/276 278/278/278
f 278/278/278 280/280/280 279/279/279
f 275/275/275 277/277/277 281/281/281
f 278/278/278 275/275/275 281/281/281
f 282/282/282 281/281/281 277/277/277
f 282/282/282 283/283/283 281/281/281
f 278/278/278 281/281/281 284/284/284
f 278/278/278 284/284/284 285/285/285
f 286/286/286 284/284/284 281/281/281
f 289/289/289 288/288/288 287/287/287
f 290/290/290 287/287/287 288/288/288
f 291/291/291 287/287/287 290/290/290
f 291/291/291 292/292/292 287/287/287
f 295/295/295 294/294/294 293/293/293
f 294/294/294 296/296/296 293/293/293
f 297/297/297 293/293/293 296/296/296
f 297/297/297 296/296/296 298/298/298
f 297/297/297 299/299/299 293/293/293
f 301/301/301 300/300/300 298/298/298
f 302/302/302 298/298/298 300/300/300
f 297/297/297 298/298/298 302/302/302
f 302/302/302 303/303/303 297/297/297
f 297/297/297 303/303/303 304/304/304
f 297/297/297 304/304/304 299/299/299
f 299/299/299 304/304/304 305/305/305
f 306/306/306 299/299/299 305/305/305
f 307/307/307 305/305/305 304/304/304
f 305/305/305 307/307/307 308/308/308
f 311/311/311 310/310/310 309/309/309
f 312/312/312 310/310/310 311/311/311
f 313/313/313 312/312/312 311/311/311
f 314/314/314 310/310/310 312/312/312
f 312/312/312 313/313/313 315/315/315
f 314/314/314 312/312/312 315/315/315
f 315/315/315 313/313/313 316/316/316
f 314/314/314 315/315/315 317/317/317
f 315/315/315 316/316/316 318/318/318
f 317/317/317 315/315/315 319/319/319
f 315/315/315 318/318/318 320/320/320
f 320/320/320 319/319/319 315/315/315
f 319/319/319 320/320/320 321/321/321
f 324/324/324 323/323/323 322/322/322
f 325/325/325 322/322/322 323/323/323
f 322/322/322 325/325/325 326/326/326
f 323/323/323 327/327/327 325/325/325
f 327/327/327 323/323/323 328/328/328
f 329/329/329 325/325/325 327/327/327
f 330/330/330 328/328/328 323/323/323
f 329/329/329 331/331/331 325/325/325
f 328/328/328 330/330/330 332/332/332
f 333/333/333 332/332/332 330/330/330
f 333/333/333 334/334/334 332/332/332
f 335/335/335 332/332/332 334/334/334
f 334/334/334 336/336/336 335/335/335
f 337/337/337 335/335/335 336/336/336
f 336/336/336 338/338/338 337/337/337
f 339/339/339 337/337/337 338/338/338
f 338/338/338 340/340/340 339/339/339
f 341/341/341 339/339/339 340/340/340
f 340/340/340 342/342/342 341/341/341
f 343/343/343 341/341/341 342/342/342
f 342/342/342 344/344/344 343/343/343
f 345/345/345 343/343/343 344/344/344
f 345/345/345 344/344/344 346/346/346
f 346/346/346 347/347/347 345/345/345
f 347/347/347 346/346/346 348/348/348
f 348/348/348 349/349/349 347/347/347
f 349/349/349 348/348/348 350/350/350
f 350/350/350 351/351/351 349/349/349
f 351/351/351 350/350/350 352/352/352
f 352/352/352 353/353/353 351/351/351
f 353/353/353 352/352/352 354/354/354
f 355/355/355 353/353/353 354/354/354
f 355/355/355 354/354/354 356/356/356
f 357/357/357 355/355/355 356/356/356
f 357/357/357 356/356/356 358/358/358
f 359/359/359 357/357/357 358/358/358
f 358/358/358 360/360/360 359/359/359
f 362/362/362 359/359/359 361/361/361
f 363/363/363 359/359/359 360/360/360
f 363/363/363 361/361/361 359/359/359
f 360/360/360 364/364/364 363/363/363
f 361/361/361 363/363/363 365/365/365
f 366/366/366 363/363/363 364/364/364
f 366/366/366 365/365/365 363/363/363
f 364/364/364 367/367/367 366/366/366
f 365/365/365 366/366/366 368/368/368
f 369/369/369 366/366/366 367/367/367
f 369/369/369 368/368/368 366/366/366
f 368/368/368 369/369/369 370/370/370
f 371/371/371 370/370/370 369/369/369
f 371/371/371 372/372/372 370/370/370
f 374/374/374 370/370/370 373/373/373
f 375/375/375 370/370/370 372/372/372
f 375/375/375 373/373/373 370/370/370
f 372/372/372 376/376/376 375/375/375
f 373/373/373 375/375/375 377/377/377
f 378/378/378 375/375/375 376/376/376
f 378/378/378 377/377/377 375/375/375
f 376/376/376 379/379/379 378/378/378
f 377/377/377 378/378/378 380/380/380
f 381/381/381 378/378/378 379/379/379
f 381/381/381 380/380/380 378/378/378
f 380/380/380 381/381/381 382/382/382
f 379/379/379 383/383/383 381/381/381
f 382/382/382 381/381/381 384/384/384
f 381/381/381 383/383/383 385/385/385
f 385/385/385 384/384/384 381/381/381
f 386/386/386 385/385/385 383/383/383
f 384/384/384 385/385/385 387/387/387
f 385/385/385 386/386/386 388/388/388
f 388/388/388 387/387/387 385/385/385
f 387/387/387 388/388/388 389/389/389
f 389/389/389 390/390/390 387/387/387
f 391/391/391 389/389/389 388/388/388
f 389/389/389 391/391/391 392/392/392
f 392/392/392 393/393/393 389/389/389
f 393/393/393 392/392/392 394/394/394
f 392/392/392 395/395/395 394/394/394
f 396/396/396 394/394/394 395/395/395
f 394/394/394 397/397/397 393/393/393
f 394/394/394 396/396/396 398/398/398
f 397/397/397 394/394/394 399/399/399
f 398/398/398 399/399/399 394/394/394
f 399/399/399 400/400/400 397/397/397
f 399/399/399 398/398/398 401/401/401
f 400/400/400 399/399/399 402/402/402
f 401/401/401 402/402/402 399/399/399
f 402/402/402 403/403/403 400/400/400
f 402/402/402 401/401/401 404/404/404
f 403/403/403 402/402/402 405/405/405
f 404/404/404 405/405/405 402/402/402
f 405/405/405 406/406/406 403/403/403
f 405/405/405 404/404/404 407/407/407
f 406/406/406 405/405/405 408/408/408
f 407/407/407 408/408/408 405/405/405
f 408/408/408 407/407/407 409/409/409
f 410/410/410 409/409/409 407/407/407
f 411/411/411 408/408/408 409/409/409
f 409/409/409 410/410/410 412/412/412
f 411/411/411 409/409/409 412/412/412
f 413/413/413 412/412/412 410/410/410
f 414/414/414 411/411/411 412/412/412
f 412/412/412 413/413/413 415/415/415
f 414/414/414 412/412/412 415/415/415
f 416/416/416 415/415/415 413/413/413
f 417/417/417 414/414/414 415/415/415
f 415/415/415 416/416/416 418/418/418
f 417/417/417 415/415/415 418/418/418
f 419/419/419 418/418/418 416/416/416
f 420/420/420 417/417/417 418/418/418
f 418/418/418 419/419/419 421/421/421
f 420/420/420 418/418/418 421/421/421
f 422/422/422 421/421/421 419/419/419
f 421/421/421 423/423/423 420/420/420
f 421/421/421 422/422/422 424/424/424
f 423/423/423 421/421/421 424/424/424
f 425/425/425 424/424/424 422/422/422
f 424/424/424 426/426/426 423/423/423
f 424/424/424 425/425/425 427/427/427
f 426/426/426 424/424/424 427/427/427
f 428/428/428 427/427/427 425/425/425
f 427/427/427 429/429/429 426/426/426
f 427/427/427 428/428/428 430/430/430
f 429/429/429 427/427/427 430/430/430
f 431/431/431 430/430/430 428/428/428
f 430/430/430 432/432/432 429/429/429
f 430/430/430 431/431/431 433/433/433
f 432/432/432 430/430/430 433/433/433
f 434/434/434 433/433/433 431/431/431
f 433/433/433 435/435/435 432/432/432
f 433/433/433 434/434/434 436/436/436
f 435/435/435 433/433/433 436/436/436
f 436/436/436 437/437/437 435/435/435
f 438/438/438 436/436/436 434/434/434
f 436/436/436 438/438/438 439/439/439
f 440/440/440 439/439/439 438/438/438
f 439/439/439 440/440/440 441/441/441
f 440/440/440 442/442/442 441/441/441
f 441/441/441 443/443/443 439/439/439
f 444/444/444 441/441/441 442/442/442
f 443/443/443 441/441/441 445/445/445
f 441/441/441 444/444/444 445/445/445
f 445/445/445 446/446/446 443/443/443
f 447/447/447 445/445/445 444/444/444
f 446/446/446 445/445/445 448/448/448
f 445/445/445 447/447/447 448/448/448
f 331/331/331 446/446/446 448/448/448
f 326/326/326 448/448/448 447/447/447
f 331/331/331 448/448/448 325/325/325
f 448/448/448 326/326/326 325/325/325
f 451/451/451 450/450/450 449/449/449
f 452/452/452 449/449/449 450/450/450
f 449/449/449 452/452/452 453/453/453
f 454/454/454 452/452/452 450/450/450
f 450/450/450 455/455/455 454/454/454
f 452/452/452 454/454/454 456/456/456
f 455/455/455 450/450/450 457/457/457
f 457/457/457 458/458/458 455/455/455
f 456/456/456 459/459/459 452/452/452
f 459/459/459 453/453/453 452/452/452
f 456/456/456 460/460/460 459/459/459
f 453/453/453 459/459/459 461/461/461
f 460/460/460 462/462/462 459/459/459
f 462/462/462 461/461/461 459/459/459
f 461/461/461 462/462/462 463/463/463
f 464/464/464 463/463/463 462/462/462
f 463/463/463 464/464/464 465/465/465
f 466/466/466 465/465/465 464/464/464
f 465/465/465 466/466/466 467/467/467
f 468/468/468 467/467/467 466/466/466
f 467/467/467 468/468/468 469/469/469
f 470/470/470 469/469/469 468/468/468
f 469/469/469 470/470/470 471/471/471
f 472/472/472 471/471/471 470/470/470
f 471/471/471 472/472/472 473/473/473
f 474/474/474 473/473/473 472/472/472
f 473/473/473 474/474/474 475/475/475
f 476/476/476 475/475/475 474/474/474
f 475/475/475 476/476/476 477/477/477
f 478/478/478 477/477/477 476/476/476
f 477/477/477 478/478/478 479/479/479
f 480/480/480 479/479/479 478/478/478
f 479/479/479 480/480/480 481/481/481
f 482/482/482 481/481/481 480/480/480
f 481/481/481 482/482/482 483/483/483
f 484/484/484 483/483/483 482/482/482
f 483/483/483 484/484/484 485/485/485
f 486/486/486 485/485/485 484/484/484
f 485/485/485 486/486/486 487/487/487
f 488/488/488 487/487/487 486/486/486
f 487/487/487 488/488/488 489/489/489
f 489/489/489 490/490/490 487/487/487
f 489/489/489 491/491/491 490/490/490
f 491/491/491 492/492/492 490/490/490
f 491/491/491 493/493/493 492/492/492
f 493/493/493 494/494/494 492/492/492
f 495/495/495 492/492/492 494/494/494
f 494/494/494 496/496/496 495/495/495
f 497/497/497 494/494/494 493/493/493
f 494/494/494 498/498/498 496/496/496
f 494/494/494 497/497/497 499/499/499
f 494/494/494 499/499/499 498/498/498
f 500/500/500 499/499/499 497/497/497
f 499/499/499 501/501/501 498/498/498
f 499/499/499 500/500/500 502/502/502
f 499/499/499 502/502/502 501/501/501
f 503/503/503 502/502/502 500/500/500
f 502/502/502 504/504/504 501/501/501
f 502/502/502 503/503/503 505/505/505
f 502/502/502 505/505/505 504/504/504
f 505/505/505 506/506/506 504/504/504
f 507/507/507 505/505/505 503/503/503
f 507/507/507 508/508/508 505/505/505
f 509/509/509 505/505/505 508/508/508
f 508/508/508 510/510/510 509/509/509
f 508/508/508 511/511/511 510/510/510
f 512/512/512 509/509/509 510/510/510
f 513/513/513 510/510/510 511/511/511
f 510/510/510 514/514/514 512/512/512
f 510/510/510 513/513/513 514/514/514
f 515/515/515 512/512/512 514/514/514
f 516/516/516 514/514/514 513/513/513
f 514/514/514 517/517/517 515/515/515
f 514/514/514 516/516/516 517/517/517
f 518/518/518 515/515/515 517/517/517
f 519/519/519 517/517/517 516/516/516
f 518/518/518 517/517/517 520/520/520
f 517/517/517 519/519/519 520/520/520
f 520/520/520 521/521/521 518/518/518
f 522/522/522 520/520/520 519/519/519
f 521/521/521 520/520/520 523/523/523
f 520/520/520 522/522/522 523/523/523
f 523/523/523 524/524/524 521/521/521
f 525/525/525 523/523/523 522/522/522
f 524/524/524 523/523/523 526/526/526
f 523/523/523 525/525/525 526/526/526
f 526/526/526 527/527/527 524/524/524
f 528/528/528 526/526/526 525/525/525
f 527/527/527 526/526/526 529/529/529
f 526/526/526 528/528/528 529/529/529
f 529/529/529 530/530/530 527/527/527
f 531/531/531 529/529/529 528/528/528
f 530/530/530 529/529/529 532/532/532
f 529/529/529 531/531/531 532/532/532
f 532/532/532 533/533/533 530/530/530
f 534/534/534 532/532/532 531/531/531
f 533/533/533 532/532/532 535/535/535
f 532/532/532 534/534/534 535/535/535
f 535/535/535 536/536/536 533/533/533
f 537/537/537 535/535/535 534/534/534
f 536/536/536 535/535/535 538/538/538
f 535/535/535 537/537/537 538/538/538
f 538/538/538 539/539/539 536/536/536
f 540/540/540 538/538/538 537/537/537
f 539/539/539 538/538/538 541/541/541
f 538/538/538 540/540/540 542/542/542
f 542/542/542 541/541/541 538/538/538
f 543/543/543 542/542/542 540/540/540
f 541/541/541 542/542/542 544/544/544
f 542/542/542 543/543/543 545/545/545
f 545/545/545 544/544/544 542/542/542
f 546/546/546 545/545/545 543/543/543
f 544/544/544 545/545/545 547/547/547
f 545/545/545 546/546/546 548/548/548
f 548/548/548 547/547/547 545/545/545
f 549/549/549 548/548/548 546/546/546
f 547/547/547 548/548/548 550/550/550
f 548/548/548 549/549/549 551/551/551
f 551/551/551 550/550/550 548/548/548
f 550/550/550 551/551/551 552/552/552
f 552/552/552 553/553/553 550/550/550
f 554/554/554 552/552/552 551/551/551
f 552/552/552 554/554/554 555/555/555
f 556/556/556 555/555/555 554/554/554
f 556/556/556 557/557/557 555/555/555
f 556/556/556 558/558/558 557/557/557
f 559/559/559 557/557/557 558/558/558
f 560/560/560 555/555/555 557/557/557
f 557/557/557 559/559/559 561/561/561
f 557/557/557 562/562/562 560/560/560
f 561/561/561 562/562/562 557/557/557
f 563/563/563 560/560/560 562/562/562
f 562/562/562 561/561/561 564/564/564
f 563/563/563 562/562/562 565/565/565
f 564/564/564 565/565/565 562/562/562
f 566/566/566 563/563/563 565/565/565
f 564/564/564 567/567/567 565/565/565
f 566/566/566 565/565/565 568/568/568
f 569/569/569 565/565/565 567/567/567
f 569/569/569 568/568/568 565/565/565
f 567/567/567 570/570/570 569/569/569
f 568/568/568 569/569/569 571/571/571
f 572/572/572 569/569/569 570/570/570
f 572/572/572 571/571/571 569/569/569
f 570/570/570 573/573/573 572/572/572
f 571/571/571 572/572/572 574/574/574
f 575/575/575 572/572/572 573/573/573
f 575/575/575 574/574/574 572/572/572
f 573/573/573 576/576/576 575/575/575
f 574/574/574 575/575/575 457/457/457
f 458/458/458 575/575/575 576/576/576
f 458/458/458 457/457/457 575/575/575
