mtllib SM_CardBoard_Trash_01.mtl
g SM_CardBoard_Trash_01
#Vertices 60
#Indices 144
#Section 0 Offset 0 NumIndices 144 MaterialIndex 0 MI_Small_Props_01
v 0.137565 0.000000 0.196807
v -0.142768 0.002680 0.196807
v 0.137565 0.002680 0.196807
v -0.142768 0.000000 0.196807
v 0.074789 0.002680 -0.196807
v -0.147308 0.002680 -0.196807
v -0.147308 -0.000000 -0.196807
v 0.074789 -0.000000 -0.196807
v 0.129130 0.002680 -0.186984
v 0.129130 -0.000000 -0.186984
v -0.147308 0.002680 -0.196807
v -0.147308 -0.000000 -0.118084
v -0.147308 -0.000000 -0.196807
v -0.147308 0.002680 -0.118084
v -0.142768 -0.000000 -0.039361
v -0.142768 0.002680 -0.039361
v -0.137469 0.000000 0.039361
v -0.137469 0.002680 0.039361
v -0.142768 0.000000 0.118084
v -0.142768 0.002680 0.118084
v -0.142768 0.000000 0.196807
v -0.142768 0.002680 0.196807
v 0.136027 0.002680 -0.118084
v 0.129130 0.002680 -0.186984
v 0.129130 -0.000000 -0.186984
v 0.136027 -0.000000 -0.118084
v 0.139933 0.002680 -0.039361
v 0.139933 -0.000000 -0.039361
v 0.139933 0.002680 0.039361
v 0.139933 0.000000 0.039361
v 0.147308 0.002680 0.118084
v 0.147308 0.000000 0.118084
v 0.137565 0.002680 0.196807
v 0.137565 0.000000 0.196807
v 0.137565 0.002680 0.196807
v -0.142768 0.002680 0.196807
v -0.142768 0.002680 0.118084
v 0.147308 0.002680 0.118084
v 0.139933 0.002680 0.039361
v -0.137469 0.002680 0.039361
v 0.139933 0.002680 -0.039361
v -0.142768 0.002680 -0.039361
v 0.136027 0.002680 -0.118084
v -0.147308 0.002680 -0.118084
v 0.074789 0.002680 -0.196807
v -0.147308 0.002680 -0.196807
v 0.129130 0.002680 -0.186984
v 0.137565 0.000000 0.196807
v -0.142768 0.000000 0.118084
v -0.142768 0.000000 0.196807
v 0.147308 0.000000 0.118084
v 0.139933 0.000000 0.039361
v -0.137469 0.000000 0.039361
v 0.139933 -0.000000 -0.039361
v -0.142768 -0.000000 -0.039361
v 0.136027 -0.000000 -0.118084
v -0.147308 -0.000000 -0.118084
v 0.074789 -0.000000 -0.196807
v -0.147308 -0.000000 -0.196807
v 0.129130 -0.000000 -0.186984
vt 0.759277 0.443848
vt 0.757812 0.608154
vt 0.757812 0.443848
vt 0.759277 0.608154
vt 0.740234 0.560791
vt 0.740234 0.430664
vt 0.741699 0.430664
vt 0.741699 0.560791
vt 0.740234 0.593018
vt 0.741699 0.593018
vt 0.030807 0.579590
vt 0.029236 0.625977
vt 0.029236 0.579590
vt 0.030807 0.625977
vt 0.029236 0.672119
vt 0.030807 0.672119
vt 0.029236 0.718506
vt 0.030807 0.718506
vt 0.029236 0.764648
vt 0.030807 0.764648
vt 0.029236 0.810913
vt 0.030807 0.810913
vt 0.955566 0.269043
vt 0.955566 0.228516
vt 0.957031 0.228516
vt 0.957031 0.269043
vt 0.955566 0.315430
vt 0.957031 0.315430
vt 0.955566 0.361816
vt 0.957031 0.361816
vt 0.955566 0.408203
vt 0.957031 0.408203
vt 0.955566 0.454590
vt 0.957031 0.454590
vt 0.046783 0.751221
vt 0.046783 0.586670
vt 0.092957 0.586670
vt 0.092957 0.756836
vt 0.139160 0.752563
vt 0.139160 0.589844
vt 0.185303 0.752563
vt 0.185303 0.586670
vt 0.231567 0.750244
vt 0.231567 0.583984
vt 0.277588 0.714355
vt 0.277588 0.583984
vt 0.271973 0.746338
vt 0.727051 0.041016
vt 0.773438 0.205566
vt 0.727051 0.205566
vt 0.773438 0.035156
vt 0.819336 0.039551
vt 0.819336 0.202637
vt 0.865723 0.039551
vt 0.865723 0.205566
vt 0.912109 0.041992
vt 0.912109 0.208008
vt 0.958008 0.078125
vt 0.958008 0.208008
vt 0.952148 0.045898
vt1 0.097839 0.769043
vt1 0.425781 0.780396
vt1 0.097839 0.780396
vt1 0.425781 0.769043
vt1 0.661133 0.118652
vt1 0.920898 0.118652
vt1 0.920898 0.131836
vt1 0.661133 0.131836
vt1 0.596680 0.118652
vt1 0.596680 0.131836
vt1 0.083008 0.910095
vt1 0.175049 0.920532
vt1 0.083008 0.920532
vt1 0.175049 0.910095
vt1 0.267334 0.920532
vt1 0.267334 0.910095
vt1 0.359619 0.920532
vt1 0.359619 0.910095
vt1 0.451904 0.920532
vt1 0.451904 0.910095
vt1 0.543945 0.920532
vt1 0.543945 0.910095
vt1 0.407471 0.669678
vt1 0.488281 0.669678
vt1 0.488281 0.682129
vt1 0.407471 0.682129
vt1 0.315186 0.669678
vt1 0.315186 0.682129
vt1 0.223145 0.669678
vt1 0.223145 0.682129
vt1 0.130615 0.669678
vt1 0.130615 0.682129
vt1 0.037933 0.669678
vt1 0.037933 0.682129
vt1 0.585449 0.309082
vt1 0.913574 0.309082
vt1 0.913574 0.401367
vt1 0.574219 0.401367
vt1 0.583008 0.493164
vt1 0.907227 0.493164
vt1 0.583008 0.585205
vt1 0.913574 0.585205
vt1 0.587402 0.677490
vt1 0.918945 0.677490
vt1 0.659180 0.769409
vt1 0.918945 0.769409
vt1 0.595215 0.757935
vt1 0.138428 0.556152
vt1 0.466309 0.464355
vt1 0.466309 0.556152
vt1 0.126953 0.464355
vt1 0.135620 0.372070
vt1 0.459961 0.372070
vt1 0.135620 0.279785
vt1 0.466309 0.279785
vt1 0.140137 0.187988
vt1 0.471436 0.187988
vt1 0.211792 0.095703
vt1 0.471436 0.095703
vt1 0.148193 0.107422
vn 0.000000 0.000000 1.000000
vn 0.000000 0.000000 1.000000
vn 0.000000 0.000000 1.000000
vn 0.000000 0.000000 1.000000
vn 0.086614 -0.000000 -0.992126
vn 0.000000 -0.000000 -1.000000
vn 0.000000 -0.000000 -1.000000
vn 0.086614 -0.000000 -0.992126
vn 0.181102 -0.000000 -0.984252
vn 0.181102 -0.000000 -0.984252
vn -1.000000 0.000000 0.000000
vn -1.000000 0.000000 0.031496
vn -1.000000 0.000000 0.000000
vn -1.000000 0.000000 0.031496
vn -1.000000 0.000000 0.062992
vn -1.000000 0.000000 0.062992
vn -1.000000 0.000000 0.000000
vn -1.000000 0.000000 0.000000
vn -1.000000 -0.000000 -0.031496
vn -1.000000 -0.000000 -0.031496
vn -1.000000 0.000000 0.000000
vn -1.000000 0.000000 0.000000
vn 1.000000 -0.000000 -0.070866
vn 0.992126 -0.000000 -0.102362
vn 0.992126 -0.000000 -0.102362
vn 1.000000 -0.000000 -0.070866
vn 1.000000 -0.000000 -0.023622
vn 1.000000 -0.000000 -0.023622
vn 1.000000 -0.000000 -0.047244
vn 1.000000 -0.000000 -0.047244
vn 1.000000 0.000000 0.015748
vn 1.000000 0.000000 0.015748
vn 0.992126 0.000000 0.125984
vn 0.992126 0.000000 0.125984
vn 0.000000 1.000000 -0.000000
vn 0.000000 1.000000 -0.000000
vn 0.000000 1.000000 -0.000000
vn 0.000000 1.000000 -0.000000
vn 0.000000 1.000000 -0.000000
vn 0.000000 1.000000 -0.000000
vn 0.000000 1.000000 -0.000000
vn 0.000000 1.000000 -0.000000
vn 0.000000 1.000000 -0.000000
vn 0.000000 1.000000 -0.000000
vn 0.000000 1.000000 -0.000000
vn 0.000000 1.000000 -0.000000
vn 0.000000 1.000000 -0.000000
vn 0.000000 -1.000000 0.000000
vn 0.000000 -1.000000 0.000000
vn 0.000000 -1.000000 0.000000
vn 0.000000 -1.000000 0.000000
vn 0.000000 -1.000000 0.000000
vn 0.000000 -1.000000 0.000000
vn 0.000000 -1.000000 0.000000
vn 0.000000 -1.000000 0.000000
vn 0.000000 -1.000000 0.000000
vn 0.000000 -1.000000 0.000000
vn 0.000000 -1.000000 0.000000
vn 0.000000 -1.000000 0.000000
vn 0.000000 -1.000000 0.000000
tan 1.000000 0.000000 0.000000 1.000000
tan 1.000000 0.000000 0.000000 1.000000
tan 1.000000 0.000000 0.000000 1.000000
tan 1.000000 0.000000 0.000000 1.000000
tan -0.992126 -0.000000 -0.086614 1.000000
tan -1.000000 0.000000 0.000000 1.000000
tan -1.000000 0.000000 0.000000 1.000000
tan -0.992126 -0.000000 -0.086614 1.000000
tan -0.984252 -0.000000 -0.181102 1.000000
tan -0.984252 -0.000000 -0.181102 1.000000
tan 0.000000 -0.000000 -1.000000 1.000000
tan -0.031496 -0.000000 -1.000000 1.000000
tan 0.000000 -0.000000 -1.000000 1.000000
tan -0.031496 -0.000000 -1.000000 1.000000
tan -0.062992 -0.000000 -1.000000 1.000000
tan -0.062992 -0.000000 -1.000000 1.000000
tan 0.000000 -0.000000 -1.000000 1.000000
tan 0.000000 -0.000000 -1.000000 1.000000
tan 0.031496 -0.000000 -1.000000 1.000000
tan 0.031496 -0.000000 -1.000000 1.000000
tan 0.000000 -0.000000 -1.000000 1.000000
tan 0.000000 -0.000000 -1.000000 1.000000
tan -0.070866 -0.000000 -1.000000 1.000000
tan -0.102362 -0.000000 -0.992126 1.000000
tan -0.102362 -0.000000 -0.992126 1.000000
tan -0.070866 -0.000000 -1.000000 1.000000
tan -0.023622 -0.000000 -1.000000 1.000000
tan -0.023622 -0.000000 -1.000000 1.000000
tan -0.047244 -0.000000 -1.000000 1.000000
tan -0.047244 -0.000000 -1.000000 1.000000
tan 0.015748 -0.000000 -1.000000 1.000000
tan 0.015748 -0.000000 -1.000000 1.000000
tan 0.125984 -0.000000 -0.992126 1.000000
tan 0.125984 -0.000000 -0.992126 1.000000
tan -1.000000 0.000000 0.000000 1.000000
tan -1.000000 0.000000 0.000000 1.000000
tan -1.000000 0.000000 0.000000 1.000000
tan -1.000000 0.000000 0.000000 1.000000
tan -1.000000 0.000000 0.000000 1.000000
tan -1.000000 0.000000 0.000000 1.000000
tan -1.000000 0.000000 0.000000 1.000000
tan -1.000000 0.000000 0.000000 1.000000
tan -1.000000 0.000000 0.000000 1.000000
tan -1.000000 0.000000 0.000000 1.000000
tan -1.000000 0.000000 0.000000 1.000000
tan -1.000000 0.000000 0.000000 1.000000
tan -1.000000 0.000000 0.000000 1.000000
tan 1.000000 0.000000 0.000000 1.000000
tan 1.000000 0.000000 0.000000 1.000000
tan 1.000000 0.000000 0.000000 1.000000
tan 1.000000 0.000000 0.000000 1.000000
tan 1.000000 0.000000 0.000000 1.000000
tan 1.000000 0.000000 0.000000 1.000000
tan 1.000000 0.000000 0.000000 1.000000
tan 1.000000 0.000000 0.000000 1.000000
tan 1.000000 0.000000 0.000000 1.000000
tan 1.000000 0.000000 0.000000 1.000000
tan 1.000000 0.000000 0.000000 1.000000
tan 1.000000 0.000000 0.000000 1.000000
tan 1.000000 0.000000 0.000000 1.000000
f 3/3/3 2/2/2 1/1/1
f 4/4/4 1/1/1 2/2/2
f 7/7/7 6/6/6 5/5/5
f 8/8/8 7/7/7 5/5/5
f 8/8/8 5/5/5 9/9/9
f 10/10/10 8/8/8 9/9/9
f 13/13/13 12/12/12 11/11/11
f 12/12/12 14/14/14 11/11/11
f 12/12/12 15/15/15 14/14/14
f 15/15/15 16/16/16 14/14/14
f 15/15/15 17/17/17 16/16/16
f 17/17/17 18/18/18 16/16/16
f 17/17/17 19/19/19 18/18/18
f 19/19/19 20/20/20 18/18/18
f 19/19/19 21/21/21 20/20/20
f 22/22/22 20/20/20 21/21/21
f 25/25/25 24/24/24 23/23/23
f 26/26/26 25/25/25 23/23/23
f 26/26/26 23/23/23 27/27/27
f 28/28/28 26/26/26 27/27/27
f 28/28/28 27/27/27 29/29/29
f 30/30/30 28/28/28 29/29/29
f 30/30/30 29/29/29 31/31/31
f 32/32/32 30/30/30 31/31/31
f 32/32/32 31/31/31 33/33/33
f 34/34/34 32/32/32 33/33/33
f 37/37/37 36/36/36 35/35/35
f 38/38/38 37/37/37 35/35/35
f 38/38/38 39/39/39 37/37/37
f 40/40/40 37/37/37 39/39/39
f 39/39/39 41/41/41 40/40/40
f 42/42/42 40/40/40 41/41/41
f 41/41/41 43/43/43 42/42/42
f 44/44/44 42/42/42 43/43/43
f 43/43/43 45/45/45 44/44/44
f 46/46/46 44/44/44 45/45/45
f 43/43/43 47/47/47 45/45/45
f 50/50/50 49/49/49 48/48/48
f 51/51/51 48/48/48 49/49/49
f 51/51/51 49/49/49 52/52/52
f 53/53/53 52/52/52 49/49/49
f 52/52/52 53/53/53 54/54/54
f 55/55/55 54/54/54 53/53/53
f 54/54/54 55/55/55 56/56/56
f 57/57/57 56/56/56 55/55/55
f 56/56/56 57/57/57 58/58/58
f 59/59/59 58/58/58 57/57/57
f 56/56/56 58/58/58 60/60/60
