mtllib SM_CardBoard_Box_03.mtl
g SM_CardBoard_Box_03
#Vertices 152
#Indices 648
#Section 0 Offset 0 NumIndices 648 MaterialIndex 0 MI_CardBoard_Boxes_01
v 0.003192 0.000769 0.189441
v 0.001057 0.001086 0.004318
v 0.000020 0.001829 0.189418
v 0.004230 0.000000 0.004325
v 0.177780 -0.000898 0.189417
v 0.001601 0.001607 0.001670
v 0.177780 0.000071 0.004325
v 0.355536 -0.000898 0.189417
v 0.004248 0.001075 0.001145
v 0.004254 0.004253 0.000064
v 0.001075 0.004256 0.001121
v 0.001075 0.073598 0.000604
v 0.177779 0.001144 0.001145
v 0.004254 0.073602 -0.000454
v 0.001600 0.076257 0.001113
v 0.177778 0.004322 0.000064
v 0.355527 0.002659 0.001145
v 0.355536 0.001566 0.004325
v 0.533255 0.001544 0.004325
v 0.533292 -0.000898 0.189417
v 0.355500 0.005843 0.000064
v 0.704808 0.003829 0.005875
v 0.707507 -0.000908 0.189402
v 0.707989 0.004888 0.005873
v 0.710687 0.000157 0.189440
v 0.707440 0.005476 0.003223
v 0.704791 0.004927 0.002688
v 0.533283 0.002653 0.001139
v 0.533292 0.005843 0.000041
v 0.704860 0.008114 0.001588
v 0.708029 0.008127 0.002626
v 0.355540 0.074225 -0.000453
v 0.706700 0.074851 -0.000428
v 0.709899 0.074862 0.000678
v 0.533304 0.074373 -0.000431
v 0.709442 0.077514 0.001133
v 0.533295 0.077557 0.000586
v 0.706793 0.078036 0.000587
v 0.706834 0.079132 0.003745
v 0.709999 0.078047 0.003776
v 0.710672 0.078145 0.189418
v 0.707507 0.079214 0.189432
v 0.533292 0.080810 0.189417
v 0.533292 0.078651 0.003745
v 0.355536 0.082709 0.189417
v 0.355537 0.077417 0.000580
v 0.355536 0.078533 0.003744
v 0.177780 0.081704 0.189417
v 0.177783 0.074089 -0.000453
v 0.177781 0.077278 0.000580
v 0.004248 0.076793 0.000580
v 0.177780 0.078385 0.003744
v 0.004230 0.077909 0.003744
v 0.001057 0.076800 0.003753
v 0.003192 0.078780 0.189392
v 0.000019 0.077682 0.189416
v 0.001057 0.002643 0.374433
v 0.003192 0.000769 0.189441
v 0.000020 0.001829 0.189418
v 0.004230 0.001558 0.374527
v 0.177780 -0.000898 0.189417
v 0.001598 0.003195 0.377084
v 0.177798 0.004290 0.375216
v 0.355536 -0.000898 0.189417
v 0.004248 0.002706 0.377675
v 0.355558 0.002054 0.376159
v 0.533292 -0.000898 0.189417
v 0.177798 0.005407 0.378364
v 0.004255 0.005909 0.378662
v 0.001078 0.005849 0.377427
v 0.001155 0.071607 0.372531
v 0.004334 0.071632 0.373539
v 0.001684 0.074262 0.371841
v 0.177834 0.008598 0.379349
v 0.355541 0.003171 0.379317
v 0.004328 0.074822 0.372411
v 0.533312 0.002186 0.376965
v 0.355534 0.006364 0.380333
v 0.533301 0.003292 0.380123
v 0.706834 0.001558 0.375665
v 0.707507 -0.000908 0.189402
v 0.710006 0.002615 0.375640
v 0.710687 0.000157 0.189440
v 0.709468 0.003182 0.378276
v 0.706823 0.002668 0.378822
v 0.706819 0.005858 0.379834
v 0.709995 0.005833 0.378795
v 0.709995 0.074390 0.378743
v 0.533307 0.006481 0.381136
v 0.706819 0.074388 0.379841
v 0.709469 0.077043 0.378209
v 0.533282 0.074397 0.379754
v 0.355552 0.074821 0.379238
v 0.533290 0.077581 0.378652
v 0.706823 0.077572 0.378738
v 0.177838 0.074137 0.379465
v 0.355543 0.078011 0.378139
v 0.533294 0.078674 0.375465
v 0.706834 0.078667 0.375551
v 0.710006 0.077582 0.375553
v 0.707507 0.079214 0.189432
v 0.710672 0.078145 0.189418
v 0.533292 0.080810 0.189417
v 0.355548 0.079122 0.374953
v 0.355536 0.082709 0.189417
v 0.177780 0.081704 0.189417
v 0.177793 0.077327 0.378334
v 0.177775 0.078440 0.375138
v 0.004311 0.075936 0.369213
v 0.003192 0.078780 0.189392
v 0.001138 0.074826 0.369180
v 0.000019 0.077682 0.189416
v 0.711064 0.074400 0.375557
v 0.709995 0.074390 0.378743
v 0.709469 0.077043 0.378209
v 0.710006 0.077582 0.375553
v 0.709995 0.005833 0.378795
v 0.711708 0.074968 0.189404
v 0.710672 0.078145 0.189418
v 0.711064 0.005788 0.375628
v 0.709468 0.003182 0.378276
v 0.710006 0.002615 0.375640
v 0.711766 0.003331 0.189526
v 0.710687 0.000157 0.189440
v 0.707989 0.004888 0.005873
v 0.709071 0.008064 0.005796
v 0.707440 0.005476 0.003223
v 0.708029 0.008127 0.002626
v 0.711032 0.074865 0.003868
v 0.709899 0.074862 0.000678
v 0.709999 0.078047 0.003776
v 0.709442 0.077514 0.001133
v 0.001078 0.005849 0.377427
v 0.001598 0.003195 0.377084
v -0.000000 0.005823 0.374189
v 0.001057 0.002643 0.374433
v 0.001155 0.071607 0.372531
v 0.000020 0.001829 0.189418
v 0.000081 0.071632 0.369365
v 0.001684 0.074262 0.371841
v 0.001138 0.074826 0.369180
v -0.001036 0.005002 0.189398
v 0.001057 0.001086 0.004318
v -0.001039 0.074496 0.189437
v 0.000019 0.077682 0.189416
v 0.000000 0.004268 0.004294
v 0.001601 0.001607 0.001670
v 0.001075 0.004256 0.001121
v -0.000000 0.073610 0.003776
v 0.001057 0.076800 0.003753
v 0.001075 0.073598 0.000604
v 0.001600 0.076257 0.001113
vt 0.010597 0.024414
vt 0.009491 0.117188
vt 0.008888 0.024414
vt 0.011169 0.117188
vt 0.098022 0.023926
vt 0.009918 0.119141
vt 0.098022 0.116699
vt 0.186890 0.023926
vt 0.011269 0.118652
vt 0.011337 0.120605
vt 0.009659 0.120605
vt 0.010056 0.155273
vt 0.098083 0.118164
vt 0.011726 0.155273
vt 0.010490 0.156738
vt 0.098145 0.120117
vt 0.187012 0.118164
vt 0.187012 0.116211
vt 0.275879 0.116211
vt 0.275879 0.023438
vt 0.187134 0.119629
vt 0.361816 0.115234
vt 0.362793 0.023438
vt 0.363525 0.115234
vt 0.364258 0.022949
vt 0.363037 0.116699
vt 0.361816 0.116699
vt 0.275879 0.117676
vt 0.275879 0.119141
vt 0.361816 0.118164
vt 0.363525 0.118164
vt 0.187500 0.153809
vt 0.363281 0.151855
vt 0.364990 0.151855
vt 0.276367 0.153320
vt 0.364746 0.153809
vt 0.276611 0.154785
vt 0.363281 0.153809
vt 0.363525 0.155762
vt 0.365234 0.155762
vt 0.365479 0.248535
vt 0.363770 0.249023
vt 0.276611 0.249512
vt 0.276611 0.156250
vt 0.187744 0.250000
vt 0.187622 0.155273
vt 0.187622 0.157227
vt 0.098755 0.250488
vt 0.098572 0.154785
vt 0.098694 0.156250
vt 0.011848 0.156738
vt 0.098755 0.157715
vt 0.011932 0.157715
vt 0.010262 0.158203
vt 0.011505 0.250977
vt 0.009888 0.250977
vt 0.373047 0.156250
vt 0.374268 0.249023
vt 0.372559 0.249023
vt 0.374756 0.156738
vt 0.461670 0.249512
vt 0.373291 0.154785
vt 0.461670 0.156250
vt 0.550781 0.249512
vt 0.374756 0.154785
vt 0.550781 0.156250
vt 0.639648 0.249512
vt 0.461670 0.154785
vt 0.374512 0.152832
vt 0.373047 0.152832
vt 0.373291 0.119141
vt 0.375000 0.119141
vt 0.373535 0.117188
vt 0.461670 0.153320
vt 0.550781 0.154785
vt 0.374756 0.117188
vt 0.639648 0.155762
vt 0.550781 0.153320
vt 0.639648 0.154297
vt 0.726562 0.156250
vt 0.726562 0.249512
vt 0.728516 0.156250
vt 0.728516 0.249512
vt 0.728027 0.154785
vt 0.726562 0.154785
vt 0.726562 0.153320
vt 0.728027 0.153320
vt 0.728027 0.119141
vt 0.639648 0.152832
vt 0.726562 0.119141
vt 0.727539 0.117676
vt 0.639648 0.119141
vt 0.550293 0.119629
vt 0.639648 0.118164
vt 0.726562 0.117676
vt 0.461914 0.120605
vt 0.550293 0.118164
vt 0.639648 0.116699
vt 0.726562 0.116211
vt 0.728027 0.116211
vt 0.726562 0.023438
vt 0.728027 0.022949
vt 0.639648 0.023438
vt 0.550293 0.116699
vt 0.550293 0.023926
vt 0.461670 0.024414
vt 0.461670 0.119141
vt 0.461670 0.117676
vt 0.374756 0.115234
vt 0.374512 0.024902
vt 0.373047 0.115234
vt 0.372803 0.025391
vt 0.196411 0.805908
vt 0.197998 0.806030
vt 0.197754 0.807373
vt 0.196411 0.807617
vt 0.197998 0.771606
vt 0.103271 0.806274
vt 0.103271 0.807983
vt 0.196411 0.771606
vt 0.197754 0.770264
vt 0.196411 0.770020
vt 0.103271 0.770386
vt 0.103210 0.768677
vt 0.011314 0.771118
vt 0.011299 0.772827
vt 0.009918 0.771362
vt 0.009583 0.772827
vt 0.010513 0.806274
vt 0.008888 0.806274
vt 0.010399 0.807861
vt 0.009041 0.807617
vt 0.008888 0.816040
vt 0.009003 0.814697
vt 0.010559 0.816040
vt 0.010384 0.814453
vt 0.011230 0.848999
vt 0.102966 0.813965
vt 0.012909 0.848999
vt 0.011574 0.850342
vt 0.012970 0.850586
vt 0.102966 0.815674
vt 0.195557 0.813599
vt 0.102966 0.850464
vt 0.102966 0.852173
vt 0.195557 0.815308
vt 0.197021 0.813843
vt 0.197266 0.815186
vt 0.195801 0.849976
vt 0.195923 0.851685
vt 0.197510 0.849976
vt 0.197266 0.851440
vt1 0.449707 0.082520
vt1 0.294189 0.080566
vt1 0.449463 0.079590
vt1 0.294678 0.083496
vt1 0.450439 0.228516
vt1 0.291504 0.081055
vt1 0.295410 0.228516
vt1 0.450928 0.377441
vt1 0.291748 0.083496
vt1 0.288818 0.083496
vt1 0.289062 0.080566
vt1 0.230713 0.081543
vt1 0.292480 0.229004
vt1 0.231079 0.084473
vt1 0.228516 0.082031
vt1 0.290039 0.229004
vt1 0.293213 0.377441
vt1 0.295898 0.377441
vt1 0.296631 0.526123
vt1 0.451416 0.526123
vt1 0.290527 0.377930
vt1 0.298096 0.670166
vt1 0.451904 0.671631
vt1 0.298096 0.673096
vt1 0.451904 0.674072
vt1 0.295410 0.672363
vt1 0.295410 0.669922
vt1 0.293945 0.526367
vt1 0.291748 0.526367
vt1 0.292480 0.670166
vt1 0.292725 0.672852
vt1 0.233398 0.378418
vt1 0.236450 0.672607
vt1 0.236450 0.675293
vt1 0.234619 0.527344
vt1 0.233398 0.675049
vt1 0.231934 0.527344
vt1 0.233032 0.672852
vt1 0.229858 0.672852
vt1 0.230469 0.675781
vt1 0.074646 0.676270
vt1 0.074280 0.673584
vt1 0.073486 0.527588
vt1 0.229004 0.527588
vt1 0.072571 0.378906
vt1 0.230713 0.378906
vt1 0.228027 0.378906
vt1 0.071716 0.229980
vt1 0.231934 0.229492
vt1 0.229492 0.229980
vt1 0.228760 0.084473
vt1 0.227051 0.229980
vt1 0.226440 0.084473
vt1 0.226318 0.081543
vt1 0.071106 0.083984
vt1 0.070923 0.081055
vt1 0.768066 0.671143
vt1 0.918457 0.669189
vt1 0.918457 0.671875
vt1 0.768066 0.668457
vt1 0.918945 0.527100
vt1 0.765137 0.670654
vt1 0.768066 0.527100
vt1 0.919434 0.382812
vt1 0.765137 0.668457
vt1 0.767578 0.382812
vt1 0.919434 0.238281
vt1 0.765137 0.527100
vt1 0.762207 0.668701
vt1 0.762207 0.671387
vt1 0.707520 0.670654
vt1 0.707520 0.667969
vt1 0.704590 0.670410
vt1 0.762695 0.527344
vt1 0.765137 0.382812
vt1 0.704102 0.668213
vt1 0.767090 0.237793
vt1 0.763184 0.382812
vt1 0.764648 0.237793
vt1 0.768066 0.096680
vt1 0.919434 0.096680
vt1 0.767578 0.093750
vt1 0.919434 0.093750
vt1 0.765137 0.094727
vt1 0.765137 0.096680
vt1 0.762695 0.096680
vt1 0.762695 0.094238
vt1 0.707031 0.094238
vt1 0.762207 0.237793
vt1 0.707520 0.097168
vt1 0.705078 0.094727
vt1 0.707520 0.238281
vt1 0.708008 0.382812
vt1 0.705566 0.238281
vt1 0.705078 0.097168
vt1 0.709473 0.526855
vt1 0.706055 0.382812
vt1 0.703125 0.238281
vt1 0.702637 0.097168
vt1 0.702637 0.094238
vt1 0.551758 0.096680
vt1 0.551270 0.094238
vt1 0.552246 0.238281
vt1 0.703613 0.382812
vt1 0.552734 0.382812
vt1 0.553711 0.527100
vt1 0.707520 0.527100
vt1 0.704590 0.527344
vt1 0.700684 0.668457
vt1 0.554199 0.668945
vt1 0.701172 0.671387
vt1 0.554688 0.671387
vt1 0.450684 0.868164
vt1 0.453857 0.868286
vt1 0.453369 0.870728
vt1 0.450928 0.871216
vt1 0.453857 0.807251
vt1 0.285400 0.868774
vt1 0.285400 0.871704
vt1 0.450928 0.807251
vt1 0.453369 0.804688
vt1 0.450928 0.804321
vt1 0.285400 0.804932
vt1 0.285156 0.802002
vt1 0.122070 0.806396
vt1 0.122009 0.809326
vt1 0.119568 0.806763
vt1 0.118958 0.809204
vt1 0.120605 0.868652
vt1 0.117737 0.868652
vt1 0.120422 0.871582
vt1 0.117981 0.871094
vt1 0.575684 0.818237
vt1 0.575684 0.815796
vt1 0.578613 0.818359
vt1 0.578125 0.815430
vt1 0.579590 0.876831
vt1 0.742676 0.814575
vt1 0.583008 0.876770
vt1 0.580566 0.879272
vt1 0.583008 0.879700
vt1 0.742676 0.817627
vt1 0.907227 0.813965
vt1 0.742676 0.879333
vt1 0.742676 0.882324
vt1 0.907227 0.816895
vt1 0.909668 0.814453
vt1 0.910156 0.816895
vt1 0.907715 0.878540
vt1 0.907715 0.881470
vt1 0.910645 0.878601
vt1 0.910156 0.881042
vn -0.165354 -0.984252 0.000000
vn -0.307087 -0.944882 -0.133858
vn -0.322835 -0.944882 0.000000
vn -0.149606 -0.976378 -0.149606
vn 0.000000 -1.000000 -0.007874
vn -0.314961 -0.669291 -0.669291
vn 0.000000 -0.984252 -0.165354
vn 0.000000 -1.000000 -0.007874
vn -0.149606 -0.700787 -0.700787
vn -0.149606 -0.157480 -0.976378
vn -0.299213 -0.141732 -0.944882
vn -0.299213 0.125984 -0.944882
vn 0.000000 -0.708661 -0.708661
vn -0.149606 0.141732 -0.976378
vn -0.314961 0.661417 -0.677165
vn 0.000000 -0.165354 -0.984252
vn 0.000000 -0.708661 -0.708661
vn 0.000000 -0.984252 -0.173228
vn 0.007874 -0.984252 -0.173228
vn 0.000000 -1.000000 -0.015748
vn 0.000000 -0.165354 -0.984252
vn 0.157480 -0.976378 -0.165354
vn 0.165354 -0.984252 -0.023622
vn 0.299213 -0.937008 -0.157480
vn 0.314961 -0.944882 -0.031496
vn 0.307087 -0.669291 -0.669291
vn 0.157480 -0.700787 -0.700787
vn 0.007874 -0.708661 -0.708661
vn 0.007874 -0.173228 -0.984252
vn 0.157480 -0.173228 -0.976378
vn 0.299213 -0.165354 -0.937008
vn 0.000000 0.149606 -0.992126
vn 0.149606 0.125984 -0.976378
vn 0.307087 0.102362 -0.944882
vn 0.000000 0.149606 -0.992126
vn 0.314961 0.661417 -0.677165
vn 0.000000 0.700787 -0.716535
vn 0.157480 0.685039 -0.708661
vn 0.149606 0.976378 -0.157480
vn 0.307087 0.944882 -0.141732
vn 0.322835 0.944882 -0.000000
vn 0.165354 0.984252 -0.000000
vn 0.007874 1.000000 -0.007874
vn 0.000000 0.984252 -0.173228
vn 0.000000 1.000000 -0.015748
vn 0.000000 0.700787 -0.716535
vn 0.000000 0.984252 -0.173228
vn -0.007874 1.000000 -0.015748
vn 0.000000 0.149606 -0.992126
vn 0.000000 0.700787 -0.716535
vn -0.149606 0.692913 -0.708661
vn -0.007874 0.984252 -0.173228
vn -0.157480 0.976378 -0.157480
vn -0.314961 0.937008 -0.141732
vn -0.173228 0.984252 -0.007874
vn -0.330709 0.944882 -0.007874
vn -0.307087 -0.944882 0.141732
vn -0.165354 -0.984252 0.007874
vn -0.322835 -0.944882 0.007874
vn -0.149606 -0.976378 0.165354
vn 0.000000 -1.000000 0.015748
vn -0.330709 -0.653543 0.685039
vn 0.000000 -0.984252 0.181102
vn 0.000000 -1.000000 0.015748
vn -0.157480 -0.677165 0.716535
vn -0.007874 -0.984252 0.181102
vn 0.000000 -1.000000 0.015748
vn 0.000000 -0.692913 0.724409
vn -0.165354 -0.110236 0.984252
vn -0.322835 -0.078740 0.944882
vn -0.307087 0.188976 0.929134
vn -0.165354 0.188976 0.968504
vn -0.314961 0.677165 0.661417
vn -0.007874 -0.133858 0.992126
vn -0.007874 -0.692913 0.716535
vn -0.173228 0.700787 0.692913
vn 0.000000 -0.984252 0.173228
vn -0.007874 -0.149606 0.992126
vn 0.000000 -0.692913 0.716535
vn 0.149606 -0.976378 0.165354
vn 0.157480 -0.984252 0.015748
vn 0.299213 -0.944882 0.149606
vn 0.314961 -0.944882 0.015748
vn 0.307087 -0.661417 0.677165
vn 0.149606 -0.692913 0.708661
vn 0.149606 -0.141732 0.976378
vn 0.299213 -0.125984 0.944882
vn 0.307087 0.133858 0.944882
vn 0.000000 -0.149606 0.992126
vn 0.149606 0.157480 0.976378
vn 0.314961 0.669291 0.669291
vn 0.000000 0.173228 0.984252
vn 0.000000 0.173228 0.984252
vn 0.000000 0.708661 0.708661
vn 0.149606 0.700787 0.700787
vn -0.015748 0.181102 0.984252
vn 0.000000 0.708661 0.708661
vn 0.000000 0.984252 0.173228
vn 0.149606 0.976378 0.157480
vn 0.307087 0.944882 0.141732
vn 0.165354 0.984252 0.007874
vn 0.322835 0.944882 0.007874
vn 0.007874 1.000000 0.007874
vn 0.000000 0.984252 0.173228
vn 0.000000 1.000000 0.015748
vn -0.007874 1.000000 0.015748
vn -0.015748 0.708661 0.708661
vn -0.015748 0.984252 0.173228
vn -0.165354 0.976378 0.165354
vn -0.173228 0.984252 0.015748
vn -0.314961 0.937008 0.149606
vn -0.330709 0.944882 0.015748
vn 0.976378 0.149606 0.149606
vn 0.944882 0.133858 0.299213
vn 0.921260 0.275591 0.275590
vn 0.944882 0.299213 0.133858
vn 0.944882 -0.133858 0.307087
vn 0.984252 0.157480 -0.000000
vn 0.952756 0.314961 -0.000000
vn 0.976378 -0.149606 0.157480
vn 0.921260 -0.275590 0.283465
vn 0.944882 -0.299213 0.141732
vn 0.984252 -0.165354 -0.007874
vn 0.944882 -0.322835 -0.007874
vn 0.937008 -0.314961 -0.141732
vn 0.976378 -0.165354 -0.157480
vn 0.913386 -0.291339 -0.283464
vn 0.937008 -0.157480 -0.307087
vn 0.976378 0.125984 -0.157480
vn 0.944882 0.102362 -0.307087
vn 0.944882 0.283464 -0.141732
vn 0.921260 0.251968 -0.291339
vn -0.944882 -0.118110 0.299213
vn -0.929134 -0.251968 0.275591
vn -0.976378 -0.141732 0.157480
vn -0.944882 -0.291339 0.141732
vn -0.937008 0.149606 0.307087
vn -0.952756 -0.314961 0.000000
vn -0.976378 0.157480 0.157480
vn -0.913386 0.291339 0.283464
vn -0.944882 0.307087 0.133858
vn -0.984252 -0.157480 0.000000
vn -0.944882 -0.299213 -0.133858
vn -0.984252 0.157480 -0.000000
vn -0.952756 0.314961 -0.000000
vn -0.976378 -0.149606 -0.157480
vn -0.921260 -0.275591 -0.283464
vn -0.944882 -0.133858 -0.307087
vn -0.976378 0.149606 -0.157480
vn -0.944882 0.299213 -0.141732
vn -0.944882 0.133858 -0.307087
vn -0.921260 0.275590 -0.283465
tan 0.046500 -0.007812 0.996094 1.000000
tan 0.110856 -0.174840 0.979850 1.000000
tan 0.074400 -0.025420 0.997024 1.000000
tan 0.078740 -0.162564 0.982206 1.000000
tan 0.000000 -0.007874 1.000000 1.000000
tan 0.063240 -0.716721 0.686961 1.000000
tan 0.007750 -0.165354 0.984252 1.000000
tan 0.007874 -0.007874 1.000000 1.000000
tan 0.049662 -0.710955 0.700353 1.000000
tan 0.008184 -0.991072 0.158596 1.000000
tan 0.020088 -0.989770 0.142104 1.000000
tan 0.067456 -0.987414 -0.153016 1.000000
tan 0.005580 -0.708661 0.708661 1.000000
tan 0.073284 -0.981028 -0.153636 1.000000
tan 0.114204 -0.684481 -0.721681 1.000000
tan 0.007750 -0.984252 0.165354 1.000000
tan 0.005580 -0.708661 0.708661 1.000000
tan 0.007750 -0.173228 0.984252 1.000000
tan 0.001364 -0.173228 0.984314 1.000000
tan 0.000000 -0.015748 1.000000 1.000000
tan 0.007750 -0.984252 0.165354 1.000000
tan -0.006014 -0.167710 0.984562 1.000000
tan 0.019406 -0.020646 0.996094 1.000000
tan 0.017608 -0.159464 0.982268 1.000000
tan 0.039680 -0.019840 0.992002 1.000000
tan 0.021080 -0.700539 0.710211 1.000000
tan 0.022072 -0.704631 0.709591 1.000000
tan 0.011160 -0.708661 0.708785 1.000000
tan 0.015500 -0.984252 0.173352 1.000000
tan 0.044640 -0.983322 0.181660 1.000000
tan 0.025606 -0.979912 0.181102 1.000000
tan 0.007812 -0.992126 -0.149606 1.000000
tan 0.011160 -0.983384 -0.125178 1.000000
tan 0.023994 -0.994544 -0.099944 1.000000
tan 0.015624 -0.992126 -0.149606 1.000000
tan 0.080848 -0.729121 -0.674561 1.000000
tan 0.011160 -0.716535 -0.700787 1.000000
tan 0.052266 -0.721061 -0.685411 1.000000
tan 0.094240 -0.172670 -0.981028 1.000000
tan 0.139500 -0.191952 -0.977432 1.000000
tan 0.111600 -0.038130 -0.989584 1.000000
tan 0.062000 -0.010416 -0.996094 1.000000
tan 0.007812 -0.007936 -1.000062 1.000000
tan 0.007750 -0.173228 -0.984252 1.000000
tan 0.007874 -0.015748 -1.000000 1.000000
tan 0.011160 -0.716535 -0.700787 1.000000
tan 0.007750 -0.173228 -0.984252 1.000000
tan 0.007998 -0.015686 -1.000062 1.000000
tan 0.007812 -0.992126 -0.149606 1.000000
tan 0.011160 -0.716535 -0.700787 1.000000
tan 0.078988 -0.705747 -0.706739 1.000000
tan 0.009114 -0.173166 -0.984314 1.000000
tan 0.049104 -0.151280 -0.987042 1.000000
tan 0.104780 -0.114080 -0.987042 1.000000
tan 0.040114 -0.000930 -0.998760 1.000000
tan 0.069564 0.015996 -1.002170 1.000000
tan -0.070308 0.171306 0.989708 1.000000
tan -0.029760 0.012958 0.994792 1.000000
tan -0.049538 0.025234 0.997024 1.000000
tan -0.054746 0.174530 0.981028 1.000000
tan 0.000000 0.015748 1.000000 1.000000
tan -0.040114 0.735817 0.682621 1.000000
tan 0.000000 0.181102 0.984252 1.000000
tan 0.000000 0.015748 1.000000 1.000000
tan -0.028582 0.726331 0.680141 1.000000
tan 0.001426 0.181102 0.984314 1.000000
tan 0.000000 0.015748 1.000000 1.000000
tan -0.005456 0.724409 0.692913 1.000000
tan -0.002728 0.996094 0.111104 1.000000
tan -0.003100 0.997024 0.082026 1.000000
tan 0.021452 0.979540 -0.192138 1.000000
tan -0.006882 0.980594 -0.192510 1.000000
tan 0.093124 0.716721 -0.689441 1.000000
tan -0.008866 0.992188 0.133796 1.000000
tan 0.005642 0.716535 0.692975 1.000000
tan 0.061318 0.710645 -0.703391 1.000000
tan 0.000000 0.173228 0.984252 1.000000
tan 0.007812 0.992126 0.149668 1.000000
tan 0.000000 0.716535 0.692913 1.000000
tan 0.038068 0.172174 0.982206 1.000000
tan 0.005270 0.016740 0.993552 1.000000
tan 0.038254 0.168454 0.987414 1.000000
tan 0.009920 0.019840 0.992002 1.000000
tan 0.022940 0.717713 0.690619 1.000000
tan 0.014880 0.720751 0.701593 1.000000
tan -0.017236 0.991072 0.146506 1.000000
tan -0.006944 0.989770 0.134168 1.000000
tan 0.042842 0.989708 -0.154132 1.000000
tan 0.000000 0.992126 0.149606 1.000000
tan 0.046872 0.982206 -0.165602 1.000000
tan 0.073780 0.684481 -0.719201 1.000000
tan 0.007750 0.984252 -0.173228 1.000000
tan 0.007750 0.984252 -0.173228 1.000000
tan 0.000000 0.708661 -0.708661 1.000000
tan 0.049662 0.700353 -0.710955 1.000000
tan -0.012648 0.984500 -0.181350 1.000000
tan 0.011160 0.708661 -0.708661 1.000000
tan 0.007750 0.173228 -0.984252 1.000000
tan 0.024800 0.155000 -0.984562 1.000000
tan 0.066960 0.127782 -0.996962 1.000000
tan 0.032302 0.002542 -0.996094 1.000000
tan 0.054622 -0.010354 -0.997024 1.000000
tan 0.007936 0.007812 -1.000062 1.000000
tan 0.007750 0.173228 -0.984252 1.000000
tan 0.007874 0.015748 -1.000000 1.000000
tan 0.007750 0.015810 -1.000062 1.000000
tan -0.005580 0.708785 -0.708909 1.000000
tan 0.006386 0.173352 -0.984376 1.000000
tan 0.107260 0.183582 -0.976750 1.000000
tan 0.059272 0.026412 -0.998760 1.000000
tan 0.165354 0.209622 -0.964784 1.000000
tan 0.106516 0.053816 -0.992126 1.000000
tan 0.148428 -0.983384 0.014694 1.000000
tan 0.132246 -0.989770 0.025172 1.000000
tan 0.269081 -0.963110 0.063612 1.000000
tan 0.298965 -0.956414 0.027528 1.000000
tan -0.134788 -0.994544 -0.018786 1.000000
tan 0.157480 -0.984252 0.000000 1.000000
tan 0.314961 -0.952756 0.000000 1.000000
tan -0.149730 -0.985802 -0.008184 1.000000
tan -0.273669 -0.965342 -0.049104 1.000000
tan -0.299089 -0.957530 -0.027528 1.000000
tan -0.165354 -0.984314 0.001302 1.000000
tan -0.322835 -0.944944 0.002542 1.000000
tan -0.316945 -0.949718 0.015128 1.000000
tan -0.166470 -0.985802 0.002976 1.000000
tan -0.293261 -0.957778 0.039432 1.000000
tan -0.159712 -0.987042 0.018848 1.000000
tan 0.125240 -0.985802 -0.012152 1.000000
tan 0.102362 -0.996962 -0.017360 1.000000
tan 0.282349 -0.958646 -0.034968 1.000000
tan 0.244652 -0.964908 -0.060884 1.000000
tan 0.117242 -0.989770 -0.020460 1.000000
tan 0.246388 -0.970674 -0.056792 1.000000
tan 0.140740 -0.985802 -0.014632 1.000000
tan 0.290161 -0.958646 -0.036146 1.000000
tan -0.152210 -0.987042 0.016430 1.000000
tan 0.314961 -0.952756 0.000000 1.000000
tan -0.157480 -0.985802 0.009424 1.000000
tan -0.291029 -0.957778 0.046624 1.000000
tan -0.307831 -0.955360 0.018786 1.000000
tan 0.157480 -0.984252 0.000000 1.000000
tan 0.298965 -0.956414 0.027528 1.000000
tan -0.157480 -0.984252 0.000000 1.000000
tan -0.314961 -0.952756 0.000000 1.000000
tan 0.148490 -0.985802 0.015872 1.000000
tan 0.269205 -0.965342 0.063612 1.000000
tan 0.132370 -0.994544 0.026226 1.000000
tan -0.148490 -0.985802 -0.015872 1.000000
tan -0.299089 -0.957530 -0.027528 1.000000
tan -0.132370 -0.994544 -0.026226 1.000000
tan -0.271437 -0.967574 -0.058528 1.000000
f 3/3/3 2/2/2 1/1/1
f 4/4/4 1/1/1 2/2/2
f 1/1/1 4/4/4 5/5/5
f 2/2/2 6/6/6 4/4/4
f 7/7/7 5/5/5 4/4/4
f 5/5/5 7/7/7 8/8/8
f 9/9/9 4/4/4 6/6/6
f 4/4/4 9/9/9 7/7/7
f 9/9/9 6/6/6 10/10/10
f 10/10/10 6/6/6 11/11/11
f 11/11/11 12/12/12 10/10/10
f 13/13/13 7/7/7 9/9/9
f 9/9/9 10/10/10 13/13/13
f 14/14/14 10/10/10 12/12/12
f 12/12/12 15/15/15 14/14/14
f 16/16/16 13/13/13 10/10/10
f 10/10/10 14/14/14 16/16/16
f 7/7/7 13/13/13 17/17/17
f 13/13/13 16/16/16 17/17/17
f 18/18/18 8/8/8 7/7/7
f 18/18/18 7/7/7 17/17/17
f 18/18/18 19/19/19 8/8/8
f 18/18/18 17/17/17 19/19/19
f 20/20/20 8/8/8 19/19/19
f 21/21/21 17/17/17 16/16/16
f 22/22/22 20/20/20 19/19/19
f 23/23/23 20/20/20 22/22/22
f 25/25/25 23/23/23 24/24/24
f 22/22/22 24/24/24 23/23/23
f 26/26/26 24/24/24 22/22/22
f 22/22/22 19/19/19 27/27/27
f 22/22/22 27/27/27 26/26/26
f 28/28/28 19/19/19 17/17/17
f 19/19/19 28/28/28 27/27/27
f 28/28/28 17/17/17 29/29/29
f 28/28/28 29/29/29 27/27/27
f 17/17/17 21/21/21 29/29/29
f 26/26/26 27/27/27 30/30/30
f 30/30/30 27/27/27 29/29/29
f 26/26/26 30/30/30 31/31/31
f 21/21/21 32/32/32 29/29/29
f 31/31/31 30/30/30 33/33/33
f 33/33/33 34/34/34 31/31/31
f 29/29/29 35/35/35 30/30/30
f 33/33/33 30/30/30 35/35/35
f 35/35/35 29/29/29 32/32/32
f 36/36/36 34/34/34 33/33/33
f 35/35/35 32/32/32 37/37/37
f 35/35/35 37/37/37 33/33/33
f 33/33/33 38/38/38 36/36/36
f 38/38/38 33/33/33 37/37/37
f 36/36/36 38/38/38 39/39/39
f 36/36/36 39/39/39 40/40/40
f 42/42/42 41/41/41 40/40/40
f 40/40/40 39/39/39 42/42/42
f 42/42/42 39/39/39 43/43/43
f 39/39/39 38/38/38 44/44/44
f 44/44/44 43/43/43 39/39/39
f 37/37/37 44/44/44 38/38/38
f 43/43/43 44/44/44 45/45/45
f 37/37/37 46/46/46 44/44/44
f 32/32/32 46/46/46 37/37/37
f 47/47/47 45/45/45 44/44/44
f 46/46/46 47/47/47 44/44/44
f 45/45/45 47/47/47 48/48/48
f 32/32/32 49/49/49 46/46/46
f 32/32/32 21/21/21 49/49/49
f 16/16/16 49/49/49 21/21/21
f 49/49/49 16/16/16 14/14/14
f 46/46/46 50/50/50 47/47/47
f 49/49/49 50/50/50 46/46/46
f 14/14/14 51/51/51 49/49/49
f 50/50/50 49/49/49 51/51/51
f 51/51/51 14/14/14 15/15/15
f 50/50/50 52/52/52 47/47/47
f 50/50/50 51/51/51 52/52/52
f 52/52/52 48/48/48 47/47/47
f 51/51/51 15/15/15 53/53/53
f 51/51/51 53/53/53 52/52/52
f 52/52/52 53/53/53 48/48/48
f 53/53/53 15/15/15 54/54/54
f 55/55/55 48/48/48 53/53/53
f 53/53/53 54/54/54 55/55/55
f 56/56/56 55/55/55 54/54/54
f 59/59/59 58/58/58 57/57/57
f 60/60/60 57/57/57 58/58/58
f 60/60/60 58/58/58 61/61/61
f 60/60/60 62/62/62 57/57/57
f 63/63/63 60/60/60 61/61/61
f 61/61/61 64/64/64 63/63/63
f 65/65/65 62/62/62 60/60/60
f 65/65/65 60/60/60 63/63/63
f 66/66/66 63/63/63 64/64/64
f 64/64/64 67/67/67 66/66/66
f 68/68/68 65/65/65 63/63/63
f 68/68/68 63/63/63 66/66/66
f 62/62/62 65/65/65 69/69/69
f 65/65/65 68/68/68 69/69/69
f 62/62/62 69/69/69 70/70/70
f 70/70/70 69/69/69 71/71/71
f 72/72/72 71/71/71 69/69/69
f 73/73/73 71/71/71 72/72/72
f 68/68/68 74/74/74 69/69/69
f 69/69/69 74/74/74 72/72/72
f 75/75/75 68/68/68 66/66/66
f 72/72/72 76/76/76 73/73/73
f 75/75/75 66/66/66 77/77/77
f 77/77/77 66/66/66 67/67/67
f 75/75/75 78/78/78 68/68/68
f 74/74/74 68/68/68 78/78/78
f 79/79/79 75/75/75 77/77/77
f 75/75/75 79/79/79 78/78/78
f 77/77/77 67/67/67 80/80/80
f 81/81/81 80/80/80 67/67/67
f 81/81/81 83/83/83 82/82/82
f 82/82/82 80/80/80 81/81/81
f 84/84/84 80/80/80 82/82/82
f 80/80/80 85/85/85 77/77/77
f 84/84/84 85/85/85 80/80/80
f 79/79/79 77/77/77 85/85/85
f 85/85/85 84/84/84 86/86/86
f 85/85/85 86/86/86 79/79/79
f 87/87/87 86/86/86 84/84/84
f 87/87/87 88/88/88 86/86/86
f 89/89/89 79/79/79 86/86/86
f 79/79/79 89/89/89 78/78/78
f 90/90/90 86/86/86 88/88/88
f 86/86/86 90/90/90 89/89/89
f 88/88/88 91/91/91 90/90/90
f 89/89/89 92/92/92 78/78/78
f 92/92/92 89/89/89 90/90/90
f 93/93/93 78/78/78 92/92/92
f 78/78/78 93/93/93 74/74/74
f 92/92/92 90/90/90 94/94/94
f 92/92/92 94/94/94 93/93/93
f 95/95/95 90/90/90 91/91/91
f 90/90/90 95/95/95 94/94/94
f 96/96/96 74/74/74 93/93/93
f 74/74/74 96/96/96 72/72/72
f 72/72/72 96/96/96 76/76/76
f 97/97/97 93/93/93 94/94/94
f 93/93/93 97/97/97 96/96/96
f 98/98/98 94/94/94 95/95/95
f 94/94/94 98/98/98 97/97/97
f 99/99/99 95/95/95 91/91/91
f 99/99/99 98/98/98 95/95/95
f 91/91/91 100/100/100 99/99/99
f 102/102/102 101/101/101 100/100/100
f 99/99/99 100/100/100 101/101/101
f 101/101/101 103/103/103 99/99/99
f 99/99/99 103/103/103 98/98/98
f 103/103/103 104/104/104 98/98/98
f 104/104/104 97/97/97 98/98/98
f 103/103/103 105/105/105 104/104/104
f 105/105/105 106/106/106 104/104/104
f 107/107/107 96/96/96 97/97/97
f 97/97/97 104/104/104 107/107/107
f 96/96/96 107/107/107 76/76/76
f 108/108/108 107/107/107 104/104/104
f 107/107/107 108/108/108 76/76/76
f 104/104/104 106/106/106 108/108/108
f 109/109/109 76/76/76 108/108/108
f 106/106/106 109/109/109 108/108/108
f 76/76/76 109/109/109 73/73/73
f 106/106/106 110/110/110 109/109/109
f 111/111/111 73/73/73 109/109/109
f 109/109/109 110/110/110 111/111/111
f 112/112/112 111/111/111 110/110/110
f 115/115/115 114/114/114 113/113/113
f 113/113/113 116/116/116 115/115/115
f 113/113/113 114/114/114 117/117/117
f 113/113/113 118/118/118 116/116/116
f 118/118/118 119/119/119 116/116/116
f 117/117/117 120/120/120 113/113/113
f 113/113/113 120/120/120 118/118/118
f 121/121/121 120/120/120 117/117/117
f 121/121/121 122/122/122 120/120/120
f 120/120/120 122/122/122 123/123/123
f 123/123/123 118/118/118 120/120/120
f 124/124/124 123/123/123 122/122/122
f 123/123/123 124/124/124 125/125/125
f 125/125/125 126/126/126 123/123/123
f 123/123/123 126/126/126 118/118/118
f 125/125/125 127/127/127 126/126/126
f 126/126/126 127/127/127 128/128/128
f 126/126/126 129/129/129 118/118/118
f 126/126/126 128/128/128 129/129/129
f 118/118/118 129/129/129 119/119/119
f 130/130/130 129/129/129 128/128/128
f 129/129/129 131/131/131 119/119/119
f 130/130/130 132/132/132 129/129/129
f 131/131/131 129/129/129 132/132/132
f 135/135/135 134/134/134 133/133/133
f 136/136/136 134/134/134 135/135/135
f 133/133/133 137/137/137 135/135/135
f 136/136/136 135/135/135 138/138/138
f 139/139/139 135/135/135 137/137/137
f 137/137/137 140/140/140 139/139/139
f 141/141/141 139/139/139 140/140/140
f 142/142/142 138/138/138 135/135/135
f 135/135/135 139/139/139 142/142/142
f 138/138/138 142/142/142 143/143/143
f 139/139/139 141/141/141 144/144/144
f 144/144/144 142/142/142 139/139/139
f 145/145/145 144/144/144 141/141/141
f 146/146/146 143/143/143 142/142/142
f 147/147/147 143/143/143 146/146/146
f 147/147/147 146/146/146 148/148/148
f 144/144/144 149/149/149 142/142/142
f 146/146/146 142/142/142 149/149/149
f 144/144/144 145/145/145 149/149/149
f 148/148/148 146/146/146 149/149/149
f 150/150/150 149/149/149 145/145/145
f 149/149/149 151/151/151 148/148/148
f 149/149/149 150/150/150 152/152/152
f 152/152/152 151/151/151 149/149/149
