mtllib SM_CardBoard_Box_04_LOD1.mtl
g SM_CardBoard_Box_04_LOD1
#Vertices 480
#Indices 1776
#Section 0 Offset 0 NumIndices 1776 MaterialIndex 0 MI_CardBoard_Boxes_01
v 0.378482 0.192795 0.323587
v 0.378506 0.006316 0.323638
v 0.379312 0.192809 0.320261
v 0.379326 0.006314 0.320280
v 0.401186 0.002644 0.004507
v 0.396867 0.002912 0.086112
v 0.402040 0.005736 0.004200
v 0.396156 0.005936 0.086847
v 0.398250 0.002582 0.167831
v 0.396832 0.005549 0.167831
v 0.401935 0.006315 0.243449
v 0.402700 0.002970 0.244194
v 0.401313 0.003007 0.321070
v 0.401925 0.005889 0.320599
v 0.400326 0.006024 0.322021
v 0.391492 0.192726 0.318990
v 0.378482 0.192795 0.323587
v 0.379312 0.192809 0.320261
v 0.393476 0.192804 0.321730
v 0.395023 0.192637 0.317762
v 0.397131 0.192841 0.319606
v 0.398728 0.192947 0.315140
v 0.395765 0.192937 0.313249
v 0.402412 0.194730 0.243455
v 0.398612 0.194730 0.243455
v 0.398612 0.196655 0.167831
v 0.402411 0.196655 0.167795
v 0.400858 0.195143 0.086829
v 0.397060 0.195034 0.086843
v 0.397049 0.195100 0.005854
v 0.400593 0.194191 0.004491
v 0.395926 0.195295 0.003888
v 0.395846 0.195591 0.002957
v -0.000324 0.194682 0.319370
v 0.003770 0.195397 0.321101
v 0.000585 0.194729 0.322477
v 0.003437 0.194689 0.319221
v -0.000579 0.195597 0.249104
v 0.003465 0.195675 0.243455
v 0.003465 0.196655 0.167831
v -0.000335 0.196655 0.167831
v -0.000109 0.187210 0.004130
v 0.003477 0.191937 0.086843
v 0.003447 0.189686 0.005553
v 0.003992 0.188706 0.001436
v 0.005348 0.188976 0.002435
v 0.005537 0.082855 0.429998
v 0.005529 0.142110 0.384579
v 0.005529 0.085592 0.432634
v 0.004637 0.141032 0.381666
v 0.005529 0.192836 0.327826
v 0.003778 0.191489 0.326219
v 0.003601 0.191634 0.325506
v 0.005540 0.195676 0.325574
v 0.000585 0.194729 0.322477
v 0.003159 0.190777 0.325000
v 0.004884 0.131910 -0.051650
v 0.026303 0.073672 -0.108664
v 0.026276 0.076447 -0.111340
v 0.005806 0.134307 -0.053358
v 0.002238 0.184466 0.000020
v 0.005806 0.185791 -0.001622
v 0.003992 0.188706 0.001436
v 0.002044 0.184626 0.000784
v -0.000109 0.187210 0.004130
v 0.001468 0.183048 0.001491
v 0.396964 0.080832 -0.103177
v 0.297225 0.081171 -0.105321
v 0.396946 0.078095 -0.100541
v 0.297233 0.082198 -0.108601
v 0.198698 0.079967 -0.110303
v 0.198674 0.082704 -0.112938
v 0.026276 0.076447 -0.111340
v 0.026303 0.073672 -0.108664
v 0.378506 0.006316 0.323638
v 0.393410 0.006747 0.318829
v 0.379326 0.006314 0.320280
v 0.395659 0.006509 0.321545
v 0.396859 0.006829 0.317022
v 0.399926 0.006541 0.319603
v 0.401402 0.006508 0.315153
v 0.398040 0.006794 0.312549
v 0.402412 0.006344 0.243455
v 0.398612 0.006344 0.243455
v 0.396635 0.005600 0.167831
v 0.392834 0.005600 0.167832
v 0.396628 0.006177 0.086843
v 0.392828 0.006177 0.086843
v 0.398598 0.006249 0.005854
v 0.402040 0.005736 0.004200
v 0.398566 0.005044 0.005854
v 0.397924 0.134568 -0.053586
v 0.396964 0.080832 -0.103177
v 0.396946 0.078095 -0.100541
v 0.396964 0.137358 -0.055747
v 0.397472 0.186506 -0.001160
v 0.396964 0.192887 -0.000030
v 0.396595 0.186427 0.000519
v 0.395846 0.195591 0.002957
v 0.400593 0.194191 0.004491
v 0.399467 0.183264 0.001188
v 0.396548 0.086114 0.426667
v 0.397494 0.138290 0.380463
v 0.396515 0.083376 0.424031
v 0.396992 0.140881 0.383981
v 0.398347 0.184294 0.330225
v 0.397418 0.190933 0.327976
v 0.398363 0.184582 0.328658
v 0.397440 0.192149 0.325132
v 0.397450 0.189144 0.324047
v 0.398342 0.181784 0.327953
v 0.397473 0.150401 0.322486
v 0.398060 0.150397 0.325972
v 0.397548 0.097731 0.322486
v 0.398221 0.097729 0.325898
v 0.398292 0.045250 0.325862
v 0.398248 0.045235 0.322486
v 0.397284 0.007905 0.322486
v 0.398253 0.007597 0.325868
v 0.000000 0.009140 0.004348
v 0.000589 0.003084 0.086130
v 0.000872 0.005233 0.004491
v 0.000254 0.002764 0.167782
v 0.003456 0.038613 0.114140
v -0.000041 0.097642 0.004406
v 0.000142 0.002932 0.244307
v 0.001640 0.116409 0.142749
v -0.000109 0.187210 0.004130
v -0.000335 0.196655 0.167831
v -0.000579 0.195597 0.249104
v -0.000070 0.045216 0.243442
v -0.000263 0.050358 0.319530
v -0.000324 0.194682 0.319370
v 0.000030 0.002761 0.321913
v 0.000585 0.194729 0.322477
v 0.000756 0.006850 0.322353
v 0.378482 0.192795 0.323587
v 0.393476 0.192804 0.321730
v 0.378506 0.006316 0.323638
v 0.395659 0.006509 0.321545
v 0.399330 0.151284 0.319593
v 0.397131 0.192841 0.319606
v 0.399926 0.006541 0.319603
v 0.391492 0.192726 0.318990
v 0.379312 0.192809 0.320261
v 0.379326 0.006314 0.320280
v 0.393410 0.006747 0.318829
v 0.396859 0.006829 0.317022
v 0.395023 0.192637 0.317762
v 0.398121 0.144020 0.312606
v 0.398040 0.006794 0.312549
v 0.395765 0.192937 0.313249
v 0.398746 0.137642 0.241128
v 0.398612 0.194730 0.243455
v 0.398612 0.196655 0.167831
v 0.398612 0.006344 0.243455
v 0.397060 0.195034 0.086843
v 0.398858 0.128145 0.005628
v 0.397049 0.195100 0.005854
v 0.398178 0.104240 0.143574
v 0.392834 0.005600 0.167832
v 0.398598 0.006249 0.005854
v 0.392828 0.006177 0.086843
v 0.094530 0.085535 0.432957
v 0.005537 0.082855 0.429998
v 0.005529 0.085592 0.432634
v 0.094538 0.082797 0.430322
v 0.198636 0.085306 0.423100
v 0.198662 0.088044 0.425735
v 0.297372 0.084589 0.432957
v 0.297365 0.081851 0.430322
v 0.396515 0.083376 0.424031
v 0.396548 0.086114 0.426667
v 0.000254 0.002764 0.167782
v 0.000142 0.002932 0.244307
v 0.004402 0.000107 0.167831
v 0.005015 0.001170 0.244852
v 0.094566 0.000230 0.168129
v 0.000030 0.002761 0.321913
v 0.094570 0.000502 0.244877
v 0.198828 0.000051 0.168723
v 0.005550 0.001758 0.320556
v 0.004295 0.003633 0.324847
v 0.000756 0.006850 0.322353
v 0.102484 0.001749 0.320204
v 0.298039 0.000327 0.245357
v 0.298720 -0.000172 0.168426
v 0.394263 -0.000182 0.167830
v 0.402700 0.002970 0.244194
v 0.398250 0.002582 0.167831
v 0.398255 0.001026 0.244876
v 0.401313 0.003007 0.321070
v 0.396535 0.001758 0.320555
v 0.297364 0.001750 0.323287
v 0.397811 0.003629 0.324830
v 0.400326 0.006024 0.322021
v 0.398253 0.007597 0.325868
v 0.298331 0.003296 0.327265
v 0.297411 0.007644 0.328954
v 0.398292 0.045250 0.325862
v 0.094524 0.003246 0.324798
v 0.093380 0.007426 0.326016
v 0.003864 0.007596 0.325888
v 0.093799 0.045895 0.327206
v 0.003962 0.047199 0.325877
v 0.000585 0.194729 0.322477
v 0.398221 0.097729 0.325898
v 0.003800 0.150052 0.325870
v 0.003159 0.190777 0.325000
v 0.094554 0.150471 0.326491
v 0.219401 0.096840 0.329613
v 0.094426 0.185449 0.324651
v 0.003601 0.191634 0.325506
v 0.233500 0.151300 0.329548
v 0.398060 0.150397 0.325972
v 0.398342 0.181784 0.327953
v 0.198649 0.185455 0.323329
v 0.297320 0.184506 0.324727
v 0.398363 0.184582 0.328658
v 0.297291 0.187402 0.325328
v 0.398347 0.184294 0.330225
v 0.094512 0.188349 0.325316
v 0.003778 0.191489 0.326219
v 0.198620 0.188340 0.323805
v 0.297112 0.186159 0.328006
v 0.094578 0.187105 0.328020
v 0.004637 0.141032 0.381666
v 0.198550 0.187101 0.326454
v 0.148424 0.139952 0.380196
v 0.005537 0.082855 0.429998
v 0.094538 0.082797 0.430322
v 0.198636 0.085306 0.423100
v 0.297365 0.139298 0.381097
v 0.297365 0.081851 0.430322
v 0.397494 0.138290 0.380463
v 0.396515 0.083376 0.424031
v 0.003922 0.007196 0.243455
v 0.004380 0.006652 0.167831
v 0.003826 0.003701 0.167830
v 0.003645 0.005321 0.244113
v 0.005277 0.002986 0.167829
v 0.003465 0.007184 0.319078
v 0.005422 0.004948 0.244795
v 0.094597 0.002244 0.168127
v 0.003466 0.005563 0.319286
v 0.004061 0.006707 0.320491
v 0.095431 0.004297 0.245103
v 0.198855 0.000759 0.168721
v 0.005567 0.005536 0.320149
v 0.005535 0.005948 0.322100
v 0.005529 0.007905 0.322486
v 0.168306 0.005508 0.320431
v 0.094534 0.005910 0.322088
v 0.298013 0.004126 0.245254
v 0.298673 0.001355 0.168424
v 0.393373 0.002693 0.167829
v 0.094530 0.007869 0.322474
v 0.397692 0.004792 0.246326
v 0.394825 0.004227 0.167830
v 0.401935 0.006315 0.243449
v 0.396832 0.005549 0.167831
v 0.401925 0.005889 0.320599
v 0.398589 0.005536 0.320149
v 0.400326 0.006024 0.322021
v 0.297353 0.005522 0.322826
v 0.397284 0.007905 0.322486
v 0.398253 0.007597 0.325868
v 0.198663 0.005944 0.322748
v 0.297368 0.005945 0.324777
v 0.298443 0.007998 0.324278
v 0.297684 0.045036 0.322915
v 0.398248 0.045235 0.322486
v 0.397548 0.097731 0.322486
v 0.094530 0.045235 0.322810
v 0.228193 0.098522 0.325741
v 0.214440 0.150623 0.325951
v 0.397473 0.150401 0.322486
v 0.095059 0.150060 0.322874
v 0.005487 0.047286 0.322485
v 0.004061 0.006707 0.320491
v 0.003991 0.150052 0.320375
v 0.005529 0.150052 0.322486
v 0.003770 0.195397 0.321101
v 0.005341 0.195826 0.323806
v 0.000585 0.194729 0.322477
v 0.005540 0.195676 0.325574
v 0.094529 0.188933 0.322885
v 0.198612 0.188885 0.321449
v 0.094522 0.190337 0.324598
v 0.094502 0.190644 0.326570
v 0.005529 0.192836 0.327826
v 0.198665 0.190286 0.322994
v 0.094530 0.141501 0.383578
v 0.005529 0.142110 0.384579
v 0.005529 0.085592 0.432634
v 0.094530 0.085535 0.432957
v 0.198662 0.088044 0.425735
v 0.198721 0.190603 0.324918
v 0.198662 0.140580 0.382810
v 0.297372 0.140933 0.383186
v 0.297372 0.084589 0.432957
v 0.396548 0.086114 0.426667
v 0.396992 0.140881 0.383981
v 0.397418 0.190933 0.327976
v 0.297278 0.189699 0.326569
v 0.297364 0.189392 0.324629
v 0.397440 0.192149 0.325132
v 0.297433 0.187990 0.323008
v 0.397450 0.189144 0.324047
v 0.004380 0.006652 0.167831
v 0.003934 0.007184 0.086843
v 0.003826 0.003701 0.167830
v 0.003669 0.005310 0.086184
v 0.003488 0.009219 0.005854
v 0.005277 0.002986 0.167829
v 0.005806 0.009963 0.003514
v 0.005812 0.008006 0.003899
v 0.003511 0.007603 0.005854
v 0.005559 0.004948 0.086034
v 0.095861 0.004332 0.087232
v 0.094597 0.002244 0.168127
v 0.198855 0.000759 0.168721
v 0.005859 0.006595 0.005973
v 0.297944 0.004125 0.086332
v 0.298673 0.001355 0.168424
v 0.297215 0.005021 0.005851
v 0.392304 0.004796 0.086310
v 0.393373 0.002693 0.167829
v 0.394825 0.004227 0.167830
v 0.396156 0.005936 0.086847
v 0.396832 0.005549 0.167831
v 0.402040 0.005736 0.004200
v 0.398566 0.005044 0.005854
v 0.396236 0.005035 0.005851
v 0.298151 0.005444 0.003900
v 0.396265 0.005447 0.003905
v 0.396271 0.007404 0.003549
v 0.398598 0.006249 0.005854
v 0.297233 0.007404 0.003531
v 0.396255 0.049033 0.003865
v 0.398858 0.128145 0.005628
v 0.094672 0.005445 0.003899
v 0.094724 0.007403 0.003494
v 0.005806 0.009963 0.003514
v 0.297217 0.045108 0.003616
v 0.094669 0.045235 0.003514
v 0.005806 0.045235 0.003514
v 0.005611 0.150255 0.003515
v 0.198511 0.150127 0.003515
v 0.297218 0.150064 0.003691
v 0.396271 0.150189 0.003795
v 0.397049 0.195100 0.005854
v 0.395926 0.195295 0.003888
v 0.297279 0.188933 0.003545
v 0.395846 0.195591 0.002957
v 0.198834 0.188025 0.003517
v 0.297267 0.190634 0.001646
v 0.094702 0.184690 0.003565
v 0.005348 0.188976 0.002435
v 0.198722 0.189729 0.001622
v 0.094713 0.186392 0.001637
v 0.003992 0.188706 0.001436
v 0.005806 0.185791 -0.001622
v 0.094791 0.186205 -0.000064
v 0.198706 0.189550 -0.000078
v 0.094680 0.134646 -0.053635
v 0.005806 0.134307 -0.053358
v 0.026276 0.076447 -0.111340
v 0.297324 0.190444 -0.000044
v 0.396964 0.192887 -0.000030
v 0.198674 0.136616 -0.055084
v 0.198674 0.082704 -0.112938
v 0.297233 0.082198 -0.108601
v 0.297233 0.137052 -0.055425
v 0.396964 0.137358 -0.055747
v 0.396964 0.080832 -0.103177
v 0.003991 0.150052 0.320375
v 0.003770 0.195397 0.321101
v 0.003437 0.194689 0.319221
v 0.004061 0.006707 0.320491
v 0.003434 0.094694 0.319086
v 0.003465 0.007184 0.319078
v 0.003922 0.007196 0.243455
v 0.003598 0.123230 0.246275
v 0.003465 0.195675 0.243455
v 0.003465 0.196655 0.167831
v 0.003477 0.191937 0.086843
v 0.007368 0.083128 0.175053
v 0.004380 0.006652 0.167831
v 0.003934 0.007184 0.086843
v 0.003471 0.150052 0.086843
v 0.003447 0.189686 0.005553
v 0.007177 0.079466 0.087511
v 0.003488 0.009219 0.005854
v 0.003651 0.080585 0.006050
v 0.005806 0.009963 0.003514
v 0.005806 0.045235 0.003514
v 0.005611 0.150255 0.003515
v 0.005348 0.188976 0.002435
v 0.396867 0.002912 0.086112
v 0.394263 -0.000182 0.167830
v 0.398250 0.002582 0.167831
v 0.392290 0.001021 0.085964
v 0.298720 -0.000172 0.168426
v 0.396247 0.001259 0.005419
v 0.401186 0.002644 0.004507
v 0.297636 0.000058 0.087030
v 0.198828 0.000051 0.168723
v 0.094566 0.000230 0.168129
v 0.297209 0.001248 0.005393
v 0.397276 0.003096 0.001096
v 0.402040 0.005736 0.004200
v 0.297081 0.002801 0.001172
v 0.098629 0.001339 0.005433
v 0.094626 0.000773 0.086102
v 0.005177 0.001168 0.085928
v 0.004402 0.000107 0.167831
v 0.005779 0.003826 0.005367
v 0.000589 0.003084 0.086130
v 0.000254 0.002764 0.167782
v 0.000872 0.005233 0.004491
v 0.094633 0.002772 0.001199
v 0.004760 0.005654 0.001106
v 0.004394 0.009647 -0.000000
v 0.000000 0.009140 0.004348
v 0.094909 0.007008 -0.000312
v -0.000041 0.097642 0.004406
v 0.297199 0.007037 -0.000251
v 0.094858 0.096619 -0.000326
v 0.397667 0.007112 0.000027
v 0.297240 0.097643 -0.000075
v 0.402298 0.112532 0.003970
v 0.004349 0.097643 0.000004
v 0.397557 0.097646 0.000361
v 0.003502 0.150052 0.001724
v -0.000109 0.187210 0.004130
v 0.001468 0.183048 0.001491
v 0.095316 0.148695 -0.000353
v 0.094937 0.181204 0.001765
v 0.002044 0.184626 0.000784
v 0.297238 0.150045 -0.000145
v 0.198750 0.184535 0.001733
v 0.094838 0.184056 0.001079
v 0.002238 0.184466 0.000020
v 0.397632 0.150200 0.000248
v 0.094861 0.182659 -0.001503
v 0.004884 0.131910 -0.051650
v 0.399467 0.183264 0.001188
v 0.400593 0.194191 0.004491
v 0.297122 0.185438 0.001826
v 0.396595 0.186427 0.000519
v 0.198744 0.187389 0.001069
v 0.297208 0.188293 0.001113
v 0.198817 0.185998 -0.001509
v 0.297259 0.186897 -0.001478
v 0.397472 0.186506 -0.001160
v 0.397924 0.134568 -0.053586
v 0.178315 0.136312 -0.050935
v 0.026303 0.073672 -0.108664
v 0.198698 0.079967 -0.110303
v 0.297225 0.081171 -0.105321
v 0.297225 0.131829 -0.056344
v 0.396946 0.078095 -0.100541
v 0.402270 0.109669 0.147616
v 0.396628 0.006177 0.086843
v 0.396635 0.005600 0.167831
v 0.402040 0.005736 0.004200
v 0.402412 0.006344 0.243455
v 0.402298 0.112532 0.003970
v 0.402650 0.138173 0.240679
v 0.400593 0.194191 0.004491
v 0.400858 0.195143 0.086829
v 0.402411 0.196655 0.167795
v 0.402412 0.194730 0.243455
v 0.401402 0.006508 0.315153
v 0.398728 0.192947 0.315140
v 0.401198 0.118573 0.315086
v 0.399926 0.006541 0.319603
v 0.397131 0.192841 0.319606
v 0.399330 0.151284 0.319593
vt 0.552246 0.390137
vt 0.552246 0.296875
vt 0.553711 0.390137
vt 0.553711 0.297363
vt 0.988281 0.717529
vt 0.988281 0.676514
vt 0.989746 0.717773
vt 0.989746 0.676270
vt 0.987793 0.635742
vt 0.989746 0.635742
vt 0.989746 0.597656
vt 0.987793 0.597412
vt 0.988281 0.558838
vt 0.989746 0.559082
vt 0.989258 0.558105
vt 0.980957 0.120117
vt 0.980957 0.112793
vt 0.982422 0.113770
vt 0.979492 0.120117
vt 0.980469 0.122070
vt 0.979004 0.122070
vt 0.979492 0.124023
vt 0.980957 0.124512
vt 0.979004 0.159668
vt 0.980957 0.159668
vt 0.980957 0.197754
vt 0.979004 0.197754
vt 0.979980 0.238281
vt 0.981445 0.238281
vt 0.981445 0.278809
vt 0.979980 0.279297
vt 0.982422 0.279785
vt 0.982422 0.280273
vt 0.305908 0.724365
vt 0.308105 0.725098
vt 0.306396 0.725830
vt 0.307861 0.724121
vt 0.305908 0.688965
vt 0.307861 0.686279
vt 0.308105 0.648438
vt 0.306152 0.648438
vt 0.305908 0.566162
vt 0.308105 0.607666
vt 0.307373 0.566895
vt 0.307373 0.564941
vt 0.308105 0.565186
vt 0.554688 0.651855
vt 0.552734 0.689209
vt 0.553223 0.652100
vt 0.554199 0.689941
vt 0.552246 0.727295
vt 0.553711 0.727539
vt 0.554199 0.727783
vt 0.552246 0.729004
vt 0.554688 0.730225
vt 0.554688 0.727539
vt 0.548828 0.442871
vt 0.548828 0.400391
vt 0.550781 0.400879
vt 0.550293 0.442871
vt 0.548828 0.479980
vt 0.551270 0.479492
vt 0.550293 0.481934
vt 0.548828 0.479980
vt 0.547852 0.482422
vt 0.547852 0.479492
vt 0.980957 0.557617
vt 0.979004 0.607666
vt 0.979004 0.557617
vt 0.980957 0.607666
vt 0.979004 0.656982
vt 0.980957 0.656982
vt 0.980957 0.743408
vt 0.979004 0.743408
vt 0.764648 0.544189
vt 0.764160 0.552246
vt 0.763184 0.544922
vt 0.766113 0.552490
vt 0.764648 0.554443
vt 0.766602 0.554443
vt 0.766113 0.556396
vt 0.764648 0.557129
vt 0.766113 0.592041
vt 0.764160 0.592041
vt 0.766113 0.629883
vt 0.764160 0.630127
vt 0.766113 0.670654
vt 0.764160 0.670410
vt 0.764648 0.711182
vt 0.766113 0.712158
vt 0.764160 0.711670
vt 0.985840 0.854858
vt 0.984863 0.818237
vt 0.986816 0.818115
vt 0.983887 0.855103
vt 0.985352 0.891846
vt 0.983398 0.894470
vt 0.985840 0.892578
vt 0.983398 0.896545
vt 0.985840 0.897339
vt 0.988281 0.892090
vt 0.766113 0.364746
vt 0.764160 0.399902
vt 0.764160 0.364746
vt 0.766113 0.399414
vt 0.763672 0.436523
vt 0.766602 0.437988
vt 0.763672 0.440918
vt 0.768066 0.440430
vt 0.766602 0.442871
vt 0.763184 0.444824
vt 0.766113 0.460938
vt 0.764160 0.460938
vt 0.766113 0.485840
vt 0.764160 0.485840
vt 0.764160 0.510254
vt 0.766113 0.510254
vt 0.766113 0.527832
vt 0.764160 0.527832
vt 0.545410 0.651123
vt 0.504395 0.647705
vt 0.545410 0.649170
vt 0.463867 0.647217
vt 0.490723 0.665283
vt 0.545410 0.695068
vt 0.425537 0.647461
vt 0.476318 0.704346
vt 0.545898 0.739746
vt 0.463867 0.744385
vt 0.423096 0.743652
vt 0.425781 0.668701
vt 0.387695 0.671143
vt 0.387939 0.743164
vt 0.386475 0.647705
vt 0.386230 0.743164
vt 0.386230 0.649658
vt 0.343750 0.653809
vt 0.336182 0.653564
vt 0.343750 0.560791
vt 0.334961 0.560791
vt 0.333008 0.632812
vt 0.333984 0.653809
vt 0.332764 0.560791
vt 0.388184 0.637695
vt 0.382080 0.637939
vt 0.381592 0.544922
vt 0.388672 0.545166
vt 0.390625 0.545166
vt 0.390137 0.637695
vt 0.393066 0.613525
vt 0.393066 0.545166
vt 0.392578 0.637939
vt 0.428711 0.610352
vt 0.427490 0.638916
vt 0.465332 0.639893
vt 0.427490 0.544678
vt 0.505859 0.639160
vt 0.546387 0.605469
vt 0.546387 0.639160
vt 0.477539 0.593506
vt 0.465332 0.544189
vt 0.546387 0.545166
vt 0.505859 0.544434
vt 0.985352 0.337402
vt 0.983398 0.292480
vt 0.985352 0.292480
vt 0.983398 0.337402
vt 0.983398 0.389648
vt 0.985352 0.389648
vt 0.985352 0.438965
vt 0.983398 0.438965
vt 0.983398 0.488770
vt 0.985352 0.488770
vt 0.758301 0.544189
vt 0.758301 0.582520
vt 0.755859 0.544189
vt 0.755859 0.582764
vt 0.710938 0.544189
vt 0.758789 0.621338
vt 0.710938 0.582764
vt 0.658691 0.544678
vt 0.755859 0.620605
vt 0.756348 0.622803
vt 0.758789 0.623779
vt 0.707031 0.620361
vt 0.609375 0.583008
vt 0.608887 0.544434
vt 0.561035 0.544189
vt 0.556641 0.582520
vt 0.558594 0.544189
vt 0.559082 0.582764
vt 0.557129 0.621094
vt 0.559570 0.620605
vt 0.609375 0.622070
vt 0.559570 0.623047
vt 0.557129 0.623291
vt 0.559082 0.625244
vt 0.608887 0.624023
vt 0.609375 0.626221
vt 0.559082 0.644531
vt 0.710938 0.622803
vt 0.711426 0.624756
vt 0.756348 0.624512
vt 0.711426 0.643799
vt 0.756348 0.643799
vt 0.759277 0.717285
vt 0.559082 0.671143
vt 0.756836 0.695312
vt 0.757812 0.714600
vt 0.711426 0.696045
vt 0.648926 0.669678
vt 0.711914 0.713623
vt 0.757324 0.715820
vt 0.642090 0.696777
vt 0.559570 0.698242
vt 0.559570 0.714600
vt 0.659668 0.713623
vt 0.610352 0.714111
vt 0.559570 0.716797
vt 0.610352 0.715332
vt 0.559570 0.718018
vt 0.711914 0.715332
vt 0.757324 0.717041
vt 0.659668 0.714844
vt 0.610352 0.716797
vt 0.711914 0.717041
vt 0.756348 0.753052
vt 0.659668 0.716064
vt 0.684570 0.751831
vt 0.755859 0.790771
vt 0.710938 0.790283
vt 0.659180 0.786499
vt 0.610352 0.752197
vt 0.609863 0.790039
vt 0.560059 0.752075
vt 0.560059 0.787109
vt 0.757324 0.502197
vt 0.757324 0.540039
vt 0.755859 0.540039
vt 0.756348 0.501953
vt 0.755371 0.540039
vt 0.756836 0.464355
vt 0.755371 0.501709
vt 0.710449 0.540039
vt 0.756348 0.464355
vt 0.756348 0.463379
vt 0.709961 0.501465
vt 0.658203 0.539795
vt 0.755371 0.463867
vt 0.755371 0.463379
vt 0.755371 0.462402
vt 0.673828 0.463867
vt 0.710449 0.462891
vt 0.608887 0.501465
vt 0.608398 0.539795
vt 0.561035 0.540039
vt 0.710449 0.461914
vt 0.559082 0.500732
vt 0.560547 0.540039
vt 0.556641 0.502197
vt 0.559082 0.540039
vt 0.556641 0.463867
vt 0.558594 0.463867
vt 0.557617 0.462891
vt 0.609375 0.462402
vt 0.559082 0.461426
vt 0.557617 0.460449
vt 0.658691 0.462402
vt 0.609375 0.461426
vt 0.608398 0.460938
vt 0.608887 0.442871
vt 0.558594 0.442871
vt 0.559570 0.416016
vt 0.710938 0.443359
vt 0.644043 0.416016
vt 0.651367 0.390137
vt 0.559570 0.389648
vt 0.710938 0.390625
vt 0.755371 0.442871
vt 0.756348 0.462891
vt 0.756836 0.392090
vt 0.755859 0.392090
vt 0.757812 0.369629
vt 0.756348 0.369141
vt 0.758789 0.368164
vt 0.755859 0.369141
vt 0.711426 0.370605
vt 0.659180 0.371582
vt 0.711426 0.369141
vt 0.711426 0.368164
vt 0.756348 0.367676
vt 0.659180 0.370117
vt 0.710938 0.330566
vt 0.755371 0.329590
vt 0.755371 0.292480
vt 0.710938 0.292969
vt 0.659180 0.296875
vt 0.659180 0.369141
vt 0.659180 0.331055
vt 0.609863 0.331055
vt 0.609863 0.293457
vt 0.560547 0.295410
vt 0.560059 0.330078
vt 0.559570 0.367676
vt 0.609863 0.368164
vt 0.609863 0.369629
vt 0.559570 0.369141
vt 0.609863 0.370605
vt 0.559570 0.370605
vt 0.977539 0.293457
vt 0.977539 0.333984
vt 0.976074 0.293457
vt 0.976562 0.333984
vt 0.977051 0.374512
vt 0.975586 0.293457
vt 0.976074 0.376465
vt 0.975586 0.375488
vt 0.976562 0.374512
vt 0.975586 0.334473
vt 0.930176 0.333496
vt 0.930664 0.292969
vt 0.878906 0.292480
vt 0.975098 0.374512
vt 0.829102 0.333984
vt 0.828613 0.292969
vt 0.829590 0.374023
vt 0.781738 0.333984
vt 0.781738 0.292969
vt 0.780762 0.292969
vt 0.779785 0.333496
vt 0.779785 0.292969
vt 0.776855 0.375000
vt 0.778809 0.374023
vt 0.779785 0.374023
vt 0.829102 0.375000
vt 0.779785 0.375000
vt 0.779785 0.375488
vt 0.778320 0.374512
vt 0.829590 0.375977
vt 0.779785 0.395508
vt 0.777832 0.434570
vt 0.930664 0.375488
vt 0.930664 0.376465
vt 0.975098 0.376953
vt 0.829590 0.394043
vt 0.930664 0.395020
vt 0.975098 0.394531
vt 0.975098 0.447754
vt 0.878418 0.447266
vt 0.829102 0.446777
vt 0.779297 0.445801
vt 0.778320 0.468262
vt 0.779297 0.467285
vt 0.828613 0.466309
vt 0.779297 0.468262
vt 0.877930 0.466309
vt 0.828613 0.467773
vt 0.930176 0.465820
vt 0.975098 0.466797
vt 0.877930 0.467773
vt 0.930176 0.467285
vt 0.975098 0.468262
vt 0.975098 0.469238
vt 0.930176 0.468262
vt 0.877930 0.468750
vt 0.930664 0.505615
vt 0.975098 0.505371
vt 0.965332 0.545898
vt 0.828613 0.468750
vt 0.778809 0.469238
vt 0.878418 0.506592
vt 0.879395 0.546387
vt 0.829590 0.545410
vt 0.829102 0.507080
vt 0.779297 0.507812
vt 0.779785 0.544678
vt 0.168213 0.930359
vt 0.168579 0.953033
vt 0.167603 0.952698
vt 0.168335 0.858765
vt 0.167603 0.902588
vt 0.167603 0.859253
vt 0.129761 0.858887
vt 0.131104 0.916931
vt 0.129761 0.953186
vt 0.091858 0.953674
vt 0.051361 0.951324
vt 0.095459 0.896851
vt 0.091858 0.858521
vt 0.051361 0.858887
vt 0.051361 0.930359
vt 0.010681 0.950195
vt 0.051697 0.894958
vt 0.010826 0.860474
vt 0.010918 0.895508
vt 0.009171 0.860840
vt 0.009171 0.877869
vt 0.009232 0.930481
vt 0.008888 0.949829
vt 0.775391 0.764282
vt 0.777344 0.805176
vt 0.774902 0.805176
vt 0.777832 0.764282
vt 0.824707 0.805542
vt 0.775879 0.724121
vt 0.773438 0.723145
vt 0.825195 0.764771
vt 0.875000 0.805664
vt 0.926758 0.805298
vt 0.825684 0.724121
vt 0.775391 0.721924
vt 0.772461 0.720947
vt 0.825684 0.721924
vt 0.924805 0.723877
vt 0.926758 0.764282
vt 0.971680 0.764038
vt 0.972168 0.805054
vt 0.971680 0.723877
vt 0.974121 0.764038
vt 0.974609 0.804932
vt 0.974121 0.722656
vt 0.926758 0.721924
vt 0.971680 0.721436
vt 0.972168 0.719238
vt 0.975098 0.719971
vt 0.926758 0.719971
vt 0.975586 0.675781
vt 0.825684 0.719971
vt 0.927246 0.675781
vt 0.775391 0.719971
vt 0.825684 0.675293
vt 0.772461 0.667969
vt 0.972168 0.675781
vt 0.775391 0.675293
vt 0.973145 0.649414
vt 0.975098 0.630615
vt 0.973633 0.632568
vt 0.926758 0.649658
vt 0.926758 0.633057
vt 0.973633 0.631348
vt 0.825684 0.649414
vt 0.875000 0.632080
vt 0.927246 0.631348
vt 0.973145 0.631104
vt 0.775391 0.648926
vt 0.926758 0.629639
vt 0.972168 0.594482
vt 0.774414 0.632324
vt 0.772949 0.626953
vt 0.825684 0.631836
vt 0.775879 0.630615
vt 0.875000 0.630859
vt 0.825684 0.630859
vt 0.875000 0.629639
vt 0.825684 0.629639
vt 0.775879 0.629883
vt 0.775391 0.593018
vt 0.885742 0.594482
vt 0.962402 0.553711
vt 0.875488 0.553223
vt 0.826172 0.555908
vt 0.826172 0.590820
vt 0.775879 0.556152
vt 0.547852 0.847778
vt 0.517090 0.796021
vt 0.557617 0.795654
vt 0.475830 0.796509
vt 0.595703 0.796021
vt 0.475830 0.849243
vt 0.594238 0.862061
vt 0.476074 0.890198
vt 0.517090 0.890625
vt 0.557617 0.891357
vt 0.595703 0.890320
vt 0.631348 0.796509
vt 0.631836 0.889404
vt 0.631348 0.852173
vt 0.633789 0.796387
vt 0.634277 0.889465
vt 0.633789 0.868530
vt1 0.918945 0.570801
vt1 0.820312 0.570801
vt1 0.918945 0.569092
vt1 0.820312 0.569092
vt1 0.899902 0.709961
vt1 0.899902 0.753052
vt1 0.898438 0.709717
vt1 0.898438 0.753540
vt1 0.899902 0.796387
vt1 0.898438 0.796387
vt1 0.898438 0.836426
vt1 0.899902 0.836914
vt1 0.899902 0.877563
vt1 0.898438 0.877319
vt1 0.898438 0.878296
vt1 0.114746 0.395996
vt1 0.114746 0.388672
vt1 0.116272 0.389648
vt1 0.112915 0.395996
vt1 0.114014 0.397949
vt1 0.112549 0.397949
vt1 0.113037 0.399902
vt1 0.114746 0.400879
vt1 0.112488 0.437988
vt1 0.114502 0.437988
vt1 0.114502 0.478027
vt1 0.112488 0.478027
vt1 0.113342 0.520752
vt1 0.115356 0.520752
vt1 0.115356 0.563721
vt1 0.113403 0.564453
vt1 0.115967 0.564697
vt1 0.116028 0.565186
vt1 0.918945 0.082031
vt1 0.916992 0.081055
vt1 0.918457 0.080566
vt1 0.916992 0.082031
vt1 0.918945 0.119141
vt1 0.916992 0.122070
vt1 0.916992 0.162109
vt1 0.918945 0.162598
vt1 0.919434 0.249023
vt1 0.916992 0.205566
vt1 0.917480 0.248535
vt1 0.917480 0.250488
vt1 0.916992 0.250000
vt1 0.873535 0.623779
vt1 0.833984 0.621338
vt1 0.873535 0.621826
vt1 0.833496 0.622803
vt1 0.793945 0.621094
vt1 0.793945 0.622559
vt1 0.793457 0.622803
vt1 0.791992 0.620850
vt1 0.791016 0.623779
vt1 0.793457 0.623291
vt1 0.654785 0.614746
vt1 0.699707 0.614746
vt1 0.699219 0.616699
vt1 0.654785 0.616211
vt1 0.615723 0.614746
vt1 0.615723 0.616943
vt1 0.613770 0.616211
vt1 0.615234 0.614502
vt1 0.613281 0.613525
vt1 0.615723 0.613770
vt1 0.520508 0.876404
vt1 0.522461 0.823608
vt1 0.522461 0.876526
vt1 0.520508 0.823608
vt1 0.522461 0.771362
vt1 0.520508 0.771362
vt1 0.520508 0.680176
vt1 0.522461 0.680176
vt1 0.837402 0.525391
vt1 0.829102 0.524902
vt1 0.836426 0.523682
vt1 0.828613 0.526611
vt1 0.826660 0.525146
vt1 0.826660 0.527344
vt1 0.824707 0.526855
vt1 0.823730 0.524902
vt1 0.787109 0.526611
vt1 0.786621 0.524658
vt1 0.746582 0.526611
vt1 0.746582 0.524658
vt1 0.703613 0.526611
vt1 0.703613 0.524658
vt1 0.660645 0.524902
vt1 0.659668 0.526611
vt1 0.660156 0.524658
vt1 0.697266 0.425293
vt1 0.698242 0.463867
vt1 0.696289 0.463867
vt1 0.698730 0.424805
vt1 0.697754 0.386230
vt1 0.699707 0.383301
vt1 0.696777 0.385254
vt1 0.699707 0.380859
vt1 0.696777 0.380371
vt1 0.694336 0.385742
vt1 0.807617 0.878418
vt1 0.809570 0.841431
vt1 0.809570 0.878723
vt1 0.807617 0.841797
vt1 0.810059 0.802856
vt1 0.807129 0.801392
vt1 0.810059 0.798218
vt1 0.805664 0.798340
vt1 0.807129 0.796143
vt1 0.810547 0.794067
vt1 0.807617 0.776733
vt1 0.809570 0.776733
vt1 0.807617 0.750488
vt1 0.809570 0.750488
vt1 0.809082 0.724609
vt1 0.807617 0.724609
vt1 0.807617 0.706299
vt1 0.809570 0.706055
vt1 0.378174 0.417480
vt1 0.334961 0.413574
vt1 0.378174 0.415527
vt1 0.291748 0.413574
vt1 0.320068 0.432617
vt1 0.378174 0.463867
vt1 0.251221 0.413574
vt1 0.304932 0.473633
vt1 0.378418 0.511230
vt1 0.291748 0.515869
vt1 0.248657 0.515381
vt1 0.251465 0.436035
vt1 0.211304 0.438477
vt1 0.211426 0.514648
vt1 0.210083 0.414062
vt1 0.209717 0.514648
vt1 0.209717 0.416016
vt1 0.522461 0.609863
vt1 0.522461 0.617676
vt1 0.424316 0.609863
vt1 0.424316 0.618896
vt1 0.500488 0.621094
vt1 0.522461 0.619873
vt1 0.424561 0.621338
vt1 0.615234 0.709229
vt1 0.615234 0.702881
vt1 0.713379 0.702393
vt1 0.713379 0.709961
vt1 0.713379 0.711914
vt1 0.615234 0.711182
vt1 0.641113 0.714355
vt1 0.713379 0.714355
vt1 0.615234 0.713867
vt1 0.644531 0.752075
vt1 0.614258 0.750854
vt1 0.613281 0.790894
vt1 0.713867 0.750854
vt1 0.613770 0.833740
vt1 0.649414 0.876709
vt1 0.613770 0.876587
vt1 0.662109 0.803711
vt1 0.714355 0.790894
vt1 0.713379 0.876587
vt1 0.713867 0.833740
vt1 0.427979 0.832886
vt1 0.430176 0.879944
vt1 0.428223 0.879944
vt1 0.429932 0.832886
vt1 0.430176 0.777710
vt1 0.427979 0.777710
vt1 0.427979 0.725342
vt1 0.429932 0.725342
vt1 0.430176 0.672607
vt1 0.427979 0.672852
vt1 0.605469 0.081055
vt1 0.645996 0.081055
vt1 0.605469 0.083984
vt1 0.646484 0.083984
vt1 0.605957 0.131348
vt1 0.687500 0.081055
vt1 0.646484 0.131348
vt1 0.605957 0.186523
vt1 0.686523 0.083984
vt1 0.688965 0.083496
vt1 0.689941 0.081055
vt1 0.686035 0.135742
vt1 0.646973 0.238770
vt1 0.605957 0.239258
vt1 0.605957 0.290039
vt1 0.646484 0.294434
vt1 0.605957 0.292480
vt1 0.646484 0.291992
vt1 0.687012 0.293945
vt1 0.686523 0.291016
vt1 0.687988 0.238770
vt1 0.688965 0.291504
vt1 0.689453 0.293945
vt1 0.691406 0.291992
vt1 0.689941 0.239258
vt1 0.692383 0.238770
vt1 0.711914 0.291992
vt1 0.688965 0.131348
vt1 0.690918 0.130859
vt1 0.690918 0.083496
vt1 0.710938 0.130859
vt1 0.710938 0.083496
vt1 0.789062 0.080078
vt1 0.740234 0.291992
vt1 0.765625 0.083008
vt1 0.785645 0.082031
vt1 0.766113 0.130859
vt1 0.738281 0.197266
vt1 0.785156 0.130371
vt1 0.787109 0.082520
vt1 0.767090 0.204102
vt1 0.768555 0.291504
vt1 0.785645 0.291016
vt1 0.784668 0.185547
vt1 0.785156 0.237793
vt1 0.788086 0.291504
vt1 0.786621 0.237793
vt1 0.789551 0.291504
vt1 0.786621 0.130371
vt1 0.788574 0.082031
vt1 0.786133 0.185547
vt1 0.788086 0.237793
vt1 0.788574 0.130371
vt1 0.826660 0.083008
vt1 0.787598 0.185547
vt1 0.825195 0.159180
vt1 0.866699 0.083984
vt1 0.866211 0.131348
vt1 0.861816 0.186035
vt1 0.825684 0.237793
vt1 0.865723 0.238281
vt1 0.825684 0.291016
vt1 0.862793 0.290527
vt1 0.336182 0.838745
vt1 0.336426 0.878723
vt1 0.334961 0.878784
vt1 0.335205 0.838501
vt1 0.334229 0.878784
vt1 0.335938 0.798584
vt1 0.334229 0.838135
vt1 0.287109 0.878662
vt1 0.335205 0.798706
vt1 0.335449 0.797729
vt1 0.286621 0.837891
vt1 0.231934 0.878357
vt1 0.334229 0.798340
vt1 0.334229 0.797363
vt1 0.334229 0.796509
vt1 0.248169 0.798096
vt1 0.287109 0.797119
vt1 0.179565 0.837769
vt1 0.179199 0.878479
vt1 0.129150 0.878784
vt1 0.287109 0.796021
vt1 0.126709 0.837280
vt1 0.128174 0.878784
vt1 0.124451 0.838867
vt1 0.126953 0.878784
vt1 0.124451 0.797974
vt1 0.126221 0.798096
vt1 0.125366 0.796875
vt1 0.179810 0.796753
vt1 0.127075 0.795532
vt1 0.125610 0.794678
vt1 0.232056 0.796753
vt1 0.179810 0.795776
vt1 0.179321 0.794922
vt1 0.179810 0.775635
vt1 0.126587 0.775757
vt1 0.127197 0.747803
vt1 0.287354 0.776611
vt1 0.216797 0.747803
vt1 0.224243 0.720215
vt1 0.127441 0.719971
vt1 0.287354 0.720947
vt1 0.334473 0.776123
vt1 0.335693 0.797241
vt1 0.335938 0.722168
vt1 0.334717 0.722168
vt1 0.337158 0.698486
vt1 0.335449 0.698242
vt1 0.337891 0.696777
vt1 0.335205 0.697754
vt1 0.288086 0.699707
vt1 0.232788 0.700195
vt1 0.288086 0.698242
vt1 0.288086 0.697266
vt1 0.335205 0.696289
vt1 0.232788 0.699219
vt1 0.287598 0.657227
vt1 0.334717 0.656250
vt1 0.334229 0.617188
vt1 0.287109 0.617676
vt1 0.232544 0.621826
vt1 0.232788 0.698242
vt1 0.232666 0.657715
vt1 0.180542 0.657471
vt1 0.180664 0.617676
vt1 0.128174 0.620117
vt1 0.127930 0.656738
vt1 0.127441 0.696533
vt1 0.180420 0.697266
vt1 0.180542 0.698242
vt1 0.127441 0.697998
vt1 0.180542 0.699707
vt1 0.127441 0.699463
vt1 0.292236 0.081055
vt1 0.291748 0.124023
vt1 0.290527 0.081055
vt1 0.290771 0.124023
vt1 0.291504 0.166992
vt1 0.289795 0.081055
vt1 0.290771 0.168457
vt1 0.289795 0.167969
vt1 0.291016 0.166504
vt1 0.289795 0.124023
vt1 0.242065 0.123535
vt1 0.242798 0.080566
vt1 0.187622 0.080078
vt1 0.289795 0.166504
vt1 0.135254 0.124023
vt1 0.134888 0.080566
vt1 0.135620 0.166504
vt1 0.085205 0.123535
vt1 0.085022 0.080566
vt1 0.084106 0.080566
vt1 0.083069 0.123535
vt1 0.082886 0.080566
vt1 0.079956 0.166992
vt1 0.081848 0.166504
vt1 0.083191 0.166504
vt1 0.135132 0.167480
vt1 0.083252 0.166992
vt1 0.083313 0.167969
vt1 0.081726 0.166992
vt1 0.135620 0.168457
vt1 0.083252 0.188965
vt1 0.081177 0.230469
vt1 0.242798 0.167969
vt1 0.242798 0.168945
vt1 0.289795 0.169434
vt1 0.135620 0.187500
vt1 0.242798 0.188477
vt1 0.289795 0.187988
vt1 0.289551 0.244141
vt1 0.187378 0.243652
vt1 0.135132 0.243164
vt1 0.082642 0.242188
vt1 0.081482 0.265625
vt1 0.082703 0.265137
vt1 0.134766 0.263672
vt1 0.082520 0.266113
vt1 0.187012 0.263672
vt1 0.134888 0.265137
vt1 0.242188 0.263184
vt1 0.289551 0.264648
vt1 0.187012 0.265137
vt1 0.242188 0.265137
vt1 0.289551 0.265625
vt1 0.289307 0.267090
vt1 0.242065 0.266113
vt1 0.187012 0.266113
vt1 0.242554 0.305176
vt1 0.289307 0.305176
vt1 0.279297 0.348145
vt1 0.134888 0.266113
vt1 0.082214 0.267090
vt1 0.187500 0.306641
vt1 0.188354 0.348633
vt1 0.135864 0.347656
vt1 0.135376 0.307129
vt1 0.082581 0.307617
vt1 0.083069 0.346680
vt1 0.918457 0.456055
vt1 0.918945 0.479980
vt1 0.917969 0.479980
vt1 0.918945 0.380371
vt1 0.917969 0.426758
vt1 0.917969 0.380859
vt1 0.877930 0.380371
vt1 0.879395 0.441895
vt1 0.877930 0.480469
vt1 0.837891 0.480957
vt1 0.794922 0.478516
vt1 0.841797 0.420898
vt1 0.837891 0.380371
vt1 0.794922 0.380371
vt1 0.794922 0.456055
vt1 0.751953 0.477051
vt1 0.795410 0.418945
vt1 0.751953 0.382324
vt1 0.752441 0.419434
vt1 0.750488 0.382812
vt1 0.750488 0.400879
vt1 0.750488 0.456543
vt1 0.750000 0.477051
vt1 0.554199 0.124023
vt1 0.552246 0.080566
vt1 0.554688 0.080566
vt1 0.551758 0.124023
vt1 0.501953 0.080566
vt1 0.553711 0.166504
vt1 0.556641 0.167480
vt1 0.501465 0.123535
vt1 0.449219 0.080078
vt1 0.394043 0.080566
vt1 0.501465 0.166504
vt1 0.554199 0.168945
vt1 0.557617 0.169922
vt1 0.500977 0.168945
vt1 0.396240 0.166504
vt1 0.394043 0.124023
vt1 0.346680 0.124512
vt1 0.346436 0.081055
vt1 0.346924 0.166992
vt1 0.343994 0.124512
vt1 0.343994 0.081055
vt1 0.344238 0.167969
vt1 0.394287 0.168945
vt1 0.346680 0.169434
vt1 0.346436 0.171387
vt1 0.343262 0.170898
vt1 0.394287 0.170898
vt1 0.342773 0.217773
vt1 0.500977 0.170898
vt1 0.394043 0.217773
vt1 0.554199 0.170898
vt1 0.500977 0.218262
vt1 0.557617 0.226074
vt1 0.346191 0.217773
vt1 0.554199 0.218262
vt1 0.345459 0.245605
vt1 0.343262 0.265625
vt1 0.344727 0.263184
vt1 0.394287 0.245117
vt1 0.394043 0.262695
vt1 0.344971 0.264648
vt1 0.500977 0.245605
vt1 0.448975 0.263672
vt1 0.394043 0.264648
vt1 0.344971 0.265137
vt1 0.554199 0.246094
vt1 0.394043 0.266602
vt1 0.346191 0.303711
vt1 0.555176 0.263672
vt1 0.557129 0.269531
vt1 0.500977 0.264160
vt1 0.553711 0.265137
vt1 0.448975 0.265137
vt1 0.500977 0.265137
vt1 0.449219 0.266602
vt1 0.500977 0.266602
vt1 0.553711 0.266113
vt1 0.554199 0.305176
vt1 0.437744 0.303711
vt1 0.356689 0.346680
vt1 0.448242 0.347168
vt1 0.500977 0.344727
vt1 0.500488 0.307617
vt1 0.553711 0.344238
vt1 0.503906 0.491211
vt1 0.471680 0.436035
vt1 0.514648 0.436035
vt1 0.427979 0.436523
vt1 0.554688 0.436035
vt1 0.427979 0.492676
vt1 0.553223 0.505859
vt1 0.428223 0.535645
vt1 0.471924 0.536133
vt1 0.514648 0.536865
vt1 0.554688 0.535889
vt1 0.592285 0.436523
vt1 0.592773 0.534912
vt1 0.592285 0.495605
vt1 0.594727 0.436523
vt1 0.595215 0.534912
vt1 0.594727 0.512695
vn -0.968504 -0.000000 -0.236220
vn -0.968504 -0.000000 -0.236220
vn -0.968504 -0.000000 -0.236220
vn -0.968504 -0.000000 -0.236220
vn 1.000000 -0.039370 0.062992
vn 0.992126 0.125984 0.031496
vn 1.000000 -0.031496 0.062992
vn 0.984252 0.181102 0.023622
vn 0.944882 0.330709 -0.039370
vn 0.944882 0.330709 -0.039370
vn 0.976378 0.196850 -0.031496
vn 0.984252 0.157480 -0.023622
vn 0.976378 -0.125984 0.157480
vn 0.960630 -0.173228 0.212598
vn 0.921260 -0.267716 0.291339
vn 0.000000 1.000000 -0.000000
vn 0.000000 1.000000 -0.000000
vn 0.000000 1.000000 -0.000000
vn -0.007874 1.000000 -0.000000
vn -0.007874 1.000000 0.015748
vn -0.007874 1.000000 0.015748
vn -0.015748 1.000000 0.023622
vn -0.007874 1.000000 0.023622
vn -0.007874 1.000000 0.023622
vn -0.007874 1.000000 0.023622
vn -0.007874 1.000000 -0.000000
vn -0.007874 1.000000 -0.000000
vn 0.047244 1.000000 -0.015748
vn 0.047244 1.000000 -0.015748
vn 0.165354 0.984252 0.031496
vn 0.149606 0.992126 0.023622
vn 0.220472 0.976378 0.070866
vn 0.220472 0.976378 0.070866
vn -0.062992 1.000000 -0.039370
vn -0.133858 0.984252 -0.094488
vn -0.125984 0.984252 -0.094488
vn -0.070866 1.000000 -0.039370
vn 0.000000 1.000000 0.015748
vn 0.000000 1.000000 0.015748
vn 0.000000 1.000000 -0.023622
vn 0.000000 1.000000 -0.023622
vn -0.330709 0.937008 -0.110236
vn -0.157480 0.984252 -0.047244
vn -0.346457 0.929134 -0.133858
vn -0.377953 0.889764 -0.244095
vn -0.377953 0.889764 -0.244095
vn -0.992126 0.078740 0.102362
vn -0.968504 0.181102 0.188976
vn -0.992126 0.078740 0.102362
vn -0.937008 0.251969 0.244094
vn -0.842520 0.377953 0.385827
vn -0.826772 0.385827 0.401575
vn -0.653543 0.259843 0.708661
vn -0.669291 0.275591 0.685039
vn -0.527559 0.157480 0.834646
vn -0.535433 0.165354 0.826772
vn -0.905512 0.181102 -0.385827
vn -0.960630 -0.070866 -0.275591
vn -0.960630 -0.070866 -0.275591
vn -0.889764 0.228346 -0.409449
vn -0.724409 0.464567 -0.511811
vn -0.653543 0.464567 -0.598425
vn -0.645669 0.385827 -0.661417
vn -0.779528 0.377953 -0.503937
vn -0.716535 0.314961 -0.622047
vn -0.716535 0.314961 -0.629921
vn 0.007874 -0.842520 -0.535433
vn 0.015748 -0.842520 -0.535433
vn 0.007874 -0.842520 -0.535433
vn 0.015748 -0.842520 -0.535433
vn 0.023622 -0.771653 -0.629921
vn 0.023622 -0.771653 -0.629921
vn 0.023622 -0.661417 -0.748031
vn 0.023622 -0.677165 -0.740157
vn 0.015748 -1.000000 -0.039370
vn 0.000000 -1.000000 -0.055118
vn 0.015748 -1.000000 -0.039370
vn -0.007874 -1.000000 -0.062992
vn -0.047244 -1.000000 -0.047244
vn -0.047244 -1.000000 -0.047244
vn -0.062992 -1.000000 -0.007874
vn -0.055118 -1.000000 0.000000
vn -0.023622 -1.000000 0.007874
vn -0.023622 -1.000000 0.007874
vn 0.000000 -1.000000 0.000000
vn 0.000000 -1.000000 0.000000
vn 0.000000 -1.000000 0.000000
vn 0.000000 -1.000000 -0.007874
vn 0.244094 -0.787401 0.559055
vn 0.330709 -0.559055 0.755905
vn 0.401575 0.000000 0.913386
vn 0.984252 0.110236 -0.118110
vn 0.992126 0.078740 -0.102362
vn 0.992126 0.078740 -0.102362
vn 0.984252 0.110236 -0.125984
vn 0.992126 0.086614 0.062992
vn 0.952756 0.015748 0.299213
vn 0.866142 0.181102 -0.456693
vn 0.740157 0.212598 -0.637795
vn 0.401575 0.244094 -0.881890
vn 0.401575 0.244094 -0.881890
vn 1.000000 0.031496 0.055118
vn 0.992126 0.086614 0.094488
vn 1.000000 0.031496 0.055118
vn 0.992126 0.078740 0.086614
vn 0.984252 0.141732 0.110236
vn 0.984252 0.149606 0.070866
vn 0.992126 0.094488 -0.055118
vn 0.992126 0.094488 -0.047244
vn 0.984252 0.039370 -0.157480
vn 0.984252 0.015748 -0.181102
vn 0.984252 0.007874 -0.188976
vn 0.984252 0.007874 -0.188976
vn 0.992126 0.007874 -0.141732
vn 0.992126 0.007874 -0.141732
vn 0.992126 -0.000000 -0.125984
vn 0.992126 -0.000000 -0.125984
vn 0.992126 -0.015748 -0.149606
vn 0.992126 -0.015748 -0.149606
vn -1.000000 -0.070866 0.007874
vn -0.992126 -0.094488 0.000000
vn -0.984252 -0.157480 -0.007874
vn -1.000000 0.007874 -0.007874
vn -1.000000 0.039370 -0.000000
vn -1.000000 -0.015748 0.023622
vn -1.000000 -0.047244 -0.007874
vn -1.000000 -0.031496 0.000000
vn -1.000000 -0.007874 -0.007874
vn -1.000000 0.000000 0.000000
vn -1.000000 -0.007874 0.000000
vn -1.000000 0.007874 -0.015748
vn -0.984252 0.000000 0.188976
vn -0.992126 0.000000 0.133858
vn -0.976378 -0.125984 0.196850
vn -0.960630 0.000000 0.275591
vn -0.921260 -0.055118 0.385827
vn 0.133858 0.000000 0.992126
vn 0.267717 0.007874 0.960630
vn 0.118110 0.000000 0.992126
vn 0.267717 0.000000 0.960630
vn 0.417323 0.007874 0.905512
vn 0.425197 0.023622 0.905512
vn 0.417323 0.000000 0.913386
vn -0.259843 -0.007874 -0.968504
vn -0.110236 -0.000000 -0.992126
vn -0.102362 -0.000000 -0.992126
vn -0.267717 -0.000000 -0.960630
vn -0.755906 -0.000000 -0.653543
vn -0.669291 -0.023622 -0.740157
vn -0.984252 -0.007874 -0.165354
vn -0.992126 -0.000000 -0.149606
vn -0.984252 -0.039370 -0.173228
vn -1.000000 0.000000 0.000000
vn -1.000000 -0.015748 -0.015748
vn -1.000000 -0.007874 0.007874
vn -1.000000 0.015748 0.015748
vn -1.000000 -0.023622 0.007874
vn -1.000000 -0.000000 -0.007874
vn -1.000000 -0.031496 0.000000
vn -1.000000 0.023622 -0.000000
vn -1.000000 0.047244 0.015748
vn -1.000000 0.031496 -0.039370
vn -1.000000 0.047244 -0.015748
vn 0.031496 -0.692913 0.716535
vn 0.000000 -0.692913 0.724409
vn 0.000000 -0.692913 0.724409
vn 0.031496 -0.692913 0.716535
vn -0.007874 -0.692913 0.724409
vn -0.007874 -0.692913 0.724409
vn -0.007874 -0.692913 0.716535
vn -0.007874 -0.692913 0.716535
vn 0.055118 -0.692913 0.716535
vn 0.055118 -0.692913 0.716535
vn -0.496063 -0.874016 0.007874
vn -0.433071 -0.905512 0.007874
vn -0.251969 -0.968504 0.007874
vn -0.204724 -0.976378 0.007874
vn 0.000000 -1.000000 0.007874
vn -0.338583 -0.937008 0.055118
vn 0.000000 -1.000000 0.007874
vn 0.000000 -1.000000 0.000000
vn -0.125984 -0.976378 0.173228
vn -0.291339 -0.614173 0.732283
vn -0.748031 -0.055118 0.653543
vn 0.000000 -0.984252 0.181102
vn 0.000000 -1.000000 0.015748
vn 0.000000 -1.000000 0.007874
vn 0.244094 -0.968504 0.000000
vn 0.417323 -0.905512 -0.007874
vn 0.488189 -0.874016 -0.015748
vn 0.212598 -0.976378 0.007874
vn 0.314961 -0.944882 0.062992
vn 0.125984 -0.976378 0.181102
vn 0.000000 -0.984252 0.196850
vn 0.251969 -0.629921 0.732283
vn 0.590551 -0.440945 0.677165
vn 0.181102 -0.188976 0.960630
vn 0.000000 -0.692913 0.724409
vn 0.007874 -0.141732 0.992126
vn 0.015748 0.007874 1.000000
vn 0.000000 -0.692913 0.724409
vn -0.015748 -0.165354 0.984252
vn -0.401575 -0.133858 0.905512
vn -0.015748 -0.007874 1.000000
vn -0.425197 -0.007874 0.905512
vn -0.700787 -0.007874 0.716535
vn 0.023622 -0.007874 1.000000
vn -0.401575 0.007874 0.913386
vn -0.362205 -0.062992 0.929134
vn -0.007874 0.031496 1.000000
vn 0.000000 -0.015748 1.000000
vn 0.000000 -0.086614 1.000000
vn -0.031496 -0.795275 0.606299
vn 0.000000 0.055118 1.000000
vn 0.015748 0.015748 1.000000
vn -0.015748 -0.094488 0.992126
vn 0.000000 -0.031496 1.000000
vn -0.015748 -0.062992 1.000000
vn -0.039370 -0.881890 0.472441
vn -0.023622 -0.881890 0.472441
vn -0.007874 -0.858268 -0.511811
vn -0.015748 -0.897638 0.440945
vn -0.031496 -0.858268 -0.511811
vn -0.007874 -0.889764 0.456693
vn -0.007874 -0.850394 -0.527559
vn -0.015748 -0.842520 -0.543307
vn -0.007874 -0.692913 -0.716535
vn 0.000000 -0.834646 -0.543307
vn -0.007874 -0.692913 -0.716535
vn 0.000000 -0.645669 -0.763779
vn -0.015748 -0.637795 -0.771653
vn 0.000000 -0.637795 -0.771653
vn 0.000000 -0.692913 -0.724409
vn 0.000000 -0.637795 -0.771653
vn -0.015748 -0.692913 -0.724409
vn -0.023622 -0.637795 -0.771653
vn 0.992126 -0.133858 0.007874
vn 0.984252 -0.165354 0.007874
vn 0.858268 0.519685 -0.007874
vn 0.826772 0.566929 -0.007874
vn 0.165354 0.984252 -0.023622
vn 0.984252 -0.039370 -0.188976
vn 0.094488 0.992126 -0.015748
vn 0.007874 1.000000 -0.031496
vn 0.779528 0.614173 -0.141732
vn 0.811024 0.204724 -0.551181
vn 0.007874 1.000000 -0.023622
vn 0.000000 1.000000 -0.039370
vn 0.023622 0.992126 -0.102362
vn 0.322835 0.606299 -0.724409
vn 0.433071 0.078740 -0.897638
vn 0.000000 0.992126 -0.118110
vn 0.000000 0.700787 -0.716535
vn -0.007874 1.000000 -0.023622
vn -0.007874 1.000000 -0.031496
vn -0.236220 0.968504 -0.007874
vn 0.000000 0.102362 -0.992126
vn -0.141732 0.992126 -0.007874
vn -0.496063 0.874016 0.015748
vn -0.488189 0.874016 0.015748
vn -0.527559 0.850394 0.023622
vn -0.307087 0.952756 -0.039370
vn -0.023622 0.992126 -0.086614
vn 0.125984 0.874016 -0.472441
vn 0.000000 0.992126 -0.118110
vn 0.173228 0.354331 -0.921260
vn 0.488189 0.755905 -0.433071
vn 0.007874 0.700787 -0.716535
vn 0.000000 0.692913 -0.716535
vn 0.000000 0.086614 -1.000000
vn 0.000000 -0.000000 -1.000000
vn -0.015748 -0.007874 -1.000000
vn -0.023622 0.007874 -1.000000
vn 0.007874 0.007874 -1.000000
vn 0.000000 0.015748 -1.000000
vn 0.007874 -0.031496 -1.000000
vn -0.015748 -0.000000 -1.000000
vn 0.007874 -0.007874 -1.000000
vn 0.448819 -0.000000 -0.889764
vn 0.803150 0.023622 -0.598425
vn 0.826772 0.007874 -0.566929
vn 0.464567 0.007874 -0.881890
vn 0.496063 0.748031 -0.448819
vn 0.125984 0.834646 -0.535433
vn -0.165354 0.984252 -0.078740
vn -0.023622 1.000000 0.086614
vn 0.015748 0.472441 -0.881890
vn 0.007874 0.385827 -0.921260
vn 0.023622 0.984252 -0.181102
vn 0.015748 0.889764 0.448819
vn 0.031496 0.811024 0.590551
vn 0.007874 0.905512 -0.425197
vn 0.015748 0.700787 0.708661
vn 0.015748 0.700787 0.708661
vn 0.007874 0.653543 0.755905
vn 0.015748 0.653543 0.755905
vn 0.000000 0.645669 0.763779
vn 0.007874 0.960630 0.267716
vn 0.000000 0.700787 0.708661
vn -0.007874 0.700787 0.716535
vn 0.000000 0.645669 0.763779
vn 0.015748 0.637795 0.771653
vn 0.000000 0.700787 0.716535
vn -0.015748 0.897638 0.440945
vn -0.007874 0.937008 0.362205
vn 0.000000 0.913386 -0.417323
vn -0.015748 0.913386 -0.401575
vn 0.000000 0.314960 -0.944882
vn -0.007874 0.267716 -0.960630
vn 0.984252 -0.165354 -0.007874
vn 0.992126 -0.125984 -0.007874
vn 0.850394 0.527559 0.007874
vn 0.811024 0.590551 0.015748
vn 0.897638 0.000000 0.440945
vn 0.157480 0.984252 0.023622
vn 0.204724 0.118110 0.968504
vn 0.275591 0.622047 0.732283
vn 0.724409 0.590551 0.354331
vn 0.102362 0.992126 0.023622
vn 0.007874 1.000000 0.023622
vn 0.007874 1.000000 0.031496
vn 0.000000 1.000000 0.031496
vn 0.023622 0.992126 0.118110
vn -0.007874 1.000000 0.023622
vn -0.007874 1.000000 0.031496
vn 0.000000 0.992126 0.110236
vn -0.149606 0.992126 0.015748
vn -0.259843 0.968504 0.031496
vn -0.464567 0.881890 0.015748
vn -0.330709 0.944882 -0.000000
vn -0.433071 0.897638 0.015748
vn -0.181102 0.984252 -0.015748
vn -0.314961 0.913386 0.251968
vn -0.023622 0.992126 0.102362
vn 0.000000 0.700787 0.716535
vn -0.244094 0.629921 0.740157
vn -0.362205 0.070866 0.929134
vn -0.700787 0.007874 0.716535
vn 0.000000 0.094488 0.992126
vn -0.346457 0.000000 0.937008
vn -0.661417 0.000000 0.748031
vn 0.007874 0.700787 0.708661
vn 0.000000 0.094488 0.992126
vn 0.204724 0.118110 0.968504
vn 0.000000 0.000000 1.000000
vn 0.000000 0.000000 1.000000
vn 0.000000 0.000000 1.000000
vn 0.000000 0.007874 1.000000
vn 0.000000 0.000000 1.000000
vn 0.000000 0.000000 1.000000
vn -0.385827 0.000000 0.921260
vn -0.755906 -0.015748 0.653543
vn -0.322835 0.322835 0.889764
vn -0.015748 0.425197 0.905512
vn -0.047244 1.000000 -0.000000
vn -0.007874 0.409449 0.913386
vn -0.031496 0.984252 0.173228
vn 0.000000 0.464567 0.889764
vn 0.015748 0.661417 0.748031
vn -0.015748 0.952756 0.307086
vn 0.000000 0.992126 0.125984
vn 0.023622 0.976378 -0.212599
vn 0.007874 0.787401 -0.614173
vn -0.007874 0.850394 -0.527559
vn -0.015748 0.905512 -0.425197
vn -0.015748 0.716535 -0.692913
vn -0.007874 0.716535 -0.700787
vn -0.023622 0.716535 -0.700787
vn -0.015748 0.850394 -0.527559
vn -0.015748 0.779527 -0.629921
vn -0.007874 0.716535 -0.692913
vn -0.007874 0.716535 -0.692913
vn 0.015748 0.692913 -0.724409
vn 0.007874 0.708661 -0.708661
vn 0.007874 0.692913 -0.724409
vn 0.023622 0.669291 -0.740157
vn 0.952756 -0.000000 -0.307087
vn 0.968504 0.007874 -0.244094
vn 0.992126 -0.000000 -0.141732
vn 0.905512 -0.000000 -0.417323
vn 0.984252 -0.000000 -0.188976
vn 0.984252 -0.000000 -0.188976
vn 1.000000 -0.015748 0.015748
vn 1.000000 0.015748 0.015748
vn 1.000000 0.000000 0.000000
vn 1.000000 0.000000 0.000000
vn 1.000000 0.000000 0.000000
vn 1.000000 0.007874 0.015748
vn 1.000000 -0.047244 0.007874
vn 1.000000 -0.055118 -0.015748
vn 1.000000 0.023622 -0.007874
vn 0.952756 0.007874 0.299213
vn 1.000000 0.007874 -0.015748
vn 0.944882 -0.023622 0.338583
vn 0.929134 0.000000 0.370079
vn 0.708661 0.000000 0.700787
vn 0.708661 0.000000 0.708661
vn 0.755906 0.007874 0.661417
vn 0.811024 0.015748 0.590551
vn 0.401575 -0.913386 0.000000
vn 0.251969 -0.968504 -0.015748
vn 0.480315 -0.881890 -0.015748
vn 0.204724 -0.976378 -0.007874
vn 0.000000 -1.000000 -0.007874
vn 0.133858 -0.976378 -0.165354
vn 0.480315 -0.748031 -0.448819
vn 0.000000 -1.000000 -0.007874
vn 0.000000 -1.000000 0.000000
vn 0.000000 -1.000000 -0.007874
vn 0.000000 -0.984252 -0.188976
vn 0.251969 -0.622047 -0.740157
vn 0.677165 -0.015748 -0.732283
vn 0.000000 -0.692913 -0.724409
vn -0.007874 -0.984252 -0.181102
vn -0.007874 -1.000000 -0.007874
vn -0.212598 -0.976378 -0.015748
vn -0.251969 -0.968504 -0.007874
vn -0.141732 -0.968504 -0.181102
vn -0.409449 -0.913386 -0.015748
vn -0.480315 -0.874016 -0.007874
vn -0.496063 -0.740157 -0.448819
vn -0.007874 -0.692913 -0.724409
vn -0.275591 -0.614173 -0.740157
vn -0.370079 -0.133858 -0.921260
vn -0.685039 -0.110236 -0.724409
vn 0.000000 -0.165354 -0.984252
vn -0.685039 -0.000000 -0.724409
vn 0.000000 -0.149606 -0.992126
vn 0.000000 -0.000000 -1.000000
vn 0.354331 -0.125984 -0.929134
vn 0.000000 -0.000000 -1.000000
vn 0.677165 0.007874 -0.732283
vn -0.370079 0.007874 -0.929134
vn 0.362205 -0.000000 -0.929134
vn -0.385827 0.007874 -0.921260
vn -0.700787 -0.039370 -0.708661
vn -0.401575 -0.086614 -0.913386
vn 0.000000 0.031496 -1.000000
vn 0.000000 -0.110236 -0.992126
vn -0.007874 -0.818898 -0.574803
vn 0.000000 0.023622 -1.000000
vn 0.000000 -0.086614 -1.000000
vn 0.007874 -0.913386 -0.409449
vn 0.000000 -0.826771 0.559055
vn 0.393701 0.015748 -0.921260
vn 0.007874 -0.811023 0.590551
vn 0.007874 -0.708661 0.708661
vn 0.488189 -0.023622 -0.874016
vn 0.795276 0.007874 -0.606299
vn 0.000000 -0.094488 -0.992126
vn -0.015748 -0.834646 -0.551181
vn 0.015748 -0.913386 -0.409449
vn -0.007874 -0.889764 -0.456693
vn 0.015748 -0.803149 0.598425
vn 0.000000 -0.834646 0.559055
vn -0.007874 -0.834646 0.551181
vn -0.015748 -0.685039 0.724409
vn 0.015748 -0.708661 0.700787
vn 0.015748 -0.708661 0.708661
vn 0.007874 -0.716535 0.700787
vn -0.023622 -0.685039 0.724409
vn -0.007874 -0.700787 0.716535
vn -0.031496 -0.669291 0.748031
vn 1.000000 -0.023622 -0.007874
vn 1.000000 -0.047244 0.015748
vn 1.000000 -0.047244 -0.015748
vn 1.000000 -0.031496 0.031496
vn 1.000000 -0.015748 -0.007874
vn 1.000000 -0.007874 0.007874
vn 1.000000 0.000000 0.000000
vn 1.000000 0.031496 -0.000000
vn 1.000000 0.023622 -0.007874
vn 1.000000 0.007874 -0.007874
vn 1.000000 0.015748 0.015748
vn 0.984252 0.000000 0.165354
vn 0.984252 0.039370 0.181102
vn 0.984252 0.007874 0.173228
vn 0.944882 0.007874 0.314961
vn 0.944882 0.047244 0.330709
vn 0.944882 0.015748 0.322835
tan 0.000000 -0.968504 0.000000 1.000000
tan 0.000000 -0.968504 0.000000 1.000000
tan 0.000000 -0.968504 0.000000 1.000000
tan 0.000000 -0.968504 0.000000 1.000000
tan -0.063302 -0.007874 1.000000 1.000000
tan -0.030504 -0.007812 0.992126 1.000000
tan -0.063240 -0.007874 1.000000 1.000000
tan -0.023622 -0.000186 0.985678 1.000000
tan 0.044578 -0.013330 0.957902 1.000000
tan 0.044578 -0.013330 0.957902 1.000000
tan 0.031496 0.000248 0.977928 1.000000
tan 0.023622 0.000186 0.985492 1.000000
tan -0.156488 0.007688 0.976378 1.000000
tan -0.211234 0.007564 0.960630 1.000000
tan -0.295555 -0.012214 0.923368 1.000000
tan -0.858268 0.000000 0.511811 1.000000
tan -0.937008 0.000000 0.362205 1.000000
tan -0.944882 0.000000 0.322835 1.000000
tan -0.795276 -0.006262 0.606299 1.000000
tan -0.637795 -0.017174 0.771653 1.000000
tan -0.637795 -0.017174 0.771653 1.000000
tan -0.401575 -0.027900 0.913386 1.000000
tan -0.291339 -0.024800 0.952756 1.000000
tan -0.023622 -0.023808 1.000000 1.000000
tan -0.015748 -0.023746 1.000000 1.000000
tan 0.000000 0.000000 1.000000 1.000000
tan 0.000000 0.000000 1.000000 1.000000
tan 0.000000 0.015748 1.000000 1.000000
tan 0.000000 0.015748 1.000000 1.000000
tan -0.000248 -0.031496 0.985554 1.000000
tan 0.000000 -0.023622 0.992126 1.000000
tan -0.001116 -0.070866 0.979850 1.000000
tan -0.001116 -0.070866 0.979850 1.000000
tan -0.007874 -0.039866 -1.000000 1.000000
tan -0.015500 -0.096596 -0.984252 1.000000
tan -0.015500 -0.096472 -0.984252 1.000000
tan -0.007874 -0.039928 -1.000000 1.000000
tan 0.000000 0.015748 -1.000000 1.000000
tan 0.000000 0.015748 -1.000000 1.000000
tan 0.000000 -0.023622 -1.000000 1.000000
tan 0.000000 -0.023622 -1.000000 1.000000
tan 0.022134 -0.102424 -0.937008 1.000000
tan 0.000372 -0.047244 -0.985492 1.000000
tan 0.037634 -0.120218 -0.931862 1.000000
tan 0.053010 -0.230269 -0.921446 1.000000
tan 0.053010 -0.230269 -0.921446 1.000000
tan 0.008804 -0.742141 0.656209 1.000000
tan 0.004092 -0.689317 0.681567 1.000000
tan 0.008804 -0.742141 0.656209 1.000000
tan -0.007502 -0.675553 0.668547 1.000000
tan 0.044516 -0.619381 0.703949 1.000000
tan 0.047988 -0.622171 0.696571 1.000000
tan 0.448261 -0.618761 0.640275 1.000000
tan 0.435303 -0.598797 0.666191 1.000000
tan 0.655093 -0.535123 0.515035 1.000000
tan 0.548143 -0.659495 0.486887 1.000000
tan 0.192572 -0.589559 -0.728687 1.000000
tan 0.257859 -0.612685 -0.741273 1.000000
tan 0.257859 -0.612685 -0.741273 1.000000
tan 0.183954 -0.587823 -0.727571 1.000000
tan 0.036332 -0.695455 -0.682683 1.000000
tan 0.119784 -0.713993 -0.685101 1.000000
tan 0.229586 -0.722549 -0.645607 1.000000
tan 0.086304 -0.695951 -0.655465 1.000000
tan 0.382789 -0.525823 -0.707173 1.000000
tan 0.265361 -0.699051 -0.651373 1.000000
tan 0.944262 -0.038812 0.074958 1.000000
tan 0.950896 -0.026908 0.070308 1.000000
tan 0.944262 -0.038812 0.074958 1.000000
tan 0.950896 -0.022692 0.063674 1.000000
tan 0.976998 0.020646 0.011346 1.000000
tan 0.976998 0.020646 0.011346 1.000000
tan 0.955856 0.122698 -0.078306 1.000000
tan 0.980346 0.100068 -0.060264 1.000000
tan -0.960630 -0.026288 0.283465 1.000000
tan -0.881890 -0.026474 0.480315 1.000000
tan -0.968504 -0.024862 0.244094 1.000000
tan -0.803150 -0.031372 0.598425 1.000000
tan -0.606299 -0.008928 0.795275 1.000000
tan -0.606299 -0.008928 0.795275 1.000000
tan -0.385827 0.017050 0.921260 1.000000
tan -0.267717 0.014756 0.960630 1.000000
tan 0.023622 0.007316 1.000000 1.000000
tan 0.031496 0.007130 1.000000 1.000000
tan 0.039370 0.000000 1.000000 1.000000
tan 0.039370 0.000000 1.000000 1.000000
tan -0.031496 0.000000 1.000000 1.000000
tan -0.031496 -0.007874 1.000000 1.000000
tan 0.025978 0.577717 0.802343 1.000000
tan -0.110484 0.759625 0.610143 1.000000
tan -0.517825 0.776427 0.227664 1.000000
tan -0.001054 -0.713931 -0.675119 1.000000
tan -0.008184 -0.749954 -0.656209 1.000000
tan -0.008184 -0.749954 -0.656209 1.000000
tan -0.007440 -0.713993 -0.682869 1.000000
tan 0.105090 -0.664021 -0.742141 1.000000
tan 0.247505 -0.582367 -0.757455 1.000000
tan -0.334367 -0.415401 -0.798871 1.000000
tan -0.500527 -0.439023 -0.727199 1.000000
tan -0.528179 -0.716535 -0.438837 1.000000
tan -0.528179 -0.716535 -0.438837 1.000000
tan -0.009734 -0.779527 0.622047 1.000000
tan 0.000124 -0.734329 0.671833 1.000000
tan -0.009734 -0.779527 0.622047 1.000000
tan -0.002294 -0.718705 0.679645 1.000000
tan -0.122512 0.084382 0.985368 1.000000
tan -0.119412 0.348751 0.922252 1.000000
tan 0.007812 0.437473 0.890570 1.000000
tan 0.000744 0.437473 0.890570 1.000000
tan 0.114700 0.511501 0.844752 1.000000
tan 0.109554 0.729927 0.658875 1.000000
tan 0.001054 0.985740 0.046562 1.000000
tan -0.004898 0.985740 0.015562 1.000000
tan -0.007874 0.992126 -0.000000 1.000000
tan -0.007874 0.992126 -0.000000 1.000000
tan 0.000000 0.992126 -0.000000 1.000000
tan 0.000000 0.992126 -0.000000 1.000000
tan 0.015748 0.992126 -0.000000 1.000000
tan 0.015748 0.992126 -0.000000 1.000000
tan 0.070990 -1.000000 0.015748 1.000000
tan 0.094488 -0.992126 0.007812 1.000000
tan 0.157356 -0.984252 0.015500 1.000000
tan -0.007874 -1.000000 0.000000 1.000000
tan -0.039370 -1.000000 0.000000 1.000000
tan 0.015748 -1.000000 0.000000 1.000000
tan 0.047244 -1.000000 0.000000 1.000000
tan 0.031496 -1.000000 0.000000 1.000000
tan 0.007874 -1.000000 0.000000 1.000000
tan 0.000000 -1.000000 0.000000 1.000000
tan 0.007874 -1.000000 0.000000 1.000000
tan -0.007874 -1.000000 0.000000 1.000000
tan 0.002976 -0.984252 0.015500 1.000000
tan -0.003162 -0.992126 -0.023436 1.000000
tan 0.132184 -0.976378 0.030752 1.000000
tan -0.008680 -0.960630 -0.030256 1.000000
tan 0.070308 -0.924298 0.035836 1.000000
tan 0.000000 -0.992126 0.000000 1.000000
tan 0.000000 -0.960630 0.007874 1.000000
tan 0.000000 -0.992126 0.000000 1.000000
tan 0.000000 -0.966954 0.000000 1.000000
tan 0.000186 -0.915370 0.007874 1.000000
tan -0.004712 -0.941906 0.026784 1.000000
tan 0.000000 -0.945626 0.000000 1.000000
tan 0.015252 -0.968504 0.003782 1.000000
tan 0.023436 -0.992126 -0.002604 1.000000
tan 0.000000 -0.992126 0.000000 1.000000
tan 0.007564 -0.966954 -0.002108 1.000000
tan 0.005146 -0.986794 -0.005952 1.000000
tan 0.045694 -0.993552 -0.009610 1.000000
tan 0.007874 -0.984252 0.000000 1.000000
tan 0.001178 -0.992126 -0.007812 1.000000
tan 0.039370 -0.985616 0.000310 1.000000
tan 0.000000 -1.000000 0.000000 1.000000
tan 0.015748 -1.000000 0.000000 1.000000
tan 0.007874 -1.000000 0.000000 1.000000
tan -0.015872 -1.000000 -0.007874 1.000000
tan 0.023622 -1.000000 0.000000 1.000000
tan 0.000000 -1.000000 0.000000 1.000000
tan 0.031496 -1.000000 0.000000 1.000000
tan -0.023622 -1.000000 0.000000 1.000000
tan -0.047244 -1.000000 0.000000 1.000000
tan -0.031806 -1.000000 0.007874 1.000000
tan -0.047368 -1.000000 0.007874 1.000000
tan -0.994296 0.001736 0.045384 1.000000
tan -1.005642 0.000000 0.000000 1.000000
tan -1.005642 0.000000 0.000000 1.000000
tan -0.994296 0.001736 0.045384 1.000000
tan -1.000186 0.010912 -0.000434 1.000000
tan -1.000186 0.010912 -0.000434 1.000000
tan -0.999752 0.010912 -0.000434 1.000000
tan -0.999752 0.010912 -0.000434 1.000000
tan -0.994296 0.008680 0.084878 1.000000
tan -0.994296 0.008680 0.084878 1.000000
tan -0.000124 -0.007874 -0.881828 1.000000
tan 0.006944 -0.011284 -0.915742 1.000000
tan -0.000124 -0.007874 -0.972472 1.000000
tan -0.000062 -0.007874 -0.977990 1.000000
tan 0.000000 -0.007874 -1.000000 1.000000
tan 0.125426 -0.100006 -0.929630 1.000000
tan 0.000000 -0.007874 -1.000000 1.000000
tan 0.000000 -0.000000 -1.000000 1.000000
tan 0.052452 -0.180172 -0.977370 1.000000
tan 0.028458 -0.764337 -0.629735 1.000000
tan -0.183396 -0.875070 -0.283712 1.000000
tan 0.000000 -0.181102 -0.984252 1.000000
tan 0.000000 -0.015748 -1.000000 1.000000
tan 0.000000 -0.007874 -1.000000 1.000000
tan -0.007626 -0.001922 -0.972348 1.000000
tan -0.015004 0.001240 -0.937814 1.000000
tan -0.016492 0.007812 -0.944820 1.000000
tan -0.007626 -0.009548 -0.978052 1.000000
tan -0.118544 -0.102176 -0.939922 1.000000
tan -0.060078 -0.189038 -0.977370 1.000000
tan 0.000000 -0.196850 -0.984252 1.000000
tan 0.004712 -0.752309 -0.648769 1.000000
tan 0.230392 -0.706615 -0.661045 1.000000
tan 0.102920 -0.955918 -0.207452 1.000000
tan 0.000000 -0.724409 -0.692913 1.000000
tan 0.000000 -0.992126 -0.141732 1.000000
tan 0.007874 -1.000000 0.007750 1.000000
tan 0.000000 -0.724409 -0.692913 1.000000
tan -0.007750 -0.984252 -0.165478 1.000000
tan -0.094302 -0.936326 -0.180234 1.000000
tan -0.015748 -1.000000 -0.008122 1.000000
tan -0.021204 -0.915556 -0.017918 1.000000
tan 0.382665 -0.853928 0.364871 1.000000
tan -0.007874 -1.000000 -0.007688 1.000000
tan -0.022196 -0.945006 -0.001612 1.000000
tan 0.274661 -0.908054 0.045508 1.000000
tan -0.007874 -1.000000 0.031434 1.000000
tan -0.007874 -1.000000 -0.015748 1.000000
tan -0.015748 -1.000000 -0.086614 1.000000
tan -0.009548 -0.606299 -0.795771 1.000000
tan -0.015748 -1.000000 0.055118 1.000000
tan -0.023622 -1.000000 0.016120 1.000000
tan -0.031248 -0.992126 -0.094984 1.000000
tan -0.007874 -1.000000 -0.031496 1.000000
tan -0.031496 -1.000000 -0.063488 1.000000
tan 0.010168 -0.473061 -0.882200 1.000000
tan 0.003224 -0.472627 -0.882076 1.000000
tan 0.010788 0.511749 -0.858330 1.000000
tan 0.000000 -0.440945 -0.897638 1.000000
tan 0.010788 0.511563 -0.858516 1.000000
tan 0.000000 -0.456693 -0.889764 1.000000
tan 0.000000 0.527559 -0.850394 1.000000
tan 0.010912 0.543183 -0.842644 1.000000
tan 0.016740 0.716473 -0.693037 1.000000
tan 0.000000 0.543307 -0.834646 1.000000
tan 0.000000 0.716535 -0.692913 1.000000
tan 0.006014 0.763779 -0.645669 1.000000
tan 0.006076 0.771653 -0.637919 1.000000
tan 0.000000 0.771653 -0.637795 1.000000
tan 0.000000 0.724409 -0.692913 1.000000
tan 0.000000 0.771653 -0.637795 1.000000
tan 0.005704 0.724409 -0.693037 1.000000
tan 0.007130 0.771839 -0.638167 1.000000
tan -0.001550 0.046872 0.992126 1.000000
tan -0.003968 0.023312 0.985554 1.000000
tan -0.012772 0.035526 0.952570 1.000000
tan -0.041664 0.074028 0.955298 1.000000
tan -0.007564 0.024924 0.985554 1.000000
tan 0.192138 0.302251 0.937752 1.000000
tan -0.015624 0.017236 0.992126 1.000000
tan 0.000000 0.031496 1.000000 1.000000
tan -0.249613 0.492157 0.759811 1.000000
tan 0.441193 0.333065 0.772893 1.000000
tan 0.000000 0.023622 1.000000 1.000000
tan 0.000000 0.039370 1.000000 1.000000
tan 0.000000 0.102362 0.992126 1.000000
tan 0.070060 0.742886 0.652985 1.000000
tan 0.175088 0.917106 0.164920 1.000000
tan 0.000000 0.118110 0.992126 1.000000
tan 0.000000 0.716535 0.700787 1.000000
tan 0.000000 0.023622 1.000000 1.000000
tan 0.000000 0.031496 1.000000 1.000000
tan -0.007750 0.006014 0.972224 1.000000
tan 0.007812 0.992126 0.102362 1.000000
tan -0.007812 0.006758 0.992126 1.000000
tan -0.004030 -0.019406 0.950090 1.000000
tan -0.004030 -0.019344 0.948664 1.000000
tan -0.001116 -0.027218 0.954926 1.000000
tan -0.052514 0.022444 0.952756 1.000000
tan -0.070308 0.084940 0.992126 1.000000
tan -0.078864 0.480625 0.868126 1.000000
tan 0.000000 0.118110 0.992126 1.000000
tan 0.049662 0.925352 0.365243 1.000000
tan -0.429289 0.641267 0.635377 1.000000
tan 0.000000 0.716535 0.700787 1.000000
tan 0.000000 0.716535 0.692913 1.000000
tan 0.007874 1.000000 0.086614 1.000000
tan 0.007874 1.000000 -0.000000 1.000000
tan 0.000000 1.000000 -0.007874 1.000000
tan 0.000000 1.000000 0.007874 1.000000
tan 0.007874 1.000000 0.007936 1.000000
tan 0.007874 1.000000 0.015748 1.000000
tan 0.007874 1.000000 -0.031434 1.000000
tan 0.000000 1.000000 -0.000000 1.000000
tan 0.015748 1.000000 -0.007750 1.000000
tan 0.028024 0.903900 0.014136 1.000000
tan 0.071176 0.868994 0.129828 1.000000
tan 0.046128 0.955298 0.080538 1.000000
tan 0.061380 0.933846 0.040672 1.000000
tan -0.646723 0.657511 0.381053 1.000000
tan -0.325253 0.546345 0.775125 1.000000
tan -0.821502 -0.094612 0.542501 1.000000
tan -0.228346 -0.089962 0.976378 1.000000
tan 0.013888 0.881890 0.472689 1.000000
tan 0.000000 0.921260 0.385827 1.000000
tan 0.000000 0.181102 0.984252 1.000000
tan -0.003534 -0.448819 0.889888 1.000000
tan -0.009300 -0.590551 0.811520 1.000000
tan 0.000000 0.425197 0.905512 1.000000
tan -0.005580 -0.708661 0.700911 1.000000
tan -0.005580 -0.708661 0.700911 1.000000
tan -0.005952 -0.755905 0.653605 1.000000
tan -0.005952 -0.755905 0.653667 1.000000
tan 0.000000 -0.763779 0.645669 1.000000
tan 0.000000 -0.267716 0.960630 1.000000
tan 0.000000 -0.708661 0.700787 1.000000
tan 0.000000 -0.716535 0.700787 1.000000
tan 0.000000 -0.763779 0.645669 1.000000
tan 0.005022 -0.771777 0.637795 1.000000
tan 0.000000 -0.716535 0.700787 1.000000
tan 0.000000 -0.440945 0.897638 1.000000
tan 0.000000 -0.362205 0.937008 1.000000
tan 0.000000 0.417323 0.913386 1.000000
tan 0.000000 0.401575 0.913386 1.000000
tan 0.000000 0.944882 0.314960 1.000000
tan -0.007564 0.960630 0.267778 1.000000
tan 0.002666 -0.031062 0.985554 1.000000
tan -0.000062 -0.062496 0.992126 1.000000
tan 0.038068 -0.075454 0.944076 1.000000
tan 0.064542 -0.114142 0.956414 1.000000
tan -0.423585 -0.268336 0.862298 1.000000
tan 0.030814 -0.028582 0.985492 1.000000
tan -0.800732 -0.549073 0.236221 1.000000
tan -0.136958 -0.725835 0.668113 1.000000
tan -0.073470 -0.434993 0.875194 1.000000
tan 0.031248 -0.026846 0.992126 1.000000
tan 0.000000 -0.023622 1.000000 1.000000
tan 0.000000 -0.031496 1.000000 1.000000
tan 0.000000 -0.031496 1.000000 1.000000
tan -0.007812 -0.117924 0.992126 1.000000
tan 0.000000 -0.023622 1.000000 1.000000
tan 0.000000 -0.031496 1.000000 1.000000
tan 0.000000 -0.110236 0.992126 1.000000
tan 0.007812 -0.014570 0.992126 1.000000
tan 0.015996 -0.027404 0.974642 1.000000
tan 0.016120 -0.008308 0.940790 1.000000
tan 0.000000 0.000000 0.957902 1.000000
tan 0.001736 -0.015624 0.938310 1.000000
tan 0.000000 0.015748 0.984252 1.000000
tan -0.239816 -0.328849 0.892306 1.000000
tan -0.031248 -0.103106 0.992126 1.000000
tan 0.000000 -0.716535 0.700787 1.000000
tan 0.032860 -0.755471 0.653791 1.000000
tan 0.171678 -0.934466 0.138198 1.000000
tan 0.248869 -0.937814 0.253705 1.000000
tan 0.007812 -0.992126 0.094488 1.000000
tan -0.029512 -0.939736 -0.010912 1.000000
tan 0.094240 -0.966272 0.083328 1.000000
tan -0.005580 -0.708661 0.700849 1.000000
tan -0.007812 -0.992126 0.094488 1.000000
tan -0.037200 -0.970116 0.126170 1.000000
tan 0.007874 -1.000000 0.000000 1.000000
tan 0.000000 -1.000000 0.000000 1.000000
tan -0.007874 -1.000000 0.000000 1.000000
tan -0.007874 -1.000000 0.007874 1.000000
tan 0.015748 -1.000000 0.000000 1.000000
tan 0.015748 -1.000000 0.000000 1.000000
tan 0.021762 -0.948602 0.009114 1.000000
tan -0.506417 -0.608965 -0.600409 1.000000
tan -0.163618 -0.906256 0.269453 1.000000
tan 0.014260 -0.905512 0.425445 1.000000
tan -0.015748 -0.000744 1.000000 1.000000
tan 0.014384 -0.913386 0.409573 1.000000
tan -0.015500 -0.173724 0.984252 1.000000
tan 0.000000 -0.889764 0.464567 1.000000
tan -0.011780 -0.748031 0.661665 1.000000
tan 0.000000 -0.307086 0.952756 1.000000
tan 0.000000 -0.125984 0.992126 1.000000
tan 0.015376 0.212227 0.976378 1.000000
tan 0.011036 0.614111 0.787463 1.000000
tan 0.000000 0.527559 0.850394 1.000000
tan 0.000000 0.425197 0.905512 1.000000
tan -0.005456 0.692913 0.716659 1.000000
tan 0.000000 0.700787 0.716535 1.000000
tan -0.005518 0.700787 0.716721 1.000000
tan -0.010850 0.527435 0.850518 1.000000
tan -0.016058 0.629797 0.779775 1.000000
tan -0.005456 0.692913 0.716597 1.000000
tan -0.011098 0.692851 0.716597 1.000000
tan -0.005456 0.724533 0.692913 1.000000
tan -0.005580 0.708723 0.708661 1.000000
tan -0.005456 0.724471 0.692913 1.000000
tan -0.005270 0.740344 0.669291 1.000000
tan 0.000000 -0.962428 0.000000 1.000000
tan 0.007874 -0.972348 -0.000124 1.000000
tan 0.000000 -0.992126 0.000000 1.000000
tan 0.000000 -0.908798 0.000000 1.000000
tan 0.000000 -0.984252 0.000000 1.000000
tan -0.001488 -0.985740 -0.007750 1.000000
tan -0.015748 -1.000000 0.000000 1.000000
tan 0.015748 -1.000000 0.000000 1.000000
tan 0.000000 -1.000000 0.000000 1.000000
tan 0.000000 -1.000000 0.000000 1.000000
tan 0.000000 -1.000000 0.000000 1.000000
tan 0.007874 -1.000000 0.000000 1.000000
tan -0.047244 -1.000000 0.000000 1.000000
tan -0.054994 -1.000000 0.007874 1.000000
tan 0.023622 -1.000000 0.000000 1.000000
tan 0.007874 -0.955112 0.000062 1.000000
tan 0.007874 -1.000000 0.000000 1.000000
tan -0.026288 -0.960878 0.006324 1.000000
tan 0.000000 -0.932048 0.000000 1.000000
tan -0.011036 -0.998884 0.011160 1.000000
tan 0.000000 -1.004402 0.000000 1.000000
tan 0.012028 -0.982826 -0.002046 1.000000
tan 0.014756 -0.969186 0.005580 1.000000
tan 0.021576 0.009486 -0.948168 1.000000
tan -0.000248 0.015748 -0.972472 1.000000
tan 0.004464 0.019282 -0.943642 1.000000
tan 0.007626 0.009486 -0.977990 1.000000
tan 0.000000 0.007874 -1.000000 1.000000
tan 0.067890 0.174840 -0.977432 1.000000
tan 0.206150 0.591977 -0.766011 1.000000
tan 0.000000 0.007874 -1.000000 1.000000
tan 0.000000 -0.000000 -1.000000 1.000000
tan 0.000000 0.007874 -1.000000 1.000000
tan 0.000000 0.188976 -0.984252 1.000000
tan 0.004464 0.762105 -0.638973 1.000000
tan -0.117924 0.972038 -0.129952 1.000000
tan 0.000000 0.724409 -0.692913 1.000000
tan 0.000000 0.181102 -0.984252 1.000000
tan 0.000000 0.007874 -1.000000 1.000000
tan -0.022940 0.020770 -0.978052 1.000000
tan -0.015128 0.011842 -0.972472 1.000000
tan -0.105338 0.195300 -0.961994 1.000000
tan -0.048980 0.038192 -0.941658 1.000000
tan -0.034038 0.026784 -0.896708 1.000000
tan -0.289417 0.627751 -0.715357 1.000000
tan 0.005704 0.724409 -0.692975 1.000000
tan 0.009052 0.761051 -0.634881 1.000000
tan 0.106578 0.940232 -0.179428 1.000000
tan 0.079732 0.973712 -0.223573 1.000000
tan 0.007750 0.984252 -0.165354 1.000000
tan 0.034224 0.995598 -0.032364 1.000000
tan 0.000000 0.992126 -0.149606 1.000000
tan 0.007874 1.000000 -0.000000 1.000000
tan -0.079856 0.944138 -0.158472 1.000000
tan 0.000000 1.000000 -0.000000 1.000000
tan 0.001240 0.988902 0.011780 1.000000
tan 0.022444 0.952446 -0.000868 1.000000
tan 0.000000 0.949098 -0.000000 1.000000
tan 0.015066 0.948602 0.001798 1.000000
tan 0.117180 0.976502 -0.170128 1.000000
tan 0.042842 0.940976 -0.108066 1.000000
tan 0.000000 1.000000 0.031496 1.000000
tan 0.000000 0.992126 -0.110236 1.000000
tan 0.000000 0.574803 -0.818898 1.000000
tan 0.000000 1.000000 0.023622 1.000000
tan -0.007874 1.000000 -0.086614 1.000000
tan 0.000000 0.409449 -0.913386 1.000000
tan 0.000000 -0.559055 -0.826771 1.000000
tan 0.006014 0.952260 0.018848 1.000000
tan 0.004650 -0.590551 -0.811085 1.000000
tan 0.005580 -0.708661 -0.708723 1.000000
tan 0.004092 0.944820 -0.023250 1.000000
tan -0.031062 0.974642 -0.028086 1.000000
tan 0.007812 0.992126 -0.094488 1.000000
tan -0.002232 0.551305 -0.834770 1.000000
tan 0.000000 0.409449 -0.913386 1.000000
tan 0.000000 0.456693 -0.889764 1.000000
tan 0.004712 -0.598425 -0.803273 1.000000
tan 0.000000 -0.559055 -0.834646 1.000000
tan 0.000000 -0.551181 -0.834646 1.000000
tan -0.000310 -0.724533 -0.685163 1.000000
tan 0.005518 -0.700787 -0.708785 1.000000
tan 0.005580 -0.708661 -0.708785 1.000000
tan 0.005518 -0.700787 -0.716597 1.000000
tan -0.000310 -0.724595 -0.685225 1.000000
tan -0.005642 -0.716535 -0.700849 1.000000
tan -0.000620 -0.748280 -0.669539 1.000000
tan -0.023622 -1.000000 0.000000 1.000000
tan -0.047368 -1.000000 0.007874 1.000000
tan -0.047244 -1.000000 0.000000 1.000000
tan -0.031744 -1.000000 0.007874 1.000000
tan -0.015810 -1.000000 -0.007874 1.000000
tan -0.007874 -1.000000 0.000000 1.000000
tan 0.000000 -1.000000 0.000000 1.000000
tan 0.031496 -1.000000 0.000000 1.000000
tan 0.023622 -1.000000 0.000000 1.000000
tan 0.007874 -1.000000 0.000000 1.000000
tan 0.015748 -1.000000 0.000000 1.000000
tan -0.005208 -0.985554 0.031000 1.000000
tan 0.043648 -0.985678 -0.022940 1.000000
tan 0.006510 -0.984252 0.007750 1.000000
tan -0.014446 -0.957282 0.067270 1.000000
tan 0.062868 -0.960506 -0.042408 1.000000
tan 0.018290 -0.947424 -0.007316 1.000000
f 3/3/3 2/2/2 1/1/1
f 4/4/4 2/2/2 3/3/3
f 7/7/7 6/6/6 5/5/5
f 6/6/6 7/7/7 8/8/8
f 8/8/8 9/9/9 6/6/6
f 9/9/9 8/8/8 10/10/10
f 10/10/10 11/11/11 9/9/9
f 12/12/12 9/9/9 11/11/11
f 12/12/12 11/11/11 13/13/13
f 14/14/14 13/13/13 11/11/11
f 15/15/15 13/13/13 14/14/14
f 18/18/18 17/17/17 16/16/16
f 16/16/16 17/17/17 19/19/19
f 16/16/16 19/19/19 20/20/20
f 19/19/19 21/21/21 20/20/20
f 21/21/21 22/22/22 20/20/20
f 23/23/23 20/20/20 22/22/22
f 23/23/23 22/22/22 24/24/24
f 24/24/24 25/25/25 23/23/23
f 25/25/25 24/24/24 26/26/26
f 27/27/27 26/26/26 24/24/24
f 27/27/27 28/28/28 26/26/26
f 29/29/29 26/26/26 28/28/28
f 29/29/29 28/28/28 30/30/30
f 31/31/31 30/30/30 28/28/28
f 30/30/30 31/31/31 32/32/32
f 33/33/33 32/32/32 31/31/31
f 36/36/36 35/35/35 34/34/34
f 37/37/37 34/34/34 35/35/35
f 34/34/34 37/37/37 38/38/38
f 39/39/39 38/38/38 37/37/37
f 38/38/38 39/39/39 40/40/40
f 40/40/40 41/41/41 38/38/38
f 41/41/41 40/40/40 42/42/42
f 43/43/43 42/42/42 40/40/40
f 42/42/42 43/43/43 44/44/44
f 44/44/44 45/45/45 42/42/42
f 45/45/45 44/44/44 46/46/46
f 49/49/49 48/48/48 47/47/47
f 50/50/50 47/47/47 48/48/48
f 50/50/50 48/48/48 51/51/51
f 51/51/51 52/52/52 50/50/50
f 52/52/52 51/51/51 53/53/53
f 53/53/53 51/51/51 54/54/54
f 55/55/55 53/53/53 54/54/54
f 53/53/53 55/55/55 56/56/56
f 59/59/59 58/58/58 57/57/57
f 57/57/57 60/60/60 59/59/59
f 57/57/57 61/61/61 60/60/60
f 62/62/62 60/60/60 61/61/61
f 63/63/63 62/62/62 61/61/61
f 64/64/64 63/63/63 61/61/61
f 63/63/63 64/64/64 65/65/65
f 66/66/66 65/65/65 64/64/64
f 69/69/69 68/68/68 67/67/67
f 68/68/68 70/70/70 67/67/67
f 70/70/70 68/68/68 71/71/71
f 71/71/71 72/72/72 70/70/70
f 72/72/72 71/71/71 73/73/73
f 74/74/74 73/73/73 71/71/71
f 77/77/77 76/76/76 75/75/75
f 78/78/78 75/75/75 76/76/76
f 76/76/76 79/79/79 78/78/78
f 80/80/80 78/78/78 79/79/79
f 79/79/79 81/81/81 80/80/80
f 79/79/79 82/82/82 81/81/81
f 81/81/81 82/82/82 83/83/83
f 83/83/83 82/82/82 84/84/84
f 84/84/84 85/85/85 83/83/83
f 85/85/85 84/84/84 86/86/86
f 85/85/85 86/86/86 87/87/87
f 88/88/88 87/87/87 86/86/86
f 87/87/87 88/88/88 89/89/89
f 89/89/89 90/90/90 87/87/87
f 91/91/91 90/90/90 89/89/89
f 94/94/94 93/93/93 92/92/92
f 95/95/95 92/92/92 93/93/93
f 92/92/92 95/95/95 96/96/96
f 96/96/96 95/95/95 97/97/97
f 98/98/98 96/96/96 97/97/97
f 97/97/97 99/99/99 98/98/98
f 100/100/100 98/98/98 99/99/99
f 98/98/98 100/100/100 101/101/101
f 104/104/104 103/103/103 102/102/102
f 105/105/105 102/102/102 103/103/103
f 103/103/103 106/106/106 105/105/105
f 106/106/106 107/107/107 105/105/105
f 106/106/106 108/108/108 107/107/107
f 109/109/109 107/107/107 108/108/108
f 109/109/109 108/108/108 110/110/110
f 108/108/108 111/111/111 110/110/110
f 111/111/111 112/112/112 110/110/110
f 113/113/113 112/112/112 111/111/111
f 113/113/113 114/114/114 112/112/112
f 115/115/115 114/114/114 113/113/113
f 115/115/115 116/116/116 114/114/114
f 117/117/117 114/114/114 116/116/116
f 116/116/116 118/118/118 117/117/117
f 119/119/119 118/118/118 116/116/116
f 122/122/122 121/121/121 120/120/120
f 121/121/121 123/123/123 120/120/120
f 120/120/120 123/123/123 124/124/124
f 120/120/120 124/124/124 125/125/125
f 123/123/123 126/126/126 124/124/124
f 124/124/124 127/127/127 125/125/125
f 128/128/128 125/125/125 127/127/127
f 127/127/127 129/129/129 128/128/128
f 127/127/127 130/130/130 129/129/129
f 124/124/124 131/131/131 127/127/127
f 127/127/127 131/131/131 130/130/130
f 131/131/131 124/124/124 126/126/126
f 131/131/131 132/132/132 130/130/130
f 126/126/126 132/132/132 131/131/131
f 132/132/132 133/133/133 130/130/130
f 132/132/132 126/126/126 134/134/134
f 133/133/133 132/132/132 135/135/135
f 132/132/132 134/134/134 136/136/136
f 136/136/136 135/135/135 132/132/132
f 139/139/139 138/138/138 137/137/137
f 139/139/139 140/140/140 138/138/138
f 138/138/138 140/140/140 141/141/141
f 141/141/141 142/142/142 138/138/138
f 143/143/143 141/141/141 140/140/140
f 146/146/146 145/145/145 144/144/144
f 146/146/146 144/144/144 147/147/147
f 148/148/148 147/147/147 144/144/144
f 144/144/144 149/149/149 148/148/148
f 149/149/149 150/150/150 148/148/148
f 151/151/151 148/148/148 150/150/150
f 152/152/152 150/150/150 149/149/149
f 151/151/151 150/150/150 153/153/153
f 150/150/150 152/152/152 153/153/153
f 154/154/154 153/153/153 152/152/152
f 153/153/153 154/154/154 155/155/155
f 156/156/156 151/151/151 153/153/153
f 153/153/153 155/155/155 157/157/157
f 159/159/159 158/158/158 157/157/157
f 153/153/153 157/157/157 158/158/158
f 153/153/153 160/160/160 156/156/156
f 158/158/158 160/160/160 153/153/153
f 161/161/161 156/156/156 160/160/160
f 158/158/158 162/162/162 160/160/160
f 161/161/161 160/160/160 163/163/163
f 163/163/163 160/160/160 162/162/162
f 166/166/166 165/165/165 164/164/164
f 167/167/167 164/164/164 165/165/165
f 167/167/167 168/168/168 164/164/164
f 168/168/168 169/169/169 164/164/164
f 169/169/169 168/168/168 170/170/170
f 171/171/171 170/170/170 168/168/168
f 171/171/171 172/172/172 170/170/170
f 172/172/172 173/173/173 170/170/170
f 176/176/176 175/175/175 174/174/174
f 177/177/177 175/175/175 176/176/176
f 176/176/176 178/178/178 177/177/177
f 177/177/177 179/179/179 175/175/175
f 180/180/180 177/177/177 178/178/178
f 180/180/180 178/178/178 181/181/181
f 182/182/182 179/179/179 177/177/177
f 180/180/180 182/182/182 177/177/177
f 182/182/182 183/183/183 179/179/179
f 179/179/179 183/183/183 184/184/184
f 185/185/185 182/182/182 180/180/180
f 180/180/180 181/181/181 186/186/186
f 185/185/185 180/180/180 186/186/186
f 187/187/187 186/186/186 181/181/181
f 187/187/187 188/188/188 186/186/186
f 190/190/190 189/189/189 188/188/188
f 191/191/191 188/188/188 189/189/189
f 191/191/191 186/186/186 188/188/188
f 189/189/189 192/192/192 191/191/191
f 193/193/193 186/186/186 191/191/191
f 193/193/193 191/191/191 192/192/192
f 193/193/193 194/194/194 186/186/186
f 194/194/194 185/185/185 186/186/186
f 192/192/192 195/195/195 193/193/193
f 192/192/192 196/196/196 195/195/195
f 197/197/197 195/195/195 196/196/196
f 194/194/194 193/193/193 198/198/198
f 195/195/195 198/198/198 193/193/193
f 185/185/185 194/194/194 198/198/198
f 197/197/197 199/199/199 195/195/195
f 198/198/198 195/195/195 199/199/199
f 200/200/200 199/199/199 197/197/197
f 198/198/198 201/201/201 185/185/185
f 185/185/185 201/201/201 182/182/182
f 183/183/183 182/182/182 201/201/201
f 198/198/198 202/202/202 201/201/201
f 201/201/201 202/202/202 183/183/183
f 199/199/199 202/202/202 198/198/198
f 203/203/203 183/183/183 202/202/202
f 184/184/184 183/183/183 203/203/203
f 202/202/202 199/199/199 204/204/204
f 202/202/202 204/204/204 203/203/203
f 199/199/199 200/200/200 204/204/204
f 205/205/205 184/184/184 203/203/203
f 205/205/205 203/203/203 204/204/204
f 184/184/184 205/205/205 206/206/206
f 200/200/200 207/207/207 204/204/204
f 206/206/206 205/205/205 208/208/208
f 208/208/208 209/209/209 206/206/206
f 205/205/205 204/204/204 210/210/210
f 208/208/208 205/205/205 210/210/210
f 211/211/211 204/204/204 207/207/207
f 210/210/210 204/204/204 211/211/211
f 209/209/209 208/208/208 212/212/212
f 210/210/210 212/212/212 208/208/208
f 213/213/213 209/209/209 212/212/212
f 211/211/211 207/207/207 214/214/214
f 211/211/211 214/214/214 210/210/210
f 207/207/207 215/215/215 214/214/214
f 216/216/216 214/214/214 215/215/215
f 212/212/212 210/210/210 217/217/217
f 214/214/214 217/217/217 210/210/210
f 214/214/214 216/216/216 218/218/218
f 217/217/217 214/214/214 218/218/218
f 216/216/216 219/219/219 218/218/218
f 220/220/220 218/218/218 219/219/219
f 218/218/218 220/220/220 217/217/217
f 219/219/219 221/221/221 220/220/220
f 212/212/212 217/217/217 222/222/222
f 212/212/212 222/222/222 213/213/213
f 223/223/223 213/213/213 222/222/222
f 224/224/224 217/217/217 220/220/220
f 217/217/217 224/224/224 222/222/222
f 225/225/225 220/220/220 221/221/221
f 220/220/220 225/225/225 224/224/224
f 226/226/226 223/223/223 222/222/222
f 226/226/226 227/227/227 223/223/223
f 224/224/224 228/228/228 222/222/222
f 226/226/226 222/222/222 228/228/228
f 228/228/228 224/224/224 225/225/225
f 229/229/229 227/227/227 226/226/226
f 229/229/229 226/226/226 228/228/228
f 229/229/229 228/228/228 225/225/225
f 230/230/230 227/227/227 229/229/229
f 231/231/231 230/230/230 229/229/229
f 229/229/229 232/232/232 231/231/231
f 233/233/233 229/229/229 225/225/225
f 232/232/232 229/229/229 233/233/233
f 233/233/233 225/225/225 221/221/221
f 234/234/234 232/232/232 233/233/233
f 235/235/235 233/233/233 221/221/221
f 234/234/234 233/233/233 236/236/236
f 235/235/235 236/236/236 233/233/233
f 239/239/239 238/238/238 237/237/237
f 237/237/237 240/240/240 239/239/239
f 239/239/239 240/240/240 241/241/241
f 240/240/240 237/237/237 242/242/242
f 243/243/243 241/241/241 240/240/240
f 241/241/241 243/243/243 244/244/244
f 245/245/245 240/240/240 242/242/242
f 243/243/243 240/240/240 245/245/245
f 245/245/245 242/242/242 246/246/246
f 247/247/247 244/244/244 243/243/243
f 244/244/244 247/247/247 248/248/248
f 245/245/245 249/249/249 243/243/243
f 247/247/247 243/243/243 249/249/249
f 246/246/246 250/250/250 245/245/245
f 245/245/245 250/250/250 249/249/249
f 251/251/251 250/250/250 246/246/246
f 247/247/247 249/249/249 252/252/252
f 249/249/249 250/250/250 253/253/253
f 252/252/252 249/249/249 253/253/253
f 254/254/254 248/248/248 247/247/247
f 247/247/247 252/252/252 254/254/254
f 255/255/255 248/248/248 254/254/254
f 255/255/255 254/254/254 256/256/256
f 253/253/253 250/250/250 257/257/257
f 250/250/250 251/251/251 257/257/257
f 258/258/258 256/256/256 254/254/254
f 259/259/259 256/256/256 258/258/258
f 261/261/261 259/259/259 260/260/260
f 260/260/260 259/259/259 258/258/258
f 260/260/260 258/258/258 262/262/262
f 263/263/263 262/262/262 258/258/258
f 258/258/258 254/254/254 263/263/263
f 262/262/262 263/263/263 264/264/264
f 263/263/263 254/254/254 265/265/265
f 264/264/264 263/263/263 265/265/265
f 265/265/265 254/254/254 252/252/252
f 267/267/267 264/264/264 266/266/266
f 252/252/252 268/268/268 265/265/265
f 268/268/268 252/252/252 253/253/253
f 265/265/265 269/269/269 264/264/264
f 269/269/269 265/265/265 268/268/268
f 264/264/264 269/269/269 266/266/266
f 268/268/268 253/253/253 270/270/270
f 268/268/268 270/270/270 269/269/269
f 270/270/270 266/266/266 269/269/269
f 257/257/257 270/270/270 253/253/253
f 270/270/270 271/271/271 266/266/266
f 272/272/272 266/266/266 271/271/271
f 272/272/272 271/271/271 273/273/273
f 257/257/257 274/274/274 270/270/270
f 271/271/271 270/270/270 274/274/274
f 257/257/257 251/251/251 274/274/274
f 275/275/275 273/273/273 271/271/271
f 271/271/271 274/274/274 275/275/275
f 276/276/276 273/273/273 275/275/275
f 273/273/273 276/276/276 277/277/277
f 278/278/278 275/275/275 274/274/274
f 275/275/275 278/278/278 276/276/276
f 279/279/279 274/274/274 251/251/251
f 278/278/278 274/274/274 279/279/279
f 279/279/279 251/251/251 280/280/280
f 279/279/279 280/280/280 281/281/281
f 281/281/281 282/282/282 279/279/279
f 278/278/278 279/279/279 282/282/282
f 282/282/282 281/281/281 283/283/283
f 283/283/283 284/284/284 282/282/282
f 284/284/284 283/283/283 285/285/285
f 286/286/286 284/284/284 285/285/285
f 282/282/282 284/284/284 287/287/287
f 284/284/284 286/286/286 287/287/287
f 278/278/278 282/282/282 287/287/287
f 287/287/287 288/288/288 278/278/278
f 276/276/276 278/278/278 288/288/288
f 289/289/289 287/287/287 286/286/286
f 287/287/287 289/289/289 288/288/288
f 289/289/289 286/286/286 290/290/290
f 286/286/286 291/291/291 290/290/290
f 292/292/292 288/288/288 289/289/289
f 290/290/290 291/291/291 293/293/293
f 291/291/291 294/294/294 293/293/293
f 294/294/294 295/295/295 293/293/293
f 296/296/296 293/293/293 295/295/295
f 296/296/296 297/297/297 293/293/293
f 289/289/289 290/290/290 298/298/298
f 292/292/292 289/289/289 298/298/298
f 290/290/290 293/293/293 299/299/299
f 299/299/299 293/293/293 297/297/297
f 298/298/298 290/290/290 299/299/299
f 299/299/299 297/297/297 300/300/300
f 301/301/301 300/300/300 297/297/297
f 301/301/301 302/302/302 300/300/300
f 303/303/303 300/300/300 302/302/302
f 303/303/303 304/304/304 300/300/300
f 305/305/305 299/299/299 300/300/300
f 305/305/305 300/300/300 304/304/304
f 299/299/299 305/305/305 298/298/298
f 305/305/305 304/304/304 306/306/306
f 305/305/305 306/306/306 298/298/298
f 292/292/292 298/298/298 306/306/306
f 307/307/307 306/306/306 304/304/304
f 306/306/306 308/308/308 292/292/292
f 308/308/308 306/306/306 307/307/307
f 288/288/288 292/292/292 308/308/308
f 309/309/309 308/308/308 307/307/307
f 276/276/276 288/288/288 308/308/308
f 309/309/309 277/277/277 308/308/308
f 276/276/276 308/308/308 277/277/277
f 312/312/312 311/311/311 310/310/310
f 311/311/311 312/312/312 313/313/313
f 313/313/313 314/314/314 311/311/311
f 315/315/315 313/313/313 312/312/312
f 314/314/314 317/317/317 316/316/316
f 314/314/314 313/313/313 318/318/318
f 318/318/318 317/317/317 314/314/314
f 319/319/319 313/313/313 315/315/315
f 319/319/319 318/318/318 313/313/313
f 319/319/319 315/315/315 320/320/320
f 321/321/321 320/320/320 315/315/315
f 322/322/322 320/320/320 321/321/321
f 323/323/323 318/318/318 319/319/319
f 319/319/319 320/320/320 323/323/323
f 323/323/323 317/317/317 318/318/318
f 320/320/320 322/322/322 324/324/324
f 325/325/325 324/324/324 322/322/322
f 324/324/324 326/326/326 320/320/320
f 323/323/323 320/320/320 326/326/326
f 324/324/324 325/325/325 327/327/327
f 324/324/324 327/327/327 326/326/326
f 328/328/328 327/327/327 325/325/325
f 328/328/328 329/329/329 327/327/327
f 329/329/329 331/331/331 330/330/330
f 330/330/330 327/327/327 329/329/329
f 333/333/333 330/330/330 332/332/332
f 330/330/330 333/333/333 327/327/327
f 334/334/334 326/326/326 327/327/327
f 333/333/333 334/334/334 327/327/327
f 326/326/326 334/334/334 335/335/335
f 335/335/335 323/323/323 326/326/326
f 333/333/333 336/336/336 334/334/334
f 336/336/336 335/335/335 334/334/334
f 337/337/337 336/336/336 333/333/333
f 337/337/337 333/333/333 338/338/338
f 336/336/336 337/337/337 339/339/339
f 335/335/335 336/336/336 339/339/339
f 340/340/340 337/337/337 338/338/338
f 337/337/337 340/340/340 339/339/339
f 340/340/340 338/338/338 341/341/341
f 323/323/323 335/335/335 342/342/342
f 317/317/317 323/323/323 342/342/342
f 335/335/335 343/343/343 342/342/342
f 342/342/342 343/343/343 317/317/317
f 339/339/339 343/343/343 335/335/335
f 344/344/344 317/317/317 343/343/343
f 343/343/343 339/339/339 345/345/345
f 345/345/345 339/339/339 340/340/340
f 343/343/343 346/346/346 344/344/344
f 343/343/343 345/345/345 346/346/346
f 347/347/347 344/344/344 346/346/346
f 347/347/347 346/346/346 348/348/348
f 345/345/345 349/349/349 346/346/346
f 349/349/349 348/348/348 346/346/346
f 350/350/350 345/345/345 340/340/340
f 350/350/350 349/349/349 345/345/345
f 340/340/340 341/341/341 351/351/351
f 351/351/351 350/350/350 340/340/340
f 341/341/341 352/352/352 351/351/351
f 353/353/353 351/351/351 352/352/352
f 351/351/351 353/353/353 354/354/354
f 350/350/350 351/351/351 354/354/354
f 353/353/353 355/355/355 354/354/354
f 350/350/350 354/354/354 356/356/356
f 349/349/349 350/350/350 356/356/356
f 357/357/357 354/354/354 355/355/355
f 354/354/354 357/357/357 356/356/356
f 358/358/358 348/348/348 349/349/349
f 349/349/349 356/356/356 358/358/358
f 348/348/348 358/358/358 359/359/359
f 356/356/356 360/360/360 358/358/358
f 360/360/360 356/356/356 357/357/357
f 358/358/358 361/361/361 359/359/359
f 361/361/361 358/358/358 360/360/360
f 362/362/362 359/359/359 361/361/361
f 363/363/363 362/362/362 361/361/361
f 364/364/364 361/361/361 360/360/360
f 364/364/364 363/363/363 361/361/361
f 365/365/365 360/360/360 357/357/357
f 365/365/365 364/364/364 360/360/360
f 366/366/366 363/363/363 364/364/364
f 364/364/364 365/365/365 366/366/366
f 366/366/366 367/367/367 363/363/363
f 367/367/367 366/366/366 368/368/368
f 369/369/369 365/365/365 357/357/357
f 369/369/369 357/357/357 355/355/355
f 355/355/355 370/370/370 369/369/369
f 371/371/371 366/366/366 365/365/365
f 368/368/368 366/366/366 371/371/371
f 365/365/365 369/369/369 371/371/371
f 372/372/372 368/368/368 371/371/371
f 372/372/372 371/371/371 373/373/373
f 369/369/369 370/370/370 374/374/374
f 374/374/374 371/371/371 369/369/369
f 374/374/374 373/373/373 371/371/371
f 375/375/375 374/374/374 370/370/370
f 373/373/373 374/374/374 375/375/375
f 376/376/376 373/373/373 375/375/375
f 379/379/379 378/378/378 377/377/377
f 377/377/377 380/380/380 379/379/379
f 381/381/381 379/379/379 380/380/380
f 382/382/382 381/381/381 380/380/380
f 382/382/382 383/383/383 381/381/381
f 381/381/381 384/384/384 379/379/379
f 383/383/383 384/384/384 381/381/381
f 379/379/379 384/384/384 385/385/385
f 384/384/384 386/386/386 385/385/385
f 386/386/386 384/384/384 387/387/387
f 384/384/384 383/383/383 388/388/388
f 389/389/389 388/388/388 383/383/383
f 389/389/389 390/390/390 388/388/388
f 391/391/391 387/387/387 384/384/384
f 388/388/388 391/391/391 384/384/384
f 387/387/387 391/391/391 392/392/392
f 390/390/390 393/393/393 388/388/388
f 388/388/388 393/393/393 391/391/391
f 390/390/390 394/394/394 393/393/393
f 393/393/393 395/395/395 391/391/391
f 394/394/394 395/395/395 393/393/393
f 392/392/392 391/391/391 395/395/395
f 396/396/396 395/395/395 394/394/394
f 395/395/395 396/396/396 397/397/397
f 398/398/398 395/395/395 397/397/397
f 395/395/395 398/398/398 392/392/392
f 398/398/398 399/399/399 392/392/392
f 402/402/402 401/401/401 400/400/400
f 400/400/400 401/401/401 403/403/403
f 401/401/401 404/404/404 403/403/403
f 403/403/403 405/405/405 400/400/400
f 406/406/406 400/400/400 405/405/405
f 404/404/404 407/407/407 403/403/403
f 404/404/404 408/408/408 407/407/407
f 408/408/408 409/409/409 407/407/407
f 405/405/405 403/403/403 410/410/410
f 407/407/407 410/410/410 403/403/403
f 405/405/405 411/411/411 406/406/406
f 406/406/406 411/411/411 412/412/412
f 410/410/410 413/413/413 405/405/405
f 411/411/411 405/405/405 413/413/413
f 410/410/410 407/407/407 414/414/414
f 414/414/414 413/413/413 410/410/410
f 415/415/415 407/407/407 409/409/409
f 407/407/407 415/415/415 414/414/414
f 409/409/409 416/416/416 415/415/415
f 409/409/409 417/417/417 416/416/416
f 414/414/414 415/415/415 418/418/418
f 416/416/416 418/418/418 415/415/415
f 416/416/416 417/417/417 419/419/419
f 420/420/420 419/419/419 417/417/417
f 416/416/416 419/419/419 418/418/418
f 421/421/421 418/418/418 419/419/419
f 414/414/414 418/418/418 422/422/422
f 414/414/414 422/422/422 413/413/413
f 421/421/421 423/423/423 418/418/418
f 423/423/423 422/422/422 418/418/418
f 423/423/423 421/421/421 424/424/424
f 425/425/425 424/424/424 421/421/421
f 422/422/422 423/423/423 426/426/426
f 422/422/422 426/426/426 413/413/413
f 424/424/424 426/426/426 423/423/423
f 425/425/425 427/427/427 424/424/424
f 428/428/428 413/413/413 426/426/426
f 413/413/413 428/428/428 411/411/411
f 426/426/426 424/424/424 429/429/429
f 430/430/430 411/411/411 428/428/428
f 412/412/412 411/411/411 430/430/430
f 428/428/428 426/426/426 431/431/431
f 428/428/428 431/431/431 430/430/430
f 431/431/431 426/426/426 429/429/429
f 412/412/412 430/430/430 432/432/432
f 433/433/433 429/429/429 424/424/424
f 433/433/433 424/424/424 427/427/427
f 432/432/432 430/430/430 434/434/434
f 434/434/434 430/430/430 431/431/431
f 433/433/433 427/427/427 435/435/435
f 435/435/435 427/427/427 436/436/436
f 435/435/435 436/436/436 437/437/437
f 429/429/429 433/433/433 438/438/438
f 433/433/433 435/435/435 438/438/438
f 429/429/429 438/438/438 431/431/431
f 435/435/435 437/437/437 439/439/439
f 438/438/438 435/435/435 439/439/439
f 437/437/437 440/440/440 439/439/439
f 441/441/441 431/431/431 438/438/438
f 431/431/431 441/441/441 434/434/434
f 438/438/438 439/439/439 442/442/442
f 438/438/438 442/442/442 441/441/441
f 443/443/443 439/439/439 440/440/440
f 439/439/439 443/443/443 442/442/442
f 440/440/440 444/444/444 443/443/443
f 445/445/445 434/434/434 441/441/441
f 434/434/434 445/445/445 432/432/432
f 446/446/446 443/443/443 444/444/444
f 447/447/447 446/446/446 444/444/444
f 432/432/432 445/445/445 448/448/448
f 448/448/448 449/449/449 432/432/432
f 448/448/448 445/445/445 450/450/450
f 441/441/441 450/450/450 445/445/445
f 450/450/450 441/441/441 442/442/442
f 451/451/451 448/448/448 450/450/450
f 452/452/452 442/442/442 443/443/443
f 442/442/442 452/452/452 450/450/450
f 443/443/443 446/446/446 452/452/452
f 450/450/450 453/453/453 451/451/451
f 453/453/453 450/450/450 452/452/452
f 454/454/454 452/452/452 446/446/446
f 452/452/452 454/454/454 453/453/453
f 453/453/453 455/455/455 451/451/451
f 455/455/455 453/453/453 454/454/454
f 456/456/456 451/451/451 455/455/455
f 456/456/456 455/455/455 457/457/457
f 446/446/446 458/458/458 454/454/454
f 454/454/454 458/458/458 455/455/455
f 446/446/446 447/447/447 458/458/458
f 447/447/447 459/459/459 458/458/458
f 460/460/460 458/458/458 459/459/459
f 460/460/460 461/461/461 458/458/458
f 455/455/455 462/462/462 457/457/457
f 462/462/462 455/455/455 458/458/458
f 462/462/462 458/458/458 461/461/461
f 457/457/457 462/462/462 463/463/463
f 461/461/461 463/463/463 462/462/462
f 466/466/466 465/465/465 464/464/464
f 465/465/465 467/467/467 464/464/464
f 466/466/466 464/464/464 468/468/468
f 464/464/464 467/467/467 469/469/469
f 470/470/470 468/468/468 464/464/464
f 464/464/464 469/469/469 470/470/470
f 469/469/469 471/471/471 470/470/470
f 472/472/472 470/470/470 471/471/471
f 473/473/473 470/470/470 472/472/472
f 470/470/470 473/473/473 474/474/474
f 468/468/468 470/470/470 475/475/475
f 476/476/476 470/470/470 474/474/474
f 477/477/477 475/475/475 470/470/470
f 477/477/477 470/470/470 476/476/476
f 478/478/478 475/475/475 477/477/477
f 476/476/476 479/479/479 477/477/477
f 477/477/477 480/480/480 478/478/478
f 480/480/480 477/477/477 479/479/479
