mtllib SM_CardBoard_Box_01_LOD1.mtl
g SM_CardBoard_Box_01_LOD1
#Vertices 127
#Indices 504
#Section 0 Offset 0 NumIndices 504 MaterialIndex 0 MI_CardBoard_Boxes_01
v 0.485802 0.010099 0.003882
v 0.483560 -0.000925 0.123757
v 0.486726 0.000165 0.123822
v 0.345739 -0.000882 0.123793
v 0.345759 0.001455 0.004233
v 0.160978 -0.000882 0.123793
v 0.484897 0.011249 0.000760
v 0.160953 0.003166 0.003136
v 0.345753 0.002643 0.001064
v 0.004271 0.000000 0.004206
v 0.004455 0.000777 0.123787
v 0.001280 0.001842 0.123753
v 0.000187 0.000724 0.004372
v 0.001673 0.001062 0.001149
v 0.160951 0.004287 -0.000034
v 0.345776 0.005859 0.000009
v 0.004264 0.004352 0.000000
v 0.000810 0.004366 0.001067
v 0.160894 0.007480 -0.001086
v 0.004998 0.278592 -0.000311
v 0.001972 0.278706 0.000492
v 0.002817 0.281725 0.000584
v 0.160367 0.276956 -0.000297
v 0.345739 0.142675 -0.000284
v 0.482222 0.014277 -0.000319
v 0.485524 0.014383 0.000854
v 0.345808 0.275854 -0.000565
v 0.482386 0.278095 -0.000488
v 0.485412 0.278169 0.000492
v 0.484834 0.281340 0.000515
v 0.345756 0.279063 0.000485
v 0.482210 0.282529 0.003652
v 0.485387 0.281403 0.003657
v 0.484629 0.282179 0.123780
v 0.481453 0.283261 0.123766
v 0.345739 0.280230 0.003654
v 0.345739 0.285929 0.123793
v 0.160980 0.281425 0.003654
v 0.160978 0.286005 0.123793
v 0.005156 0.283041 0.003654
v 0.001233 0.282157 0.003554
v 0.004454 0.283868 0.123865
v 0.001280 0.282794 0.123819
v 0.485439 0.002608 0.254919
v 0.486726 0.000165 0.123822
v 0.483560 -0.000925 0.123757
v 0.482277 0.001549 0.254933
v 0.345739 -0.000882 0.123793
v 0.484839 0.002634 0.257999
v 0.345718 0.003596 0.255794
v 0.160978 -0.000882 0.123793
v 0.160959 0.004229 0.256678
v 0.004455 0.000777 0.123787
v 0.345749 0.004752 0.258975
v 0.003408 0.005661 0.257361
v 0.001280 0.001842 0.123753
v 0.000226 0.006753 0.257376
v 0.000764 0.006959 0.260583
v 0.160977 0.005404 0.259855
v 0.160994 0.008615 0.260932
v 0.004167 0.010038 0.261692
v -0.000038 0.009783 0.260297
v 0.001149 0.141262 0.260763
v 0.345802 0.007957 0.260063
v 0.002185 0.276712 0.261219
v -0.000996 0.276718 0.260166
v -0.000485 0.279875 0.260127
v 0.160978 0.143935 0.261628
v 0.345739 0.143006 0.261904
v 0.482317 0.006005 0.258954
v 0.485403 0.005855 0.258120
v 0.484724 0.278147 0.260105
v 0.481417 0.278152 0.261262
v 0.484005 0.281210 0.260228
v 0.345784 0.279516 0.261156
v 0.161001 0.277550 0.261745
v 0.345751 0.282706 0.260097
v 0.160980 0.280749 0.260681
v 0.481400 0.282449 0.257010
v 0.484576 0.281330 0.257004
v 0.484629 0.282179 0.123780
v 0.481453 0.283261 0.123766
v 0.345742 0.283818 0.256925
v 0.345739 0.285929 0.123793
v 0.160978 0.286005 0.123793
v 0.160964 0.281884 0.257508
v 0.004454 0.283868 0.123865
v 0.002190 0.281069 0.256992
v 0.001280 0.282794 0.123819
v -0.000992 0.279967 0.256986
v 0.000810 0.004366 0.001067
v 0.000187 0.000724 0.004372
v 0.001673 0.001062 0.001149
v 0.001972 0.278706 0.000492
v 0.001233 0.282157 0.003554
v 0.002817 0.281725 0.000584
v 0.000226 0.006753 0.257376
v 0.001280 0.001842 0.123753
v -0.000992 0.279967 0.256986
v 0.001280 0.282794 0.123819
v -0.000038 0.009783 0.260297
v 0.000764 0.006959 0.260583
v -0.001033 0.142316 0.123793
v -0.002079 0.276778 0.256995
v -0.000485 0.279875 0.260127
v -0.000996 0.276718 0.260166
v 0.001149 0.141262 0.260763
v 0.485791 0.278066 0.256905
v 0.484724 0.278147 0.260105
v 0.484005 0.281210 0.260228
v 0.484576 0.281330 0.257004
v 0.485403 0.005855 0.258120
v 0.486300 0.278857 0.003971
v 0.484629 0.282179 0.123780
v 0.485387 0.281403 0.003657
v 0.484834 0.281340 0.000515
v 0.485412 0.278169 0.000492
v 0.485524 0.014383 0.000854
v 0.486461 0.005781 0.254934
v 0.484839 0.002634 0.257999
v 0.485439 0.002608 0.254919
v 0.486241 0.141718 0.123793
v 0.486441 0.014165 0.003911
v 0.484897 0.011249 0.000760
v 0.485802 0.010099 0.003882
v 0.487766 0.003351 0.123944
v 0.486726 0.000165 0.123822
vt 0.974609 0.084473
vt 0.973633 0.024414
vt 0.975098 0.024414
vt 0.904785 0.023926
vt 0.904785 0.083496
vt 0.812012 0.023438
vt 0.974121 0.086914
vt 0.812012 0.083496
vt 0.904297 0.084473
vt 0.733887 0.083008
vt 0.733887 0.023438
vt 0.731934 0.022949
vt 0.731934 0.083008
vt 0.732422 0.084473
vt 0.812012 0.085449
vt 0.904297 0.085938
vt 0.733398 0.085938
vt 0.731934 0.085449
vt 0.812012 0.086914
vt 0.734375 0.222656
vt 0.732910 0.222656
vt 0.733398 0.223633
vt 0.812012 0.221680
vt 0.904785 0.154297
vt 0.972656 0.088867
vt 0.974609 0.088867
vt 0.905273 0.221191
vt 0.973633 0.221680
vt 0.975098 0.221680
vt 0.974609 0.223145
vt 0.905273 0.223145
vt 0.973633 0.224609
vt 0.975098 0.224609
vt 0.974609 0.284668
vt 0.973145 0.285156
vt 0.905273 0.225098
vt 0.905273 0.285156
vt 0.812500 0.225098
vt 0.812500 0.285156
vt 0.734375 0.225098
vt 0.732422 0.225098
vt 0.734375 0.285156
vt 0.732422 0.285156
vt 0.543945 0.475098
vt 0.544434 0.540771
vt 0.542480 0.540771
vt 0.542480 0.475098
vt 0.473877 0.540527
vt 0.543457 0.474121
vt 0.474121 0.474609
vt 0.381592 0.540283
vt 0.381592 0.473633
vt 0.303467 0.540039
vt 0.474121 0.473145
vt 0.302490 0.473145
vt 0.302002 0.539795
vt 0.300781 0.472656
vt 0.301514 0.471191
vt 0.381592 0.472168
vt 0.381836 0.470215
vt 0.303223 0.469238
vt 0.301025 0.469238
vt 0.302490 0.403320
vt 0.474365 0.471191
vt 0.303955 0.335449
vt 0.302246 0.335449
vt 0.302734 0.333984
vt 0.382568 0.402832
vt 0.475098 0.403809
vt 0.542480 0.472656
vt 0.543945 0.472656
vt 0.545410 0.336426
vt 0.543457 0.336426
vt 0.544922 0.334961
vt 0.475830 0.335938
vt 0.383301 0.335938
vt 0.475830 0.334473
vt 0.383545 0.334473
vt 0.543945 0.333008
vt 0.545410 0.333496
vt 0.545410 0.266602
vt 0.543945 0.266602
vt 0.476074 0.332520
vt 0.476074 0.266113
vt 0.383545 0.266113
vt 0.383545 0.333008
vt 0.305420 0.265625
vt 0.303955 0.332520
vt 0.303711 0.265625
vt 0.302246 0.332520
vt 0.466797 0.756958
vt 0.465088 0.755127
vt 0.467041 0.755249
vt 0.467285 0.894226
vt 0.465576 0.895935
vt 0.467285 0.895813
vt 0.338623 0.758179
vt 0.405518 0.755615
vt 0.338867 0.894897
vt 0.405518 0.896362
vt 0.337158 0.759644
vt 0.336914 0.758179
vt 0.405518 0.826050
vt 0.338867 0.893250
vt 0.337158 0.894775
vt 0.337402 0.893250
vt 0.336670 0.825439
vt 0.330322 0.916870
vt 0.332031 0.916931
vt 0.332031 0.918518
vt 0.330322 0.918579
vt 0.331055 0.780640
vt 0.203857 0.917297
vt 0.263672 0.919067
vt 0.203613 0.918640
vt 0.201904 0.918579
vt 0.202026 0.916992
vt 0.202148 0.785034
vt 0.329346 0.780640
vt 0.331055 0.779053
vt 0.329346 0.778931
vt 0.263672 0.848633
vt 0.203735 0.784912
vt 0.202148 0.783447
vt 0.203735 0.782959
vt 0.263672 0.779419
vt 0.263672 0.777710
vt1 0.792480 0.927490
vt1 0.886230 0.925598
vt1 0.885742 0.928223
vt1 0.886719 0.818604
vt1 0.794434 0.818604
vt1 0.887695 0.675293
vt1 0.789062 0.926575
vt1 0.793945 0.675293
vt1 0.792480 0.818481
vt1 0.794922 0.553711
vt1 0.887695 0.553711
vt1 0.887695 0.551025
vt1 0.795410 0.550537
vt1 0.792969 0.551514
vt1 0.791504 0.675293
vt1 0.790527 0.818481
vt1 0.791016 0.553467
vt1 0.791016 0.550781
vt1 0.789062 0.675049
vt1 0.578613 0.554932
vt1 0.578613 0.552246
vt1 0.576660 0.553223
vt1 0.580078 0.675537
vt1 0.684570 0.818970
vt1 0.786133 0.924316
vt1 0.786133 0.927063
vt1 0.581055 0.819458
vt1 0.580566 0.925537
vt1 0.580078 0.927979
vt1 0.577637 0.927368
vt1 0.578125 0.819336
vt1 0.575195 0.925354
vt1 0.575195 0.927979
vt1 0.482178 0.927246
vt1 0.481934 0.924683
vt1 0.575195 0.819336
vt1 0.481689 0.819336
vt1 0.574707 0.676025
vt1 0.481689 0.676025
vt1 0.574707 0.554932
vt1 0.574707 0.552002
vt1 0.481445 0.554688
vt1 0.481445 0.552002
vt1 0.167480 0.456055
vt1 0.062500 0.456543
vt1 0.062561 0.454102
vt1 0.167603 0.453125
vt1 0.062927 0.343750
vt1 0.169678 0.455566
vt1 0.168701 0.343750
vt1 0.063416 0.195801
vt1 0.169922 0.195801
vt1 0.063843 0.070801
vt1 0.171265 0.344238
vt1 0.171021 0.069336
vt1 0.064026 0.068359
vt1 0.171509 0.066406
vt1 0.174072 0.067383
vt1 0.172729 0.195801
vt1 0.175415 0.196289
vt1 0.177368 0.070312
vt1 0.176880 0.066895
vt1 0.282715 0.068848
vt1 0.173828 0.344238
vt1 0.391357 0.071289
vt1 0.391602 0.068848
vt1 0.393799 0.069336
vt1 0.283691 0.197266
vt1 0.281982 0.345703
vt1 0.171753 0.453613
vt1 0.171509 0.456543
vt1 0.389648 0.458496
vt1 0.389648 0.455566
vt1 0.392334 0.457520
vt1 0.391113 0.346680
vt1 0.390625 0.198730
vt1 0.393311 0.346680
vt1 0.393311 0.198730
vt1 0.395264 0.456055
vt1 0.394775 0.458496
vt1 0.501953 0.458496
vt1 0.501953 0.456055
vt1 0.395752 0.347168
vt1 0.502441 0.347168
vt1 0.502930 0.198730
vt1 0.395752 0.198730
vt1 0.502930 0.073730
vt1 0.396240 0.071289
vt1 0.502930 0.071289
vt1 0.396240 0.068848
vt1 0.616211 0.157227
vt1 0.612793 0.159668
vt1 0.613281 0.156738
vt1 0.852051 0.156250
vt1 0.854492 0.159180
vt1 0.854492 0.156250
vt1 0.618164 0.377441
vt1 0.613770 0.262207
vt1 0.853027 0.376953
vt1 0.855469 0.262207
vt1 0.620605 0.379883
vt1 0.618164 0.379883
vt1 0.734375 0.262207
vt1 0.850098 0.376465
vt1 0.852539 0.379395
vt1 0.850098 0.379395
vt1 0.733887 0.380371
vt1 0.126587 0.594971
vt1 0.123718 0.594971
vt1 0.123596 0.592285
vt1 0.126465 0.592041
vt1 0.125488 0.828857
vt1 0.343750 0.594482
vt1 0.240967 0.591309
vt1 0.344238 0.592041
vt1 0.346924 0.592285
vt1 0.346924 0.594971
vt1 0.346680 0.821411
vt1 0.128296 0.828979
vt1 0.125488 0.831665
vt1 0.128174 0.831787
vt1 0.240967 0.712158
vt1 0.343750 0.821533
vt1 0.346680 0.824219
vt1 0.343994 0.824951
vt1 0.240845 0.831055
vt1 0.240967 0.833984
vn 0.181102 -0.960630 -0.204724
vn 0.181102 -0.984252 -0.070866
vn 0.322835 -0.944882 -0.086614
vn 0.015748 -1.000000 -0.039370
vn 0.015748 -0.984252 -0.196850
vn 0.000000 -1.000000 -0.023622
vn 0.181102 -0.677165 -0.708661
vn 0.000000 -0.984252 -0.181102
vn 0.023622 -0.700787 -0.716535
vn -0.149606 -0.976378 -0.157480
vn -0.157480 -0.984252 0.000000
vn -0.322835 -0.944882 0.007874
vn -0.338583 -0.929134 -0.133858
vn -0.149606 -0.700787 -0.692913
vn 0.000000 -0.692913 -0.716535
vn 0.007874 -0.165354 -0.984252
vn -0.149606 -0.149606 -0.976378
vn -0.307087 -0.133858 -0.944882
vn 0.000000 -0.157480 -0.984252
vn -0.157480 0.149606 -0.976378
vn -0.299213 0.133858 -0.944882
vn -0.094488 0.700787 -0.708661
vn 0.000000 0.157480 -0.984252
vn 0.000000 -0.000000 -1.000000
vn 0.157480 -0.149606 -0.976378
vn 0.307087 -0.133858 -0.944882
vn 0.000000 0.157480 -0.984252
vn 0.157480 0.149606 -0.976378
vn 0.299213 0.133858 -0.944882
vn 0.157480 0.685039 -0.708661
vn 0.000000 0.692913 -0.724409
vn 0.149606 0.976378 -0.173228
vn 0.307087 0.937008 -0.149606
vn 0.330709 0.944882 -0.000000
vn 0.165354 0.984252 -0.015748
vn 0.000000 0.984252 -0.196850
vn 0.000000 1.000000 -0.031496
vn 0.007874 0.984252 -0.188976
vn 0.000000 1.000000 -0.031496
vn -0.149606 0.976378 -0.173228
vn -0.338583 0.929134 -0.141732
vn -0.165354 0.984252 -0.015748
vn -0.322835 0.944882 -0.007874
vn 0.299213 -0.937008 0.157480
vn 0.322835 -0.944882 0.023622
vn 0.157480 -0.984252 0.023622
vn 0.141732 -0.976378 0.173228
vn -0.007874 -1.000000 0.031496
vn 0.157480 -0.700787 0.692913
vn -0.007874 -0.984252 0.188976
vn -0.007874 -1.000000 0.039370
vn -0.007874 -0.984252 0.196850
vn -0.165354 -0.984252 0.031496
vn 0.000000 -0.700787 0.716535
vn -0.157480 -0.968504 0.181102
vn -0.322835 -0.944882 0.031496
vn -0.307087 -0.937008 0.165354
vn -0.157480 -0.677165 0.716535
vn 0.000000 -0.700787 0.716535
vn 0.000000 -0.165354 0.984252
vn -0.157480 -0.149606 0.976378
vn -0.307087 -0.133858 0.944882
vn -0.314961 0.000000 0.952756
vn 0.000000 -0.165354 0.984252
vn -0.149606 0.149606 0.976378
vn -0.299213 0.133858 0.944882
vn -0.165354 0.685039 0.708661
vn 0.000000 0.000000 1.000000
vn 0.007874 -0.007874 1.000000
vn 0.165354 -0.157480 0.976378
vn 0.307087 -0.141732 0.944882
vn 0.314961 0.133858 0.937008
vn 0.157480 0.149606 0.976378
vn 0.165354 0.677165 0.716535
vn 0.000000 0.165354 0.984252
vn 0.000000 0.157480 0.984252
vn 0.000000 0.700787 0.708661
vn -0.007874 0.700787 0.716535
vn 0.165354 0.976378 0.157480
vn 0.314961 0.937008 0.141732
vn 0.330709 0.944882 0.007874
vn 0.173228 0.984252 0.007874
vn 0.000000 0.984252 0.173228
vn 0.007874 1.000000 0.015748
vn -0.007874 1.000000 0.023622
vn -0.007874 0.984252 0.181102
vn -0.165354 0.984252 0.023622
vn -0.157480 0.976378 0.173228
vn -0.322835 0.944882 0.015748
vn -0.307087 0.937008 0.149606
vn -0.944882 -0.133858 -0.307087
vn -0.976378 -0.165354 -0.157480
vn -0.905512 -0.299213 -0.299213
vn -0.944882 0.141732 -0.307087
vn -0.976378 0.165354 -0.157480
vn -0.905512 0.299213 -0.307087
vn -0.944882 -0.307087 0.141732
vn -0.944882 -0.322835 0.000000
vn -0.944882 0.299213 0.125984
vn -0.944882 0.322835 -0.007874
vn -0.976378 -0.149606 0.165354
vn -0.905512 -0.291339 0.307087
vn -1.000000 0.000000 0.000000
vn -0.976378 0.149606 0.149606
vn -0.905512 0.299213 0.299213
vn -0.944882 0.125984 0.307087
vn -0.944882 0.000000 0.314961
vn 0.976378 0.149606 0.157480
vn 0.944882 0.133858 0.307087
vn 0.905512 0.291339 0.299213
vn 0.944882 0.299213 0.133858
vn 0.944882 -0.125984 0.307087
vn 0.976378 0.157480 -0.149606
vn 0.944882 0.314961 -0.000000
vn 0.944882 0.299213 -0.133858
vn 0.905512 0.299213 -0.291339
vn 0.944882 0.133858 -0.299213
vn 0.944882 -0.125984 -0.314961
vn 0.976378 -0.141732 0.157480
vn 0.905512 -0.291339 0.299213
vn 0.944882 -0.291339 0.141732
vn 1.000000 0.007874 -0.000000
vn 0.976378 -0.141732 -0.165354
vn 0.905512 -0.283465 -0.314961
vn 0.937008 -0.322835 -0.157480
vn 0.984252 -0.157480 -0.007874
vn 0.952756 -0.307087 -0.007874
tan -0.098332 -0.221650 0.953066 1.000000
tan -0.092442 -0.087420 0.977928 1.000000
tan -0.182590 -0.148118 0.935272 1.000000
tan -0.007874 -0.039494 1.000000 1.000000
tan -0.015500 -0.197098 0.984252 1.000000
tan 0.000000 -0.023622 1.000000 1.000000
tan 0.006572 -0.714365 0.684295 1.000000
tan 0.000000 -0.181102 0.984252 1.000000
tan 0.000124 -0.716721 0.700973 1.000000
tan 0.006448 -0.158658 0.977556 1.000000
tan -0.015500 0.002480 0.985492 1.000000
tan -0.036890 0.020584 0.957592 1.000000
tan -0.008370 -0.131192 0.931800 1.000000
tan -0.010726 -0.696447 0.706677 1.000000
tan 0.000000 -0.716535 0.692913 1.000000
tan 0.007750 -0.984252 0.165416 1.000000
tan -0.068014 -0.977556 0.160208 1.000000
tan -0.103106 -0.939860 0.166656 1.000000
tan 0.000000 -0.984252 0.157480 1.000000
tan 0.038440 -0.976378 -0.155806 1.000000
tan 0.092504 -0.946866 -0.163432 1.000000
tan 0.000062 -0.709405 -0.701531 1.000000
tan 0.000000 -0.984252 -0.157480 1.000000
tan 0.007874 -1.000000 0.000000 1.000000
tan 0.060326 -0.977618 0.159526 1.000000
tan 0.103106 -0.939860 0.166656 1.000000
tan 0.007750 -0.984252 -0.157480 1.000000
tan -0.007688 -0.976378 -0.150846 1.000000
tan -0.031930 -0.956662 -0.145638 1.000000
tan -0.000744 -0.713621 -0.689999 1.000000
tan 0.000000 -0.724409 -0.692913 1.000000
tan 0.052452 -0.181474 -0.977556 1.000000
tan 0.075268 -0.175026 -0.941720 1.000000
tan 0.037200 -0.013020 -0.957902 1.000000
tan 0.015376 -0.018352 -0.985554 1.000000
tan 0.000000 -0.196850 -0.984252 1.000000
tan 0.000000 -0.031496 -1.000000 1.000000
tan 0.000000 -0.188976 -0.984252 1.000000
tan 0.000000 -0.031496 -1.000000 1.000000
tan -0.014012 -0.175584 -0.977556 1.000000
tan -0.006200 -0.144398 -0.931800 1.000000
tan 0.007874 -0.014446 -0.985554 1.000000
tan 0.022630 -0.000248 -0.957592 1.000000
tan -0.057846 0.140988 0.948788 1.000000
tan -0.053010 0.005828 0.957592 1.000000
tan -0.031186 0.018662 0.985492 1.000000
tan -0.016740 0.170996 0.977494 1.000000
tan 0.000000 0.031496 1.000000 1.000000
tan -0.021700 0.695393 0.708227 1.000000
tan -0.007750 0.189038 0.984252 1.000000
tan 0.000000 0.039370 1.000000 1.000000
tan 0.000000 0.196850 0.984252 1.000000
tan -0.046252 0.039308 0.985554 1.000000
tan 0.000000 0.716535 0.700787 1.000000
tan -0.105338 0.197036 0.962118 1.000000
tan -0.088040 0.061752 0.950152 1.000000
tan -0.170562 0.220783 0.934342 1.000000
tan -0.009734 0.722735 0.680885 1.000000
tan 0.000000 0.716535 0.700787 1.000000
tan -0.007750 0.984252 0.165354 1.000000
tan 0.023064 0.976378 0.153326 1.000000
tan 0.021266 0.947300 0.141112 1.000000
tan 0.007502 0.965156 0.002480 1.000000
tan -0.007750 0.984252 0.165354 1.000000
tan -0.060326 0.977556 -0.159030 1.000000
tan -0.076570 0.949222 -0.158720 1.000000
tan -0.011718 0.712567 -0.691549 1.000000
tan -0.007874 1.000000 -0.000000 1.000000
tan -0.007874 1.000000 0.007936 1.000000
tan -0.046128 0.976378 0.165292 1.000000
tan -0.113460 0.949532 0.179304 1.000000
tan 0.087482 0.932110 -0.162564 1.000000
tan 0.021886 0.977618 -0.153326 1.000000
tan -0.009734 0.723045 -0.681071 1.000000
tan -0.007750 0.984252 -0.165354 1.000000
tan -0.007750 0.984252 -0.157480 1.000000
tan 0.000000 0.708661 -0.700787 1.000000
tan -0.005642 0.716535 -0.700849 1.000000
tan -0.098704 0.173166 -0.969992 1.000000
tan -0.164114 0.196540 -0.934652 1.000000
tan -0.088970 0.039060 -0.950462 1.000000
tan -0.038688 0.014694 -0.985616 1.000000
tan 0.000000 0.173228 -0.984252 1.000000
tan 0.000000 0.015748 -1.000000 1.000000
tan 0.000000 0.023622 -1.000000 1.000000
tan 0.000000 0.181102 -0.984252 1.000000
tan -0.015686 0.021018 -0.985554 1.000000
tan 0.021700 0.176948 -0.977618 1.000000
tan -0.022940 0.008122 -0.957592 1.000000
tan 0.016244 0.156860 -0.949098 1.000000
tan 0.136276 -0.947300 -0.006386 1.000000
tan 0.166594 -0.976378 -0.007688 1.000000
tan 0.296857 -0.907868 0.009486 1.000000
tan -0.148986 -0.956972 0.016740 1.000000
tan -0.166594 -0.976378 0.007688 1.000000
tan -0.308885 -0.905512 0.028520 1.000000
tan 0.310435 -0.947114 0.017484 1.000000
tan 0.322835 -0.944882 0.000000 1.000000
tan -0.299213 -0.946866 0.004712 1.000000
tan -0.322835 -0.944882 0.000000 1.000000
tan 0.152210 -0.976378 0.015376 1.000000
tan 0.303429 -0.910348 0.031062 1.000000
tan 0.000000 -1.000000 0.000000 1.000000
tan -0.149606 -0.977556 0.001178 1.000000
tan -0.299213 -0.907868 0.002356 1.000000
tan -0.128402 -0.956972 -0.002480 1.000000
tan 0.000000 -0.957282 0.000000 1.000000
tan 0.150846 -0.976378 -0.007688 1.000000
tan 0.138694 -0.947300 -0.013826 1.000000
tan 0.300763 -0.907868 -0.026226 1.000000
tan 0.301321 -0.946990 -0.010168 1.000000
tan -0.125984 -0.956972 -0.004960 1.000000
tan 0.158658 -0.976378 0.007688 1.000000
tan 0.314961 -0.944882 0.000000 1.000000
tan 0.299213 -0.946990 -0.004712 1.000000
tan 0.299213 -0.907806 -0.002356 1.000000
tan 0.136214 -0.956662 0.002170 1.000000
tan -0.135904 -0.947362 -0.028768 1.000000
tan -0.141732 -0.977618 -0.001116 1.000000
tan -0.288983 -0.907868 -0.009424 1.000000
tan -0.291339 -0.947114 -0.004588 1.000000
tan 0.007874 -1.000000 0.000000 1.000000
tan -0.144336 -0.977680 -0.014260 1.000000
tan -0.300825 -0.910472 -0.045446 1.000000
tan -0.326555 -0.937008 -0.022134 1.000000
tan -0.157480 -0.984252 0.000000 1.000000
tan -0.307087 -0.952756 0.000000 1.000000
f 3/3/3 2/2/2 1/1/1
f 2/2/2 4/4/4 1/1/1
f 5/5/5 1/1/1 4/4/4
f 4/4/4 6/6/6 5/5/5
f 1/1/1 5/5/5 7/7/7
f 8/8/8 5/5/5 6/6/6
f 5/5/5 9/9/9 7/7/7
f 5/5/5 8/8/8 9/9/9
f 8/8/8 6/6/6 10/10/10
f 11/11/11 10/10/10 6/6/6
f 11/11/11 12/12/12 10/10/10
f 13/13/13 10/10/10 12/12/12
f 13/13/13 14/14/14 10/10/10
f 10/10/10 14/14/14 8/8/8
f 8/8/8 15/15/15 9/9/9
f 15/15/15 8/8/8 14/14/14
f 9/9/9 16/16/16 7/7/7
f 9/9/9 15/15/15 16/16/16
f 14/14/14 17/17/17 15/15/15
f 18/18/18 17/17/17 14/14/14
f 15/15/15 19/19/19 16/16/16
f 19/19/19 15/15/15 17/17/17
f 20/20/20 17/17/17 18/18/18
f 17/17/17 20/20/20 19/19/19
f 21/21/21 20/20/20 18/18/18
f 21/21/21 22/22/22 20/20/20
f 23/23/23 19/19/19 20/20/20
f 23/23/23 20/20/20 22/22/22
f 16/16/16 19/19/19 24/24/24
f 23/23/23 24/24/24 19/19/19
f 25/25/25 7/7/7 16/16/16
f 16/16/16 24/24/24 25/25/25
f 7/7/7 25/25/25 26/26/26
f 24/24/24 23/23/23 27/27/27
f 26/26/26 25/25/25 28/28/28
f 28/28/28 25/25/25 24/24/24
f 24/24/24 27/27/27 28/28/28
f 28/28/28 29/29/29 26/26/26
f 30/30/30 29/29/29 28/28/28
f 27/27/27 23/23/23 31/31/31
f 27/27/27 31/31/31 28/28/28
f 30/30/30 28/28/28 31/31/31
f 23/23/23 22/22/22 31/31/31
f 30/30/30 31/31/31 32/32/32
f 30/30/30 32/32/32 33/33/33
f 33/33/33 32/32/32 34/34/34
f 35/35/35 34/34/34 32/32/32
f 31/31/31 36/36/36 32/32/32
f 32/32/32 36/36/36 35/35/35
f 31/31/31 22/22/22 36/36/36
f 37/37/37 35/35/35 36/36/36
f 36/36/36 38/38/38 37/37/37
f 22/22/22 38/38/38 36/36/36
f 39/39/39 37/37/37 38/38/38
f 22/22/22 40/40/40 38/38/38
f 38/38/38 40/40/40 39/39/39
f 40/40/40 22/22/22 41/41/41
f 42/42/42 39/39/39 40/40/40
f 41/41/41 43/43/43 40/40/40
f 42/42/42 40/40/40 43/43/43
f 46/46/46 45/45/45 44/44/44
f 44/44/44 47/47/47 46/46/46
f 46/46/46 47/47/47 48/48/48
f 49/49/49 47/47/47 44/44/44
f 50/50/50 48/48/48 47/47/47
f 47/47/47 49/49/49 50/50/50
f 48/48/48 50/50/50 51/51/51
f 52/52/52 51/51/51 50/50/50
f 52/52/52 53/53/53 51/51/51
f 54/54/54 50/50/50 49/49/49
f 52/52/52 55/55/55 53/53/53
f 53/53/53 55/55/55 56/56/56
f 57/57/57 56/56/56 55/55/55
f 57/57/57 55/55/55 58/58/58
f 52/52/52 50/50/50 59/59/59
f 52/52/52 59/59/59 55/55/55
f 58/58/58 55/55/55 59/59/59
f 54/54/54 59/59/59 50/50/50
f 59/59/59 60/60/60 58/58/58
f 59/59/59 54/54/54 60/60/60
f 61/61/61 58/58/58 60/60/60
f 58/58/58 61/61/61 62/62/62
f 62/62/62 61/61/61 63/63/63
f 64/64/64 60/60/60 54/54/54
f 63/63/63 61/61/61 65/65/65
f 65/65/65 66/66/66 63/63/63
f 67/67/67 66/66/66 65/65/65
f 60/60/60 68/68/68 61/61/61
f 61/61/61 68/68/68 65/65/65
f 64/64/64 69/69/69 60/60/60
f 68/68/68 60/60/60 69/69/69
f 64/64/64 54/54/54 70/70/70
f 69/69/69 64/64/64 70/70/70
f 49/49/49 70/70/70 54/54/54
f 71/71/71 70/70/70 49/49/49
f 71/71/71 72/72/72 70/70/70
f 73/73/73 70/70/70 72/72/72
f 70/70/70 73/73/73 69/69/69
f 72/72/72 74/74/74 73/73/73
f 75/75/75 69/69/69 73/73/73
f 73/73/73 74/74/74 75/75/75
f 68/68/68 69/69/69 76/76/76
f 76/76/76 69/69/69 75/75/75
f 65/65/65 68/68/68 76/76/76
f 77/77/77 75/75/75 74/74/74
f 76/76/76 78/78/78 65/65/65
f 76/76/76 75/75/75 78/78/78
f 75/75/75 77/77/77 78/78/78
f 67/67/67 65/65/65 78/78/78
f 74/74/74 79/79/79 77/77/77
f 74/74/74 80/80/80 79/79/79
f 79/79/79 80/80/80 81/81/81
f 81/81/81 82/82/82 79/79/79
f 83/83/83 77/77/77 79/79/79
f 79/79/79 82/82/82 83/83/83
f 77/77/77 83/83/83 78/78/78
f 84/84/84 83/83/83 82/82/82
f 84/84/84 85/85/85 83/83/83
f 83/83/83 85/85/85 86/86/86
f 86/86/86 78/78/78 83/83/83
f 85/85/85 87/87/87 86/86/86
f 86/86/86 88/88/88 78/78/78
f 88/88/88 86/86/86 87/87/87
f 88/88/88 67/67/67 78/78/78
f 87/87/87 89/89/89 88/88/88
f 90/90/90 67/67/67 88/88/88
f 90/90/90 88/88/88 89/89/89
f 93/93/93 92/92/92 91/91/91
f 91/91/91 92/92/92 94/94/94
f 96/96/96 94/94/94 95/95/95
f 95/95/95 94/94/94 92/92/92
f 92/92/92 98/98/98 97/97/97
f 100/100/100 95/95/95 99/99/99
f 97/97/97 101/101/101 92/92/92
f 97/97/97 102/102/102 101/101/101
f 92/92/92 103/103/103 95/95/95
f 92/92/92 101/101/101 103/103/103
f 104/104/104 99/99/99 95/95/95
f 95/95/95 103/103/103 104/104/104
f 101/101/101 104/104/104 103/103/103
f 99/99/99 104/104/104 105/105/105
f 106/106/106 105/105/105 104/104/104
f 104/104/104 101/101/101 106/106/106
f 107/107/107 106/106/106 101/101/101
f 110/110/110 109/109/109 108/108/108
f 108/108/108 111/111/111 110/110/110
f 108/108/108 109/109/109 112/112/112
f 108/108/108 113/113/113 111/111/111
f 113/113/113 114/114/114 111/111/111
f 114/114/114 113/113/113 115/115/115
f 115/115/115 113/113/113 116/116/116
f 117/117/117 116/116/116 113/113/113
f 118/118/118 117/117/117 113/113/113
f 112/112/112 119/119/119 108/108/108
f 120/120/120 119/119/119 112/112/112
f 120/120/120 121/121/121 119/119/119
f 122/122/122 113/113/113 108/108/108
f 108/108/108 119/119/119 122/122/122
f 123/123/123 118/118/118 113/113/113
f 123/123/123 113/113/113 122/122/122
f 123/123/123 124/124/124 118/118/118
f 125/125/125 124/124/124 123/123/123
f 126/126/126 122/122/122 119/119/119
f 126/126/126 123/123/123 122/122/122
f 119/119/119 121/121/121 126/126/126
f 125/125/125 123/123/123 126/126/126
f 127/127/127 126/126/126 121/121/121
f 126/126/126 127/127/127 125/125/125
