mtllib SM_CardBoard_Box_01.mtl
g SM_CardBoard_Box_01
#Vertices 158
#Indices 672
#Section 0 Offset 0 NumIndices 672 MaterialIndex 0 MI_CardBoard_Boxes_01
v 0.485420 0.010985 0.003904
v 0.483560 -0.000925 0.123757
v 0.486726 0.000165 0.123822
v 0.482258 0.009936 0.003920
v 0.345739 -0.000882 0.123793
v 0.484866 0.011703 0.001270
v 0.345759 0.001455 0.004233
v 0.160978 -0.000882 0.123793
v 0.482231 0.011073 0.000745
v 0.482222 0.014277 -0.000319
v 0.485392 0.014375 0.000738
v 0.345753 0.002643 0.001064
v 0.482452 0.142928 -0.000281
v 0.485624 0.142925 0.000774
v 0.345776 0.005859 0.000009
v 0.345739 0.142675 -0.000284
v 0.482243 0.278109 -0.000565
v 0.485412 0.278169 0.000492
v 0.484876 0.280839 0.001014
v 0.345808 0.275854 -0.000565
v 0.482232 0.281330 0.000485
v 0.160978 0.141773 -0.000284
v 0.482210 0.282529 0.003652
v 0.485387 0.281403 0.003657
v 0.484629 0.282179 0.123780
v 0.481453 0.283261 0.123766
v 0.345756 0.279063 0.000485
v 0.345739 0.280230 0.003654
v 0.345739 0.285929 0.123793
v 0.160951 0.277057 -0.000565
v 0.160972 0.280264 0.000485
v 0.160980 0.281425 0.003654
v 0.160978 0.286005 0.123793
v 0.005168 0.281875 0.000485
v 0.005156 0.283041 0.003654
v 0.004454 0.283868 0.123865
v 0.001280 0.282794 0.123819
v 0.001974 0.281930 0.003657
v 0.002515 0.281371 0.001014
v 0.005153 0.278666 -0.000565
v 0.001972 0.278706 0.000492
v 0.001086 0.141483 0.000772
v 0.004264 0.141461 -0.000291
v 0.004264 0.004352 0.000000
v 0.001083 0.004295 0.001056
v 0.160894 0.007480 -0.001086
v 0.001614 0.001636 0.001583
v 0.160951 0.004287 -0.000034
v 0.004265 0.001149 0.001040
v 0.160953 0.003166 0.003136
v 0.004271 0.000000 0.004206
v 0.001088 0.001104 0.004227
v 0.004455 0.000777 0.123787
v 0.001280 0.001842 0.123753
v 0.485439 0.002608 0.254919
v 0.486726 0.000165 0.123822
v 0.483560 -0.000925 0.123757
v 0.482277 0.001549 0.254933
v 0.345739 -0.000882 0.123793
v 0.484886 0.003197 0.257575
v 0.345718 0.003596 0.255794
v 0.160978 -0.000882 0.123793
v 0.482246 0.002714 0.258119
v 0.482231 0.005922 0.259218
v 0.485403 0.005855 0.258120
v 0.485222 0.142685 0.259073
v 0.345749 0.004752 0.258975
v 0.160959 0.004229 0.256678
v 0.004455 0.000777 0.123787
v 0.160977 0.005404 0.259855
v 0.003408 0.005661 0.257361
v 0.001280 0.001842 0.123753
v 0.000226 0.006753 0.257376
v 0.000741 0.007373 0.260020
v 0.003391 0.006840 0.260536
v 0.160994 0.008615 0.260932
v 0.003404 0.010053 0.261609
v 0.000223 0.010043 0.260554
v 0.001149 0.141262 0.260763
v 0.345802 0.007957 0.260063
v 0.004319 0.141245 0.261818
v 0.482046 0.142663 0.260155
v 0.484589 0.278128 0.260165
v 0.345739 0.143006 0.261904
v 0.481417 0.278152 0.261262
v 0.484049 0.280788 0.259654
v 0.160978 0.143935 0.261628
v 0.345784 0.279516 0.261156
v 0.002185 0.276712 0.261219
v -0.000996 0.276718 0.260166
v 0.161001 0.277550 0.261745
v -0.000494 0.279383 0.259630
v 0.160980 0.280749 0.260681
v 0.002153 0.279916 0.260163
v 0.002190 0.281069 0.256992
v -0.000992 0.279967 0.256986
v 0.001280 0.282794 0.123819
v 0.004454 0.283868 0.123865
v 0.160964 0.281884 0.257508
v 0.160978 0.286005 0.123793
v 0.345742 0.283818 0.256925
v 0.345739 0.285929 0.123793
v 0.481453 0.283261 0.123766
v 0.345751 0.282706 0.260097
v 0.481400 0.282449 0.257010
v 0.484629 0.282179 0.123780
v 0.484576 0.281330 0.257004
v 0.481403 0.281342 0.260188
v 0.485646 0.278138 0.256979
v 0.484589 0.278128 0.260165
v 0.484049 0.280788 0.259654
v 0.484576 0.281330 0.257004
v 0.485222 0.142685 0.259073
v 0.485697 0.278998 0.123766
v 0.484629 0.282179 0.123780
v 0.486286 0.142712 0.255893
v 0.485403 0.005855 0.258120
v 0.485387 0.281403 0.003657
v 0.486461 0.005781 0.254934
v 0.484886 0.003197 0.257575
v 0.485439 0.002608 0.254919
v 0.486241 0.141718 0.123793
v 0.487766 0.003351 0.123944
v 0.486726 0.000165 0.123822
v 0.485420 0.010985 0.003904
v 0.486441 0.014165 0.003911
v 0.484866 0.011703 0.001270
v 0.485392 0.014375 0.000738
v 0.486679 0.142929 0.003946
v 0.485624 0.142925 0.000774
v 0.485412 0.278169 0.000492
v 0.486457 0.278208 0.003665
v 0.484876 0.280839 0.001014
v 0.001083 0.004295 0.001056
v 0.000000 0.004293 0.004228
v 0.001614 0.001636 0.001583
v 0.001088 0.001104 0.004227
v 0.000011 0.141497 0.003946
v 0.001086 0.141483 0.000772
v 0.001972 0.278706 0.000492
v 0.000213 0.005015 0.123637
v 0.001280 0.001842 0.123753
v 0.000226 0.006753 0.257376
v 0.000888 0.278740 0.003665
v 0.002515 0.281371 0.001014
v 0.001974 0.281930 0.003657
v -0.000860 0.009939 0.257383
v 0.000741 0.007373 0.260020
v 0.000223 0.010043 0.260554
v -0.001033 0.142316 0.123793
v 0.000098 0.141256 0.257592
v 0.001149 0.141262 0.260763
v -0.000996 0.276718 0.260166
v 0.000216 0.279615 0.123824
v 0.001280 0.282794 0.123819
v -0.000992 0.279967 0.256986
v -0.002079 0.276778 0.256995
v -0.000494 0.279383 0.259630
vt 0.974609 0.084961
vt 0.973633 0.024414
vt 0.975098 0.024414
vt 0.973145 0.084473
vt 0.904785 0.023926
vt 0.974121 0.086914
vt 0.904785 0.083496
vt 0.812012 0.023438
vt 0.972656 0.086914
vt 0.972656 0.088867
vt 0.974609 0.088867
vt 0.904297 0.084473
vt 0.973145 0.153809
vt 0.975098 0.153320
vt 0.904297 0.085938
vt 0.904785 0.154297
vt 0.973633 0.221191
vt 0.975098 0.221680
vt 0.974609 0.223145
vt 0.905273 0.221191
vt 0.973633 0.223145
vt 0.812500 0.154297
vt 0.973633 0.224609
vt 0.975098 0.224609
vt 0.974609 0.284668
vt 0.973145 0.285156
vt 0.905273 0.223145
vt 0.905273 0.225098
vt 0.905273 0.285156
vt 0.812500 0.221680
vt 0.812500 0.223145
vt 0.812500 0.225098
vt 0.812500 0.285156
vt 0.734375 0.223633
vt 0.734375 0.225098
vt 0.734375 0.285156
vt 0.732422 0.285156
vt 0.732910 0.225098
vt 0.733398 0.223633
vt 0.734375 0.222656
vt 0.732910 0.222656
vt 0.731934 0.154297
vt 0.733887 0.154297
vt 0.733398 0.085938
vt 0.731934 0.085449
vt 0.812012 0.086914
vt 0.732422 0.084473
vt 0.812012 0.085449
vt 0.733887 0.084473
vt 0.812012 0.083496
vt 0.733887 0.083008
vt 0.731934 0.083008
vt 0.733887 0.023438
vt 0.731934 0.022949
vt 0.543945 0.475098
vt 0.544434 0.540771
vt 0.542480 0.540771
vt 0.542480 0.475098
vt 0.473877 0.540527
vt 0.543945 0.474121
vt 0.474121 0.474609
vt 0.381592 0.540283
vt 0.542480 0.473633
vt 0.542480 0.472656
vt 0.543945 0.472656
vt 0.544922 0.404297
vt 0.474121 0.473145
vt 0.381592 0.473633
vt 0.303467 0.540039
vt 0.381592 0.472168
vt 0.302490 0.473145
vt 0.302002 0.539795
vt 0.300781 0.472656
vt 0.301270 0.471191
vt 0.302734 0.471191
vt 0.381836 0.470215
vt 0.302979 0.469238
vt 0.301270 0.469238
vt 0.302490 0.403320
vt 0.474365 0.471191
vt 0.304199 0.403320
vt 0.542969 0.404297
vt 0.545410 0.336426
vt 0.475098 0.403809
vt 0.543457 0.336426
vt 0.544922 0.334961
vt 0.382568 0.402832
vt 0.475830 0.335938
vt 0.303955 0.335449
vt 0.302246 0.335449
vt 0.383301 0.335938
vt 0.302490 0.333984
vt 0.383545 0.334473
vt 0.303955 0.333984
vt 0.303955 0.332520
vt 0.302246 0.332520
vt 0.303711 0.265625
vt 0.305420 0.265625
vt 0.383545 0.333008
vt 0.383545 0.266113
vt 0.476074 0.332520
vt 0.476074 0.266113
vt 0.543945 0.266602
vt 0.475830 0.334473
vt 0.543945 0.333008
vt 0.545410 0.266602
vt 0.545410 0.333496
vt 0.543945 0.334961
vt 0.330322 0.916931
vt 0.332031 0.916931
vt 0.331787 0.918335
vt 0.330322 0.918579
vt 0.331543 0.849121
vt 0.263672 0.917358
vt 0.263672 0.919067
vt 0.329834 0.849121
vt 0.331055 0.780640
vt 0.203613 0.918640
vt 0.329346 0.780640
vt 0.330811 0.779297
vt 0.329346 0.778931
vt 0.263672 0.848633
vt 0.263672 0.779419
vt 0.263672 0.777710
vt 0.203735 0.783325
vt 0.203735 0.784912
vt 0.202393 0.783569
vt 0.202148 0.785034
vt 0.203857 0.849365
vt 0.202148 0.849365
vt 0.202026 0.916992
vt 0.203613 0.916992
vt 0.202148 0.918335
vt 0.467041 0.756836
vt 0.465332 0.756836
vt 0.466797 0.755493
vt 0.465332 0.755249
vt 0.465332 0.825562
vt 0.467041 0.825562
vt 0.467285 0.894226
vt 0.405518 0.757202
vt 0.405518 0.755615
vt 0.338623 0.758179
vt 0.465576 0.894226
vt 0.467041 0.895630
vt 0.465576 0.895874
vt 0.338623 0.759766
vt 0.337158 0.758423
vt 0.336914 0.759766
vt 0.405518 0.826050
vt 0.338379 0.825439
vt 0.336670 0.825439
vt 0.337402 0.893250
vt 0.405518 0.894714
vt 0.405518 0.896362
vt 0.338867 0.894897
vt 0.338867 0.893250
vt 0.337402 0.894592
vt1 0.791992 0.927307
vt1 0.886230 0.925598
vt1 0.885742 0.928223
vt1 0.792480 0.924744
vt1 0.886719 0.818604
vt1 0.789062 0.926575
vt1 0.794434 0.818604
vt1 0.887695 0.675293
vt1 0.789062 0.924500
vt1 0.786133 0.924316
vt1 0.786133 0.926941
vt1 0.792480 0.818481
vt1 0.685547 0.925110
vt1 0.685547 0.927673
vt1 0.790527 0.818481
vt1 0.684570 0.818970
vt1 0.580566 0.925415
vt1 0.580078 0.927979
vt1 0.577637 0.927429
vt1 0.581055 0.819458
vt1 0.577637 0.925354
vt1 0.685059 0.675537
vt1 0.575195 0.925354
vt1 0.575195 0.927979
vt1 0.482178 0.927246
vt1 0.481934 0.924683
vt1 0.578125 0.819336
vt1 0.575195 0.819336
vt1 0.481689 0.819336
vt1 0.580078 0.675781
vt1 0.577148 0.676025
vt1 0.574707 0.676025
vt1 0.481689 0.676025
vt1 0.576660 0.554932
vt1 0.574707 0.554932
vt1 0.481445 0.554688
vt1 0.481445 0.552002
vt1 0.574707 0.552490
vt1 0.576660 0.552734
vt1 0.578613 0.554932
vt1 0.578613 0.552246
vt1 0.685059 0.551270
vt1 0.685059 0.553955
vt1 0.791016 0.553467
vt1 0.791016 0.550781
vt1 0.789062 0.675049
vt1 0.792969 0.551514
vt1 0.791504 0.675293
vt1 0.792969 0.553711
vt1 0.793945 0.675293
vt1 0.794922 0.553711
vt1 0.794922 0.551270
vt1 0.887695 0.553711
vt1 0.887695 0.551025
vt1 0.167480 0.456055
vt1 0.062500 0.456543
vt1 0.062561 0.454102
vt1 0.167603 0.453125
vt1 0.062927 0.343750
vt1 0.169434 0.455566
vt1 0.168701 0.343750
vt1 0.063416 0.195801
vt1 0.169800 0.453613
vt1 0.171753 0.453613
vt1 0.171509 0.456543
vt1 0.281006 0.457520
vt1 0.171265 0.344238
vt1 0.169922 0.195801
vt1 0.063843 0.070801
vt1 0.172729 0.195801
vt1 0.171021 0.069336
vt1 0.064026 0.068359
vt1 0.171509 0.066406
vt1 0.174316 0.067383
vt1 0.173950 0.069336
vt1 0.175415 0.196289
vt1 0.177124 0.069824
vt1 0.177124 0.066895
vt1 0.282715 0.068848
vt1 0.173828 0.344238
vt1 0.282715 0.071777
vt1 0.281006 0.454590
vt1 0.389648 0.458008
vt1 0.281982 0.345703
vt1 0.389648 0.455566
vt1 0.392334 0.458008
vt1 0.283691 0.197266
vt1 0.391113 0.346680
vt1 0.391357 0.071289
vt1 0.391602 0.068848
vt1 0.390625 0.198730
vt1 0.394043 0.069336
vt1 0.393311 0.198730
vt1 0.393799 0.071289
vt1 0.396240 0.071289
vt1 0.396240 0.068848
vt1 0.502930 0.071289
vt1 0.502930 0.073730
vt1 0.395752 0.198730
vt1 0.502930 0.198730
vt1 0.395752 0.347168
vt1 0.502441 0.347168
vt1 0.501953 0.456055
vt1 0.393311 0.346680
vt1 0.395264 0.456055
vt1 0.501953 0.458496
vt1 0.394775 0.458496
vt1 0.392578 0.455566
vt1 0.126465 0.594971
vt1 0.123657 0.594971
vt1 0.124084 0.592529
vt1 0.126465 0.592041
vt1 0.124695 0.711426
vt1 0.240967 0.594238
vt1 0.240967 0.591309
vt1 0.127441 0.711426
vt1 0.125488 0.828857
vt1 0.344238 0.592041
vt1 0.128296 0.828979
vt1 0.125854 0.831177
vt1 0.128174 0.831787
vt1 0.240967 0.712158
vt1 0.240845 0.831055
vt1 0.240967 0.833984
vt1 0.343994 0.824341
vt1 0.343750 0.821533
vt1 0.346191 0.823853
vt1 0.346680 0.821533
vt1 0.343750 0.711182
vt1 0.346680 0.711182
vt1 0.346924 0.594971
vt1 0.343994 0.594971
vt1 0.346680 0.592529
vt1 0.616211 0.156738
vt1 0.616211 0.159668
vt1 0.613770 0.157227
vt1 0.613281 0.159668
vt1 0.733887 0.159668
vt1 0.733887 0.156738
vt1 0.852051 0.156250
vt1 0.616699 0.262207
vt1 0.613770 0.262207
vt1 0.618164 0.377441
vt1 0.851562 0.159180
vt1 0.854004 0.156738
vt1 0.854492 0.159180
vt1 0.621094 0.376953
vt1 0.618652 0.379395
vt1 0.621094 0.379883
vt1 0.734375 0.262207
vt1 0.733887 0.377441
vt1 0.733887 0.380371
vt1 0.850098 0.379395
vt1 0.852539 0.262207
vt1 0.855469 0.262207
vt1 0.853027 0.376953
vt1 0.850098 0.376465
vt1 0.852539 0.379395
vn 0.307087 -0.929134 -0.204724
vn 0.181102 -0.984252 -0.070866
vn 0.322835 -0.944882 -0.086614
vn 0.173228 -0.960630 -0.204724
vn 0.015748 -1.000000 -0.039370
vn 0.314961 -0.645669 -0.692913
vn 0.015748 -0.984252 -0.196850
vn 0.000000 -1.000000 -0.023622
vn 0.173228 -0.677165 -0.708661
vn 0.157480 -0.149606 -0.976378
vn 0.307087 -0.133858 -0.944882
vn 0.023622 -0.700787 -0.716535
vn 0.157480 -0.000000 -0.984252
vn 0.314961 -0.000000 -0.944882
vn 0.007874 -0.165354 -0.984252
vn 0.000000 -0.000000 -1.000000
vn 0.149606 0.149606 -0.976378
vn 0.299213 0.133858 -0.944882
vn 0.307087 0.661417 -0.685039
vn 0.000000 0.157480 -0.984252
vn 0.141732 0.685039 -0.708661
vn 0.000000 -0.000000 -1.000000
vn 0.149606 0.976378 -0.173228
vn 0.307087 0.937008 -0.149606
vn 0.330709 0.944882 -0.000000
vn 0.165354 0.984252 -0.015748
vn 0.000000 0.692913 -0.724409
vn 0.000000 0.984252 -0.196850
vn 0.000000 1.000000 -0.031496
vn 0.000000 0.157480 -0.984252
vn 0.007874 0.692913 -0.716535
vn 0.007874 0.984252 -0.188976
vn 0.000000 1.000000 -0.031496
vn -0.149606 0.685039 -0.708661
vn -0.149606 0.976378 -0.173228
vn -0.165354 0.984252 -0.015748
vn -0.322835 0.944882 -0.007874
vn -0.307087 0.937008 -0.149606
vn -0.307087 0.661417 -0.685039
vn -0.149606 0.149606 -0.976378
vn -0.299213 0.133858 -0.944882
vn -0.314961 -0.000000 -0.944882
vn -0.157480 -0.000000 -0.984252
vn -0.149606 -0.149606 -0.976378
vn -0.299213 -0.133858 -0.944882
vn 0.000000 -0.157480 -0.984252
vn -0.307087 -0.669291 -0.677165
vn 0.000000 -0.692913 -0.716535
vn -0.141732 -0.692913 -0.708661
vn 0.000000 -0.984252 -0.181102
vn -0.149606 -0.976378 -0.157480
vn -0.307087 -0.944882 -0.133858
vn -0.157480 -0.984252 0.000000
vn -0.322835 -0.944882 0.007874
vn 0.299213 -0.937008 0.157480
vn 0.322835 -0.944882 0.023622
vn 0.157480 -0.984252 0.023622
vn 0.141732 -0.976378 0.173228
vn -0.007874 -1.000000 0.031496
vn 0.307087 -0.669291 0.677165
vn -0.007874 -0.984252 0.188976
vn -0.007874 -1.000000 0.039370
vn 0.149606 -0.692913 0.708661
vn 0.157480 -0.157480 0.976378
vn 0.307087 -0.141732 0.944882
vn 0.322835 -0.007874 0.944882
vn 0.000000 -0.700787 0.716535
vn -0.007874 -0.984252 0.196850
vn -0.165354 -0.984252 0.031496
vn 0.000000 -0.700787 0.716535
vn -0.157480 -0.968504 0.181102
vn -0.322835 -0.944882 0.031496
vn -0.307087 -0.937008 0.165354
vn -0.307087 -0.661417 0.685039
vn -0.149606 -0.685039 0.708661
vn 0.000000 -0.165354 0.984252
vn -0.149606 -0.149606 0.976378
vn -0.299213 -0.133858 0.944882
vn -0.314961 0.000000 0.952756
vn 0.000000 -0.165354 0.984252
vn -0.157480 0.000000 0.984252
vn 0.165354 -0.007874 0.984252
vn 0.307087 0.125984 0.944882
vn 0.007874 -0.007874 1.000000
vn 0.157480 0.149606 0.976378
vn 0.322835 0.661417 0.677165
vn 0.000000 0.000000 1.000000
vn 0.000000 0.165354 0.984252
vn -0.149606 0.149606 0.976378
vn -0.299213 0.133858 0.944882
vn 0.000000 0.157480 0.984252
vn -0.314961 0.661417 0.685039
vn -0.007874 0.700787 0.716535
vn -0.157480 0.692913 0.708661
vn -0.157480 0.976378 0.173228
vn -0.307087 0.937008 0.149606
vn -0.322835 0.944882 0.015748
vn -0.165354 0.984252 0.023622
vn -0.007874 0.984252 0.181102
vn -0.007874 1.000000 0.023622
vn 0.000000 0.984252 0.173228
vn 0.007874 1.000000 0.015748
vn 0.173228 0.984252 0.007874
vn 0.000000 0.700787 0.708661
vn 0.165354 0.976378 0.157480
vn 0.330709 0.944882 0.007874
vn 0.314961 0.937008 0.141732
vn 0.157480 0.692913 0.700787
vn 0.976378 0.149606 0.149606
vn 0.944882 0.133858 0.299213
vn 0.921260 0.275591 0.275590
vn 0.944882 0.299213 0.133858
vn 0.944882 0.000000 0.314961
vn 0.984252 0.165354 -0.000000
vn 0.944882 0.314961 -0.000000
vn 0.984252 0.000000 0.157480
vn 0.944882 -0.125984 0.307087
vn 0.944882 0.299213 -0.133858
vn 0.976378 -0.141732 0.157480
vn 0.921260 -0.267716 0.283465
vn 0.944882 -0.291339 0.141732
vn 1.000000 0.007874 -0.000000
vn 0.984252 -0.157480 -0.007874
vn 0.952756 -0.307087 -0.007874
vn 0.944882 -0.291339 -0.157480
vn 0.976378 -0.141732 -0.165354
vn 0.913386 -0.267717 -0.299213
vn 0.944882 -0.125984 -0.307087
vn 0.984252 -0.000000 -0.157480
vn 0.952756 -0.000000 -0.314961
vn 0.944882 0.133858 -0.299213
vn 0.976378 0.149606 -0.149606
vn 0.921260 0.275590 -0.275591
vn -0.944882 -0.133858 -0.307087
vn -0.976378 -0.149606 -0.149606
vn -0.921260 -0.275591 -0.283464
vn -0.944882 -0.307087 -0.133858
vn -0.984252 -0.000000 -0.165354
vn -0.944882 -0.000000 -0.322835
vn -0.944882 0.141732 -0.307087
vn -0.984252 -0.165354 0.000000
vn -0.944882 -0.322835 0.000000
vn -0.944882 -0.307087 0.141732
vn -0.976378 0.157480 -0.157480
vn -0.913386 0.283464 -0.283465
vn -0.944882 0.307087 -0.141732
vn -0.976378 -0.149606 0.157480
vn -0.913386 -0.275590 0.283465
vn -0.944882 -0.125984 0.307087
vn -1.000000 0.000000 0.000000
vn -0.984252 0.000000 0.157480
vn -0.944882 0.000000 0.314961
vn -0.944882 0.125984 0.307087
vn -0.984252 0.165354 -0.007874
vn -0.944882 0.322835 -0.007874
vn -0.944882 0.299213 0.125984
vn -0.976378 0.149606 0.149606
vn -0.921260 0.275591 0.283464
tan -0.097216 -0.244218 0.962552 1.000000
tan -0.080724 -0.086862 1.000124 1.000000
tan -0.137764 -0.137082 0.981958 1.000000
tan -0.066092 -0.219232 0.972782 1.000000
tan -0.007254 -0.039494 1.000248 1.000000
tan -0.026288 -0.734081 0.672081 1.000000
tan -0.012400 -0.197098 0.984500 1.000000
tan 0.000000 -0.023622 1.000000 1.000000
tan -0.001612 -0.719325 0.686961 1.000000
tan 0.039122 -0.984562 0.157170 1.000000
tan 0.026908 -0.992126 0.149296 1.000000
tan 0.000248 -0.716907 0.701159 1.000000
tan 0.031000 -0.993552 0.004960 1.000000
tan 0.052080 -0.992002 0.017360 1.000000
tan 0.006448 -0.984314 0.165416 1.000000
tan 0.007874 -1.000000 0.000000 1.000000
tan -0.009548 -0.989894 -0.153140 1.000000
tan 0.010292 -0.989770 -0.136958 1.000000
tan 0.005394 -0.722797 -0.695455 1.000000
tan 0.007750 -0.984252 -0.157480 1.000000
tan 0.008556 -0.718705 -0.693037 1.000000
tan 0.000000 -1.000000 0.000000 1.000000
tan 0.029264 -0.180110 -0.989894 1.000000
tan 0.029016 -0.166718 -0.984624 1.000000
tan 0.029760 -0.010416 -1.002170 1.000000
tan 0.012896 -0.018104 -0.996094 1.000000
tan 0.005704 -0.724409 -0.692913 1.000000
tan 0.000000 -0.196850 -0.984252 1.000000
tan 0.000000 -0.031496 -1.000000 1.000000
tan 0.000000 -0.984252 -0.157480 1.000000
tan -0.005642 -0.716535 -0.692975 1.000000
tan -0.001488 -0.188976 -0.984314 1.000000
tan 0.000000 -0.031496 -1.000000 1.000000
tan 0.040920 -0.714861 -0.699671 1.000000
tan 0.010540 -0.174220 -0.991072 1.000000
tan 0.010354 -0.014198 -0.996094 1.000000
tan 0.017422 -0.002356 -0.997024 1.000000
tan 0.038564 -0.144956 -0.987042 1.000000
tan 0.063426 -0.705871 -0.709963 1.000000
tan 0.040300 -0.982206 -0.156674 1.000000
tan 0.042842 -0.987414 -0.153450 1.000000
tan -0.007440 -0.992002 0.002480 1.000000
tan 0.000000 -0.993552 0.000000 1.000000
tan -0.047988 -0.982206 0.157852 1.000000
tan -0.058776 -0.985058 0.158162 1.000000
tan 0.000000 -0.984252 0.157480 1.000000
tan -0.070618 -0.690619 0.714613 1.000000
tan 0.005642 -0.716535 0.692913 1.000000
tan -0.045756 -0.713125 0.706429 1.000000
tan 0.000000 -0.181102 0.984252 1.000000
tan -0.015872 -0.157418 0.991072 1.000000
tan -0.048546 -0.125116 0.994544 1.000000
tan -0.015500 0.002480 0.993552 1.000000
tan -0.027218 0.017608 0.997024 1.000000
tan -0.093868 0.135904 0.986980 1.000000
tan -0.052266 0.007068 0.997024 1.000000
tan -0.026970 0.019530 0.993552 1.000000
tan -0.041292 0.169632 0.989894 1.000000
tan 0.000248 0.031496 1.000062 1.000000
tan -0.113026 0.680947 0.724285 1.000000
tan -0.006262 0.189038 0.984314 1.000000
tan 0.000310 0.039370 1.000062 1.000000
tan -0.078864 0.704569 0.705561 1.000000
tan -0.062248 0.983322 0.168640 1.000000
tan -0.070308 0.989708 0.171306 1.000000
tan 0.017422 0.997024 0.002356 1.000000
tan 0.000000 0.716535 0.700787 1.000000
tan 0.001550 0.196850 0.984314 1.000000
tan -0.033542 0.037510 0.996094 1.000000
tan 0.000000 0.716535 0.700787 1.000000
tan -0.081096 0.195610 0.975572 1.000000
tan -0.064480 0.055180 0.994482 1.000000
tan -0.109368 0.207019 0.969992 1.000000
tan -0.074400 0.731911 0.673321 1.000000
tan -0.046872 0.718705 0.684853 1.000000
tan -0.007750 0.984252 0.165354 1.000000
tan -0.007006 0.991072 0.150784 1.000000
tan -0.025172 0.989770 0.132246 1.000000
tan 0.007502 1.006944 0.002480 1.000000
tan -0.007750 0.984252 0.165354 1.000000
tan 0.000000 0.993552 -0.000000 1.000000
tan 0.009052 0.996094 0.006448 1.000000
tan -0.001488 0.994544 -0.132122 1.000000
tan -0.007812 1.000062 0.007936 1.000000
tan -0.000496 0.985802 -0.150970 1.000000
tan -0.064976 0.728811 -0.680885 1.000000
tan -0.007874 1.000000 -0.000000 1.000000
tan -0.007750 0.984252 -0.165354 1.000000
tan -0.040300 0.982206 -0.156674 1.000000
tan -0.035402 0.987414 -0.151094 1.000000
tan -0.007750 0.984252 -0.157480 1.000000
tan -0.037014 0.714675 -0.707049 1.000000
tan -0.005642 0.716535 -0.700849 1.000000
tan -0.023808 0.712381 -0.701841 1.000000
tan -0.004216 0.174220 -0.985802 1.000000
tan -0.023808 0.149792 -0.987042 1.000000
tan -0.027404 0.007254 -0.997024 1.000000
tan -0.019406 0.020646 -0.996094 1.000000
tan -0.001426 0.181102 -0.984314 1.000000
tan -0.000186 0.023622 -1.000062 1.000000
tan 0.000000 0.173228 -0.984252 1.000000
tan 0.000124 0.015748 -1.000062 1.000000
tan -0.037386 0.014570 -0.998760 1.000000
tan 0.000000 0.708661 -0.700787 1.000000
tan -0.076384 0.171926 -0.985740 1.000000
tan -0.071858 0.033480 -0.999566 1.000000
tan -0.106268 0.183520 -0.977122 1.000000
tan -0.048484 0.713311 -0.694401 1.000000
tan 0.150784 -0.991072 0.007006 1.000000
tan 0.134602 -0.989770 0.017732 1.000000
tan 0.271251 -0.963110 0.056358 1.000000
tan 0.298965 -0.955360 0.025172 1.000000
tan 0.000000 -0.992002 0.000000 1.000000
tan 0.165354 -0.984252 0.000000 1.000000
tan 0.314961 -0.944882 0.000000 1.000000
tan 0.000000 -0.993552 0.000000 1.000000
tan -0.120032 -0.994544 -0.038688 1.000000
tan 0.296857 -0.955360 -0.040052 1.000000
tan -0.139500 -0.985802 -0.022320 1.000000
tan -0.255069 -0.962552 -0.080104 1.000000
tan -0.289045 -0.958646 -0.043586 1.000000
tan 0.007874 -1.000000 0.000000 1.000000
tan -0.157480 -0.984314 0.001240 1.000000
tan -0.307087 -0.952818 0.002418 1.000000
tan -0.291711 -0.954802 0.016120 1.000000
tan -0.142104 -0.988344 0.008060 1.000000
tan -0.269205 -0.957406 0.034844 1.000000
tan -0.129704 -0.994544 0.008928 1.000000
tan 0.000000 -0.993552 0.000000 1.000000
tan 0.002480 -1.006944 0.007502 1.000000
tan 0.129890 -0.989770 -0.032612 1.000000
tan 0.148428 -0.991072 -0.022382 1.000000
tan 0.264741 -0.963110 -0.078120 1.000000
tan 0.127534 -0.994544 0.041106 1.000000
tan 0.147250 -0.983384 0.022382 1.000000
tan 0.260339 -0.960320 0.087544 1.000000
tan 0.304669 -0.956414 0.043524 1.000000
tan 0.000000 -0.996094 0.000000 1.000000
tan 0.000000 -0.997024 0.000000 1.000000
tan -0.142290 -0.994544 -0.021204 1.000000
tan 0.165354 -0.984252 0.000000 1.000000
tan 0.322835 -0.944882 0.000000 1.000000
tan 0.308017 -0.956414 -0.018786 1.000000
tan -0.157480 -0.985802 -0.009424 1.000000
tan -0.279001 -0.960010 -0.061008 1.000000
tan -0.306901 -0.957530 -0.028644 1.000000
tan 0.149730 -0.984562 -0.007006 1.000000
tan 0.275901 -0.960010 -0.044330 1.000000
tan 0.129704 -0.994544 -0.008928 1.000000
tan 0.000000 -1.000000 0.000000 1.000000
tan 0.000000 -0.993552 0.000000 1.000000
tan 0.000000 -0.992002 0.000000 1.000000
tan -0.122450 -0.994544 0.031248 1.000000
tan -0.165354 -0.984314 -0.001302 1.000000
tan -0.322835 -0.944944 -0.002542 1.000000
tan -0.296857 -0.954306 0.040052 1.000000
tan -0.148428 -0.991072 0.022382 1.000000
tan -0.262571 -0.960320 0.080290 1.000000
f 3/3/3 2/2/2 1/1/1
f 4/4/4 1/1/1 2/2/2
f 2/2/2 5/5/5 4/4/4
f 6/6/6 1/1/1 4/4/4
f 7/7/7 4/4/4 5/5/5
f 5/5/5 8/8/8 7/7/7
f 4/4/4 9/9/9 6/6/6
f 4/4/4 7/7/7 9/9/9
f 6/6/6 9/9/9 10/10/10
f 6/6/6 10/10/10 11/11/11
f 7/7/7 12/12/12 9/9/9
f 11/11/11 10/10/10 13/13/13
f 13/13/13 14/14/14 11/11/11
f 10/10/10 9/9/9 15/15/15
f 12/12/12 15/15/15 9/9/9
f 13/13/13 10/10/10 16/16/16
f 15/15/15 16/16/16 10/10/10
f 14/14/14 13/13/13 17/17/17
f 17/17/17 18/18/18 14/14/14
f 19/19/19 18/18/18 17/17/17
f 16/16/16 20/20/20 13/13/13
f 17/17/17 13/13/13 20/20/20
f 17/17/17 21/21/21 19/19/19
f 16/16/16 22/22/22 20/20/20
f 19/19/19 21/21/21 23/23/23
f 19/19/19 23/23/23 24/24/24
f 24/24/24 23/23/23 25/25/25
f 26/26/26 25/25/25 23/23/23
f 21/21/21 17/17/17 27/27/27
f 21/21/21 27/27/27 23/23/23
f 20/20/20 27/27/27 17/17/17
f 23/23/23 28/28/28 26/26/26
f 27/27/27 28/28/28 23/23/23
f 29/29/29 26/26/26 28/28/28
f 20/20/20 30/30/30 27/27/27
f 20/20/20 22/22/22 30/30/30
f 27/27/27 31/31/31 28/28/28
f 30/30/30 31/31/31 27/27/27
f 28/28/28 32/32/32 29/29/29
f 31/31/31 32/32/32 28/28/28
f 33/33/33 29/29/29 32/32/32
f 31/31/31 34/34/34 32/32/32
f 32/32/32 35/35/35 33/33/33
f 34/34/34 35/35/35 32/32/32
f 36/36/36 33/33/33 35/35/35
f 36/36/36 35/35/35 37/37/37
f 38/38/38 37/37/37 35/35/35
f 35/35/35 39/39/39 38/38/38
f 34/34/34 39/39/39 35/35/35
f 40/40/40 34/34/34 31/31/31
f 34/34/34 40/40/40 39/39/39
f 30/30/30 40/40/40 31/31/31
f 41/41/41 39/39/39 40/40/40
f 41/41/41 40/40/40 42/42/42
f 30/30/30 43/43/43 40/40/40
f 43/43/43 42/42/42 40/40/40
f 22/22/22 43/43/43 30/30/30
f 43/43/43 44/44/44 42/42/42
f 45/45/45 42/42/42 44/44/44
f 22/22/22 46/46/46 43/43/43
f 44/44/44 43/43/43 46/46/46
f 22/22/22 16/16/16 46/46/46
f 15/15/15 46/46/46 16/16/16
f 45/45/45 44/44/44 47/47/47
f 48/48/48 46/46/46 15/15/15
f 46/46/46 48/48/48 44/44/44
f 12/12/12 48/48/48 15/15/15
f 49/49/49 47/47/47 44/44/44
f 49/49/49 44/44/44 48/48/48
f 50/50/50 48/48/48 12/12/12
f 48/48/48 50/50/50 49/49/49
f 7/7/7 50/50/50 12/12/12
f 50/50/50 7/7/7 8/8/8
f 49/49/49 51/51/51 47/47/47
f 51/51/51 49/49/49 50/50/50
f 50/50/50 8/8/8 51/51/51
f 52/52/52 47/47/47 51/51/51
f 53/53/53 51/51/51 8/8/8
f 52/52/52 51/51/51 54/54/54
f 53/53/53 54/54/54 51/51/51
f 57/57/57 56/56/56 55/55/55
f 55/55/55 58/58/58 57/57/57
f 57/57/57 58/58/58 59/59/59
f 60/60/60 58/58/58 55/55/55
f 61/61/61 59/59/59 58/58/58
f 59/59/59 61/61/61 62/62/62
f 60/60/60 63/63/63 58/58/58
f 58/58/58 63/63/63 61/61/61
f 63/63/63 60/60/60 64/64/64
f 65/65/65 64/64/64 60/60/60
f 65/65/65 66/66/66 64/64/64
f 67/67/67 61/61/61 63/63/63
f 63/63/63 64/64/64 67/67/67
f 68/68/68 62/62/62 61/61/61
f 68/68/68 69/69/69 62/62/62
f 67/67/67 70/70/70 61/61/61
f 68/68/68 61/61/61 70/70/70
f 68/68/68 71/71/71 69/69/69
f 68/68/68 70/70/70 71/71/71
f 69/69/69 71/71/71 72/72/72
f 73/73/73 72/72/72 71/71/71
f 73/73/73 71/71/71 74/74/74
f 75/75/75 71/71/71 70/70/70
f 75/75/75 74/74/74 71/71/71
f 70/70/70 76/76/76 75/75/75
f 70/70/70 67/67/67 76/76/76
f 74/74/74 75/75/75 77/77/77
f 77/77/77 75/75/75 76/76/76
f 74/74/74 77/77/77 78/78/78
f 78/78/78 77/77/77 79/79/79
f 80/80/80 76/76/76 67/67/67
f 80/80/80 67/67/67 64/64/64
f 81/81/81 79/79/79 77/77/77
f 77/77/77 76/76/76 81/81/81
f 64/64/64 82/82/82 80/80/80
f 82/82/82 64/64/64 66/66/66
f 66/66/66 83/83/83 82/82/82
f 80/80/80 84/84/84 76/76/76
f 84/84/84 80/80/80 82/82/82
f 85/85/85 82/82/82 83/83/83
f 82/82/82 85/85/85 84/84/84
f 83/83/83 86/86/86 85/85/85
f 87/87/87 76/76/76 84/84/84
f 76/76/76 87/87/87 81/81/81
f 88/88/88 84/84/84 85/85/85
f 81/81/81 87/87/87 89/89/89
f 79/79/79 81/81/81 89/89/89
f 89/89/89 90/90/90 79/79/79
f 87/87/87 84/84/84 91/91/91
f 89/89/89 87/87/87 91/91/91
f 91/91/91 84/84/84 88/88/88
f 92/92/92 90/90/90 89/89/89
f 91/91/91 88/88/88 93/93/93
f 91/91/91 93/93/93 89/89/89
f 89/89/89 94/94/94 92/92/92
f 94/94/94 89/89/89 93/93/93
f 94/94/94 95/95/95 92/92/92
f 95/95/95 94/94/94 93/93/93
f 96/96/96 92/92/92 95/95/95
f 96/96/96 95/95/95 97/97/97
f 98/98/98 97/97/97 95/95/95
f 95/95/95 99/99/99 98/98/98
f 99/99/99 95/95/95 93/93/93
f 100/100/100 98/98/98 99/99/99
f 101/101/101 100/100/100 99/99/99
f 99/99/99 93/93/93 101/101/101
f 102/102/102 100/100/100 101/101/101
f 102/102/102 101/101/101 103/103/103
f 104/104/104 101/101/101 93/93/93
f 88/88/88 104/104/104 93/93/93
f 105/105/105 103/103/103 101/101/101
f 101/101/101 104/104/104 105/105/105
f 106/106/106 103/103/103 105/105/105
f 105/105/105 107/107/107 106/106/106
f 86/86/86 107/107/107 105/105/105
f 104/104/104 88/88/88 108/108/108
f 108/108/108 105/105/105 104/104/104
f 105/105/105 108/108/108 86/86/86
f 85/85/85 108/108/108 88/88/88
f 108/108/108 85/85/85 86/86/86
f 111/111/111 110/110/110 109/109/109
f 109/109/109 112/112/112 111/111/111
f 109/109/109 110/110/110 113/113/113
f 109/109/109 114/114/114 112/112/112
f 114/114/114 115/115/115 112/112/112
f 113/113/113 116/116/116 109/109/109
f 109/109/109 116/116/116 114/114/114
f 116/116/116 113/113/113 117/117/117
f 115/115/115 114/114/114 118/118/118
f 117/117/117 119/119/119 116/116/116
f 120/120/120 119/119/119 117/117/117
f 120/120/120 121/121/121 119/119/119
f 116/116/116 119/119/119 122/122/122
f 122/122/122 114/114/114 116/116/116
f 119/119/119 121/121/121 123/123/123
f 123/123/123 122/122/122 119/119/119
f 124/124/124 123/123/123 121/121/121
f 123/123/123 124/124/124 125/125/125
f 125/125/125 126/126/126 123/123/123
f 123/123/123 126/126/126 122/122/122
f 125/125/125 127/127/127 126/126/126
f 126/126/126 127/127/127 128/128/128
f 126/126/126 129/129/129 122/122/122
f 126/126/126 128/128/128 129/129/129
f 122/122/122 129/129/129 114/114/114
f 130/130/130 129/129/129 128/128/128
f 130/130/130 131/131/131 129/129/129
f 132/132/132 114/114/114 129/129/129
f 132/132/132 129/129/129 131/131/131
f 132/132/132 118/118/118 114/114/114
f 131/131/131 133/133/133 132/132/132
f 118/118/118 132/132/132 133/133/133
f 136/136/136 135/135/135 134/134/134
f 136/136/136 137/137/137 135/135/135
f 134/134/134 135/135/135 138/138/138
f 138/138/138 139/139/139 134/134/134
f 139/139/139 138/138/138 140/140/140
f 135/135/135 137/137/137 141/141/141
f 135/135/135 141/141/141 138/138/138
f 142/142/142 141/141/141 137/137/137
f 141/141/141 142/142/142 143/143/143
f 144/144/144 140/140/140 138/138/138
f 145/145/145 140/140/140 144/144/144
f 144/144/144 146/146/146 145/145/145
f 143/143/143 147/147/147 141/141/141
f 143/143/143 148/148/148 147/147/147
f 147/147/147 148/148/148 149/149/149
f 141/141/141 150/150/150 138/138/138
f 141/141/141 147/147/147 150/150/150
f 138/138/138 150/150/150 144/144/144
f 147/147/147 149/149/149 151/151/151
f 147/147/147 151/151/151 150/150/150
f 152/152/152 151/151/151 149/149/149
f 152/152/152 153/153/153 151/151/151
f 144/144/144 150/150/150 154/154/154
f 144/144/144 154/154/154 146/146/146
f 154/154/154 155/155/155 146/146/146
f 155/155/155 154/154/154 156/156/156
f 151/151/151 157/157/157 150/150/150
f 154/154/154 150/150/150 157/157/157
f 157/157/157 151/151/151 153/153/153
f 157/157/157 156/156/156 154/154/154
f 153/153/153 158/158/158 157/157/157
f 156/156/156 157/157/157 158/158/158
