mtllib SM_Column_01.mtl
g SM_Column_01
#Vertices 111
#Indices 330
#Section 0 Offset 0 NumIndices 240 MaterialIndex 0 MI_Metal_Rusty_01
#Section 1 Offset 240 NumIndices 90 MaterialIndex 1 MI_Ground_Concrete
v -0.047988 0.139537 0.051996
v 0.047988 3.213983 0.051995
v 0.047989 0.139537 0.051995
v -0.047989 3.213983 0.051995
v -0.051996 0.139537 0.047988
v -0.051996 3.213983 0.047988
v -0.051996 3.213983 -0.047989
v -0.051996 0.139537 -0.047989
v -0.047989 3.213983 -0.051997
v -0.047988 0.139537 -0.051996
v 0.047988 3.213983 -0.051997
v 0.047989 0.139537 -0.051997
v 0.051996 3.213983 -0.047990
v 0.051997 0.139537 -0.047990
v 0.051996 3.213983 0.047987
v 0.051997 0.139537 0.047988
v 0.047989 0.139537 0.051995
v 0.047988 3.213983 0.051995
v -0.051996 0.139537 0.047988
v -0.054725 0.133098 -0.049876
v -0.051996 0.139537 -0.047989
v -0.054725 0.133098 0.049876
v -0.084482 0.103404 -0.079633
v -0.084482 0.103404 0.079634
v -0.087210 0.096965 -0.083201
v -0.087210 0.096965 0.083202
v -0.087209 0.000000 0.083202
v -0.087210 -0.000000 -0.083202
v -0.047988 0.139537 -0.051996
v 0.049877 0.133098 -0.054725
v 0.047989 0.139537 -0.051997
v -0.049876 0.133098 -0.054725
v -0.051996 0.139537 -0.047989
v 0.079634 0.103404 -0.084482
v -0.054725 0.133098 -0.049876
v -0.079633 0.103404 -0.084481
v 0.083203 0.096965 -0.087211
v -0.084482 0.103404 -0.079633
v -0.083202 -0.000000 -0.087210
v 0.083203 -0.000000 -0.087211
v -0.083202 0.096965 -0.087209
v -0.087210 0.096965 -0.083201
v -0.087210 -0.000000 -0.083202
v 0.087211 0.096965 0.083201
v 0.087210 -0.000000 -0.083203
v 0.087211 0.000000 0.083201
v 0.083203 0.096965 -0.087211
v 0.083203 -0.000000 -0.087211
v 0.087210 0.096965 -0.083203
v 0.084482 0.103404 0.079632
v 0.079634 0.103404 -0.084482
v 0.084482 0.103404 -0.079634
v 0.049877 0.133098 -0.054725
v 0.054725 0.133098 -0.049877
v 0.054725 0.133098 0.049875
v 0.051997 0.139537 0.047988
v 0.051997 0.139537 -0.047990
v 0.047989 0.139537 -0.051997
v 0.087211 0.096965 0.083201
v 0.087211 0.000000 0.083201
v 0.083203 0.000000 0.087209
v 0.083203 0.096965 0.087209
v -0.083202 0.000000 0.087209
v 0.079634 0.103404 0.084481
v 0.084482 0.103404 0.079632
v -0.083202 0.096965 0.087211
v 0.049877 0.133098 0.054724
v 0.054725 0.133098 0.049875
v 0.051997 0.139537 0.047988
v 0.047989 0.139537 0.051995
v -0.047988 0.139537 0.051996
v -0.079633 0.103404 0.084482
v -0.049876 0.133098 0.054725
v -0.051996 0.139537 0.047988
v -0.054725 0.133098 0.049876
v -0.084482 0.103404 0.079634
v -0.087210 0.096965 0.083202
v -0.087209 0.000000 0.083202
v 0.158271 -0.000000 -0.166601
v -0.158271 0.013135 -0.166601
v -0.158271 -0.000000 -0.166601
v 0.158271 0.013135 -0.166601
v -0.158271 0.018135 -0.158271
v 0.158271 0.018135 -0.158271
v -0.158271 0.018135 0.158271
v 0.158271 0.018135 0.158271
v -0.158271 0.013135 0.166601
v 0.158271 0.013135 0.166601
v -0.158271 0.000000 0.166601
v 0.158271 0.000000 0.166601
v 0.158271 0.013135 0.166601
v 0.166601 0.000000 0.158271
v 0.158271 0.000000 0.166601
v 0.166601 0.013135 0.158271
v 0.158271 0.013135 0.166601
v 0.158271 0.018135 0.158271
v 0.158271 0.018135 -0.158271
v 0.166601 0.013135 -0.158271
v 0.166601 -0.000000 -0.158271
v 0.158271 0.013135 -0.166601
v 0.158271 -0.000000 -0.166601
v -0.158271 0.013135 -0.166601
v -0.166601 -0.000000 -0.158271
v -0.158271 -0.000000 -0.166601
v -0.166601 0.013135 -0.158271
v -0.158271 0.018135 -0.158271
v -0.158271 0.018135 0.158271
v -0.166601 0.013135 0.158271
v -0.166601 0.000000 0.158271
v -0.158271 0.013135 0.166601
v -0.158271 0.000000 0.166601
vt 0.071838 0.014160
vt 0.024063 1.542480
vt 0.024063 0.014160
vt 0.071838 1.542480
vt 0.074951 0.014160
vt 0.074951 1.542480
vt 0.123108 1.542480
vt 0.123108 0.014160
vt 0.126343 1.542480
vt 0.126343 0.014160
vt 0.174561 1.542480
vt 0.174561 0.014160
vt 0.177734 1.542480
vt 0.177734 0.014160
vt 0.225708 1.542480
vt 0.225708 0.014160
vt 0.228638 0.014160
vt 0.228638 1.542480
vt 0.445312 0.315918
vt 0.493896 0.312500
vt 0.493164 0.315918
vt 0.444336 0.312500
vt 0.508789 0.291504
vt 0.429688 0.291504
vt 0.510254 0.288086
vt 0.427734 0.288086
vt 0.427734 0.239746
vt 0.510254 0.239746
vt 0.462646 0.448730
vt 0.511230 0.445312
vt 0.510254 0.448730
vt 0.461426 0.445312
vt 0.460205 0.449707
vt 0.525879 0.424316
vt 0.458496 0.446777
vt 0.446777 0.424316
vt 0.527832 0.420898
vt 0.443848 0.425781
vt 0.444824 0.373047
vt 0.527344 0.372559
vt 0.445068 0.420898
vt 0.442383 0.421387
vt 0.442139 0.373047
vt 0.620605 0.323730
vt 0.537598 0.275879
vt 0.620605 0.275879
vt 0.535156 0.324219
vt 0.535156 0.275879
vt 0.537598 0.323730
vt 0.618652 0.327148
vt 0.536621 0.328613
vt 0.539551 0.327148
vt 0.551270 0.349609
vt 0.554199 0.348145
vt 0.604004 0.348145
vt 0.603027 0.351562
vt 0.555176 0.351562
vt 0.552734 0.353027
vt 0.281982 0.333008
vt 0.281738 0.284180
vt 0.284668 0.284180
vt 0.284668 0.332031
vt 0.367432 0.284180
vt 0.286377 0.335449
vt 0.283447 0.336914
vt 0.367432 0.332031
vt 0.301025 0.356445
vt 0.298096 0.357910
vt 0.299805 0.360840
vt 0.302246 0.359863
vt 0.349854 0.359863
vt 0.365723 0.335449
vt 0.350830 0.356445
vt 0.352051 0.360840
vt 0.354004 0.357910
vt 0.368652 0.336914
vt 0.370117 0.333008
vt 0.370361 0.284180
vt 0.658691 0.718994
vt 0.665039 0.876404
vt 0.658691 0.876404
vt 0.665039 0.718994
vt 0.669922 0.876404
vt 0.669922 0.718994
vt 0.827637 0.876404
vt 0.827637 0.718994
vt 0.832031 0.876404
vt 0.832031 0.718994
vt 0.838867 0.876404
vt 0.838867 0.718994
vt 0.819336 0.682129
vt 0.827148 0.677490
vt 0.825684 0.683350
vt 0.820801 0.676758
vt 0.819336 0.682129
vt 0.816406 0.677490
vt 0.816406 0.519043
vt 0.820801 0.519775
vt 0.827148 0.519043
vt 0.819336 0.514404
vt 0.825684 0.513184
vt 0.663574 0.514404
vt 0.655273 0.519043
vt 0.656738 0.513184
vt 0.661621 0.519775
vt 0.666504 0.519043
vt 0.666504 0.677490
vt 0.661621 0.676758
vt 0.655273 0.677490
vt 0.663574 0.682129
vt 0.656738 0.683350
vt1 0.060791 0.115723
vt1 0.938965 0.143066
vt1 0.060791 0.143066
vt1 0.938965 0.115723
vt1 0.060791 0.114258
vt1 0.938965 0.114258
vt1 0.938965 0.086426
vt1 0.060791 0.086426
vt1 0.938965 0.084473
vt1 0.060791 0.084473
vt1 0.938965 0.056641
vt1 0.060791 0.056641
vt1 0.938965 0.055176
vt1 0.060791 0.055176
vt1 0.938965 0.027344
vt1 0.060791 0.027344
vt1 0.060791 0.025879
vt1 0.938965 0.025879
vt1 0.540039 0.739746
vt1 0.538086 0.709229
vt1 0.540039 0.709717
vt1 0.538086 0.740234
vt1 0.524902 0.699951
vt1 0.524902 0.749512
vt1 0.522461 0.698730
vt1 0.522461 0.750732
vt1 0.492432 0.750732
vt1 0.492432 0.698730
vt1 0.480225 0.477539
vt1 0.478027 0.446777
vt1 0.480225 0.447266
vt1 0.478027 0.478027
vt1 0.480957 0.479004
vt1 0.464844 0.437500
vt1 0.479248 0.479980
vt1 0.464844 0.487305
vt1 0.462646 0.436523
vt1 0.465820 0.489258
vt1 0.432617 0.488281
vt1 0.432373 0.436523
vt1 0.462891 0.488281
vt1 0.463135 0.490234
vt1 0.432861 0.490234
vt1 0.810547 0.434082
vt1 0.780273 0.485840
vt1 0.780273 0.434082
vt1 0.811035 0.487305
vt1 0.780273 0.487793
vt1 0.810547 0.485840
vt1 0.812500 0.435059
vt1 0.813477 0.486816
vt1 0.812500 0.484863
vt1 0.826660 0.477539
vt1 0.825684 0.475586
vt1 0.825684 0.444336
vt1 0.828125 0.444824
vt1 0.828125 0.475098
vt1 0.828613 0.476562
vt1 0.106384 0.463379
vt1 0.075867 0.463379
vt1 0.075806 0.461426
vt1 0.106018 0.461426
vt1 0.075806 0.409668
vt1 0.108032 0.460449
vt1 0.109009 0.462402
vt1 0.106018 0.409668
vt1 0.121216 0.451172
vt1 0.122314 0.453125
vt1 0.124146 0.452148
vt1 0.123352 0.450684
vt1 0.123352 0.420410
vt1 0.108032 0.410645
vt1 0.121216 0.419922
vt1 0.124146 0.418945
vt1 0.122253 0.417969
vt1 0.109009 0.408691
vt1 0.106384 0.407715
vt1 0.075867 0.407715
vt1 0.267090 0.649658
vt1 0.148560 0.653564
vt1 0.146973 0.649658
vt1 0.265625 0.653564
vt1 0.148682 0.656250
vt1 0.265381 0.656250
vt1 0.148682 0.773071
vt1 0.265381 0.773071
vt1 0.148560 0.775879
vt1 0.265625 0.775879
vt1 0.146973 0.779663
vt1 0.267090 0.779663
vt1 0.265625 0.775879
vt1 0.271973 0.774780
vt1 0.267090 0.779663
vt1 0.268311 0.773193
vt1 0.265625 0.775879
vt1 0.265381 0.773071
vt1 0.265381 0.656250
vt1 0.268311 0.656250
vt1 0.271973 0.654541
vt1 0.265625 0.653564
vt1 0.267090 0.649658
vt1 0.148560 0.653564
vt1 0.142090 0.654541
vt1 0.146973 0.649658
vt1 0.145874 0.656250
vt1 0.148682 0.656250
vt1 0.148682 0.773071
vt1 0.145874 0.773193
vt1 0.142090 0.774780
vt1 0.148560 0.775879
vt1 0.146973 0.779663
vn -0.039370 0.000000 1.000000
vn 0.039370 0.000000 1.000000
vn 0.039370 0.000000 1.000000
vn -0.039370 0.000000 1.000000
vn -1.000000 0.000000 0.039370
vn -1.000000 0.000000 0.039370
vn -1.000000 -0.000000 -0.039370
vn -1.000000 -0.000000 -0.039370
vn -0.039370 -0.000000 -1.000000
vn -0.039370 -0.000000 -1.000000
vn 0.039370 -0.000000 -1.000000
vn 0.039370 -0.000000 -1.000000
vn 1.000000 -0.000000 -0.039370
vn 1.000000 -0.000000 -0.039370
vn 1.000000 0.000000 0.039370
vn 1.000000 0.000000 0.039370
vn 0.039370 0.000000 1.000000
vn 0.039370 0.000000 1.000000
vn -1.000000 0.000000 0.039370
vn -0.716535 0.700787 -0.015748
vn -1.000000 -0.000000 -0.039370
vn -0.716535 0.692913 0.023622
vn -0.763780 0.645669 -0.031496
vn -0.771654 0.637795 0.039370
vn -1.000000 0.023622 -0.023622
vn -1.000000 0.023622 0.023622
vn -1.000000 -0.039370 0.023622
vn -1.000000 -0.039370 -0.023622
vn -0.039370 -0.000000 -1.000000
vn 0.015748 0.700787 -0.716535
vn 0.039370 -0.000000 -1.000000
vn -0.023622 0.692913 -0.716535
vn -1.000000 -0.000000 -0.039370
vn 0.031496 0.645669 -0.763779
vn -0.716535 0.700787 -0.015748
vn -0.039370 0.637795 -0.771653
vn 0.023622 0.023622 -1.000000
vn -0.763780 0.645669 -0.031496
vn -0.023622 -0.039370 -1.000000
vn 0.023622 -0.039370 -1.000000
vn -0.023622 0.023622 -1.000000
vn -1.000000 0.023622 -0.023622
vn -1.000000 -0.039370 -0.023622
vn 1.000000 0.023622 0.023622
vn 1.000000 -0.039370 -0.023622
vn 1.000000 -0.039370 0.023622
vn 0.023622 0.023622 -1.000000
vn 0.023622 -0.039370 -1.000000
vn 1.000000 0.023622 -0.023622
vn 0.763780 0.645669 0.031496
vn 0.031496 0.645669 -0.763779
vn 0.771654 0.637795 -0.039370
vn 0.015748 0.700787 -0.716535
vn 0.716535 0.692913 -0.023622
vn 0.716535 0.700787 0.015748
vn 1.000000 0.000000 0.039370
vn 1.000000 -0.000000 -0.039370
vn 0.039370 -0.000000 -1.000000
vn 1.000000 0.023622 0.023622
vn 1.000000 -0.039370 0.023622
vn 0.023622 -0.039370 1.000000
vn 0.023622 0.023622 1.000000
vn -0.023622 -0.039370 1.000000
vn 0.039370 0.637795 0.771653
vn 0.763780 0.645669 0.031496
vn -0.023622 0.023622 1.000000
vn 0.023622 0.692913 0.716535
vn 0.716535 0.700787 0.015748
vn 1.000000 0.000000 0.039370
vn 0.039370 0.000000 1.000000
vn -0.039370 0.000000 1.000000
vn -0.031496 0.645669 0.763779
vn -0.015748 0.700787 0.716535
vn -1.000000 0.000000 0.039370
vn -0.716535 0.692913 0.023622
vn -0.771654 0.637795 0.039370
vn -1.000000 0.023622 0.023622
vn -1.000000 -0.039370 0.023622
vn 0.023622 -0.000000 -1.000000
vn -0.023622 0.267716 -0.960630
vn -0.023622 -0.000000 -1.000000
vn 0.023622 0.267716 -0.960630
vn -0.023622 1.000000 -0.023622
vn 0.023622 1.000000 -0.023622
vn -0.023622 1.000000 0.023622
vn 0.023622 1.000000 0.023622
vn -0.023622 0.267717 0.960630
vn 0.023622 0.267717 0.960630
vn -0.023622 0.000000 1.000000
vn 0.023622 0.000000 1.000000
vn 0.023622 0.267717 0.960630
vn 1.000000 0.000000 0.023622
vn 0.023622 0.000000 1.000000
vn 0.960630 0.267716 0.023622
vn 0.023622 0.267717 0.960630
vn 0.023622 1.000000 0.023622
vn 0.023622 1.000000 -0.023622
vn 0.960630 0.267716 -0.023622
vn 1.000000 -0.000000 -0.023622
vn 0.023622 0.267716 -0.960630
vn 0.023622 -0.000000 -1.000000
vn -0.023622 0.267716 -0.960630
vn -1.000000 -0.000000 -0.023622
vn -0.023622 -0.000000 -1.000000
vn -0.960630 0.267716 -0.023622
vn -0.023622 1.000000 -0.023622
vn -0.023622 1.000000 0.023622
vn -0.960630 0.267716 0.023622
vn -1.000000 0.000000 0.023622
vn -0.023622 0.267717 0.960630
vn -0.023622 0.000000 1.000000
tan 0.000000 -1.001550 0.000000 1.000000
tan 0.000000 -1.001550 0.000000 1.000000
tan 0.000000 -1.001550 0.000000 1.000000
tan 0.000000 -1.001550 0.000000 1.000000
tan 0.000000 -1.001550 0.000000 1.000000
tan 0.000000 -1.001550 0.000000 1.000000
tan 0.000000 -1.001550 0.000000 1.000000
tan 0.000000 -1.001550 0.000000 1.000000
tan 0.000000 -1.001550 0.000000 1.000000
tan 0.000000 -1.001550 0.000000 1.000000
tan 0.000000 -1.001550 0.000000 1.000000
tan 0.000000 -1.001550 0.000000 1.000000
tan 0.000000 -1.001550 0.000000 1.000000
tan 0.000000 -1.001550 0.000000 1.000000
tan 0.000000 -1.001550 0.000000 1.000000
tan 0.000000 -1.001550 0.000000 1.000000
tan 0.000000 -1.001550 0.000000 1.000000
tan 0.000000 -1.001550 0.000000 1.000000
tan 0.000000 -1.001550 0.000000 1.000000
tan -0.701035 -0.716783 0.000248 1.000000
tan 0.000000 -1.001550 0.000000 1.000000
tan -0.693285 -0.716907 -0.000372 1.000000
tan -0.646165 -0.764523 -0.003224 1.000000
tan -0.638725 -0.772893 0.001860 1.000000
tan -0.023622 -1.000558 -0.000558 1.000000
tan -0.023622 -1.000558 0.000558 1.000000
tan 0.039370 -1.000558 -0.000930 1.000000
tan 0.039370 -1.000558 0.000930 1.000000
tan 0.181102 -0.985802 -0.007130 1.000000
tan -0.000248 -0.716783 -0.701035 1.000000
tan 0.000000 -1.001550 0.000000 1.000000
tan -0.005084 -0.717093 -0.693285 1.000000
tan 0.024800 -0.780768 -0.629921 1.000000
tan 0.003224 -0.764523 -0.646165 1.000000
tan -0.265609 -0.292269 -0.920764 1.000000
tan 0.003162 -0.772583 -0.638725 1.000000
tan 0.000558 -1.000558 -0.023622 1.000000
tan -0.299709 -0.396987 -0.870296 1.000000
tan 0.048174 -1.000558 0.038254 1.000000
tan 0.006944 -1.000558 0.039556 1.000000
tan 0.141174 -0.992684 -0.026784 1.000000
tan -0.016926 -0.969248 -0.252712 1.000000
tan 0.039556 -1.000558 -0.006944 1.000000
tan 0.023622 -1.000558 0.000558 1.000000
tan -0.038254 -1.000558 0.048174 1.000000
tan -0.039370 -1.000558 -0.000930 1.000000
tan 0.244838 -0.969248 -0.017112 1.000000
tan 0.006944 -1.000558 0.039556 1.000000
tan 0.026784 -0.992684 0.141174 1.000000
tan 0.646165 -0.764523 0.003224 1.000000
tan 0.864282 -0.403001 -0.305041 1.000000
tan 0.638725 -0.772893 -0.001860 1.000000
tan 0.915122 -0.303553 -0.276769 1.000000
tan 0.693285 -0.717093 -0.005084 1.000000
tan 0.701035 -0.716783 -0.000248 1.000000
tan 0.000000 -1.001550 0.000000 1.000000
tan 0.007750 -0.977928 0.196850 1.000000
tan 0.614173 -0.788641 0.024180 1.000000
tan 0.013950 -0.937752 0.347201 1.000000
tan -0.039370 -1.000558 -0.000930 1.000000
tan -0.048174 -1.000558 -0.038254 1.000000
tan -0.133300 -0.992684 0.026598 1.000000
tan 0.048174 -1.000558 -0.038254 1.000000
tan 0.041230 -0.773823 0.637485 1.000000
tan 0.284209 -0.379193 0.881394 1.000000
tan 0.133300 -0.992684 0.026598 1.000000
tan 0.005084 -0.717093 0.693285 1.000000
tan 0.265609 -0.292268 0.920764 1.000000
tan -0.024800 -0.780767 0.629921 1.000000
tan -0.181102 -0.985802 0.007130 1.000000
tan 0.181102 -0.985802 0.007130 1.000000
tan -0.047616 -0.765515 0.645173 1.000000
tan -0.005394 -0.716783 0.700911 1.000000
tan 0.024800 -0.780767 0.629921 1.000000
tan -0.262819 -0.302994 0.915680 1.000000
tan -0.280303 -0.393267 0.876992 1.000000
tan -0.013950 -0.937752 0.347201 1.000000
tan 0.039370 -1.000558 -0.000930 1.000000
tan 1.000000 0.000000 0.023622 1.000000
tan 0.994482 0.013888 -0.020584 1.000000
tan 1.000000 -0.000000 -0.023622 1.000000
tan 0.994482 -0.013888 0.020584 1.000000
tan 1.000558 0.023436 -0.008432 1.000000
tan 1.000558 -0.023436 0.008432 1.000000
tan 1.000558 0.023436 0.008432 1.000000
tan 1.000558 -0.023436 -0.008432 1.000000
tan 0.994482 0.013888 0.020584 1.000000
tan 0.994482 -0.013888 -0.020584 1.000000
tan 1.000000 0.000000 0.023622 1.000000
tan 1.000000 -0.000000 -0.023622 1.000000
tan 0.992374 0.099758 -0.052204 1.000000
tan 0.023436 0.102362 -0.992126 1.000000
tan 0.992126 0.149606 -0.023436 1.000000
tan 0.029016 -0.016554 -0.992374 1.000000
tan 0.572881 0.783495 -0.232439 1.000000
tan 0.158224 0.019530 -0.984996 1.000000
tan -0.158224 -0.019530 -0.984996 1.000000
tan -0.026908 0.008804 -0.994482 1.000000
tan -0.023622 -0.078740 -1.000000 1.000000
tan -0.868374 -0.463761 -0.150598 1.000000
tan -0.992126 -0.102362 -0.023436 1.000000
tan 0.893174 -0.425755 -0.140616 1.000000
tan 0.023436 -0.102362 -0.992126 1.000000
tan 0.992126 -0.149606 -0.023436 1.000000
tan 0.029016 0.016554 -0.992374 1.000000
tan 0.158224 -0.019530 -0.984996 1.000000
tan -0.158224 0.019530 -0.984996 1.000000
tan -0.026908 -0.008804 -0.994482 1.000000
tan -0.023622 0.078740 -1.000000 1.000000
tan -0.868374 0.463761 -0.150598 1.000000
tan -0.992126 0.102362 -0.023436 1.000000
f 3/3/3 2/2/2 1/1/1
f 4/4/4 1/1/1 2/2/2
f 5/5/5 1/1/1 4/4/4
f 4/4/4 6/6/6 5/5/5
f 7/7/7 5/5/5 6/6/6
f 8/8/8 5/5/5 7/7/7
f 7/7/7 9/9/9 8/8/8
f 10/10/10 8/8/8 9/9/9
f 11/11/11 10/10/10 9/9/9
f 12/12/12 10/10/10 11/11/11
f 11/11/11 13/13/13 12/12/12
f 14/14/14 12/12/12 13/13/13
f 15/15/15 14/14/14 13/13/13
f 16/16/16 14/14/14 15/15/15
f 17/17/17 16/16/16 15/15/15
f 15/15/15 18/18/18 17/17/17
f 21/21/21 20/20/20 19/19/19
f 22/22/22 19/19/19 20/20/20
f 20/20/20 23/23/23 22/22/22
f 24/24/24 22/22/22 23/23/23
f 23/23/23 25/25/25 24/24/24
f 26/26/26 24/24/24 25/25/25
f 25/25/25 27/27/27 26/26/26
f 28/28/28 27/27/27 25/25/25
f 31/31/31 30/30/30 29/29/29
f 32/32/32 29/29/29 30/30/30
f 29/29/29 32/32/32 33/33/33
f 30/30/30 34/34/34 32/32/32
f 35/35/35 33/33/33 32/32/32
f 36/36/36 32/32/32 34/34/34
f 32/32/32 36/36/36 35/35/35
f 34/34/34 37/37/37 36/36/36
f 38/38/38 35/35/35 36/36/36
f 40/40/40 39/39/39 37/37/37
f 36/36/36 41/41/41 38/38/38
f 41/41/41 36/36/36 37/37/37
f 41/41/41 37/37/37 39/39/39
f 42/42/42 38/38/38 41/41/41
f 39/39/39 43/43/43 41/41/41
f 42/42/42 41/41/41 43/43/43
f 46/46/46 45/45/45 44/44/44
f 48/48/48 47/47/47 45/45/45
f 44/44/44 45/45/45 49/49/49
f 49/49/49 45/45/45 47/47/47
f 44/44/44 49/49/49 50/50/50
f 49/49/49 47/47/47 51/51/51
f 51/51/51 52/52/52 49/49/49
f 49/49/49 52/52/52 50/50/50
f 52/52/52 51/51/51 53/53/53
f 52/52/52 54/54/54 50/50/50
f 53/53/53 54/54/54 52/52/52
f 55/55/55 50/50/50 54/54/54
f 56/56/56 55/55/55 54/54/54
f 57/57/57 56/56/56 54/54/54
f 54/54/54 53/53/53 57/57/57
f 57/57/57 53/53/53 58/58/58
f 61/61/61 60/60/60 59/59/59
f 59/59/59 62/62/62 61/61/61
f 61/61/61 62/62/62 63/63/63
f 64/64/64 62/62/62 59/59/59
f 64/64/64 59/59/59 65/65/65
f 66/66/66 63/63/63 62/62/62
f 64/64/64 65/65/65 67/67/67
f 68/68/68 67/67/67 65/65/65
f 68/68/68 69/69/69 67/67/67
f 70/70/70 67/67/67 69/69/69
f 70/70/70 71/71/71 67/67/67
f 62/62/62 64/64/64 72/72/72
f 64/64/64 67/67/67 72/72/72
f 66/66/66 62/62/62 72/72/72
f 71/71/71 73/73/73 67/67/67
f 73/73/73 72/72/72 67/67/67
f 74/74/74 73/73/73 71/71/71
f 74/74/74 75/75/75 73/73/73
f 73/73/73 75/75/75 72/72/72
f 76/76/76 72/72/72 75/75/75
f 76/76/76 77/77/77 72/72/72
f 66/66/66 72/72/72 77/77/77
f 66/66/66 77/77/77 63/63/63
f 78/78/78 63/63/63 77/77/77
f 81/81/81 80/80/80 79/79/79
f 82/82/82 79/79/79 80/80/80
f 83/83/83 82/82/82 80/80/80
f 82/82/82 83/83/83 84/84/84
f 83/83/83 85/85/85 84/84/84
f 86/86/86 84/84/84 85/85/85
f 85/85/85 87/87/87 86/86/86
f 88/88/88 86/86/86 87/87/87
f 87/87/87 89/89/89 88/88/88
f 90/90/90 88/88/88 89/89/89
f 93/93/93 92/92/92 91/91/91
f 92/92/92 94/94/94 91/91/91
f 96/96/96 95/95/95 94/94/94
f 94/94/94 97/97/97 96/96/96
f 94/94/94 92/92/92 98/98/98
f 98/98/98 97/97/97 94/94/94
f 99/99/99 98/98/98 92/92/92
f 97/97/97 98/98/98 100/100/100
f 99/99/99 101/101/101 98/98/98
f 101/101/101 100/100/100 98/98/98
f 104/104/104 103/103/103 102/102/102
f 102/102/102 103/103/103 105/105/105
f 102/102/102 105/105/105 106/106/106
f 106/106/106 105/105/105 107/107/107
f 105/105/105 103/103/103 108/108/108
f 107/107/107 105/105/105 108/108/108
f 109/109/109 108/108/108 103/103/103
f 107/107/107 108/108/108 110/110/110
f 109/109/109 111/111/111 108/108/108
f 111/111/111 110/110/110 108/108/108
