mtllib SM_Container_Can_01_LOD1.mtl
g SM_Container_Can_01_LOD1
#Vertices 492
#Indices 1848
#Section 0 Offset 0 NumIndices 1848 MaterialIndex 0 MI_Small_Props_01
v -0.007120 0.240674 -0.036249
v 0.005613 0.239833 -0.037142
v -0.005020 0.239231 -0.036057
v -0.007120 0.240674 -0.036249
v -0.006634 0.230347 -0.035828
v -0.018461 0.230356 -0.031650
v -0.019312 0.241667 -0.031414
v -0.028184 0.230356 -0.023491
v -0.027508 0.241839 -0.024874
v -0.034892 0.240791 -0.012636
v -0.034530 0.230356 -0.012500
v -0.037121 0.240791 -0.000005
v -0.036734 0.230356 -0.000000
v -0.034530 0.230356 0.012499
v -0.034895 0.240791 0.012627
v -0.028184 0.230356 0.023491
v -0.028483 0.240791 0.023736
v -0.019335 0.241582 0.031476
v -0.018461 0.230356 0.031650
v -0.006536 0.237954 0.035998
v -0.006194 0.239852 0.037224
v -0.006683 0.230349 0.035841
v -0.017904 0.224075 0.004856
v -0.034530 0.230356 0.012499
v -0.036734 0.230356 -0.000000
v -0.018097 0.224273 -0.005560
v -0.034530 0.230356 -0.012500
v -0.034530 0.230356 -0.012500
v -0.018948 0.229928 -0.005867
v -0.018097 0.224273 -0.005560
v -0.018601 0.229930 0.000017
v -0.017904 0.224075 0.004856
v -0.018948 0.229928 0.005844
v -0.034530 0.230356 0.012499
v 0.018902 0.241561 0.031186
v 0.005555 0.239829 0.037097
v 0.018194 0.239356 0.031839
v 0.027975 0.239356 0.023632
v 0.032250 0.240870 0.018407
v 0.034359 0.239356 0.012574
v 0.036688 0.240794 0.000010
v 0.036576 0.239356 -0.000000
v 0.034359 0.239356 -0.012574
v 0.034190 0.241605 -0.012720
v 0.027975 0.239356 -0.023632
v 0.028667 0.241722 -0.022491
v 0.018268 0.239761 -0.032745
v 0.019344 0.000635 -0.033837
v 0.006593 0.000635 -0.038477
v -0.006221 0.000164 -0.039014
v 0.030665 0.000066 -0.024736
v 0.039307 0.000554 -0.000042
v 0.036525 0.000635 -0.013366
v 0.036610 0.000037 0.014450
v -0.036985 0.000039 -0.014454
v -0.019726 0.000635 -0.033834
v -0.030120 0.000635 -0.025112
v 0.019349 0.000635 0.033834
v 0.029743 0.000635 0.025111
v 0.006721 0.000228 0.039638
v -0.031043 0.000066 0.024735
v -0.039683 0.000554 0.000043
v -0.036901 0.000635 0.013365
v -0.019721 0.000635 0.033837
v -0.006995 0.000247 0.038862
v -0.006683 0.230349 0.035841
v -0.018461 0.230356 0.031650
v -0.028184 0.230356 0.023491
v -0.034530 0.230356 0.012499
v -0.018948 0.229928 0.005844
v 0.004398 0.230460 0.012676
v 0.005618 0.230392 -0.004951
v -0.018601 0.229930 0.000017
v -0.018948 0.229928 -0.005867
v -0.006634 0.230347 -0.035828
v 0.000725 0.230356 -0.023544
v -0.034530 0.230356 -0.012500
v -0.028184 0.230356 -0.023491
v -0.018461 0.230356 -0.031650
v 0.024241 0.241076 0.042312
v 0.008296 0.227952 0.048116
v 0.008333 0.241717 0.048329
v 0.024241 0.227952 0.042312
v 0.036179 0.241646 0.032834
v 0.008502 0.226666 0.049285
v 0.037239 0.227952 0.031405
v 0.045193 0.241797 0.018471
v 0.024834 0.226666 0.043341
v 0.045723 0.227952 0.016710
v 0.048774 0.241802 0.001855
v 0.026720 0.224849 0.046606
v 0.009157 0.224849 0.052998
v 0.038149 0.226666 0.032169
v 0.041037 0.224849 0.034592
v 0.046839 0.226666 0.017117
v 0.050958 0.224513 0.018213
v 0.048670 0.227952 -0.000000
v 0.045723 0.241076 -0.016711
v 0.049857 0.226666 -0.000000
v 0.045723 0.227952 -0.016711
v 0.037239 0.241076 -0.031406
v 0.059674 0.224277 -0.000000
v 0.056522 0.223651 0.011710
v 0.050958 0.224513 -0.018213
v 0.056643 0.223804 -0.011923
v 0.046839 0.226666 -0.017117
v 0.041037 0.224849 -0.034592
v 0.037239 0.227952 -0.031405
v 0.025826 0.241635 -0.041528
v 0.038149 0.226666 -0.032169
v 0.024241 0.227952 -0.042312
v 0.010124 0.241788 -0.047905
v 0.024834 0.226666 -0.043341
v 0.026720 0.224849 -0.046606
v 0.008296 0.227952 -0.048116
v -0.006840 0.241788 -0.048554
v 0.008502 0.226666 -0.049285
v 0.009157 0.224849 -0.052998
v -0.009533 0.224849 -0.052998
v -0.008672 0.227952 -0.048116
v -0.024617 0.241076 -0.042312
v -0.008879 0.226666 -0.049285
v -0.027096 0.224849 -0.046606
v -0.024617 0.227952 -0.042312
v -0.037616 0.241076 -0.031405
v -0.025211 0.226666 -0.043341
v -0.041414 0.224849 -0.034592
v -0.037616 0.227952 -0.031405
v -0.045468 0.241799 -0.018715
v -0.038525 0.226666 -0.032169
v -0.050759 0.224849 -0.018406
v -0.046100 0.227952 -0.016711
v -0.049144 0.241803 -0.002094
v -0.047216 0.226666 -0.017117
v -0.050234 0.226666 -0.000000
v -0.054004 0.224849 -0.000000
v -0.049046 0.227952 -0.000000
v -0.046799 0.241643 0.015107
v -0.047216 0.226666 0.017117
v -0.050759 0.224849 0.018406
v -0.041414 0.224849 0.034592
v -0.046100 0.227952 0.016710
v -0.038874 0.241802 0.030062
v -0.038525 0.226666 0.032169
v -0.037616 0.227952 0.031405
v -0.024617 0.241076 0.042312
v -0.027096 0.224849 0.046606
v -0.024617 0.227952 0.042312
v -0.025211 0.226666 0.043341
v -0.008879 0.226666 0.049285
v -0.009533 0.224849 0.052998
v 0.009157 0.224849 0.052998
v 0.008502 0.226666 0.049285
v -0.008672 0.227952 0.048116
v 0.008296 0.227952 0.048116
v -0.006934 0.241789 0.048572
v 0.008333 0.241717 0.048329
v 0.024804 0.174885 0.043321
v 0.008929 0.174115 0.051814
v 0.008479 0.174885 0.049263
v 0.026099 0.174115 0.045565
v 0.038113 0.174885 0.032154
v 0.009144 0.172439 0.053000
v 0.040097 0.174115 0.033819
v 0.046799 0.174885 0.017109
v 0.026707 0.172439 0.046605
v 0.025038 0.099426 0.043714
v 0.008564 0.099426 0.049712
v 0.041024 0.172439 0.034589
v 0.024353 0.097883 0.042539
v 0.008322 0.097883 0.048374
v 0.007827 0.097351 0.045566
v 0.022927 0.097351 0.040070
v 0.037421 0.097883 0.031574
v 0.035237 0.097351 0.029741
v 0.038466 0.099426 0.032443
v 0.045951 0.097883 0.016800
v 0.043271 0.097351 0.015825
v 0.050368 0.172439 0.018401
v 0.047230 0.099426 0.017259
v 0.048913 0.097883 -0.000000
v 0.046062 0.097351 -0.000000
v 0.043271 0.097351 -0.015825
v 0.050272 0.099426 -0.000006
v 0.045951 0.097883 -0.016800
v 0.035237 0.097351 -0.029741
v 0.053611 0.172439 -0.000006
v 0.047226 0.099426 -0.017271
v 0.037421 0.097883 -0.031574
v 0.022927 0.097351 -0.040070
v 0.049233 0.174115 0.017995
v 0.050382 0.175018 -0.000001
v 0.024353 0.097883 -0.042540
v 0.007904 0.097180 -0.046219
v 0.049233 0.174115 -0.017995
v 0.046799 0.174885 -0.017109
v 0.050364 0.172439 -0.018413
v 0.040097 0.174115 -0.033819
v 0.038113 0.174885 -0.032154
v 0.038459 0.099426 -0.032452
v 0.041016 0.172439 -0.034599
v 0.026099 0.174115 -0.045565
v 0.024804 0.174885 -0.043321
v 0.026697 0.172439 -0.046611
v 0.008627 0.174998 -0.049797
v 0.025027 0.099426 -0.043720
v 0.009132 0.172439 -0.053002
v 0.008553 0.099426 -0.049714
v -0.008550 0.174032 -0.051730
v -0.008894 0.174885 -0.049263
v -0.009559 0.172439 -0.053000
v -0.026514 0.174115 -0.045565
v -0.025219 0.174885 -0.043321
v -0.008737 0.097883 -0.048374
v -0.008242 0.097351 -0.045566
v -0.023342 0.097351 -0.040070
v -0.008979 0.099426 -0.049712
v -0.024768 0.097883 -0.042540
v -0.035651 0.097351 -0.029741
v -0.025452 0.099426 -0.043714
v -0.037836 0.097883 -0.031574
v -0.043686 0.097351 -0.015825
v -0.027122 0.172439 -0.046605
v -0.038881 0.099426 -0.032443
v -0.046365 0.097883 -0.016800
v -0.047108 0.097175 0.000000
v -0.041438 0.172439 -0.034589
v -0.050687 0.099426 0.000006
v -0.040512 0.174115 -0.033819
v -0.038527 0.174885 -0.032154
v -0.050782 0.172439 -0.018402
v -0.049648 0.174115 -0.017995
v -0.047214 0.174885 -0.017109
v -0.050839 0.175004 0.000001
v -0.047645 0.099426 -0.017260
v -0.054026 0.172439 0.000006
v -0.049648 0.174115 0.017995
v -0.047214 0.174885 0.017109
v -0.038527 0.174885 0.032154
v -0.047641 0.099426 0.017271
v -0.040512 0.174115 0.033819
v -0.025219 0.174885 0.043321
v -0.050778 0.172439 0.018413
v -0.026514 0.174115 0.045565
v -0.008961 0.175011 0.049848
v -0.041431 0.172439 0.034598
v 0.008479 0.174885 0.049263
v 0.008929 0.174115 0.051814
v -0.027111 0.172439 0.046611
v -0.038873 0.099426 0.032452
v -0.009547 0.172439 0.053002
v 0.009144 0.172439 0.053000
v 0.008564 0.099426 0.049712
v -0.025442 0.099426 0.043720
v -0.008967 0.099426 0.049714
v 0.008322 0.097883 0.048374
v -0.024767 0.097883 0.042539
v -0.008392 0.097180 0.046206
v 0.007827 0.097351 0.045566
v -0.023342 0.097351 0.040070
v -0.035651 0.097351 0.029741
v -0.037836 0.097883 0.031574
v -0.043686 0.097351 0.015825
v -0.046365 0.097883 0.016800
v 0.026652 0.218279 0.046489
v 0.009133 0.218279 0.052866
v 0.009307 0.221179 0.054670
v 0.026720 0.224849 0.046606
v 0.009157 0.224849 0.052998
v 0.028339 0.221299 0.047558
v 0.040934 0.218279 0.034506
v 0.041037 0.224849 0.034592
v 0.042134 0.221427 0.035645
v 0.056798 0.218712 0.011336
v 0.050438 0.218279 0.018045
v 0.056522 0.223651 0.011710
v 0.050958 0.224513 0.018213
v 0.061355 0.221297 0.000036
v 0.059674 0.218279 -0.000000
v 0.059674 0.224277 -0.000000
v 0.056678 0.218914 -0.011412
v 0.056643 0.223804 -0.011923
v 0.041037 0.224849 -0.034592
v 0.050958 0.224513 -0.018213
v 0.042051 0.221551 -0.035674
v 0.040934 0.218279 -0.034506
v 0.050438 0.218279 -0.018045
v 0.028516 0.221405 -0.047401
v 0.026652 0.218279 -0.046490
v 0.026720 0.224849 -0.046606
v 0.009362 0.218255 -0.053441
v 0.000756 0.222887 -0.056218
v 0.009157 0.224849 -0.052998
v -0.009533 0.224849 -0.052998
v -0.027096 0.224849 -0.046606
v -0.009740 0.219581 -0.054168
v -0.009510 0.218279 -0.052866
v -0.027581 0.218218 -0.046817
v -0.035726 0.222887 -0.042953
v -0.041414 0.224849 -0.034592
v -0.041924 0.218262 -0.034756
v -0.052335 0.221259 -0.018809
v -0.050759 0.224849 -0.018406
v -0.050632 0.218279 -0.018360
v -0.055628 0.221160 -0.001584
v -0.054004 0.224849 -0.000000
v -0.053870 0.218279 -0.000000
v -0.050759 0.224849 0.018406
v -0.051371 0.218324 0.018151
v -0.046637 0.221797 0.031334
v -0.041311 0.218279 0.034506
v -0.041414 0.224849 0.034592
v -0.027044 0.218281 0.047056
v -0.022567 0.222834 0.051275
v -0.027096 0.224849 0.046606
v -0.009804 0.218138 0.053524
v -0.009533 0.224849 0.052998
v 0.009307 0.221179 0.054670
v 0.009133 0.218279 0.052866
v 0.009157 0.224849 0.052998
v 0.050438 0.218279 0.018045
v 0.056798 0.218712 0.011336
v 0.059674 0.218279 -0.000000
v 0.050438 0.218279 -0.018045
v 0.056678 0.218914 -0.011412
v 0.051587 0.218274 -0.000000
v 0.048464 0.218274 0.017708
v 0.048464 0.218274 -0.017708
v 0.040934 0.218279 0.034506
v 0.040934 0.218279 -0.034506
v 0.039474 0.218274 0.033280
v 0.039474 0.218274 -0.033280
v 0.026652 0.218279 0.046489
v 0.025699 0.218274 -0.044839
v 0.025699 0.218274 0.044838
v 0.026652 0.218279 -0.046490
v 0.009133 0.218279 0.052866
v 0.008802 0.218274 -0.050988
v 0.008802 0.218274 0.050988
v 0.009362 0.218255 -0.053441
v -0.009804 0.218138 0.053524
v -0.009179 0.218274 -0.050988
v -0.009179 0.218274 0.050988
v -0.009510 0.218279 -0.052866
v -0.027044 0.218281 0.047056
v -0.026076 0.218274 -0.044839
v -0.026076 0.218274 0.044838
v -0.027581 0.218218 -0.046817
v -0.041311 0.218279 0.034506
v -0.039850 0.218274 -0.033280
v -0.039850 0.218274 0.033280
v -0.041924 0.218262 -0.034756
v -0.051371 0.218324 0.018151
v -0.048841 0.218274 -0.017708
v -0.048841 0.218274 0.017708
v -0.050632 0.218279 -0.018360
v -0.053870 0.218279 -0.000000
v -0.051963 0.218274 -0.000000
v -0.007480 0.006416 0.041523
v 0.008802 0.218274 0.050988
v 0.007161 0.006416 0.041513
v 0.006721 0.000228 0.039638
v -0.009179 0.218274 0.050988
v -0.006995 0.000247 0.038862
v -0.021198 0.006477 0.036577
v -0.026076 0.218274 0.044838
v -0.019721 0.000635 0.033837
v -0.032377 0.006414 0.027249
v -0.039850 0.218274 0.033280
v -0.031043 0.000066 0.024735
v -0.048841 0.218274 0.017708
v -0.039779 0.006456 0.014609
v -0.036901 0.000635 0.013365
v -0.051963 0.218274 -0.000000
v -0.039683 0.000554 0.000043
v -0.042346 0.006416 0.000029
v -0.039864 0.006434 -0.014291
v -0.048841 0.218274 -0.017708
v -0.036985 0.000039 -0.014454
v -0.032592 0.006458 -0.026998
v -0.039850 0.218274 -0.033280
v -0.030120 0.000635 -0.025112
v -0.026076 0.218274 -0.044839
v -0.021380 0.006487 -0.036498
v -0.019726 0.000635 -0.033834
v -0.009179 0.218274 -0.050988
v -0.004573 0.006553 -0.042143
v -0.006221 0.000164 -0.039014
v 0.006593 0.000635 -0.038477
v 0.007104 0.006416 -0.041523
v 0.008802 0.218274 -0.050988
v 0.022342 0.006518 -0.035888
v 0.019344 0.000635 -0.033837
v 0.025699 0.218274 -0.044839
v 0.030665 0.000066 -0.024736
v 0.032088 0.006416 -0.027121
v 0.039474 0.218274 -0.033280
v 0.048464 0.218274 -0.017708
v 0.039414 0.006381 -0.014531
v 0.036525 0.000635 -0.013366
v 0.051587 0.218274 -0.000000
v 0.039307 0.000554 -0.000042
v 0.041970 0.006416 -0.000029
v 0.039488 0.006434 0.014291
v 0.048464 0.218274 0.017708
v 0.036610 0.000037 0.014450
v 0.032215 0.006458 0.026998
v 0.039474 0.218274 0.033280
v 0.029743 0.000635 0.025111
v 0.025699 0.218274 0.044838
v 0.021189 0.006438 0.036391
v 0.019349 0.000635 0.033834
v 0.008802 0.218274 0.050988
v 0.006721 0.000228 0.039638
v 0.007161 0.006416 0.041513
v 0.018194 0.239356 0.031839
v 0.005555 0.239829 0.037097
v 0.004128 0.239106 0.018012
v 0.027975 0.239356 0.023632
v -0.006194 0.239852 0.037224
v 0.034359 0.239356 0.012574
v 0.004322 0.237816 0.013757
v -0.006536 0.237954 0.035998
v -0.006683 0.230349 0.035841
v 0.004398 0.230460 0.012676
v 0.007239 0.239150 -0.000007
v 0.036576 0.239356 -0.000000
v 0.034359 0.239356 -0.012574
v 0.005906 0.237880 0.000004
v 0.005618 0.230392 -0.004951
v 0.004369 0.239154 -0.020350
v 0.027975 0.239356 -0.023632
v 0.018268 0.239761 -0.032745
v 0.005613 0.239833 -0.037142
v -0.005020 0.239231 -0.036057
v 0.002717 0.237830 -0.020301
v -0.007120 0.240674 -0.036249
v 0.000725 0.230356 -0.023544
v -0.006634 0.230347 -0.035828
v 0.008333 0.241717 0.048329
v 0.023580 0.242378 0.041168
v 0.024241 0.241076 0.042312
v 0.036179 0.241646 0.032834
v 0.006476 0.242191 0.037793
v -0.006934 0.241789 0.048572
v 0.029210 0.242191 0.024668
v 0.045193 0.241797 0.018471
v 0.018902 0.241561 0.031186
v 0.032250 0.240870 0.018407
v 0.005555 0.239829 0.037097
v -0.006194 0.239852 0.037224
v 0.035874 0.242191 0.013125
v 0.036688 0.240794 0.000010
v 0.048774 0.241802 0.001855
v 0.038188 0.242191 -0.000000
v 0.034190 0.241605 -0.012720
v 0.044481 0.242378 -0.016258
v 0.045723 0.241076 -0.016711
v 0.028667 0.241722 -0.022491
v 0.037239 0.241076 -0.031406
v 0.036227 0.242378 -0.030556
v 0.025826 0.241635 -0.041528
v 0.019000 0.242191 -0.033235
v 0.018268 0.239761 -0.032745
v 0.010124 0.241788 -0.047905
v 0.005613 0.239833 -0.037142
v 0.006476 0.242191 -0.037793
v -0.006840 0.241788 -0.048554
v -0.007120 0.240674 -0.036249
v -0.006856 0.242188 -0.037793
v -0.019312 0.241667 -0.031414
v -0.023956 0.242378 -0.041168
v -0.024617 0.241076 -0.042312
v -0.027508 0.241839 -0.024874
v -0.036603 0.242378 -0.030556
v -0.037616 0.241076 -0.031405
v -0.045468 0.241799 -0.018715
v -0.036250 0.242191 -0.013126
v -0.034892 0.240791 -0.012636
v -0.037121 0.240791 -0.000005
v -0.038565 0.242191 -0.000000
v -0.049144 0.241803 -0.002094
v -0.034895 0.240791 0.012627
v -0.036250 0.242191 0.013125
v -0.046799 0.241643 0.015107
v -0.028483 0.240791 0.023736
v -0.038874 0.241802 0.030062
v -0.029586 0.242191 0.024668
v -0.019335 0.241582 0.031476
v -0.023956 0.242378 0.041168
v -0.024617 0.241076 0.042312
v -0.006852 0.242191 0.037793
vt 0.568848 0.812500
vt 0.576172 0.812988
vt 0.569824 0.813354
vt 0.570312 0.893066
vt 0.570312 0.886902
vt 0.577637 0.887085
vt 0.578125 0.893860
vt 0.585449 0.887146
vt 0.584473 0.894043
vt 0.592773 0.893372
vt 0.592773 0.887146
vt 0.600586 0.893372
vt 0.600586 0.887146
vt 0.607910 0.887146
vt 0.607910 0.893372
vt 0.615723 0.887146
vt 0.615723 0.893372
vt 0.623047 0.893799
vt 0.623535 0.887085
vt 0.630859 0.891479
vt 0.631348 0.892639
vt 0.630859 0.886902
vt 0.608887 0.929138
vt 0.613770 0.939758
vt 0.605957 0.941010
vt 0.602539 0.929321
vt 0.598633 0.939789
vt 0.745605 0.229004
vt 0.735352 0.227539
vt 0.735352 0.224121
vt 0.731934 0.227539
vt 0.729004 0.224121
vt 0.728516 0.227539
vt 0.718262 0.229004
vt 0.629395 0.812012
vt 0.638184 0.812988
vt 0.629883 0.813232
vt 0.622559 0.813232
vt 0.618652 0.812378
vt 0.614746 0.813232
vt 0.607422 0.812378
vt 0.606934 0.813232
vt 0.599609 0.813232
vt 0.599609 0.811890
vt 0.591797 0.813232
vt 0.592773 0.811890
vt 0.583984 0.812988
vt 0.534668 0.830566
vt 0.536621 0.838501
vt 0.536133 0.846069
vt 0.530273 0.823242
vt 0.516113 0.816528
vt 0.523926 0.818970
vt 0.507324 0.817139
vt 0.519531 0.862793
vt 0.532227 0.853760
vt 0.526367 0.859375
vt 0.494629 0.826172
vt 0.500488 0.820557
vt 0.490479 0.833252
vt 0.496826 0.856689
vt 0.510742 0.863403
vt 0.502930 0.860962
vt 0.492188 0.849365
vt 0.489990 0.841431
vt 0.595215 0.078125
vt 0.598145 0.071289
vt 0.603027 0.065430
vt 0.609375 0.061523
vt 0.613281 0.070801
vt 0.609375 0.084961
vt 0.619629 0.085938
vt 0.616699 0.071289
vt 0.620117 0.070801
vt 0.638184 0.078613
vt 0.630859 0.083008
vt 0.624512 0.061523
vt 0.630859 0.065430
vt 0.635742 0.071289
vt 0.040802 0.861084
vt 0.030258 0.868408
vt 0.030640 0.860229
vt 0.040466 0.868896
vt 0.049988 0.860962
vt 0.029907 0.869385
vt 0.050842 0.869141
vt 0.060364 0.861084
vt 0.040283 0.869995
vt 0.061249 0.869263
vt 0.070618 0.861450
vt 0.040131 0.872559
vt 0.029236 0.871826
vt 0.050720 0.870117
vt 0.050629 0.872559
vt 0.061218 0.870239
vt 0.061096 0.872925
vt 0.071716 0.869873
vt 0.082031 0.861572
vt 0.071716 0.871216
vt 0.082153 0.869385
vt 0.092529 0.861328
vt 0.071655 0.877441
vt 0.064819 0.875977
vt 0.082275 0.872925
vt 0.078613 0.876099
vt 0.082214 0.870239
vt 0.092712 0.872559
vt 0.092651 0.869141
vt 0.101990 0.860962
vt 0.092651 0.870117
vt 0.103088 0.869141
vt 0.112427 0.860840
vt 0.103088 0.870117
vt 0.103088 0.872681
vt 0.113525 0.869141
vt 0.122803 0.860962
vt 0.113525 0.870239
vt 0.113525 0.872681
vt 0.123962 0.872681
vt 0.123962 0.869141
vt 0.134399 0.861328
vt 0.123962 0.870239
vt 0.134399 0.872681
vt 0.134399 0.869263
vt 0.144775 0.861450
vt 0.134399 0.870239
vt 0.144775 0.872803
vt 0.144775 0.869263
vt 0.153931 0.861084
vt 0.144775 0.870361
vt 0.155273 0.872803
vt 0.155273 0.869263
vt 0.164429 0.861084
vt 0.155273 0.870361
vt 0.165649 0.870361
vt 0.165649 0.872803
vt 0.165649 0.869385
vt 0.175049 0.861206
vt 0.176025 0.870361
vt 0.176025 0.872803
vt 0.186523 0.872925
vt 0.176025 0.869385
vt 0.185425 0.861084
vt 0.186523 0.870361
vt 0.186523 0.869385
vt 0.196777 0.861572
vt 0.197021 0.872925
vt 0.196899 0.869385
vt 0.196899 0.870483
vt 0.207397 0.870483
vt 0.207520 0.872925
vt 0.218384 0.872437
vt 0.217773 0.869995
vt 0.207275 0.869385
vt 0.217529 0.869019
vt 0.208130 0.861084
vt 0.217163 0.860840
vt 0.226562 0.843140
vt 0.237305 0.841431
vt 0.236938 0.843140
vt 0.226562 0.841675
vt 0.215942 0.843384
vt 0.237549 0.840088
vt 0.215820 0.841797
vt 0.205200 0.843262
vt 0.226562 0.840454
vt 0.225342 0.798096
vt 0.235596 0.797729
vt 0.215820 0.840576
vt 0.225098 0.796997
vt 0.235229 0.796509
vt 0.234741 0.794800
vt 0.224976 0.795288
vt 0.214966 0.796997
vt 0.214966 0.795288
vt 0.215088 0.798218
vt 0.204712 0.796997
vt 0.204712 0.795288
vt 0.205078 0.840576
vt 0.204834 0.798218
vt 0.194458 0.796997
vt 0.194336 0.795288
vt 0.183960 0.795288
vt 0.194458 0.798096
vt 0.183960 0.796997
vt 0.173584 0.795288
vt 0.194580 0.840576
vt 0.184082 0.798096
vt 0.173584 0.796997
vt 0.163086 0.795288
vt 0.205200 0.841797
vt 0.194702 0.843018
vt 0.163086 0.796875
vt 0.152466 0.795654
vt 0.184082 0.841675
vt 0.184082 0.843262
vt 0.184082 0.840576
vt 0.173584 0.841675
vt 0.173584 0.843262
vt 0.173584 0.798096
vt 0.173584 0.840576
vt 0.163086 0.841675
vt 0.163086 0.843262
vt 0.163086 0.840454
vt 0.152710 0.842896
vt 0.163086 0.798096
vt 0.152588 0.840454
vt 0.152588 0.798096
vt 0.142578 0.841797
vt 0.142212 0.843262
vt 0.142090 0.840454
vt 0.131714 0.841675
vt 0.131714 0.843262
vt 0.142212 0.796875
vt 0.142212 0.795288
vt 0.131714 0.795288
vt 0.142212 0.798096
vt 0.131714 0.796875
vt 0.121277 0.795288
vt 0.131714 0.798096
vt 0.121277 0.796875
vt 0.110840 0.795288
vt 0.131714 0.840454
vt 0.121277 0.798096
vt 0.110840 0.796997
vt 0.100403 0.795654
vt 0.121216 0.840454
vt 0.100342 0.798096
vt 0.121216 0.841675
vt 0.121216 0.843262
vt 0.110779 0.840576
vt 0.110718 0.841675
vt 0.110718 0.843262
vt 0.100220 0.842896
vt 0.110779 0.798096
vt 0.100281 0.840576
vt 0.089722 0.841797
vt 0.089661 0.843262
vt 0.079102 0.843384
vt 0.089905 0.798218
vt 0.079102 0.841797
vt 0.068420 0.843262
vt 0.089783 0.840576
vt 0.068420 0.841797
vt 0.057739 0.842773
vt 0.079163 0.840576
vt 0.047363 0.843140
vt 0.047028 0.841431
vt 0.068481 0.840576
vt 0.079651 0.798218
vt 0.057709 0.840454
vt 0.046783 0.840088
vt 0.048981 0.797729
vt 0.069458 0.798218
vt 0.059235 0.798096
vt 0.049316 0.796753
vt 0.069519 0.796997
vt 0.059570 0.795532
vt 0.049713 0.795044
vt 0.069580 0.795288
vt 0.079773 0.795288
vt 0.079712 0.796997
vt 0.090027 0.795288
vt 0.090027 0.796997
vt 0.246826 0.772827
vt 0.258057 0.772827
vt 0.258301 0.774902
vt 0.246826 0.777344
vt 0.258057 0.777344
vt 0.246338 0.775024
vt 0.235474 0.772949
vt 0.235474 0.777344
vt 0.235474 0.775024
vt 0.218506 0.773560
vt 0.223999 0.772827
vt 0.218750 0.776489
vt 0.223877 0.777100
vt 0.211304 0.775024
vt 0.211304 0.772827
vt 0.211304 0.777100
vt 0.203979 0.773560
vt 0.203735 0.776489
vt 0.187134 0.777344
vt 0.198608 0.777100
vt 0.187012 0.775146
vt 0.187134 0.772949
vt 0.198486 0.772827
vt 0.176514 0.775024
vt 0.175781 0.772827
vt 0.175781 0.777344
vt 0.164673 0.773193
vt 0.159424 0.775879
vt 0.164551 0.777344
vt 0.153198 0.777344
vt 0.141968 0.777344
vt 0.153198 0.773926
vt 0.153198 0.772827
vt 0.141724 0.773193
vt 0.136475 0.775879
vt 0.130615 0.777344
vt 0.130493 0.773193
vt 0.119202 0.774902
vt 0.119324 0.777344
vt 0.119324 0.772827
vt 0.108948 0.774902
vt 0.107971 0.777344
vt 0.107971 0.772827
vt 0.096680 0.777344
vt 0.096863 0.773193
vt 0.088745 0.775269
vt 0.085327 0.772827
vt 0.085327 0.777344
vt 0.073792 0.773071
vt 0.070312 0.775879
vt 0.073914 0.777344
vt 0.062683 0.773193
vt 0.062561 0.777344
vt 0.051208 0.774902
vt 0.051361 0.772827
vt 0.051331 0.777344
vt 0.620605 0.960449
vt 0.616699 0.964233
vt 0.609863 0.965942
vt 0.599121 0.960449
vt 0.603027 0.964142
vt 0.609863 0.961090
vt 0.620605 0.959259
vt 0.599121 0.959259
vt 0.631348 0.956879
vt 0.588379 0.956879
vt 0.630859 0.955841
vt 0.588867 0.955841
vt 0.640625 0.950531
vt 0.580078 0.949738
vt 0.639648 0.949738
vt 0.579102 0.950531
vt 0.646484 0.940948
vt 0.574707 0.940643
vt 0.645508 0.940643
vt 0.573242 0.941101
vt 0.646973 0.929504
vt 0.574707 0.929993
vt 0.645508 0.929993
vt 0.573730 0.929688
vt 0.641113 0.920044
vt 0.580078 0.920898
vt 0.639648 0.920898
vt 0.579102 0.919800
vt 0.631348 0.913696
vt 0.588867 0.914734
vt 0.630859 0.914734
vt 0.588379 0.913330
vt 0.620605 0.909668
vt 0.599121 0.911194
vt 0.620605 0.911194
vt 0.599121 0.910095
vt 0.609863 0.908936
vt 0.609863 0.910034
vt 0.309082 0.536133
vt 0.292480 0.662109
vt 0.300537 0.535645
vt 0.301270 0.531738
vt 0.303223 0.662598
vt 0.309326 0.531982
vt 0.317627 0.536377
vt 0.313965 0.663086
vt 0.317871 0.532471
vt 0.326172 0.536621
vt 0.324951 0.663330
vt 0.327148 0.532471
vt 0.334961 0.663330
vt 0.334961 0.536621
vt 0.335205 0.532471
vt 0.343994 0.663330
vt 0.343994 0.532715
vt 0.343994 0.536621
vt 0.353027 0.536621
vt 0.353027 0.663330
vt 0.353760 0.532471
vt 0.362061 0.536621
vt 0.362061 0.663330
vt 0.362061 0.532471
vt 0.371094 0.663330
vt 0.371094 0.536621
vt 0.371094 0.532471
vt 0.380127 0.663330
vt 0.381836 0.536621
vt 0.380615 0.532471
vt 0.388916 0.532471
vt 0.388916 0.536621
vt 0.388916 0.663330
vt 0.398926 0.536621
vt 0.397949 0.532471
vt 0.397949 0.663330
vt 0.407471 0.532471
vt 0.406982 0.536621
vt 0.406982 0.663330
vt 0.416016 0.663330
vt 0.416016 0.536621
vt 0.416016 0.532471
vt 0.425049 0.663330
vt 0.424805 0.532715
vt 0.425049 0.536621
vt 0.433838 0.536621
vt 0.434082 0.663330
vt 0.434326 0.532471
vt 0.442627 0.536621
vt 0.444092 0.663086
vt 0.442383 0.532471
vt 0.454834 0.662842
vt 0.451172 0.536377
vt 0.450928 0.532227
vt 0.465576 0.662598
vt 0.459473 0.531982
vt 0.459961 0.535889
vt 0.682129 0.888123
vt 0.678711 0.880859
vt 0.689941 0.879150
vt 0.687500 0.893677
vt 0.678223 0.874146
vt 0.693848 0.897156
vt 0.692871 0.878723
vt 0.678711 0.873535
vt 0.680664 0.869385
vt 0.694336 0.874634
vt 0.701172 0.880798
vt 0.701172 0.898315
vt 0.708496 0.897156
vt 0.701172 0.879639
vt 0.704102 0.875183
vt 0.713867 0.879333
vt 0.715332 0.893616
vt 0.720703 0.888123
vt 0.724121 0.880798
vt 0.723633 0.874634
vt 0.713867 0.877991
vt 0.724609 0.874878
vt 0.714355 0.872803
vt 0.722168 0.869507
vt 0.735352 0.796021
vt 0.736816 0.786011
vt 0.737793 0.786011
vt 0.736816 0.776978
vt 0.729492 0.793457
vt 0.730469 0.803711
vt 0.730469 0.777832
vt 0.732422 0.767822
vt 0.730469 0.785156
vt 0.728027 0.774414
vt 0.728027 0.793457
vt 0.724609 0.799072
vt 0.726562 0.770752
vt 0.720215 0.766357
vt 0.725098 0.760620
vt 0.720703 0.765259
vt 0.713379 0.763184
vt 0.714844 0.756836
vt 0.714844 0.755737
vt 0.706543 0.762695
vt 0.704590 0.755249
vt 0.705078 0.756348
vt 0.695801 0.758057
vt 0.697754 0.764160
vt 0.698242 0.765381
vt 0.687500 0.763794
vt 0.692383 0.770142
vt 0.691406 0.768921
vt 0.681641 0.772095
vt 0.687988 0.776367
vt 0.687012 0.775635
vt 0.686523 0.783936
vt 0.680176 0.783203
vt 0.678711 0.783081
vt 0.687012 0.790283
vt 0.681152 0.792969
vt 0.680176 0.793213
vt 0.684082 0.801270
vt 0.689941 0.798462
vt 0.690918 0.797729
vt 0.696289 0.802856
vt 0.695801 0.803833
vt 0.691406 0.808472
vt 0.703613 0.805786
vt 0.703125 0.807007
vt 0.700684 0.812866
vt 0.710938 0.806152
vt 0.710938 0.813721
vt 0.711426 0.807373
vt 0.717773 0.804443
vt 0.721191 0.809937
vt 0.721680 0.810913
vt 0.725098 0.800171
vt1 0.302734 0.875977
vt1 0.321289 0.881348
vt1 0.305908 0.886536
vt1 0.854492 0.511475
vt1 0.839355 0.511475
vt1 0.839844 0.493164
vt1 0.856445 0.492188
vt1 0.839844 0.474609
vt1 0.856934 0.477051
vt1 0.855469 0.456055
vt1 0.839844 0.456055
vt1 0.855469 0.437500
vt1 0.839844 0.437500
vt1 0.839844 0.418457
vt1 0.855469 0.418457
vt1 0.839844 0.399902
vt1 0.855469 0.399902
vt1 0.856445 0.382324
vt1 0.839844 0.381348
vt1 0.850586 0.362305
vt1 0.853516 0.361328
vt1 0.839355 0.363281
vt1 0.637695 0.852051
vt1 0.610840 0.861572
vt1 0.608887 0.843018
vt1 0.638184 0.836914
vt1 0.613281 0.824951
vt1 0.710449 0.798950
vt1 0.707031 0.823486
vt1 0.698730 0.823853
vt1 0.707031 0.832153
vt1 0.698242 0.839355
vt1 0.707031 0.840698
vt1 0.709961 0.865356
vt1 0.451904 0.869629
vt1 0.473145 0.881409
vt1 0.453369 0.885376
vt1 0.434570 0.885376
vt1 0.424805 0.874390
vt1 0.415771 0.885376
vt1 0.397217 0.875000
vt1 0.397217 0.885376
vt1 0.378418 0.885376
vt1 0.378174 0.869263
vt1 0.359619 0.885376
vt1 0.361572 0.868530
vt1 0.340332 0.882019
vt1 0.710938 0.660645
vt1 0.710449 0.680664
vt1 0.704590 0.698486
vt1 0.704102 0.640625
vt1 0.674316 0.616211
vt1 0.691406 0.626709
vt1 0.653320 0.612549
vt1 0.655762 0.728271
vt1 0.690918 0.714355
vt1 0.673828 0.724365
vt1 0.617676 0.626465
vt1 0.634766 0.616455
vt1 0.603516 0.640869
vt1 0.604980 0.700195
vt1 0.634277 0.724609
vt1 0.617188 0.714111
vt1 0.598145 0.680176
vt1 0.597656 0.660156
vt1 0.832031 0.900085
vt1 0.814941 0.893921
vt1 0.800293 0.881958
vt1 0.791016 0.865967
vt1 0.813965 0.856201
vt1 0.848145 0.866211
vt1 0.850098 0.840454
vt1 0.814453 0.847656
vt1 0.813965 0.839111
vt1 0.832031 0.795166
vt1 0.842773 0.813232
vt1 0.791016 0.829346
vt1 0.800781 0.813232
vt1 0.814941 0.801392
vt1 0.140137 0.429688
vt1 0.122070 0.403809
vt1 0.142090 0.404785
vt1 0.120911 0.428711
vt1 0.140503 0.452148
vt1 0.119751 0.402832
vt1 0.120605 0.454102
vt1 0.140259 0.477539
vt1 0.118225 0.428223
vt1 0.119995 0.479980
vt1 0.139282 0.502686
vt1 0.112122 0.428223
vt1 0.113831 0.401367
vt1 0.118103 0.454102
vt1 0.112122 0.453613
vt1 0.117737 0.479492
vt1 0.111206 0.479492
vt1 0.118652 0.505371
vt1 0.138916 0.530518
vt1 0.115356 0.505127
vt1 0.119873 0.531006
vt1 0.139526 0.556396
vt1 0.099976 0.505127
vt1 0.103638 0.488770
vt1 0.111084 0.531250
vt1 0.103333 0.522217
vt1 0.117615 0.531006
vt1 0.112000 0.556641
vt1 0.120605 0.556641
vt1 0.140381 0.579346
vt1 0.117981 0.556641
vt1 0.120605 0.582031
vt1 0.140625 0.604980
vt1 0.117920 0.582031
vt1 0.111816 0.582031
vt1 0.120605 0.607666
vt1 0.140503 0.630615
vt1 0.117798 0.607666
vt1 0.111755 0.607666
vt1 0.111755 0.633057
vt1 0.120300 0.633057
vt1 0.139404 0.658936
vt1 0.117798 0.633057
vt1 0.111633 0.658691
vt1 0.120239 0.658691
vt1 0.139282 0.684326
vt1 0.117676 0.658691
vt1 0.111511 0.684326
vt1 0.120056 0.684326
vt1 0.140259 0.706787
vt1 0.117554 0.684326
vt1 0.111389 0.709961
vt1 0.119995 0.709961
vt1 0.140259 0.732422
vt1 0.117432 0.709961
vt1 0.117432 0.735352
vt1 0.111389 0.735352
vt1 0.119934 0.735352
vt1 0.139893 0.758301
vt1 0.117371 0.760864
vt1 0.111328 0.760864
vt1 0.111206 0.786499
vt1 0.119934 0.760864
vt1 0.140137 0.783691
vt1 0.117310 0.786377
vt1 0.119812 0.786377
vt1 0.138916 0.811646
vt1 0.111145 0.812012
vt1 0.119751 0.811890
vt1 0.117188 0.812012
vt1 0.117188 0.837524
vt1 0.111084 0.837891
vt1 0.112488 0.864624
vt1 0.118408 0.863037
vt1 0.119873 0.837158
vt1 0.120605 0.862305
vt1 0.140137 0.839233
vt1 0.140747 0.861572
vt1 0.142090 0.171387
vt1 0.115356 0.175293
vt1 0.116211 0.171387
vt1 0.141968 0.175293
vt1 0.168457 0.170898
vt1 0.114868 0.178711
vt1 0.168579 0.174805
vt1 0.194824 0.170898
vt1 0.141968 0.178223
vt1 0.145142 0.283203
vt1 0.119751 0.284180
vt1 0.168823 0.177734
vt1 0.145508 0.285645
vt1 0.120605 0.287109
vt1 0.121826 0.291016
vt1 0.145874 0.290039
vt1 0.170654 0.285645
vt1 0.170776 0.290039
vt1 0.170288 0.282715
vt1 0.196045 0.285645
vt1 0.196167 0.290039
vt1 0.195312 0.177734
vt1 0.195679 0.282715
vt1 0.221680 0.285645
vt1 0.221802 0.290039
vt1 0.247559 0.290039
vt1 0.221558 0.282715
vt1 0.247559 0.285645
vt1 0.273438 0.290039
vt1 0.221313 0.177734
vt1 0.247437 0.282715
vt1 0.273438 0.285645
vt1 0.299316 0.290039
vt1 0.194946 0.174805
vt1 0.221069 0.171875
vt1 0.299316 0.285645
vt1 0.325439 0.289062
vt1 0.247192 0.174805
vt1 0.247192 0.170898
vt1 0.247314 0.177734
vt1 0.273193 0.174805
vt1 0.273193 0.170898
vt1 0.273193 0.282715
vt1 0.273193 0.177734
vt1 0.299316 0.174805
vt1 0.299316 0.170898
vt1 0.299316 0.177734
vt1 0.324951 0.171875
vt1 0.299316 0.282715
vt1 0.325195 0.177734
vt1 0.325195 0.282715
vt1 0.350098 0.174805
vt1 0.351074 0.171387
vt1 0.351074 0.177734
vt1 0.377197 0.174805
vt1 0.377197 0.170898
vt1 0.351074 0.286133
vt1 0.351074 0.290039
vt1 0.376953 0.290039
vt1 0.351074 0.282715
vt1 0.377197 0.286133
vt1 0.403076 0.290039
vt1 0.377197 0.282715
vt1 0.403076 0.286133
vt1 0.428955 0.290039
vt1 0.377197 0.177734
vt1 0.403076 0.282715
vt1 0.428955 0.285645
vt1 0.454590 0.289062
vt1 0.403076 0.177734
vt1 0.454834 0.282715
vt1 0.403076 0.174805
vt1 0.403076 0.170898
vt1 0.428955 0.177734
vt1 0.429199 0.174805
vt1 0.429199 0.170898
vt1 0.455078 0.171875
vt1 0.428955 0.282715
vt1 0.455078 0.177734
vt1 0.481201 0.174805
vt1 0.481201 0.170898
vt1 0.507324 0.170898
vt1 0.480713 0.282715
vt1 0.507324 0.174805
vt1 0.533691 0.170898
vt1 0.480957 0.177734
vt1 0.533691 0.174805
vt1 0.560547 0.172363
vt1 0.507324 0.177734
vt1 0.585938 0.171387
vt1 0.586914 0.175293
vt1 0.533691 0.177734
vt1 0.505859 0.282715
vt1 0.560547 0.178223
vt1 0.587402 0.178711
vt1 0.582031 0.283691
vt1 0.531250 0.282715
vt1 0.556641 0.283203
vt1 0.581055 0.286621
vt1 0.531250 0.285645
vt1 0.555664 0.289551
vt1 0.580078 0.290527
vt1 0.531250 0.290039
vt1 0.505859 0.290039
vt1 0.505859 0.285645
vt1 0.480469 0.290039
vt1 0.480469 0.285645
vt1 0.593750 0.098145
vt1 0.621582 0.098145
vt1 0.622070 0.104980
vt1 0.593750 0.113281
vt1 0.621582 0.113281
vt1 0.592773 0.105469
vt1 0.565918 0.098145
vt1 0.565918 0.113281
vt1 0.565918 0.105957
vt1 0.524414 0.100586
vt1 0.538086 0.098145
vt1 0.525391 0.110352
vt1 0.537598 0.112305
vt1 0.506836 0.105469
vt1 0.506836 0.098145
vt1 0.506836 0.112305
vt1 0.489014 0.100586
vt1 0.488281 0.110352
vt1 0.447754 0.113281
vt1 0.475830 0.112793
vt1 0.447510 0.105957
vt1 0.447754 0.098145
vt1 0.475586 0.098145
vt1 0.421631 0.105469
vt1 0.420166 0.098145
vt1 0.420166 0.113281
vt1 0.392578 0.099121
vt1 0.379883 0.108398
vt1 0.392334 0.113281
vt1 0.364746 0.113281
vt1 0.337158 0.113281
vt1 0.364746 0.102051
vt1 0.364746 0.098145
vt1 0.336670 0.099121
vt1 0.323730 0.108398
vt1 0.309326 0.113281
vt1 0.309082 0.099121
vt1 0.281250 0.105469
vt1 0.281738 0.113281
vt1 0.281738 0.098145
vt1 0.256104 0.104980
vt1 0.253906 0.113281
vt1 0.253906 0.098145
vt1 0.226196 0.113281
vt1 0.226807 0.099609
vt1 0.206787 0.106445
vt1 0.198364 0.098145
vt1 0.198364 0.113281
vt1 0.170288 0.099121
vt1 0.161621 0.108398
vt1 0.170532 0.113281
vt1 0.143066 0.099121
vt1 0.142822 0.113281
vt1 0.114868 0.105469
vt1 0.115234 0.098145
vt1 0.115173 0.113281
vt1 0.848633 0.215820
vt1 0.851074 0.229492
vt1 0.845703 0.245605
vt1 0.820312 0.260742
vt1 0.833496 0.257324
vt1 0.835938 0.239258
vt1 0.845703 0.214844
vt1 0.817871 0.258789
vt1 0.854980 0.188965
vt1 0.799316 0.278320
vt1 0.852051 0.188965
vt1 0.797852 0.275879
vt1 0.853516 0.162109
vt1 0.773438 0.286621
vt1 0.851074 0.162598
vt1 0.773926 0.289062
vt1 0.841309 0.137207
vt1 0.747559 0.286133
vt1 0.839355 0.139160
vt1 0.746582 0.289551
vt1 0.817871 0.121582
vt1 0.725098 0.272461
vt1 0.816895 0.125488
vt1 0.723145 0.274414
vt1 0.790527 0.121582
vt1 0.713867 0.249023
vt1 0.791016 0.125488
vt1 0.709961 0.249512
vt1 0.765137 0.133301
vt1 0.712402 0.222656
vt1 0.766602 0.135254
vt1 0.708496 0.222168
vt1 0.743164 0.149902
vt1 0.718262 0.196777
vt1 0.746094 0.152344
vt1 0.715332 0.195801
vt1 0.727539 0.171387
vt1 0.729980 0.172852
vt1 0.515137 0.441895
vt1 0.207153 0.401367
vt1 0.516602 0.420410
vt1 0.526367 0.422363
vt1 0.205688 0.427734
vt1 0.524902 0.442383
vt1 0.514648 0.462891
vt1 0.204590 0.454102
vt1 0.524414 0.463379
vt1 0.514160 0.483398
vt1 0.204102 0.480469
vt1 0.523926 0.485840
vt1 0.203979 0.504883
vt1 0.514160 0.504883
vt1 0.523926 0.505859
vt1 0.203979 0.527100
vt1 0.523438 0.527344
vt1 0.514160 0.527100
vt1 0.514160 0.549072
vt1 0.204102 0.549316
vt1 0.523926 0.551025
vt1 0.514160 0.571045
vt1 0.204102 0.571289
vt1 0.523926 0.571289
vt1 0.204102 0.593262
vt1 0.514160 0.593262
vt1 0.523926 0.593262
vt1 0.204102 0.615479
vt1 0.514160 0.619873
vt1 0.523926 0.616699
vt1 0.523926 0.637451
vt1 0.514160 0.637451
vt1 0.204102 0.637451
vt1 0.514160 0.661621
vt1 0.523926 0.659424
vt1 0.204102 0.659424
vt1 0.523926 0.682861
vt1 0.514160 0.681396
vt1 0.204102 0.681396
vt1 0.204224 0.703613
vt1 0.514160 0.703369
vt1 0.523926 0.703369
vt1 0.204224 0.725586
vt1 0.523438 0.725098
vt1 0.514160 0.725586
vt1 0.514160 0.747314
vt1 0.204224 0.748047
vt1 0.524414 0.748291
vt1 0.514160 0.768799
vt1 0.204224 0.772461
vt1 0.523926 0.768066
vt1 0.204834 0.798828
vt1 0.514648 0.789429
vt1 0.524414 0.789062
vt1 0.205933 0.825073
vt1 0.525391 0.809570
vt1 0.515625 0.811035
vt1 0.818359 0.689209
vt1 0.800781 0.697754
vt1 0.796387 0.669678
vt1 0.832031 0.676514
vt1 0.784180 0.699463
vt1 0.840820 0.660400
vt1 0.795410 0.663330
vt1 0.782715 0.697510
vt1 0.772461 0.693604
vt1 0.785156 0.659180
vt1 0.800293 0.642334
vt1 0.843750 0.642334
vt1 0.840332 0.624512
vt1 0.797852 0.642334
vt1 0.786621 0.635986
vt1 0.796875 0.611816
vt1 0.832031 0.608398
vt1 0.818359 0.594482
vt1 0.800781 0.587158
vt1 0.785645 0.587402
vt1 0.793457 0.612061
vt1 0.786133 0.585205
vt1 0.781250 0.610107
vt1 0.772949 0.591309
vt1 0.622070 0.487305
vt1 0.644531 0.498047
vt1 0.643555 0.500244
vt1 0.665527 0.504395
vt1 0.632324 0.475098
vt1 0.607910 0.470215
vt1 0.668457 0.489258
vt1 0.690430 0.501465
vt1 0.651367 0.483398
vt1 0.678223 0.485840
vt1 0.633789 0.472168
vt1 0.623535 0.458984
vt1 0.687988 0.485840
vt1 0.703125 0.474121
vt1 0.712402 0.490234
vt1 0.705078 0.476562
vt1 0.715820 0.459961
vt1 0.729004 0.468750
vt1 0.731445 0.469727
vt1 0.721680 0.444824
vt1 0.740234 0.446289
vt1 0.737793 0.445801
vt1 0.740723 0.423828
vt1 0.725098 0.423828
vt1 0.721680 0.423828
vt1 0.733398 0.400391
vt1 0.715332 0.405762
vt1 0.718262 0.405273
vt1 0.718262 0.380371
vt1 0.703613 0.392090
vt1 0.706055 0.390137
vt1 0.687500 0.381836
vt1 0.694336 0.367676
vt1 0.695312 0.365234
vt1 0.672363 0.378418
vt1 0.670410 0.363281
vt1 0.670410 0.360352
vt1 0.648926 0.364258
vt1 0.650879 0.379395
vt1 0.651855 0.382324
vt1 0.635742 0.391602
vt1 0.633789 0.389160
vt1 0.626465 0.375488
vt1 0.623535 0.405273
vt1 0.621094 0.403809
vt1 0.608887 0.393555
vt1 0.616699 0.422852
vt1 0.599609 0.416504
vt1 0.614258 0.422363
vt1 0.615723 0.439941
vt1 0.600586 0.443848
vt1 0.598145 0.444336
vt1 0.620117 0.459961
vn 0.023622 0.110236 0.992126
vn -0.149606 0.094488 0.984252
vn 0.007874 0.110236 0.992126
vn 0.314961 0.062992 0.944882
vn 0.330709 0.023622 0.944882
vn 0.496063 0.031496 0.866142
vn 0.503937 0.031496 0.858268
vn 0.763780 0.031496 0.645669
vn 0.740157 0.031496 0.677165
vn 0.937008 0.039370 0.338583
vn 0.937008 0.039370 0.338583
vn 1.000000 0.039370 -0.000000
vn 1.000000 0.039370 -0.000000
vn 0.937008 0.039370 -0.338583
vn 0.937008 0.039370 -0.338583
vn 0.763780 0.039370 -0.645669
vn 0.763780 0.039370 -0.645669
vn 0.503937 0.039370 -0.858268
vn 0.496063 0.031496 -0.866142
vn 0.307087 0.055118 -0.952756
vn 0.291339 0.070866 -0.952756
vn 0.322835 0.023622 -0.944882
vn 0.322835 0.944882 -0.039370
vn 0.322835 0.944882 -0.039370
vn 0.322835 0.944882 -0.000000
vn 0.322835 0.944882 0.039370
vn 0.322835 0.944882 0.039370
vn -0.393701 -0.007874 0.921260
vn -0.787402 -0.086614 0.614173
vn -0.881890 -0.110236 0.464567
vn -0.992126 -0.149606 0.000000
vn -0.905512 -0.118110 -0.417323
vn -0.787402 -0.086614 -0.614173
vn -0.393701 -0.007874 -0.921260
vn -0.519685 0.078740 -0.850394
vn -0.149606 0.094488 -0.984252
vn -0.496063 0.078740 -0.866142
vn -0.763780 0.078740 -0.637795
vn -0.866142 0.078740 -0.496063
vn -0.937008 0.078740 -0.338583
vn -1.000000 0.078740 -0.000000
vn -1.000000 0.078740 -0.000000
vn -0.937008 0.078740 0.338583
vn -0.937008 0.078740 0.346457
vn -0.763780 0.078740 0.637795
vn -0.787402 0.078740 0.614173
vn -0.488189 0.078740 0.866142
vn 0.086614 -0.984252 -0.141732
vn 0.031496 -0.984252 -0.165354
vn -0.015748 -0.992126 -0.118110
vn 0.086614 -0.992126 -0.070866
vn 0.173228 -0.984252 0.000000
vn 0.157480 -0.984252 -0.055118
vn 0.102362 -0.992126 0.039370
vn -0.102362 -0.992126 -0.039370
vn -0.086614 -0.984252 -0.141732
vn -0.125984 -0.984252 -0.110236
vn 0.086614 -0.984252 0.141732
vn 0.125984 -0.984252 0.110236
vn 0.023622 -0.992126 0.118110
vn -0.086614 -0.992126 0.070866
vn -0.173228 -0.984252 0.000000
vn -0.157480 -0.984252 0.055118
vn -0.086614 -0.984252 0.141732
vn -0.031496 -0.984252 0.173228
vn -0.007874 1.000000 -0.015748
vn 0.000000 1.000000 -0.015748
vn 0.007874 1.000000 -0.007874
vn 0.015748 1.000000 -0.015748
vn -0.007874 1.000000 -0.007874
vn -0.015748 1.000000 -0.007874
vn -0.015748 1.000000 -0.000000
vn -0.015748 1.000000 -0.000000
vn -0.007874 1.000000 0.007874
vn -0.007874 1.000000 0.015748
vn -0.007874 1.000000 0.007874
vn 0.015748 1.000000 0.015748
vn 0.007874 1.000000 0.007874
vn 0.000000 1.000000 0.015748
vn 0.496063 0.000000 0.866142
vn 0.157480 0.377953 0.913386
vn 0.173228 -0.015748 0.984252
vn 0.464567 0.377953 0.803149
vn 0.740157 -0.015748 0.669291
vn 0.102362 0.811024 0.574803
vn 0.708661 0.377953 0.598425
vn 0.929134 -0.023622 0.377953
vn 0.291339 0.811024 0.503937
vn 0.866142 0.377953 0.314961
vn 1.000000 -0.023622 0.039370
vn 0.220472 0.897638 0.377953
vn 0.078740 0.897638 0.425197
vn 0.448819 0.811024 0.377953
vn 0.338583 0.897638 0.283464
vn 0.519685 0.826772 0.204724
vn 0.322835 0.937008 0.141732
vn 0.929134 0.377953 -0.000000
vn 0.937008 -0.000000 -0.338583
vn 0.519685 0.858268 -0.000000
vn 0.866142 0.377953 -0.314961
vn 0.763780 -0.000000 -0.645669
vn 0.275591 0.960630 -0.000000
vn 0.031496 1.000000 0.007874
vn 0.322835 0.937008 -0.141732
vn 0.007874 1.000000 -0.007874
vn 0.519685 0.826772 -0.204724
vn 0.338583 0.897638 -0.283465
vn 0.708661 0.377953 -0.598425
vn 0.527559 -0.015748 -0.850394
vn 0.448819 0.811023 -0.377953
vn 0.464567 0.377953 -0.803150
vn 0.204724 -0.023622 -0.976378
vn 0.291339 0.811023 -0.503937
vn 0.220472 0.897638 -0.377953
vn 0.157480 0.377953 -0.913386
vn -0.133858 -0.023622 -0.992126
vn 0.102362 0.811023 -0.574803
vn 0.078740 0.897638 -0.425197
vn -0.078740 0.897638 -0.425197
vn -0.157480 0.377953 -0.913386
vn -0.503937 -0.000000 -0.866142
vn -0.102362 0.811023 -0.574803
vn -0.220472 0.897638 -0.377953
vn -0.464567 0.377953 -0.803150
vn -0.763780 -0.000000 -0.645669
vn -0.291339 0.811023 -0.503937
vn -0.330709 0.897638 -0.275591
vn -0.708661 0.377953 -0.598425
vn -0.921260 -0.023622 -0.377953
vn -0.448819 0.811023 -0.370079
vn -0.409449 0.897638 -0.149606
vn -0.866142 0.377953 -0.314961
vn -1.000000 -0.023622 -0.039370
vn -0.543307 0.811023 -0.196850
vn -0.582677 0.811023 -0.000000
vn -0.433071 0.897638 -0.000000
vn -0.929134 0.377953 -0.000000
vn -0.952756 -0.015748 0.307087
vn -0.543307 0.811023 0.196850
vn -0.409449 0.897638 0.149606
vn -0.330709 0.897638 0.275590
vn -0.866142 0.377953 0.314961
vn -0.787402 -0.023622 0.614173
vn -0.448819 0.811024 0.370079
vn -0.708661 0.377953 0.598425
vn -0.503937 0.000000 0.866142
vn -0.220472 0.897638 0.377953
vn -0.464567 0.377953 0.803149
vn -0.291339 0.811024 0.503937
vn -0.102362 0.811024 0.574803
vn -0.078740 0.897638 0.425197
vn 0.078740 0.897638 0.425197
vn 0.102362 0.811024 0.574803
vn -0.157480 0.377953 0.913386
vn 0.157480 0.377953 0.913386
vn -0.141732 -0.023622 0.992126
vn 0.173228 -0.015748 0.984252
vn 0.141732 0.960630 0.244094
vn 0.102362 0.795276 0.590551
vn 0.047244 0.960630 0.283464
vn 0.299213 0.795276 0.519685
vn 0.220472 0.960630 0.181102
vn 0.165354 0.275591 0.944882
vn 0.464567 0.795276 0.385827
vn 0.267717 0.960630 0.094488
vn 0.480315 0.275591 0.834646
vn 0.464567 -0.362205 0.803150
vn 0.165354 -0.362205 0.921260
vn 0.740157 0.275591 0.614173
vn 0.259843 -0.850394 0.448819
vn 0.086614 -0.850394 0.511811
vn 0.031496 -0.984252 0.181102
vn 0.094488 -0.984252 0.157480
vn 0.401575 -0.850394 0.330709
vn 0.141732 -0.984252 0.118110
vn 0.716535 -0.362205 0.598425
vn 0.488189 -0.850394 0.181102
vn 0.173228 -0.984252 0.062992
vn 0.905512 0.275591 0.330709
vn 0.874016 -0.362205 0.314961
vn 0.519685 -0.850394 0.000000
vn 0.181102 -0.984252 0.000000
vn 0.173228 -0.984252 -0.062992
vn 0.929134 -0.362205 0.000000
vn 0.488189 -0.850394 -0.181102
vn 0.141732 -0.984252 -0.118110
vn 0.960630 0.275591 -0.000000
vn 0.874016 -0.362205 -0.322835
vn 0.401575 -0.850394 -0.330709
vn 0.094488 -0.984252 -0.157480
vn 0.566929 0.795275 0.204724
vn 0.314961 0.952756 -0.000000
vn 0.259843 -0.850394 -0.448819
vn 0.055118 -0.976378 -0.212598
vn 0.566929 0.795275 -0.204724
vn 0.267717 0.960630 -0.094488
vn 0.905512 0.275590 -0.330709
vn 0.464567 0.795275 -0.385827
vn 0.220472 0.960630 -0.181102
vn 0.716535 -0.362205 -0.598425
vn 0.740157 0.275590 -0.622047
vn 0.299213 0.803149 -0.519685
vn 0.141732 0.960630 -0.244095
vn 0.480315 0.275590 -0.834646
vn 0.047244 0.944882 -0.314961
vn 0.464567 -0.362205 -0.811023
vn 0.165354 0.291338 -0.944882
vn 0.165354 -0.362205 -0.921260
vn -0.078740 0.811023 -0.582677
vn -0.062992 0.952756 -0.307087
vn -0.181102 0.307086 -0.937008
vn -0.291339 0.803149 -0.511811
vn -0.149606 0.952756 -0.259843
vn -0.086614 -0.850394 -0.511811
vn -0.031496 -0.984252 -0.181102
vn -0.094488 -0.984252 -0.157480
vn -0.165354 -0.362205 -0.921260
vn -0.259843 -0.850394 -0.448819
vn -0.141732 -0.984252 -0.118110
vn -0.464567 -0.362205 -0.803149
vn -0.401575 -0.850394 -0.330709
vn -0.173228 -0.984252 -0.062992
vn -0.480315 0.291338 -0.826772
vn -0.716535 -0.362205 -0.598425
vn -0.488189 -0.850394 -0.181102
vn -0.212598 -0.976378 0.000000
vn -0.740157 0.275590 -0.614173
vn -0.929134 -0.362205 0.000000
vn -0.464567 0.795275 -0.385827
vn -0.220472 0.960630 -0.181102
vn -0.905512 0.275590 -0.330709
vn -0.566929 0.795275 -0.204724
vn -0.267717 0.960630 -0.094488
vn -0.322835 0.944882 -0.000000
vn -0.874016 -0.362205 -0.314961
vn -0.960630 0.275591 -0.000000
vn -0.566929 0.795275 0.204724
vn -0.267717 0.960630 0.094488
vn -0.220472 0.960630 0.181102
vn -0.874016 -0.362205 0.322835
vn -0.464567 0.795276 0.385827
vn -0.141732 0.960630 0.244094
vn -0.905512 0.275591 0.330709
vn -0.299213 0.795276 0.519685
vn -0.070866 0.944882 0.307086
vn -0.740157 0.275591 0.622047
vn 0.047244 0.960630 0.283464
vn 0.102362 0.795276 0.590551
vn -0.480315 0.275591 0.834646
vn -0.716535 -0.362205 0.598425
vn -0.165354 0.275591 0.944882
vn 0.165354 0.275591 0.944882
vn 0.165354 -0.362205 0.921260
vn -0.464567 -0.362205 0.811024
vn -0.165354 -0.362205 0.921260
vn 0.086614 -0.850394 0.511811
vn -0.259843 -0.850394 0.448819
vn -0.023622 -0.976378 0.220473
vn 0.031496 -0.984252 0.181102
vn -0.094488 -0.984252 0.157480
vn -0.141732 -0.984252 0.118110
vn -0.401575 -0.850394 0.330709
vn -0.173228 -0.984252 0.062992
vn -0.488189 -0.850394 0.181102
vn 0.354331 -0.708661 0.606299
vn 0.118110 -0.708661 0.692913
vn 0.188976 -0.039370 0.984252
vn 0.425197 0.535433 0.732283
vn 0.149606 0.535433 0.834646
vn 0.519685 -0.023622 0.850394
vn 0.535433 -0.708661 0.448819
vn 0.653543 0.519685 0.551181
vn 0.763780 -0.015748 0.645669
vn 0.732283 -0.519685 0.440945
vn 0.574803 -0.708661 0.417323
vn 0.771654 0.440945 0.464567
vn 0.685039 0.551181 0.480315
vn 1.000000 0.000000 0.000000
vn 0.692913 -0.724409 0.000000
vn 0.692913 0.724409 -0.000000
vn 0.740157 -0.496063 -0.456693
vn 0.763780 0.456693 -0.456693
vn 0.653543 0.519685 -0.551181
vn 0.685039 0.551181 -0.480315
vn 0.763780 -0.000000 -0.645669
vn 0.535433 -0.708661 -0.448819
vn 0.574803 -0.708661 -0.417323
vn 0.519685 -0.007874 -0.850394
vn 0.354331 -0.708661 -0.606299
vn 0.425197 0.535433 -0.732283
vn 0.141732 -0.606299 -0.787401
vn 0.015748 0.244094 -0.968504
vn 0.149606 0.535433 -0.834646
vn -0.149606 0.535433 -0.834646
vn -0.425197 0.535433 -0.732283
vn -0.157480 -0.370079 -0.913386
vn -0.118110 -0.708661 -0.692913
vn -0.393701 -0.606299 -0.692913
vn -0.614173 0.251968 -0.748031
vn -0.645669 0.535433 -0.543307
vn -0.614173 -0.598425 -0.511811
vn -0.937008 -0.039370 -0.346457
vn -0.795276 0.535433 -0.291339
vn -0.661417 -0.708661 -0.236220
vn -1.000000 -0.055118 -0.031496
vn -0.842520 0.535433 -0.000000
vn -0.700787 -0.708661 0.000000
vn -0.795276 0.535433 0.291339
vn -0.755906 -0.598425 0.259843
vn -0.826772 0.055118 0.559055
vn -0.535433 -0.708661 0.448819
vn -0.645669 0.535433 0.543307
vn -0.385827 -0.614173 0.685039
vn -0.385827 0.244095 0.889764
vn -0.425197 0.535433 0.732283
vn -0.141732 -0.598425 0.787401
vn -0.149606 0.535433 0.834646
vn 0.165354 -0.031496 0.984252
vn 0.118110 -0.708661 0.692913
vn 0.149606 0.535433 0.834646
vn 0.000000 -1.000000 0.000000
vn 0.000000 -1.000000 0.000000
vn 0.000000 -1.000000 0.000000
vn 0.000000 -1.000000 0.000000
vn 0.000000 -1.000000 0.000000
vn 0.000000 -1.000000 0.000000
vn 0.000000 -1.000000 0.000000
vn 0.000000 -1.000000 0.000000
vn 0.000000 -1.000000 0.000000
vn 0.000000 -1.000000 0.000000
vn 0.000000 -1.000000 0.000000
vn 0.000000 -1.000000 0.000000
vn 0.000000 -1.000000 0.000000
vn 0.000000 -1.000000 0.000000
vn 0.000000 -1.000000 0.000000
vn 0.000000 -1.000000 0.000000
vn 0.000000 -1.000000 0.000000
vn 0.000000 -1.000000 0.000000
vn 0.000000 -1.000000 0.000000
vn 0.000000 -1.000000 0.000000
vn 0.000000 -1.000000 0.000000
vn 0.000000 -1.000000 0.000000
vn 0.000000 -1.000000 0.000000
vn 0.000000 -1.000000 0.000000
vn 0.000000 -1.000000 0.000000
vn 0.000000 -1.000000 0.000000
vn 0.000000 -1.000000 0.000000
vn 0.000000 -1.000000 0.000000
vn 0.000000 -1.000000 0.000000
vn 0.000000 -1.000000 0.000000
vn 0.000000 -1.000000 0.000000
vn 0.000000 -1.000000 0.000000
vn 0.000000 -1.000000 0.000000
vn 0.000000 -1.000000 0.000000
vn 0.000000 -1.000000 0.000000
vn 0.000000 -1.000000 0.000000
vn 0.000000 -1.000000 0.000000
vn 0.000000 -1.000000 0.000000
vn -0.173228 -0.133858 0.976378
vn 0.173228 -0.047244 0.984252
vn 0.173228 -0.133858 0.976378
vn 0.133858 -0.692913 0.708661
vn -0.173228 -0.047244 0.984252
vn -0.125984 -0.716535 0.685039
vn -0.496063 -0.133858 0.858268
vn -0.496063 -0.047244 0.866142
vn -0.346457 -0.724409 0.590551
vn -0.755906 -0.133858 0.637795
vn -0.763780 -0.047244 0.645669
vn -0.535433 -0.732283 0.425197
vn -0.937008 -0.047244 0.338583
vn -0.929134 -0.133858 0.346457
vn -0.645669 -0.724409 0.236221
vn -1.000000 -0.047244 0.000000
vn -0.716535 -0.700787 -0.007874
vn -0.992126 -0.133858 0.000000
vn -0.929134 -0.133858 -0.338583
vn -0.937008 -0.047244 -0.338583
vn -0.629921 -0.732283 -0.251968
vn -0.763780 -0.133858 -0.637795
vn -0.763780 -0.047244 -0.645669
vn -0.527559 -0.724409 -0.440945
vn -0.496063 -0.047244 -0.866142
vn -0.496063 -0.133858 -0.858268
vn -0.346457 -0.724409 -0.590551
vn -0.173228 -0.047244 -0.984252
vn -0.102362 -0.133858 -0.984252
vn -0.102362 -0.732283 -0.677165
vn 0.118110 -0.724409 -0.677165
vn 0.173228 -0.133858 -0.976378
vn 0.173228 -0.047244 -0.984252
vn 0.527559 -0.133858 -0.842520
vn 0.346457 -0.724409 -0.590551
vn 0.496063 -0.047244 -0.866142
vn 0.535433 -0.732283 -0.425197
vn 0.755906 -0.133858 -0.637795
vn 0.763780 -0.047244 -0.645669
vn 0.937008 -0.047244 -0.338583
vn 0.929134 -0.133858 -0.338583
vn 0.645669 -0.724409 -0.236220
vn 1.000000 -0.047244 0.000000
vn 0.716535 -0.700787 0.007874
vn 0.992126 -0.133858 0.000000
vn 0.929134 -0.133858 0.338583
vn 0.937008 -0.047244 0.338583
vn 0.629921 -0.732283 0.251969
vn 0.763780 -0.133858 0.637795
vn 0.763780 -0.047244 0.645669
vn 0.527559 -0.724409 0.440945
vn 0.496063 -0.047244 0.866142
vn 0.503937 -0.133858 0.858268
vn 0.346457 -0.724409 0.590551
vn 0.173228 -0.047244 0.984252
vn 0.110236 -0.692913 0.716535
vn 0.173228 -0.133858 0.976378
vn -0.007874 1.000000 -0.007874
vn -0.007874 1.000000 -0.007874
vn -0.346457 0.929134 -0.133858
vn -0.007874 1.000000 -0.007874
vn -0.433071 0.874016 -0.228347
vn -0.007874 1.000000 -0.000000
vn -0.858268 0.425197 -0.291339
vn -0.826772 0.370079 -0.417323
vn -0.897638 0.039370 -0.448819
vn -0.952756 0.055118 -0.291339
vn -0.354331 0.937008 -0.000000
vn -0.007874 1.000000 -0.000000
vn -0.007874 1.000000 -0.000000
vn -0.905512 0.425197 0.007874
vn -0.992126 0.055118 0.086614
vn -0.330709 0.937008 0.118110
vn -0.007874 1.000000 0.007874
vn 0.007874 1.000000 0.007874
vn 0.000000 1.000000 0.015748
vn -0.417323 0.866142 0.259842
vn -0.842520 0.425197 0.322835
vn -0.716535 0.535433 0.448819
vn -0.913386 0.047244 0.409449
vn -0.850394 0.039370 0.519685
vn 0.094488 0.826772 0.551181
vn 0.204724 0.913386 0.354331
vn 0.354331 0.708661 0.606299
vn 0.417323 0.826772 0.370079
vn -0.055118 0.944882 -0.330709
vn -0.070866 0.842520 0.535433
vn -0.259843 0.937008 -0.220473
vn 0.503937 0.842520 0.204724
vn -0.283465 0.850394 -0.448819
vn -0.590551 0.740157 -0.322835
vn -0.110236 0.716535 -0.685039
vn 0.094488 0.716535 -0.685039
vn -0.322835 0.937008 -0.118110
vn -0.685039 0.732283 -0.000000
vn 0.535433 0.842520 0.023622
vn -0.338583 0.937008 -0.000000
vn -0.488189 0.850394 0.188976
vn 0.377953 0.913386 -0.141732
vn 0.661417 0.708661 -0.236221
vn -0.385827 0.874016 0.307086
vn 0.535433 0.708661 -0.448819
vn 0.307087 0.913386 -0.259843
vn 0.291339 0.826771 -0.472441
vn -0.173228 0.937008 0.291338
vn -0.354331 0.700787 0.614173
vn 0.118110 0.842520 -0.527559
vn -0.118110 0.716535 0.685039
vn -0.055118 0.944882 0.330709
vn -0.070866 0.842520 -0.535433
vn 0.118110 0.740157 0.669291
vn 0.062992 0.944882 0.322834
vn 0.267717 0.866142 0.425197
vn -0.204724 0.913386 -0.354331
vn -0.354331 0.708661 -0.606299
vn 0.354331 0.881890 0.314960
vn -0.314961 0.913386 -0.259843
vn -0.535433 0.708661 -0.448819
vn -0.496063 0.850394 -0.181102
vn 0.330709 0.937008 0.118110
vn 0.653543 0.716535 0.236220
vn 0.692913 0.716535 -0.000000
vn 0.346457 0.937008 -0.000000
vn -0.527559 0.850394 -0.000000
vn 0.653543 0.716535 -0.236221
vn 0.330709 0.937008 -0.118110
vn -0.535433 0.826772 0.165354
vn 0.535433 0.716535 -0.448819
vn -0.425197 0.842520 0.330709
vn 0.267717 0.937008 -0.220473
vn 0.259843 0.866142 -0.433071
vn -0.204724 0.913386 0.354331
vn -0.354331 0.708661 0.606299
vn 0.062992 0.944882 -0.322835
tan 0.007812 0.992126 -0.110422 1.000000
tan 0.000000 0.984252 -0.094488 1.000000
tan 0.000000 0.992126 -0.110236 1.000000
tan 0.029760 -0.944882 0.053072 1.000000
tan 0.029946 -0.947486 0.013206 1.000000
tan 0.026164 -0.942340 0.019282 1.000000
tan 0.029264 -0.893980 0.015624 1.000000
tan 0.032116 -0.985988 0.010106 1.000000
tan 0.043028 -0.981834 -0.001364 1.000000
tan 0.039370 -0.953004 0.001860 1.000000
tan 0.039370 -0.953004 0.001860 1.000000
tan 0.039370 -1.000000 0.000000 1.000000
tan 0.039370 -1.000000 0.000000 1.000000
tan 0.039370 -0.953004 -0.001860 1.000000
tan 0.039370 -0.953004 -0.001860 1.000000
tan 0.038874 -0.985988 -0.014136 1.000000
tan 0.038874 -0.985988 -0.014136 1.000000
tan 0.029822 -0.893980 -0.023498 1.000000
tan 0.026164 -0.942340 -0.019282 1.000000
tan 0.032178 -0.964846 -0.045446 1.000000
tan 0.030008 -0.952756 -0.061690 1.000000
tan 0.029946 -0.947424 -0.013454 1.000000
tan 0.944882 -0.323145 -0.007440 1.000000
tan 0.945192 -0.323145 -0.004898 1.000000
tan 0.944882 -0.322835 0.000000 1.000000
tan 0.945192 -0.323455 0.012338 1.000000
tan 0.945192 -0.323455 0.012338 1.000000
tan 0.138446 -0.937752 0.051150 1.000000
tan 0.168950 -0.961746 0.080972 1.000000
tan 0.152396 -0.937504 0.066836 1.000000
tan 0.149606 -0.992126 0.007812 1.000000
tan 0.147684 -0.918656 -0.060450 1.000000
tan 0.145452 -0.967946 -0.049972 1.000000
tan 0.116684 -0.945006 -0.041788 1.000000
tan 0.006820 0.888710 0.078120 1.000000
tan 0.000000 0.984252 0.094488 1.000000
tan 0.014880 0.946246 0.077500 1.000000
tan 0.067580 0.981958 0.040300 1.000000
tan 0.078740 0.901296 0.005580 1.000000
tan 0.078740 0.953004 0.003720 1.000000
tan 0.078740 1.000000 -0.000000 1.000000
tan 0.078740 1.000000 -0.000000 1.000000
tan 0.078740 0.953004 -0.003720 1.000000
tan 0.078740 0.939736 -0.000620 1.000000
tan 0.067580 0.981958 -0.040300 1.000000
tan 0.075020 0.929134 -0.022940 1.000000
tan 0.004340 0.893050 -0.078740 1.000000
tan 0.977618 0.071424 0.101432 1.000000
tan 0.977804 0.013020 0.108748 1.000000
tan 0.984314 -0.029574 0.117180 1.000000
tan 0.984314 0.078678 0.101556 1.000000
tan 0.976502 0.171864 0.100750 1.000000
tan 0.976502 0.150598 0.100750 1.000000
tan 0.984314 0.105896 0.109368 1.000000
tan 0.984314 -0.105896 0.109368 1.000000
tan 0.976502 -0.102672 0.116250 1.000000
tan 0.976502 -0.138012 0.116250 1.000000
tan 0.976502 0.102672 0.116250 1.000000
tan 0.976502 0.138012 0.116250 1.000000
tan 0.984314 0.037386 0.117180 1.000000
tan 0.984314 -0.078678 0.101556 1.000000
tan 0.976502 -0.171864 0.100750 1.000000
tan 0.976502 -0.150598 0.100750 1.000000
tan 0.977618 -0.071424 0.101432 1.000000
tan 0.976502 -0.010788 0.116250 1.000000
tan -1.000000 -0.007874 0.000000 1.000000
tan -1.000000 0.000000 0.000000 1.000000
tan -1.000000 0.007874 -0.000000 1.000000
tan -1.000000 0.015748 -0.000000 1.000000
tan -1.000000 -0.007874 0.000000 1.000000
tan -1.000000 -0.015748 0.000000 1.000000
tan -1.000000 -0.015748 0.000000 1.000000
tan -1.000000 -0.015748 0.000000 1.000000
tan -1.000000 -0.007874 0.000000 1.000000
tan -1.000000 -0.007874 0.000000 1.000000
tan -1.000000 -0.007874 0.000000 1.000000
tan -1.000000 0.015748 -0.000000 1.000000
tan -1.000000 0.007874 -0.000000 1.000000
tan -1.000000 0.000000 0.000000 1.000000
tan -0.040920 0.946246 0.023436 1.000000
tan -0.101184 0.912394 -0.360097 1.000000
tan -0.046500 0.984252 0.023932 1.000000
tan -0.123504 0.898568 -0.351417 1.000000
tan -0.038936 0.968380 0.065844 1.000000
tan -0.207824 0.580073 -0.781449 1.000000
tan -0.332569 0.917478 -0.185628 1.000000
tan 0.005766 0.935086 0.044268 1.000000
tan -0.367971 0.583111 -0.725711 1.000000
tan -0.387377 0.889082 -0.001612 1.000000
tan 0.023002 1.000000 0.015748 1.000000
tan -0.438217 0.437969 -0.784549 1.000000
tan -0.282349 0.429289 -0.853990 1.000000
tan -0.644987 0.586087 -0.491723 1.000000
tan -0.706801 0.442929 -0.558373 1.000000
tan -0.803956 0.553289 -0.193626 1.000000
tan -0.908612 0.346147 -0.218798 1.000000
tan -0.377953 0.929134 -0.000000 1.000000
tan -0.013330 0.953004 -0.036890 1.000000
tan -0.858268 0.519685 -0.000000 1.000000
tan -0.387377 0.889082 0.001612 1.000000
tan -0.015252 0.985988 -0.018042 1.000000
tan -0.960630 0.275591 -0.000000 1.000000
tan -1.000000 0.031744 -0.031496 1.000000
tan -0.908612 0.347263 0.226176 1.000000
tan -1.000000 0.008122 0.031496 1.000000
tan -0.803956 0.553289 0.193626 1.000000
tan -0.699733 0.440263 0.558373 1.000000
tan -0.327857 0.922190 0.194184 1.000000
tan 0.001488 0.893546 -0.015624 1.000000
tan -0.644987 0.586087 0.491723 1.000000
tan -0.095232 0.894910 0.366049 1.000000
tan 0.000000 0.976378 -0.023622 1.000000
tan -0.344845 0.580197 0.734391 1.000000
tan -0.409945 0.436977 0.798685 1.000000
tan -0.011904 0.918346 0.377953 1.000000
tan 0.000000 0.992126 -0.023622 1.000000
tan -0.095790 0.582367 0.804637 1.000000
tan -0.127224 0.433009 0.890570 1.000000
tan 0.127224 0.433009 0.890570 1.000000
tan 0.011904 0.918346 0.377953 1.000000
tan 0.006820 0.947734 -0.003968 1.000000
tan 0.095790 0.582367 0.804637 1.000000
tan 0.417013 0.435737 0.791617 1.000000
tan 0.101556 0.894910 0.362391 1.000000
tan 0.005084 0.985988 -0.006014 1.000000
tan 0.344845 0.580197 0.734391 1.000000
tan 0.699733 0.431397 0.565441 1.000000
tan 0.323145 0.922190 0.199764 1.000000
tan -0.023622 0.927212 -0.000372 1.000000
tan 0.638601 0.580693 0.498109 1.000000
tan 0.855230 0.433691 0.261516 1.000000
tan 0.374977 0.889082 0.035712 1.000000
tan -0.023622 1.000000 -0.000000 1.000000
tan 0.785480 0.575795 0.204352 1.000000
tan 0.811024 0.582677 -0.000000 1.000000
tan 0.897638 0.433071 -0.000000 1.000000
tan 0.377953 0.929134 -0.000000 1.000000
tan -0.015748 0.952756 -0.000000 1.000000
tan 0.785480 0.577345 -0.210738 1.000000
tan 0.855230 0.434869 -0.268585 1.000000
tan 0.692665 0.428793 -0.565441 1.000000
tan 0.374977 0.889082 -0.035712 1.000000
tan -0.032178 0.933970 -0.005332 1.000000
tan 0.638601 0.583607 -0.504495 1.000000
tan 0.313721 0.922190 -0.210924 1.000000
tan 0.000000 0.947734 -0.000000 1.000000
tan 0.409945 0.436977 -0.798686 1.000000
tan 0.095232 0.894910 -0.366049 1.000000
tan 0.344845 0.580197 -0.734391 1.000000
tan 0.113088 0.583979 -0.803832 1.000000
tan 0.148428 0.431521 -0.883502 1.000000
tan 0.013764 0.424577 -0.898878 1.000000
tan 0.009858 0.576415 -0.815054 1.000000
tan 0.026288 0.918346 -0.375473 1.000000
tan 0.070184 0.917106 -0.391593 1.000000
tan 0.023436 0.992126 0.026970 1.000000
tan 0.031000 0.984252 0.010292 1.000000
tan 0.453841 -0.282224 0.847170 1.000000
tan 0.162626 -0.599789 0.779527 1.000000
tan 0.287433 -0.284208 0.915246 1.000000
tan 0.321533 -0.597185 0.728749 1.000000
tan 0.733709 -0.285324 0.620249 1.000000
tan 0.026660 -0.947486 0.271685 1.000000
tan 0.626201 -0.602765 0.488437 1.000000
tan 0.907682 -0.283464 0.310125 1.000000
tan 0.041044 -0.920826 0.280427 1.000000
tan -0.116560 -0.894910 -0.336165 1.000000
tan -0.091202 -0.919214 -0.345031 1.000000
tan 0.229524 -0.953438 0.151218 1.000000
tan -0.391903 -0.518011 -0.754603 1.000000
tan -0.230392 -0.517515 -0.820881 1.000000
tan -0.364251 -0.179924 -0.914502 1.000000
tan -0.511501 -0.184264 -0.844752 1.000000
tan -0.669601 -0.521917 -0.528985 1.000000
tan -0.759502 -0.184698 -0.627751 1.000000
tan -0.309877 -0.924112 -0.188294 1.000000
tan -0.816914 -0.518879 -0.234360 1.000000
tan -0.930002 -0.185008 -0.333251 1.000000
tan 0.275591 -0.928948 0.019530 1.000000
tan -0.359353 -0.896894 -0.034224 1.000000
tan -0.850394 -0.519685 0.000000 1.000000
tan -0.984252 -0.181102 0.000000 1.000000
tan -0.930002 -0.184512 0.325501 1.000000
tan -0.362205 -0.929134 0.000000 1.000000
tan -0.816914 -0.518879 0.234360 1.000000
tan -0.759502 -0.184698 0.627751 1.000000
tan 0.275591 -0.960630 0.000000 1.000000
tan -0.359353 -0.897638 0.034224 1.000000
tan -0.669601 -0.521917 0.528985 1.000000
tan -0.488251 -0.183272 0.852502 1.000000
tan 0.770228 -0.600657 0.200384 1.000000
tan 0.952756 -0.314961 0.000000 1.000000
tan -0.374977 -0.517453 0.763345 1.000000
tan -0.153760 -0.217930 0.961002 1.000000
tan 0.770228 -0.600657 -0.200384 1.000000
tan 0.907682 -0.283465 -0.310125 1.000000
tan 0.275591 -0.931552 -0.021700 1.000000
tan 0.626201 -0.602765 -0.488437 1.000000
tan 0.741273 -0.285635 -0.612685 1.000000
tan -0.305165 -0.928824 0.196788 1.000000
tan 0.234360 -0.957592 -0.145390 1.000000
tan 0.335173 -0.595449 -0.727261 1.000000
tan 0.461405 -0.281419 -0.839606 1.000000
tan 0.062930 -0.924608 -0.269080 1.000000
tan 0.141360 -0.319549 -0.937442 1.000000
tan -0.091264 -0.902536 0.350797 1.000000
tan 0.006882 -0.948788 -0.291338 1.000000
tan -0.011408 -0.926468 0.362205 1.000000
tan -0.070246 -0.584909 -0.804637 1.000000
tan -0.172546 -0.313659 -0.937752 1.000000
tan -0.007254 -0.941286 -0.307086 1.000000
tan -0.335173 -0.585033 -0.727261 1.000000
tan -0.457623 -0.301011 -0.840226 1.000000
tan 0.107136 -0.518693 0.843698 1.000000
tan 0.162750 -0.183458 0.968752 1.000000
tan 0.488251 -0.183272 0.852502 1.000000
tan 0.011408 -0.926468 0.362205 1.000000
tan 0.374977 -0.517453 0.763345 1.000000
tan 0.759502 -0.184698 0.627751 1.000000
tan 0.091264 -0.894910 0.350797 1.000000
tan 0.662905 -0.518755 0.528985 1.000000
tan 0.930002 -0.184512 0.325501 1.000000
tan -0.066526 -0.916920 -0.284456 1.000000
tan 0.305165 -0.928824 0.196788 1.000000
tan 0.816914 -0.518879 0.234360 1.000000
tan 0.976378 -0.212598 0.000000 1.000000
tan -0.234360 -0.953438 -0.145390 1.000000
tan 0.362205 -0.929134 0.000000 1.000000
tan -0.626201 -0.602765 -0.488437 1.000000
tan -0.741273 -0.285635 -0.612685 1.000000
tan -0.275591 -0.928948 -0.019530 1.000000
tan -0.770228 -0.600657 -0.200384 1.000000
tan -0.907682 -0.283465 -0.310125 1.000000
tan -0.944882 -0.322835 0.000000 1.000000
tan 0.359353 -0.896894 0.034224 1.000000
tan -0.275591 -0.960630 0.000000 1.000000
tan -0.770228 -0.600657 0.200384 1.000000
tan -0.907682 -0.283464 0.310125 1.000000
tan -0.741273 -0.285634 0.612685 1.000000
tan 0.359353 -0.897638 -0.034224 1.000000
tan -0.626201 -0.602765 0.488437 1.000000
tan -0.453841 -0.282224 0.847170 1.000000
tan -0.275591 -0.928948 0.019530 1.000000
tan -0.331887 -0.599541 0.726393 1.000000
tan -0.126480 -0.314154 0.937442 1.000000
tan -0.234360 -0.957592 0.145390 1.000000
tan 0.015128 -0.284208 0.960630 1.000000
tan 0.018972 -0.595387 0.798500 1.000000
tan -0.054188 -0.920826 0.272863 1.000000
tan 0.305165 -0.928824 -0.196788 1.000000
tan 0.010540 -0.947486 0.278195 1.000000
tan -0.017980 -0.947486 0.279497 1.000000
tan 0.063984 -0.925166 -0.375225 1.000000
tan 0.097650 -0.902536 -0.347139 1.000000
tan 0.025916 -0.926468 -0.359601 1.000000
tan -0.007998 -0.513857 -0.852440 1.000000
tan 0.381673 -0.515965 -0.756649 1.000000
tan 0.176824 -0.221279 -0.961002 1.000000
tan 0.000000 -0.181102 -0.984252 1.000000
tan 0.496001 -0.184016 -0.852502 1.000000
tan 0.751751 -0.183582 -0.627751 1.000000
tan 0.662905 -0.518755 -0.528985 1.000000
tan 0.930002 -0.185008 -0.333251 1.000000
tan 0.816914 -0.518879 -0.234360 1.000000
tan -0.273421 -0.695269 -0.652861 1.000000
tan -0.133176 -0.704197 -0.697501 1.000000
tan -0.007750 -0.984252 -0.037882 1.000000
tan 0.164424 -0.828260 0.510137 1.000000
tan 0.090520 -0.838675 0.521793 1.000000
tan -0.008928 -0.892802 -0.019344 1.000000
tan -0.569161 -0.698617 -0.424081 1.000000
tan 0.425569 -0.847665 0.294625 1.000000
tan -0.019592 -0.957840 -0.000186 1.000000
tan -0.515593 -0.771653 -0.053196 1.000000
tan -0.613801 -0.708165 -0.357121 1.000000
tan 0.440945 -0.811891 0.038192 1.000000
tan 0.490979 -0.826710 0.248435 1.000000
tan 0.000000 -1.000000 0.000000 1.000000
tan -0.724409 -0.692913 0.000000 1.000000
tan 0.724409 -0.692913 0.000000 1.000000
tan -0.492157 -0.777481 0.046872 1.000000
tan 0.456693 -0.803335 -0.039556 1.000000
tan 0.425569 -0.847666 -0.294624 1.000000
tan 0.490979 -0.826710 -0.248434 1.000000
tan 0.000000 -0.956910 0.000000 1.000000
tan -0.569161 -0.698617 0.424081 1.000000
tan -0.613801 -0.708165 0.357121 1.000000
tan -0.007502 -0.896894 0.003720 1.000000
tan -0.273421 -0.695269 0.652861 1.000000
tan 0.164424 -0.828260 -0.510137 1.000000
tan -0.014322 -0.790749 0.606299 1.000000
tan 0.000000 -0.968504 -0.244094 1.000000
tan 0.029512 -0.842892 -0.535433 1.000000
tan -0.029512 -0.842892 -0.535433 1.000000
tan -0.164424 -0.828260 -0.510137 1.000000
tan 0.011656 -0.918346 0.370079 1.000000
tan 0.066960 -0.698617 0.703081 1.000000
tan 0.124124 -0.757145 0.591977 1.000000
tan -0.103168 -0.934714 -0.230144 1.000000
tan -0.438465 -0.836754 -0.303552 1.000000
tan 0.527745 -0.783433 0.282721 1.000000
tan 0.039370 -0.939736 0.000310 1.000000
tan -0.531217 -0.830306 -0.075888 1.000000
tan 0.691921 -0.696013 0.150660 1.000000
tan 0.055118 -1.000000 0.000000 1.000000
tan -0.535433 -0.842520 0.000000 1.000000
tan 0.708661 -0.700787 0.000000 1.000000
tan -0.531217 -0.830306 0.075888 1.000000
tan 0.598425 -0.776365 -0.047120 1.000000
tan -0.054684 -0.881890 0.006076 1.000000
tan 0.569161 -0.698617 -0.424081 1.000000
tan -0.438465 -0.836753 0.303553 1.000000
tan 0.120900 -0.744807 -0.599665 1.000000
tan 0.001240 -0.898878 0.247133 1.000000
tan -0.164424 -0.828260 0.510137 1.000000
tan 0.014136 -0.790749 -0.598425 1.000000
tan -0.029512 -0.842892 0.535433 1.000000
tan -0.015500 -0.984252 -0.028892 1.000000
tan -0.000744 -0.698493 -0.714241 1.000000
tan -0.031496 -0.840536 0.544857 1.000000
tan -1.000000 -0.000000 -0.078740 1.000000
tan -1.000000 0.000000 0.007874 1.000000
tan -1.000000 0.000000 0.000000 1.000000
tan -1.000000 0.000000 0.078740 1.000000
tan -1.000000 -0.000000 -0.007874 1.000000
tan -1.000000 0.000000 0.000000 1.000000
tan -0.992126 -0.000000 -0.110236 1.000000
tan -0.992126 0.000000 0.110236 1.000000
tan -0.976378 -0.000000 -0.228346 1.000000
tan -0.976378 0.000000 0.228346 1.000000
tan -0.976378 -0.000000 -0.228346 1.000000
tan -0.976378 0.000000 0.228346 1.000000
tan -0.968504 -0.000000 -0.236220 1.000000
tan -0.968504 0.000000 0.236220 1.000000
tan -0.976378 -0.000000 -0.228346 1.000000
tan -0.976378 0.000000 0.236220 1.000000
tan -0.992126 -0.000000 -0.110236 1.000000
tan -0.992126 0.000000 0.110236 1.000000
tan -0.992126 -0.000000 -0.094488 1.000000
tan -0.992126 0.000000 0.094488 1.000000
tan -0.992126 0.000000 0.102362 1.000000
tan -0.992126 -0.000000 -0.102362 1.000000
tan -0.992126 0.000000 0.110236 1.000000
tan -0.992126 -0.000000 -0.110236 1.000000
tan -0.976378 0.000000 0.228346 1.000000
tan -0.976378 -0.000000 -0.228346 1.000000
tan -0.976378 0.000000 0.228346 1.000000
tan -0.976378 -0.000000 -0.228346 1.000000
tan -0.976378 0.000000 0.220472 1.000000
tan -0.976378 -0.000000 -0.220472 1.000000
tan -0.976378 0.000000 0.220472 1.000000
tan -0.976378 -0.000000 -0.220472 1.000000
tan -0.992126 0.000000 0.125984 1.000000
tan -0.992126 -0.000000 -0.125984 1.000000
tan -0.992126 0.000000 0.125984 1.000000
tan -0.992126 -0.000000 -0.125984 1.000000
tan -1.000000 0.000000 0.000000 1.000000
tan -1.000000 0.000000 0.000000 1.000000
tan 0.054870 -0.977742 -0.124310 1.000000
tan 0.069378 -0.985616 -0.059520 1.000000
tan 0.083514 -0.970054 -0.147808 1.000000
tan 0.022444 -0.709715 -0.698183 1.000000
tan 0.046872 -0.985616 -0.039060 1.000000
tan 0.044888 -0.691983 -0.715543 1.000000
tan 0.063550 -0.886664 -0.101556 1.000000
tan 0.049848 -0.946246 -0.023064 1.000000
tan 0.305909 -0.681257 -0.656209 1.000000
tan 0.147374 -0.946556 -0.023994 1.000000
tan 0.055800 -0.985988 -0.006138 1.000000
tan 0.622729 -0.676297 -0.380557 1.000000
tan 0.047244 -0.953004 -0.002232 1.000000
tan 0.133858 -0.931862 -0.001054 1.000000
tan 0.707297 -0.682497 -0.159712 1.000000
tan 0.047244 -1.000000 0.000000 1.000000
tan 0.700787 -0.716473 -0.005518 1.000000
tan 0.133858 -0.992126 0.000000 1.000000
tan 0.133858 -0.931800 0.001054 1.000000
tan 0.047244 -0.953004 0.002232 1.000000
tan 0.720751 -0.659681 0.115320 1.000000
tan 0.123318 -0.949718 0.051646 1.000000
tan 0.040548 -0.985988 0.024180 1.000000
tan 0.576105 -0.683427 0.433505 1.000000
tan 0.008928 -0.946246 0.046500 1.000000
tan 0.009486 -0.893422 0.133858 1.000000
tan 0.285201 -0.680451 0.667369 1.000000
tan 0.000372 -0.985616 0.047244 1.000000
tan 0.000000 -0.984252 0.133858 1.000000
tan 0.034596 -0.682001 0.732283 1.000000
tan -0.068448 -0.682993 0.718705 1.000000
tan -0.001054 -0.977742 0.133858 1.000000
tan -0.000372 -0.985616 0.047244 1.000000
tan -0.012648 -0.885734 0.132804 1.000000
tan -0.285201 -0.680451 0.667369 1.000000
tan -0.008928 -0.946246 0.046500 1.000000
tan -0.622729 -0.679645 0.386323 1.000000
tan -0.114886 -0.975200 0.068510 1.000000
tan -0.040548 -0.985988 0.024180 1.000000
tan -0.047244 -0.953004 0.002232 1.000000
tan -0.133858 -0.931800 0.001054 1.000000
tan -0.707297 -0.682497 0.159712 1.000000
tan -0.047244 -1.000000 0.000000 1.000000
tan -0.700787 -0.716473 0.005518 1.000000
tan -0.133858 -0.992126 0.000000 1.000000
tan -0.133858 -0.931800 -0.001054 1.000000
tan -0.047244 -0.953004 -0.002232 1.000000
tan -0.720751 -0.659681 -0.115320 1.000000
tan -0.153450 -0.949718 -0.015562 1.000000
tan -0.055800 -0.985988 -0.006138 1.000000
tan -0.585281 -0.687581 -0.429351 1.000000
tan -0.049848 -0.946246 -0.023064 1.000000
tan -0.071362 -0.891190 -0.097092 1.000000
tan -0.311613 -0.683985 -0.656209 1.000000
tan -0.046872 -0.985616 -0.039060 1.000000
tan -0.088412 -0.719573 -0.682249 1.000000
tan -0.077934 -0.977742 -0.120218 1.000000
tan -1.000000 -0.008370 -0.062992 1.000000
tan -1.000000 -0.008432 -0.070866 1.000000
tan -0.929134 -0.358051 -0.080476 1.000000
tan -1.000000 -0.008308 -0.055118 1.000000
tan -0.868932 -0.451237 -0.079174 1.000000
tan -1.000000 -0.007874 -0.031496 1.000000
tan -0.468969 -0.851634 0.138632 1.000000
tan -0.492095 -0.810961 0.255751 1.000000
tan -0.286999 -0.752743 0.507967 1.000000
tan -0.130944 -0.917540 0.254635 1.000000
tan -0.937008 -0.354331 0.000000 1.000000
tan -1.000000 -0.007874 0.000000 1.000000
tan -1.000000 -0.007874 0.023622 1.000000
tan -0.425197 -0.905512 0.000000 1.000000
tan -0.061256 -0.992126 -0.070308 1.000000
tan -0.937008 -0.340009 0.073780 1.000000
tan -1.000000 -0.008246 0.047244 1.000000
tan -1.000000 0.007378 0.062992 1.000000
tan -1.000000 -0.001364 0.086614 1.000000
tan -0.875690 -0.448819 0.089652 1.000000
tan -0.483787 -0.830244 -0.169074 1.000000
tan -0.640213 -0.733585 -0.146940 1.000000
tan -0.207576 -0.866514 -0.363073 1.000000
tan -0.388617 -0.648769 -0.586769 1.000000
tan 0.503441 0.403621 -0.691735 1.000000
tan 0.768677 0.040424 -0.548329 1.000000
tan 0.768616 0.128898 -0.599851 1.000000
tan 0.761176 -0.193192 -0.426747 1.000000
tan 0.749582 -0.162750 -0.589931 1.000000
tan 0.489677 0.485957 -0.699857 1.000000
tan 0.820262 0.113956 -0.482423 1.000000
tan 0.804142 -0.411681 -0.285200 1.000000
tan 0.691549 -0.067518 -0.564697 1.000000
tan 0.773824 0.488933 -0.294563 1.000000
tan 0.398041 -0.591853 -0.683117 1.000000
tan 0.332817 -0.669415 -0.654287 1.000000
tan 0.837436 0.233306 -0.438093 1.000000
tan 0.697687 0.652675 -0.313597 1.000000
tan 0.809908 -0.507843 -0.244838 1.000000
tan 0.833716 0.301259 -0.428545 1.000000
tan 0.788642 0.523529 -0.318557 1.000000
tan 0.810466 -0.402133 -0.430281 1.000000
tan 0.647281 -0.699361 -0.285696 1.000000
tan 0.750140 0.488313 -0.447331 1.000000
tan 0.627379 -0.692107 -0.344349 1.000000
tan 0.764400 -0.397483 -0.493831 1.000000
tan 0.587761 -0.544113 -0.589745 1.000000
tan 0.749767 0.314403 -0.565379 1.000000
tan 0.451237 0.701593 -0.540207 1.000000
tan 0.505053 -0.499907 -0.685287 1.000000
tan 0.349495 0.678157 -0.649079 1.000000
tan 0.739537 0.253456 -0.600905 1.000000
tan 0.507161 -0.398289 -0.693843 1.000000
tan 0.409263 0.565131 -0.697191 1.000000
tan 0.756712 0.148676 -0.582801 1.000000
tan 0.691797 0.061256 -0.560357 1.000000
tan 0.768677 -0.040424 -0.548329 1.000000
tan 0.768616 -0.124124 -0.594271 1.000000
tan 0.780706 -0.155930 -0.441689 1.000000
tan 0.809536 0.145948 -0.468225 1.000000
tan 0.780644 0.259036 -0.522289 1.000000
tan 0.810652 0.411681 -0.287371 1.000000
tan 0.838366 -0.241242 -0.433567 1.000000
tan 0.728811 -0.534131 -0.396181 1.000000
tan 0.682683 -0.660177 -0.310930 1.000000
tan 0.841094 -0.310993 -0.428731 1.000000
tan 0.816914 0.506789 -0.246823 1.000000
tan 0.656581 -0.693781 -0.287928 1.000000
tan 0.818030 -0.345775 -0.452663 1.000000
tan 0.785108 0.562217 -0.268833 1.000000
tan 0.634075 -0.692107 -0.348503 1.000000
tan 0.732345 0.532333 -0.414595 1.000000
tan 0.783806 -0.344969 -0.514353 1.000000
tan 0.630851 -0.489677 -0.600843 1.000000
tan 0.723169 0.382789 -0.568913 1.000000
tan 0.585653 0.674747 -0.446401 1.000000
tan 0.746729 -0.252465 -0.593217 1.000000
f 3/3/3 2/2/2 1/1/1
f 6/6/6 5/5/5 4/4/4
f 6/6/6 4/4/4 7/7/7
f 8/8/8 6/6/6 7/7/7
f 8/8/8 7/7/7 9/9/9
f 9/9/9 10/10/10 8/8/8
f 11/11/11 8/8/8 10/10/10
f 10/10/10 12/12/12 11/11/11
f 13/13/13 11/11/11 12/12/12
f 14/14/14 13/13/13 12/12/12
f 14/14/14 12/12/12 15/15/15
f 16/16/16 14/14/14 15/15/15
f 16/16/16 15/15/15 17/17/17
f 17/17/17 18/18/18 16/16/16
f 19/19/19 16/16/16 18/18/18
f 19/19/19 18/18/18 20/20/20
f 21/21/21 20/20/20 18/18/18
f 22/22/22 19/19/19 20/20/20
f 25/25/25 24/24/24 23/23/23
f 26/26/26 25/25/25 23/23/23
f 25/25/25 26/26/26 27/27/27
f 30/30/30 29/29/29 28/28/28
f 29/29/29 30/30/30 31/31/31
f 32/32/32 31/31/31 30/30/30
f 32/32/32 33/33/33 31/31/31
f 33/33/33 32/32/32 34/34/34
f 37/37/37 36/36/36 35/35/35
f 35/35/35 38/38/38 37/37/37
f 38/38/38 35/35/35 39/39/39
f 40/40/40 38/38/38 39/39/39
f 39/39/39 41/41/41 40/40/40
f 42/42/42 40/40/40 41/41/41
f 41/41/41 43/43/43 42/42/42
f 43/43/43 41/41/41 44/44/44
f 44/44/44 45/45/45 43/43/43
f 45/45/45 44/44/44 46/46/46
f 46/46/46 47/47/47 45/45/45
f 50/50/50 49/49/49 48/48/48
f 51/51/51 50/50/50 48/48/48
f 51/51/51 53/53/53 52/52/52
f 52/52/52 54/54/54 51/51/51
f 50/50/50 51/51/51 55/55/55
f 51/51/51 54/54/54 55/55/55
f 56/56/56 50/50/50 55/55/55
f 55/55/55 57/57/57 56/56/56
f 54/54/54 59/59/59 58/58/58
f 60/60/60 54/54/54 58/58/58
f 55/55/55 54/54/54 61/61/61
f 60/60/60 61/61/61 54/54/54
f 55/55/55 61/61/61 62/62/62
f 61/61/61 63/63/63 62/62/62
f 64/64/64 61/61/61 60/60/60
f 60/60/60 65/65/65 64/64/64
f 68/68/68 67/67/67 66/66/66
f 66/66/66 69/69/69 68/68/68
f 66/66/66 70/70/70 69/69/69
f 66/66/66 71/71/71 70/70/70
f 72/72/72 70/70/70 71/71/71
f 70/70/70 72/72/72 73/73/73
f 73/73/73 72/72/72 74/74/74
f 74/74/74 72/72/72 75/75/75
f 76/76/76 75/75/75 72/72/72
f 74/74/74 75/75/75 77/77/77
f 78/78/78 77/77/77 75/75/75
f 75/75/75 79/79/79 78/78/78
f 82/82/82 81/81/81 80/80/80
f 83/83/83 80/80/80 81/81/81
f 80/80/80 83/83/83 84/84/84
f 81/81/81 85/85/85 83/83/83
f 86/86/86 84/84/84 83/83/83
f 84/84/84 86/86/86 87/87/87
f 88/88/88 83/83/83 85/85/85
f 89/89/89 87/87/87 86/86/86
f 87/87/87 89/89/89 90/90/90
f 88/88/88 85/85/85 91/91/91
f 92/92/92 91/91/91 85/85/85
f 83/83/83 88/88/88 93/93/93
f 88/88/88 91/91/91 93/93/93
f 93/93/93 86/86/86 83/83/83
f 93/93/93 91/91/91 94/94/94
f 93/93/93 95/95/95 86/86/86
f 93/93/93 94/94/94 95/95/95
f 95/95/95 89/89/89 86/86/86
f 96/96/96 95/95/95 94/94/94
f 97/97/97 90/90/90 89/89/89
f 90/90/90 97/97/97 98/98/98
f 89/89/89 95/95/95 99/99/99
f 99/99/99 97/97/97 89/89/89
f 95/95/95 96/96/96 99/99/99
f 100/100/100 98/98/98 97/97/97
f 97/97/97 99/99/99 100/100/100
f 98/98/98 100/100/100 101/101/101
f 102/102/102 99/99/99 96/96/96
f 103/103/103 102/102/102 96/96/96
f 102/102/102 104/104/104 99/99/99
f 105/105/105 104/104/104 102/102/102
f 106/106/106 99/99/99 104/104/104
f 106/106/106 100/100/100 99/99/99
f 106/106/106 104/104/104 107/107/107
f 108/108/108 101/101/101 100/100/100
f 106/106/106 108/108/108 100/100/100
f 101/101/101 108/108/108 109/109/109
f 110/110/110 106/106/106 107/107/107
f 108/108/108 106/106/106 110/110/110
f 111/111/111 109/109/109 108/108/108
f 108/108/108 110/110/110 111/111/111
f 109/109/109 111/111/111 112/112/112
f 113/113/113 110/110/110 107/107/107
f 113/113/113 111/111/111 110/110/110
f 113/113/113 107/107/107 114/114/114
f 115/115/115 112/112/112 111/111/111
f 112/112/112 115/115/115 116/116/116
f 111/111/111 113/113/113 117/117/117
f 113/113/113 114/114/114 117/117/117
f 117/117/117 115/115/115 111/111/111
f 117/117/117 114/114/114 118/118/118
f 118/118/118 119/119/119 117/117/117
f 120/120/120 116/116/116 115/115/115
f 115/115/115 117/117/117 120/120/120
f 116/116/116 120/120/120 121/121/121
f 122/122/122 117/117/117 119/119/119
f 122/122/122 120/120/120 117/117/117
f 119/119/119 123/123/123 122/122/122
f 124/124/124 121/121/121 120/120/120
f 120/120/120 122/122/122 124/124/124
f 121/121/121 124/124/124 125/125/125
f 126/126/126 122/122/122 123/123/123
f 126/126/126 124/124/124 122/122/122
f 123/123/123 127/127/127 126/126/126
f 128/128/128 125/125/125 124/124/124
f 124/124/124 126/126/126 128/128/128
f 125/125/125 128/128/128 129/129/129
f 130/130/130 126/126/126 127/127/127
f 130/130/130 128/128/128 126/126/126
f 127/127/127 131/131/131 130/130/130
f 132/132/132 129/129/129 128/128/128
f 128/128/128 130/130/130 132/132/132
f 129/129/129 132/132/132 133/133/133
f 134/134/134 130/130/130 131/131/131
f 134/134/134 132/132/132 130/130/130
f 135/135/135 134/134/134 131/131/131
f 132/132/132 134/134/134 135/135/135
f 135/135/135 131/131/131 136/136/136
f 137/137/137 133/133/133 132/132/132
f 135/135/135 137/137/137 132/132/132
f 133/133/133 137/137/137 138/138/138
f 135/135/135 136/136/136 139/139/139
f 139/139/139 136/136/136 140/140/140
f 140/140/140 141/141/141 139/139/139
f 137/137/137 135/135/135 142/142/142
f 142/142/142 138/138/138 137/137/137
f 139/139/139 142/142/142 135/135/135
f 138/138/138 142/142/142 143/143/143
f 144/144/144 139/139/139 141/141/141
f 145/145/145 143/143/143 142/142/142
f 142/142/142 139/139/139 145/145/145
f 144/144/144 145/145/145 139/139/139
f 143/143/143 145/145/145 146/146/146
f 141/141/141 147/147/147 144/144/144
f 148/148/148 146/146/146 145/145/145
f 145/145/145 144/144/144 148/148/148
f 149/149/149 144/144/144 147/147/147
f 149/149/149 148/148/148 144/144/144
f 149/149/149 147/147/147 150/150/150
f 148/148/148 149/149/149 150/150/150
f 150/150/150 147/147/147 151/151/151
f 151/151/151 152/152/152 150/150/150
f 153/153/153 150/150/150 152/152/152
f 150/150/150 154/154/154 148/148/148
f 150/150/150 153/153/153 154/154/154
f 148/148/148 154/154/154 146/146/146
f 153/153/153 155/155/155 154/154/154
f 156/156/156 146/146/146 154/154/154
f 154/154/154 155/155/155 156/156/156
f 157/157/157 156/156/156 155/155/155
f 160/160/160 159/159/159 158/158/158
f 158/158/158 159/159/159 161/161/161
f 158/158/158 161/161/161 162/162/162
f 159/159/159 163/163/163 161/161/161
f 162/162/162 161/161/161 164/164/164
f 164/164/164 165/165/165 162/162/162
f 166/166/166 161/161/161 163/163/163
f 161/161/161 166/166/166 164/164/164
f 163/163/163 167/167/167 166/166/166
f 168/168/168 167/167/167 163/163/163
f 169/169/169 164/164/164 166/166/166
f 170/170/170 167/167/167 168/168/168
f 171/171/171 170/170/170 168/168/168
f 172/172/172 170/170/170 171/171/171
f 173/173/173 170/170/170 172/172/172
f 173/173/173 174/174/174 170/170/170
f 167/167/167 170/170/170 174/174/174
f 175/175/175 174/174/174 173/173/173
f 167/167/167 176/176/176 166/166/166
f 174/174/174 176/176/176 167/167/167
f 166/166/166 176/176/176 169/169/169
f 174/174/174 175/175/175 177/177/177
f 174/174/174 177/177/177 176/176/176
f 178/178/178 177/177/177 175/175/175
f 169/169/169 176/176/176 179/179/179
f 164/164/164 169/169/169 179/179/179
f 177/177/177 180/180/180 176/176/176
f 180/180/180 179/179/179 176/176/176
f 177/177/177 178/178/178 181/181/181
f 181/181/181 178/178/178 182/182/182
f 182/182/182 183/183/183 181/181/181
f 180/180/180 177/177/177 184/184/184
f 181/181/181 184/184/184 177/177/177
f 185/185/185 181/181/181 183/183/183
f 181/181/181 185/185/185 184/184/184
f 183/183/183 186/186/186 185/185/185
f 184/184/184 187/187/187 180/180/180
f 179/179/179 180/180/180 187/187/187
f 185/185/185 188/188/188 184/184/184
f 184/184/184 188/188/188 187/187/187
f 189/189/189 185/185/185 186/186/186
f 185/185/185 189/189/189 188/188/188
f 186/186/186 190/190/190 189/189/189
f 179/179/179 191/191/191 164/164/164
f 179/179/179 187/187/187 191/191/191
f 165/165/165 164/164/164 191/191/191
f 191/191/191 192/192/192 165/165/165
f 187/187/187 192/192/192 191/191/191
f 193/193/193 189/189/189 190/190/190
f 190/190/190 194/194/194 193/193/193
f 192/192/192 187/187/187 195/195/195
f 196/196/196 192/192/192 195/195/195
f 197/197/197 195/195/195 187/187/187
f 187/187/187 188/188/188 197/197/197
f 195/195/195 198/198/198 196/196/196
f 195/195/195 197/197/197 198/198/198
f 199/199/199 196/196/196 198/198/198
f 188/188/188 200/200/200 197/197/197
f 200/200/200 188/188/188 189/189/189
f 200/200/200 189/189/189 193/193/193
f 201/201/201 198/198/198 197/197/197
f 197/197/197 200/200/200 201/201/201
f 198/198/198 202/202/202 199/199/199
f 203/203/203 199/199/199 202/202/202
f 198/198/198 201/201/201 204/204/204
f 201/201/201 200/200/200 204/204/204
f 204/204/204 202/202/202 198/198/198
f 202/202/202 205/205/205 203/203/203
f 206/206/206 204/204/204 200/200/200
f 193/193/193 206/206/206 200/200/200
f 202/202/202 204/204/204 207/207/207
f 204/204/204 206/206/206 207/207/207
f 207/207/207 205/205/205 202/202/202
f 206/206/206 193/193/193 208/208/208
f 208/208/208 207/207/207 206/206/206
f 194/194/194 208/208/208 193/193/193
f 205/205/205 207/207/207 209/209/209
f 210/210/210 205/205/205 209/209/209
f 211/211/211 209/209/209 207/207/207
f 207/207/207 208/208/208 211/211/211
f 209/209/209 212/212/212 210/210/210
f 209/209/209 211/211/211 212/212/212
f 213/213/213 210/210/210 212/212/212
f 194/194/194 214/214/214 208/208/208
f 214/214/214 194/194/194 215/215/215
f 215/215/215 216/216/216 214/214/214
f 214/214/214 217/217/217 208/208/208
f 217/217/217 211/211/211 208/208/208
f 218/218/218 214/214/214 216/216/216
f 214/214/214 218/218/218 217/217/217
f 216/216/216 219/219/219 218/218/218
f 217/217/217 220/220/220 211/211/211
f 218/218/218 220/220/220 217/217/217
f 221/221/221 218/218/218 219/219/219
f 218/218/218 221/221/221 220/220/220
f 219/219/219 222/222/222 221/221/221
f 211/211/211 220/220/220 223/223/223
f 223/223/223 212/212/212 211/211/211
f 224/224/224 220/220/220 221/221/221
f 220/220/220 224/224/224 223/223/223
f 225/225/225 221/221/221 222/222/222
f 224/224/224 221/221/221 225/225/225
f 222/222/222 226/226/226 225/225/225
f 223/223/223 224/224/224 227/227/227
f 226/226/226 228/228/228 225/225/225
f 227/227/227 229/229/229 223/223/223
f 212/212/212 223/223/223 229/229/229
f 212/212/212 229/229/229 213/213/213
f 230/230/230 213/213/213 229/229/229
f 229/229/229 227/227/227 231/231/231
f 227/227/227 224/224/224 231/231/231
f 229/229/229 232/232/232 230/230/230
f 231/231/231 232/232/232 229/229/229
f 233/233/233 230/230/230 232/232/232
f 232/232/232 234/234/234 233/233/233
f 235/235/235 231/231/231 224/224/224
f 235/235/235 224/224/224 225/225/225
f 235/235/235 225/225/225 228/228/228
f 231/231/231 236/236/236 232/232/232
f 231/231/231 235/235/235 236/236/236
f 236/236/236 234/234/234 232/232/232
f 228/228/228 236/236/236 235/235/235
f 234/234/234 236/236/236 237/237/237
f 238/238/238 234/234/234 237/237/237
f 237/237/237 239/239/239 238/238/238
f 228/228/228 240/240/240 236/236/236
f 239/239/239 237/237/237 241/241/241
f 241/241/241 242/242/242 239/239/239
f 243/243/243 237/237/237 236/236/236
f 237/237/237 243/243/243 241/241/241
f 236/236/236 240/240/240 243/243/243
f 242/242/242 241/241/241 244/244/244
f 244/244/244 245/245/245 242/242/242
f 246/246/246 241/241/241 243/243/243
f 248/248/248 247/247/247 245/245/245
f 241/241/241 246/246/246 249/249/249
f 249/249/249 244/244/244 241/241/241
f 243/243/243 250/250/250 246/246/246
f 246/246/246 250/250/250 249/249/249
f 240/240/240 250/250/250 243/243/243
f 251/251/251 245/245/245 244/244/244
f 245/245/245 251/251/251 248/248/248
f 244/244/244 249/249/249 251/251/251
f 252/252/252 248/248/248 251/251/251
f 251/251/251 253/253/253 252/252/252
f 249/249/249 254/254/254 251/251/251
f 254/254/254 249/249/249 250/250/250
f 255/255/255 253/253/253 251/251/251
f 255/255/255 251/251/251 254/254/254
f 256/256/256 253/253/253 255/255/255
f 254/254/254 250/250/250 257/257/257
f 254/254/254 257/257/257 255/255/255
f 258/258/258 256/256/256 255/255/255
f 256/256/256 258/258/258 259/259/259
f 258/258/258 255/255/255 257/257/257
f 260/260/260 258/258/258 257/257/257
f 257/257/257 261/261/261 260/260/260
f 262/262/262 257/257/257 250/250/250
f 262/262/262 261/261/261 257/257/257
f 250/250/250 240/240/240 262/262/262
f 261/261/261 262/262/262 263/263/263
f 264/264/264 262/262/262 240/240/240
f 264/264/264 263/263/263 262/262/262
f 264/264/264 240/240/240 228/228/228
f 263/263/263 264/264/264 226/226/226
f 226/226/226 264/264/264 228/228/228
f 267/267/267 266/266/266 265/265/265
f 269/269/269 267/267/267 268/268/268
f 265/265/265 270/270/270 267/267/267
f 270/270/270 268/268/268 267/267/267
f 270/270/270 265/265/265 271/271/271
f 268/268/268 270/270/270 272/272/272
f 271/271/271 273/273/273 270/270/270
f 273/273/273 272/272/272 270/270/270
f 275/275/275 274/274/274 271/271/271
f 273/273/273 271/271/271 274/274/274
f 273/273/273 276/276/276 272/272/272
f 274/274/274 276/276/276 273/273/273
f 277/277/277 272/272/272 276/276/276
f 276/276/276 274/274/274 278/278/278
f 278/278/278 274/274/274 279/279/279
f 278/278/278 280/280/280 276/276/276
f 279/279/279 281/281/281 278/278/278
f 280/280/280 278/278/278 282/282/282
f 281/281/281 282/282/282 278/278/278
f 284/284/284 282/282/282 283/283/283
f 282/282/282 281/281/281 285/285/285
f 285/285/285 283/283/283 282/282/282
f 281/281/281 287/287/287 286/286/286
f 285/285/285 281/281/281 286/286/286
f 285/285/285 288/288/288 283/283/283
f 285/285/285 286/286/286 288/288/288
f 289/289/289 288/288/288 286/286/286
f 288/288/288 290/290/290 283/283/283
f 288/288/288 289/289/289 291/291/291
f 288/288/288 292/292/292 290/290/290
f 291/291/291 292/292/292 288/288/288
f 292/292/292 293/293/293 290/290/290
f 293/293/293 292/292/292 294/294/294
f 294/294/294 292/292/292 295/295/295
f 296/296/296 292/292/292 291/291/291
f 297/297/297 296/296/296 291/291/291
f 297/297/297 298/298/298 296/296/296
f 299/299/299 295/295/295 292/292/292
f 292/292/292 296/296/296 299/299/299
f 298/298/298 299/299/299 296/296/296
f 295/295/295 299/299/299 300/300/300
f 301/301/301 299/299/299 298/298/298
f 299/299/299 302/302/302 300/300/300
f 299/299/299 301/301/301 302/302/302
f 302/302/302 303/303/303 300/300/300
f 304/304/304 302/302/302 301/301/301
f 302/302/302 305/305/305 303/303/303
f 302/302/302 304/304/304 305/305/305
f 305/305/305 306/306/306 303/303/303
f 307/307/307 305/305/305 304/304/304
f 306/306/306 305/305/305 308/308/308
f 305/305/305 307/307/307 309/309/309
f 310/310/310 308/308/308 305/305/305
f 309/309/309 310/310/310 305/305/305
f 310/310/310 309/309/309 311/311/311
f 308/308/308 310/310/310 312/312/312
f 310/310/310 311/311/311 313/313/313
f 310/310/310 314/314/314 312/312/312
f 313/313/313 314/314/314 310/310/310
f 314/314/314 315/315/315 312/312/312
f 316/316/316 314/314/314 313/313/313
f 314/314/314 317/317/317 315/315/315
f 314/314/314 316/316/316 318/318/318
f 314/314/314 318/318/318 317/317/317
f 319/319/319 318/318/318 316/316/316
f 318/318/318 320/320/320 317/317/317
f 323/323/323 322/322/322 321/321/321
f 325/325/325 323/323/323 324/324/324
f 323/323/323 321/321/321 326/326/326
f 323/323/323 326/326/326 324/324/324
f 327/327/327 326/326/326 321/321/321
f 328/328/328 324/324/324 326/326/326
f 327/327/327 321/321/321 329/329/329
f 324/324/324 328/328/328 330/330/330
f 331/331/331 327/327/327 329/329/329
f 332/332/332 330/330/330 328/328/328
f 329/329/329 333/333/333 331/331/331
f 332/332/332 334/334/334 330/330/330
f 335/335/335 331/331/331 333/333/333
f 336/336/336 330/330/330 334/334/334
f 333/333/333 337/337/337 335/335/335
f 334/334/334 338/338/338 336/336/336
f 339/339/339 335/335/335 337/337/337
f 340/340/340 336/336/336 338/338/338
f 337/337/337 341/341/341 339/339/339
f 338/338/338 342/342/342 340/340/340
f 343/343/343 339/339/339 341/341/341
f 344/344/344 340/340/340 342/342/342
f 341/341/341 345/345/345 343/343/343
f 342/342/342 346/346/346 344/344/344
f 347/347/347 343/343/343 345/345/345
f 348/348/348 344/344/344 346/346/346
f 345/345/345 349/349/349 347/347/347
f 346/346/346 350/350/350 348/348/348
f 351/351/351 347/347/347 349/349/349
f 352/352/352 348/348/348 350/350/350
f 349/349/349 353/353/353 351/351/351
f 350/350/350 354/354/354 352/352/352
f 355/355/355 351/351/351 353/353/353
f 356/356/356 352/352/352 354/354/354
f 353/353/353 357/357/357 355/355/355
f 354/354/354 358/358/358 356/356/356
f 358/358/358 355/355/355 357/357/357
f 357/357/357 356/356/356 358/358/358
f 361/361/361 360/360/360 359/359/359
f 362/362/362 361/361/361 359/359/359
f 363/363/363 359/359/359 360/360/360
f 364/364/364 362/362/362 359/359/359
f 359/359/359 363/363/363 365/365/365
f 364/364/364 359/359/359 365/365/365
f 366/366/366 365/365/365 363/363/363
f 365/365/365 367/367/367 364/364/364
f 365/365/365 366/366/366 368/368/368
f 367/367/367 365/365/365 368/368/368
f 369/369/369 368/368/368 366/366/366
f 370/370/370 367/367/367 368/368/368
f 371/371/371 368/368/368 369/369/369
f 370/370/370 368/368/368 372/372/372
f 372/372/372 368/368/368 371/371/371
f 373/373/373 370/370/370 372/372/372
f 374/374/374 372/372/372 371/371/371
f 373/373/373 372/372/372 375/375/375
f 376/376/376 372/372/372 374/374/374
f 375/375/375 372/372/372 376/376/376
f 376/376/376 374/374/374 377/377/377
f 375/375/375 376/376/376 377/377/377
f 378/378/378 377/377/377 374/374/374
f 379/379/379 375/375/375 377/377/377
f 377/377/377 378/378/378 380/380/380
f 377/377/377 380/380/380 379/379/379
f 381/381/381 380/380/380 378/378/378
f 382/382/382 379/379/379 380/380/380
f 383/383/383 380/380/380 381/381/381
f 382/382/382 380/380/380 384/384/384
f 383/383/383 384/384/384 380/380/380
f 384/384/384 385/385/385 382/382/382
f 386/386/386 384/384/384 383/383/383
f 385/385/385 384/384/384 387/387/387
f 387/387/387 384/384/384 386/386/386
f 388/388/388 385/385/385 387/387/387
f 389/389/389 388/388/388 387/387/387
f 387/387/387 386/386/386 390/390/390
f 391/391/391 390/390/390 386/386/386
f 389/389/389 387/387/387 392/392/392
f 387/387/387 390/390/390 392/392/392
f 390/390/390 391/391/391 392/392/392
f 393/393/393 389/389/389 392/392/392
f 394/394/394 392/392/392 391/391/391
f 395/395/395 393/393/393 392/392/392
f 392/392/392 394/394/394 396/396/396
f 397/397/397 396/396/396 394/394/394
f 398/398/398 396/396/396 397/397/397
f 392/392/392 399/399/399 395/395/395
f 396/396/396 399/399/399 392/392/392
f 399/399/399 396/396/396 398/398/398
f 400/400/400 395/395/395 399/399/399
f 401/401/401 399/399/399 398/398/398
f 400/400/400 399/399/399 402/402/402
f 403/403/403 399/399/399 401/401/401
f 402/402/402 399/399/399 403/403/403
f 403/403/403 401/401/401 404/404/404
f 402/402/402 403/403/403 404/404/404
f 405/405/405 404/404/404 401/401/401
f 406/406/406 402/402/402 404/404/404
f 404/404/404 405/405/405 407/407/407
f 406/406/406 404/404/404 407/407/407
f 408/408/408 407/407/407 405/405/405
f 409/409/409 406/406/406 407/407/407
f 410/410/410 407/407/407 408/408/408
f 409/409/409 407/407/407 411/411/411
f 410/410/410 411/411/411 407/407/407
f 412/412/412 409/409/409 411/411/411
f 413/413/413 411/411/411 410/410/410
f 411/411/411 414/414/414 412/412/412
f 415/415/415 411/411/411 413/413/413
f 414/414/414 411/411/411 415/415/415
f 418/418/418 417/417/417 416/416/416
f 419/419/419 418/418/418 416/416/416
f 420/420/420 417/417/417 418/418/418
f 421/421/421 418/418/418 419/419/419
f 418/418/418 422/422/422 420/420/420
f 423/423/423 420/420/420 422/422/422
f 424/424/424 423/423/423 422/422/422
f 425/425/425 424/424/424 422/422/422
f 426/426/426 418/418/418 421/421/421
f 418/418/418 426/426/426 422/422/422
f 427/427/427 426/426/426 421/421/421
f 427/427/427 428/428/428 426/426/426
f 422/422/422 429/429/429 425/425/425
f 429/429/429 422/422/422 426/426/426
f 430/430/430 425/425/425 429/429/429
f 431/431/431 426/426/426 428/428/428
f 426/426/426 431/431/431 429/429/429
f 432/432/432 431/431/431 428/428/428
f 433/433/433 431/431/431 432/432/432
f 431/431/431 433/433/433 434/434/434
f 435/435/435 431/431/431 434/434/434
f 436/436/436 429/429/429 431/431/431
f 436/436/436 431/431/431 435/435/435
f 430/430/430 429/429/429 436/436/436
f 437/437/437 436/436/436 435/435/435
f 438/438/438 430/430/430 436/436/436
f 437/437/437 439/439/439 436/436/436
f 438/438/438 436/436/436 439/439/439
f 442/442/442 441/441/441 440/440/440
f 441/441/441 442/442/442 443/443/443
f 440/440/440 441/441/441 444/444/444
f 444/444/444 445/445/445 440/440/440
f 443/443/443 446/446/446 441/441/441
f 443/443/443 447/447/447 446/446/446
f 448/448/448 441/441/441 446/446/446
f 448/448/448 444/444/444 441/441/441
f 446/446/446 449/449/449 448/448/448
f 450/450/450 444/444/444 448/448/448
f 450/450/450 451/451/451 444/444/444
f 452/452/452 449/449/449 446/446/446
f 452/452/452 446/446/446 447/447/447
f 449/449/449 452/452/452 453/453/453
f 447/447/447 454/454/454 452/452/452
f 455/455/455 453/453/453 452/452/452
f 455/455/455 452/452/452 454/454/454
f 453/453/453 455/455/455 456/456/456
f 454/454/454 457/457/457 455/455/455
f 456/456/456 455/455/455 457/457/457
f 457/457/457 454/454/454 458/458/458
f 459/459/459 456/456/456 457/457/457
f 458/458/458 460/460/460 457/457/457
f 461/461/461 457/457/457 460/460/460
f 459/459/459 457/457/457 461/461/461
f 461/461/461 460/460/460 462/462/462
f 463/463/463 459/459/459 461/461/461
f 463/463/463 461/461/461 462/462/462
f 463/463/463 464/464/464 459/459/459
f 462/462/462 465/465/465 463/463/463
f 464/464/464 463/463/463 466/466/466
f 467/467/467 463/463/463 465/465/465
f 467/467/467 466/466/466 463/463/463
f 465/465/465 468/468/468 467/467/467
f 466/466/466 467/467/467 469/469/469
f 470/470/470 469/469/469 467/467/467
f 470/470/470 467/467/467 468/468/468
f 469/469/469 470/470/470 471/471/471
f 468/468/468 472/472/472 470/470/470
f 471/471/471 470/470/470 472/472/472
f 473/473/473 472/472/472 468/468/468
f 471/471/471 472/472/472 474/474/474
f 472/472/472 473/473/473 475/475/475
f 475/475/475 474/474/474 472/472/472
f 476/476/476 475/475/475 473/473/473
f 475/475/475 476/476/476 477/477/477
f 478/478/478 474/474/474 475/475/475
f 478/478/478 475/475/475 477/477/477
f 478/478/478 479/479/479 474/474/474
f 479/479/479 478/478/478 480/480/480
f 481/481/481 478/478/478 477/477/477
f 481/481/481 480/480/480 478/478/478
f 481/481/481 477/477/477 482/482/482
f 480/480/480 481/481/481 483/483/483
f 481/481/481 482/482/482 484/484/484
f 484/484/484 483/483/483 481/481/481
f 485/485/485 484/484/484 482/482/482
f 483/483/483 484/484/484 486/486/486
f 485/485/485 487/487/487 484/484/484
f 488/488/488 486/486/486 484/484/484
f 488/488/488 484/484/484 487/487/487
f 486/486/486 488/488/488 489/489/489
f 487/487/487 490/490/490 488/488/488
f 489/489/489 488/488/488 490/490/490
f 491/491/491 490/490/490 487/487/487
f 490/490/490 491/491/491 445/445/445
f 489/489/489 490/490/490 492/492/492
f 492/492/492 490/490/490 445/445/445
f 451/451/451 489/489/489 492/492/492
f 444/444/444 492/492/492 445/445/445
f 451/451/451 492/492/492 444/444/444
