mtllib SM_CardBoard_Box_02.mtl
g SM_CardBoard_Box_02
#Vertices 158
#Indices 672
#Section 0 Offset 0 NumIndices 672 MaterialIndex 0 MI_CardBoard_Boxes_01
v 0.000862 0.004844 0.314070
v 0.004806 0.000000 0.164444
v 0.001617 0.001084 0.164428
v 0.004059 0.003756 0.314089
v 0.188998 -0.001634 0.164458
v 0.001381 0.005439 0.316726
v 0.189033 0.003504 0.315626
v 0.379199 -0.001634 0.164458
v 0.004042 0.004918 0.317272
v 0.004030 0.008126 0.318367
v 0.000840 0.008104 0.317273
v 0.000683 0.098067 0.318045
v 0.189010 0.004659 0.318802
v 0.003857 0.098077 0.319125
v 0.189012 0.007863 0.319873
v 0.002830 0.188641 0.318803
v -0.000365 0.188631 0.317691
v 0.000150 0.191290 0.317148
v 0.188997 0.100730 0.321118
v 0.002810 0.191831 0.317673
v 0.002847 0.192942 0.314477
v -0.000352 0.191846 0.314487
v 0.001930 0.193665 0.164530
v 0.005117 0.194768 0.164523
v 0.189002 0.193138 0.317381
v 0.188985 0.194255 0.314182
v 0.188997 0.196865 0.164458
v 0.189027 0.189947 0.318517
v 0.379207 0.192965 0.316797
v 0.379236 0.194100 0.313601
v 0.379199 0.198403 0.164458
v 0.572759 0.195587 0.164496
v 0.575883 0.191054 0.315228
v 0.575939 0.194496 0.164443
v 0.572706 0.192160 0.315214
v 0.575352 0.190470 0.317891
v 0.572704 0.191014 0.318412
v 0.379196 0.189768 0.317929
v 0.572700 0.187812 0.319549
v 0.575878 0.187804 0.318403
v 0.379199 0.099801 0.321394
v 0.572603 0.099481 0.318494
v 0.575782 0.099476 0.317401
v 0.379185 0.007206 0.323023
v 0.572473 0.007811 0.318718
v 0.575647 0.007785 0.317625
v 0.575125 0.005126 0.317116
v 0.379214 0.004000 0.321985
v 0.572485 0.004607 0.317702
v 0.379270 0.002843 0.318821
v 0.572531 0.003456 0.314544
v 0.575692 0.004510 0.314473
v 0.574866 -0.001654 0.164393
v 0.578032 -0.000582 0.164478
v 0.575861 0.004829 0.004641
v 0.574866 -0.001654 0.164393
v 0.578032 -0.000582 0.164478
v 0.572700 0.003776 0.004647
v 0.379199 -0.001634 0.164458
v 0.575303 0.005435 0.001990
v 0.379208 0.000782 0.004966
v 0.188998 -0.001634 0.164458
v 0.572663 0.004887 0.001461
v 0.572664 0.008078 0.000364
v 0.575834 0.008091 0.001457
v 0.188972 0.002397 0.003866
v 0.004806 0.000000 0.164444
v 0.573122 0.099736 0.000434
v 0.576301 0.099726 0.001501
v 0.574524 0.188370 0.001010
v 0.004331 0.005058 0.004233
v 0.001617 0.001084 0.164428
v 0.001133 0.006142 0.004235
v 0.001659 0.006745 0.001591
v 0.571353 0.188364 -0.000082
v 0.573951 0.191034 0.001526
v 0.004320 0.006196 0.001060
v 0.004312 0.009396 -0.000000
v 0.001118 0.009408 0.001055
v 0.189007 0.003531 0.000689
v 0.189059 0.006729 -0.000385
v 0.379211 0.001911 0.001785
v 0.379236 0.005107 0.000701
v 0.379199 0.099470 -0.000946
v 0.188997 0.098567 -0.000380
v 0.004159 0.098279 -0.000336
v 0.000981 0.098286 0.000723
v 0.001037 0.181874 0.000761
v 0.004232 0.181909 -0.000299
v 0.001578 0.184547 0.001291
v 0.189042 0.187223 -0.000168
v 0.004240 0.185119 0.000765
v 0.379180 0.189241 -0.000090
v 0.189007 0.190435 0.000900
v 0.004258 0.186286 0.003937
v 0.001057 0.185195 0.003933
v 0.001930 0.193665 0.164530
v 0.005117 0.194768 0.164523
v 0.188990 0.191609 0.004074
v 0.188997 0.196865 0.164458
v 0.379196 0.193588 0.004155
v 0.379199 0.198403 0.164458
v 0.379194 0.192442 0.000979
v 0.571301 0.191568 0.000992
v 0.571309 0.192717 0.004169
v 0.572759 0.195587 0.164496
v 0.574490 0.191610 0.004176
v 0.575939 0.194496 0.164443
v 0.576954 0.187865 0.315201
v 0.575878 0.187804 0.318403
v 0.575352 0.190470 0.317891
v 0.575883 0.191054 0.315228
v 0.575782 0.099476 0.317401
v 0.577020 0.191313 0.164361
v 0.575939 0.194496 0.164443
v 0.574490 0.191610 0.004176
v 0.576859 0.099467 0.314217
v 0.575647 0.007785 0.317625
v 0.575575 0.188421 0.004194
v 0.573951 0.191034 0.001526
v 0.574524 0.188370 0.001010
v 0.577547 0.098512 0.164458
v 0.577378 0.099739 0.004677
v 0.576301 0.099726 0.001501
v 0.575834 0.008091 0.001457
v 0.576882 0.008001 0.004642
v 0.575303 0.005435 0.001990
v 0.575861 0.004829 0.004641
v 0.579069 0.002594 0.164601
v 0.578032 -0.000582 0.164478
v 0.575692 0.004510 0.314473
v 0.576710 0.007683 0.314441
v 0.575125 0.005126 0.317116
v 0.001118 0.009408 0.001055
v 0.000000 0.009325 0.004227
v 0.001659 0.006745 0.001591
v 0.001133 0.006142 0.004235
v -0.000092 0.098298 0.003896
v 0.000981 0.098286 0.000723
v 0.001037 0.181874 0.000761
v 0.000509 0.004264 0.164352
v 0.001617 0.001084 0.164428
v 0.000862 0.004844 0.314070
v -0.000086 0.182008 0.003934
v 0.001578 0.184547 0.001291
v 0.001057 0.185195 0.003933
v -0.002321 0.099111 0.164458
v 0.000826 0.190482 0.164681
v 0.001930 0.193665 0.164530
v -0.000352 0.191846 0.314487
v -0.001490 0.188662 0.314500
v 0.000150 0.191290 0.317148
v -0.000365 0.188631 0.317691
v -0.000379 0.098052 0.314865
v 0.000683 0.098067 0.318045
v 0.000840 0.008104 0.317273
v -0.000274 0.008027 0.314087
v 0.001381 0.005439 0.316726
vt 0.297363 0.332031
vt 0.294922 0.256836
vt 0.296387 0.256836
vt 0.295654 0.332031
vt 0.203003 0.256836
vt 0.296875 0.333496
vt 0.203003 0.332520
vt 0.107910 0.256836
vt 0.295654 0.333496
vt 0.295410 0.335449
vt 0.297119 0.335449
vt 0.297363 0.380371
vt 0.203003 0.333984
vt 0.295654 0.380859
vt 0.203003 0.335938
vt 0.296143 0.426270
vt 0.297852 0.426270
vt 0.297607 0.427734
vt 0.203125 0.382324
vt 0.296143 0.427734
vt 0.296143 0.429688
vt 0.297852 0.429199
vt 0.296631 0.504395
vt 0.294922 0.504395
vt 0.203003 0.428223
vt 0.203003 0.429688
vt 0.203003 0.504395
vt 0.203125 0.426758
vt 0.107849 0.428223
vt 0.107849 0.430176
vt 0.107910 0.504639
vt 0.011215 0.504395
vt 0.009201 0.428711
vt 0.009689 0.504395
vt 0.010948 0.429199
vt 0.009621 0.427246
vt 0.010994 0.427246
vt 0.107849 0.426758
vt 0.010963 0.425781
vt 0.009285 0.425781
vt 0.107849 0.382324
vt 0.011002 0.381348
vt 0.009315 0.381348
vt 0.107910 0.336426
vt 0.011246 0.335449
vt 0.009552 0.335449
vt 0.009804 0.333496
vt 0.107849 0.335449
vt 0.011169 0.333496
vt 0.107849 0.333984
vt 0.011040 0.332031
vt 0.009262 0.332031
vt 0.010307 0.256836
vt 0.008888 0.256836
vt 0.297119 0.588379
vt 0.295898 0.508301
vt 0.297363 0.508301
vt 0.295410 0.588135
vt 0.198364 0.508301
vt 0.296631 0.589844
vt 0.198364 0.588135
vt 0.103271 0.508545
vt 0.295166 0.589844
vt 0.295166 0.591309
vt 0.296875 0.591309
vt 0.103210 0.588867
vt 0.011330 0.508789
vt 0.295654 0.637207
vt 0.297363 0.637207
vt 0.296631 0.681641
vt 0.010681 0.588867
vt 0.009865 0.508789
vt 0.008888 0.589355
vt 0.009415 0.591064
vt 0.294922 0.681641
vt 0.296387 0.683105
vt 0.010788 0.590820
vt 0.010834 0.592773
vt 0.009148 0.592773
vt 0.103210 0.590332
vt 0.103271 0.591797
vt 0.198486 0.589355
vt 0.198486 0.590576
vt 0.198730 0.637451
vt 0.103394 0.637451
vt 0.010841 0.637695
vt 0.009163 0.637695
vt 0.009460 0.679932
vt 0.011147 0.679932
vt 0.009712 0.681641
vt 0.103638 0.681396
vt 0.011101 0.681885
vt 0.198853 0.681885
vt 0.103638 0.682861
vt 0.010986 0.683838
vt 0.009125 0.683594
vt 0.010803 0.764160
vt 0.012123 0.764282
vt 0.103638 0.684326
vt 0.103760 0.764526
vt 0.198853 0.684570
vt 0.198853 0.764771
vt 0.198853 0.683105
vt 0.294922 0.683105
vt 0.294922 0.684570
vt 0.295410 0.764771
vt 0.296875 0.684570
vt 0.297119 0.764771
vt 0.974609 0.903503
vt 0.976074 0.903564
vt 0.976074 0.904907
vt 0.974609 0.905212
vt 0.976074 0.859375
vt 0.898926 0.905273
vt 0.899414 0.906982
vt 0.818848 0.905457
vt 0.974121 0.859375
vt 0.976074 0.813477
vt 0.818848 0.903809
vt 0.817383 0.905212
vt 0.817383 0.903870
vt 0.899414 0.858887
vt 0.819336 0.859497
vt 0.817871 0.859497
vt 0.817383 0.813599
vt 0.819336 0.813599
vt 0.817871 0.812256
vt 0.819336 0.812012
vt 0.899414 0.810791
vt 0.899414 0.809082
vt 0.974121 0.811768
vt 0.974121 0.813477
vt 0.975586 0.812012
vt 0.805176 0.813477
vt 0.803711 0.813477
vt 0.805176 0.812012
vt 0.803711 0.811768
vt 0.803711 0.857910
vt 0.805664 0.857910
vt 0.805664 0.899719
vt 0.723633 0.810791
vt 0.723633 0.809082
vt 0.648438 0.811157
vt 0.803711 0.899719
vt 0.805176 0.901123
vt 0.803711 0.901367
vt 0.723633 0.858398
vt 0.723633 0.904114
vt 0.723633 0.905823
vt 0.648438 0.904846
vt 0.648438 0.903137
vt 0.646973 0.904541
vt 0.646973 0.903137
vt 0.648438 0.857788
vt 0.646484 0.857788
vt 0.646973 0.812744
vt 0.648438 0.812744
vt 0.646973 0.811401
vt1 0.078735 0.330566
vt1 0.082397 0.443359
vt1 0.080078 0.443359
vt1 0.081360 0.331055
vt1 0.220459 0.443848
vt1 0.079407 0.328125
vt1 0.220459 0.330078
vt1 0.363281 0.443848
vt1 0.081482 0.328613
vt1 0.081543 0.325684
vt1 0.078979 0.325684
vt1 0.078735 0.257812
vt1 0.220459 0.327637
vt1 0.081299 0.257812
vt1 0.220581 0.325195
vt1 0.080505 0.189941
vt1 0.078003 0.189453
vt1 0.078491 0.187012
vt1 0.220337 0.255371
vt1 0.080566 0.187012
vt1 0.080505 0.184570
vt1 0.077942 0.184570
vt1 0.079956 0.071777
vt1 0.082397 0.071777
vt1 0.220459 0.186523
vt1 0.220459 0.184082
vt1 0.220459 0.071777
vt1 0.220337 0.188965
vt1 0.363281 0.186035
vt1 0.363281 0.183594
vt1 0.363281 0.071777
vt1 0.508301 0.071777
vt1 0.511230 0.185547
vt1 0.510742 0.071777
vt1 0.508789 0.185059
vt1 0.510742 0.187500
vt1 0.508789 0.187500
vt1 0.363281 0.188477
vt1 0.508789 0.190430
vt1 0.511230 0.189941
vt1 0.363281 0.255371
vt1 0.508789 0.256836
vt1 0.511230 0.256836
vt1 0.363281 0.324219
vt1 0.508301 0.325684
vt1 0.510742 0.325684
vt1 0.510254 0.328125
vt1 0.363281 0.325684
vt1 0.508301 0.328613
vt1 0.363281 0.327637
vt1 0.508789 0.331055
vt1 0.511230 0.330566
vt1 0.509766 0.443848
vt1 0.511719 0.443848
vt1 0.459473 0.799805
vt1 0.461182 0.919983
vt1 0.459229 0.920044
vt1 0.462158 0.800049
vt1 0.607422 0.919861
vt1 0.460205 0.797607
vt1 0.607422 0.800171
vt1 0.750488 0.919617
vt1 0.462158 0.797607
vt1 0.462158 0.795166
vt1 0.459717 0.795288
vt1 0.750488 0.798950
vt1 0.888672 0.919312
vt1 0.461426 0.726562
vt1 0.458984 0.726562
vt1 0.460205 0.659668
vt1 0.889648 0.798828
vt1 0.890625 0.919067
vt1 0.892090 0.798462
vt1 0.891602 0.795776
vt1 0.462646 0.659912
vt1 0.460693 0.657471
vt1 0.889160 0.796143
vt1 0.889160 0.793091
vt1 0.891602 0.793091
vt1 0.750488 0.796753
vt1 0.750488 0.794678
vt1 0.607422 0.798096
vt1 0.607422 0.796265
vt1 0.607422 0.726074
vt1 0.750488 0.726318
vt1 0.889160 0.725830
vt1 0.891602 0.725830
vt1 0.891113 0.662354
vt1 0.888672 0.662354
vt1 0.891113 0.659668
vt1 0.750000 0.660156
vt1 0.888672 0.659180
vt1 0.606934 0.659180
vt1 0.750000 0.657959
vt1 0.889160 0.656494
vt1 0.891602 0.656982
vt1 0.889160 0.535889
vt1 0.887207 0.535645
vt1 0.750000 0.655762
vt1 0.750000 0.535400
vt1 0.606934 0.655273
vt1 0.606934 0.534912
vt1 0.606934 0.657471
vt1 0.462646 0.657471
vt1 0.462646 0.655273
vt1 0.461914 0.534912
vt1 0.459961 0.655273
vt1 0.459473 0.534912
vt1 0.329346 0.766113
vt1 0.332031 0.766113
vt1 0.331543 0.768188
vt1 0.329590 0.768555
vt1 0.331299 0.699707
vt1 0.216187 0.768799
vt1 0.216187 0.771362
vt1 0.095764 0.769043
vt1 0.328857 0.699707
vt1 0.331543 0.630859
vt1 0.095825 0.766602
vt1 0.093689 0.768677
vt1 0.093262 0.766602
vt1 0.216309 0.698975
vt1 0.096375 0.699951
vt1 0.093933 0.699951
vt1 0.093811 0.631104
vt1 0.096313 0.631104
vt1 0.094177 0.629150
vt1 0.096252 0.628662
vt1 0.216431 0.626953
vt1 0.216309 0.624512
vt1 0.329102 0.628418
vt1 0.328857 0.630859
vt1 0.331055 0.628906
vt1 0.880371 0.195312
vt1 0.877930 0.195312
vt1 0.879883 0.192871
vt1 0.877930 0.192871
vt1 0.877930 0.262207
vt1 0.880371 0.261719
vt1 0.880371 0.324707
vt1 0.757324 0.191406
vt1 0.757324 0.188477
vt1 0.645020 0.191895
vt1 0.877930 0.324707
vt1 0.879883 0.326660
vt1 0.877930 0.327148
vt1 0.757324 0.262695
vt1 0.757324 0.331543
vt1 0.757324 0.333984
vt1 0.644531 0.332520
vt1 0.644531 0.330078
vt1 0.642578 0.332031
vt1 0.642090 0.330078
vt1 0.644531 0.261719
vt1 0.641602 0.261719
vt1 0.642578 0.194336
vt1 0.645020 0.194336
vt1 0.642578 0.191895
vn -0.307087 -0.937008 0.157480
vn -0.165354 -0.984252 0.023622
vn -0.322835 -0.944882 0.023622
vn -0.157480 -0.976378 0.173228
vn 0.000000 -1.000000 0.031496
vn -0.314961 -0.669291 0.677165
vn -0.007874 -0.984252 0.188976
vn 0.000000 -1.000000 0.031496
vn -0.157480 -0.692913 0.708661
vn -0.157480 -0.157480 0.976378
vn -0.307087 -0.141732 0.944882
vn -0.322835 -0.007874 0.944882
vn -0.007874 -0.700787 0.716535
vn -0.165354 0.000000 0.984252
vn -0.007874 -0.165354 0.984252
vn -0.157480 0.157480 0.976378
vn -0.307087 0.141732 0.944882
vn -0.314961 0.669291 0.669291
vn -0.007874 0.007874 1.000000
vn -0.157480 0.700787 0.700787
vn -0.157480 0.976378 0.157480
vn -0.307087 0.944882 0.141732
vn -0.322835 0.944882 0.007874
vn -0.165354 0.984252 0.007874
vn 0.000000 0.708661 0.708661
vn -0.007874 0.984252 0.173228
vn -0.007874 1.000000 0.015748
vn 0.000000 0.181102 0.984252
vn 0.000000 0.708661 0.708661
vn 0.007874 0.984252 0.181102
vn 0.007874 1.000000 0.023622
vn 0.173228 0.984252 0.023622
vn 0.307087 0.937008 0.157480
vn 0.322835 0.944882 0.023622
vn 0.157480 0.968504 0.173228
vn 0.322835 0.661417 0.677165
vn 0.157480 0.692913 0.700787
vn 0.000000 0.181102 0.984252
vn 0.157480 0.157480 0.976378
vn 0.314961 0.133858 0.937008
vn 0.000000 0.015748 1.000000
vn 0.173228 0.000000 0.984252
vn 0.330709 -0.007874 0.944882
vn 0.000000 -0.149606 0.984252
vn 0.165354 -0.141732 0.976378
vn 0.307087 -0.125984 0.944882
vn 0.314961 -0.661417 0.685039
vn 0.000000 -0.692913 0.724409
vn 0.165354 -0.685039 0.708661
vn 0.000000 -0.984252 0.188976
vn 0.157480 -0.968504 0.181102
vn 0.307087 -0.937008 0.165354
vn 0.165354 -0.984252 0.031496
vn 0.314961 -0.944882 0.039370
vn 0.299213 -0.937008 -0.165354
vn 0.165354 -0.984252 -0.031496
vn 0.314961 -0.944882 -0.039370
vn 0.157480 -0.968504 -0.173228
vn 0.000000 -1.000000 -0.023622
vn 0.314961 -0.669291 -0.677165
vn 0.000000 -0.984252 -0.181102
vn -0.007874 -1.000000 -0.023622
vn 0.157480 -0.692913 -0.700787
vn 0.157480 -0.157480 -0.976378
vn 0.307087 -0.133858 -0.944882
vn -0.007874 -0.984252 -0.181102
vn -0.165354 -0.984252 -0.031496
vn 0.165354 -0.000000 -0.984252
vn 0.322835 -0.000000 -0.944882
vn 0.307087 0.133858 -0.944882
vn -0.157480 -0.968504 -0.173228
vn -0.322835 -0.944882 -0.031496
vn -0.307087 -0.937008 -0.157480
vn -0.314961 -0.661417 -0.685039
vn 0.149606 0.149606 -0.976378
vn 0.314961 0.661417 -0.677165
vn -0.157480 -0.692913 -0.708661
vn -0.149606 -0.149606 -0.976378
vn -0.299213 -0.133858 -0.944882
vn -0.007874 -0.700787 -0.716535
vn 0.000000 -0.165354 -0.984252
vn 0.000000 -0.708661 -0.708661
vn 0.000000 -0.165354 -0.984252
vn 0.000000 -0.000000 -1.000000
vn 0.000000 -0.000000 -1.000000
vn -0.157480 -0.000000 -0.984252
vn -0.314961 -0.000000 -0.952756
vn -0.299213 0.133858 -0.944882
vn -0.149606 0.149606 -0.976378
vn -0.314961 0.653543 -0.685039
vn 0.000000 0.165354 -0.984252
vn -0.165354 0.685039 -0.708661
vn 0.000000 0.165354 -0.984252
vn -0.015748 0.700787 -0.716535
vn -0.165354 0.968504 -0.188976
vn -0.307087 0.937008 -0.173228
vn -0.322835 0.944882 -0.047244
vn -0.173228 0.984252 -0.047244
vn -0.015748 0.984252 -0.196850
vn -0.015748 1.000000 -0.039370
vn 0.000000 0.984252 -0.188976
vn 0.000000 1.000000 -0.031496
vn 0.000000 0.700787 -0.716535
vn 0.157480 0.692913 -0.708661
vn 0.157480 0.976378 -0.173228
vn 0.173228 0.984252 -0.023622
vn 0.307087 0.937008 -0.157480
vn 0.322835 0.944882 -0.023622
vn 0.976378 0.149606 0.157480
vn 0.944882 0.125984 0.307087
vn 0.921260 0.275591 0.283464
vn 0.944882 0.299213 0.141732
vn 0.944882 0.000000 0.322835
vn 0.984252 0.165354 -0.000000
vn 0.944882 0.322835 -0.000000
vn 0.944882 0.307087 -0.141732
vn 0.984252 0.000000 0.165354
vn 0.944882 -0.125984 0.307087
vn 0.976378 0.157480 -0.157480
vn 0.913386 0.283464 -0.283465
vn 0.944882 0.149606 -0.299213
vn 1.000000 0.007874 -0.000000
vn 0.984252 0.007874 -0.165354
vn 0.944882 0.007874 -0.314961
vn 0.944882 -0.133858 -0.307087
vn 0.976378 -0.141732 -0.157480
vn 0.921260 -0.267717 -0.283464
vn 0.944882 -0.291339 -0.149606
vn 0.984252 -0.157480 0.000000
vn 0.952756 -0.307087 0.000000
vn 0.944882 -0.291339 0.149606
vn 0.976378 -0.141732 0.165354
vn 0.921260 -0.267716 0.291339
vn -0.937008 -0.141732 -0.314961
vn -0.976378 -0.157480 -0.157480
vn -0.913386 -0.291339 -0.291339
vn -0.937008 -0.314961 -0.141732
vn -0.984252 -0.000000 -0.165354
vn -0.944882 -0.000000 -0.330709
vn -0.937008 0.133858 -0.314961
vn -0.984252 -0.181102 0.000000
vn -0.944882 -0.330709 0.000000
vn -0.937008 -0.314961 0.141732
vn -0.976378 0.157480 -0.157480
vn -0.913386 0.291339 -0.299213
vn -0.937008 0.314961 -0.149606
vn -1.000000 0.000000 0.000000
vn -0.984252 0.181102 -0.007874
vn -0.944882 0.330709 -0.007874
vn -0.937008 0.314961 0.133858
vn -0.976378 0.157480 0.149606
vn -0.913386 0.283465 0.283464
vn -0.944882 0.133858 0.307087
vn -0.984252 -0.007874 0.165354
vn -0.944882 -0.007874 0.322835
vn -0.937008 -0.141732 0.307087
vn -0.976378 -0.165354 0.157480
vn -0.913386 -0.291339 0.291339
tan 0.064790 -0.186310 -0.982206 1.000000
tan 0.019344 -0.027156 -0.996094 1.000000
tan 0.029574 -0.035030 -0.997024 1.000000
tan 0.052328 -0.182900 -0.983322 1.000000
tan 0.000000 -0.031496 -1.000000 1.000000
tan 0.040672 -0.724533 -0.697191 1.000000
tan -0.001488 -0.188976 -0.984314 1.000000
tan 0.000000 -0.031496 -1.000000 1.000000
tan 0.031372 -0.718581 -0.695641 1.000000
tan -0.014880 -0.984562 -0.161200 1.000000
tan -0.002232 -0.992126 -0.149544 1.000000
tan -0.004898 -0.997024 -0.009982 1.000000
tan -0.000124 -0.716597 -0.700849 1.000000
tan 0.000000 -0.996094 0.000000 1.000000
tan -0.006448 -0.984314 -0.165416 1.000000
tan 0.022568 -0.984562 0.162440 1.000000
tan 0.009672 -0.992126 0.151962 1.000000
tan -0.015810 -0.712071 0.704631 1.000000
tan -0.000062 -1.000062 0.007874 1.000000
tan -0.011036 -0.708351 0.705871 1.000000
tan -0.037944 -0.164920 0.984562 1.000000
tan -0.039432 -0.161634 0.992126 1.000000
tan -0.019778 -0.015066 0.997024 1.000000
tan -0.014198 -0.010354 0.996094 1.000000
tan 0.000000 -0.708661 0.708661 1.000000
tan 0.001364 -0.173228 0.984314 1.000000
tan 0.000124 -0.015748 1.000062 1.000000
tan 0.000000 -0.984252 0.181102 1.000000
tan 0.000000 -0.708661 0.708661 1.000000
tan -0.001426 -0.181102 0.984314 1.000000
tan -0.000186 -0.023622 1.000062 1.000000
tan 0.011408 -0.025978 0.998760 1.000000
tan 0.041416 -0.179056 0.984624 1.000000
tan 0.022134 -0.032488 0.997024 1.000000
tan 0.035092 -0.180420 0.976812 1.000000
tan 0.022816 -0.718643 0.691053 1.000000
tan 0.010106 -0.708351 0.698121 1.000000
tan 0.000000 -0.984252 0.181102 1.000000
tan -0.014880 -0.984562 0.161200 1.000000
tan -0.003162 -0.989460 0.142414 1.000000
tan 0.000000 -1.000000 0.015748 1.000000
tan 0.015500 -0.998760 -0.002728 1.000000
tan 0.019716 -1.002170 -0.015252 1.000000
tan 0.000000 -0.984252 -0.149606 1.000000
tan 0.016120 -0.987042 -0.146010 1.000000
tan 0.005952 -0.994544 -0.134540 1.000000
tan -0.053010 -0.731601 -0.682001 1.000000
tan 0.000000 -0.724409 -0.692913 1.000000
tan -0.035712 -0.720937 -0.688573 1.000000
tan 0.000000 -0.188976 -0.984252 1.000000
tan -0.058218 -0.191890 -0.975572 1.000000
tan -0.071176 -0.196230 -0.979788 1.000000
tan -0.002542 -0.032302 -0.996094 1.000000
tan -0.002480 -0.042160 -0.992002 1.000000
tan -0.025606 -0.181102 0.979912 1.000000
tan 0.005208 -0.031000 0.996094 1.000000
tan 0.012400 -0.037200 0.992002 1.000000
tan -0.027466 -0.179180 0.976812 1.000000
tan 0.000000 -0.023622 1.000000 1.000000
tan -0.019468 -0.719573 0.702151 1.000000
tan 0.000000 -0.181102 0.984252 1.000000
tan -0.000186 -0.023622 1.000062 1.000000
tan -0.010106 -0.708351 0.698121 1.000000
tan 0.022568 -0.984562 0.162440 1.000000
tan 0.019468 -0.992126 0.146878 1.000000
tan -0.001426 -0.181102 0.984314 1.000000
tan 0.033542 -0.037510 0.996094 1.000000
tan 0.007750 -0.996094 0.001302 1.000000
tan 0.007440 -0.997024 0.002542 1.000000
tan -0.012028 -0.992126 -0.144460 1.000000
tan 0.074586 -0.186620 0.975572 1.000000
tan 0.057040 -0.052638 0.994482 1.000000
tan 0.102920 -0.197160 0.972410 1.000000
tan 0.058404 -0.731601 0.679521 1.000000
tan -0.023746 -0.983384 -0.154318 1.000000
tan 0.007068 -0.717093 -0.697129 1.000000
tan 0.042408 -0.719821 0.694401 1.000000
tan -0.000682 -0.991072 0.151962 1.000000
tan 0.010292 -0.989770 0.136958 1.000000
tan -0.005642 -0.716535 0.700849 1.000000
tan 0.000000 -0.984252 0.165354 1.000000
tan 0.005580 -0.708661 0.708661 1.000000
tan 0.007750 -0.984252 0.165354 1.000000
tan 0.000000 -1.000000 0.000000 1.000000
tan 0.007874 -1.000000 0.000000 1.000000
tan 0.007750 -0.993552 -0.001240 1.000000
tan 0.007502 -1.006944 -0.002480 1.000000
tan -0.010292 -0.989770 -0.136958 1.000000
tan 0.008370 -0.991072 -0.153140 1.000000
tan -0.066836 -0.734081 -0.669601 1.000000
tan 0.007750 -0.984252 -0.165354 1.000000
tan -0.035712 -0.720937 -0.688573 1.000000
tan 0.000000 -0.984252 -0.165354 1.000000
tan 0.011284 -0.716535 -0.701035 1.000000
tan -0.078492 -0.204229 -0.977990 1.000000
tan -0.114576 -0.216877 -0.969992 1.000000
tan -0.066588 -0.072602 -0.997024 1.000000
tan -0.038316 -0.054684 -0.998760 1.000000
tan 0.003100 -0.196850 -0.984500 1.000000
tan 0.000620 -0.039370 -1.000248 1.000000
tan 0.000000 -0.188976 -0.984252 1.000000
tan 0.000000 -0.031496 -1.000000 1.000000
tan 0.000000 -0.716535 -0.700787 1.000000
tan 0.003844 -0.714861 -0.698121 1.000000
tan 0.027900 -0.179180 -0.984562 1.000000
tan -0.004092 -0.023250 -0.998760 1.000000
tan 0.011904 -0.169384 -0.984624 1.000000
tan -0.015066 -0.019778 -0.997024 1.000000
tan 0.149730 -0.985802 0.008184 1.000000
tan 0.127286 -0.994544 0.016368 1.000000
tan 0.273669 -0.965342 0.049104 1.000000
tan 0.300205 -0.957530 0.020088 1.000000
tan 0.000000 -0.997024 0.000000 1.000000
tan 0.165354 -0.984252 0.000000 1.000000
tan 0.322835 -0.944882 0.000000 1.000000
tan 0.308017 -0.957530 -0.021204 1.000000
tan 0.000000 -0.996094 0.000000 1.000000
tan -0.127286 -0.994544 -0.016368 1.000000
tan 0.157480 -0.985802 -0.009424 1.000000
tan 0.283465 -0.957778 -0.044392 1.000000
tan 0.151962 -0.989770 -0.015004 1.000000
tan 0.007874 -1.000000 0.000000 1.000000
tan 0.007750 -0.996094 -0.001302 1.000000
tan 0.007440 -0.992002 -0.002480 1.000000
tan -0.134788 -0.994544 0.018786 1.000000
tan -0.141980 -0.985802 0.006944 1.000000
tan -0.266105 -0.967574 0.048980 1.000000
tan -0.292579 -0.959824 0.021266 1.000000
tan -0.157480 -0.984252 0.000000 1.000000
tan -0.307087 -0.952756 0.000000 1.000000
tan -0.290285 -0.952384 -0.021266 1.000000
tan -0.142104 -0.988344 -0.008060 1.000000
tan -0.264245 -0.962614 -0.048980 1.000000
tan 0.144956 -0.991940 0.015128 1.000000
tan 0.157480 -0.985802 0.009424 1.000000
tan 0.289045 -0.955112 0.048918 1.000000
tan 0.316945 -0.949718 0.015128 1.000000
tan 0.000000 -0.996094 0.000000 1.000000
tan 0.000000 -1.002170 0.000000 1.000000
tan -0.136400 -0.984562 -0.012648 1.000000
tan 0.181102 -0.984252 0.000000 1.000000
tan 0.330709 -0.944882 0.000000 1.000000
tan 0.315829 -0.949718 -0.022506 1.000000
tan -0.157480 -0.985802 -0.009424 1.000000
tan -0.291711 -0.959762 -0.044020 1.000000
tan -0.317193 -0.950834 -0.015128 1.000000
tan 0.000000 -1.000000 0.000000 1.000000
tan -0.181102 -0.984314 -0.001426 1.000000
tan -0.330709 -0.944944 -0.002604 1.000000
tan -0.313535 -0.947548 0.034782 1.000000
tan -0.157418 -0.991072 0.015872 1.000000
tan -0.274537 -0.952818 0.068200 1.000000
tan -0.132370 -0.994544 0.026226 1.000000
tan 0.007750 -0.996094 -0.001302 1.000000
tan 0.007440 -0.997024 -0.002542 1.000000
tan 0.142290 -0.987042 -0.021390 1.000000
tan 0.165230 -0.985802 -0.010664 1.000000
tan 0.286751 -0.955112 -0.056110 1.000000
f 3/3/3 2/2/2 1/1/1
f 4/4/4 1/1/1 2/2/2
f 4/4/4 2/2/2 5/5/5
f 4/4/4 6/6/6 1/1/1
f 7/7/7 4/4/4 5/5/5
f 7/7/7 5/5/5 8/8/8
f 9/9/9 6/6/6 4/4/4
f 9/9/9 4/4/4 7/7/7
f 6/6/6 9/9/9 10/10/10
f 6/6/6 10/10/10 11/11/11
f 11/11/11 10/10/10 12/12/12
f 13/13/13 9/9/9 7/7/7
f 14/14/14 12/12/12 10/10/10
f 10/10/10 9/9/9 15/15/15
f 10/10/10 15/15/15 14/14/14
f 13/13/13 15/15/15 9/9/9
f 12/12/12 14/14/14 16/16/16
f 16/16/16 17/17/17 12/12/12
f 18/18/18 17/17/17 16/16/16
f 19/19/19 14/14/14 15/15/15
f 14/14/14 19/19/19 16/16/16
f 16/16/16 20/20/20 18/18/18
f 20/20/20 21/21/21 18/18/18
f 22/22/22 18/18/18 21/21/21
f 22/22/22 21/21/21 23/23/23
f 24/24/24 23/23/23 21/21/21
f 20/20/20 16/16/16 25/25/25
f 21/21/21 20/20/20 25/25/25
f 26/26/26 24/24/24 21/21/21
f 26/26/26 21/21/21 25/25/25
f 27/27/27 24/24/24 26/26/26
f 28/28/28 25/25/25 16/16/16
f 19/19/19 28/28/28 16/16/16
f 26/26/26 25/25/25 29/29/29
f 25/25/25 28/28/28 29/29/29
f 30/30/30 27/27/27 26/26/26
f 30/30/30 26/26/26 29/29/29
f 31/31/31 27/27/27 30/30/30
f 31/31/31 30/30/30 32/32/32
f 34/34/34 32/32/32 33/33/33
f 35/35/35 32/32/32 30/30/30
f 35/35/35 33/33/33 32/32/32
f 30/30/30 29/29/29 35/35/35
f 36/36/36 33/33/33 35/35/35
f 37/37/37 35/35/35 29/29/29
f 35/35/35 37/37/37 36/36/36
f 38/38/38 29/29/29 28/28/28
f 29/29/29 38/38/38 37/37/37
f 28/28/28 19/19/19 38/38/38
f 37/37/37 39/39/39 36/36/36
f 39/39/39 37/37/37 38/38/38
f 40/40/40 36/36/36 39/39/39
f 41/41/41 38/38/38 19/19/19
f 38/38/38 41/41/41 39/39/39
f 19/19/19 15/15/15 41/41/41
f 39/39/39 42/42/42 40/40/40
f 42/42/42 39/39/39 41/41/41
f 43/43/43 40/40/40 42/42/42
f 44/44/44 41/41/41 15/15/15
f 15/15/15 13/13/13 44/44/44
f 42/42/42 41/41/41 45/45/45
f 42/42/42 45/45/45 43/43/43
f 44/44/44 45/45/45 41/41/41
f 46/46/46 43/43/43 45/45/45
f 46/46/46 45/45/45 47/47/47
f 48/48/48 44/44/44 13/13/13
f 44/44/44 48/48/48 45/45/45
f 49/49/49 47/47/47 45/45/45
f 49/49/49 45/45/45 48/48/48
f 50/50/50 48/48/48 13/13/13
f 48/48/48 50/50/50 49/49/49
f 13/13/13 7/7/7 50/50/50
f 50/50/50 7/7/7 8/8/8
f 47/47/47 49/49/49 51/51/51
f 51/51/51 49/49/49 50/50/50
f 50/50/50 8/8/8 51/51/51
f 47/47/47 51/51/51 52/52/52
f 53/53/53 51/51/51 8/8/8
f 52/52/52 51/51/51 53/53/53
f 53/53/53 54/54/54 52/52/52
f 57/57/57 56/56/56 55/55/55
f 58/58/58 55/55/55 56/56/56
f 56/56/56 59/59/59 58/58/58
f 60/60/60 55/55/55 58/58/58
f 58/58/58 59/59/59 61/61/61
f 59/59/59 62/62/62 61/61/61
f 58/58/58 63/63/63 60/60/60
f 58/58/58 61/61/61 63/63/63
f 60/60/60 63/63/63 64/64/64
f 60/60/60 64/64/64 65/65/65
f 66/66/66 61/61/61 62/62/62
f 62/62/62 67/67/67 66/66/66
f 65/65/65 64/64/64 68/68/68
f 68/68/68 69/69/69 65/65/65
f 69/69/69 68/68/68 70/70/70
f 67/67/67 71/71/71 66/66/66
f 67/67/67 72/72/72 71/71/71
f 73/73/73 71/71/71 72/72/72
f 73/73/73 74/74/74 71/71/71
f 75/75/75 70/70/70 68/68/68
f 76/76/76 70/70/70 75/75/75
f 77/77/77 71/71/71 74/74/74
f 71/71/71 77/77/77 66/66/66
f 77/77/77 74/74/74 78/78/78
f 78/78/78 74/74/74 79/79/79
f 80/80/80 66/66/66 77/77/77
f 66/66/66 80/80/80 61/61/61
f 80/80/80 77/77/77 81/81/81
f 77/77/77 78/78/78 81/81/81
f 82/82/82 61/61/61 80/80/80
f 80/80/80 81/81/81 82/82/82
f 61/61/61 82/82/82 63/63/63
f 82/82/82 83/83/83 63/63/63
f 83/83/83 82/82/82 81/81/81
f 64/64/64 63/63/63 83/83/83
f 83/83/83 84/84/84 64/64/64
f 83/83/83 81/81/81 84/84/84
f 68/68/68 64/64/64 84/84/84
f 68/68/68 84/84/84 75/75/75
f 81/81/81 78/78/78 85/85/85
f 85/85/85 84/84/84 81/81/81
f 78/78/78 79/79/79 86/86/86
f 78/78/78 86/86/86 85/85/85
f 87/87/87 86/86/86 79/79/79
f 87/87/87 88/88/88 86/86/86
f 89/89/89 86/86/86 88/88/88
f 86/86/86 89/89/89 85/85/85
f 88/88/88 90/90/90 89/89/89
f 91/91/91 85/85/85 89/89/89
f 85/85/85 91/91/91 84/84/84
f 92/92/92 89/89/89 90/90/90
f 89/89/89 92/92/92 91/91/91
f 93/93/93 84/84/84 91/91/91
f 84/84/84 93/93/93 75/75/75
f 94/94/94 91/91/91 92/92/92
f 91/91/91 94/94/94 93/93/93
f 92/92/92 90/90/90 95/95/95
f 92/92/92 95/95/95 94/94/94
f 96/96/96 95/95/95 90/90/90
f 96/96/96 97/97/97 95/95/95
f 98/98/98 95/95/95 97/97/97
f 95/95/95 98/98/98 99/99/99
f 99/99/99 94/94/94 95/95/95
f 100/100/100 99/99/99 98/98/98
f 99/99/99 100/100/100 101/101/101
f 99/99/99 101/101/101 94/94/94
f 102/102/102 101/101/101 100/100/100
f 103/103/103 93/93/93 94/94/94
f 103/103/103 94/94/94 101/101/101
f 93/93/93 103/103/103 104/104/104
f 103/103/103 101/101/101 104/104/104
f 75/75/75 93/93/93 104/104/104
f 75/75/75 104/104/104 76/76/76
f 101/101/101 102/102/102 105/105/105
f 105/105/105 104/104/104 101/101/101
f 76/76/76 104/104/104 105/105/105
f 106/106/106 105/105/105 102/102/102
f 76/76/76 105/105/105 107/107/107
f 107/107/107 105/105/105 106/106/106
f 106/106/106 108/108/108 107/107/107
f 111/111/111 110/110/110 109/109/109
f 109/109/109 112/112/112 111/111/111
f 109/109/109 110/110/110 113/113/113
f 109/109/109 114/114/114 112/112/112
f 114/114/114 115/115/115 112/112/112
f 115/115/115 114/114/114 116/116/116
f 113/113/113 117/117/117 109/109/109
f 117/117/117 113/113/113 118/118/118
f 119/119/119 116/116/116 114/114/114
f 116/116/116 119/119/119 120/120/120
f 121/121/121 120/120/120 119/119/119
f 109/109/109 122/122/122 114/114/114
f 114/114/114 122/122/122 119/119/119
f 117/117/117 122/122/122 109/109/109
f 119/119/119 123/123/123 121/121/121
f 123/123/123 119/119/119 122/122/122
f 124/124/124 121/121/121 123/123/123
f 124/124/124 123/123/123 125/125/125
f 126/126/126 125/125/125 123/123/123
f 126/126/126 123/123/123 122/122/122
f 126/126/126 127/127/127 125/125/125
f 128/128/128 127/127/127 126/126/126
f 128/128/128 126/126/126 129/129/129
f 129/129/129 126/126/126 122/122/122
f 129/129/129 130/130/130 128/128/128
f 130/130/130 129/129/129 131/131/131
f 129/129/129 122/122/122 132/132/132
f 132/132/132 131/131/131 129/129/129
f 117/117/117 132/132/132 122/122/122
f 118/118/118 132/132/132 117/117/117
f 133/133/133 131/131/131 132/132/132
f 133/133/133 132/132/132 118/118/118
f 136/136/136 135/135/135 134/134/134
f 136/136/136 137/137/137 135/135/135
f 134/134/134 135/135/135 138/138/138
f 138/138/138 139/139/139 134/134/134
f 139/139/139 138/138/138 140/140/140
f 135/135/135 137/137/137 141/141/141
f 142/142/142 141/141/141 137/137/137
f 141/141/141 142/142/142 143/143/143
f 144/144/144 140/140/140 138/138/138
f 145/145/145 140/140/140 144/144/144
f 144/144/144 146/146/146 145/145/145
f 138/138/138 135/135/135 147/147/147
f 138/138/138 147/147/147 144/144/144
f 141/141/141 147/147/147 135/135/135
f 144/144/144 148/148/148 146/146/146
f 147/147/147 148/148/148 144/144/144
f 148/148/148 149/149/149 146/146/146
f 149/149/149 148/148/148 150/150/150
f 151/151/151 150/150/150 148/148/148
f 148/148/148 147/147/147 151/151/151
f 150/150/150 151/151/151 152/152/152
f 153/153/153 152/152/152 151/151/151
f 151/151/151 154/154/154 153/153/153
f 154/154/154 151/151/151 147/147/147
f 155/155/155 153/153/153 154/154/154
f 155/155/155 154/154/154 156/156/156
f 157/157/157 154/154/154 147/147/147
f 157/157/157 156/156/156 154/154/154
f 141/141/141 157/157/157 147/147/147
f 143/143/143 157/157/157 141/141/141
f 157/157/157 158/158/158 156/156/156
f 143/143/143 158/158/158 157/157/157
