mtllib SM_CardBoard_Box_02_LOD1.mtl
g SM_CardBoard_Box_02_LOD1
#Vertices 128
#Indices 504
#Section 0 Offset 0 NumIndices 504 MaterialIndex 0 MI_CardBoard_Boxes_01
v 0.000862 0.004844 0.314070
v 0.004806 0.000000 0.164444
v 0.001617 0.001084 0.164428
v 0.004059 0.003756 0.314089
v 0.188998 -0.001634 0.164458
v 0.001400 0.004935 0.317239
v 0.189033 0.003504 0.315626
v 0.379199 -0.001634 0.164458
v 0.377482 0.004057 0.321689
v 0.379270 0.002843 0.318821
v 0.572531 0.003456 0.314544
v 0.574866 -0.001654 0.164393
v 0.575692 0.004510 0.314473
v 0.578032 -0.000582 0.164478
v 0.575099 0.004582 0.317564
v 0.189012 0.007863 0.319873
v 0.000437 0.008077 0.318442
v 0.572473 0.007811 0.318718
v 0.575647 0.007785 0.317625
v 0.575846 0.187405 0.317914
v 0.379185 0.007206 0.323023
v 0.572704 0.187659 0.319227
v 0.575300 0.190909 0.318465
v 0.379199 0.099801 0.321394
v 0.379196 0.189768 0.317929
v 0.188997 0.100730 0.321118
v 0.379207 0.192965 0.316797
v 0.002830 0.188641 0.318803
v 0.000683 0.098067 0.318045
v -0.001191 0.189007 0.317757
v 0.189027 0.189947 0.318517
v 0.000266 0.192147 0.317764
v 0.572706 0.192160 0.315214
v 0.575883 0.191054 0.315228
v 0.572759 0.195587 0.164496
v 0.575939 0.194496 0.164443
v 0.379236 0.194100 0.313601
v 0.379199 0.198403 0.164458
v 0.188997 0.196865 0.164458
v 0.188985 0.194255 0.314182
v 0.005117 0.194768 0.164523
v 0.002847 0.192942 0.314477
v -0.000352 0.191846 0.314487
v 0.001930 0.193665 0.164530
v 0.575861 0.004829 0.004641
v 0.574866 -0.001654 0.164393
v 0.578032 -0.000582 0.164478
v 0.572700 0.003776 0.004647
v 0.379199 -0.001634 0.164458
v 0.575269 0.004937 0.001470
v 0.379208 0.000782 0.004966
v 0.188998 -0.001634 0.164458
v 0.188972 0.002397 0.003866
v 0.004806 0.000000 0.164444
v 0.365902 0.001752 0.001456
v 0.004331 0.005058 0.004233
v 0.001617 0.001084 0.164428
v 0.001133 0.006142 0.004235
v 0.001670 0.006246 0.001079
v 0.379236 0.005107 0.000701
v 0.189059 0.006729 -0.000385
v 0.572664 0.008078 0.000364
v 0.576822 0.008080 0.001445
v 0.576301 0.099726 0.001501
v 0.574795 0.188292 0.000107
v 0.377182 0.189451 -0.000939
v 0.573901 0.191544 0.001003
v 0.004312 0.009396 -0.000000
v 0.001118 0.009408 0.001055
v 0.187794 0.187191 -0.000301
v 0.004222 0.181907 -0.000391
v 0.000995 0.182119 0.000665
v 0.001594 0.184956 0.000728
v 0.189007 0.190435 0.000900
v 0.379194 0.192442 0.000979
v 0.379196 0.193588 0.004155
v 0.004258 0.186286 0.003937
v 0.001057 0.185195 0.003933
v 0.001930 0.193665 0.164530
v 0.005117 0.194768 0.164523
v 0.188990 0.191609 0.004074
v 0.188997 0.196865 0.164458
v 0.379199 0.198403 0.164458
v 0.571309 0.192717 0.004169
v 0.572759 0.195587 0.164496
v 0.574490 0.191610 0.004176
v 0.575939 0.194496 0.164443
v 0.576822 0.008080 0.001445
v 0.575269 0.004937 0.001470
v 0.575861 0.004829 0.004641
v 0.579069 0.002594 0.164601
v 0.578032 -0.000582 0.164478
v 0.575692 0.004510 0.314473
v 0.576710 0.007683 0.314441
v 0.575099 0.004582 0.317564
v 0.575647 0.007785 0.317625
v 0.576989 0.191061 0.168482
v 0.576968 0.187687 0.314658
v 0.575846 0.187405 0.317914
v 0.575300 0.190909 0.318465
v 0.575883 0.191054 0.315228
v 0.575939 0.194496 0.164443
v 0.574490 0.191610 0.004176
v 0.576159 0.188429 0.004544
v 0.573901 0.191544 0.001003
v 0.576301 0.099726 0.001501
v 0.574795 0.188292 0.000107
v 0.000266 0.192147 0.317764
v -0.001191 0.189007 0.317757
v -0.000352 0.191846 0.314487
v 0.000437 0.008077 0.318442
v 0.000683 0.098067 0.318045
v 0.000826 0.190482 0.164681
v 0.001930 0.193665 0.164530
v 0.001057 0.185195 0.003933
v -0.000274 0.008027 0.314087
v 0.001400 0.004935 0.317239
v 0.000862 0.004844 0.314070
v -0.002321 0.099111 0.164458
v -0.000113 0.181804 0.003826
v 0.001594 0.184956 0.000728
v 0.000995 0.182119 0.000665
v 0.001118 0.009408 0.001055
v 0.000000 0.009325 0.004227
v 0.001670 0.006246 0.001079
v 0.001133 0.006142 0.004235
v 0.000509 0.004264 0.164352
v 0.001617 0.001084 0.164428
vt 0.297363 0.332031
vt 0.294922 0.256836
vt 0.296387 0.256836
vt 0.295654 0.332031
vt 0.203003 0.256836
vt 0.296875 0.333496
vt 0.203003 0.332520
vt 0.107910 0.256836
vt 0.108765 0.335449
vt 0.107849 0.333984
vt 0.011040 0.332031
vt 0.010307 0.256836
vt 0.009262 0.332031
vt 0.008888 0.256836
vt 0.009857 0.333496
vt 0.203003 0.335938
vt 0.297363 0.335449
vt 0.011246 0.335449
vt 0.009552 0.335449
vt 0.009239 0.425781
vt 0.107910 0.336426
vt 0.010918 0.425781
vt 0.009697 0.427246
vt 0.107849 0.382324
vt 0.107849 0.426758
vt 0.203125 0.382324
vt 0.107849 0.428223
vt 0.296143 0.426270
vt 0.297363 0.380371
vt 0.298340 0.426270
vt 0.203125 0.426758
vt 0.297363 0.427734
vt 0.010948 0.429199
vt 0.009201 0.428711
vt 0.011215 0.504395
vt 0.009689 0.504395
vt 0.107849 0.430176
vt 0.107910 0.504639
vt 0.203003 0.504395
vt 0.203003 0.429688
vt 0.294922 0.504395
vt 0.296143 0.429688
vt 0.297852 0.429199
vt 0.296631 0.504395
vt 0.297119 0.588379
vt 0.295898 0.508301
vt 0.297363 0.508301
vt 0.295410 0.588135
vt 0.198364 0.508301
vt 0.296631 0.589844
vt 0.198364 0.588135
vt 0.103271 0.508545
vt 0.103210 0.588867
vt 0.011330 0.508789
vt 0.191772 0.589600
vt 0.010681 0.588867
vt 0.009865 0.508789
vt 0.008888 0.589355
vt 0.009468 0.590820
vt 0.198486 0.590576
vt 0.103271 0.591797
vt 0.295166 0.591309
vt 0.297363 0.591309
vt 0.297363 0.637207
vt 0.296631 0.681396
vt 0.197876 0.682129
vt 0.296387 0.683105
vt 0.010834 0.592773
vt 0.009148 0.592773
vt 0.102966 0.681641
vt 0.011093 0.679932
vt 0.009392 0.679932
vt 0.009781 0.681885
vt 0.103638 0.682861
vt 0.198853 0.683105
vt 0.198853 0.684570
vt 0.010986 0.683838
vt 0.009125 0.683594
vt 0.010803 0.764160
vt 0.012123 0.764282
vt 0.103638 0.684326
vt 0.103760 0.764526
vt 0.198853 0.764771
vt 0.294922 0.684570
vt 0.295410 0.764771
vt 0.296875 0.684570
vt 0.297119 0.764771
vt 0.817871 0.813599
vt 0.817383 0.812012
vt 0.819336 0.812012
vt 0.899414 0.810791
vt 0.899414 0.809082
vt 0.974121 0.811768
vt 0.974121 0.813477
vt 0.976074 0.811768
vt 0.976074 0.813477
vt 0.901367 0.905151
vt 0.974121 0.903442
vt 0.976074 0.903320
vt 0.976562 0.905151
vt 0.974609 0.905212
vt 0.899414 0.906982
vt 0.818848 0.905457
vt 0.819336 0.903809
vt 0.817383 0.905457
vt 0.817871 0.859497
vt 0.816895 0.903809
vt 0.646973 0.904907
vt 0.646973 0.903320
vt 0.648438 0.904846
vt 0.646484 0.812744
vt 0.646484 0.857788
vt 0.723633 0.904114
vt 0.723633 0.905823
vt 0.803711 0.901367
vt 0.648438 0.812744
vt 0.646973 0.811157
vt 0.648438 0.811157
vt 0.723633 0.858398
vt 0.803711 0.899658
vt 0.805664 0.901306
vt 0.805664 0.899841
vt 0.805176 0.813477
vt 0.803711 0.813477
vt 0.805176 0.811768
vt 0.803711 0.811768
vt 0.723633 0.810791
vt 0.723633 0.809082
vt1 0.078735 0.330566
vt1 0.082397 0.443359
vt1 0.080078 0.443359
vt1 0.081360 0.331055
vt1 0.220459 0.443848
vt1 0.079529 0.328613
vt1 0.220459 0.330078
vt1 0.363281 0.443848
vt1 0.362061 0.326172
vt1 0.363281 0.327637
vt1 0.508789 0.331055
vt1 0.509766 0.443848
vt1 0.511230 0.330566
vt1 0.511719 0.443848
vt1 0.510254 0.328613
vt1 0.220581 0.325195
vt1 0.078796 0.325684
vt1 0.508301 0.325684
vt1 0.510742 0.325684
vt1 0.511230 0.190430
vt1 0.363281 0.324219
vt1 0.508789 0.190430
vt1 0.510742 0.187500
vt1 0.363281 0.255371
vt1 0.363281 0.188477
vt1 0.220337 0.255371
vt1 0.363281 0.186035
vt1 0.080505 0.189941
vt1 0.078735 0.257812
vt1 0.077454 0.189453
vt1 0.220337 0.188965
vt1 0.078613 0.187012
vt1 0.508789 0.185059
vt1 0.511230 0.185547
vt1 0.508301 0.071777
vt1 0.510742 0.071777
vt1 0.363281 0.183594
vt1 0.363281 0.071777
vt1 0.220459 0.071777
vt1 0.220459 0.184082
vt1 0.082397 0.071777
vt1 0.080505 0.184570
vt1 0.077942 0.184570
vt1 0.079956 0.071777
vt1 0.459473 0.799805
vt1 0.461182 0.919983
vt1 0.459229 0.920044
vt1 0.462158 0.800049
vt1 0.607422 0.919861
vt1 0.460205 0.797607
vt1 0.607422 0.800171
vt1 0.750488 0.919617
vt1 0.750488 0.798950
vt1 0.888672 0.919312
vt1 0.617676 0.797852
vt1 0.889648 0.798828
vt1 0.890625 0.919067
vt1 0.892090 0.798462
vt1 0.891113 0.796021
vt1 0.607422 0.796265
vt1 0.750488 0.794678
vt1 0.462158 0.795166
vt1 0.458984 0.795410
vt1 0.458984 0.726562
vt1 0.459961 0.659912
vt1 0.608398 0.658936
vt1 0.460693 0.657471
vt1 0.889160 0.793091
vt1 0.891602 0.793091
vt1 0.750977 0.659912
vt1 0.888672 0.662354
vt1 0.891602 0.662109
vt1 0.890625 0.659424
vt1 0.750000 0.657959
vt1 0.606934 0.657471
vt1 0.606934 0.655273
vt1 0.889160 0.656494
vt1 0.891602 0.656982
vt1 0.889160 0.535889
vt1 0.887207 0.535645
vt1 0.750000 0.655762
vt1 0.750000 0.535400
vt1 0.606934 0.534912
vt1 0.462646 0.655273
vt1 0.461914 0.534912
vt1 0.459961 0.655273
vt1 0.459473 0.534912
vt1 0.093872 0.631104
vt1 0.093811 0.628662
vt1 0.096252 0.628662
vt1 0.216431 0.626953
vt1 0.216309 0.624512
vt1 0.329102 0.628418
vt1 0.328857 0.630859
vt1 0.331299 0.628418
vt1 0.331543 0.630859
vt1 0.219238 0.768555
vt1 0.329102 0.765991
vt1 0.331543 0.765869
vt1 0.332031 0.768555
vt1 0.329590 0.768555
vt1 0.216187 0.771362
vt1 0.095764 0.769043
vt1 0.096191 0.766602
vt1 0.093323 0.769043
vt1 0.093933 0.699951
vt1 0.092773 0.766602
vt1 0.642090 0.332520
vt1 0.642090 0.330078
vt1 0.644531 0.332520
vt1 0.641602 0.194336
vt1 0.641602 0.261719
vt1 0.757324 0.331543
vt1 0.757324 0.333984
vt1 0.877930 0.327148
vt1 0.645020 0.194336
vt1 0.642578 0.191895
vt1 0.645020 0.191895
vt1 0.757324 0.262695
vt1 0.877930 0.324707
vt1 0.880371 0.327148
vt1 0.880371 0.324707
vt1 0.880371 0.195312
vt1 0.877930 0.195312
vt1 0.880371 0.192871
vt1 0.877930 0.192871
vt1 0.757324 0.191406
vt1 0.757324 0.188477
vn -0.307087 -0.937008 0.157480
vn -0.165354 -0.984252 0.023622
vn -0.322835 -0.944882 0.023622
vn -0.157480 -0.976378 0.173228
vn 0.000000 -1.000000 0.031496
vn -0.157480 -0.692913 0.708661
vn -0.007874 -0.984252 0.188976
vn 0.000000 -1.000000 0.031496
vn 0.023622 -0.692913 0.724409
vn 0.000000 -0.984252 0.188976
vn 0.157480 -0.968504 0.181102
vn 0.165354 -0.984252 0.031496
vn 0.307087 -0.937008 0.165354
vn 0.314961 -0.944882 0.039370
vn 0.165354 -0.692913 0.700787
vn -0.007874 -0.165354 0.984252
vn -0.173228 -0.157480 0.968504
vn 0.165354 -0.141732 0.976378
vn 0.307087 -0.125984 0.944882
vn 0.322835 0.125984 0.937008
vn 0.000000 -0.149606 0.984252
vn 0.157480 0.149606 0.976378
vn 0.165354 0.685039 0.708661
vn 0.000000 0.015748 1.000000
vn 0.000000 0.181102 0.984252
vn -0.007874 0.007874 1.000000
vn 0.000000 0.708661 0.708661
vn -0.157480 0.157480 0.976378
vn -0.322835 -0.007874 0.944882
vn -0.338583 0.133858 0.929134
vn 0.000000 0.181102 0.984252
vn -0.125984 0.700787 0.700787
vn 0.157480 0.968504 0.173228
vn 0.307087 0.937008 0.157480
vn 0.173228 0.984252 0.023622
vn 0.322835 0.944882 0.023622
vn 0.007874 0.984252 0.181102
vn 0.007874 1.000000 0.023622
vn -0.007874 1.000000 0.015748
vn -0.007874 0.984252 0.173228
vn -0.165354 0.984252 0.007874
vn -0.157480 0.976378 0.157480
vn -0.307087 0.944882 0.141732
vn -0.322835 0.944882 0.007874
vn 0.299213 -0.937008 -0.165354
vn 0.165354 -0.984252 -0.031496
vn 0.314961 -0.944882 -0.039370
vn 0.157480 -0.968504 -0.173228
vn 0.000000 -1.000000 -0.023622
vn 0.157480 -0.692913 -0.700787
vn 0.000000 -0.984252 -0.181102
vn -0.007874 -1.000000 -0.023622
vn -0.007874 -0.984252 -0.181102
vn -0.165354 -0.984252 -0.031496
vn 0.031496 -0.700787 -0.708661
vn -0.157480 -0.968504 -0.173228
vn -0.322835 -0.944882 -0.031496
vn -0.307087 -0.937008 -0.157480
vn -0.165354 -0.692913 -0.708661
vn 0.000000 -0.165354 -0.984252
vn 0.000000 -0.165354 -0.984252
vn 0.157480 -0.157480 -0.976378
vn 0.354331 -0.133858 -0.929134
vn 0.322835 -0.000000 -0.944882
vn 0.165354 0.149606 -0.976378
vn 0.000000 0.157480 -0.984252
vn 0.157480 0.692913 -0.708661
vn -0.149606 -0.149606 -0.976378
vn -0.299213 -0.133858 -0.944882
vn 0.000000 0.157480 -0.984252
vn -0.157480 0.141732 -0.976378
vn -0.307087 0.133858 -0.944882
vn -0.165354 0.677165 -0.716535
vn -0.015748 0.700787 -0.716535
vn 0.000000 0.700787 -0.716535
vn 0.000000 0.984252 -0.188976
vn -0.165354 0.968504 -0.188976
vn -0.307087 0.937008 -0.173228
vn -0.322835 0.944882 -0.047244
vn -0.173228 0.984252 -0.047244
vn -0.015748 0.984252 -0.196850
vn -0.015748 1.000000 -0.039370
vn 0.000000 1.000000 -0.031496
vn 0.157480 0.976378 -0.173228
vn 0.173228 0.984252 -0.023622
vn 0.307087 0.937008 -0.157480
vn 0.322835 0.944882 -0.023622
vn 0.976378 -0.141732 -0.165354
vn 0.905512 -0.291339 -0.307087
vn 0.944882 -0.291339 -0.149606
vn 0.984252 -0.157480 0.000000
vn 0.952756 -0.307087 0.000000
vn 0.944882 -0.291339 0.149606
vn 0.976378 -0.141732 0.165354
vn 0.905512 -0.291339 0.307087
vn 0.944882 -0.125984 0.307087
vn 0.984252 0.165354 -0.000000
vn 0.976378 0.141732 0.157480
vn 0.944882 0.125984 0.307087
vn 0.905512 0.291339 0.307087
vn 0.944882 0.299213 0.141732
vn 0.944882 0.322835 -0.000000
vn 0.944882 0.307087 -0.141732
vn 0.976378 0.157480 -0.157480
vn 0.905512 0.307087 -0.299213
vn 0.944882 0.007874 -0.314961
vn 0.937008 0.141732 -0.330709
vn -0.889764 0.322835 0.322835
vn -0.976378 0.157480 0.165354
vn -0.937008 0.314961 0.133858
vn -0.929134 -0.133858 0.346457
vn -0.944882 -0.007874 0.322835
vn -0.984252 0.181102 -0.007874
vn -0.944882 0.330709 -0.007874
vn -0.937008 0.314961 -0.149606
vn -0.976378 -0.165354 0.157480
vn -0.897638 -0.307087 0.307087
vn -0.937008 -0.314961 0.141732
vn -1.000000 0.000000 0.000000
vn -0.976378 0.157480 -0.165354
vn -0.897638 0.307087 -0.322835
vn -0.937008 0.133858 -0.322835
vn -0.937008 -0.141732 -0.314961
vn -0.976378 -0.157480 -0.157480
vn -0.897638 -0.307087 -0.314961
vn -0.937008 -0.314961 -0.141732
vn -0.984252 -0.181102 0.000000
vn -0.944882 -0.330709 0.000000
tan 0.119226 -0.197346 -0.941720 1.000000
tan 0.023064 -0.027528 -0.985554 1.000000
tan 0.043710 -0.038874 -0.957592 1.000000
tan 0.075516 -0.185628 -0.977618 1.000000
tan 0.000000 -0.031496 -1.000000 1.000000
tan 0.010540 -0.714861 -0.696633 1.000000
tan 0.000000 -0.188976 -0.984252 1.000000
tan 0.000000 -0.031496 -1.000000 1.000000
tan 0.000000 -0.724409 -0.692913 1.000000
tan 0.000000 -0.188976 -0.984252 1.000000
tan -0.082460 -0.194742 -0.969744 1.000000
tan -0.007502 -0.032798 -0.985554 1.000000
tan -0.126294 -0.207576 -0.941720 1.000000
tan -0.020770 -0.046810 -0.957282 1.000000
tan -0.010726 -0.707297 -0.696819 1.000000
tan -0.007750 -0.984252 -0.165416 1.000000
tan -0.030504 -0.968504 -0.162936 1.000000
tan 0.037324 -0.977680 -0.148242 1.000000
tan 0.047120 -0.956972 -0.142910 1.000000
tan -0.028520 -0.939550 0.136152 1.000000
tan 0.000000 -0.984252 -0.149606 1.000000
tan -0.030752 -0.976378 0.154566 1.000000
tan -0.000744 -0.713869 0.690247 1.000000
tan 0.000000 -1.000000 0.015748 1.000000
tan 0.000000 -0.984252 0.181102 1.000000
tan 0.000000 -1.000000 0.007874 1.000000
tan 0.000000 -0.708661 0.708661 1.000000
tan 0.044888 -0.977618 0.164920 1.000000
tan -0.007130 -0.957592 -0.010416 1.000000
tan 0.072106 -0.931800 0.160518 1.000000
tan 0.000000 -0.984252 0.181102 1.000000
tan -0.005518 -0.702771 0.701779 1.000000
tan 0.059644 -0.183148 0.969744 1.000000
tan 0.089714 -0.187674 0.941720 1.000000
tan 0.015314 -0.026350 0.985616 1.000000
tan 0.028830 -0.033790 0.957592 1.000000
tan 0.000000 -0.181102 0.984252 1.000000
tan 0.000000 -0.023622 1.000000 1.000000
tan 0.000000 -0.015748 1.000000 1.000000
tan 0.000000 -0.173228 0.984252 1.000000
tan -0.015438 -0.010478 0.985554 1.000000
tan -0.060264 -0.167400 0.977618 1.000000
tan -0.091140 -0.172050 0.949532 1.000000
tan -0.029450 -0.018042 0.957592 1.000000
tan -0.074648 -0.189968 0.941410 1.000000
tan 0.000248 -0.031496 0.985554 1.000000
tan 0.001550 -0.039370 0.957282 1.000000
tan -0.052018 -0.181908 0.969744 1.000000
tan 0.000000 -0.023622 1.000000 1.000000
tan 0.000248 -0.705747 0.697873 1.000000
tan 0.000000 -0.181102 0.984252 1.000000
tan 0.000000 -0.023622 1.000000 1.000000
tan 0.000000 -0.181102 0.984252 1.000000
tan 0.038502 -0.038006 0.985554 1.000000
tan 0.000000 -0.708661 0.700787 1.000000
tan 0.097774 -0.187984 0.962118 1.000000
tan 0.080600 -0.059210 0.950152 1.000000
tan 0.156116 -0.208196 0.934342 1.000000
tan 0.010540 -0.715171 0.696819 1.000000
tan 0.007750 -0.984252 0.165354 1.000000
tan 0.000000 -0.984252 0.165354 1.000000
tan 0.044888 -0.977618 0.164920 1.000000
tan 0.072106 -0.931924 0.161758 1.000000
tan 0.007440 -0.957592 0.002542 1.000000
tan -0.046128 -0.976378 -0.157418 1.000000
tan -0.007750 -0.984252 -0.157480 1.000000
tan -0.000496 -0.713621 -0.697873 1.000000
tan -0.021886 -0.977556 0.153140 1.000000
tan -0.031930 -0.956662 0.145638 1.000000
tan 0.015500 -0.984252 -0.157480 1.000000
tan 0.030752 -0.976378 -0.146692 1.000000
tan 0.036146 -0.947300 -0.145948 1.000000
tan -0.009734 -0.723045 -0.681071 1.000000
tan 0.005642 -0.716535 -0.700911 1.000000
tan 0.000000 -0.716535 -0.700787 1.000000
tan 0.000000 -0.188976 -0.984252 1.000000
tan -0.105276 -0.205717 -0.962180 1.000000
tan -0.170252 -0.228533 -0.934342 1.000000
tan -0.094860 -0.079918 -0.950152 1.000000
tan -0.046128 -0.055428 -0.985616 1.000000
tan 0.000000 -0.196850 -0.984252 1.000000
tan 0.000000 -0.039370 -1.000000 1.000000
tan 0.000000 -0.031496 -1.000000 1.000000
tan 0.052452 -0.181908 -0.977618 1.000000
tan -0.007936 -0.022258 -0.985616 1.000000
tan 0.060202 -0.179242 -0.949098 1.000000
tan -0.008370 -0.021080 -0.957592 1.000000
tan -0.144336 -0.976378 -0.015376 1.000000
tan -0.303429 -0.907930 -0.033356 1.000000
tan -0.294873 -0.947238 -0.017732 1.000000
tan -0.157480 -0.984252 0.000000 1.000000
tan -0.307087 -0.952756 0.000000 1.000000
tan -0.293695 -0.947238 0.010292 1.000000
tan -0.144336 -0.977680 0.014260 1.000000
tan -0.301011 -0.907930 0.026226 1.000000
tan -0.133238 -0.956972 0.017360 1.000000
tan 0.165354 -0.984252 0.000000 1.000000
tan 0.144212 -0.976378 -0.015376 1.000000
tan 0.135656 -0.947300 -0.028768 1.000000
tan 0.303429 -0.907930 -0.033356 1.000000
tan 0.301445 -0.947114 -0.010168 1.000000
tan 0.322835 -0.944882 0.000000 1.000000
tan 0.310435 -0.947114 0.017484 1.000000
tan 0.159960 -0.976378 0.015376 1.000000
tan 0.321223 -0.907868 0.040362 1.000000
tan 0.007874 -0.957282 -0.000310 1.000000
tan 0.154752 -0.939612 0.035774 1.000000
tan -0.327919 -0.889764 -0.014012 1.000000
tan -0.158782 -0.976378 -0.007688 1.000000
tan -0.316015 -0.939116 -0.002418 1.000000
tan 0.147498 -0.931862 0.035526 1.000000
tan 0.007874 -0.957592 -0.000310 1.000000
tan -0.181102 -0.984252 0.000000 1.000000
tan -0.330709 -0.944882 0.000000 1.000000
tan -0.318495 -0.939364 0.017174 1.000000
tan 0.167834 -0.977618 0.014074 1.000000
tan 0.319177 -0.902474 0.030504 1.000000
tan 0.318309 -0.939240 0.017174 1.000000
tan 0.000000 -1.000000 0.000000 1.000000
tan -0.160084 -0.976378 0.015376 1.000000
tan -0.322339 -0.902722 0.037572 1.000000
tan -0.146568 -0.939550 0.035836 1.000000
tan 0.154132 -0.949408 -0.031310 1.000000
tan 0.159960 -0.977618 -0.014136 1.000000
tan 0.321967 -0.902598 -0.037572 1.000000
tan 0.318309 -0.939240 -0.017174 1.000000
tan 0.181102 -0.984252 0.000000 1.000000
tan 0.330709 -0.944882 0.000000 1.000000
f 3/3/3 2/2/2 1/1/1
f 4/4/4 1/1/1 2/2/2
f 4/4/4 2/2/2 5/5/5
f 4/4/4 6/6/6 1/1/1
f 7/7/7 4/4/4 5/5/5
f 6/6/6 4/4/4 7/7/7
f 7/7/7 5/5/5 8/8/8
f 9/9/9 6/6/6 7/7/7
f 10/10/10 7/7/7 8/8/8
f 9/9/9 7/7/7 10/10/10
f 10/10/10 8/8/8 11/11/11
f 12/12/12 11/11/11 8/8/8
f 12/12/12 14/14/14 13/13/13
f 13/13/13 11/11/11 12/12/12
f 15/15/15 11/11/11 13/13/13
f 11/11/11 15/15/15 10/10/10
f 9/9/9 10/10/10 15/15/15
f 9/9/9 16/16/16 6/6/6
f 17/17/17 6/6/6 16/16/16
f 15/15/15 18/18/18 9/9/9
f 19/19/19 18/18/18 15/15/15
f 19/19/19 20/20/20 18/18/18
f 16/16/16 9/9/9 21/21/21
f 21/21/21 9/9/9 18/18/18
f 22/22/22 18/18/18 20/20/20
f 20/20/20 23/23/23 22/22/22
f 21/21/21 18/18/18 24/24/24
f 22/22/22 24/24/24 18/18/18
f 21/21/21 24/24/24 16/16/16
f 25/25/25 24/24/24 22/22/22
f 22/22/22 23/23/23 25/25/25
f 26/26/26 16/16/16 24/24/24
f 24/24/24 25/25/25 26/26/26
f 26/26/26 17/17/17 16/16/16
f 27/27/27 25/25/25 23/23/23
f 17/17/17 26/26/26 28/28/28
f 29/29/29 17/17/17 28/28/28
f 28/28/28 30/30/30 29/29/29
f 31/31/31 26/26/26 25/25/25
f 26/26/26 31/31/31 28/28/28
f 25/25/25 27/27/27 31/31/31
f 32/32/32 30/30/30 28/28/28
f 31/31/31 32/32/32 28/28/28
f 32/32/32 31/31/31 27/27/27
f 23/23/23 33/33/33 27/27/27
f 23/23/23 34/34/34 33/33/33
f 36/36/36 35/35/35 34/34/34
f 33/33/33 34/34/34 35/35/35
f 33/33/33 35/35/35 37/37/37
f 37/37/37 27/27/27 33/33/33
f 38/38/38 37/37/37 35/35/35
f 38/38/38 39/39/39 37/37/37
f 37/37/37 40/40/40 27/27/27
f 37/37/37 39/39/39 40/40/40
f 40/40/40 32/32/32 27/27/27
f 39/39/39 41/41/41 40/40/40
f 40/40/40 42/42/42 32/32/32
f 40/40/40 41/41/41 42/42/42
f 43/43/43 32/32/32 42/42/42
f 41/41/41 44/44/44 42/42/42
f 43/43/43 42/42/42 44/44/44
f 47/47/47 46/46/46 45/45/45
f 48/48/48 45/45/45 46/46/46
f 46/46/46 49/49/49 48/48/48
f 50/50/50 45/45/45 48/48/48
f 48/48/48 49/49/49 51/51/51
f 48/48/48 51/51/51 50/50/50
f 49/49/49 52/52/52 51/51/51
f 53/53/53 51/51/51 52/52/52
f 52/52/52 54/54/54 53/53/53
f 51/51/51 55/55/55 50/50/50
f 53/53/53 55/55/55 51/51/51
f 54/54/54 56/56/56 53/53/53
f 54/54/54 57/57/57 56/56/56
f 58/58/58 56/56/56 57/57/57
f 58/58/58 59/59/59 56/56/56
f 56/56/56 59/59/59 53/53/53
f 55/55/55 53/53/53 59/59/59
f 55/55/55 60/60/60 50/50/50
f 55/55/55 59/59/59 61/61/61
f 60/60/60 55/55/55 61/61/61
f 62/62/62 50/50/50 60/60/60
f 50/50/50 62/62/62 63/63/63
f 65/65/65 64/64/64 63/63/63
f 63/63/63 62/62/62 65/65/65
f 60/60/60 66/66/66 62/62/62
f 65/65/65 62/62/62 66/66/66
f 60/60/60 61/61/61 66/66/66
f 65/65/65 66/66/66 67/67/67
f 59/59/59 68/68/68 61/61/61
f 68/68/68 59/59/59 69/69/69
f 61/61/61 68/68/68 70/70/70
f 70/70/70 66/66/66 61/61/61
f 68/68/68 69/69/69 71/71/71
f 68/68/68 71/71/71 70/70/70
f 72/72/72 71/71/71 69/69/69
f 72/72/72 73/73/73 71/71/71
f 71/71/71 73/73/73 70/70/70
f 70/70/70 74/74/74 66/66/66
f 74/74/74 70/70/70 73/73/73
f 66/66/66 75/75/75 67/67/67
f 75/75/75 66/66/66 74/74/74
f 75/75/75 76/76/76 67/67/67
f 75/75/75 74/74/74 76/76/76
f 73/73/73 77/77/77 74/74/74
f 78/78/78 77/77/77 73/73/73
f 78/78/78 79/79/79 77/77/77
f 80/80/80 77/77/77 79/79/79
f 81/81/81 74/74/74 77/77/77
f 77/77/77 80/80/80 81/81/81
f 81/81/81 76/76/76 74/74/74
f 82/82/82 81/81/81 80/80/80
f 81/81/81 82/82/82 76/76/76
f 83/83/83 76/76/76 82/82/82
f 76/76/76 83/83/83 84/84/84
f 84/84/84 67/67/67 76/76/76
f 85/85/85 84/84/84 83/83/83
f 67/67/67 84/84/84 86/86/86
f 86/86/86 84/84/84 85/85/85
f 85/85/85 87/87/87 86/86/86
f 90/90/90 89/89/89 88/88/88
f 90/90/90 88/88/88 91/91/91
f 91/91/91 92/92/92 90/90/90
f 92/92/92 91/91/91 93/93/93
f 94/94/94 93/93/93 91/91/91
f 95/95/95 93/93/93 94/94/94
f 95/95/95 94/94/94 96/96/96
f 91/91/91 88/88/88 97/97/97
f 91/91/91 97/97/97 94/94/94
f 96/96/96 94/94/94 98/98/98
f 98/98/98 94/94/94 97/97/97
f 98/98/98 99/99/99 96/96/96
f 100/100/100 99/99/99 98/98/98
f 98/98/98 101/101/101 100/100/100
f 98/98/98 97/97/97 101/101/101
f 97/97/97 102/102/102 101/101/101
f 102/102/102 97/97/97 103/103/103
f 104/104/104 103/103/103 97/97/97
f 88/88/88 104/104/104 97/97/97
f 103/103/103 104/104/104 105/105/105
f 106/106/106 104/104/104 88/88/88
f 107/107/107 105/105/105 104/104/104
f 106/106/106 107/107/107 104/104/104
f 110/110/110 109/109/109 108/108/108
f 112/112/112 109/109/109 111/111/111
f 109/109/109 110/110/110 113/113/113
f 114/114/114 113/113/113 110/110/110
f 113/113/113 114/114/114 115/115/115
f 116/116/116 111/111/111 109/109/109
f 116/116/116 117/117/117 111/111/111
f 118/118/118 117/117/117 116/116/116
f 113/113/113 119/119/119 109/109/109
f 116/116/116 109/109/109 119/119/119
f 120/120/120 113/113/113 115/115/115
f 119/119/119 113/113/113 120/120/120
f 120/120/120 115/115/115 121/121/121
f 121/121/121 122/122/122 120/120/120
f 120/120/120 122/122/122 123/123/123
f 123/123/123 124/124/124 120/120/120
f 120/120/120 124/124/124 119/119/119
f 125/125/125 124/124/124 123/123/123
f 125/125/125 126/126/126 124/124/124
f 127/127/127 119/119/119 124/124/124
f 124/124/124 126/126/126 127/127/127
f 127/127/127 116/116/116 119/119/119
f 118/118/118 116/116/116 127/127/127
f 128/128/128 127/127/127 126/126/126
f 127/127/127 128/128/128 118/118/118
