mtllib SM_CardBoard_Box_03_LOD1.mtl
g SM_CardBoard_Box_03_LOD1
#Vertices 125
#Indices 486
#Section 0 Offset 0 NumIndices 486 MaterialIndex 0 MI_CardBoard_Boxes_01
v 0.003192 0.000769 0.189441
v 0.001057 0.001086 0.004318
v 0.000020 0.001829 0.189418
v 0.004230 0.000000 0.004325
v 0.177780 -0.000898 0.189417
v 0.001651 0.001041 0.001231
v 0.177780 0.000071 0.004325
v 0.355536 -0.000898 0.189417
v 0.177779 0.001144 0.001145
v 0.000699 0.004208 0.000147
v 0.530807 0.001837 0.004335
v 0.533292 -0.000898 0.189417
v 0.355527 0.002659 0.001145
v 0.177778 0.004322 0.000064
v 0.000637 0.073587 -0.000424
v 0.704808 0.003829 0.005875
v 0.707507 -0.000908 0.189402
v 0.707989 0.004888 0.005873
v 0.710687 0.000157 0.189440
v 0.707427 0.004976 0.002724
v 0.533283 0.002653 0.001139
v 0.533292 0.005843 0.000041
v 0.708420 0.008156 0.001648
v 0.355500 0.005843 0.000064
v 0.533540 0.074362 -0.000442
v 0.710379 0.074878 -0.000370
v 0.177783 0.074089 -0.000453
v 0.001651 0.076773 0.000592
v 0.533295 0.077557 0.000586
v 0.709380 0.078077 0.000672
v 0.178427 0.077283 0.000582
v 0.533292 0.078651 0.003745
v 0.178536 0.078225 0.003805
v 0.004230 0.077909 0.003744
v 0.001057 0.076800 0.003753
v 0.003192 0.078780 0.189392
v 0.000019 0.077682 0.189416
v 0.177780 0.081704 0.189417
v 0.355536 0.082709 0.189417
v 0.533292 0.080810 0.189417
v 0.706834 0.079132 0.003745
v 0.707507 0.079214 0.189432
v 0.709999 0.078047 0.003776
v 0.710672 0.078145 0.189418
v 0.001057 0.002643 0.374433
v 0.003192 0.000769 0.189441
v 0.000020 0.001829 0.189418
v 0.004230 0.001558 0.374527
v 0.177780 -0.000898 0.189417
v 0.001707 0.002630 0.377578
v 0.175780 0.003527 0.375356
v 0.355536 -0.000898 0.189417
v 0.533292 -0.000898 0.189417
v 0.177798 0.005407 0.378364
v 0.000462 0.005838 0.378576
v 0.533312 0.002186 0.376965
v 0.177834 0.008598 0.379349
v 0.000704 0.071587 0.373422
v 0.355541 0.003171 0.379317
v 0.355534 0.006364 0.380333
v 0.533301 0.003292 0.380123
v 0.706834 0.001558 0.375665
v 0.707507 -0.000908 0.189402
v 0.709426 0.002625 0.378717
v 0.710006 0.002615 0.375640
v 0.710687 0.000157 0.189440
v 0.710349 0.005799 0.379728
v 0.533307 0.006481 0.381136
v 0.710458 0.074391 0.379798
v 0.519566 0.074660 0.379666
v 0.436954 0.077793 0.378430
v 0.177838 0.074137 0.379465
v 0.709416 0.077607 0.378652
v 0.001659 0.074767 0.372310
v 0.177793 0.077327 0.378334
v 0.533294 0.078674 0.375465
v 0.178024 0.078999 0.375100
v 0.706834 0.078667 0.375551
v 0.710006 0.077582 0.375553
v 0.533292 0.080810 0.189417
v 0.707507 0.079214 0.189432
v 0.710672 0.078145 0.189418
v 0.355536 0.082709 0.189417
v 0.177780 0.081704 0.189417
v 0.004311 0.075936 0.369213
v 0.003192 0.078780 0.189392
v 0.001138 0.074826 0.369180
v 0.000019 0.077682 0.189416
v 0.001659 0.074767 0.372310
v -0.000464 0.072655 0.369272
v 0.001138 0.074826 0.369180
v 0.000704 0.071587 0.373422
v 0.000019 0.077682 0.189416
v -0.000916 0.005840 0.374415
v 0.000462 0.005838 0.378576
v 0.001707 0.002630 0.377578
v 0.001057 0.002643 0.374433
v 0.000020 0.001829 0.189418
v 0.001057 0.001086 0.004318
v -0.000000 0.073610 0.003776
v 0.001057 0.076800 0.003753
v 0.001651 0.076773 0.000592
v 0.000637 0.073587 -0.000424
v 0.000699 0.004208 0.000147
v 0.000000 0.004268 0.004294
v 0.001651 0.001041 0.001231
v 0.711064 0.074400 0.375557
v 0.710458 0.074391 0.379798
v 0.709416 0.077607 0.378652
v 0.710006 0.077582 0.375553
v 0.710349 0.005799 0.379728
v 0.711182 0.074938 0.004000
v 0.710672 0.078145 0.189418
v 0.709999 0.078047 0.003776
v 0.709380 0.078077 0.000672
v 0.710379 0.074878 -0.000370
v 0.708420 0.008156 0.001648
v 0.711064 0.005788 0.375628
v 0.709426 0.002625 0.378717
v 0.710006 0.002615 0.375640
v 0.709071 0.008064 0.005796
v 0.707427 0.004976 0.002724
v 0.707989 0.004888 0.005873
v 0.711766 0.003331 0.189526
v 0.710687 0.000157 0.189440
vt 0.010597 0.024414
vt 0.009491 0.117188
vt 0.008888 0.024414
vt 0.011169 0.117188
vt 0.098022 0.023926
vt 0.009972 0.118652
vt 0.098022 0.116699
vt 0.186890 0.023926
vt 0.098083 0.118164
vt 0.009560 0.120605
vt 0.274658 0.116211
vt 0.275879 0.023438
vt 0.187012 0.118164
vt 0.098145 0.120117
vt 0.009918 0.155273
vt 0.361816 0.115234
vt 0.362793 0.023438
vt 0.363525 0.115234
vt 0.364258 0.022949
vt 0.363037 0.116699
vt 0.275879 0.117676
vt 0.275879 0.119141
vt 0.363525 0.118164
vt 0.187134 0.119629
vt 0.276611 0.152832
vt 0.365234 0.151855
vt 0.098572 0.154785
vt 0.010551 0.156738
vt 0.276611 0.154785
vt 0.364746 0.153809
vt 0.098999 0.156250
vt 0.276611 0.156250
vt 0.099121 0.157715
vt 0.011932 0.157715
vt 0.010262 0.158203
vt 0.011505 0.250977
vt 0.009888 0.250977
vt 0.098755 0.250488
vt 0.187744 0.250000
vt 0.276611 0.249512
vt 0.363525 0.155762
vt 0.363770 0.249023
vt 0.365234 0.155762
vt 0.365479 0.248535
vt 0.373047 0.156250
vt 0.374268 0.249023
vt 0.372559 0.249023
vt 0.374756 0.156738
vt 0.461670 0.249512
vt 0.373535 0.154785
vt 0.460693 0.156250
vt 0.550781 0.249512
vt 0.639648 0.249512
vt 0.461670 0.154785
vt 0.372803 0.152832
vt 0.639648 0.155762
vt 0.461670 0.153320
vt 0.373291 0.119141
vt 0.550781 0.154785
vt 0.550781 0.153320
vt 0.639648 0.154297
vt 0.726562 0.156250
vt 0.726562 0.249512
vt 0.728027 0.154785
vt 0.728516 0.156250
vt 0.728516 0.249512
vt 0.728516 0.153320
vt 0.639648 0.152832
vt 0.728516 0.119141
vt 0.632812 0.119141
vt 0.591309 0.118164
vt 0.461914 0.120605
vt 0.727539 0.117676
vt 0.373535 0.117188
vt 0.461670 0.119141
vt 0.639648 0.116699
vt 0.461670 0.117676
vt 0.726562 0.116211
vt 0.728027 0.116211
vt 0.639648 0.023438
vt 0.726562 0.023438
vt 0.728027 0.022949
vt 0.550293 0.023926
vt 0.461670 0.024414
vt 0.374756 0.115234
vt 0.374512 0.024902
vt 0.373047 0.115234
vt 0.372803 0.025391
vt 0.011368 0.850586
vt 0.012962 0.849487
vt 0.012970 0.850586
vt 0.010979 0.848999
vt 0.102966 0.852173
vt 0.010429 0.816040
vt 0.008629 0.816040
vt 0.008766 0.814453
vt 0.010384 0.814453
vt 0.102966 0.813965
vt 0.195557 0.813599
vt 0.195801 0.849976
vt 0.195923 0.851685
vt 0.197510 0.851685
vt 0.197876 0.849976
vt 0.197632 0.815186
vt 0.195557 0.815308
vt 0.197144 0.813599
vt 0.196411 0.805908
vt 0.198486 0.806030
vt 0.197998 0.807617
vt 0.196411 0.807617
vt 0.198486 0.771606
vt 0.010529 0.806274
vt 0.103271 0.807983
vt 0.010399 0.807861
vt 0.008827 0.807861
vt 0.008492 0.806274
vt 0.009186 0.772827
vt 0.196411 0.771606
vt 0.197998 0.770020
vt 0.196411 0.770020
vt 0.011299 0.772827
vt 0.009689 0.771118
vt 0.011314 0.771118
vt 0.103271 0.770386
vt 0.103210 0.768677
vt1 0.449707 0.082520
vt1 0.294189 0.080566
vt1 0.449463 0.079590
vt1 0.294678 0.083496
vt1 0.450439 0.228516
vt1 0.291992 0.081055
vt1 0.295410 0.228516
vt1 0.450928 0.377441
vt1 0.292480 0.229004
vt1 0.288818 0.080566
vt1 0.296631 0.524170
vt1 0.451416 0.526123
vt1 0.293213 0.377441
vt1 0.290039 0.229004
vt1 0.231079 0.081055
vt1 0.298096 0.670166
vt1 0.451904 0.671631
vt1 0.298096 0.673096
vt1 0.451904 0.674072
vt1 0.295410 0.672119
vt1 0.293945 0.526367
vt1 0.291748 0.526367
vt1 0.292725 0.673096
vt1 0.290527 0.377930
vt1 0.234619 0.527588
vt1 0.236450 0.675781
vt1 0.231934 0.229492
vt1 0.228760 0.082031
vt1 0.231934 0.527344
vt1 0.233032 0.674805
vt1 0.229492 0.230469
vt1 0.229004 0.527588
vt1 0.227051 0.230469
vt1 0.226440 0.084473
vt1 0.226318 0.081543
vt1 0.071106 0.083984
vt1 0.070923 0.081055
vt1 0.071716 0.229980
vt1 0.072571 0.378906
vt1 0.073486 0.527588
vt1 0.229858 0.672852
vt1 0.074280 0.673584
vt1 0.230469 0.675781
vt1 0.074646 0.676270
vt1 0.768066 0.671143
vt1 0.918457 0.669189
vt1 0.918457 0.671875
vt1 0.768066 0.668457
vt1 0.918945 0.527100
vt1 0.765137 0.670410
vt1 0.768066 0.528809
vt1 0.919434 0.382812
vt1 0.919434 0.238281
vt1 0.765137 0.527100
vt1 0.762207 0.671631
vt1 0.767090 0.237793
vt1 0.762695 0.527344
vt1 0.707520 0.670898
vt1 0.765137 0.382812
vt1 0.763184 0.382812
vt1 0.764648 0.237793
vt1 0.768066 0.096680
vt1 0.919434 0.096680
vt1 0.765625 0.094727
vt1 0.767578 0.093750
vt1 0.919434 0.093750
vt1 0.762695 0.093750
vt1 0.762207 0.237793
vt1 0.707520 0.094238
vt1 0.707520 0.249512
vt1 0.705566 0.316406
vt1 0.709473 0.526855
vt1 0.705078 0.095215
vt1 0.704102 0.670410
vt1 0.707520 0.527100
vt1 0.703125 0.238281
vt1 0.704590 0.527100
vt1 0.702637 0.097168
vt1 0.702637 0.094238
vt1 0.552246 0.238281
vt1 0.551758 0.096680
vt1 0.551270 0.094238
vt1 0.552734 0.382812
vt1 0.553711 0.527100
vt1 0.700684 0.668457
vt1 0.554199 0.668945
vt1 0.701172 0.671387
vt1 0.554688 0.671387
vt1 0.580078 0.879700
vt1 0.583008 0.877686
vt1 0.583008 0.879700
vt1 0.579102 0.876770
vt1 0.742676 0.882324
vt1 0.578125 0.818359
vt1 0.575195 0.818237
vt1 0.575195 0.815308
vt1 0.578125 0.815430
vt1 0.742676 0.814575
vt1 0.907227 0.813965
vt1 0.907715 0.878540
vt1 0.907715 0.881470
vt1 0.910645 0.881470
vt1 0.911621 0.878540
vt1 0.911133 0.816772
vt1 0.907227 0.816895
vt1 0.910156 0.813965
vt1 0.450684 0.868164
vt1 0.454590 0.868286
vt1 0.453613 0.871216
vt1 0.450928 0.871216
vt1 0.454346 0.807129
vt1 0.120667 0.868774
vt1 0.285400 0.871704
vt1 0.120422 0.871582
vt1 0.117615 0.871582
vt1 0.117004 0.868774
vt1 0.118286 0.809326
vt1 0.450928 0.807251
vt1 0.453613 0.804321
vt1 0.450928 0.804321
vt1 0.122009 0.809326
vt1 0.119141 0.806396
vt1 0.122070 0.806396
vt1 0.285400 0.804932
vt1 0.285156 0.802002
vn -0.165354 -0.984252 0.000000
vn -0.307087 -0.944882 -0.133858
vn -0.322835 -0.944882 0.000000
vn -0.149606 -0.976378 -0.149606
vn 0.000000 -1.000000 -0.007874
vn -0.157480 -0.708661 -0.685039
vn 0.000000 -0.984252 -0.165354
vn 0.000000 -1.000000 -0.007874
vn 0.000000 -0.708661 -0.708661
vn -0.157480 -0.157480 -0.976378
vn 0.007874 -0.984252 -0.173228
vn 0.000000 -1.000000 -0.015748
vn 0.000000 -0.708661 -0.708661
vn 0.000000 -0.165354 -0.984252
vn -0.157480 0.141732 -0.976378
vn 0.157480 -0.976378 -0.165354
vn 0.165354 -0.984252 -0.023622
vn 0.299213 -0.937008 -0.157480
vn 0.314961 -0.944882 -0.031496
vn 0.165354 -0.700787 -0.700787
vn 0.007874 -0.708661 -0.708661
vn 0.007874 -0.173228 -0.984252
vn 0.157480 -0.173228 -0.968504
vn 0.000000 -0.165354 -0.984252
vn 0.000000 0.149606 -0.992126
vn 0.165354 0.125984 -0.976378
vn 0.000000 0.149606 -0.992126
vn -0.157480 0.692913 -0.708661
vn 0.000000 0.700787 -0.716535
vn 0.157480 0.700787 -0.700787
vn 0.000000 0.700787 -0.716535
vn 0.000000 0.984252 -0.173228
vn -0.007874 0.984252 -0.173228
vn -0.157480 0.976378 -0.157480
vn -0.314961 0.937008 -0.141732
vn -0.173228 0.984252 -0.007874
vn -0.330709 0.944882 -0.007874
vn -0.007874 1.000000 -0.015748
vn 0.000000 1.000000 -0.015748
vn 0.007874 1.000000 -0.007874
vn 0.149606 0.976378 -0.157480
vn 0.165354 0.984252 -0.000000
vn 0.307087 0.944882 -0.141732
vn 0.322835 0.944882 -0.000000
vn -0.307087 -0.944882 0.141732
vn -0.165354 -0.984252 0.007874
vn -0.322835 -0.944882 0.007874
vn -0.149606 -0.976378 0.165354
vn 0.000000 -1.000000 0.015748
vn -0.165354 -0.692913 0.708661
vn 0.000000 -0.984252 0.181102
vn 0.000000 -1.000000 0.015748
vn 0.000000 -1.000000 0.015748
vn 0.000000 -0.692913 0.724409
vn -0.173228 -0.102362 0.976378
vn 0.000000 -0.984252 0.173228
vn -0.007874 -0.133858 0.992126
vn -0.173228 0.188976 0.968504
vn -0.007874 -0.692913 0.716535
vn -0.007874 -0.149606 0.992126
vn 0.000000 -0.692913 0.716535
vn 0.149606 -0.976378 0.165354
vn 0.157480 -0.984252 0.015748
vn 0.157480 -0.700787 0.700787
vn 0.299213 -0.944882 0.149606
vn 0.314961 -0.944882 0.015748
vn 0.165354 -0.141732 0.976378
vn 0.000000 -0.149606 0.992126
vn 0.157480 0.157480 0.976378
vn 0.000000 0.173228 0.984252
vn -0.023622 0.692913 0.724409
vn -0.015748 0.181102 0.984252
vn 0.157480 0.708661 0.685039
vn -0.173228 0.700787 0.692913
vn -0.015748 0.708661 0.708661
vn 0.000000 0.984252 0.173228
vn -0.007874 0.984252 0.181102
vn 0.149606 0.976378 0.157480
vn 0.307087 0.944882 0.141732
vn 0.007874 1.000000 0.007874
vn 0.165354 0.984252 0.007874
vn 0.322835 0.944882 0.007874
vn 0.000000 1.000000 0.015748
vn -0.007874 1.000000 0.015748
vn -0.165354 0.976378 0.165354
vn -0.173228 0.984252 0.015748
vn -0.314961 0.937008 0.149606
vn -0.330709 0.944882 0.015748
vn -0.897638 0.307087 0.299213
vn -0.976378 0.157480 0.149606
vn -0.944882 0.307087 0.133858
vn -0.937008 0.149606 0.330709
vn -0.952756 0.314961 -0.000000
vn -0.976378 -0.149606 0.157480
vn -0.937008 -0.110236 0.322835
vn -0.913386 -0.275590 0.299213
vn -0.944882 -0.291339 0.141732
vn -0.952756 -0.314961 0.000000
vn -0.944882 -0.299213 -0.133858
vn -0.976378 0.149606 -0.157480
vn -0.944882 0.299213 -0.141732
vn -0.905512 0.291339 -0.299213
vn -0.929134 0.125984 -0.338583
vn -0.929134 -0.133858 -0.338583
vn -0.976378 -0.149606 -0.157480
vn -0.905512 -0.299213 -0.299213
vn 0.976378 0.149606 0.149606
vn 0.929134 0.125984 0.338583
vn 0.905512 0.299213 0.299213
vn 0.944882 0.299213 0.133858
vn 0.929134 -0.133858 0.338583
vn 0.976378 0.141732 -0.157480
vn 0.952756 0.314961 -0.000000
vn 0.944882 0.283464 -0.141732
vn 0.913386 0.275590 -0.307087
vn 0.929134 0.102362 -0.346457
vn 0.929134 -0.157480 -0.338583
vn 0.976378 -0.149606 0.157480
vn 0.905512 -0.299213 0.299213
vn 0.944882 -0.299213 0.141732
vn 0.976378 -0.165354 -0.157480
vn 0.897638 -0.314961 -0.299213
vn 0.937008 -0.314961 -0.141732
vn 0.984252 -0.165354 -0.007874
vn 0.944882 -0.322835 -0.007874
tan 0.046500 -0.007812 0.985554 1.000000
tan 0.158410 -0.184946 0.942092 1.000000
tan 0.089280 -0.030504 0.950152 1.000000
tan 0.098766 -0.163742 0.969868 1.000000
tan 0.000000 -0.007874 1.000000 1.000000
tan 0.011718 -0.691239 0.712381 1.000000
tan 0.007750 -0.165354 0.984252 1.000000
tan 0.007874 -0.007874 1.000000 1.000000
tan 0.005580 -0.708661 0.708661 1.000000
tan -0.015376 -0.976378 0.159960 1.000000
tan 0.000000 -0.173228 0.984252 1.000000
tan 0.000000 -0.015748 1.000000 1.000000
tan 0.000000 -0.708661 0.708661 1.000000
tan 0.007750 -0.984252 0.165354 1.000000
tan 0.092256 -0.968690 -0.155496 1.000000
tan -0.029450 -0.170314 0.977618 1.000000
tan 0.015686 -0.021018 0.985554 1.000000
tan -0.030690 -0.169260 0.948788 1.000000
tan 0.038440 -0.019096 0.957282 1.000000
tan 0.005518 -0.705995 0.707297 1.000000
tan 0.005580 -0.708661 0.708723 1.000000
tan 0.015500 -0.984252 0.173352 1.000000
tan 0.068634 -0.968504 0.184388 1.000000
tan 0.007750 -0.984252 0.165354 1.000000
tan 0.015624 -0.992126 -0.149606 1.000000
tan -0.007688 -0.976378 -0.127286 1.000000
tan 0.007812 -0.992126 -0.149606 1.000000
tan 0.022568 -0.711141 -0.700353 1.000000
tan 0.005642 -0.716535 -0.700787 1.000000
tan 0.011036 -0.706987 -0.704507 1.000000
tan 0.000000 -0.716535 -0.700787 1.000000
tan 0.007750 -0.173228 -0.984252 1.000000
tan 0.007750 -0.173166 -0.984252 1.000000
tan 0.024304 -0.153760 -0.977618 1.000000
tan 0.080476 -0.116932 -0.951888 1.000000
tan 0.038812 -0.001054 -0.985616 1.000000
tan 0.082150 0.020832 -0.950462 1.000000
tan 0.007874 -0.015686 -1.000000 1.000000
tan 0.007874 -0.015748 -1.000000 1.000000
tan 0.007874 -0.007936 -1.000000 1.000000
tan 0.114080 -0.173910 -0.969868 1.000000
tan 0.062000 -0.010416 -0.985554 1.000000
tan 0.195300 -0.203670 -0.934652 1.000000
tan 0.126480 -0.043214 -0.950152 1.000000
tan -0.120900 0.181722 0.949532 1.000000
tan -0.030938 0.013082 0.985554 1.000000
tan -0.059210 0.028210 0.957592 1.000000
tan -0.075578 0.177134 0.977556 1.000000
tan 0.000000 0.015748 1.000000 1.000000
tan -0.010540 0.715171 0.696819 1.000000
tan 0.000000 0.181102 0.984252 1.000000
tan 0.000000 0.015748 1.000000 1.000000
tan 0.000000 0.015748 1.000000 1.000000
tan 0.000000 0.724409 0.692913 1.000000
tan 0.023064 0.976378 0.106454 1.000000
tan 0.000000 0.173228 0.984252 1.000000
tan -0.007812 0.992126 0.133796 1.000000
tan -0.038130 0.968504 -0.195796 1.000000
tan 0.005642 0.716535 0.692975 1.000000
tan 0.007812 0.992126 0.149668 1.000000
tan 0.000000 0.716535 0.692913 1.000000
tan 0.060202 0.174778 0.977556 1.000000
tan 0.007626 0.016988 0.985492 1.000000
tan 0.000000 0.705747 0.705747 1.000000
tan 0.090830 0.179056 0.949222 1.000000
tan 0.021700 0.023188 0.957282 1.000000
tan -0.038440 0.976378 0.148242 1.000000
tan 0.000000 0.992126 0.149606 1.000000
tan 0.076880 0.976378 -0.169880 1.000000
tan 0.007750 0.984252 -0.173228 1.000000
tan 0.000000 0.724409 -0.692913 1.000000
tan -0.015500 0.984252 -0.181350 1.000000
tan 0.010230 0.688759 -0.714861 1.000000
tan 0.016740 0.701097 -0.704879 1.000000
tan 0.000000 0.708785 -0.708785 1.000000
tan 0.007750 0.173228 -0.984252 1.000000
tan 0.007750 0.181164 -0.984252 1.000000
tan 0.001240 0.157480 -0.977556 1.000000
tan 0.035340 0.132060 -0.956972 1.000000
tan 0.007874 0.007812 -1.000000 1.000000
tan 0.031062 0.002666 -0.985554 1.000000
tan 0.059830 -0.012462 -0.957592 1.000000
tan 0.007874 0.015748 -1.000000 1.000000
tan 0.007874 0.015810 -1.000000 1.000000
tan 0.129394 0.186186 -0.969992 1.000000
tan 0.061876 0.026660 -0.985616 1.000000
tan 0.222828 0.221774 -0.919896 1.000000
tan 0.133300 0.062496 -0.950462 1.000000
tan -0.318867 -0.902350 -0.030504 1.000000
tan -0.159836 -0.976378 -0.015376 1.000000
tan -0.310249 -0.946990 -0.017484 1.000000
tan -0.160022 -0.939612 -0.028334 1.000000
tan -0.314961 -0.952756 0.000000 1.000000
tan 0.149606 -0.976378 0.000000 1.000000
tan 0.117862 -0.939550 0.021266 1.000000
tan 0.280303 -0.915742 0.012214 1.000000
tan 0.292455 -0.947114 0.002852 1.000000
tan 0.314961 -0.952756 0.000000 1.000000
tan 0.301321 -0.946990 -0.010168 1.000000
tan -0.150846 -0.977618 0.006510 1.000000
tan -0.301445 -0.947114 0.010168 1.000000
tan -0.298407 -0.907868 0.019096 1.000000
tan -0.133982 -0.931800 0.020956 1.000000
tan 0.141856 -0.931800 -0.020894 1.000000
tan 0.150846 -0.977618 -0.006510 1.000000
tan 0.306281 -0.907868 -0.019034 1.000000
tan 0.150784 -0.977556 -0.006510 1.000000
tan 0.133982 -0.931800 -0.020956 1.000000
tan 0.306281 -0.907868 -0.019034 1.000000
tan 0.301321 -0.946990 -0.010168 1.000000
tan -0.144522 -0.931800 0.028210 1.000000
tan 0.141732 -0.976378 0.000000 1.000000
tan 0.314961 -0.952756 0.000000 1.000000
tan 0.284581 -0.947114 0.002976 1.000000
tan 0.280427 -0.915804 0.012214 1.000000
tan 0.110546 -0.931862 0.021142 1.000000
tan -0.173476 -0.931800 -0.042656 1.000000
tan -0.152086 -0.977618 0.014198 1.000000
tan -0.308637 -0.907868 0.026164 1.000000
tan -0.301445 -0.947114 0.010168 1.000000
tan -0.169074 -0.977618 -0.021762 1.000000
tan -0.331453 -0.902350 -0.044516 1.000000
tan -0.319425 -0.939240 -0.024552 1.000000
tan -0.165354 -0.984252 0.000000 1.000000
tan -0.322835 -0.944882 0.000000 1.000000
f 3/3/3 2/2/2 1/1/1
f 4/4/4 1/1/1 2/2/2
f 1/1/1 4/4/4 5/5/5
f 2/2/2 6/6/6 4/4/4
f 7/7/7 5/5/5 4/4/4
f 4/4/4 6/6/6 7/7/7
f 5/5/5 7/7/7 8/8/8
f 9/9/9 7/7/7 6/6/6
f 6/6/6 10/10/10 9/9/9
f 11/11/11 8/8/8 7/7/7
f 12/12/12 8/8/8 11/11/11
f 7/7/7 9/9/9 13/13/13
f 11/11/11 7/7/7 13/13/13
f 14/14/14 9/9/9 10/10/10
f 9/9/9 14/14/14 13/13/13
f 10/10/10 15/15/15 14/14/14
f 16/16/16 12/12/12 11/11/11
f 17/17/17 12/12/12 16/16/16
f 19/19/19 17/17/17 18/18/18
f 16/16/16 18/18/18 17/17/17
f 20/20/20 18/18/18 16/16/16
f 16/16/16 11/11/11 20/20/20
f 11/11/11 21/21/21 20/20/20
f 21/21/21 11/11/11 13/13/13
f 21/21/21 22/22/22 20/20/20
f 21/21/21 13/13/13 22/22/22
f 23/23/23 20/20/20 22/22/22
f 13/13/13 24/24/24 22/22/22
f 24/24/24 13/13/13 14/14/14
f 22/22/22 25/25/25 23/23/23
f 24/24/24 25/25/25 22/22/22
f 26/26/26 23/23/23 25/25/25
f 14/14/14 27/27/27 24/24/24
f 25/25/25 24/24/24 27/27/27
f 27/27/27 14/14/14 15/15/15
f 15/15/15 28/28/28 27/27/27
f 25/25/25 29/29/29 26/26/26
f 30/30/30 26/26/26 29/29/29
f 25/25/25 27/27/27 31/31/31
f 25/25/25 31/31/31 29/29/29
f 31/31/31 27/27/27 28/28/28
f 29/29/29 32/32/32 30/30/30
f 29/29/29 31/31/31 32/32/32
f 31/31/31 28/28/28 33/33/33
f 31/31/31 33/33/33 32/32/32
f 28/28/28 34/34/34 33/33/33
f 34/34/34 28/28/28 35/35/35
f 37/37/37 36/36/36 35/35/35
f 34/34/34 35/35/35 36/36/36
f 36/36/36 38/38/38 34/34/34
f 33/33/33 34/34/34 38/38/38
f 39/39/39 33/33/33 38/38/38
f 33/33/33 39/39/39 32/32/32
f 40/40/40 32/32/32 39/39/39
f 32/32/32 40/40/40 41/41/41
f 41/41/41 30/30/30 32/32/32
f 42/42/42 41/41/41 40/40/40
f 30/30/30 41/41/41 43/43/43
f 43/43/43 41/41/41 42/42/42
f 42/42/42 44/44/44 43/43/43
f 47/47/47 46/46/46 45/45/45
f 48/48/48 45/45/45 46/46/46
f 48/48/48 46/46/46 49/49/49
f 48/48/48 50/50/50 45/45/45
f 51/51/51 48/48/48 49/49/49
f 50/50/50 48/48/48 51/51/51
f 49/49/49 52/52/52 51/51/51
f 52/52/52 53/53/53 51/51/51
f 54/54/54 50/50/50 51/51/51
f 50/50/50 54/54/54 55/55/55
f 56/56/56 51/51/51 53/53/53
f 54/54/54 57/57/57 55/55/55
f 55/55/55 57/57/57 58/58/58
f 59/59/59 54/54/54 51/51/51
f 59/59/59 51/51/51 56/56/56
f 59/59/59 60/60/60 54/54/54
f 57/57/57 54/54/54 60/60/60
f 61/61/61 59/59/59 56/56/56
f 59/59/59 61/61/61 60/60/60
f 56/56/56 53/53/53 62/62/62
f 63/63/63 62/62/62 53/53/53
f 62/62/62 64/64/64 56/56/56
f 61/61/61 56/56/56 64/64/64
f 65/65/65 62/62/62 63/63/63
f 64/64/64 62/62/62 65/65/65
f 63/63/63 66/66/66 65/65/65
f 64/64/64 67/67/67 61/61/61
f 68/68/68 61/61/61 67/67/67
f 61/61/61 68/68/68 60/60/60
f 67/67/67 69/69/69 68/68/68
f 68/68/68 70/70/70 60/60/60
f 70/70/70 68/68/68 69/69/69
f 60/60/60 70/70/70 57/57/57
f 70/70/70 69/69/69 71/71/71
f 72/72/72 57/57/57 70/70/70
f 70/70/70 71/71/71 72/72/72
f 57/57/57 72/72/72 58/58/58
f 69/69/69 73/73/73 71/71/71
f 58/58/58 72/72/72 74/74/74
f 75/75/75 72/72/72 71/71/71
f 72/72/72 75/75/75 74/74/74
f 76/76/76 71/71/71 73/73/73
f 71/71/71 77/77/77 75/75/75
f 75/75/75 77/77/77 74/74/74
f 77/77/77 71/71/71 76/76/76
f 78/78/78 76/76/76 73/73/73
f 73/73/73 79/79/79 78/78/78
f 78/78/78 80/80/80 76/76/76
f 80/80/80 77/77/77 76/76/76
f 78/78/78 79/79/79 81/81/81
f 81/81/81 80/80/80 78/78/78
f 82/82/82 81/81/81 79/79/79
f 80/80/80 83/83/83 77/77/77
f 83/83/83 84/84/84 77/77/77
f 84/84/84 85/85/85 77/77/77
f 85/85/85 74/74/74 77/77/77
f 84/84/84 86/86/86 85/85/85
f 87/87/87 74/74/74 85/85/85
f 85/85/85 86/86/86 87/87/87
f 88/88/88 87/87/87 86/86/86
f 91/91/91 90/90/90 89/89/89
f 92/92/92 89/89/89 90/90/90
f 93/93/93 90/90/90 91/91/91
f 90/90/90 94/94/94 92/92/92
f 95/95/95 92/92/92 94/94/94
f 94/94/94 96/96/96 95/95/95
f 97/97/97 96/96/96 94/94/94
f 97/97/97 94/94/94 98/98/98
f 98/98/98 94/94/94 99/99/99
f 90/90/90 93/93/93 100/100/100
f 90/90/90 100/100/100 94/94/94
f 101/101/101 100/100/100 93/93/93
f 100/100/100 101/101/101 102/102/102
f 102/102/102 103/103/103 100/100/100
f 100/100/100 103/103/103 104/104/104
f 105/105/105 99/99/99 94/94/94
f 105/105/105 94/94/94 100/100/100
f 104/104/104 105/105/105 100/100/100
f 106/106/106 99/99/99 105/105/105
f 106/106/106 105/105/105 104/104/104
f 109/109/109 108/108/108 107/107/107
f 107/107/107 110/110/110 109/109/109
f 107/107/107 108/108/108 111/111/111
f 107/107/107 112/112/112 110/110/110
f 112/112/112 113/113/113 110/110/110
f 112/112/112 114/114/114 113/113/113
f 114/114/114 112/112/112 115/115/115
f 116/116/116 115/115/115 112/112/112
f 116/116/116 112/112/112 117/117/117
f 111/111/111 118/118/118 107/107/107
f 107/107/107 118/118/118 112/112/112
f 119/119/119 118/118/118 111/111/111
f 119/119/119 120/120/120 118/118/118
f 121/121/121 117/117/117 112/112/112
f 121/121/121 122/122/122 117/117/117
f 123/123/123 122/122/122 121/121/121
f 124/124/124 112/112/112 118/118/118
f 124/124/124 121/121/121 112/112/112
f 118/118/118 120/120/120 124/124/124
f 123/123/123 121/121/121 124/124/124
f 125/125/125 124/124/124 120/120/120
f 124/124/124 125/125/125 123/123/123
