mtllib SM_Dish_01.mtl
g SM_Dish_01
#Vertices 454
#Indices 2100
#Section 0 Offset 0 NumIndices 2100 MaterialIndex 0 MI_Small_Props_01
v 0.157739 0.004051 -0.031376
v 0.133724 0.004051 -0.089352
v 0.148587 0.004051 -0.061546
v 0.160829 0.004051 0.000000
v 0.148587 0.004051 0.061547
v 0.157739 0.004051 0.031376
v 0.133724 0.004051 0.089352
v 0.061547 0.004051 -0.148586
v 0.113723 0.004051 -0.113723
v 0.089352 0.004051 -0.133724
v -0.113723 0.004051 0.113723
v -0.061547 0.004051 0.148587
v -0.089352 0.004051 0.133724
v -0.031376 0.004051 0.157739
v -0.133724 0.004051 0.089352
v -0.148587 0.004051 0.061547
v 0.061547 0.004051 0.148587
v 0.000000 0.004051 0.160829
v 0.031376 0.004051 0.157739
v 0.113723 0.004051 0.113723
v 0.089352 0.004051 0.133724
v -0.157739 0.004051 -0.031376
v -0.157739 0.004051 0.031376
v -0.160829 0.004051 -0.000000
v -0.031376 0.004051 -0.157739
v 0.031376 0.004051 -0.157739
v 0.000000 0.004051 -0.160829
v -0.089352 0.004051 -0.133724
v -0.061546 0.004051 -0.148587
v -0.113723 0.004051 -0.113723
v -0.148587 0.004051 -0.061547
v -0.133724 0.004051 -0.089352
v 0.155191 -0.000000 -0.030869
v 0.155191 0.000000 0.030869
v 0.158232 0.000000 0.000000
v 0.146187 -0.000000 -0.060552
v 0.111887 -0.000000 -0.111887
v 0.131565 -0.000000 -0.087909
v 0.087909 -0.000000 -0.131565
v 0.030870 -0.000000 -0.155191
v 0.060553 -0.000000 -0.146187
v 0.000000 -0.000000 -0.158232
v -0.087909 -0.000000 -0.131565
v -0.030869 -0.000000 -0.155191
v -0.060553 -0.000000 -0.146187
v -0.131565 -0.000000 -0.087909
v -0.111887 -0.000000 -0.111887
v -0.146187 -0.000000 -0.060553
v -0.155191 0.000000 0.030869
v -0.155191 -0.000000 -0.030870
v -0.158232 -0.000000 -0.000000
v -0.131565 0.000000 0.087909
v -0.146187 0.000000 0.060553
v -0.111887 0.000000 0.111887
v 0.131565 0.000000 0.087909
v 0.146187 0.000000 0.060553
v 0.087909 0.000000 0.131565
v 0.111887 0.000000 0.111887
v 0.060553 0.000000 0.146187
v -0.030869 0.000000 0.155191
v -0.087909 0.000000 0.131565
v -0.060553 0.000000 0.146187
v 0.030869 0.000000 0.155191
v 0.000000 0.000000 0.158232
v -0.148587 0.004051 0.061547
v -0.158352 0.005904 0.031459
v -0.157739 0.004051 0.031376
v -0.149172 0.005904 0.061748
v -0.160266 0.008507 0.031879
v -0.133724 0.004051 0.089352
v -0.150967 0.008507 0.062533
v -0.164014 0.009807 0.032624
v -0.134259 0.005904 0.089663
v -0.113723 0.004051 0.113723
v -0.154497 0.009807 0.063995
v -0.183234 0.014086 0.036448
v -0.135867 0.008507 0.090783
v -0.114187 0.005904 0.114133
v -0.172603 0.014086 0.071495
v -0.183948 0.012695 0.036590
v -0.173275 0.012695 0.071773
v -0.139044 0.009807 0.092906
v -0.155339 0.014086 0.103794
v -0.155944 0.012695 0.104198
v -0.132105 0.014086 0.132105
v -0.132619 0.012695 0.132619
v -0.104198 0.012695 0.155944
v -0.115545 0.008507 0.115545
v -0.118247 0.009807 0.118247
v -0.103794 0.014086 0.155339
v -0.071773 0.012695 0.173275
v -0.092906 0.009807 0.139044
v -0.071495 0.014086 0.172603
v -0.036590 0.012695 0.183948
v -0.090783 0.008507 0.135867
v -0.036448 0.014086 0.183234
v -0.063995 0.009807 0.154497
v 0.000000 0.012695 0.187552
v -0.089727 0.005904 0.134217
v -0.089352 0.004051 0.133724
v -0.062533 0.008507 0.150967
v -0.061818 0.005904 0.149143
v -0.061547 0.004051 0.148587
v -0.032624 0.009807 0.164014
v -0.031879 0.008507 0.160266
v -0.031534 0.005904 0.158337
v -0.031376 0.004051 0.157739
v 0.000000 0.009807 0.167227
v 0.000000 0.008507 0.163406
v -0.000038 0.005904 0.161447
v 0.000000 0.004051 0.160829
v 0.031376 0.004051 0.157739
v 0.031459 0.005904 0.158352
v 0.061547 0.004051 0.148587
v 0.031879 0.008507 0.160266
v 0.061748 0.005904 0.149172
v 0.089352 0.004051 0.133724
v 0.089663 0.005904 0.134259
v 0.113723 0.004051 0.113723
v 0.062533 0.008507 0.150967
v 0.032624 0.009807 0.164014
v 0.090783 0.008507 0.135867
v 0.063995 0.009807 0.154497
v 0.114133 0.005904 0.114187
v 0.134217 0.005904 0.089727
v 0.133724 0.004051 0.089352
v 0.115545 0.008507 0.115545
v 0.092906 0.009807 0.139044
v 0.071495 0.014086 0.172603
v 0.036448 0.014086 0.183234
v 0.000000 0.014086 0.186824
v 0.036590 0.012695 0.183948
v 0.071773 0.012695 0.173275
v 0.103794 0.014086 0.155339
v 0.104198 0.012695 0.155944
v 0.132105 0.014086 0.132105
v 0.132619 0.012695 0.132619
v 0.155944 0.012695 0.104198
v 0.118247 0.009807 0.118247
v 0.155339 0.014086 0.103794
v 0.173275 0.012695 0.071773
v 0.139044 0.009807 0.092906
v 0.172603 0.014086 0.071495
v 0.183948 0.012695 0.036590
v 0.135867 0.008507 0.090783
v 0.154497 0.009807 0.063995
v 0.183234 0.014086 0.036448
v 0.187552 0.012695 -0.000000
v 0.150967 0.008507 0.062533
v 0.164014 0.009807 0.032624
v 0.186824 0.014086 -0.000000
v 0.183235 0.014086 -0.036447
v 0.183948 0.012695 -0.036589
v 0.167227 0.009807 0.000000
v 0.160266 0.008507 0.031879
v 0.149143 0.005904 0.061818
v 0.148587 0.004051 0.061547
v 0.158337 0.005904 0.031534
v 0.157739 0.004051 0.031376
v 0.163406 0.008507 0.000000
v 0.161447 0.005904 0.000038
v 0.160829 0.004051 0.000000
v 0.157739 0.004051 -0.031376
v 0.158352 0.005904 -0.031459
v 0.148587 0.004051 -0.061546
v 0.164014 0.009807 -0.032624
v 0.160266 0.008507 -0.031879
v 0.149172 0.005904 -0.061747
v 0.133724 0.004051 -0.089352
v 0.150967 0.008507 -0.062532
v 0.134259 0.005904 -0.089663
v 0.113723 0.004051 -0.113723
v 0.154497 0.009807 -0.063995
v 0.114187 0.005904 -0.114133
v 0.172603 0.014086 -0.071494
v 0.173276 0.012695 -0.071773
v 0.155339 0.014086 -0.103794
v 0.155944 0.012695 -0.104198
v 0.139044 0.009807 -0.092906
v 0.132105 0.014086 -0.132104
v 0.132619 0.012695 -0.132619
v 0.104198 0.012695 -0.155944
v 0.135867 0.008507 -0.090783
v 0.118247 0.009807 -0.118247
v 0.115545 0.008507 -0.115545
v 0.103794 0.014086 -0.155339
v 0.071773 0.012695 -0.173275
v 0.092906 0.009807 -0.139044
v 0.071495 0.014086 -0.172603
v 0.036590 0.012695 -0.183948
v 0.090784 0.008507 -0.135867
v 0.063995 0.009807 -0.154497
v 0.036448 0.014086 -0.183234
v 0.000000 0.012695 -0.187552
v 0.089727 0.005904 -0.134217
v 0.089352 0.004051 -0.133724
v 0.062533 0.008507 -0.150967
v 0.061819 0.005904 -0.149143
v 0.061547 0.004051 -0.148586
v 0.031879 0.008507 -0.160266
v 0.031534 0.005904 -0.158337
v 0.031376 0.004051 -0.157739
v 0.032624 0.009807 -0.164013
v 0.000038 0.005904 -0.161447
v 0.000000 0.004051 -0.160829
v -0.031376 0.004051 -0.157739
v 0.000000 0.009807 -0.167227
v -0.031459 0.005904 -0.158352
v -0.061546 0.004051 -0.148587
v 0.000000 0.008507 -0.163406
v -0.061748 0.005904 -0.149172
v -0.089352 0.004051 -0.133724
v -0.031879 0.008507 -0.160266
v -0.032624 0.009807 -0.164014
v 0.000000 0.014086 -0.186824
v -0.036447 0.014086 -0.183234
v -0.036589 0.012695 -0.183948
v -0.062533 0.008507 -0.150967
v -0.063995 0.009807 -0.154497
v -0.071494 0.014086 -0.172603
v -0.071773 0.012695 -0.173275
v -0.103794 0.014086 -0.155339
v -0.104198 0.012695 -0.155944
v -0.092906 0.009807 -0.139044
v -0.132105 0.014086 -0.132105
v -0.132619 0.012695 -0.132619
v -0.155944 0.012695 -0.104198
v -0.118247 0.009807 -0.118247
v -0.155339 0.014086 -0.103794
v -0.173275 0.012695 -0.071773
v -0.090783 0.008507 -0.135867
v -0.172603 0.014086 -0.071495
v -0.183948 0.012695 -0.036590
v -0.139044 0.009807 -0.092906
v -0.183234 0.014086 -0.036448
v -0.187552 0.012695 -0.000000
v -0.154497 0.009807 -0.063995
v -0.183234 0.014086 0.036448
v -0.183948 0.012695 0.036590
v -0.186824 0.014086 -0.000000
v -0.164014 0.009807 0.032624
v -0.167227 0.009807 -0.000000
v -0.164014 0.009807 -0.032624
v -0.163406 0.008507 -0.000000
v -0.160266 0.008507 0.031879
v -0.158352 0.005904 0.031459
v -0.160266 0.008507 -0.031879
v -0.161447 0.005904 -0.000038
v -0.157739 0.004051 0.031376
v -0.160829 0.004051 -0.000000
v -0.157739 0.004051 -0.031376
v -0.158337 0.005904 -0.031534
v -0.148587 0.004051 -0.061547
v -0.149143 0.005904 -0.061818
v -0.133724 0.004051 -0.089352
v -0.150967 0.008507 -0.062533
v -0.134217 0.005904 -0.089727
v -0.113723 0.004051 -0.113723
v -0.135867 0.008507 -0.090783
v -0.115545 0.008507 -0.115545
v -0.114133 0.005904 -0.114187
v -0.089663 0.005904 -0.134259
v -0.131565 0.000000 0.087909
v -0.117244 0.000839 0.117244
v -0.111887 0.000000 0.111887
v -0.087909 0.000000 0.131565
v -0.137864 0.000839 0.092118
v -0.146187 0.000000 0.060553
v -0.092118 0.000839 0.137864
v -0.060553 0.000000 0.146187
v -0.118616 0.002861 0.118616
v -0.153186 0.000839 0.063452
v -0.063452 0.000839 0.153186
v -0.139478 0.002861 0.093196
v -0.162622 0.000839 0.032347
v -0.155191 0.000000 0.030869
v -0.158232 -0.000000 -0.000000
v -0.154980 0.002861 0.064195
v -0.165807 0.000839 -0.000000
v -0.164526 0.002861 0.032726
v -0.162622 0.000839 -0.032347
v -0.155191 -0.000000 -0.030870
v -0.167749 0.002861 -0.000000
v -0.153186 0.000839 -0.063452
v -0.146187 -0.000000 -0.060553
v -0.164526 0.002861 -0.032726
v -0.170465 0.004598 -0.000000
v -0.137864 0.000839 -0.092118
v -0.131565 -0.000000 -0.087909
v -0.154980 0.002861 -0.064195
v -0.117244 0.000839 -0.117244
v -0.111887 -0.000000 -0.111887
v -0.139478 0.002861 -0.093196
v -0.157489 0.004598 -0.065234
v -0.092118 0.000839 -0.137864
v -0.087909 -0.000000 -0.131565
v -0.060553 -0.000000 -0.146187
v -0.118616 0.002861 -0.118616
v -0.141736 0.004598 -0.094705
v -0.167189 0.004598 -0.033256
v -0.155339 0.010514 -0.103794
v -0.172603 0.010514 -0.071495
v -0.183234 0.010514 -0.036448
v -0.120537 0.004598 -0.120537
v -0.173275 0.012695 -0.071773
v -0.183948 0.012695 -0.036590
v -0.155944 0.012695 -0.104198
v -0.187552 0.012695 -0.000000
v -0.132105 0.010514 -0.132105
v -0.132619 0.012695 -0.132619
v -0.104198 0.012695 -0.155944
v -0.186824 0.010514 -0.000000
v -0.103794 0.010514 -0.155339
v -0.071773 0.012695 -0.173275
v -0.094705 0.004598 -0.141736
v -0.071494 0.010514 -0.172603
v -0.036589 0.012695 -0.183948
v -0.065234 0.004598 -0.157489
v -0.093196 0.002861 -0.139478
v -0.036447 0.010514 -0.183234
v 0.000000 0.012695 -0.187552
v -0.064195 0.002861 -0.154980
v 0.000000 0.010514 -0.186824
v -0.063452 0.000839 -0.153186
v -0.033256 0.004598 -0.167189
v -0.032726 0.002861 -0.164526
v -0.032347 0.000839 -0.162622
v -0.030869 -0.000000 -0.155191
v 0.000000 -0.000000 -0.158232
v 0.000000 0.000839 -0.165807
v 0.000000 0.002861 -0.167749
v 0.032348 0.000839 -0.162621
v 0.030870 -0.000000 -0.155191
v 0.000000 0.004598 -0.170465
v 0.032726 0.002861 -0.164525
v 0.036448 0.010514 -0.183234
v 0.033256 0.004598 -0.167189
v 0.036590 0.012695 -0.183948
v 0.064195 0.002861 -0.154980
v 0.071495 0.010514 -0.172603
v 0.071773 0.012695 -0.173275
v 0.065234 0.004598 -0.157489
v 0.103794 0.010514 -0.155339
v 0.104198 0.012695 -0.155944
v 0.094705 0.004598 -0.141736
v 0.132105 0.010514 -0.132104
v 0.132619 0.012695 -0.132619
v 0.155944 0.012695 -0.104198
v 0.093196 0.002861 -0.139478
v 0.120537 0.004598 -0.120537
v 0.155339 0.010514 -0.103794
v 0.173276 0.012695 -0.071773
v 0.141737 0.004598 -0.094705
v 0.172603 0.010514 -0.071494
v 0.183948 0.012695 -0.036589
v 0.139478 0.002861 -0.093196
v 0.183235 0.010514 -0.036447
v 0.187552 0.012695 -0.000000
v 0.157489 0.004598 -0.065234
v 0.167190 0.004598 -0.033256
v 0.186824 0.010514 -0.000000
v 0.154980 0.002861 -0.064194
v 0.183234 0.010514 0.036448
v 0.183948 0.012695 0.036590
v 0.170465 0.004598 0.000000
v 0.172603 0.010514 0.071495
v 0.173275 0.012695 0.071773
v 0.167189 0.004598 0.033256
v 0.155339 0.010514 0.103794
v 0.155944 0.012695 0.104198
v 0.157489 0.004598 0.065234
v 0.132105 0.010514 0.132105
v 0.132619 0.012695 0.132619
v 0.141736 0.004598 0.094705
v 0.104198 0.012695 0.155944
v 0.164526 0.002861 0.032726
v 0.103794 0.010514 0.155339
v 0.071773 0.012695 0.173275
v 0.167749 0.002861 0.000000
v 0.071495 0.010514 0.172603
v 0.036590 0.012695 0.183948
v 0.094705 0.004598 0.141736
v 0.120537 0.004598 0.120537
v 0.036448 0.010514 0.183234
v 0.000000 0.012695 0.187552
v 0.118616 0.002861 0.118616
v 0.000000 0.010514 0.186824
v 0.139478 0.002861 0.093196
v -0.036448 0.010514 0.183234
v -0.036590 0.012695 0.183948
v 0.154980 0.002861 0.064195
v -0.071495 0.010514 0.172603
v -0.071773 0.012695 0.173275
v 0.162622 0.000839 0.032347
v -0.103794 0.010514 0.155339
v -0.104198 0.012695 0.155944
v 0.153186 0.000839 0.063452
v -0.132105 0.010514 0.132105
v -0.132619 0.012695 0.132619
v -0.155944 0.012695 0.104198
v 0.137864 0.000839 0.092118
v 0.146187 0.000000 0.060553
v 0.155191 0.000000 0.030869
v 0.131565 0.000000 0.087909
v 0.158232 0.000000 0.000000
v 0.117244 0.000839 0.117244
v 0.111887 0.000000 0.111887
v 0.087909 0.000000 0.131565
v 0.092118 0.000839 0.137864
v 0.060553 0.000000 0.146187
v 0.093196 0.002861 0.139478
v 0.063452 0.000839 0.153186
v 0.065234 0.004598 0.157489
v 0.064195 0.002861 0.154980
v 0.032347 0.000839 0.162622
v 0.030869 0.000000 0.155191
v 0.000000 0.000000 0.158232
v 0.032726 0.002861 0.164526
v 0.033256 0.004598 0.167190
v 0.000000 0.004598 0.170465
v 0.000000 0.000839 0.165808
v 0.000000 0.002861 0.167749
v -0.033256 0.004598 0.167190
v -0.032726 0.002861 0.164526
v -0.065234 0.004598 0.157489
v -0.032347 0.000839 0.162622
v -0.030869 0.000000 0.155191
v -0.064195 0.002861 0.154980
v -0.093196 0.002861 0.139478
v -0.094705 0.004598 0.141736
v -0.120537 0.004598 0.120537
v -0.141736 0.004598 0.094705
v -0.155339 0.010514 0.103794
v -0.173275 0.012695 0.071773
v -0.157489 0.004598 0.065234
v -0.172603 0.010514 0.071495
v -0.183948 0.012695 0.036590
v -0.183234 0.010514 0.036448
v -0.167189 0.004598 0.033256
v 0.165807 0.000839 0.000000
v 0.164526 0.002861 -0.032726
v 0.162622 0.000839 -0.032347
v 0.155191 -0.000000 -0.030869
v 0.153186 0.000839 -0.063452
v 0.146187 -0.000000 -0.060552
v 0.137864 0.000839 -0.092118
v 0.131565 -0.000000 -0.087909
v 0.117244 0.000839 -0.117243
v 0.111887 -0.000000 -0.111887
v 0.087909 -0.000000 -0.131565
v 0.118616 0.002861 -0.118616
v 0.092118 0.000839 -0.137864
v 0.063452 0.000839 -0.153186
v 0.060553 -0.000000 -0.146187
vt 0.472168 0.195312
vt 0.457764 0.161133
vt 0.466553 0.177246
vt 0.473877 0.213867
vt 0.466553 0.250000
vt 0.472168 0.232422
vt 0.457764 0.266602
vt 0.415283 0.125977
vt 0.446045 0.146484
vt 0.431641 0.134766
vt 0.311523 0.281250
vt 0.342529 0.301758
vt 0.325928 0.292969
vt 0.360352 0.307129
vt 0.299805 0.266602
vt 0.291016 0.250000
vt 0.415283 0.301758
vt 0.378906 0.309082
vt 0.397461 0.307129
vt 0.446045 0.281250
vt 0.431641 0.292969
vt 0.285645 0.195312
vt 0.285645 0.232422
vt 0.283691 0.213867
vt 0.360352 0.120605
vt 0.397461 0.120605
vt 0.378906 0.118652
vt 0.325928 0.134766
vt 0.342529 0.125977
vt 0.311523 0.146484
vt 0.291016 0.177246
vt 0.299805 0.161133
vt 0.482178 0.437012
vt 0.482178 0.400391
vt 0.483887 0.418457
vt 0.476807 0.454590
vt 0.456543 0.484863
vt 0.468262 0.470703
vt 0.442383 0.496582
vt 0.408691 0.510254
vt 0.426270 0.504883
vt 0.390381 0.511963
vt 0.338623 0.496582
vt 0.372314 0.510254
vt 0.354736 0.504883
vt 0.312744 0.470703
vt 0.324463 0.484863
vt 0.304199 0.454590
vt 0.298828 0.400391
vt 0.298828 0.437012
vt 0.296875 0.418457
vt 0.312744 0.366699
vt 0.304199 0.382812
vt 0.324463 0.352539
vt 0.468262 0.366699
vt 0.476807 0.382812
vt 0.442383 0.340820
vt 0.456543 0.352539
vt 0.426270 0.332031
vt 0.372314 0.327148
vt 0.338623 0.340820
vt 0.354736 0.332031
vt 0.408691 0.327148
vt 0.390381 0.325195
vt 0.654785 0.042480
vt 0.673340 0.041992
vt 0.673340 0.042969
vt 0.654785 0.041504
vt 0.673828 0.041016
vt 0.635254 0.042480
vt 0.655273 0.040527
vt 0.674805 0.039551
vt 0.635254 0.041504
vt 0.615723 0.042480
vt 0.655762 0.038574
vt 0.678223 0.028809
vt 0.635742 0.040527
vt 0.615723 0.041504
vt 0.657227 0.027344
vt 0.678223 0.028320
vt 0.657227 0.026367
vt 0.636230 0.038574
vt 0.636719 0.027344
vt 0.636719 0.026367
vt 0.616211 0.027344
vt 0.616211 0.026855
vt 0.596191 0.026855
vt 0.616211 0.040527
vt 0.616211 0.038574
vt 0.596191 0.027344
vt 0.576172 0.026855
vt 0.596191 0.038574
vt 0.576172 0.027344
vt 0.555664 0.026855
vt 0.596191 0.040527
vt 0.555664 0.027344
vt 0.576172 0.038574
vt 0.535645 0.026855
vt 0.596191 0.041504
vt 0.595703 0.042480
vt 0.576172 0.040527
vt 0.576172 0.041504
vt 0.575684 0.042480
vt 0.555664 0.038574
vt 0.555664 0.040527
vt 0.555664 0.041504
vt 0.555664 0.042480
vt 0.535645 0.038574
vt 0.535645 0.040527
vt 0.535645 0.041504
vt 0.535645 0.042480
vt 0.515137 0.042480
vt 0.515625 0.041504
vt 0.495361 0.042480
vt 0.515137 0.040527
vt 0.495361 0.041504
vt 0.475098 0.042480
vt 0.475098 0.041504
vt 0.454834 0.042480
vt 0.495361 0.040527
vt 0.515625 0.038574
vt 0.475098 0.040527
vt 0.495361 0.038574
vt 0.454834 0.041504
vt 0.434570 0.041504
vt 0.434570 0.042480
vt 0.454834 0.040527
vt 0.475098 0.038574
vt 0.495361 0.027344
vt 0.515625 0.027344
vt 0.535645 0.027344
vt 0.515625 0.026855
vt 0.495361 0.026855
vt 0.475098 0.027344
vt 0.475098 0.026855
vt 0.454834 0.027344
vt 0.454834 0.026855
vt 0.434570 0.026855
vt 0.454834 0.038574
vt 0.434570 0.027344
vt 0.414307 0.026855
vt 0.434570 0.038574
vt 0.414307 0.027344
vt 0.394043 0.026855
vt 0.434570 0.040527
vt 0.414307 0.038574
vt 0.394043 0.027344
vt 0.374023 0.026855
vt 0.414307 0.040527
vt 0.394043 0.038574
vt 0.374023 0.027344
vt 0.353760 0.027344
vt 0.353760 0.026855
vt 0.374023 0.038574
vt 0.394043 0.040527
vt 0.414307 0.041504
vt 0.414307 0.042480
vt 0.394287 0.041504
vt 0.394043 0.042480
vt 0.374023 0.040527
vt 0.374023 0.041504
vt 0.374023 0.042480
vt 0.353760 0.042480
vt 0.353760 0.041504
vt 0.333496 0.042480
vt 0.353760 0.038574
vt 0.353760 0.040527
vt 0.333496 0.041504
vt 0.313232 0.042480
vt 0.333496 0.040527
vt 0.313232 0.041504
vt 0.292969 0.042480
vt 0.333496 0.038574
vt 0.292969 0.041504
vt 0.333496 0.027344
vt 0.333496 0.026855
vt 0.313232 0.027344
vt 0.313232 0.026855
vt 0.313232 0.038574
vt 0.292969 0.027344
vt 0.292969 0.026855
vt 0.272705 0.026855
vt 0.313232 0.040527
vt 0.292969 0.038574
vt 0.292969 0.040527
vt 0.272705 0.027344
vt 0.252686 0.026855
vt 0.272705 0.038574
vt 0.252686 0.027344
vt 0.232422 0.026855
vt 0.272705 0.040527
vt 0.252686 0.038574
vt 0.232422 0.027344
vt 0.212158 0.026855
vt 0.272705 0.041504
vt 0.272705 0.042480
vt 0.252686 0.040527
vt 0.252686 0.041504
vt 0.252686 0.042480
vt 0.232422 0.040527
vt 0.232422 0.041504
vt 0.232422 0.042480
vt 0.232422 0.038574
vt 0.212158 0.041504
vt 0.212158 0.042480
vt 0.192017 0.042480
vt 0.212158 0.038574
vt 0.192017 0.041504
vt 0.171753 0.042480
vt 0.212158 0.040527
vt 0.171753 0.041504
vt 0.151611 0.042480
vt 0.192017 0.040527
vt 0.192017 0.038574
vt 0.212158 0.027344
vt 0.192017 0.027344
vt 0.192017 0.026855
vt 0.171753 0.040527
vt 0.171753 0.038574
vt 0.171753 0.027344
vt 0.171753 0.026855
vt 0.151611 0.027344
vt 0.151611 0.026855
vt 0.151611 0.038574
vt 0.131348 0.027344
vt 0.131348 0.026855
vt 0.111267 0.026855
vt 0.131470 0.038574
vt 0.111328 0.027344
vt 0.091125 0.026855
vt 0.151611 0.040527
vt 0.091187 0.027344
vt 0.070801 0.026855
vt 0.111389 0.038574
vt 0.070984 0.027344
vt 0.050262 0.026367
vt 0.091370 0.038574
vt 0.029678 0.028809
vt 0.029236 0.028320
vt 0.050568 0.027344
vt 0.032654 0.039551
vt 0.051880 0.038574
vt 0.071533 0.038574
vt 0.052582 0.040527
vt 0.033722 0.041016
vt 0.034332 0.041992
vt 0.071899 0.040527
vt 0.053009 0.041504
vt 0.034485 0.042969
vt 0.053101 0.042480
vt 0.072205 0.042480
vt 0.072144 0.041504
vt 0.091736 0.042480
vt 0.091736 0.041504
vt 0.111572 0.042480
vt 0.091553 0.040527
vt 0.111572 0.041504
vt 0.131470 0.042480
vt 0.111450 0.040527
vt 0.131470 0.040527
vt 0.131470 0.041504
vt 0.151611 0.041504
vt 0.922363 0.318848
vt 0.927734 0.337402
vt 0.922852 0.336914
vt 0.919922 0.354980
vt 0.926758 0.318359
vt 0.917969 0.301270
vt 0.924316 0.356445
vt 0.913574 0.372070
vt 0.929199 0.337402
vt 0.922363 0.299805
vt 0.917969 0.374512
vt 0.928223 0.317871
vt 0.914551 0.282227
vt 0.910645 0.284668
vt 0.899902 0.269531
vt 0.923828 0.299316
vt 0.903320 0.266602
vt 0.916016 0.281250
vt 0.889160 0.253906
vt 0.886230 0.257324
vt 0.904297 0.265625
vt 0.873047 0.243652
vt 0.871094 0.247559
vt 0.890137 0.252441
vt 0.905762 0.264648
vt 0.854980 0.236816
vt 0.854004 0.241211
vt 0.873535 0.242188
vt 0.835938 0.233887
vt 0.835938 0.238281
vt 0.855469 0.235352
vt 0.874512 0.240723
vt 0.816895 0.234863
vt 0.817383 0.239258
vt 0.799805 0.243164
vt 0.835938 0.232422
vt 0.855957 0.233887
vt 0.891113 0.250977
vt 0.858398 0.224121
vt 0.878906 0.231934
vt 0.896973 0.243164
vt 0.836426 0.230469
vt 0.878906 0.230957
vt 0.897949 0.242188
vt 0.858398 0.223145
vt 0.914062 0.257324
vt 0.836914 0.220703
vt 0.836914 0.219727
vt 0.814941 0.220703
vt 0.913086 0.257812
vt 0.814941 0.221680
vt 0.793457 0.225586
vt 0.816406 0.231445
vt 0.793945 0.226562
vt 0.773926 0.234863
vt 0.797363 0.235840
vt 0.816895 0.232910
vt 0.774414 0.235352
vt 0.755859 0.247559
vt 0.797852 0.237793
vt 0.756348 0.248535
vt 0.798340 0.239258
vt 0.779297 0.244141
vt 0.780273 0.245605
vt 0.780762 0.247070
vt 0.783203 0.250977
vt 0.768555 0.261719
vt 0.765137 0.258301
vt 0.764160 0.256836
vt 0.752441 0.272461
vt 0.755859 0.274902
vt 0.763184 0.255859
vt 0.750977 0.271484
vt 0.741699 0.264160
vt 0.749512 0.270020
vt 0.741211 0.263672
vt 0.740723 0.288086
vt 0.730469 0.282715
vt 0.729492 0.282227
vt 0.739258 0.287109
vt 0.722656 0.303223
vt 0.721680 0.302734
vt 0.732422 0.305664
vt 0.719238 0.324707
vt 0.718262 0.324707
vt 0.719238 0.346680
vt 0.733887 0.306152
vt 0.729004 0.325195
vt 0.720215 0.346191
vt 0.724121 0.367676
vt 0.729980 0.345215
vt 0.725098 0.367676
vt 0.733398 0.387695
vt 0.731934 0.344727
vt 0.734375 0.387207
vt 0.746094 0.405273
vt 0.734375 0.364258
vt 0.742676 0.382324
vt 0.747070 0.404785
vt 0.736328 0.363770
vt 0.762695 0.419434
vt 0.762207 0.420410
vt 0.754395 0.398438
vt 0.781250 0.431152
vt 0.780762 0.432129
vt 0.769043 0.411621
vt 0.801758 0.438477
vt 0.801270 0.439453
vt 0.785645 0.422363
vt 0.823242 0.441895
vt 0.823242 0.442871
vt 0.804199 0.429199
vt 0.845215 0.442383
vt 0.770020 0.410156
vt 0.844727 0.441406
vt 0.866211 0.437012
vt 0.755859 0.396973
vt 0.866211 0.436523
vt 0.886230 0.428223
vt 0.843750 0.431641
vt 0.823730 0.432129
vt 0.885742 0.427246
vt 0.904297 0.415039
vt 0.823730 0.430664
vt 0.903320 0.414551
vt 0.804688 0.427246
vt 0.918457 0.398438
vt 0.918945 0.398926
vt 0.786621 0.420410
vt 0.929688 0.379883
vt 0.930664 0.380371
vt 0.770996 0.409180
vt 0.937012 0.359863
vt 0.937988 0.359863
vt 0.787109 0.418945
vt 0.940918 0.338379
vt 0.941895 0.338379
vt 0.940918 0.316406
vt 0.805176 0.425781
vt 0.789062 0.415039
vt 0.773438 0.405762
vt 0.806152 0.421387
vt 0.760254 0.393066
vt 0.824219 0.428711
vt 0.824219 0.424316
vt 0.842773 0.423828
vt 0.843262 0.428223
vt 0.860352 0.419434
vt 0.843262 0.429688
vt 0.861816 0.423828
vt 0.862793 0.426758
vt 0.862305 0.425293
vt 0.879395 0.416016
vt 0.876953 0.412109
vt 0.891602 0.401367
vt 0.879883 0.416992
vt 0.880859 0.418945
vt 0.896973 0.407227
vt 0.894531 0.404785
vt 0.895508 0.405762
vt 0.910645 0.392578
vt 0.909180 0.391602
vt 0.920898 0.375977
vt 0.907715 0.390625
vt 0.904297 0.387695
vt 0.919434 0.375000
vt 0.925781 0.356934
vt 0.927734 0.357422
vt 0.930664 0.337402
vt 0.930176 0.317871
vt 0.939941 0.316406
vt 0.936035 0.294922
vt 0.925781 0.298340
vt 0.935059 0.295410
vt 0.926758 0.274902
vt 0.925781 0.275391
vt 0.917480 0.280762
vt 0.756836 0.395996
vt 0.744141 0.381348
vt 0.745605 0.380371
vt 0.749512 0.378418
vt 0.737793 0.363281
vt 0.741699 0.361816
vt 0.733398 0.344727
vt 0.737793 0.343750
vt 0.732422 0.325195
vt 0.736816 0.325684
vt 0.739746 0.307617
vt 0.730957 0.325195
vt 0.735352 0.306641
vt 0.742188 0.288574
vt 0.746094 0.290527
vt1 0.682129 0.729492
vt1 0.734863 0.734619
vt1 0.708496 0.734619
vt1 0.657715 0.719482
vt1 0.616699 0.685791
vt1 0.635254 0.704590
vt1 0.601562 0.663818
vt1 0.807617 0.704346
vt1 0.761230 0.729248
vt1 0.785645 0.718994
vt1 0.681641 0.469727
vt1 0.635254 0.494629
vt1 0.657227 0.479980
vt1 0.616211 0.513428
vt1 0.708008 0.464355
vt1 0.734375 0.464355
vt1 0.586426 0.586426
vt1 0.601562 0.535645
vt1 0.591309 0.560303
vt1 0.591309 0.639160
vt1 0.586426 0.613037
vt1 0.807129 0.494629
vt1 0.760742 0.469727
vt1 0.785156 0.479492
vt1 0.851562 0.638672
vt1 0.826660 0.685303
vt1 0.841309 0.663330
vt1 0.856445 0.585938
vt1 0.856445 0.612549
vt1 0.851074 0.559814
vt1 0.826172 0.513184
vt1 0.840820 0.535156
vt1 0.302246 0.661865
vt1 0.262451 0.640869
vt1 0.283447 0.649414
vt1 0.318359 0.677979
vt1 0.339600 0.717529
vt1 0.330811 0.696533
vt1 0.343994 0.739746
vt1 0.339600 0.784302
vt1 0.343994 0.762207
vt1 0.331055 0.805176
vt1 0.283936 0.852539
vt1 0.318604 0.823975
vt1 0.302734 0.839966
vt1 0.240967 0.865723
vt1 0.262939 0.861328
vt1 0.218384 0.865723
vt1 0.156494 0.840332
vt1 0.196289 0.861450
vt1 0.175293 0.852783
vt1 0.127930 0.805664
vt1 0.140503 0.824341
vt1 0.119324 0.784790
vt1 0.217896 0.636475
vt1 0.240479 0.636475
vt1 0.174927 0.649658
vt1 0.195801 0.641113
vt1 0.156128 0.662354
vt1 0.119141 0.718018
vt1 0.114868 0.762695
vt1 0.114807 0.740234
vt1 0.140259 0.678223
vt1 0.127686 0.697021
vt1 0.870117 0.116211
vt1 0.893555 0.115234
vt1 0.893066 0.116211
vt1 0.870605 0.115234
vt1 0.894043 0.114258
vt1 0.846680 0.116211
vt1 0.871094 0.113281
vt1 0.895508 0.112793
vt1 0.846680 0.115234
vt1 0.822754 0.116211
vt1 0.872070 0.110840
vt1 0.899414 0.099609
vt1 0.847168 0.113281
vt1 0.822754 0.115234
vt1 0.873535 0.097168
vt1 0.899902 0.098145
vt1 0.874023 0.096680
vt1 0.847656 0.110840
vt1 0.848145 0.097168
vt1 0.848633 0.096680
vt1 0.823242 0.097656
vt1 0.823242 0.096680
vt1 0.798340 0.096680
vt1 0.822754 0.113281
vt1 0.823242 0.111328
vt1 0.798340 0.097656
vt1 0.773438 0.096680
vt1 0.798340 0.111328
vt1 0.773438 0.097656
vt1 0.748535 0.096680
vt1 0.798340 0.113770
vt1 0.748535 0.097656
vt1 0.773438 0.111328
vt1 0.723633 0.096680
vt1 0.798340 0.115234
vt1 0.798340 0.116211
vt1 0.773438 0.113770
vt1 0.773438 0.115234
vt1 0.773438 0.116211
vt1 0.748535 0.111328
vt1 0.748535 0.113770
vt1 0.748535 0.115234
vt1 0.748535 0.116211
vt1 0.723633 0.111328
vt1 0.723633 0.113770
vt1 0.723633 0.115234
vt1 0.723633 0.116211
vt1 0.698730 0.116211
vt1 0.698730 0.115234
vt1 0.673828 0.116211
vt1 0.698730 0.113770
vt1 0.673828 0.115234
vt1 0.648926 0.116211
vt1 0.648926 0.115234
vt1 0.624023 0.116211
vt1 0.673828 0.113770
vt1 0.698730 0.111328
vt1 0.648926 0.113770
vt1 0.673828 0.111328
vt1 0.624023 0.115234
vt1 0.599121 0.115234
vt1 0.599121 0.116211
vt1 0.624023 0.113770
vt1 0.648926 0.111328
vt1 0.673828 0.097656
vt1 0.698730 0.097656
vt1 0.723633 0.097656
vt1 0.698730 0.096680
vt1 0.673828 0.096680
vt1 0.648926 0.097656
vt1 0.648926 0.096680
vt1 0.624023 0.097656
vt1 0.624023 0.096680
vt1 0.599121 0.096680
vt1 0.624023 0.111328
vt1 0.599121 0.097656
vt1 0.574219 0.096680
vt1 0.599121 0.111328
vt1 0.574219 0.097656
vt1 0.549316 0.096680
vt1 0.599121 0.113770
vt1 0.574219 0.111328
vt1 0.549316 0.097656
vt1 0.524414 0.096680
vt1 0.574219 0.113770
vt1 0.549316 0.111328
vt1 0.524414 0.097656
vt1 0.499756 0.097656
vt1 0.499756 0.096680
vt1 0.524414 0.111328
vt1 0.549316 0.113770
vt1 0.574219 0.115234
vt1 0.574219 0.116211
vt1 0.549316 0.115234
vt1 0.549316 0.116211
vt1 0.524414 0.113770
vt1 0.524414 0.115234
vt1 0.524414 0.116211
vt1 0.499756 0.116211
vt1 0.499756 0.115234
vt1 0.474854 0.116211
vt1 0.499756 0.111328
vt1 0.499756 0.113770
vt1 0.474854 0.115234
vt1 0.449951 0.116211
vt1 0.474854 0.113770
vt1 0.449951 0.115234
vt1 0.425049 0.116211
vt1 0.474854 0.111328
vt1 0.425049 0.115234
vt1 0.474854 0.097656
vt1 0.474854 0.096680
vt1 0.449951 0.097656
vt1 0.449951 0.096680
vt1 0.449951 0.111328
vt1 0.425049 0.097656
vt1 0.425049 0.096680
vt1 0.400146 0.096680
vt1 0.449951 0.113770
vt1 0.425049 0.111328
vt1 0.425049 0.113770
vt1 0.400146 0.097656
vt1 0.375244 0.096680
vt1 0.400146 0.111328
vt1 0.375244 0.097656
vt1 0.350098 0.096680
vt1 0.400146 0.113770
vt1 0.375244 0.111328
vt1 0.350098 0.097656
vt1 0.325195 0.096680
vt1 0.400146 0.115234
vt1 0.400146 0.116211
vt1 0.375244 0.113770
vt1 0.375244 0.115234
vt1 0.375244 0.116211
vt1 0.350098 0.113770
vt1 0.350342 0.115234
vt1 0.350098 0.116211
vt1 0.350098 0.111328
vt1 0.325439 0.115234
vt1 0.325195 0.116211
vt1 0.300293 0.116211
vt1 0.325195 0.111328
vt1 0.300537 0.115234
vt1 0.275635 0.116211
vt1 0.325195 0.113770
vt1 0.275635 0.115234
vt1 0.250732 0.116211
vt1 0.300293 0.113770
vt1 0.300293 0.111328
vt1 0.325195 0.097656
vt1 0.300293 0.097656
vt1 0.300293 0.096680
vt1 0.275635 0.113770
vt1 0.275635 0.111328
vt1 0.275391 0.097656
vt1 0.275391 0.096680
vt1 0.250732 0.097656
vt1 0.250732 0.096680
vt1 0.250732 0.111328
vt1 0.225830 0.097656
vt1 0.225830 0.096680
vt1 0.201050 0.096680
vt1 0.225952 0.111328
vt1 0.201050 0.097656
vt1 0.176147 0.096680
vt1 0.250732 0.113770
vt1 0.176270 0.097656
vt1 0.151245 0.096680
vt1 0.201172 0.111328
vt1 0.151367 0.097168
vt1 0.125854 0.096680
vt1 0.176514 0.111328
vt1 0.100525 0.099609
vt1 0.099976 0.098145
vt1 0.126221 0.097168
vt1 0.104187 0.112793
vt1 0.127808 0.110840
vt1 0.151978 0.110840
vt1 0.128662 0.113281
vt1 0.105469 0.114258
vt1 0.106262 0.115234
vt1 0.152466 0.113281
vt1 0.129272 0.115234
vt1 0.106445 0.116211
vt1 0.129395 0.116211
vt1 0.152954 0.116211
vt1 0.152832 0.115234
vt1 0.177002 0.116211
vt1 0.176880 0.115234
vt1 0.201416 0.116211
vt1 0.176758 0.113770
vt1 0.201416 0.115234
vt1 0.225952 0.116211
vt1 0.201294 0.113770
vt1 0.225952 0.113770
vt1 0.225952 0.115234
vt1 0.250732 0.115234
vt1 0.122925 0.359863
vt1 0.117371 0.336914
vt1 0.122864 0.337402
vt1 0.127197 0.315430
vt1 0.117432 0.360352
vt1 0.127319 0.381836
vt1 0.121948 0.313477
vt1 0.135742 0.294434
vt1 0.115479 0.336426
vt1 0.122070 0.383301
vt1 0.130859 0.291992
vt1 0.115479 0.360840
vt1 0.131104 0.405273
vt1 0.135986 0.402832
vt1 0.148438 0.421387
vt1 0.120178 0.384277
vt1 0.144165 0.424805
vt1 0.129395 0.406250
vt1 0.160889 0.441406
vt1 0.164429 0.437500
vt1 0.142700 0.426270
vt1 0.180542 0.454590
vt1 0.183105 0.449707
vt1 0.159668 0.442871
vt1 0.140991 0.427734
vt1 0.202393 0.463379
vt1 0.203979 0.458496
vt1 0.179688 0.456543
vt1 0.225464 0.468262
vt1 0.226074 0.462891
vt1 0.201782 0.465332
vt1 0.178589 0.458496
vt1 0.249146 0.468262
vt1 0.248535 0.462402
vt1 0.270508 0.458008
vt1 0.225342 0.470215
vt1 0.201172 0.467773
vt1 0.158325 0.444824
vt1 0.197632 0.479004
vt1 0.172852 0.469238
vt1 0.150635 0.454102
vt1 0.225098 0.472168
vt1 0.172363 0.470215
vt1 0.149902 0.455078
vt1 0.197266 0.480469
vt1 0.130737 0.436035
vt1 0.223877 0.484375
vt1 0.223877 0.485352
vt1 0.250732 0.485352
vt1 0.131592 0.435059
vt1 0.250732 0.484375
vt1 0.277344 0.479980
vt1 0.249512 0.472168
vt1 0.276855 0.479004
vt1 0.302246 0.469727
vt1 0.273438 0.467285
vt1 0.249268 0.470215
vt1 0.301514 0.468750
vt1 0.324707 0.454590
vt1 0.272705 0.465332
vt1 0.323975 0.454102
vt1 0.272217 0.463379
vt1 0.295898 0.458008
vt1 0.294922 0.456055
vt1 0.293945 0.454590
vt1 0.291260 0.449707
vt1 0.310059 0.437012
vt1 0.313477 0.441406
vt1 0.314697 0.442871
vt1 0.330078 0.424805
vt1 0.325928 0.420898
vt1 0.316162 0.444336
vt1 0.331543 0.425781
vt1 0.342773 0.435059
vt1 0.333496 0.427246
vt1 0.343750 0.435547
vt1 0.344971 0.405762
vt1 0.357666 0.412598
vt1 0.358643 0.413086
vt1 0.346924 0.406738
vt1 0.367920 0.387695
vt1 0.368896 0.388184
vt1 0.356201 0.384277
vt1 0.373047 0.361816
vt1 0.374268 0.361816
vt1 0.374023 0.334473
vt1 0.354004 0.383789
vt1 0.360840 0.360352
vt1 0.373047 0.334961
vt1 0.368896 0.308105
vt1 0.360840 0.335938
vt1 0.367676 0.308594
vt1 0.358398 0.283203
vt1 0.358643 0.336426
vt1 0.357422 0.283691
vt1 0.343506 0.260742
vt1 0.356201 0.312012
vt1 0.346680 0.289551
vt1 0.342529 0.261719
vt1 0.354004 0.312500
vt1 0.323486 0.242676
vt1 0.324219 0.241699
vt1 0.333008 0.269531
vt1 0.301270 0.228027
vt1 0.301758 0.226562
vt1 0.315918 0.251953
vt1 0.276367 0.217773
vt1 0.276855 0.216309
vt1 0.295410 0.238770
vt1 0.250244 0.212402
vt1 0.250244 0.211426
vt1 0.272949 0.229004
vt1 0.223389 0.211426
vt1 0.314453 0.253906
vt1 0.223511 0.212402
vt1 0.196899 0.216797
vt1 0.331299 0.270508
vt1 0.197266 0.217773
vt1 0.171875 0.227051
vt1 0.224731 0.224609
vt1 0.249146 0.224609
vt1 0.172485 0.228027
vt1 0.149536 0.242188
vt1 0.248901 0.226562
vt1 0.150269 0.243164
vt1 0.272217 0.231445
vt1 0.131348 0.261719
vt1 0.130371 0.261230
vt1 0.294434 0.240723
vt1 0.116516 0.284180
vt1 0.115479 0.283691
vt1 0.313232 0.255371
vt1 0.106323 0.309082
vt1 0.105225 0.308594
vt1 0.293457 0.242188
vt1 0.101135 0.335449
vt1 0.099976 0.334961
vt1 0.100037 0.362305
vt1 0.271729 0.233398
vt1 0.291016 0.247070
vt1 0.309814 0.259766
vt1 0.270264 0.238281
vt1 0.325684 0.275391
vt1 0.248657 0.228516
vt1 0.248169 0.234375
vt1 0.225708 0.234375
vt1 0.225098 0.228516
vt1 0.203613 0.238770
vt1 0.224854 0.226562
vt1 0.202026 0.233398
vt1 0.200806 0.229492
vt1 0.201416 0.231445
vt1 0.180176 0.242188
vt1 0.182861 0.247070
vt1 0.164062 0.259766
vt1 0.179321 0.240723
vt1 0.178223 0.238770
vt1 0.157959 0.252441
vt1 0.160645 0.255371
vt1 0.159424 0.253906
vt1 0.140747 0.269531
vt1 0.142456 0.270996
vt1 0.127197 0.290039
vt1 0.143921 0.272461
vt1 0.148193 0.275879
vt1 0.129150 0.291016
vt1 0.120117 0.312988
vt1 0.117920 0.312500
vt1 0.113220 0.336426
vt1 0.113281 0.360840
vt1 0.101196 0.361816
vt1 0.105347 0.388672
vt1 0.118042 0.384766
vt1 0.106445 0.388184
vt1 0.115723 0.413574
vt1 0.116760 0.413086
vt1 0.127441 0.407227
vt1 0.329834 0.271973
vt1 0.344727 0.290527
vt1 0.343018 0.291504
vt1 0.338135 0.293945
vt1 0.352051 0.313477
vt1 0.346924 0.314941
vt1 0.356689 0.336426
vt1 0.351318 0.336914
vt1 0.356689 0.359863
vt1 0.351318 0.359375
vt1 0.346924 0.381348
vt1 0.358643 0.360352
vt1 0.352295 0.383301
vt1 0.343262 0.404785
vt1 0.338379 0.402344
vn 0.000000 1.000000 -0.000000
vn 0.000000 1.000000 -0.000000
vn 0.000000 1.000000 -0.000000
vn 0.000000 1.000000 -0.000000
vn 0.000000 1.000000 -0.000000
vn 0.000000 1.000000 -0.000000
vn 0.000000 1.000000 -0.000000
vn 0.000000 1.000000 -0.000000
vn 0.000000 1.000000 -0.000000
vn 0.000000 1.000000 -0.000000
vn 0.000000 1.000000 -0.000000
vn 0.000000 1.000000 -0.000000
vn 0.000000 1.000000 -0.000000
vn 0.000000 1.000000 -0.000000
vn 0.000000 1.000000 -0.000000
vn 0.000000 1.000000 -0.000000
vn 0.000000 1.000000 -0.000000
vn 0.000000 1.000000 -0.000000
vn 0.000000 1.000000 -0.000000
vn 0.000000 1.000000 -0.000000
vn 0.000000 1.000000 -0.000000
vn 0.000000 1.000000 -0.000000
vn 0.000000 1.000000 -0.000000
vn 0.000000 1.000000 -0.000000
vn 0.000000 1.000000 -0.000000
vn 0.000000 1.000000 -0.000000
vn 0.000000 1.000000 -0.000000
vn 0.000000 1.000000 -0.000000
vn 0.000000 1.000000 -0.000000
vn 0.000000 1.000000 -0.000000
vn 0.000000 1.000000 -0.000000
vn 0.000000 1.000000 -0.000000
vn 0.000000 -1.000000 0.000000
vn 0.000000 -1.000000 0.000000
vn 0.000000 -1.000000 0.000000
vn 0.000000 -1.000000 0.000000
vn 0.000000 -1.000000 0.000000
vn 0.000000 -1.000000 0.000000
vn 0.000000 -1.000000 0.000000
vn 0.000000 -1.000000 0.000000
vn 0.000000 -1.000000 0.000000
vn 0.000000 -1.000000 0.000000
vn 0.000000 -1.000000 0.000000
vn 0.000000 -1.000000 0.000000
vn 0.000000 -1.000000 0.000000
vn 0.000000 -1.000000 0.000000
vn 0.000000 -1.000000 0.000000
vn 0.000000 -1.000000 0.000000
vn 0.000000 -1.000000 0.000000
vn 0.000000 -1.000000 0.000000
vn 0.000000 -1.000000 0.000000
vn 0.000000 -1.000000 0.000000
vn 0.000000 -1.000000 0.000000
vn 0.000000 -1.000000 0.000000
vn 0.000000 -1.000000 0.000000
vn 0.000000 -1.000000 0.000000
vn 0.000000 -1.000000 0.000000
vn 0.000000 -1.000000 0.000000
vn 0.000000 -1.000000 0.000000
vn 0.000000 -1.000000 0.000000
vn 0.000000 -1.000000 0.000000
vn 0.000000 -1.000000 0.000000
vn 0.000000 -1.000000 0.000000
vn 0.000000 -1.000000 0.000000
vn 0.874016 0.314961 -0.362205
vn 0.866142 0.464567 -0.173228
vn 0.929134 0.314961 -0.188976
vn 0.818898 0.464567 -0.338583
vn 0.566929 0.818897 -0.110236
vn 0.787402 0.314961 -0.527559
vn 0.535433 0.818897 -0.220473
vn 0.259843 0.960630 -0.055118
vn 0.732283 0.464567 -0.488189
vn 0.669291 0.314961 -0.669291
vn 0.244094 0.960630 -0.102362
vn -0.464567 0.881890 0.094488
vn 0.480315 0.818897 -0.322835
vn 0.622047 0.464567 -0.622047
vn -0.433071 0.881890 0.181102
vn -0.866142 0.464567 0.173228
vn -0.818898 0.464567 0.338583
vn 0.220472 0.960630 -0.149606
vn -0.393701 0.881890 0.259842
vn -0.740157 0.464567 0.496063
vn -0.330709 0.881890 0.330709
vn -0.629921 0.464567 0.629921
vn -0.496063 0.464567 0.740157
vn 0.409449 0.818897 -0.409449
vn 0.188976 0.960630 -0.188976
vn -0.259843 0.881890 0.393701
vn -0.338583 0.464567 0.818897
vn 0.149606 0.960630 -0.220473
vn -0.181102 0.881890 0.433071
vn -0.173228 0.464567 0.866142
vn 0.322835 0.818897 -0.480315
vn -0.094488 0.881890 0.464567
vn 0.102362 0.960630 -0.244095
vn 0.000000 0.464567 0.889764
vn 0.488189 0.464567 -0.732283
vn 0.527559 0.314961 -0.787401
vn 0.220472 0.818897 -0.535433
vn 0.338583 0.464567 -0.818898
vn 0.362205 0.314961 -0.874016
vn 0.055118 0.960630 -0.259843
vn 0.110236 0.818897 -0.566929
vn 0.173228 0.464567 -0.866142
vn 0.181102 0.314960 -0.929134
vn 0.000000 0.960630 -0.267717
vn 0.000000 0.818897 -0.574803
vn 0.000000 0.464567 -0.881890
vn 0.000000 0.314960 -0.944882
vn -0.188976 0.314960 -0.929134
vn -0.173228 0.464567 -0.866142
vn -0.362205 0.314961 -0.874016
vn -0.110236 0.818897 -0.566929
vn -0.338583 0.464567 -0.818898
vn -0.527559 0.314961 -0.787401
vn -0.488189 0.464567 -0.732283
vn -0.669291 0.314961 -0.669291
vn -0.220472 0.818897 -0.535433
vn -0.055118 0.960630 -0.259843
vn -0.322835 0.818897 -0.480315
vn -0.102362 0.960630 -0.244095
vn -0.622047 0.464567 -0.622047
vn -0.732283 0.464567 -0.488189
vn -0.787402 0.314961 -0.527559
vn -0.409449 0.818897 -0.409449
vn -0.149606 0.960630 -0.220473
vn 0.181102 0.881890 0.433071
vn 0.094488 0.881890 0.464567
vn 0.000000 0.881890 0.472441
vn 0.173228 0.464567 0.866142
vn 0.338583 0.464567 0.818897
vn 0.259843 0.881890 0.393701
vn 0.496063 0.464567 0.740157
vn 0.330709 0.881890 0.330709
vn 0.629921 0.464567 0.629921
vn 0.740157 0.464567 0.496063
vn -0.188976 0.960630 -0.188976
vn 0.393701 0.881890 0.259842
vn 0.818898 0.464567 0.338583
vn -0.220472 0.960630 -0.149606
vn 0.433071 0.881890 0.181102
vn 0.866142 0.464567 0.173228
vn -0.480315 0.818897 -0.322835
vn -0.244094 0.960630 -0.102362
vn 0.464567 0.881890 0.094488
vn 0.889764 0.464567 -0.000000
vn -0.535433 0.818897 -0.220473
vn -0.259843 0.960630 -0.055118
vn 0.472441 0.881890 -0.000000
vn 0.464567 0.881890 -0.094488
vn 0.866142 0.464567 -0.173228
vn -0.267717 0.960630 -0.000000
vn -0.566929 0.818897 -0.110236
vn -0.818898 0.464567 -0.338583
vn -0.874016 0.314961 -0.362205
vn -0.866142 0.464567 -0.173228
vn -0.929134 0.314961 -0.181102
vn -0.574803 0.818897 -0.000000
vn -0.881890 0.464567 -0.000000
vn -0.944882 0.314961 -0.000000
vn -0.929134 0.314961 0.188976
vn -0.866142 0.464567 0.173228
vn -0.874016 0.314961 0.362205
vn -0.259843 0.960630 0.055118
vn -0.566929 0.818897 0.110236
vn -0.818898 0.464567 0.338583
vn -0.787402 0.314961 0.527559
vn -0.535433 0.818897 0.220472
vn -0.732283 0.464567 0.488189
vn -0.669291 0.314961 0.669291
vn -0.244094 0.960630 0.102362
vn -0.622047 0.464567 0.622047
vn 0.433071 0.881890 -0.181102
vn 0.818898 0.464567 -0.338583
vn 0.393701 0.881890 -0.259843
vn 0.740157 0.464567 -0.496063
vn -0.220472 0.960630 0.149606
vn 0.330709 0.881890 -0.330709
vn 0.629921 0.464567 -0.629921
vn 0.496063 0.464567 -0.740157
vn -0.480315 0.818898 0.322835
vn -0.188976 0.960630 0.188976
vn -0.409449 0.818898 0.409449
vn 0.259843 0.881890 -0.393701
vn 0.338583 0.464567 -0.818898
vn -0.149606 0.960630 0.220472
vn 0.181102 0.881890 -0.433071
vn 0.173228 0.464567 -0.866142
vn -0.322835 0.818898 0.480315
vn -0.102362 0.960630 0.244094
vn 0.094488 0.881890 -0.464567
vn 0.000000 0.464567 -0.889764
vn -0.488189 0.464567 0.732283
vn -0.527559 0.314961 0.787401
vn -0.220472 0.818898 0.535433
vn -0.338583 0.464567 0.818897
vn -0.362205 0.314961 0.874016
vn -0.110236 0.818898 0.566929
vn -0.173228 0.464567 0.866142
vn -0.181102 0.314961 0.929134
vn -0.055118 0.960630 0.259842
vn 0.000000 0.464567 0.881890
vn 0.000000 0.314961 0.944882
vn 0.188976 0.314961 0.929134
vn 0.000000 0.960630 0.267716
vn 0.173228 0.464567 0.866142
vn 0.362205 0.314961 0.874016
vn 0.000000 0.818898 0.574803
vn 0.338583 0.464567 0.818897
vn 0.527559 0.314961 0.787401
vn 0.110236 0.818898 0.566929
vn 0.055118 0.960630 0.259842
vn 0.000000 0.881890 -0.472441
vn -0.094488 0.881890 -0.464567
vn -0.173228 0.464567 -0.866142
vn 0.220472 0.818898 0.535433
vn 0.102362 0.960630 0.244094
vn -0.181102 0.881890 -0.433071
vn -0.338583 0.464567 -0.818898
vn -0.259843 0.881890 -0.393701
vn -0.496063 0.464567 -0.740157
vn 0.149606 0.960630 0.220472
vn -0.330709 0.881890 -0.330709
vn -0.629921 0.464567 -0.629921
vn -0.740157 0.464567 -0.496063
vn 0.188976 0.960630 0.188976
vn -0.393701 0.881890 -0.259843
vn -0.818898 0.464567 -0.338583
vn 0.322835 0.818898 0.480315
vn -0.433071 0.881890 -0.181102
vn -0.866142 0.464567 -0.173228
vn 0.220472 0.960630 0.149606
vn -0.464567 0.881890 -0.094488
vn -0.889764 0.464567 -0.000000
vn 0.244094 0.960630 0.102362
vn -0.464567 0.881890 0.094488
vn -0.866142 0.464567 0.173228
vn -0.472441 0.881890 -0.000000
vn 0.259843 0.960630 -0.055118
vn 0.267717 0.960630 -0.000000
vn 0.259843 0.960630 0.055118
vn 0.574803 0.818897 -0.000000
vn 0.566929 0.818897 -0.110236
vn 0.866142 0.464567 -0.173228
vn 0.566929 0.818897 0.110236
vn 0.881890 0.464567 -0.000000
vn 0.929134 0.314961 -0.188976
vn 0.944882 0.314961 -0.000000
vn 0.929134 0.314961 0.181102
vn 0.866142 0.464567 0.173228
vn 0.874016 0.314961 0.362205
vn 0.818898 0.464567 0.338583
vn 0.787402 0.314961 0.527559
vn 0.535433 0.818897 0.220472
vn 0.732283 0.464567 0.488189
vn 0.669291 0.314961 0.669291
vn 0.480315 0.818898 0.322835
vn 0.409449 0.818898 0.409449
vn 0.622047 0.464567 0.622047
vn 0.488189 0.464567 0.732283
vn -0.094488 -0.992126 0.062992
vn -0.330709 -0.881890 0.330709
vn -0.078740 -0.992126 0.078740
vn -0.062992 -0.992126 0.094488
vn -0.385827 -0.881890 0.259843
vn -0.102362 -0.992126 0.039370
vn -0.259843 -0.881890 0.385827
vn -0.039370 -0.992126 0.102362
vn -0.448819 -0.779527 0.448819
vn -0.425197 -0.881890 0.181102
vn -0.181102 -0.881890 0.425197
vn -0.527559 -0.779527 0.346457
vn -0.456693 -0.881890 0.094488
vn -0.110236 -0.992126 0.023622
vn -0.110236 -0.992126 0.000000
vn -0.582677 -0.779527 0.244095
vn -0.464567 -0.881890 0.000000
vn -0.622047 -0.779527 0.125984
vn -0.456693 -0.881890 -0.094488
vn -0.110236 -0.992126 -0.023622
vn -0.629921 -0.779527 0.000000
vn -0.425197 -0.881890 -0.181102
vn -0.102362 -0.992126 -0.039370
vn -0.622047 -0.779527 -0.125984
vn -0.433071 -0.897638 0.000000
vn -0.385827 -0.881890 -0.259842
vn -0.094488 -0.992126 -0.062992
vn -0.582677 -0.779527 -0.244094
vn -0.330709 -0.881890 -0.330709
vn -0.078740 -0.992126 -0.078740
vn -0.527559 -0.779527 -0.346457
vn -0.401575 -0.897638 -0.165354
vn -0.259843 -0.881890 -0.385827
vn -0.062992 -0.992126 -0.094488
vn -0.039370 -0.992126 -0.102362
vn -0.448819 -0.779527 -0.448819
vn -0.362205 -0.897638 -0.244094
vn -0.425197 -0.897638 -0.086614
vn -0.614173 -0.677165 -0.409449
vn -0.677165 -0.677165 -0.283464
vn -0.724409 -0.677165 -0.141732
vn -0.307087 -0.897638 -0.307086
vn -0.874016 -0.314961 -0.362205
vn -0.929134 -0.314961 -0.188976
vn -0.787402 -0.314961 -0.527559
vn -0.944882 -0.314961 0.000000
vn -0.519685 -0.677165 -0.519685
vn -0.669291 -0.314961 -0.669291
vn -0.527559 -0.314961 -0.787401
vn -0.740157 -0.677165 0.000000
vn -0.409449 -0.677165 -0.614173
vn -0.362205 -0.314961 -0.874016
vn -0.244094 -0.897638 -0.362205
vn -0.283465 -0.677165 -0.677165
vn -0.188976 -0.314961 -0.929134
vn -0.165354 -0.897638 -0.401575
vn -0.346457 -0.779527 -0.527559
vn -0.141732 -0.677165 -0.724409
vn 0.000000 -0.314961 -0.944882
vn -0.244094 -0.779527 -0.582677
vn 0.000000 -0.677165 -0.740157
vn -0.181102 -0.881890 -0.425197
vn -0.086614 -0.897638 -0.425197
vn -0.125984 -0.779527 -0.622047
vn -0.094488 -0.881890 -0.456693
vn -0.023622 -0.992126 -0.110236
vn 0.000000 -0.992126 -0.110236
vn 0.000000 -0.881890 -0.464567
vn 0.000000 -0.779527 -0.629921
vn 0.094488 -0.881890 -0.456693
vn 0.023622 -0.992126 -0.110236
vn 0.000000 -0.897638 -0.433071
vn 0.125984 -0.779527 -0.622047
vn 0.141732 -0.677165 -0.724409
vn 0.086614 -0.897638 -0.425197
vn 0.188976 -0.314961 -0.929134
vn 0.244094 -0.779527 -0.582677
vn 0.283465 -0.677165 -0.677165
vn 0.362205 -0.314961 -0.874016
vn 0.165354 -0.897638 -0.401575
vn 0.409449 -0.677165 -0.614173
vn 0.527559 -0.314961 -0.787401
vn 0.244094 -0.897638 -0.362205
vn 0.519685 -0.677165 -0.519685
vn 0.669291 -0.314961 -0.669291
vn 0.787402 -0.314961 -0.527559
vn 0.346457 -0.779527 -0.527559
vn 0.307087 -0.897638 -0.307086
vn 0.614173 -0.677165 -0.409449
vn 0.874016 -0.314961 -0.362205
vn 0.362205 -0.897638 -0.244094
vn 0.677165 -0.677165 -0.283464
vn 0.929134 -0.314961 -0.188976
vn 0.527559 -0.779527 -0.346457
vn 0.724409 -0.677165 -0.141732
vn 0.944882 -0.314961 0.000000
vn 0.401575 -0.897638 -0.165354
vn 0.425197 -0.897638 -0.086614
vn 0.740157 -0.677165 0.000000
vn 0.582677 -0.779527 -0.244094
vn 0.724409 -0.677165 0.141732
vn 0.929134 -0.314961 0.188976
vn 0.433071 -0.897638 0.000000
vn 0.677165 -0.677165 0.283465
vn 0.874016 -0.314961 0.362205
vn 0.425197 -0.897638 0.086614
vn 0.614173 -0.677165 0.409449
vn 0.787402 -0.314961 0.527559
vn 0.401575 -0.897638 0.165354
vn 0.519685 -0.677165 0.519685
vn 0.669291 -0.314961 0.669291
vn 0.362205 -0.897638 0.244095
vn 0.527559 -0.314961 0.787401
vn 0.622047 -0.779527 0.125984
vn 0.409449 -0.677165 0.614173
vn 0.362205 -0.314961 0.874016
vn 0.629921 -0.779527 0.000000
vn 0.283465 -0.677165 0.677165
vn 0.188976 -0.314960 0.929134
vn 0.244094 -0.897638 0.362205
vn 0.307087 -0.897638 0.307087
vn 0.141732 -0.677165 0.724409
vn 0.000000 -0.314960 0.944882
vn 0.448819 -0.779527 0.448819
vn 0.000000 -0.677165 0.740157
vn 0.527559 -0.779527 0.346457
vn -0.141732 -0.677165 0.724409
vn -0.188976 -0.314960 0.929134
vn 0.582677 -0.779527 0.244095
vn -0.283465 -0.677165 0.677165
vn -0.362205 -0.314961 0.874016
vn 0.456693 -0.881890 0.094488
vn -0.409449 -0.677165 0.614173
vn -0.527559 -0.314961 0.787401
vn 0.425197 -0.881890 0.181102
vn -0.519685 -0.677165 0.519685
vn -0.669291 -0.314961 0.669291
vn -0.787402 -0.314961 0.527559
vn 0.385827 -0.881890 0.259843
vn 0.102362 -0.992126 0.039370
vn 0.110236 -0.992126 0.023622
vn 0.094488 -0.992126 0.062992
vn 0.110236 -0.992126 0.000000
vn 0.330709 -0.881890 0.330709
vn 0.078740 -0.992126 0.078740
vn 0.062992 -0.992126 0.094488
vn 0.259843 -0.881890 0.385827
vn 0.039370 -0.992126 0.102362
vn 0.346457 -0.779527 0.527559
vn 0.181102 -0.881890 0.425197
vn 0.165354 -0.897638 0.401575
vn 0.244094 -0.779527 0.582677
vn 0.094488 -0.881890 0.456693
vn 0.023622 -0.992126 0.110236
vn 0.000000 -0.992126 0.110236
vn 0.125984 -0.779527 0.622047
vn 0.086614 -0.897638 0.425197
vn 0.000000 -0.897638 0.433071
vn 0.000000 -0.881890 0.464567
vn 0.000000 -0.779527 0.629921
vn -0.086614 -0.897638 0.425197
vn -0.125984 -0.779527 0.622047
vn -0.165354 -0.897638 0.401575
vn -0.094488 -0.881890 0.456693
vn -0.023622 -0.992126 0.110236
vn -0.244094 -0.779527 0.582677
vn -0.346457 -0.779527 0.527559
vn -0.244094 -0.897638 0.362205
vn -0.307087 -0.897638 0.307087
vn -0.362205 -0.897638 0.244095
vn -0.614173 -0.677165 0.409449
vn -0.874016 -0.314961 0.362205
vn -0.401575 -0.897638 0.165354
vn -0.677165 -0.677165 0.283465
vn -0.929134 -0.314961 0.188976
vn -0.724409 -0.677165 0.141732
vn -0.425197 -0.897638 0.086614
vn 0.464567 -0.881890 0.000000
vn 0.622047 -0.779527 -0.125984
vn 0.456693 -0.881890 -0.094488
vn 0.110236 -0.992126 -0.023622
vn 0.425197 -0.881890 -0.181102
vn 0.102362 -0.992126 -0.039370
vn 0.385827 -0.881890 -0.259842
vn 0.094488 -0.992126 -0.062992
vn 0.330709 -0.881890 -0.330709
vn 0.078740 -0.992126 -0.078740
vn 0.062992 -0.992126 -0.094488
vn 0.448819 -0.779527 -0.448819
vn 0.259843 -0.881890 -0.385827
vn 0.181102 -0.881890 -0.425197
vn 0.039370 -0.992126 -0.102362
tan 0.000000 -0.000000 -1.000000 1.000000
tan 0.000000 -0.000000 -1.000000 1.000000
tan 0.000000 -0.000000 -1.000000 1.000000
tan 0.000000 -0.000000 -1.000000 1.000000
tan 0.000000 -0.000000 -1.000000 1.000000
tan 0.000000 -0.000000 -1.000000 1.000000
tan 0.000000 -0.000000 -1.000000 1.000000
tan 0.000000 -0.000000 -1.000000 1.000000
tan 0.000000 -0.000000 -1.000000 1.000000
tan 0.000000 -0.000000 -1.000000 1.000000
tan 0.000000 -0.000000 -1.000000 1.000000
tan 0.000000 -0.000000 -1.000000 1.000000
tan 0.000000 -0.000000 -1.000000 1.000000
tan 0.000000 -0.000000 -1.000000 1.000000
tan 0.000000 -0.000000 -1.000000 1.000000
tan 0.000000 -0.000000 -1.000000 1.000000
tan 0.000000 -0.000000 -1.000000 1.000000
tan 0.000000 -0.000000 -1.000000 1.000000
tan 0.000000 -0.000000 -1.000000 1.000000
tan 0.000000 -0.000000 -1.000000 1.000000
tan 0.000000 -0.000000 -1.000000 1.000000
tan 0.000000 -0.000000 -1.000000 1.000000
tan 0.000000 -0.000000 -1.000000 1.000000
tan 0.000000 -0.000000 -1.000000 1.000000
tan 0.000000 -0.000000 -1.000000 1.000000
tan 0.000000 -0.000000 -1.000000 1.000000
tan 0.000000 -0.000000 -1.000000 1.000000
tan 0.000000 -0.000000 -1.000000 1.000000
tan 0.000000 -0.000000 -1.000000 1.000000
tan 0.000000 -0.000000 -1.000000 1.000000
tan 0.000000 -0.000000 -1.000000 1.000000
tan 0.000000 -0.000000 -1.000000 1.000000
tan 0.000000 0.000000 1.000000 1.000000
tan 0.000000 0.000000 1.000000 1.000000
tan 0.000000 0.000000 1.000000 1.000000
tan 0.000000 0.000000 1.000000 1.000000
tan 0.000000 0.000000 1.000000 1.000000
tan 0.000000 0.000000 1.000000 1.000000
tan 0.000000 0.000000 1.000000 1.000000
tan 0.000000 0.000000 1.000000 1.000000
tan 0.000000 0.000000 1.000000 1.000000
tan 0.000000 0.000000 1.000000 1.000000
tan 0.000000 0.000000 1.000000 1.000000
tan 0.000000 0.000000 1.000000 1.000000
tan 0.000000 0.000000 1.000000 1.000000
tan 0.000000 0.000000 1.000000 1.000000
tan 0.000000 0.000000 1.000000 1.000000
tan 0.000000 0.000000 1.000000 1.000000
tan 0.000000 0.000000 1.000000 1.000000
tan 0.000000 0.000000 1.000000 1.000000
tan 0.000000 0.000000 1.000000 1.000000
tan 0.000000 0.000000 1.000000 1.000000
tan 0.000000 0.000000 1.000000 1.000000
tan 0.000000 0.000000 1.000000 1.000000
tan 0.000000 0.000000 1.000000 1.000000
tan 0.000000 0.000000 1.000000 1.000000
tan 0.000000 0.000000 1.000000 1.000000
tan 0.000000 0.000000 1.000000 1.000000
tan 0.000000 0.000000 1.000000 1.000000
tan 0.000000 0.000000 1.000000 1.000000
tan 0.000000 0.000000 1.000000 1.000000
tan 0.000000 0.000000 1.000000 1.000000
tan 0.000000 0.000000 1.000000 1.000000
tan 0.000000 0.000000 1.000000 1.000000
tan -0.287309 0.944944 0.128402 1.000000
tan -0.444045 0.883874 0.150164 1.000000
tan -0.301569 0.945874 0.093744 1.000000
tan -0.422655 0.887718 0.195796 1.000000
tan -0.772398 0.573129 0.285200 1.000000
tan -0.260401 0.945936 0.176080 1.000000
tan -0.742761 0.579329 0.347945 1.000000
tan -0.897514 0.262571 0.345093 1.000000
tan -0.387749 0.880278 0.256060 1.000000
tan -0.223200 0.948602 0.223200 1.000000
tan -0.869056 0.263749 0.402815 1.000000
tan -0.826586 -0.469465 0.317627 1.000000
tan -0.683489 0.581375 0.457809 1.000000
tan -0.329221 0.881642 0.329221 1.000000
tan -0.802654 -0.469713 0.367909 1.000000
tan -0.427181 -0.875690 0.212536 1.000000
tan -0.410999 -0.883936 0.218799 1.000000
tan -0.801786 0.266477 0.529481 1.000000
tan -0.736066 -0.471821 0.486081 1.000000
tan -0.387749 -0.891190 0.256061 1.000000
tan -0.624961 -0.468721 0.624961 1.000000
tan -0.334181 -0.892802 0.324261 1.000000
tan -0.259719 -0.889268 0.384091 1.000000
tan -0.580321 0.580321 0.580321 1.000000
tan -0.680761 0.266353 0.673197 1.000000
tan -0.493025 -0.470767 0.729121 1.000000
tan -0.179242 -0.885052 0.427987 1.000000
tan -0.537045 0.265919 0.794221 1.000000
tan -0.340257 -0.468845 0.812450 1.000000
tan -0.091450 -0.886602 0.457251 1.000000
tan -0.457809 0.577593 0.677041 1.000000
tan -0.173600 -0.475851 0.868002 1.000000
tan -0.370637 0.264369 0.884990 1.000000
tan 0.000000 -0.889764 0.464567 1.000000
tan -0.259719 0.878356 0.384091 1.000000
tan -0.173600 0.947982 0.262880 1.000000
tan -0.315953 0.578337 0.754417 1.000000
tan -0.179242 0.885052 0.427987 1.000000
tan -0.119040 0.942092 0.290160 1.000000
tan -0.189100 0.266601 0.945502 1.000000
tan -0.161200 0.579701 0.806001 1.000000
tan -0.091450 0.886602 0.457251 1.000000
tan -0.062000 0.950152 0.310000 1.000000
tan 0.000000 0.267717 0.960630 1.000000
tan 0.000000 0.574803 0.818897 1.000000
tan 0.000000 0.881890 0.464567 1.000000
tan 0.000000 0.944882 0.314960 1.000000
tan 0.062000 0.951702 0.310000 1.000000
tan 0.091450 0.886602 0.457251 1.000000
tan 0.121520 0.944944 0.290160 1.000000
tan 0.161200 0.579701 0.806001 1.000000
tan 0.175584 0.882386 0.427987 1.000000
tan 0.176080 0.952136 0.262880 1.000000
tan 0.256060 0.880278 0.387749 1.000000
tan 0.223200 0.948602 0.223200 1.000000
tan 0.315953 0.578337 0.754417 1.000000
tan 0.189100 0.266601 0.945502 1.000000
tan 0.457809 0.581375 0.683489 1.000000
tan 0.370637 0.264369 0.884990 1.000000
tan 0.329221 0.881642 0.329221 1.000000
tan 0.387749 0.884122 0.259718 1.000000
tan 0.262881 0.947982 0.173600 1.000000
tan 0.580321 0.580321 0.580321 1.000000
tan 0.537045 0.267655 0.801785 1.000000
tan 0.340257 -0.468845 0.812450 1.000000
tan 0.173600 -0.475851 0.868002 1.000000
tan 0.000000 -0.472441 0.881890 1.000000
tan 0.091450 -0.886602 0.457251 1.000000
tan 0.179242 -0.885052 0.427987 1.000000
tan 0.493025 -0.473867 0.736066 1.000000
tan 0.259719 -0.895096 0.387749 1.000000
tan 0.624961 -0.468721 0.624961 1.000000
tan 0.329221 -0.892802 0.329221 1.000000
tan 0.387749 -0.895096 0.259719 1.000000
tan 0.680761 0.267841 0.680761 1.000000
tan 0.736066 -0.473867 0.493025 1.000000
tan 0.427987 -0.885052 0.179242 1.000000
tan 0.801786 0.267655 0.537045 1.000000
tan 0.812450 -0.468845 0.340257 1.000000
tan 0.457251 -0.886602 0.091450 1.000000
tan 0.683489 0.581375 0.457809 1.000000
tan 0.884990 0.264369 0.370637 1.000000
tan 0.868002 -0.475851 0.173600 1.000000
tan 0.464567 -0.889764 0.000000 1.000000
tan 0.754417 0.578337 0.315953 1.000000
tan 0.945502 0.266601 0.189100 1.000000
tan 0.881890 -0.472441 0.000000 1.000000
tan 0.868002 -0.475851 -0.173600 1.000000
tan 0.457251 -0.886602 -0.091450 1.000000
tan 0.960630 0.267716 -0.000000 1.000000
tan 0.806002 0.579701 0.161200 1.000000
tan 0.427987 0.885052 0.179242 1.000000
tan 0.290161 0.942092 0.119040 1.000000
tan 0.457251 0.886602 0.091450 1.000000
tan 0.310001 0.950152 0.062000 1.000000
tan 0.818898 0.574803 -0.000000 1.000000
tan 0.464567 0.881890 -0.000000 1.000000
tan 0.314961 0.944882 -0.000000 1.000000
tan 0.310001 0.951702 -0.062000 1.000000
tan 0.457251 0.886602 -0.091450 1.000000
tan 0.290161 0.944944 -0.121520 1.000000
tan 0.945502 0.266600 -0.189100 1.000000
tan 0.806002 0.579701 -0.161200 1.000000
tan 0.427987 0.882386 -0.175584 1.000000
tan 0.262881 0.952136 -0.176080 1.000000
tan 0.754417 0.578337 -0.315953 1.000000
tan 0.387749 0.880278 -0.256061 1.000000
tan 0.223200 0.948602 -0.223201 1.000000
tan 0.884990 0.264368 -0.370637 1.000000
tan 0.329221 0.881642 -0.329221 1.000000
tan 0.812450 -0.468845 -0.340257 1.000000
tan 0.427987 -0.885052 -0.179242 1.000000
tan 0.736066 -0.473867 -0.493025 1.000000
tan 0.387749 -0.895096 -0.259718 1.000000
tan 0.801786 0.267654 -0.537045 1.000000
tan 0.624961 -0.468721 -0.624961 1.000000
tan 0.329221 -0.892802 -0.329221 1.000000
tan 0.259719 -0.895096 -0.387749 1.000000
tan 0.683489 0.581375 -0.457809 1.000000
tan 0.680761 0.267840 -0.680761 1.000000
tan 0.580321 0.580321 -0.580321 1.000000
tan 0.493025 -0.473867 -0.736065 1.000000
tan 0.179242 -0.885052 -0.427987 1.000000
tan 0.537045 0.267654 -0.801786 1.000000
tan 0.340257 -0.468845 -0.812449 1.000000
tan 0.091450 -0.886602 -0.457251 1.000000
tan 0.457809 0.581375 -0.683489 1.000000
tan 0.370637 0.264368 -0.884990 1.000000
tan 0.173600 -0.475851 -0.868002 1.000000
tan 0.000000 -0.889764 -0.464567 1.000000
tan 0.259719 0.884122 -0.387749 1.000000
tan 0.173600 0.947982 -0.262881 1.000000
tan 0.315953 0.578337 -0.754417 1.000000
tan 0.179242 0.885052 -0.427987 1.000000
tan 0.119040 0.942092 -0.290161 1.000000
tan 0.161200 0.579701 -0.806002 1.000000
tan 0.091450 0.886602 -0.457251 1.000000
tan 0.062000 0.950152 -0.310001 1.000000
tan 0.189100 0.266600 -0.945502 1.000000
tan 0.000000 0.881890 -0.464567 1.000000
tan 0.000000 0.944882 -0.314961 1.000000
tan -0.062000 0.951702 -0.310001 1.000000
tan 0.000000 0.267716 -0.960630 1.000000
tan -0.091450 0.886602 -0.457251 1.000000
tan -0.121520 0.944944 -0.290161 1.000000
tan 0.000000 0.574803 -0.818898 1.000000
tan -0.175584 0.882386 -0.427987 1.000000
tan -0.176080 0.952136 -0.262881 1.000000
tan -0.161200 0.579701 -0.806002 1.000000
tan -0.189100 0.266600 -0.945502 1.000000
tan 0.000000 -0.472441 -0.881890 1.000000
tan -0.173600 -0.475851 -0.868002 1.000000
tan -0.091450 -0.886602 -0.457251 1.000000
tan -0.315953 0.578337 -0.754417 1.000000
tan -0.370637 0.264368 -0.884990 1.000000
tan -0.340257 -0.468845 -0.812449 1.000000
tan -0.179242 -0.885052 -0.427987 1.000000
tan -0.493025 -0.473867 -0.736065 1.000000
tan -0.259719 -0.895096 -0.387749 1.000000
tan -0.537045 0.267654 -0.801786 1.000000
tan -0.624961 -0.468721 -0.624961 1.000000
tan -0.329221 -0.892802 -0.329221 1.000000
tan -0.387749 -0.891190 -0.256060 1.000000
tan -0.680761 0.267840 -0.680761 1.000000
tan -0.736066 -0.471821 -0.486081 1.000000
tan -0.427987 -0.882386 -0.175584 1.000000
tan -0.457809 0.581375 -0.683489 1.000000
tan -0.812450 -0.467419 -0.333313 1.000000
tan -0.458615 -0.886602 -0.084630 1.000000
tan -0.801786 0.266476 -0.529481 1.000000
tan -0.868002 -0.475107 -0.166656 1.000000
tan -0.464567 -0.889764 -0.053010 1.000000
tan -0.892554 0.265484 -0.363073 1.000000
tan -0.881642 -0.466861 0.022630 1.000000
tan -0.476347 -0.877054 -0.029636 1.000000
tan -0.881890 -0.472441 -0.035216 1.000000
tan -0.963234 0.261579 0.017980 1.000000
tan -0.960630 0.267716 -0.039928 1.000000
tan -0.945502 0.266166 -0.181536 1.000000
tan -0.818898 0.574803 -0.028396 1.000000
tan -0.821998 0.570277 0.008928 1.000000
tan -0.472255 0.878418 -0.005518 1.000000
tan -0.806002 0.579701 -0.161200 1.000000
tan -0.464567 0.881890 -0.010602 1.000000
tan -0.318929 0.948726 0.013144 1.000000
tan -0.314961 0.944882 -0.000000 1.000000
tan -0.310001 0.950152 -0.062000 1.000000
tan -0.457251 0.886602 -0.091450 1.000000
tan -0.290161 0.942092 -0.119040 1.000000
tan -0.427987 0.885052 -0.179242 1.000000
tan -0.262881 0.947982 -0.173600 1.000000
tan -0.754417 0.576601 -0.309505 1.000000
tan -0.387749 0.884122 -0.259719 1.000000
tan -0.223200 0.948602 -0.223201 1.000000
tan -0.683489 0.578833 -0.451361 1.000000
tan -0.580321 0.580321 -0.580321 1.000000
tan -0.329221 0.881642 -0.329221 1.000000
tan -0.256060 0.880278 -0.387749 1.000000
tan -0.663153 0.015376 -0.752557 1.000000
tan -0.667493 -0.028644 -0.743877 1.000000
tan -0.664889 -0.006820 -0.750821 1.000000
tan -0.666625 -0.029016 -0.749085 1.000000
tan -0.646413 0.061070 -0.752557 1.000000
tan -0.660239 0.038254 -0.752619 1.000000
tan -0.673135 -0.120032 -0.727695 1.000000
tan -0.666687 -0.050530 -0.746171 1.000000
tan -0.675553 -0.038874 -0.743071 1.000000
tan -0.635377 0.150908 -0.756897 1.000000
tan -0.670469 -0.203422 -0.707483 1.000000
tan -0.632897 0.086056 -0.770103 1.000000
tan -0.614297 0.237460 -0.752805 1.000000
tan -0.658441 0.055242 -0.752557 1.000000
tan -0.656209 0.072912 -0.750821 1.000000
tan -0.594147 0.198462 -0.784487 1.000000
tan -0.590241 0.310930 -0.737305 1.000000
tan -0.542067 0.305722 -0.784797 1.000000
tan -0.578089 0.376093 -0.716101 1.000000
tan -0.654721 0.090582 -0.749085 1.000000
tan -0.503317 0.406721 -0.762911 1.000000
tan -0.575423 0.420113 -0.694773 1.000000
tan -0.654349 0.097154 -0.746977 1.000000
tan -0.472131 0.495691 -0.735941 1.000000
tan -0.579577 0.279620 -0.758137 1.000000
tan -0.573439 0.452539 -0.684419 1.000000
tan -0.654225 0.109616 -0.745117 1.000000
tan -0.464815 0.562527 -0.686899 1.000000
tan -0.579825 0.466117 -0.663153 1.000000
tan -0.655589 0.110980 -0.742761 1.000000
tan -0.476719 0.606919 -0.639655 1.000000
tan -0.568231 0.387253 -0.722239 1.000000
tan -0.593713 0.462459 -0.657201 1.000000
tan -0.657697 0.112344 -0.741149 1.000000
tan -0.660239 0.102610 -0.740591 1.000000
tan -0.504061 0.632587 -0.594643 1.000000
tan -0.571951 0.421167 -0.700105 1.000000
tan -0.570525 0.341931 -0.742886 1.000000
tan -0.385393 0.709281 -0.594953 1.000000
tan -0.363445 0.644677 -0.671833 1.000000
tan -0.380929 0.560605 -0.731477 1.000000
tan -0.584041 0.432823 -0.681133 1.000000
tan -0.024304 0.779589 -0.619257 1.000000
tan -0.064976 0.646413 -0.757890 1.000000
tan -0.051212 0.888214 -0.453841 1.000000
tan -0.166160 0.498481 -0.843202 1.000000
tan -0.428669 0.732469 -0.525761 1.000000
tan -0.163060 0.943332 -0.280861 1.000000
tan -0.331081 0.935706 -0.152458 1.000000
tan -0.426561 0.466241 -0.782690 1.000000
tan -0.494265 0.727013 -0.472069 1.000000
tan -0.506665 0.852440 -0.097216 1.000000
tan -0.609461 0.433319 -0.663153 1.000000
tan -0.575857 0.687705 -0.446649 1.000000
tan -0.665137 0.731229 -0.112592 1.000000
tan -0.632587 0.409015 -0.653791 1.000000
tan -0.542873 0.623907 -0.565379 1.000000
tan -0.648149 0.616653 -0.449625 1.000000
tan -0.776242 0.587761 -0.195920 1.000000
tan -0.596503 0.597619 -0.549631 1.000000
tan -0.698741 0.530349 -0.485213 1.000000
tan -0.612189 0.440759 -0.653419 1.000000
tan -0.655465 0.371939 -0.651683 1.000000
tan -0.641515 0.540641 -0.547585 1.000000
tan -0.632029 0.408953 -0.658937 1.000000
tan -0.662285 0.098084 -0.740839 1.000000
tan -0.664021 0.082460 -0.742141 1.000000
tan -0.645917 0.351169 -0.666625 1.000000
tan -0.679087 0.461281 -0.570835 1.000000
tan -0.658441 0.285200 -0.686961 1.000000
tan -0.665757 0.066836 -0.744187 1.000000
tan -0.673817 0.317131 -0.657325 1.000000
tan -0.711203 0.372435 -0.610763 1.000000
tan -0.732469 0.423461 -0.539153 1.000000
tan -0.687829 0.252836 -0.673879 1.000000
tan -0.832538 0.448633 -0.321409 1.000000
tan -0.715481 0.266228 -0.655899 1.000000
tan -0.735817 0.297601 -0.605617 1.000000
tan -0.831670 0.310559 -0.456569 1.000000
tan -0.688201 0.183768 -0.694153 1.000000
tan -0.722673 0.172484 -0.671957 1.000000
tan -0.781202 0.171120 -0.591853 1.000000
tan -0.684109 0.103974 -0.718705 1.000000
tan -0.679149 0.040920 -0.732469 1.000000
tan -0.694401 0.036890 -0.711761 1.000000
tan -0.577841 -0.086242 -0.810962 1.000000
tan -0.704569 0.159030 -0.697687 1.000000
tan -0.663091 0.026598 -0.740839 1.000000
tan -0.619753 -0.090272 -0.780333 1.000000
tan -0.437845 -0.217744 -0.867196 1.000000
tan -0.649947 -0.056234 -0.757641 1.000000
tan -0.555893 -0.221092 -0.799801 1.000000
tan -0.299089 -0.354889 -0.879038 1.000000
tan -0.632897 -0.086056 -0.770103 1.000000
tan -0.481865 -0.346085 -0.809349 1.000000
tan -0.166160 -0.498481 -0.843202 1.000000
tan -0.620311 -0.135966 -0.768367 1.000000
tan -0.598177 -0.209188 -0.768553 1.000000
tan -0.426561 -0.466241 -0.782689 1.000000
tan -0.588009 -0.193874 -0.784487 1.000000
tan -0.380929 -0.560605 -0.731477 1.000000
tan -0.064976 -0.646413 -0.757889 1.000000
tan -0.579577 -0.279621 -0.758137 1.000000
tan -0.363445 -0.644677 -0.671833 1.000000
tan -0.024304 -0.779590 -0.619257 1.000000
tan -0.569843 -0.341931 -0.746233 1.000000
tan -0.385393 -0.709281 -0.594953 1.000000
tan -0.051212 -0.888214 -0.453841 1.000000
tan -0.568231 -0.387253 -0.722239 1.000000
tan -0.428669 -0.732469 -0.525761 1.000000
tan -0.163060 -0.943332 -0.280860 1.000000
tan -0.571951 -0.421167 -0.700105 1.000000
tan -0.331081 -0.935706 -0.152458 1.000000
tan -0.472131 -0.495691 -0.735941 1.000000
tan -0.494265 -0.727013 -0.472069 1.000000
tan -0.506665 -0.852440 -0.097216 1.000000
tan -0.503317 -0.406721 -0.762911 1.000000
tan -0.575857 -0.687705 -0.446649 1.000000
tan -0.665137 -0.731229 -0.112592 1.000000
tan -0.609461 -0.433319 -0.663153 1.000000
tan -0.584041 -0.432823 -0.681133 1.000000
tan -0.648149 -0.616653 -0.449625 1.000000
tan -0.776242 -0.587761 -0.195920 1.000000
tan -0.504061 -0.632587 -0.594643 1.000000
tan -0.698741 -0.530349 -0.485213 1.000000
tan -0.476719 -0.606919 -0.639655 1.000000
tan -0.732469 -0.423461 -0.539153 1.000000
tan -0.832538 -0.448633 -0.321409 1.000000
tan -0.464815 -0.562527 -0.686899 1.000000
tan -0.735817 -0.297601 -0.605617 1.000000
tan -0.831670 -0.310559 -0.456569 1.000000
tan -0.578089 -0.376093 -0.716101 1.000000
tan -0.722673 -0.172484 -0.671957 1.000000
tan -0.781202 -0.171120 -0.591853 1.000000
tan -0.575423 -0.420113 -0.694773 1.000000
tan -0.679149 -0.040920 -0.732469 1.000000
tan -0.694401 -0.036890 -0.711761 1.000000
tan -0.577841 0.086242 -0.810962 1.000000
tan -0.573439 -0.452539 -0.684419 1.000000
tan -0.654349 -0.097154 -0.746977 1.000000
tan -0.654721 -0.090582 -0.749085 1.000000
tan -0.654225 -0.109616 -0.745117 1.000000
tan -0.656209 -0.072912 -0.750821 1.000000
tan -0.579825 -0.466117 -0.663153 1.000000
tan -0.655589 -0.110980 -0.742761 1.000000
tan -0.657697 -0.112344 -0.741149 1.000000
tan -0.593713 -0.462459 -0.657201 1.000000
tan -0.660239 -0.102610 -0.740591 1.000000
tan -0.542873 -0.623907 -0.565379 1.000000
tan -0.612189 -0.440759 -0.653419 1.000000
tan -0.632587 -0.409015 -0.653791 1.000000
tan -0.596503 -0.597619 -0.549631 1.000000
tan -0.632029 -0.408953 -0.658937 1.000000
tan -0.662285 -0.098084 -0.740839 1.000000
tan -0.664021 -0.082460 -0.742141 1.000000
tan -0.647653 -0.541633 -0.547585 1.000000
tan -0.655465 -0.371939 -0.651683 1.000000
tan -0.673817 -0.317131 -0.657325 1.000000
tan -0.645917 -0.351169 -0.666625 1.000000
tan -0.679087 -0.461281 -0.570835 1.000000
tan -0.687829 -0.252837 -0.673879 1.000000
tan -0.711203 -0.372435 -0.610763 1.000000
tan -0.688201 -0.183768 -0.694153 1.000000
tan -0.665385 -0.284457 -0.686961 1.000000
tan -0.665757 -0.066836 -0.744187 1.000000
tan -0.715481 -0.266229 -0.655899 1.000000
tan -0.704569 -0.159030 -0.697687 1.000000
tan -0.684109 -0.103974 -0.718705 1.000000
tan -0.663091 -0.026598 -0.740839 1.000000
tan -0.649947 0.056234 -0.757641 1.000000
tan -0.619753 0.090272 -0.780333 1.000000
tan -0.437845 0.217744 -0.867196 1.000000
tan -0.620311 0.135966 -0.768367 1.000000
tan -0.555893 0.221092 -0.799801 1.000000
tan -0.299089 0.354889 -0.879038 1.000000
tan -0.481865 0.346085 -0.809350 1.000000
tan -0.598177 0.209188 -0.768553 1.000000
tan -0.590241 -0.310931 -0.737305 1.000000
tan -0.542067 -0.305723 -0.784797 1.000000
tan -0.614297 -0.237461 -0.752805 1.000000
tan -0.658441 -0.055242 -0.752557 1.000000
tan -0.635377 -0.150908 -0.756897 1.000000
tan -0.660239 -0.038254 -0.752619 1.000000
tan -0.653357 -0.064108 -0.752557 1.000000
tan -0.663153 -0.015376 -0.752557 1.000000
tan -0.667493 0.028644 -0.743877 1.000000
tan -0.664889 0.006820 -0.750821 1.000000
tan -0.666625 0.029016 -0.749085 1.000000
tan -0.675553 0.038874 -0.743071 1.000000
tan -0.673135 0.120032 -0.727695 1.000000
tan -0.670469 0.203422 -0.707483 1.000000
tan -0.666687 0.050530 -0.746171 1.000000
f 3/3/3 2/2/2 1/1/1
f 4/4/4 1/1/1 2/2/2
f 6/6/6 4/4/4 5/5/5
f 7/7/7 5/5/5 4/4/4
f 2/2/2 8/8/8 4/4/4
f 7/7/7 4/4/4 8/8/8
f 2/2/2 9/9/9 8/8/8
f 10/10/10 8/8/8 9/9/9
f 7/7/7 8/8/8 11/11/11
f 13/13/13 12/12/12 11/11/11
f 14/14/14 11/11/11 12/12/12
f 16/16/16 15/15/15 11/11/11
f 14/14/14 17/17/17 11/11/11
f 14/14/14 18/18/18 17/17/17
f 19/19/19 17/17/17 18/18/18
f 7/7/7 11/11/11 17/17/17
f 7/7/7 17/17/17 20/20/20
f 21/21/21 20/20/20 17/17/17
f 22/22/22 16/16/16 11/11/11
f 22/22/22 11/11/11 8/8/8
f 16/16/16 22/22/22 23/23/23
f 24/24/24 23/23/23 22/22/22
f 25/25/25 22/22/22 8/8/8
f 8/8/8 26/26/26 25/25/25
f 27/27/27 25/25/25 26/26/26
f 29/29/29 28/28/28 25/25/25
f 30/30/30 25/25/25 28/28/28
f 30/30/30 22/22/22 25/25/25
f 31/31/31 22/22/22 30/30/30
f 32/32/32 31/31/31 30/30/30
f 35/35/35 34/34/34 33/33/33
f 36/36/36 33/33/33 34/34/34
f 38/38/38 36/36/36 37/37/37
f 39/39/39 37/37/37 36/36/36
f 41/41/41 39/39/39 40/40/40
f 42/42/42 40/40/40 39/39/39
f 42/42/42 39/39/39 43/43/43
f 36/36/36 43/43/43 39/39/39
f 42/42/42 43/43/43 44/44/44
f 45/45/45 44/44/44 43/43/43
f 47/47/47 43/43/43 46/46/46
f 48/48/48 46/46/46 43/43/43
f 48/48/48 43/43/43 49/49/49
f 48/48/48 49/49/49 50/50/50
f 51/51/51 50/50/50 49/49/49
f 53/53/53 49/49/49 52/52/52
f 54/54/54 52/52/52 49/49/49
f 54/54/54 49/49/49 43/43/43
f 43/43/43 36/36/36 54/54/54
f 55/55/55 54/54/54 36/36/36
f 36/36/36 34/34/34 55/55/55
f 34/34/34 56/56/56 55/55/55
f 58/58/58 57/57/57 55/55/55
f 59/59/59 55/55/55 57/57/57
f 60/60/60 54/54/54 55/55/55
f 59/59/59 60/60/60 55/55/55
f 54/54/54 60/60/60 61/61/61
f 62/62/62 61/61/61 60/60/60
f 59/59/59 63/63/63 60/60/60
f 64/64/64 60/60/60 63/63/63
f 67/67/67 66/66/66 65/65/65
f 68/68/68 65/65/65 66/66/66
f 66/66/66 69/69/69 68/68/68
f 65/65/65 68/68/68 70/70/70
f 71/71/71 68/68/68 69/69/69
f 69/69/69 72/72/72 71/71/71
f 73/73/73 70/70/70 68/68/68
f 68/68/68 71/71/71 73/73/73
f 70/70/70 73/73/73 74/74/74
f 71/71/71 72/72/72 75/75/75
f 72/72/72 76/76/76 75/75/75
f 77/77/77 73/73/73 71/71/71
f 71/71/71 75/75/75 77/77/77
f 78/78/78 74/74/74 73/73/73
f 73/73/73 77/77/77 78/78/78
f 79/79/79 75/75/75 76/76/76
f 76/76/76 80/80/80 79/79/79
f 81/81/81 79/79/79 80/80/80
f 82/82/82 77/77/77 75/75/75
f 75/75/75 79/79/79 82/82/82
f 79/79/79 81/81/81 83/83/83
f 83/83/83 82/82/82 79/79/79
f 84/84/84 83/83/83 81/81/81
f 83/83/83 84/84/84 85/85/85
f 83/83/83 85/85/85 82/82/82
f 86/86/86 85/85/85 84/84/84
f 86/86/86 87/87/87 85/85/85
f 77/77/77 82/82/82 88/88/88
f 88/88/88 78/78/78 77/77/77
f 85/85/85 89/89/89 82/82/82
f 89/89/89 88/88/88 82/82/82
f 87/87/87 90/90/90 85/85/85
f 87/87/87 91/91/91 90/90/90
f 89/89/89 85/85/85 92/92/92
f 90/90/90 92/92/92 85/85/85
f 89/89/89 92/92/92 88/88/88
f 91/91/91 93/93/93 90/90/90
f 92/92/92 90/90/90 93/93/93
f 91/91/91 94/94/94 93/93/93
f 95/95/95 88/88/88 92/92/92
f 94/94/94 96/96/96 93/93/93
f 93/93/93 97/97/97 92/92/92
f 92/92/92 97/97/97 95/95/95
f 97/97/97 93/93/93 96/96/96
f 94/94/94 98/98/98 96/96/96
f 95/95/95 99/99/99 88/88/88
f 78/78/78 88/88/88 99/99/99
f 78/78/78 99/99/99 74/74/74
f 100/100/100 74/74/74 99/99/99
f 99/99/99 95/95/95 101/101/101
f 101/101/101 95/95/95 97/97/97
f 99/99/99 102/102/102 100/100/100
f 102/102/102 99/99/99 101/101/101
f 103/103/103 100/100/100 102/102/102
f 97/97/97 104/104/104 101/101/101
f 96/96/96 104/104/104 97/97/97
f 102/102/102 101/101/101 105/105/105
f 105/105/105 101/101/101 104/104/104
f 102/102/102 106/106/106 103/103/103
f 106/106/106 102/102/102 105/105/105
f 107/107/107 103/103/103 106/106/106
f 104/104/104 108/108/108 105/105/105
f 104/104/104 96/96/96 108/108/108
f 106/106/106 105/105/105 109/109/109
f 109/109/109 105/105/105 108/108/108
f 106/106/106 110/110/110 107/107/107
f 110/110/110 106/106/106 109/109/109
f 111/111/111 107/107/107 110/110/110
f 111/111/111 110/110/110 112/112/112
f 113/113/113 112/112/112 110/110/110
f 110/110/110 109/109/109 113/113/113
f 112/112/112 113/113/113 114/114/114
f 115/115/115 113/113/113 109/109/109
f 108/108/108 115/115/115 109/109/109
f 116/116/116 114/114/114 113/113/113
f 113/113/113 115/115/115 116/116/116
f 114/114/114 116/116/116 117/117/117
f 118/118/118 117/117/117 116/116/116
f 117/117/117 118/118/118 119/119/119
f 120/120/120 116/116/116 115/115/115
f 116/116/116 120/120/120 118/118/118
f 121/121/121 120/120/120 115/115/115
f 115/115/115 108/108/108 121/121/121
f 122/122/122 118/118/118 120/120/120
f 120/120/120 121/121/121 123/123/123
f 122/122/122 120/120/120 123/123/123
f 124/124/124 119/119/119 118/118/118
f 118/118/118 122/122/122 124/124/124
f 124/124/124 125/125/125 119/119/119
f 126/126/126 119/119/119 125/125/125
f 127/127/127 124/124/124 122/122/122
f 124/124/124 127/127/127 125/125/125
f 122/122/122 123/123/123 128/128/128
f 122/122/122 128/128/128 127/127/127
f 123/123/123 121/121/121 129/129/129
f 123/123/123 129/129/129 128/128/128
f 121/121/121 108/108/108 130/130/130
f 130/130/130 129/129/129 121/121/121
f 108/108/108 131/131/131 130/130/130
f 131/131/131 108/108/108 96/96/96
f 98/98/98 131/131/131 96/96/96
f 131/131/131 98/98/98 130/130/130
f 132/132/132 130/130/130 98/98/98
f 130/130/130 132/132/132 129/129/129
f 133/133/133 129/129/129 132/132/132
f 129/129/129 133/133/133 134/134/134
f 134/134/134 128/128/128 129/129/129
f 135/135/135 134/134/134 133/133/133
f 134/134/134 135/135/135 136/136/136
f 134/134/134 136/136/136 128/128/128
f 137/137/137 136/136/136 135/135/135
f 137/137/137 138/138/138 136/136/136
f 139/139/139 128/128/128 136/136/136
f 127/127/127 128/128/128 139/139/139
f 138/138/138 140/140/140 136/136/136
f 136/136/136 140/140/140 139/139/139
f 138/138/138 141/141/141 140/140/140
f 139/139/139 142/142/142 127/127/127
f 142/142/142 139/139/139 140/140/140
f 141/141/141 143/143/143 140/140/140
f 140/140/140 143/143/143 142/142/142
f 141/141/141 144/144/144 143/143/143
f 145/145/145 127/127/127 142/142/142
f 145/145/145 125/125/125 127/127/127
f 143/143/143 146/146/146 142/142/142
f 142/142/142 146/146/146 145/145/145
f 144/144/144 147/147/147 143/143/143
f 144/144/144 148/148/148 147/147/147
f 149/149/149 145/145/145 146/146/146
f 125/125/125 145/145/145 149/149/149
f 146/146/146 143/143/143 150/150/150
f 147/147/147 150/150/150 143/143/143
f 146/146/146 150/150/150 149/149/149
f 148/148/148 151/151/151 147/147/147
f 151/151/151 150/150/150 147/147/147
f 151/151/151 148/148/148 152/152/152
f 153/153/153 152/152/152 148/148/148
f 151/151/151 154/154/154 150/150/150
f 154/154/154 151/151/151 152/152/152
f 155/155/155 149/149/149 150/150/150
f 150/150/150 154/154/154 155/155/155
f 156/156/156 125/125/125 149/149/149
f 156/156/156 149/149/149 155/155/155
f 125/125/125 156/156/156 126/126/126
f 157/157/157 126/126/126 156/156/156
f 156/156/156 158/158/158 157/157/157
f 158/158/158 156/156/156 155/155/155
f 159/159/159 157/157/157 158/158/158
f 160/160/160 155/155/155 154/154/154
f 158/158/158 155/155/155 160/160/160
f 158/158/158 161/161/161 159/159/159
f 161/161/161 158/158/158 160/160/160
f 162/162/162 159/159/159 161/161/161
f 162/162/162 161/161/161 163/163/163
f 164/164/164 163/163/163 161/161/161
f 161/161/161 160/160/160 164/164/164
f 163/163/163 164/164/164 165/165/165
f 154/154/154 166/166/166 160/160/160
f 152/152/152 166/166/166 154/154/154
f 167/167/167 164/164/164 160/160/160
f 167/167/167 160/160/160 166/166/166
f 168/168/168 165/165/165 164/164/164
f 164/164/164 167/167/167 168/168/168
f 165/165/165 168/168/168 169/169/169
f 170/170/170 168/168/168 167/167/167
f 166/166/166 170/170/170 167/167/167
f 171/171/171 169/169/169 168/168/168
f 168/168/168 170/170/170 171/171/171
f 169/169/169 171/171/171 172/172/172
f 170/170/170 166/166/166 173/173/173
f 174/174/174 172/172/172 171/171/171
f 173/173/173 166/166/166 175/175/175
f 166/166/166 152/152/152 175/175/175
f 152/152/152 153/153/153 175/175/175
f 176/176/176 175/175/175 153/153/153
f 175/175/175 176/176/176 177/177/177
f 173/173/173 175/175/175 177/177/177
f 178/178/178 177/177/177 176/176/176
f 179/179/179 173/173/173 177/177/177
f 173/173/173 179/179/179 170/170/170
f 177/177/177 178/178/178 180/180/180
f 179/179/179 177/177/177 180/180/180
f 181/181/181 180/180/180 178/178/178
f 181/181/181 182/182/182 180/180/180
f 183/183/183 170/170/170 179/179/179
f 183/183/183 171/171/171 170/170/170
f 171/171/171 183/183/183 174/174/174
f 179/179/179 184/184/184 183/183/183
f 184/184/184 179/179/179 180/180/180
f 185/185/185 174/174/174 183/183/183
f 185/185/185 183/183/183 184/184/184
f 182/182/182 186/186/186 180/180/180
f 182/182/182 187/187/187 186/186/186
f 184/184/184 180/180/180 188/188/188
f 186/186/186 188/188/188 180/180/180
f 187/187/187 189/189/189 186/186/186
f 186/186/186 189/189/189 188/188/188
f 187/187/187 190/190/190 189/189/189
f 191/191/191 184/184/184 188/188/188
f 184/184/184 191/191/191 185/185/185
f 192/192/192 188/188/188 189/189/189
f 188/188/188 192/192/192 191/191/191
f 190/190/190 193/193/193 189/189/189
f 189/189/189 193/193/193 192/192/192
f 190/190/190 194/194/194 193/193/193
f 191/191/191 195/195/195 185/185/185
f 174/174/174 185/185/185 195/195/195
f 174/174/174 195/195/195 172/172/172
f 196/196/196 172/172/172 195/195/195
f 195/195/195 191/191/191 197/197/197
f 197/197/197 191/191/191 192/192/192
f 195/195/195 198/198/198 196/196/196
f 198/198/198 195/195/195 197/197/197
f 199/199/199 196/196/196 198/198/198
f 197/197/197 192/192/192 200/200/200
f 198/198/198 197/197/197 200/200/200
f 198/198/198 201/201/201 199/199/199
f 201/201/201 198/198/198 200/200/200
f 202/202/202 199/199/199 201/201/201
f 200/200/200 192/192/192 203/203/203
f 203/203/203 192/192/192 193/193/193
f 201/201/201 204/204/204 202/202/202
f 205/205/205 202/202/202 204/204/204
f 205/205/205 204/204/204 206/206/206
f 203/203/203 193/193/193 207/207/207
f 203/203/203 207/207/207 200/200/200
f 208/208/208 206/206/206 204/204/204
f 206/206/206 208/208/208 209/209/209
f 204/204/204 201/201/201 210/210/210
f 201/201/201 200/200/200 210/210/210
f 204/204/204 210/210/210 208/208/208
f 210/210/210 200/200/200 207/207/207
f 211/211/211 209/209/209 208/208/208
f 209/209/209 211/211/211 212/212/212
f 213/213/213 208/208/208 210/210/210
f 208/208/208 213/213/213 211/211/211
f 207/207/207 214/214/214 210/210/210
f 213/213/213 210/210/210 214/214/214
f 215/215/215 207/207/207 193/193/193
f 207/207/207 215/215/215 214/214/214
f 194/194/194 215/215/215 193/193/193
f 215/215/215 194/194/194 216/216/216
f 216/216/216 214/214/214 215/215/215
f 217/217/217 216/216/216 194/194/194
f 213/213/213 214/214/214 218/218/218
f 218/218/218 211/211/211 213/213/213
f 214/214/214 216/216/216 219/219/219
f 219/219/219 218/218/218 214/214/214
f 216/216/216 217/217/217 220/220/220
f 220/220/220 219/219/219 216/216/216
f 221/221/221 220/220/220 217/217/217
f 220/220/220 221/221/221 222/222/222
f 222/222/222 219/219/219 220/220/220
f 223/223/223 222/222/222 221/221/221
f 219/219/219 224/224/224 218/218/218
f 222/222/222 224/224/224 219/219/219
f 222/222/222 223/223/223 225/225/225
f 226/226/226 225/225/225 223/223/223
f 226/226/226 227/227/227 225/225/225
f 224/224/224 222/222/222 228/228/228
f 225/225/225 228/228/228 222/222/222
f 227/227/227 229/229/229 225/225/225
f 228/228/228 225/225/225 229/229/229
f 227/227/227 230/230/230 229/229/229
f 224/224/224 228/228/228 231/231/231
f 231/231/231 218/218/218 224/224/224
f 230/230/230 232/232/232 229/229/229
f 230/230/230 233/233/233 232/232/232
f 234/234/234 228/228/228 229/229/229
f 233/233/233 235/235/235 232/232/232
f 233/233/233 236/236/236 235/235/235
f 232/232/232 237/237/237 229/229/229
f 234/234/234 229/229/229 237/237/237
f 239/239/239 238/238/238 236/236/236
f 240/240/240 236/236/236 238/238/238
f 236/236/236 240/240/240 235/235/235
f 238/238/238 241/241/241 240/240/240
f 240/240/240 242/242/242 235/235/235
f 242/242/242 240/240/240 241/241/241
f 235/235/235 243/243/243 232/232/232
f 243/243/243 235/235/235 242/242/242
f 237/237/237 232/232/232 243/243/243
f 242/242/242 241/241/241 244/244/244
f 244/244/244 243/243/243 242/242/242
f 245/245/245 244/244/244 241/241/241
f 245/245/245 246/246/246 244/244/244
f 247/247/247 237/237/237 243/243/243
f 244/244/244 247/247/247 243/243/243
f 248/248/248 244/244/244 246/246/246
f 246/246/246 249/249/249 248/248/248
f 250/250/250 248/248/248 249/249/249
f 250/250/250 251/251/251 248/248/248
f 248/248/248 252/252/252 244/244/244
f 252/252/252 248/248/248 251/251/251
f 247/247/247 244/244/244 252/252/252
f 251/251/251 253/253/253 252/252/252
f 254/254/254 252/252/252 253/253/253
f 252/252/252 254/254/254 247/247/247
f 253/253/253 255/255/255 254/254/254
f 254/254/254 256/256/256 247/247/247
f 237/237/237 247/247/247 256/256/256
f 257/257/257 254/254/254 255/255/255
f 254/254/254 257/257/257 256/256/256
f 255/255/255 258/258/258 257/257/257
f 256/256/256 259/259/259 237/237/237
f 257/257/257 259/259/259 256/256/256
f 234/234/234 237/237/237 259/259/259
f 259/259/259 260/260/260 234/234/234
f 259/259/259 257/257/257 260/260/260
f 228/228/228 234/234/234 260/260/260
f 260/260/260 231/231/231 228/228/228
f 261/261/261 260/260/260 257/257/257
f 260/260/260 261/261/261 231/231/231
f 261/261/261 257/257/257 258/258/258
f 262/262/262 231/231/231 261/261/261
f 261/261/261 258/258/258 262/262/262
f 231/231/231 262/262/262 218/218/218
f 212/212/212 262/262/262 258/258/258
f 211/211/211 218/218/218 262/262/262
f 262/262/262 212/212/212 211/211/211
f 265/265/265 264/264/264 263/263/263
f 265/265/265 266/266/266 264/264/264
f 267/267/267 263/263/263 264/264/264
f 263/263/263 267/267/267 268/268/268
f 269/269/269 264/264/264 266/266/266
f 266/266/266 270/270/270 269/269/269
f 271/271/271 267/267/267 264/264/264
f 264/264/264 269/269/269 271/271/271
f 272/272/272 268/268/268 267/267/267
f 273/273/273 269/269/269 270/270/270
f 267/267/267 274/274/274 272/272/272
f 274/274/274 267/267/267 271/271/271
f 268/268/268 272/272/272 275/275/275
f 276/276/276 268/268/268 275/275/275
f 276/276/276 275/275/275 277/277/277
f 278/278/278 272/272/272 274/274/274
f 272/272/272 278/278/278 275/275/275
f 279/279/279 277/277/277 275/275/275
f 280/280/280 275/275/275 278/278/278
f 275/275/275 280/280/280 279/279/279
f 277/277/277 279/279/279 281/281/281
f 281/281/281 282/282/282 277/277/277
f 279/279/279 280/280/280 283/283/283
f 282/282/282 281/281/281 284/284/284
f 284/284/284 285/285/285 282/282/282
f 281/281/281 279/279/279 286/286/286
f 283/283/283 286/286/286 279/279/279
f 281/281/281 286/286/286 284/284/284
f 283/283/283 280/280/280 287/287/287
f 283/283/283 287/287/287 286/286/286
f 284/284/284 288/288/288 285/285/285
f 288/288/288 289/289/289 285/285/285
f 284/284/284 286/286/286 290/290/290
f 290/290/290 288/288/288 284/284/284
f 288/288/288 291/291/291 289/289/289
f 292/292/292 289/289/289 291/291/291
f 288/288/288 290/290/290 293/293/293
f 293/293/293 291/291/291 288/288/288
f 290/290/290 286/286/286 294/294/294
f 290/290/290 294/294/294 293/293/293
f 291/291/291 295/295/295 292/292/292
f 296/296/296 292/292/292 295/295/295
f 296/296/296 295/295/295 297/297/297
f 291/291/291 293/293/293 298/298/298
f 298/298/298 295/295/295 291/291/291
f 299/299/299 293/293/293 294/294/294
f 293/293/293 299/299/299 298/298/298
f 300/300/300 294/294/294 286/286/286
f 300/300/300 286/286/286 287/287/287
f 299/299/299 294/294/294 301/301/301
f 294/294/294 300/300/300 302/302/302
f 302/302/302 301/301/301 294/294/294
f 300/300/300 287/287/287 303/303/303
f 303/303/303 302/302/302 300/300/300
f 301/301/301 304/304/304 299/299/299
f 304/304/304 298/298/298 299/299/299
f 302/302/302 305/305/305 301/301/301
f 305/305/305 302/302/302 306/306/306
f 303/303/303 306/306/306 302/302/302
f 307/307/307 301/301/301 305/305/305
f 306/306/306 303/303/303 308/308/308
f 301/301/301 307/307/307 309/309/309
f 301/301/301 309/309/309 304/304/304
f 310/310/310 309/309/309 307/307/307
f 310/310/310 311/311/311 309/309/309
f 312/312/312 308/308/308 303/303/303
f 312/312/312 303/303/303 287/287/287
f 313/313/313 309/309/309 311/311/311
f 311/311/311 314/314/314 313/313/313
f 309/309/309 315/315/315 304/304/304
f 309/309/309 313/313/313 315/315/315
f 298/298/298 304/304/304 315/315/315
f 316/316/316 313/313/313 314/314/314
f 314/314/314 317/317/317 316/316/316
f 313/313/313 318/318/318 315/315/315
f 316/316/316 318/318/318 313/313/313
f 315/315/315 319/319/319 298/298/298
f 319/319/319 315/315/315 318/318/318
f 295/295/295 298/298/298 319/319/319
f 320/320/320 316/316/316 317/317/317
f 316/316/316 320/320/320 318/318/318
f 317/317/317 321/321/321 320/320/320
f 318/318/318 322/322/322 319/319/319
f 323/323/323 320/320/320 321/321/321
f 319/319/319 324/324/324 295/295/295
f 322/322/322 324/324/324 319/319/319
f 324/324/324 297/297/297 295/295/295
f 325/325/325 318/318/318 320/320/320
f 322/322/322 318/318/318 325/325/325
f 320/320/320 323/323/323 325/325/325
f 322/322/322 326/326/326 324/324/324
f 326/326/326 322/322/322 325/325/325
f 324/324/324 327/327/327 297/297/297
f 327/327/327 324/324/324 326/326/326
f 328/328/328 297/297/297 327/327/327
f 328/328/328 327/327/327 329/329/329
f 326/326/326 330/330/330 327/327/327
f 330/330/330 329/329/329 327/327/327
f 326/326/326 325/325/325 331/331/331
f 331/331/331 330/330/330 326/326/326
f 329/329/329 330/330/330 332/332/332
f 330/330/330 331/331/331 332/332/332
f 333/333/333 329/329/329 332/332/332
f 334/334/334 331/331/331 325/325/325
f 334/334/334 325/325/325 323/323/323
f 335/335/335 332/332/332 331/331/331
f 323/323/323 336/336/336 334/334/334
f 323/323/323 321/321/321 336/336/336
f 331/331/331 334/334/334 337/337/337
f 337/337/337 334/334/334 336/336/336
f 335/335/335 331/331/331 337/337/337
f 338/338/338 336/336/336 321/321/321
f 335/335/335 337/337/337 339/339/339
f 336/336/336 338/338/338 340/340/340
f 341/341/341 340/340/340 338/338/338
f 337/337/337 336/336/336 342/342/342
f 340/340/340 342/342/342 336/336/336
f 342/342/342 339/339/339 337/337/337
f 340/340/340 341/341/341 343/343/343
f 344/344/344 343/343/343 341/341/341
f 342/342/342 340/340/340 345/345/345
f 345/345/345 340/340/340 343/343/343
f 343/343/343 344/344/344 346/346/346
f 343/343/343 346/346/346 345/345/345
f 347/347/347 346/346/346 344/344/344
f 347/347/347 348/348/348 346/346/346
f 345/345/345 349/349/349 342/342/342
f 339/339/339 342/342/342 349/349/349
f 350/350/350 345/345/345 346/346/346
f 345/345/345 350/350/350 349/349/349
f 351/351/351 346/346/346 348/348/348
f 348/348/348 352/352/352 351/351/351
f 353/353/353 346/346/346 351/351/351
f 350/350/350 346/346/346 353/353/353
f 354/354/354 351/351/351 352/352/352
f 351/351/351 354/354/354 353/353/353
f 352/352/352 355/355/355 354/354/354
f 353/353/353 356/356/356 350/350/350
f 357/357/357 354/354/354 355/355/355
f 355/355/355 358/358/358 357/357/357
f 359/359/359 353/353/353 354/354/354
f 354/354/354 357/357/357 360/360/360
f 354/354/354 360/360/360 359/359/359
f 361/361/361 357/357/357 358/358/358
f 357/357/357 361/361/361 360/360/360
f 359/359/359 362/362/362 353/353/353
f 362/362/362 359/359/359 360/360/360
f 356/356/356 353/353/353 362/362/362
f 361/361/361 358/358/358 363/363/363
f 364/364/364 363/363/363 358/358/358
f 365/365/365 360/360/360 361/361/361
f 363/363/363 364/364/364 366/366/366
f 367/367/367 366/366/366 364/364/364
f 363/363/363 368/368/368 361/361/361
f 363/363/363 366/366/366 368/368/368
f 368/368/368 365/365/365 361/361/361
f 366/366/366 367/367/367 369/369/369
f 370/370/370 369/369/369 367/367/367
f 371/371/371 368/368/368 366/366/366
f 369/369/369 370/370/370 372/372/372
f 373/373/373 372/372/372 370/370/370
f 369/369/369 374/374/374 366/366/366
f 369/369/369 372/372/372 374/374/374
f 371/371/371 366/366/366 374/374/374
f 373/373/373 375/375/375 372/372/372
f 376/376/376 368/368/368 371/371/371
f 368/368/368 376/376/376 365/365/365
f 377/377/377 372/372/372 375/375/375
f 375/375/375 378/378/378 377/377/377
f 379/379/379 365/365/365 376/376/376
f 380/380/380 377/377/377 378/378/378
f 378/378/378 381/381/381 380/380/380
f 377/377/377 382/382/382 372/372/372
f 377/377/377 380/380/380 382/382/382
f 383/383/383 372/372/372 382/382/382
f 383/383/383 374/374/374 372/372/372
f 384/384/384 380/380/380 381/381/381
f 381/381/381 385/385/385 384/384/384
f 383/383/383 386/386/386 374/374/374
f 383/383/383 382/382/382 386/386/386
f 387/387/387 384/384/384 385/385/385
f 388/388/388 374/374/374 386/386/386
f 374/374/374 388/388/388 371/371/371
f 387/387/387 385/385/385 389/389/389
f 390/390/390 389/389/389 385/385/385
f 391/391/391 371/371/371 388/388/388
f 391/391/391 376/376/376 371/371/371
f 389/389/389 390/390/390 392/392/392
f 393/393/393 392/392/392 390/390/390
f 376/376/376 391/391/391 394/394/394
f 392/392/392 393/393/393 395/395/395
f 396/396/396 395/395/395 393/393/393
f 397/397/397 394/394/394 391/391/391
f 391/391/391 388/388/388 397/397/397
f 395/395/395 396/396/396 398/398/398
f 399/399/399 398/398/398 396/396/396
f 399/399/399 400/400/400 398/398/398
f 401/401/401 397/397/397 388/388/388
f 388/388/388 386/386/386 401/401/401
f 397/397/397 401/401/401 402/402/402
f 402/402/402 403/403/403 397/397/397
f 394/394/394 397/397/397 403/403/403
f 404/404/404 402/402/402 401/401/401
f 403/403/403 405/405/405 394/394/394
f 404/404/404 401/401/401 406/406/406
f 406/406/406 401/401/401 386/386/386
f 407/407/407 404/404/404 406/406/406
f 407/407/407 406/406/406 408/408/408
f 409/409/409 408/408/408 406/406/406
f 406/406/406 386/386/386 409/409/409
f 408/408/408 409/409/409 410/410/410
f 411/411/411 409/409/409 386/386/386
f 411/411/411 386/386/386 382/382/382
f 412/412/412 410/410/410 409/409/409
f 382/382/382 413/413/413 411/411/411
f 413/413/413 382/382/382 380/380/380
f 411/411/411 414/414/414 409/409/409
f 412/412/412 409/409/409 414/414/414
f 414/414/414 411/411/411 413/413/413
f 410/410/410 412/412/412 415/415/415
f 412/412/412 414/414/414 415/415/415
f 415/415/415 416/416/416 410/410/410
f 416/416/416 415/415/415 417/417/417
f 414/414/414 413/413/413 418/418/418
f 415/415/415 414/414/414 418/418/418
f 413/413/413 380/380/380 419/419/419
f 419/419/419 418/418/418 413/413/413
f 419/419/419 380/380/380 384/384/384
f 384/384/384 387/387/387 419/419/419
f 420/420/420 419/419/419 387/387/387
f 419/419/419 420/420/420 418/418/418
f 387/387/387 389/389/389 420/420/420
f 418/418/418 421/421/421 415/415/415
f 421/421/421 417/417/417 415/415/415
f 422/422/422 418/418/418 420/420/420
f 421/421/421 418/418/418 422/422/422
f 423/423/423 420/420/420 389/389/389
f 389/389/389 392/392/392 423/423/423
f 422/422/422 420/420/420 424/424/424
f 423/423/423 424/424/424 420/420/420
f 422/422/422 424/424/424 421/421/421
f 425/425/425 423/423/423 392/392/392
f 424/424/424 423/423/423 425/425/425
f 421/421/421 426/426/426 417/417/417
f 426/426/426 421/421/421 424/424/424
f 426/426/426 427/427/427 417/417/417
f 427/427/427 426/426/426 270/270/270
f 273/273/273 270/270/270 426/426/426
f 424/424/424 428/428/428 426/426/426
f 273/273/273 426/426/426 428/428/428
f 425/425/425 428/428/428 424/424/424
f 428/428/428 269/269/269 273/273/273
f 428/428/428 429/429/429 269/269/269
f 428/428/428 425/425/425 429/429/429
f 429/429/429 271/271/271 269/269/269
f 430/430/430 429/429/429 425/425/425
f 429/429/429 430/430/430 271/271/271
f 392/392/392 430/430/430 425/425/425
f 395/395/395 430/430/430 392/392/392
f 395/395/395 398/398/398 430/430/430
f 431/431/431 271/271/271 430/430/430
f 431/431/431 430/430/430 398/398/398
f 271/271/271 431/431/431 432/432/432
f 431/431/431 398/398/398 432/432/432
f 274/274/274 271/271/271 432/432/432
f 433/433/433 432/432/432 398/398/398
f 433/433/433 398/398/398 400/400/400
f 400/400/400 434/434/434 433/433/433
f 274/274/274 432/432/432 435/435/435
f 436/436/436 433/433/433 434/434/434
f 433/433/433 436/436/436 432/432/432
f 435/435/435 432/432/432 436/436/436
f 434/434/434 437/437/437 436/436/436
f 278/278/278 274/274/274 435/435/435
f 438/438/438 436/436/436 437/437/437
f 436/436/436 438/438/438 435/435/435
f 437/437/437 308/308/308 438/438/438
f 312/312/312 438/438/438 308/308/308
f 278/278/278 435/435/435 439/439/439
f 439/439/439 435/435/435 438/438/438
f 438/438/438 312/312/312 439/439/439
f 280/280/280 278/278/278 439/439/439
f 287/287/287 439/439/439 312/312/312
f 439/439/439 287/287/287 280/280/280
f 394/394/394 440/440/440 376/376/376
f 379/379/379 376/376/376 440/440/440
f 440/440/440 394/394/394 405/405/405
f 440/440/440 441/441/441 379/379/379
f 365/365/365 379/379/379 441/441/441
f 441/441/441 360/360/360 365/365/365
f 440/440/440 405/405/405 442/442/442
f 441/441/441 440/440/440 442/442/442
f 443/443/443 442/442/442 405/405/405
f 360/360/360 441/441/441 362/362/362
f 442/442/442 443/443/443 444/444/444
f 442/442/442 444/444/444 441/441/441
f 362/362/362 441/441/441 444/444/444
f 445/445/445 444/444/444 443/443/443
f 444/444/444 446/446/446 362/362/362
f 444/444/444 445/445/445 446/446/446
f 356/356/356 362/362/362 446/446/446
f 447/447/447 446/446/446 445/445/445
f 446/446/446 447/447/447 448/448/448
f 446/446/446 448/448/448 356/356/356
f 449/449/449 448/448/448 447/447/447
f 448/448/448 449/449/449 450/450/450
f 451/451/451 356/356/356 448/448/448
f 451/451/451 350/350/350 356/356/356
f 451/451/451 349/349/349 350/350/350
f 448/448/448 452/452/452 451/451/451
f 349/349/349 451/451/451 452/452/452
f 450/450/450 452/452/452 448/448/448
f 452/452/452 453/453/453 349/349/349
f 452/452/452 450/450/450 453/453/453
f 339/339/339 349/349/349 453/453/453
f 454/454/454 453/453/453 450/450/450
f 339/339/339 453/453/453 335/335/335
f 453/453/453 454/454/454 333/333/333
f 332/332/332 335/335/335 453/453/453
f 333/333/333 332/332/332 453/453/453
