mtllib SM_Debris_Corner_01.mtl
g SM_Debris_Corner_01
#Vertices 51
#Indices 192
#Section 0 Offset 0 NumIndices 192 MaterialIndex 0 MI_Debris_Corner_01
v 0.115289 -0.114899 -1.305162
v 0.183313 0.009917 -1.305915
v 0.112758 0.035598 -1.142675
v 0.038398 -0.046734 -1.141923
v -0.022951 -0.160860 -1.304125
v -0.084590 -0.109960 -1.140885
v 0.079544 0.057376 -0.979436
v -0.084557 -0.081970 -0.977646
v 0.032068 -0.039825 -0.978683
v 0.071451 0.061056 -0.816197
v 0.027740 -0.040151 -0.815444
v -0.087025 -0.085220 -0.814407
v -0.080214 -0.079794 -0.651168
v 0.027723 -0.035202 -0.652205
v 0.073466 0.071824 -0.652958
v 0.074328 0.064395 -0.489719
v 0.034864 -0.046621 -0.488966
v -0.079394 -0.087796 -0.487929
v 0.074270 0.061284 -0.326480
v 0.038829 -0.061772 -0.325727
v -0.083555 -0.085659 -0.324690
v -0.072870 -0.086515 -0.161451
v 0.042942 -0.038845 -0.162488
v 0.084185 0.064160 -0.163241
v 0.080372 0.065346 -0.000002
v 0.046016 -0.044048 0.000751
v -0.079498 -0.080781 0.001788
v 0.076313 0.067735 0.163237
v 0.038407 -0.037637 0.163990
v -0.081299 -0.078806 0.165027
v 0.076231 0.063920 0.326477
v 0.052133 -0.048238 0.327229
v -0.072291 -0.092877 0.328266
v -0.077851 -0.079798 0.491505
v 0.056402 -0.044659 0.490468
v 0.091949 0.055241 0.489716
v 0.088447 0.059152 0.652955
v 0.055666 -0.044840 0.653707
v -0.074698 -0.085812 0.654745
v 0.086930 0.058075 0.816194
v 0.039150 -0.061013 0.816947
v -0.080723 -0.090159 0.817984
v -0.076537 -0.093958 0.981223
v 0.048788 -0.043321 0.980186
v 0.087430 0.062625 0.979433
v 0.111641 0.030894 1.142672
v 0.059920 -0.057379 1.143425
v -0.052781 -0.131660 1.144462
v 0.140519 -0.143392 1.306664
v 0.208223 -0.010056 1.305911
v -0.010601 -0.186857 1.307701
vt 0.992676 0.195312
vt 0.990234 0.247559
vt 0.927734 0.234375
vt 0.929199 0.192871
vt 0.989746 0.142090
vt 0.926758 0.135742
vt 0.866699 0.232422
vt 0.865723 0.147461
vt 0.866699 0.192871
vt 0.804688 0.231445
vt 0.804688 0.191895
vt 0.804199 0.146484
vt 0.742188 0.149902
vt 0.742188 0.192871
vt 0.743164 0.235352
vt 0.681152 0.234375
vt 0.679688 0.191895
vt 0.680176 0.147461
vt 0.618652 0.234863
vt 0.618164 0.189453
vt 0.617676 0.145020
vt 0.555664 0.149414
vt 0.556152 0.195801
vt 0.556152 0.236328
vt 0.494385 0.236328
vt 0.494141 0.195312
vt 0.493652 0.147949
vt 0.432373 0.235840
vt 0.431641 0.195312
vt 0.431641 0.148438
vt 0.370361 0.236328
vt 0.369141 0.196289
vt 0.369385 0.147949
vt 0.307129 0.147461
vt 0.307373 0.198242
vt 0.307617 0.236328
vt 0.245728 0.236816
vt 0.245483 0.197754
vt 0.245117 0.147949
vt 0.183594 0.234375
vt 0.183472 0.189453
vt 0.183105 0.145020
vt 0.121643 0.146484
vt 0.121155 0.196289
vt 0.122253 0.235352
vt 0.061279 0.239258
vt 0.057922 0.195312
vt 0.060669 0.144531
vt -0.006897 0.192871
vt -0.001897 0.249023
vt -0.001497 0.136230
vt1 0.930176 0.195312
vt1 0.927734 0.240723
vt1 0.873535 0.229004
vt1 0.874512 0.192871
vt1 0.927734 0.148438
vt1 0.872559 0.143066
vt1 0.819824 0.227539
vt1 0.818848 0.153320
vt1 0.819824 0.192871
vt1 0.765625 0.226562
vt1 0.765625 0.191895
vt1 0.765137 0.152344
vt1 0.710938 0.155273
vt1 0.710938 0.192871
vt1 0.711914 0.229980
vt1 0.657715 0.229004
vt1 0.656738 0.191895
vt1 0.656738 0.152832
vt1 0.603027 0.229492
vt1 0.602539 0.189941
vt1 0.602051 0.150879
vt1 0.547852 0.154785
vt1 0.548340 0.195312
vt1 0.548340 0.230957
vt1 0.494141 0.230957
vt1 0.493896 0.195312
vt1 0.493408 0.153809
vt1 0.439941 0.230469
vt1 0.439453 0.194824
vt1 0.439209 0.153809
vt1 0.385742 0.230957
vt1 0.384521 0.195801
vt1 0.384766 0.153320
vt1 0.330322 0.152832
vt1 0.330566 0.197266
vt1 0.330811 0.230469
vt1 0.276611 0.231445
vt1 0.276367 0.197266
vt1 0.275879 0.153320
vt1 0.222290 0.229492
vt1 0.222168 0.189941
vt1 0.221802 0.150879
vt1 0.168091 0.151855
vt1 0.167603 0.195801
vt1 0.168579 0.229980
vt1 0.115234 0.233398
vt1 0.112305 0.195312
vt1 0.114685 0.150391
vt1 0.055573 0.192871
vt1 0.059937 0.241699
vt1 0.060272 0.143066
vn -0.566929 0.669291 -0.472441
vn -0.724409 0.496063 -0.472441
vn -0.779528 0.535433 -0.322835
vn -0.598425 0.740157 -0.314961
vn -0.346457 0.826771 -0.448819
vn -0.377953 0.881890 -0.275591
vn -0.866142 0.488189 -0.094488
vn -0.377953 0.921260 -0.055118
vn -0.661417 0.748031 -0.078740
vn -0.913386 0.409449 -0.023622
vn -0.685039 0.724409 -0.015748
vn -0.362205 0.929134 -0.007874
vn -0.370079 0.929134 0.023622
vn -0.708661 0.708661 0.023622
vn -0.921260 0.377953 0.015748
vn -0.944882 0.338583 0.039370
vn -0.700787 0.708661 0.047244
vn -0.314961 0.952756 0.047244
vn -0.952756 0.314961 0.023622
vn -0.677165 0.732283 0.007874
vn -0.275591 0.960630 -0.007874
vn -0.307087 0.952756 -0.031496
vn -0.716535 0.700787 -0.007874
vn -0.944882 0.330709 0.007874
vn -0.944882 0.330709 -0.023622
vn -0.700787 0.708661 -0.023622
vn -0.314961 0.944882 -0.015748
vn -0.952756 0.299213 0.007874
vn -0.716535 0.700787 0.023622
vn -0.314961 0.944882 0.031496
vn -0.960630 0.275591 0.055118
vn -0.716535 0.692913 0.047244
vn -0.314961 0.952756 0.023622
vn -0.283465 0.960630 -0.015748
vn -0.708661 0.708661 0.007874
vn -0.952756 0.291339 0.023622
vn -0.944882 0.330709 -0.023622
vn -0.700787 0.716535 -0.000000
vn -0.275591 0.960630 0.031496
vn -0.937008 0.346457 -0.015748
vn -0.661417 0.755905 -0.000000
vn -0.291339 0.960630 0.007874
vn -0.385827 0.921260 0.078740
vn -0.716535 0.692913 0.086614
vn -0.921260 0.385827 0.078740
vn -0.834646 0.417323 0.362205
vn -0.645669 0.661417 0.377953
vn -0.409449 0.850394 0.338583
vn -0.566929 0.622047 0.535433
vn -0.732283 0.401575 0.551181
vn -0.354331 0.803150 0.480315
tan -0.750201 -0.659929 -0.034658 1.000000
tan -0.597247 -0.789385 0.086924 1.000000
tan -0.582181 -0.810279 0.061876 1.000000
tan -0.768802 -0.637361 -0.037076 1.000000
tan -0.881084 -0.450431 -0.149606 1.000000
tan -0.896646 -0.418687 -0.110112 1.000000
tan -0.490297 -0.866018 0.019964 1.000000
tan -0.923430 -0.380557 -0.028644 1.000000
tan -0.752371 -0.665757 -0.004774 1.000000
tan -0.409821 -0.913944 0.004712 1.000000
tan -0.724657 -0.685287 -0.000620 1.000000
tan -0.929196 -0.362267 -0.004464 1.000000
tan -0.929506 -0.370451 0.008804 1.000000
tan -0.709033 -0.709033 0.000000 1.000000
tan -0.378201 -0.921384 -0.011532 1.000000
tan -0.340133 -0.945812 -0.029202 1.000000
tan -0.710521 -0.702275 -0.005270 1.000000
tan -0.954616 -0.317193 0.032612 1.000000
tan -0.315147 -0.953128 -0.002542 1.000000
tan -0.732283 -0.677227 0.005766 1.000000
tan -0.960692 -0.275591 0.002170 1.000000
tan -0.953500 -0.307831 -0.015252 1.000000
tan -0.700911 -0.716535 0.011284 1.000000
tan -0.330709 -0.944944 0.002604 1.000000
tan -0.330895 -0.945254 0.002232 1.000000
tan -0.709033 -0.701159 -0.000124 1.000000
tan -0.945130 -0.315209 -0.009920 1.000000
tan -0.299275 -0.952756 -0.007502 1.000000
tan -0.701159 -0.716721 -0.005766 1.000000
tan -0.945626 -0.315705 0.014880 1.000000
tan -0.278195 -0.963234 -0.032364 1.000000
tan -0.694029 -0.718023 0.004898 1.000000
tan -0.953128 -0.315519 0.017546 1.000000
tan -0.960878 -0.283589 -0.003100 1.000000
tan -0.708661 -0.708723 0.005580 1.000000
tan -0.291711 -0.953314 -0.008122 1.000000
tan -0.331267 -0.945254 0.017112 1.000000
tan -0.716535 -0.700787 -0.005518 1.000000
tan -0.961622 -0.276087 0.006448 1.000000
tan -0.346705 -0.937132 0.012028 1.000000
tan -0.755906 -0.661417 -0.005952 1.000000
tan -0.960692 -0.291339 -0.002294 1.000000
tan -0.926220 -0.389547 0.019220 1.000000
tan -0.699051 -0.721309 -0.012586 1.000000
tan -0.390849 -0.917106 -0.079112 1.000000
tan -0.484717 -0.872466 -0.111724 1.000000
tan -0.715729 -0.701097 0.004216 1.000000
tan -0.872776 -0.471077 0.127720 1.000000
tan -0.709591 -0.701097 0.063178 1.000000
tan -0.521793 -0.854238 -0.070866 1.000000
tan -0.851944 -0.489429 0.189906 1.000000
f 3/3/3 2/2/2 1/1/1
f 1/1/1 4/4/4 3/3/3
f 1/1/1 5/5/5 4/4/4
f 5/5/5 6/6/6 4/4/4
f 3/3/3 4/4/4 7/7/7
f 6/6/6 8/8/8 4/4/4
f 4/4/4 9/9/9 7/7/7
f 9/9/9 4/4/4 8/8/8
f 7/7/7 9/9/9 10/10/10
f 9/9/9 8/8/8 11/11/11
f 9/9/9 11/11/11 10/10/10
f 8/8/8 12/12/12 11/11/11
f 12/12/12 13/13/13 11/11/11
f 11/11/11 14/14/14 10/10/10
f 14/14/14 11/11/11 13/13/13
f 15/15/15 10/10/10 14/14/14
f 15/15/15 14/14/14 16/16/16
f 14/14/14 13/13/13 17/17/17
f 14/14/14 17/17/17 16/16/16
f 13/13/13 18/18/18 17/17/17
f 16/16/16 17/17/17 19/19/19
f 17/17/17 18/18/18 20/20/20
f 17/17/17 20/20/20 19/19/19
f 18/18/18 21/21/21 20/20/20
f 21/21/21 22/22/22 20/20/20
f 20/20/20 23/23/23 19/19/19
f 23/23/23 20/20/20 22/22/22
f 24/24/24 19/19/19 23/23/23
f 24/24/24 23/23/23 25/25/25
f 23/23/23 22/22/22 26/26/26
f 23/23/23 26/26/26 25/25/25
f 22/22/22 27/27/27 26/26/26
f 25/25/25 26/26/26 28/28/28
f 26/26/26 27/27/27 29/29/29
f 26/26/26 29/29/29 28/28/28
f 27/27/27 30/30/30 29/29/29
f 28/28/28 29/29/29 31/31/31
f 29/29/29 30/30/30 32/32/32
f 29/29/29 32/32/32 31/31/31
f 30/30/30 33/33/33 32/32/32
f 33/33/33 34/34/34 32/32/32
f 32/32/32 35/35/35 31/31/31
f 35/35/35 32/32/32 34/34/34
f 36/36/36 31/31/31 35/35/35
f 36/36/36 35/35/35 37/37/37
f 35/35/35 34/34/34 38/38/38
f 35/35/35 38/38/38 37/37/37
f 34/34/34 39/39/39 38/38/38
f 37/37/37 38/38/38 40/40/40
f 41/41/41 38/38/38 39/39/39
f 38/38/38 41/41/41 40/40/40
f 39/39/39 42/42/42 41/41/41
f 42/42/42 43/43/43 41/41/41
f 41/41/41 44/44/44 40/40/40
f 44/44/44 41/41/41 43/43/43
f 45/45/45 40/40/40 44/44/44
f 45/45/45 44/44/44 46/46/46
f 44/44/44 43/43/43 47/47/47
f 44/44/44 47/47/47 46/46/46
f 43/43/43 48/48/48 47/47/47
f 47/47/47 49/49/49 46/46/46
f 47/47/47 48/48/48 49/49/49
f 50/50/50 46/46/46 49/49/49
f 48/48/48 51/51/51 49/49/49
