mtllib SM_Debris_Pile_02.mtl
g SM_Debris_Pile_02
#Vertices 35
#Indices 144
#Section 0 Offset 0 NumIndices 144 MaterialIndex 0 MI_Debris_Corner_01
v 0.165446 -0.043073 0.456665
v 0.332356 -0.035211 0.309524
v 0.329149 -0.063572 0.461063
v 0.168654 -0.008044 0.305126
v 0.320617 -0.040696 0.157985
v 0.004950 0.005634 0.303966
v 0.001743 -0.037917 0.455505
v -0.161960 -0.041180 0.448172
v 0.156914 -0.001583 0.153587
v -0.325663 -0.066376 0.448896
v -0.322456 -0.038980 0.297357
v -0.158753 -0.007243 0.296633
v -0.006789 -0.014081 0.152427
v -0.170492 -0.017911 0.145094
v -0.334195 -0.027740 0.145817
v -0.320617 -0.037034 -0.005721
v -0.156914 0.034078 -0.006445
v 0.006789 0.007078 0.000888
v 0.170492 0.031626 0.002047
v 0.334195 -0.034928 0.006446
v 0.321348 -0.040797 -0.145094
v 0.157645 0.039772 -0.149492
v -0.006058 0.023122 -0.150652
v -0.169761 0.020830 -0.157984
v -0.333464 -0.034667 -0.157261
v -0.321864 -0.030589 -0.308800
v -0.158161 0.043734 -0.309523
v -0.321082 -0.078873 -0.460339
v -0.157379 -0.038301 -0.461063
v 0.006324 -0.026426 -0.453730
v 0.005542 0.013692 -0.302190
v 0.170027 -0.037611 -0.452570
v 0.169245 0.023133 -0.301031
v 0.333730 -0.073765 -0.448172
v 0.332948 -0.046590 -0.296633
vt 0.975098 0.348633
vt 0.907715 0.274414
vt 0.977051 0.274414
vt 0.904785 0.348633
vt 0.839355 0.277832
vt 0.905273 0.421875
vt 0.975586 0.422852
vt 0.973145 0.497070
vt 0.836426 0.354004
vt 0.975098 0.571777
vt 0.905273 0.570068
vt 0.903320 0.495605
vt 0.837402 0.428711
vt 0.834961 0.502686
vt 0.836914 0.576172
vt 0.768555 0.574951
vt 0.764648 0.496582
vt 0.768555 0.423340
vt 0.767090 0.349609
vt 0.770020 0.270996
vt 0.699707 0.274902
vt 0.699707 0.356445
vt 0.699707 0.429688
vt 0.697754 0.503662
vt 0.698242 0.582031
vt 0.627441 0.575928
vt 0.630859 0.497070
vt 0.554199 0.578125
vt 0.555664 0.500488
vt 0.560059 0.424805
vt 0.630859 0.424805
vt 0.560059 0.349121
vt 0.632324 0.352051
vt 0.559570 0.272949
vt 0.629395 0.272461
vn 0.094488 0.968504 0.228346
vn 0.165354 0.984252 0.102362
vn 0.133858 0.968504 0.204724
vn 0.102362 0.992126 0.102362
vn 0.251969 0.968504 0.070866
vn -0.007874 0.992126 0.094488
vn 0.000000 0.968504 0.251968
vn -0.110236 0.968504 0.220472
vn 0.094488 0.992126 0.070866
vn -0.165354 0.968504 0.188976
vn -0.149606 0.984252 0.102362
vn -0.102362 0.992126 0.086614
vn -0.023622 1.000000 0.062992
vn -0.094488 0.992126 0.070866
vn -0.181102 0.984252 0.062992
vn -0.299213 0.952756 0.055118
vn -0.110236 0.992126 0.086614
vn -0.031496 0.992126 0.125984
vn 0.133858 0.984252 0.094488
vn 0.354331 0.929134 0.062992
vn 0.417323 0.913386 -0.031496
vn 0.149606 0.992126 -0.015748
vn -0.007874 1.000000 0.015748
vn -0.157480 0.984252 0.023622
vn -0.362205 0.929134 0.023622
vn -0.346457 0.921260 -0.165354
vn -0.125984 0.976378 -0.165354
vn -0.307087 0.874016 -0.377953
vn -0.133858 0.913386 -0.385827
vn 0.039370 0.937008 -0.346457
vn 0.015748 0.984252 -0.188976
vn 0.157480 0.944882 -0.291339
vn 0.173228 0.968504 -0.181102
vn 0.307087 0.913386 -0.267717
vn 0.362205 0.921260 -0.157480
tan 0.997768 -0.095852 -0.006324 1.000000
tan 0.986980 -0.164858 -0.009176 1.000000
tan 0.987538 -0.135532 -0.004526 1.000000
tan 0.994792 -0.102362 -0.002666 1.000000
tan 0.973526 -0.251968 -0.017856 1.000000
tan 0.993242 0.006324 0.016368 1.000000
tan 1.001488 -0.001984 0.007626 1.000000
tan 0.994234 0.107632 0.024304 1.000000
tan 0.996590 -0.095046 0.001860 1.000000
tan 0.990452 0.164238 0.024924 1.000000
tan 0.986980 0.147622 0.023064 1.000000
tan 0.999628 0.101680 0.016678 1.000000
tan 1.003968 0.022630 0.017236 1.000000
tan 0.997148 0.092814 0.030132 1.000000
tan 0.988716 0.179118 0.043834 1.000000
tan 0.956228 0.297911 0.041354 1.000000
tan 0.992498 0.108004 0.026040 1.000000
tan 1.000186 0.029264 0.019592 1.000000
tan 0.985430 -0.133548 -0.004898 1.000000
tan 0.933102 -0.354331 -0.022320 1.000000
tan 0.914626 -0.417075 0.023622 1.000000
tan 0.992374 -0.149482 0.010168 1.000000
tan 1.000248 0.007750 0.007998 1.000000
tan 0.984996 0.157480 0.004960 1.000000
tan 0.929878 0.362205 0.011408 1.000000
tan 0.934094 0.346209 -0.028272 1.000000
tan 0.988344 0.126604 -0.005456 1.000000
tan 0.951020 0.297787 -0.084072 1.000000
tan 0.987290 0.135470 -0.021824 1.000000
tan 0.998016 -0.031434 0.028396 1.000000
tan 1.004464 -0.015500 0.002976 1.000000
tan 0.985120 -0.154628 0.031000 1.000000
tan 0.986050 -0.169074 0.038998 1.000000
tan 0.951206 -0.297105 0.077438 1.000000
tan 0.932792 -0.355261 0.067146 1.000000
f 3/3/3 2/2/2 1/1/1
f 4/4/4 1/1/1 2/2/2
f 2/2/2 5/5/5 4/4/4
f 4/4/4 6/6/6 1/1/1
f 6/6/6 7/7/7 1/1/1
f 7/7/7 6/6/6 8/8/8
f 9/9/9 4/4/4 5/5/5
f 4/4/4 9/9/9 6/6/6
f 11/11/11 10/10/10 8/8/8
f 12/12/12 8/8/8 6/6/6
f 12/12/12 11/11/11 8/8/8
f 6/6/6 13/13/13 12/12/12
f 13/13/13 6/6/6 9/9/9
f 12/12/12 14/14/14 11/11/11
f 14/14/14 12/12/12 13/13/13
f 15/15/15 11/11/11 14/14/14
f 16/16/16 15/15/15 14/14/14
f 17/17/17 14/14/14 13/13/13
f 17/17/17 16/16/16 14/14/14
f 18/18/18 13/13/13 9/9/9
f 18/18/18 17/17/17 13/13/13
f 19/19/19 9/9/9 5/5/5
f 19/19/19 18/18/18 9/9/9
f 20/20/20 19/19/19 5/5/5
f 20/20/20 21/21/21 19/19/19
f 19/19/19 22/22/22 18/18/18
f 22/22/22 19/19/19 21/21/21
f 18/18/18 23/23/23 17/17/17
f 23/23/23 18/18/18 22/22/22
f 17/17/17 24/24/24 16/16/16
f 24/24/24 17/17/17 23/23/23
f 25/25/25 16/16/16 24/24/24
f 26/26/26 25/25/25 24/24/24
f 27/27/27 26/26/26 24/24/24
f 27/27/27 24/24/24 23/23/23
f 28/28/28 26/26/26 27/27/27
f 29/29/29 28/28/28 27/27/27
f 29/29/29 27/27/27 30/30/30
f 31/31/31 27/27/27 23/23/23
f 31/31/31 30/30/30 27/27/27
f 31/31/31 23/23/23 22/22/22
f 30/30/30 31/31/31 32/32/32
f 33/33/33 31/31/31 22/22/22
f 33/33/33 32/32/32 31/31/31
f 33/33/33 22/22/22 21/21/21
f 32/32/32 33/33/33 34/34/34
f 35/35/35 33/33/33 21/21/21
f 35/35/35 34/34/34 33/33/33
