mtllib SM_Dish_01_LOD1.mtl
g SM_Dish_01_LOD1
#Vertices 365
#Indices 1572
#Section 0 Offset 0 NumIndices 1572 MaterialIndex 0 MI_Small_Props_01
v 0.157739 0.004051 -0.031376
v 0.133724 0.004051 -0.089352
v 0.148878 0.004498 -0.060947
v 0.160829 0.004051 0.000000
v 0.148587 0.004051 0.061547
v 0.157904 0.004497 0.030753
v 0.133724 0.004051 0.089352
v 0.061547 0.004051 -0.148586
v 0.113723 0.004051 -0.113723
v 0.089150 0.004520 -0.133911
v -0.113723 0.004051 0.113723
v -0.061547 0.004051 0.148587
v -0.089251 0.004525 0.133848
v -0.031376 0.004051 0.157739
v -0.134126 0.004498 0.088823
v -0.148587 0.004051 0.061547
v 0.061547 0.004051 0.148587
v 0.000926 0.004344 0.161176
v 0.030733 0.004498 0.157908
v 0.113723 0.004051 0.113723
v 0.088822 0.004498 0.134127
v -0.157739 0.004051 -0.031376
v -0.157739 0.004051 0.031376
v -0.160875 0.004400 -0.000006
v -0.031376 0.004051 -0.157739
v 0.031376 0.004051 -0.157739
v 0.000007 0.004400 -0.160875
v -0.089352 0.004051 -0.133724
v -0.060948 0.004498 -0.148878
v -0.113723 0.004051 -0.113723
v -0.148587 0.004051 -0.061547
v -0.133863 0.004523 -0.089228
v 0.155191 -0.000000 -0.030869
v 0.155191 0.000000 0.030869
v 0.158232 0.000000 0.000000
v 0.146187 -0.000000 -0.060552
v 0.111887 -0.000000 -0.111887
v 0.131565 -0.000000 -0.087909
v 0.087909 -0.000000 -0.131565
v 0.030870 -0.000000 -0.155191
v 0.060553 -0.000000 -0.146187
v 0.000000 -0.000000 -0.158232
v -0.087909 -0.000000 -0.131565
v -0.030869 -0.000000 -0.155191
v -0.060553 -0.000000 -0.146187
v -0.131565 -0.000000 -0.087909
v -0.111887 -0.000000 -0.111887
v -0.146187 -0.000000 -0.060553
v -0.155191 0.000000 0.030869
v -0.155191 -0.000000 -0.030870
v -0.158232 -0.000000 -0.000000
v -0.131565 0.000000 0.087909
v -0.146187 0.000000 0.060553
v -0.111887 0.000000 0.111887
v 0.131565 0.000000 0.087909
v 0.146187 0.000000 0.060553
v 0.087909 0.000000 0.131565
v 0.111887 0.000000 0.111887
v 0.060553 0.000000 0.146187
v -0.030869 0.000000 0.155191
v -0.087909 0.000000 0.131565
v -0.060553 0.000000 0.146187
v 0.030869 0.000000 0.155191
v 0.000000 0.000000 0.158232
v -0.148587 0.004051 0.061547
v -0.159092 0.007489 0.031613
v -0.157739 0.004051 0.031376
v -0.150324 0.008018 0.062362
v -0.164014 0.009807 0.032624
v -0.134126 0.004498 0.088823
v -0.154497 0.009807 0.063995
v -0.183234 0.014086 0.036448
v -0.135867 0.008507 0.090783
v -0.172603 0.014086 0.071495
v -0.183948 0.012695 0.036590
v -0.173275 0.012695 0.071773
v -0.139044 0.009807 0.092906
v -0.155339 0.014086 0.103794
v -0.155944 0.012695 0.104198
v -0.115518 0.008118 0.114675
v -0.113723 0.004051 0.113723
v -0.089251 0.004525 0.133848
v -0.132105 0.014086 0.132105
v -0.132619 0.012695 0.132619
v -0.104198 0.012695 0.155944
v -0.118247 0.009807 0.118247
v -0.103794 0.014086 0.155339
v -0.071773 0.012695 0.173275
v -0.092906 0.009807 0.139044
v -0.071495 0.014086 0.172603
v -0.036590 0.012695 0.183948
v -0.090783 0.008507 0.135867
v -0.063995 0.009807 0.154497
v -0.036448 0.014086 0.183234
v 0.000000 0.012695 0.187552
v -0.062381 0.008018 0.150313
v -0.061547 0.004051 0.148587
v -0.032624 0.009807 0.164014
v -0.032970 0.008033 0.159247
v -0.031376 0.004051 0.157739
v 0.000926 0.004344 0.161176
v 0.000000 0.009807 0.167227
v 0.000000 0.008507 0.163406
v 0.030733 0.004498 0.157908
v 0.000000 0.014086 0.186824
v 0.031729 0.009715 0.163105
v 0.036448 0.014086 0.183234
v 0.036590 0.012695 0.183948
v 0.071495 0.014086 0.172603
v 0.071773 0.012695 0.173275
v 0.061907 0.008052 0.150524
v 0.061547 0.004051 0.148587
v 0.088822 0.004498 0.134127
v 0.063995 0.009807 0.154497
v 0.090783 0.008507 0.135867
v 0.103794 0.014086 0.155339
v 0.104198 0.012695 0.155944
v 0.092906 0.009807 0.139044
v 0.132105 0.014086 0.132105
v 0.132619 0.012695 0.132619
v 0.155944 0.012695 0.104198
v 0.114675 0.008118 0.115518
v 0.113723 0.004051 0.113723
v 0.118247 0.009807 0.118247
v 0.155339 0.014086 0.103794
v 0.173275 0.012695 0.071773
v 0.139044 0.009807 0.092906
v 0.134203 0.007982 0.091818
v 0.133724 0.004051 0.089352
v 0.172603 0.014086 0.071495
v 0.183948 0.012695 0.036590
v 0.154497 0.009807 0.063995
v 0.149751 0.008013 0.063373
v 0.148587 0.004051 0.061547
v 0.157904 0.004497 0.030753
v 0.164014 0.009807 0.032624
v 0.183234 0.014086 0.036448
v 0.187552 0.012695 -0.000000
v 0.160266 0.008507 0.031879
v 0.186824 0.014086 -0.000000
v 0.167227 0.009807 0.000000
v 0.162666 0.008011 -0.000861
v 0.160829 0.004051 0.000000
v 0.157739 0.004051 -0.031376
v 0.183235 0.014086 -0.036447
v 0.183948 0.012695 -0.036589
v 0.159595 0.007861 -0.031370
v 0.148878 0.004498 -0.060947
v 0.164014 0.009807 -0.032624
v 0.153560 0.009679 -0.063031
v 0.172603 0.014086 -0.071494
v 0.173276 0.012695 -0.071773
v 0.155339 0.014086 -0.103794
v 0.155944 0.012695 -0.104198
v 0.135262 0.007965 -0.090202
v 0.133724 0.004051 -0.089352
v 0.113723 0.004051 -0.113723
v 0.139044 0.009807 -0.092906
v 0.132105 0.014086 -0.132104
v 0.132619 0.012695 -0.132619
v 0.104198 0.012695 -0.155944
v 0.118247 0.009807 -0.118247
v 0.115004 0.007851 -0.114953
v 0.089150 0.004520 -0.133911
v 0.103794 0.014086 -0.155339
v 0.071773 0.012695 -0.173275
v 0.092906 0.009807 -0.139044
v 0.090784 0.008507 -0.135867
v 0.071495 0.014086 -0.172603
v 0.036590 0.012695 -0.183948
v 0.063995 0.009807 -0.154497
v 0.061934 0.007861 -0.150392
v 0.061547 0.004051 -0.148586
v 0.036448 0.014086 -0.183234
v 0.000000 0.012695 -0.187552
v 0.032168 0.008083 -0.159452
v 0.031376 0.004051 -0.157739
v 0.000007 0.004400 -0.160875
v 0.032624 0.009807 -0.164013
v -0.000130 0.009719 -0.166119
v 0.000000 0.014086 -0.186824
v -0.036447 0.014086 -0.183234
v -0.036589 0.012695 -0.183948
v -0.032624 0.009807 -0.164014
v -0.030836 0.007904 -0.159708
v -0.031376 0.004051 -0.157739
v -0.060948 0.004498 -0.148878
v -0.062533 0.008507 -0.150967
v -0.063995 0.009807 -0.154497
v -0.071494 0.014086 -0.172603
v -0.071773 0.012695 -0.173275
v -0.103794 0.014086 -0.155339
v -0.104198 0.012695 -0.155944
v -0.092906 0.009807 -0.139044
v -0.090235 0.007978 -0.135260
v -0.089352 0.004051 -0.133724
v -0.113723 0.004051 -0.113723
v -0.118247 0.009807 -0.118247
v -0.114628 0.007997 -0.115461
v -0.133863 0.004523 -0.089228
v -0.132105 0.014086 -0.132105
v -0.132619 0.012695 -0.132619
v -0.155944 0.012695 -0.104198
v -0.155339 0.014086 -0.103794
v -0.173275 0.012695 -0.071773
v -0.137752 0.009705 -0.092571
v -0.172603 0.014086 -0.071495
v -0.183948 0.012695 -0.036590
v -0.154497 0.009807 -0.063995
v -0.150391 0.007861 -0.061937
v -0.148587 0.004051 -0.061547
v -0.159491 0.007976 -0.031579
v -0.157739 0.004051 -0.031376
v -0.160875 0.004400 -0.000006
v -0.157739 0.004051 0.031376
v -0.159092 0.007489 0.031613
v -0.163406 0.008507 -0.000000
v -0.164014 0.009807 0.032624
v -0.164014 0.009807 -0.032624
v -0.167227 0.009807 -0.000000
v -0.183234 0.014086 -0.036448
v -0.187552 0.012695 -0.000000
v -0.186824 0.014086 -0.000000
v -0.183234 0.014086 0.036448
v -0.183948 0.012695 0.036590
v -0.166623 0.010554 0.086134
v -0.183948 0.012695 0.036590
v -0.173275 0.012695 0.071773
v -0.155944 0.012695 0.104198
v -0.183234 0.010514 0.036448
v -0.187552 0.012695 -0.000000
v -0.132105 0.010514 0.132105
v -0.132619 0.012695 0.132619
v -0.104198 0.012695 0.155944
v -0.186802 0.010389 -0.016703
v -0.183948 0.012695 -0.036590
v -0.150626 0.004467 0.082133
v -0.167189 0.004598 0.033256
v -0.172603 0.010514 -0.071495
v -0.173275 0.012695 -0.071773
v -0.170418 0.004600 -0.017265
v -0.155339 0.010514 -0.103794
v -0.155944 0.012695 -0.104198
v -0.157489 0.004598 -0.065234
v -0.132105 0.010514 -0.132105
v -0.132619 0.012695 -0.132619
v -0.104198 0.012695 -0.155944
v -0.131578 0.004605 -0.109164
v -0.086999 0.010558 -0.166180
v -0.071773 0.012695 -0.173275
v -0.036589 0.012695 -0.183948
v -0.082302 0.004511 -0.150603
v -0.036447 0.010514 -0.183234
v 0.000000 0.012695 -0.187552
v 0.018608 0.010345 -0.186698
v 0.036590 0.012695 -0.183948
v -0.033256 0.004598 -0.167189
v 0.071495 0.010514 -0.172603
v 0.071773 0.012695 -0.173275
v 0.017060 0.004630 -0.170253
v 0.103794 0.010514 -0.155339
v 0.104198 0.012695 -0.155944
v 0.065234 0.004598 -0.157489
v 0.107624 0.004594 -0.133233
v 0.132105 0.010514 -0.132104
v 0.132619 0.012695 -0.132619
v 0.155944 0.012695 -0.104198
v 0.166722 0.010552 -0.085970
v 0.173276 0.012695 -0.071773
v 0.183948 0.012695 -0.036589
v 0.141737 0.004598 -0.094705
v 0.183235 0.010514 -0.036447
v 0.187552 0.012695 -0.000000
v 0.164269 0.004564 -0.047856
v 0.186824 0.010514 -0.000000
v 0.183234 0.010514 0.036448
v 0.183948 0.012695 0.036590
v 0.170465 0.004598 0.000000
v 0.166688 0.010603 0.085894
v 0.173275 0.012695 0.071773
v 0.155944 0.012695 0.104198
v 0.163812 0.004543 0.050307
v 0.132105 0.010514 0.132105
v 0.132619 0.012695 0.132619
v 0.104198 0.012695 0.155944
v 0.133770 0.004557 0.106639
v 0.103794 0.010514 0.155339
v 0.071773 0.012695 0.173275
v 0.094705 0.004598 0.141736
v 0.071495 0.010514 0.172603
v 0.036590 0.012695 0.183948
v 0.017444 0.010560 0.186478
v 0.000000 0.012695 0.187552
v 0.049225 0.004597 0.164051
v -0.036448 0.010514 0.183234
v -0.036590 0.012695 0.183948
v 0.000000 0.004598 0.170465
v -0.085970 0.010603 0.166650
v -0.071773 0.012695 0.173275
v -0.052511 0.004591 0.162969
v -0.106625 0.004558 0.133782
v -0.092211 0.002210 0.141012
v -0.119272 0.002149 0.119271
v -0.064399 0.002301 0.155472
v -0.087909 0.000000 0.131565
v -0.060553 0.000000 0.146187
v -0.111887 0.000000 0.111887
v -0.131565 0.000000 0.087909
v -0.032906 0.002151 0.165429
v -0.030869 0.000000 0.155191
v 0.000000 0.000000 0.158232
v -0.000000 0.002294 0.168267
v 0.032906 0.002151 0.165429
v 0.030869 0.000000 0.155191
v 0.060553 0.000000 0.146187
v 0.064399 0.002301 0.155472
v 0.092211 0.002210 0.141012
v 0.087909 0.000000 0.131565
v 0.119270 0.002149 0.119273
v 0.111887 0.000000 0.111887
v 0.131565 0.000000 0.087909
v 0.141078 0.002203 0.092130
v 0.146187 0.000000 0.060553
v 0.156146 0.002112 0.063245
v 0.155191 0.000000 0.030869
v 0.165528 0.002278 0.031485
v 0.158232 0.000000 0.000000
v 0.168267 0.002294 -0.000000
v 0.165564 0.002212 -0.031273
v 0.155191 -0.000000 -0.030869
v 0.156209 0.002275 -0.063189
v 0.146187 -0.000000 -0.060552
v 0.140695 0.002201 -0.092730
v 0.131565 -0.000000 -0.087909
v 0.119293 0.001972 -0.119154
v 0.111887 -0.000000 -0.111887
v 0.087909 -0.000000 -0.131565
v 0.093484 0.002435 -0.139928
v 0.064128 0.002072 -0.155990
v 0.060553 -0.000000 -0.146187
v 0.030870 -0.000000 -0.155191
v 0.031669 0.002125 -0.165467
v 0.000000 -0.000000 -0.158232
v 0.000011 0.002435 -0.168283
v -0.032925 0.001978 -0.165357
v -0.030869 -0.000000 -0.155191
v -0.060553 -0.000000 -0.146187
v -0.064172 0.002373 -0.155562
v -0.093486 0.002071 -0.140365
v -0.087909 -0.000000 -0.131565
v -0.111887 -0.000000 -0.111887
v -0.120135 0.002275 -0.118159
v -0.131565 -0.000000 -0.087909
v -0.141060 0.002205 -0.092170
v -0.146187 -0.000000 -0.060553
v -0.156143 0.002115 -0.063278
v -0.155191 -0.000000 -0.030870
v -0.165528 0.002280 -0.031515
v -0.158232 -0.000000 -0.000000
v -0.168267 0.002294 0.000000
v -0.165475 0.002072 0.032577
v -0.155191 0.000000 0.030869
v -0.146187 0.000000 0.060553
v -0.155564 0.002376 0.064185
v -0.140974 0.002212 0.092258
vt 0.472168 0.195312
vt 0.457764 0.161133
vt 0.466797 0.177734
vt 0.473877 0.213867
vt 0.466553 0.250000
vt 0.472168 0.231934
vt 0.457764 0.266602
vt 0.415283 0.125977
vt 0.446045 0.146484
vt 0.431641 0.134766
vt 0.311523 0.281250
vt 0.342529 0.301758
vt 0.326172 0.292969
vt 0.360352 0.307129
vt 0.299561 0.266113
vt 0.291016 0.250000
vt 0.415283 0.301758
vt 0.379395 0.309082
vt 0.396973 0.307129
vt 0.446045 0.281250
vt 0.431396 0.292969
vt 0.285645 0.195312
vt 0.285645 0.232422
vt 0.283691 0.213867
vt 0.360352 0.120605
vt 0.397461 0.120605
vt 0.378906 0.118652
vt 0.325928 0.134766
vt 0.342773 0.125977
vt 0.311523 0.146484
vt 0.291016 0.177246
vt 0.299805 0.161133
vt 0.482178 0.437012
vt 0.482178 0.400391
vt 0.483887 0.418457
vt 0.476807 0.454590
vt 0.456543 0.484863
vt 0.468262 0.470703
vt 0.442383 0.496582
vt 0.408691 0.510254
vt 0.426270 0.504883
vt 0.390381 0.511963
vt 0.338623 0.496582
vt 0.372314 0.510254
vt 0.354736 0.504883
vt 0.312744 0.470703
vt 0.324463 0.484863
vt 0.304199 0.454590
vt 0.298828 0.400391
vt 0.298828 0.437012
vt 0.296875 0.418457
vt 0.312744 0.366699
vt 0.304199 0.382812
vt 0.324463 0.352539
vt 0.468262 0.366699
vt 0.476807 0.382812
vt 0.442383 0.340820
vt 0.456543 0.352539
vt 0.426270 0.332031
vt 0.372314 0.327148
vt 0.338623 0.340820
vt 0.354736 0.332031
vt 0.408691 0.327148
vt 0.390381 0.325195
vt 0.654785 0.042480
vt 0.673828 0.041504
vt 0.673340 0.042969
vt 0.654785 0.040527
vt 0.674805 0.039551
vt 0.635742 0.042480
vt 0.655762 0.038574
vt 0.678223 0.028809
vt 0.635742 0.040527
vt 0.657227 0.027344
vt 0.678223 0.028320
vt 0.657227 0.026367
vt 0.636230 0.038574
vt 0.636719 0.027344
vt 0.636719 0.026367
vt 0.616211 0.040527
vt 0.615723 0.042480
vt 0.595703 0.042480
vt 0.616211 0.027344
vt 0.616211 0.026855
vt 0.596191 0.026855
vt 0.616211 0.038574
vt 0.596191 0.027344
vt 0.576172 0.026855
vt 0.596191 0.038574
vt 0.576172 0.027344
vt 0.555664 0.026855
vt 0.596191 0.040527
vt 0.576172 0.038574
vt 0.555664 0.027344
vt 0.535645 0.026855
vt 0.576172 0.041016
vt 0.575684 0.042480
vt 0.555664 0.038574
vt 0.556641 0.041016
vt 0.555664 0.042480
vt 0.535156 0.042480
vt 0.535645 0.038574
vt 0.535645 0.040527
vt 0.515625 0.042480
vt 0.535645 0.027344
vt 0.515625 0.039062
vt 0.515625 0.027344
vt 0.515625 0.026855
vt 0.495361 0.027344
vt 0.495361 0.026855
vt 0.495605 0.041016
vt 0.495361 0.042480
vt 0.475586 0.042480
vt 0.495361 0.038574
vt 0.475098 0.040527
vt 0.475098 0.027344
vt 0.475098 0.026855
vt 0.475098 0.038574
vt 0.454834 0.027344
vt 0.454834 0.026855
vt 0.434570 0.026855
vt 0.455078 0.040527
vt 0.454834 0.042480
vt 0.454834 0.038574
vt 0.434570 0.027344
vt 0.414307 0.026855
vt 0.434570 0.038574
vt 0.435791 0.041016
vt 0.434570 0.042480
vt 0.414307 0.027344
vt 0.394043 0.026855
vt 0.414307 0.038574
vt 0.415039 0.041016
vt 0.414307 0.042480
vt 0.393799 0.042480
vt 0.394043 0.038574
vt 0.394043 0.027344
vt 0.374023 0.026855
vt 0.394043 0.040527
vt 0.374023 0.027344
vt 0.374023 0.038574
vt 0.373291 0.041016
vt 0.374023 0.042480
vt 0.353760 0.042480
vt 0.353760 0.027344
vt 0.353760 0.026855
vt 0.354004 0.041016
vt 0.333984 0.042480
vt 0.353760 0.038574
vt 0.333740 0.039062
vt 0.333496 0.027344
vt 0.333496 0.026855
vt 0.313232 0.027344
vt 0.313232 0.026855
vt 0.313232 0.041016
vt 0.313232 0.042480
vt 0.292969 0.042480
vt 0.313232 0.038574
vt 0.292969 0.027344
vt 0.292969 0.026855
vt 0.272705 0.026855
vt 0.292969 0.038574
vt 0.292969 0.041016
vt 0.272705 0.042480
vt 0.272705 0.027344
vt 0.252686 0.026855
vt 0.272705 0.038574
vt 0.272705 0.040527
vt 0.252686 0.027344
vt 0.232422 0.026855
vt 0.252686 0.038574
vt 0.252441 0.041016
vt 0.252686 0.042480
vt 0.232422 0.027344
vt 0.212158 0.026855
vt 0.232666 0.041016
vt 0.232422 0.042480
vt 0.212158 0.042480
vt 0.232422 0.038574
vt 0.212158 0.039062
vt 0.212158 0.027344
vt 0.192017 0.027344
vt 0.192017 0.026855
vt 0.192017 0.038574
vt 0.192505 0.041016
vt 0.192017 0.042480
vt 0.172241 0.042480
vt 0.171753 0.040527
vt 0.171753 0.038574
vt 0.171753 0.027344
vt 0.171753 0.026855
vt 0.151611 0.027344
vt 0.151611 0.026855
vt 0.151611 0.038574
vt 0.151611 0.041016
vt 0.151611 0.042480
vt 0.131470 0.042480
vt 0.131470 0.038574
vt 0.131836 0.041016
vt 0.111450 0.042480
vt 0.131348 0.027344
vt 0.131348 0.026855
vt 0.111267 0.026855
vt 0.111328 0.027344
vt 0.091125 0.026855
vt 0.111694 0.039062
vt 0.091187 0.027344
vt 0.070801 0.026855
vt 0.091370 0.038574
vt 0.091431 0.041016
vt 0.091736 0.042480
vt 0.071899 0.040527
vt 0.072205 0.042480
vt 0.053131 0.042480
vt 0.034485 0.042969
vt 0.034058 0.041504
vt 0.052582 0.040527
vt 0.032654 0.039551
vt 0.071533 0.038574
vt 0.051880 0.038574
vt 0.070984 0.027344
vt 0.050262 0.026367
vt 0.050568 0.027344
vt 0.029678 0.028809
vt 0.029236 0.028320
vt 0.937988 0.304199
vt 0.926758 0.274902
vt 0.936035 0.294922
vt 0.940918 0.316406
vt 0.925781 0.275391
vt 0.914062 0.257324
vt 0.940918 0.338379
vt 0.941895 0.338379
vt 0.937988 0.359863
vt 0.906738 0.250488
vt 0.897949 0.242188
vt 0.929199 0.308594
vt 0.917480 0.280762
vt 0.878906 0.231934
vt 0.878906 0.230957
vt 0.898926 0.256836
vt 0.858398 0.224121
vt 0.858398 0.223145
vt 0.874512 0.240723
vt 0.836914 0.220703
vt 0.836914 0.219727
vt 0.814941 0.220703
vt 0.845703 0.231445
vt 0.803223 0.223145
vt 0.793457 0.225586
vt 0.773926 0.234863
vt 0.807617 0.232422
vt 0.774414 0.235352
vt 0.755859 0.247559
vt 0.748535 0.255859
vt 0.741211 0.263672
vt 0.779297 0.244141
vt 0.730469 0.282715
vt 0.729492 0.282227
vt 0.755371 0.262695
vt 0.722656 0.303223
vt 0.721680 0.302734
vt 0.739258 0.287109
vt 0.729980 0.314453
vt 0.719238 0.324707
vt 0.718262 0.324707
vt 0.719238 0.346680
vt 0.722168 0.358887
vt 0.724121 0.367676
vt 0.733398 0.387695
vt 0.729980 0.345215
vt 0.734375 0.387207
vt 0.746094 0.405273
vt 0.738281 0.374512
vt 0.747070 0.404785
vt 0.762695 0.419434
vt 0.762207 0.420410
vt 0.754395 0.398438
vt 0.789551 0.435059
vt 0.780762 0.432129
vt 0.801270 0.439453
vt 0.776855 0.417969
vt 0.823242 0.441895
vt 0.823242 0.442871
vt 0.845215 0.442383
vt 0.812500 0.431152
vt 0.844727 0.441406
vt 0.866211 0.437012
vt 0.843750 0.431641
vt 0.866211 0.436523
vt 0.886230 0.428223
vt 0.895508 0.421387
vt 0.904297 0.415039
vt 0.872559 0.423828
vt 0.918457 0.398438
vt 0.918945 0.398926
vt 0.896973 0.407227
vt 0.933594 0.371582
vt 0.930664 0.380371
vt 0.917480 0.383301
vt 0.929688 0.349121
vt 0.925781 0.357910
vt 0.929199 0.337402
vt 0.919434 0.375000
vt 0.919922 0.354980
vt 0.913574 0.372070
vt 0.922852 0.336914
vt 0.922363 0.318848
vt 0.909180 0.391602
vt 0.904297 0.387695
vt 0.891602 0.401367
vt 0.895508 0.405762
vt 0.879883 0.417480
vt 0.876953 0.412109
vt 0.860352 0.419434
vt 0.862305 0.425293
vt 0.844238 0.429688
vt 0.842773 0.423828
vt 0.823730 0.430664
vt 0.824219 0.424316
vt 0.806152 0.421387
vt 0.803711 0.427246
vt 0.789062 0.415039
vt 0.785645 0.420410
vt 0.773438 0.405762
vt 0.769043 0.410156
vt 0.760254 0.393066
vt 0.755859 0.396973
vt 0.744629 0.382324
vt 0.749512 0.378418
vt 0.736328 0.364258
vt 0.741699 0.361816
vt 0.731445 0.345215
vt 0.737793 0.343750
vt 0.730957 0.325195
vt 0.736816 0.325684
vt 0.739746 0.307617
vt 0.733887 0.306152
vt 0.740723 0.287598
vt 0.746094 0.290527
vt 0.755859 0.274902
vt 0.751465 0.270508
vt 0.768555 0.261719
vt 0.764160 0.256836
vt 0.780273 0.245605
vt 0.783203 0.250977
vt 0.799805 0.243164
vt 0.797852 0.237793
vt 0.816406 0.232910
vt 0.817383 0.239258
vt 0.835938 0.238281
vt 0.836914 0.232422
vt 0.854004 0.241211
vt 0.856445 0.235840
vt 0.871094 0.247559
vt 0.874512 0.242676
vt 0.886230 0.257324
vt 0.890625 0.252930
vt 0.899902 0.269531
vt 0.904297 0.265625
vt 0.916016 0.281250
vt 0.910645 0.284668
vt 0.917969 0.301270
vt 0.923828 0.298828
vt 0.928223 0.316895
vt1 0.682129 0.729492
vt1 0.734863 0.734619
vt1 0.708008 0.734619
vt1 0.657715 0.719482
vt1 0.616699 0.685791
vt1 0.635742 0.705078
vt1 0.601562 0.663818
vt1 0.807617 0.704346
vt1 0.761230 0.729248
vt1 0.786133 0.718994
vt1 0.681641 0.469727
vt1 0.635254 0.494629
vt1 0.657227 0.479980
vt1 0.616211 0.513428
vt1 0.708496 0.464355
vt1 0.734375 0.464355
vt1 0.586426 0.586426
vt1 0.601074 0.536377
vt1 0.591309 0.559814
vt1 0.591309 0.639160
vt1 0.585938 0.612549
vt1 0.807129 0.494629
vt1 0.760742 0.469727
vt1 0.785156 0.479492
vt1 0.851562 0.638672
vt1 0.826660 0.685303
vt1 0.841309 0.663330
vt1 0.856445 0.585938
vt1 0.856445 0.613037
vt1 0.851074 0.559814
vt1 0.826172 0.513184
vt1 0.840820 0.535156
vt1 0.302246 0.661865
vt1 0.262451 0.640869
vt1 0.283447 0.649414
vt1 0.318359 0.677979
vt1 0.339600 0.717529
vt1 0.330811 0.696533
vt1 0.343994 0.739746
vt1 0.339600 0.784302
vt1 0.343994 0.762207
vt1 0.331055 0.805176
vt1 0.283936 0.852539
vt1 0.318604 0.823975
vt1 0.302734 0.839966
vt1 0.240967 0.865723
vt1 0.262939 0.861328
vt1 0.218384 0.865723
vt1 0.156494 0.840332
vt1 0.196289 0.861450
vt1 0.175293 0.852783
vt1 0.127930 0.805664
vt1 0.140503 0.824341
vt1 0.119324 0.784790
vt1 0.217896 0.636475
vt1 0.240479 0.636475
vt1 0.174927 0.649658
vt1 0.195801 0.641113
vt1 0.156128 0.662354
vt1 0.119141 0.718018
vt1 0.114868 0.762695
vt1 0.114807 0.740234
vt1 0.140259 0.678223
vt1 0.127686 0.697021
vt1 0.870117 0.116211
vt1 0.894043 0.114746
vt1 0.893066 0.116211
vt1 0.870605 0.113770
vt1 0.895508 0.112793
vt1 0.847168 0.115723
vt1 0.872070 0.110840
vt1 0.899414 0.099609
vt1 0.847168 0.113281
vt1 0.873535 0.097168
vt1 0.899902 0.098145
vt1 0.874023 0.096680
vt1 0.847656 0.110840
vt1 0.848145 0.097168
vt1 0.848633 0.096680
vt1 0.823242 0.113770
vt1 0.822754 0.116211
vt1 0.797852 0.115723
vt1 0.823242 0.097656
vt1 0.823242 0.096680
vt1 0.798340 0.096680
vt1 0.823242 0.111328
vt1 0.798340 0.097656
vt1 0.773438 0.096680
vt1 0.798340 0.111328
vt1 0.773438 0.097656
vt1 0.748535 0.096680
vt1 0.798340 0.113770
vt1 0.773438 0.111328
vt1 0.748535 0.097656
vt1 0.723633 0.096680
vt1 0.773438 0.113770
vt1 0.773438 0.116211
vt1 0.748535 0.111328
vt1 0.749512 0.113770
vt1 0.748535 0.116211
vt1 0.723145 0.115723
vt1 0.723633 0.111328
vt1 0.723633 0.113770
vt1 0.699219 0.115723
vt1 0.723633 0.097656
vt1 0.699219 0.111816
vt1 0.698730 0.097656
vt1 0.698730 0.096680
vt1 0.673828 0.097656
vt1 0.673828 0.096680
vt1 0.674316 0.113770
vt1 0.673828 0.116211
vt1 0.649414 0.115723
vt1 0.673828 0.111328
vt1 0.648926 0.113770
vt1 0.648926 0.097656
vt1 0.648926 0.096680
vt1 0.648926 0.111328
vt1 0.624023 0.097656
vt1 0.624023 0.096680
vt1 0.599121 0.096680
vt1 0.624512 0.113770
vt1 0.624023 0.116211
vt1 0.624023 0.111328
vt1 0.599121 0.097656
vt1 0.574219 0.096680
vt1 0.599121 0.111328
vt1 0.600586 0.114258
vt1 0.599121 0.116211
vt1 0.574219 0.097656
vt1 0.549316 0.096680
vt1 0.574219 0.111328
vt1 0.575195 0.114258
vt1 0.574219 0.116211
vt1 0.548828 0.115723
vt1 0.549316 0.111328
vt1 0.549316 0.097656
vt1 0.524414 0.096680
vt1 0.549316 0.113770
vt1 0.524414 0.097656
vt1 0.524414 0.111328
vt1 0.523926 0.113770
vt1 0.524414 0.116211
vt1 0.499756 0.116211
vt1 0.499756 0.097656
vt1 0.499756 0.096680
vt1 0.500000 0.114258
vt1 0.475342 0.115723
vt1 0.499756 0.111328
vt1 0.475098 0.112305
vt1 0.474854 0.097656
vt1 0.474854 0.096680
vt1 0.449951 0.097656
vt1 0.449951 0.096680
vt1 0.449951 0.114258
vt1 0.449951 0.116211
vt1 0.425049 0.116211
vt1 0.449951 0.111328
vt1 0.425049 0.097656
vt1 0.425049 0.096680
vt1 0.400146 0.096680
vt1 0.425049 0.111328
vt1 0.425049 0.114258
vt1 0.399902 0.115723
vt1 0.400146 0.097656
vt1 0.375244 0.096680
vt1 0.400146 0.111328
vt1 0.400146 0.113770
vt1 0.375244 0.097656
vt1 0.350098 0.096680
vt1 0.375244 0.111328
vt1 0.375000 0.114258
vt1 0.375244 0.116211
vt1 0.350098 0.097656
vt1 0.325195 0.096680
vt1 0.350586 0.113770
vt1 0.350098 0.116211
vt1 0.325195 0.116211
vt1 0.350098 0.111328
vt1 0.325195 0.111816
vt1 0.325195 0.097656
vt1 0.300293 0.097656
vt1 0.300293 0.096680
vt1 0.300293 0.111328
vt1 0.301025 0.114258
vt1 0.300293 0.116211
vt1 0.276123 0.115723
vt1 0.275635 0.113770
vt1 0.275635 0.111328
vt1 0.275391 0.097656
vt1 0.275391 0.096680
vt1 0.250732 0.097656
vt1 0.250732 0.096680
vt1 0.250732 0.111328
vt1 0.250732 0.114258
vt1 0.250732 0.116211
vt1 0.225952 0.116211
vt1 0.225952 0.111328
vt1 0.226318 0.113770
vt1 0.201172 0.115723
vt1 0.225830 0.097656
vt1 0.225830 0.096680
vt1 0.201050 0.096680
vt1 0.201050 0.097656
vt1 0.176147 0.096680
vt1 0.201538 0.111816
vt1 0.176270 0.097656
vt1 0.151245 0.096680
vt1 0.176514 0.111328
vt1 0.176514 0.113770
vt1 0.177002 0.116211
vt1 0.152466 0.113770
vt1 0.152954 0.116211
vt1 0.129395 0.116211
vt1 0.106445 0.116211
vt1 0.105896 0.114746
vt1 0.128662 0.113281
vt1 0.104187 0.112793
vt1 0.151978 0.110840
vt1 0.127808 0.110840
vt1 0.151367 0.097168
vt1 0.125854 0.096680
vt1 0.126221 0.097168
vt1 0.100525 0.099609
vt1 0.099976 0.098145
vt1 0.103027 0.377441
vt1 0.115723 0.413574
vt1 0.105347 0.388672
vt1 0.100037 0.362305
vt1 0.116760 0.413086
vt1 0.130737 0.436035
vt1 0.101135 0.335449
vt1 0.099976 0.334961
vt1 0.105225 0.308594
vt1 0.139404 0.444824
vt1 0.149902 0.455078
vt1 0.114075 0.372070
vt1 0.127441 0.407227
vt1 0.172852 0.469238
vt1 0.172363 0.470215
vt1 0.149048 0.437500
vt1 0.197632 0.479004
vt1 0.197266 0.480469
vt1 0.178589 0.458496
vt1 0.223877 0.484375
vt1 0.223877 0.485352
vt1 0.250732 0.485352
vt1 0.213623 0.471191
vt1 0.265137 0.482910
vt1 0.277344 0.479980
vt1 0.302246 0.469727
vt1 0.260498 0.471680
vt1 0.301514 0.468750
vt1 0.324707 0.454590
vt1 0.334229 0.445312
vt1 0.343750 0.435547
vt1 0.295898 0.458008
vt1 0.357666 0.412598
vt1 0.358643 0.413086
vt1 0.325684 0.436523
vt1 0.367920 0.387695
vt1 0.368896 0.388184
vt1 0.346924 0.406738
vt1 0.359619 0.373535
vt1 0.373047 0.361816
vt1 0.374268 0.361816
vt1 0.374023 0.334473
vt1 0.371094 0.319336
vt1 0.368896 0.308105
vt1 0.358398 0.283203
vt1 0.360840 0.335938
vt1 0.357422 0.283691
vt1 0.343506 0.260742
vt1 0.351807 0.299316
vt1 0.342529 0.261719
vt1 0.323486 0.242676
vt1 0.324219 0.241699
vt1 0.333008 0.269531
vt1 0.291260 0.222656
vt1 0.301758 0.226562
vt1 0.276855 0.216309
vt1 0.305908 0.244141
vt1 0.250244 0.212402
vt1 0.250244 0.211426
vt1 0.223389 0.211426
vt1 0.262939 0.226074
vt1 0.223511 0.212402
vt1 0.196899 0.216797
vt1 0.224731 0.224609
vt1 0.197266 0.217773
vt1 0.171875 0.227051
vt1 0.160278 0.234863
vt1 0.149536 0.242188
vt1 0.188721 0.232910
vt1 0.131348 0.261719
vt1 0.130371 0.261230
vt1 0.157959 0.252441
vt1 0.111145 0.294434
vt1 0.115479 0.283691
vt1 0.131836 0.280762
vt1 0.114929 0.322266
vt1 0.120361 0.312012
vt1 0.115234 0.336426
vt1 0.129150 0.291016
vt1 0.127197 0.315430
vt1 0.135742 0.294434
vt1 0.122864 0.337402
vt1 0.122925 0.359863
vt1 0.142334 0.270996
vt1 0.148193 0.275879
vt1 0.164062 0.259766
vt1 0.159424 0.253906
vt1 0.179199 0.240723
vt1 0.182861 0.247070
vt1 0.203613 0.238770
vt1 0.201416 0.231445
vt1 0.223633 0.227051
vt1 0.225708 0.234375
vt1 0.248901 0.226562
vt1 0.248169 0.234375
vt1 0.270264 0.238281
vt1 0.273682 0.231445
vt1 0.291016 0.247070
vt1 0.295410 0.240723
vt1 0.309814 0.259766
vt1 0.315186 0.254395
vt1 0.325684 0.275391
vt1 0.331299 0.270508
vt1 0.344238 0.289551
vt1 0.338135 0.293945
vt1 0.353760 0.311523
vt1 0.346924 0.314941
vt1 0.358643 0.335449
vt1 0.351318 0.336914
vt1 0.358887 0.360352
vt1 0.351318 0.359375
vt1 0.346924 0.381348
vt1 0.354004 0.383789
vt1 0.344971 0.406250
vt1 0.338379 0.402344
vt1 0.325928 0.420898
vt1 0.331055 0.426758
vt1 0.310059 0.437012
vt1 0.314697 0.442871
vt1 0.294922 0.456055
vt1 0.291260 0.449707
vt1 0.270508 0.458008
vt1 0.272949 0.465332
vt1 0.249512 0.470215
vt1 0.248535 0.462402
vt1 0.226074 0.462891
vt1 0.224243 0.470215
vt1 0.203979 0.458496
vt1 0.200562 0.465332
vt1 0.183105 0.449707
vt1 0.178833 0.456055
vt1 0.164429 0.437500
vt1 0.158813 0.442383
vt1 0.148438 0.421387
vt1 0.142700 0.426270
vt1 0.129272 0.406738
vt1 0.135986 0.402832
vt1 0.127319 0.381836
vt1 0.120239 0.384277
vt1 0.115540 0.361816
vn 0.000000 1.000000 -0.000000
vn 0.000000 1.000000 -0.000000
vn 0.000000 1.000000 -0.000000
vn 0.000000 1.000000 -0.000000
vn 0.000000 1.000000 -0.000000
vn 0.000000 1.000000 -0.000000
vn 0.000000 1.000000 -0.000000
vn 0.000000 1.000000 -0.000000
vn 0.000000 1.000000 -0.000000
vn 0.000000 1.000000 -0.000000
vn 0.000000 1.000000 -0.000000
vn 0.000000 1.000000 -0.000000
vn 0.000000 1.000000 -0.000000
vn 0.000000 1.000000 -0.000000
vn 0.000000 1.000000 -0.000000
vn 0.000000 1.000000 -0.000000
vn 0.000000 1.000000 -0.000000
vn 0.000000 1.000000 -0.000000
vn 0.000000 1.000000 -0.000000
vn 0.000000 1.000000 -0.000000
vn 0.000000 1.000000 -0.000000
vn 0.000000 1.000000 -0.000000
vn 0.000000 1.000000 -0.000000
vn 0.000000 1.000000 -0.000000
vn 0.000000 1.000000 -0.000000
vn 0.000000 1.000000 -0.000000
vn 0.000000 1.000000 -0.000000
vn 0.000000 1.000000 -0.000000
vn 0.000000 1.000000 -0.000000
vn 0.000000 1.000000 -0.000000
vn 0.000000 1.000000 -0.000000
vn 0.000000 1.000000 -0.000000
vn 0.000000 -1.000000 0.000000
vn 0.000000 -1.000000 0.000000
vn 0.000000 -1.000000 0.000000
vn 0.000000 -1.000000 0.000000
vn 0.000000 -1.000000 0.000000
vn 0.000000 -1.000000 0.000000
vn 0.000000 -1.000000 0.000000
vn 0.000000 -1.000000 0.000000
vn 0.000000 -1.000000 0.000000
vn 0.000000 -1.000000 0.000000
vn 0.000000 -1.000000 0.000000
vn 0.000000 -1.000000 0.000000
vn 0.000000 -1.000000 0.000000
vn 0.000000 -1.000000 0.000000
vn 0.000000 -1.000000 0.000000
vn 0.000000 -1.000000 0.000000
vn 0.000000 -1.000000 0.000000
vn 0.000000 -1.000000 0.000000
vn 0.000000 -1.000000 0.000000
vn 0.000000 -1.000000 0.000000
vn 0.000000 -1.000000 0.000000
vn 0.000000 -1.000000 0.000000
vn 0.000000 -1.000000 0.000000
vn 0.000000 -1.000000 0.000000
vn 0.000000 -1.000000 0.000000
vn 0.000000 -1.000000 0.000000
vn 0.000000 -1.000000 0.000000
vn 0.000000 -1.000000 0.000000
vn 0.000000 -1.000000 0.000000
vn 0.000000 -1.000000 0.000000
vn 0.000000 -1.000000 0.000000
vn 0.000000 -1.000000 0.000000
vn 0.874016 0.314961 -0.362205
vn 0.732283 0.669291 -0.141732
vn 0.929134 0.314961 -0.188976
vn 0.614173 0.748031 -0.259843
vn 0.259843 0.960630 -0.055118
vn 0.787402 0.322835 -0.519685
vn 0.244094 0.960630 -0.102362
vn -0.464567 0.881890 0.094488
vn 0.480315 0.818897 -0.322835
vn -0.433071 0.881890 0.181102
vn -0.866142 0.464567 0.173228
vn -0.818898 0.464567 0.338583
vn 0.220472 0.960630 -0.149606
vn -0.393701 0.881890 0.259842
vn -0.740157 0.464567 0.496063
vn 0.464567 0.755905 -0.472441
vn 0.669291 0.314961 -0.669291
vn 0.527559 0.322835 -0.787401
vn -0.330709 0.881890 0.330709
vn -0.629921 0.464567 0.629921
vn -0.496063 0.464567 0.740157
vn 0.188976 0.960630 -0.188976
vn -0.259843 0.881890 0.393701
vn -0.338583 0.464567 0.818897
vn 0.149606 0.960630 -0.220473
vn -0.181102 0.881890 0.433071
vn -0.173228 0.464567 0.866142
vn 0.322835 0.818897 -0.480315
vn 0.102362 0.960630 -0.244095
vn -0.094488 0.881890 0.464567
vn 0.000000 0.464567 0.889764
vn 0.259843 0.748031 -0.614173
vn 0.362205 0.314961 -0.874016
vn 0.055118 0.960630 -0.259843
vn 0.141732 0.732283 -0.669291
vn 0.181102 0.314960 -0.929134
vn 0.000000 0.322834 -0.944882
vn 0.000000 0.960630 -0.267717
vn 0.000000 0.818897 -0.574803
vn -0.181102 0.322834 -0.929134
vn 0.000000 0.881890 0.472441
vn -0.062992 0.944882 -0.307087
vn 0.094488 0.881890 0.464567
vn 0.173228 0.464567 0.866142
vn 0.181102 0.881890 0.433071
vn 0.338583 0.464567 0.818897
vn -0.259843 0.748031 -0.614173
vn -0.362205 0.314961 -0.874016
vn -0.519685 0.322835 -0.787401
vn -0.102362 0.960630 -0.244095
vn -0.322835 0.818897 -0.480315
vn 0.259843 0.881890 0.393701
vn 0.496063 0.464567 0.740157
vn -0.149606 0.960630 -0.220473
vn 0.330709 0.881890 0.330709
vn 0.629921 0.464567 0.629921
vn 0.740157 0.464567 0.496063
vn -0.472441 0.755905 -0.464567
vn -0.669291 0.314961 -0.669291
vn -0.188976 0.960630 -0.188976
vn 0.393701 0.881890 0.259842
vn 0.818898 0.464567 0.338583
vn -0.220472 0.960630 -0.149606
vn -0.566929 0.732283 -0.385827
vn -0.787402 0.314961 -0.527559
vn 0.433071 0.881890 0.181102
vn 0.866142 0.464567 0.173228
vn -0.244094 0.960630 -0.102362
vn -0.629921 0.732283 -0.267717
vn -0.874016 0.314961 -0.362205
vn -0.929134 0.322835 -0.181102
vn -0.259843 0.960630 -0.055118
vn 0.464567 0.881890 0.094488
vn 0.889764 0.464567 -0.000000
vn -0.566929 0.818897 -0.110236
vn 0.472441 0.881890 -0.000000
vn -0.267717 0.960630 -0.000000
vn -0.677165 0.740157 -0.000000
vn -0.944882 0.314961 -0.000000
vn -0.929134 0.314961 0.188976
vn 0.464567 0.881890 -0.094488
vn 0.866142 0.464567 -0.173228
vn -0.669291 0.732283 0.141732
vn -0.874016 0.322835 0.354331
vn -0.259843 0.960630 0.055118
vn -0.299213 0.944882 0.125984
vn 0.433071 0.881890 -0.181102
vn 0.818898 0.464567 -0.338583
vn 0.393701 0.881890 -0.259843
vn 0.740157 0.464567 -0.496063
vn -0.566929 0.724409 0.385827
vn -0.787402 0.314961 0.527559
vn -0.669291 0.314961 0.669291
vn -0.220472 0.960630 0.149606
vn 0.330709 0.881890 -0.330709
vn 0.629921 0.464567 -0.629921
vn 0.496063 0.464567 -0.740157
vn -0.188976 0.960630 0.188976
vn -0.480315 0.724409 0.488189
vn -0.527559 0.322835 0.787401
vn 0.259843 0.881890 -0.393701
vn 0.338583 0.464567 -0.818898
vn -0.149606 0.960630 0.220472
vn -0.322835 0.818898 0.480315
vn 0.181102 0.881890 -0.433071
vn 0.173228 0.464567 -0.866142
vn -0.102362 0.960630 0.244094
vn -0.267717 0.724409 0.629921
vn -0.362205 0.314961 0.874016
vn 0.094488 0.881890 -0.464567
vn 0.000000 0.464567 -0.889764
vn -0.133858 0.740157 0.661417
vn -0.181102 0.314961 0.929134
vn 0.000000 0.322835 0.944882
vn -0.055118 0.960630 0.259842
vn -0.007874 0.944882 0.314960
vn 0.000000 0.881890 -0.472441
vn -0.094488 0.881890 -0.464567
vn -0.173228 0.464567 -0.866142
vn 0.055118 0.960630 0.259842
vn 0.133858 0.724409 0.669291
vn 0.188976 0.314961 0.929134
vn 0.354331 0.322835 0.874016
vn 0.220472 0.818898 0.535433
vn 0.102362 0.960630 0.244094
vn -0.181102 0.881890 -0.433071
vn -0.338583 0.464567 -0.818898
vn -0.259843 0.881890 -0.393701
vn -0.496063 0.464567 -0.740157
vn 0.149606 0.960630 0.220472
vn 0.385827 0.724409 0.566929
vn 0.527559 0.314961 0.787401
vn 0.669291 0.314961 0.669291
vn 0.188976 0.960630 0.188976
vn 0.480315 0.740157 0.472441
vn 0.787402 0.322835 0.527559
vn -0.330709 0.881890 -0.330709
vn -0.629921 0.464567 -0.629921
vn -0.740157 0.464567 -0.496063
vn -0.393701 0.881890 -0.259843
vn -0.818898 0.464567 -0.338583
vn 0.267717 0.944882 0.188976
vn -0.433071 0.881890 -0.181102
vn -0.866142 0.464567 -0.173228
vn 0.244094 0.960630 0.102362
vn 0.629921 0.724409 0.267716
vn 0.874016 0.314961 0.362205
vn 0.669291 0.724409 0.141732
vn 0.929134 0.314961 0.181102
vn 0.944882 0.322835 -0.000000
vn 0.929134 0.314961 -0.188976
vn 0.724409 0.677165 -0.149606
vn 0.574803 0.818897 -0.000000
vn 0.259843 0.960630 -0.055118
vn 0.259843 0.960630 0.055118
vn 0.267717 0.960630 -0.000000
vn -0.464567 0.881890 -0.094488
vn -0.889764 0.464567 -0.000000
vn -0.472441 0.881890 -0.000000
vn -0.464567 0.881890 0.094488
vn -0.866142 0.464567 0.173228
vn -0.661417 -0.669291 0.338583
vn -0.929134 -0.314961 0.188976
vn -0.874016 -0.314961 0.362205
vn -0.787402 -0.314961 0.527559
vn -0.724409 -0.677165 0.141732
vn -0.944882 -0.314961 0.000000
vn -0.519685 -0.677165 0.519685
vn -0.669291 -0.314961 0.669291
vn -0.527559 -0.314961 0.787401
vn -0.732283 -0.677165 -0.062992
vn -0.929134 -0.314961 -0.188976
vn -0.377953 -0.897638 0.204724
vn -0.425197 -0.897638 0.086614
vn -0.677165 -0.677165 -0.283464
vn -0.874016 -0.314961 -0.362205
vn -0.440945 -0.897638 -0.047244
vn -0.614173 -0.677165 -0.409449
vn -0.787402 -0.314961 -0.527559
vn -0.401575 -0.897638 -0.165354
vn -0.519685 -0.677165 -0.519685
vn -0.669291 -0.314961 -0.669291
vn -0.527559 -0.314961 -0.787401
vn -0.338583 -0.897638 -0.275590
vn -0.346457 -0.669291 -0.653543
vn -0.362205 -0.314961 -0.874016
vn -0.188976 -0.314961 -0.929134
vn -0.212598 -0.897638 -0.377953
vn -0.141732 -0.677165 -0.724409
vn 0.000000 -0.314961 -0.944882
vn 0.070866 -0.685039 -0.724409
vn 0.188976 -0.314961 -0.929134
vn -0.086614 -0.897638 -0.425197
vn 0.283465 -0.677165 -0.677165
vn 0.362205 -0.314961 -0.874016
vn 0.047244 -0.897638 -0.440945
vn 0.409449 -0.677165 -0.614173
vn 0.527559 -0.314961 -0.787401
vn 0.165354 -0.897638 -0.401575
vn 0.283465 -0.897638 -0.338583
vn 0.519685 -0.677165 -0.519685
vn 0.669291 -0.314961 -0.669291
vn 0.787402 -0.314961 -0.527559
vn 0.661417 -0.669291 -0.330709
vn 0.874016 -0.314961 -0.362205
vn 0.929134 -0.314961 -0.188976
vn 0.362205 -0.897638 -0.244094
vn 0.724409 -0.677165 -0.141732
vn 0.944882 -0.314961 0.000000
vn 0.417323 -0.897638 -0.125984
vn 0.740157 -0.677165 0.000000
vn 0.724409 -0.677165 0.141732
vn 0.929134 -0.314961 0.188976
vn 0.433071 -0.897638 0.000000
vn 0.661417 -0.669291 0.338583
vn 0.874016 -0.314961 0.362205
vn 0.787402 -0.314961 0.527559
vn 0.417323 -0.897638 0.133858
vn 0.519685 -0.677165 0.519685
vn 0.669291 -0.314961 0.669291
vn 0.527559 -0.314961 0.787401
vn 0.338583 -0.897638 0.275591
vn 0.409449 -0.677165 0.614173
vn 0.362205 -0.314961 0.874016
vn 0.244094 -0.897638 0.362205
vn 0.283465 -0.677165 0.677165
vn 0.188976 -0.314960 0.929134
vn 0.062992 -0.669291 0.740157
vn 0.000000 -0.314960 0.944882
vn 0.133858 -0.897638 0.417323
vn -0.141732 -0.677165 0.724409
vn -0.188976 -0.314960 0.929134
vn 0.000000 -0.897638 0.433071
vn -0.338583 -0.669291 0.661417
vn -0.362205 -0.314961 0.874016
vn -0.141732 -0.897638 0.417323
vn -0.275591 -0.897638 0.338583
vn -0.330709 -0.795275 0.503937
vn -0.425197 -0.795275 0.425197
vn -0.228346 -0.795275 0.559055
vn -0.062992 -0.992126 0.094488
vn -0.039370 -0.992126 0.102362
vn -0.078740 -0.992126 0.078740
vn -0.094488 -0.992126 0.062992
vn -0.118110 -0.795275 0.590551
vn -0.023622 -0.992126 0.110236
vn 0.000000 -0.992126 0.110236
vn 0.000000 -0.795275 0.606299
vn 0.118110 -0.795275 0.590551
vn 0.023622 -0.992126 0.110236
vn 0.039370 -0.992126 0.102362
vn 0.228346 -0.795275 0.559055
vn 0.330709 -0.795275 0.503937
vn 0.062992 -0.992126 0.094488
vn 0.425197 -0.795275 0.425197
vn 0.078740 -0.992126 0.078740
vn 0.094488 -0.992126 0.062992
vn 0.503937 -0.795275 0.330709
vn 0.102362 -0.992126 0.039370
vn 0.559055 -0.803149 0.220472
vn 0.110236 -0.992126 0.023622
vn 0.598425 -0.795275 0.110236
vn 0.110236 -0.992126 0.000000
vn 0.606299 -0.795275 0.000000
vn 0.590551 -0.795275 -0.110236
vn 0.110236 -0.992126 -0.023622
vn 0.559055 -0.795275 -0.220472
vn 0.102362 -0.992126 -0.039370
vn 0.503937 -0.795276 -0.330709
vn 0.094488 -0.992126 -0.062992
vn 0.425197 -0.803150 -0.425197
vn 0.078740 -0.992126 -0.078740
vn 0.062992 -0.992126 -0.094488
vn 0.338583 -0.795276 -0.503937
vn 0.228346 -0.795276 -0.559055
vn 0.039370 -0.992126 -0.102362
vn 0.023622 -0.992126 -0.110236
vn 0.110236 -0.803150 -0.590551
vn 0.000000 -0.992126 -0.110236
vn 0.000000 -0.795276 -0.606299
vn -0.118110 -0.803150 -0.582677
vn -0.023622 -0.992126 -0.110236
vn -0.039370 -0.992126 -0.102362
vn -0.228346 -0.795276 -0.559055
vn -0.330709 -0.795276 -0.503937
vn -0.062992 -0.992126 -0.094488
vn -0.078740 -0.992126 -0.078740
vn -0.433071 -0.795276 -0.417323
vn -0.094488 -0.992126 -0.062992
vn -0.503937 -0.795276 -0.322835
vn -0.102362 -0.992126 -0.039370
vn -0.559055 -0.803149 -0.220472
vn -0.110236 -0.992126 -0.023622
vn -0.598425 -0.795275 -0.110236
vn -0.110236 -0.992126 0.000000
vn -0.606299 -0.795275 0.000000
vn -0.590551 -0.795275 0.118110
vn -0.110236 -0.992126 0.023622
vn -0.102362 -0.992126 0.039370
vn -0.559055 -0.795275 0.236221
vn -0.503937 -0.795275 0.330709
tan 0.000000 -0.000000 -1.000000 1.000000
tan 0.000000 -0.000000 -1.000000 1.000000
tan 0.000000 -0.000000 -1.000000 1.000000
tan 0.000000 -0.000000 -1.000000 1.000000
tan 0.000000 -0.000000 -1.000000 1.000000
tan 0.000000 -0.000000 -1.000000 1.000000
tan 0.000000 -0.000000 -1.000000 1.000000
tan 0.000000 -0.000000 -1.000000 1.000000
tan 0.000000 -0.000000 -1.000000 1.000000
tan 0.000000 -0.000000 -1.000000 1.000000
tan 0.000000 -0.000000 -1.000000 1.000000
tan 0.000000 -0.000000 -1.000000 1.000000
tan 0.000000 -0.000000 -1.000000 1.000000
tan 0.000000 -0.000000 -1.000000 1.000000
tan 0.000000 -0.000000 -1.000000 1.000000
tan 0.000000 -0.000000 -1.000000 1.000000
tan 0.000000 -0.000000 -1.000000 1.000000
tan 0.000000 -0.000000 -1.000000 1.000000
tan 0.000000 -0.000000 -1.000000 1.000000
tan 0.000000 -0.000000 -1.000000 1.000000
tan 0.000000 -0.000000 -1.000000 1.000000
tan 0.000000 -0.000000 -1.000000 1.000000
tan 0.000000 -0.000000 -1.000000 1.000000
tan 0.000000 -0.000000 -1.000000 1.000000
tan 0.000000 -0.000000 -1.000000 1.000000
tan 0.000000 -0.000000 -1.000000 1.000000
tan 0.000000 -0.000000 -1.000000 1.000000
tan 0.000000 -0.000000 -1.000000 1.000000
tan 0.000000 -0.000000 -1.000000 1.000000
tan 0.000000 -0.000000 -1.000000 1.000000
tan 0.000000 -0.000000 -1.000000 1.000000
tan 0.000000 -0.000000 -1.000000 1.000000
tan 0.000000 0.000000 1.000000 1.000000
tan 0.000000 0.000000 1.000000 1.000000
tan 0.000000 0.000000 1.000000 1.000000
tan 0.000000 0.000000 1.000000 1.000000
tan 0.000000 0.000000 1.000000 1.000000
tan 0.000000 0.000000 1.000000 1.000000
tan 0.000000 0.000000 1.000000 1.000000
tan 0.000000 0.000000 1.000000 1.000000
tan 0.000000 0.000000 1.000000 1.000000
tan 0.000000 0.000000 1.000000 1.000000
tan 0.000000 0.000000 1.000000 1.000000
tan 0.000000 0.000000 1.000000 1.000000
tan 0.000000 0.000000 1.000000 1.000000
tan 0.000000 0.000000 1.000000 1.000000
tan 0.000000 0.000000 1.000000 1.000000
tan 0.000000 0.000000 1.000000 1.000000
tan 0.000000 0.000000 1.000000 1.000000
tan 0.000000 0.000000 1.000000 1.000000
tan 0.000000 0.000000 1.000000 1.000000
tan 0.000000 0.000000 1.000000 1.000000
tan 0.000000 0.000000 1.000000 1.000000
tan 0.000000 0.000000 1.000000 1.000000
tan 0.000000 0.000000 1.000000 1.000000
tan 0.000000 0.000000 1.000000 1.000000
tan 0.000000 0.000000 1.000000 1.000000
tan 0.000000 0.000000 1.000000 1.000000
tan 0.000000 0.000000 1.000000 1.000000
tan 0.000000 0.000000 1.000000 1.000000
tan 0.000000 0.000000 1.000000 1.000000
tan 0.000000 0.000000 1.000000 1.000000
tan 0.000000 0.000000 1.000000 1.000000
tan 0.000000 0.000000 1.000000 1.000000
tan -0.309629 0.907062 0.041602 1.000000
tan -0.665943 0.741211 0.059458 1.000000
tan -0.309009 0.935086 0.039184 1.000000
tan -0.734205 0.653605 0.146196 1.000000
tan -0.907682 0.263749 0.317689 1.000000
tan -0.317751 0.865026 0.055924 1.000000
tan -0.877426 0.264059 0.385765 1.000000
tan -0.852626 -0.474487 0.236468 1.000000
tan -0.709281 0.576167 0.406225 1.000000
tan -0.826338 -0.469961 0.312481 1.000000
tan -0.444541 -0.870234 0.111104 1.000000
tan -0.443921 -0.859322 0.105400 1.000000
tan -0.809350 0.267035 0.521917 1.000000
tan -0.756898 -0.472937 0.458305 1.000000
tan -0.431645 -0.871288 0.171926 1.000000
tan -0.523777 0.660425 0.541633 1.000000
tan -0.223200 0.948602 0.223200 1.000000
tan -0.061008 0.874698 0.317751 1.000000
tan -0.624961 -0.468721 0.624961 1.000000
tan -0.334181 -0.892802 0.324261 1.000000
tan -0.181412 -0.875194 0.427739 1.000000
tan -0.680761 0.266353 0.673197 1.000000
tan -0.458305 -0.469837 0.749954 1.000000
tan -0.069502 -0.863104 0.460909 1.000000
tan -0.521917 0.265299 0.801785 1.000000
tan -0.291649 -0.469093 0.833282 1.000000
tan -0.021948 -0.874326 0.464567 1.000000
tan -0.406225 0.576167 0.709281 1.000000
tan -0.355509 0.264679 0.892554 1.000000
tan -0.138880 -0.472131 0.868002 1.000000
tan 0.000000 -0.889764 0.464567 1.000000
tan -0.129580 0.649513 0.736251 1.000000
tan -0.034720 0.907062 0.312480 1.000000
tan -0.173972 0.265733 0.945502 1.000000
tan -0.046128 0.678219 0.732283 1.000000
tan -0.007440 0.933412 0.314960 1.000000
tan 0.000000 0.944882 0.322834 1.000000
tan 0.000000 0.267717 0.960630 1.000000
tan 0.000000 0.574803 0.818897 1.000000
tan 0.000000 0.929134 0.322834 1.000000
tan 0.000000 -0.472441 0.881890 1.000000
tan 0.148800 0.312171 0.930002 1.000000
tan 0.138880 -0.472131 0.868002 1.000000
tan 0.021948 -0.874326 0.464567 1.000000
tan 0.291649 -0.469093 0.833282 1.000000
tan 0.069502 -0.863104 0.460909 1.000000
tan 0.129580 0.649513 0.736251 1.000000
tan 0.034720 0.907062 0.312480 1.000000
tan 0.055924 0.865026 0.317751 1.000000
tan 0.355509 0.264679 0.892554 1.000000
tan 0.406225 0.576167 0.709281 1.000000
tan 0.458305 -0.472937 0.756897 1.000000
tan 0.171926 -0.871288 0.431645 1.000000
tan 0.521917 0.265299 0.801785 1.000000
tan 0.624961 -0.468721 0.624961 1.000000
tan 0.329221 -0.892802 0.329221 1.000000
tan 0.431645 -0.871288 0.171926 1.000000
tan 0.541633 0.660425 0.523777 1.000000
tan 0.223200 0.948602 0.223200 1.000000
tan 0.680761 0.267841 0.680761 1.000000
tan 0.756898 -0.472937 0.458305 1.000000
tan 0.460909 -0.863104 0.069502 1.000000
tan 0.801786 0.265299 0.521917 1.000000
tan 0.674623 0.671151 0.282534 1.000000
tan 0.297601 0.918470 0.104160 1.000000
tan 0.833282 -0.469093 0.291649 1.000000
tan 0.464567 -0.874326 0.021948 1.000000
tan 0.892554 0.263873 0.347945 1.000000
tan 0.720751 0.664269 0.121086 1.000000
tan 0.312481 0.907062 0.034720 1.000000
tan 0.322835 0.929134 -0.000000 1.000000
tan 0.945502 0.265733 0.173972 1.000000
tan 0.868002 -0.472131 0.138880 1.000000
tan 0.464567 -0.889764 0.000000 1.000000
tan 0.812450 0.577221 0.109616 1.000000
tan 0.881890 -0.472441 0.000000 1.000000
tan 0.960630 0.267716 -0.000000 1.000000
tan 0.740157 0.677165 -0.000000 1.000000
tan 0.314961 0.944882 -0.000000 1.000000
tan 0.314961 0.935086 -0.009920 1.000000
tan 0.868002 -0.472131 -0.138880 1.000000
tan 0.464567 -0.874326 -0.021948 1.000000
tan 0.732283 0.677103 -0.040362 1.000000
tan 0.322835 0.885176 -0.010168 1.000000
tan 0.945502 0.265732 -0.173972 1.000000
tan 0.885362 0.324013 -0.327361 1.000000
tan 0.833282 -0.469093 -0.291648 1.000000
tan 0.460909 -0.863104 -0.069502 1.000000
tan 0.756898 -0.472937 -0.458305 1.000000
tan 0.431645 -0.871288 -0.171926 1.000000
tan 0.667369 0.668113 -0.273793 1.000000
tan 0.297601 0.918470 -0.104160 1.000000
tan 0.223200 0.948602 -0.223201 1.000000
tan 0.801786 0.265298 -0.521917 1.000000
tan 0.624961 -0.468721 -0.624961 1.000000
tan 0.329221 -0.892802 -0.329221 1.000000
tan 0.171926 -0.871288 -0.431645 1.000000
tan 0.680761 0.267840 -0.680761 1.000000
tan 0.501953 0.682621 -0.519065 1.000000
tan 0.058466 0.870544 -0.317751 1.000000
tan 0.458305 -0.472937 -0.756897 1.000000
tan 0.069502 -0.863104 -0.460909 1.000000
tan 0.521917 0.265298 -0.801786 1.000000
tan 0.406225 0.576167 -0.709281 1.000000
tan 0.291649 -0.469093 -0.833282 1.000000
tan 0.021948 -0.874326 -0.464567 1.000000
tan 0.355509 0.264678 -0.892554 1.000000
tan 0.119784 0.664269 -0.713001 1.000000
tan 0.034720 0.907062 -0.312481 1.000000
tan 0.138880 -0.472131 -0.868002 1.000000
tan 0.000000 -0.889764 -0.464567 1.000000
tan 0.046624 0.669849 -0.740157 1.000000
tan 0.007440 0.933412 -0.314961 1.000000
tan 0.000000 0.944882 -0.322835 1.000000
tan 0.173972 0.265732 -0.945502 1.000000
tan -0.007440 0.314898 -0.944882 1.000000
tan 0.000000 -0.472441 -0.881890 1.000000
tan -0.138880 -0.472131 -0.868002 1.000000
tan -0.021948 -0.874326 -0.464567 1.000000
tan -0.173972 0.265732 -0.945502 1.000000
tan -0.039928 0.676669 -0.724409 1.000000
tan -0.009920 0.935086 -0.314961 1.000000
tan -0.010168 0.885176 -0.322835 1.000000
tan -0.245024 0.576105 -0.780209 1.000000
tan -0.355509 0.264678 -0.892554 1.000000
tan -0.291649 -0.469093 -0.833282 1.000000
tan -0.069502 -0.863104 -0.460909 1.000000
tan -0.458305 -0.469837 -0.749953 1.000000
tan -0.175584 -0.875194 -0.431645 1.000000
tan -0.521917 0.265298 -0.801786 1.000000
tan -0.279497 0.671151 -0.667369 1.000000
tan -0.104160 0.918470 -0.297601 1.000000
tan -0.223200 0.948602 -0.223201 1.000000
tan -0.680761 0.267840 -0.680761 1.000000
tan -0.530349 0.675243 -0.518693 1.000000
tan -0.317751 0.874698 -0.061008 1.000000
tan -0.624961 -0.468721 -0.624961 1.000000
tan -0.329221 -0.892802 -0.329221 1.000000
tan -0.431645 -0.871288 -0.171926 1.000000
tan -0.756898 -0.472937 -0.458305 1.000000
tan -0.460909 -0.863104 -0.069502 1.000000
tan -0.796082 0.328229 -0.513361 1.000000
tan -0.833282 -0.467667 -0.284704 1.000000
tan -0.464567 -0.874326 -0.021948 1.000000
tan -0.892554 0.263872 -0.347945 1.000000
tan -0.713001 0.664269 -0.119784 1.000000
tan -0.312481 0.907062 -0.034720 1.000000
tan -0.724409 0.677103 -0.039928 1.000000
tan -0.314961 0.933412 -0.007440 1.000000
tan -0.322835 0.944882 -0.000000 1.000000
tan -0.323889 0.933598 -0.036456 1.000000
tan -0.681877 0.727943 -0.006820 1.000000
tan -0.818898 0.574803 -0.017422 1.000000
tan -0.960630 0.261579 0.030256 1.000000
tan -0.945502 0.265732 -0.173972 1.000000
tan -0.960630 0.267716 -0.030256 1.000000
tan -0.868002 -0.472131 -0.138880 1.000000
tan -0.464567 -0.889764 -0.031682 1.000000
tan -0.881890 -0.472441 -0.020832 1.000000
tan -0.883378 -0.469031 0.034348 1.000000
tan -0.475913 -0.866142 -0.056730 1.000000
tan -0.710583 0.442743 -0.512927 1.000000
tan -0.312977 0.425693 -0.829314 1.000000
tan -0.446401 0.269080 -0.843202 1.000000
tan -0.582057 0.117552 -0.798561 1.000000
tan -0.615289 0.534937 -0.589001 1.000000
tan -0.186000 0.558001 -0.768801 1.000000
tan -0.668609 -0.045012 -0.727261 1.000000
tan -0.690681 -0.026350 -0.703081 1.000000
tan -0.778722 -0.173414 -0.591109 1.000000
tan -0.636121 0.714365 -0.284519 1.000000
tan -0.082832 0.654225 -0.683117 1.000000
tan -0.688821 0.156488 -0.585529 1.000000
tan -0.678963 0.260772 -0.630541 1.000000
tan -0.502201 0.705313 -0.485213 1.000000
tan -0.017732 0.725773 -0.588319 1.000000
tan -0.741398 0.391345 -0.515841 1.000000
tan -0.468721 0.725401 -0.496621 1.000000
tan -0.010354 0.829685 -0.479881 1.000000
tan -0.650815 0.406039 -0.623659 1.000000
tan -0.432761 0.732469 -0.521669 1.000000
tan -0.126170 0.938062 -0.315271 1.000000
tan -0.310001 0.893732 -0.149792 1.000000
tan -0.633951 0.435241 -0.638787 1.000000
tan -0.267407 0.726641 -0.602393 1.000000
tan -0.464443 0.808358 -0.098828 1.000000
tan -0.588009 0.742017 -0.131936 1.000000
tan -0.487693 0.430963 -0.749210 1.000000
tan -0.401885 0.705189 -0.580569 1.000000
tan -0.699361 0.647281 -0.215760 1.000000
tan -0.251410 0.692107 -0.679087 1.000000
tan -0.782938 0.507657 -0.331329 1.000000
tan -0.528985 0.400645 -0.738049 1.000000
tan -0.565193 0.449253 -0.685845 1.000000
tan -0.810714 0.343605 -0.459793 1.000000
tan -0.431025 0.366545 -0.792361 1.000000
tan -0.629301 0.274040 -0.721681 1.000000
tan -0.778722 0.173414 -0.591109 1.000000
tan -0.557815 0.229338 -0.742327 1.000000
tan -0.573439 0.082708 -0.699361 1.000000
tan -0.668609 0.045012 -0.727261 1.000000
tan -0.690681 0.026350 -0.703081 1.000000
tan -0.582057 -0.117552 -0.798561 1.000000
tan -0.709653 -0.445285 -0.518135 1.000000
tan -0.446401 -0.269081 -0.843202 1.000000
tan -0.312977 -0.425693 -0.829313 1.000000
tan -0.646971 -0.077996 -0.673197 1.000000
tan -0.615289 -0.534937 -0.589001 1.000000
tan -0.186000 -0.558001 -0.768801 1.000000
tan -0.716845 -0.255503 -0.554095 1.000000
tan -0.570525 -0.623597 -0.533325 1.000000
tan -0.537417 -0.678777 -0.496249 1.000000
tan -0.082832 -0.654225 -0.683117 1.000000
tan -0.678529 -0.327361 -0.610267 1.000000
tan -0.563271 -0.726641 -0.336041 1.000000
tan -0.017732 -0.725773 -0.588319 1.000000
tan -0.010354 -0.829686 -0.479881 1.000000
tan -0.712815 -0.413045 -0.547523 1.000000
tan -0.432761 -0.732469 -0.521669 1.000000
tan -0.126170 -0.938062 -0.315270 1.000000
tan -0.310001 -0.893732 -0.149792 1.000000
tan -0.621985 -0.434249 -0.650257 1.000000
tan -0.405605 -0.738297 -0.543617 1.000000
tan -0.464443 -0.808358 -0.098828 1.000000
tan -0.564077 -0.434187 -0.695889 1.000000
tan -0.389237 -0.719449 -0.556513 1.000000
tan -0.588009 -0.742017 -0.131936 1.000000
tan -0.229462 -0.731106 -0.641577 1.000000
tan -0.699361 -0.647281 -0.215760 1.000000
tan -0.462707 -0.426685 -0.769359 1.000000
tan -0.500341 -0.582677 -0.642569 1.000000
tan -0.782938 -0.507657 -0.331329 1.000000
tan -0.529109 -0.358051 -0.742141 1.000000
tan -0.428979 -0.500651 -0.726207 1.000000
tan -0.810714 -0.343605 -0.459793 1.000000
tan -0.469279 -0.285635 -0.773761 1.000000
tan -0.573439 -0.087668 -0.699175 1.000000
tan -0.431273 -0.284209 -0.731539 1.000000
tan -0.563705 -0.046872 -0.651373 1.000000
tan -0.351541 -0.430529 -0.756029 1.000000
tan -0.656209 -0.029016 -0.742141 1.000000
tan -0.656209 -0.051336 -0.749953 1.000000
tan -0.656209 -0.006820 -0.742141 1.000000
tan -0.656209 0.015376 -0.742141 1.000000
tan -0.279807 -0.527311 -0.766073 1.000000
tan -0.648397 -0.067890 -0.749953 1.000000
tan -0.648397 -0.083328 -0.749953 1.000000
tan -0.263624 -0.577655 -0.757703 1.000000
tan -0.267469 -0.598921 -0.753053 1.000000
tan -0.648397 -0.098766 -0.749953 1.000000
tan -0.656209 -0.103416 -0.749953 1.000000
tan -0.324447 -0.603137 -0.725463 1.000000
tan -0.408705 -0.603137 -0.683613 1.000000
tan -0.656209 -0.112344 -0.742141 1.000000
tan -0.528923 -0.599293 -0.591977 1.000000
tan -0.656209 -0.110980 -0.742141 1.000000
tan -0.656209 -0.109616 -0.742141 1.000000
tan -0.643437 -0.602765 -0.469031 1.000000
tan -0.664021 -0.097960 -0.742141 1.000000
tan -0.705933 -0.598115 -0.388803 1.000000
tan -0.664021 -0.091264 -0.734329 1.000000
tan -0.731973 -0.596813 -0.332011 1.000000
tan -0.664021 -0.073780 -0.734329 1.000000
tan -0.738917 -0.563333 -0.329531 1.000000
tan -0.742203 -0.503255 -0.345465 1.000000
tan -0.664021 -0.056110 -0.742141 1.000000
tan -0.731911 -0.398475 -0.418563 1.000000
tan -0.664021 -0.039060 -0.742141 1.000000
tan -0.677785 -0.212040 -0.522909 1.000000
tan -0.656209 -0.015376 -0.742141 1.000000
tan -0.568417 0.043524 -0.650629 1.000000
tan -0.656209 0.006820 -0.742141 1.000000
tan -0.656209 0.029016 -0.742141 1.000000
tan -0.451733 0.267220 -0.725215 1.000000
tan -0.336475 0.436729 -0.758695 1.000000
tan -0.656209 0.051336 -0.749953 1.000000
tan -0.648397 0.067890 -0.749953 1.000000
tan -0.282163 0.529667 -0.773017 1.000000
tan -0.648397 0.083328 -0.749953 1.000000
tan -0.263624 0.582429 -0.763965 1.000000
tan -0.275901 0.592349 -0.760555 1.000000
tan -0.648397 0.098766 -0.749953 1.000000
tan -0.656209 0.103416 -0.749953 1.000000
tan -0.324447 0.603137 -0.725463 1.000000
tan -0.414967 0.601773 -0.677351 1.000000
tan -0.656209 0.112344 -0.742141 1.000000
tan -0.656209 0.110980 -0.742141 1.000000
tan -0.541509 0.598983 -0.579515 1.000000
tan -0.656209 0.109616 -0.742141 1.000000
tan -0.643623 0.598239 -0.469031 1.000000
tan -0.664021 0.097960 -0.742141 1.000000
tan -0.705933 0.596379 -0.382479 1.000000
tan -0.664021 0.091264 -0.734329 1.000000
tan -0.731973 0.596813 -0.332011 1.000000
tan -0.664021 0.073780 -0.734329 1.000000
tan -0.738917 0.563333 -0.329531 1.000000
tan -0.741955 0.499411 -0.347077 1.000000
tan -0.664021 0.056110 -0.742141 1.000000
tan -0.664021 0.039060 -0.742141 1.000000
tan -0.722983 0.378883 -0.435489 1.000000
tan -0.677785 0.209436 -0.529171 1.000000
f 3/3/3 2/2/2 1/1/1
f 4/4/4 1/1/1 2/2/2
f 6/6/6 4/4/4 5/5/5
f 7/7/7 5/5/5 4/4/4
f 2/2/2 8/8/8 4/4/4
f 7/7/7 4/4/4 8/8/8
f 2/2/2 9/9/9 8/8/8
f 10/10/10 8/8/8 9/9/9
f 7/7/7 8/8/8 11/11/11
f 13/13/13 12/12/12 11/11/11
f 14/14/14 11/11/11 12/12/12
f 16/16/16 15/15/15 11/11/11
f 14/14/14 17/17/17 11/11/11
f 14/14/14 18/18/18 17/17/17
f 19/19/19 17/17/17 18/18/18
f 7/7/7 11/11/11 17/17/17
f 7/7/7 17/17/17 20/20/20
f 21/21/21 20/20/20 17/17/17
f 22/22/22 16/16/16 11/11/11
f 22/22/22 11/11/11 8/8/8
f 16/16/16 22/22/22 23/23/23
f 24/24/24 23/23/23 22/22/22
f 25/25/25 22/22/22 8/8/8
f 8/8/8 26/26/26 25/25/25
f 27/27/27 25/25/25 26/26/26
f 29/29/29 28/28/28 25/25/25
f 30/30/30 25/25/25 28/28/28
f 30/30/30 22/22/22 25/25/25
f 31/31/31 22/22/22 30/30/30
f 32/32/32 31/31/31 30/30/30
f 35/35/35 34/34/34 33/33/33
f 36/36/36 33/33/33 34/34/34
f 38/38/38 36/36/36 37/37/37
f 39/39/39 37/37/37 36/36/36
f 41/41/41 39/39/39 40/40/40
f 42/42/42 40/40/40 39/39/39
f 42/42/42 39/39/39 43/43/43
f 36/36/36 43/43/43 39/39/39
f 42/42/42 43/43/43 44/44/44
f 45/45/45 44/44/44 43/43/43
f 47/47/47 43/43/43 46/46/46
f 48/48/48 46/46/46 43/43/43
f 48/48/48 43/43/43 49/49/49
f 48/48/48 49/49/49 50/50/50
f 51/51/51 50/50/50 49/49/49
f 53/53/53 49/49/49 52/52/52
f 54/54/54 52/52/52 49/49/49
f 54/54/54 49/49/49 43/43/43
f 43/43/43 36/36/36 54/54/54
f 55/55/55 54/54/54 36/36/36
f 36/36/36 34/34/34 55/55/55
f 34/34/34 56/56/56 55/55/55
f 58/58/58 57/57/57 55/55/55
f 59/59/59 55/55/55 57/57/57
f 60/60/60 54/54/54 55/55/55
f 59/59/59 60/60/60 55/55/55
f 54/54/54 60/60/60 61/61/61
f 62/62/62 61/61/61 60/60/60
f 59/59/59 63/63/63 60/60/60
f 64/64/64 60/60/60 63/63/63
f 67/67/67 66/66/66 65/65/65
f 68/68/68 65/65/65 66/66/66
f 66/66/66 69/69/69 68/68/68
f 65/65/65 68/68/68 70/70/70
f 68/68/68 69/69/69 71/71/71
f 69/69/69 72/72/72 71/71/71
f 73/73/73 70/70/70 68/68/68
f 68/68/68 71/71/71 73/73/73
f 74/74/74 71/71/71 72/72/72
f 72/72/72 75/75/75 74/74/74
f 76/76/76 74/74/74 75/75/75
f 77/77/77 73/73/73 71/71/71
f 71/71/71 74/74/74 77/77/77
f 74/74/74 76/76/76 78/78/78
f 78/78/78 77/77/77 74/74/74
f 79/79/79 78/78/78 76/76/76
f 70/70/70 73/73/73 80/80/80
f 73/73/73 77/77/77 80/80/80
f 80/80/80 81/81/81 70/70/70
f 80/80/80 82/82/82 81/81/81
f 78/78/78 79/79/79 83/83/83
f 78/78/78 83/83/83 77/77/77
f 84/84/84 83/83/83 79/79/79
f 84/84/84 85/85/85 83/83/83
f 86/86/86 80/80/80 77/77/77
f 83/83/83 86/86/86 77/77/77
f 85/85/85 87/87/87 83/83/83
f 85/85/85 88/88/88 87/87/87
f 86/86/86 83/83/83 89/89/89
f 87/87/87 89/89/89 83/83/83
f 86/86/86 89/89/89 80/80/80
f 88/88/88 90/90/90 87/87/87
f 89/89/89 87/87/87 90/90/90
f 88/88/88 91/91/91 90/90/90
f 92/92/92 80/80/80 89/89/89
f 92/92/92 82/82/82 80/80/80
f 90/90/90 93/93/93 89/89/89
f 89/89/89 93/93/93 92/92/92
f 91/91/91 94/94/94 90/90/90
f 93/93/93 90/90/90 94/94/94
f 91/91/91 95/95/95 94/94/94
f 82/82/82 92/92/92 96/96/96
f 96/96/96 92/92/92 93/93/93
f 97/97/97 82/82/82 96/96/96
f 93/93/93 98/98/98 96/96/96
f 94/94/94 98/98/98 93/93/93
f 96/96/96 99/99/99 97/97/97
f 99/99/99 96/96/96 98/98/98
f 100/100/100 97/97/97 99/99/99
f 99/99/99 101/101/101 100/100/100
f 98/98/98 94/94/94 102/102/102
f 98/98/98 102/102/102 99/99/99
f 101/101/101 99/99/99 103/103/103
f 103/103/103 99/99/99 102/102/102
f 101/101/101 103/103/103 104/104/104
f 105/105/105 102/102/102 94/94/94
f 95/95/95 105/105/105 94/94/94
f 102/102/102 106/106/106 103/103/103
f 106/106/106 104/104/104 103/103/103
f 102/102/102 105/105/105 107/107/107
f 105/105/105 95/95/95 107/107/107
f 106/106/106 102/102/102 107/107/107
f 108/108/108 107/107/107 95/95/95
f 107/107/107 108/108/108 109/109/109
f 107/107/107 109/109/109 106/106/106
f 110/110/110 109/109/109 108/108/108
f 104/104/104 106/106/106 111/111/111
f 111/111/111 112/112/112 104/104/104
f 112/112/112 111/111/111 113/113/113
f 111/111/111 106/106/106 114/114/114
f 114/114/114 106/106/106 109/109/109
f 115/115/115 113/113/113 111/111/111
f 115/115/115 111/111/111 114/114/114
f 109/109/109 110/110/110 116/116/116
f 117/117/117 116/116/116 110/110/110
f 114/114/114 109/109/109 118/118/118
f 116/116/116 118/118/118 109/109/109
f 115/115/115 114/114/114 118/118/118
f 116/116/116 117/117/117 119/119/119
f 116/116/116 119/119/119 118/118/118
f 120/120/120 119/119/119 117/117/117
f 120/120/120 121/121/121 119/119/119
f 115/115/115 118/118/118 122/122/122
f 113/113/113 115/115/115 122/122/122
f 122/122/122 123/123/123 113/113/113
f 124/124/124 118/118/118 119/119/119
f 122/122/122 118/118/118 124/124/124
f 121/121/121 125/125/125 119/119/119
f 119/119/119 125/125/125 124/124/124
f 121/121/121 126/126/126 125/125/125
f 124/124/124 127/127/127 122/122/122
f 127/127/127 124/124/124 125/125/125
f 122/122/122 128/128/128 123/123/123
f 128/128/128 122/122/122 127/127/127
f 129/129/129 123/123/123 128/128/128
f 126/126/126 130/130/130 125/125/125
f 125/125/125 130/130/130 127/127/127
f 126/126/126 131/131/131 130/130/130
f 127/127/127 132/132/132 128/128/128
f 130/130/130 132/132/132 127/127/127
f 128/128/128 133/133/133 129/129/129
f 133/133/133 128/128/128 132/132/132
f 134/134/134 129/129/129 133/133/133
f 133/133/133 135/135/135 134/134/134
f 132/132/132 130/130/130 136/136/136
f 132/132/132 136/136/136 133/133/133
f 131/131/131 137/137/137 130/130/130
f 137/137/137 136/136/136 130/130/130
f 131/131/131 138/138/138 137/137/137
f 139/139/139 133/133/133 136/136/136
f 135/135/135 133/133/133 139/139/139
f 140/140/140 136/136/136 137/137/137
f 138/138/138 140/140/140 137/137/137
f 136/136/136 141/141/141 139/139/139
f 140/140/140 141/141/141 136/136/136
f 135/135/135 139/139/139 142/142/142
f 142/142/142 139/139/139 141/141/141
f 143/143/143 135/135/135 142/142/142
f 143/143/143 142/142/142 144/144/144
f 140/140/140 138/138/138 145/145/145
f 141/141/141 140/140/140 145/145/145
f 146/146/146 145/145/145 138/138/138
f 147/147/147 144/144/144 142/142/142
f 144/144/144 147/147/147 148/148/148
f 141/141/141 149/149/149 142/142/142
f 147/147/147 142/142/142 149/149/149
f 145/145/145 149/149/149 141/141/141
f 150/150/150 148/148/148 147/147/147
f 149/149/149 150/150/150 147/147/147
f 149/149/149 145/145/145 151/151/151
f 145/145/145 146/146/146 151/151/151
f 150/150/150 149/149/149 151/151/151
f 152/152/152 151/151/151 146/146/146
f 151/151/151 152/152/152 153/153/153
f 150/150/150 151/151/151 153/153/153
f 154/154/154 153/153/153 152/152/152
f 148/148/148 150/150/150 155/155/155
f 155/155/155 156/156/156 148/148/148
f 156/156/156 155/155/155 157/157/157
f 158/158/158 150/150/150 153/153/153
f 155/155/155 150/150/150 158/158/158
f 153/153/153 154/154/154 159/159/159
f 158/158/158 153/153/153 159/159/159
f 160/160/160 159/159/159 154/154/154
f 160/160/160 161/161/161 159/159/159
f 158/158/158 162/162/162 155/155/155
f 162/162/162 158/158/158 159/159/159
f 163/163/163 157/157/157 155/155/155
f 163/163/163 155/155/155 162/162/162
f 163/163/163 164/164/164 157/157/157
f 161/161/161 165/165/165 159/159/159
f 161/161/161 166/166/166 165/165/165
f 162/162/162 159/159/159 167/167/167
f 165/165/165 167/167/167 159/159/159
f 162/162/162 168/168/168 163/163/163
f 168/168/168 162/162/162 167/167/167
f 168/168/168 164/164/164 163/163/163
f 166/166/166 169/169/169 165/165/165
f 165/165/165 169/169/169 167/167/167
f 166/166/166 170/170/170 169/169/169
f 167/167/167 171/171/171 168/168/168
f 171/171/171 167/167/167 169/169/169
f 164/164/164 168/168/168 172/172/172
f 172/172/172 168/168/168 171/171/171
f 173/173/173 164/164/164 172/172/172
f 170/170/170 174/174/174 169/169/169
f 169/169/169 174/174/174 171/171/171
f 170/170/170 175/175/175 174/174/174
f 172/172/172 176/176/176 173/173/173
f 172/172/172 171/171/171 176/176/176
f 177/177/177 173/173/173 176/176/176
f 176/176/176 178/178/178 177/177/177
f 176/176/176 171/171/171 179/179/179
f 179/179/179 171/171/171 174/174/174
f 179/179/179 180/180/180 176/176/176
f 179/179/179 174/174/174 180/180/180
f 178/178/178 176/176/176 180/180/180
f 175/175/175 181/181/181 174/174/174
f 181/181/181 180/180/180 174/174/174
f 181/181/181 175/175/175 182/182/182
f 183/183/183 182/182/182 175/175/175
f 180/180/180 181/181/181 184/184/184
f 182/182/182 184/184/184 181/181/181
f 178/178/178 180/180/180 185/185/185
f 185/185/185 180/180/180 184/184/184
f 185/185/185 186/186/186 178/178/178
f 186/186/186 185/185/185 187/187/187
f 185/185/185 184/184/184 188/188/188
f 188/188/188 187/187/187 185/185/185
f 184/184/184 182/182/182 189/189/189
f 189/189/189 188/188/188 184/184/184
f 182/182/182 183/183/183 190/190/190
f 190/190/190 189/189/189 182/182/182
f 191/191/191 190/190/190 183/183/183
f 190/190/190 191/191/191 192/192/192
f 192/192/192 189/189/189 190/190/190
f 193/193/193 192/192/192 191/191/191
f 189/189/189 194/194/194 188/188/188
f 192/192/192 194/194/194 189/189/189
f 187/187/187 188/188/188 195/195/195
f 195/195/195 188/188/188 194/194/194
f 195/195/195 196/196/196 187/187/187
f 196/196/196 195/195/195 197/197/197
f 194/194/194 192/192/192 198/198/198
f 194/194/194 198/198/198 195/195/195
f 199/199/199 197/197/197 195/195/195
f 199/199/199 195/195/195 198/198/198
f 199/199/199 200/200/200 197/197/197
f 201/201/201 198/198/198 192/192/192
f 192/192/192 193/193/193 201/201/201
f 202/202/202 201/201/201 193/193/193
f 202/202/202 203/203/203 201/201/201
f 203/203/203 204/204/204 201/201/201
f 198/198/198 201/201/201 204/204/204
f 203/203/203 205/205/205 204/204/204
f 198/198/198 206/206/206 199/199/199
f 206/206/206 198/198/198 204/204/204
f 206/206/206 200/200/200 199/199/199
f 205/205/205 207/207/207 204/204/204
f 205/205/205 208/208/208 207/207/207
f 206/206/206 204/204/204 209/209/209
f 207/207/207 209/209/209 204/204/204
f 200/200/200 206/206/206 210/210/210
f 210/210/210 206/206/206 209/209/209
f 211/211/211 200/200/200 210/210/210
f 210/210/210 212/212/212 211/211/211
f 209/209/209 212/212/212 210/210/210
f 213/213/213 211/211/211 212/212/212
f 212/212/212 214/214/214 213/213/213
f 216/216/216 215/215/215 214/214/214
f 214/214/214 217/217/217 216/216/216
f 214/214/214 212/212/212 217/217/217
f 216/216/216 217/217/217 218/218/218
f 212/212/212 209/209/209 219/219/219
f 217/217/217 212/212/212 219/219/219
f 209/209/209 207/207/207 219/219/219
f 220/220/220 218/218/218 217/217/217
f 217/217/217 219/219/219 220/220/220
f 221/221/221 219/219/219 207/207/207
f 219/219/219 221/221/221 220/220/220
f 208/208/208 221/221/221 207/207/207
f 208/208/208 222/222/222 221/221/221
f 220/220/220 223/223/223 218/218/218
f 223/223/223 220/220/220 221/221/221
f 222/222/222 223/223/223 221/221/221
f 224/224/224 218/218/218 223/223/223
f 223/223/223 222/222/222 224/224/224
f 225/225/225 224/224/224 222/222/222
f 228/228/228 227/227/227 226/226/226
f 229/229/229 228/228/228 226/226/226
f 230/230/230 226/226/226 227/227/227
f 227/227/227 231/231/231 230/230/230
f 226/226/226 232/232/232 229/229/229
f 233/233/233 229/229/229 232/232/232
f 233/233/233 232/232/232 234/234/234
f 235/235/235 230/230/230 231/231/231
f 236/236/236 235/235/235 231/231/231
f 226/226/226 230/230/230 237/237/237
f 226/226/226 237/237/237 232/232/232
f 230/230/230 235/235/235 238/238/238
f 238/238/238 237/237/237 230/230/230
f 235/235/235 236/236/236 239/239/239
f 240/240/240 239/239/239 236/236/236
f 241/241/241 238/238/238 235/235/235
f 235/235/235 239/239/239 241/241/241
f 239/239/239 240/240/240 242/242/242
f 243/243/243 242/242/242 240/240/240
f 244/244/244 241/241/241 239/239/239
f 239/239/239 242/242/242 244/244/244
f 242/242/242 243/243/243 245/245/245
f 246/246/246 245/245/245 243/243/243
f 246/246/246 247/247/247 245/245/245
f 248/248/248 244/244/244 242/242/242
f 242/242/242 245/245/245 248/248/248
f 249/249/249 245/245/245 247/247/247
f 247/247/247 250/250/250 249/249/249
f 250/250/250 251/251/251 249/249/249
f 245/245/245 249/249/249 252/252/252
f 245/245/245 252/252/252 248/248/248
f 253/253/253 249/249/249 251/251/251
f 249/249/249 253/253/253 252/252/252
f 251/251/251 254/254/254 253/253/253
f 255/255/255 253/253/253 254/254/254
f 256/256/256 255/255/255 254/254/254
f 257/257/257 252/252/252 253/253/253
f 253/253/253 255/255/255 257/257/257
f 255/255/255 256/256/256 258/258/258
f 259/259/259 258/258/258 256/256/256
f 260/260/260 257/257/257 255/255/255
f 258/258/258 259/259/259 261/261/261
f 262/262/262 261/261/261 259/259/259
f 258/258/258 263/263/263 255/255/255
f 260/260/260 255/255/255 263/263/263
f 264/264/264 258/258/258 261/261/261
f 263/263/263 258/258/258 264/264/264
f 261/261/261 262/262/262 265/265/265
f 261/261/261 265/265/265 264/264/264
f 266/266/266 265/265/265 262/262/262
f 266/266/266 267/267/267 265/265/265
f 268/268/268 265/265/265 267/267/267
f 267/267/267 269/269/269 268/268/268
f 269/269/269 270/270/270 268/268/268
f 271/271/271 265/265/265 268/268/268
f 264/264/264 265/265/265 271/271/271
f 272/272/272 268/268/268 270/270/270
f 270/270/270 273/273/273 272/272/272
f 274/274/274 271/271/271 268/268/268
f 268/268/268 272/272/272 274/274/274
f 275/275/275 272/272/272 273/273/273
f 272/272/272 275/275/275 274/274/274
f 275/275/275 273/273/273 276/276/276
f 277/277/277 276/276/276 273/273/273
f 278/278/278 274/274/274 275/275/275
f 276/276/276 277/277/277 279/279/279
f 280/280/280 279/279/279 277/277/277
f 281/281/281 279/279/279 280/280/280
f 276/276/276 282/282/282 275/275/275
f 276/276/276 279/279/279 282/282/282
f 282/282/282 278/278/278 275/275/275
f 279/279/279 281/281/281 283/283/283
f 284/284/284 283/283/283 281/281/281
f 284/284/284 285/285/285 283/283/283
f 279/279/279 283/283/283 286/286/286
f 282/282/282 279/279/279 286/286/286
f 287/287/287 283/283/283 285/285/285
f 285/285/285 288/288/288 287/287/287
f 286/286/286 283/283/283 289/289/289
f 287/287/287 289/289/289 283/283/283
f 290/290/290 287/287/287 288/288/288
f 287/287/287 290/290/290 289/289/289
f 288/288/288 291/291/291 290/290/290
f 292/292/292 290/290/290 291/291/291
f 291/291/291 293/293/293 292/292/292
f 294/294/294 289/289/289 290/290/290
f 294/294/294 290/290/290 292/292/292
f 292/292/292 293/293/293 295/295/295
f 296/296/296 295/295/295 293/293/293
f 297/297/297 294/294/294 292/292/292
f 292/292/292 295/295/295 297/297/297
f 295/295/295 296/296/296 298/298/298
f 299/299/299 298/298/298 296/296/296
f 234/234/234 298/298/298 299/299/299
f 298/298/298 234/234/234 232/232/232
f 295/295/295 298/298/298 300/300/300
f 300/300/300 297/297/297 295/295/295
f 298/298/298 232/232/232 301/301/301
f 298/298/298 301/301/301 300/300/300
f 301/301/301 232/232/232 237/237/237
f 301/301/301 302/302/302 300/300/300
f 303/303/303 301/301/301 237/237/237
f 302/302/302 301/301/301 303/303/303
f 304/304/304 300/300/300 302/302/302
f 302/302/302 303/303/303 305/305/305
f 305/305/305 306/306/306 302/302/302
f 304/304/304 302/302/302 306/306/306
f 307/307/307 305/305/305 303/303/303
f 307/307/307 303/303/303 308/308/308
f 304/304/304 306/306/306 309/309/309
f 300/300/300 304/304/304 309/309/309
f 310/310/310 309/309/309 306/306/306
f 300/300/300 309/309/309 297/297/297
f 309/309/309 310/310/310 311/311/311
f 312/312/312 297/297/297 309/309/309
f 312/312/312 309/309/309 311/311/311
f 312/312/312 313/313/313 297/297/297
f 312/312/312 311/311/311 313/313/313
f 294/294/294 297/297/297 313/313/313
f 314/314/314 313/313/313 311/311/311
f 313/313/313 314/314/314 315/315/315
f 316/316/316 294/294/294 313/313/313
f 315/315/315 316/316/316 313/313/313
f 316/316/316 317/317/317 294/294/294
f 316/316/316 315/315/315 317/317/317
f 289/289/289 294/294/294 317/317/317
f 318/318/318 317/317/317 315/315/315
f 317/317/317 319/319/319 289/289/289
f 317/317/317 318/318/318 319/319/319
f 320/320/320 319/319/319 318/318/318
f 286/286/286 289/289/289 319/319/319
f 320/320/320 321/321/321 319/319/319
f 322/322/322 286/286/286 319/319/319
f 321/321/321 322/322/322 319/319/319
f 286/286/286 322/322/322 282/282/282
f 321/321/321 323/323/323 322/322/322
f 324/324/324 322/322/322 323/323/323
f 324/324/324 282/282/282 322/322/322
f 323/323/323 325/325/325 324/324/324
f 324/324/324 326/326/326 282/282/282
f 326/326/326 324/324/324 325/325/325
f 282/282/282 326/326/326 278/278/278
f 325/325/325 327/327/327 326/326/326
f 328/328/328 278/278/278 326/326/326
f 328/328/328 326/326/326 327/327/327
f 278/278/278 328/328/328 329/329/329
f 328/328/328 327/327/327 329/329/329
f 329/329/329 274/274/274 278/278/278
f 330/330/330 329/329/329 327/327/327
f 274/274/274 329/329/329 331/331/331
f 329/329/329 330/330/330 331/331/331
f 274/274/274 331/331/331 271/271/271
f 332/332/332 331/331/331 330/330/330
f 333/333/333 271/271/271 331/331/331
f 331/331/331 332/332/332 333/333/333
f 271/271/271 333/333/333 264/264/264
f 334/334/334 333/333/333 332/332/332
f 333/333/333 334/334/334 335/335/335
f 335/335/335 264/264/264 333/333/333
f 336/336/336 335/335/335 334/334/334
f 335/335/335 336/336/336 337/337/337
f 335/335/335 338/338/338 264/264/264
f 337/337/337 338/338/338 335/335/335
f 264/264/264 338/338/338 263/263/263
f 338/338/338 337/337/337 339/339/339
f 339/339/339 263/263/263 338/338/338
f 340/340/340 339/339/339 337/337/337
f 263/263/263 339/339/339 260/260/260
f 339/339/339 340/340/340 341/341/341
f 341/341/341 342/342/342 339/339/339
f 342/342/342 260/260/260 339/339/339
f 341/341/341 343/343/343 342/342/342
f 342/342/342 344/344/344 260/260/260
f 343/343/343 344/344/344 342/342/342
f 260/260/260 344/344/344 257/257/257
f 344/344/344 343/343/343 345/345/345
f 345/345/345 257/257/257 344/344/344
f 346/346/346 345/345/345 343/343/343
f 346/346/346 347/347/347 345/345/345
f 345/345/345 348/348/348 257/257/257
f 348/348/348 345/345/345 347/347/347
f 348/348/348 252/252/252 257/257/257
f 348/348/348 347/347/347 349/349/349
f 252/252/252 348/348/348 349/349/349
f 350/350/350 349/349/349 347/347/347
f 350/350/350 351/351/351 349/349/349
f 252/252/252 349/349/349 352/352/352
f 352/352/352 349/349/349 351/351/351
f 352/352/352 248/248/248 252/252/252
f 351/351/351 353/353/353 352/352/352
f 354/354/354 248/248/248 352/352/352
f 354/354/354 352/352/352 353/353/353
f 248/248/248 354/354/354 244/244/244
f 354/354/354 353/353/353 355/355/355
f 356/356/356 354/354/354 355/355/355
f 356/356/356 244/244/244 354/354/354
f 356/356/356 355/355/355 357/357/357
f 356/356/356 358/358/358 244/244/244
f 357/357/357 358/358/358 356/356/356
f 241/241/241 244/244/244 358/358/358
f 358/358/358 357/357/357 359/359/359
f 360/360/360 241/241/241 358/358/358
f 359/359/359 360/360/360 358/358/358
f 360/360/360 361/361/361 241/241/241
f 360/360/360 359/359/359 361/361/361
f 362/362/362 361/361/361 359/359/359
f 238/238/238 241/241/241 361/361/361
f 362/362/362 363/363/363 361/361/361
f 361/361/361 364/364/364 238/238/238
f 363/363/363 364/364/364 361/361/361
f 364/364/364 237/237/237 238/238/238
f 364/364/364 363/363/363 365/365/365
f 364/364/364 365/365/365 237/237/237
f 308/308/308 365/365/365 363/363/363
f 365/365/365 303/303/303 237/237/237
f 365/365/365 308/308/308 303/303/303
