mtllib SM_Food_Package_Trash_01.mtl
g SM_Food_Package_Trash_01
#Vertices 97
#Indices 399
#Section 0 Offset 0 NumIndices 399 MaterialIndex 0 MI_Small_Props_01
v -0.231472 0.001522 0.184520
v -0.178137 0.003659 0.159587
v -0.219966 0.003659 0.165800
v -0.159735 0.001522 0.231570
v -0.227782 0.006112 0.194057
v -0.152576 0.010238 0.241304
v -0.150467 0.014525 0.226197
v -0.223783 0.007805 0.180066
v -0.094950 0.001522 0.275495
v -0.148077 0.017059 0.211831
v -0.216491 0.008979 0.164235
v -0.171105 0.008328 0.083114
v -0.087101 0.009357 0.269400
v -0.085287 0.011161 0.254741
v -0.088802 0.012966 0.122398
v -0.072699 0.011111 0.083769
v -0.149075 0.010645 0.035340
v -0.027257 0.006443 0.155594
v -0.119726 0.006414 0.017325
v -0.091368 0.002306 -0.000249
v -0.006928 0.012300 0.110831
v 0.046018 0.014612 0.196632
v -0.005505 0.003274 0.033818
v -0.114276 0.009349 0.005287
v -0.062987 0.023606 -0.005555
v -0.136677 0.023587 0.022750
v -0.114276 0.009349 0.005287
v -0.143600 0.015184 -0.028699
v 0.108756 0.004640 0.067235
v -0.066593 0.015184 -0.054764
v -0.149902 0.016016 -0.097373
v 0.014700 0.021326 0.013425
v 0.022020 0.017598 -0.039142
v -0.070405 0.026344 -0.112647
v -0.154173 0.001712 -0.166184
v 0.008881 0.023369 -0.102940
v -0.072729 0.008840 -0.169947
v 0.011842 0.011178 -0.177691
v -0.066950 0.000700 -0.233712
v -0.152854 0.000700 -0.255773
v -0.095055 0.000700 -0.320648
v -0.122278 0.000700 -0.290757
v -0.009894 0.000700 -0.326327
v 0.010554 0.000737 -0.243017
v -0.002911 0.000700 -0.345170
v 0.103438 0.000700 -0.353577
v 0.105798 0.001940 -0.249027
v 0.116063 0.000700 -0.333417
v 0.116536 0.015858 -0.179847
v 0.190062 0.001038 -0.244220
v 0.216049 0.000700 -0.331616
v 0.242720 0.000700 -0.301762
v 0.274751 0.000700 -0.274537
v 0.277179 0.000700 -0.241991
v 0.188945 0.012690 -0.178542
v 0.278045 0.000700 -0.175405
v 0.267304 0.025171 -0.107597
v 0.191217 0.008529 -0.114080
v 0.116937 0.032131 -0.098800
v 0.191735 0.019079 -0.049625
v 0.276933 0.013821 -0.055606
v 0.114499 0.021663 -0.037603
v 0.185616 0.013148 -0.001017
v 0.263413 0.010569 0.032602
v 0.115036 0.013688 0.016464
v 0.197233 0.003488 0.079372
v 0.233927 0.002840 0.055282
v 0.140084 0.019391 0.148985
v 0.216742 0.007683 0.099124
v 0.231054 0.014489 0.138971
v 0.221020 0.019053 0.172458
v 0.197855 0.013284 0.231418
v 0.074022 0.018979 0.135031
v 0.115266 0.019469 0.211075
v 0.168011 0.032972 0.337504
v 0.083254 0.038696 0.320430
v 0.004160 0.031868 0.295426
v 0.083289 0.028620 0.335618
v 0.167259 0.024695 0.353577
v 0.173026 0.010421 0.334998
v 0.003492 0.023753 0.310489
v 0.079425 0.010668 0.315481
v 0.162812 0.002826 0.347586
v 0.000271 0.009720 0.301851
v 0.160094 0.003659 0.285430
v 0.176176 0.003659 0.319625
v 0.078823 0.002322 0.332646
v -0.088662 0.007065 0.284786
v -0.001532 0.001745 0.317578
v -0.028910 0.003659 0.176472
v 0.059992 0.003659 0.202688
v -0.116403 0.003659 0.135075
v 0.138915 0.003659 0.221338
v -0.138485 0.003360 0.154920
v -0.128821 0.003659 0.140005
v 0.135978 0.003380 0.253297
v 0.145189 0.003659 0.229163
vt 0.272217 0.172363
vt 0.261963 0.139648
vt 0.275635 0.159668
vt 0.224243 0.159668
vt 0.266846 0.177734
vt 0.216797 0.169922
vt 0.219116 0.180664
vt 0.268555 0.187012
vt 0.178833 0.159668
vt 0.221191 0.190430
vt 0.268555 0.198730
vt 0.263916 0.252441
vt 0.175659 0.173340
vt 0.178345 0.182617
vt 0.211670 0.252441
vt 0.212158 0.278809
vt 0.264160 0.282715
vt 0.171631 0.249023
vt 0.250000 0.307617
vt 0.238037 0.324219
vt 0.170532 0.278809
vt 0.123047 0.243164
vt 0.184937 0.323242
vt 0.252197 0.331055
vt 0.224854 0.353027
vt 0.268799 0.340332
vt 0.265625 0.329590
vt 0.272705 0.372070
vt 0.116272 0.326172
vt 0.228394 0.384766
vt 0.276611 0.412598
vt 0.177979 0.349609
vt 0.177246 0.380859
vt 0.231079 0.420898
vt 0.282715 0.456543
vt 0.187012 0.418945
vt 0.235474 0.459473
vt 0.187134 0.465332
vt 0.233398 0.498047
vt 0.283203 0.507812
vt 0.250000 0.547607
vt 0.265137 0.530518
vt 0.201538 0.552002
vt 0.188843 0.504883
vt 0.197632 0.563232
vt 0.136719 0.569824
vt 0.133911 0.510254
vt 0.129028 0.558594
vt 0.126709 0.468262
vt 0.085449 0.509277
vt 0.071716 0.559082
vt 0.056000 0.542480
vt 0.038269 0.529297
vt 0.036041 0.510986
vt 0.084656 0.469727
vt 0.032928 0.474609
vt 0.035248 0.429688
vt 0.080078 0.435547
vt 0.126343 0.420898
vt 0.081116 0.399902
vt 0.032288 0.399902
vt 0.124390 0.386719
vt 0.083923 0.374023
vt 0.042267 0.350586
vt 0.120422 0.355957
vt 0.064941 0.333984
vt 0.047882 0.351074
vt 0.083801 0.285645
vt 0.050568 0.326660
vt 0.041321 0.316406
vt 0.037079 0.296387
vt 0.032867 0.259766
vt 0.121338 0.280762
vt 0.081665 0.250000
vt 0.024811 0.191406
vt 0.072632 0.183594
vt 0.118408 0.180664
vt 0.069885 0.171387
vt 0.021500 0.174805
vt 0.020859 0.152344
vt 0.117004 0.170410
vt 0.075562 0.148926
vt 0.026169 0.139648
vt 0.121704 0.157715
vt 0.031281 0.104004
vt 0.020462 0.122559
vt 0.075989 0.134766
vt 0.172974 0.165527
vt 0.121643 0.147949
vt 0.178467 0.091309
vt 0.126099 0.075195
vt 0.233398 0.099609
vt 0.080200 0.061523
vt 0.237915 0.116211
vt 0.237793 0.105957
vt 0.071777 0.078613
vt 0.074402 0.063965
vt1 0.512207 0.116211
vt1 0.459717 0.082520
vt1 0.502441 0.094727
vt1 0.429932 0.155762
vt1 0.511230 0.130371
vt1 0.431641 0.179199
vt1 0.447754 0.191406
vt1 0.524902 0.141602
vt1 0.365479 0.208984
vt1 0.461670 0.202148
vt1 0.538086 0.157715
vt1 0.595703 0.239746
vt1 0.377197 0.231934
vt1 0.392334 0.242188
vt1 0.521973 0.301270
vt1 0.553711 0.337891
vt1 0.632324 0.281738
vt1 0.461426 0.343750
vt1 0.641602 0.333984
vt1 0.643555 0.371094
vt1 0.494873 0.386719
vt1 0.385986 0.393066
vt1 0.567871 0.432617
vt1 0.672363 0.364258
vt1 0.659180 0.427246
vt1 0.706543 0.357910
vt1 0.689453 0.346680
vt1 0.749512 0.397461
vt1 0.474609 0.518066
vt1 0.702148 0.468262
vt1 0.803223 0.450195
vt1 0.589355 0.478516
vt1 0.625488 0.523438
vt1 0.748535 0.515869
vt1 0.863770 0.505127
vt1 0.684082 0.565430
vt1 0.800781 0.565186
vt1 0.739258 0.630615
vt1 0.843262 0.621826
vt1 0.925293 0.576904
vt1 0.925293 0.672363
vt1 0.926758 0.630127
vt1 0.862305 0.736084
vt1 0.788574 0.684326
vt1 0.870117 0.756348
vt1 0.791992 0.837646
vt1 0.717285 0.756958
vt1 0.767578 0.831055
vt1 0.657715 0.706299
vt1 0.647949 0.812866
vt1 0.687500 0.899719
vt1 0.645508 0.894775
vt1 0.604980 0.897217
vt1 0.580078 0.874023
vt1 0.600098 0.758057
vt1 0.532715 0.826294
vt1 0.482910 0.760010
vt1 0.552734 0.715332
vt1 0.600586 0.639648
vt1 0.512207 0.663818
vt1 0.443604 0.721924
vt1 0.557617 0.594238
vt1 0.485596 0.624023
vt1 0.399170 0.640381
vt1 0.515625 0.555176
vt1 0.411377 0.590088
vt1 0.407715 0.634521
vt1 0.381104 0.499512
vt1 0.382324 0.596680
vt1 0.357422 0.593262
vt1 0.327393 0.569580
vt1 0.278076 0.522949
vt1 0.427979 0.448242
vt1 0.335693 0.451660
vt1 0.185791 0.436035
vt1 0.244385 0.368652
vt1 0.305420 0.310547
vt1 0.226074 0.354980
vt1 0.161865 0.416992
vt1 0.134521 0.386230
vt1 0.291260 0.297363
vt1 0.207520 0.316406
vt1 0.126465 0.361328
vt1 0.282715 0.273926
vt1 0.091858 0.305664
vt1 0.098633 0.344727
vt1 0.191040 0.295898
vt1 0.364502 0.224609
vt1 0.271240 0.260742
vt1 0.284180 0.113281
vt1 0.191528 0.152832
vt1 0.371826 0.060059
vt1 0.110718 0.187988
vt1 0.397461 0.078125
vt1 0.385498 0.063477
vt1 0.118774 0.221680
vt1 0.105408 0.198242
vn -0.188976 -0.952756 0.228347
vn 0.070866 -0.976378 -0.196850
vn 0.070866 -0.976378 -0.196850
vn -0.157480 -0.960630 0.220473
vn -0.582677 0.157480 0.795275
vn -0.535433 0.236221 0.811023
vn -0.362205 0.787401 0.496063
vn -0.527559 0.763779 0.370079
vn -0.086614 -0.984252 0.149606
vn 0.015748 1.000000 -0.039370
vn -0.251969 0.952756 -0.173228
vn -0.181102 0.968504 -0.173228
vn -0.440945 0.480315 0.755905
vn -0.133858 0.976378 -0.181102
vn 0.062992 1.000000 -0.039370
vn 0.047244 0.976378 -0.204724
vn -0.118110 0.992126 -0.031496
vn -0.125984 0.976378 -0.181102
vn 0.259843 0.858268 -0.440945
vn -0.047244 0.834646 0.551181
vn -0.070866 0.952756 -0.283465
vn -0.259843 0.874016 -0.409449
vn -0.094488 0.960630 0.275590
vn 0.220472 -0.015748 0.976378
vn -0.259843 0.921260 0.299212
vn -0.141732 0.897638 -0.417323
vn 0.314961 -0.472441 0.826772
vn -0.204724 0.968504 -0.133858
vn 0.047244 1.000000 -0.062992
vn -0.102362 0.992126 0.094488
vn -0.338583 0.905512 -0.259843
vn -0.086614 0.779527 0.622047
vn -0.070866 0.968504 0.236220
vn -0.188976 0.937008 -0.299213
vn -0.283465 0.818897 -0.496063
vn -0.157480 0.968504 -0.188976
vn -0.165354 0.811023 -0.559055
vn -0.118110 0.787401 -0.606299
vn -0.086614 0.968504 -0.244095
vn -0.149606 0.960630 -0.251969
vn 0.000000 1.000000 -0.000000
vn 0.000000 1.000000 -0.000000
vn 0.000000 1.000000 -0.000000
vn -0.062992 0.960630 -0.275591
vn -0.023622 1.000000 -0.023622
vn -0.023622 1.000000 -0.023622
vn -0.015748 0.952756 -0.307087
vn 0.031496 1.000000 -0.039370
vn 0.055118 0.818897 -0.566929
vn 0.125984 0.944882 -0.307087
vn 0.023622 1.000000 -0.031496
vn 0.015748 1.000000 -0.015748
vn 0.015748 1.000000 -0.000000
vn 0.236220 0.929134 -0.283465
vn 0.244094 0.850394 -0.464567
vn 0.118110 0.889764 -0.440945
vn -0.181102 0.944882 -0.283465
vn 0.251969 0.929134 -0.267717
vn 0.118110 0.976378 -0.173228
vn 0.204724 0.960630 0.204724
vn -0.055118 0.984252 0.188976
vn 0.118110 0.937008 0.330709
vn 0.133858 0.897638 0.425197
vn 0.141732 0.944882 0.291338
vn 0.039370 0.818898 0.566929
vn 0.133858 0.984252 -0.110236
vn 0.322835 0.858268 0.393701
vn 0.062992 0.960630 -0.267717
vn 0.023622 0.732283 -0.685039
vn 0.149606 0.874016 -0.464567
vn 0.118110 0.992126 0.070866
vn 0.283465 0.921260 -0.267717
vn -0.086614 0.937008 -0.346457
vn 0.102362 0.921260 -0.370079
vn 0.322835 0.921260 -0.220473
vn 0.062992 0.952756 -0.299213
vn -0.346457 0.866142 -0.346457
vn -0.228346 0.000000 0.976378
vn -0.196850 -0.070866 0.976378
vn -0.220472 -0.062992 0.976378
vn -0.377953 0.110236 0.921260
vn -0.212598 0.000000 0.976378
vn -0.141732 -0.456693 0.874016
vn -0.267717 0.086614 0.960630
vn 0.047244 -1.000000 -0.055118
vn 0.047244 -1.000000 -0.055118
vn -0.062992 -0.897638 0.433071
vn -0.370079 0.157480 0.913386
vn -0.039370 -0.976378 0.204724
vn 0.031496 -1.000000 -0.062992
vn 0.023622 -1.000000 -0.055118
vn 0.039370 -1.000000 -0.070866
vn 0.023622 -1.000000 -0.047244
vn -0.047244 -0.992126 -0.110236
vn -0.047244 -0.992126 -0.110236
vn 0.031496 -1.000000 -0.031496
vn 0.031496 -1.000000 -0.031496
tan 0.674871 -0.296051 -0.676731 1.000000
tan 0.725897 0.186186 -0.662161 1.000000
tan 0.718209 0.187178 -0.669849 1.000000
tan 0.576601 -0.271313 -0.770289 1.000000
tan -0.009114 -0.979912 0.187364 1.000000
tan -0.109182 -0.974208 0.211669 1.000000
tan -0.337529 -0.606485 0.716225 1.000000
tan -0.301135 -0.576787 0.761113 1.000000
tan 0.568107 -0.172298 -0.804637 1.000000
tan -0.433071 0.042470 0.905512 1.000000
tan -0.434435 0.048856 0.900614 1.000000
tan -0.445099 0.077190 0.896894 1.000000
tan -0.126294 -0.870482 0.479447 1.000000
tan -0.412363 0.112344 0.910472 1.000000
tan -0.407899 0.061752 0.915866 1.000000
tan -0.383161 0.206832 0.898010 1.000000
tan -0.464629 -0.027342 0.881084 1.000000
tan -0.386447 0.119784 0.914626 1.000000
tan -0.279435 0.502387 0.813193 1.000000
tan -0.089776 -0.551677 0.827702 1.000000
tan -0.354455 0.240499 0.896956 1.000000
tan -0.378201 0.298841 0.877922 1.000000
tan -0.292827 -0.291586 0.915990 1.000000
tan -0.057288 -1.001922 -0.003224 1.000000
tan -0.127348 -0.340629 0.938186 1.000000
tan 0.174902 0.438713 0.884246 1.000000
tan -0.328291 -0.872032 -0.373241 1.000000
tan 0.073842 0.151652 0.984314 1.000000
tan -0.273607 0.073532 0.962118 1.000000
tan -0.021576 -0.096968 0.994792 1.000000
tan 0.008804 0.280179 0.964908 1.000000
tan -0.177940 -0.624403 0.757703 1.000000
tan -0.112716 -0.243288 0.963668 1.000000
tan -0.041788 0.297477 0.957964 1.000000
tan -0.055428 0.503317 0.862546 1.000000
tan -0.086118 0.177320 0.980532 1.000000
tan -0.058528 0.558063 0.826895 1.000000
tan -0.051584 0.605245 0.796081 1.000000
tan -0.036394 0.240809 0.968380 1.000000
tan -0.054808 0.245645 0.969062 1.000000
tan -0.015748 0.000000 1.000000 1.000000
tan 0.000000 0.000000 1.000000 1.000000
tan -0.047244 0.000000 1.000000 1.000000
tan -0.034658 0.274599 0.965094 1.000000
tan -0.039928 0.022692 1.000558 1.000000
tan -0.039928 0.022692 1.000558 1.000000
tan -0.039680 0.306591 0.953252 1.000000
tan -0.038440 0.040610 1.000744 1.000000
tan -0.027280 0.569967 0.820633 1.000000
tan -0.042966 0.314589 0.950338 1.000000
tan -0.022878 0.032054 1.000558 1.000000
tan -0.015500 0.015996 1.000248 1.000000
tan -0.062992 0.000992 1.000248 1.000000
tan -0.066340 0.306157 0.948230 1.000000
tan -0.035774 0.486453 0.871660 1.000000
tan -0.063364 0.450493 0.892058 1.000000
tan -0.004464 0.287557 0.961374 1.000000
tan -0.031868 0.285077 0.959390 1.000000
tan -0.089900 0.184884 0.980780 1.000000
tan -0.058652 -0.196664 0.981462 1.000000
tan 0.066154 -0.185938 0.987724 1.000000
tan -0.147994 -0.313410 0.940852 1.000000
tan -0.140616 -0.409015 0.907744 1.000000
tan 0.086924 -0.304606 0.945626 1.000000
tan -0.179056 -0.553041 0.811272 1.000000
tan -0.268585 0.142972 0.950400 1.000000
tan -0.263129 -0.315828 0.904272 1.000000
tan -0.350921 0.271065 0.890074 1.000000
tan -0.268957 0.663091 0.699547 1.000000
tan -0.421973 0.479323 0.765887 1.000000
tan -0.478207 -0.006138 0.882944 1.000000
tan -0.392151 0.365677 0.843139 1.000000
tan -0.341187 0.299399 0.895034 1.000000
tan -0.358423 0.381735 0.851137 1.000000
tan -0.274351 0.314031 0.910472 1.000000
tan -0.311861 0.302561 0.897762 1.000000
tan -0.380557 0.207329 0.898878 1.000000
tan -0.030752 -0.997768 -0.007192 1.000000
tan -0.055800 -0.990514 -0.083142 1.000000
tan -0.039928 -1.001922 -0.073656 1.000000
tan 0.068882 -0.985616 0.146196 1.000000
tan 0.038440 -0.998512 0.008370 1.000000
tan 0.078802 -0.882572 -0.448385 1.000000
tan 0.106764 -0.990266 0.119040 1.000000
tan 0.084010 0.058776 -0.994358 1.000000
tan 0.091884 0.059148 -0.994358 1.000000
tan 0.232500 -0.434311 -0.866390 1.000000
tan 0.000496 -0.982702 0.169632 1.000000
tan 0.289293 -0.208134 -0.937008 1.000000
tan 0.567425 0.069936 -0.826524 1.000000
tan 0.520119 0.059148 -0.850208 1.000000
tan 0.559613 0.081158 -0.834336 1.000000
tan 0.480315 0.052638 -0.874016 1.000000
tan 0.542501 0.066712 -0.832910 1.000000
tan 0.558125 0.065100 -0.825098 1.000000
tan 0.487941 0.042904 -0.874264 1.000000
tan 0.448323 0.042408 -0.898134 1.000000
f 3/3/3 2/2/2 1/1/1
f 2/2/2 4/4/4 1/1/1
f 1/1/1 4/4/4 5/5/5
f 4/4/4 6/6/6 5/5/5
f 6/6/6 7/7/7 5/5/5
f 8/8/8 5/5/5 7/7/7
f 4/4/4 9/9/9 6/6/6
f 7/7/7 10/10/10 8/8/8
f 11/11/11 8/8/8 10/10/10
f 10/10/10 12/12/12 11/11/11
f 7/7/7 6/6/6 13/13/13
f 7/7/7 14/14/14 10/10/10
f 7/7/7 13/13/13 14/14/14
f 10/10/10 15/15/15 12/12/12
f 10/10/10 14/14/14 15/15/15
f 17/17/17 12/12/12 16/16/16
f 15/15/15 16/16/16 12/12/12
f 18/18/18 15/15/15 14/14/14
f 20/20/20 19/19/19 16/16/16
f 18/18/18 21/21/21 15/15/15
f 16/16/16 15/15/15 21/21/21
f 22/22/22 18/18/18 14/14/14
f 18/18/18 22/22/22 21/21/21
f 23/23/23 20/20/20 16/16/16
f 23/23/23 16/16/16 21/21/21
f 25/25/25 24/24/24 20/20/20
f 25/25/25 20/20/20 23/23/23
f 27/27/27 25/25/25 26/26/26
f 28/28/28 26/26/26 25/25/25
f 21/21/21 29/29/29 23/23/23
f 30/30/30 28/28/28 25/25/25
f 31/31/31 28/28/28 30/30/30
f 23/23/23 32/32/32 25/25/25
f 23/23/23 29/29/29 32/32/32
f 25/25/25 33/33/33 30/30/30
f 33/33/33 25/25/25 32/32/32
f 34/34/34 31/31/31 30/30/30
f 35/35/35 31/31/31 34/34/34
f 34/34/34 30/30/30 36/36/36
f 33/33/33 36/36/36 30/30/30
f 37/37/37 35/35/35 34/34/34
f 36/36/36 38/38/38 34/34/34
f 37/37/37 34/34/34 38/38/38
f 37/37/37 39/39/39 35/35/35
f 40/40/40 35/35/35 39/39/39
f 37/37/37 38/38/38 39/39/39
f 42/42/42 39/39/39 41/41/41
f 41/41/41 39/39/39 43/43/43
f 44/44/44 43/43/43 39/39/39
f 44/44/44 39/39/39 38/38/38
f 43/43/43 44/44/44 45/45/45
f 45/45/45 44/44/44 46/46/46
f 47/47/47 46/46/46 44/44/44
f 44/44/44 38/38/38 47/47/47
f 46/46/46 47/47/47 48/48/48
f 49/49/49 47/47/47 38/38/38
f 47/47/47 50/50/50 48/48/48
f 47/47/47 49/49/49 50/50/50
f 51/51/51 48/48/48 50/50/50
f 51/51/51 50/50/50 52/52/52
f 54/54/54 53/53/53 50/50/50
f 50/50/50 55/55/55 54/54/54
f 55/55/55 50/50/50 49/49/49
f 56/56/56 54/54/54 55/55/55
f 56/56/56 55/55/55 57/57/57
f 55/55/55 49/49/49 58/58/58
f 58/58/58 57/57/57 55/55/55
f 49/49/49 38/38/38 59/59/59
f 58/58/58 49/49/49 59/59/59
f 36/36/36 59/59/59 38/38/38
f 36/36/36 33/33/33 59/59/59
f 58/58/58 60/60/60 57/57/57
f 58/58/58 59/59/59 60/60/60
f 61/61/61 57/57/57 60/60/60
f 62/62/62 59/59/59 33/33/33
f 60/60/60 59/59/59 62/62/62
f 61/61/61 60/60/60 63/63/63
f 60/60/60 62/62/62 63/63/63
f 64/64/64 61/61/61 63/63/63
f 62/62/62 33/33/33 65/65/65
f 65/65/65 63/63/63 62/62/62
f 32/32/32 65/65/65 33/33/33
f 65/65/65 32/32/32 29/29/29
f 63/63/63 65/65/65 66/66/66
f 29/29/29 66/66/66 65/65/65
f 67/67/67 63/63/63 66/66/66
f 66/66/66 29/29/29 68/68/68
f 69/69/69 66/66/66 68/68/68
f 71/71/71 70/70/70 68/68/68
f 71/71/71 68/68/68 72/72/72
f 73/73/73 68/68/68 29/29/29
f 73/73/73 29/29/29 21/21/21
f 74/74/74 72/72/72 68/68/68
f 68/68/68 73/73/73 74/74/74
f 73/73/73 21/21/21 22/22/22
f 22/22/22 74/74/74 73/73/73
f 72/72/72 74/74/74 75/75/75
f 74/74/74 22/22/22 76/76/76
f 76/76/76 75/75/75 74/74/74
f 77/77/77 76/76/76 22/22/22
f 77/77/77 22/22/22 14/14/14
f 13/13/13 77/77/77 14/14/14
f 76/76/76 78/78/78 75/75/75
f 79/79/79 75/75/75 78/78/78
f 79/79/79 78/78/78 80/80/80
f 77/77/77 81/81/81 76/76/76
f 78/78/78 76/76/76 81/81/81
f 81/81/81 77/77/77 13/13/13
f 78/78/78 82/82/82 80/80/80
f 82/82/82 78/78/78 81/81/81
f 80/80/80 82/82/82 83/83/83
f 84/84/84 81/81/81 13/13/13
f 84/84/84 82/82/82 81/81/81
f 86/86/86 83/83/83 85/85/85
f 83/83/83 87/87/87 85/85/85
f 87/87/87 83/83/83 82/82/82
f 88/88/88 84/84/84 13/13/13
f 88/88/88 13/13/13 6/6/6
f 88/88/88 6/6/6 9/9/9
f 84/84/84 89/89/89 82/82/82
f 89/89/89 84/84/84 88/88/88
f 9/9/9 89/89/89 88/88/88
f 87/87/87 82/82/82 89/89/89
f 9/9/9 90/90/90 89/89/89
f 9/9/9 4/4/4 90/90/90
f 90/90/90 91/91/91 89/89/89
f 87/87/87 89/89/89 91/91/91
f 92/92/92 90/90/90 4/4/4
f 91/91/91 93/93/93 87/87/87
f 94/94/94 92/92/92 4/4/4
f 95/95/95 92/92/92 94/94/94
f 96/96/96 87/87/87 93/93/93
f 97/97/97 96/96/96 93/93/93
