mtllib SM_Food_Package_01.mtl
g SM_Food_Package_01
#Vertices 136
#Indices 348
#Section 0 Offset 0 NumIndices 348 MaterialIndex 0 MI_Small_Props_01
v -0.023191 0.186261 -0.000000
v 0.000000 0.000000 0.074647
v 0.000000 0.000000 0.010065
v -0.023191 0.212131 0.084712
v 0.144222 0.186515 0.001836
v 0.121150 0.001427 0.073339
v 0.121152 0.001431 0.011371
v 0.144141 0.212373 0.082937
v 0.001252 0.001421 0.073342
v -0.021746 0.212386 0.082941
v -0.021826 0.186530 0.001831
v 0.001250 0.001425 0.011368
v 0.145584 0.186261 -0.000000
v 0.122392 0.000000 0.074647
v 0.145584 0.212131 0.084712
v 0.122392 0.000000 0.010065
v 0.000000 0.000000 0.010065
v 0.000000 0.000000 0.074647
v 0.020399 0.000000 0.074647
v 0.020399 0.000000 0.010065
v 0.040797 0.005484 0.074647
v 0.040797 0.005484 0.010065
v 0.081595 0.005484 0.074647
v 0.081595 0.005484 0.010065
v 0.101994 0.000000 0.074647
v 0.101994 0.000000 0.010065
v 0.122392 0.000000 0.074647
v 0.122392 0.000000 0.010065
v 0.145584 0.212131 0.084712
v 0.122392 0.000000 0.074647
v 0.127326 0.212131 0.084712
v 0.101994 0.000000 0.074647
v 0.109006 0.192619 0.083786
v 0.081595 0.005484 0.074647
v 0.013386 0.192619 0.083786
v 0.040797 0.005484 0.074647
v 0.020399 0.000000 0.074647
v -0.004933 0.212131 0.084712
v 0.000000 0.000000 0.074647
v -0.023191 0.212131 0.084712
v -0.021746 0.212386 0.082941
v 0.001252 0.001421 0.073342
v -0.004933 0.212240 0.082414
v 0.020174 0.001708 0.073123
v 0.013386 0.192730 0.081489
v 0.040589 0.007067 0.072992
v 0.081804 0.007067 0.072992
v 0.109007 0.192730 0.081489
v 0.102219 0.001708 0.073123
v 0.127326 0.212240 0.082414
v 0.121150 0.001427 0.073339
v 0.144141 0.212373 0.082937
v -0.023191 0.212131 0.084712
v -0.023191 0.186261 -0.000000
v -0.022558 0.186794 0.000894
v -0.022512 0.212658 0.083845
v -0.021826 0.186530 0.001831
v -0.021746 0.212386 0.082941
v 0.145584 0.186261 -0.000000
v 0.101994 0.000000 0.010065
v 0.122392 0.000000 0.010065
v 0.128174 0.206704 -0.000000
v 0.081595 0.005484 0.010065
v 0.089325 0.206704 -0.000000
v 0.040797 0.005484 0.010065
v 0.033067 0.206704 -0.000000
v -0.005782 0.206704 -0.000000
v 0.020399 0.000000 0.010065
v -0.023191 0.186261 -0.000000
v 0.000000 0.000000 0.010065
v 0.102218 0.001709 0.011587
v 0.144222 0.186515 0.001836
v 0.121152 0.001431 0.011371
v 0.128215 0.206815 0.002297
v 0.081805 0.007068 0.011719
v 0.089326 0.206818 0.002297
v 0.040587 0.007068 0.011719
v 0.033066 0.206818 0.002297
v -0.005823 0.206815 0.002297
v 0.020174 0.001709 0.011587
v -0.021826 0.186530 0.001831
v 0.001250 0.001425 0.011368
v 0.145584 0.212131 0.084712
v 0.144953 0.186787 0.000897
v 0.145584 0.186261 -0.000000
v 0.144906 0.212652 0.083843
v 0.144222 0.186515 0.001836
v 0.144141 0.212373 0.082937
v 0.121150 0.001427 0.073339
v 0.102218 0.001709 0.011587
v 0.121152 0.001431 0.011371
v 0.102219 0.001708 0.073123
v 0.081804 0.007067 0.072992
v 0.081805 0.007068 0.011719
v 0.040587 0.007068 0.011719
v 0.040589 0.007067 0.072992
v 0.020174 0.001709 0.011587
v 0.020174 0.001708 0.073123
v 0.001252 0.001421 0.073342
v 0.001250 0.001425 0.011368
v -0.022512 0.212658 0.083845
v -0.004933 0.212131 0.084712
v -0.023191 0.212131 0.084712
v -0.004981 0.212585 0.083581
v -0.021746 0.212386 0.082941
v -0.004933 0.212240 0.082414
v 0.013328 0.193072 0.082656
v 0.013386 0.192619 0.083786
v 0.013386 0.192730 0.081489
v 0.109065 0.193072 0.082656
v 0.109006 0.192619 0.083786
v 0.109007 0.192730 0.081489
v 0.127326 0.212131 0.084712
v 0.127326 0.212240 0.082414
v 0.145584 0.212131 0.084712
v 0.144906 0.212652 0.083843
v 0.127373 0.212585 0.083581
v 0.144141 0.212373 0.082937
v 0.128174 0.206704 -0.000000
v 0.145584 0.186261 -0.000000
v 0.144953 0.186787 0.000897
v 0.128215 0.206815 0.002297
v 0.144222 0.186515 0.001836
v 0.128245 0.207159 0.001130
v 0.089341 0.207163 0.001129
v 0.089325 0.206704 -0.000000
v 0.089326 0.206818 0.002297
v 0.033051 0.207163 0.001129
v 0.033067 0.206704 -0.000000
v 0.033066 0.206818 0.002297
v -0.005782 0.206704 -0.000000
v -0.005823 0.206815 0.002297
v -0.005853 0.207159 0.001130
v -0.022558 0.186794 0.000894
v -0.023191 0.186261 -0.000000
v -0.021826 0.186530 0.001831
vt 0.548340 0.369141
vt 0.504395 0.259277
vt 0.542480 0.259277
vt 0.499023 0.384766
vt 0.612305 0.368652
vt 0.569824 0.259277
vt 0.606445 0.259277
vt 0.564453 0.383789
vt 0.536621 0.540283
vt 0.541992 0.664795
vt 0.494629 0.649658
vt 0.500488 0.540283
vt 0.499023 0.509766
vt 0.542969 0.399902
vt 0.548340 0.524902
vt 0.504883 0.399902
vt 0.665527 0.964386
vt 0.665527 0.926453
vt 0.677734 0.926453
vt 0.677734 0.964386
vt 0.689941 0.926453
vt 0.689941 0.964386
vt 0.713867 0.926453
vt 0.713867 0.964386
vt 0.726074 0.926453
vt 0.726074 0.964386
vt 0.738281 0.926453
vt 0.738281 0.964386
vt 0.450684 0.809570
vt 0.464355 0.685059
vt 0.461426 0.809570
vt 0.476318 0.685059
vt 0.472168 0.798096
vt 0.488281 0.688232
vt 0.528320 0.798096
vt 0.512207 0.688232
vt 0.523926 0.685059
vt 0.539062 0.809570
vt 0.536133 0.685059
vt 0.549805 0.809570
vt 0.564453 0.523438
vt 0.578125 0.399902
vt 0.574707 0.523438
vt 0.589355 0.399902
vt 0.585449 0.511963
vt 0.601074 0.403320
vt 0.625488 0.403320
vt 0.641602 0.511963
vt 0.637695 0.399902
vt 0.652344 0.523438
vt 0.648438 0.399902
vt 0.662109 0.523438
vt 0.275879 0.061523
vt 0.275879 0.113770
vt 0.275635 0.113281
vt 0.275391 0.062012
vt 0.275146 0.112793
vt 0.274902 0.062500
vt 0.659668 0.649658
vt 0.633789 0.540283
vt 0.645996 0.540283
vt 0.649414 0.661621
vt 0.622070 0.543457
vt 0.626465 0.661621
vt 0.597656 0.543457
vt 0.593262 0.661621
vt 0.570312 0.661621
vt 0.585938 0.540283
vt 0.560547 0.649658
vt 0.573730 0.540283
vt 0.589355 0.676514
vt 0.564453 0.784912
vt 0.578125 0.676270
vt 0.574219 0.796875
vt 0.601562 0.679688
vt 0.597168 0.796875
vt 0.625488 0.679688
vt 0.629883 0.796875
vt 0.652832 0.796875
vt 0.637695 0.676514
vt 0.662109 0.784912
vt 0.648926 0.676270
vt 0.656738 0.188965
vt 0.657227 0.240723
vt 0.656738 0.241211
vt 0.657227 0.189453
vt 0.657715 0.239746
vt 0.657715 0.189941
vt 0.829102 0.962860
vt 0.817871 0.926636
vt 0.829102 0.926514
vt 0.817871 0.962738
vt 0.805664 0.962646
vt 0.805664 0.926697
vt 0.781250 0.926697
vt 0.781250 0.962646
vt 0.769043 0.926636
vt 0.769043 0.962738
vt 0.757812 0.962860
vt 0.757812 0.926453
vt 0.657227 0.170410
vt 0.658691 0.160156
vt 0.657715 0.170898
vt 0.658203 0.160156
vt 0.656738 0.169922
vt 0.657715 0.160156
vt 0.657715 0.144531
vt 0.658203 0.144043
vt 0.656738 0.144043
vt 0.657715 0.087891
vt 0.658203 0.088379
vt 0.656738 0.088379
vt 0.659180 0.072266
vt 0.657715 0.072754
vt 0.657715 0.061523
vt 0.657715 0.062012
vt 0.658203 0.072266
vt 0.656738 0.062500
vt 0.477051 0.248535
vt 0.478027 0.232910
vt 0.478760 0.233398
vt 0.478516 0.249023
vt 0.479248 0.233887
vt 0.477783 0.249023
vt 0.477783 0.271484
vt 0.477051 0.271484
vt 0.478516 0.271484
vt 0.477783 0.304688
vt 0.477051 0.304688
vt 0.478516 0.304688
vt 0.477051 0.327637
vt 0.478516 0.327637
vt 0.477783 0.327637
vt 0.478760 0.342773
vt 0.478271 0.343262
vt 0.479248 0.342773
vt1 0.372070 0.103027
vt1 0.421143 0.344238
vt1 0.343750 0.330566
vt1 0.479248 0.090820
vt1 0.175781 0.592041
vt1 0.414551 0.545898
vt1 0.401367 0.620117
vt1 0.162231 0.489258
vt1 0.414551 0.840698
vt1 0.162109 0.897339
vt1 0.175659 0.794556
vt1 0.401367 0.766357
vt1 0.166138 0.103027
vt1 0.117065 0.344238
vt1 0.059052 0.090820
vt1 0.194458 0.330566
vt1 0.697754 0.799561
vt1 0.697754 0.878296
vt1 0.672852 0.878296
vt1 0.672852 0.799561
vt1 0.647461 0.878296
vt1 0.647461 0.799561
vt1 0.597656 0.878296
vt1 0.597656 0.799561
vt1 0.572266 0.878296
vt1 0.572266 0.799561
vt1 0.547363 0.878296
vt1 0.547363 0.799561
vt1 0.650879 0.054688
vt1 0.909668 0.083008
vt1 0.650879 0.077148
vt1 0.909668 0.107910
vt1 0.674805 0.099609
vt1 0.902832 0.132812
vt1 0.674805 0.216309
vt1 0.902832 0.182617
vt1 0.909668 0.207520
vt1 0.650879 0.238770
vt1 0.909668 0.232422
vt1 0.650879 0.260742
vt1 0.627930 0.372559
vt1 0.885254 0.400391
vt1 0.628418 0.393066
vt1 0.884766 0.423340
vt1 0.651855 0.415527
vt1 0.878418 0.448242
vt1 0.878418 0.498535
vt1 0.651855 0.531738
vt1 0.884766 0.523438
vt1 0.628418 0.554199
vt1 0.885254 0.546631
vt1 0.627930 0.574707
vt1 0.813477 0.313477
vt1 0.705566 0.313477
vt1 0.706543 0.308105
vt1 0.812500 0.308105
vt1 0.707520 0.305176
vt1 0.811523 0.303223
vt1 0.166138 0.103027
vt1 0.219360 0.330566
vt1 0.194458 0.330566
vt1 0.187378 0.078125
vt1 0.244263 0.323730
vt1 0.234863 0.078125
vt1 0.293945 0.323730
vt1 0.303467 0.078125
vt1 0.350830 0.078125
vt1 0.318848 0.330566
vt1 0.372070 0.103027
vt1 0.343750 0.330566
vt1 0.401123 0.643311
vt1 0.175781 0.592041
vt1 0.401367 0.620117
vt1 0.151001 0.611572
vt1 0.394531 0.668213
vt1 0.151001 0.658936
vt1 0.394531 0.718506
vt1 0.151001 0.727539
vt1 0.151001 0.775024
vt1 0.401123 0.743408
vt1 0.175659 0.794556
vt1 0.401367 0.766357
vt1 0.843262 0.652344
vt1 0.736328 0.658936
vt1 0.735352 0.652344
vt1 0.842285 0.658936
vt1 0.737305 0.662598
vt1 0.841309 0.665527
vt1 0.902832 0.753540
vt1 0.827148 0.776611
vt1 0.827148 0.753540
vt1 0.902344 0.776611
vt1 0.902344 0.802246
vt1 0.827637 0.802246
vt1 0.827637 0.852417
vt1 0.902344 0.852417
vt1 0.827148 0.877991
vt1 0.902344 0.877991
vt1 0.902832 0.901001
vt1 0.827148 0.901001
vt1 0.757324 0.733643
vt1 0.735840 0.720703
vt1 0.758301 0.729004
vt1 0.736328 0.726807
vt1 0.756348 0.738525
vt1 0.735840 0.732910
vt1 0.703613 0.731445
vt1 0.703613 0.725098
vt1 0.703613 0.737793
vt1 0.586914 0.731445
vt1 0.586914 0.725098
vt1 0.586914 0.737793
vt1 0.554199 0.719482
vt1 0.554688 0.731934
vt1 0.531738 0.729004
vt1 0.533203 0.733398
vt1 0.554199 0.725830
vt1 0.534180 0.738037
vt1 0.524414 0.313965
vt1 0.531250 0.280762
vt1 0.534668 0.281738
vt1 0.533691 0.313965
vt1 0.538574 0.282715
vt1 0.529297 0.313965
vt1 0.528320 0.361328
vt1 0.523926 0.361328
vt1 0.533203 0.361328
vt1 0.528320 0.429688
vt1 0.523926 0.429688
vt1 0.533203 0.429688
vt1 0.524414 0.477539
vt1 0.533691 0.477539
vt1 0.528809 0.477051
vt1 0.534668 0.509277
vt1 0.531250 0.510010
vt1 0.538574 0.508545
vn -0.992126 -0.118110 0.023622
vn -0.992126 -0.118110 0.023622
vn -0.992126 -0.118110 0.023622
vn -0.992126 -0.118110 0.023622
vn -0.992126 0.118110 -0.023622
vn -0.992126 0.118110 -0.023622
vn -0.992126 0.118110 -0.023622
vn -0.992126 0.118110 -0.023622
vn 0.992126 0.118110 -0.023622
vn 0.992126 0.118110 -0.023622
vn 0.992126 0.118110 -0.023622
vn 0.992126 0.118110 -0.023622
vn 0.992126 -0.118110 0.023622
vn 0.992126 -0.118110 0.023622
vn 0.992126 -0.118110 0.023622
vn 0.992126 -0.118110 0.023622
vn 0.000000 -1.000000 0.000000
vn 0.000000 -1.000000 0.000000
vn 0.133858 -0.992126 0.000000
vn 0.133858 -0.992126 0.000000
vn 0.133858 -0.992126 0.000000
vn 0.133858 -0.992126 0.000000
vn -0.133858 -0.992126 0.000000
vn -0.133858 -0.992126 0.000000
vn -0.133858 -0.992126 0.000000
vn -0.133858 -0.992126 0.000000
vn 0.000000 -1.000000 0.000000
vn 0.000000 -1.000000 0.000000
vn 0.000000 -0.047244 1.000000
vn 0.000000 -0.047244 1.000000
vn 0.000000 -0.047244 1.000000
vn 0.000000 -0.047244 1.000000
vn -0.007874 -0.047244 1.000000
vn 0.000000 -0.047244 1.000000
vn 0.007874 -0.047244 1.000000
vn 0.000000 -0.047244 1.000000
vn 0.000000 -0.047244 1.000000
vn 0.000000 -0.047244 1.000000
vn 0.000000 -0.047244 1.000000
vn 0.000000 -0.047244 1.000000
vn -0.023622 0.039370 -1.000000
vn -0.023622 0.039370 -1.000000
vn -0.015748 0.039370 -1.000000
vn -0.015748 0.039370 -1.000000
vn -0.007874 0.047244 -1.000000
vn -0.007874 0.047244 -1.000000
vn 0.007874 0.047244 -1.000000
vn 0.007874 0.047244 -1.000000
vn 0.015748 0.039370 -1.000000
vn 0.015748 0.039370 -1.000000
vn 0.023622 0.039370 -1.000000
vn 0.023622 0.039370 -1.000000
vn -0.606299 0.755905 -0.236221
vn -0.606299 0.755905 -0.236221
vn -0.409449 0.866142 -0.267717
vn -0.417323 0.866142 -0.267717
vn 0.330709 0.897638 -0.283465
vn 0.330709 0.897638 -0.283465
vn -0.023622 -0.047244 -1.000000
vn -0.015748 -0.047244 -1.000000
vn -0.023622 -0.047244 -1.000000
vn -0.015748 -0.047244 -1.000000
vn 0.000000 -0.047244 -1.000000
vn 0.000000 -0.047244 -1.000000
vn 0.000000 -0.047244 -1.000000
vn 0.000000 -0.047244 -1.000000
vn 0.015748 -0.047244 -1.000000
vn 0.015748 -0.047244 -1.000000
vn 0.023622 -0.047244 -1.000000
vn 0.023622 -0.047244 -1.000000
vn 0.023622 0.047244 1.000000
vn 0.047244 0.039370 1.000000
vn 0.047244 0.039370 1.000000
vn 0.023622 0.047244 1.000000
vn 0.000000 0.047244 1.000000
vn 0.000000 0.047244 1.000000
vn 0.000000 0.047244 1.000000
vn 0.000000 0.047244 1.000000
vn -0.023622 0.047244 1.000000
vn -0.023622 0.047244 1.000000
vn -0.047244 0.039370 1.000000
vn -0.047244 0.039370 1.000000
vn 0.606299 0.763779 -0.236221
vn 0.409449 0.874016 -0.267717
vn 0.606299 0.763779 -0.236221
vn 0.417323 0.866142 -0.267717
vn -0.338583 0.897638 -0.283465
vn -0.338583 0.897638 -0.283465
vn 0.015748 1.000000 -0.000000
vn 0.133858 0.992126 -0.000000
vn 0.015748 1.000000 -0.000000
vn 0.133858 0.992126 -0.000000
vn 0.125984 0.992126 -0.000000
vn 0.125984 0.992126 -0.000000
vn -0.125984 0.992126 -0.000000
vn -0.125984 0.992126 -0.000000
vn -0.133858 0.992126 -0.000000
vn -0.133858 0.992126 -0.000000
vn -0.015748 1.000000 -0.000000
vn -0.015748 1.000000 -0.000000
vn 0.000000 0.968504 0.244094
vn 0.425197 0.834646 0.354331
vn 0.007874 0.897638 0.440945
vn 0.370079 0.929134 0.062992
vn 0.000000 0.960630 -0.283465
vn 0.425197 0.874016 -0.236221
vn 0.440945 0.897638 0.039370
vn 0.346457 0.874016 0.338583
vn 0.346457 0.905512 -0.251969
vn -0.440945 0.897638 0.039370
vn -0.346457 0.874016 0.338583
vn -0.346457 0.905512 -0.251969
vn -0.425197 0.834646 0.354331
vn -0.425197 0.874016 -0.244095
vn -0.007874 0.897638 0.440945
vn 0.000000 0.968504 0.244094
vn -0.370079 0.929134 0.062992
vn 0.000000 0.960630 -0.291339
vn 0.448819 0.858268 -0.251969
vn 0.763780 0.637795 -0.094488
vn 0.771654 0.629921 0.094488
vn 0.409449 0.826772 0.393701
vn 0.708661 0.566929 0.417323
vn 0.401575 0.913386 0.062992
vn 0.000000 1.000000 -0.047244
vn 0.000000 0.929134 -0.377953
vn 0.000000 0.960630 0.283464
vn 0.000000 1.000000 -0.047244
vn 0.000000 0.929134 -0.377953
vn 0.000000 0.960630 0.283464
vn -0.448819 0.858268 -0.251969
vn -0.409449 0.826772 0.385827
vn -0.401575 0.913386 0.062992
vn -0.771654 0.629921 0.094488
vn -0.763780 0.637795 -0.102362
vn -0.708661 0.566929 0.417323
tan 0.118110 -0.992684 -0.002790 1.000000
tan 0.118110 -0.992684 -0.002790 1.000000
tan 0.118110 -0.992684 -0.002790 1.000000
tan 0.118110 -0.992684 -0.002790 1.000000
tan -0.118110 -0.992684 -0.002790 1.000000
tan -0.118110 -0.992684 -0.002790 1.000000
tan -0.118110 -0.992684 -0.002790 1.000000
tan -0.118110 -0.992684 -0.002790 1.000000
tan 0.118110 -0.992684 -0.002790 1.000000
tan 0.118110 -0.992684 -0.002790 1.000000
tan 0.118110 -0.992684 -0.002790 1.000000
tan 0.118110 -0.992684 -0.002790 1.000000
tan -0.118110 -0.992684 -0.002790 1.000000
tan -0.118110 -0.992684 -0.002790 1.000000
tan -0.118110 -0.992684 -0.002790 1.000000
tan -0.118110 -0.992684 -0.002790 1.000000
tan 0.000000 0.000000 1.000000 1.000000
tan 0.000000 0.000000 1.000000 1.000000
tan 0.000000 0.000000 1.002232 1.000000
tan 0.000000 0.000000 1.002232 1.000000
tan 0.000000 0.000000 1.002232 1.000000
tan 0.000000 0.000000 1.002232 1.000000
tan 0.000000 0.000000 1.002232 1.000000
tan 0.000000 0.000000 1.002232 1.000000
tan 0.000000 0.000000 1.002232 1.000000
tan 0.000000 0.000000 1.002232 1.000000
tan 0.000000 0.000000 1.000000 1.000000
tan 0.000000 0.000000 1.000000 1.000000
tan 0.000000 -1.000000 -0.047244 1.000000
tan 0.000000 -1.000000 -0.047244 1.000000
tan 0.000000 -1.000000 -0.047244 1.000000
tan 0.000000 -1.000000 -0.047244 1.000000
tan 0.000372 -1.000062 -0.047244 1.000000
tan 0.000000 -1.000000 -0.047244 1.000000
tan -0.000372 -1.000062 -0.047244 1.000000
tan 0.000000 -1.000000 -0.047244 1.000000
tan 0.000000 -1.000000 -0.047244 1.000000
tan 0.000000 -1.000000 -0.047244 1.000000
tan 0.000000 -1.000000 -0.047244 1.000000
tan 0.000000 -1.000000 -0.047244 1.000000
tan -0.000930 -1.000558 -0.039370 1.000000
tan -0.000930 -1.000558 -0.039370 1.000000
tan -0.000620 -1.000248 -0.039370 1.000000
tan -0.000620 -1.000248 -0.039370 1.000000
tan -0.000372 -1.000062 -0.047244 1.000000
tan -0.000372 -1.000062 -0.047244 1.000000
tan 0.000372 -1.000062 -0.047244 1.000000
tan 0.000372 -1.000062 -0.047244 1.000000
tan 0.000620 -1.000248 -0.039370 1.000000
tan 0.000620 -1.000248 -0.039370 1.000000
tan 0.000930 -1.000558 -0.039370 1.000000
tan 0.000930 -1.000558 -0.039370 1.000000
tan -0.097464 0.224193 0.967574 1.000000
tan -0.123132 0.205097 0.972348 1.000000
tan -0.070804 0.261765 0.955174 1.000000
tan -0.072912 0.262137 0.961746 1.000000
tan 0.166284 0.239941 0.953810 1.000000
tan 0.065472 0.278257 0.957530 1.000000
tan 0.001116 -1.000558 0.047244 1.000000
tan 0.000744 -1.000248 0.047244 1.000000
tan 0.001116 -1.000558 0.047244 1.000000
tan 0.000744 -1.000248 0.047244 1.000000
tan 0.000000 -1.000000 0.047244 1.000000
tan 0.000000 -1.000000 0.047244 1.000000
tan 0.000000 -1.000000 0.047244 1.000000
tan 0.000000 -1.000000 0.047244 1.000000
tan -0.000744 -1.000248 0.047244 1.000000
tan -0.000744 -1.000248 0.047244 1.000000
tan -0.001116 -1.000558 0.047244 1.000000
tan -0.001116 -1.000558 0.047244 1.000000
tan 0.001116 -1.000558 0.047244 1.000000
tan 0.001860 -1.002232 0.039370 1.000000
tan 0.001860 -1.002232 0.039370 1.000000
tan 0.001116 -1.000558 0.047244 1.000000
tan 0.000000 -1.000000 0.047244 1.000000
tan 0.000000 -1.000000 0.047244 1.000000
tan 0.000000 -1.000000 0.047244 1.000000
tan 0.000000 -1.000000 0.047244 1.000000
tan -0.001116 -1.000558 0.047244 1.000000
tan -0.001116 -1.000558 0.047244 1.000000
tan -0.001860 -1.002232 0.039370 1.000000
tan -0.001860 -1.002232 0.039370 1.000000
tan 0.089094 0.230827 0.975014 1.000000
tan 0.061442 0.267097 0.965962 1.000000
tan 0.121024 0.205097 0.973774 1.000000
tan 0.070804 0.262137 0.958460 1.000000
tan -0.168516 0.239383 0.959328 1.000000
tan -0.077004 0.273607 0.958398 1.000000
tan 0.000000 -0.000000 -1.000248 1.000000
tan 0.000000 -0.000000 -1.002232 1.000000
tan 0.000000 -0.000000 -1.000248 1.000000
tan 0.000000 -0.000000 -1.002232 1.000000
tan 0.000000 -0.000000 -1.000186 1.000000
tan 0.000000 -0.000000 -1.000186 1.000000
tan 0.000000 -0.000000 -1.000186 1.000000
tan 0.000000 -0.000000 -1.000186 1.000000
tan 0.000000 -0.000000 -1.002232 1.000000
tan 0.000000 -0.000000 -1.002232 1.000000
tan 0.000000 -0.000000 -1.000248 1.000000
tan 0.000000 -0.000000 -1.000248 1.000000
tan 0.989956 0.030752 -0.122016 1.000000
tan 0.903838 -0.420175 -0.094860 1.000000
tan 0.982578 0.069440 -0.158906 1.000000
tan 0.934094 -0.368591 -0.051088 1.000000
tan 1.003162 -0.002232 -0.007564 1.000000
tan 0.896708 -0.439705 -0.012834 1.000000
tan 0.899498 -0.440945 -0.020832 1.000000
tan 0.935148 -0.359353 -0.029264 1.000000
tan 0.936512 -0.357369 0.003410 1.000000
tan 0.899498 0.441255 0.013764 1.000000
tan 0.935148 0.359353 0.029264 1.000000
tan 0.936512 0.357369 -0.003410 1.000000
tan 0.903838 0.420175 0.094860 1.000000
tan 0.898382 0.440635 0.012834 1.000000
tan 0.982578 -0.069440 0.158906 1.000000
tan 0.989956 -0.030752 0.122016 1.000000
tan 0.934094 0.368591 0.051088 1.000000
tan 1.007688 0.002294 0.007564 1.000000
tan 0.886788 -0.464443 -0.002418 1.000000
tan 0.644677 -0.759997 0.081158 1.000000
tan 0.635377 -0.769297 -0.060264 1.000000
tan 0.910472 -0.423709 -0.057102 1.000000
tan 0.692665 -0.678529 -0.254448 1.000000
tan 0.918346 -0.401079 -0.038812 1.000000
tan 1.002232 -0.000372 -0.007874 1.000000
tan 1.006138 -0.002976 -0.007316 1.000000
tan 1.003162 0.002232 -0.007564 1.000000
tan 1.002232 0.000372 0.007874 1.000000
tan 1.006138 0.002976 0.007316 1.000000
tan 1.003162 -0.002232 0.007564 1.000000
tan 0.888772 0.464443 -0.001116 1.000000
tan 0.907496 0.422779 0.057102 1.000000
tan 0.918346 0.401079 0.038812 1.000000
tan 0.634633 0.769297 0.054188 1.000000
tan 0.646475 0.760183 -0.087172 1.000000
tan 0.689379 0.678529 0.248868 1.000000
f 3/3/3 2/2/2 1/1/1
f 4/4/4 1/1/1 2/2/2
f 7/7/7 6/6/6 5/5/5
f 8/8/8 5/5/5 6/6/6
f 11/11/11 10/10/10 9/9/9
f 9/9/9 12/12/12 11/11/11
f 15/15/15 14/14/14 13/13/13
f 16/16/16 13/13/13 14/14/14
f 19/19/19 18/18/18 17/17/17
f 17/17/17 20/20/20 19/19/19
f 19/19/19 20/20/20 21/21/21
f 22/22/22 21/21/21 20/20/20
f 21/21/21 22/22/22 23/23/23
f 24/24/24 23/23/23 22/22/22
f 23/23/23 24/24/24 25/25/25
f 26/26/26 25/25/25 24/24/24
f 25/25/25 26/26/26 27/27/27
f 28/28/28 27/27/27 26/26/26
f 31/31/31 30/30/30 29/29/29
f 32/32/32 30/30/30 31/31/31
f 33/33/33 32/32/32 31/31/31
f 34/34/34 32/32/32 33/33/33
f 33/33/33 35/35/35 34/34/34
f 36/36/36 34/34/34 35/35/35
f 36/36/36 35/35/35 37/37/37
f 35/35/35 38/38/38 37/37/37
f 37/37/37 38/38/38 39/39/39
f 40/40/40 39/39/39 38/38/38
f 43/43/43 42/42/42 41/41/41
f 44/44/44 42/42/42 43/43/43
f 45/45/45 44/44/44 43/43/43
f 46/46/46 44/44/44 45/45/45
f 46/46/46 45/45/45 47/47/47
f 48/48/48 47/47/47 45/45/45
f 47/47/47 48/48/48 49/49/49
f 48/48/48 50/50/50 49/49/49
f 49/49/49 50/50/50 51/51/51
f 52/52/52 51/51/51 50/50/50
f 55/55/55 54/54/54 53/53/53
f 56/56/56 55/55/55 53/53/53
f 57/57/57 55/55/55 56/56/56
f 58/58/58 57/57/57 56/56/56
f 61/61/61 60/60/60 59/59/59
f 62/62/62 59/59/59 60/60/60
f 60/60/60 63/63/63 62/62/62
f 64/64/64 62/62/62 63/63/63
f 63/63/63 65/65/65 64/64/64
f 66/66/66 64/64/64 65/65/65
f 66/66/66 65/65/65 67/67/67
f 68/68/68 67/67/67 65/65/65
f 67/67/67 68/68/68 69/69/69
f 70/70/70 69/69/69 68/68/68
f 73/73/73 72/72/72 71/71/71
f 74/74/74 71/71/71 72/72/72
f 71/71/71 74/74/74 75/75/75
f 76/76/76 75/75/75 74/74/74
f 75/75/75 76/76/76 77/77/77
f 78/78/78 77/77/77 76/76/76
f 78/78/78 79/79/79 77/77/77
f 80/80/80 77/77/77 79/79/79
f 79/79/79 81/81/81 80/80/80
f 82/82/82 80/80/80 81/81/81
f 85/85/85 84/84/84 83/83/83
f 86/86/86 83/83/83 84/84/84
f 84/84/84 87/87/87 86/86/86
f 88/88/88 86/86/86 87/87/87
f 91/91/91 90/90/90 89/89/89
f 92/92/92 89/89/89 90/90/90
f 92/92/92 90/90/90 93/93/93
f 94/94/94 93/93/93 90/90/90
f 94/94/94 95/95/95 93/93/93
f 93/93/93 95/95/95 96/96/96
f 95/95/95 97/97/97 96/96/96
f 98/98/98 96/96/96 97/97/97
f 99/99/99 98/98/98 97/97/97
f 97/97/97 100/100/100 99/99/99
f 103/103/103 102/102/102 101/101/101
f 104/104/104 101/101/101 102/102/102
f 105/105/105 101/101/101 104/104/104
f 106/106/106 105/105/105 104/104/104
f 102/102/102 107/107/107 104/104/104
f 106/106/106 104/104/104 107/107/107
f 107/107/107 102/102/102 108/108/108
f 107/107/107 109/109/109 106/106/106
f 108/108/108 110/110/110 107/107/107
f 109/109/109 107/107/107 110/110/110
f 110/110/110 108/108/108 111/111/111
f 112/112/112 109/109/109 110/110/110
f 111/111/111 113/113/113 110/110/110
f 112/112/112 110/110/110 114/114/114
f 116/116/116 113/113/113 115/115/115
f 117/117/117 114/114/114 110/110/110
f 117/117/117 110/110/110 113/113/113
f 113/113/113 116/116/116 117/117/117
f 117/117/117 118/118/118 114/114/114
f 118/118/118 117/117/117 116/116/116
f 121/121/121 120/120/120 119/119/119
f 123/123/123 121/121/121 122/122/122
f 119/119/119 124/124/124 121/121/121
f 124/124/124 122/122/122 121/121/121
f 124/124/124 119/119/119 125/125/125
f 124/124/124 125/125/125 122/122/122
f 126/126/126 125/125/125 119/119/119
f 125/125/125 127/127/127 122/122/122
f 125/125/125 126/126/126 128/128/128
f 125/125/125 128/128/128 127/127/127
f 129/129/129 128/128/128 126/126/126
f 128/128/128 130/130/130 127/127/127
f 129/129/129 131/131/131 128/128/128
f 130/130/130 128/128/128 132/132/132
f 133/133/133 128/128/128 131/131/131
f 133/133/133 132/132/132 128/128/128
f 131/131/131 134/134/134 133/133/133
f 133/133/133 134/134/134 132/132/132
f 134/134/134 131/131/131 135/135/135
f 136/136/136 132/132/132 134/134/134
