mtllib SM_Food_Package_02.mtl
g SM_Food_Package_02
#Vertices 58
#Indices 132
#Section 0 Offset 0 NumIndices 132 MaterialIndex 0 MI_Small_Props_01
v 0.049049 0.048092 -0.122643
v 0.119486 0.048428 -0.121541
v 0.120457 0.048426 -0.122509
v 0.049049 0.048428 -0.121541
v 0.120457 0.048426 -0.122509
v 0.119486 0.048428 0.126579
v 0.120433 0.048485 0.127529
v 0.119486 0.048428 -0.121541
v 0.119486 0.048428 0.126579
v -0.119486 0.048428 0.126579
v -0.120433 0.048485 0.127529
v 0.120433 0.048485 0.127529
v -0.120457 0.048426 -0.122509
v -0.119486 0.048428 0.126579
v -0.119486 0.048428 -0.121541
v -0.120433 0.048485 0.127529
v -0.049049 0.048092 -0.122643
v -0.120457 0.048426 -0.122509
v -0.119486 0.048428 -0.121541
v -0.049049 0.048428 -0.121541
v -0.119486 0.048428 0.126579
v 0.119486 0.048428 0.126579
v 0.099309 0.000000 0.108094
v -0.099309 0.000000 0.108094
v -0.099309 -0.000000 -0.102762
v -0.119486 0.048428 0.126579
v -0.119486 0.048428 -0.121541
v 0.099309 -0.000000 -0.102762
v 0.119486 0.048428 0.126579
v 0.119486 0.048428 -0.121541
v -0.049049 0.048428 -0.121541
v -0.119486 0.048428 -0.121541
v 0.119486 0.048428 -0.121541
v 0.049049 0.048428 -0.121541
v 0.039373 0.035687 -0.126453
v -0.039373 0.035687 -0.126453
v 0.049049 0.048092 -0.122643
v 0.049049 0.048428 -0.121541
v 0.039373 0.036099 -0.127529
v -0.039373 0.036099 -0.127529
v -0.049049 0.048092 -0.122643
v -0.049049 0.048428 -0.121541
v 0.120433 0.048485 0.127529
v -0.120433 0.048485 0.127529
v 0.100264 0.099543 0.108352
v -0.100264 0.099543 0.108352
v 0.120457 0.048426 -0.122509
v 0.120433 0.048485 0.127529
v 0.100276 0.099513 -0.103759
v -0.120457 0.048426 -0.122509
v -0.120433 0.048485 0.127529
v -0.100276 0.099513 -0.103759
v -0.120457 0.048426 -0.122509
v -0.049049 0.048092 -0.122643
v 0.049049 0.048092 -0.122643
v 0.120457 0.048426 -0.122509
v -0.039373 0.036099 -0.127529
v 0.039373 0.036099 -0.127529
vt 0.889648 0.435547
vt 0.931152 0.435059
vt 0.931641 0.435547
vt 0.889648 0.435059
vt 0.723145 0.555176
vt 0.722656 0.409180
vt 0.723145 0.408691
vt 0.722656 0.554688
vt 0.639648 0.242188
vt 0.499512 0.242188
vt 0.499023 0.241699
vt 0.640137 0.241699
vt 0.481445 0.603516
vt 0.481934 0.457520
vt 0.481934 0.602783
vt 0.481445 0.457031
vt 0.264160 0.567139
vt 0.222412 0.567139
vt 0.222900 0.566650
vt 0.264160 0.566406
vt 0.938965 0.869507
vt 0.798828 0.869507
vt 0.810547 0.839111
vt 0.927246 0.839111
vt 0.927246 0.715332
vt 0.958008 0.849976
vt 0.958008 0.704346
vt 0.810547 0.715332
vt 0.779785 0.849976
vt 0.779785 0.704346
vt 0.897461 0.685059
vt 0.938965 0.685059
vt 0.798828 0.685059
vt 0.840332 0.685059
vt 0.845703 0.677002
vt 0.892090 0.677002
vt 0.836914 0.679688
vt 0.836914 0.680176
vt 0.845703 0.676270
vt 0.892090 0.676270
vt 0.900879 0.679443
vt 0.901367 0.680176
vt 0.937012 0.657227
vt 0.795898 0.657227
vt 0.925293 0.625244
vt 0.807617 0.625244
vt 0.957520 0.490234
vt 0.957520 0.636475
vt 0.925293 0.500977
vt 0.775391 0.490234
vt 0.775391 0.636475
vt 0.807617 0.500977
vt 0.795898 0.469238
vt 0.837891 0.468750
vt 0.895508 0.468750
vt 0.937012 0.469238
vt 0.843262 0.461426
vt 0.889648 0.461426
vt1 0.725098 0.363281
vt1 0.714844 0.279297
vt1 0.723633 0.278320
vt1 0.714844 0.363281
vt1 0.161377 0.829102
vt1 0.153442 0.532959
vt1 0.161255 0.531982
vt1 0.153442 0.828003
vt1 0.371826 0.817139
vt1 0.371826 0.532959
vt1 0.384766 0.531982
vt1 0.384766 0.818237
vt1 0.263916 0.829102
vt1 0.271729 0.532959
vt1 0.271729 0.828003
vt1 0.263916 0.531982
vt1 0.725098 0.083984
vt1 0.723633 0.168945
vt1 0.714844 0.167969
vt1 0.714844 0.083984
vt1 0.899902 0.533447
vt1 0.899902 0.817627
vt1 0.837891 0.793579
vt1 0.837891 0.557373
vt1 0.587402 0.557373
vt1 0.859863 0.495117
vt1 0.564941 0.495117
vt1 0.587402 0.793579
vt1 0.859863 0.855957
vt1 0.564941 0.855957
vt1 0.525879 0.617188
vt1 0.525879 0.533447
vt1 0.525879 0.817627
vt1 0.525879 0.733887
vt1 0.509277 0.722412
vt1 0.509277 0.628906
vt1 0.515137 0.740723
vt1 0.516113 0.740967
vt1 0.508301 0.722412
vt1 0.508301 0.628662
vt1 0.514648 0.610352
vt1 0.516113 0.610107
vt1 0.497559 0.141602
vt1 0.497559 0.427734
vt1 0.432617 0.165527
vt1 0.432617 0.403809
vt1 0.158203 0.100098
vt1 0.455322 0.100098
vt1 0.180420 0.165527
vt1 0.158203 0.469238
vt1 0.455322 0.469238
vt1 0.180420 0.403809
vt1 0.115784 0.428223
vt1 0.115356 0.343262
vt1 0.115356 0.226562
vt1 0.115784 0.141602
vt1 0.099976 0.331543
vt1 0.099976 0.237793
vn 0.000000 -0.984252 0.165354
vn 0.000000 -0.984252 0.165354
vn 0.000000 -0.984252 0.165354
vn 0.000000 -0.984252 0.165354
vn 0.031496 -1.000000 0.000000
vn 0.031496 -1.000000 0.000000
vn 0.031496 -1.000000 0.000000
vn 0.031496 -1.000000 0.000000
vn 0.000000 -1.000000 0.062992
vn 0.000000 -1.000000 0.062992
vn 0.000000 -1.000000 0.062992
vn 0.000000 -1.000000 0.062992
vn -0.031496 -1.000000 0.000000
vn -0.031496 -1.000000 0.000000
vn -0.031496 -1.000000 0.000000
vn -0.031496 -1.000000 0.000000
vn 0.000000 -0.984252 0.165354
vn 0.000000 -0.984252 0.165354
vn 0.000000 -0.984252 0.165354
vn 0.000000 -0.984252 0.165354
vn -0.622047 -0.488189 0.614173
vn 0.622047 -0.488189 0.614173
vn 0.448819 -0.763779 0.464567
vn -0.448819 -0.763779 0.464567
vn -0.448819 -0.763779 -0.456693
vn -0.622047 -0.488189 0.614173
vn -0.622047 -0.496063 -0.614173
vn 0.448819 -0.763779 -0.456693
vn 0.622047 -0.488189 0.614173
vn 0.622047 -0.496063 -0.614173
vn -0.267717 -0.692913 -0.669291
vn -0.622047 -0.496063 -0.614173
vn 0.622047 -0.496063 -0.614173
vn 0.267717 -0.692913 -0.669291
vn 0.330709 -0.858268 0.385827
vn -0.330709 -0.858268 0.385827
vn 0.795276 -0.614173 -0.023622
vn 0.267717 -0.692913 -0.669291
vn 0.440945 -0.874016 -0.212598
vn -0.440945 -0.874016 -0.212598
vn -0.795276 -0.614173 -0.023622
vn -0.267717 -0.692913 -0.669291
vn 0.622047 0.480315 0.622047
vn -0.622047 0.480315 0.622047
vn 0.456693 0.755905 0.464567
vn -0.456693 0.755905 0.464567
vn 0.622047 0.472441 -0.622047
vn 0.622047 0.480315 0.622047
vn 0.456693 0.755905 -0.464567
vn -0.622047 0.472441 -0.622047
vn -0.622047 0.480315 0.622047
vn -0.456693 0.755905 -0.464567
vn -0.622047 0.472441 -0.622047
vn 0.000000 0.354331 -0.937008
vn 0.000000 0.354331 -0.937008
vn 0.622047 0.472441 -0.622047
vn 0.000000 0.377953 -0.929134
vn 0.000000 0.377953 -0.929134
tan 0.000000 0.165354 0.984252 1.000000
tan 0.000000 0.165354 0.984252 1.000000
tan 0.000000 0.165354 0.984252 1.000000
tan 0.000000 0.165354 0.984252 1.000000
tan 0.000000 0.000000 1.000992 1.000000
tan 0.000000 0.000000 1.000992 1.000000
tan 0.000000 0.000000 1.000992 1.000000
tan 0.000000 0.000000 1.000992 1.000000
tan 0.000000 0.062992 1.000000 1.000000
tan 0.000000 0.062992 1.000000 1.000000
tan 0.000000 0.062992 1.000000 1.000000
tan 0.000000 0.062992 1.000000 1.000000
tan 0.000000 0.000000 1.000992 1.000000
tan 0.000000 0.000000 1.000992 1.000000
tan 0.000000 0.000000 1.000992 1.000000
tan 0.000000 0.000000 1.000992 1.000000
tan 0.000000 0.165354 0.984252 1.000000
tan 0.000000 0.165354 0.984252 1.000000
tan 0.000000 0.165354 0.984252 1.000000
tan 0.000000 0.165354 0.984252 1.000000
tan -0.002480 -0.782380 -0.624403 1.000000
tan 0.002480 -0.782380 -0.624403 1.000000
tan 0.187054 -0.427243 -0.883130 1.000000
tan -0.187054 -0.427243 -0.883130 1.000000
tan 0.183272 0.420361 -0.883130 1.000000
tan -0.577965 -0.240747 -0.776737 1.000000
tan 0.579019 0.245582 -0.784797 1.000000
tan -0.183272 0.420361 -0.883130 1.000000
tan 0.577965 -0.240747 -0.776737 1.000000
tan -0.579019 0.245582 -0.784797 1.000000
tan 0.000806 0.693533 -0.718333 1.000000
tan -0.001302 0.782379 -0.630603 1.000000
tan 0.001302 0.782379 -0.630603 1.000000
tan -0.000806 0.693533 -0.718333 1.000000
tan 0.106640 -0.371939 -0.918780 1.000000
tan -0.106640 -0.371939 -0.918780 1.000000
tan -0.047802 -0.023250 -1.004836 1.000000
tan -0.564945 0.450059 -0.691921 1.000000
tan -0.117738 0.178746 -0.979044 1.000000
tan 0.110856 0.182218 -0.979044 1.000000
tan 0.042966 -0.016988 -1.004836 1.000000
tan 0.564945 0.450059 -0.691921 1.000000
tan -0.003162 0.793477 -0.609523 1.000000
tan 0.003162 0.793477 -0.609523 1.000000
tan 0.185132 0.427553 -0.877674 1.000000
tan -0.185132 0.427553 -0.877674 1.000000
tan -0.592225 -0.235105 -0.770785 1.000000
tan 0.593279 0.235104 -0.774815 1.000000
tan -0.185132 -0.427553 -0.877674 1.000000
tan 0.592225 -0.235105 -0.770785 1.000000
tan -0.593279 0.235104 -0.774815 1.000000
tan 0.185132 -0.427553 -0.877674 1.000000
tan 0.000744 -0.793477 -0.603385 1.000000
tan 0.000000 -0.937008 -0.354331 1.000000
tan 0.000000 -0.937008 -0.354331 1.000000
tan -0.000744 -0.793477 -0.603385 1.000000
tan 0.000000 -0.929134 -0.377953 1.000000
tan 0.000000 -0.929134 -0.377953 1.000000
f 3/3/3 2/2/2 1/1/1
f 4/4/4 1/1/1 2/2/2
f 7/7/7 6/6/6 5/5/5
f 8/8/8 5/5/5 6/6/6
f 11/11/11 10/10/10 9/9/9
f 12/12/12 11/11/11 9/9/9
f 15/15/15 14/14/14 13/13/13
f 14/14/14 16/16/16 13/13/13
f 19/19/19 18/18/18 17/17/17
f 20/20/20 19/19/19 17/17/17
f 23/23/23 22/22/22 21/21/21
f 24/24/24 23/23/23 21/21/21
f 24/24/24 25/25/25 23/23/23
f 24/24/24 26/26/26 25/25/25
f 27/27/27 25/25/25 26/26/26
f 28/28/28 23/23/23 25/25/25
f 23/23/23 28/28/28 29/29/29
f 30/30/30 29/29/29 28/28/28
f 25/25/25 32/32/32 31/31/31
f 25/25/25 31/31/31 28/28/28
f 28/28/28 34/34/34 33/33/33
f 34/34/34 28/28/28 31/31/31
f 35/35/35 34/34/34 31/31/31
f 36/36/36 35/35/35 31/31/31
f 38/38/38 35/35/35 37/37/37
f 39/39/39 37/37/37 35/35/35
f 35/35/35 36/36/36 39/39/39
f 36/36/36 40/40/40 39/39/39
f 40/40/40 36/36/36 41/41/41
f 41/41/41 36/36/36 42/42/42
f 45/45/45 44/44/44 43/43/43
f 46/46/46 44/44/44 45/45/45
f 48/48/48 47/47/47 45/45/45
f 47/47/47 49/49/49 45/45/45
f 45/45/45 49/49/49 46/46/46
f 51/51/51 46/46/46 50/50/50
f 52/52/52 50/50/50 46/46/46
f 52/52/52 46/46/46 49/49/49
f 54/54/54 53/53/53 52/52/52
f 55/55/55 52/52/52 49/49/49
f 54/54/54 52/52/52 55/55/55
f 55/55/55 49/49/49 56/56/56
f 57/57/57 54/54/54 55/55/55
f 58/58/58 57/57/57 55/55/55
