mtllib SM_GroundTiles_Tile_01@000001EE066EB900.mtl
g SM_GroundTiles_Tile_01@000001EE066EB900
#Vertices 92
#Indices 258
#Section 0 Offset 0 NumIndices 258 MaterialIndex 0 MI_Ground_Tiles_01
v 0.033946 0.000624 -0.000000 1.000000 1.000000 1.000000 1.000000
v 1.163374 0.045892 0.000004 1.000000 1.000000 1.000000 1.000000
v 0.033935 0.045879 -0.000000 1.000000 1.000000 1.000000 1.000000
v 1.163373 0.000624 -0.000000 1.000000 1.000000 1.000000 1.000000
v 0.000002 0.045888 1.162497 1.000000 1.000000 1.000000 1.000000
v 0.000000 0.000624 0.033944 1.000000 1.000000 1.000000 1.000000
v 0.000000 0.045875 0.033937 1.000000 1.000000 1.000000 1.000000
v 0.000000 0.000625 1.162497 1.000000 1.000000 1.000000 1.000000
v 0.027620 0.045876 0.002629 1.000000 1.000000 1.000000 1.000000
v 0.033946 0.000624 -0.000000 1.000000 1.000000 1.000000 1.000000
v 0.033935 0.045879 -0.000000 1.000000 1.000000 1.000000 1.000000
v 0.027613 0.000624 0.002620 1.000000 1.000000 1.000000 1.000000
v 1.200000 0.000621 0.033938 1.000000 1.000000 1.000000 1.000000
v 1.199999 0.045921 1.162498 1.000000 1.000000 1.000000 1.000000
v 1.200000 0.045912 0.033937 1.000000 1.000000 1.000000 1.000000
v 1.199999 0.000628 1.162498 1.000000 1.000000 1.000000 1.000000
v 1.163373 0.045924 1.200001 0.807843 1.000000 1.000000 1.000000
v 0.033938 0.000619 1.200001 1.000000 1.000000 1.000000 1.000000
v 0.033936 0.045913 1.200001 1.000000 1.000000 1.000000 1.000000
v 1.163373 0.000627 1.200001 0.807843 1.000000 1.000000 1.000000
v 1.163374 0.045892 0.000004 1.000000 1.000000 1.000000 1.000000
v 1.163373 0.000624 -0.000000 1.000000 1.000000 1.000000 1.000000
v 1.169717 0.045892 0.002598 1.000000 1.000000 1.000000 1.000000
v 1.169810 0.000624 0.002508 1.000000 1.000000 1.000000 1.000000
v 1.197361 0.045897 0.027639 1.000000 1.000000 1.000000 1.000000
v 1.197361 0.000624 0.026526 1.000000 1.000000 1.000000 1.000000
v 1.200000 0.000621 0.033938 1.000000 1.000000 1.000000 1.000000
v 1.200000 0.045912 0.033937 1.000000 1.000000 1.000000 1.000000
v 1.199999 0.045921 1.162498 1.000000 1.000000 1.000000 1.000000
v 1.199999 0.000628 1.162498 1.000000 1.000000 1.000000 1.000000
v 1.197394 0.045918 1.168826 0.082353 1.000000 1.000000 1.000000
v 1.197394 0.000625 1.169910 0.082353 1.000000 1.000000 1.000000
v 1.169685 0.045916 1.197389 0.776471 1.000000 1.000000 1.000000
v 1.170789 0.000625 1.197389 0.776471 1.000000 1.000000 1.000000
v 1.163373 0.000627 1.200001 0.807843 1.000000 1.000000 1.000000
v 1.163373 0.045924 1.200001 0.807843 1.000000 1.000000 1.000000
v 0.002588 0.045888 1.168845 1.000000 1.000000 1.000000 1.000000
v 0.000000 0.000625 1.162497 1.000000 1.000000 1.000000 1.000000
v 0.000002 0.045888 1.162497 1.000000 1.000000 1.000000 1.000000
v 0.002473 0.000625 1.168967 1.000000 1.000000 1.000000 1.000000
v 0.027647 0.045901 1.197359 1.000000 1.000000 1.000000 1.000000
v 0.026526 0.000625 1.197359 1.000000 1.000000 1.000000 1.000000
v 0.033938 0.000619 1.200001 1.000000 1.000000 1.000000 1.000000
v 0.033936 0.045913 1.200001 1.000000 1.000000 1.000000 1.000000
v 0.002626 0.045873 0.027621 1.000000 1.000000 1.000000 1.000000
v 0.027613 0.000624 0.002620 1.000000 1.000000 1.000000 1.000000
v 0.027620 0.045876 0.002629 1.000000 1.000000 1.000000 1.000000
v 0.002620 0.000624 0.027613 1.000000 1.000000 1.000000 1.000000
v 0.000000 0.000624 0.033944 1.000000 1.000000 1.000000 1.000000
v 0.000000 0.045875 0.033937 1.000000 1.000000 1.000000 1.000000
v 1.163374 0.045892 0.000004 1.000000 1.000000 1.000000 1.000000
v 0.034260 0.050176 0.003273 1.000000 1.000000 1.000000 1.000000
v 0.033935 0.045879 -0.000000 1.000000 1.000000 1.000000 1.000000
v 1.163082 0.050181 0.003273 0.337255 1.000000 1.000000 1.000000
v 1.165638 0.050138 0.031702 0.207843 1.000000 1.000000 1.000000
v 1.169245 0.050107 0.005444 0.345098 1.000000 1.000000 1.000000
v 1.163374 0.045892 0.000004 1.000000 1.000000 1.000000 1.000000
v 1.169717 0.045892 0.002598 1.000000 1.000000 1.000000 1.000000
v 1.194292 0.050076 0.028115 0.388235 1.000000 1.000000 1.000000
v 1.197361 0.045897 0.027639 1.000000 1.000000 1.000000 1.000000
v 1.200000 0.045912 0.033937 1.000000 1.000000 1.000000 1.000000
v 1.196452 0.050090 0.034257 0.372549 1.000000 1.000000 1.000000
v 1.199999 0.045921 1.162498 1.000000 1.000000 1.000000 1.000000
v 1.196452 0.050091 1.162206 0.529412 1.000000 1.000000 1.000000
v 1.165637 0.050139 1.164760 0.541176 1.000000 1.000000 1.000000
v 0.031703 0.050138 0.031702 1.000000 1.000000 1.000000 1.000000
v 0.028115 0.050113 0.005463 1.000000 1.000000 1.000000 1.000000
v 0.033935 0.045879 -0.000000 1.000000 1.000000 1.000000 1.000000
v 0.027620 0.045876 0.002629 1.000000 1.000000 1.000000 1.000000
v 0.005464 0.050146 0.028113 1.000000 1.000000 1.000000 1.000000
v 0.002626 0.045873 0.027621 1.000000 1.000000 1.000000 1.000000
v 0.000000 0.045875 0.033937 1.000000 1.000000 1.000000 1.000000
v 0.003274 0.050138 0.034258 1.000000 1.000000 1.000000 1.000000
v 0.000002 0.045888 1.162497 1.000000 1.000000 1.000000 1.000000
v 0.000000 0.045875 0.033937 1.000000 1.000000 1.000000 1.000000
v 0.003274 0.050139 1.162204 1.000000 1.000000 1.000000 1.000000
v 0.031703 0.050139 1.164760 1.000000 1.000000 1.000000 1.000000
v 0.005438 0.050131 1.168373 1.000000 1.000000 1.000000 1.000000
v 0.002588 0.045888 1.168845 1.000000 1.000000 1.000000 1.000000
v 0.028116 0.050096 1.194205 1.000000 1.000000 1.000000 1.000000
v 0.027647 0.045901 1.197359 1.000000 1.000000 1.000000 1.000000
v 0.033936 0.045913 1.200001 1.000000 1.000000 1.000000 1.000000
v 0.034257 0.050169 1.196355 1.000000 1.000000 1.000000 1.000000
v 1.163373 0.045924 1.200001 0.807843 1.000000 1.000000 1.000000
v 0.033936 0.045913 1.200001 1.000000 1.000000 1.000000 1.000000
v 1.163083 0.050175 1.196355 0.760784 1.000000 1.000000 1.000000
v 1.169243 0.050090 1.194224 0.760784 1.000000 1.000000 1.000000
v 1.163373 0.045924 1.200001 0.807843 1.000000 1.000000 1.000000
v 1.169685 0.045916 1.197389 0.776471 1.000000 1.000000 1.000000
v 1.197394 0.045918 1.168826 0.082353 1.000000 1.000000 1.000000
v 1.194317 0.050061 1.168372 0.564706 1.000000 1.000000 1.000000
v 1.199999 0.045921 1.162498 1.000000 1.000000 1.000000 1.000000
vt 1.269531 0.671875
vt 0.660645 0.647461
vt 1.269531 0.647461
vt 0.660645 0.671875
vt 1.287109 0.019531
vt 1.313477 0.626953
vt 1.289062 0.627686
vt 1.311523 0.017090
vt 1.273438 0.645264
vt 1.288086 0.665283
vt 1.270508 0.647705
vt 1.290039 0.662842
vt 0.615234 0.628174
vt 0.640137 0.019531
vt 0.639648 0.628418
vt 0.615723 0.020020
vt 0.661621 -0.000977
vt 1.270508 -0.025391
vt 1.270508 -0.000977
vt 0.661621 -0.025391
vt 0.659668 0.647461
vt 0.642578 0.665527
vt 0.656738 0.645264
vt 0.639648 0.662842
vt 0.642090 0.631592
vt 0.625488 0.649170
vt 0.622559 0.646240
vt 0.639648 0.628418
vt 0.639160 0.017578
vt 0.622070 0.000488
vt 0.641602 0.015137
vt 0.625000 -0.001953
vt 0.657227 0.000000
vt 0.639648 -0.016602
vt 0.642578 -0.019531
vt 0.659668 -0.002930
vt 1.286133 0.017578
vt 1.311523 0.017090
vt 1.287109 0.019531
vt 1.309570 0.010742
vt 1.277344 0.000000
vt 1.300781 -0.008789
vt 1.298828 -0.012695
vt 1.276367 -0.003906
vt 1.287109 0.632080
vt 1.290039 0.662842
vt 1.273438 0.645264
vt 1.303711 0.649414
vt 1.306641 0.646729
vt 1.289062 0.629150
vt 0.660645 0.647461
vt 1.269531 0.644531
vt 1.269531 0.647461
vt 0.660645 0.644531
vt 0.659668 0.628906
vt 0.657715 0.643066
vt 0.659668 0.647461
vt 0.656738 0.645264
vt 0.644043 0.630615
vt 0.642090 0.631592
vt 0.639648 0.628418
vt 0.643066 0.627686
vt 0.640137 0.019531
vt 0.643066 0.019531
vt 0.659668 0.018066
vt 1.270508 0.629150
vt 1.272461 0.643066
vt 1.270508 0.647705
vt 1.273438 0.645264
vt 1.285156 0.630859
vt 1.287109 0.632080
vt 1.289062 0.629150
vt 1.286133 0.627930
vt 1.287109 0.019531
vt 1.289062 0.627686
vt 1.285156 0.020020
vt 1.270508 0.018066
vt 1.284180 0.017578
vt 1.286133 0.017578
vt 1.274414 0.002441
vt 1.277344 0.000000
vt 1.272461 -0.001953
vt 1.270508 0.000977
vt 0.661621 -0.000977
vt 1.270508 -0.000977
vt 0.661621 0.001465
vt 0.658203 0.002441
vt 0.660645 -0.000977
vt 0.657227 0.000000
vt 0.641602 0.015137
vt 0.644531 0.016113
vt 0.640137 0.018555
vt1 0.906738 0.856934
vt1 0.920898 0.435059
vt1 0.920898 0.853760
vt1 0.905762 0.433594
vt1 0.551758 0.094727
vt1 0.131592 0.108887
vt1 0.134766 0.094727
vt1 0.553223 0.109863
vt1 0.921875 0.855103
vt1 0.906738 0.856934
vt1 0.920898 0.853760
vt1 0.909668 0.863525
vt1 0.789551 0.412598
vt1 0.772949 0.830444
vt1 0.772949 0.412598
vt1 0.789551 0.830444
vt1 0.121826 0.219727
vt1 0.540039 0.203125
vt1 0.540039 0.219727
vt1 0.121826 0.203125
vt1 0.920898 0.435059
vt1 0.905762 0.433594
vt1 0.921875 0.433105
vt1 0.907227 0.428711
vt1 0.928711 0.421387
vt1 0.914551 0.414551
vt1 0.916504 0.412109
vt1 0.931152 0.419434
vt1 0.668457 0.274414
vt1 0.685059 0.273926
vt1 0.668945 0.277344
vt1 0.685059 0.276855
vt1 0.668945 0.292969
vt1 0.685059 0.293457
vt1 0.684570 0.295898
vt1 0.668457 0.295410
vt1 0.824707 0.138184
vt1 0.816895 0.152344
vt1 0.822754 0.138184
vt1 0.821777 0.153320
vt1 0.838867 0.137695
vt1 0.838379 0.153320
vt1 0.841309 0.152832
vt1 0.841797 0.136230
vt1 0.133423 0.093750
vt1 0.112366 0.093750
vt1 0.124817 0.084961
vt1 0.125000 0.105957
vt1 0.131592 0.108887
vt1 0.134766 0.094727
vt1 0.534668 0.419434
vt1 0.145630 0.421387
vt1 0.145264 0.419434
vt1 0.534668 0.421387
vt1 0.535645 0.431152
vt1 0.536621 0.421875
vt1 0.534668 0.419434
vt1 0.537109 0.420410
vt1 0.545410 0.429688
vt1 0.546875 0.429199
vt1 0.547852 0.431641
vt1 0.545898 0.432129
vt1 0.547852 0.820801
vt1 0.545898 0.820679
vt1 0.535645 0.821533
vt1 0.144775 0.431152
vt1 0.143555 0.422363
vt1 0.145264 0.419434
vt1 0.142944 0.420410
vt1 0.135742 0.429688
vt1 0.134155 0.429199
vt1 0.133179 0.431641
vt1 0.135010 0.432129
vt1 0.133179 0.820923
vt1 0.133179 0.431641
vt1 0.134888 0.820679
vt1 0.144653 0.821533
vt1 0.135742 0.822754
vt1 0.134033 0.823364
vt1 0.143433 0.831665
vt1 0.142822 0.833252
vt1 0.145020 0.834351
vt1 0.145508 0.832397
vt1 0.534668 0.834351
vt1 0.145386 0.834351
vt1 0.534668 0.832520
vt1 0.536621 0.831665
vt1 0.535156 0.834351
vt1 0.537109 0.833374
vt1 0.546875 0.823364
vt1 0.545410 0.822754
vt1 0.547852 0.821167
vn 0.000000 -0.000000 -1.000000
vn 0.000000 0.062992 -1.000000
vn 0.000000 0.062992 -1.000000
vn 0.000000 -0.000000 -1.000000
vn -1.000000 0.062992 -0.000000
vn -1.000000 0.000000 0.000000
vn -1.000000 0.062992 -0.000000
vn -1.000000 0.000000 0.000000
vn -0.661417 0.039370 -0.748031
vn 0.000000 -0.000000 -1.000000
vn 0.000000 0.062992 -1.000000
vn -0.661417 -0.000000 -0.748031
vn 1.000000 0.000000 0.000000
vn 1.000000 0.070866 -0.000000
vn 1.000000 0.070866 -0.000000
vn 1.000000 0.000000 0.000000
vn 0.000000 0.070866 1.000000
vn 0.000000 0.000000 1.000000
vn 0.000000 0.070866 1.000000
vn 0.000000 0.000000 1.000000
vn 0.000000 0.062992 -1.000000
vn 0.000000 -0.000000 -1.000000
vn 0.629921 0.047244 -0.779527
vn 0.622047 0.007874 -0.787401
vn 0.716535 0.055118 -0.692913
vn 0.716535 0.015748 -0.692913
vn 1.000000 0.000000 0.000000
vn 1.000000 0.070866 -0.000000
vn 1.000000 0.070866 -0.000000
vn 1.000000 0.000000 0.000000
vn 0.755906 0.055118 0.653543
vn 0.763780 0.015748 0.645669
vn 0.669291 0.062992 0.740157
vn 0.669291 0.015748 0.748031
vn 0.000000 0.000000 1.000000
vn 0.000000 0.070866 1.000000
vn -0.787402 0.047244 0.622047
vn -1.000000 0.000000 0.000000
vn -1.000000 0.062992 -0.000000
vn -0.787402 0.007874 0.614173
vn -0.700787 0.055118 0.708661
vn -0.700787 0.015748 0.708661
vn 0.000000 0.000000 1.000000
vn 0.000000 0.070866 1.000000
vn -0.748031 0.039370 -0.661417
vn -0.661417 -0.000000 -0.748031
vn -0.661417 0.039370 -0.748031
vn -0.748031 -0.000000 -0.661417
vn -1.000000 0.000000 0.000000
vn -1.000000 0.062992 -0.000000
vn 0.000000 0.062992 -1.000000
vn 0.000000 0.992126 -0.133858
vn 0.000000 0.062992 -1.000000
vn 0.000000 0.992126 -0.133858
vn 0.000000 1.000000 -0.000000
vn 0.157480 0.968504 -0.188976
vn 0.000000 0.062992 -1.000000
vn 0.629921 0.047244 -0.779527
vn 0.196850 0.960630 -0.196850
vn 0.716535 0.055118 -0.692913
vn 1.000000 0.070866 -0.000000
vn 0.118110 0.992126 -0.000000
vn 1.000000 0.070866 -0.000000
vn 0.118110 0.992126 -0.000000
vn 0.000000 1.000000 -0.000000
vn 0.000000 1.000000 -0.000000
vn -0.188976 0.960630 -0.204724
vn 0.000000 0.062992 -1.000000
vn -0.661417 0.039370 -0.748031
vn -0.196850 0.968504 -0.173228
vn -0.748031 0.039370 -0.661417
vn -1.000000 0.062992 -0.000000
vn -0.133858 0.992126 -0.000000
vn -1.000000 0.062992 -0.000000
vn -1.000000 0.062992 -0.000000
vn -0.133858 0.992126 -0.000000
vn 0.000000 1.000000 -0.000000
vn -0.188976 0.968504 0.149606
vn -0.787402 0.047244 0.622047
vn -0.204724 0.960630 0.196850
vn -0.700787 0.055118 0.708661
vn 0.000000 0.070866 1.000000
vn 0.000000 0.992126 0.118110
vn 0.000000 0.070866 1.000000
vn 0.000000 0.070866 1.000000
vn 0.000000 0.992126 0.118110
vn 0.188976 0.960630 0.196850
vn 0.000000 0.070866 1.000000
vn 0.669291 0.062992 0.740157
vn 0.755906 0.055118 0.653543
vn 0.181102 0.968504 0.157480
vn 1.000000 0.070866 -0.000000
tan 0.000000 1.000000 -0.000000 1.000000
tan 0.000000 1.000000 0.062992 1.000000
tan 0.000000 1.000000 0.062992 1.000000
tan 0.000000 1.000000 -0.000000 1.000000
tan -0.007936 -0.125984 0.996094 1.000000
tan 0.000000 -0.023622 1.000000 1.000000
tan -0.006448 -0.102362 0.996094 1.000000
tan 0.000000 -0.125984 0.992126 1.000000
tan -0.488251 0.737243 0.470519 1.000000
tan -0.716535 0.692913 -0.000000 1.000000
tan -0.529543 0.850394 0.053568 1.000000
tan -0.530101 0.701903 0.468721 1.000000
tan 0.000000 0.000000 1.000000 1.000000
tan -0.004464 0.062992 0.997148 1.000000
tan -0.019530 0.275591 0.965652 1.000000
tan 0.000000 0.007874 1.000000 1.000000
tan 0.000000 -1.000000 0.070866 1.000000
tan 0.000000 -1.000000 0.000000 1.000000
tan 0.000000 -1.000000 0.070866 1.000000
tan 0.000000 -1.000000 0.000000 1.000000
tan 0.529543 0.850394 0.053568 1.000000
tan 0.708661 0.708661 -0.000000 1.000000
tan 0.494389 0.749210 0.444913 1.000000
tan 0.542129 0.720689 0.435489 1.000000
tan 0.493583 0.659867 0.562899 1.000000
tan 0.488809 0.688077 0.521111 1.000000
tan 0.000000 0.677165 0.740157 1.000000
tan -0.019530 0.275591 0.965652 1.000000
tan 0.047988 -0.677165 0.736189 1.000000
tan 0.000000 -0.685039 0.724409 1.000000
tan -0.435365 -0.699981 0.562589 1.000000
tan -0.454337 -0.697811 0.554467 1.000000
tan -0.428669 -0.786037 0.454523 1.000000
tan -0.534813 -0.689131 0.493025 1.000000
tan -0.724409 -0.685039 0.000000 1.000000
tan -0.735631 -0.677165 0.047988 1.000000
tan 0.577345 -0.315643 0.754789 1.000000
tan 0.000000 -0.125984 0.992126 1.000000
tan -0.007936 -0.125984 0.996094 1.000000
tan 0.593403 -0.234484 0.763779 1.000000
tan 0.553475 -0.588443 0.593093 1.000000
tan 0.660425 -0.338583 0.660611 1.000000
tan 0.937008 -0.354331 0.000000 1.000000
tan 0.949346 -0.322835 0.022878 1.000000
tan -0.459607 0.683551 0.560481 1.000000
tan -0.530101 0.701903 0.468721 1.000000
tan -0.488251 0.737243 0.470519 1.000000
tan -0.473929 0.690805 0.535991 1.000000
tan 0.000000 0.669291 0.740157 1.000000
tan 0.034224 0.543307 0.845992 1.000000
tan 0.000000 1.000000 0.062992 1.000000
tan 0.007812 0.133858 0.992126 1.000000
tan 0.000000 1.000000 0.062992 1.000000
tan 0.007812 0.133858 0.992126 1.000000
tan 0.007874 0.000000 1.000000 1.000000
tan 0.014508 0.188480 0.978052 1.000000
tan 0.529543 0.850394 0.053568 1.000000
tan 0.494389 0.749210 0.444913 1.000000
tan -0.015748 0.203050 0.975138 1.000000
tan 0.493583 0.659867 0.562899 1.000000
tan -0.019530 0.275591 0.965652 1.000000
tan -0.124992 0.014880 0.990452 1.000000
tan -0.004464 0.062992 0.997148 1.000000
tan 0.062496 -0.007440 0.998264 1.000000
tan 0.000000 0.000000 1.000000 1.000000
tan 0.000000 0.000000 1.000000 1.000000
tan -0.008432 0.207453 0.981214 1.000000
tan -0.529543 0.850394 0.053568 1.000000
tan -0.488251 0.737243 0.470519 1.000000
tan 0.107260 0.197036 0.979726 1.000000
tan -0.459607 0.683551 0.560481 1.000000
tan 0.034224 0.543307 0.845992 1.000000
tan 0.078120 0.010540 1.002232 1.000000
tan -0.007936 -0.125984 0.996094 1.000000
tan -0.006448 -0.102362 0.996094 1.000000
tan -0.078120 -0.010540 1.002232 1.000000
tan 0.031496 0.000000 1.000000 1.000000
tan 0.122140 -0.128216 0.984314 1.000000
tan 0.577345 -0.315643 0.754789 1.000000
tan -0.006634 -0.201872 0.978238 1.000000
tan 0.553475 -0.588443 0.593093 1.000000
tan 0.300329 -0.952756 0.067518 1.000000
tan -0.023436 -0.118110 0.992126 1.000000
tan 0.000000 -1.000000 0.070866 1.000000
tan 0.000000 -1.000000 0.070866 1.000000
tan 0.039990 -0.118110 0.992126 1.000000
tan 0.080910 -0.214520 0.969186 1.000000
tan -0.260959 -0.968504 0.068634 1.000000
tan -0.428669 -0.786037 0.454523 1.000000
tan -0.435365 -0.699981 0.562589 1.000000
tan 0.103602 -0.178002 0.975572 1.000000
tan 0.025110 -0.354331 0.933598 1.000000
f 3/3/3 2/2/2 1/1/1
f 4/4/4 1/1/1 2/2/2
f 7/7/7 6/6/6 5/5/5
f 8/8/8 5/5/5 6/6/6
f 11/11/11 10/10/10 9/9/9
f 12/12/12 9/9/9 10/10/10
f 15/15/15 14/14/14 13/13/13
f 16/16/16 13/13/13 14/14/14
f 19/19/19 18/18/18 17/17/17
f 20/20/20 17/17/17 18/18/18
f 23/23/23 22/22/22 21/21/21
f 24/24/24 22/22/22 23/23/23
f 23/23/23 25/25/25 24/24/24
f 26/26/26 24/24/24 25/25/25
f 26/26/26 25/25/25 27/27/27
f 28/28/28 27/27/27 25/25/25
f 31/31/31 30/30/30 29/29/29
f 32/32/32 30/30/30 31/31/31
f 31/31/31 33/33/33 32/32/32
f 34/34/34 32/32/32 33/33/33
f 34/34/34 33/33/33 35/35/35
f 36/36/36 35/35/35 33/33/33
f 39/39/39 38/38/38 37/37/37
f 40/40/40 37/37/37 38/38/38
f 37/37/37 40/40/40 41/41/41
f 42/42/42 41/41/41 40/40/40
f 42/42/42 43/43/43 41/41/41
f 41/41/41 43/43/43 44/44/44
f 47/47/47 46/46/46 45/45/45
f 48/48/48 45/45/45 46/46/46
f 48/48/48 49/49/49 45/45/45
f 45/45/45 49/49/49 50/50/50
f 53/53/53 52/52/52 51/51/51
f 54/54/54 51/51/51 52/52/52
f 54/54/54 52/52/52 55/55/55
f 54/54/54 55/55/55 56/56/56
f 54/54/54 56/56/56 57/57/57
f 58/58/58 57/57/57 56/56/56
f 58/58/58 56/56/56 59/59/59
f 59/59/59 56/56/56 55/55/55
f 60/60/60 58/58/58 59/59/59
f 60/60/60 59/59/59 61/61/61
f 62/62/62 61/61/61 59/59/59
f 62/62/62 59/59/59 55/55/55
f 61/61/61 62/62/62 63/63/63
f 64/64/64 63/63/63 62/62/62
f 55/55/55 65/65/65 62/62/62
f 64/64/64 62/62/62 65/65/65
f 66/66/66 55/55/55 52/52/52
f 55/55/55 66/66/66 65/65/65
f 66/66/66 52/52/52 67/67/67
f 52/52/52 68/68/68 67/67/67
f 69/69/69 67/67/67 68/68/68
f 67/67/67 69/69/69 70/70/70
f 70/70/70 66/66/66 67/67/67
f 71/71/71 70/70/70 69/69/69
f 71/71/71 72/72/72 70/70/70
f 73/73/73 70/70/70 72/72/72
f 73/73/73 66/66/66 70/70/70
f 75/75/75 74/74/74 73/73/73
f 73/73/73 76/76/76 66/66/66
f 74/74/74 76/76/76 73/73/73
f 77/77/77 66/66/66 76/76/76
f 65/65/65 66/66/66 77/77/77
f 76/76/76 74/74/74 78/78/78
f 76/76/76 78/78/78 77/77/77
f 79/79/79 78/78/78 74/74/74
f 79/79/79 80/80/80 78/78/78
f 78/78/78 80/80/80 77/77/77
f 80/80/80 79/79/79 81/81/81
f 81/81/81 82/82/82 80/80/80
f 83/83/83 80/80/80 82/82/82
f 83/83/83 77/77/77 80/80/80
f 77/77/77 83/83/83 65/65/65
f 85/85/85 84/84/84 83/83/83
f 84/84/84 86/86/86 83/83/83
f 86/86/86 65/65/65 83/83/83
f 86/86/86 87/87/87 65/65/65
f 86/86/86 88/88/88 87/87/87
f 89/89/89 87/87/87 88/88/88
f 89/89/89 90/90/90 87/87/87
f 87/87/87 91/91/91 65/65/65
f 90/90/90 91/91/91 87/87/87
f 64/64/64 65/65/65 91/91/91
f 90/90/90 92/92/92 91/91/91
f 64/64/64 91/91/91 92/92/92
