mtllib SM_GroundTiles_Split_01@000001EE066EDD00.mtl
g SM_GroundTiles_Split_01@000001EE066EDD00
#Vertices 166
#Indices 504
#Section 0 Offset 0 NumIndices 504 MaterialIndex 0 MI_Ground_Tiles_01
v 0.033946 0.000624 -0.000000 1.000000 1.000000 1.000000 1.000000
v 1.163374 0.045892 0.000004 1.000000 1.000000 1.000000 1.000000
v 0.033935 0.045879 -0.000000 1.000000 1.000000 1.000000 1.000000
v 1.163373 0.000624 -0.000000 1.000000 1.000000 1.000000 1.000000
v 0.000002 0.045888 1.162497 1.000000 1.000000 1.000000 1.000000
v 0.000000 0.000624 0.033944 0.090196 1.000000 1.000000 1.000000
v 0.000000 0.045875 0.033937 0.090196 1.000000 1.000000 1.000000
v 0.000000 0.000625 1.162497 1.000000 1.000000 1.000000 1.000000
v 0.027620 0.045876 0.002629 1.000000 1.000000 1.000000 1.000000
v 0.033946 0.000624 -0.000000 1.000000 1.000000 1.000000 1.000000
v 0.033935 0.045879 -0.000000 1.000000 1.000000 1.000000 1.000000
v 0.027613 0.000624 0.002620 1.000000 1.000000 1.000000 1.000000
v 1.200000 0.000621 0.033938 1.000000 1.000000 1.000000 1.000000
v 1.199999 0.045921 1.162498 1.000000 1.000000 1.000000 1.000000
v 1.200000 0.045912 0.033937 1.000000 1.000000 1.000000 1.000000
v 1.199999 0.000628 1.162498 1.000000 1.000000 1.000000 1.000000
v 1.200000 0.000628 1.237503 1.000000 1.000000 1.000000 1.000000
v 1.200000 0.000620 2.366064 1.000000 1.000000 1.000000 1.000000
v 1.200000 0.045920 1.237503 1.000000 1.000000 1.000000 1.000000
v 1.200000 0.045910 2.366065 1.000000 1.000000 1.000000 1.000000
v 1.163374 0.045892 0.000004 1.000000 1.000000 1.000000 1.000000
v 1.163373 0.000624 -0.000000 1.000000 1.000000 1.000000 1.000000
v 1.169717 0.045892 0.002598 1.000000 1.000000 1.000000 1.000000
v 1.169810 0.000624 0.002508 1.000000 1.000000 1.000000 1.000000
v 1.197361 0.045897 0.027639 1.000000 1.000000 1.000000 1.000000
v 1.200000 0.000624 0.026526 1.000000 1.000000 1.000000 1.000000
v 1.200000 0.000621 0.033938 1.000000 1.000000 1.000000 1.000000
v 1.200000 0.045912 0.033937 1.000000 1.000000 1.000000 1.000000
v 1.199999 0.045921 1.162498 1.000000 1.000000 1.000000 1.000000
v 1.199999 0.000628 1.162498 1.000000 1.000000 1.000000 1.000000
v 1.197394 0.045918 1.168826 1.000000 1.000000 1.000000 1.000000
v 1.200000 0.000625 1.169910 1.000000 1.000000 1.000000 1.000000
v 1.169685 0.045916 1.197389 0.000000 1.000000 1.000000 1.000000
v 1.170789 0.000625 1.200000 0.000000 1.000000 1.000000 1.000000
v 1.163373 0.000628 1.200001 0.000000 1.000000 1.000000 1.000000
v 1.163373 0.045924 1.200001 1.000000 1.000000 1.000000 1.000000
v 1.163373 0.045884 2.399996 1.000000 1.000000 1.000000 1.000000
v 0.033946 0.000625 2.400000 1.000000 1.000000 1.000000 1.000000
v 0.033935 0.045869 2.400000 1.000000 1.000000 1.000000 1.000000
v 1.163372 0.000625 2.400000 1.000000 1.000000 1.000000 1.000000
v 1.169715 0.045883 2.397405 1.000000 1.000000 1.000000 1.000000
v 1.169810 0.000625 2.397491 1.000000 1.000000 1.000000 1.000000
v 1.197357 0.045896 2.372362 1.000000 1.000000 1.000000 1.000000
v 1.200000 0.000625 2.373473 1.000000 1.000000 1.000000 1.000000
v 1.200000 0.000620 2.366064 1.000000 1.000000 1.000000 1.000000
v 1.200000 0.045910 2.366065 1.000000 1.000000 1.000000 1.000000
v 0.002588 0.045888 1.168845 1.000000 1.000000 1.000000 1.000000
v 0.000000 0.000625 1.162497 1.000000 1.000000 1.000000 1.000000
v 0.000002 0.045888 1.162497 1.000000 1.000000 1.000000 1.000000
v 0.002473 0.000625 1.168967 1.000000 1.000000 1.000000 1.000000
v 0.027647 0.045901 1.197359 1.000000 1.000000 1.000000 1.000000
v 0.026526 0.000625 1.200000 1.000000 1.000000 1.000000 1.000000
v 0.033939 0.000621 1.200001 1.000000 1.000000 1.000000 1.000000
v 0.033936 0.045913 1.200001 1.000000 1.000000 1.000000 1.000000
v 1.197395 0.045914 1.231178 1.000000 1.000000 1.000000 1.000000
v 1.200000 0.000628 1.237503 1.000000 1.000000 1.000000 1.000000
v 1.200000 0.045920 1.237503 1.000000 1.000000 1.000000 1.000000
v 1.200000 0.000625 1.230090 1.000000 1.000000 1.000000 1.000000
v 1.169685 0.045923 1.202613 1.000000 1.000000 1.000000 1.000000
v 1.170789 0.000625 1.200000 0.000000 1.000000 1.000000 1.000000
v 1.163373 0.000628 1.200001 0.000000 1.000000 1.000000 1.000000
v 1.163373 0.045924 1.200001 1.000000 1.000000 1.000000 1.000000
v 0.002626 0.045873 0.027621 0.137255 1.000000 1.000000 1.000000
v 0.027613 0.000624 0.002620 1.000000 1.000000 1.000000 1.000000
v 0.027620 0.045876 0.002629 1.000000 1.000000 1.000000 1.000000
v 0.002620 0.000624 0.027613 0.137255 1.000000 1.000000 1.000000
v 0.000000 0.000624 0.033944 0.090196 1.000000 1.000000 1.000000
v 0.000000 0.045875 0.033937 0.090196 1.000000 1.000000 1.000000
v 0.027647 0.045894 1.202643 1.000000 1.000000 1.000000 1.000000
v 0.033939 0.000621 1.200001 1.000000 1.000000 1.000000 1.000000
v 0.033936 0.045913 1.200001 1.000000 1.000000 1.000000 1.000000
v 0.026526 0.000625 1.200000 1.000000 1.000000 1.000000 1.000000
v 0.002473 0.000625 1.231034 1.000000 1.000000 1.000000 1.000000
v 0.002589 0.045887 1.231155 1.000000 1.000000 1.000000 1.000000
v 0.000000 0.000625 1.237504 1.000000 1.000000 1.000000 1.000000
v 0.000003 0.045888 1.237502 1.000000 1.000000 1.000000 1.000000
v 0.000000 0.000625 2.366053 0.505882 1.000000 1.000000 1.000000
v -0.000001 0.045872 2.366066 0.505882 1.000000 1.000000 1.000000
v 0.002629 0.045871 2.372380 1.000000 1.000000 1.000000 1.000000
v 0.002620 0.000625 2.372387 1.000000 1.000000 1.000000 1.000000
v 0.027621 0.045868 2.397373 1.000000 1.000000 1.000000 1.000000
v 0.027613 0.000625 2.397380 1.000000 1.000000 1.000000 1.000000
v 0.033946 0.000625 2.400000 1.000000 1.000000 1.000000 1.000000
v 0.033935 0.045869 2.400000 1.000000 1.000000 1.000000 1.000000
v 1.196452 0.050090 2.365739 1.000000 1.000000 1.000000 1.000000
v 1.200000 0.045920 1.237503 1.000000 1.000000 1.000000 1.000000
v 1.200000 0.045910 2.366065 1.000000 1.000000 1.000000 1.000000
v 1.196452 0.050090 1.237796 0.552941 1.000000 1.000000 1.000000
v 1.165637 0.050139 2.368293 1.000000 1.000000 1.000000 1.000000
v 1.194291 0.050076 2.371880 1.000000 1.000000 1.000000 1.000000
v 1.200000 0.045910 2.366065 1.000000 1.000000 1.000000 1.000000
v 1.197357 0.045896 2.372362 1.000000 1.000000 1.000000 1.000000
v 1.169715 0.045883 2.397405 1.000000 1.000000 1.000000 1.000000
v 1.169244 0.050107 2.394552 1.000000 1.000000 1.000000 1.000000
v 1.163373 0.045884 2.399996 1.000000 1.000000 1.000000 1.000000
v 1.163081 0.050182 2.396723 1.000000 1.000000 1.000000 1.000000
v 0.034260 0.050176 2.396723 0.337255 1.000000 1.000000 1.000000
v 0.033935 0.045869 2.400000 1.000000 1.000000 1.000000 1.000000
v 0.028115 0.050113 2.394532 0.337255 1.000000 1.000000 1.000000
v 0.027621 0.045868 2.397373 1.000000 1.000000 1.000000 1.000000
v 0.031703 0.050139 2.368293 0.180392 1.000000 1.000000 1.000000
v 0.005464 0.050146 2.371882 0.427451 1.000000 1.000000 1.000000
v 0.002629 0.045871 2.372380 1.000000 1.000000 1.000000 1.000000
v -0.000001 0.045872 2.366066 0.505882 1.000000 1.000000 1.000000
v 0.003274 0.050138 2.365737 0.435294 1.000000 1.000000 1.000000
v 0.000003 0.045888 1.237502 1.000000 1.000000 1.000000 1.000000
v 0.003274 0.050138 1.237798 1.000000 1.000000 1.000000 1.000000
v 0.031703 0.050138 1.235241 1.000000 1.000000 1.000000 1.000000
v 0.005438 0.050131 1.231628 1.000000 1.000000 1.000000 1.000000
v 0.002589 0.045887 1.231155 1.000000 1.000000 1.000000 1.000000
v 0.028116 0.050096 1.205797 1.000000 1.000000 1.000000 1.000000
v 0.027647 0.045894 1.202643 1.000000 1.000000 1.000000 1.000000
v 0.033936 0.045913 1.200001 1.000000 1.000000 1.000000 1.000000
v 0.034257 0.050169 1.203646 1.000000 1.000000 1.000000 1.000000
v 1.163373 0.045924 1.200001 1.000000 1.000000 1.000000 1.000000
v 0.033936 0.045913 1.200001 1.000000 1.000000 1.000000 1.000000
v 1.163083 0.050175 1.203646 0.000000 1.000000 1.000000 1.000000
v 1.165637 0.050138 1.235241 0.196078 1.000000 1.000000 1.000000
v 1.169243 0.050090 1.205777 0.015686 1.000000 1.000000 1.000000
v 1.163373 0.045924 1.200001 1.000000 1.000000 1.000000 1.000000
v 1.169685 0.045923 1.202613 1.000000 1.000000 1.000000 1.000000
v 1.197395 0.045914 1.231178 1.000000 1.000000 1.000000 1.000000
v 1.194317 0.050061 1.231630 0.490196 1.000000 1.000000 1.000000
v 1.200000 0.045920 1.237503 1.000000 1.000000 1.000000 1.000000
v 1.163374 0.045892 0.000004 1.000000 1.000000 1.000000 1.000000
v 0.034260 0.050176 0.003273 0.345098 1.000000 1.000000 1.000000
v 0.033935 0.045879 -0.000000 1.000000 1.000000 1.000000 1.000000
v 1.163082 0.050181 0.003273 0.247059 1.000000 1.000000 1.000000
v 1.165638 0.050138 0.031702 0.035294 1.000000 1.000000 1.000000
v 1.169245 0.050107 0.005444 0.305882 1.000000 1.000000 1.000000
v 1.163374 0.045892 0.000004 1.000000 1.000000 1.000000 1.000000
v 1.169717 0.045892 0.002598 1.000000 1.000000 1.000000 1.000000
v 1.194292 0.050076 0.028115 0.380392 1.000000 1.000000 1.000000
v 1.197361 0.045897 0.027639 1.000000 1.000000 1.000000 1.000000
v 1.200000 0.045912 0.033937 1.000000 1.000000 1.000000 1.000000
v 1.196452 0.050090 0.034257 0.360784 1.000000 1.000000 1.000000
v 1.199999 0.045921 1.162498 1.000000 1.000000 1.000000 1.000000
v 1.196452 0.050091 1.162206 0.156863 1.000000 1.000000 1.000000
v 1.165637 0.050139 1.164760 0.000000 1.000000 1.000000 1.000000
v 0.031703 0.050138 0.031702 0.000000 1.000000 1.000000 1.000000
v 0.028115 0.050113 0.005463 0.345098 1.000000 1.000000 1.000000
v 0.033935 0.045879 -0.000000 1.000000 1.000000 1.000000 1.000000
v 0.027620 0.045876 0.002629 1.000000 1.000000 1.000000 1.000000
v 0.005464 0.050146 0.028113 0.105882 1.000000 1.000000 1.000000
v 0.002626 0.045873 0.027621 0.137255 1.000000 1.000000 1.000000
v 0.000000 0.045875 0.033937 0.090196 1.000000 1.000000 1.000000
v 0.003274 0.050138 0.034258 0.062745 1.000000 1.000000 1.000000
v 0.000002 0.045888 1.162497 1.000000 1.000000 1.000000 1.000000
v 0.000000 0.045875 0.033937 0.090196 1.000000 1.000000 1.000000
v 0.003274 0.050139 1.162204 1.000000 1.000000 1.000000 1.000000
v 0.031703 0.050139 1.164760 1.000000 1.000000 1.000000 1.000000
v 0.005438 0.050131 1.168373 1.000000 1.000000 1.000000 1.000000
v 0.002588 0.045888 1.168845 1.000000 1.000000 1.000000 1.000000
v 0.028116 0.050096 1.194205 1.000000 1.000000 1.000000 1.000000
v 0.027647 0.045901 1.197359 1.000000 1.000000 1.000000 1.000000
v 0.033936 0.045913 1.200001 1.000000 1.000000 1.000000 1.000000
v 0.034257 0.050169 1.196355 1.000000 1.000000 1.000000 1.000000
v 1.163373 0.045924 1.200001 1.000000 1.000000 1.000000 1.000000
v 0.033936 0.045913 1.200001 1.000000 1.000000 1.000000 1.000000
v 1.163083 0.050175 1.196355 0.000000 1.000000 1.000000 1.000000
v 1.169243 0.050090 1.194224 0.000000 1.000000 1.000000 1.000000
v 1.163373 0.045924 1.200001 1.000000 1.000000 1.000000 1.000000
v 1.169685 0.045916 1.197389 0.000000 1.000000 1.000000 1.000000
v 1.197394 0.045918 1.168826 1.000000 1.000000 1.000000 1.000000
v 1.194317 0.050061 1.168372 0.145098 1.000000 1.000000 1.000000
v 1.199999 0.045921 1.162498 1.000000 1.000000 1.000000 1.000000
vt 1.270508 0.672119
vt 0.660156 0.647705
vt 1.270508 0.647705
vt 0.660156 0.672119
vt 1.288086 0.019043
vt 1.314453 0.627686
vt 1.290039 0.628174
vt 1.311523 0.016602
vt 1.273438 0.645752
vt 1.288086 0.665771
vt 1.270508 0.647949
vt 1.291016 0.663330
vt 0.614746 0.628906
vt 0.639648 0.019043
vt 0.639160 0.628906
vt 0.615234 0.019043
vt -0.028488 1.268555
vt -0.028778 0.655029
vt -0.003887 1.268555
vt -0.004177 0.655029
vt 0.659180 0.647949
vt 0.642578 0.666260
vt 0.656250 0.645752
vt 0.640137 0.663818
vt 0.641602 0.632080
vt 0.624512 0.649658
vt 0.621582 0.646729
vt 0.639160 0.628906
vt 0.638672 0.017090
vt 0.621094 0.000488
vt 0.641602 0.014160
vt 0.623535 -0.001953
vt 0.656738 -0.000977
vt 0.639160 -0.018555
vt 0.642090 -0.021484
vt 0.659180 -0.003906
vt 0.019089 0.639404
vt 0.637207 0.616455
vt 0.631836 0.639404
vt 0.017975 0.615479
vt 0.016235 0.640381
vt 0.011398 0.616943
vt -0.001912 0.648682
vt -0.009804 0.624512
vt -0.013451 0.626465
vt -0.005436 0.649658
vt 1.287109 0.016602
vt 1.311523 0.016602
vt 1.288086 0.019043
vt 1.309570 0.010742
vt 1.277344 -0.000977
vt 1.301758 -0.009766
vt 1.299805 -0.013672
vt 1.277344 -0.004883
vt -0.002213 1.272461
vt -0.023331 1.285400
vt -0.004539 1.269531
vt -0.020752 1.288574
vt 0.012611 1.288330
vt -0.005306 1.305420
vt -0.002520 1.308105
vt 0.015129 1.291016
vt 1.287109 0.632324
vt 1.291016 0.663330
vt 1.273438 0.645752
vt 1.304688 0.649902
vt 1.306641 0.647217
vt 1.290039 0.629639
vt 0.638672 1.288086
vt 0.661133 1.299316
vt 0.637695 1.291748
vt 0.663086 1.295654
vt 0.670410 1.274170
vt 0.646973 1.269531
vt 0.671875 1.267822
vt 0.647461 1.266846
vt 0.670410 0.649170
vt 0.647461 0.654541
vt 0.646484 0.652832
vt 0.666016 0.639404
vt 0.633789 0.640625
vt 0.646973 0.620850
vt 0.637207 0.616455
vt 0.631836 0.639404
vt -0.001283 0.655029
vt -0.003887 1.268555
vt -0.004177 0.655029
vt -0.000992 1.268555
vt 0.015457 0.655518
vt 0.000375 0.651367
vt -0.004143 0.652832
vt -0.001912 0.648682
vt 0.016235 0.640381
vt 0.015869 0.642090
vt 0.019089 0.639404
vt 0.018341 0.641602
vt 0.630859 0.641113
vt 0.631836 0.639404
vt 0.632812 0.642334
vt 0.633789 0.640625
vt 0.631348 0.655518
vt 0.644531 0.653809
vt 0.646484 0.652832
vt 0.647461 0.654541
vt 0.645996 0.655762
vt 0.647461 1.266846
vt 0.645508 1.267578
vt 0.631348 1.270752
vt 0.645020 1.270020
vt 0.646973 1.269531
vt 0.635742 1.285889
vt 0.638672 1.288086
vt 0.634277 1.290527
vt 0.631836 1.287598
vt 0.017578 1.290527
vt 0.631836 1.290771
vt 0.017258 1.287354
vt 0.015656 1.270508
vt 0.013763 1.285889
vt 0.015976 1.290283
vt 0.012611 1.288330
vt -0.002213 1.272461
vt 0.000283 1.271729
vt -0.003853 1.269043
vt 0.660156 0.647705
vt 1.269531 0.644775
vt 1.270508 0.647705
vt 0.660156 0.644775
vt 0.659180 0.629395
vt 0.657227 0.643311
vt 0.659180 0.647949
vt 0.656250 0.645752
vt 0.643555 0.631104
vt 0.641602 0.632080
vt 0.639160 0.628906
vt 0.642578 0.628174
vt 0.639648 0.019043
vt 0.642578 0.018555
vt 0.659180 0.017090
vt 1.271484 0.629395
vt 1.272461 0.643311
vt 1.270508 0.647949
vt 1.273438 0.645752
vt 1.285156 0.631348
vt 1.287109 0.632324
vt 1.290039 0.629639
vt 1.286133 0.628174
vt 1.288086 0.019043
vt 1.290039 0.628174
vt 1.286133 0.019531
vt 1.271484 0.017090
vt 1.285156 0.016602
vt 1.287109 0.016602
vt 1.275391 0.001465
vt 1.277344 -0.000977
vt 1.273438 -0.002930
vt 1.271484 0.000000
vt 0.661133 -0.002930
vt 1.271484 -0.002930
vt 0.661133 0.000000
vt 0.657715 0.001465
vt 0.660156 -0.002930
vt 0.656738 -0.000977
vt 0.641602 0.014160
vt 0.644043 0.015625
vt 0.639648 0.017578
vt1 0.820312 0.943848
vt1 0.833008 0.576904
vt1 0.833008 0.941071
vt1 0.819824 0.575928
vt1 0.775391 0.462402
vt1 0.762695 0.097168
vt1 0.775391 0.099609
vt1 0.762207 0.463379
vt1 0.833984 0.942322
vt1 0.820312 0.943848
vt1 0.833008 0.941071
vt1 0.823242 0.949646
vt1 0.837402 0.443359
vt1 0.852051 0.080078
vt1 0.852051 0.443359
vt1 0.837402 0.080078
vt1 0.914551 0.537598
vt1 0.914551 0.900635
vt1 0.899902 0.537598
vt1 0.900391 0.900635
vt1 0.833008 0.576904
vt1 0.819824 0.575928
vt1 0.833496 0.575439
vt1 0.821289 0.571533
vt1 0.839844 0.565186
vt1 0.827637 0.559326
vt1 0.829102 0.557129
vt1 0.841797 0.563721
vt1 0.904785 0.312988
vt1 0.919434 0.312988
vt1 0.905273 0.315430
vt1 0.919434 0.315430
vt1 0.905273 0.329102
vt1 0.919434 0.329590
vt1 0.919434 0.332031
vt1 0.904785 0.331543
vt1 0.692871 0.101074
vt1 0.705566 0.467285
vt1 0.692871 0.464844
vt1 0.706055 0.099121
vt1 0.692383 0.099121
vt1 0.704590 0.094238
vt1 0.685547 0.089844
vt1 0.696777 0.082520
vt1 0.694824 0.080078
vt1 0.683594 0.088379
vt1 0.906250 0.095215
vt1 0.918457 0.102051
vt1 0.906250 0.096680
vt1 0.919434 0.097656
vt1 0.905762 0.082520
vt1 0.919922 0.083008
vt1 0.919434 0.080566
vt1 0.904785 0.080078
vt1 0.905273 0.212891
vt1 0.919434 0.215820
vt1 0.904785 0.215332
vt1 0.919434 0.213379
vt1 0.905273 0.199219
vt1 0.919434 0.199219
vt1 0.919434 0.196289
vt1 0.904785 0.197266
vt1 0.776367 0.098633
vt1 0.776367 0.080078
vt1 0.783691 0.090820
vt1 0.765625 0.091309
vt1 0.762695 0.097168
vt1 0.775391 0.099609
vt1 0.761719 0.566406
vt1 0.751953 0.557129
vt1 0.763672 0.564941
vt1 0.750488 0.559326
vt1 0.742676 0.571533
vt1 0.754883 0.576416
vt1 0.741211 0.576416
vt1 0.754395 0.577881
vt1 0.741699 0.943451
vt1 0.754395 0.940796
vt1 0.754883 0.942230
vt1 0.744141 0.949493
vt1 0.762695 0.949860
vt1 0.755371 0.960632
vt1 0.761719 0.963226
vt1 0.764160 0.950592
vt1 0.123596 0.442871
vt1 0.486572 0.444824
vt1 0.123535 0.444824
vt1 0.486572 0.442871
vt1 0.122925 0.433105
vt1 0.121643 0.442383
vt1 0.122986 0.444824
vt1 0.120972 0.443848
vt1 0.112976 0.434570
vt1 0.114502 0.434082
vt1 0.112122 0.432617
vt1 0.113831 0.432129
vt1 0.113770 0.068848
vt1 0.112061 0.068848
vt1 0.114502 0.066895
vt1 0.112976 0.066406
vt1 0.122925 0.068359
vt1 0.121765 0.060059
vt1 0.121155 0.058105
vt1 0.123413 0.057617
vt1 0.123657 0.059082
vt1 0.486572 0.057617
vt1 0.486328 0.059082
vt1 0.487305 0.068359
vt1 0.488281 0.060059
vt1 0.488770 0.058105
vt1 0.496826 0.066895
vt1 0.498291 0.066406
vt1 0.499268 0.068359
vt1 0.497559 0.068848
vt1 0.499268 0.432129
vt1 0.499512 0.068848
vt1 0.497559 0.432129
vt1 0.487305 0.433105
vt1 0.496826 0.434082
vt1 0.499268 0.432617
vt1 0.498291 0.434570
vt1 0.489014 0.443848
vt1 0.488525 0.442383
vt1 0.487061 0.444824
vt1 0.108093 0.542725
vt1 0.109802 0.906006
vt1 0.108093 0.906250
vt1 0.109802 0.542969
vt1 0.118896 0.543945
vt1 0.110474 0.541016
vt1 0.108093 0.542725
vt1 0.108887 0.540527
vt1 0.117432 0.532715
vt1 0.116760 0.531250
vt1 0.119385 0.530273
vt1 0.119446 0.531982
vt1 0.482422 0.530273
vt1 0.482422 0.531982
vt1 0.483398 0.543945
vt1 0.118896 0.908630
vt1 0.110474 0.907898
vt1 0.108093 0.906250
vt1 0.109009 0.908508
vt1 0.117737 0.915100
vt1 0.117188 0.916626
vt1 0.119385 0.917542
vt1 0.119629 0.915833
vt1 0.482666 0.917542
vt1 0.119385 0.917542
vt1 0.482422 0.915833
vt1 0.483398 0.908630
vt1 0.484375 0.915161
vt1 0.484863 0.916687
vt1 0.492676 0.908142
vt1 0.494385 0.908875
vt1 0.495361 0.906860
vt1 0.493652 0.906128
vt1 0.495361 0.542969
vt1 0.495361 0.906189
vt1 0.493652 0.542969
vt1 0.492676 0.541016
vt1 0.495361 0.542236
vt1 0.494385 0.540283
vt1 0.485107 0.531250
vt1 0.484375 0.532715
vt1 0.482910 0.530273
vn 0.000000 -0.000000 -1.000000
vn 0.000000 0.062992 -1.000000
vn 0.000000 0.062992 -1.000000
vn 0.000000 -0.000000 -1.000000
vn -1.000000 0.062992 -0.000000
vn -1.000000 0.000000 0.000000
vn -1.000000 0.062992 -0.000000
vn -1.000000 0.000000 0.000000
vn -0.661417 0.039370 -0.748031
vn 0.000000 -0.000000 -1.000000
vn 0.000000 0.062992 -1.000000
vn -0.661417 -0.000000 -0.748031
vn 1.000000 0.000000 0.000000
vn 1.000000 0.070866 -0.000000
vn 1.000000 0.070866 -0.000000
vn 1.000000 0.000000 0.000000
vn 1.000000 0.000000 0.000000
vn 1.000000 0.000000 0.000000
vn 1.000000 0.070866 -0.000000
vn 1.000000 0.070866 -0.000000
vn 0.000000 0.062992 -1.000000
vn 0.000000 -0.000000 -1.000000
vn 0.629921 0.047244 -0.779527
vn 0.606299 0.031496 -0.795275
vn 0.700787 0.070866 -0.708661
vn 0.716535 0.047244 -0.692913
vn 1.000000 0.000000 0.000000
vn 1.000000 0.070866 -0.000000
vn 1.000000 0.070866 -0.000000
vn 1.000000 0.000000 0.000000
vn 0.755906 0.086614 0.645669
vn 0.787402 0.062992 0.614173
vn 0.669291 0.102362 0.732283
vn 1.000000 0.086614 -0.000000
vn 0.535433 0.834646 0.110236
vn 0.031496 1.000000 -0.000000
vn 0.000000 0.062992 1.000000
vn 0.000000 0.000000 1.000000
vn 0.000000 0.062992 1.000000
vn 0.000000 0.000000 1.000000
vn 0.629921 0.047244 0.779527
vn 0.606299 0.031496 0.795275
vn 0.708661 0.062992 0.708661
vn 0.716535 0.055118 0.692913
vn 1.000000 0.000000 0.000000
vn 1.000000 0.070866 -0.000000
vn -0.787402 0.047244 0.622047
vn -1.000000 0.000000 0.000000
vn -1.000000 0.062992 -0.000000
vn -0.803150 0.031496 0.598425
vn -0.716535 0.062992 0.692913
vn -1.000000 0.078740 -0.000000
vn -0.535433 0.834646 -0.118110
vn -0.031496 1.000000 -0.000000
vn 0.748031 0.094488 -0.653543
vn 1.000000 0.000000 0.000000
vn 1.000000 0.070866 -0.000000
vn 0.787402 0.055118 -0.614173
vn 0.669291 0.086614 -0.740157
vn 1.000000 0.086614 -0.000000
vn 0.535433 0.834646 0.110236
vn 0.031496 1.000000 -0.000000
vn -0.748031 0.039370 -0.661417
vn -0.661417 -0.000000 -0.748031
vn -0.661417 0.039370 -0.748031
vn -0.748031 -0.000000 -0.661417
vn -1.000000 0.000000 0.000000
vn -1.000000 0.062992 -0.000000
vn -0.716535 0.070866 -0.692913
vn -0.535433 0.834646 -0.118110
vn -0.031496 1.000000 -0.000000
vn -1.000000 0.078740 -0.000000
vn -0.803150 0.031496 -0.598425
vn -0.787402 0.047244 -0.622047
vn -1.000000 0.000000 0.000000
vn -1.000000 0.062992 -0.000000
vn -1.000000 0.000000 0.000000
vn -1.000000 0.062992 -0.000000
vn -0.748031 0.039370 0.661417
vn -0.748031 0.000000 0.661417
vn -0.661417 0.039370 0.748031
vn -0.661417 0.000000 0.748031
vn 0.000000 0.000000 1.000000
vn 0.000000 0.062992 1.000000
vn 0.118110 0.992126 -0.000000
vn 1.000000 0.070866 -0.000000
vn 1.000000 0.070866 -0.000000
vn 0.118110 0.992126 -0.000000
vn 0.000000 1.000000 -0.000000
vn 0.196850 0.960630 0.196850
vn 1.000000 0.070866 -0.000000
vn 0.708661 0.062992 0.708661
vn 0.629921 0.047244 0.779527
vn 0.157480 0.968504 0.188976
vn 0.000000 0.062992 1.000000
vn 0.000000 0.992126 0.133858
vn 0.000000 0.992126 0.133858
vn 0.000000 0.062992 1.000000
vn -0.173228 0.968504 0.196850
vn -0.661417 0.039370 0.748031
vn 0.000000 1.000000 -0.000000
vn -0.204724 0.960630 0.188976
vn -0.748031 0.039370 0.661417
vn -1.000000 0.062992 -0.000000
vn -0.133858 0.992126 -0.000000
vn -1.000000 0.062992 -0.000000
vn -0.133858 0.992126 -0.000000
vn 0.000000 1.000000 -0.000000
vn -0.188976 0.968504 -0.149606
vn -0.787402 0.047244 -0.622047
vn -0.204724 0.960630 -0.196850
vn -0.716535 0.070866 -0.692913
vn -0.031496 1.000000 -0.000000
vn 0.000000 0.992126 -0.118110
vn 0.031496 1.000000 -0.000000
vn -0.031496 1.000000 -0.000000
vn 0.000000 0.992126 -0.118110
vn 0.000000 1.000000 -0.000000
vn 0.173228 0.968504 -0.181102
vn 0.031496 1.000000 -0.000000
vn 0.669291 0.086614 -0.740157
vn 0.748031 0.094488 -0.653543
vn 0.196850 0.968504 -0.173228
vn 1.000000 0.070866 -0.000000
vn 0.000000 0.062992 -1.000000
vn 0.000000 0.992126 -0.133858
vn 0.000000 0.062992 -1.000000
vn 0.000000 0.992126 -0.133858
vn 0.000000 1.000000 -0.000000
vn 0.157480 0.968504 -0.188976
vn 0.000000 0.062992 -1.000000
vn 0.629921 0.047244 -0.779527
vn 0.196850 0.960630 -0.196850
vn 0.700787 0.070866 -0.708661
vn 1.000000 0.070866 -0.000000
vn 0.118110 0.992126 -0.000000
vn 1.000000 0.070866 -0.000000
vn 0.118110 0.992126 -0.000000
vn 0.000000 1.000000 -0.000000
vn 0.000000 1.000000 -0.000000
vn -0.188976 0.960630 -0.204724
vn 0.000000 0.062992 -1.000000
vn -0.661417 0.039370 -0.748031
vn -0.196850 0.968504 -0.173228
vn -0.748031 0.039370 -0.661417
vn -1.000000 0.062992 -0.000000
vn -0.133858 0.992126 -0.000000
vn -1.000000 0.062992 -0.000000
vn -1.000000 0.062992 -0.000000
vn -0.133858 0.992126 -0.000000
vn 0.000000 1.000000 -0.000000
vn -0.188976 0.968504 0.149606
vn -0.787402 0.047244 0.622047
vn -0.204724 0.960630 0.196850
vn -0.716535 0.062992 0.692913
vn -0.031496 1.000000 -0.000000
vn 0.000000 0.992126 0.118110
vn 0.031496 1.000000 -0.000000
vn -0.031496 1.000000 -0.000000
vn 0.000000 0.992126 0.118110
vn 0.188976 0.960630 0.196850
vn 0.031496 1.000000 -0.000000
vn 0.669291 0.102362 0.732283
vn 0.755906 0.086614 0.645669
vn 0.181102 0.968504 0.157480
vn 1.000000 0.070866 -0.000000
tan 0.000000 1.000000 -0.000000 1.000000
tan 0.000000 1.000000 0.062992 1.000000
tan 0.000000 1.000000 0.062992 1.000000
tan 0.000000 1.000000 -0.000000 1.000000
tan -0.005952 -0.094488 0.996094 1.000000
tan 0.000000 -0.023622 1.000000 1.000000
tan -0.003472 -0.055118 1.003968 1.000000
tan 0.000000 -0.118110 0.992126 1.000000
tan -0.482361 0.737243 0.465311 1.000000
tan -0.716535 0.700787 -0.000000 1.000000
tan -0.521669 0.850394 0.053568 1.000000
tan -0.530101 0.701903 0.468721 1.000000
tan 0.000000 0.000000 1.000000 1.000000
tan -0.007254 0.102362 0.997148 1.000000
tan -0.021762 0.307087 0.957220 1.000000
tan 0.000000 0.007874 1.000000 1.000000
tan 0.000000 0.000000 1.000000 1.000000
tan 0.000000 0.000000 1.000000 1.000000
tan 0.002790 -0.039370 1.005022 1.000000
tan -0.002790 0.039370 1.005022 1.000000
tan 0.513795 0.858268 0.054064 1.000000
tan 0.692913 0.724409 -0.000000 1.000000
tan 0.481741 0.766445 0.435737 1.000000
tan 0.531403 0.727448 0.433939 1.000000
tan 0.487693 0.677289 0.550003 1.000000
tan 0.491289 0.665509 0.553413 1.000000
tan 0.000000 0.685039 0.724409 1.000000
tan -0.021762 0.307087 0.957220 1.000000
tan 0.046314 -0.653543 0.759811 1.000000
tan 0.000000 -0.677165 0.732283 1.000000
tan -0.431893 -0.677413 0.596503 1.000000
tan -0.433505 -0.655217 0.622977 1.000000
tan -0.425259 -0.754913 0.494203 1.000000
tan 0.044330 -0.511811 0.857214 1.000000
tan -0.092752 -0.071796 0.994110 1.000000
tan 0.370079 -0.011656 0.930126 1.000000
tan -0.118606 -0.992126 0.062496 1.000000
tan 0.448819 -0.889764 0.000000 1.000000
tan 0.189472 -0.984252 0.062000 1.000000
tan -0.212598 -0.976378 0.000000 1.000000
tan -0.280117 -0.921818 0.282225 1.000000
tan -0.302251 -0.918036 0.266787 1.000000
tan -0.244900 -0.920702 0.326741 1.000000
tan -0.254015 -0.904396 0.334615 1.000000
tan 0.000000 -0.921260 0.393701 1.000000
tan 0.068076 -0.960630 0.285139 1.000000
tan 0.588257 -0.287246 0.766446 1.000000
tan 0.000000 -0.118110 0.992126 1.000000
tan -0.005952 -0.094488 0.996094 1.000000
tan 0.579329 -0.220720 0.789137 1.000000
tan 0.556017 -0.543059 0.624341 1.000000
tan -0.016740 -0.212598 0.982578 1.000000
tan -0.076384 0.091078 0.989894 1.000000
tan -0.362205 -0.011408 0.930126 1.000000
tan 0.470023 0.615785 0.627007 1.000000
tan 0.000000 0.637795 0.771653 1.000000
tan -0.042966 0.606299 0.799181 1.000000
tan 0.453159 0.622109 0.636803 1.000000
tan 0.481183 0.709467 0.518135 1.000000
tan -0.041602 0.480315 0.880836 1.000000
tan -0.052452 -0.097092 0.989894 1.000000
tan -0.370079 0.011656 0.930126 1.000000
tan -0.459297 0.694649 0.560791 1.000000
tan -0.530101 0.701903 0.468721 1.000000
tan -0.482361 0.737243 0.465311 1.000000
tan -0.473929 0.701903 0.535991 1.000000
tan 0.000000 0.677165 0.740157 1.000000
tan 0.034224 0.543307 0.838118 1.000000
tan -0.603013 0.431893 0.667741 1.000000
tan -0.182466 0.021762 0.980966 1.000000
tan 0.354331 0.011160 0.938000 1.000000
tan 0.013640 0.173228 0.990452 1.000000
tan -0.585281 0.170252 0.794469 1.000000
tan -0.614545 0.107074 0.786037 1.000000
tan 0.000000 0.070866 1.000000 1.000000
tan -0.012400 -0.196850 0.980346 1.000000
tan 0.000000 -0.204724 0.976378 1.000000
tan -0.026784 -0.425197 0.908984 1.000000
tan 0.487197 -0.638477 0.589001 1.000000
tan 0.593713 -0.428979 0.671461 1.000000
tan 0.433691 -0.792733 0.425197 1.000000
tan 0.600781 -0.596131 0.531217 1.000000
tan 0.448819 -0.889764 0.000000 1.000000
tan 0.189472 -0.984252 0.062000 1.000000
tan 0.187488 -0.022320 0.982640 1.000000
tan 0.002790 -0.039370 1.005022 1.000000
tan -0.002790 0.039370 1.005022 1.000000
tan -0.007812 0.000930 0.998264 1.000000
tan 0.070866 0.000000 1.000000 1.000000
tan 0.300453 -0.249550 0.917354 1.000000
tan 0.043524 -0.614173 0.791308 1.000000
tan -0.244900 -0.920702 0.326741 1.000000
tan -0.280117 -0.921818 0.282225 1.000000
tan 0.127224 -0.209312 0.966706 1.000000
tan -0.118606 -0.992126 0.062496 1.000000
tan 0.063550 -0.133858 0.992126 1.000000
tan 0.015624 -0.133858 0.992126 1.000000
tan 0.189472 -0.984252 0.062000 1.000000
tan 0.035650 -0.193750 0.984624 1.000000
tan 0.433691 -0.792733 0.425197 1.000000
tan -0.015748 0.000000 1.000000 1.000000
tan -0.141236 -0.220100 0.965838 1.000000
tan 0.487197 -0.638477 0.589001 1.000000
tan -0.026784 -0.425197 0.908984 1.000000
tan -0.335917 -0.045322 0.938682 1.000000
tan -0.012400 -0.196850 0.980346 1.000000
tan -0.382789 -0.051646 0.922004 1.000000
tan -0.070866 0.000000 1.000000 1.000000
tan -0.409015 0.060202 0.906380 1.000000
tan -0.614545 0.107074 0.786037 1.000000
tan -0.165974 0.163308 0.969558 1.000000
tan -0.603013 0.431893 0.667741 1.000000
tan -0.039370 -0.001240 1.000992 1.000000
tan -0.047802 0.118110 0.992126 1.000000
tan 0.000000 0.000000 1.000992 1.000000
tan 0.000000 0.000000 1.000992 1.000000
tan 0.023436 0.118110 0.992126 1.000000
tan 0.023622 0.000000 1.000000 1.000000
tan 0.031372 0.178250 0.983260 1.000000
tan -0.023622 0.000744 1.000992 1.000000
tan 0.481183 0.709467 0.518135 1.000000
tan 0.470023 0.615785 0.627007 1.000000
tan 0.003596 0.176700 0.992002 1.000000
tan -0.012834 0.181102 0.989274 1.000000
tan 0.000000 1.000000 0.062992 1.000000
tan 0.007812 0.133858 0.992126 1.000000
tan 0.000000 1.000000 0.062992 1.000000
tan -0.007812 0.133858 0.992126 1.000000
tan 0.000000 0.000000 1.000000 1.000000
tan -0.000744 0.190960 0.978052 1.000000
tan 0.513795 0.858268 0.054064 1.000000
tan 0.481741 0.766445 0.435737 1.000000
tan -0.046004 0.209251 0.975138 1.000000
tan 0.487693 0.677289 0.550003 1.000000
tan -0.021762 0.307087 0.957220 1.000000
tan -0.164052 0.019530 0.982640 1.000000
tan -0.007254 0.102362 0.997148 1.000000
tan 0.031248 -0.003720 0.998264 1.000000
tan -0.007874 0.000000 1.000000 1.000000
tan 0.000000 0.000000 1.000000 1.000000
tan -0.008432 0.207453 0.981214 1.000000
tan -0.521669 0.850394 0.053568 1.000000
tan -0.482361 0.737243 0.465311 1.000000
tan 0.107260 0.197036 0.979726 1.000000
tan -0.459297 0.694649 0.560791 1.000000
tan 0.034224 0.543307 0.838118 1.000000
tan 0.101556 0.013702 0.994420 1.000000
tan -0.005952 -0.094488 0.996094 1.000000
tan -0.003472 -0.055118 1.003968 1.000000
tan -0.031248 -0.004216 1.002232 1.000000
tan 0.039370 0.000000 1.000000 1.000000
tan 0.161448 -0.119598 0.978176 1.000000
tan 0.588257 -0.287246 0.766446 1.000000
tan 0.049414 -0.190588 0.981462 1.000000
tan 0.556017 -0.543059 0.624341 1.000000
tan -0.055118 -0.001736 1.000992 1.000000
tan 0.007812 -0.118110 0.992126 1.000000
tan 0.000000 0.000000 1.000992 1.000000
tan 0.000000 0.000000 1.000992 1.000000
tan 0.000000 -0.118110 0.992126 1.000000
tan 0.026412 -0.205654 0.978238 1.000000
tan 0.078740 -0.002480 1.000992 1.000000
tan -0.425259 -0.754913 0.494203 1.000000
tan -0.431893 -0.677413 0.596503 1.000000
tan 0.088350 -0.175150 0.975572 1.000000
tan 0.023436 -0.330709 0.949346 1.000000
f 3/3/3 2/2/2 1/1/1
f 4/4/4 1/1/1 2/2/2
f 7/7/7 6/6/6 5/5/5
f 8/8/8 5/5/5 6/6/6
f 11/11/11 10/10/10 9/9/9
f 12/12/12 9/9/9 10/10/10
f 15/15/15 14/14/14 13/13/13
f 16/16/16 13/13/13 14/14/14
f 19/19/19 18/18/18 17/17/17
f 18/18/18 19/19/19 20/20/20
f 23/23/23 22/22/22 21/21/21
f 24/24/24 22/22/22 23/23/23
f 25/25/25 24/24/24 23/23/23
f 26/26/26 24/24/24 25/25/25
f 26/26/26 25/25/25 27/27/27
f 28/28/28 27/27/27 25/25/25
f 31/31/31 30/30/30 29/29/29
f 32/32/32 30/30/30 31/31/31
f 31/31/31 33/33/33 32/32/32
f 34/34/34 32/32/32 33/33/33
f 34/34/34 33/33/33 35/35/35
f 36/36/36 35/35/35 33/33/33
f 39/39/39 38/38/38 37/37/37
f 40/40/40 37/37/37 38/38/38
f 37/37/37 40/40/40 41/41/41
f 42/42/42 41/41/41 40/40/40
f 41/41/41 42/42/42 43/43/43
f 44/44/44 43/43/43 42/42/42
f 44/44/44 45/45/45 43/43/43
f 43/43/43 45/45/45 46/46/46
f 49/49/49 48/48/48 47/47/47
f 50/50/50 47/47/47 48/48/48
f 47/47/47 50/50/50 51/51/51
f 52/52/52 51/51/51 50/50/50
f 52/52/52 53/53/53 51/51/51
f 51/51/51 53/53/53 54/54/54
f 57/57/57 56/56/56 55/55/55
f 58/58/58 55/55/55 56/56/56
f 55/55/55 58/58/58 59/59/59
f 60/60/60 59/59/59 58/58/58
f 60/60/60 61/61/61 59/59/59
f 59/59/59 61/61/61 62/62/62
f 65/65/65 64/64/64 63/63/63
f 66/66/66 63/63/63 64/64/64
f 66/66/66 67/67/67 63/63/63
f 63/63/63 67/67/67 68/68/68
f 71/71/71 70/70/70 69/69/69
f 72/72/72 69/69/69 70/70/70
f 72/72/72 73/73/73 69/69/69
f 73/73/73 74/74/74 69/69/69
f 73/73/73 75/75/75 74/74/74
f 74/74/74 75/75/75 76/76/76
f 75/75/75 77/77/77 76/76/76
f 78/78/78 76/76/76 77/77/77
f 78/78/78 77/77/77 79/79/79
f 80/80/80 79/79/79 77/77/77
f 79/79/79 80/80/80 81/81/81
f 82/82/82 81/81/81 80/80/80
f 82/82/82 83/83/83 81/81/81
f 81/81/81 83/83/83 84/84/84
f 87/87/87 86/86/86 85/85/85
f 86/86/86 88/88/88 85/85/85
f 85/85/85 88/88/88 89/89/89
f 85/85/85 89/89/89 90/90/90
f 85/85/85 90/90/90 91/91/91
f 92/92/92 91/91/91 90/90/90
f 90/90/90 93/93/93 92/92/92
f 93/93/93 90/90/90 94/94/94
f 94/94/94 90/90/90 89/89/89
f 93/93/93 94/94/94 95/95/95
f 96/96/96 95/95/95 94/94/94
f 96/96/96 94/94/94 89/89/89
f 95/95/95 96/96/96 97/97/97
f 96/96/96 89/89/89 97/97/97
f 98/98/98 95/95/95 97/97/97
f 97/97/97 99/99/99 98/98/98
f 100/100/100 98/98/98 99/99/99
f 97/97/97 101/101/101 99/99/99
f 101/101/101 97/97/97 89/89/89
f 100/100/100 99/99/99 102/102/102
f 102/102/102 99/99/99 101/101/101
f 103/103/103 100/100/100 102/102/102
f 103/103/103 102/102/102 104/104/104
f 105/105/105 104/104/104 102/102/102
f 105/105/105 102/102/102 101/101/101
f 104/104/104 105/105/105 106/106/106
f 105/105/105 101/101/101 107/107/107
f 107/107/107 106/106/106 105/105/105
f 108/108/108 107/107/107 101/101/101
f 89/89/89 108/108/108 101/101/101
f 107/107/107 109/109/109 106/106/106
f 107/107/107 108/108/108 109/109/109
f 110/110/110 106/106/106 109/109/109
f 110/110/110 109/109/109 111/111/111
f 109/109/109 108/108/108 111/111/111
f 112/112/112 110/110/110 111/111/111
f 112/112/112 111/111/111 113/113/113
f 114/114/114 113/113/113 111/111/111
f 108/108/108 114/114/114 111/111/111
f 116/116/116 114/114/114 115/115/115
f 117/117/117 115/115/115 114/114/114
f 108/108/108 118/118/118 114/114/114
f 117/117/117 114/114/114 118/118/118
f 118/118/118 108/108/108 89/89/89
f 118/118/118 89/89/89 88/88/88
f 117/117/117 118/118/118 119/119/119
f 117/117/117 119/119/119 120/120/120
f 121/121/121 120/120/120 119/119/119
f 121/121/121 119/119/119 122/122/122
f 88/88/88 123/123/123 118/118/118
f 123/123/123 119/119/119 118/118/118
f 123/123/123 122/122/122 119/119/119
f 88/88/88 124/124/124 123/123/123
f 122/122/122 123/123/123 124/124/124
f 127/127/127 126/126/126 125/125/125
f 128/128/128 125/125/125 126/126/126
f 128/128/128 126/126/126 129/129/129
f 128/128/128 129/129/129 130/130/130
f 128/128/128 130/130/130 131/131/131
f 132/132/132 131/131/131 130/130/130
f 132/132/132 130/130/130 133/133/133
f 133/133/133 130/130/130 129/129/129
f 134/134/134 132/132/132 133/133/133
f 134/134/134 133/133/133 135/135/135
f 136/136/136 135/135/135 133/133/133
f 136/136/136 133/133/133 129/129/129
f 135/135/135 136/136/136 137/137/137
f 138/138/138 137/137/137 136/136/136
f 129/129/129 139/139/139 136/136/136
f 138/138/138 136/136/136 139/139/139
f 140/140/140 129/129/129 126/126/126
f 129/129/129 140/140/140 139/139/139
f 140/140/140 126/126/126 141/141/141
f 126/126/126 142/142/142 141/141/141
f 143/143/143 141/141/141 142/142/142
f 141/141/141 143/143/143 144/144/144
f 144/144/144 140/140/140 141/141/141
f 145/145/145 144/144/144 143/143/143
f 145/145/145 146/146/146 144/144/144
f 147/147/147 144/144/144 146/146/146
f 147/147/147 140/140/140 144/144/144
f 149/149/149 148/148/148 147/147/147
f 147/147/147 150/150/150 140/140/140
f 148/148/148 150/150/150 147/147/147
f 151/151/151 140/140/140 150/150/150
f 139/139/139 140/140/140 151/151/151
f 150/150/150 148/148/148 152/152/152
f 150/150/150 152/152/152 151/151/151
f 153/153/153 152/152/152 148/148/148
f 153/153/153 154/154/154 152/152/152
f 152/152/152 154/154/154 151/151/151
f 154/154/154 153/153/153 155/155/155
f 155/155/155 156/156/156 154/154/154
f 157/157/157 154/154/154 156/156/156
f 157/157/157 151/151/151 154/154/154
f 151/151/151 157/157/157 139/139/139
f 159/159/159 158/158/158 157/157/157
f 158/158/158 160/160/160 157/157/157
f 160/160/160 139/139/139 157/157/157
f 160/160/160 161/161/161 139/139/139
f 160/160/160 162/162/162 161/161/161
f 163/163/163 161/161/161 162/162/162
f 163/163/163 164/164/164 161/161/161
f 161/161/161 165/165/165 139/139/139
f 164/164/164 165/165/165 161/161/161
f 138/138/138 139/139/139 165/165/165
f 164/164/164 166/166/166 165/165/165
f 138/138/138 165/165/165 166/166/166
