mtllib SM_GroundTiles_Door_01@000001EE0F5ACF00.mtl
g SM_GroundTiles_Door_01@000001EE0F5ACF00
#Vertices 238
#Indices 726
#Section 0 Offset 0 NumIndices 726 MaterialIndex 0 MI_Ground_Tiles_01
v 1.163374 0.045892 0.000004 1.000000 1.000000 1.000000 1.000000
v 0.033946 0.000624 -0.000000 1.000000 1.000000 1.000000 1.000000
v 1.163373 0.000624 -0.000000 1.000000 1.000000 1.000000 1.000000
v 0.033935 0.045879 -0.000000 1.000000 1.000000 1.000000 1.000000
v 0.000002 0.045888 1.162497 1.000000 1.000000 1.000000 1.000000
v 0.000000 0.000624 0.033944 1.000000 1.000000 1.000000 1.000000
v 0.000000 0.045875 0.033937 1.000000 1.000000 1.000000 1.000000
v 0.000000 0.000625 1.162497 1.000000 1.000000 1.000000 1.000000
v 0.033946 0.000624 -0.000000 1.000000 1.000000 1.000000 1.000000
v 0.033935 0.045879 -0.000000 1.000000 1.000000 1.000000 1.000000
v 0.027620 0.045876 0.002629 1.000000 1.000000 1.000000 1.000000
v 0.027613 0.000624 0.002620 1.000000 1.000000 1.000000 1.000000
v 0.921308 0.045881 2.399997 1.000000 1.000000 1.000000 1.000000
v 0.033946 0.000625 2.400000 1.000000 1.000000 1.000000 1.000000
v 0.033935 0.045869 2.400000 1.000000 1.000000 1.000000 1.000000
v 0.921305 0.000625 2.400000 1.000000 1.000000 1.000000 1.000000
v 1.200000 0.045913 2.121306 0.000000 1.000000 1.000000 1.000000
v 1.200000 0.045920 1.237503 0.823529 1.000000 1.000000 1.000000
v 1.203548 0.050130 2.117758 0.000000 1.000000 1.000000 1.000000
v 1.203548 0.050129 1.237796 0.788235 1.000000 1.000000 1.000000
v 1.234362 0.050138 2.086943 0.000000 1.000000 1.000000 1.000000
v 1.234362 0.050138 1.235241 0.541176 1.000000 1.000000 1.000000
v 2.086064 0.050138 1.235241 0.878431 1.000000 1.000000 1.000000
v 1.205683 0.050044 1.231630 0.764706 1.000000 1.000000 1.000000
v 1.200000 0.045920 1.237503 0.823529 1.000000 1.000000 1.000000
v 1.202605 0.045918 1.231176 0.788235 1.000000 1.000000 1.000000
v 1.236916 0.050175 1.203646 0.607843 1.000000 1.000000 1.000000
v 2.117659 0.050144 1.203646 0.929412 1.000000 1.000000 1.000000
v 1.230757 0.050090 1.205778 0.635294 1.000000 1.000000 1.000000
v 1.230314 0.045915 1.202612 0.635294 1.000000 1.000000 1.000000
v 1.236627 0.045924 1.200000 0.623529 1.000000 1.000000 1.000000
v 1.236627 0.045924 1.200000 0.623529 1.000000 1.000000 1.000000
v 2.121305 0.045916 1.200000 0.929412 1.000000 1.000000 1.000000
v 0.000000 0.000625 1.162497 1.000000 1.000000 1.000000 1.000000
v 0.000002 0.045888 1.162497 1.000000 1.000000 1.000000 1.000000
v 0.002588 0.045888 1.168845 1.000000 1.000000 1.000000 1.000000
v 0.002473 0.000625 1.168967 1.000000 1.000000 1.000000 1.000000
v 0.027647 0.045901 1.197359 1.000000 1.000000 1.000000 1.000000
v 0.026526 0.000625 1.200000 1.000000 1.000000 1.000000 1.000000
v 0.033939 0.000621 1.200001 1.000000 1.000000 1.000000 1.000000
v 0.033936 0.045913 1.200001 1.000000 1.000000 1.000000 1.000000
v 1.200000 0.000626 1.237503 1.000000 1.000000 1.000000 1.000000
v 1.200000 0.045920 1.237503 1.000000 1.000000 1.000000 1.000000
v 1.197395 0.045914 1.231178 0.843137 1.000000 1.000000 1.000000
v 1.200000 0.000625 1.230090 0.819608 1.000000 1.000000 1.000000
v 1.169685 0.045923 1.202613 1.000000 1.000000 1.000000 1.000000
v 1.170789 0.000625 1.200000 1.000000 1.000000 1.000000 1.000000
v 1.163373 0.000628 1.200001 1.000000 1.000000 1.000000 1.000000
v 1.163373 0.045924 1.200001 1.000000 1.000000 1.000000 1.000000
v 1.199999 0.000626 1.162498 0.847059 1.000000 1.000000 1.000000
v 1.199999 0.045921 1.162498 0.862745 1.000000 1.000000 1.000000
v 1.202604 0.045914 1.168823 0.843137 1.000000 1.000000 1.000000
v 1.200000 0.000625 1.169910 0.898039 1.000000 1.000000 1.000000
v 1.230314 0.045923 1.197387 0.635294 1.000000 1.000000 1.000000
v 1.229210 0.000625 1.200000 0.635294 1.000000 1.000000 1.000000
v 1.236627 0.000628 1.200000 1.000000 1.000000 1.000000 1.000000
v 1.236627 0.045924 1.200000 1.000000 1.000000 1.000000 1.000000
v 2.397375 0.045874 0.027620 1.000000 1.000000 1.000000 1.000000
v 2.372387 0.000624 0.002619 1.000000 1.000000 1.000000 1.000000
v 2.397380 0.000624 0.027612 1.000000 1.000000 1.000000 1.000000
v 2.372381 0.045876 0.002628 1.000000 1.000000 1.000000 1.000000
v 2.366055 0.000624 -0.000001 1.000000 1.000000 1.000000 1.000000
v 2.366065 0.045879 -0.000001 1.000000 1.000000 1.000000 1.000000
v 1.236627 0.045892 0.000003 1.000000 1.000000 1.000000 1.000000
v 1.236627 0.000624 -0.000001 1.000000 1.000000 1.000000 1.000000
v 1.230285 0.045892 0.002597 1.000000 1.000000 1.000000 1.000000
v 1.230190 0.000624 0.002507 1.000000 1.000000 1.000000 1.000000
v 1.202639 0.045901 0.027639 0.388235 1.000000 1.000000 1.000000
v 1.200000 0.000624 0.026526 0.388235 1.000000 1.000000 1.000000
v 1.200000 0.000620 0.033939 0.388235 1.000000 1.000000 1.000000
v 1.200000 0.045912 0.033937 0.388235 1.000000 1.000000 1.000000
v 1.163373 0.000624 -0.000000 1.000000 1.000000 1.000000 1.000000
v 1.169717 0.045892 0.002598 1.000000 1.000000 1.000000 1.000000
v 1.163374 0.045892 0.000004 1.000000 1.000000 1.000000 1.000000
v 1.169810 0.000624 0.002508 1.000000 1.000000 1.000000 1.000000
v 1.197361 0.045897 0.027639 1.000000 1.000000 1.000000 1.000000
v 1.200000 0.000624 0.026526 0.388235 1.000000 1.000000 1.000000
v 1.200000 0.000620 0.033939 0.388235 1.000000 1.000000 1.000000
v 1.200000 0.045912 0.033937 1.000000 1.000000 1.000000 1.000000
v 1.199999 0.000626 1.162498 0.847059 1.000000 1.000000 1.000000
v 1.197394 0.045918 1.168826 1.000000 1.000000 1.000000 1.000000
v 1.199999 0.045921 1.162498 1.000000 1.000000 1.000000 1.000000
v 1.200000 0.000625 1.169910 0.898039 1.000000 1.000000 1.000000
v 1.169685 0.045916 1.197389 1.000000 1.000000 1.000000 1.000000
v 1.170789 0.000625 1.200000 1.000000 1.000000 1.000000 1.000000
v 1.163373 0.000628 1.200001 1.000000 1.000000 1.000000 1.000000
v 1.163373 0.045924 1.200001 1.000000 1.000000 1.000000 1.000000
v 1.200000 0.000626 1.237503 1.000000 1.000000 1.000000 1.000000
v 1.202605 0.045918 1.231176 0.788235 1.000000 1.000000 1.000000
v 1.200000 0.045920 1.237503 0.823529 1.000000 1.000000 1.000000
v 1.200000 0.000625 1.230090 0.819608 1.000000 1.000000 1.000000
v 1.230314 0.045915 1.202612 0.635294 1.000000 1.000000 1.000000
v 1.229210 0.000625 1.200000 0.635294 1.000000 1.000000 1.000000
v 1.236627 0.000628 1.200000 1.000000 1.000000 1.000000 1.000000
v 1.236627 0.045924 1.200000 0.623529 1.000000 1.000000 1.000000
v 0.002626 0.045873 0.027621 1.000000 1.000000 1.000000 1.000000
v 0.027613 0.000624 0.002620 1.000000 1.000000 1.000000 1.000000
v 0.027620 0.045876 0.002629 1.000000 1.000000 1.000000 1.000000
v 0.002620 0.000624 0.027613 1.000000 1.000000 1.000000 1.000000
v 0.000000 0.000624 0.033944 1.000000 1.000000 1.000000 1.000000
v 0.000000 0.045875 0.033937 1.000000 1.000000 1.000000 1.000000
v 2.399998 0.045886 0.921307 1.000000 1.000000 1.000000 1.000000
v 2.400000 0.000624 0.033943 1.000000 1.000000 1.000000 1.000000
v 2.400000 0.000625 0.921305 1.000000 1.000000 1.000000 1.000000
v 2.400001 0.045876 0.033936 1.000000 1.000000 1.000000 1.000000
v 2.397375 0.045874 0.027620 1.000000 1.000000 1.000000 1.000000
v 2.397380 0.000624 0.027612 1.000000 1.000000 1.000000 1.000000
v 0.033939 0.000621 1.200001 1.000000 1.000000 1.000000 1.000000
v 0.033936 0.045913 1.200001 1.000000 1.000000 1.000000 1.000000
v 0.027647 0.045894 1.202643 1.000000 1.000000 1.000000 1.000000
v 0.026526 0.000625 1.200000 1.000000 1.000000 1.000000 1.000000
v 0.002473 0.000625 1.231034 1.000000 1.000000 1.000000 1.000000
v 0.002589 0.045887 1.231155 1.000000 1.000000 1.000000 1.000000
v 0.000000 0.000625 1.237504 1.000000 1.000000 1.000000 1.000000
v 0.000003 0.045888 1.237502 1.000000 1.000000 1.000000 1.000000
v 0.000000 0.000625 2.366053 1.000000 1.000000 1.000000 1.000000
v -0.000001 0.045872 2.366066 1.000000 1.000000 1.000000 1.000000
v 0.002629 0.045871 2.372380 1.000000 1.000000 1.000000 1.000000
v 0.002620 0.000625 2.372387 1.000000 1.000000 1.000000 1.000000
v 0.027621 0.045868 2.397373 1.000000 1.000000 1.000000 1.000000
v 0.027613 0.000625 2.397380 1.000000 1.000000 1.000000 1.000000
v 0.033946 0.000625 2.400000 1.000000 1.000000 1.000000 1.000000
v 0.033935 0.045869 2.400000 1.000000 1.000000 1.000000 1.000000
v 1.200000 0.045920 1.237503 0.823529 1.000000 1.000000 1.000000
v 1.200000 0.045913 2.121306 0.000000 1.000000 1.000000 1.000000
v 1.196452 0.050090 1.237796 0.854902 1.000000 1.000000 1.000000
v 1.196452 0.050090 2.124853 0.000000 1.000000 1.000000 1.000000
v 1.165637 0.050138 1.235241 0.952941 1.000000 1.000000 1.000000
v 1.165637 0.050139 2.155668 0.000000 1.000000 1.000000 1.000000
v 1.194317 0.050061 1.231630 0.870588 1.000000 1.000000 1.000000
v 1.200000 0.045920 1.237503 0.823529 1.000000 1.000000 1.000000
v 1.197395 0.045914 1.231178 0.843137 1.000000 1.000000 1.000000
v 1.169243 0.050090 1.205777 1.000000 1.000000 1.000000 1.000000
v 1.169685 0.045923 1.202613 1.000000 1.000000 1.000000 1.000000
v 1.163373 0.045924 1.200001 1.000000 1.000000 1.000000 1.000000
v 1.163083 0.050175 1.203646 1.000000 1.000000 1.000000 1.000000
v 0.034257 0.050169 1.203646 1.000000 1.000000 1.000000 1.000000
v 1.163373 0.045924 1.200001 1.000000 1.000000 1.000000 1.000000
v 0.033936 0.045913 1.200001 1.000000 1.000000 1.000000 1.000000
v 0.031703 0.050138 1.235241 1.000000 1.000000 1.000000 1.000000
v 0.953012 0.050139 2.368293 0.000000 1.000000 1.000000 1.000000
v 0.028116 0.050096 1.205797 1.000000 1.000000 1.000000 1.000000
v 0.033936 0.045913 1.200001 1.000000 1.000000 1.000000 1.000000
v 0.027647 0.045894 1.202643 1.000000 1.000000 1.000000 1.000000
v 0.002589 0.045887 1.231155 1.000000 1.000000 1.000000 1.000000
v 0.005438 0.050131 1.231628 1.000000 1.000000 1.000000 1.000000
v 0.000003 0.045888 1.237502 1.000000 1.000000 1.000000 1.000000
v 0.003274 0.050138 1.237798 1.000000 1.000000 1.000000 1.000000
v 0.031703 0.050139 2.368293 0.000000 1.000000 1.000000 1.000000
v 0.924582 0.050180 2.396723 0.000000 1.000000 1.000000 1.000000
v 0.003274 0.050138 2.365737 0.062745 1.000000 1.000000 1.000000
v -0.000001 0.045872 2.366066 1.000000 1.000000 1.000000 1.000000
v 0.005464 0.050146 2.371882 0.062745 1.000000 1.000000 1.000000
v 0.002629 0.045871 2.372380 1.000000 1.000000 1.000000 1.000000
v 0.027621 0.045868 2.397373 1.000000 1.000000 1.000000 1.000000
v 0.028115 0.050113 2.394532 0.000000 1.000000 1.000000 1.000000
v 0.033935 0.045869 2.400000 1.000000 1.000000 1.000000 1.000000
v 0.034260 0.050176 2.396723 0.000000 1.000000 1.000000 1.000000
v 0.921308 0.045881 2.399997 1.000000 1.000000 1.000000 1.000000
v 1.203548 0.050129 0.034255 0.388235 1.000000 1.000000 1.000000
v 1.199999 0.045921 1.162498 0.862745 1.000000 1.000000 1.000000
v 1.200000 0.045912 0.033937 0.388235 1.000000 1.000000 1.000000
v 1.203547 0.050130 1.162205 0.823529 1.000000 1.000000 1.000000
v 1.234363 0.050138 0.031701 0.388235 1.000000 1.000000 1.000000
v 1.205708 0.050059 0.028114 0.388235 1.000000 1.000000 1.000000
v 1.200000 0.045912 0.033937 0.388235 1.000000 1.000000 1.000000
v 1.202639 0.045901 0.027639 0.388235 1.000000 1.000000 1.000000
v 1.230285 0.045892 0.002597 1.000000 1.000000 1.000000 1.000000
v 1.230756 0.050107 0.005442 0.388235 1.000000 1.000000 1.000000
v 1.236627 0.045892 0.000003 1.000000 1.000000 1.000000 1.000000
v 1.236919 0.050181 0.003272 0.388235 1.000000 1.000000 1.000000
v 2.365742 0.050142 0.003272 0.000000 1.000000 1.000000 1.000000
v 2.366065 0.045879 -0.000001 1.000000 1.000000 1.000000 1.000000
v 2.371886 0.050147 0.005462 0.000000 1.000000 1.000000 1.000000
v 2.372381 0.045876 0.002628 1.000000 1.000000 1.000000 1.000000
v 2.368298 0.050138 0.031701 0.000000 1.000000 1.000000 1.000000
v 2.394537 0.050155 0.028112 0.000000 1.000000 1.000000 1.000000
v 2.397375 0.045874 0.027620 1.000000 1.000000 1.000000 1.000000
v 2.400001 0.045876 0.033936 1.000000 1.000000 1.000000 1.000000
v 2.396727 0.050155 0.034257 0.000000 1.000000 1.000000 1.000000
v 2.399998 0.045886 0.921307 1.000000 1.000000 1.000000 1.000000
v 2.396727 0.050155 0.924578 0.000000 1.000000 1.000000 1.000000
v 2.368298 0.050138 0.953008 0.000000 1.000000 1.000000 1.000000
v 2.156546 0.050139 1.164759 0.894118 1.000000 1.000000 1.000000
v 1.234362 0.050139 1.164759 0.580392 1.000000 1.000000 1.000000
v 2.124952 0.050144 1.196354 0.929412 1.000000 1.000000 1.000000
v 1.205682 0.050044 1.168371 0.807843 1.000000 1.000000 1.000000
v 1.199999 0.045921 1.162498 0.862745 1.000000 1.000000 1.000000
v 1.202604 0.045914 1.168823 0.843137 1.000000 1.000000 1.000000
v 1.236916 0.050175 1.196354 0.607843 1.000000 1.000000 1.000000
v 2.121305 0.045916 1.200000 0.929412 1.000000 1.000000 1.000000
v 1.236627 0.045924 1.200000 0.623529 1.000000 1.000000 1.000000
v 1.230757 0.050090 1.194223 0.635294 1.000000 1.000000 1.000000
v 1.236627 0.045924 1.200000 0.623529 1.000000 1.000000 1.000000
v 1.230314 0.045923 1.197387 0.635294 1.000000 1.000000 1.000000
v 0.033935 0.045879 -0.000000 1.000000 1.000000 1.000000 1.000000
v 1.163374 0.045892 0.000004 1.000000 1.000000 1.000000 1.000000
v 0.034260 0.050176 0.003273 1.000000 1.000000 1.000000 1.000000
v 1.163082 0.050181 0.003273 0.388235 1.000000 1.000000 1.000000
v 1.165638 0.050138 0.031702 0.388235 1.000000 1.000000 1.000000
v 1.169245 0.050107 0.005444 0.388235 1.000000 1.000000 1.000000
v 1.163374 0.045892 0.000004 1.000000 1.000000 1.000000 1.000000
v 1.169717 0.045892 0.002598 1.000000 1.000000 1.000000 1.000000
v 1.194292 0.050076 0.028115 0.388235 1.000000 1.000000 1.000000
v 1.197361 0.045897 0.027639 1.000000 1.000000 1.000000 1.000000
v 1.200000 0.045912 0.033937 0.388235 1.000000 1.000000 1.000000
v 1.196452 0.050090 0.034257 0.388235 1.000000 1.000000 1.000000
v 1.200000 0.045912 0.033937 0.388235 1.000000 1.000000 1.000000
v 1.199999 0.045921 1.162498 0.862745 1.000000 1.000000 1.000000
v 1.196452 0.050091 1.162206 0.917647 1.000000 1.000000 1.000000
v 1.165637 0.050139 1.164760 1.000000 1.000000 1.000000 1.000000
v 0.031703 0.050138 0.031702 1.000000 1.000000 1.000000 1.000000
v 0.028115 0.050113 0.005463 1.000000 1.000000 1.000000 1.000000
v 0.033935 0.045879 -0.000000 1.000000 1.000000 1.000000 1.000000
v 0.027620 0.045876 0.002629 1.000000 1.000000 1.000000 1.000000
v 0.005464 0.050146 0.028113 1.000000 1.000000 1.000000 1.000000
v 0.002626 0.045873 0.027621 1.000000 1.000000 1.000000 1.000000
v 0.000000 0.045875 0.033937 1.000000 1.000000 1.000000 1.000000
v 0.003274 0.050138 0.034258 1.000000 1.000000 1.000000 1.000000
v 0.000002 0.045888 1.162497 1.000000 1.000000 1.000000 1.000000
v 0.000000 0.045875 0.033937 1.000000 1.000000 1.000000 1.000000
v 0.003274 0.050139 1.162204 1.000000 1.000000 1.000000 1.000000
v 0.031703 0.050139 1.164760 1.000000 1.000000 1.000000 1.000000
v 0.005438 0.050131 1.168373 1.000000 1.000000 1.000000 1.000000
v 0.002588 0.045888 1.168845 1.000000 1.000000 1.000000 1.000000
v 0.028116 0.050096 1.194205 1.000000 1.000000 1.000000 1.000000
v 0.027647 0.045901 1.197359 1.000000 1.000000 1.000000 1.000000
v 0.033936 0.045913 1.200001 1.000000 1.000000 1.000000 1.000000
v 0.034257 0.050169 1.196355 1.000000 1.000000 1.000000 1.000000
v 1.163373 0.045924 1.200001 1.000000 1.000000 1.000000 1.000000
v 0.033936 0.045913 1.200001 1.000000 1.000000 1.000000 1.000000
v 1.163083 0.050175 1.196355 1.000000 1.000000 1.000000 1.000000
v 1.169243 0.050090 1.194224 1.000000 1.000000 1.000000 1.000000
v 1.163373 0.045924 1.200001 1.000000 1.000000 1.000000 1.000000
v 1.169685 0.045916 1.197389 1.000000 1.000000 1.000000 1.000000
v 1.197394 0.045918 1.168826 1.000000 1.000000 1.000000 1.000000
v 1.194317 0.050061 1.168372 0.925490 1.000000 1.000000 1.000000
v 1.199999 0.045921 1.162498 0.862745 1.000000 1.000000 1.000000
vt 0.660156 0.647705
vt 1.270508 0.672119
vt 0.660156 0.672119
vt 1.270508 0.647705
vt 1.288086 0.019043
vt 1.314453 0.628174
vt 1.290039 0.628662
vt 1.311523 0.016602
vt 1.288086 0.665527
vt 1.271484 0.647949
vt 1.274414 0.645752
vt 1.290039 0.662842
vt 0.150146 0.639893
vt 0.637207 0.616699
vt 0.631836 0.639648
vt 0.150269 0.615967
vt 0.648438 0.146484
vt 0.648438 0.626465
vt 0.645508 0.148438
vt 0.645508 0.626709
vt 0.628906 0.166504
vt 0.628418 0.628174
vt 0.166992 0.628174
vt 0.644043 0.629883
vt 0.647949 0.627686
vt 0.646484 0.631104
vt 0.626953 0.645020
vt 0.148315 0.645264
vt 0.629883 0.643555
vt 0.630371 0.645752
vt 0.627441 0.647949
vt 0.626953 0.647949
vt 0.146362 0.648193
vt 1.311523 0.016602
vt 1.288086 0.019043
vt 1.287109 0.016602
vt 1.310547 0.010742
vt 1.278320 -0.000977
vt 1.301758 -0.009766
vt 1.299805 -0.013672
vt 1.277344 -0.004883
vt -0.023758 1.285156
vt -0.005070 1.269043
vt -0.002701 1.271973
vt -0.021118 1.288086
vt 0.012283 1.287842
vt -0.005478 1.304688
vt -0.002644 1.307617
vt 0.014832 1.290283
vt 1.305664 0.644287
vt 1.287109 0.660645
vt 1.285156 0.657959
vt 1.302734 0.641357
vt 1.269531 0.642334
vt 1.287109 0.625000
vt 1.284180 0.622314
vt 1.267578 0.640137
vt 0.641113 1.273682
vt 0.640625 1.305664
vt 0.621582 1.287109
vt 0.653809 1.286133
vt 0.650391 1.310059
vt 0.655762 1.287354
vt 1.264648 1.287354
vt 1.265625 1.311279
vt 1.267578 1.286377
vt 1.272461 1.309570
vt 1.285156 1.277588
vt 1.293945 1.301025
vt 1.297852 1.299072
vt 1.288086 1.276367
vt 0.642578 0.666260
vt 0.655762 0.645752
vt 0.658691 0.647949
vt 0.640137 0.663818
vt 0.641113 0.632568
vt 0.624512 0.649902
vt 0.622070 0.647217
vt 0.639160 0.628906
vt 0.620605 0.000000
vt 0.641113 0.013672
vt 0.638672 0.016602
vt 0.623047 -0.002930
vt 0.656250 -0.001953
vt 0.639160 -0.018555
vt 0.642090 -0.021484
vt 0.658691 -0.003906
vt 0.666016 0.646240
vt 0.646484 0.631104
vt 0.648926 0.628418
vt 0.663086 0.648926
vt 0.630371 0.645752
vt 0.646484 0.664307
vt 0.643066 0.666992
vt 0.627441 0.647949
vt 1.287109 0.632812
vt 1.290039 0.662842
vt 1.274414 0.645752
vt 1.303711 0.649902
vt 1.306641 0.647461
vt 1.290039 0.630127
vt 0.640137 0.793457
vt 0.617188 1.277100
vt 0.616211 0.793457
vt 0.640137 1.271973
vt 0.641113 1.273682
vt 0.621582 1.287109
vt 0.661133 1.299316
vt 0.638184 1.291260
vt 0.638672 1.287842
vt 0.663086 1.295898
vt 0.670898 1.274414
vt 0.647461 1.269531
vt 0.672363 1.267822
vt 0.648438 1.266846
vt 0.670898 0.649170
vt 0.648438 0.654541
vt 0.646973 0.653076
vt 0.666504 0.639404
vt 0.634277 0.640869
vt 0.646973 0.621094
vt 0.637207 0.616699
vt 0.631836 0.639648
vt -0.004337 1.268555
vt -0.004604 0.787964
vt -0.001340 1.268311
vt -0.001600 0.786011
vt 0.015450 1.270264
vt 0.015289 0.770996
vt -0.000110 1.271484
vt -0.004215 1.268555
vt -0.002701 1.271973
vt 0.013466 1.285645
vt 0.012283 1.287842
vt 0.015556 1.289795
vt 0.017090 1.287109
vt 0.631836 1.287354
vt 0.017471 1.290039
vt 0.631836 1.290283
vt 0.631348 1.270508
vt 0.130737 0.655762
vt 0.636230 1.285645
vt 0.634766 1.290283
vt 0.638672 1.287842
vt 0.647461 1.269531
vt 0.645508 1.270020
vt 0.648438 1.266846
vt 0.645996 1.267578
vt 0.631348 0.655518
vt 0.147583 0.641602
vt 0.646484 0.655762
vt 0.648438 0.654541
vt 0.645020 0.653809
vt 0.646973 0.653076
vt 0.634277 0.640869
vt 0.633301 0.642334
vt 0.631836 0.639648
vt 0.630859 0.641357
vt 0.150146 0.639893
vt 1.284180 1.271484
vt 1.287109 0.661865
vt 1.287109 1.271484
vt 1.284180 0.661865
vt 1.267578 1.271240
vt 1.283203 1.275146
vt 1.287109 1.273682
vt 1.285156 1.277588
vt 1.267578 1.286377
vt 1.267578 1.284668
vt 1.264648 1.287354
vt 1.264648 1.285400
vt 0.656738 1.285645
vt 0.655762 1.287354
vt 0.654297 1.284424
vt 0.653809 1.286133
vt 0.656250 1.271240
vt 0.643066 1.272949
vt 0.641113 1.273682
vt 0.640137 1.271973
vt 0.641602 1.270752
vt 0.640137 0.793457
vt 0.642090 0.790894
vt 0.656250 0.774292
vt 0.770508 0.660156
vt 1.267578 0.660400
vt 0.786133 0.643066
vt 1.282227 0.658691
vt 1.287109 0.661133
vt 1.285156 0.657959
vt 1.265625 0.643311
vt 0.788086 0.640137
vt 1.265625 0.640381
vt 1.269531 0.644775
vt 1.266602 0.640625
vt 1.269531 0.642334
vt 1.270508 0.647705
vt 0.660156 0.647705
vt 1.270508 0.644775
vt 0.660156 0.644775
vt 0.658691 0.629395
vt 0.656738 0.643311
vt 0.658691 0.647949
vt 0.655762 0.645752
vt 0.643555 0.631348
vt 0.641113 0.632568
vt 0.639160 0.628906
vt 0.642090 0.628174
vt 0.639160 0.628906
vt 0.639160 0.018066
vt 0.642090 0.018066
vt 0.659180 0.016602
vt 1.271484 0.629639
vt 1.273438 0.643555
vt 1.271484 0.647949
vt 1.274414 0.645752
vt 1.285156 0.631836
vt 1.287109 0.632812
vt 1.290039 0.630127
vt 1.287109 0.628662
vt 1.288086 0.019043
vt 1.290039 0.628662
vt 1.286133 0.019043
vt 1.271484 0.016602
vt 1.285156 0.016602
vt 1.287109 0.016602
vt 1.275391 0.000977
vt 1.278320 -0.000977
vt 1.274414 -0.003906
vt 1.271484 0.000000
vt 0.661133 -0.002930
vt 1.271484 -0.003906
vt 0.660645 0.000000
vt 0.657227 0.000977
vt 0.659668 -0.002930
vt 0.656250 -0.001953
vt 0.641113 0.013672
vt 0.643555 0.014648
vt 0.639160 0.017090
vt1 0.519043 0.108887
vt1 0.852539 0.120117
vt1 0.518066 0.120605
vt1 0.850098 0.108398
vt1 0.600098 0.076172
vt1 0.932617 0.064941
vt1 0.930176 0.076172
vt1 0.599121 0.064453
vt1 0.852539 0.120117
vt1 0.850098 0.108398
vt1 0.851562 0.107910
vt1 0.857910 0.117676
vt1 0.924316 0.832520
vt1 0.912598 0.570068
vt1 0.924316 0.572510
vt1 0.912109 0.833252
vt1 0.101562 0.661865
vt1 0.321289 0.661865
vt1 0.102417 0.663330
vt1 0.321289 0.663330
vt1 0.110168 0.671143
vt1 0.322021 0.671143
vt1 0.322021 0.882812
vt1 0.322754 0.663818
vt1 0.321777 0.662109
vt1 0.323242 0.662842
vt1 0.329834 0.671631
vt1 0.329834 0.890747
vt1 0.329102 0.670166
vt1 0.330322 0.669678
vt1 0.331055 0.671387
vt1 0.331299 0.671631
vt1 0.331299 0.891663
vt1 0.846680 0.333496
vt1 0.857910 0.338379
vt1 0.857910 0.339844
vt1 0.845703 0.337402
vt1 0.858398 0.351074
vt1 0.845703 0.350586
vt1 0.846191 0.353027
vt1 0.859375 0.353516
vt1 0.718750 0.177734
vt1 0.719238 0.164551
vt1 0.721680 0.165039
vt1 0.721191 0.177734
vt1 0.733887 0.165039
vt1 0.733887 0.177734
vt1 0.736328 0.177734
vt1 0.735840 0.164551
vt1 0.796875 0.177734
vt1 0.796875 0.164551
vt1 0.799316 0.165039
vt1 0.798828 0.178223
vt1 0.811523 0.165039
vt1 0.812012 0.177734
vt1 0.814453 0.177734
vt1 0.813477 0.164551
vt1 0.397217 0.188477
vt1 0.396973 0.171875
vt1 0.407227 0.181641
vt1 0.390381 0.181641
vt1 0.391602 0.169434
vt1 0.389160 0.181152
vt1 0.058289 0.180664
vt1 0.057129 0.168945
vt1 0.056854 0.181641
vt1 0.052948 0.170410
vt1 0.047760 0.187500
vt1 0.041870 0.176270
vt1 0.039978 0.177734
vt1 0.046356 0.188965
vt1 0.518066 0.120605
vt1 0.517578 0.107910
vt1 0.519043 0.108887
vt1 0.513672 0.119629
vt1 0.508301 0.102539
vt1 0.502441 0.113770
vt1 0.500977 0.112305
vt1 0.506836 0.100586
vt1 0.875977 0.214355
vt1 0.873535 0.201660
vt1 0.875977 0.201172
vt1 0.874023 0.214355
vt1 0.861328 0.201660
vt1 0.860840 0.214355
vt1 0.858398 0.214355
vt1 0.858887 0.201172
vt1 0.641113 0.165039
vt1 0.643066 0.177734
vt1 0.640625 0.178223
vt1 0.643066 0.164551
vt1 0.655273 0.177246
vt1 0.656250 0.164551
vt1 0.658691 0.164551
vt1 0.657227 0.177734
vt1 0.931152 0.077148
vt1 0.947754 0.077148
vt1 0.937988 0.083984
vt1 0.937988 0.067383
vt1 0.932617 0.064941
vt1 0.930176 0.076172
vt1 0.935547 0.213379
vt1 0.924316 0.476074
vt1 0.923828 0.212891
vt1 0.935547 0.473633
vt1 0.936523 0.475098
vt1 0.926758 0.481445
vt1 0.409424 0.066406
vt1 0.402344 0.076660
vt1 0.401123 0.075195
vt1 0.407471 0.064453
vt1 0.396484 0.057617
vt1 0.392090 0.068848
vt1 0.391846 0.056152
vt1 0.390625 0.068359
vt1 0.057953 0.056641
vt1 0.060394 0.068359
vt1 0.059082 0.068848
vt1 0.052460 0.059082
vt1 0.052124 0.076172
vt1 0.042328 0.069336
vt1 0.039978 0.074707
vt1 0.051483 0.077148
vt1 0.721680 0.303223
vt1 0.721680 0.522705
vt1 0.720215 0.303223
vt1 0.720215 0.523682
vt1 0.712402 0.302246
vt1 0.712402 0.531250
vt1 0.719727 0.301758
vt1 0.721680 0.302734
vt1 0.720703 0.301270
vt1 0.713379 0.294922
vt1 0.713867 0.293945
vt1 0.712402 0.292969
vt1 0.711914 0.294434
vt1 0.431152 0.294434
vt1 0.711914 0.292969
vt1 0.431152 0.292969
vt1 0.430664 0.302246
vt1 0.659668 0.584229
vt1 0.429688 0.294922
vt1 0.430664 0.292969
vt1 0.429199 0.293945
vt1 0.422852 0.301270
vt1 0.424072 0.301758
vt1 0.422363 0.303223
vt1 0.423584 0.303223
vt1 0.430664 0.584229
vt1 0.652344 0.591064
vt1 0.423584 0.583496
vt1 0.422363 0.583740
vt1 0.424072 0.584961
vt1 0.423096 0.585449
vt1 0.429443 0.591797
vt1 0.429688 0.590576
vt1 0.431152 0.592529
vt1 0.431152 0.591064
vt1 0.651855 0.592529
vt1 0.349121 0.574219
vt1 0.350342 0.293457
vt1 0.350342 0.574219
vt1 0.349121 0.293945
vt1 0.341309 0.574707
vt1 0.348389 0.575684
vt1 0.350342 0.574707
vt1 0.349609 0.576416
vt1 0.342529 0.582520
vt1 0.342041 0.581299
vt1 0.340820 0.583008
vt1 0.340576 0.581787
vt1 0.060028 0.581787
vt1 0.059814 0.583008
vt1 0.058563 0.581299
vt1 0.058105 0.582275
vt1 0.059448 0.574707
vt1 0.052948 0.575684
vt1 0.051788 0.576172
vt1 0.051086 0.574219
vt1 0.052399 0.574219
vt1 0.051086 0.353516
vt1 0.052399 0.353027
vt1 0.059448 0.345703
vt1 0.112061 0.292969
vt1 0.341309 0.292969
vt1 0.119812 0.285156
vt1 0.348389 0.291992
vt1 0.350342 0.293457
vt1 0.349609 0.291504
vt1 0.340576 0.285156
vt1 0.120728 0.283691
vt1 0.340576 0.283691
vt1 0.342285 0.285645
vt1 0.341064 0.283691
vt1 0.342773 0.284668
vt1 0.739258 0.658936
vt1 0.739258 0.945404
vt1 0.737793 0.659180
vt1 0.737793 0.945251
vt1 0.730469 0.947510
vt1 0.737305 0.946747
vt1 0.739258 0.945404
vt1 0.738281 0.947144
vt1 0.731445 0.953278
vt1 0.732422 0.954437
vt1 0.730469 0.955292
vt1 0.729980 0.953918
vt1 0.729980 0.955292
vt1 0.443848 0.955292
vt1 0.443848 0.953888
vt1 0.443359 0.947479
vt1 0.730469 0.659912
vt1 0.737305 0.657471
vt1 0.739258 0.658936
vt1 0.738281 0.656982
vt1 0.731445 0.651855
vt1 0.731934 0.650635
vt1 0.729980 0.649902
vt1 0.729980 0.651367
vt1 0.443848 0.649902
vt1 0.729980 0.649902
vt1 0.444092 0.651367
vt1 0.443115 0.659912
vt1 0.442383 0.651855
vt1 0.442139 0.650635
vt1 0.435791 0.657471
vt1 0.434570 0.656738
vt1 0.433838 0.658447
vt1 0.435059 0.658936
vt1 0.433838 0.945343
vt1 0.433838 0.658936
vt1 0.435059 0.945343
vt1 0.435791 0.946899
vt1 0.433838 0.945770
vt1 0.434570 0.947388
vt1 0.441895 0.954468
vt1 0.442383 0.953278
vt1 0.443604 0.955261
vn 0.000000 0.062992 -1.000000
vn 0.000000 -0.000000 -1.000000
vn 0.000000 -0.000000 -1.000000
vn 0.000000 0.062992 -1.000000
vn -1.000000 0.062992 -0.000000
vn -1.000000 0.000000 0.000000
vn -1.000000 0.062992 -0.000000
vn -1.000000 0.000000 0.000000
vn 0.000000 -0.000000 -1.000000
vn 0.000000 0.062992 -1.000000
vn -0.661417 0.039370 -0.748031
vn -0.661417 -0.000000 -0.748031
vn 0.000000 0.370079 0.929134
vn 0.000000 0.000000 1.000000
vn 0.000000 0.062992 1.000000
vn 0.000000 0.000000 1.000000
vn -0.763780 0.645669 -0.000000
vn -1.000000 0.070866 -0.000000
vn -0.606299 0.795275 -0.000000
vn -0.118110 0.992126 -0.000000
vn 0.000000 1.000000 -0.000000
vn 0.000000 1.000000 -0.000000
vn 0.000000 1.000000 -0.000000
vn -0.196850 0.968504 -0.173228
vn -0.716535 0.629921 -0.299213
vn -0.748031 0.102362 -0.653543
vn 0.000000 0.992126 -0.118110
vn 0.000000 0.803149 -0.598425
vn -0.173228 0.968504 -0.181102
vn -0.669291 0.086614 -0.740157
vn -0.299213 0.629921 -0.716535
vn 0.000000 0.070866 -1.000000
vn 0.000000 0.653543 -0.755905
vn -1.000000 0.000000 0.000000
vn -1.000000 0.062992 -0.000000
vn -0.787402 0.047244 0.622047
vn -0.803150 0.031496 0.598425
vn -0.716535 0.070866 0.692913
vn -1.000000 0.078740 -0.000000
vn -0.535433 0.834646 0.118110
vn -0.346457 0.055118 0.937008
vn -0.110236 0.834646 -0.535433
vn 0.921260 -0.000000 -0.377953
vn 0.755906 0.086614 -0.645669
vn 0.000000 0.086614 -0.992126
vn 0.669291 0.094488 -0.732283
vn 1.000000 0.086614 -0.000000
vn 0.535433 0.834646 -0.110236
vn 0.338583 0.055118 -0.937008
vn 0.110236 0.834646 0.535433
vn -0.921260 0.000000 0.377953
vn -0.755906 0.086614 0.645669
vn 0.000000 0.086614 0.992126
vn -0.669291 0.094488 0.732283
vn -1.000000 0.086614 -0.000000
vn -0.535433 0.834646 0.110236
vn -0.338583 0.055118 0.937008
vn 0.748031 0.039370 -0.661417
vn 0.661417 -0.000000 -0.748031
vn 0.748031 -0.000000 -0.661417
vn 0.661417 0.039370 -0.748031
vn 0.000000 -0.000000 -1.000000
vn 0.000000 0.062992 -1.000000
vn 0.000000 0.062992 -1.000000
vn 0.000000 -0.000000 -1.000000
vn -0.629921 0.047244 -0.779527
vn -0.606299 0.031496 -0.795275
vn -0.700787 0.070866 -0.708661
vn 0.000000 0.078740 -1.000000
vn -0.110236 0.834646 -0.535433
vn -0.937008 0.055118 -0.346457
vn 0.000000 -0.000000 -1.000000
vn 0.629921 0.047244 -0.779527
vn 0.000000 0.062992 -1.000000
vn 0.606299 0.031496 -0.795275
vn 0.708661 0.062992 -0.708661
vn 0.000000 0.078740 -1.000000
vn -0.110236 0.834646 -0.535433
vn 0.921260 -0.000000 -0.385827
vn 0.110236 0.834646 0.535433
vn 0.748031 0.102362 0.653543
vn 0.937008 0.055118 0.338583
vn 0.000000 0.086614 0.992126
vn 0.669291 0.086614 0.740157
vn 1.000000 0.086614 -0.000000
vn 0.535433 0.834646 -0.110236
vn 0.385827 0.000000 0.921260
vn -0.110236 0.834646 -0.535433
vn -0.748031 0.102362 -0.653543
vn -0.937008 0.055118 -0.338583
vn 0.000000 0.086614 -0.992126
vn -0.669291 0.086614 -0.740157
vn -1.000000 0.086614 -0.000000
vn -0.535433 0.834646 0.110236
vn -0.385827 -0.000000 -0.921260
vn -0.748031 0.039370 -0.661417
vn -0.661417 -0.000000 -0.748031
vn -0.661417 0.039370 -0.748031
vn -0.748031 -0.000000 -0.661417
vn -1.000000 0.000000 0.000000
vn -1.000000 0.062992 -0.000000
vn 0.929134 0.370079 -0.000000
vn 1.000000 0.000000 0.000000
vn 1.000000 0.000000 0.000000
vn 1.000000 0.062992 -0.000000
vn 0.748031 0.039370 -0.661417
vn 0.748031 -0.000000 -0.661417
vn -0.535433 0.834646 0.118110
vn -0.385827 -0.000000 -0.921260
vn -0.716535 0.062992 -0.692913
vn -1.000000 0.078740 -0.000000
vn -0.803150 0.031496 -0.598425
vn -0.787402 0.047244 -0.622047
vn -1.000000 0.000000 0.000000
vn -1.000000 0.062992 -0.000000
vn -1.000000 0.000000 0.000000
vn -1.000000 0.062992 -0.000000
vn -0.748031 0.039370 0.661417
vn -0.748031 0.000000 0.661417
vn -0.661417 0.039370 0.748031
vn -0.661417 0.000000 0.748031
vn 0.000000 0.000000 1.000000
vn 0.000000 0.062992 1.000000
vn 1.000000 0.070866 -0.000000
vn 0.763780 0.645669 -0.000000
vn 0.118110 0.992126 -0.000000
vn 0.244094 0.968504 -0.000000
vn 0.000000 1.000000 -0.000000
vn 0.000000 1.000000 -0.000000
vn 0.181102 0.968504 -0.157480
vn 0.716535 0.629921 -0.299213
vn 0.755906 0.086614 -0.645669
vn 0.188976 0.960630 -0.196850
vn 0.669291 0.094488 -0.732283
vn 0.299213 0.629921 -0.716535
vn 0.000000 0.992126 -0.118110
vn 0.000000 0.992126 -0.118110
vn 0.000000 0.070866 -1.000000
vn 0.000000 0.070866 -1.000000
vn 0.000000 1.000000 -0.000000
vn 0.000000 1.000000 -0.000000
vn -0.204724 0.960630 -0.196850
vn -0.299213 0.629921 -0.716535
vn -0.716535 0.062992 -0.692913
vn -0.787402 0.047244 -0.622047
vn -0.188976 0.968504 -0.149606
vn -1.000000 0.062992 -0.000000
vn -0.133858 0.992126 -0.000000
vn 0.000000 1.000000 -0.000000
vn 0.000000 0.968504 0.259842
vn -0.133858 0.992126 -0.000000
vn -1.000000 0.062992 -0.000000
vn -0.196850 0.968504 0.173228
vn -0.748031 0.039370 0.661417
vn -0.661417 0.039370 0.748031
vn -0.188976 0.960630 0.204724
vn 0.000000 0.062992 1.000000
vn 0.000000 0.992126 0.133858
vn 0.000000 0.370079 0.929134
vn -0.118110 0.992126 -0.000000
vn -1.000000 0.070866 -0.000000
vn -1.000000 0.070866 -0.000000
vn -0.118110 0.992126 -0.000000
vn 0.000000 1.000000 -0.000000
vn -0.196850 0.960630 -0.196850
vn -0.716535 0.629921 -0.299213
vn -0.700787 0.070866 -0.708661
vn -0.629921 0.047244 -0.779527
vn -0.157480 0.968504 -0.188976
vn 0.000000 0.062992 -1.000000
vn 0.000000 0.992126 -0.133858
vn 0.000000 0.992126 -0.133858
vn 0.000000 0.062992 -1.000000
vn 0.188976 0.960630 -0.204724
vn 0.661417 0.039370 -0.748031
vn 0.000000 1.000000 -0.000000
vn 0.196850 0.968504 -0.173228
vn 0.748031 0.039370 -0.661417
vn 1.000000 0.062992 -0.000000
vn 0.133858 0.992126 -0.000000
vn 0.929134 0.370079 -0.000000
vn 0.259843 0.968504 -0.000000
vn 0.000000 1.000000 -0.000000
vn 0.000000 1.000000 -0.000000
vn 0.000000 1.000000 -0.000000
vn 0.000000 0.968504 0.244094
vn -0.181102 0.968504 0.165354
vn -0.716535 0.629921 0.299212
vn -0.755906 0.086614 0.645669
vn 0.000000 0.992126 0.118110
vn 0.000000 0.653543 0.755905
vn 0.000000 0.070866 1.000000
vn -0.188976 0.960630 0.196850
vn -0.299213 0.629921 0.716535
vn -0.669291 0.094488 0.732283
vn 0.000000 0.062992 -1.000000
vn 0.000000 0.062992 -1.000000
vn 0.000000 0.992126 -0.133858
vn 0.000000 0.992126 -0.133858
vn 0.000000 1.000000 -0.000000
vn 0.157480 0.968504 -0.188976
vn 0.000000 0.062992 -1.000000
vn 0.629921 0.047244 -0.779527
vn 0.196850 0.960630 -0.196850
vn 0.708661 0.062992 -0.708661
vn 0.716535 0.629921 -0.299213
vn 0.118110 0.992126 -0.000000
vn 1.000000 0.070866 -0.000000
vn 1.000000 0.070866 -0.000000
vn 0.118110 0.992126 -0.000000
vn 0.000000 1.000000 -0.000000
vn 0.000000 1.000000 -0.000000
vn -0.173228 0.968504 -0.196850
vn 0.000000 0.062992 -1.000000
vn -0.661417 0.039370 -0.748031
vn -0.204724 0.960630 -0.188976
vn -0.748031 0.039370 -0.661417
vn -1.000000 0.062992 -0.000000
vn -0.133858 0.992126 -0.000000
vn -1.000000 0.062992 -0.000000
vn -1.000000 0.062992 -0.000000
vn -0.133858 0.992126 -0.000000
vn 0.000000 1.000000 -0.000000
vn -0.188976 0.968504 0.149606
vn -0.787402 0.047244 0.622047
vn -0.204724 0.960630 0.196850
vn -0.716535 0.070866 0.692913
vn -0.299213 0.629921 0.716535
vn 0.000000 0.992126 0.118110
vn 0.000000 0.070866 1.000000
vn 0.000000 0.070866 1.000000
vn 0.000000 0.992126 0.118110
vn 0.173228 0.968504 0.181102
vn 0.299213 0.629921 0.716535
vn 0.669291 0.086614 0.740157
vn 0.748031 0.102362 0.653543
vn 0.196850 0.968504 0.173228
vn 0.716535 0.629921 0.299212
tan 0.000000 1.000000 0.062992 1.000000
tan 0.000000 1.000000 -0.000000 1.000000
tan 0.000000 1.000000 -0.000000 1.000000
tan 0.000000 1.000000 0.062992 1.000000
tan -0.004960 -0.078740 0.996094 1.000000
tan 0.000000 -0.015748 1.000000 1.000000
tan -0.003472 -0.055118 1.003968 1.000000
tan 0.000000 -0.110236 0.992126 1.000000
tan -0.708661 0.700787 -0.000000 1.000000
tan -0.521669 0.850394 0.053568 1.000000
tan -0.476161 0.742452 0.460103 1.000000
tan -0.524211 0.713001 0.463513 1.000000
tan 0.000000 -0.929134 0.370079 1.000000
tan 0.448819 -0.897638 0.000000 1.000000
tan 0.181598 -0.984252 0.062000 1.000000
tan 0.000000 -1.000000 0.000000 1.000000
tan 0.035588 0.042098 1.000248 1.000000
tan -0.008370 -0.118110 0.997148 1.000000
tan 0.012524 0.009548 1.000062 1.000000
tan 0.062496 0.007440 0.998264 1.000000
tan -0.062992 0.000000 1.000000 1.000000
tan -0.007874 0.000000 1.000000 1.000000
tan 0.000000 0.000000 1.000000 1.000000
tan 0.084382 0.192386 0.979726 1.000000
tan -0.036580 0.393515 0.916052 1.000000
tan -0.413169 0.699671 0.582491 1.000000
tan -0.015624 0.118110 0.992126 1.000000
tan 0.000000 0.598425 0.803149 1.000000
tan -0.023746 0.179614 0.983260 1.000000
tan -0.455825 0.742761 0.499101 1.000000
tan -0.283465 0.659185 0.697873 1.000000
tan 0.000000 1.000000 0.070866 1.000000
tan 0.000000 0.755905 0.653543 1.000000
tan 0.000000 -0.110236 0.992126 1.000000
tan -0.004960 -0.078740 0.996094 1.000000
tan 0.588629 -0.276148 0.766074 1.000000
tan 0.579329 -0.216008 0.788889 1.000000
tan 0.565255 -0.526319 0.638353 1.000000
tan -0.016740 -0.212598 0.982578 1.000000
tan 0.169322 -0.030194 0.980966 1.000000
tan 0.874078 -0.349185 0.343729 1.000000
tan -0.897514 -0.310249 -0.298841 1.000000
tan 0.288673 0.636307 0.703639 1.000000
tan 0.472255 0.605245 0.634075 1.000000
tan 0.818588 0.570277 0.049786 1.000000
tan 0.491785 0.677661 0.536921 1.000000
tan -0.042966 0.496063 0.872962 1.000000
tan 0.092752 0.071796 0.994110 1.000000
tan 0.622791 0.728625 0.267902 1.000000
tan -0.923306 0.282472 -0.250233 1.000000
tan 0.279745 -0.668299 0.681877 1.000000
tan 0.443425 -0.655341 0.607043 1.000000
tan 0.802964 -0.585901 0.051150 1.000000
tan 0.459979 -0.721805 0.513547 1.000000
tan -0.044330 -0.511811 0.864406 1.000000
tan 0.092752 -0.071796 0.994110 1.000000
tan 0.607601 -0.746047 0.263439 1.000000
tan 0.508959 0.599975 0.611321 1.000000
tan 0.612561 0.573935 0.541633 1.000000
tan 0.619753 0.339513 0.700911 1.000000
tan 0.409511 0.814930 0.404985 1.000000
tan 0.456693 0.889764 -0.000000 1.000000
tan 0.189472 0.984252 0.062000 1.000000
tan -0.126480 0.992126 0.062496 1.000000
tan -0.236220 0.968504 -0.000000 1.000000
tan -0.298903 0.910720 0.296732 1.000000
tan -0.327547 0.900738 0.285386 1.000000
tan -0.263935 0.893608 0.350363 1.000000
tan -0.443425 0.897638 0.070680 1.000000
tan 0.955670 0.230268 0.162192 1.000000
tan -0.060512 0.946370 0.314216 1.000000
tan 0.685039 0.732283 -0.000000 1.000000
tan 0.469093 0.777543 0.426189 1.000000
tan 0.505921 0.858268 0.054064 1.000000
tan 0.524893 0.738483 0.429413 1.000000
tan 0.490669 0.680761 0.551181 1.000000
tan 0.744497 0.669291 0.052700 1.000000
tan -0.951454 -0.247132 -0.189348 1.000000
tan 0.303801 0.613429 0.725401 1.000000
tan 0.718333 -0.438837 0.536177 1.000000
tan -0.431025 -0.671709 0.598549 1.000000
tan -0.213218 -0.680885 0.700911 1.000000
tan -0.802964 -0.593713 0.051832 1.000000
tan -0.437659 -0.753859 0.483973 1.000000
tan 0.044330 -0.511811 0.865088 1.000000
tan 0.045880 0.101308 0.989894 1.000000
tan -0.631099 -0.722921 0.264307 1.000000
tan 0.815426 0.383409 0.429785 1.000000
tan -0.413169 0.699671 0.582491 1.000000
tan -0.197718 0.723107 0.664889 1.000000
tan -0.763904 0.632773 0.055242 1.000000
tan -0.455825 0.742761 0.499101 1.000000
tan 0.047740 0.551181 0.840784 1.000000
tan 0.045880 -0.101308 0.989894 1.000000
tan -0.551305 0.800359 0.230888 1.000000
tan -0.454089 0.699857 0.555211 1.000000
tan -0.524211 0.713001 0.463513 1.000000
tan -0.476161 0.742452 0.460103 1.000000
tan -0.468721 0.701903 0.530101 1.000000
tan 0.000000 0.677165 0.732283 1.000000
tan 0.035216 0.559055 0.830244 1.000000
tan -0.064108 0.160952 0.982702 1.000000
tan 0.000000 0.196850 0.976378 1.000000
tan 0.000000 0.000000 1.000000 1.000000
tan -0.022320 0.354331 0.933102 1.000000
tan 0.508959 0.599975 0.611321 1.000000
tan 0.619753 0.339513 0.700911 1.000000
tan 0.083886 -0.086862 0.994110 1.000000
tan -0.870482 0.331515 0.364561 1.000000
tan -0.604625 0.437535 0.665013 1.000000
tan 0.014260 0.181102 0.990452 1.000000
tan -0.585033 0.181288 0.794717 1.000000
tan -0.614917 0.095976 0.785665 1.000000
tan 0.000000 0.070866 1.000000 1.000000
tan -0.012400 -0.196850 0.980346 1.000000
tan 0.000000 -0.212598 0.976378 1.000000
tan -0.026784 -0.425197 0.908984 1.000000
tan 0.486887 -0.644367 0.589001 1.000000
tan 0.593713 -0.440077 0.671461 1.000000
tan 0.427801 -0.792733 0.419989 1.000000
tan 0.594891 -0.601339 0.526009 1.000000
tan 0.448819 -0.897638 0.000000 1.000000
tan 0.181598 -0.984252 0.062000 1.000000
tan 0.000558 -0.007874 1.005022 1.000000
tan 0.000000 0.000000 1.000248 1.000000
tan 0.007812 -0.000930 0.998264 1.000000
tan 0.068634 -0.017298 0.997582 1.000000
tan 0.023622 0.000000 1.000000 1.000000
tan 0.023622 0.000000 1.000000 1.000000
tan 0.037386 0.153574 0.987476 1.000000
tan 0.179428 0.247753 0.951268 1.000000
tan 0.472255 0.605245 0.634075 1.000000
tan 0.084134 0.183272 0.975138 1.000000
tan 0.491785 0.677661 0.536921 1.000000
tan 0.330833 0.636121 0.697377 1.000000
tan 0.032178 0.118110 0.992126 1.000000
tan -0.047802 0.118110 0.992126 1.000000
tan 0.000000 1.000000 0.070866 1.000000
tan 0.000000 1.000000 0.070866 1.000000
tan -0.070866 0.000000 1.000000 1.000000
tan 0.000000 0.000000 1.000000 1.000000
tan -0.173538 0.161696 0.969558 1.000000
tan -0.368281 0.617769 0.696881 1.000000
tan -0.604625 0.437535 0.665013 1.000000
tan -0.614917 0.095976 0.785665 1.000000
tan -0.424267 0.056048 0.898754 1.000000
tan -0.012400 -0.196850 0.980346 1.000000
tan -0.382789 -0.051646 0.922004 1.000000
tan -0.023622 0.000000 1.000000 1.000000
tan 0.000000 -0.259842 0.968504 1.000000
tan -0.335917 -0.045322 0.938682 1.000000
tan -0.026784 -0.425197 0.908984 1.000000
tan -0.154380 -0.204972 0.970550 1.000000
tan 0.486887 -0.644367 0.589001 1.000000
tan 0.427801 -0.792733 0.419989 1.000000
tan 0.038688 -0.201500 0.981214 1.000000
tan 0.181598 -0.984252 0.062000 1.000000
tan 0.015624 -0.133858 0.992126 1.000000
tan 0.000000 -0.929134 0.370079 1.000000
tan 0.179676 0.021390 0.982640 1.000000
tan 0.006138 0.086614 0.997148 1.000000
tan -0.006138 -0.086614 0.997148 1.000000
tan -0.046872 -0.005580 0.998264 1.000000
tan 0.062992 0.000000 1.000000 1.000000
tan 0.277761 0.246451 0.924918 1.000000
tan 0.118048 0.532209 0.837745 1.000000
tan -0.263935 0.893608 0.350363 1.000000
tan -0.298903 0.910720 0.296732 1.000000
tan 0.111972 0.208321 0.974332 1.000000
tan -0.126480 0.992126 0.062496 1.000000
tan 0.055738 0.133858 0.992126 1.000000
tan 0.015624 0.133858 0.992126 1.000000
tan 0.189472 0.984252 0.062000 1.000000
tan 0.031124 0.202988 0.981214 1.000000
tan 0.409511 0.814930 0.404985 1.000000
tan -0.015748 0.000000 1.000000 1.000000
tan -0.107260 0.197036 0.979726 1.000000
tan 0.508959 0.599975 0.611321 1.000000
tan -0.022320 0.354331 0.933102 1.000000
tan -0.281233 0.037944 0.962118 1.000000
tan -0.064108 0.160952 0.982702 1.000000
tan -0.152520 0.040920 0.990266 1.000000
tan -0.023622 0.000000 1.000000 1.000000
tan 0.000000 0.000000 1.000000 1.000000
tan 0.015748 0.000000 1.000000 1.000000
tan 0.000000 -0.244094 0.968504 1.000000
tan -0.047616 -0.177010 0.984624 1.000000
tan 0.066092 -0.365305 0.927336 1.000000
tan 0.443425 -0.655341 0.607043 1.000000
tan 0.015624 -0.118110 0.992126 1.000000
tan 0.000000 -0.755905 0.653543 1.000000
tan 0.000000 -1.000000 0.070866 1.000000
tan 0.029636 -0.195238 0.981214 1.000000
tan 0.262261 -0.669539 0.698121 1.000000
tan 0.459979 -0.721805 0.513547 1.000000
tan 0.000000 1.000000 0.062992 1.000000
tan 0.000000 1.000000 0.062992 1.000000
tan 0.007812 0.133858 0.992126 1.000000
tan 0.000000 0.133858 0.992126 1.000000
tan 0.000000 0.000000 1.000000 1.000000
tan -0.000744 0.190960 0.978052 1.000000
tan 0.505921 0.858268 0.054064 1.000000
tan 0.469093 0.777543 0.426189 1.000000
tan -0.062682 0.212351 0.973588 1.000000
tan 0.490669 0.680761 0.551181 1.000000
tan 0.078368 0.354021 0.932978 1.000000
tan -0.140616 0.016740 0.990452 1.000000
tan -0.016740 0.236221 0.973526 1.000000
tan 0.000000 0.000000 1.005022 1.000000
tan 0.085932 -0.010230 0.998264 1.000000
tan 0.000000 0.000000 1.000000 1.000000
tan 0.007874 0.000000 1.000000 1.000000
tan 0.004030 0.200570 0.983260 1.000000
tan -0.521669 0.850394 0.053568 1.000000
tan -0.476161 0.742452 0.460103 1.000000
tan 0.117056 0.215265 0.967450 1.000000
tan -0.454089 0.699857 0.555211 1.000000
tan 0.035216 0.559055 0.830244 1.000000
tan 0.117180 0.015810 0.994420 1.000000
tan -0.004960 -0.078740 0.996094 1.000000
tan -0.003472 -0.055118 1.003968 1.000000
tan -0.007812 -0.001054 1.002232 1.000000
tan 0.047244 0.000000 1.000000 1.000000
tan 0.176700 -0.116622 0.978176 1.000000
tan 0.588629 -0.276148 0.766074 1.000000
tan 0.072106 -0.185752 0.981462 1.000000
tan 0.565255 -0.526319 0.638353 1.000000
tan 0.262261 -0.669539 0.698121 1.000000
tan 0.023436 -0.118110 0.992126 1.000000
tan 0.000000 -1.000000 0.070866 1.000000
tan 0.000000 -1.000000 0.070866 1.000000
tan 0.007812 -0.118110 0.992126 1.000000
tan 0.031062 -0.189162 0.981896 1.000000
tan -0.188046 -0.697315 0.691549 1.000000
tan -0.437659 -0.753859 0.483973 1.000000
tan -0.431025 -0.671709 0.598549 1.000000
tan 0.075392 -0.190836 0.981276 1.000000
tan -0.053816 -0.376589 0.921694 1.000000
f 3/3/3 2/2/2 1/1/1
f 4/4/4 1/1/1 2/2/2
f 7/7/7 6/6/6 5/5/5
f 8/8/8 5/5/5 6/6/6
f 11/11/11 10/10/10 9/9/9
f 9/9/9 12/12/12 11/11/11
f 15/15/15 14/14/14 13/13/13
f 16/16/16 13/13/13 14/14/14
f 19/19/19 18/18/18 17/17/17
f 18/18/18 19/19/19 20/20/20
f 21/21/21 20/20/20 19/19/19
f 22/22/22 20/20/20 21/21/21
f 21/21/21 23/23/23 22/22/22
f 20/20/20 22/22/22 24/24/24
f 20/20/20 24/24/24 25/25/25
f 26/26/26 25/25/25 24/24/24
f 27/27/27 22/22/22 23/23/23
f 28/28/28 27/27/27 23/23/23
f 24/24/24 22/22/22 29/29/29
f 24/24/24 29/29/29 26/26/26
f 22/22/22 27/27/27 29/29/29
f 30/30/30 26/26/26 29/29/29
f 30/30/30 29/29/29 31/31/31
f 27/27/27 31/31/31 29/29/29
f 27/27/27 28/28/28 32/32/32
f 33/33/33 32/32/32 28/28/28
f 36/36/36 35/35/35 34/34/34
f 34/34/34 37/37/37 36/36/36
f 36/36/36 37/37/37 38/38/38
f 39/39/39 38/38/38 37/37/37
f 39/39/39 40/40/40 38/38/38
f 41/41/41 38/38/38 40/40/40
f 44/44/44 43/43/43 42/42/42
f 42/42/42 45/45/45 44/44/44
f 44/44/44 45/45/45 46/46/46
f 47/47/47 46/46/46 45/45/45
f 47/47/47 48/48/48 46/46/46
f 49/49/49 46/46/46 48/48/48
f 52/52/52 51/51/51 50/50/50
f 50/50/50 53/53/53 52/52/52
f 52/52/52 53/53/53 54/54/54
f 55/55/55 54/54/54 53/53/53
f 55/55/55 56/56/56 54/54/54
f 57/57/57 54/54/54 56/56/56
f 60/60/60 59/59/59 58/58/58
f 61/61/61 58/58/58 59/59/59
f 59/59/59 62/62/62 61/61/61
f 63/63/63 61/61/61 62/62/62
f 63/63/63 62/62/62 64/64/64
f 65/65/65 64/64/64 62/62/62
f 66/66/66 64/64/64 65/65/65
f 65/65/65 67/67/67 66/66/66
f 67/67/67 68/68/68 66/66/66
f 67/67/67 69/69/69 68/68/68
f 69/69/69 70/70/70 68/68/68
f 71/71/71 68/68/68 70/70/70
f 74/74/74 73/73/73 72/72/72
f 75/75/75 72/72/72 73/73/73
f 76/76/76 75/75/75 73/73/73
f 77/77/77 75/75/75 76/76/76
f 78/78/78 77/77/77 76/76/76
f 76/76/76 79/79/79 78/78/78
f 82/82/82 81/81/81 80/80/80
f 83/83/83 80/80/80 81/81/81
f 84/84/84 83/83/83 81/81/81
f 85/85/85 83/83/83 84/84/84
f 86/86/86 85/85/85 84/84/84
f 84/84/84 87/87/87 86/86/86
f 90/90/90 89/89/89 88/88/88
f 91/91/91 88/88/88 89/89/89
f 91/91/91 89/89/89 92/92/92
f 93/93/93 91/91/91 92/92/92
f 94/94/94 93/93/93 92/92/92
f 92/92/92 95/95/95 94/94/94
f 98/98/98 97/97/97 96/96/96
f 99/99/99 96/96/96 97/97/97
f 99/99/99 100/100/100 96/96/96
f 101/101/101 96/96/96 100/100/100
f 104/104/104 103/103/103 102/102/102
f 105/105/105 102/102/102 103/103/103
f 106/106/106 105/105/105 103/103/103
f 103/103/103 107/107/107 106/106/106
f 110/110/110 109/109/109 108/108/108
f 108/108/108 111/111/111 110/110/110
f 111/111/111 112/112/112 110/110/110
f 112/112/112 113/113/113 110/110/110
f 112/112/112 114/114/114 113/113/113
f 115/115/115 113/113/113 114/114/114
f 114/114/114 116/116/116 115/115/115
f 117/117/117 115/115/115 116/116/116
f 118/118/118 117/117/117 116/116/116
f 116/116/116 119/119/119 118/118/118
f 120/120/120 118/118/118 119/119/119
f 119/119/119 121/121/121 120/120/120
f 121/121/121 122/122/122 120/120/120
f 123/123/123 120/120/120 122/122/122
f 126/126/126 125/125/125 124/124/124
f 125/125/125 126/126/126 127/127/127
f 126/126/126 128/128/128 127/127/127
f 127/127/127 128/128/128 129/129/129
f 126/126/126 130/130/130 128/128/128
f 126/126/126 131/131/131 130/130/130
f 132/132/132 130/130/130 131/131/131
f 130/130/130 132/132/132 133/133/133
f 130/130/130 133/133/133 128/128/128
f 134/134/134 133/133/133 132/132/132
f 134/134/134 135/135/135 133/133/133
f 136/136/136 133/133/133 135/135/135
f 136/136/136 128/128/128 133/133/133
f 136/136/136 137/137/137 128/128/128
f 138/138/138 137/137/137 136/136/136
f 137/137/137 138/138/138 139/139/139
f 128/128/128 140/140/140 129/129/129
f 137/137/137 140/140/140 128/128/128
f 129/129/129 140/140/140 141/141/141
f 140/140/140 137/137/137 142/142/142
f 137/137/137 143/143/143 142/142/142
f 144/144/144 142/142/142 143/143/143
f 144/144/144 145/145/145 142/142/142
f 145/145/145 146/146/146 142/142/142
f 146/146/146 140/140/140 142/142/142
f 145/145/145 147/147/147 146/146/146
f 148/148/148 140/140/140 146/146/146
f 148/148/148 146/146/146 147/147/147
f 149/149/149 141/141/141 140/140/140
f 140/140/140 148/148/148 149/149/149
f 150/150/150 141/141/141 149/149/149
f 147/147/147 151/151/151 148/148/148
f 151/151/151 149/149/149 148/148/148
f 151/151/151 147/147/147 152/152/152
f 151/151/151 152/152/152 153/153/153
f 151/151/151 153/153/153 149/149/149
f 154/154/154 153/153/153 152/152/152
f 154/154/154 155/155/155 153/153/153
f 156/156/156 153/153/153 155/155/155
f 153/153/153 156/156/156 149/149/149
f 155/155/155 157/157/157 156/156/156
f 158/158/158 149/149/149 156/156/156
f 158/158/158 156/156/156 157/157/157
f 149/149/149 158/158/158 150/150/150
f 157/157/157 159/159/159 158/158/158
f 150/150/150 158/158/158 159/159/159
f 162/162/162 161/161/161 160/160/160
f 163/163/163 160/160/160 161/161/161
f 160/160/160 163/163/163 164/164/164
f 160/160/160 164/164/164 165/165/165
f 160/160/160 165/165/165 166/166/166
f 167/167/167 166/166/166 165/165/165
f 165/165/165 168/168/168 167/167/167
f 168/168/168 165/165/165 169/169/169
f 165/165/165 164/164/164 169/169/169
f 168/168/168 169/169/169 170/170/170
f 171/171/171 170/170/170 169/169/169
f 164/164/164 171/171/171 169/169/169
f 171/171/171 172/172/172 170/170/170
f 171/171/171 164/164/164 172/172/172
f 173/173/173 170/170/170 172/172/172
f 172/172/172 174/174/174 173/173/173
f 175/175/175 173/173/173 174/174/174
f 172/172/172 176/176/176 174/174/174
f 176/176/176 172/172/172 164/164/164
f 174/174/174 177/177/177 175/175/175
f 177/177/177 174/174/174 176/176/176
f 178/178/178 175/175/175 177/177/177
f 178/178/178 177/177/177 179/179/179
f 180/180/180 179/179/179 177/177/177
f 180/180/180 177/177/177 176/176/176
f 180/180/180 181/181/181 179/179/179
f 181/181/181 180/180/180 182/182/182
f 180/180/180 176/176/176 182/182/182
f 182/182/182 176/176/176 183/183/183
f 176/176/176 164/164/164 183/183/183
f 183/183/183 164/164/164 184/184/184
f 185/185/185 184/184/184 164/164/164
f 185/185/185 164/164/164 163/163/163
f 186/186/186 184/184/184 185/185/185
f 163/163/163 187/187/187 185/185/185
f 163/163/163 188/188/188 187/187/187
f 189/189/189 187/187/187 188/188/188
f 185/185/185 190/190/190 186/186/186
f 186/186/186 190/190/190 191/191/191
f 192/192/192 191/191/191 190/190/190
f 187/187/187 193/193/193 185/185/185
f 190/190/190 185/185/185 193/193/193
f 187/187/187 189/189/189 193/193/193
f 190/190/190 193/193/193 194/194/194
f 195/195/195 193/193/193 189/189/189
f 195/195/195 194/194/194 193/193/193
f 198/198/198 197/197/197 196/196/196
f 197/197/197 198/198/198 199/199/199
f 199/199/199 198/198/198 200/200/200
f 199/199/199 200/200/200 201/201/201
f 199/199/199 201/201/201 202/202/202
f 203/203/203 202/202/202 201/201/201
f 203/203/203 201/201/201 204/204/204
f 204/204/204 201/201/201 200/200/200
f 205/205/205 203/203/203 204/204/204
f 205/205/205 204/204/204 206/206/206
f 207/207/207 206/206/206 204/204/204
f 207/207/207 204/204/204 200/200/200
f 207/207/207 209/209/209 208/208/208
f 209/209/209 207/207/207 210/210/210
f 207/207/207 200/200/200 211/211/211
f 211/211/211 210/210/210 207/207/207
f 198/198/198 212/212/212 200/200/200
f 200/200/200 212/212/212 211/211/211
f 212/212/212 198/198/198 213/213/213
f 198/198/198 214/214/214 213/213/213
f 215/215/215 213/213/213 214/214/214
f 213/213/213 215/215/215 216/216/216
f 216/216/216 212/212/212 213/213/213
f 217/217/217 216/216/216 215/215/215
f 217/217/217 218/218/218 216/216/216
f 219/219/219 216/216/216 218/218/218
f 219/219/219 212/212/212 216/216/216
f 221/221/221 220/220/220 219/219/219
f 219/219/219 222/222/222 212/212/212
f 222/222/222 219/219/219 220/220/220
f 223/223/223 212/212/212 222/222/222
f 223/223/223 211/211/211 212/212/212
f 222/222/222 220/220/220 224/224/224
f 222/222/222 224/224/224 223/223/223
f 225/225/225 224/224/224 220/220/220
f 225/225/225 226/226/226 224/224/224
f 224/224/224 226/226/226 223/223/223
f 226/226/226 225/225/225 227/227/227
f 227/227/227 228/228/228 226/226/226
f 229/229/229 226/226/226 228/228/228
f 229/229/229 223/223/223 226/226/226
f 223/223/223 229/229/229 211/211/211
f 231/231/231 230/230/230 229/229/229
f 232/232/232 229/229/229 230/230/230
f 232/232/232 211/211/211 229/229/229
f 232/232/232 233/233/233 211/211/211
f 232/232/232 234/234/234 233/233/233
f 235/235/235 233/233/233 234/234/234
f 235/235/235 236/236/236 233/233/233
f 233/233/233 237/237/237 211/211/211
f 237/237/237 233/233/233 236/236/236
f 210/210/210 211/211/211 237/237/237
f 236/236/236 238/238/238 237/237/237
f 210/210/210 237/237/237 238/238/238
