mtllib SM_Hologram_Viewcone.mtl
g SM_Hologram_Viewcone
#Vertices 146
#Indices 432
#Section 0 Offset 0 NumIndices 432 MaterialIndex 0 MI_Hologram_Viewcone_BigBurger
v 2.210774 -0.577728 -0.000000
v -0.000000 -0.024940 -0.002182
v -0.000000 -0.025035 0.000000
v 2.210774 -0.575530 -0.050352
v -0.000000 -0.024655 -0.004347
v 2.210774 -0.568951 -0.100322
v -0.000000 -0.024182 -0.006479
v 2.210774 -0.558043 -0.149527
v -0.000000 -0.023525 -0.008562
v 2.210774 -0.542887 -0.197595
v -0.000000 -0.022689 -0.010580
v 2.210774 -0.523600 -0.244159
v -0.000000 -0.021681 -0.012517
v 2.210774 -0.500328 -0.288864
v -0.000000 -0.020507 -0.014359
v 2.210774 -0.473247 -0.331371
v -0.000000 -0.019178 -0.016092
v 2.210774 -0.442566 -0.371357
v -0.000000 -0.017702 -0.017702
v 2.210774 -0.408516 -0.408516
v 2.210774 -0.371357 -0.442566
v -0.000000 -0.016092 -0.019178
v 2.210774 -0.331371 -0.473247
v -0.000000 -0.014359 -0.020507
v 2.210774 -0.288864 -0.500328
v -0.000000 -0.012517 -0.021681
v 2.210774 -0.244159 -0.523600
v -0.000000 -0.010580 -0.022689
v 2.210774 -0.197595 -0.542887
v -0.000000 -0.008562 -0.023525
v 2.210774 -0.149527 -0.558043
v -0.000000 -0.006480 -0.024182
v 2.210774 -0.100322 -0.568952
v -0.000000 -0.004347 -0.024655
v 2.210774 -0.050352 -0.575530
v -0.000000 -0.002182 -0.024940
v 2.210774 -0.000000 -0.577729
v 0.000000 -0.000000 -0.025035
v -0.000000 0.002182 -0.024940
v 2.210774 0.050353 -0.575530
v -0.000000 0.004347 -0.024655
v 2.210774 0.100322 -0.568952
v -0.000000 0.006480 -0.024182
v 2.210774 0.149528 -0.558043
v -0.000000 0.008562 -0.023525
v 2.210774 0.197595 -0.542887
v -0.000000 0.010580 -0.022689
v 2.210774 0.244159 -0.523600
v -0.000000 0.012517 -0.021681
v 2.210774 0.288865 -0.500328
v -0.000000 0.014359 -0.020507
v 2.210774 0.331372 -0.473247
v -0.000000 0.016092 -0.019178
v 2.210774 0.371357 -0.442566
v -0.000000 0.017702 -0.017702
v 2.210774 0.408516 -0.408516
v 2.210774 0.442566 -0.371357
v -0.000000 0.019178 -0.016092
v 2.210774 0.473248 -0.331371
v -0.000000 0.020507 -0.014359
v 2.210774 0.500328 -0.288864
v -0.000000 0.021681 -0.012517
v 2.210774 0.523600 -0.244159
v -0.000000 0.022689 -0.010580
v 2.210774 0.542887 -0.197595
v -0.000000 0.023525 -0.008562
v 2.210774 0.558043 -0.149527
v -0.000000 0.024182 -0.006479
v 2.210774 0.568952 -0.100321
v -0.000000 0.024655 -0.004347
v 2.210774 0.575530 -0.050352
v -0.000000 0.024940 -0.002182
v 2.210774 0.577729 0.000000
v -0.000000 0.025035 0.000000
v -0.000000 0.024940 0.002182
v 2.210774 0.575530 0.050352
v -0.000000 0.024655 0.004347
v 2.210774 0.568952 0.100321
v -0.000000 0.024182 0.006480
v 2.210774 0.558043 0.149527
v -0.000000 0.023525 0.008562
v 2.210774 0.542887 0.197595
v -0.000000 0.022689 0.010580
v 2.210774 0.523600 0.244159
v -0.000000 0.021681 0.012517
v 2.210774 0.500328 0.288864
v -0.000000 0.020507 0.014359
v 2.210774 0.473247 0.331371
v -0.000000 0.019178 0.016092
v 2.210774 0.442566 0.371357
v -0.000000 0.017702 0.017702
v 2.210774 0.408516 0.408516
v 2.210774 0.371357 0.442566
v -0.000000 0.016092 0.019178
v 2.210774 0.331371 0.473247
v -0.000000 0.014359 0.020507
v 2.210774 0.288864 0.500327
v -0.000000 0.012517 0.021681
v 2.210774 0.244159 0.523600
v -0.000000 0.010580 0.022689
v 2.210774 0.197595 0.542887
v -0.000000 0.008562 0.023525
v 2.210774 0.149527 0.558043
v -0.000000 0.006479 0.024182
v 2.210774 0.100322 0.568951
v -0.000000 0.004347 0.024655
v 2.210774 0.050352 0.575530
v -0.000000 0.002182 0.024940
v 2.210774 0.000000 0.577728
v -0.000000 -0.000000 0.025035
v -0.000000 -0.002182 0.024940
v 2.210774 -0.050352 0.575530
v -0.000000 -0.004347 0.024655
v 2.210774 -0.100321 0.568951
v -0.000000 -0.006480 0.024182
v 2.210774 -0.149527 0.558043
v -0.000000 -0.008562 0.023525
v 2.210774 -0.197595 0.542887
v -0.000000 -0.010580 0.022689
v 2.210774 -0.244159 0.523600
v -0.000000 -0.012517 0.021681
v 2.210774 -0.288864 0.500327
v -0.000000 -0.014359 0.020507
v 2.210774 -0.331371 0.473247
v -0.000000 -0.016092 0.019178
v 2.210774 -0.371357 0.442566
v -0.000000 -0.017702 0.017702
v 2.210774 -0.408516 0.408516
v 2.210774 -0.442566 0.371357
v -0.000000 -0.019178 0.016092
v 2.210774 -0.473247 0.331371
v -0.000000 -0.020507 0.014359
v 2.210774 -0.500327 0.288864
v -0.000000 -0.021681 0.012517
v 2.210774 -0.523600 0.244159
v -0.000000 -0.022689 0.010580
v 2.210774 -0.542887 0.197595
v -0.000000 -0.023525 0.008562
v 2.210774 -0.558043 0.149527
v -0.000000 -0.024182 0.006480
v 2.210774 -0.568951 0.100321
v -0.000000 -0.024655 0.004347
v 2.210774 -0.575530 0.050352
v -0.000000 -0.024940 0.002182
v 2.210774 -0.577728 -0.000000
v -0.000000 -0.025035 0.000000
vt 0.000148 0.001465
vt 0.017532 1.000001
vt 0.000149 1.000001
vt 0.013885 0.001465
vt 0.031281 1.000001
vt 0.027771 0.001465
vt 0.045013 1.000001
vt 0.041656 0.001465
vt 0.058777 1.000001
vt 0.055542 0.001465
vt 0.072510 1.000001
vt 0.069397 0.001465
vt 0.086243 1.000001
vt 0.083313 0.001465
vt 0.099976 1.000001
vt 0.097168 0.001465
vt 0.113770 1.000001
vt 0.111084 0.001465
vt 0.127441 1.000001
vt 0.124939 0.001465
vt 0.138794 0.001465
vt 0.141235 1.000001
vt 0.152710 0.001465
vt 0.155029 1.000001
vt 0.166626 0.001465
vt 0.168701 1.000001
vt 0.180542 0.001465
vt 0.182495 1.000001
vt 0.194336 0.001465
vt 0.196167 1.000001
vt 0.208252 0.001465
vt 0.209961 1.000001
vt 0.222168 0.001465
vt 0.223755 1.000001
vt 0.236084 0.001465
vt 0.237427 1.000001
vt 0.249878 0.001465
vt 0.251221 1.000001
vt 0.264893 1.000001
vt 0.263672 0.001465
vt 0.278564 1.000001
vt 0.277588 0.001465
vt 0.292480 1.000001
vt 0.291504 0.001465
vt 0.306152 1.000001
vt 0.305420 0.001465
vt 0.319824 1.000001
vt 0.319336 0.001465
vt 0.333740 1.000001
vt 0.333252 0.001465
vt 0.347412 1.000001
vt 0.347168 0.001465
vt 0.361084 1.000001
vt 0.361084 0.001465
vt 0.375000 1.000001
vt 0.374756 0.001465
vt 0.388672 0.001465
vt 0.388672 1.000001
vt 0.402588 0.001465
vt 0.402344 1.000001
vt 0.416504 0.001465
vt 0.416260 1.000001
vt 0.430420 0.001465
vt 0.429932 1.000001
vt 0.444336 0.001465
vt 0.443604 1.000001
vt 0.458252 0.001465
vt 0.457520 1.000001
vt 0.472168 0.001465
vt 0.471191 1.000001
vt 0.486084 0.001465
vt 0.484863 1.000001
vt 0.499756 0.001465
vt 0.498779 1.000001
vt 0.512207 1.000001
vt 0.513672 0.001465
vt 0.525879 1.000001
vt 0.527344 0.001465
vt 0.539551 1.000001
vt 0.541504 0.001465
vt 0.553711 1.000001
vt 0.555176 0.001465
vt 0.567383 1.000001
vt 0.569336 0.001465
vt 0.581055 1.000001
vt 0.583008 0.001465
vt 0.594727 1.000001
vt 0.597168 0.001465
vt 0.608398 1.000001
vt 0.610840 0.001465
vt 0.622070 1.000001
vt 0.624512 0.001465
vt 0.638672 0.001465
vt 0.636230 1.000001
vt 0.652344 0.001465
vt 0.649902 1.000001
vt 0.666504 0.001465
vt 0.663574 1.000001
vt 0.680176 0.001465
vt 0.677246 1.000001
vt 0.694336 0.001465
vt 0.690918 1.000001
vt 0.708008 0.001465
vt 0.704590 1.000001
vt 0.722168 0.001465
vt 0.718750 1.000001
vt 0.735840 0.001465
vt 0.732422 1.000001
vt 0.749512 0.001465
vt 0.746094 1.000001
vt 0.759766 1.000001
vt 0.763672 0.001465
vt 0.773438 1.000001
vt 0.777344 0.001465
vt 0.787109 1.000001
vt 0.791504 0.001465
vt 0.801270 1.000001
vt 0.805176 0.001465
vt 0.814941 1.000001
vt 0.819336 0.001465
vt 0.828613 1.000001
vt 0.833008 0.001465
vt 0.842285 1.000001
vt 0.847168 0.001465
vt 0.855957 1.000001
vt 0.860840 0.001465
vt 0.869629 1.000001
vt 0.874512 0.001465
vt 0.888672 0.001465
vt 0.883301 1.000001
vt 0.902344 0.001465
vt 0.897461 1.000001
vt 0.916504 0.001465
vt 0.911133 1.000001
vt 0.930176 0.001465
vt 0.924805 1.000001
vt 0.944336 0.001465
vt 0.938477 1.000001
vt 0.958008 0.001465
vt 0.952148 1.000001
vt 0.972168 0.001465
vt 0.965820 1.000001
vt 0.985840 0.001465
vt 0.979980 1.000001
vt 0.999512 0.001465
vt 0.999512 1.000001
vn -0.244094 -0.968504 0.000000
vn -0.244094 -0.968504 -0.086614
vn -0.244094 -0.968504 0.000000
vn -0.244094 -0.968504 -0.086614
vn -0.244094 -0.952756 -0.165354
vn -0.244094 -0.952756 -0.165354
vn -0.244094 -0.937008 -0.251968
vn -0.244094 -0.937008 -0.251968
vn -0.244094 -0.913386 -0.330709
vn -0.244094 -0.913386 -0.330709
vn -0.244094 -0.881890 -0.409449
vn -0.244094 -0.881890 -0.409449
vn -0.244094 -0.842520 -0.488189
vn -0.244094 -0.842520 -0.488189
vn -0.244094 -0.795276 -0.559055
vn -0.244094 -0.795276 -0.559055
vn -0.244094 -0.740157 -0.622047
vn -0.244094 -0.740157 -0.622047
vn -0.244094 -0.685039 -0.685039
vn -0.244094 -0.685039 -0.685039
vn -0.244094 -0.622047 -0.740157
vn -0.244094 -0.622047 -0.740157
vn -0.244094 -0.559055 -0.795275
vn -0.244094 -0.559055 -0.795275
vn -0.244094 -0.488189 -0.842520
vn -0.244094 -0.488189 -0.842520
vn -0.244094 -0.409449 -0.881890
vn -0.244094 -0.409449 -0.881890
vn -0.244094 -0.330709 -0.913386
vn -0.244094 -0.330709 -0.913386
vn -0.244094 -0.251969 -0.937008
vn -0.244094 -0.251969 -0.937008
vn -0.244094 -0.165354 -0.952756
vn -0.244094 -0.165354 -0.952756
vn -0.244094 -0.086614 -0.968504
vn -0.244094 -0.086614 -0.968504
vn -0.244094 -0.000000 -0.968504
vn -0.244094 -0.000000 -0.968504
vn -0.244094 0.086614 -0.968504
vn -0.244094 0.086614 -0.968504
vn -0.244094 0.165354 -0.952756
vn -0.244094 0.165354 -0.952756
vn -0.244094 0.251968 -0.937008
vn -0.244094 0.251968 -0.937008
vn -0.244094 0.330709 -0.913386
vn -0.244094 0.330709 -0.913386
vn -0.244094 0.409449 -0.881890
vn -0.244094 0.409449 -0.881890
vn -0.244094 0.488189 -0.842520
vn -0.244094 0.488189 -0.842520
vn -0.244094 0.559055 -0.795276
vn -0.244094 0.559055 -0.795276
vn -0.244094 0.622047 -0.740157
vn -0.244094 0.622047 -0.740157
vn -0.244094 0.685039 -0.685039
vn -0.244094 0.685039 -0.685039
vn -0.244094 0.740157 -0.622047
vn -0.244094 0.740157 -0.622047
vn -0.244094 0.795275 -0.559055
vn -0.244094 0.795275 -0.559055
vn -0.244094 0.842520 -0.488189
vn -0.244094 0.842520 -0.488189
vn -0.244094 0.881890 -0.409449
vn -0.244094 0.881890 -0.409449
vn -0.244094 0.913386 -0.330709
vn -0.244094 0.913386 -0.330709
vn -0.244094 0.937008 -0.251969
vn -0.244094 0.937008 -0.251969
vn -0.244094 0.952756 -0.165354
vn -0.244094 0.952756 -0.165354
vn -0.244094 0.968504 -0.086614
vn -0.244094 0.968504 -0.086614
vn -0.244094 0.968504 -0.000000
vn -0.244094 0.968504 -0.000000
vn -0.244094 0.968504 0.086614
vn -0.244094 0.968504 0.086614
vn -0.244094 0.952756 0.165354
vn -0.244094 0.952756 0.165354
vn -0.244094 0.937008 0.251968
vn -0.244094 0.937008 0.251968
vn -0.244094 0.913386 0.330709
vn -0.244094 0.913386 0.330709
vn -0.244094 0.881890 0.409449
vn -0.244094 0.881890 0.409449
vn -0.244094 0.842520 0.488189
vn -0.244094 0.842520 0.488189
vn -0.244094 0.795276 0.559055
vn -0.244094 0.795276 0.559055
vn -0.244094 0.740157 0.622047
vn -0.244094 0.740157 0.622047
vn -0.244094 0.685039 0.685039
vn -0.244094 0.685039 0.685039
vn -0.244094 0.622047 0.740157
vn -0.244094 0.622047 0.740157
vn -0.244094 0.559055 0.795275
vn -0.244094 0.559055 0.795275
vn -0.244094 0.488189 0.842520
vn -0.244094 0.488189 0.842520
vn -0.244094 0.409449 0.881890
vn -0.244094 0.409449 0.881890
vn -0.244094 0.330709 0.913386
vn -0.244094 0.330709 0.913386
vn -0.244094 0.251969 0.937008
vn -0.244094 0.251969 0.937008
vn -0.244094 0.165354 0.952756
vn -0.244094 0.165354 0.952756
vn -0.244094 0.086614 0.968504
vn -0.244094 0.086614 0.968504
vn -0.244094 0.000000 0.968504
vn -0.244094 0.000000 0.968504
vn -0.244094 -0.086614 0.968504
vn -0.244094 -0.086614 0.968504
vn -0.244094 -0.165354 0.952756
vn -0.244094 -0.165354 0.952756
vn -0.244094 -0.251968 0.937008
vn -0.244094 -0.251968 0.937008
vn -0.244094 -0.330709 0.913386
vn -0.244094 -0.330709 0.913386
vn -0.244094 -0.409449 0.881890
vn -0.244094 -0.409449 0.881890
vn -0.244094 -0.488189 0.842520
vn -0.244094 -0.488189 0.842520
vn -0.244094 -0.559055 0.795276
vn -0.244094 -0.559055 0.795276
vn -0.244094 -0.622047 0.740157
vn -0.244094 -0.622047 0.740157
vn -0.244094 -0.685039 0.685039
vn -0.244094 -0.685039 0.685039
vn -0.244094 -0.740157 0.622047
vn -0.244094 -0.740157 0.622047
vn -0.244094 -0.795275 0.559055
vn -0.244094 -0.795275 0.559055
vn -0.244094 -0.842520 0.488189
vn -0.244094 -0.842520 0.488189
vn -0.244094 -0.881890 0.409449
vn -0.244094 -0.881890 0.409449
vn -0.244094 -0.913386 0.330709
vn -0.244094 -0.913386 0.330709
vn -0.244094 -0.937008 0.251969
vn -0.244094 -0.937008 0.251969
vn -0.244094 -0.952756 0.165354
vn -0.244094 -0.952756 0.165354
vn -0.244094 -0.968504 0.086614
vn -0.244094 -0.968504 0.086614
vn -0.244094 -0.968504 0.000000
vn -0.244094 -0.968504 0.000000
tan 0.968504 -0.244094 -0.007626 1.000000
tan 0.976006 -0.244094 -0.021142 1.000000
tan 0.968504 -0.244094 -0.007626 1.000000
tan 0.976006 -0.244094 -0.021142 1.000000
tan 0.966396 -0.240250 -0.042284 1.000000
tan 0.966396 -0.240250 -0.042284 1.000000
tan 0.972968 -0.236406 -0.063426 1.000000
tan 0.972968 -0.236406 -0.063426 1.000000
tan 0.967822 -0.228718 -0.082646 1.000000
tan 0.967822 -0.228718 -0.082646 1.000000
tan 0.972658 -0.221030 -0.103788 1.000000
tan 0.972658 -0.221030 -0.103788 1.000000
tan 0.975758 -0.211420 -0.123008 1.000000
tan 0.971914 -0.211420 -0.121086 1.000000
tan 0.972596 -0.199888 -0.140306 1.000000
tan 0.972596 -0.199888 -0.140306 1.000000
tan 0.966954 -0.186434 -0.157604 1.000000
tan 0.966954 -0.186434 -0.157604 1.000000
tan 0.970922 -0.172980 -0.172980 1.000000
tan 0.970922 -0.172980 -0.172980 1.000000
tan 0.966954 -0.157604 -0.186434 1.000000
tan 0.966954 -0.157604 -0.186434 1.000000
tan 0.972596 -0.140306 -0.199888 1.000000
tan 0.972596 -0.140306 -0.199888 1.000000
tan 0.971914 -0.121086 -0.211420 1.000000
tan 0.971914 -0.121086 -0.211420 1.000000
tan 0.972658 -0.103788 -0.221030 1.000000
tan 0.972658 -0.103788 -0.221030 1.000000
tan 0.967822 -0.082646 -0.228718 1.000000
tan 0.967822 -0.082646 -0.228718 1.000000
tan 0.972968 -0.063426 -0.236406 1.000000
tan 0.972968 -0.063426 -0.236406 1.000000
tan 0.966396 -0.042284 -0.240250 1.000000
tan 0.966396 -0.042284 -0.240250 1.000000
tan 0.976006 -0.021142 -0.244094 1.000000
tan 0.976006 -0.021142 -0.244094 1.000000
tan 0.968504 -0.000000 -0.244094 1.000000
tan 0.968504 -0.000000 -0.244094 1.000000
tan 0.976006 0.021142 -0.244094 1.000000
tan 0.976006 0.021142 -0.244094 1.000000
tan 0.966396 0.042284 -0.240250 1.000000
tan 0.966396 0.042284 -0.240250 1.000000
tan 0.972968 0.063426 -0.236406 1.000000
tan 0.972968 0.063426 -0.236406 1.000000
tan 0.967822 0.082646 -0.228718 1.000000
tan 0.967822 0.082646 -0.228718 1.000000
tan 0.972658 0.103788 -0.221030 1.000000
tan 0.972658 0.103788 -0.221030 1.000000
tan 0.975758 0.123008 -0.211420 1.000000
tan 0.971914 0.121086 -0.211420 1.000000
tan 0.972596 0.140306 -0.199888 1.000000
tan 0.972596 0.140306 -0.199888 1.000000
tan 0.966954 0.157604 -0.186434 1.000000
tan 0.966954 0.157604 -0.186434 1.000000
tan 0.970922 0.172980 -0.172980 1.000000
tan 0.970922 0.172980 -0.172980 1.000000
tan 0.966954 0.186434 -0.157604 1.000000
tan 0.966954 0.186434 -0.157604 1.000000
tan 0.972596 0.199888 -0.140306 1.000000
tan 0.972596 0.199888 -0.140306 1.000000
tan 0.971914 0.211420 -0.121086 1.000000
tan 0.975758 0.211420 -0.123008 1.000000
tan 0.972658 0.221030 -0.103788 1.000000
tan 0.972658 0.221030 -0.103788 1.000000
tan 0.967822 0.228718 -0.082646 1.000000
tan 0.967822 0.228718 -0.082646 1.000000
tan 0.972968 0.236406 -0.063426 1.000000
tan 0.972968 0.236406 -0.063426 1.000000
tan 0.966396 0.240250 -0.042284 1.000000
tan 0.966396 0.240250 -0.042284 1.000000
tan 0.976006 0.244094 -0.021142 1.000000
tan 0.976006 0.244094 -0.021142 1.000000
tan 0.968504 0.244094 -0.000000 1.000000
tan 0.968504 0.244094 -0.000000 1.000000
tan 0.976006 0.244094 0.021142 1.000000
tan 0.976006 0.244094 0.021142 1.000000
tan 0.966396 0.240250 0.042284 1.000000
tan 0.966396 0.240250 0.042284 1.000000
tan 0.972968 0.236406 0.063426 1.000000
tan 0.972968 0.236406 0.063426 1.000000
tan 0.967822 0.228718 0.082646 1.000000
tan 0.967822 0.228718 0.082646 1.000000
tan 0.972658 0.221030 0.103788 1.000000
tan 0.972658 0.221030 0.103788 1.000000
tan 0.975758 0.211420 0.123008 1.000000
tan 0.971914 0.211420 0.121086 1.000000
tan 0.972596 0.199888 0.140306 1.000000
tan 0.972596 0.199888 0.140306 1.000000
tan 0.966954 0.186434 0.157604 1.000000
tan 0.966954 0.186434 0.157604 1.000000
tan 0.970922 0.172980 0.172980 1.000000
tan 0.970922 0.172980 0.172980 1.000000
tan 0.966954 0.157604 0.186434 1.000000
tan 0.966954 0.157604 0.186434 1.000000
tan 0.972596 0.140306 0.199888 1.000000
tan 0.972596 0.140306 0.199888 1.000000
tan 0.971914 0.121086 0.211420 1.000000
tan 0.975758 0.123008 0.211420 1.000000
tan 0.972658 0.103788 0.221030 1.000000
tan 0.972658 0.103788 0.221030 1.000000
tan 0.967822 0.082646 0.228718 1.000000
tan 0.967822 0.082646 0.228718 1.000000
tan 0.972968 0.063426 0.236406 1.000000
tan 0.972968 0.063426 0.236406 1.000000
tan 0.966396 0.042284 0.240250 1.000000
tan 0.966396 0.042284 0.240250 1.000000
tan 0.976006 0.021142 0.244094 1.000000
tan 0.976006 0.021142 0.244094 1.000000
tan 0.968504 0.000000 0.244094 1.000000
tan 0.968504 0.000000 0.244094 1.000000
tan 0.976006 -0.021142 0.244094 1.000000
tan 0.976006 -0.021142 0.244094 1.000000
tan 0.966396 -0.042284 0.240250 1.000000
tan 0.966396 -0.042284 0.240250 1.000000
tan 0.972968 -0.063426 0.236406 1.000000
tan 0.972968 -0.063426 0.236406 1.000000
tan 0.967822 -0.082646 0.228718 1.000000
tan 0.967822 -0.082646 0.228718 1.000000
tan 0.972658 -0.103788 0.221030 1.000000
tan 0.972658 -0.103788 0.221030 1.000000
tan 0.971914 -0.121086 0.211420 1.000000
tan 0.971914 -0.121086 0.211420 1.000000
tan 0.972596 -0.140306 0.199888 1.000000
tan 0.972596 -0.140306 0.199888 1.000000
tan 0.966954 -0.157604 0.186434 1.000000
tan 0.966954 -0.157604 0.186434 1.000000
tan 0.970922 -0.172980 0.172980 1.000000
tan 0.970922 -0.172980 0.172980 1.000000
tan 0.966954 -0.186434 0.157604 1.000000
tan 0.966954 -0.186434 0.157604 1.000000
tan 0.972596 -0.199888 0.140306 1.000000
tan 0.972596 -0.199888 0.140306 1.000000
tan 0.971914 -0.211420 0.121086 1.000000
tan 0.975758 -0.211420 0.123008 1.000000
tan 0.972658 -0.221030 0.103788 1.000000
tan 0.972658 -0.221030 0.103788 1.000000
tan 0.967822 -0.228718 0.082646 1.000000
tan 0.967822 -0.228718 0.082646 1.000000
tan 0.972968 -0.236406 0.063426 1.000000
tan 0.972968 -0.236406 0.063426 1.000000
tan 0.966396 -0.240250 0.042284 1.000000
tan 0.966396 -0.240250 0.042284 1.000000
tan 0.976006 -0.244094 0.021142 1.000000
tan 0.976006 -0.244094 0.021142 1.000000
tan 0.968504 -0.244094 0.007626 1.000000
tan 0.968504 -0.244094 0.007626 1.000000
f 3/3/3 2/2/2 1/1/1
f 4/4/4 1/1/1 2/2/2
f 2/2/2 5/5/5 4/4/4
f 6/6/6 4/4/4 5/5/5
f 5/5/5 7/7/7 6/6/6
f 8/8/8 6/6/6 7/7/7
f 7/7/7 9/9/9 8/8/8
f 10/10/10 8/8/8 9/9/9
f 9/9/9 11/11/11 10/10/10
f 12/12/12 10/10/10 11/11/11
f 11/11/11 13/13/13 12/12/12
f 14/14/14 12/12/12 13/13/13
f 13/13/13 15/15/15 14/14/14
f 16/16/16 14/14/14 15/15/15
f 15/15/15 17/17/17 16/16/16
f 18/18/18 16/16/16 17/17/17
f 17/17/17 19/19/19 18/18/18
f 20/20/20 18/18/18 19/19/19
f 20/20/20 19/19/19 21/21/21
f 22/22/22 21/21/21 19/19/19
f 21/21/21 22/22/22 23/23/23
f 24/24/24 23/23/23 22/22/22
f 23/23/23 24/24/24 25/25/25
f 26/26/26 25/25/25 24/24/24
f 25/25/25 26/26/26 27/27/27
f 28/28/28 27/27/27 26/26/26
f 27/27/27 28/28/28 29/29/29
f 30/30/30 29/29/29 28/28/28
f 29/29/29 30/30/30 31/31/31
f 32/32/32 31/31/31 30/30/30
f 31/31/31 32/32/32 33/33/33
f 34/34/34 33/33/33 32/32/32
f 33/33/33 34/34/34 35/35/35
f 36/36/36 35/35/35 34/34/34
f 35/35/35 36/36/36 37/37/37
f 38/38/38 37/37/37 36/36/36
f 38/38/38 39/39/39 37/37/37
f 40/40/40 37/37/37 39/39/39
f 39/39/39 41/41/41 40/40/40
f 42/42/42 40/40/40 41/41/41
f 41/41/41 43/43/43 42/42/42
f 44/44/44 42/42/42 43/43/43
f 43/43/43 45/45/45 44/44/44
f 46/46/46 44/44/44 45/45/45
f 45/45/45 47/47/47 46/46/46
f 48/48/48 46/46/46 47/47/47
f 47/47/47 49/49/49 48/48/48
f 50/50/50 48/48/48 49/49/49
f 49/49/49 51/51/51 50/50/50
f 52/52/52 50/50/50 51/51/51
f 51/51/51 53/53/53 52/52/52
f 54/54/54 52/52/52 53/53/53
f 53/53/53 55/55/55 54/54/54
f 56/56/56 54/54/54 55/55/55
f 56/56/56 55/55/55 57/57/57
f 58/58/58 57/57/57 55/55/55
f 57/57/57 58/58/58 59/59/59
f 60/60/60 59/59/59 58/58/58
f 59/59/59 60/60/60 61/61/61
f 62/62/62 61/61/61 60/60/60
f 61/61/61 62/62/62 63/63/63
f 64/64/64 63/63/63 62/62/62
f 63/63/63 64/64/64 65/65/65
f 66/66/66 65/65/65 64/64/64
f 65/65/65 66/66/66 67/67/67
f 68/68/68 67/67/67 66/66/66
f 67/67/67 68/68/68 69/69/69
f 70/70/70 69/69/69 68/68/68
f 69/69/69 70/70/70 71/71/71
f 72/72/72 71/71/71 70/70/70
f 71/71/71 72/72/72 73/73/73
f 74/74/74 73/73/73 72/72/72
f 74/74/74 75/75/75 73/73/73
f 76/76/76 73/73/73 75/75/75
f 75/75/75 77/77/77 76/76/76
f 78/78/78 76/76/76 77/77/77
f 77/77/77 79/79/79 78/78/78
f 80/80/80 78/78/78 79/79/79
f 79/79/79 81/81/81 80/80/80
f 82/82/82 80/80/80 81/81/81
f 81/81/81 83/83/83 82/82/82
f 84/84/84 82/82/82 83/83/83
f 83/83/83 85/85/85 84/84/84
f 86/86/86 84/84/84 85/85/85
f 85/85/85 87/87/87 86/86/86
f 88/88/88 86/86/86 87/87/87
f 87/87/87 89/89/89 88/88/88
f 90/90/90 88/88/88 89/89/89
f 89/89/89 91/91/91 90/90/90
f 92/92/92 90/90/90 91/91/91
f 92/92/92 91/91/91 93/93/93
f 94/94/94 93/93/93 91/91/91
f 93/93/93 94/94/94 95/95/95
f 96/96/96 95/95/95 94/94/94
f 95/95/95 96/96/96 97/97/97
f 98/98/98 97/97/97 96/96/96
f 97/97/97 98/98/98 99/99/99
f 100/100/100 99/99/99 98/98/98
f 99/99/99 100/100/100 101/101/101
f 102/102/102 101/101/101 100/100/100
f 101/101/101 102/102/102 103/103/103
f 104/104/104 103/103/103 102/102/102
f 103/103/103 104/104/104 105/105/105
f 106/106/106 105/105/105 104/104/104
f 105/105/105 106/106/106 107/107/107
f 108/108/108 107/107/107 106/106/106
f 107/107/107 108/108/108 109/109/109
f 110/110/110 109/109/109 108/108/108
f 110/110/110 111/111/111 109/109/109
f 112/112/112 109/109/109 111/111/111
f 111/111/111 113/113/113 112/112/112
f 114/114/114 112/112/112 113/113/113
f 113/113/113 115/115/115 114/114/114
f 116/116/116 114/114/114 115/115/115
f 115/115/115 117/117/117 116/116/116
f 118/118/118 116/116/116 117/117/117
f 117/117/117 119/119/119 118/118/118
f 120/120/120 118/118/118 119/119/119
f 119/119/119 121/121/121 120/120/120
f 122/122/122 120/120/120 121/121/121
f 121/121/121 123/123/123 122/122/122
f 124/124/124 122/122/122 123/123/123
f 123/123/123 125/125/125 124/124/124
f 126/126/126 124/124/124 125/125/125
f 125/125/125 127/127/127 126/126/126
f 128/128/128 126/126/126 127/127/127
f 128/128/128 127/127/127 129/129/129
f 130/130/130 129/129/129 127/127/127
f 129/129/129 130/130/130 131/131/131
f 132/132/132 131/131/131 130/130/130
f 131/131/131 132/132/132 133/133/133
f 134/134/134 133/133/133 132/132/132
f 133/133/133 134/134/134 135/135/135
f 136/136/136 135/135/135 134/134/134
f 135/135/135 136/136/136 137/137/137
f 138/138/138 137/137/137 136/136/136
f 137/137/137 138/138/138 139/139/139
f 140/140/140 139/139/139 138/138/138
f 139/139/139 140/140/140 141/141/141
f 142/142/142 141/141/141 140/140/140
f 141/141/141 142/142/142 143/143/143
f 144/144/144 143/143/143 142/142/142
f 143/143/143 144/144/144 145/145/145
f 146/146/146 145/145/145 144/144/144
