mtllib SM_Horizon_01.mtl
g SM_Horizon_01
#Vertices 34
#Indices 96
#Section 0 Offset 0 NumIndices 96 MaterialIndex 0 MI_Horizon_01
v 281.440613 24.734093 -20.419985
v 320.640808 -25.599997 -27.226635
v 320.640808 24.734093 -27.226641
v 281.440613 -25.599997 -20.419975
v 242.240402 24.734093 -13.613323
v 242.240402 -25.599997 -13.613316
v 203.040192 24.734095 -6.806664
v 203.040192 -25.599995 -6.806655
v 163.839996 -25.599995 0.000004
v 163.839996 24.734095 -0.000004
v 122.879997 -25.599995 0.000004
v 122.879997 24.734095 -0.000004
v 81.919998 -25.599995 0.000004
v 81.919998 24.734095 -0.000004
v 40.959999 -25.599995 0.000004
v 40.959999 24.734095 -0.000004
v 0.000000 -25.599995 0.000004
v 0.000000 24.734095 -0.000004
v -40.959999 -25.599995 0.000004
v -40.959999 24.734095 -0.000004
v -81.919998 -25.599995 0.000004
v -81.919998 24.734095 -0.000004
v -122.879997 -25.599995 0.000004
v -122.879997 24.734095 -0.000004
v -163.839996 -25.599995 0.000004
v -163.839996 24.734095 -0.000004
v -207.025040 24.734093 -8.749261
v -207.025040 -25.599997 -8.749252
v -250.210068 24.734093 -17.498518
v -250.210068 -25.599997 -17.498508
v -293.395111 24.734091 -26.247770
v -293.395111 -25.599998 -26.247765
v -336.580139 -25.599998 -34.997025
v -336.580139 24.734089 -34.997028
vt 1.185547 0.983093
vt 1.281250 0.000488
vt 1.281250 0.983093
vt 1.185547 0.000488
vt 1.089844 0.983093
vt 1.089844 0.000000
vt 0.995117 0.983093
vt 0.995117 0.000000
vt 0.899902 0.000000
vt 0.899902 0.983093
vt 0.799805 0.000000
vt 0.799805 0.983093
vt 0.699707 0.000000
vt 0.699707 0.983093
vt 0.599609 0.000000
vt 0.599609 0.983093
vt 0.500000 0.000000
vt 0.500000 0.983093
vt 0.399902 0.000000
vt 0.399902 0.983093
vt 0.299805 0.000000
vt 0.299805 0.983093
vt 0.199951 0.000000
vt 0.199951 0.983093
vt 0.099976 0.000000
vt 0.099976 0.983093
vt -0.004883 0.983093
vt -0.004883 0.000000
vt -0.109741 0.983093
vt -0.109741 0.000000
vt -0.214600 0.983093
vt -0.214600 0.000488
vt -0.319336 0.000488
vt -0.319336 0.983093
vt1 0.922363 0.093262
vt1 0.979980 0.020020
vt1 0.979980 0.093262
vt1 0.922363 0.020020
vt1 0.864746 0.093262
vt1 0.864746 0.020020
vt1 0.807129 0.093262
vt1 0.807129 0.020020
vt1 0.749512 0.020020
vt1 0.749512 0.093262
vt1 0.689941 0.020020
vt1 0.689941 0.093262
vt1 0.630859 0.020020
vt1 0.630859 0.093262
vt1 0.571289 0.020020
vt1 0.571289 0.093262
vt1 0.512207 0.020020
vt1 0.512207 0.093262
vt1 0.452881 0.020020
vt1 0.452881 0.093262
vt1 0.393555 0.020020
vt1 0.393555 0.093262
vt1 0.334473 0.020020
vt1 0.334473 0.093262
vt1 0.275146 0.020020
vt1 0.275146 0.093262
vt1 0.211304 0.093262
vt1 0.211304 0.020020
vt1 0.147583 0.093262
vt1 0.147583 0.020020
vt1 0.083740 0.093262
vt1 0.083740 0.020020
vt1 0.019989 0.020020
vt1 0.019989 0.093262
vn -0.173228 -0.000000 -0.984252
vn -0.173228 -0.000000 -0.984252
vn -0.173228 -0.000000 -0.984252
vn -0.173228 -0.000000 -0.984252
vn -0.173228 -0.000000 -0.984252
vn -0.173228 -0.000000 -0.984252
vn -0.173228 -0.000000 -0.984252
vn -0.173228 -0.000000 -0.984252
vn -0.086614 -0.000000 -1.000000
vn -0.086614 -0.000000 -1.000000
vn 0.000000 -0.000000 -1.000000
vn 0.000000 -0.000000 -1.000000
vn 0.000000 -0.000000 -1.000000
vn 0.000000 -0.000000 -1.000000
vn 0.000000 -0.000000 -1.000000
vn 0.000000 -0.000000 -1.000000
vn 0.000000 -0.000000 -1.000000
vn 0.000000 -0.000000 -1.000000
vn 0.000000 -0.000000 -1.000000
vn 0.000000 -0.000000 -1.000000
vn 0.000000 -0.000000 -1.000000
vn 0.000000 -0.000000 -1.000000
vn 0.000000 -0.000000 -1.000000
vn 0.000000 -0.000000 -1.000000
vn 0.102362 -0.000000 -0.992126
vn 0.102362 -0.000000 -0.992126
vn 0.196850 -0.000000 -0.976378
vn 0.196850 -0.000000 -0.976378
vn 0.196850 -0.000000 -0.976378
vn 0.196850 -0.000000 -0.976378
vn 0.196850 -0.000000 -0.976378
vn 0.196850 -0.000000 -0.976378
vn 0.196850 -0.000000 -0.976378
vn 0.196850 -0.000000 -0.976378
tan 0.000000 -0.998760 0.000000 1.000000
tan 0.000000 -0.998760 0.000000 1.000000
tan 0.000000 -0.998760 0.000000 1.000000
tan 0.000000 -0.998760 0.000000 1.000000
tan 0.000000 -0.998760 0.000000 1.000000
tan 0.000000 -0.998760 0.000000 1.000000
tan 0.000000 -0.998760 0.000000 1.000000
tan 0.000000 -0.998760 0.000000 1.000000
tan 0.000000 -1.007502 0.000000 1.000000
tan 0.000000 -1.007502 0.000000 1.000000
tan 0.000000 -1.000000 0.000000 1.000000
tan 0.000000 -1.000000 0.000000 1.000000
tan 0.000000 -1.000000 0.000000 1.000000
tan 0.000000 -1.000000 0.000000 1.000000
tan 0.000000 -1.000000 0.000000 1.000000
tan 0.000000 -1.000000 0.000000 1.000000
tan 0.000000 -1.000000 0.000000 1.000000
tan 0.000000 -1.000000 0.000000 1.000000
tan 0.000000 -1.000000 0.000000 1.000000
tan 0.000000 -1.000000 0.000000 1.000000
tan 0.000000 -1.000000 0.000000 1.000000
tan 0.000000 -1.000000 0.000000 1.000000
tan 0.000000 -1.000000 0.000000 1.000000
tan 0.000000 -1.000000 0.000000 1.000000
tan 0.000000 -0.994792 0.000000 1.000000
tan 0.000000 -0.994792 0.000000 1.000000
tan 0.000000 -0.992064 0.000000 1.000000
tan 0.000000 -0.992064 0.000000 1.000000
tan 0.000000 -0.992064 0.000000 1.000000
tan 0.000000 -0.992064 0.000000 1.000000
tan 0.000000 -0.992064 0.000000 1.000000
tan 0.000000 -0.992064 0.000000 1.000000
tan 0.000000 -0.992064 0.000000 1.000000
tan 0.000000 -0.992064 0.000000 1.000000
f 3/3/3 2/2/2 1/1/1
f 4/4/4 1/1/1 2/2/2
f 1/1/1 4/4/4 5/5/5
f 6/6/6 5/5/5 4/4/4
f 5/5/5 6/6/6 7/7/7
f 8/8/8 7/7/7 6/6/6
f 8/8/8 9/9/9 7/7/7
f 9/9/9 10/10/10 7/7/7
f 9/9/9 11/11/11 10/10/10
f 11/11/11 12/12/12 10/10/10
f 11/11/11 13/13/13 12/12/12
f 13/13/13 14/14/14 12/12/12
f 13/13/13 15/15/15 14/14/14
f 15/15/15 16/16/16 14/14/14
f 15/15/15 17/17/17 16/16/16
f 17/17/17 18/18/18 16/16/16
f 17/17/17 19/19/19 18/18/18
f 19/19/19 20/20/20 18/18/18
f 19/19/19 21/21/21 20/20/20
f 21/21/21 22/22/22 20/20/20
f 21/21/21 23/23/23 22/22/22
f 23/23/23 24/24/24 22/22/22
f 23/23/23 25/25/25 24/24/24
f 25/25/25 26/26/26 24/24/24
f 26/26/26 25/25/25 27/27/27
f 28/28/28 27/27/27 25/25/25
f 27/27/27 28/28/28 29/29/29
f 30/30/30 29/29/29 28/28/28
f 29/29/29 30/30/30 31/31/31
f 32/32/32 31/31/31 30/30/30
f 32/32/32 33/33/33 31/31/31
f 33/33/33 34/34/34 31/31/31
