mtllib SM_Ketchup_01_LOD1.mtl
g SM_Ketchup_01_LOD1
#Vertices 480
#Indices 1659
#Section 0 Offset 0 NumIndices 1659 MaterialIndex 0 MI_Small_Props_01
v 0.001613 0.252144 -0.000490
v 0.001823 0.252809 0.000259
v 0.001028 0.252793 -0.001188
v 0.000741 0.252506 0.001675
v 0.001420 0.252144 0.001102
v -0.000505 0.253027 -0.001549
v 0.000413 0.252144 -0.001553
v -0.000914 0.252825 0.001566
v 0.000000 0.252144 0.001847
v -0.001144 0.252144 -0.001169
v -0.001594 0.252812 -0.000337
v -0.001508 0.252045 0.001027
v -0.008993 0.197505 -0.025122
v -0.009914 0.211315 -0.026018
v -0.010261 0.196831 -0.026720
v -0.003768 0.197505 -0.026410
v -0.003389 0.196831 -0.028414
v -0.003445 0.211062 -0.027650
v -0.015881 0.211315 -0.022886
v -0.015666 0.197505 -0.021619
v -0.016262 0.196831 -0.023571
v -0.019695 0.197505 -0.018051
v -0.021560 0.196831 -0.018877
v -0.020926 0.211315 -0.018417
v -0.025884 0.197505 -0.006817
v -0.027144 0.211315 -0.006568
v -0.027920 0.196831 -0.006681
v -0.023976 0.197505 -0.011848
v -0.025410 0.196831 -0.013300
v -0.024906 0.211026 -0.012819
v -0.027957 0.211315 0.000122
v -0.026793 0.197505 0.000665
v -0.028737 0.196831 0.000047
v -0.026144 0.197505 0.006007
v -0.027884 0.196831 0.007073
v -0.027144 0.211315 0.006813
v -0.024755 0.211315 0.013114
v -0.023471 0.197505 0.013054
v -0.025480 0.196831 0.013410
v -0.020414 0.197505 0.017483
v -0.021460 0.196831 0.019235
v -0.021127 0.210894 0.018673
v -0.015881 0.211315 0.023130
v -0.014773 0.197505 0.022480
v -0.016387 0.196831 0.023729
v -0.010008 0.197505 0.024981
v -0.010119 0.196831 0.027019
v -0.009914 0.211315 0.026262
v 0.002691 0.197505 0.026785
v 0.003302 0.211075 0.027932
v 0.003539 0.196831 0.028641
v -0.002691 0.197505 0.026785
v -0.003539 0.196831 0.028641
v -0.003370 0.211315 0.027875
v 0.014773 0.197505 0.022480
v 0.015881 0.211315 0.023130
v 0.016387 0.196831 0.023729
v 0.010008 0.197505 0.024981
v 0.010119 0.196831 0.027019
v 0.009914 0.211315 0.026262
v 0.020926 0.211315 0.018661
v 0.020414 0.197505 0.017483
v 0.021460 0.196831 0.019235
v 0.023471 0.197505 0.013054
v 0.025481 0.196831 0.013410
v 0.024782 0.210936 0.013198
v 0.027144 0.211315 0.006813
v 0.026144 0.197505 0.006007
v 0.027884 0.196831 0.007073
v 0.026793 0.197505 0.000665
v 0.028737 0.196831 0.000047
v 0.028088 0.210892 0.000217
v 0.027144 0.211315 -0.006568
v 0.025884 0.197505 -0.006817
v 0.027920 0.196831 -0.006681
v 0.023976 0.197505 -0.011848
v 0.025410 0.196831 -0.013299
v 0.024755 0.211315 -0.012870
v 0.015667 0.197505 -0.021619
v 0.015916 0.211505 -0.022880
v 0.016262 0.196831 -0.023571
v 0.019695 0.197505 -0.018051
v 0.021560 0.196831 -0.018877
v 0.020926 0.211315 -0.018417
v 0.003768 0.197505 -0.026410
v 0.003370 0.211315 -0.027631
v 0.003389 0.196831 -0.028414
v 0.008993 0.197505 -0.025122
v 0.010261 0.196831 -0.026720
v 0.009845 0.210973 -0.026178
v 0.000000 0.252144 0.001847
v 0.000000 0.216009 0.006186
v -0.000914 0.252825 0.001566
v -0.002818 0.216009 0.005491
v -0.001508 0.252045 0.001027
v -0.004990 0.216009 0.003567
v -0.006019 0.216009 0.000853
v -0.001594 0.252812 -0.000337
v -0.005670 0.216009 -0.002028
v -0.001144 0.252144 -0.001169
v -0.004021 0.216009 -0.004417
v -0.001451 0.216009 -0.005765
v -0.000505 0.253027 -0.001549
v 0.000413 0.252144 -0.001553
v 0.001451 0.216009 -0.005765
v 0.001028 0.252793 -0.001188
v 0.004021 0.216009 -0.004417
v 0.005670 0.216009 -0.002028
v 0.001613 0.252144 -0.000490
v 0.006020 0.216009 0.000853
v 0.001823 0.252809 0.000259
v 0.001420 0.252144 0.001102
v 0.004990 0.216009 0.003567
v 0.002818 0.216009 0.005491
v 0.000741 0.252506 0.001675
v 0.000000 0.216009 0.006186
v 0.000000 0.252144 0.001847
v -0.028049 0.193431 -0.006791
v -0.027001 0.193352 0.000122
v -0.026216 0.193352 -0.006340
v -0.028946 0.193410 0.003536
v -0.025426 0.193349 0.009765
v -0.025580 0.193431 0.013547
v -0.019277 0.193453 0.021843
v -0.018577 0.193355 0.020076
v -0.009575 0.193352 0.025369
v -0.010244 0.193431 0.027134
v -0.000103 0.193401 0.029267
v 0.000000 0.193355 0.027315
v 0.009575 0.193352 0.025369
v 0.010244 0.193431 0.027134
v 0.019274 0.193453 0.021842
v 0.018032 0.193355 0.020477
v 0.025576 0.193351 0.009820
v 0.025580 0.193431 0.013547
v 0.028946 0.193410 0.003534
v 0.026995 0.193352 -0.003155
v 0.028049 0.193431 -0.006791
v 0.023908 0.193352 -0.012426
v 0.023883 0.193455 -0.016382
v 0.018032 0.193355 -0.020232
v 0.016411 0.193431 -0.023653
v 0.009575 0.193352 -0.025124
v 0.006876 0.193410 -0.028201
v 0.000000 0.193349 -0.027071
v -0.007096 0.193451 -0.028225
v -0.009575 0.193352 -0.025124
v -0.019182 0.193470 -0.021680
v -0.018033 0.193352 -0.020232
v -0.025580 0.193431 -0.013303
v -0.023908 0.193352 -0.012426
v -0.028049 0.193431 -0.006791
v -0.026216 0.193352 -0.006340
v -0.000933 0.246548 -0.000522
v -0.000505 0.253027 -0.001549
v 0.000000 0.246548 -0.001011
v -0.001594 0.252812 -0.000337
v -0.001060 0.246548 0.000524
v -0.000914 0.252825 0.001566
v -0.000100 0.246310 0.001279
v 0.000741 0.252506 0.001675
v 0.001060 0.246548 0.000524
v 0.001823 0.252809 0.000259
v 0.000933 0.246548 -0.000522
v 0.001028 0.252793 -0.001188
v 0.000000 0.246548 -0.001011
v -0.000505 0.253027 -0.001549
v -0.000100 0.246310 0.001279
v 0.000933 0.246548 -0.000522
v 0.001060 0.246548 0.000524
v -0.001060 0.246548 0.000524
v 0.000000 0.246548 -0.001011
v -0.000933 0.246548 -0.000522
v 0.016945 -0.000000 -0.029514
v 0.031930 -0.000000 -0.011656
v 0.026012 -0.000000 -0.021906
v 0.033985 0.000000 0.000000
v 0.026012 0.000000 0.021906
v 0.031930 0.000000 0.011656
v 0.016945 0.000000 0.029514
v -0.006012 0.000000 0.033562
v 0.005823 0.000000 0.033562
v -0.017134 0.000000 0.029514
v -0.034174 0.000000 0.000000
v -0.026201 0.000000 0.021906
v -0.032119 0.000000 0.011656
v -0.017134 -0.000000 -0.029514
v -0.032119 -0.000000 -0.011656
v -0.026201 -0.000000 -0.021906
v 0.005823 -0.000000 -0.033562
v -0.006012 -0.000000 -0.033562
v 0.016411 0.193431 -0.023653
v 0.021560 0.196831 -0.018877
v 0.016262 0.196831 -0.023571
v 0.023883 0.193455 -0.016382
v 0.025410 0.196831 -0.013299
v 0.028049 0.193431 -0.006791
v 0.020926 0.211315 -0.018417
v 0.027920 0.196831 -0.006681
v 0.024755 0.211315 -0.012870
v 0.028946 0.193410 0.003534
v 0.023734 0.213414 -0.014339
v 0.028737 0.196831 0.000047
v 0.027144 0.211315 -0.006568
v 0.023976 0.197505 -0.011848
v 0.025884 0.197505 -0.006817
v 0.027884 0.196831 0.007073
v 0.028088 0.210892 0.000217
v 0.025481 0.196831 0.013410
v 0.025580 0.193431 0.013547
v 0.021460 0.196831 0.019235
v 0.019274 0.193453 0.021842
v 0.024782 0.210936 0.013198
v 0.016387 0.196831 0.023729
v 0.027144 0.211315 0.006813
v 0.010244 0.193431 0.027134
v 0.020926 0.211315 0.018661
v 0.010119 0.196831 0.027019
v 0.015881 0.211315 0.023130
v -0.000103 0.193401 0.029267
v 0.015884 0.214053 0.022709
v 0.003539 0.196831 0.028641
v 0.009914 0.211315 0.026262
v 0.020414 0.197505 0.017483
v 0.023471 0.197505 0.013054
v 0.014773 0.197505 0.022480
v 0.010008 0.197505 0.024981
v 0.023004 0.213546 0.015189
v 0.026826 0.213994 0.006992
v 0.003302 0.211075 0.027932
v 0.006301 0.213532 0.026914
v -0.002083 0.214026 0.027420
v -0.010259 0.214049 0.025634
v -0.003539 0.196831 0.028641
v -0.010119 0.196831 0.027019
v -0.010244 0.193431 0.027134
v -0.009914 0.211315 0.026262
v -0.016387 0.196831 0.023729
v -0.003370 0.211315 0.027875
v -0.019277 0.193453 0.021843
v 0.002691 0.197505 0.026785
v -0.002691 0.197505 0.026785
v -0.014773 0.197505 0.022480
v -0.010008 0.197505 0.024981
v -0.015881 0.211315 0.023130
v -0.021127 0.210894 0.018673
v -0.018105 0.213386 0.020849
v -0.023248 0.214008 0.014473
v -0.021460 0.196831 0.019235
v -0.025580 0.193431 0.013547
v -0.025480 0.196831 0.013410
v -0.027552 0.213722 0.003665
v -0.028946 0.193410 0.003536
v -0.027884 0.196831 0.007073
v -0.024755 0.211315 0.013114
v -0.028737 0.196831 0.000047
v -0.027144 0.211315 0.006813
v -0.027920 0.196831 -0.006681
v -0.028049 0.193431 -0.006791
v -0.020414 0.197505 0.017483
v -0.023471 0.197505 0.013054
v -0.025410 0.196831 -0.013300
v -0.025580 0.193431 -0.013303
v -0.027144 0.211315 -0.006568
v -0.021560 0.196831 -0.018877
v -0.019182 0.193470 -0.021680
v -0.027957 0.211315 0.000122
v -0.016262 0.196831 -0.023571
v -0.020926 0.211315 -0.018417
v -0.007096 0.193451 -0.028225
v -0.024906 0.211026 -0.012819
v -0.010261 0.196831 -0.026720
v -0.015881 0.211315 -0.022886
v -0.003389 0.196831 -0.028414
v -0.009914 0.211315 -0.026018
v 0.006876 0.193410 -0.028201
v -0.019695 0.197505 -0.018051
v -0.015666 0.197505 -0.021619
v 0.003389 0.196831 -0.028414
v -0.016265 0.213855 -0.022298
v 0.003370 0.211315 -0.027631
v 0.010261 0.196831 -0.026720
v -0.003445 0.211062 -0.027650
v 0.016262 0.196831 -0.023571
v 0.016411 0.193431 -0.023653
v 0.015916 0.211505 -0.022880
v 0.009845 0.210973 -0.026178
v 0.015526 0.213605 -0.022369
v 0.005777 0.213534 -0.026897
v -0.006284 0.213556 -0.026697
v 0.008993 0.197505 -0.025122
v 0.003768 0.197505 -0.026410
v -0.008993 0.197505 -0.025122
v -0.003768 0.197505 -0.026410
v -0.023031 0.213531 -0.014890
v -0.026757 0.214064 -0.005799
v -0.023976 0.197505 -0.011848
v -0.025884 0.197505 -0.006817
v -0.026144 0.197505 0.006007
v -0.026793 0.197505 0.000665
v 0.019695 0.197505 -0.018051
v 0.015916 0.211505 -0.022880
v 0.015667 0.197505 -0.021619
v 0.015526 0.213605 -0.022369
v 0.027358 0.213558 -0.003089
v 0.026144 0.197505 0.006007
v 0.026793 0.197505 0.000665
v 0.006301 0.213532 0.026914
v -0.002083 0.214026 0.027420
v 0.015884 0.214053 0.022709
v 0.023004 0.213546 0.015189
v 0.026826 0.213994 0.006992
v -0.000347 0.214093 0.011810
v -0.010259 0.214049 0.025634
v 0.010020 0.214115 0.004733
v -0.023248 0.214008 0.014473
v -0.018105 0.213386 0.020849
v -0.026757 0.214064 -0.005799
v -0.027552 0.213722 0.003665
v -0.009900 0.214100 0.005275
v 0.002818 0.216009 0.005491
v 0.000000 0.216009 0.006186
v 0.004990 0.216009 0.003567
v -0.002818 0.216009 0.005491
v 0.006020 0.216009 0.000853
v -0.004990 0.216009 0.003567
v -0.006019 0.216009 0.000853
v 0.010212 0.214094 -0.003751
v 0.005670 0.216009 -0.002028
v 0.004021 0.216009 -0.004417
v -0.009463 0.214121 -0.005526
v -0.005670 0.216009 -0.002028
v -0.004021 0.216009 -0.004417
v -0.017494 0.214094 -0.019149
v -0.023031 0.213531 -0.014890
v -0.016265 0.213855 -0.022298
v -0.002614 0.214094 -0.010482
v -0.001451 0.216009 -0.005765
v -0.001024 0.214085 -0.026441
v -0.006284 0.213556 -0.026697
v 0.005777 0.213534 -0.026897
v 0.004653 0.214124 -0.009675
v 0.001451 0.216009 -0.005765
v 0.020910 0.214109 -0.016800
v 0.015526 0.213605 -0.022369
v 0.027358 0.213558 -0.003089
v 0.023734 0.213414 -0.014339
v 0.018714 0.001403 0.032577
v 0.005823 0.000000 0.033562
v 0.006438 0.001403 0.037045
v 0.016945 0.000000 0.029514
v 0.006642 0.005613 0.038206
v 0.028722 0.001403 0.024179
v 0.026012 0.000000 0.021906
v 0.019303 0.005613 0.033598
v 0.006642 0.186998 0.038206
v 0.035254 0.001403 0.012866
v 0.031930 0.000000 0.011656
v 0.029625 0.005613 0.024937
v 0.037522 0.001403 -0.000000
v 0.033985 0.000000 0.000000
v 0.036361 0.005613 0.013269
v 0.038701 0.005613 -0.000000
v 0.035254 0.001403 -0.012866
v 0.031930 -0.000000 -0.011656
v 0.028722 0.001403 -0.024180
v 0.026012 -0.000000 -0.021906
v 0.036361 0.005613 -0.013269
v 0.018714 0.001403 -0.032577
v 0.016945 -0.000000 -0.029514
v 0.029625 0.005613 -0.024937
v 0.006438 0.001403 -0.037045
v 0.005823 -0.000000 -0.033562
v -0.006012 -0.000000 -0.033562
v 0.019303 0.005613 -0.033598
v 0.006642 0.005613 -0.038206
v -0.006627 0.001403 -0.037045
v -0.018903 0.001403 -0.032577
v -0.017134 -0.000000 -0.029514
v -0.006831 0.005613 -0.038206
v -0.028910 0.001403 -0.024179
v -0.026201 -0.000000 -0.021906
v -0.019492 0.005613 -0.033598
v -0.006831 0.186998 -0.038206
v -0.019492 0.186998 -0.033598
v -0.029814 0.005613 -0.024937
v -0.035443 0.001403 -0.012866
v -0.032119 -0.000000 -0.011656
v -0.036550 0.005613 -0.013269
v -0.037711 0.001403 0.000000
v -0.034174 0.000000 0.000000
v -0.038890 0.005613 0.000000
v -0.035443 0.001403 0.012866
v -0.032119 0.000000 0.011656
v -0.028910 0.001403 0.024179
v -0.026201 0.000000 0.021906
v -0.036550 0.005613 0.013269
v -0.018903 0.001403 0.032577
v -0.017134 0.000000 0.029514
v -0.029814 0.005613 0.024937
v -0.006627 0.001403 0.037045
v -0.006012 0.000000 0.033562
v 0.005823 0.000000 0.033562
v 0.006438 0.001403 0.037045
v 0.006642 0.005613 0.038206
v -0.006831 0.005613 0.038206
v 0.006642 0.186998 0.038206
v -0.019492 0.005613 0.033598
v -0.006831 0.186998 0.038206
v 0.006438 0.191208 0.037045
v -0.019492 0.186998 0.033598
v -0.029814 0.186998 0.024937
v -0.006627 0.191208 0.037045
v 0.005823 0.192611 0.033562
v -0.036550 0.186998 0.013269
v -0.006012 0.192611 0.033562
v 0.004402 0.193549 0.025501
v -0.004591 0.193549 0.025501
v -0.013042 0.193549 0.022425
v -0.018903 0.191208 0.032577
v -0.017134 0.192611 0.029514
v -0.028910 0.191208 0.024179
v -0.026201 0.192611 0.021906
v -0.019931 0.193549 0.016645
v -0.035443 0.191208 0.012866
v -0.032119 0.192611 0.011656
v -0.024427 0.193549 0.008856
v -0.038890 0.186998 -0.000000
v -0.037711 0.191208 -0.000000
v -0.034174 0.192611 -0.000000
v -0.025989 0.193549 -0.000000
v -0.035443 0.191208 -0.012866
v -0.036550 0.186998 -0.013269
v -0.032119 0.192611 -0.011656
v -0.024427 0.193549 -0.008856
v -0.029814 0.186998 -0.024937
v -0.028910 0.191208 -0.024180
v -0.026201 0.192611 -0.021906
v -0.019931 0.193549 -0.016645
v -0.018903 0.191208 -0.032577
v -0.017134 0.192611 -0.029514
v -0.013042 0.193549 -0.022425
v -0.006012 0.192611 -0.033562
v -0.004591 0.193549 -0.025501
v -0.006627 0.191208 -0.037045
v 0.006642 0.186998 -0.038206
v 0.006438 0.191208 -0.037045
v 0.005823 0.192611 -0.033562
v 0.004402 0.193549 -0.025501
v 0.012853 0.193549 -0.022425
v 0.018714 0.191208 -0.032577
v 0.019303 0.186998 -0.033598
v 0.016945 0.192611 -0.029514
v 0.019742 0.193549 -0.016645
v 0.028722 0.191208 -0.024180
v 0.029625 0.186998 -0.024937
v 0.026012 0.192611 -0.021906
v 0.031930 0.192611 -0.011656
v 0.024238 0.193549 -0.008857
v 0.025800 0.193549 -0.000000
v 0.036361 0.186998 -0.013269
v 0.035254 0.191208 -0.012866
v 0.033985 0.192611 -0.000000
v 0.024238 0.193549 0.008856
v 0.038701 0.186998 -0.000000
v 0.037522 0.191208 -0.000000
v 0.031930 0.192611 0.011656
v 0.019742 0.193549 0.016645
v 0.035254 0.191208 0.012866
v 0.026012 0.192611 0.021906
v 0.036361 0.186998 0.013269
v 0.028722 0.191208 0.024179
v 0.029625 0.186998 0.024937
v 0.019303 0.186998 0.033598
v 0.018714 0.191208 0.032577
v 0.006438 0.191208 0.037045
v 0.016945 0.192611 0.029514
v 0.005823 0.192611 0.033562
v 0.012853 0.193549 0.022425
v 0.004402 0.193549 0.025501
vt 0.320312 0.327148
vt 0.319824 0.327148
vt 0.320801 0.326660
vt 0.319092 0.326660
vt 0.319336 0.327148
vt 0.321045 0.326172
vt 0.321045 0.326172
vt 0.319092 0.325684
vt 0.318848 0.326172
vt 0.320801 0.325684
vt 0.320312 0.325195
vt 0.319336 0.325195
vt 0.951660 0.665283
vt 0.946777 0.658691
vt 0.952637 0.664795
vt 0.951660 0.668457
vt 0.952637 0.668945
vt 0.946777 0.675049
vt 0.951172 0.641113
vt 0.957520 0.645996
vt 0.957031 0.647217
vt 0.960938 0.645996
vt 0.961426 0.647217
vt 0.967285 0.641113
vt 0.302246 0.123535
vt 0.309082 0.118652
vt 0.302979 0.125000
vt 0.299072 0.123535
vt 0.298584 0.125000
vt 0.292725 0.119141
vt 0.248779 0.750854
vt 0.255371 0.755737
vt 0.254883 0.756836
vt 0.258545 0.755737
vt 0.259033 0.756836
vt 0.265137 0.750854
vt 0.433105 0.851807
vt 0.439697 0.856689
vt 0.439209 0.857910
vt 0.442871 0.856689
vt 0.443359 0.857910
vt 0.449219 0.852051
vt 0.281006 0.535889
vt 0.276123 0.542480
vt 0.274902 0.541992
vt 0.276123 0.545654
vt 0.274902 0.546143
vt 0.281006 0.552246
vt 0.693359 0.251465
vt 0.697754 0.257812
vt 0.691895 0.251953
vt 0.693359 0.248535
vt 0.691895 0.248047
vt 0.698242 0.241699
vt 0.645020 0.839722
vt 0.649902 0.846313
vt 0.643555 0.840210
vt 0.645020 0.836548
vt 0.643555 0.836060
vt 0.649902 0.829956
vt 0.462646 0.515381
vt 0.456055 0.510498
vt 0.456543 0.509521
vt 0.452881 0.510498
vt 0.452393 0.509521
vt 0.446533 0.515381
vt 0.756836 0.625244
vt 0.750000 0.620361
vt 0.750488 0.619141
vt 0.747070 0.620361
vt 0.746582 0.619141
vt 0.740723 0.625000
vt 0.936523 0.418945
vt 0.930176 0.414062
vt 0.930664 0.413086
vt 0.926758 0.414062
vt 0.926270 0.413086
vt 0.920410 0.418945
vt 0.257812 0.801392
vt 0.252930 0.794678
vt 0.259033 0.800903
vt 0.257812 0.804565
vt 0.259033 0.805054
vt 0.253174 0.811157
vt 0.753906 0.840942
vt 0.749023 0.834351
vt 0.754883 0.840454
vt 0.753906 0.844116
vt 0.754883 0.844604
vt 0.749512 0.850586
vt 0.290527 0.347168
vt 0.288086 0.325195
vt 0.291016 0.347168
vt 0.289551 0.325195
vt 0.291260 0.346680
vt 0.290771 0.325195
vt 0.291992 0.325195
vt 0.292725 0.347168
vt 0.292725 0.325195
vt 0.293701 0.346680
vt 0.293701 0.325195
vt 0.294434 0.325195
vt 0.294434 0.347168
vt 0.295410 0.346680
vt 0.295410 0.325195
vt 0.296143 0.347168
vt 0.296143 0.325195
vt 0.297119 0.325195
vt 0.297119 0.346680
vt 0.297852 0.325195
vt 0.297852 0.347168
vt 0.298584 0.346680
vt 0.299072 0.325195
vt 0.300293 0.325195
vt 0.298828 0.347168
vt 0.301758 0.325195
vt 0.299316 0.347168
vt 0.958496 0.918823
vt 0.954102 0.917969
vt 0.958008 0.917725
vt 0.952148 0.919189
vt 0.948242 0.917847
vt 0.946289 0.919006
vt 0.940430 0.918884
vt 0.940430 0.917969
vt 0.934082 0.917908
vt 0.934082 0.919006
vt 0.928223 0.918945
vt 0.928223 0.917969
vt 0.922363 0.917908
vt 0.922363 0.919006
vt 0.916504 0.918884
vt 0.916504 0.917969
vt 0.908203 0.917908
vt 0.910156 0.919006
vt 0.904297 0.919128
vt 0.900391 0.917908
vt 0.898438 0.919006
vt 0.894531 0.917908
vt 0.892578 0.919006
vt 0.888672 0.917969
vt 0.886719 0.919006
vt 0.882324 0.917908
vt 0.880371 0.919128
vt 0.876465 0.917847
vt 0.872559 0.919067
vt 0.870605 0.917908
vt 0.864746 0.918945
vt 0.864258 0.917908
vt 0.858398 0.919067
vt 0.858398 0.917969
vt 0.854492 0.918823
vt 0.854492 0.917725
vt 0.284424 0.272461
vt 0.283691 0.276367
vt 0.283936 0.272461
vt 0.284424 0.276367
vt 0.284912 0.272461
vt 0.285400 0.276367
vt 0.285889 0.272461
vt 0.286133 0.275879
vt 0.286621 0.272461
vt 0.286865 0.276367
vt 0.287354 0.272461
vt 0.287598 0.276367
vt 0.288086 0.272461
vt 0.288330 0.276367
vt 0.938477 0.396973
vt 0.938965 0.395508
vt 0.938965 0.396484
vt 0.937988 0.396484
vt 0.938477 0.395508
vt 0.937988 0.395508
vt 0.707520 0.739258
vt 0.717285 0.727783
vt 0.713867 0.734375
vt 0.718750 0.719971
vt 0.713867 0.705811
vt 0.717285 0.712402
vt 0.707520 0.700928
vt 0.692871 0.698242
vt 0.700684 0.698242
vt 0.685547 0.700928
vt 0.674316 0.719971
vt 0.679688 0.705811
vt 0.675781 0.712402
vt 0.685547 0.739258
vt 0.675781 0.727783
vt 0.679688 0.734375
vt 0.700684 0.741943
vt 0.692871 0.741943
vt 0.854492 0.887207
vt 0.858887 0.889099
vt 0.854980 0.889221
vt 0.860840 0.887085
vt 0.862793 0.889099
vt 0.867188 0.887085
vt 0.858887 0.897644
vt 0.867188 0.889099
vt 0.862793 0.897644
vt 0.873047 0.887085
vt 0.861816 0.898865
vt 0.871094 0.889099
vt 0.867188 0.897644
vt 0.863281 0.889465
vt 0.866699 0.889465
vt 0.875000 0.889099
vt 0.871094 0.897461
vt 0.878906 0.889099
vt 0.878906 0.887085
vt 0.882812 0.889099
vt 0.884766 0.887085
vt 0.878906 0.897461
vt 0.887207 0.889099
vt 0.875000 0.897644
vt 0.891113 0.887024
vt 0.882812 0.897644
vt 0.891113 0.889038
vt 0.887207 0.897644
vt 0.896973 0.887024
vt 0.886719 0.899109
vt 0.895020 0.889038
vt 0.891113 0.897644
vt 0.882812 0.889465
vt 0.879395 0.889465
vt 0.887207 0.889465
vt 0.890625 0.889465
vt 0.880371 0.899048
vt 0.875000 0.899292
vt 0.895020 0.897461
vt 0.893066 0.898987
vt 0.898438 0.899231
vt 0.903320 0.899048
vt 0.898926 0.889038
vt 0.902832 0.889038
vt 0.902832 0.887024
vt 0.902832 0.897583
vt 0.907227 0.888977
vt 0.898926 0.897583
vt 0.909180 0.886963
vt 0.895508 0.889404
vt 0.898438 0.889404
vt 0.906738 0.889343
vt 0.903320 0.889404
vt 0.907227 0.897522
vt 0.911133 0.897339
vt 0.909180 0.898865
vt 0.914062 0.899170
vt 0.911133 0.888977
vt 0.915039 0.886963
vt 0.915039 0.888977
vt 0.920898 0.898804
vt 0.920898 0.886963
vt 0.918945 0.888977
vt 0.915039 0.897522
vt 0.923340 0.888977
vt 0.918945 0.897522
vt 0.927246 0.888977
vt 0.927246 0.886963
vt 0.911621 0.889343
vt 0.914551 0.889343
vt 0.931152 0.888977
vt 0.931152 0.886963
vt 0.927246 0.897522
vt 0.935059 0.888977
vt 0.937500 0.887024
vt 0.922852 0.897522
vt 0.939453 0.889099
vt 0.935059 0.897522
vt 0.945312 0.887329
vt 0.931152 0.897400
vt 0.943359 0.889221
vt 0.938965 0.897644
vt 0.947266 0.889465
vt 0.942871 0.897766
vt 0.953613 0.887817
vt 0.935547 0.889343
vt 0.938965 0.889465
vt 0.951660 0.889709
vt 0.938477 0.898987
vt 0.950684 0.898254
vt 0.955566 0.890076
vt 0.946777 0.897827
vt 0.959473 0.890442
vt 0.959961 0.888428
vt 0.958984 0.899109
vt 0.954590 0.898376
vt 0.958496 0.900391
vt 0.952148 0.899719
vt 0.944824 0.899292
vt 0.955078 0.890381
vt 0.952148 0.890137
vt 0.943848 0.889648
vt 0.946777 0.889832
vt 0.932617 0.898926
vt 0.926758 0.899231
vt 0.930664 0.889343
vt 0.927246 0.889343
vt 0.919434 0.889343
vt 0.922852 0.889343
vt 0.857422 0.889587
vt 0.854980 0.898254
vt 0.854492 0.889954
vt 0.855469 0.899536
vt 0.869141 0.899048
vt 0.874512 0.889465
vt 0.871582 0.889465
vt 0.767090 0.873047
vt 0.770020 0.876892
vt 0.761719 0.870117
vt 0.755371 0.869263
vt 0.750488 0.870483
vt 0.762207 0.881592
vt 0.772461 0.881409
vt 0.755371 0.879150
vt 0.771484 0.891541
vt 0.772949 0.886841
vt 0.763184 0.900391
vt 0.768066 0.897400
vt 0.762695 0.888489
vt 0.757812 0.882446
vt 0.759277 0.883545
vt 0.756348 0.882141
vt 0.759766 0.885010
vt 0.754883 0.882568
vt 0.759766 0.886658
vt 0.758789 0.888062
vt 0.750977 0.882080
vt 0.753418 0.883728
vt 0.752930 0.885254
vt 0.757324 0.892090
vt 0.757324 0.888855
vt 0.755859 0.888916
vt 0.753418 0.900696
vt 0.757812 0.901855
vt 0.751465 0.901245
vt 0.752441 0.890625
vt 0.754395 0.888245
vt 0.744141 0.895447
vt 0.746094 0.898071
vt 0.741699 0.892395
vt 0.750000 0.886841
vt 0.753418 0.886902
vt 0.741211 0.881653
vt 0.740234 0.886169
vt 0.745117 0.873779
vt 0.741211 0.879395
vt 0.432861 0.683838
vt 0.440918 0.681152
vt 0.441406 0.683838
vt 0.432861 0.681396
vt 0.441895 0.686279
vt 0.424561 0.683594
vt 0.424561 0.681152
vt 0.433105 0.686279
vt 0.440918 0.785034
vt 0.416260 0.683105
vt 0.416260 0.680664
vt 0.424561 0.685791
vt 0.407959 0.683105
vt 0.407959 0.680664
vt 0.416016 0.685547
vt 0.407715 0.685547
vt 0.399658 0.683105
vt 0.399658 0.680664
vt 0.391602 0.683105
vt 0.391602 0.680664
vt 0.399658 0.685547
vt 0.383545 0.683105
vt 0.383545 0.680664
vt 0.391602 0.685547
vt 0.375488 0.683105
vt 0.375488 0.680664
vt 0.367188 0.680664
vt 0.383545 0.685547
vt 0.375488 0.685547
vt 0.367188 0.683105
vt 0.359131 0.683105
vt 0.359131 0.680664
vt 0.367188 0.685547
vt 0.351074 0.683105
vt 0.351074 0.680664
vt 0.359131 0.685547
vt 0.367188 0.783569
vt 0.359131 0.783569
vt 0.351074 0.685547
vt 0.343018 0.683105
vt 0.343018 0.680664
vt 0.343018 0.685547
vt 0.334717 0.683105
vt 0.334717 0.680664
vt 0.334961 0.685547
vt 0.326660 0.683105
vt 0.326416 0.680664
vt 0.318115 0.683105
vt 0.318115 0.680908
vt 0.326660 0.685547
vt 0.309814 0.683594
vt 0.309814 0.681152
vt 0.318359 0.685547
vt 0.301270 0.683838
vt 0.301514 0.681396
vt 0.293457 0.681396
vt 0.292969 0.683838
vt 0.292480 0.686523
vt 0.301270 0.686279
vt 0.293945 0.785156
vt 0.309814 0.685791
vt 0.302490 0.784302
vt 0.294678 0.788330
vt 0.310791 0.783813
vt 0.318848 0.783569
vt 0.302979 0.786499
vt 0.296143 0.791016
vt 0.326904 0.783569
vt 0.303711 0.788818
vt 0.299072 0.795898
vt 0.305176 0.794067
vt 0.312012 0.793579
vt 0.311035 0.786011
vt 0.311523 0.788330
vt 0.319092 0.785889
vt 0.319336 0.788208
vt 0.319580 0.793457
vt 0.327148 0.785889
vt 0.327148 0.788208
vt 0.327393 0.793457
vt 0.334961 0.783569
vt 0.335205 0.785889
vt 0.335205 0.788208
vt 0.335205 0.793457
vt 0.343262 0.785889
vt 0.343018 0.783569
vt 0.343262 0.788208
vt 0.343262 0.793579
vt 0.351074 0.783569
vt 0.351318 0.785889
vt 0.351318 0.788208
vt 0.351318 0.793579
vt 0.359131 0.785889
vt 0.359375 0.788330
vt 0.359375 0.793579
vt 0.367188 0.788330
vt 0.367188 0.793579
vt 0.367188 0.785889
vt 0.375244 0.783569
vt 0.375244 0.785889
vt 0.375244 0.788330
vt 0.375244 0.793579
vt 0.383301 0.793579
vt 0.383301 0.785889
vt 0.383301 0.783569
vt 0.383301 0.788208
vt 0.391357 0.793579
vt 0.391357 0.785889
vt 0.391357 0.783569
vt 0.391357 0.788208
vt 0.399414 0.788208
vt 0.399414 0.793457
vt 0.407227 0.793457
vt 0.399658 0.783569
vt 0.399414 0.785889
vt 0.407471 0.788208
vt 0.415039 0.793457
vt 0.407715 0.783569
vt 0.407471 0.785889
vt 0.415283 0.788086
vt 0.422607 0.793457
vt 0.415527 0.785889
vt 0.423340 0.788208
vt 0.415771 0.783569
vt 0.423584 0.786011
vt 0.424072 0.783813
vt 0.432373 0.784180
vt 0.431885 0.786499
vt 0.439941 0.788208
vt 0.431152 0.788818
vt 0.438477 0.791016
vt 0.429688 0.794067
vt 0.435547 0.795898
vt1 0.886719 0.777100
vt1 0.887695 0.775635
vt1 0.887207 0.779297
vt1 0.891113 0.773682
vt1 0.889160 0.774170
vt1 0.889648 0.781372
vt1 0.888184 0.780518
vt1 0.894043 0.775879
vt1 0.892578 0.774170
vt1 0.891602 0.781372
vt1 0.893066 0.780029
vt1 0.894531 0.777466
vt1 0.341797 0.762695
vt1 0.358154 0.784912
vt1 0.337891 0.764282
vt1 0.341797 0.751953
vt1 0.337891 0.750244
vt1 0.357666 0.730225
vt1 0.277588 0.729736
vt1 0.261230 0.751953
vt1 0.257324 0.750244
vt1 0.261230 0.762695
vt1 0.257324 0.764404
vt1 0.277588 0.784912
vt1 0.769531 0.237305
vt1 0.791992 0.221191
vt1 0.771484 0.241211
vt1 0.758789 0.237305
vt1 0.757324 0.241211
vt1 0.737305 0.221680
vt1 0.784668 0.321777
vt1 0.762207 0.305664
vt1 0.764160 0.301758
vt1 0.751465 0.305664
vt1 0.750000 0.301758
vt1 0.729492 0.321777
vt1 0.863281 0.100098
vt1 0.846680 0.122559
vt1 0.842773 0.120605
vt1 0.846680 0.133301
vt1 0.842773 0.134766
vt1 0.862305 0.154785
vt1 0.660156 0.878052
vt1 0.637695 0.861816
vt1 0.639648 0.857910
vt1 0.626953 0.861816
vt1 0.625488 0.857910
vt1 0.604980 0.878052
vt1 0.861328 0.542969
vt1 0.877441 0.564941
vt1 0.857422 0.544678
vt1 0.861328 0.532471
vt1 0.857422 0.530762
vt1 0.877930 0.510254
vt1 0.798828 0.863159
vt1 0.821289 0.846924
vt1 0.800781 0.867065
vt1 0.788086 0.863159
vt1 0.786621 0.867065
vt1 0.766113 0.846924
vt1 0.509766 0.867065
vt1 0.487793 0.850830
vt1 0.489502 0.846924
vt1 0.477295 0.850830
vt1 0.475586 0.846924
vt1 0.455566 0.866577
vt1 0.899902 0.228516
vt1 0.883301 0.250488
vt1 0.879395 0.249023
vt1 0.883301 0.261230
vt1 0.879395 0.263184
vt1 0.898926 0.283203
vt1 0.345459 0.867065
vt1 0.323242 0.850830
vt1 0.324951 0.846924
vt1 0.312500 0.850830
vt1 0.310791 0.846924
vt1 0.290283 0.867065
vt1 0.447998 0.762695
vt1 0.464355 0.785156
vt1 0.444092 0.764282
vt1 0.447998 0.751953
vt1 0.444092 0.750244
vt1 0.464111 0.729736
vt1 0.528320 0.762695
vt1 0.544434 0.784912
vt1 0.524414 0.764282
vt1 0.528320 0.751953
vt1 0.524414 0.750244
vt1 0.543945 0.730225
vt1 0.162476 0.800171
vt1 0.154907 0.730469
vt1 0.163940 0.801270
vt1 0.159058 0.729980
vt1 0.165039 0.799805
vt1 0.163452 0.729736
vt1 0.166870 0.729736
vt1 0.169434 0.801270
vt1 0.169678 0.729736
vt1 0.172485 0.799927
vt1 0.172485 0.729736
vt1 0.175171 0.729736
vt1 0.174927 0.801636
vt1 0.177979 0.799927
vt1 0.177979 0.729736
vt1 0.180542 0.801270
vt1 0.180664 0.729736
vt1 0.183472 0.729736
vt1 0.183472 0.799927
vt1 0.186279 0.729736
vt1 0.186035 0.801270
vt1 0.188232 0.799927
vt1 0.189697 0.729736
vt1 0.194092 0.729980
vt1 0.189453 0.800781
vt1 0.198242 0.730469
vt1 0.190674 0.800171
vt1 0.554688 0.620605
vt1 0.539062 0.617432
vt1 0.553711 0.616211
vt1 0.531250 0.622070
vt1 0.516113 0.616943
vt1 0.508301 0.621338
vt1 0.485352 0.620850
vt1 0.486816 0.617188
vt1 0.462402 0.617188
vt1 0.462402 0.621338
vt1 0.439453 0.621338
vt1 0.439209 0.617188
vt1 0.416260 0.617188
vt1 0.416260 0.621338
vt1 0.393066 0.621094
vt1 0.393066 0.617188
vt1 0.362549 0.617188
vt1 0.370117 0.621338
vt1 0.346924 0.621826
vt1 0.332031 0.617188
vt1 0.324219 0.621338
vt1 0.308838 0.617188
vt1 0.301025 0.621338
vt1 0.285889 0.617188
vt1 0.278076 0.621338
vt1 0.262695 0.617188
vt1 0.254639 0.621826
vt1 0.239624 0.616943
vt1 0.224243 0.621582
vt1 0.216675 0.617188
vt1 0.193726 0.621094
vt1 0.193359 0.617188
vt1 0.170532 0.621582
vt1 0.170654 0.617432
vt1 0.154907 0.620605
vt1 0.155640 0.616211
vt1 0.195190 0.888916
vt1 0.207520 0.890869
vt1 0.195068 0.890564
vt1 0.207153 0.888306
vt1 0.195190 0.886719
vt1 0.207153 0.885132
vt1 0.194702 0.884155
vt1 0.206543 0.882996
vt1 0.195190 0.881165
vt1 0.207153 0.880615
vt1 0.195190 0.878967
vt1 0.207153 0.878296
vt1 0.195068 0.876831
vt1 0.207520 0.875793
vt1 0.887207 0.895142
vt1 0.892090 0.893494
vt1 0.890625 0.895508
vt1 0.886719 0.892395
vt1 0.891113 0.891296
vt1 0.888672 0.890808
vt1 0.683594 0.739990
vt1 0.724609 0.774048
vt1 0.701172 0.760498
vt1 0.750977 0.778687
vt1 0.800781 0.760498
vt1 0.777344 0.774048
vt1 0.817871 0.739990
vt1 0.827148 0.687744
vt1 0.827148 0.714600
vt1 0.817871 0.662354
vt1 0.750977 0.623535
vt1 0.800781 0.641846
vt1 0.777344 0.628418
vt1 0.683594 0.662354
vt1 0.724609 0.628418
vt1 0.701172 0.641846
vt1 0.674316 0.714600
vt1 0.674316 0.687744
vt1 0.323486 0.050293
vt1 0.338379 0.057129
vt1 0.323486 0.057617
vt1 0.345459 0.050293
vt1 0.352783 0.057129
vt1 0.367188 0.050293
vt1 0.338867 0.087891
vt1 0.367432 0.057129
vt1 0.353027 0.087891
vt1 0.388672 0.049805
vt1 0.349365 0.092285
vt1 0.381592 0.057129
vt1 0.367432 0.087891
vt1 0.354492 0.058594
vt1 0.365967 0.058594
vt1 0.395996 0.057129
vt1 0.381836 0.086914
vt1 0.410156 0.057129
vt1 0.410156 0.050293
vt1 0.424561 0.057129
vt1 0.431641 0.050293
vt1 0.410400 0.086914
vt1 0.438721 0.057129
vt1 0.395996 0.087891
vt1 0.453125 0.049805
vt1 0.424561 0.087891
vt1 0.453369 0.057129
vt1 0.438965 0.087891
vt1 0.474854 0.049805
vt1 0.438477 0.093262
vt1 0.467285 0.057129
vt1 0.453125 0.087891
vt1 0.423096 0.058594
vt1 0.411865 0.058594
vt1 0.440186 0.058594
vt1 0.451660 0.058594
vt1 0.416016 0.092773
vt1 0.396484 0.093750
vt1 0.467773 0.087402
vt1 0.460938 0.092773
vt1 0.479248 0.093262
vt1 0.497314 0.092773
vt1 0.481934 0.057129
vt1 0.496094 0.057129
vt1 0.496094 0.049805
vt1 0.496094 0.087402
vt1 0.510254 0.056641
vt1 0.481934 0.087402
vt1 0.517578 0.049805
vt1 0.468750 0.058594
vt1 0.480225 0.058594
vt1 0.508789 0.058105
vt1 0.497314 0.058105
vt1 0.510254 0.087402
vt1 0.524902 0.086426
vt1 0.517090 0.092285
vt1 0.534668 0.093262
vt1 0.524414 0.056641
vt1 0.539062 0.049805
vt1 0.539062 0.056641
vt1 0.560059 0.091797
vt1 0.560547 0.049805
vt1 0.553223 0.056641
vt1 0.539062 0.087402
vt1 0.567871 0.056641
vt1 0.553223 0.087402
vt1 0.582031 0.056641
vt1 0.582031 0.049805
vt1 0.526367 0.058105
vt1 0.537598 0.058105
vt1 0.596680 0.056641
vt1 0.596680 0.049805
vt1 0.582031 0.087402
vt1 0.610840 0.056641
vt1 0.618652 0.049805
vt1 0.567383 0.087402
vt1 0.625488 0.057129
vt1 0.610352 0.087402
vt1 0.647461 0.050781
vt1 0.595703 0.086914
vt1 0.640137 0.057617
vt1 0.624512 0.087891
vt1 0.654785 0.058594
vt1 0.638672 0.088379
vt1 0.676758 0.052734
vt1 0.612793 0.058105
vt1 0.624023 0.058594
vt1 0.668945 0.059570
vt1 0.623047 0.092773
vt1 0.666992 0.089844
vt1 0.684082 0.060547
vt1 0.652832 0.088379
vt1 0.698242 0.062012
vt1 0.699219 0.054688
vt1 0.695312 0.092773
vt1 0.681152 0.090332
vt1 0.694336 0.097656
vt1 0.671875 0.095215
vt1 0.645996 0.093750
vt1 0.682129 0.062012
vt1 0.670898 0.061035
vt1 0.641602 0.059082
vt1 0.652832 0.059570
vt1 0.601562 0.092285
vt1 0.580566 0.093262
vt1 0.594727 0.058105
vt1 0.583496 0.058105
vt1 0.554688 0.058105
vt1 0.565918 0.058105
vt1 0.333984 0.059082
vt1 0.324707 0.089844
vt1 0.322754 0.060059
vt1 0.325439 0.094727
vt1 0.374756 0.092773
vt1 0.394531 0.058594
vt1 0.383057 0.058594
vt1 0.771484 0.507568
vt1 0.753906 0.515137
vt1 0.788574 0.490723
vt1 0.797852 0.469238
vt1 0.799316 0.448730
vt1 0.745117 0.480957
vt1 0.735352 0.517822
vt1 0.761719 0.457031
vt1 0.698730 0.504639
vt1 0.714355 0.514404
vt1 0.674805 0.464355
vt1 0.680664 0.485352
vt1 0.719238 0.474609
vt1 0.746094 0.464355
vt1 0.741211 0.467773
vt1 0.749023 0.458496
vt1 0.734863 0.468750
vt1 0.749023 0.452148
vt1 0.729004 0.466309
vt1 0.724609 0.461426
vt1 0.755371 0.438965
vt1 0.746094 0.446777
vt1 0.741211 0.443359
vt1 0.711426 0.451172
vt1 0.723145 0.455566
vt1 0.724609 0.449219
vt1 0.683594 0.428711
vt1 0.675293 0.441895
vt1 0.683594 0.420898
vt1 0.722168 0.435059
vt1 0.729004 0.444824
vt1 0.712891 0.399902
vt1 0.701172 0.403320
vt1 0.727051 0.393066
vt1 0.738281 0.430664
vt1 0.734863 0.442383
vt1 0.767090 0.402832
vt1 0.751465 0.395020
vt1 0.792480 0.426270
vt1 0.775391 0.405273
vt1 0.584961 0.169434
vt1 0.612793 0.160156
vt1 0.614746 0.168945
vt1 0.584961 0.161133
vt1 0.615723 0.177734
vt1 0.555664 0.167969
vt1 0.555664 0.159668
vt1 0.585449 0.177246
vt1 0.612793 0.523193
vt1 0.526367 0.166992
vt1 0.526855 0.158691
vt1 0.555176 0.176270
vt1 0.497559 0.166992
vt1 0.497803 0.158203
vt1 0.525879 0.175293
vt1 0.497314 0.174805
vt1 0.468994 0.166504
vt1 0.468994 0.158203
vt1 0.440430 0.166504
vt1 0.440430 0.158203
vt1 0.468750 0.174805
vt1 0.412109 0.166504
vt1 0.412109 0.158203
vt1 0.440430 0.174805
vt1 0.383789 0.166504
vt1 0.383789 0.158203
vt1 0.355469 0.158203
vt1 0.412109 0.174805
vt1 0.383789 0.174805
vt1 0.355469 0.166504
vt1 0.327148 0.166504
vt1 0.327148 0.158203
vt1 0.355469 0.174805
vt1 0.298828 0.166504
vt1 0.298828 0.158203
vt1 0.327148 0.174805
vt1 0.355469 0.518066
vt1 0.327393 0.518066
vt1 0.299072 0.174805
vt1 0.270508 0.166504
vt1 0.270508 0.158203
vt1 0.270752 0.174805
vt1 0.241943 0.166504
vt1 0.241821 0.158203
vt1 0.242310 0.174805
vt1 0.213135 0.166992
vt1 0.213013 0.158203
vt1 0.183960 0.166992
vt1 0.183716 0.158691
vt1 0.213623 0.174805
vt1 0.154541 0.167969
vt1 0.154297 0.159668
vt1 0.184448 0.175293
vt1 0.125122 0.169434
vt1 0.125122 0.161133
vt1 0.097229 0.161133
vt1 0.095398 0.169434
vt1 0.094360 0.178223
vt1 0.124817 0.177734
vt1 0.098877 0.523438
vt1 0.154663 0.176270
vt1 0.128906 0.520752
vt1 0.101868 0.534668
vt1 0.158081 0.519043
vt1 0.186279 0.518066
vt1 0.130493 0.528564
vt1 0.107178 0.544189
vt1 0.214355 0.518066
vt1 0.133179 0.536621
vt1 0.117310 0.561523
vt1 0.138062 0.554932
vt1 0.162354 0.552979
vt1 0.159058 0.526611
vt1 0.160522 0.534668
vt1 0.187134 0.526123
vt1 0.187988 0.534180
vt1 0.188599 0.552490
vt1 0.215088 0.526123
vt1 0.215576 0.534180
vt1 0.215820 0.552734
vt1 0.242676 0.518066
vt1 0.243164 0.526123
vt1 0.243408 0.534424
vt1 0.243530 0.552734
vt1 0.271240 0.526123
vt1 0.270996 0.518066
vt1 0.271240 0.534424
vt1 0.271240 0.552979
vt1 0.299072 0.518066
vt1 0.299316 0.526367
vt1 0.299316 0.534424
vt1 0.299316 0.552979
vt1 0.327393 0.526367
vt1 0.327393 0.534424
vt1 0.327393 0.552979
vt1 0.355469 0.534668
vt1 0.355469 0.552979
vt1 0.355469 0.526367
vt1 0.383545 0.518066
vt1 0.383545 0.526367
vt1 0.383545 0.534424
vt1 0.383545 0.552979
vt1 0.411621 0.552979
vt1 0.411621 0.526367
vt1 0.411865 0.518066
vt1 0.411621 0.534424
vt1 0.439697 0.552979
vt1 0.439941 0.526367
vt1 0.439941 0.518066
vt1 0.439697 0.534424
vt1 0.467773 0.534424
vt1 0.467773 0.552734
vt1 0.495605 0.552734
vt1 0.468262 0.518066
vt1 0.468018 0.526123
vt1 0.495605 0.534180
vt1 0.522949 0.552490
vt1 0.496826 0.518066
vt1 0.496094 0.526123
vt1 0.523438 0.534180
vt1 0.549316 0.552734
vt1 0.524414 0.526123
vt1 0.550781 0.534424
vt1 0.524902 0.518311
vt1 0.552246 0.526611
vt1 0.553711 0.519043
vt1 0.582520 0.520508
vt1 0.581055 0.528320
vt1 0.609863 0.534424
vt1 0.578125 0.536377
vt1 0.604492 0.543945
vt1 0.573242 0.554688
vt1 0.594238 0.561279
vn 0.000000 1.000000 -0.000000
vn 0.000000 1.000000 -0.000000
vn 0.000000 1.000000 -0.000000
vn 0.000000 1.000000 -0.000000
vn 0.000000 1.000000 -0.000000
vn 0.000000 1.000000 -0.000000
vn 0.000000 1.000000 -0.000000
vn 0.000000 1.000000 -0.000000
vn 0.000000 1.000000 -0.000000
vn 0.000000 1.000000 -0.000000
vn 0.000000 1.000000 -0.000000
vn 0.000000 1.000000 -0.000000
vn 0.472441 0.614173 -0.629921
vn 0.779528 0.007874 -0.622047
vn 0.527559 0.551181 -0.645669
vn -0.708661 0.614173 -0.338583
vn -0.763780 0.551181 -0.330709
vn -0.984252 0.023622 -0.196850
vn -0.960630 0.007874 0.291339
vn -0.787402 0.614173 0.023622
vn -0.834646 0.551181 0.062992
vn 0.118110 0.614173 -0.779527
vn 0.165354 0.551181 -0.818898
vn 0.401575 0.007874 -0.913386
vn -0.251969 0.614173 -0.748031
vn -0.070866 0.007874 -1.000000
vn -0.236220 0.551181 -0.803150
vn -0.685039 0.614173 0.393701
vn -0.708661 0.551181 0.440945
vn -0.716535 0.023622 0.700787
vn -0.307087 0.007874 0.952756
vn -0.425197 0.614173 0.661417
vn -0.417323 0.551181 0.724409
vn -0.566929 0.614173 -0.543307
vn -0.582677 0.551181 -0.598425
vn -0.527559 0.007874 -0.850394
vn 0.173228 0.007874 0.984252
vn -0.070866 0.614173 0.787401
vn -0.039370 0.551181 0.834646
vn -0.755906 0.614173 -0.212598
vn -0.795276 0.551181 -0.259843
vn -0.866142 0.023622 -0.503937
vn 0.606299 0.007874 0.795275
vn 0.307087 0.614173 0.724409
vn 0.354331 0.551181 0.755905
vn -0.771654 0.614173 0.165354
vn -0.826772 0.551181 0.133858
vn -1.000000 0.007874 -0.047244
vn -0.606299 0.614173 0.503937
vn -0.905512 0.023622 0.425197
vn -0.669291 0.551181 0.503937
vn 0.606299 0.614173 0.503937
vn 0.669291 0.551181 0.503937
vn 0.905512 0.007874 0.417323
vn -0.307087 0.614173 0.724409
vn -0.606299 0.007874 0.795275
vn -0.354331 0.551181 0.755905
vn 0.771654 0.614173 0.165354
vn 0.826772 0.551181 0.133858
vn 1.000000 0.007874 -0.047244
vn 0.858268 0.007874 -0.511811
vn 0.755906 0.614173 -0.212598
vn 0.795276 0.551181 -0.259843
vn 0.070866 0.614173 0.787401
vn 0.039370 0.551181 0.834646
vn -0.165354 0.023622 0.984252
vn 0.527559 0.007874 -0.850394
vn 0.566929 0.614173 -0.543307
vn 0.582677 0.551181 -0.598425
vn 0.425197 0.614173 0.661417
vn 0.417323 0.551181 0.724409
vn 0.307087 0.023622 0.952756
vn 0.070866 0.007874 -1.000000
vn 0.251969 0.614173 -0.748031
vn 0.236220 0.551181 -0.803150
vn 0.685039 0.614173 0.393701
vn 0.708661 0.551181 0.440945
vn 0.716535 0.007874 0.700787
vn 0.787402 0.614173 0.023622
vn 0.960630 0.000000 0.291339
vn 0.834646 0.551181 0.062992
vn -0.118110 0.614173 -0.779527
vn -0.165354 0.551181 -0.818898
vn -0.401575 0.007874 -0.913386
vn 0.708661 0.614173 -0.338583
vn 0.984252 0.007874 -0.188976
vn 0.763780 0.551181 -0.330709
vn -0.472441 0.614173 -0.629921
vn -0.527559 0.551181 -0.645669
vn -0.779528 0.023622 -0.629921
vn 0.000000 0.118110 0.992126
vn 0.000000 0.118110 0.992126
vn -0.496063 0.118110 0.858268
vn -0.464567 0.118110 0.881890
vn -0.834646 0.118110 0.535433
vn -0.818898 0.118110 0.566929
vn -0.984252 0.118110 0.118110
vn -0.944882 0.118110 -0.307087
vn -0.929134 0.118110 -0.354331
vn -0.661417 0.118110 -0.740157
vn -0.661417 0.118110 -0.740157
vn -0.236220 0.118110 -0.960630
vn -0.283465 0.118110 -0.952756
vn 0.236220 0.118110 -0.960630
vn 0.236220 0.118110 -0.960630
vn 0.637795 0.118110 -0.755905
vn 0.661417 0.118110 -0.740157
vn 0.929134 0.118110 -0.354331
vn 0.929134 0.118110 -0.354331
vn 0.984252 0.118110 0.118110
vn 0.992126 0.118110 0.070866
vn 0.818898 0.118110 0.566929
vn 0.818898 0.118110 0.566929
vn 0.464567 0.118110 0.881890
vn 0.440945 0.118110 0.889764
vn 0.000000 0.118110 0.992126
vn 0.000000 0.118110 0.992126
vn -0.039370 -1.000000 -0.007874
vn -0.039370 -1.000000 0.000000
vn -0.039370 -1.000000 -0.007874
vn -0.039370 -1.000000 0.007874
vn -0.039370 -1.000000 0.015748
vn -0.039370 -1.000000 0.015748
vn -0.031496 -1.000000 0.031496
vn -0.031496 -1.000000 0.031496
vn -0.015748 -1.000000 0.039370
vn -0.015748 -1.000000 0.039370
vn 0.000000 -1.000000 0.039370
vn 0.000000 -1.000000 0.039370
vn 0.015748 -1.000000 0.039370
vn 0.015748 -1.000000 0.039370
vn 0.031496 -1.000000 0.031496
vn 0.031496 -1.000000 0.031496
vn 0.039370 -1.000000 0.015748
vn 0.039370 -1.000000 0.015748
vn 0.039370 -1.000000 0.007874
vn 0.039370 -1.000000 -0.007874
vn 0.039370 -1.000000 -0.007874
vn 0.039370 -1.000000 -0.015748
vn 0.031496 -1.000000 -0.023622
vn 0.031496 -1.000000 -0.031496
vn 0.023622 -1.000000 -0.031496
vn 0.015748 -1.000000 -0.039370
vn 0.007874 -1.000000 -0.039370
vn 0.000000 -1.000000 -0.039370
vn -0.007874 -1.000000 -0.039370
vn -0.015748 -1.000000 -0.039370
vn -0.031496 -1.000000 -0.031496
vn -0.031496 -1.000000 -0.031496
vn -0.039370 -1.000000 -0.015748
vn -0.039370 -1.000000 -0.015748
vn -0.039370 -1.000000 -0.007874
vn -0.039370 -1.000000 -0.007874
vn 0.818898 0.039370 0.566929
vn 0.173228 0.023622 0.984252
vn 0.000000 0.039370 1.000000
vn 0.952756 0.023622 0.314961
vn 0.952756 0.031496 -0.314961
vn 0.551181 0.015748 -0.834646
vn 0.062992 0.023622 -1.000000
vn -0.417323 0.015748 -0.905512
vn -0.937008 0.039370 -0.354331
vn -0.992126 0.023622 -0.102362
vn -0.818898 0.039370 0.566929
vn -0.645669 0.023622 0.763779
vn 0.000000 0.039370 1.000000
vn 0.354331 0.023622 0.937008
vn 0.000000 1.000000 -0.000000
vn 0.000000 1.000000 -0.000000
vn 0.000000 1.000000 -0.000000
vn 0.000000 1.000000 -0.000000
vn 0.000000 1.000000 -0.000000
vn 0.000000 1.000000 -0.000000
vn 0.000000 -1.000000 0.000000
vn 0.000000 -1.000000 0.000000
vn 0.000000 -1.000000 0.000000
vn 0.000000 -1.000000 0.000000
vn 0.000000 -1.000000 0.000000
vn 0.000000 -1.000000 0.000000
vn 0.000000 -1.000000 0.000000
vn 0.000000 -1.000000 0.000000
vn 0.000000 -1.000000 0.000000
vn 0.000000 -1.000000 0.000000
vn 0.000000 -1.000000 0.000000
vn 0.000000 -1.000000 0.000000
vn 0.000000 -1.000000 0.000000
vn 0.000000 -1.000000 0.000000
vn 0.000000 -1.000000 0.000000
vn 0.000000 -1.000000 0.000000
vn 0.000000 -1.000000 0.000000
vn 0.000000 -1.000000 0.000000
vn 0.566929 0.047244 -0.818897
vn 0.771654 0.047244 -0.629921
vn 0.535433 0.047244 -0.842520
vn 0.826772 0.047244 -0.559055
vn 0.866142 0.047244 -0.503937
vn 0.968504 0.047244 -0.244094
vn 0.748031 0.015748 -0.661417
vn 0.976378 0.047244 -0.196850
vn 0.881890 0.015748 -0.464567
vn 0.992126 0.047244 0.125984
vn 0.795276 0.370079 -0.480315
vn 1.000000 0.047244 -0.039370
vn 0.968504 0.015748 -0.236220
vn 0.929134 -0.078740 -0.354331
vn 0.929134 -0.078740 -0.354331
vn 0.960630 0.047244 0.275591
vn 1.000000 0.023622 -0.000000
vn 0.905512 0.047244 0.425197
vn 0.881890 0.047244 0.464567
vn 0.716535 0.047244 0.692913
vn 0.653543 0.047244 0.755905
vn 0.881890 0.015748 0.464567
vn 0.598425 0.047244 0.795275
vn 0.968504 0.015748 0.244094
vn 0.354331 0.047244 0.937008
vn 0.748031 0.015748 0.661417
vn 0.314961 0.047244 0.944882
vn 0.566929 0.015748 0.818897
vn 0.000000 0.047244 1.000000
vn 0.519685 0.417323 0.740157
vn 0.165354 0.047244 0.984252
vn 0.354331 0.015748 0.937008
vn 0.818898 -0.078740 0.566929
vn 0.818898 -0.078740 0.566929
vn 0.464567 -0.078740 0.881890
vn 0.464567 -0.078740 0.881890
vn 0.779528 0.362205 0.511811
vn 0.881890 0.409449 0.228346
vn 0.118110 0.023622 0.992126
vn 0.212598 0.354331 0.905512
vn -0.070866 0.409449 0.905512
vn -0.338583 0.425197 0.842520
vn -0.165354 0.047244 0.984252
vn -0.314961 0.047244 0.944882
vn -0.354331 0.047244 0.937008
vn -0.354331 0.015748 0.937008
vn -0.598425 0.047244 0.795275
vn -0.118110 0.015748 0.992126
vn -0.653543 0.047244 0.755905
vn 0.000000 -0.078740 1.000000
vn 0.000000 -0.078740 1.000000
vn -0.464567 -0.078740 0.881890
vn -0.464567 -0.078740 0.881890
vn -0.566929 0.015748 0.818897
vn -0.755906 0.023622 0.661417
vn -0.614173 0.354331 0.700787
vn -0.779528 0.401575 0.480315
vn -0.716535 0.047244 0.692913
vn -0.881890 0.047244 0.464567
vn -0.905512 0.047244 0.425197
vn -0.921260 0.370079 0.118110
vn -0.992126 0.047244 0.125984
vn -0.960630 0.047244 0.275591
vn -0.881890 0.015748 0.464567
vn -1.000000 0.047244 -0.039370
vn -0.968504 0.015748 0.244094
vn -0.976378 0.047244 -0.196850
vn -0.968504 0.047244 -0.244094
vn -0.818898 -0.078740 0.566929
vn -0.818898 -0.078740 0.566929
vn -0.866142 0.047244 -0.503937
vn -0.881890 0.047244 -0.464567
vn -0.968504 0.015748 -0.236220
vn -0.771654 0.047244 -0.629921
vn -0.669291 0.047244 -0.748031
vn -1.000000 0.015748 -0.000000
vn -0.535433 0.047244 -0.842520
vn -0.748031 0.015748 -0.661417
vn -0.251969 0.047244 -0.968504
vn -0.889764 0.023622 -0.456693
vn -0.393701 0.047244 -0.921260
vn -0.566929 0.015748 -0.826772
vn -0.078740 0.047244 -0.992126
vn -0.354331 0.015748 -0.937008
vn 0.244094 0.047244 -0.968504
vn -0.661417 -0.078740 -0.748031
vn -0.661417 -0.078740 -0.748031
vn 0.078740 0.047244 -0.992126
vn -0.535433 0.393701 -0.740157
vn 0.118110 0.015748 -0.992126
vn 0.393701 0.047244 -0.921260
vn -0.118110 0.023622 -0.992126
vn 0.535433 0.047244 -0.842520
vn 0.566929 0.047244 -0.818897
vn 0.566929 0.031496 -0.826772
vn 0.346457 0.023622 -0.937008
vn 0.527559 0.370079 -0.763779
vn 0.196850 0.362205 -0.913386
vn -0.212598 0.362205 -0.905512
vn 0.236220 -0.078740 -0.968504
vn 0.236220 -0.078740 -0.968504
vn -0.236220 -0.078740 -0.968504
vn -0.236220 -0.078740 -0.968504
vn -0.779528 0.362205 -0.511811
vn -0.881890 0.425197 -0.196850
vn -0.929134 -0.078740 -0.354331
vn -0.929134 -0.078740 -0.354331
vn -0.992126 -0.078740 0.118110
vn -0.992126 -0.078740 0.118110
vn 0.661417 -0.078740 -0.748031
vn 0.566929 0.039370 -0.818897
vn 0.661417 -0.078740 -0.748031
vn 0.527559 0.370079 -0.763779
vn 0.929134 0.354331 -0.110236
vn 0.992126 -0.078740 0.118110
vn 0.992126 -0.078740 0.118110
vn 0.070866 0.952756 0.291338
vn -0.015748 0.984252 0.181102
vn 0.110236 0.984252 0.149606
vn 0.236220 0.960630 0.157480
vn 0.173228 0.984252 0.047244
vn -0.007874 0.984252 0.165354
vn -0.070866 0.984252 0.173228
vn 0.149606 0.984252 0.078740
vn -0.157480 0.984252 0.094488
vn -0.196850 0.952756 0.236220
vn -0.173228 0.984252 -0.039370
vn -0.299213 0.952756 0.031496
vn -0.149606 0.984252 0.055118
vn 0.173228 0.929134 0.322834
vn 0.000000 0.929134 0.370079
vn 0.299213 0.929134 0.204724
vn -0.173228 0.929134 0.322834
vn 0.362205 0.929134 0.047244
vn -0.299213 0.929134 0.204724
vn -0.362205 0.929134 0.047244
vn 0.149606 0.984252 -0.055118
vn 0.346457 0.929134 -0.133858
vn 0.244094 0.929134 -0.275591
vn -0.149606 0.984252 -0.078740
vn -0.346457 0.929134 -0.133858
vn -0.244094 0.929134 -0.275591
vn -0.110236 0.984252 -0.118110
vn -0.251969 0.952756 -0.157480
vn -0.181102 0.952756 -0.251969
vn -0.039370 0.984252 -0.157480
vn -0.086614 0.929134 -0.354331
vn -0.007874 0.984252 -0.165354
vn -0.062992 0.952756 -0.283465
vn 0.062992 0.960630 -0.283465
vn 0.062992 0.984252 -0.149606
vn 0.086614 0.929134 -0.354331
vn 0.133858 0.984252 -0.102362
vn 0.165354 0.952756 -0.244095
vn 0.299213 0.952756 -0.039370
vn 0.275591 0.944882 -0.173228
vn 0.393701 -0.614173 0.685039
vn 0.062992 -0.929134 0.362205
vn 0.133858 -0.614173 0.779527
vn 0.181102 -0.929134 0.322835
vn 0.173228 -0.133858 0.976378
vn 0.606299 -0.614173 0.503937
vn 0.283465 -0.929134 0.236221
vn 0.496063 -0.133858 0.858268
vn 0.173228 0.133858 0.976378
vn 0.740157 -0.614173 0.267717
vn 0.346457 -0.929134 0.125984
vn 0.755906 -0.133858 0.637795
vn 0.787402 -0.614173 0.000000
vn 0.370079 -0.929134 0.000000
vn 0.929134 -0.133858 0.338583
vn 0.992126 -0.133858 0.000000
vn 0.740157 -0.614173 -0.267716
vn 0.346457 -0.929134 -0.125984
vn 0.606299 -0.614173 -0.503937
vn 0.283465 -0.929134 -0.236220
vn 0.929134 -0.133858 -0.338583
vn 0.393701 -0.614173 -0.685039
vn 0.181102 -0.929134 -0.322834
vn 0.755906 -0.133858 -0.637795
vn 0.133858 -0.614173 -0.779527
vn 0.062992 -0.929134 -0.362205
vn -0.062992 -0.929134 -0.362205
vn 0.496063 -0.133858 -0.858268
vn 0.173228 -0.133858 -0.976378
vn -0.133858 -0.614173 -0.779527
vn -0.393701 -0.614173 -0.685039
vn -0.181102 -0.929134 -0.322834
vn -0.173228 -0.133858 -0.976378
vn -0.606299 -0.614173 -0.503937
vn -0.283465 -0.929134 -0.236220
vn -0.496063 -0.133858 -0.858268
vn -0.173228 0.133858 -0.976378
vn -0.496063 0.133858 -0.858268
vn -0.755906 -0.133858 -0.637795
vn -0.740157 -0.614173 -0.267716
vn -0.346457 -0.929134 -0.125984
vn -0.929134 -0.133858 -0.338583
vn -0.787402 -0.614173 0.000000
vn -0.370079 -0.929134 0.000000
vn -0.992126 -0.133858 0.000000
vn -0.740157 -0.614173 0.267717
vn -0.346457 -0.929134 0.125984
vn -0.606299 -0.614173 0.503937
vn -0.283465 -0.929134 0.236221
vn -0.929134 -0.133858 0.338583
vn -0.393701 -0.614173 0.685039
vn -0.181102 -0.929134 0.322835
vn -0.755906 -0.133858 0.637795
vn -0.133858 -0.614173 0.779527
vn -0.062992 -0.929134 0.362205
vn 0.062992 -0.929134 0.362205
vn 0.133858 -0.614173 0.779527
vn 0.173228 -0.133858 0.976378
vn -0.173228 -0.133858 0.976378
vn 0.173228 0.133858 0.976378
vn -0.496063 -0.133858 0.858268
vn -0.173228 0.133858 0.976378
vn 0.133858 0.614173 0.779527
vn -0.496063 0.133858 0.858268
vn -0.755906 0.133858 0.637795
vn -0.133858 0.614173 0.779527
vn 0.047244 0.968504 0.251968
vn -0.929134 0.133858 0.338583
vn -0.047244 0.968504 0.251968
vn 0.023622 0.992126 0.110236
vn -0.023622 0.992126 0.110236
vn -0.055118 0.992126 0.102362
vn -0.393701 0.614173 0.685039
vn -0.125984 0.968504 0.220472
vn -0.606299 0.614173 0.503937
vn -0.196850 0.968504 0.165354
vn -0.086614 0.992126 0.070866
vn -0.740157 0.614173 0.267716
vn -0.244094 0.968504 0.086614
vn -0.110236 0.992126 0.039370
vn -0.992126 0.133858 -0.000000
vn -0.787402 0.614173 -0.000000
vn -0.259843 0.968504 -0.000000
vn -0.110236 0.992126 -0.000000
vn -0.740157 0.614173 -0.267717
vn -0.929134 0.133858 -0.338583
vn -0.244094 0.968504 -0.086614
vn -0.110236 0.992126 -0.039370
vn -0.755906 0.133858 -0.637795
vn -0.606299 0.614173 -0.503937
vn -0.196850 0.968504 -0.165354
vn -0.086614 0.992126 -0.070866
vn -0.393701 0.614173 -0.685039
vn -0.125984 0.968504 -0.220473
vn -0.055118 0.992126 -0.102362
vn -0.047244 0.968504 -0.251969
vn -0.023622 0.992126 -0.110236
vn -0.133858 0.614173 -0.779527
vn 0.173228 0.133858 -0.976378
vn 0.133858 0.614173 -0.779527
vn 0.047244 0.968504 -0.251969
vn 0.023622 0.992126 -0.110236
vn 0.055118 0.992126 -0.102362
vn 0.393701 0.614173 -0.685039
vn 0.496063 0.133858 -0.858268
vn 0.125984 0.968504 -0.220473
vn 0.086614 0.992126 -0.070866
vn 0.606299 0.614173 -0.503937
vn 0.755906 0.133858 -0.637795
vn 0.196850 0.968504 -0.165354
vn 0.244094 0.968504 -0.086614
vn 0.110236 0.992126 -0.039370
vn 0.110236 0.992126 -0.000000
vn 0.929134 0.133858 -0.338583
vn 0.740157 0.614173 -0.267717
vn 0.259843 0.968504 -0.000000
vn 0.110236 0.992126 0.039370
vn 0.992126 0.133858 -0.000000
vn 0.787402 0.614173 -0.000000
vn 0.244094 0.968504 0.086614
vn 0.086614 0.992126 0.070866
vn 0.740157 0.614173 0.267716
vn 0.196850 0.968504 0.165354
vn 0.929134 0.133858 0.338583
vn 0.606299 0.614173 0.503937
vn 0.755906 0.133858 0.637795
vn 0.496063 0.133858 0.858268
vn 0.393701 0.614173 0.685039
vn 0.133858 0.614173 0.779527
vn 0.125984 0.968504 0.220472
vn 0.047244 0.968504 0.251968
vn 0.055118 0.992126 0.102362
vn 0.023622 0.992126 0.110236
tan -1.000000 -0.000000 -0.007874 1.000000
tan -1.000000 -0.000000 -0.007874 1.000000
tan -1.000000 -0.000000 -0.007874 1.000000
tan -1.000000 -0.000000 -0.007874 1.000000
tan -1.000000 -0.000000 -0.007874 1.000000
tan -1.000000 -0.000000 -0.007874 1.000000
tan -1.000000 -0.000000 -0.007874 1.000000
tan -1.000000 -0.000000 -0.007874 1.000000
tan -1.000000 -0.000000 -0.007874 1.000000
tan -1.000000 -0.000000 -0.007874 1.000000
tan -1.000000 -0.000000 -0.007874 1.000000
tan -1.000000 -0.000000 -0.007874 1.000000
tan -0.776986 0.627441 0.029016 1.000000
tan -0.537541 0.504185 -0.667245 1.000000
tan -0.763222 0.640089 -0.077190 1.000000
tan -0.699113 -0.644863 0.293509 1.000000
tan -0.643189 -0.682993 0.347139 1.000000
tan -0.153512 -0.713001 0.682001 1.000000
tan 0.234236 0.594581 0.756277 1.000000
tan 0.578647 0.728067 0.358485 1.000000
tan 0.524893 0.749830 0.393825 1.000000
tan 0.325501 0.717403 0.614545 1.000000
tan 0.363569 0.737553 0.569843 1.000000
tan 0.754790 0.536797 0.336475 1.000000
tan 0.538409 0.713683 0.404613 1.000000
tan 0.748031 0.661417 -0.047802 1.000000
tan 0.539649 0.733585 0.344721 1.000000
tan 0.716349 0.655093 0.224502 1.000000
tan 0.690929 0.663153 0.281480 1.000000
tan 0.688325 0.223449 0.696261 1.000000
tan 0.757890 0.584909 0.239444 1.000000
tan 0.703453 0.678901 -0.178188 1.000000
tan 0.687085 0.681319 -0.122574 1.000000
tan 0.758138 0.636307 -0.071796 1.000000
tan 0.755162 0.647529 -0.138880 1.000000
tan 0.744188 0.464071 -0.457375 1.000000
tan 0.751751 0.635501 -0.137392 1.000000
tan 0.404737 0.733709 -0.535867 1.000000
tan 0.422097 0.754479 -0.478331 1.000000
tan 0.645793 0.693223 -0.293509 1.000000
tan 0.609833 0.718209 -0.342985 1.000000
tan 0.469775 0.359725 -0.790563 1.000000
tan -0.678033 0.509393 0.511873 1.000000
tan -0.648645 0.677971 -0.299833 1.000000
tan -0.658565 0.683551 -0.189720 1.000000
tan -0.628309 -0.691363 -0.364189 1.000000
tan -0.556017 -0.738111 -0.394941 1.000000
tan 0.025358 -0.748031 -0.661417 1.000000
tan -0.771778 -0.606113 -0.189844 1.000000
tan -0.361771 -0.527187 -0.741149 1.000000
tan -0.722301 -0.631347 -0.268770 1.000000
tan -0.771778 0.606113 0.189844 1.000000
tan -0.722301 0.631347 0.268770 1.000000
tan -0.323827 0.610949 0.691115 1.000000
tan -0.648645 -0.677971 0.299833 1.000000
tan -0.678033 -0.509393 -0.511873 1.000000
tan -0.658565 -0.683551 0.189720 1.000000
tan -0.628309 0.691363 0.364189 1.000000
tan -0.556017 0.738111 0.394941 1.000000
tan 0.025358 0.748031 0.661417 1.000000
tan 0.447207 -0.478145 0.742576 1.000000
tan 0.645793 -0.693223 0.293509 1.000000
tan 0.609833 -0.718209 0.342985 1.000000
tan 0.404737 -0.733709 0.535867 1.000000
tan 0.422097 -0.754479 0.478331 1.000000
tan 0.751751 -0.635501 0.141546 1.000000
tan 0.744188 -0.464071 0.457375 1.000000
tan 0.758138 -0.636307 0.071796 1.000000
tan 0.755162 -0.647529 0.138880 1.000000
tan 0.703453 -0.678901 0.178188 1.000000
tan 0.687085 -0.681319 0.122574 1.000000
tan 0.780210 -0.540145 -0.238080 1.000000
tan 0.748031 -0.661417 0.047802 1.000000
tan 0.538409 -0.713683 -0.404613 1.000000
tan 0.539649 -0.733585 -0.344721 1.000000
tan 0.716349 -0.655093 -0.224502 1.000000
tan 0.690929 -0.663153 -0.281480 1.000000
tan 0.642445 -0.407527 -0.652303 1.000000
tan -0.542005 0.711637 -0.435737 1.000000
tan 0.217930 0.642941 -0.718581 1.000000
tan -0.457809 0.745489 -0.457065 1.000000
tan -0.489739 -0.706801 -0.482671 1.000000
tan -0.510509 -0.731539 -0.389299 1.000000
tan -0.690867 -0.619071 0.298407 1.000000
tan -0.699113 0.644863 -0.293509 1.000000
tan -0.135222 0.722239 -0.674189 1.000000
tan -0.643189 0.682993 -0.347139 1.000000
tan -0.776986 -0.627441 -0.029016 1.000000
tan -0.763222 -0.640089 0.077190 1.000000
tan -0.602641 -0.310000 0.734143 1.000000
tan -0.093744 -0.984314 0.117180 1.000000
tan -0.093744 -0.984314 0.117180 1.000000
tan -0.088536 -0.882758 0.070308 1.000000
tan -0.080166 -0.937504 0.083328 1.000000
tan -0.134044 -0.887098 -0.013268 1.000000
tan -0.129456 -0.952322 0.011408 1.000000
tan -0.118110 -0.984252 0.000000 1.000000
tan -0.118110 -0.947300 -0.000930 1.000000
tan -0.118110 -0.951454 -0.007440 1.000000
tan -0.067890 -0.986298 -0.096720 1.000000
tan -0.067890 -0.986298 -0.096720 1.000000
tan -0.001860 -0.964350 -0.118110 1.000000
tan -0.000930 -0.954988 -0.118110 1.000000
tan 0.001860 -0.964350 -0.118110 1.000000
tan 0.001860 -0.964350 -0.118110 1.000000
tan 0.050220 -0.955670 -0.106950 1.000000
tan 0.067890 -0.986298 -0.096720 1.000000
tan 0.118110 -0.951454 -0.007440 1.000000
tan 0.118110 -0.951454 -0.007440 1.000000
tan 0.118110 -0.984252 0.000000 1.000000
tan 0.118110 -0.992126 0.000000 1.000000
tan 0.129456 -0.952322 0.011408 1.000000
tan 0.129456 -0.952322 0.011408 1.000000
tan 0.080166 -0.937504 0.083328 1.000000
tan 0.080786 -0.896646 0.078988 1.000000
tan 0.093744 -0.984314 0.117180 1.000000
tan 0.093744 -0.984314 0.117180 1.000000
tan 1.000000 -0.039742 0.047244 1.000000
tan 1.000000 -0.039370 -0.031496 1.000000
tan 1.000000 -0.039742 0.047244 1.000000
tan 0.992126 -0.039990 -0.118110 1.000000
tan 0.937008 -0.042222 -0.338583 1.000000
tan 0.889764 -0.042346 -0.464567 1.000000
tan 0.661417 -0.044392 -0.748031 1.000000
tan 0.677165 -0.044392 -0.732283 1.000000
tan 0.354331 -0.042470 -0.937008 1.000000
tan 0.354331 -0.042470 -0.937008 1.000000
tan 0.000000 -0.039370 -1.000000 1.000000
tan 0.000000 -0.039370 -1.000000 1.000000
tan -0.354331 -0.042470 -0.937008 1.000000
tan -0.354331 -0.042470 -0.937008 1.000000
tan -0.661417 -0.044392 -0.748031 1.000000
tan -0.661417 -0.044392 -0.748031 1.000000
tan -0.937008 -0.042470 -0.354331 1.000000
tan -0.881890 -0.042036 -0.464567 1.000000
tan -0.992126 -0.039990 -0.118110 1.000000
tan -0.992126 -0.039990 0.118110 1.000000
tan -0.968504 -0.039990 0.236220 1.000000
tan -0.881890 -0.042036 0.464567 1.000000
tan -0.826772 -0.039432 0.566929 1.000000
tan -0.661417 -0.044392 0.748031 1.000000
tan -0.566929 -0.039432 0.826772 1.000000
tan -0.354331 -0.042470 0.937008 1.000000
tan -0.236220 -0.039990 0.968504 1.000000
tan 0.000000 -0.039370 1.000000 1.000000
tan 0.236220 -0.039990 0.968504 1.000000
tan 0.354331 -0.042470 0.937008 1.000000
tan 0.669291 -0.044392 0.740157 1.000000
tan 0.677165 -0.044640 0.740157 1.000000
tan 0.874016 -0.042098 0.488189 1.000000
tan 0.874016 -0.042098 0.488189 1.000000
tan 0.905512 -0.038936 0.417323 1.000000
tan 0.905512 -0.038936 0.417323 1.000000
tan 0.037510 -0.958770 0.012400 1.000000
tan 0.015500 -0.984252 0.020894 1.000000
tan 0.023622 -1.000000 0.039370 1.000000
tan 0.023622 -0.955236 0.000186 1.000000
tan 0.031496 -0.965156 -0.001240 1.000000
tan -0.002852 -0.938558 -0.019592 1.000000
tan 0.000000 -1.000000 -0.023622 1.000000
tan -0.000124 -0.908798 -0.015748 1.000000
tan -0.039370 -0.956538 -0.002170 1.000000
tan -0.023622 -0.992126 0.000000 1.000000
tan -0.041974 -0.958770 0.005952 1.000000
tan -0.020398 -0.944448 0.011966 1.000000
tan -0.023622 -1.000000 0.039370 1.000000
tan -0.021948 -0.939798 0.031992 1.000000
tan 0.000000 -0.000000 -1.000000 1.000000
tan 0.000000 -0.000000 -1.000000 1.000000
tan 0.000000 -0.000000 -1.000000 1.000000
tan 0.000000 -0.000000 -1.000000 1.000000
tan 0.000000 -0.000000 -1.000000 1.000000
tan 0.000000 -0.000000 -1.000000 1.000000
tan 0.000000 0.000000 1.000000 1.000000
tan 0.000000 0.000000 1.000000 1.000000
tan 0.000000 0.000000 1.000000 1.000000
tan 0.000000 0.000000 1.000000 1.000000
tan 0.000000 0.000000 1.000000 1.000000
tan 0.000000 0.000000 1.000000 1.000000
tan 0.000000 0.000000 1.000000 1.000000
tan 0.000000 0.000000 1.000000 1.000000
tan 0.000000 0.000000 1.000000 1.000000
tan 0.000000 0.000000 1.000000 1.000000
tan 0.000000 0.000000 1.000000 1.000000
tan 0.000000 0.000000 1.000000 1.000000
tan 0.000000 0.000000 1.000000 1.000000
tan 0.000000 0.000000 1.000000 1.000000
tan 0.000000 0.000000 1.000000 1.000000
tan 0.000000 0.000000 1.000000 1.000000
tan 0.000000 0.000000 1.000000 1.000000
tan 0.000000 0.000000 1.000000 1.000000
tan 0.060016 -0.952322 -0.013392 1.000000
tan 0.051584 -0.978114 -0.010168 1.000000
tan 0.057970 -0.946680 -0.016244 1.000000
tan 0.055304 -0.897390 0.005952 1.000000
tan 0.046500 -0.947734 -0.008928 1.000000
tan 0.047244 -0.972348 -0.000744 1.000000
tan 0.085808 -0.987538 0.073532 1.000000
tan 0.047244 -0.977928 -0.000372 1.000000
tan 0.015624 -0.940790 -0.002232 1.000000
tan 0.047244 -0.992126 0.000000 1.000000
tan 0.377643 -0.825531 -0.010788 1.000000
tan 0.047244 -1.000000 0.000000 1.000000
tan 0.015748 -0.972224 -0.000248 1.000000
tan -0.078740 -0.948664 0.004340 1.000000
tan -0.078740 -0.948664 0.004340 1.000000
tan 0.047244 -0.967140 0.001116 1.000000
tan 0.023622 -1.000000 0.000000 1.000000
tan 0.046872 -0.941906 0.004836 1.000000
tan 0.046872 -0.944448 0.007068 1.000000
tan 0.035340 -0.999752 0.031620 1.000000
tan 0.016368 -0.975386 0.046810 1.000000
tan 0.015748 -0.900180 0.000620 1.000000
tan 0.012338 -0.968256 0.048236 1.000000
tan 0.015748 -0.972348 0.000248 1.000000
tan -0.004774 -0.956538 0.050034 1.000000
tan 0.012896 -0.992746 0.009052 1.000000
tan -0.005580 -0.957282 0.049724 1.000000
tan -0.001488 -0.958770 0.019468 1.000000
tan -0.007874 -1.000000 0.047244 1.000000
tan 0.033604 -0.783433 0.418129 1.000000
tan -0.007378 -0.985554 0.048546 1.000000
tan -0.006510 -0.956538 0.018538 1.000000
tan -0.075020 -0.958770 -0.024800 1.000000
tan -0.075020 -0.958770 -0.024800 1.000000
tan -0.018724 -0.944448 -0.074462 1.000000
tan -0.018724 -0.944448 -0.074462 1.000000
tan 0.356501 -0.855912 0.062744 1.000000
tan 0.409449 -0.885486 0.006448 1.000000
tan -0.007812 -0.992126 0.024552 1.000000
tan 0.002790 -0.907186 0.354331 1.000000
tan 0.000000 -0.905512 0.409449 1.000000
tan -0.009982 -0.845186 0.422531 1.000000
tan -0.008122 -0.985554 0.045942 1.000000
tan -0.009300 -0.957282 0.044764 1.000000
tan -0.009982 -0.956538 0.044454 1.000000
tan -0.008246 -0.956538 0.012958 1.000000
tan -0.024862 -0.968256 0.038812 1.000000
tan -0.007812 -0.992126 0.014818 1.000000
tan -0.028272 -0.975386 0.036518 1.000000
tan -0.007874 -1.000000 -0.078740 1.000000
tan -0.007874 -1.000000 -0.078740 1.000000
tan 0.004836 -0.944448 -0.081778 1.000000
tan 0.004836 -0.944448 -0.081778 1.000000
tan -0.011408 -0.958770 0.010540 1.000000
tan -0.021390 -0.960506 0.009858 1.000000
tan -0.198028 -0.924112 0.293695 1.000000
tan -0.395251 -0.842892 0.063240 1.000000
tan -0.035340 -0.999752 0.031620 1.000000
tan -0.046872 -0.944448 0.007068 1.000000
tan -0.046872 -0.941906 0.004836 1.000000
tan -0.370079 -0.921260 0.000000 1.000000
tan -0.047244 -0.992126 0.000000 1.000000
tan -0.047244 -0.967140 0.001116 1.000000
tan -0.015624 -0.940790 0.002232 1.000000
tan -0.047244 -1.000000 0.000000 1.000000
tan -0.015748 -0.972348 0.000248 1.000000
tan -0.047244 -0.977928 -0.000372 1.000000
tan -0.047244 -0.972348 -0.000744 1.000000
tan 0.075020 -0.958770 -0.024800 1.000000
tan 0.075020 -0.958770 -0.024800 1.000000
tan -0.046500 -0.947734 -0.008928 1.000000
tan -0.046872 -0.940790 -0.006696 1.000000
tan -0.015748 -0.972224 -0.000248 1.000000
tan -0.051584 -0.978114 -0.010168 1.000000
tan -0.082708 -0.979292 0.012152 1.000000
tan -0.015748 -1.000000 0.000000 1.000000
tan -0.057970 -0.946680 -0.016244 1.000000
tan -0.028644 -0.993428 0.008742 1.000000
tan -0.053382 -0.968504 -0.033356 1.000000
tan -0.023622 -0.904148 -0.000744 1.000000
tan -0.054498 -0.945006 -0.025172 1.000000
tan -0.050406 -0.961808 0.016244 1.000000
tan -0.062496 -0.992126 -0.042284 1.000000
tan -0.052514 -0.956538 0.003782 1.000000
tan -0.091512 -0.960878 -0.069936 1.000000
tan 0.009300 -0.987538 0.095728 1.000000
tan 0.009300 -0.987538 0.095728 1.000000
tan -0.070308 -0.992126 -0.052824 1.000000
tan -0.126480 -0.821254 -0.345341 1.000000
tan -0.078120 -0.992126 -0.025048 1.000000
tan -0.105090 -0.945006 -0.093372 1.000000
tan -0.062496 -0.992126 -0.016182 1.000000
tan -0.121520 -0.935830 -0.129704 1.000000
tan -0.127348 -0.941410 -0.142476 1.000000
tan -0.203608 -0.872528 -0.172856 1.000000
tan -0.117862 -0.932358 -0.067084 1.000000
tan -0.015934 -0.884122 -0.439395 1.000000
tan -0.050344 -0.913386 -0.373055 1.000000
tan -0.038502 -0.907186 -0.353835 1.000000
tan -0.085126 -0.964598 0.057660 1.000000
tan -0.085126 -0.964598 0.057660 1.000000
tan -0.052142 -0.972224 0.091760 1.000000
tan -0.052142 -0.972224 0.091760 1.000000
tan -0.356501 -0.851882 -0.059892 1.000000
tan -0.425197 -0.884990 -0.006696 1.000000
tan 0.078740 -0.948664 0.004340 1.000000
tan 0.078740 -0.948664 0.004340 1.000000
tan 0.078740 -0.992126 0.000000 1.000000
tan 0.078740 -0.992126 0.000000 1.000000
tan 0.121520 -0.965342 0.209064 1.000000
tan 0.250915 -0.858578 0.132432 1.000000
tan 0.121520 -0.965342 0.209064 1.000000
tan 0.304979 -0.891438 -0.221278 1.000000
tan 0.354331 -0.930002 -0.002790 1.000000
tan -0.078740 -0.992126 0.000000 1.000000
tan -0.078740 -0.992126 0.000000 1.000000
tan 0.705189 -0.249736 0.645173 1.000000
tan 0.751751 -0.104904 0.635501 1.000000
tan 0.775002 -0.178684 0.604501 1.000000
tan 0.786658 -0.282720 0.544609 1.000000
tan 0.821502 -0.170624 0.542501 1.000000
tan 0.759502 -0.099386 0.627751 1.000000
tan 0.759502 -0.054436 0.620001 1.000000
tan 0.798252 -0.167214 0.573501 1.000000
tan 0.806002 0.074648 0.565751 1.000000
tan 0.757703 0.013330 0.577655 1.000000
tan 0.821502 0.166284 0.542501 1.000000
tan 0.840226 0.248745 0.457623 1.000000
tan 0.806002 0.090830 0.565751 1.000000
tan 0.709963 -0.341931 0.603137 1.000000
tan 0.683241 -0.256432 0.643809 1.000000
tan 0.760865 -0.364313 0.541385 1.000000
tan 0.734763 -0.072230 0.602145 1.000000
tan 0.796330 -0.335421 0.491413 1.000000
tan 0.786782 0.136896 0.528613 1.000000
tan 0.799306 0.286689 0.489801 1.000000
tan 0.798252 -0.089218 0.573501 1.000000
tan 0.803770 -0.228842 0.491909 1.000000
tan 0.768739 -0.037386 0.554839 1.000000
tan 0.798252 0.167214 0.573501 1.000000
tan 0.780706 0.363569 0.502945 1.000000
tan 0.733771 0.361461 0.568727 1.000000
tan 0.782752 0.159278 0.596751 1.000000
tan 0.787712 0.297601 0.540145 1.000000
tan 0.735197 0.298469 0.600161 1.000000
tan 0.775002 0.127720 0.604501 1.000000
tan 0.698865 0.304049 0.626449 1.000000
tan 0.759502 0.111538 0.627751 1.000000
tan 0.705189 0.238577 0.645173 1.000000
tan 0.711017 0.143096 0.642941 1.000000
tan 0.767252 0.043958 0.612251 1.000000
tan 0.714551 0.169570 0.619319 1.000000
tan 0.798252 -0.048918 0.573501 1.000000
tan 0.763470 0.018414 0.589063 1.000000
tan 0.817720 -0.236654 0.487631 1.000000
tan 0.796082 -0.139438 0.505921 1.000000
tan -0.192324 -0.777481 -0.586521 1.000000
tan -0.280861 -0.363941 -0.884742 1.000000
tan -0.111972 -0.787091 -0.600905 1.000000
tan -0.431645 -0.368839 -0.819393 1.000000
tan -0.024118 -0.977742 -0.129766 1.000000
tan -0.472565 -0.787712 -0.391469 1.000000
tan -0.695021 -0.368281 -0.614545 1.000000
tan 0.020956 -0.935644 -0.158038 1.000000
tan 0.154814 -0.962366 0.104470 1.000000
tan -0.600285 -0.776985 -0.122884 1.000000
tan -0.877922 -0.369025 -0.307273 1.000000
tan -0.058590 -0.974270 -0.135036 1.000000
tan -0.614173 -0.787401 0.000000 1.000000
tan -0.929134 -0.370079 -0.007316 1.000000
tan -0.123194 -0.947796 -0.036642 1.000000
tan -0.133858 -0.992126 -0.007812 1.000000
tan -0.604501 -0.774877 0.106392 1.000000
tan -0.885238 -0.368777 0.285325 1.000000
tan -0.498109 -0.785355 0.357865 1.000000
tan -0.716969 -0.367537 0.585281 1.000000
tan -0.133858 -0.947796 0.007378 1.000000
tan -0.212784 -0.778287 0.575485 1.000000
tan -0.438961 -0.370265 0.819394 1.000000
tan -0.114886 -0.975200 0.068510 1.000000
tan -0.043524 -0.789013 0.614173 1.000000
tan -0.139004 -0.368777 0.921818 1.000000
tan 0.139004 -0.368777 0.921818 1.000000
tan -0.026350 -0.935644 0.130696 1.000000
tan -0.001054 -0.977742 0.133858 1.000000
tan 0.043524 -0.789013 0.614173 1.000000
tan 0.212784 -0.778287 0.575485 1.000000
tan 0.438961 -0.370265 0.819394 1.000000
tan 0.001054 -0.977742 0.133858 1.000000
tan 0.498109 -0.785355 0.357865 1.000000
tan 0.716969 -0.367537 0.585281 1.000000
tan 0.026350 -0.935644 0.130696 1.000000
tan -0.001054 -0.977742 -0.133858 1.000000
tan -0.026350 -0.935644 -0.130696 1.000000
tan 0.114886 -0.975200 0.068510 1.000000
tan 0.604501 -0.774877 0.106392 1.000000
tan 0.885238 -0.368777 0.285325 1.000000
tan 0.133858 -0.947796 0.007378 1.000000
tan 0.614173 -0.787401 0.000000 1.000000
tan 0.929134 -0.370079 0.000000 1.000000
tan 0.133858 -0.992126 0.000000 1.000000
tan 0.604501 -0.774877 -0.106392 1.000000
tan 0.885238 -0.369769 -0.292641 1.000000
tan 0.485337 -0.784550 -0.372249 1.000000
tan 0.702337 -0.368653 -0.607229 1.000000
tan 0.131192 -0.947796 -0.014694 1.000000
tan 0.182094 -0.774381 -0.589621 1.000000
tan 0.409697 -0.369645 -0.834025 1.000000
tan 0.084754 -0.975200 -0.104222 1.000000
tan 0.026412 -0.787960 -0.616281 1.000000
tan 0.124372 -0.367785 -0.921818 1.000000
tan -0.019096 -0.363693 -0.929630 1.000000
tan 0.013950 -0.785851 -0.621551 1.000000
tan 0.006634 -0.977742 -0.135222 1.000000
tan -0.037386 -0.977742 -0.140678 1.000000
tan -0.114266 -0.970054 0.153264 1.000000
tan -0.034472 -0.935644 -0.165850 1.000000
tan -0.116374 -0.970054 0.112344 1.000000
tan -0.087234 -0.774443 0.625147 1.000000
tan -0.087172 -0.935644 0.095542 1.000000
tan -0.139996 -0.975200 0.038750 1.000000
tan -0.129084 -0.788145 0.598797 1.000000
tan -0.192634 -0.236716 0.945998 1.000000
tan -0.133858 -0.947796 0.007378 1.000000
tan -0.320293 -0.253704 0.915122 1.000000
tan -0.289045 -0.099014 0.953066 1.000000
tan -0.367165 -0.111166 0.921818 1.000000
tan -0.539029 -0.116188 0.835886 1.000000
tan -0.244033 -0.779093 0.558249 1.000000
tan -0.510943 -0.253952 0.823610 1.000000
tan -0.506913 -0.786161 0.348255 1.000000
tan -0.747350 -0.256060 0.610081 1.000000
tan -0.765577 -0.112034 0.632773 1.000000
tan -0.604501 -0.774877 0.106392 1.000000
tan -0.915122 -0.259284 0.320293 1.000000
tan -0.929630 -0.116932 0.343729 1.000000
tan -0.133858 -0.992126 0.000000 1.000000
tan -0.614173 -0.787401 0.000000 1.000000
tan -0.968504 -0.259842 0.000000 1.000000
tan -0.992126 -0.110236 0.007812 1.000000
tan -0.604501 -0.774877 -0.106392 1.000000
tan -0.133858 -0.947796 -0.007378 1.000000
tan -0.915122 -0.258603 -0.312667 1.000000
tan -0.937442 -0.117490 -0.335917 1.000000
tan -0.114886 -0.975200 -0.068510 1.000000
tan -0.498109 -0.785356 -0.357865 1.000000
tan -0.747350 -0.257363 -0.617707 1.000000
tan -0.765577 -0.112034 -0.632773 1.000000
tan -0.212784 -0.778287 -0.575485 1.000000
tan -0.472813 -0.254201 -0.846488 1.000000
tan -0.492157 -0.116002 -0.859322 1.000000
tan -0.160146 -0.255813 -0.953252 1.000000
tan -0.171864 -0.112592 -0.976502 1.000000
tan -0.043524 -0.789014 -0.614173 1.000000
tan 0.001054 -0.977742 -0.133858 1.000000
tan 0.043524 -0.789014 -0.614173 1.000000
tan 0.160146 -0.255813 -0.953252 1.000000
tan 0.171864 -0.112592 -0.976502 1.000000
tan 0.492157 -0.116002 -0.859322 1.000000
tan 0.212784 -0.778287 -0.575485 1.000000
tan 0.026350 -0.935644 -0.130696 1.000000
tan 0.472813 -0.254201 -0.846488 1.000000
tan 0.765577 -0.112034 -0.632773 1.000000
tan 0.498109 -0.785356 -0.357865 1.000000
tan 0.114886 -0.975200 -0.068510 1.000000
tan 0.747350 -0.257363 -0.617707 1.000000
tan 0.915122 -0.258603 -0.312667 1.000000
tan 0.937442 -0.117180 -0.328105 1.000000
tan 0.992126 -0.110236 0.007812 1.000000
tan 0.133858 -0.947796 -0.007378 1.000000
tan 0.604501 -0.774877 -0.106392 1.000000
tan 0.968504 -0.259842 0.007626 1.000000
tan 0.937442 -0.117490 0.335917 1.000000
tan 0.133858 -0.992126 0.000000 1.000000
tan 0.614173 -0.787401 0.000000 1.000000
tan 0.915122 -0.258602 0.312667 1.000000
tan 0.789014 -0.111848 0.601525 1.000000
tan 0.606609 -0.774877 0.100564 1.000000
tan 0.770228 -0.256804 0.587203 1.000000
tan 0.139190 -0.947796 -0.007254 1.000000
tan 0.523653 -0.782999 0.324261 1.000000
tan 0.170128 -0.970178 0.001984 1.000000
tan 0.135532 -0.932792 0.067146 1.000000
tan 0.285511 -0.782999 0.537913 1.000000
tan 0.214644 -0.781139 0.578585 1.000000
tan 0.602455 -0.251968 0.762601 1.000000
tan 0.512927 -0.239196 0.823238 1.000000
tan 0.664021 -0.113460 0.742141 1.000000
tan 0.593713 -0.102672 0.796825 1.000000
f 3/3/3 2/2/2 1/1/1
f 5/5/5 2/2/2 4/4/4
f 3/3/3 7/7/7 6/6/6
f 9/9/9 4/4/4 8/8/8
f 11/11/11 6/6/6 10/10/10
f 11/11/11 12/12/12 8/8/8
f 15/15/15 14/14/14 13/13/13
f 15/15/15 13/13/13 16/16/16
f 17/17/17 15/15/15 16/16/16
f 17/17/17 16/16/16 18/18/18
f 21/21/21 20/20/20 19/19/19
f 20/20/20 21/21/21 22/22/22
f 23/23/23 22/22/22 21/21/21
f 23/23/23 24/24/24 22/22/22
f 27/27/27 26/26/26 25/25/25
f 25/25/25 28/28/28 27/27/27
f 28/28/28 29/29/29 27/27/27
f 29/29/29 28/28/28 30/30/30
f 33/33/33 32/32/32 31/31/31
f 32/32/32 33/33/33 34/34/34
f 35/35/35 34/34/34 33/33/33
f 35/35/35 36/36/36 34/34/34
f 39/39/39 38/38/38 37/37/37
f 38/38/38 39/39/39 40/40/40
f 41/41/41 40/40/40 39/39/39
f 41/41/41 42/42/42 40/40/40
f 45/45/45 44/44/44 43/43/43
f 44/44/44 45/45/45 46/46/46
f 47/47/47 46/46/46 45/45/45
f 47/47/47 48/48/48 46/46/46
f 51/51/51 50/50/50 49/49/49
f 49/49/49 52/52/52 51/51/51
f 52/52/52 53/53/53 51/51/51
f 53/53/53 52/52/52 54/54/54
f 57/57/57 56/56/56 55/55/55
f 55/55/55 58/58/58 57/57/57
f 58/58/58 59/59/59 57/57/57
f 59/59/59 58/58/58 60/60/60
f 63/63/63 62/62/62 61/61/61
f 62/62/62 63/63/63 64/64/64
f 65/65/65 64/64/64 63/63/63
f 65/65/65 66/66/66 64/64/64
f 69/69/69 68/68/68 67/67/67
f 68/68/68 69/69/69 70/70/70
f 71/71/71 70/70/70 69/69/69
f 71/71/71 72/72/72 70/70/70
f 75/75/75 74/74/74 73/73/73
f 74/74/74 75/75/75 76/76/76
f 77/77/77 76/76/76 75/75/75
f 77/77/77 78/78/78 76/76/76
f 81/81/81 80/80/80 79/79/79
f 79/79/79 82/82/82 81/81/81
f 82/82/82 83/83/83 81/81/81
f 83/83/83 82/82/82 84/84/84
f 87/87/87 86/86/86 85/85/85
f 85/85/85 88/88/88 87/87/87
f 89/89/89 87/87/87 88/88/88
f 89/89/89 88/88/88 90/90/90
f 93/93/93 92/92/92 91/91/91
f 93/93/93 94/94/94 92/92/92
f 95/95/95 94/94/94 93/93/93
f 94/94/94 95/95/95 96/96/96
f 96/96/96 95/95/95 97/97/97
f 98/98/98 97/97/97 95/95/95
f 98/98/98 99/99/99 97/97/97
f 100/100/100 99/99/99 98/98/98
f 99/99/99 100/100/100 101/101/101
f 101/101/101 100/100/100 102/102/102
f 103/103/103 102/102/102 100/100/100
f 104/104/104 102/102/102 103/103/103
f 104/104/104 105/105/105 102/102/102
f 106/106/106 105/105/105 104/104/104
f 105/105/105 106/106/106 107/107/107
f 107/107/107 106/106/106 108/108/108
f 109/109/109 108/108/108 106/106/106
f 108/108/108 109/109/109 110/110/110
f 111/111/111 110/110/110 109/109/109
f 112/112/112 110/110/110 111/111/111
f 110/110/110 112/112/112 113/113/113
f 113/113/113 112/112/112 114/114/114
f 115/115/115 114/114/114 112/112/112
f 114/114/114 115/115/115 116/116/116
f 117/117/117 116/116/116 115/115/115
f 120/120/120 119/119/119 118/118/118
f 121/121/121 118/118/118 119/119/119
f 119/119/119 122/122/122 121/121/121
f 121/121/121 122/122/122 123/123/123
f 123/123/123 122/122/122 124/124/124
f 125/125/125 124/124/124 122/122/122
f 124/124/124 125/125/125 126/126/126
f 126/126/126 127/127/127 124/124/124
f 127/127/127 126/126/126 128/128/128
f 129/129/129 128/128/128 126/126/126
f 129/129/129 130/130/130 128/128/128
f 131/131/131 128/128/128 130/130/130
f 131/131/131 130/130/130 132/132/132
f 133/133/133 132/132/132 130/130/130
f 133/133/133 134/134/134 132/132/132
f 134/134/134 135/135/135 132/132/132
f 134/134/134 136/136/136 135/135/135
f 136/136/136 134/134/134 137/137/137
f 136/136/136 137/137/137 138/138/138
f 138/138/138 137/137/137 139/139/139
f 140/140/140 138/138/138 139/139/139
f 141/141/141 140/140/140 139/139/139
f 140/140/140 141/141/141 142/142/142
f 141/141/141 143/143/143 142/142/142
f 144/144/144 142/142/142 143/143/143
f 143/143/143 145/145/145 144/144/144
f 145/145/145 146/146/146 144/144/144
f 147/147/147 146/146/146 145/145/145
f 146/146/146 147/147/147 148/148/148
f 149/149/149 148/148/148 147/147/147
f 148/148/148 149/149/149 150/150/150
f 151/151/151 150/150/150 149/149/149
f 150/150/150 151/151/151 152/152/152
f 153/153/153 152/152/152 151/151/151
f 156/156/156 155/155/155 154/154/154
f 157/157/157 154/154/154 155/155/155
f 158/158/158 154/154/154 157/157/157
f 158/158/158 157/157/157 159/159/159
f 158/158/158 159/159/159 160/160/160
f 161/161/161 160/160/160 159/159/159
f 160/160/160 161/161/161 162/162/162
f 162/162/162 161/161/161 163/163/163
f 162/162/162 163/163/163 164/164/164
f 165/165/165 164/164/164 163/163/163
f 166/166/166 164/164/164 165/165/165
f 166/166/166 165/165/165 167/167/167
f 170/170/170 169/169/169 168/168/168
f 169/169/169 171/171/171 168/168/168
f 169/169/169 172/172/172 171/171/171
f 173/173/173 171/171/171 172/172/172
f 176/176/176 175/175/175 174/174/174
f 175/175/175 177/177/177 174/174/174
f 179/179/179 178/178/178 177/177/177
f 178/178/178 180/180/180 177/177/177
f 182/182/182 181/181/181 180/180/180
f 181/181/181 183/183/183 180/180/180
f 183/183/183 184/184/184 180/180/180
f 177/177/177 180/180/180 184/184/184
f 183/183/183 185/185/185 184/184/184
f 186/186/186 184/184/184 185/185/185
f 184/184/184 187/187/187 177/177/177
f 174/174/174 177/177/177 187/187/187
f 184/184/184 188/188/188 187/187/187
f 189/189/189 187/187/187 188/188/188
f 190/190/190 174/174/174 187/187/187
f 191/191/191 190/190/190 187/187/187
f 194/194/194 193/193/193 192/192/192
f 195/195/195 192/192/192 193/193/193
f 196/196/196 195/195/195 193/193/193
f 195/195/195 196/196/196 197/197/197
f 193/193/193 198/198/198 196/196/196
f 199/199/199 197/197/197 196/196/196
f 200/200/200 196/196/196 198/198/198
f 197/197/197 199/199/199 201/201/201
f 198/198/198 202/202/202 200/200/200
f 203/203/203 201/201/201 199/199/199
f 199/199/199 204/204/204 203/203/203
f 200/200/200 202/202/202 204/204/204
f 204/204/204 205/205/205 200/200/200
f 206/206/206 205/205/205 204/204/204
f 203/203/203 207/207/207 201/201/201
f 208/208/208 203/203/203 204/204/204
f 208/208/208 204/204/204 202/202/202
f 207/207/207 209/209/209 201/201/201
f 210/210/210 201/201/201 209/209/209
f 209/209/209 211/211/211 210/210/210
f 212/212/212 210/210/210 211/211/211
f 209/209/209 207/207/207 213/213/213
f 214/214/214 212/212/212 211/211/211
f 213/213/213 207/207/207 215/215/215
f 212/212/212 214/214/214 216/216/216
f 211/211/211 217/217/217 214/214/214
f 218/218/218 216/216/216 214/214/214
f 219/219/219 214/214/214 217/217/217
f 216/216/216 218/218/218 220/220/220
f 217/217/217 221/221/221 219/219/219
f 222/222/222 220/220/220 218/218/218
f 217/217/217 213/213/213 221/221/221
f 218/218/218 223/223/223 222/222/222
f 217/217/217 224/224/224 213/213/213
f 225/225/225 213/213/213 224/224/224
f 219/219/219 221/221/221 223/223/223
f 219/219/219 223/223/223 226/226/226
f 227/227/227 226/226/226 223/223/223
f 228/228/228 221/221/221 213/213/213
f 213/213/213 229/229/229 228/228/228
f 223/223/223 221/221/221 230/230/230
f 230/230/230 222/222/222 223/223/223
f 221/221/221 231/231/231 230/230/230
f 230/230/230 231/231/231 232/232/232
f 233/233/233 230/230/230 232/232/232
f 234/234/234 220/220/220 222/222/222
f 234/234/234 235/235/235 220/220/220
f 236/236/236 220/220/220 235/235/235
f 235/235/235 234/234/234 237/237/237
f 235/235/235 238/238/238 236/236/236
f 237/237/237 234/234/234 239/239/239
f 240/240/240 236/236/236 238/238/238
f 233/233/233 239/239/239 230/230/230
f 239/239/239 241/241/241 230/230/230
f 242/242/242 241/241/241 239/239/239
f 237/237/237 239/239/239 233/233/233
f 244/244/244 237/237/237 243/243/243
f 245/245/245 243/243/243 237/237/237
f 245/245/245 237/237/237 233/233/233
f 245/245/245 233/233/233 246/246/246
f 246/246/246 238/238/238 245/245/245
f 247/247/247 246/246/246 233/233/233
f 248/248/248 246/246/246 247/247/247
f 238/238/238 249/249/249 240/240/240
f 249/249/249 238/238/238 246/246/246
f 240/240/240 249/249/249 250/250/250
f 251/251/251 250/250/250 249/249/249
f 246/246/246 248/248/248 252/252/252
f 250/250/250 251/251/251 253/253/253
f 254/254/254 253/253/253 251/251/251
f 251/251/251 255/255/255 254/254/254
f 256/256/256 253/253/253 254/254/254
f 257/257/257 254/254/254 255/255/255
f 256/256/256 258/258/258 253/253/253
f 255/255/255 246/246/246 257/257/257
f 259/259/259 253/253/253 258/258/258
f 255/255/255 260/260/260 246/246/246
f 261/261/261 260/260/260 255/255/255
f 252/252/252 257/257/257 246/246/246
f 258/258/258 262/262/262 259/259/259
f 263/263/263 259/259/259 262/262/262
f 258/258/258 256/256/256 264/264/264
f 262/262/262 265/265/265 263/263/263
f 266/266/266 263/263/263 265/265/265
f 264/264/264 256/256/256 267/267/267
f 268/268/268 266/266/266 265/265/265
f 265/265/265 262/262/262 269/269/269
f 266/266/266 268/268/268 270/270/270
f 269/269/269 262/262/262 271/271/271
f 272/272/272 270/270/270 268/268/268
f 268/268/268 273/273/273 272/272/272
f 274/274/274 270/270/270 272/272/272
f 275/275/275 272/272/272 273/273/273
f 270/270/270 274/274/274 276/276/276
f 278/278/278 277/277/277 273/273/273
f 273/273/273 277/277/277 269/269/269
f 279/279/279 276/276/276 274/274/274
f 269/269/269 280/280/280 273/273/273
f 273/273/273 280/280/280 275/275/275
f 269/269/269 271/271/271 280/280/280
f 279/279/279 274/274/274 281/281/281
f 279/279/279 282/282/282 276/276/276
f 281/281/281 274/274/274 283/283/283
f 282/282/282 284/284/284 276/276/276
f 285/285/285 276/276/276 284/284/284
f 284/284/284 282/282/282 286/286/286
f 286/286/286 282/282/282 287/287/287
f 288/288/288 286/286/286 287/287/287
f 287/287/287 289/289/289 288/288/288
f 287/287/287 283/283/283 289/289/289
f 283/283/283 290/290/290 289/289/289
f 280/280/280 290/290/290 283/283/283
f 287/287/287 281/281/281 283/283/283
f 287/287/287 291/291/291 281/281/281
f 292/292/292 281/281/281 291/291/291
f 275/275/275 280/280/280 283/283/283
f 283/283/283 293/293/293 275/275/275
f 294/294/294 293/293/293 283/283/283
f 295/295/295 280/280/280 271/271/271
f 271/271/271 296/296/296 295/295/295
f 271/271/271 252/252/252 296/296/296
f 271/271/271 264/264/264 252/252/252
f 271/271/271 297/297/297 264/264/264
f 298/298/298 264/264/264 297/297/297
f 267/267/267 252/252/252 264/264/264
f 257/257/257 252/252/252 267/267/267
f 267/267/267 299/299/299 257/257/257
f 300/300/300 299/299/299 267/267/267
f 303/303/303 302/302/302 301/301/301
f 198/198/198 301/301/301 302/302/302
f 198/198/198 302/302/302 202/202/202
f 302/302/302 304/304/304 202/202/202
f 305/305/305 208/208/208 202/202/202
f 208/208/208 305/305/305 229/229/229
f 213/213/213 208/208/208 229/229/229
f 213/213/213 215/215/215 208/208/208
f 215/215/215 306/306/306 208/208/208
f 307/307/307 208/208/208 306/306/306
f 310/310/310 309/309/309 308/308/308
f 312/312/312 310/310/310 311/311/311
f 310/310/310 313/313/313 309/309/309
f 314/314/314 309/309/309 313/313/313
f 312/312/312 315/315/315 310/310/310
f 313/313/313 310/310/310 315/315/315
f 317/317/317 314/314/314 316/316/316
f 314/314/314 313/313/313 316/316/316
f 319/319/319 316/316/316 318/318/318
f 320/320/320 316/316/316 313/313/313
f 320/320/320 318/318/318 316/316/316
f 321/321/321 313/313/313 315/315/315
f 322/322/322 313/313/313 321/321/321
f 321/321/321 315/315/315 323/323/323
f 322/322/322 324/324/324 313/313/313
f 313/313/313 324/324/324 320/320/320
f 325/325/325 323/323/323 315/315/315
f 326/326/326 320/320/320 324/324/324
f 320/320/320 326/326/326 327/327/327
f 315/315/315 328/328/328 325/325/325
f 315/315/315 312/312/312 328/328/328
f 329/329/329 325/325/325 328/328/328
f 329/329/329 328/328/328 330/330/330
f 320/320/320 327/327/327 331/331/331
f 331/331/331 318/318/318 320/320/320
f 332/332/332 331/331/331 327/327/327
f 333/333/333 331/331/331 332/332/332
f 318/318/318 331/331/331 334/334/334
f 318/318/318 334/334/334 335/335/335
f 334/334/334 336/336/336 335/335/335
f 331/331/331 333/333/333 337/337/337
f 331/331/331 337/337/337 334/334/334
f 338/338/338 337/337/337 333/333/333
f 336/336/336 334/334/334 339/339/339
f 339/339/339 334/334/334 337/337/337
f 339/339/339 340/340/340 336/336/336
f 341/341/341 340/340/340 339/339/339
f 337/337/337 338/338/338 342/342/342
f 342/342/342 339/339/339 337/337/337
f 343/343/343 342/342/342 338/338/338
f 330/330/330 342/342/342 343/343/343
f 342/342/342 330/330/330 328/328/328
f 339/339/339 344/344/344 341/341/341
f 339/339/339 342/342/342 344/344/344
f 342/342/342 328/328/328 344/344/344
f 344/344/344 328/328/328 312/312/312
f 345/345/345 341/341/341 344/344/344
f 346/346/346 344/344/344 312/312/312
f 344/344/344 347/347/347 345/345/345
f 344/344/344 346/346/346 347/347/347
f 350/350/350 349/349/349 348/348/348
f 351/351/351 348/348/348 349/349/349
f 350/350/350 348/348/348 352/352/352
f 348/348/348 351/351/351 353/353/353
f 354/354/354 353/353/353 351/351/351
f 348/348/348 355/355/355 352/352/352
f 348/348/348 353/353/353 355/355/355
f 352/352/352 355/355/355 356/356/356
f 353/353/353 354/354/354 357/357/357
f 358/358/358 357/357/357 354/354/354
f 353/353/353 359/359/359 355/355/355
f 357/357/357 358/358/358 360/360/360
f 361/361/361 360/360/360 358/358/358
f 357/357/357 362/362/362 353/353/353
f 359/359/359 353/353/353 362/362/362
f 360/360/360 363/363/363 357/357/357
f 362/362/362 357/357/357 363/363/363
f 360/360/360 361/361/361 364/364/364
f 360/360/360 364/364/364 363/363/363
f 365/365/365 364/364/364 361/361/361
f 364/364/364 365/365/365 366/366/366
f 367/367/367 366/366/366 365/365/365
f 364/364/364 368/368/368 363/363/363
f 364/364/364 366/366/366 368/368/368
f 366/366/366 367/367/367 369/369/369
f 370/370/370 369/369/369 367/367/367
f 371/371/371 368/368/368 366/366/366
f 369/369/369 370/370/370 372/372/372
f 373/373/373 372/372/372 370/370/370
f 373/373/373 374/374/374 372/372/372
f 369/369/369 375/375/375 366/366/366
f 371/371/371 366/366/366 375/375/375
f 372/372/372 376/376/376 369/369/369
f 375/375/375 369/369/369 376/376/376
f 374/374/374 377/377/377 372/372/372
f 372/372/372 377/377/377 376/376/376
f 377/377/377 374/374/374 378/378/378
f 379/379/379 378/378/378 374/374/374
f 380/380/380 376/376/376 377/377/377
f 377/377/377 378/378/378 380/380/380
f 378/378/378 379/379/379 381/381/381
f 382/382/382 381/381/381 379/379/379
f 378/378/378 383/383/383 380/380/380
f 378/378/378 381/381/381 383/383/383
f 380/380/380 384/384/384 376/376/376
f 383/383/383 385/385/385 380/380/380
f 384/384/384 380/380/380 385/385/385
f 381/381/381 386/386/386 383/383/383
f 383/383/383 386/386/386 385/385/385
f 381/381/381 382/382/382 387/387/387
f 388/388/388 387/387/387 382/382/382
f 386/386/386 381/381/381 389/389/389
f 387/387/387 389/389/389 381/381/381
f 387/387/387 388/388/388 390/390/390
f 391/391/391 390/390/390 388/388/388
f 390/390/390 392/392/392 387/387/387
f 389/389/389 387/387/387 392/392/392
f 390/390/390 391/391/391 393/393/393
f 390/390/390 393/393/393 392/392/392
f 394/394/394 393/393/393 391/391/391
f 393/393/393 394/394/394 395/395/395
f 396/396/396 395/395/395 394/394/394
f 393/393/393 397/397/397 392/392/392
f 393/393/393 395/395/395 397/397/397
f 395/395/395 396/396/396 398/398/398
f 399/399/399 398/398/398 396/396/396
f 395/395/395 400/400/400 397/397/397
f 398/398/398 399/399/399 401/401/401
f 402/402/402 401/401/401 399/399/399
f 401/401/401 402/402/402 403/403/403
f 404/404/404 401/401/401 403/403/403
f 404/404/404 405/405/405 401/401/401
f 406/406/406 401/401/401 405/405/405
f 401/401/401 406/406/406 398/398/398
f 405/405/405 407/407/407 406/406/406
f 398/398/398 408/408/408 395/395/395
f 408/408/408 398/398/398 406/406/406
f 400/400/400 395/395/395 408/408/408
f 409/409/409 406/406/406 407/407/407
f 407/407/407 410/410/410 409/409/409
f 408/408/408 406/406/406 411/411/411
f 409/409/409 411/411/411 406/406/406
f 400/400/400 408/408/408 412/412/412
f 411/411/411 412/412/412 408/408/408
f 400/400/400 412/412/412 397/397/397
f 413/413/413 409/409/409 410/410/410
f 410/410/410 414/414/414 413/413/413
f 415/415/415 397/397/397 412/412/412
f 397/397/397 415/415/415 392/392/392
f 416/416/416 413/413/413 414/414/414
f 414/414/414 417/417/417 416/416/416
f 418/418/418 416/416/416 417/417/417
f 418/418/418 419/419/419 416/416/416
f 409/409/409 413/413/413 420/420/420
f 413/413/413 416/416/416 420/420/420
f 411/411/411 409/409/409 420/420/420
f 421/421/421 416/416/416 419/419/419
f 421/421/421 420/420/420 416/416/416
f 411/411/411 420/420/420 422/422/422
f 420/420/420 421/421/421 422/422/422
f 422/422/422 412/412/412 411/411/411
f 412/412/412 422/422/422 415/415/415
f 421/421/421 419/419/419 423/423/423
f 423/423/423 422/422/422 421/421/421
f 424/424/424 423/423/423 419/419/419
f 425/425/425 415/415/415 422/422/422
f 422/422/422 423/423/423 425/425/425
f 423/423/423 424/424/424 426/426/426
f 426/426/426 425/425/425 423/423/423
f 427/427/427 426/426/426 424/424/424
f 415/415/415 425/425/425 428/428/428
f 428/428/428 392/392/392 415/415/415
f 392/392/392 428/428/428 389/389/389
f 425/425/425 426/426/426 429/429/429
f 429/429/429 428/428/428 425/425/425
f 426/426/426 427/427/427 430/430/430
f 430/430/430 429/429/429 426/426/426
f 431/431/431 430/430/430 427/427/427
f 428/428/428 429/429/429 432/432/432
f 429/429/429 430/430/430 432/432/432
f 433/433/433 389/389/389 428/428/428
f 433/433/433 428/428/428 432/432/432
f 389/389/389 433/433/433 386/386/386
f 430/430/430 431/431/431 434/434/434
f 434/434/434 432/432/432 430/430/430
f 435/435/435 434/434/434 431/431/431
f 436/436/436 386/386/386 433/433/433
f 436/436/436 385/385/385 386/386/386
f 436/436/436 433/433/433 437/437/437
f 436/436/436 437/437/437 385/385/385
f 433/433/433 432/432/432 437/437/437
f 434/434/434 435/435/435 438/438/438
f 434/434/434 438/438/438 432/432/432
f 438/438/438 437/437/437 432/432/432
f 439/439/439 438/438/438 435/435/435
f 440/440/440 385/385/385 437/437/437
f 437/437/437 438/438/438 440/440/440
f 385/385/385 440/440/440 384/384/384
f 438/438/438 439/439/439 441/441/441
f 441/441/441 440/440/440 438/438/438
f 442/442/442 441/441/441 439/439/439
f 441/441/441 442/442/442 443/443/443
f 440/440/440 441/441/441 443/443/443
f 444/444/444 443/443/443 442/442/442
f 445/445/445 384/384/384 440/440/440
f 443/443/443 445/445/445 440/440/440
f 384/384/384 445/445/445 446/446/446
f 446/446/446 376/376/376 384/384/384
f 376/376/376 446/446/446 375/375/375
f 445/445/445 443/443/443 447/447/447
f 447/447/447 446/446/446 445/445/445
f 443/443/443 444/444/444 448/448/448
f 448/448/448 447/447/447 443/443/443
f 449/449/449 448/448/448 444/444/444
f 448/448/448 449/449/449 450/450/450
f 446/446/446 447/447/447 451/451/451
f 447/447/447 448/448/448 451/451/451
f 452/452/452 375/375/375 446/446/446
f 452/452/452 446/446/446 451/451/451
f 375/375/375 452/452/452 371/371/371
f 450/450/450 453/453/453 448/448/448
f 453/453/453 451/451/451 448/448/448
f 450/450/450 454/454/454 453/453/453
f 452/452/452 451/451/451 455/455/455
f 451/451/451 453/453/453 455/455/455
f 456/456/456 371/371/371 452/452/452
f 455/455/455 456/456/456 452/452/452
f 454/454/454 457/457/457 453/453/453
f 457/457/457 455/455/455 453/453/453
f 457/457/457 454/454/454 458/458/458
f 457/457/457 458/458/458 455/455/455
f 459/459/459 458/458/458 454/454/454
f 459/459/459 460/460/460 458/458/458
f 456/456/456 461/461/461 371/371/371
f 456/456/456 455/455/455 461/461/461
f 368/368/368 371/371/371 461/461/461
f 368/368/368 461/461/461 363/363/363
f 458/458/458 462/462/462 455/455/455
f 462/462/462 461/461/461 455/455/455
f 463/463/463 458/458/458 460/460/460
f 458/458/458 463/463/463 462/462/462
f 460/460/460 464/464/464 463/463/463
f 465/465/465 363/363/363 461/461/461
f 461/461/461 462/462/462 465/465/465
f 363/363/363 465/465/465 362/362/362
f 463/463/463 466/466/466 462/462/462
f 466/466/466 465/465/465 462/462/462
f 467/467/467 463/463/463 464/464/464
f 464/464/464 468/468/468 467/467/467
f 466/466/466 463/463/463 469/469/469
f 467/467/467 469/469/469 463/463/463
f 465/465/465 466/466/466 469/469/469
f 468/468/468 470/470/470 467/467/467
f 469/469/469 467/467/467 470/470/470
f 471/471/471 362/362/362 465/465/465
f 471/471/471 465/465/465 469/469/469
f 362/362/362 471/471/471 359/359/359
f 471/471/471 469/469/469 472/472/472
f 472/472/472 469/469/469 470/470/470
f 473/473/473 359/359/359 471/471/471
f 473/473/473 471/471/471 472/472/472
f 359/359/359 473/473/473 355/355/355
f 474/474/474 355/355/355 473/473/473
f 473/473/473 472/472/472 474/474/474
f 474/474/474 356/356/356 355/355/355
f 475/475/475 474/474/474 472/472/472
f 474/474/474 475/475/475 356/356/356
f 472/472/472 470/470/470 475/475/475
f 476/476/476 356/356/356 475/475/475
f 477/477/477 475/475/475 470/470/470
f 475/475/475 477/477/477 476/476/476
f 470/470/470 468/468/468 477/477/477
f 478/478/478 476/476/476 477/477/477
f 479/479/479 477/477/477 468/468/468
f 480/480/480 478/478/478 477/477/477
f 479/479/479 480/480/480 477/477/477
