mtllib SM_Light_Pole_01_LOD2.mtl
g SM_Light_Pole_01_LOD2
#Vertices 519
#Indices 1527
#Section 0 Offset 0 NumIndices 1383 MaterialIndex 1 MI_Light_pole
#Section 1 Offset 1383 NumIndices 144 MaterialIndex 0 MI_Light_Pole_Glass
v 0.360454 5.761726 0.435838
v 0.004185 5.761726 0.435838
v -0.012878 5.761726 0.418775
v 0.391258 -0.000069 0.280806
v 0.435601 0.038453 0.280028
v 0.391196 0.044647 0.279951
v 0.483995 0.002496 0.279127
v 0.391258 -0.000069 0.317477
v 0.436562 0.039075 0.318476
v 0.482163 0.002340 0.318744
v 0.391225 0.043870 0.318220
v 0.391258 -0.000069 0.165627
v 0.435602 0.038453 0.164849
v 0.391196 0.044647 0.164772
v 0.483995 0.002496 0.163949
v 0.391258 -0.000069 0.202298
v 0.436563 0.039075 0.203297
v 0.482163 0.002340 0.203565
v 0.391225 0.043870 0.203041
v 0.142161 -0.000069 0.449586
v 0.142940 0.038454 0.493929
v 0.143017 0.044647 0.449524
v 0.143840 0.002496 0.542323
v 0.105491 -0.000069 0.449586
v 0.104492 0.039076 0.494890
v 0.104224 0.002340 0.540491
v 0.104748 0.043870 0.449553
v 0.257340 -0.000069 0.449586
v 0.258118 0.038454 0.493928
v 0.258195 0.044647 0.449524
v 0.259019 0.002497 0.542323
v 0.220669 -0.000069 0.449586
v 0.219670 0.039076 0.494889
v 0.219403 0.002340 0.540491
v 0.219927 0.043870 0.449553
v 0.222478 -0.000069 0.031710
v 0.221700 0.038454 -0.012633
v 0.221623 0.044647 0.031771
v 0.220799 0.002496 -0.061027
v 0.259149 -0.000069 0.031710
v 0.260148 0.039075 -0.013595
v 0.260416 0.002340 -0.059195
v 0.259892 0.043870 0.031742
v 0.107299 -0.000069 0.031710
v 0.106521 0.038454 -0.012633
v 0.106444 0.044647 0.031772
v 0.105621 0.002496 -0.061027
v 0.143970 -0.000069 0.031710
v 0.144969 0.039075 -0.013595
v 0.145237 0.002340 -0.059195
v 0.144713 0.043870 0.031742
v -0.026618 -0.000069 0.200489
v -0.070961 0.038454 0.201268
v -0.026557 0.044647 0.201345
v -0.119355 0.002496 0.202168
v -0.026618 -0.000069 0.163819
v -0.071923 0.039076 0.162820
v -0.117523 0.002340 0.162552
v -0.026586 0.043870 0.163076
v -0.026618 -0.000069 0.315668
v -0.070961 0.038454 0.316446
v -0.026557 0.044647 0.316523
v -0.119355 0.002496 0.317347
v -0.026618 -0.000069 0.278998
v -0.071922 0.039076 0.277998
v -0.117523 0.002340 0.277731
v -0.026586 0.043870 0.278255
v -0.012878 5.761726 0.418775
v -0.012878 5.761726 0.062506
v 0.004185 5.761726 0.045443
v 0.360454 5.761726 0.435838
v 0.066165 6.087738 0.290438
v 0.066611 5.825718 0.290256
v 0.056161 5.825718 0.240640
v 0.057900 6.087871 0.211423
v 0.075476 5.825003 0.170418
v 0.092777 6.087565 0.151099
v 0.148960 5.825180 0.113616
v 0.164379 6.087917 0.113043
v 0.239568 5.825858 0.124528
v 0.252555 6.087914 0.133429
v 0.287769 5.825150 0.168150
v 0.308857 6.088029 0.211641
v 0.308476 5.825718 0.240640
v 0.298027 5.825718 0.290256
v 0.298027 6.087565 0.290256
v 0.252885 6.087762 0.349878
v 0.252927 5.825068 0.347493
v 0.182319 5.825718 0.366797
v 0.175917 6.087753 0.367387
v 0.111788 5.825629 0.349664
v 0.109159 6.087766 0.345909
v 0.066165 6.087738 0.290438
v 0.066611 5.825718 0.290256
v 0.061043 0.000115 -0.000829
v 0.061510 0.000064 0.030498
v 0.062024 0.058275 0.030791
v 0.063249 0.063205 -0.001022
v 0.067672 0.061917 0.027236
v 0.296958 0.061917 0.027236
v 0.303018 0.064627 -0.000641
v 0.302291 0.059994 0.030641
v 0.300821 0.058054 0.003863
v 0.303774 0.000044 -0.000769
v 0.302866 0.000085 0.030721
v 0.423796 0.000115 0.119380
v 0.392470 0.000064 0.119847
v 0.392176 0.058275 0.120360
v 0.423465 0.065087 0.119929
v 0.395731 0.061917 0.126009
v 0.419104 0.061917 0.126009
v 0.395731 0.061917 0.355298
v 0.423608 0.064627 0.361357
v 0.392326 0.059994 0.360631
v 0.419104 0.058054 0.359161
v 0.423736 0.000044 0.362115
v 0.392246 0.000085 0.361207
v 0.303588 0.000115 0.482137
v 0.303120 0.000063 0.450810
v 0.302607 0.058275 0.450516
v 0.301382 0.063205 0.482328
v 0.296958 0.061917 0.454071
v 0.067672 0.061917 0.454071
v 0.061613 0.064628 0.481947
v 0.062340 0.059994 0.450666
v 0.063810 0.058054 0.477444
v 0.060857 0.000044 0.482076
v 0.061764 0.000084 0.450587
v -0.059164 0.000115 0.361928
v -0.027837 0.000064 0.361461
v -0.027544 0.058275 0.360947
v -0.059356 0.063205 0.359721
v -0.031099 0.061917 0.355298
v -0.031099 0.061917 0.126009
v -0.058975 0.064627 0.119949
v -0.027694 0.059994 0.120676
v -0.054472 0.058054 0.122146
v -0.059103 0.000044 0.119193
v -0.027614 0.000084 0.120101
v 0.094386 5.761311 0.374608
v 0.039432 5.762321 0.301998
v 0.066611 5.825718 0.290256
v 0.111788 5.825629 0.349664
v 0.183947 5.761828 0.396985
v 0.182319 5.825718 0.366797
v 0.252927 5.825068 0.347493
v 0.303380 5.757642 0.351736
v 0.298027 5.825718 0.290256
v 0.343096 5.757283 0.213429
v 0.308476 5.825718 0.240640
v 0.287769 5.825150 0.168150
v 0.239568 5.825858 0.124528
v 0.304895 5.761727 0.150529
v 0.208973 5.762325 0.089324
v 0.148960 5.825180 0.113616
v 0.080468 5.760384 0.119122
v 0.075476 5.825003 0.170418
v 0.025591 5.761956 0.223441
v 0.056161 5.825718 0.240640
v 0.066611 5.825718 0.290256
v 0.039432 5.762321 0.301998
v 0.285068 6.151693 0.337806
v 0.308751 6.147079 0.294462
v 0.298027 6.087565 0.290256
v 0.252885 6.087762 0.349878
v 0.220072 6.147295 0.374266
v 0.175917 6.087753 0.367387
v 0.162101 6.146214 0.375842
v 0.109159 6.087766 0.345909
v 0.086428 6.147258 0.343279
v 0.066165 6.087738 0.290438
v 0.039876 6.147674 0.256749
v 0.057900 6.087871 0.211423
v 0.056782 6.147459 0.187105
v 0.095280 6.147035 0.128938
v 0.092777 6.087565 0.151099
v 0.164379 6.087917 0.113043
v 0.200792 6.146616 0.099681
v 0.252555 6.087914 0.133429
v 0.290950 6.146734 0.150123
v 0.308857 6.088029 0.211641
v 0.320857 6.148112 0.240100
v 0.308751 6.147079 0.294462
v 0.298027 6.087565 0.290256
v 0.377516 5.761726 0.062506
v 0.377516 5.761726 0.418775
v 0.360454 5.761726 0.435838
v 0.004185 5.761726 0.045443
v 0.360454 5.761726 0.045443
v 0.062024 0.058275 0.030791
v 0.061510 0.000064 0.030498
v 0.302866 0.000085 0.030721
v 0.302291 0.059994 0.030641
v 0.296958 0.061917 0.027236
v 0.067672 0.061917 0.027236
v 0.392176 0.058275 0.120360
v 0.392470 0.000064 0.119847
v 0.392246 0.000085 0.361207
v 0.392326 0.059994 0.360631
v 0.395731 0.061917 0.355298
v 0.395731 0.061917 0.126009
v 0.302607 0.058275 0.450516
v 0.303120 0.000063 0.450810
v 0.061764 0.000084 0.450587
v 0.062340 0.059994 0.450666
v 0.067672 0.061917 0.454071
v 0.296958 0.061917 0.454071
v -0.027544 0.058275 0.360947
v -0.027837 0.000064 0.361461
v -0.027614 0.000084 0.120101
v -0.027694 0.059994 0.120676
v -0.031099 0.061917 0.126009
v -0.031099 0.061917 0.355298
v 0.241237 1.074759 0.307080
v 0.236784 3.279955 0.303522
v 0.245192 3.279955 0.295114
v 0.248762 1.074923 0.298252
v 0.248809 1.074879 0.182583
v 0.245192 3.279955 0.186180
v 0.236784 3.279955 0.177772
v 0.239894 1.074954 0.174201
v 0.124435 1.074911 0.174149
v 0.127851 3.279955 0.177772
v 0.115899 1.074920 0.182565
v 0.119444 3.279955 0.186180
v 0.115826 1.074879 0.298712
v 0.119444 3.279955 0.295114
v 0.127851 3.279955 0.303522
v 0.124742 1.074938 0.307094
v 0.241237 1.074759 0.307080
v 0.236784 3.279955 0.303522
v 0.436562 0.039075 0.318476
v 0.391225 0.043870 0.318220
v 0.391196 0.044647 0.279951
v 0.435601 0.038453 0.280028
v 0.483995 0.002496 0.279127
v 0.482163 0.002340 0.318744
v 0.436563 0.039075 0.203297
v 0.391225 0.043870 0.203041
v 0.391196 0.044647 0.164772
v 0.435602 0.038453 0.164849
v 0.483995 0.002496 0.163949
v 0.482163 0.002340 0.203565
v 0.104492 0.039076 0.494890
v 0.104748 0.043870 0.449553
v 0.143017 0.044647 0.449524
v 0.142940 0.038454 0.493929
v 0.143840 0.002496 0.542323
v 0.104224 0.002340 0.540491
v 0.219670 0.039076 0.494889
v 0.219927 0.043870 0.449553
v 0.258195 0.044647 0.449524
v 0.258118 0.038454 0.493928
v 0.259019 0.002497 0.542323
v 0.219403 0.002340 0.540491
v 0.260148 0.039075 -0.013595
v 0.259892 0.043870 0.031742
v 0.221623 0.044647 0.031771
v 0.221700 0.038454 -0.012633
v 0.220799 0.002496 -0.061027
v 0.260416 0.002340 -0.059195
v 0.144969 0.039075 -0.013595
v 0.144713 0.043870 0.031742
v 0.106444 0.044647 0.031772
v 0.106521 0.038454 -0.012633
v 0.105621 0.002496 -0.061027
v 0.145237 0.002340 -0.059195
v -0.071923 0.039076 0.162820
v -0.026586 0.043870 0.163076
v -0.026557 0.044647 0.201345
v -0.070961 0.038454 0.201268
v -0.119355 0.002496 0.202168
v -0.117523 0.002340 0.162552
v -0.071922 0.039076 0.277998
v -0.026586 0.043870 0.278255
v -0.026557 0.044647 0.316523
v -0.070961 0.038454 0.316446
v -0.119355 0.002496 0.317347
v -0.117523 0.002340 0.277731
v 0.124742 1.074938 0.307094
v 0.241237 1.074759 0.307080
v 0.263813 1.026402 0.330366
v 0.100825 1.026402 0.330366
v 0.265930 1.016865 0.332721
v 0.115826 1.074879 0.298712
v 0.098708 1.016865 0.332721
v 0.267605 0.149697 0.334225
v 0.097033 0.149697 0.334225
v 0.092601 1.026402 0.322141
v 0.115899 1.074920 0.182565
v 0.090245 1.016865 0.324258
v 0.088741 0.149697 0.325934
v 0.092601 1.026402 0.159153
v 0.124435 1.074911 0.174149
v 0.090245 1.016865 0.157036
v 0.088741 0.149697 0.155360
v 0.100825 1.026402 0.150929
v 0.239894 1.074954 0.174201
v 0.098708 1.016865 0.148573
v 0.097033 0.149697 0.147069
v 0.263813 1.026402 0.150929
v 0.248809 1.074879 0.182583
v 0.265930 1.016865 0.148573
v 0.267605 0.149697 0.147069
v 0.272038 1.026402 0.159153
v 0.248762 1.074923 0.298252
v 0.274393 1.016865 0.157036
v 0.275896 0.149697 0.155360
v 0.272038 1.026402 0.322141
v 0.241237 1.074759 0.307080
v 0.263813 1.026402 0.330366
v 0.274393 1.016865 0.324258
v 0.275896 0.149697 0.325934
v 0.265930 1.016865 0.332721
v 0.267605 0.149697 0.334225
v 0.364989 5.705927 0.414936
v 0.379637 5.750181 0.427378
v 0.379637 5.750181 0.053903
v 0.364989 5.705927 0.066345
v 0.264707 5.598818 0.314810
v 0.264707 5.598818 0.166483
v 0.356614 5.705927 0.057970
v 0.369056 5.750181 0.043322
v 0.256482 5.598818 0.158257
v -0.004418 5.750181 0.043322
v 0.008024 5.705927 0.057970
v 0.108156 5.598818 0.158257
v -0.000351 5.705927 0.066345
v -0.014999 5.750181 0.053903
v 0.099930 5.598818 0.166483
v -0.014999 5.750181 0.427378
v -0.000351 5.705927 0.414936
v 0.099930 5.598818 0.314810
v 0.008024 5.705927 0.423311
v -0.004418 5.750181 0.437959
v 0.108155 5.598819 0.323036
v 0.369056 5.750181 0.437959
v 0.356614 5.705927 0.423311
v 0.256482 5.598819 0.323036
v 0.364989 5.705927 0.414936
v 0.379637 5.750181 0.427378
v 0.264707 5.598818 0.314810
v 0.320857 6.148112 0.240100
v 0.308751 6.147079 0.294462
v 0.285068 6.151693 0.337806
v 0.287980 6.152026 0.162579
v 0.290950 6.146734 0.150123
v 0.200792 6.146616 0.099681
v 0.104285 6.152019 0.134979
v 0.095280 6.147035 0.128938
v 0.056782 6.147459 0.187105
v 0.039876 6.147674 0.256749
v 0.104258 6.152026 0.346303
v 0.220072 6.147295 0.374266
v 0.086428 6.147258 0.343279
v 0.162101 6.146214 0.375842
v 0.108155 5.598819 0.323036
v 0.256482 5.598819 0.323036
v 0.233193 5.484872 0.299873
v 0.236784 3.279955 0.303522
v 0.127851 3.279955 0.303522
v 0.131443 5.484872 0.299873
v 0.123091 5.484872 0.291522
v 0.099930 5.598818 0.314810
v 0.119444 3.279955 0.295114
v 0.099930 5.598818 0.166483
v 0.119444 3.279955 0.186180
v 0.123091 5.484872 0.189770
v 0.127851 3.279955 0.177772
v 0.131443 5.484872 0.181419
v 0.108156 5.598818 0.158257
v 0.236784 3.279955 0.177772
v 0.256482 5.598818 0.158257
v 0.233193 5.484872 0.181419
v 0.241545 5.484872 0.189770
v 0.245192 3.279955 0.186180
v 0.264707 5.598818 0.166483
v 0.245192 3.279955 0.295114
v 0.264707 5.598818 0.314810
v 0.241545 5.484872 0.291522
v 0.233193 5.484872 0.299873
v 0.236784 3.279955 0.303522
v 0.256482 5.598819 0.323036
v 0.303018 0.064627 -0.000641
v 0.303774 0.000044 -0.000769
v 0.368031 0.000017 -0.000551
v 0.364797 0.077719 -0.001403
v 0.418855 0.075673 0.048370
v 0.422670 -0.000004 0.053482
v 0.005295 0.078333 -0.000556
v 0.063249 0.063205 -0.001022
v 0.061043 0.000115 -0.000829
v -0.004853 -0.000005 0.000297
v -0.009965 0.075673 0.004112
v -0.058886 0.000017 0.054935
v 0.354719 0.088495 0.004895
v -0.058975 0.064627 0.119949
v -0.059103 0.000044 0.119193
v 0.008348 0.088709 0.004342
v -0.059737 0.077719 0.058169
v -0.049871 0.088265 0.051802
v 0.084041 0.116841 0.088863
v 0.280598 0.117113 0.089166
v 0.030875 0.117106 0.142376
v 0.371164 0.088266 0.008463
v 0.334105 0.116840 0.142383
v -0.053439 0.088495 0.068247
v 0.030485 0.116827 0.338910
v 0.418624 0.088710 0.066682
v 0.418071 0.088495 0.413059
v 0.333797 0.117112 0.338932
v 0.423523 0.078333 0.063630
v 0.423796 0.000115 0.119380
v 0.423465 0.065087 0.119929
v 0.423608 0.064627 0.361357
v 0.414503 0.088266 0.429504
v 0.424370 0.077719 0.423138
v 0.280582 0.116840 0.392442
v 0.423518 0.000017 0.426373
v 0.423736 0.000044 0.362115
v 0.374596 0.075673 0.477195
v 0.369484 -0.000004 0.481011
v 0.356283 0.088710 0.476964
v 0.359336 0.078333 0.481862
v 0.303588 0.000115 0.482137
v 0.301382 0.063205 0.482328
v 0.061613 0.064628 0.481947
v 0.009912 0.088495 0.476410
v 0.084049 0.117112 0.392139
v -0.000166 0.077719 0.482709
v 0.060857 0.000044 0.482076
v -0.003400 0.000017 0.481859
v -0.006533 0.088266 0.472842
v -0.054223 0.075673 0.432937
v -0.058038 -0.000004 0.427826
v -0.053992 0.088710 0.414626
v -0.058891 0.078333 0.417677
v -0.059164 0.000115 0.361928
v -0.059356 0.063205 0.359721
v 0.360454 5.761726 0.045443
v 0.004185 5.761726 0.045443
v -0.004418 5.750181 0.043322
v 0.369056 5.750181 0.043322
v -0.014999 5.750181 0.053903
v 0.377516 5.761726 0.062506
v -0.012878 5.761726 0.062506
v 0.379637 5.750181 0.053903
v -0.014999 5.750181 0.427378
v 0.377516 5.761726 0.418775
v -0.012878 5.761726 0.418775
v 0.379637 5.750181 0.427378
v -0.004418 5.750181 0.437959
v 0.360454 5.761726 0.435838
v 0.004185 5.761726 0.435838
v 0.369056 5.750181 0.437959
v 0.097033 0.149697 0.147069
v 0.088741 0.149697 0.155360
v 0.033220 0.132359 0.162344
v 0.088741 0.149697 0.325934
v 0.097118 0.132062 0.090387
v 0.267605 0.149697 0.147069
v 0.031452 0.132339 0.326102
v 0.261509 0.132659 0.090879
v 0.275896 0.149697 0.155360
v 0.030875 0.117106 0.142376
v 0.084041 0.116841 0.088863
v 0.030485 0.116827 0.338910
v 0.280598 0.117113 0.089166
v 0.084049 0.117112 0.392139
v 0.332652 0.132069 0.156012
v 0.334105 0.116840 0.142383
v 0.275896 0.149697 0.325934
v 0.333797 0.117112 0.338932
v 0.332084 0.132659 0.319846
v 0.267605 0.149697 0.334225
v 0.266952 0.132069 0.390988
v 0.280582 0.116840 0.392442
v 0.097033 0.149697 0.334225
v 0.103124 0.132659 0.390420
v 0.580709 5.874686 0.647727
v 0.255630 5.597939 0.322583
v 0.109007 5.597939 0.322583
v 0.589401 5.874686 0.639033
v -0.216071 5.874686 0.647727
v 0.264255 5.597939 0.313958
v 0.100383 5.597939 0.313958
v 0.589404 5.874688 -0.157749
v -0.224764 5.874686 0.639033
v 0.264255 5.597939 0.167335
v 0.100383 5.597939 0.167335
v 0.580710 5.874688 -0.166442
v -0.224767 5.874688 -0.157750
v 0.255630 5.597939 0.158710
v 0.109007 5.597939 0.158710
v -0.216072 5.874688 -0.166442
v -0.215564 5.882120 -0.148545
v 0.005174 5.704461 0.072193
v 0.005174 5.704461 0.409088
v -0.215564 5.882120 0.629826
v 0.013872 5.704461 0.417786
v -0.206866 5.882120 -0.157244
v 0.013872 5.704461 0.063495
v -0.224767 5.874688 -0.157750
v -0.216072 5.874688 -0.166442
v -0.224764 5.874686 0.639033
v 0.580710 5.874688 -0.166442
v -0.206866 5.882120 0.638525
v -0.216071 5.874686 0.647727
v 0.350766 5.704461 0.417786
v 0.571504 5.882120 0.638524
v 0.580709 5.874686 0.647727
v 0.359464 5.704461 0.409088
v 0.580202 5.882120 0.629826
v 0.589401 5.874686 0.639033
v 0.359464 5.704461 0.072193
v 0.580202 5.882120 -0.148545
v 0.589404 5.874688 -0.157749
v 0.350766 5.704461 0.063495
v 0.571504 5.882120 -0.157243
vt 0.801758 0.625977
vt 0.801758 0.477539
vt 0.808594 0.470703
vt 0.712402 0.418945
vt 0.730469 0.434570
vt 0.712402 0.437500
vt 0.750977 0.419922
vt 0.701172 0.415039
vt 0.682129 0.431152
vt 0.663574 0.416016
vt 0.701172 0.433105
vt 0.517578 0.416992
vt 0.536133 0.432617
vt 0.517578 0.435547
vt 0.556152 0.417969
vt 0.504395 0.420410
vt 0.485840 0.436523
vt 0.466797 0.421387
vt 0.504395 0.438477
vt 0.712402 0.418945
vt 0.730469 0.434570
vt 0.712402 0.437500
vt 0.750977 0.419922
vt 0.701172 0.415039
vt 0.682129 0.431152
vt 0.663574 0.416016
vt 0.701172 0.433105
vt 0.517578 0.416992
vt 0.536133 0.432617
vt 0.517578 0.435547
vt 0.556152 0.417969
vt 0.504395 0.420410
vt 0.485840 0.436523
vt 0.466797 0.421387
vt 0.504395 0.438477
vt 0.712402 0.418945
vt 0.730469 0.434570
vt 0.712402 0.437500
vt 0.750977 0.419922
vt 0.701172 0.415039
vt 0.682129 0.431152
vt 0.663574 0.416016
vt 0.701172 0.433105
vt 0.517578 0.416992
vt 0.536133 0.432617
vt 0.517578 0.435547
vt 0.556152 0.417969
vt 0.504395 0.420410
vt 0.485840 0.436523
vt 0.466797 0.421387
vt 0.504395 0.438477
vt 0.712402 0.418945
vt 0.730469 0.434570
vt 0.712402 0.437500
vt 0.750977 0.419922
vt 0.701172 0.415039
vt 0.682129 0.431152
vt 0.663574 0.416016
vt 0.701172 0.433105
vt 0.517578 0.416992
vt 0.536133 0.432617
vt 0.517578 0.435547
vt 0.556152 0.417969
vt 0.504395 0.420410
vt 0.485840 0.436523
vt 0.466797 0.421387
vt 0.504395 0.438477
vt 0.808594 0.470703
vt 0.957031 0.470703
vt 0.963867 0.477539
vt 0.801758 0.625977
vt 0.986816 0.326660
vt 0.879395 0.326172
vt 0.879395 0.305664
vt 0.986816 0.293945
vt 0.878906 0.276367
vt 0.986816 0.266113
vt 0.879395 0.238770
vt 0.986816 0.233398
vt 0.879395 0.203613
vt 0.986816 0.197266
vt 0.879395 0.177734
vt 0.986816 0.158691
vt 0.879395 0.147461
vt 0.879395 0.127441
vt 0.986816 0.127441
vt 0.986816 0.097656
vt 0.878906 0.098145
vt 0.879395 0.068359
vt 0.986816 0.065918
vt 0.879395 0.039551
vt 0.986816 0.037598
vt 0.986816 0.009277
vt 0.879395 0.009277
vt 0.604492 0.522217
vt 0.617188 0.524414
vt 0.613770 0.548096
vt 0.600098 0.547852
vt 0.611816 0.549805
vt 0.611816 0.644775
vt 0.600098 0.647461
vt 0.613281 0.645996
vt 0.602539 0.648193
vt 0.604492 0.672363
vt 0.617188 0.670410
vt 0.569824 0.684082
vt 0.557129 0.682373
vt 0.560059 0.658447
vt 0.573242 0.657959
vt 0.561523 0.656494
vt 0.571289 0.656982
vt 0.561523 0.561523
vt 0.573242 0.559082
vt 0.560059 0.560059
vt 0.570801 0.558350
vt 0.569824 0.533936
vt 0.557129 0.535645
vt 0.588867 0.681885
vt 0.576172 0.679932
vt 0.579590 0.656006
vt 0.592773 0.656250
vt 0.581055 0.654297
vt 0.581055 0.559326
vt 0.592773 0.556885
vt 0.579590 0.557861
vt 0.590820 0.556152
vt 0.589355 0.531738
vt 0.576660 0.533447
vt 0.625000 0.519531
vt 0.637695 0.521484
vt 0.635254 0.545166
vt 0.621582 0.545166
vt 0.633301 0.547363
vt 0.633301 0.642334
vt 0.621582 0.644775
vt 0.634766 0.643555
vt 0.624023 0.645508
vt 0.625000 0.669922
vt 0.638184 0.668213
vt 0.795898 0.339844
vt 0.788574 0.375000
vt 0.760742 0.367188
vt 0.767090 0.336426
vt 0.795898 0.304688
vt 0.767090 0.304688
vt 0.766602 0.272461
vt 0.796875 0.257324
vt 0.766113 0.238281
vt 0.795898 0.205078
vt 0.766602 0.214844
vt 0.766602 0.181152
vt 0.767090 0.151855
vt 0.794922 0.178711
vt 0.795410 0.135254
vt 0.767578 0.110840
vt 0.795898 0.084961
vt 0.767090 0.067871
vt 0.795410 0.040039
vt 0.766113 0.036621
vt 0.762207 0.015625
vt 0.790527 0.008789
vt 0.833984 0.353027
vt 0.827637 0.373535
vt 0.802246 0.367676
vt 0.807617 0.335938
vt 0.834961 0.320801
vt 0.808105 0.301758
vt 0.833984 0.296387
vt 0.808105 0.270020
vt 0.834473 0.261719
vt 0.807617 0.238281
vt 0.833984 0.221191
vt 0.807129 0.201660
vt 0.833496 0.191895
vt 0.833984 0.163086
vt 0.807617 0.169922
vt 0.807617 0.133789
vt 0.833984 0.117676
vt 0.808105 0.092773
vt 0.834473 0.075195
vt 0.807617 0.049316
vt 0.832520 0.034180
vt 0.828125 0.010742
vt 0.802246 0.015625
vt 0.957031 0.632812
vt 0.808594 0.632812
vt 0.801758 0.625977
vt 0.963867 0.477539
vt 0.963867 0.625977
vt 0.844727 0.116699
vt 0.868652 0.116211
vt 0.868652 0.216797
vt 0.843750 0.216309
vt 0.842773 0.214355
vt 0.842773 0.118652
vt 0.869141 0.108887
vt 0.845215 0.108887
vt 0.845215 0.008789
vt 0.870117 0.009277
vt 0.871582 0.011230
vt 0.871582 0.106445
vt 0.759766 0.385742
vt 0.784180 0.385254
vt 0.784180 0.485352
vt 0.759277 0.485352
vt 0.757812 0.483398
vt 0.757812 0.387695
vt 0.843262 0.226074
vt 0.867676 0.225586
vt 0.867676 0.325684
vt 0.842773 0.325195
vt 0.841309 0.323730
vt 0.841309 0.228027
vt 0.455811 0.010254
vt 0.456055 0.923767
vt 0.450439 0.923828
vt 0.450928 0.010254
vt 0.403076 0.010254
vt 0.403809 0.923889
vt 0.396973 0.923950
vt 0.397461 0.010254
vt 0.348877 0.010254
vt 0.349609 0.924011
vt 0.343018 0.010742
vt 0.342285 0.924133
vt 0.293945 0.010742
vt 0.295654 0.924194
vt 0.289795 0.924255
vt 0.287842 0.010742
vt 0.239258 0.010742
vt 0.244507 0.924500
vt 0.911133 0.397461
vt 0.911621 0.416504
vt 0.895508 0.416504
vt 0.895508 0.397949
vt 0.895020 0.372559
vt 0.911133 0.373047
vt 0.937012 0.397461
vt 0.937012 0.416504
vt 0.921387 0.416504
vt 0.921387 0.397949
vt 0.920898 0.372559
vt 0.937012 0.373047
vt 0.911133 0.397461
vt 0.911621 0.416504
vt 0.895508 0.416504
vt 0.895508 0.397949
vt 0.895020 0.372559
vt 0.911133 0.373047
vt 0.937012 0.397461
vt 0.937012 0.416504
vt 0.921387 0.416504
vt 0.921387 0.397949
vt 0.920898 0.372559
vt 0.937012 0.373047
vt 0.911133 0.397461
vt 0.911621 0.416504
vt 0.895508 0.416504
vt 0.895508 0.397949
vt 0.895020 0.372559
vt 0.911133 0.373047
vt 0.937012 0.397461
vt 0.937012 0.416504
vt 0.921387 0.416504
vt 0.921387 0.397949
vt 0.920898 0.372559
vt 0.937012 0.373047
vt 0.911133 0.397461
vt 0.911621 0.416504
vt 0.895508 0.416504
vt 0.895508 0.397949
vt 0.895020 0.372559
vt 0.911133 0.373047
vt 0.937012 0.397461
vt 0.937012 0.416504
vt 0.921387 0.416504
vt 0.921387 0.397949
vt 0.920898 0.372559
vt 0.937012 0.373047
vt 0.543945 0.398438
vt 0.494385 0.405273
vt 0.476807 0.383789
vt 0.542480 0.372559
vt 0.472656 0.376953
vt 0.551758 0.397949
vt 0.542480 0.367188
vt 0.461670 0.014648
vt 0.532715 0.012207
vt 0.547363 0.372070
vt 0.604004 0.397949
vt 0.546387 0.367188
vt 0.538086 0.010742
vt 0.607422 0.371582
vt 0.613770 0.397949
vt 0.607422 0.366211
vt 0.604492 0.010254
vt 0.612305 0.371582
vt 0.666016 0.397949
vt 0.611816 0.366211
vt 0.610840 0.010254
vt 0.673340 0.373047
vt 0.675293 0.398438
vt 0.673340 0.367676
vt 0.673340 0.010742
vt 0.678223 0.373535
vt 0.725586 0.398926
vt 0.678711 0.368164
vt 0.679199 0.010254
vt 0.742188 0.377930
vt 0.729980 0.400391
vt 0.746094 0.380859
vt 0.745605 0.373535
vt 0.746582 0.013184
vt 0.750000 0.375488
vt 0.750488 0.014160
vt 0.490479 0.630371
vt 0.470947 0.634766
vt 0.473145 0.478027
vt 0.490967 0.486328
vt 0.551758 0.589111
vt 0.552246 0.527344
vt 0.492676 0.483887
vt 0.478271 0.470215
vt 0.554688 0.522949
vt 0.622559 0.404785
vt 0.623047 0.424805
vt 0.610840 0.497559
vt 0.625977 0.425293
vt 0.632324 0.406250
vt 0.615723 0.498047
vt 0.750488 0.511963
vt 0.732910 0.520508
vt 0.661621 0.539062
vt 0.733398 0.523193
vt 0.752930 0.520996
vt 0.662598 0.543945
vt 0.706543 0.670898
vt 0.689453 0.660645
vt 0.644043 0.602783
vt 0.686523 0.664062
vt 0.702637 0.676270
vt 0.640137 0.605713
vt 0.619629 0.751221
vt 0.639160 0.763184
vt 0.652344 0.778564
vt 0.585449 0.753296
vt 0.581055 0.750000
vt 0.549316 0.777954
vt 0.549316 0.819946
vt 0.545410 0.822632
vt 0.562500 0.845581
vt 0.587402 0.861572
vt 0.630371 0.849243
vt 0.657227 0.808716
vt 0.626953 0.855957
vt 0.650879 0.831543
vt 0.067810 0.989685
vt 0.009995 0.981644
vt 0.026917 0.937256
vt 0.025650 0.025879
vt 0.071045 0.026367
vt 0.069946 0.940338
vt 0.077271 0.940613
vt 0.073547 0.989716
vt 0.076843 0.026855
vt 0.125610 0.989380
vt 0.123474 0.027344
vt 0.122559 0.940582
vt 0.130249 0.027344
vt 0.131104 0.940613
vt 0.131592 0.989479
vt 0.177246 0.026855
vt 0.184082 0.988823
vt 0.176758 0.940277
vt 0.184692 0.940155
vt 0.183594 0.026367
vt 0.190430 0.988258
vt 0.229126 0.025391
vt 0.244263 0.984009
vt 0.228638 0.937897
vt 0.233765 0.937256
vt 0.234009 0.024414
vt 0.249023 0.983200
vt 0.488770 0.751221
vt 0.463867 0.734375
vt 0.478271 0.708496
vt 0.500000 0.729004
vt 0.521973 0.707275
vt 0.504883 0.682129
vt 0.499023 0.877991
vt 0.488281 0.857544
vt 0.463867 0.874756
vt 0.478760 0.901123
vt 0.503906 0.883728
vt 0.505371 0.927734
vt 0.503418 0.733643
vt 0.547852 0.917175
vt 0.531250 0.941956
vt 0.503418 0.876038
vt 0.525879 0.905640
vt 0.524902 0.898743
vt 0.540039 0.843750
vt 0.540039 0.765991
vt 0.562500 0.865601
vt 0.507324 0.728027
vt 0.562012 0.743408
vt 0.530273 0.902466
vt 0.640625 0.865967
vt 0.529785 0.707031
vt 0.672363 0.706787
vt 0.640137 0.743652
vt 0.527832 0.702393
vt 0.531250 0.667480
vt 0.548340 0.692871
vt 0.654785 0.692139
vt 0.678223 0.710693
vt 0.677246 0.703613
vt 0.663086 0.765503
vt 0.697266 0.681641
vt 0.671387 0.667236
vt 0.698730 0.725586
vt 0.724121 0.708252
vt 0.699219 0.733154
vt 0.703613 0.731445
vt 0.738770 0.734619
vt 0.714355 0.751831
vt 0.714355 0.858032
vt 0.699219 0.875549
vt 0.662598 0.843262
vt 0.702637 0.880310
vt 0.738770 0.874878
vt 0.724609 0.900757
vt 0.695801 0.881226
vt 0.680664 0.901978
vt 0.697754 0.927307
vt 0.672852 0.902283
vt 0.674805 0.906799
vt 0.671387 0.941925
vt 0.654297 0.917603
vt 0.963867 0.625977
vt 0.963867 0.477539
vt 0.967285 0.473145
vt 0.967285 0.630615
vt 0.961426 0.467285
vt 0.957031 0.632812
vt 0.957031 0.470703
vt 0.961426 0.636230
vt 0.804199 0.467285
vt 0.808594 0.632812
vt 0.808594 0.470703
vt 0.804199 0.636230
vt 0.798340 0.473145
vt 0.801758 0.625977
vt 0.801758 0.477539
vt 0.798340 0.630615
vt 0.880859 0.429199
vt 0.884766 0.430176
vt 0.888184 0.454102
vt 0.957031 0.430176
vt 0.855469 0.430664
vt 0.880859 0.361328
vt 0.956543 0.454590
vt 0.855957 0.362305
vt 0.884766 0.360352
vt 0.878906 0.459473
vt 0.851074 0.437500
vt 0.962891 0.459473
vt 0.851074 0.353027
vt 0.990723 0.437500
vt 0.885742 0.335938
vt 0.878906 0.331543
vt 0.957031 0.360352
vt 0.962891 0.331543
vt 0.954102 0.336426
vt 0.960938 0.361328
vt 0.986328 0.360352
vt 0.990723 0.353027
vt 0.960938 0.429199
vt 0.985840 0.428223
vt 0.985352 0.803467
vt 0.910645 0.878418
vt 0.876953 0.878418
vt 0.987305 0.805420
vt 0.801758 0.803467
vt 0.912598 0.880371
vt 0.875000 0.880371
vt 0.987305 0.989136
vt 0.799805 0.805420
vt 0.912598 0.914185
vt 0.875000 0.914185
vt 0.985352 0.991142
vt 0.799805 0.989136
vt 0.910645 0.916199
vt 0.876953 0.916199
vt 0.801758 0.991142
vt 0.984375 0.791138
vt 0.943359 0.750244
vt 0.943359 0.687988
vt 0.984375 0.646973
vt 0.941895 0.686279
vt 0.982910 0.792725
vt 0.941895 0.751831
vt 0.985840 0.792847
vt 0.984375 0.794434
vt 0.985840 0.645264
vt 0.836914 0.794434
vt 0.982910 0.645508
vt 0.984375 0.643799
vt 0.879395 0.686279
vt 0.838379 0.645508
vt 0.836914 0.643799
vt 0.877930 0.687988
vt 0.836914 0.646973
vt 0.835449 0.645264
vt 0.877930 0.750244
vt 0.836914 0.791138
vt 0.835449 0.792847
vt 0.879395 0.751831
vt 0.838379 0.792725
vt1 0.859375 0.614014
vt1 0.859375 0.728516
vt1 0.854492 0.733643
vt1 0.912598 0.493652
vt1 0.897949 0.481445
vt1 0.912598 0.479492
vt1 0.882324 0.492676
vt1 0.939453 0.114746
vt1 0.924805 0.127441
vt1 0.910156 0.115723
vt1 0.939453 0.128906
vt1 0.822266 0.408203
vt1 0.808105 0.395508
vt1 0.822266 0.393555
vt1 0.792480 0.407227
vt1 0.907715 0.227539
vt1 0.920410 0.242188
vt1 0.908691 0.256836
vt1 0.921875 0.227539
vt1 0.921387 0.290527
vt1 0.909180 0.305176
vt1 0.907227 0.290527
vt1 0.920410 0.320801
vt1 0.953125 0.056152
vt1 0.938477 0.068848
vt1 0.923828 0.057129
vt1 0.953125 0.070312
vt1 0.849121 0.403320
vt1 0.863281 0.416016
vt1 0.849121 0.417969
vt1 0.878906 0.404297
vt1 0.885254 0.574707
vt1 0.899902 0.562012
vt1 0.914551 0.573975
vt1 0.885254 0.560547
vt1 0.921387 0.354004
vt1 0.909180 0.368164
vt1 0.907227 0.354004
vt1 0.920410 0.383789
vt1 0.862793 0.448242
vt1 0.875488 0.462891
vt1 0.863281 0.477539
vt1 0.876953 0.448242
vt1 0.709473 0.038086
vt1 0.723633 0.050781
vt1 0.709473 0.052734
vt1 0.739258 0.039062
vt1 0.930176 0.164551
vt1 0.942871 0.179199
vt1 0.931152 0.193848
vt1 0.944336 0.164551
vt1 0.912598 0.416992
vt1 0.899902 0.431152
vt1 0.897949 0.416992
vt1 0.911621 0.446777
vt1 0.903320 0.178223
vt1 0.888672 0.190430
vt1 0.874023 0.178711
vt1 0.903320 0.192383
vt1 0.898926 0.628662
vt1 0.911133 0.614502
vt1 0.913086 0.628662
vt1 0.899414 0.598877
vt1 0.867188 0.534180
vt1 0.881836 0.521484
vt1 0.896484 0.533447
vt1 0.867188 0.520020
vt1 0.854492 0.733643
vt1 0.739746 0.733643
vt1 0.734863 0.728516
vt1 0.859375 0.614014
vt1 0.019958 0.929504
vt1 0.019989 0.844971
vt1 0.036224 0.844971
vt1 0.045410 0.929565
vt1 0.059479 0.844727
vt1 0.067566 0.929443
vt1 0.088806 0.844849
vt1 0.093201 0.929565
vt1 0.116882 0.844971
vt1 0.121704 0.929565
vt1 0.137085 0.844727
vt1 0.151978 0.929626
vt1 0.160767 0.844971
vt1 0.176880 0.844971
vt1 0.176880 0.929443
vt1 0.200317 0.929504
vt1 0.199829 0.844727
vt1 0.223022 0.844971
vt1 0.225098 0.929504
vt1 0.245972 0.844971
vt1 0.247314 0.929504
vt1 0.269775 0.929504
vt1 0.269531 0.844971
vt1 0.731934 0.579102
vt1 0.733887 0.569092
vt1 0.751953 0.571777
vt1 0.751953 0.582275
vt1 0.753418 0.573242
vt1 0.827148 0.573242
vt1 0.829102 0.582275
vt1 0.828125 0.572021
vt1 0.829590 0.580566
vt1 0.848633 0.579102
vt1 0.847168 0.569092
vt1 0.335449 0.912048
vt1 0.325439 0.910645
vt1 0.327637 0.892151
vt1 0.338135 0.891663
vt1 0.328857 0.890625
vt1 0.336426 0.890869
vt1 0.328857 0.816895
vt1 0.337891 0.814941
vt1 0.327637 0.815796
vt1 0.336182 0.814453
vt1 0.335449 0.795410
vt1 0.325439 0.796753
vt1 0.173340 0.962036
vt1 0.174927 0.952148
vt1 0.193359 0.954773
vt1 0.193115 0.965149
vt1 0.194702 0.956024
vt1 0.268311 0.956024
vt1 0.270264 0.965179
vt1 0.269531 0.954895
vt1 0.270752 0.963409
vt1 0.289795 0.962616
vt1 0.288574 0.952545
vt1 0.136597 0.956024
vt1 0.135254 0.965973
vt1 0.116760 0.963837
vt1 0.116760 0.953461
vt1 0.115234 0.962585
vt1 0.041504 0.962585
vt1 0.039551 0.953430
vt1 0.040405 0.963715
vt1 0.039032 0.955200
vt1 0.020065 0.956024
vt1 0.021439 0.966095
vt1 0.674316 0.300781
vt1 0.668457 0.329102
vt1 0.646484 0.322754
vt1 0.650879 0.298340
vt1 0.674316 0.272949
vt1 0.651367 0.273438
vt1 0.650879 0.247559
vt1 0.674805 0.235352
vt1 0.650391 0.220215
vt1 0.673828 0.193848
vt1 0.650879 0.202148
vt1 0.650879 0.174805
vt1 0.651367 0.151855
vt1 0.673340 0.172852
vt1 0.673828 0.138184
vt1 0.651855 0.119141
vt1 0.674316 0.098633
vt1 0.650879 0.084961
vt1 0.673828 0.062988
vt1 0.650391 0.060059
vt1 0.647461 0.043457
vt1 0.669922 0.038086
vt1 0.035126 0.819214
vt1 0.019852 0.814697
vt1 0.024063 0.795410
vt1 0.047729 0.799438
vt1 0.059113 0.819946
vt1 0.073547 0.800049
vt1 0.077454 0.819214
vt1 0.096985 0.799805
vt1 0.103455 0.819580
vt1 0.121033 0.799438
vt1 0.133545 0.819336
vt1 0.148438 0.799316
vt1 0.155518 0.819092
vt1 0.177246 0.819214
vt1 0.171997 0.799438
vt1 0.199219 0.799683
vt1 0.211060 0.819336
vt1 0.229980 0.799927
vt1 0.243164 0.819580
vt1 0.262207 0.799561
vt1 0.273438 0.818359
vt1 0.291260 0.815063
vt1 0.287354 0.795532
vt1 0.739746 0.608887
vt1 0.854492 0.608887
vt1 0.859375 0.614014
vt1 0.734863 0.728516
vt1 0.734863 0.614014
vt1 0.917480 0.733154
vt1 0.898926 0.733398
vt1 0.898926 0.655518
vt1 0.917969 0.655762
vt1 0.918945 0.657227
vt1 0.918945 0.731445
vt1 0.836426 0.368164
vt1 0.817871 0.368164
vt1 0.817871 0.290527
vt1 0.836914 0.291016
vt1 0.837891 0.292480
vt1 0.837891 0.366699
vt1 0.827148 0.151855
vt1 0.826660 0.132812
vt1 0.904297 0.132812
vt1 0.904297 0.152344
vt1 0.902832 0.153320
vt1 0.828613 0.153320
vt1 0.864258 0.290527
vt1 0.882812 0.290527
vt1 0.882812 0.368164
vt1 0.863770 0.368164
vt1 0.862793 0.366699
vt1 0.862793 0.292480
vt1 0.372559 0.060547
vt1 0.372803 0.769775
vt1 0.368408 0.769775
vt1 0.368896 0.060547
vt1 0.331543 0.061035
vt1 0.332275 0.769897
vt1 0.326904 0.769897
vt1 0.327148 0.061035
vt1 0.289551 0.061035
vt1 0.290039 0.770020
vt1 0.285156 0.061035
vt1 0.284424 0.770020
vt1 0.246948 0.061035
vt1 0.248291 0.770142
vt1 0.243774 0.770142
vt1 0.242188 0.061035
vt1 0.204468 0.061035
vt1 0.208496 0.770264
vt1 0.558594 0.821899
vt1 0.558594 0.807251
vt1 0.570801 0.807129
vt1 0.570801 0.821655
vt1 0.571289 0.841064
vt1 0.559082 0.840820
vt1 0.747070 0.394531
vt1 0.761719 0.394531
vt1 0.761719 0.406738
vt1 0.747070 0.406738
vt1 0.728027 0.407227
vt1 0.728027 0.395020
vt1 0.529297 0.821899
vt1 0.529297 0.807251
vt1 0.541504 0.807129
vt1 0.541992 0.821655
vt1 0.541992 0.841064
vt1 0.529785 0.840820
vt1 0.375000 0.891479
vt1 0.375244 0.906128
vt1 0.362793 0.906250
vt1 0.362793 0.891785
vt1 0.362305 0.872314
vt1 0.374756 0.872681
vt1 0.500000 0.821899
vt1 0.500000 0.807251
vt1 0.512207 0.807129
vt1 0.512695 0.821655
vt1 0.512695 0.841064
vt1 0.500488 0.840820
vt1 0.375000 0.959076
vt1 0.375244 0.973724
vt1 0.362793 0.973846
vt1 0.362793 0.959351
vt1 0.362305 0.939941
vt1 0.374756 0.940186
vt1 0.339111 0.954559
vt1 0.339111 0.969223
vt1 0.326660 0.969345
vt1 0.326660 0.954865
vt1 0.326416 0.935425
vt1 0.338867 0.935730
vt1 0.375000 0.823853
vt1 0.375244 0.838501
vt1 0.362793 0.838623
vt1 0.362793 0.824219
vt1 0.362305 0.804810
vt1 0.374756 0.805054
vt1 0.462646 0.339844
vt1 0.423828 0.345215
vt1 0.410156 0.328613
vt1 0.461426 0.319824
vt1 0.406982 0.322754
vt1 0.468750 0.339355
vt1 0.461182 0.315918
vt1 0.398438 0.041992
vt1 0.453857 0.040039
vt1 0.465088 0.319336
vt1 0.509277 0.339844
vt1 0.464600 0.315430
vt1 0.457764 0.038574
vt1 0.511719 0.318848
vt1 0.516602 0.339355
vt1 0.511719 0.314941
vt1 0.509766 0.038086
vt1 0.515625 0.318848
vt1 0.557617 0.339355
vt1 0.515137 0.314941
vt1 0.514648 0.038574
vt1 0.562988 0.320312
vt1 0.564453 0.339844
vt1 0.562988 0.315918
vt1 0.562988 0.038574
vt1 0.566895 0.320312
vt1 0.603516 0.339844
vt1 0.566895 0.316406
vt1 0.567383 0.038086
vt1 0.616699 0.323730
vt1 0.606934 0.341309
vt1 0.619629 0.326172
vt1 0.619141 0.320801
vt1 0.620117 0.040527
vt1 0.622559 0.321777
vt1 0.623047 0.041016
vt1 0.884277 0.242188
vt1 0.887695 0.257324
vt1 0.766113 0.255371
vt1 0.772461 0.241699
vt1 0.852539 0.194336
vt1 0.804199 0.194336
vt1 0.770508 0.240234
vt1 0.760254 0.251465
vt1 0.800781 0.191895
vt1 0.709473 0.139648
vt1 0.724609 0.139160
vt1 0.781250 0.148438
vt1 0.725098 0.136719
vt1 0.710449 0.131836
vt1 0.781738 0.145020
vt1 0.792480 0.040039
vt1 0.799316 0.054199
vt1 0.813477 0.109375
vt1 0.801270 0.053223
vt1 0.799805 0.038086
vt1 0.817383 0.108398
vt1 0.916016 0.074219
vt1 0.907715 0.087402
vt1 0.862793 0.123047
vt1 0.910645 0.089844
vt1 0.919922 0.077148
vt1 0.865234 0.125977
vt1 0.786621 0.348633
vt1 0.773926 0.361816
vt1 0.760254 0.369141
vt1 0.790527 0.321777
vt1 0.793945 0.318848
vt1 0.777344 0.290039
vt1 0.745117 0.283203
vt1 0.743652 0.279785
vt1 0.723145 0.289062
vt1 0.707031 0.305664
vt1 0.709473 0.340820
vt1 0.736328 0.368164
vt1 0.704590 0.336914
vt1 0.719727 0.359375
vt1 0.160645 0.020508
vt1 0.205566 0.026367
vt1 0.192383 0.061035
vt1 0.193359 0.768555
vt1 0.158081 0.768066
vt1 0.158936 0.058594
vt1 0.153198 0.058594
vt1 0.156128 0.020020
vt1 0.153564 0.767578
vt1 0.115723 0.020508
vt1 0.117432 0.767456
vt1 0.118103 0.058594
vt1 0.112122 0.767456
vt1 0.111450 0.058594
vt1 0.111145 0.020508
vt1 0.075684 0.767700
vt1 0.070374 0.020996
vt1 0.076050 0.058594
vt1 0.069885 0.058594
vt1 0.070740 0.768188
vt1 0.065430 0.021484
vt1 0.035400 0.769043
vt1 0.023697 0.024902
vt1 0.035797 0.060547
vt1 0.031799 0.061035
vt1 0.031647 0.769531
vt1 0.019989 0.025391
vt1 0.783691 0.953400
vt1 0.770508 0.972580
vt1 0.750488 0.961456
vt1 0.766113 0.944397
vt1 0.749512 0.927307
vt1 0.729492 0.940674
vt1 0.881836 0.945343
vt1 0.865723 0.953735
vt1 0.879395 0.972580
vt1 0.899902 0.961090
vt1 0.886230 0.941498
vt1 0.920410 0.940399
vt1 0.770020 0.941986
vt1 0.912109 0.907288
vt1 0.931641 0.920227
vt1 0.880371 0.941803
vt1 0.903320 0.924622
vt1 0.897949 0.925354
vt1 0.854980 0.913635
vt1 0.794922 0.913391
vt1 0.872070 0.895996
vt1 0.765625 0.938995
vt1 0.777344 0.896301
vt1 0.900879 0.920959
vt1 0.872559 0.835449
vt1 0.749023 0.921326
vt1 0.749023 0.810791
vt1 0.777344 0.835815
vt1 0.745605 0.922791
vt1 0.718262 0.920166
vt1 0.738281 0.906982
vt1 0.737793 0.824463
vt1 0.751953 0.806396
vt1 0.746582 0.807129
vt1 0.794434 0.818115
vt1 0.729492 0.791382
vt1 0.718262 0.811523
vt1 0.763672 0.790283
vt1 0.750000 0.770630
vt1 0.769531 0.789917
vt1 0.768066 0.786377
vt1 0.770508 0.759155
vt1 0.783691 0.778076
vt1 0.866211 0.778320
vt1 0.879883 0.789795
vt1 0.854980 0.818359
vt1 0.883789 0.787354
vt1 0.879395 0.759155
vt1 0.899414 0.770264
vt1 0.884277 0.792725
vt1 0.900391 0.804443
vt1 0.919922 0.791016
vt1 0.900879 0.810425
vt1 0.904297 0.808960
vt1 0.931641 0.811646
vt1 0.912598 0.824951
vt1 0.734863 0.614014
vt1 0.734863 0.728516
vt1 0.731934 0.731934
vt1 0.731934 0.610596
vt1 0.736328 0.736328
vt1 0.739746 0.608887
vt1 0.739746 0.733643
vt1 0.736328 0.606201
vt1 0.857910 0.736328
vt1 0.854492 0.608887
vt1 0.854492 0.733643
vt1 0.857910 0.606201
vt1 0.862305 0.731934
vt1 0.859375 0.614014
vt1 0.859375 0.728516
vt1 0.862305 0.610596
vt1 0.808594 0.521484
vt1 0.809082 0.518311
vt1 0.827637 0.515869
vt1 0.809082 0.462402
vt1 0.809570 0.541016
vt1 0.755859 0.521484
vt1 0.828125 0.462891
vt1 0.756348 0.540771
vt1 0.754883 0.518311
vt1 0.831543 0.522949
vt1 0.814941 0.544434
vt1 0.832031 0.458008
vt1 0.749512 0.544678
vt1 0.814941 0.436035
vt1 0.736328 0.517822
vt1 0.732422 0.522949
vt1 0.754883 0.462402
vt1 0.732422 0.458008
vt1 0.736328 0.464844
vt1 0.755859 0.459473
vt1 0.754883 0.439941
vt1 0.749512 0.436523
vt1 0.808594 0.459473
vt1 0.807617 0.439941
vt1 0.686035 0.380859
vt1 0.569824 0.497070
vt1 0.517578 0.497070
vt1 0.689453 0.383789
vt1 0.401611 0.380859
vt1 0.573242 0.500000
vt1 0.514648 0.500000
vt1 0.689453 0.668457
vt1 0.398438 0.383789
vt1 0.573242 0.552246
vt1 0.514648 0.552246
vt1 0.686035 0.671631
vt1 0.398438 0.668457
vt1 0.569824 0.555420
vt1 0.517578 0.555420
vt1 0.401611 0.671631
vt1 0.404541 0.976898
vt1 0.479004 0.902405
vt1 0.592773 0.902405
vt1 0.666992 0.976898
vt1 0.595703 0.899475
vt1 0.401611 0.973969
vt1 0.476074 0.899475
vt1 0.401367 0.980011
vt1 0.398438 0.977066
vt1 0.670410 0.980011
vt1 0.398438 0.708252
vt1 0.669922 0.973969
vt1 0.673340 0.977066
vt1 0.595703 0.785767
vt1 0.669922 0.711426
vt1 0.673340 0.708252
vt1 0.592773 0.782837
vt1 0.666992 0.708496
vt1 0.670410 0.705322
vt1 0.479004 0.782837
vt1 0.404541 0.708496
vt1 0.401367 0.705322
vt1 0.476074 0.785767
vt1 0.401611 0.711426
vn 0.000000 1.000000 -0.000000
vn 0.000000 1.000000 -0.000000
vn 0.000000 1.000000 -0.000000
vn 0.000000 -0.000000 -1.000000
vn 0.000000 -0.000000 -1.000000
vn 0.000000 -0.000000 -1.000000
vn 0.000000 -0.000000 -1.000000
vn 0.000000 0.000000 1.000000
vn 0.000000 0.000000 1.000000
vn 0.000000 0.000000 1.000000
vn 0.000000 0.000000 1.000000
vn 0.000000 -0.000000 -1.000000
vn 0.000000 -0.000000 -1.000000
vn 0.000000 -0.000000 -1.000000
vn 0.000000 -0.000000 -1.000000
vn 0.000000 0.000000 1.000000
vn 0.000000 0.000000 1.000000
vn 0.000000 0.000000 1.000000
vn 0.000000 0.000000 1.000000
vn 1.000000 0.000000 0.000000
vn 1.000000 0.000000 0.000000
vn 1.000000 0.000000 0.000000
vn 1.000000 0.000000 0.000000
vn -1.000000 0.000000 0.000000
vn -1.000000 0.000000 0.000000
vn -1.000000 0.000000 0.000000
vn -1.000000 0.000000 0.000000
vn 1.000000 0.000000 0.000000
vn 1.000000 0.000000 0.000000
vn 1.000000 0.000000 0.000000
vn 1.000000 0.000000 0.000000
vn -1.000000 0.000000 0.000000
vn -1.000000 0.000000 0.000000
vn -1.000000 0.000000 0.000000
vn -1.000000 0.000000 0.000000
vn -1.000000 0.000000 0.000000
vn -1.000000 0.000000 0.000000
vn -1.000000 0.000000 0.000000
vn -1.000000 0.000000 0.000000
vn 1.000000 0.000000 0.000000
vn 1.000000 0.000000 0.000000
vn 1.000000 0.000000 0.000000
vn 1.000000 0.000000 0.000000
vn -1.000000 0.000000 0.000000
vn -1.000000 0.000000 0.000000
vn -1.000000 0.000000 0.000000
vn -1.000000 0.000000 0.000000
vn 1.000000 0.000000 0.000000
vn 1.000000 0.000000 0.000000
vn 1.000000 0.000000 0.000000
vn 1.000000 0.000000 0.000000
vn 0.000000 0.000000 1.000000
vn 0.000000 0.000000 1.000000
vn 0.000000 0.000000 1.000000
vn 0.000000 0.000000 1.000000
vn 0.000000 -0.000000 -1.000000
vn 0.000000 -0.000000 -1.000000
vn 0.000000 -0.000000 -1.000000
vn 0.000000 -0.000000 -1.000000
vn 0.000000 0.000000 1.000000
vn 0.000000 0.000000 1.000000
vn 0.000000 0.000000 1.000000
vn 0.000000 0.000000 1.000000
vn 0.000000 -0.000000 -1.000000
vn 0.000000 -0.000000 -1.000000
vn 0.000000 -0.000000 -1.000000
vn 0.000000 -0.000000 -1.000000
vn 0.000000 1.000000 -0.000000
vn 0.000000 1.000000 -0.000000
vn 0.000000 1.000000 -0.000000
vn 0.000000 1.000000 -0.000000
vn -0.921260 0.000000 0.385827
vn -0.921260 0.000000 0.385827
vn -1.000000 0.000000 0.000000
vn -0.976378 -0.000000 -0.220472
vn -0.842520 -0.000000 -0.543307
vn -0.708661 -0.000000 -0.708661
vn -0.236220 -0.000000 -0.968504
vn -0.133858 -0.000000 -0.992126
vn 0.433071 -0.000000 -0.905512
vn 0.543307 -0.000000 -0.842520
vn 0.826772 -0.000000 -0.559055
vn 0.976378 -0.000000 -0.212598
vn 1.000000 0.000000 0.000000
vn 0.921260 0.000000 0.385827
vn 0.921260 0.000000 0.385827
vn 0.535433 0.000000 0.842520
vn 0.543307 0.000000 0.834646
vn 0.000000 0.000000 1.000000
vn -0.047244 0.000000 1.000000
vn -0.535433 0.000000 0.842520
vn -0.566929 0.000000 0.826772
vn -0.921260 0.000000 0.385827
vn -0.921260 0.000000 0.385827
vn 0.850394 0.007874 -0.527559
vn 1.000000 0.000000 0.055118
vn 0.921260 -0.377953 0.070866
vn 0.377953 -0.692913 -0.614173
vn 0.385827 -0.921260 0.000000
vn -0.385827 -0.921260 0.000000
vn -0.307087 -0.677165 -0.669291
vn -0.913386 -0.401575 0.070866
vn -0.826772 -0.299213 -0.480315
vn -0.826772 -0.000000 -0.559055
vn -1.000000 -0.007874 0.062992
vn 0.527559 0.007874 0.850394
vn -0.055118 0.000000 1.000000
vn -0.070866 -0.377953 0.921260
vn 0.708661 -0.433071 0.559055
vn 0.000000 -0.921260 0.385827
vn 0.480315 -0.826771 0.299213
vn 0.000000 -0.921260 -0.385827
vn 0.669291 -0.677165 -0.307086
vn -0.070866 -0.401575 -0.913386
vn 0.480315 -0.299213 -0.826771
vn 0.559055 -0.000000 -0.826772
vn -0.062992 -0.007874 -1.000000
vn -0.850394 0.007874 0.527559
vn -1.000000 -0.000000 -0.055118
vn -0.921260 -0.377953 -0.070866
vn -0.377953 -0.692913 0.614173
vn -0.385827 -0.921260 0.000000
vn 0.385827 -0.921260 0.000000
vn 0.307087 -0.677165 0.669291
vn 0.913386 -0.401575 -0.070866
vn 0.826772 -0.299213 0.480315
vn 0.826772 0.000000 0.559055
vn 1.000000 -0.007874 -0.062992
vn -0.527559 0.007874 -0.850394
vn 0.055118 -0.000000 -1.000000
vn 0.070866 -0.377953 -0.921260
vn -0.614173 -0.692913 -0.377953
vn 0.000000 -0.921260 -0.385827
vn 0.000000 -0.921260 0.385827
vn -0.669291 -0.677165 0.307087
vn 0.070866 -0.401575 0.913386
vn -0.480315 -0.299212 0.826772
vn -0.559055 0.000000 0.826772
vn 0.062992 -0.007874 1.000000
vn -0.543307 0.039370 0.842520
vn -0.921260 0.047244 0.385827
vn -0.787402 0.527559 0.322835
vn -0.456693 0.519685 0.724409
vn 0.007874 0.047244 1.000000
vn 0.000000 0.527559 0.850394
vn 0.456693 0.519685 0.716535
vn 0.732283 0.031496 0.677165
vn 0.787402 0.527559 0.322835
vn 0.984252 0.031496 -0.157480
vn 0.850394 0.527559 -0.000000
vn 0.708661 0.519685 -0.472441
vn 0.377953 0.535433 -0.755905
vn 0.811024 -0.000000 -0.582677
vn 0.165354 -0.000000 -0.984252
vn -0.212598 0.519685 -0.826772
vn -0.645669 0.031496 -0.763779
vn -0.716535 0.519685 -0.456693
vn -0.992126 0.039370 -0.110236
vn -0.850394 0.527559 -0.000000
vn -0.787402 0.527559 0.322835
vn -0.921260 0.055118 0.377953
vn 0.724409 0.007874 0.685039
vn 0.921260 0.039370 0.385827
vn 0.889764 -0.275590 0.370079
vn 0.511811 -0.283464 0.811024
vn 0.267717 0.078740 0.960630
vn -0.039370 -0.314960 0.944882
vn -0.141732 0.039370 0.992126
vn -0.535433 -0.283464 0.795276
vn -0.685039 -0.007874 0.732283
vn -0.881890 -0.291339 0.370079
vn -0.992126 0.023622 0.110236
vn -0.937008 -0.283465 -0.212598
vn -0.921260 0.078740 -0.377953
vn -0.606299 0.015748 -0.795275
vn -0.677165 -0.275591 -0.677165
vn -0.133858 -0.275591 -0.952756
vn 0.125984 0.015748 -0.992126
vn 0.511811 -0.283465 -0.811023
vn 0.771654 0.015748 -0.637795
vn 0.937008 -0.291339 -0.204724
vn 1.000000 0.007874 -0.000000
vn 0.921260 0.055118 0.385827
vn 0.889764 -0.275590 0.370079
vn 0.000000 1.000000 -0.000000
vn 0.000000 1.000000 -0.000000
vn 0.000000 1.000000 -0.000000
vn 0.000000 1.000000 -0.000000
vn 0.000000 1.000000 -0.000000
vn 0.362205 -0.338583 -0.866142
vn 0.417323 -0.000000 -0.905512
vn -0.409449 -0.000000 -0.913386
vn -0.362205 -0.354331 -0.858268
vn -0.244094 -0.685039 -0.685039
vn 0.244094 -0.685039 -0.685039
vn 0.866142 -0.338583 0.362205
vn 0.905512 0.000000 0.417323
vn 0.913386 -0.000000 -0.409449
vn 0.858268 -0.354331 -0.362205
vn 0.685039 -0.685039 -0.244094
vn 0.685039 -0.685039 0.244095
vn -0.362205 -0.338583 0.866142
vn -0.417323 0.000000 0.905512
vn 0.409449 0.000000 0.913386
vn 0.362205 -0.354331 0.858268
vn 0.244094 -0.685039 0.685039
vn -0.244094 -0.685039 0.685039
vn -0.866142 -0.338583 -0.362205
vn -0.905512 -0.000000 -0.417323
vn -0.913386 0.000000 0.409449
vn -0.858268 -0.354331 0.362205
vn -0.685039 -0.685039 0.244095
vn -0.685039 -0.685039 -0.244094
vn 0.417323 0.000000 0.905512
vn 0.385827 0.000000 0.921260
vn 0.921260 0.000000 0.385827
vn 0.929134 0.000000 0.377953
vn 0.921260 -0.000000 -0.385827
vn 0.921260 -0.000000 -0.385827
vn 0.385827 -0.000000 -0.921260
vn 0.377953 -0.000000 -0.929134
vn -0.377953 -0.000000 -0.921260
vn -0.385827 -0.000000 -0.921260
vn -0.921260 -0.000000 -0.385827
vn -0.921260 -0.000000 -0.385827
vn -0.921260 0.000000 0.385827
vn -0.921260 0.000000 0.385827
vn -0.385827 0.000000 0.921260
vn -0.377953 0.000000 0.929134
vn 0.385827 0.000000 0.921260
vn 0.385827 0.000000 0.921260
vn 0.291339 0.826772 0.480315
vn 0.094488 0.850394 0.519685
vn 0.094488 0.874016 -0.480315
vn 0.283465 0.811023 -0.511811
vn 0.818898 0.338583 -0.456693
vn 0.811024 0.330709 0.472441
vn 0.291339 0.826772 0.480315
vn 0.094488 0.850394 0.519685
vn 0.094488 0.874016 -0.480315
vn 0.283465 0.811023 -0.511811
vn 0.818898 0.338583 -0.456693
vn 0.811024 0.330709 0.472441
vn -0.480315 0.826772 0.291338
vn -0.519685 0.850394 0.094488
vn 0.480315 0.874016 0.094488
vn 0.511811 0.811024 0.283464
vn 0.456693 0.338583 0.818897
vn -0.472441 0.330709 0.811023
vn -0.480315 0.826772 0.291338
vn -0.519685 0.850394 0.094488
vn 0.480315 0.874016 0.094488
vn 0.511811 0.811024 0.283464
vn 0.456693 0.338583 0.818897
vn -0.472441 0.330709 0.811023
vn 0.480315 0.826771 -0.291339
vn 0.519685 0.850394 -0.094488
vn -0.480315 0.874016 -0.094488
vn -0.511811 0.811023 -0.283465
vn -0.456693 0.338583 -0.818898
vn 0.472441 0.330709 -0.811024
vn 0.480315 0.826771 -0.291339
vn 0.519685 0.850394 -0.094488
vn -0.480315 0.874016 -0.094488
vn -0.511811 0.811023 -0.283465
vn -0.456693 0.338583 -0.818898
vn 0.472441 0.330709 -0.811024
vn -0.291339 0.826771 -0.480315
vn -0.094488 0.850394 -0.519685
vn -0.094488 0.874016 0.480315
vn -0.283465 0.811024 0.511811
vn -0.818898 0.338583 0.456693
vn -0.811024 0.330709 -0.472441
vn -0.291339 0.826771 -0.480315
vn -0.094488 0.850394 -0.519685
vn -0.094488 0.874016 0.480315
vn -0.283465 0.811024 0.511811
vn -0.818898 0.338583 0.456693
vn -0.811024 0.330709 -0.472441
vn -0.314961 0.425197 0.850394
vn 0.330709 0.409449 0.850394
vn 0.346457 0.433071 0.834646
vn -0.346457 0.433071 0.834646
vn 0.385827 0.149606 0.913386
vn -0.858268 0.401575 0.322835
vn -0.385827 0.149606 0.913386
vn 0.385827 0.000000 0.921260
vn -0.385827 0.000000 0.921260
vn -0.834646 0.433071 0.346457
vn -0.850394 0.425197 -0.314961
vn -0.913386 0.149606 0.385827
vn -0.921260 0.000000 0.385827
vn -0.834646 0.433071 -0.346457
vn -0.322835 0.401575 -0.858268
vn -0.913386 0.149606 -0.385827
vn -0.921260 -0.000000 -0.385827
vn -0.346457 0.433071 -0.834646
vn 0.314961 0.425197 -0.850394
vn -0.385827 0.149606 -0.913386
vn -0.385827 -0.000000 -0.921260
vn 0.346457 0.433071 -0.834646
vn 0.858268 0.401575 -0.322835
vn 0.385827 0.149606 -0.913386
vn 0.385827 -0.000000 -0.921260
vn 0.834646 0.433071 -0.346457
vn 0.850394 0.425197 0.314961
vn 0.913386 0.149606 -0.385827
vn 0.921260 -0.000000 -0.385827
vn 0.834646 0.433071 0.346457
vn 0.377953 0.440945 0.818897
vn 0.346457 0.433071 0.834646
vn 0.913386 0.149606 0.385827
vn 0.921260 0.000000 0.385827
vn 0.385827 0.149606 0.913386
vn 0.385827 0.000000 0.921260
vn 0.755906 -0.574803 0.314961
vn 0.842520 -0.385827 0.377953
vn 0.842520 -0.385827 -0.377953
vn 0.755906 -0.574803 -0.314961
vn 0.622047 -0.755905 0.188976
vn 0.622047 -0.755905 -0.188976
vn 0.314961 -0.574803 -0.755905
vn 0.377953 -0.385827 -0.842520
vn 0.188976 -0.755905 -0.622047
vn -0.377953 -0.385827 -0.842520
vn -0.314961 -0.574803 -0.755905
vn -0.188976 -0.755905 -0.622047
vn -0.755906 -0.574803 -0.314961
vn -0.842520 -0.385827 -0.377953
vn -0.622047 -0.755905 -0.188976
vn -0.842520 -0.385827 0.377953
vn -0.755906 -0.574803 0.314961
vn -0.622047 -0.755905 0.188976
vn -0.314961 -0.574803 0.755905
vn -0.377953 -0.385827 0.842520
vn -0.188976 -0.755905 0.622047
vn 0.377953 -0.385827 0.842520
vn 0.314961 -0.574803 0.755905
vn 0.188976 -0.755905 0.622047
vn 0.755906 -0.574803 0.314961
vn 0.842520 -0.385827 0.377953
vn 0.622047 -0.755905 0.188976
vn 0.519685 0.850394 -0.000000
vn 0.614173 0.748031 0.259842
vn 0.291339 0.913386 0.275590
vn 0.291339 0.929134 -0.220473
vn 0.496063 0.771653 -0.401575
vn 0.062992 0.866142 -0.496063
vn -0.220472 0.929134 -0.291339
vn -0.385827 0.763779 -0.519685
vn -0.488189 0.850394 -0.196850
vn -0.472441 0.881890 0.047244
vn -0.220472 0.929134 0.291338
vn 0.125984 0.889764 0.440945
vn -0.433071 0.779527 0.456693
vn -0.086614 0.763779 0.637795
vn -0.393701 -0.259842 0.881890
vn 0.393701 -0.259842 0.881890
vn 0.362205 -0.133858 0.921260
vn 0.385827 0.000000 0.921260
vn -0.385827 0.000000 0.921260
vn -0.362205 -0.133858 0.921260
vn -0.921260 -0.133858 0.362205
vn -0.881890 -0.259842 0.393701
vn -0.921260 0.000000 0.385827
vn -0.881890 -0.259843 -0.393701
vn -0.921260 -0.000000 -0.385827
vn -0.921260 -0.133858 -0.362205
vn -0.385827 -0.000000 -0.921260
vn -0.362205 -0.133858 -0.921260
vn -0.393701 -0.259843 -0.881890
vn 0.385827 -0.000000 -0.921260
vn 0.393701 -0.259843 -0.881890
vn 0.362205 -0.133858 -0.921260
vn 0.921260 -0.133858 -0.362205
vn 0.921260 -0.000000 -0.385827
vn 0.881890 -0.259843 -0.393701
vn 0.921260 0.000000 0.385827
vn 0.881890 -0.259842 0.393701
vn 0.921260 -0.133858 0.362205
vn 0.362205 -0.133858 0.921260
vn 0.385827 0.000000 0.921260
vn 0.393701 -0.259842 0.881890
vn -0.007874 -0.007874 -1.000000
vn 0.000000 -0.000000 -1.000000
vn 0.370079 -0.000000 -0.929134
vn 0.228346 0.133858 -0.960630
vn 0.826772 0.055118 -0.566929
vn 0.921260 -0.000000 -0.393701
vn -0.078740 0.141732 -0.984252
vn 0.007874 -0.015748 -1.000000
vn 0.000000 -0.000000 -1.000000
vn -0.393701 -0.000000 -0.921260
vn -0.566929 0.055118 -0.826772
vn -0.929134 -0.000000 -0.370079
vn 0.031496 0.803149 -0.590551
vn -1.000000 -0.007874 0.007874
vn -1.000000 0.000000 0.000000
vn -0.078740 0.818897 -0.566929
vn -0.960630 0.133858 -0.228346
vn -0.472441 0.826771 -0.322835
vn -0.023622 0.952756 -0.291339
vn 0.039370 0.960630 -0.283465
vn -0.283465 0.960630 -0.039370
vn 0.322835 0.826771 -0.472441
vn 0.291339 0.952756 -0.023622
vn -0.590551 0.803149 -0.031496
vn -0.291339 0.952756 0.023622
vn 0.566929 0.818897 -0.078740
vn 0.590551 0.803149 0.031496
vn 0.283465 0.960630 0.039370
vn 0.984252 0.141732 -0.078740
vn 1.000000 0.000000 0.000000
vn 1.000000 -0.007874 0.000000
vn 1.000000 -0.007874 -0.007874
vn 0.472441 0.826772 0.322835
vn 0.960630 0.133858 0.228346
vn 0.023622 0.952756 0.291338
vn 0.929134 0.000000 0.370079
vn 1.000000 0.000000 0.000000
vn 0.566929 0.055118 0.826772
vn 0.393701 0.000000 0.921260
vn 0.078740 0.818898 0.566929
vn 0.078740 0.141732 0.984252
vn 0.000000 0.000000 1.000000
vn -0.007874 -0.015748 1.000000
vn 0.007874 -0.007874 1.000000
vn -0.031496 0.803150 0.590551
vn -0.039370 0.960630 0.283464
vn -0.228346 0.133858 0.960630
vn 0.000000 0.000000 1.000000
vn -0.370079 0.000000 0.929134
vn -0.322835 0.826772 0.472441
vn -0.826772 0.055118 0.566929
vn -0.921260 0.000000 0.393701
vn -0.566929 0.818897 0.078740
vn -0.984252 0.141732 0.078740
vn -1.000000 0.000000 0.000000
vn -1.000000 -0.015748 -0.007874
vn 0.228346 0.338583 -0.913386
vn -0.228346 0.338583 -0.913386
vn -0.425197 0.464567 -0.779527
vn 0.425197 0.464567 -0.779527
vn -0.779528 0.464567 -0.425197
vn 0.913386 0.338583 -0.228346
vn -0.913386 0.338583 -0.228346
vn 0.779528 0.464567 -0.425197
vn -0.779528 0.464567 0.425197
vn 0.913386 0.338583 0.228346
vn -0.913386 0.338583 0.228346
vn 0.779528 0.464567 0.425197
vn -0.425197 0.464567 0.779527
vn 0.228346 0.338583 0.913386
vn -0.228346 0.338583 0.913386
vn 0.425197 0.464567 0.779527
vn -0.141732 0.944882 -0.291339
vn -0.291339 0.944882 -0.141732
vn -0.622047 0.779527 -0.047244
vn -0.291339 0.944882 0.141732
vn -0.062992 0.771653 -0.637795
vn 0.141732 0.944882 -0.291339
vn -0.645669 0.755905 0.078740
vn 0.055118 0.771653 -0.629921
vn 0.291339 0.944882 -0.141732
vn -0.976378 0.039370 -0.204724
vn -0.220472 0.023622 -0.976378
vn -0.976378 0.015748 0.212598
vn 0.204724 0.031496 -0.976378
vn -0.196850 0.031496 0.976378
vn 0.637795 0.771653 -0.062992
vn 0.976378 0.023622 -0.220472
vn 0.291339 0.944882 0.141732
vn 0.976378 0.031496 0.204724
vn 0.629921 0.771653 0.055118
vn 0.141732 0.944882 0.291338
vn 0.062992 0.771653 0.637795
vn 0.220472 0.023622 0.976378
vn -0.141732 0.944882 0.291338
vn -0.055118 0.771653 0.629921
vn 0.236220 -0.842520 0.480315
vn 0.157480 -0.826771 0.543307
vn -0.157480 -0.826771 0.543307
vn 0.480315 -0.842520 0.236221
vn -0.236220 -0.842520 0.480315
vn 0.543307 -0.826772 0.157480
vn -0.543307 -0.826772 0.157480
vn 0.480315 -0.842520 -0.236220
vn -0.480315 -0.842520 0.236221
vn 0.543307 -0.826772 -0.157480
vn -0.543307 -0.826772 -0.157480
vn 0.236220 -0.842520 -0.480315
vn -0.480315 -0.842520 -0.236220
vn 0.157480 -0.826772 -0.543307
vn -0.157480 -0.826772 -0.543307
vn -0.236220 -0.842520 -0.480315
vn -0.157480 0.984252 -0.000000
vn 0.527559 0.834646 0.149606
vn 0.527559 0.834646 -0.149606
vn -0.157480 0.984252 -0.000000
vn 0.149606 0.834646 -0.527559
vn 0.000000 0.984252 -0.157480
vn 0.149606 0.834646 0.527559
vn -0.464567 0.858268 -0.228347
vn -0.228346 0.858268 -0.464567
vn -0.464567 0.858268 0.228346
vn 0.228346 0.858268 -0.464567
vn 0.000000 0.984252 0.157480
vn -0.228346 0.858268 0.464567
vn -0.149606 0.834646 -0.527559
vn 0.000000 0.984252 0.157480
vn 0.228346 0.858268 0.464567
vn -0.527559 0.834646 -0.149606
vn 0.157480 0.984252 -0.000000
vn 0.464567 0.858268 0.228346
vn -0.527559 0.834646 0.149606
vn 0.157480 0.984252 -0.000000
vn 0.464567 0.858268 -0.228347
vn -0.149606 0.834646 0.527559
vn 0.000000 0.984252 -0.157480
tan -1.000000 0.000000 0.055118 1.000000
tan -1.000000 0.000000 0.055118 1.000000
tan -1.000000 0.000000 0.055118 1.000000
tan 0.000000 -1.000000 0.000000 1.000000
tan 0.000000 -1.000000 0.000000 1.000000
tan 0.000000 -1.000000 0.000000 1.000000
tan 0.000000 -1.000000 0.000000 1.000000
tan 0.000000 -1.000000 0.000000 1.000000
tan 0.000000 -1.000000 0.000000 1.000000
tan 0.000000 -1.000000 0.000000 1.000000
tan 0.000000 -1.000000 0.000000 1.000000
tan 0.000000 -1.000000 0.000000 1.000000
tan 0.000000 -1.000000 0.000000 1.000000
tan 0.000000 -1.000000 0.000000 1.000000
tan 0.000000 -1.000000 0.000000 1.000000
tan 0.000000 -1.000000 0.000000 1.000000
tan 0.000000 -1.000000 0.000000 1.000000
tan 0.000000 -1.000000 0.000000 1.000000
tan 0.000000 -1.000000 0.000000 1.000000
tan 0.000000 -1.000000 0.000000 1.000000
tan 0.000000 -1.000000 0.000000 1.000000
tan 0.000000 -1.000000 0.000000 1.000000
tan 0.000000 -1.000000 0.000000 1.000000
tan 0.000000 -1.000000 0.000000 1.000000
tan 0.000000 -1.000000 0.000000 1.000000
tan 0.000000 -1.000000 0.000000 1.000000
tan 0.000000 -1.000000 0.000000 1.000000
tan 0.000000 -1.000000 0.000000 1.000000
tan 0.000000 -1.000000 0.000000 1.000000
tan 0.000000 -1.000000 0.000000 1.000000
tan 0.000000 -1.000000 0.000000 1.000000
tan 0.000000 -1.000000 0.000000 1.000000
tan 0.000000 -1.000000 0.000000 1.000000
tan 0.000000 -1.000000 0.000000 1.000000
tan 0.000000 -1.000000 0.000000 1.000000
tan 0.000000 -1.000000 0.000000 1.000000
tan 0.000000 -1.000000 0.000000 1.000000
tan 0.000000 -1.000000 0.000000 1.000000
tan 0.000000 -1.000000 0.000000 1.000000
tan 0.000000 -1.000000 0.000000 1.000000
tan 0.000000 -1.000000 0.000000 1.000000
tan 0.000000 -1.000000 0.000000 1.000000
tan 0.000000 -1.000000 0.000000 1.000000
tan 0.000000 -1.000000 0.000000 1.000000
tan 0.000000 -1.000000 0.000000 1.000000
tan 0.000000 -1.000000 0.000000 1.000000
tan 0.000000 -1.000000 0.000000 1.000000
tan 0.000000 -1.000000 0.000000 1.000000
tan 0.000000 -1.000000 0.000000 1.000000
tan 0.000000 -1.000000 0.000000 1.000000
tan 0.000000 -1.000000 0.000000 1.000000
tan 0.000000 -1.000000 0.000000 1.000000
tan 0.000000 -1.000000 0.000000 1.000000
tan 0.000000 -1.000000 0.000000 1.000000
tan 0.000000 -1.000000 0.000000 1.000000
tan 0.000000 -1.000000 0.000000 1.000000
tan 0.000000 -1.000000 0.000000 1.000000
tan 0.000000 -1.000000 0.000000 1.000000
tan 0.000000 -1.000000 0.000000 1.000000
tan 0.000000 -1.000000 0.000000 1.000000
tan 0.000000 -1.000000 0.000000 1.000000
tan 0.000000 -1.000000 0.000000 1.000000
tan 0.000000 -1.000000 0.000000 1.000000
tan 0.000000 -1.000000 0.000000 1.000000
tan 0.000000 -1.000000 0.000000 1.000000
tan 0.000000 -1.000000 0.000000 1.000000
tan 0.000000 -1.000000 0.000000 1.000000
tan -1.000000 0.000000 0.000000 1.000000
tan -1.000000 0.000000 0.000000 1.000000
tan -1.000000 0.000000 0.000000 1.000000
tan -1.000000 0.000000 0.000000 1.000000
tan -0.385827 -0.000000 -0.921260 1.000000
tan -0.385827 -0.000000 -0.921260 1.000000
tan 0.000000 -0.000000 -1.000000 1.000000
tan 0.220472 -0.000000 -0.976378 1.000000
tan 0.543307 -0.000000 -0.842520 1.000000
tan 0.708661 -0.000000 -0.708661 1.000000
tan 0.968504 -0.000000 -0.236220 1.000000
tan 0.992126 -0.000000 -0.133858 1.000000
tan 0.905512 0.000000 0.433071 1.000000
tan 0.842520 0.000000 0.543307 1.000000
tan 0.559055 0.000000 0.826772 1.000000
tan 0.212598 0.000000 0.976378 1.000000
tan 0.000000 0.000000 1.000000 1.000000
tan -0.385827 0.000000 0.921260 1.000000
tan -0.385827 0.000000 0.921260 1.000000
tan -0.842520 0.000000 0.535433 1.000000
tan -0.834646 0.000000 0.543307 1.000000
tan -1.000000 0.000000 0.000000 1.000000
tan -1.000000 -0.000000 -0.047244 1.000000
tan -0.842520 -0.000000 -0.535433 1.000000
tan -0.826772 -0.000000 -0.566929 1.000000
tan -0.385827 -0.000000 -0.921260 1.000000
tan -0.385827 -0.000000 -0.921260 1.000000
tan -0.242358 -0.788952 -0.402443 1.000000
tan 0.007378 -0.992126 -0.133858 1.000000
tan -0.374605 -0.921260 -0.043524 1.000000
tan -0.810466 -0.562093 0.135408 1.000000
tan -0.921260 -0.385827 -0.061070 1.000000
tan -0.921260 0.385827 0.029016 1.000000
tan -0.621055 0.669477 -0.392399 1.000000
tan -0.401017 0.913944 0.010354 1.000000
tan -0.475665 0.804762 0.317441 1.000000
tan -0.264121 0.799740 0.390601 1.000000
tan -0.001364 0.992126 0.102362 1.000000
tan -0.362267 0.809040 0.217248 1.000000
tan -0.102362 0.992126 -0.005642 1.000000
tan -0.029016 0.921260 0.375721 1.000000
tan -0.306343 0.486763 0.765391 1.000000
tan -0.043524 0.385827 0.921260 1.000000
tan 0.164796 0.411309 0.871970 1.000000
tan 0.021762 -0.385827 0.921260 1.000000
tan -0.407899 -0.677599 0.605183 1.000000
tan 0.003162 -0.913944 0.401575 1.000000
tan 0.304421 -0.811271 0.470457 1.000000
tan 0.345031 -0.823672 0.233307 1.000000
tan 0.078740 -1.000000 0.002914 1.000000
tan -0.238142 0.795647 -0.395747 1.000000
tan 0.006944 0.992126 -0.125984 1.000000
tan -0.374605 0.921260 -0.043524 1.000000
tan -0.810466 0.562093 0.135408 1.000000
tan -0.921260 0.385827 -0.053816 1.000000
tan -0.921260 -0.385827 0.021762 1.000000
tan -0.605183 -0.677599 -0.407899 1.000000
tan -0.401575 -0.913944 0.003162 1.000000
tan -0.470457 -0.811271 0.304421 1.000000
tan -0.233306 -0.830181 0.345031 1.000000
tan -0.002914 -1.000000 0.078740 1.000000
tan -0.362267 -0.809040 0.217248 1.000000
tan -0.102362 -0.992126 -0.005642 1.000000
tan -0.029016 -0.921260 0.375721 1.000000
tan 0.143840 -0.566929 0.805630 1.000000
tan -0.043524 -0.385827 0.921260 1.000000
tan 0.021762 0.385827 0.921260 1.000000
tan -0.407899 0.677599 0.605183 1.000000
tan 0.003162 0.913944 0.401575 1.000000
tan 0.304421 0.811272 0.470457 1.000000
tan 0.345031 0.823672 0.233306 1.000000
tan 0.078740 1.000000 0.002914 1.000000
tan 0.841590 0.013702 0.542067 1.000000
tan 0.389113 0.126356 0.913634 1.000000
tan 0.567363 0.415277 0.705189 1.000000
tan 0.799058 -0.076136 0.558373 1.000000
tan 1.000000 0.015748 -0.008618 1.000000
tan 0.950772 0.020088 -0.012462 1.000000
tan 0.766508 0.149110 -0.596689 1.000000
tan 0.676917 -0.010230 -0.731539 1.000000
tan 0.442805 -0.128030 -0.870792 1.000000
tan -0.159216 0.054250 -0.984252 1.000000
tan 0.004154 -0.006696 -0.950772 1.000000
tan -0.607477 0.135780 -0.761857 1.000000
tan -0.793602 -0.142848 -0.497985 1.000000
tan -0.582677 0.006386 -0.811023 1.000000
tan -0.984252 -0.000000 -0.165354 1.000000
tan -0.829376 0.183582 0.328663 1.000000
tan -0.763283 -0.013888 0.644677 1.000000
tan -0.605865 -0.175274 0.751131 1.000000
tan -0.113026 -0.070308 0.992126 1.000000
tan -0.087234 -0.140616 0.937380 1.000000
tan 0.250108 -0.186248 0.914378 1.000000
tan 0.370203 -0.076818 0.913572 1.000000
tan -0.684915 -0.016802 0.724471 1.000000
tan -0.378759 -0.094302 0.914006 1.000000
tan -0.437225 -0.258664 0.858578 1.000000
tan -0.817720 0.026226 0.525203 1.000000
tan -0.960630 -0.075640 0.273917 1.000000
tan -0.944882 -0.029760 -0.049290 1.000000
tan -0.992126 0.023436 -0.142662 1.000000
tan -0.795710 -0.062496 -0.558001 1.000000
tan -0.732345 -0.000372 -0.685101 1.000000
tan -0.399281 0.091388 -0.879534 1.000000
tan -0.110050 0.007812 -0.992126 1.000000
tan 0.234918 -0.073780 -0.937008 1.000000
tan 0.379813 0.021762 -0.921260 1.000000
tan 0.795276 -0.000000 -0.606299 1.000000
tan 0.699051 -0.000000 -0.699051 1.000000
tan 0.952756 0.060016 -0.151218 1.000000
tan 0.992126 0.000000 0.125984 1.000000
tan 0.809102 -0.068572 0.534565 1.000000
tan 0.637795 0.000000 0.771653 1.000000
tan 0.249674 0.154938 0.922252 1.000000
tan -0.000868 0.110236 0.992126 1.000000
tan -0.389299 0.108810 0.914006 1.000000
tan -0.341125 0.113212 0.904458 1.000000
tan -1.000000 0.000000 0.015748 1.000000
tan -1.000000 0.000000 0.000000 1.000000
tan -1.000000 0.000000 0.000000 1.000000
tan -1.000000 0.000000 0.000000 1.000000
tan -1.000000 0.000000 0.055118 1.000000
tan -0.876806 0.036332 -0.380867 1.000000
tan -0.905512 -0.007130 -0.417323 1.000000
tan -0.913386 0.000000 0.409449 1.000000
tan -0.872218 -0.039804 0.384525 1.000000
tan -0.954740 0.035836 0.304359 1.000000
tan -0.954740 -0.035836 -0.304359 1.000000
tan -0.380867 -0.036332 0.876806 1.000000
tan -0.417323 0.007130 0.905512 1.000000
tan 0.409449 0.000000 0.913386 1.000000
tan 0.384525 0.039804 0.872218 1.000000
tan 0.304359 -0.035836 0.954740 1.000000
tan -0.304359 0.035836 0.954740 1.000000
tan 0.876806 0.036332 0.380867 1.000000
tan 0.905512 -0.007130 0.417323 1.000000
tan 0.913386 -0.000000 -0.409449 1.000000
tan 0.869428 -0.049414 -0.387315 1.000000
tan 0.943952 0.023126 -0.313225 1.000000
tan 0.954740 -0.030442 0.309753 1.000000
tan -0.380867 0.036332 0.876806 1.000000
tan -0.417323 -0.007130 0.905512 1.000000
tan 0.409449 0.000000 0.913386 1.000000
tan 0.384525 -0.039804 0.872218 1.000000
tan 0.304359 0.035836 0.954740 1.000000
tan -0.304359 -0.035836 0.954740 1.000000
tan -0.007130 -0.915370 0.003286 1.000000
tan 0.000000 -0.948602 0.000000 1.000000
tan 0.000000 -0.948602 0.000000 1.000000
tan 0.000000 -0.932110 0.000000 1.000000
tan 0.006076 -0.927336 0.014508 1.000000
tan 0.003038 -0.948602 0.007254 1.000000
tan 0.014508 -0.948602 0.006076 1.000000
tan 0.014632 -0.932110 0.005952 1.000000
tan 0.014508 -0.927212 -0.005952 1.000000
tan 0.014508 -0.948602 -0.006076 1.000000
tan 0.006076 -0.927336 -0.014508 1.000000
tan 0.006076 -0.948602 -0.014508 1.000000
tan -0.006076 -0.927336 -0.014508 1.000000
tan -0.003038 -0.948602 -0.007254 1.000000
tan -0.014508 -0.948602 -0.006076 1.000000
tan -0.014632 -0.932110 -0.005952 1.000000
tan -0.007254 -0.927336 0.003038 1.000000
tan -0.007254 -0.948602 0.003038 1.000000
tan 0.828260 -0.404675 0.194184 1.000000
tan 0.879410 -0.194556 0.158472 1.000000
tan 0.886726 -0.164858 -0.125550 1.000000
tan 0.830802 -0.425011 -0.213342 1.000000
tan 0.455639 -0.801785 0.222580 1.000000
tan 0.488065 -0.766817 -0.301072 1.000000
tan 0.828260 -0.404675 0.194184 1.000000
tan 0.879410 -0.194556 0.158472 1.000000
tan 0.886726 -0.164858 -0.125550 1.000000
tan 0.830802 -0.425011 -0.213342 1.000000
tan 0.455639 -0.801785 0.222580 1.000000
tan 0.488065 -0.766817 -0.301072 1.000000
tan -0.194184 -0.404675 0.828260 1.000000
tan -0.158472 -0.194556 0.879410 1.000000
tan 0.125550 -0.164858 0.886726 1.000000
tan 0.213342 -0.425011 0.830802 1.000000
tan -0.222580 -0.801785 0.455639 1.000000
tan 0.301073 -0.766817 0.488065 1.000000
tan -0.194184 -0.404675 0.828260 1.000000
tan -0.158472 -0.194556 0.879410 1.000000
tan 0.125550 -0.164858 0.886726 1.000000
tan 0.213342 -0.425011 0.830802 1.000000
tan -0.222580 -0.801785 0.455639 1.000000
tan 0.301073 -0.766817 0.488065 1.000000
tan 0.194184 -0.404675 -0.828260 1.000000
tan 0.158472 -0.194556 -0.879410 1.000000
tan -0.125550 -0.164858 -0.886726 1.000000
tan -0.213342 -0.425011 -0.830801 1.000000
tan 0.222580 -0.801786 -0.455639 1.000000
tan -0.301073 -0.766817 -0.488065 1.000000
tan 0.194184 -0.404675 -0.828260 1.000000
tan 0.158472 -0.194556 -0.879410 1.000000
tan -0.125550 -0.164858 -0.886726 1.000000
tan -0.213342 -0.425011 -0.830801 1.000000
tan 0.222580 -0.801786 -0.455639 1.000000
tan -0.301073 -0.766817 -0.488065 1.000000
tan -0.828260 -0.404675 -0.194184 1.000000
tan -0.879410 -0.194556 -0.158472 1.000000
tan -0.886726 -0.164858 0.125550 1.000000
tan -0.830802 -0.425011 0.213342 1.000000
tan -0.455639 -0.801785 -0.222580 1.000000
tan -0.488065 -0.766817 0.301073 1.000000
tan -0.828260 -0.404675 -0.194184 1.000000
tan -0.879410 -0.194556 -0.158472 1.000000
tan -0.886726 -0.164858 0.125550 1.000000
tan -0.830802 -0.425011 0.213342 1.000000
tan -0.455639 -0.801785 -0.222580 1.000000
tan -0.488065 -0.766817 0.301073 1.000000
tan -0.133920 -0.858578 0.379689 1.000000
tan -0.204600 -0.831421 0.479881 1.000000
tan -0.169384 -0.834522 0.503317 1.000000
tan -0.150474 -0.878790 0.393515 1.000000
tan -0.189596 -0.914998 0.229959 1.000000
tan -0.419369 -0.868436 -0.034658 1.000000
tan -0.106454 -0.939612 0.108934 1.000000
tan -0.065286 -0.941348 0.027342 1.000000
tan -0.188604 -0.926840 -0.078988 1.000000
tan -0.437845 -0.877178 0.041664 1.000000
tan -0.420237 -0.862794 -0.030132 1.000000
tan -0.160580 -0.939612 -0.015810 1.000000
tan -0.069874 -0.934094 -0.166842 1.000000
tan -0.426933 -0.879906 -0.071362 1.000000
tan -0.015810 -0.870978 -0.401575 1.000000
tan -0.146568 -0.946804 -0.020150 1.000000
tan -0.006076 -0.948602 0.014508 1.000000
tan -0.077934 -0.879906 -0.424205 1.000000
tan -0.016740 -0.862794 -0.437597 1.000000
tan -0.027342 -0.939612 -0.142352 1.000000
tan -0.021762 -0.948602 0.009114 1.000000
tan 0.025110 -0.874450 -0.443301 1.000000
tan 0.386323 -0.870978 -0.056358 1.000000
tan -0.058962 -0.939612 -0.178808 1.000000
tan 0.050778 -0.941348 0.021266 1.000000
tan 0.404427 -0.876062 -0.120776 1.000000
tan 0.484593 -0.837746 -0.177444 1.000000
tan 0.105896 -0.939612 -0.113646 1.000000
tan 0.012152 -0.948602 0.029016 1.000000
tan 0.511501 -0.831794 -0.192510 1.000000
tan 0.629425 -0.627937 0.047616 1.000000
tan 0.631223 -0.690309 0.096162 1.000000
tan 0.253085 -0.907806 -0.247132 1.000000
tan 0.048608 -0.941348 -0.116064 1.000000
tan 0.415711 -0.846116 -0.037014 1.000000
tan 0.174096 -0.926840 -0.072912 1.000000
tan 0.353091 -0.039680 -0.919834 1.000000
tan 0.399343 0.006138 -0.883936 1.000000
tan -0.317379 0.178250 -0.889454 1.000000
tan -0.130014 0.328353 -0.911278 1.000000
tan 0.130944 -0.134292 -0.968194 1.000000
tan -0.172608 0.098518 -0.962242 1.000000
tan -0.302127 0.693905 -0.653543 1.000000
tan -0.577159 0.610329 -0.538409 1.000000
tan -0.230640 0.574183 -0.767809 1.000000
tan -0.133734 0.888772 -0.347015 1.000000
tan -0.229586 0.803025 -0.514973 1.000000
tan -0.270259 0.649203 -0.706801 1.000000
tan -0.421725 0.777729 -0.407217 1.000000
tan -0.134602 0.787215 -0.503565 1.000000
tan -0.621985 0.626573 -0.458925 1.000000
tan -0.525017 0.433257 -0.728068 1.000000
tan -0.650877 0.601153 -0.465001 1.000000
tan -0.736561 0.503751 -0.409511 1.000000
tan -0.900304 -0.021328 -0.391345 1.000000
tan -0.868188 -0.114576 -0.441937 1.000000
tan -0.824664 -0.199144 -0.492529 1.000000
tan -0.868994 -0.290347 0.256867 1.000000
tan -0.875566 -0.417633 0.047244 1.000000
tan -0.866700 -0.416269 -0.242544 1.000000
tan -0.650629 -0.704817 0.275219 1.000000
tan -0.538409 -0.610329 0.577159 1.000000
tan -0.766322 -0.623101 0.030070 1.000000
tan 0.843698 -0.515593 -0.135408 1.000000
tan 0.770786 -0.582739 -0.144274 1.000000
tan 0.877426 -0.201748 -0.258912 1.000000
tan 0.870606 -0.351107 -0.329221 1.000000
tan 0.738607 -0.601525 -0.243474 1.000000
tan 0.535867 -0.429289 -0.681505 1.000000
tan 0.887532 0.120590 -0.287061 1.000000
tan 0.803770 0.194804 -0.310435 1.000000
tan 0.843202 0.447951 -0.155992 1.000000
tan 0.874946 0.474301 -0.104160 1.000000
tan 0.848658 0.318371 -0.373117 1.000000
tan 0.756526 0.137888 -0.494389 1.000000
tan 0.732097 0.586521 -0.306901 1.000000
tan 0.602703 0.538967 -0.563581 1.000000
tan 0.093186 -0.921446 -0.229896 1.000000
tan 0.234422 -0.874326 -0.362267 1.000000
tan 0.151156 -0.929568 -0.194494 1.000000
tan 0.014508 -0.948602 -0.006076 1.000000
tan 0.101556 -0.941348 0.042532 1.000000
tan 0.089280 -0.939674 -0.101432 1.000000
tan 0.145266 -0.946928 0.019530 1.000000
tan 0.257797 -0.918346 -0.028644 1.000000
tan 0.039494 -0.941348 0.094302 1.000000
tan 0.251597 -0.921446 0.044578 1.000000
tan 0.003038 -0.948602 -0.007254 1.000000
tan 0.133858 -0.946928 0.009486 1.000000
tan 0.014508 -0.948602 -0.006076 1.000000
tan 0.009486 -0.946928 0.133858 1.000000
tan 0.021700 -0.918346 0.260897 1.000000
tan 0.087048 -0.941348 0.036456 1.000000
tan 0.040796 -0.918346 0.288797 1.000000
tan 0.012276 -0.946928 0.142414 1.000000
tan -0.112840 -0.939674 0.060264 1.000000
tan 0.042532 -0.941348 0.101556 1.000000
tan -0.209250 -0.914502 0.134850 1.000000
tan -0.036456 -0.941348 0.087048 1.000000
tan -0.314651 -0.908302 0.105338 1.000000
tan -0.178436 -0.936822 0.107632 1.000000
tan -0.241614 -0.917912 -0.038378 1.000000
tan -0.145080 -0.934094 0.060760 1.000000
tan -0.333375 -0.879038 -0.110174 1.000000
tan 0.834646 -0.551181 -0.002232 1.000000
tan 0.850394 -0.519685 0.000000 1.000000
tan 0.870606 -0.317503 0.346767 1.000000
tan 0.884990 -0.363073 0.159774 1.000000
tan 0.539959 -0.363259 0.752123 1.000000
tan 0.337901 -0.474611 0.790688 1.000000
tan 0.899002 0.395251 -0.015004 1.000000
tan 0.787402 0.614173 -0.003472 1.000000
tan 0.850394 0.527559 -0.000000 1.000000
tan 0.870482 0.307769 -0.372001 1.000000
tan 0.802902 0.230640 -0.535185 1.000000
tan 0.303057 0.536983 -0.760865 1.000000
tan 0.868808 -0.206212 -0.234112 1.000000
tan -0.008928 0.992126 -0.141732 1.000000
tan 0.000000 0.866142 -0.496063 1.000000
tan 0.788642 0.316201 0.347201 1.000000
tan 0.231756 0.824477 -0.491661 1.000000
tan 0.863476 0.471263 -0.056730 1.000000
tan 0.945254 0.050964 0.090024 1.000000
tan 0.953066 -0.072540 -0.113460 1.000000
tan 0.960630 0.281915 -0.037820 1.000000
tan 0.901172 -0.372187 -0.035526 1.000000
tan 0.952756 -0.290595 0.030008 1.000000
tan 0.803398 0.589559 -0.029946 1.000000
tan 0.952756 0.290595 0.030008 1.000000
tan 0.819518 -0.565069 0.023808 1.000000
tan 0.803398 -0.589559 -0.029946 1.000000
tan 0.960630 -0.281915 -0.037820 1.000000
tan 0.156488 -0.953252 0.240251 1.000000
tan 0.000000 -0.874016 0.480315 1.000000
tan -0.007750 -0.984252 0.181102 1.000000
tan -0.008928 -0.992126 -0.141732 1.000000
tan 0.863476 -0.471263 -0.056730 1.000000
tan 0.231756 -0.824478 -0.491661 1.000000
tan 0.945254 -0.050964 0.090024 1.000000
tan 0.303057 -0.536983 -0.760865 1.000000
tan 0.000000 -0.866142 -0.496063 1.000000
tan 0.802902 -0.230641 -0.535185 1.000000
tan 0.870482 -0.307769 -0.372001 1.000000
tan 0.788642 -0.316201 0.347201 1.000000
tan 0.899002 -0.395251 -0.015004 1.000000
tan 0.850394 -0.527559 0.000000 1.000000
tan 0.787402 -0.614173 -0.003472 1.000000
tan 0.834646 0.551181 -0.002232 1.000000
tan 0.868808 0.201562 -0.227788 1.000000
tan 0.953066 0.072540 -0.113460 1.000000
tan 0.892554 0.363073 0.161572 1.000000
tan 0.850394 0.519685 -0.000000 1.000000
tan 0.870606 0.317503 0.346767 1.000000
tan 0.901172 0.372187 -0.035526 1.000000
tan 0.539959 0.363259 0.752123 1.000000
tan 0.337901 0.474611 0.790687 1.000000
tan 0.819518 0.565069 0.023808 1.000000
tan 0.156488 0.953252 0.240250 1.000000
tan 0.000000 0.874016 0.480315 1.000000
tan -0.016926 0.984252 0.181102 1.000000
tan -0.918470 0.197780 -0.156302 1.000000
tan -0.918470 -0.212164 0.150970 1.000000
tan -0.878046 -0.154566 0.386819 1.000000
tan -0.865646 0.318619 -0.282287 1.000000
tan -0.603881 -0.727633 0.312109 1.000000
tan -0.383657 0.890012 -0.214954 1.000000
tan -0.377333 -0.899002 0.176328 1.000000
tan -0.600843 0.737119 -0.296175 1.000000
tan -0.600843 -0.737119 -0.296174 1.000000
tan -0.377333 0.899002 0.176328 1.000000
tan -0.383657 -0.890012 -0.214954 1.000000
tan -0.603881 0.727633 0.312108 1.000000
tan -0.865646 -0.324757 -0.278628 1.000000
tan -0.918470 0.212164 0.150970 1.000000
tan -0.918470 -0.197780 -0.156302 1.000000
tan -0.878046 0.154566 0.386819 1.000000
tan 0.939178 0.194556 0.174096 1.000000
tan 0.908798 0.320045 0.265546 1.000000
tan 0.779528 0.622419 0.006138 1.000000
tan 0.938558 0.303553 -0.094426 1.000000
tan 0.796826 0.359911 0.356749 1.000000
tan 0.931738 -0.200322 -0.196416 1.000000
tan 0.755906 0.645669 -0.000000 1.000000
tan 0.681381 -0.442991 -0.483043 1.000000
tan 0.938558 -0.304669 -0.101866 1.000000
tan 0.091326 0.945626 -0.253705 1.000000
tan 0.937938 0.276768 -0.205096 1.000000
tan 0.080290 0.930250 0.299832 1.000000
tan 0.930250 -0.307521 0.185132 1.000000
tan 0.930250 0.299833 0.177878 1.000000
tan 0.771654 -0.638291 -0.006076 1.000000
tan 0.088474 -0.930250 0.292145 1.000000
tan 0.908798 -0.320045 0.265547 1.000000
tan 0.083700 -0.945626 -0.253704 1.000000
tan 0.771654 -0.629921 0.000000 1.000000
tan 0.939178 -0.194556 0.174096 1.000000
tan 0.790750 -0.364437 0.362825 1.000000
tan 0.937938 -0.276769 -0.205096 1.000000
tan 0.931738 0.198028 -0.188976 1.000000
tan 0.692417 0.438465 -0.476533 1.000000
tan -0.034968 0.482175 0.862980 1.000000
tan -0.027714 0.544547 0.836691 1.000000
tan 0.027714 0.544547 0.836691 1.000000
tan -0.050220 0.230641 0.924732 1.000000
tan 0.034968 0.482175 0.862980 1.000000
tan -0.045880 0.151280 0.952508 1.000000
tan 0.045880 0.151280 0.952508 1.000000
tan 0.050220 -0.230640 0.924732 1.000000
tan 0.050220 0.230641 0.924732 1.000000
tan 0.045880 -0.151280 0.952508 1.000000
tan -0.045880 -0.151280 0.952508 1.000000
tan 0.034968 -0.482175 0.862980 1.000000
tan -0.050220 -0.230640 0.924732 1.000000
tan 0.027714 -0.544547 0.836692 1.000000
tan -0.027714 -0.544547 0.836692 1.000000
tan -0.034968 -0.482175 0.862980 1.000000
tan 0.000000 0.000000 0.985492 1.000000
tan -0.037696 -0.144894 0.941286 1.000000
tan 0.037696 0.144894 0.941286 1.000000
tan 0.000000 0.000000 0.985492 1.000000
tan 0.022506 0.528737 0.842892 1.000000
tan 0.000000 0.157480 0.984252 1.000000
tan -0.022506 -0.528737 0.842892 1.000000
tan -0.041354 0.224751 0.928886 1.000000
tan -0.026164 0.466365 0.874450 1.000000
tan 0.041354 -0.224750 0.928886 1.000000
tan 0.026164 0.466365 0.874450 1.000000
tan 0.000000 -0.157480 0.984252 1.000000
tan 0.026164 -0.466365 0.874450 1.000000
tan -0.022506 0.528737 0.842892 1.000000
tan 0.000000 -0.157480 0.984252 1.000000
tan -0.026164 -0.466365 0.874450 1.000000
tan -0.037696 0.144894 0.941286 1.000000
tan 0.000000 0.000000 0.985492 1.000000
tan -0.041354 -0.224750 0.928886 1.000000
tan 0.037696 -0.144894 0.941286 1.000000
tan 0.000000 0.000000 0.985492 1.000000
tan 0.041354 0.224751 0.928886 1.000000
tan 0.022506 -0.528737 0.842892 1.000000
tan 0.000000 0.157480 0.984252 1.000000
f 3/3/3 2/2/2 1/1/1
f 6/6/6 5/5/5 4/4/4
f 4/4/4 5/5/5 7/7/7
f 10/10/10 9/9/9 8/8/8
f 8/8/8 9/9/9 11/11/11
f 14/14/14 13/13/13 12/12/12
f 12/12/12 13/13/13 15/15/15
f 18/18/18 17/17/17 16/16/16
f 16/16/16 17/17/17 19/19/19
f 22/22/22 21/21/21 20/20/20
f 20/20/20 21/21/21 23/23/23
f 26/26/26 25/25/25 24/24/24
f 24/24/24 25/25/25 27/27/27
f 30/30/30 29/29/29 28/28/28
f 28/28/28 29/29/29 31/31/31
f 34/34/34 33/33/33 32/32/32
f 32/32/32 33/33/33 35/35/35
f 38/38/38 37/37/37 36/36/36
f 36/36/36 37/37/37 39/39/39
f 42/42/42 41/41/41 40/40/40
f 40/40/40 41/41/41 43/43/43
f 46/46/46 45/45/45 44/44/44
f 44/44/44 45/45/45 47/47/47
f 50/50/50 49/49/49 48/48/48
f 48/48/48 49/49/49 51/51/51
f 54/54/54 53/53/53 52/52/52
f 52/52/52 53/53/53 55/55/55
f 58/58/58 57/57/57 56/56/56
f 56/56/56 57/57/57 59/59/59
f 62/62/62 61/61/61 60/60/60
f 60/60/60 61/61/61 63/63/63
f 66/66/66 65/65/65 64/64/64
f 64/64/64 65/65/65 67/67/67
f 70/70/70 69/69/69 68/68/68
f 70/70/70 68/68/68 71/71/71
f 74/74/74 73/73/73 72/72/72
f 72/72/72 75/75/75 74/74/74
f 76/76/76 74/74/74 75/75/75
f 76/76/76 75/75/75 77/77/77
f 78/78/78 76/76/76 77/77/77
f 77/77/77 79/79/79 78/78/78
f 80/80/80 78/78/78 79/79/79
f 79/79/79 81/81/81 80/80/80
f 82/82/82 80/80/80 81/81/81
f 82/82/82 81/81/81 83/83/83
f 84/84/84 82/82/82 83/83/83
f 85/85/85 84/84/84 83/83/83
f 83/83/83 86/86/86 85/85/85
f 85/85/85 86/86/86 87/87/87
f 87/87/87 88/88/88 85/85/85
f 89/89/89 88/88/88 87/87/87
f 87/87/87 90/90/90 89/89/89
f 91/91/91 89/89/89 90/90/90
f 90/90/90 92/92/92 91/91/91
f 91/91/91 92/92/92 93/93/93
f 93/93/93 94/94/94 91/91/91
f 97/97/97 96/96/96 95/95/95
f 95/95/95 98/98/98 97/97/97
f 99/99/99 97/97/97 98/98/98
f 100/100/100 99/99/99 98/98/98
f 98/98/98 101/101/101 100/100/100
f 102/102/102 100/100/100 101/101/101
f 101/101/101 103/103/103 102/102/102
f 103/103/103 101/101/101 104/104/104
f 105/105/105 102/102/102 103/103/103
f 103/103/103 104/104/104 105/105/105
f 108/108/108 107/107/107 106/106/106
f 106/106/106 109/109/109 108/108/108
f 110/110/110 108/108/108 109/109/109
f 109/109/109 111/111/111 110/110/110
f 112/112/112 110/110/110 111/111/111
f 111/111/111 109/109/109 113/113/113
f 111/111/111 113/113/113 112/112/112
f 114/114/114 112/112/112 113/113/113
f 113/113/113 115/115/115 114/114/114
f 115/115/115 113/113/113 116/116/116
f 117/117/117 114/114/114 115/115/115
f 115/115/115 116/116/116 117/117/117
f 120/120/120 119/119/119 118/118/118
f 118/118/118 121/121/121 120/120/120
f 122/122/122 120/120/120 121/121/121
f 123/123/123 122/122/122 121/121/121
f 121/121/121 124/124/124 123/123/123
f 125/125/125 123/123/123 124/124/124
f 124/124/124 126/126/126 125/125/125
f 126/126/126 124/124/124 127/127/127
f 128/128/128 125/125/125 126/126/126
f 126/126/126 127/127/127 128/128/128
f 131/131/131 130/130/130 129/129/129
f 129/129/129 132/132/132 131/131/131
f 133/133/133 131/131/131 132/132/132
f 134/134/134 133/133/133 132/132/132
f 132/132/132 135/135/135 134/134/134
f 136/136/136 134/134/134 135/135/135
f 135/135/135 137/137/137 136/136/136
f 137/137/137 135/135/135 138/138/138
f 139/139/139 136/136/136 137/137/137
f 137/137/137 138/138/138 139/139/139
f 142/142/142 141/141/141 140/140/140
f 140/140/140 143/143/143 142/142/142
f 143/143/143 140/140/140 144/144/144
f 144/144/144 145/145/145 143/143/143
f 146/146/146 145/145/145 144/144/144
f 144/144/144 147/147/147 146/146/146
f 148/148/148 146/146/146 147/147/147
f 148/148/148 147/147/147 149/149/149
f 149/149/149 150/150/150 148/148/148
f 151/151/151 150/150/150 149/149/149
f 151/151/151 149/149/149 152/152/152
f 152/152/152 149/149/149 153/153/153
f 153/153/153 154/154/154 152/152/152
f 155/155/155 152/152/152 154/154/154
f 154/154/154 156/156/156 155/155/155
f 156/156/156 157/157/157 155/155/155
f 157/157/157 156/156/156 158/158/158
f 158/158/158 159/159/159 157/157/157
f 160/160/160 159/159/159 158/158/158
f 158/158/158 161/161/161 160/160/160
f 164/164/164 163/163/163 162/162/162
f 162/162/162 165/165/165 164/164/164
f 166/166/166 165/165/165 162/162/162
f 167/167/167 165/165/165 166/166/166
f 166/166/166 168/168/168 167/167/167
f 168/168/168 169/169/169 167/167/167
f 170/170/170 169/169/169 168/168/168
f 171/171/171 169/169/169 170/170/170
f 172/172/172 171/171/171 170/170/170
f 172/172/172 173/173/173 171/171/171
f 174/174/174 173/173/173 172/172/172
f 175/175/175 173/173/173 174/174/174
f 175/175/175 176/176/176 173/173/173
f 177/177/177 176/176/176 175/175/175
f 178/178/178 177/177/177 175/175/175
f 179/179/179 177/177/177 178/178/178
f 180/180/180 179/179/179 178/178/178
f 181/181/181 179/179/179 180/180/180
f 180/180/180 182/182/182 181/181/181
f 181/181/181 182/182/182 183/183/183
f 181/181/181 183/183/183 184/184/184
f 187/187/187 186/186/186 185/185/185
f 188/188/188 187/187/187 185/185/185
f 188/188/188 185/185/185 189/189/189
f 192/192/192 191/191/191 190/190/190
f 190/190/190 193/193/193 192/192/192
f 194/194/194 193/193/193 190/190/190
f 190/190/190 195/195/195 194/194/194
f 198/198/198 197/197/197 196/196/196
f 196/196/196 199/199/199 198/198/198
f 200/200/200 199/199/199 196/196/196
f 196/196/196 201/201/201 200/200/200
f 204/204/204 203/203/203 202/202/202
f 202/202/202 205/205/205 204/204/204
f 206/206/206 205/205/205 202/202/202
f 202/202/202 207/207/207 206/206/206
f 210/210/210 209/209/209 208/208/208
f 208/208/208 211/211/211 210/210/210
f 212/212/212 211/211/211 208/208/208
f 208/208/208 213/213/213 212/212/212
f 216/216/216 215/215/215 214/214/214
f 214/214/214 217/217/217 216/216/216
f 216/216/216 217/217/217 218/218/218
f 218/218/218 219/219/219 216/216/216
f 220/220/220 219/219/219 218/218/218
f 218/218/218 221/221/221 220/220/220
f 220/220/220 221/221/221 222/222/222
f 222/222/222 223/223/223 220/220/220
f 223/223/223 222/222/222 224/224/224
f 224/224/224 225/225/225 223/223/223
f 225/225/225 224/224/224 226/226/226
f 226/226/226 227/227/227 225/225/225
f 228/228/228 227/227/227 226/226/226
f 226/226/226 229/229/229 228/228/228
f 228/228/228 229/229/229 230/230/230
f 230/230/230 231/231/231 228/228/228
f 234/234/234 233/233/233 232/232/232
f 232/232/232 235/235/235 234/234/234
f 236/236/236 235/235/235 232/232/232
f 232/232/232 237/237/237 236/236/236
f 240/240/240 239/239/239 238/238/238
f 238/238/238 241/241/241 240/240/240
f 242/242/242 241/241/241 238/238/238
f 238/238/238 243/243/243 242/242/242
f 246/246/246 245/245/245 244/244/244
f 244/244/244 247/247/247 246/246/246
f 248/248/248 247/247/247 244/244/244
f 244/244/244 249/249/249 248/248/248
f 252/252/252 251/251/251 250/250/250
f 250/250/250 253/253/253 252/252/252
f 254/254/254 253/253/253 250/250/250
f 250/250/250 255/255/255 254/254/254
f 258/258/258 257/257/257 256/256/256
f 256/256/256 259/259/259 258/258/258
f 260/260/260 259/259/259 256/256/256
f 256/256/256 261/261/261 260/260/260
f 264/264/264 263/263/263 262/262/262
f 262/262/262 265/265/265 264/264/264
f 266/266/266 265/265/265 262/262/262
f 262/262/262 267/267/267 266/266/266
f 270/270/270 269/269/269 268/268/268
f 268/268/268 271/271/271 270/270/270
f 272/272/272 271/271/271 268/268/268
f 268/268/268 273/273/273 272/272/272
f 276/276/276 275/275/275 274/274/274
f 274/274/274 277/277/277 276/276/276
f 278/278/278 277/277/277 274/274/274
f 274/274/274 279/279/279 278/278/278
f 282/282/282 281/281/281 280/280/280
f 280/280/280 283/283/283 282/282/282
f 284/284/284 282/282/282 283/283/283
f 283/283/283 280/280/280 285/285/285
f 283/283/283 286/286/286 284/284/284
f 287/287/287 284/284/284 286/286/286
f 286/286/286 288/288/288 287/287/287
f 285/285/285 289/289/289 283/283/283
f 286/286/286 283/283/283 289/289/289
f 289/289/289 285/285/285 290/290/290
f 288/288/288 286/286/286 291/291/291
f 289/289/289 291/291/291 286/286/286
f 291/291/291 292/292/292 288/288/288
f 290/290/290 293/293/293 289/289/289
f 291/291/291 289/289/289 293/293/293
f 293/293/293 290/290/290 294/294/294
f 292/292/292 291/291/291 295/295/295
f 293/293/293 295/295/295 291/291/291
f 295/295/295 296/296/296 292/292/292
f 294/294/294 297/297/297 293/293/293
f 295/295/295 293/293/293 297/297/297
f 297/297/297 294/294/294 298/298/298
f 296/296/296 295/295/295 299/299/299
f 297/297/297 299/299/299 295/295/295
f 299/299/299 300/300/300 296/296/296
f 298/298/298 301/301/301 297/297/297
f 299/299/299 297/297/297 301/301/301
f 301/301/301 298/298/298 302/302/302
f 300/300/300 299/299/299 303/303/303
f 301/301/301 303/303/303 299/299/299
f 303/303/303 304/304/304 300/300/300
f 302/302/302 305/305/305 301/301/301
f 303/303/303 301/301/301 305/305/305
f 305/305/305 302/302/302 306/306/306
f 304/304/304 303/303/303 307/307/307
f 305/305/305 307/307/307 303/303/303
f 307/307/307 308/308/308 304/304/304
f 306/306/306 309/309/309 305/305/305
f 307/307/307 305/305/305 309/309/309
f 309/309/309 306/306/306 310/310/310
f 310/310/310 311/311/311 309/309/309
f 308/308/308 307/307/307 312/312/312
f 309/309/309 312/312/312 307/307/307
f 312/312/312 309/309/309 311/311/311
f 312/312/312 313/313/313 308/308/308
f 311/311/311 314/314/314 312/312/312
f 313/313/313 312/312/312 314/314/314
f 314/314/314 315/315/315 313/313/313
f 318/318/318 317/317/317 316/316/316
f 316/316/316 319/319/319 318/318/318
f 319/319/319 316/316/316 320/320/320
f 320/320/320 321/321/321 319/319/319
f 318/318/318 319/319/319 322/322/322
f 322/322/322 319/319/319 321/321/321
f 322/322/322 323/323/323 318/318/318
f 321/321/321 324/324/324 322/322/322
f 325/325/325 323/323/323 322/322/322
f 326/326/326 322/322/322 324/324/324
f 322/322/322 326/326/326 325/325/325
f 324/324/324 327/327/327 326/326/326
f 325/325/325 326/326/326 328/328/328
f 328/328/328 326/326/326 327/327/327
f 328/328/328 329/329/329 325/325/325
f 327/327/327 330/330/330 328/328/328
f 331/331/331 329/329/329 328/328/328
f 332/332/332 328/328/328 330/330/330
f 328/328/328 332/332/332 331/331/331
f 330/330/330 333/333/333 332/332/332
f 331/331/331 332/332/332 334/334/334
f 334/334/334 332/332/332 333/333/333
f 334/334/334 335/335/335 331/331/331
f 333/333/333 336/336/336 334/334/334
f 337/337/337 335/335/335 334/334/334
f 338/338/338 334/334/334 336/336/336
f 334/334/334 338/338/338 337/337/337
f 336/336/336 339/339/339 338/338/338
f 337/337/337 338/338/338 340/340/340
f 340/340/340 338/338/338 339/339/339
f 340/340/340 341/341/341 337/337/337
f 339/339/339 342/342/342 340/340/340
f 345/345/345 344/344/344 343/343/343
f 345/345/345 343/343/343 346/346/346
f 343/343/343 347/347/347 346/346/346
f 348/348/348 346/346/346 347/347/347
f 349/349/349 346/346/346 348/348/348
f 349/349/349 345/345/345 346/346/346
f 348/348/348 350/350/350 349/349/349
f 351/351/351 349/349/349 350/350/350
f 349/349/349 351/351/351 352/352/352
f 349/349/349 353/353/353 345/345/345
f 349/349/349 352/352/352 353/353/353
f 353/353/353 354/354/354 345/345/345
f 355/355/355 353/353/353 352/352/352
f 356/356/356 354/354/354 353/353/353
f 355/355/355 356/356/356 353/353/353
f 359/359/359 358/358/358 357/357/357
f 361/361/361 360/360/360 359/359/359
f 357/357/357 362/362/362 359/359/359
f 359/359/359 362/362/362 361/361/361
f 363/363/363 362/362/362 357/357/357
f 361/361/361 362/362/362 363/363/363
f 357/357/357 364/364/364 363/363/363
f 363/363/363 365/365/365 361/361/361
f 363/363/363 364/364/364 366/366/366
f 367/367/367 365/365/365 363/363/363
f 363/363/363 368/368/368 367/367/367
f 366/366/366 368/368/368 363/363/363
f 369/369/369 367/367/367 368/368/368
f 370/370/370 368/368/368 366/366/366
f 368/368/368 370/370/370 369/369/369
f 366/366/366 371/371/371 370/370/370
f 372/372/372 369/369/369 370/370/370
f 370/370/370 371/371/371 373/373/373
f 370/370/370 374/374/374 372/372/372
f 373/373/373 374/374/374 370/370/370
f 372/372/372 374/374/374 375/375/375
f 375/375/375 374/374/374 373/373/373
f 375/375/375 376/376/376 372/372/372
f 373/373/373 377/377/377 375/375/375
f 378/378/378 376/376/376 375/375/375
f 375/375/375 377/377/377 379/379/379
f 375/375/375 380/380/380 378/378/378
f 379/379/379 380/380/380 375/375/375
f 378/378/378 380/380/380 381/381/381
f 381/381/381 380/380/380 379/379/379
f 381/381/381 382/382/382 378/378/378
f 379/379/379 383/383/383 381/381/381
f 386/386/386 385/385/385 384/384/384
f 384/384/384 387/387/387 386/386/386
f 386/386/386 387/387/387 388/388/388
f 388/388/388 389/389/389 386/386/386
f 390/390/390 387/387/387 384/384/384
f 384/384/384 391/391/391 390/390/390
f 390/390/390 391/391/391 392/392/392
f 392/392/392 393/393/393 390/390/390
f 394/394/394 390/390/390 393/393/393
f 394/394/394 393/393/393 395/395/395
f 396/396/396 387/387/387 390/390/390
f 395/395/395 398/398/398 397/397/397
f 390/390/390 394/394/394 399/399/399
f 390/390/390 399/399/399 396/396/396
f 395/395/395 400/400/400 394/394/394
f 397/397/397 400/400/400 395/395/395
f 401/401/401 399/399/399 394/394/394
f 394/394/394 400/400/400 401/401/401
f 396/396/396 399/399/399 402/402/402
f 402/402/402 399/399/399 401/401/401
f 402/402/402 403/403/403 396/396/396
f 401/401/401 404/404/404 402/402/402
f 396/396/396 403/403/403 405/405/405
f 396/396/396 405/405/405 387/387/387
f 388/388/388 387/387/387 405/405/405
f 405/405/405 403/403/403 406/406/406
f 407/407/407 404/404/404 401/401/401
f 407/407/407 401/401/401 400/400/400
f 408/408/408 404/404/404 407/407/407
f 406/406/406 409/409/409 405/405/405
f 405/405/405 409/409/409 388/388/388
f 410/410/410 409/409/409 406/406/406
f 406/406/406 411/411/411 410/410/410
f 412/412/412 388/388/388 409/409/409
f 412/412/412 409/409/409 410/410/410
f 388/388/388 412/412/412 389/389/389
f 413/413/413 389/389/389 412/412/412
f 412/412/412 414/414/414 413/413/413
f 415/415/415 414/414/414 412/412/412
f 410/410/410 411/411/411 416/416/416
f 410/410/410 417/417/417 412/412/412
f 412/412/412 417/417/417 415/415/415
f 410/410/410 416/416/416 417/417/417
f 416/416/416 411/411/411 418/418/418
f 415/415/415 417/417/417 419/419/419
f 419/419/419 420/420/420 415/415/415
f 419/419/419 417/417/417 421/421/421
f 421/421/421 417/417/417 416/416/416
f 421/421/421 422/422/422 419/419/419
f 418/418/418 423/423/423 416/416/416
f 416/416/416 423/423/423 421/421/421
f 421/421/421 424/424/424 422/422/422
f 424/424/424 421/421/421 423/423/423
f 425/425/425 422/422/422 424/424/424
f 424/424/424 426/426/426 425/425/425
f 427/427/427 426/426/426 424/424/424
f 428/428/428 423/423/423 418/418/418
f 424/424/424 423/423/423 428/428/428
f 418/418/418 429/429/429 428/428/428
f 424/424/424 430/430/430 427/427/427
f 428/428/428 430/430/430 424/424/424
f 432/432/432 431/431/431 427/427/427
f 427/427/427 430/430/430 432/432/432
f 428/428/428 429/429/429 433/433/433
f 428/428/428 433/433/433 430/430/430
f 433/433/433 429/429/429 408/408/408
f 432/432/432 430/430/430 434/434/434
f 434/434/434 430/430/430 433/433/433
f 434/434/434 435/435/435 432/432/432
f 408/408/408 436/436/436 433/433/433
f 433/433/433 436/436/436 434/434/434
f 407/407/407 436/436/436 408/408/408
f 434/434/434 437/437/437 435/435/435
f 437/437/437 434/434/434 436/436/436
f 437/437/437 436/436/436 407/407/407
f 438/438/438 435/435/435 437/437/437
f 407/407/407 400/400/400 437/437/437
f 437/437/437 439/439/439 438/438/438
f 437/437/437 400/400/400 397/397/397
f 397/397/397 439/439/439 437/437/437
f 442/442/442 441/441/441 440/440/440
f 440/440/440 443/443/443 442/442/442
f 441/441/441 442/442/442 444/444/444
f 443/443/443 440/440/440 445/445/445
f 444/444/444 446/446/446 441/441/441
f 445/445/445 447/447/447 443/443/443
f 446/446/446 444/444/444 448/448/448
f 447/447/447 445/445/445 449/449/449
f 448/448/448 450/450/450 446/446/446
f 449/449/449 451/451/451 447/447/447
f 450/450/450 448/448/448 452/452/452
f 451/451/451 449/449/449 453/453/453
f 452/452/452 454/454/454 450/450/450
f 453/453/453 455/455/455 451/451/451
f 454/454/454 452/452/452 455/455/455
f 455/455/455 453/453/453 454/454/454
f 458/458/458 457/457/457 456/456/456
f 459/459/459 457/457/457 458/458/458
f 456/456/456 460/460/460 458/458/458
f 460/460/460 456/456/456 461/461/461
f 458/458/458 462/462/462 459/459/459
f 461/461/461 463/463/463 460/460/460
f 463/463/463 461/461/461 464/464/464
f 465/465/465 458/458/458 460/460/460
f 462/462/462 458/458/458 465/465/465
f 460/460/460 466/466/466 465/465/465
f 465/465/465 467/467/467 462/462/462
f 468/468/468 466/466/466 460/460/460
f 460/460/460 463/463/463 468/468/468
f 462/462/462 467/467/467 469/469/469
f 468/468/468 463/463/463 470/470/470
f 464/464/464 470/470/470 463/463/463
f 470/470/470 471/471/471 468/468/468
f 470/470/470 464/464/464 472/472/472
f 473/473/473 471/471/471 470/470/470
f 472/472/472 474/474/474 470/470/470
f 470/470/470 474/474/474 473/473/473
f 474/474/474 472/472/472 475/475/475
f 473/473/473 474/474/474 476/476/476
f 475/475/475 476/476/476 474/474/474
f 476/476/476 477/477/477 473/473/473
f 469/469/469 477/477/477 476/476/476
f 476/476/476 475/475/475 478/478/478
f 476/476/476 479/479/479 469/469/469
f 478/478/478 479/479/479 476/476/476
f 469/469/469 479/479/479 462/462/462
f 479/479/479 478/478/478 459/459/459
f 459/459/459 462/462/462 479/479/479
f 482/482/482 481/481/481 480/480/480
f 483/483/483 480/480/480 481/481/481
f 480/480/480 484/484/484 482/482/482
f 481/481/481 485/485/485 483/483/483
f 486/486/486 482/482/482 484/484/484
f 487/487/487 483/483/483 485/485/485
f 484/484/484 488/488/488 486/486/486
f 485/485/485 489/489/489 487/487/487
f 490/490/490 486/486/486 488/488/488
f 491/491/491 487/487/487 489/489/489
f 488/488/488 492/492/492 490/490/490
f 489/489/489 493/493/493 491/491/491
f 494/494/494 490/490/490 492/492/492
f 495/495/495 491/491/491 493/493/493
f 492/492/492 495/495/495 494/494/494
f 493/493/493 494/494/494 495/495/495
f 498/498/498 497/497/497 496/496/496
f 496/496/496 499/499/499 498/498/498
f 500/500/500 498/498/498 499/499/499
f 501/501/501 496/496/496 497/497/497
f 497/497/497 502/502/502 501/501/501
f 499/499/499 496/496/496 503/503/503
f 504/504/504 503/503/503 496/496/496
f 496/496/496 501/501/501 504/504/504
f 503/503/503 505/505/505 499/499/499
f 506/506/506 504/504/504 501/501/501
f 507/507/507 499/499/499 505/505/505
f 499/499/499 507/507/507 500/500/500
f 505/505/505 508/508/508 507/507/507
f 509/509/509 500/500/500 507/507/507
f 510/510/510 507/507/507 508/508/508
f 507/507/507 510/510/510 509/509/509
f 508/508/508 511/511/511 510/510/510
f 512/512/512 509/509/509 510/510/510
f 513/513/513 510/510/510 511/511/511
f 510/510/510 513/513/513 512/512/512
f 511/511/511 514/514/514 513/513/513
f 515/515/515 512/512/512 513/513/513
f 516/516/516 513/513/513 514/514/514
f 513/513/513 516/516/516 515/515/515
f 514/514/514 517/517/517 516/516/516
f 518/518/518 515/515/515 516/516/516
f 519/519/519 516/516/516 517/517/517
f 516/516/516 519/519/519 518/518/518
f 517/517/517 506/506/506 519/519/519
f 502/502/502 518/518/518 519/519/519
f 501/501/501 519/519/519 506/506/506
f 519/519/519 501/501/501 502/502/502
