mtllib SM_Lamp_02_LOD1.mtl
g SM_Lamp_02_LOD1
#Vertices 517
#Indices 1866
#Section 0 Offset 0 NumIndices 558 MaterialIndex 1 MI_Metal_06
#Section 1 Offset 558 NumIndices 1242 MaterialIndex 2 MI_Plastic_Dirty_11
#Section 2 Offset 1800 NumIndices 36 MaterialIndex 0 MI_Emissive_09
#Section 3 Offset 1836 NumIndices 30 MaterialIndex 3 MI_Decal_Meshes_01
v -0.063291 0.001118 0.121723
v 1.338374 0.001118 0.121723
v -0.059962 0.002135 0.119899
v 1.335045 0.002135 0.119899
v 0.004505 0.050579 0.077071
v 1.270579 0.050579 0.077071
v -0.063291 0.001118 0.121723
v 1.340330 0.002337 0.123418
v 1.338374 0.001118 0.121723
v -0.065246 0.002337 0.123418
v 1.342067 0.004621 0.125011
v -0.066983 0.004621 0.125011
v 1.343096 0.007000 0.125895
v -0.068013 0.007000 0.125895
v 1.341611 0.009465 0.125286
v -0.066527 0.009465 0.125286
v -0.001398 0.088329 0.082638
v 1.276481 0.088329 0.082638
v 1.276079 0.090211 0.080906
v 1.278862 0.088646 0.081695
v 1.279749 0.088639 0.079383
v -0.000996 0.090210 0.080907
v -0.003778 0.088646 0.081695
v -0.004665 0.088639 0.079383
v 1.277675 0.090287 0.078670
v -0.002591 0.090287 0.078670
v 1.277675 0.090287 -0.000238
v 1.279749 0.088639 -0.000951
v 1.275084 0.090836 0.078432
v 0.000000 0.090836 0.078432
v -0.002591 0.090287 -0.000238
v -0.004665 0.088639 -0.000951
v 1.275084 0.090836 -0.000000
v 0.000000 0.090836 -0.000000
v -0.000995 0.090211 -0.002474
v -0.003778 0.088646 -0.003263
v -0.001398 0.088329 -0.004206
v 1.276079 0.090210 -0.002475
v 1.278862 0.088646 -0.003263
v 1.276481 0.088329 -0.004206
v 1.341611 0.009465 -0.046854
v -0.066527 0.009465 -0.046854
v 1.343096 0.007000 -0.047463
v -0.068013 0.007000 -0.047463
v 1.342067 0.004621 -0.046579
v -0.066983 0.004621 -0.046579
v 1.340330 0.002337 -0.044986
v -0.065246 0.002337 -0.044986
v 1.338374 0.001118 -0.043290
v -0.063291 0.001118 -0.043290
v 1.338374 0.001118 -0.043290
v -0.063291 0.001118 -0.043290
v 1.335045 0.002135 -0.041467
v -0.059962 0.002135 -0.041467
v 0.004505 0.050579 0.001361
v 1.270579 0.050579 0.001361
v -0.065246 0.002337 -0.044986
v -0.065826 0.000941 -0.042612
v -0.063291 0.001118 -0.043290
v -0.068515 0.002242 -0.043311
v -0.066689 0.000995 -0.040325
v -0.066983 0.004621 -0.046579
v -0.066689 0.000995 0.118757
v -0.069650 0.004815 -0.045900
v -0.068013 0.007000 -0.047463
v -0.070285 0.007839 -0.047108
v -0.071235 0.006940 -0.044505
v -0.070395 0.004690 -0.043367
v -0.068521 0.002240 0.121743
v -0.065826 0.000941 0.121044
v -0.063291 0.001118 0.121723
v -0.065246 0.002337 0.123418
v -0.066983 0.004621 0.125011
v -0.070395 0.004690 0.121799
v -0.069650 0.004815 0.124332
v -0.068013 0.007000 0.125895
v -0.070285 0.007839 0.125540
v -0.071235 0.006940 0.122937
v -0.070305 0.009156 0.122366
v -0.070285 0.007839 0.125540
v -0.068013 0.007000 0.125895
v -0.066527 0.009465 0.125286
v -0.003778 0.088646 0.081695
v -0.001398 0.088329 0.082638
v -0.004665 0.088639 0.079383
v -0.004665 0.088639 -0.000951
v -0.070305 0.009156 -0.043934
v -0.003778 0.088646 -0.003263
v -0.070285 0.007839 -0.047108
v -0.066527 0.009465 -0.046854
v -0.001398 0.088329 -0.004206
v -0.068013 0.007000 -0.047463
v 1.340330 0.002337 -0.044986
v 1.338374 0.001118 -0.043290
v 1.340909 0.000941 -0.042612
v 1.343599 0.002242 -0.043311
v 1.341773 0.000995 -0.040325
v 1.342067 0.004621 -0.046579
v 1.341773 0.000995 0.118757
v 1.344734 0.004815 -0.045900
v 1.343096 0.007000 -0.047463
v 1.345369 0.007839 -0.047108
v 1.346319 0.006940 -0.044505
v 1.345478 0.004690 -0.043367
v 1.343604 0.002240 0.121742
v 1.340909 0.000941 0.121044
v 1.338374 0.001118 0.121723
v 1.340330 0.002337 0.123418
v 1.342067 0.004621 0.125011
v 1.345478 0.004690 0.121799
v 1.344734 0.004815 0.124332
v 1.343096 0.007000 0.125895
v 1.345369 0.007839 0.125540
v 1.346319 0.006940 0.122937
v 1.345389 0.009156 0.122366
v 1.345369 0.007839 0.125540
v 1.343096 0.007000 0.125895
v 1.341611 0.009465 0.125286
v 1.278862 0.088646 0.081695
v 1.276481 0.088329 0.082638
v 1.279749 0.088639 0.079383
v 1.279749 0.088639 -0.000951
v 1.345389 0.009156 -0.043934
v 1.278862 0.088646 -0.003263
v 1.345369 0.007839 -0.047108
v 1.341611 0.009465 -0.046854
v 1.343096 0.007000 -0.047463
v 1.276481 0.088329 -0.004206
v -0.059962 0.002135 -0.041467
v 0.001486 0.050579 0.002168
v 0.004505 0.050579 0.001361
v -0.063535 0.001718 -0.041029
v -0.063291 0.001118 -0.043290
v -0.065826 0.000941 -0.042612
v -0.066689 0.000995 -0.040325
v -0.064549 0.001712 -0.038614
v 0.000480 0.050579 0.004588
v -0.066689 0.000995 0.118757
v 0.000480 0.050579 0.073844
v -0.064549 0.001712 0.117046
v 0.001486 0.050579 0.076264
v -0.063535 0.001718 0.119461
v -0.065826 0.000941 0.121044
v -0.063291 0.001118 0.121723
v -0.059962 0.002135 0.119899
v 0.004505 0.050579 0.077071
v 1.273597 0.050579 0.002168
v 1.335045 0.002135 -0.041467
v 1.270579 0.050579 0.001361
v 1.338619 0.001718 -0.041029
v 1.338374 0.001118 -0.043290
v 1.340909 0.000941 -0.042612
v 1.341773 0.000995 -0.040325
v 1.339633 0.001712 -0.038614
v 1.274603 0.050579 0.004588
v 1.341773 0.000995 0.118757
v 1.274603 0.050579 0.073844
v 1.339633 0.001712 0.117046
v 1.273597 0.050579 0.076264
v 1.338619 0.001718 0.119461
v 1.340909 0.000941 0.121044
v 1.338374 0.001118 0.121723
v 1.335045 0.002135 0.119899
v 1.270579 0.050579 0.077071
v 0.049230 0.092086 0.088335
v -0.007417 0.015863 0.131880
v -0.008301 0.014719 0.130070
v 0.049236 0.092096 -0.009897
v -0.008301 0.014718 -0.051638
v -0.007417 0.015863 -0.053448
v 1.282501 0.015863 0.131880
v 1.225847 0.092096 0.088330
v 1.283384 0.014719 0.130070
v 1.283385 0.014718 -0.051638
v 1.225854 0.092086 -0.009903
v 1.282501 0.015863 -0.053448
v 0.215486 0.147316 0.000292
v 0.185517 0.090422 0.000292
v 0.230871 0.090422 0.000292
v 0.200544 0.147316 0.000292
v 0.215486 0.150494 0.001609
v 0.200544 0.150494 0.001609
v 0.200544 0.165982 0.024926
v 0.215486 0.165982 0.024926
v 0.215486 0.167299 0.028105
v 0.200544 0.167299 0.028105
v 0.200544 0.167299 0.050314
v 0.215486 0.167299 0.050314
v 0.215486 0.165982 0.053493
v 0.200544 0.165982 0.053493
v 0.200544 0.150495 0.076810
v 0.215486 0.150495 0.076810
v 0.215486 0.147316 0.078127
v 0.200544 0.147316 0.078127
v 0.185517 0.090422 0.078127
v 0.230871 0.090422 0.078127
v 0.648009 0.147316 0.000292
v 0.618040 0.090422 0.000292
v 0.663394 0.090422 0.000292
v 0.633066 0.147316 0.000292
v 0.648009 0.150494 0.001609
v 0.633066 0.150494 0.001609
v 0.633066 0.165982 0.024926
v 0.648009 0.165982 0.024926
v 0.648009 0.167299 0.028105
v 0.633066 0.167299 0.028105
v 0.633066 0.167299 0.050314
v 0.648009 0.167299 0.050314
v 0.648009 0.165982 0.053493
v 0.633066 0.165982 0.053493
v 0.633066 0.150495 0.076810
v 0.648009 0.150495 0.076810
v 0.648009 0.147316 0.078127
v 0.633066 0.147316 0.078127
v 0.618040 0.090422 0.078127
v 0.663394 0.090422 0.078127
v 1.080531 0.147316 0.000292
v 1.050562 0.090422 0.000292
v 1.095916 0.090422 0.000292
v 1.065588 0.147316 0.000292
v 1.080531 0.150494 0.001609
v 1.065588 0.150494 0.001609
v 1.065588 0.165982 0.024926
v 1.080531 0.165982 0.024926
v 1.080531 0.167299 0.028105
v 1.065588 0.167299 0.028105
v 1.065588 0.167299 0.050314
v 1.080531 0.167299 0.050314
v 1.080531 0.165982 0.053493
v 1.065588 0.165982 0.053493
v 1.065588 0.150495 0.076810
v 1.080531 0.150495 0.076810
v 1.080531 0.147316 0.078127
v 1.065588 0.147316 0.078127
v 1.050562 0.090422 0.078127
v 1.095916 0.090422 0.078127
v 0.215486 0.147316 0.000292
v 0.230871 0.090422 0.000292
v 0.232734 0.090422 0.002154
v 0.217349 0.148406 0.002154
v 0.215486 0.150494 0.001609
v 0.232734 0.090422 0.076265
v 0.215486 0.165982 0.024926
v 0.215486 0.147316 0.078127
v 0.230871 0.090422 0.078127
v 0.217349 0.165437 0.027014
v 0.215486 0.167299 0.028105
v 0.215486 0.167299 0.050314
v 0.217349 0.148407 0.076265
v 0.215486 0.150495 0.076810
v 0.215486 0.165982 0.053493
v 0.217349 0.165437 0.051405
v 0.200544 0.147316 0.000292
v 0.183655 0.090422 0.002154
v 0.185517 0.090422 0.000292
v 0.198681 0.148406 0.002154
v 0.200544 0.150494 0.001609
v 0.183655 0.090422 0.076265
v 0.200544 0.165982 0.024926
v 0.200544 0.147316 0.078127
v 0.185517 0.090422 0.078127
v 0.198681 0.165437 0.027014
v 0.200544 0.167299 0.028105
v 0.200544 0.167299 0.050314
v 0.198681 0.148407 0.076265
v 0.200544 0.150495 0.076810
v 0.200544 0.165982 0.053493
v 0.198681 0.165437 0.051405
v 0.648009 0.147316 0.000292
v 0.663394 0.090422 0.000292
v 0.665256 0.090422 0.002154
v 0.649871 0.148406 0.002154
v 0.648009 0.150494 0.001609
v 0.665256 0.090422 0.076265
v 0.648009 0.165982 0.024926
v 0.648009 0.147316 0.078127
v 0.663394 0.090422 0.078127
v 0.649871 0.165437 0.027014
v 0.648009 0.167299 0.028105
v 0.648009 0.167299 0.050314
v 0.649871 0.148407 0.076265
v 0.648009 0.150495 0.076810
v 0.648009 0.165982 0.053493
v 0.649871 0.165437 0.051405
v 0.633066 0.147316 0.000292
v 0.616178 0.090422 0.002154
v 0.618040 0.090422 0.000292
v 0.631204 0.148406 0.002154
v 0.633066 0.150494 0.001609
v 0.616178 0.090422 0.076265
v 0.633066 0.165982 0.024926
v 0.633066 0.147316 0.078127
v 0.618040 0.090422 0.078127
v 0.631204 0.165437 0.027014
v 0.633066 0.167299 0.028105
v 0.633066 0.167299 0.050314
v 0.631204 0.148407 0.076265
v 0.633066 0.150495 0.076810
v 0.633066 0.165982 0.053493
v 0.631204 0.165437 0.051405
v 1.080531 0.147316 0.000292
v 1.095916 0.090422 0.000292
v 1.097778 0.090422 0.002154
v 1.082393 0.148406 0.002154
v 1.080531 0.150494 0.001609
v 1.097778 0.090422 0.076265
v 1.080531 0.165982 0.024926
v 1.080531 0.147316 0.078127
v 1.095916 0.090422 0.078127
v 1.082393 0.165437 0.027014
v 1.080531 0.167299 0.028105
v 1.080531 0.167299 0.050314
v 1.082393 0.148407 0.076265
v 1.080531 0.150495 0.076810
v 1.080531 0.165982 0.053493
v 1.082393 0.165437 0.051405
v 1.065588 0.147316 0.000292
v 1.048700 0.090422 0.002154
v 1.050562 0.090422 0.000292
v 1.063726 0.148406 0.002154
v 1.065588 0.150494 0.001609
v 1.048700 0.090422 0.076265
v 1.065588 0.165982 0.024926
v 1.065588 0.147316 0.078127
v 1.050562 0.090422 0.078127
v 1.063726 0.165437 0.027014
v 1.065588 0.167299 0.028105
v 1.065588 0.167299 0.050314
v 1.063726 0.148407 0.076265
v 1.065588 0.150495 0.076810
v 1.065588 0.165982 0.053493
v 1.063726 0.165437 0.051405
v 0.050540 0.090779 -0.002753
v 0.050544 0.097540 0.085168
v 0.050526 0.090789 0.081064
v 0.050547 0.097576 -0.006468
v 0.050050 0.094229 -0.007591
v 0.048297 0.087001 -0.004927
v 0.050304 0.090323 -0.002372
v 0.049236 0.092096 -0.009897
v -0.008301 0.014718 -0.051638
v -0.009140 0.010500 -0.046347
v 0.050205 0.093492 -0.011433
v -0.007417 0.015863 -0.053448
v -0.008435 0.012334 -0.052186
v -0.007071 0.009465 -0.046854
v 0.022356 0.009417 -0.046845
v -0.006650 0.014284 -0.054338
v 0.021581 0.012655 -0.052753
v 0.025640 0.014180 -0.051938
v 0.025943 0.011593 -0.045704
v 0.080200 0.087974 -0.004387
v 0.023026 0.014166 -0.054259
v -0.004649 0.016517 -0.053904
v 0.025179 0.015885 -0.053436
v 0.052012 0.093007 -0.012643
v 0.022838 0.016517 -0.053904
v 0.053047 0.097809 -0.008367
v 0.078758 0.095578 -0.011003
v 0.078918 0.092692 -0.011872
v 0.079199 0.090838 -0.010481
v 0.081131 0.094494 -0.007710
v 0.081422 0.090318 -0.002377
v 0.080757 0.098618 -0.006876
v 0.078283 0.099099 -0.006569
v 0.053233 0.099143 -0.005107
v 0.051272 0.099681 -0.001136
v 0.053414 0.100399 -0.001238
v 0.051271 0.099678 0.079591
v 0.053233 0.099143 0.083539
v 0.053411 0.100388 0.079761
v 0.078824 0.100396 -0.001057
v 0.080954 0.099680 -0.001050
v 0.081650 0.097542 -0.000847
v 0.081652 0.090792 -0.002584
v 0.080953 0.099677 0.079505
v 0.081650 0.097542 0.079279
v 0.081631 0.090783 0.081174
v 0.081186 0.094558 0.086193
v 0.078820 0.100384 0.079583
v 0.080750 0.098891 0.083304
v 0.078441 0.098793 0.085709
v 0.080228 0.097176 0.086926
v 0.052667 0.097425 0.087234
v 0.078469 0.095836 0.089287
v 0.080319 0.094855 0.089141
v 0.079199 0.090838 0.088913
v 0.081104 0.089272 0.082091
v 0.022838 0.016517 0.132336
v 0.025641 0.014180 0.130370
v 0.025943 0.011593 0.124136
v 0.025179 0.015885 0.131869
v 0.022409 0.009400 0.125287
v 0.023026 0.014166 0.132691
v 0.021581 0.012655 0.131185
v -0.007071 0.009465 0.125286
v -0.008469 0.012349 0.130647
v -0.009140 0.010500 0.124779
v -0.006650 0.014284 0.132770
v -0.008301 0.014719 0.130070
v 0.048297 0.087001 0.083359
v -0.007417 0.015863 0.131880
v 0.049230 0.092086 0.088335
v -0.004649 0.016517 0.132336
v 0.050205 0.093492 0.089865
v 0.052012 0.093007 0.091075
v 0.050008 0.094081 0.086395
v 0.050304 0.090323 0.080804
v 1.226787 0.087001 0.083359
v 1.225034 0.094229 0.086023
v 1.224780 0.090323 0.080804
v 1.225847 0.092096 0.088330
v 1.283384 0.014719 0.130070
v 1.284223 0.010500 0.124779
v 1.224878 0.093492 0.089865
v 1.282501 0.015863 0.131880
v 1.283553 0.012349 0.130647
v 1.282154 0.009465 0.125286
v 1.281734 0.014284 0.132770
v 1.253503 0.012655 0.131185
v 1.252674 0.009400 0.125287
v 1.279732 0.016517 0.132336
v 1.252058 0.014166 0.132691
v 1.249443 0.014180 0.130370
v 1.249141 0.011593 0.124136
v 1.194883 0.087974 0.082819
v 1.249904 0.015885 0.131869
v 1.195885 0.090838 0.088913
v 1.252246 0.016517 0.132336
v 1.196166 0.092692 0.090304
v 1.193952 0.094494 0.086142
v 1.193662 0.090318 0.080809
v 1.194944 0.095433 0.088217
v 1.194210 0.098239 0.085356
v 1.196618 0.095818 0.089295
v 1.223071 0.093007 0.091075
v 1.222032 0.097820 0.086787
v 1.196643 0.098793 0.085709
v 1.224539 0.097561 0.084881
v 1.224564 0.090779 0.081196
v 1.224540 0.090789 -0.002628
v 1.224541 0.097540 -0.006678
v 1.222124 0.100340 0.081234
v 1.196263 0.100384 0.079583
v 1.194131 0.099677 0.079505
v 1.223813 0.099678 0.079591
v 1.196260 0.100396 -0.001057
v 1.221669 0.100399 -0.001238
v 1.223812 0.099681 -0.001136
v 1.221850 0.099143 -0.005107
v 1.196801 0.099099 -0.006569
v 1.194130 0.099680 -0.001050
v 1.193434 0.097542 0.079279
v 1.193448 0.090792 0.081019
v 1.193434 0.090783 -0.002734
v 1.193428 0.097616 -0.002704
v 1.193890 0.094562 -0.007765
v 1.194730 0.096852 -0.008404
v 1.222406 0.097465 -0.008760
v 1.196574 0.095840 -0.010854
v 1.194761 0.094863 -0.010707
v 1.195885 0.090837 -0.010481
v 1.193979 0.089272 -0.003659
v 1.252246 0.016517 -0.053904
v 1.249443 0.014180 -0.051938
v 1.249141 0.011593 -0.045704
v 1.249904 0.015885 -0.053436
v 1.252728 0.009417 -0.046845
v 1.252058 0.014166 -0.054259
v 1.223071 0.093007 -0.012643
v 1.253503 0.012655 -0.052753
v 1.283518 0.012334 -0.052186
v 1.282155 0.009465 -0.046854
v 1.284223 0.010500 -0.046347
v 1.281734 0.014284 -0.054338
v 1.283385 0.014718 -0.051638
v 1.226787 0.087001 -0.004927
v 1.282501 0.015863 -0.053448
v 1.225854 0.092086 -0.009903
v 1.279732 0.016517 -0.053904
v 1.224878 0.093492 -0.011433
v 1.225076 0.094081 -0.007963
v 1.224780 0.090323 -0.002372
v 1.282421 0.046020 0.067136
v 0.001713 0.050184 0.078191
v 1.274296 0.050184 0.078191
v -0.006871 0.046020 0.067164
v -0.015259 0.040740 0.054614
v 1.290876 0.040740 0.054614
v 1.294006 0.038786 0.039225
v -0.018611 0.038806 0.039225
v -0.015259 0.040740 0.023837
v 1.290876 0.040740 0.023837
v 1.282421 0.046020 0.011315
v -0.007096 0.046020 0.011287
v 0.002474 0.050184 0.000260
v 1.274296 0.050184 0.000260
v 1.073249 0.071825 -0.013293
v 1.017137 0.071825 -0.013293
v 1.017137 0.022580 -0.040035
v 1.073249 0.022580 -0.040035
v 1.111089 0.034185 -0.033619
v 1.209059 0.020077 -0.041218
v 1.209059 0.034185 -0.033619
v 1.111089 0.020077 -0.041218
v 0.063586 0.034185 -0.033619
v 0.161556 0.020077 -0.041218
v 0.161556 0.034185 -0.033619
v 0.063586 0.020077 -0.041218
v 0.161556 0.034185 0.112581
v 0.063587 0.020077 0.120180
v 0.063586 0.034185 0.112581
v 0.161556 0.020077 0.120179
v 1.209059 0.034185 0.112581
v 1.111089 0.020077 0.120180
v 1.111089 0.034185 0.112581
v 1.209059 0.020077 0.120179
vt 0.794922 0.129883
vt 0.087341 0.129883
vt 0.793457 0.128906
vt 0.089050 0.128906
vt 0.760742 0.096191
vt 0.121582 0.096191
vt 0.794922 0.129883
vt 0.086365 0.131348
vt 0.087341 0.129883
vt 0.795898 0.131348
vt 0.085449 0.132324
vt 0.796875 0.132324
vt 0.084961 0.133789
vt 0.797363 0.133789
vt 0.085693 0.135254
vt 0.796387 0.135254
vt 0.763672 0.180176
vt 0.118530 0.180176
vt 0.118774 0.181641
vt 0.117249 0.180664
vt 0.116699 0.182129
vt 0.763184 0.181641
vt 0.765137 0.180664
vt 0.765625 0.182129
vt 0.117981 0.182617
vt 0.764160 0.182617
vt 0.117920 0.222168
vt 0.116638 0.222656
vt 0.119263 0.182617
vt 0.762695 0.182617
vt 0.764160 0.222656
vt 0.765625 0.222656
vt 0.119263 0.222168
vt 0.762695 0.222168
vt 0.763184 0.223633
vt 0.765137 0.224121
vt 0.763672 0.224609
vt 0.118713 0.223633
vt 0.117188 0.224121
vt 0.118469 0.224609
vt 0.085632 0.270020
vt 0.796387 0.270020
vt 0.084839 0.271484
vt 0.797363 0.270996
vt 0.085388 0.272461
vt 0.796875 0.272461
vt 0.086243 0.273926
vt 0.795898 0.273926
vt 0.087219 0.274902
vt 0.794922 0.274902
vt 0.087219 0.274902
vt 0.794922 0.274902
vt 0.088928 0.275879
vt 0.792969 0.275879
vt 0.760742 0.308594
vt 0.121460 0.308594
vt 0.187622 0.566650
vt 0.186157 0.566406
vt 0.186768 0.565186
vt 0.186523 0.567871
vt 0.185059 0.566895
vt 0.188599 0.568115
vt 0.104736 0.566895
vt 0.187744 0.569092
vt 0.189331 0.569336
vt 0.188721 0.570557
vt 0.187134 0.570557
vt 0.186523 0.569336
vt 0.103210 0.567871
vt 0.103516 0.566406
vt 0.102966 0.565186
vt 0.102051 0.566650
vt 0.101135 0.568115
vt 0.103210 0.569336
vt 0.101929 0.569092
vt 0.100403 0.569336
vt 0.100952 0.570557
vt 0.102539 0.570557
vt 0.102905 0.571777
vt 0.101257 0.571289
vt 0.100403 0.571777
vt 0.100891 0.573242
vt 0.123352 0.624268
vt 0.122375 0.625000
vt 0.124573 0.623779
vt 0.165161 0.623779
vt 0.186768 0.571777
vt 0.166382 0.624268
vt 0.188477 0.571289
vt 0.188843 0.573242
vt 0.167358 0.625000
vt 0.189331 0.571777
vt 0.267090 0.546143
vt 0.265625 0.545166
vt 0.266846 0.544678
vt 0.268311 0.544922
vt 0.267334 0.543457
vt 0.268555 0.546875
vt 0.267334 0.463379
vt 0.269531 0.546143
vt 0.269775 0.547607
vt 0.270996 0.547119
vt 0.270996 0.545654
vt 0.269775 0.544922
vt 0.268311 0.461914
vt 0.266846 0.461914
vt 0.265625 0.461426
vt 0.267090 0.460449
vt 0.268555 0.459473
vt 0.269775 0.461914
vt 0.269531 0.460449
vt 0.269775 0.458984
vt 0.270996 0.459473
vt 0.270996 0.460938
vt 0.272217 0.461426
vt 0.271729 0.459961
vt 0.272217 0.458984
vt 0.273682 0.459473
vt 0.324707 0.481934
vt 0.325439 0.480957
vt 0.324219 0.482910
vt 0.324219 0.523438
vt 0.272217 0.545166
vt 0.324707 0.524658
vt 0.271729 0.546875
vt 0.273682 0.547119
vt 0.272217 0.547852
vt 0.325439 0.525635
vt 0.186035 0.563477
vt 0.163574 0.524170
vt 0.164307 0.522705
vt 0.185425 0.565186
vt 0.186768 0.565186
vt 0.186157 0.566406
vt 0.185059 0.566895
vt 0.184204 0.565674
vt 0.162354 0.524658
vt 0.104736 0.566895
vt 0.127319 0.524658
vt 0.105530 0.565674
vt 0.126099 0.524170
vt 0.104248 0.565186
vt 0.103516 0.566406
vt 0.102966 0.565186
vt 0.103699 0.563477
vt 0.125366 0.522705
vt 0.224609 0.521973
vt 0.263916 0.544434
vt 0.223267 0.522705
vt 0.265625 0.543945
vt 0.265625 0.545166
vt 0.266846 0.544678
vt 0.267334 0.543457
vt 0.266113 0.542480
vt 0.225098 0.520752
vt 0.267334 0.463379
vt 0.225098 0.485840
vt 0.266113 0.463867
vt 0.224609 0.484863
vt 0.265625 0.462891
vt 0.266846 0.461914
vt 0.265625 0.461426
vt 0.263916 0.462402
vt 0.223267 0.483887
vt 0.169434 0.497559
vt 0.200195 0.540039
vt 0.200806 0.540771
vt 0.120239 0.499512
vt 0.087341 0.541260
vt 0.087952 0.540527
vt 0.087891 0.486816
vt 0.120300 0.445312
vt 0.087341 0.487305
vt 0.201416 0.486816
vt 0.169556 0.443848
vt 0.200806 0.485840
vt 0.418701 0.437988
vt 0.447510 0.422852
vt 0.447510 0.445801
vt 0.418701 0.430664
vt 0.416992 0.437988
vt 0.416992 0.430664
vt 0.402832 0.430664
vt 0.402832 0.437988
vt 0.401123 0.437988
vt 0.401123 0.430664
vt 0.389893 0.430664
vt 0.389893 0.437988
vt 0.388184 0.437988
vt 0.388184 0.430664
vt 0.374023 0.430664
vt 0.374023 0.437988
vt 0.372314 0.437988
vt 0.372314 0.430664
vt 0.343506 0.422852
vt 0.343506 0.445801
vt 0.543945 0.437988
vt 0.572754 0.422852
vt 0.572754 0.445801
vt 0.543945 0.430664
vt 0.542480 0.437988
vt 0.542480 0.430664
vt 0.528320 0.430664
vt 0.528320 0.437988
vt 0.526367 0.437988
vt 0.526367 0.430664
vt 0.515137 0.430664
vt 0.515137 0.437988
vt 0.513672 0.437988
vt 0.513672 0.430664
vt 0.499512 0.430664
vt 0.499512 0.437988
vt 0.497803 0.437988
vt 0.497803 0.430664
vt 0.468994 0.422852
vt 0.468994 0.445801
vt 0.293213 0.437988
vt 0.322021 0.422852
vt 0.322021 0.445801
vt 0.293213 0.430664
vt 0.291504 0.437988
vt 0.291504 0.430664
vt 0.277344 0.430664
vt 0.277344 0.437988
vt 0.275635 0.437988
vt 0.275635 0.430664
vt 0.264404 0.430664
vt 0.264404 0.437988
vt 0.262695 0.437988
vt 0.262695 0.430664
vt 0.248657 0.430664
vt 0.248657 0.437988
vt 0.246826 0.437988
vt 0.246948 0.430664
vt 0.218140 0.422852
vt 0.218140 0.445801
vt 0.120056 0.819580
vt 0.119995 0.849365
vt 0.118713 0.849609
vt 0.118652 0.819336
vt 0.119202 0.817993
vt 0.081299 0.849609
vt 0.107361 0.810181
vt 0.079895 0.819580
vt 0.079956 0.849365
vt 0.106140 0.810791
vt 0.105652 0.809448
vt 0.094299 0.809448
vt 0.081299 0.819336
vt 0.080811 0.817993
vt 0.092590 0.810181
vt 0.093872 0.810791
vt 0.237915 0.551025
vt 0.207886 0.552246
vt 0.208130 0.551025
vt 0.238159 0.552246
vt 0.239502 0.551758
vt 0.207886 0.589844
vt 0.247314 0.563721
vt 0.237915 0.591064
vt 0.208130 0.591064
vt 0.246704 0.564941
vt 0.248047 0.565430
vt 0.248047 0.576660
vt 0.238159 0.589600
vt 0.239502 0.590332
vt 0.247314 0.578369
vt 0.246704 0.577148
vt 0.120056 0.712158
vt 0.119995 0.741943
vt 0.118713 0.742188
vt 0.118652 0.711914
vt 0.119202 0.710449
vt 0.081299 0.742188
vt 0.107361 0.702637
vt 0.079895 0.712158
vt 0.079956 0.741943
vt 0.106140 0.703369
vt 0.105652 0.701904
vt 0.094299 0.701904
vt 0.081299 0.711914
vt 0.080811 0.710449
vt 0.092590 0.702637
vt 0.093872 0.703369
vt 0.141357 0.819580
vt 0.142700 0.849609
vt 0.141357 0.849365
vt 0.142700 0.819336
vt 0.142212 0.817993
vt 0.180176 0.849609
vt 0.154053 0.810181
vt 0.181519 0.819580
vt 0.181396 0.849365
vt 0.155273 0.810791
vt 0.155762 0.809448
vt 0.167114 0.809448
vt 0.180054 0.819336
vt 0.180664 0.817993
vt 0.168823 0.810181
vt 0.167603 0.810791
vt 0.120056 0.765869
vt 0.119995 0.795654
vt 0.118713 0.795898
vt 0.118652 0.765625
vt 0.119202 0.764282
vt 0.081299 0.795898
vt 0.107361 0.756348
vt 0.079895 0.765869
vt 0.079956 0.795654
vt 0.106140 0.757080
vt 0.105652 0.755737
vt 0.094299 0.755737
vt 0.081299 0.765625
vt 0.080811 0.764282
vt 0.092590 0.756348
vt 0.093872 0.757080
vt 0.079895 0.658447
vt 0.081299 0.688232
vt 0.079956 0.687988
vt 0.081299 0.658203
vt 0.080811 0.656738
vt 0.118713 0.688232
vt 0.092590 0.648926
vt 0.120056 0.658447
vt 0.119995 0.687988
vt 0.093872 0.649658
vt 0.094299 0.648193
vt 0.105652 0.648193
vt 0.118652 0.658203
vt 0.119202 0.656738
vt 0.107361 0.648926
vt 0.106140 0.649658
vt 0.123596 0.501709
vt 0.167969 0.496582
vt 0.166260 0.500000
vt 0.121948 0.498535
vt 0.121643 0.499023
vt 0.121948 0.502686
vt 0.123779 0.501465
vt 0.120178 0.499512
vt 0.087341 0.541260
vt 0.087830 0.544189
vt 0.119995 0.498047
vt 0.087952 0.540527
vt 0.086548 0.541016
vt 0.083984 0.541992
vt 0.079773 0.525879
vt 0.087585 0.540039
vt 0.083130 0.526123
vt 0.083862 0.523926
vt 0.081299 0.521729
vt 0.115051 0.479980
vt 0.083740 0.525391
vt 0.088501 0.539062
vt 0.084717 0.524414
vt 0.119629 0.497070
vt 0.084717 0.525635
vt 0.121887 0.496582
vt 0.118286 0.483887
vt 0.117310 0.483887
vt 0.116699 0.483398
vt 0.119568 0.481934
vt 0.119385 0.479004
vt 0.121277 0.482910
vt 0.121521 0.483887
vt 0.122986 0.496582
vt 0.124634 0.497070
vt 0.124573 0.496094
vt 0.165161 0.495605
vt 0.166748 0.495117
vt 0.165283 0.494629
vt 0.124207 0.483398
vt 0.124207 0.482422
vt 0.124146 0.481445
vt 0.122375 0.478027
vt 0.165283 0.480957
vt 0.165283 0.479980
vt 0.167114 0.476562
vt 0.169922 0.480469
vt 0.165161 0.481934
vt 0.167236 0.481445
vt 0.168335 0.482422
vt 0.169434 0.481445
vt 0.167969 0.495605
vt 0.171265 0.482422
vt 0.171509 0.480957
vt 0.172974 0.481445
vt 0.174072 0.478027
vt 0.203613 0.525146
vt 0.204224 0.523438
vt 0.206787 0.521240
vt 0.203491 0.523926
vt 0.208374 0.525391
vt 0.204468 0.524902
vt 0.205078 0.525635
vt 0.204102 0.541260
vt 0.201538 0.540283
vt 0.200195 0.543701
vt 0.200439 0.539307
vt 0.200806 0.540771
vt 0.167603 0.500977
vt 0.200195 0.540039
vt 0.169434 0.497559
vt 0.199585 0.538574
vt 0.169678 0.496582
vt 0.169922 0.495605
vt 0.168213 0.497559
vt 0.165894 0.500000
vt 0.122009 0.448730
vt 0.121643 0.445312
vt 0.123779 0.447754
vt 0.120239 0.445312
vt 0.087341 0.487305
vt 0.087830 0.490723
vt 0.120056 0.444336
vt 0.087891 0.486816
vt 0.086487 0.487305
vt 0.083984 0.488281
vt 0.087524 0.486328
vt 0.083069 0.472656
vt 0.079773 0.472168
vt 0.088440 0.485352
vt 0.083740 0.471680
vt 0.083862 0.470215
vt 0.081299 0.467773
vt 0.115112 0.426270
vt 0.084717 0.470703
vt 0.116760 0.429199
vt 0.084717 0.472168
vt 0.117371 0.430176
vt 0.119629 0.428223
vt 0.119446 0.424805
vt 0.119263 0.429688
vt 0.121216 0.429199
vt 0.118469 0.430176
vt 0.119690 0.443359
vt 0.121948 0.442871
vt 0.121216 0.430176
vt 0.121948 0.444824
vt 0.123657 0.447754
vt 0.166260 0.446289
vt 0.167969 0.442871
vt 0.123840 0.442871
vt 0.124207 0.429688
vt 0.124268 0.428711
vt 0.124634 0.443359
vt 0.165161 0.428223
vt 0.165283 0.440918
vt 0.165161 0.441895
vt 0.166870 0.441406
vt 0.168091 0.428711
vt 0.165283 0.427246
vt 0.124207 0.427734
vt 0.122314 0.424316
vt 0.166992 0.422852
vt 0.166382 0.426270
vt 0.169922 0.426758
vt 0.169434 0.427734
vt 0.168091 0.441895
vt 0.171387 0.428223
vt 0.171509 0.427246
vt 0.173096 0.427734
vt 0.174194 0.423828
vt 0.203979 0.471191
vt 0.204468 0.469238
vt 0.207031 0.467285
vt 0.203735 0.470215
vt 0.208740 0.471191
vt 0.204834 0.471191
vt 0.170044 0.441895
vt 0.205444 0.471680
vt 0.202271 0.486328
vt 0.204834 0.487305
vt 0.200928 0.489746
vt 0.201172 0.485352
vt 0.201416 0.486816
vt 0.167725 0.447266
vt 0.200806 0.485840
vt 0.169556 0.443848
vt 0.200073 0.484863
vt 0.169800 0.442383
vt 0.168335 0.443848
vt 0.166016 0.446289
vt 0.085754 0.402832
vt 0.732422 0.408691
vt 0.089844 0.408691
vt 0.736816 0.402832
vt 0.741211 0.396484
vt 0.081482 0.396484
vt 0.079895 0.389160
vt 0.742676 0.389160
vt 0.741211 0.381348
vt 0.081482 0.381348
vt 0.085754 0.375000
vt 0.736816 0.375000
vt 0.731934 0.369141
vt 0.089844 0.369141
vt 0.850098 0.937195
vt 0.771973 0.937195
vt 0.771973 0.859009
vt 0.850098 0.859009
vt 0.038269 0.189941
vt 0.158569 0.164551
vt 0.158569 0.189941
vt 0.038269 0.164551
vt 0.038269 0.189941
vt 0.158569 0.164551
vt 0.158569 0.189941
vt 0.038269 0.164551
vt 0.038269 0.189941
vt 0.158569 0.164551
vt 0.158569 0.189941
vt 0.038269 0.164551
vt 0.038269 0.189941
vt 0.158569 0.164551
vt 0.158569 0.189941
vt 0.038269 0.164551
vt1 0.049988 0.397949
vt1 0.939453 0.397949
vt1 0.052094 0.399414
vt1 0.937012 0.398926
vt1 0.093018 0.440430
vt1 0.896484 0.439941
vt1 0.942383 0.050293
vt1 0.051880 0.051758
vt1 0.053131 0.050293
vt1 0.943848 0.051758
vt1 0.050781 0.053223
vt1 0.944824 0.053223
vt1 0.050110 0.054688
vt1 0.945312 0.054688
vt1 0.051025 0.056641
vt1 0.944336 0.056641
vt1 0.903320 0.113281
vt1 0.092285 0.113281
vt1 0.092590 0.114746
vt1 0.090698 0.114258
vt1 0.089966 0.115723
vt1 0.902832 0.114746
vt1 0.904785 0.114258
vt1 0.905273 0.115723
vt1 0.091614 0.116211
vt1 0.903809 0.116211
vt1 0.091553 0.166504
vt1 0.089905 0.166992
vt1 0.093201 0.116211
vt1 0.902344 0.116211
vt1 0.903809 0.166504
vt1 0.905273 0.166992
vt1 0.093201 0.166016
vt1 0.902344 0.166016
vt1 0.902832 0.167480
vt1 0.904785 0.168457
vt1 0.903320 0.169434
vt1 0.092529 0.167480
vt1 0.090637 0.168457
vt1 0.092224 0.169434
vt1 0.050934 0.226074
vt1 0.944336 0.226074
vt1 0.049988 0.227539
vt1 0.945312 0.227539
vt1 0.050629 0.229004
vt1 0.944824 0.229004
vt1 0.051727 0.230957
vt1 0.943359 0.230957
vt1 0.052948 0.232422
vt1 0.942383 0.232422
vt1 0.049988 0.294922
vt1 0.939453 0.294922
vt1 0.052094 0.295898
vt1 0.937012 0.295898
vt1 0.896484 0.336914
vt1 0.093018 0.336914
vt1 0.258301 0.917969
vt1 0.260010 0.918152
vt1 0.259277 0.919617
vt1 0.259766 0.916321
vt1 0.261475 0.917725
vt1 0.257080 0.916077
vt1 0.362549 0.917725
vt1 0.258057 0.914673
vt1 0.256104 0.914551
vt1 0.256836 0.913025
vt1 0.258789 0.912903
vt1 0.259766 0.914368
vt1 0.364502 0.916321
vt1 0.364014 0.918152
vt1 0.364746 0.919617
vt1 0.365967 0.917969
vt1 0.366943 0.916138
vt1 0.364502 0.914368
vt1 0.365967 0.914673
vt1 0.367920 0.914551
vt1 0.367188 0.913025
vt1 0.365234 0.912903
vt1 0.364746 0.911438
vt1 0.366943 0.912048
vt1 0.367920 0.911377
vt1 0.367432 0.909546
vt1 0.339111 0.845581
vt1 0.340332 0.844604
vt1 0.337646 0.845947
vt1 0.286621 0.845947
vt1 0.259277 0.911438
vt1 0.285156 0.845581
vt1 0.257324 0.912048
vt1 0.256836 0.909546
vt1 0.283936 0.844604
vt1 0.256104 0.911377
vt1 0.190308 0.917969
vt1 0.189087 0.919617
vt1 0.188354 0.918091
vt1 0.188843 0.916321
vt1 0.186890 0.917725
vt1 0.191406 0.916077
vt1 0.085999 0.917725
vt1 0.190430 0.914673
vt1 0.192383 0.914551
vt1 0.191650 0.913025
vt1 0.189697 0.912903
vt1 0.188843 0.914368
vt1 0.084106 0.916321
vt1 0.084534 0.918091
vt1 0.083740 0.919617
vt1 0.082642 0.917969
vt1 0.081482 0.916077
vt1 0.084045 0.914368
vt1 0.082458 0.914673
vt1 0.080566 0.914551
vt1 0.081238 0.913025
vt1 0.083252 0.912903
vt1 0.083679 0.911438
vt1 0.081665 0.912048
vt1 0.080505 0.911316
vt1 0.081177 0.909546
vt1 0.109436 0.845581
vt1 0.108215 0.844604
vt1 0.110962 0.845947
vt1 0.161987 0.845947
vt1 0.189209 0.911438
vt1 0.163452 0.845581
vt1 0.191284 0.912048
vt1 0.191772 0.909546
vt1 0.192383 0.911316
vt1 0.164673 0.844604
vt1 0.704102 0.914734
vt1 0.675781 0.865356
vt1 0.676758 0.863647
vt1 0.703613 0.916931
vt1 0.705078 0.917053
vt1 0.704590 0.918518
vt1 0.703125 0.918945
vt1 0.701660 0.917480
vt1 0.674316 0.865967
vt1 0.602051 0.918945
vt1 0.630371 0.865967
vt1 0.603027 0.917480
vt1 0.628906 0.865356
vt1 0.601562 0.916931
vt1 0.600586 0.918518
vt1 0.599609 0.917053
vt1 0.600586 0.914734
vt1 0.627930 0.863647
vt1 0.460938 0.865356
vt1 0.432861 0.914734
vt1 0.459961 0.863647
vt1 0.433594 0.916931
vt1 0.431885 0.917053
vt1 0.432617 0.918518
vt1 0.434082 0.918945
vt1 0.435059 0.917480
vt1 0.462646 0.865967
vt1 0.534668 0.918945
vt1 0.506348 0.865967
vt1 0.533691 0.917480
vt1 0.507812 0.865356
vt1 0.535645 0.916931
vt1 0.536133 0.918518
vt1 0.537109 0.917053
vt1 0.536133 0.914734
vt1 0.508789 0.863647
vt1 0.193115 0.691406
vt1 0.231689 0.744873
vt1 0.232422 0.745605
vt1 0.131226 0.693359
vt1 0.089905 0.746094
vt1 0.090637 0.745361
vt1 0.090576 0.642090
vt1 0.131226 0.590332
vt1 0.089905 0.643066
vt1 0.233276 0.641846
vt1 0.193237 0.588379
vt1 0.232544 0.641113
vt1 0.594727 0.596191
vt1 0.630859 0.577148
vt1 0.630859 0.605957
vt1 0.594727 0.586914
vt1 0.592773 0.596191
vt1 0.592773 0.586914
vt1 0.575195 0.586914
vt1 0.575195 0.596191
vt1 0.572754 0.596191
vt1 0.572754 0.586914
vt1 0.558594 0.586914
vt1 0.558594 0.596191
vt1 0.556641 0.596191
vt1 0.556641 0.586914
vt1 0.538574 0.586914
vt1 0.538574 0.596191
vt1 0.536621 0.596191
vt1 0.536621 0.586914
vt1 0.500488 0.577148
vt1 0.500488 0.605957
vt1 0.789551 0.596191
vt1 0.825684 0.577148
vt1 0.825684 0.605957
vt1 0.789551 0.586914
vt1 0.787598 0.596191
vt1 0.787598 0.586914
vt1 0.770020 0.586914
vt1 0.770020 0.596191
vt1 0.767578 0.596191
vt1 0.767578 0.586914
vt1 0.753418 0.586914
vt1 0.753418 0.596191
vt1 0.751465 0.596191
vt1 0.751465 0.586914
vt1 0.733398 0.586914
vt1 0.733398 0.596191
vt1 0.731445 0.596191
vt1 0.731445 0.586914
vt1 0.695312 0.577148
vt1 0.695312 0.605957
vt1 0.400146 0.596191
vt1 0.436279 0.577148
vt1 0.436279 0.605957
vt1 0.400146 0.586914
vt1 0.397949 0.596191
vt1 0.397949 0.586914
vt1 0.380371 0.586914
vt1 0.380371 0.596191
vt1 0.378174 0.596191
vt1 0.378174 0.586914
vt1 0.364014 0.586914
vt1 0.364014 0.596191
vt1 0.361816 0.596191
vt1 0.361816 0.586914
vt1 0.343994 0.586914
vt1 0.343994 0.596191
vt1 0.342041 0.596191
vt1 0.342041 0.586914
vt1 0.305908 0.577148
vt1 0.305908 0.605957
vt1 0.290527 0.702881
vt1 0.290527 0.665527
vt1 0.292236 0.665039
vt1 0.292236 0.703125
vt1 0.291748 0.704834
vt1 0.339355 0.665039
vt1 0.306396 0.714844
vt1 0.341064 0.702881
vt1 0.340820 0.665527
vt1 0.308105 0.713867
vt1 0.308594 0.715576
vt1 0.322998 0.715576
vt1 0.339355 0.703125
vt1 0.339844 0.704834
vt1 0.324951 0.714844
vt1 0.323486 0.713867
vt1 0.708008 0.715576
vt1 0.745605 0.713867
vt1 0.745605 0.715576
vt1 0.707520 0.713867
vt1 0.706055 0.714600
vt1 0.745605 0.666748
vt1 0.696289 0.699707
vt1 0.708008 0.665039
vt1 0.745605 0.665283
vt1 0.696777 0.697998
vt1 0.695312 0.697510
vt1 0.695312 0.683350
vt1 0.707520 0.666748
vt1 0.706055 0.666260
vt1 0.696289 0.681152
vt1 0.696777 0.682617
vt1 0.547363 0.677734
vt1 0.546875 0.715332
vt1 0.545410 0.715576
vt1 0.545410 0.677490
vt1 0.545898 0.675781
vt1 0.498535 0.715576
vt1 0.531250 0.666016
vt1 0.496826 0.677734
vt1 0.496826 0.715332
vt1 0.529785 0.666748
vt1 0.528809 0.665039
vt1 0.514648 0.665039
vt1 0.498535 0.677490
vt1 0.497803 0.675781
vt1 0.512695 0.666016
vt1 0.514160 0.666748
vt1 0.783203 0.677734
vt1 0.784668 0.715576
vt1 0.783203 0.715088
vt1 0.784668 0.677490
vt1 0.784180 0.675781
vt1 0.832031 0.715576
vt1 0.799316 0.666016
vt1 0.833496 0.677734
vt1 0.833496 0.715088
vt1 0.800781 0.666748
vt1 0.801270 0.665039
vt1 0.815430 0.665039
vt1 0.832031 0.677490
vt1 0.832520 0.675781
vt1 0.817871 0.666016
vt1 0.815918 0.666748
vt1 0.436523 0.677734
vt1 0.436523 0.715332
vt1 0.434814 0.715576
vt1 0.434814 0.677490
vt1 0.435303 0.675781
vt1 0.387695 0.715576
vt1 0.420654 0.666016
vt1 0.385986 0.677734
vt1 0.386230 0.715332
vt1 0.418945 0.666748
vt1 0.418457 0.665039
vt1 0.404053 0.665039
vt1 0.387695 0.677490
vt1 0.387207 0.675781
vt1 0.402100 0.666016
vt1 0.403564 0.666748
vt1 0.584473 0.677734
vt1 0.586426 0.715576
vt1 0.584473 0.715088
vt1 0.586426 0.677490
vt1 0.585449 0.675781
vt1 0.633301 0.715576
vt1 0.600586 0.666016
vt1 0.635254 0.677734
vt1 0.634766 0.715088
vt1 0.602051 0.666748
vt1 0.602539 0.665039
vt1 0.616699 0.665039
vt1 0.633301 0.677490
vt1 0.633789 0.675781
vt1 0.619141 0.666016
vt1 0.617676 0.666748
vt1 0.135376 0.696533
vt1 0.191284 0.690186
vt1 0.188965 0.694580
vt1 0.133301 0.692139
vt1 0.132935 0.693359
vt1 0.133301 0.697754
vt1 0.135620 0.696289
vt1 0.131104 0.693359
vt1 0.089905 0.746094
vt1 0.090515 0.750000
vt1 0.130859 0.691650
vt1 0.090637 0.745361
vt1 0.088867 0.745850
vt1 0.085693 0.747070
vt1 0.080383 0.727051
vt1 0.090149 0.744629
vt1 0.084534 0.727295
vt1 0.085510 0.724365
vt1 0.082275 0.721680
vt1 0.124695 0.669434
vt1 0.085388 0.726562
vt1 0.091309 0.743652
vt1 0.086609 0.725098
vt1 0.130493 0.690918
vt1 0.086548 0.726807
vt1 0.133301 0.690186
vt1 0.128784 0.673828
vt1 0.127563 0.673828
vt1 0.126831 0.673096
vt1 0.130371 0.671875
vt1 0.130127 0.667480
vt1 0.132446 0.673096
vt1 0.132812 0.674072
vt1 0.134644 0.689941
vt1 0.136719 0.690918
vt1 0.136719 0.689697
vt1 0.187744 0.688965
vt1 0.189697 0.688232
vt1 0.187866 0.687744
vt1 0.136230 0.673584
vt1 0.136230 0.672363
vt1 0.136108 0.670898
vt1 0.133911 0.666748
vt1 0.187866 0.670654
vt1 0.187866 0.669189
vt1 0.190186 0.665039
vt1 0.193726 0.669678
vt1 0.187744 0.671875
vt1 0.190430 0.670898
vt1 0.191772 0.672119
vt1 0.192993 0.671143
vt1 0.191284 0.688477
vt1 0.195435 0.671875
vt1 0.195557 0.670410
vt1 0.197510 0.671143
vt1 0.198975 0.666260
vt1 0.235962 0.726074
vt1 0.236816 0.723877
vt1 0.240112 0.721191
vt1 0.235840 0.724609
vt1 0.242065 0.726318
vt1 0.237183 0.725830
vt1 0.237915 0.726562
vt1 0.236694 0.746338
vt1 0.233398 0.745117
vt1 0.231812 0.749268
vt1 0.232056 0.743896
vt1 0.232422 0.745605
vt1 0.190796 0.695557
vt1 0.231689 0.744873
vt1 0.193115 0.691406
vt1 0.230957 0.742920
vt1 0.193359 0.689697
vt1 0.193726 0.688721
vt1 0.191528 0.691162
vt1 0.188721 0.694336
vt1 0.133423 0.594482
vt1 0.133057 0.590088
vt1 0.135742 0.593262
vt1 0.131226 0.590332
vt1 0.089905 0.643066
vt1 0.090454 0.646729
vt1 0.130981 0.588623
vt1 0.090576 0.642090
vt1 0.088867 0.642578
vt1 0.085632 0.643799
vt1 0.090149 0.641357
vt1 0.084534 0.624023
vt1 0.080383 0.623535
vt1 0.091309 0.640381
vt1 0.085388 0.623291
vt1 0.085510 0.621094
vt1 0.082275 0.618408
vt1 0.124817 0.566162
vt1 0.086609 0.622070
vt1 0.126831 0.570068
vt1 0.086548 0.623535
vt1 0.127686 0.570801
vt1 0.130493 0.568604
vt1 0.130249 0.564453
vt1 0.130005 0.570312
vt1 0.132446 0.569580
vt1 0.129028 0.570801
vt1 0.130493 0.587646
vt1 0.133301 0.587158
vt1 0.132446 0.571045
vt1 0.133301 0.589111
vt1 0.135498 0.593262
vt1 0.189087 0.591553
vt1 0.191284 0.586914
vt1 0.135742 0.586914
vt1 0.136230 0.570557
vt1 0.136230 0.569092
vt1 0.136719 0.587646
vt1 0.187744 0.568604
vt1 0.187866 0.584717
vt1 0.187744 0.585938
vt1 0.189819 0.584961
vt1 0.191406 0.569092
vt1 0.187866 0.567383
vt1 0.136230 0.567871
vt1 0.133789 0.563721
vt1 0.190063 0.562012
vt1 0.189209 0.566162
vt1 0.193726 0.566406
vt1 0.193115 0.567871
vt1 0.191406 0.585449
vt1 0.195435 0.568848
vt1 0.195679 0.567139
vt1 0.197632 0.567627
vt1 0.198975 0.562988
vt1 0.236450 0.622559
vt1 0.237061 0.620361
vt1 0.240234 0.617676
vt1 0.236206 0.621094
vt1 0.242554 0.622559
vt1 0.237671 0.622314
vt1 0.193848 0.585693
vt1 0.238403 0.623047
vt1 0.234253 0.641602
vt1 0.237549 0.642822
vt1 0.232666 0.645752
vt1 0.232910 0.640381
vt1 0.233276 0.641846
vt1 0.191040 0.592529
vt1 0.232544 0.641113
vt1 0.193237 0.588379
vt1 0.231689 0.639404
vt1 0.193481 0.586670
vt1 0.191650 0.588135
vt1 0.188843 0.591309
vt1 0.087891 0.520508
vt1 0.900879 0.527344
vt1 0.093018 0.527344
vt1 0.906250 0.520508
vt1 0.911621 0.512451
vt1 0.082520 0.512451
vt1 0.080505 0.502686
vt1 0.913574 0.502686
vt1 0.911621 0.493164
vt1 0.082520 0.493164
vt1 0.087891 0.484863
vt1 0.906250 0.484863
vt1 0.900391 0.478027
vt1 0.093018 0.478027
vt1 0.906738 0.700684
vt1 0.871094 0.700684
vt1 0.871094 0.665039
vt1 0.906738 0.665039
vt1 0.890137 0.918335
vt1 0.949707 0.905640
vt1 0.949707 0.918335
vt1 0.890137 0.905640
vt1 0.827637 0.905640
vt1 0.768066 0.918335
vt1 0.768066 0.905640
vt1 0.827637 0.918335
vt1 0.140137 0.794922
vt1 0.080505 0.807617
vt1 0.080505 0.794922
vt1 0.140137 0.807617
vt1 0.922852 0.588623
vt1 0.863281 0.601318
vt1 0.863281 0.588623
vt1 0.922852 0.601318
vn 0.000000 -0.811023 0.582677
vn 0.000000 -0.811023 0.582677
vn 0.000000 -0.661417 -0.748031
vn 0.000000 -0.661417 -0.748031
vn 0.000000 -0.661417 -0.748031
vn 0.000000 -0.661417 -0.748031
vn 0.000000 -0.811023 0.582677
vn 0.000000 -0.574803 0.818898
vn 0.000000 -0.811023 0.582677
vn 0.000000 -0.574803 0.818898
vn 0.000000 -0.346457 0.937008
vn 0.000000 -0.346457 0.937008
vn 0.000000 -0.346457 0.937008
vn 0.000000 -0.346457 0.937008
vn 0.000000 0.472441 0.881890
vn 0.000000 0.472441 0.881890
vn 0.000000 0.472441 0.881890
vn 0.000000 0.472441 0.881890
vn 0.000000 0.677165 0.732283
vn 0.220472 0.598425 0.763779
vn 0.771654 0.637795 -0.000000
vn 0.000000 0.677165 0.732283
vn -0.220472 0.598425 0.763779
vn -0.771654 0.637795 -0.000000
vn 0.622047 0.779527 -0.000000
vn -0.622047 0.779527 -0.000000
vn 0.622047 0.779527 -0.000000
vn 0.771654 0.637795 -0.000000
vn 0.000000 1.000000 -0.000000
vn 0.000000 1.000000 -0.000000
vn -0.622047 0.779527 -0.000000
vn -0.771654 0.637795 -0.000000
vn 0.000000 1.000000 -0.000000
vn 0.000000 1.000000 -0.000000
vn 0.000000 0.677165 -0.732283
vn -0.220472 0.598425 -0.763779
vn 0.000000 0.472441 -0.881890
vn 0.000000 0.677165 -0.732283
vn 0.220472 0.598425 -0.763779
vn 0.000000 0.472441 -0.881890
vn 0.000000 0.472441 -0.881890
vn 0.000000 0.472441 -0.881890
vn 0.000000 -0.346457 -0.937008
vn 0.000000 -0.346457 -0.937008
vn 0.000000 -0.346457 -0.937008
vn 0.000000 -0.346457 -0.937008
vn 0.000000 -0.574803 -0.818897
vn 0.000000 -0.574803 -0.818897
vn 0.000000 -0.811024 -0.582677
vn 0.000000 -0.811024 -0.582677
vn 0.000000 -0.811024 -0.582677
vn 0.000000 -0.811024 -0.582677
vn 0.000000 -0.661417 0.748031
vn 0.000000 -0.661417 0.748031
vn 0.000000 -0.661417 0.748031
vn 0.000000 -0.661417 0.748031
vn 0.000000 -0.574803 -0.818897
vn -0.110236 -0.842520 -0.527559
vn 0.000000 -0.811024 -0.582677
vn -0.795276 -0.614173 -0.007874
vn -0.566929 -0.826772 0.000000
vn 0.000000 -0.346457 -0.937008
vn -0.566929 -0.826772 0.000000
vn -0.251969 -0.433071 -0.866142
vn 0.000000 -0.346457 -0.937008
vn -0.811024 0.566929 -0.149606
vn -0.921260 0.385827 -0.000000
vn -0.937008 -0.346457 0.000000
vn -0.795276 -0.606299 0.007874
vn -0.110236 -0.842520 0.527559
vn 0.000000 -0.811023 0.582677
vn 0.000000 -0.574803 0.818898
vn 0.000000 -0.346457 0.937008
vn -0.937008 -0.346457 0.000000
vn -0.251969 -0.433071 0.866142
vn 0.000000 -0.346457 0.937008
vn -0.811024 0.566929 0.149606
vn -0.921260 0.385827 -0.000000
vn -0.771654 0.637795 -0.000000
vn -0.661417 0.685039 0.299212
vn 0.000000 -0.346457 0.937008
vn 0.000000 0.472441 0.881890
vn -0.220472 0.598425 0.763779
vn 0.000000 0.472441 0.881890
vn -0.771654 0.637795 -0.000000
vn -0.771654 0.637795 -0.000000
vn -0.771654 0.637795 -0.000000
vn -0.220472 0.598425 -0.763779
vn -0.661417 0.685039 -0.299213
vn 0.000000 0.472441 -0.881890
vn 0.000000 0.472441 -0.881890
vn 0.000000 -0.346457 -0.937008
vn 0.000000 -0.574803 -0.818897
vn 0.000000 -0.811024 -0.582677
vn 0.110236 -0.842520 -0.527559
vn 0.795276 -0.614173 -0.007874
vn 0.566929 -0.826772 0.000000
vn 0.000000 -0.346457 -0.937008
vn 0.566929 -0.826772 0.000000
vn 0.251969 -0.433071 -0.866142
vn 0.000000 -0.346457 -0.937008
vn 0.811024 0.566929 -0.149606
vn 0.921260 0.385827 -0.000000
vn 0.937008 -0.346457 0.000000
vn 0.795276 -0.606299 0.007874
vn 0.110236 -0.842520 0.527559
vn 0.000000 -0.811023 0.582677
vn 0.000000 -0.574803 0.818898
vn 0.000000 -0.346457 0.937008
vn 0.937008 -0.346457 0.000000
vn 0.251969 -0.433071 0.866142
vn 0.000000 -0.346457 0.937008
vn 0.811024 0.566929 0.149606
vn 0.921260 0.385827 -0.000000
vn 0.771654 0.637795 -0.000000
vn 0.661417 0.685039 0.299212
vn 0.000000 -0.346457 0.937008
vn 0.000000 0.472441 0.881890
vn 0.220472 0.598425 0.763779
vn 0.000000 0.472441 0.881890
vn 0.771654 0.637795 -0.000000
vn 0.771654 0.637795 -0.000000
vn 0.771654 0.637795 -0.000000
vn 0.220472 0.598425 -0.763779
vn 0.661417 0.685039 -0.299213
vn 0.000000 0.472441 -0.881890
vn 0.000000 -0.346457 -0.937008
vn 0.000000 0.472441 -0.881890
vn 0.000000 -0.661417 0.748031
vn 0.165354 -0.763779 0.622047
vn 0.000000 -0.661417 0.748031
vn 0.496063 -0.842520 0.204724
vn 0.000000 -0.811024 -0.582677
vn -0.110236 -0.842520 -0.527559
vn -0.566929 -0.826772 0.000000
vn 0.598425 -0.803149 0.000000
vn 0.598425 -0.803149 0.000000
vn -0.566929 -0.826772 0.000000
vn 0.598425 -0.803149 0.000000
vn 0.598425 -0.803149 0.000000
vn 0.165354 -0.763779 -0.622047
vn 0.496063 -0.842520 -0.204724
vn -0.110236 -0.842520 0.527559
vn 0.000000 -0.811023 0.582677
vn 0.000000 -0.661417 -0.748031
vn 0.000000 -0.661417 -0.748031
vn -0.165354 -0.763779 0.622047
vn 0.000000 -0.661417 0.748031
vn 0.000000 -0.661417 0.748031
vn -0.496063 -0.842520 0.204724
vn 0.000000 -0.811024 -0.582677
vn 0.110236 -0.842520 -0.527559
vn 0.566929 -0.826772 0.000000
vn -0.598425 -0.803149 0.000000
vn -0.598425 -0.803149 0.000000
vn 0.566929 -0.826772 0.000000
vn -0.598425 -0.803149 0.000000
vn -0.598425 -0.803149 0.000000
vn -0.165354 -0.763779 -0.622047
vn -0.496063 -0.842520 -0.204724
vn 0.110236 -0.842520 0.527559
vn 0.000000 -0.811023 0.582677
vn 0.000000 -0.661417 -0.748031
vn 0.000000 -0.661417 -0.748031
vn -0.834646 0.480315 -0.267717
vn -0.803150 0.598425 -0.000000
vn -0.834646 0.472441 -0.283465
vn -0.834646 0.480315 0.267716
vn -0.834646 0.472441 0.283464
vn -0.803150 0.598425 -0.000000
vn 0.803150 0.598425 -0.000000
vn 0.834646 0.480315 -0.267717
vn 0.834646 0.472441 -0.283465
vn 0.834646 0.472441 0.283464
vn 0.834646 0.480315 0.267716
vn 0.803150 0.598425 -0.000000
vn 0.000000 -0.000000 -1.000000
vn 0.000000 -0.000000 -1.000000
vn 0.000000 -0.000000 -1.000000
vn 0.000000 -0.000000 -1.000000
vn 0.000000 0.834646 -0.551181
vn 0.000000 0.834646 -0.551181
vn 0.000000 0.834646 -0.551181
vn 0.000000 0.834646 -0.551181
vn 0.000000 1.000000 -0.000000
vn 0.000000 1.000000 -0.000000
vn 0.000000 1.000000 -0.000000
vn 0.000000 1.000000 -0.000000
vn 0.000000 0.834646 0.551181
vn 0.000000 0.834646 0.551181
vn 0.000000 0.834646 0.551181
vn 0.000000 0.834646 0.551181
vn 0.000000 0.000000 1.000000
vn 0.000000 0.000000 1.000000
vn 0.000000 0.000000 1.000000
vn 0.000000 0.000000 1.000000
vn 0.000000 -0.000000 -1.000000
vn 0.000000 -0.000000 -1.000000
vn 0.000000 -0.000000 -1.000000
vn 0.000000 -0.000000 -1.000000
vn 0.000000 0.834646 -0.551181
vn 0.000000 0.834646 -0.551181
vn 0.000000 0.834646 -0.551181
vn 0.000000 0.834646 -0.551181
vn 0.000000 1.000000 -0.000000
vn 0.000000 1.000000 -0.000000
vn 0.000000 1.000000 -0.000000
vn 0.000000 1.000000 -0.000000
vn 0.000000 0.834646 0.551181
vn 0.000000 0.834646 0.551181
vn 0.000000 0.834646 0.551181
vn 0.000000 0.834646 0.551181
vn 0.000000 0.000000 1.000000
vn 0.000000 0.000000 1.000000
vn 0.000000 0.000000 1.000000
vn 0.000000 0.000000 1.000000
vn 0.000000 -0.000000 -1.000000
vn 0.000000 -0.000000 -1.000000
vn 0.000000 -0.000000 -1.000000
vn 0.000000 -0.000000 -1.000000
vn 0.000000 0.834646 -0.551181
vn 0.000000 0.834646 -0.551181
vn 0.000000 0.834646 -0.551181
vn 0.000000 0.834646 -0.551181
vn 0.000000 1.000000 -0.000000
vn 0.000000 1.000000 -0.000000
vn 0.000000 1.000000 -0.000000
vn 0.000000 1.000000 -0.000000
vn 0.000000 0.834646 0.551181
vn 0.000000 0.834646 0.551181
vn 0.000000 0.834646 0.551181
vn 0.000000 0.834646 0.551181
vn 0.000000 0.000000 1.000000
vn 0.000000 0.000000 1.000000
vn 0.000000 0.000000 1.000000
vn 0.000000 0.000000 1.000000
vn 0.000000 -0.000000 -1.000000
vn 0.000000 -0.000000 -1.000000
vn 0.968504 0.259842 -0.000000
vn 0.968504 0.259842 -0.000000
vn 0.000000 0.834646 -0.551181
vn 0.968504 0.259842 -0.000000
vn 0.000000 0.834646 -0.551181
vn 0.000000 0.000000 1.000000
vn 0.000000 0.000000 1.000000
vn 1.000000 0.000000 0.000000
vn 0.000000 1.000000 -0.000000
vn 0.000000 1.000000 -0.000000
vn 0.968504 0.259842 -0.000000
vn 0.000000 0.834646 0.551181
vn 0.000000 0.834646 0.551181
vn 1.000000 0.000000 0.000000
vn 0.000000 -0.000000 -1.000000
vn -0.968504 0.251968 -0.000000
vn 0.000000 -0.000000 -1.000000
vn -0.968504 0.251968 -0.000000
vn 0.000000 0.834646 -0.551181
vn -0.968504 0.251968 -0.000000
vn 0.000000 0.834646 -0.551181
vn 0.000000 0.000000 1.000000
vn 0.000000 0.000000 1.000000
vn -1.000000 0.000000 0.000000
vn 0.000000 1.000000 -0.000000
vn 0.000000 1.000000 -0.000000
vn -0.968504 0.251968 -0.000000
vn 0.000000 0.834646 0.551181
vn 0.000000 0.834646 0.551181
vn -1.000000 0.000000 0.000000
vn 0.000000 -0.000000 -1.000000
vn 0.000000 -0.000000 -1.000000
vn 0.968504 0.259842 -0.000000
vn 0.968504 0.259842 -0.000000
vn 0.000000 0.834646 -0.551181
vn 0.968504 0.259842 -0.000000
vn 0.000000 0.834646 -0.551181
vn 0.000000 0.000000 1.000000
vn 0.000000 0.000000 1.000000
vn 1.000000 0.000000 0.000000
vn 0.000000 1.000000 -0.000000
vn 0.000000 1.000000 -0.000000
vn 0.968504 0.259842 -0.000000
vn 0.000000 0.834646 0.551181
vn 0.000000 0.834646 0.551181
vn 1.000000 0.000000 0.000000
vn 0.000000 -0.000000 -1.000000
vn -0.968504 0.251968 -0.000000
vn 0.000000 -0.000000 -1.000000
vn -0.968504 0.251968 -0.000000
vn 0.000000 0.834646 -0.551181
vn -0.968504 0.251968 -0.000000
vn 0.000000 0.834646 -0.551181
vn 0.000000 0.000000 1.000000
vn 0.000000 0.000000 1.000000
vn -1.000000 0.000000 0.000000
vn 0.000000 1.000000 -0.000000
vn 0.000000 1.000000 -0.000000
vn -0.968504 0.251968 -0.000000
vn 0.000000 0.834646 0.551181
vn 0.000000 0.834646 0.551181
vn -1.000000 0.000000 0.000000
vn 0.000000 -0.000000 -1.000000
vn 0.000000 -0.000000 -1.000000
vn 0.968504 0.259842 -0.000000
vn 0.968504 0.259842 -0.000000
vn 0.000000 0.834646 -0.551181
vn 0.968504 0.259842 -0.000000
vn 0.000000 0.834646 -0.551181
vn 0.000000 0.000000 1.000000
vn 0.000000 0.000000 1.000000
vn 1.000000 0.000000 0.000000
vn 0.000000 1.000000 -0.000000
vn 0.000000 1.000000 -0.000000
vn 0.968504 0.259842 -0.000000
vn 0.000000 0.834646 0.551181
vn 0.000000 0.834646 0.551181
vn 1.000000 0.000000 0.000000
vn 0.000000 -0.000000 -1.000000
vn -0.968504 0.251968 -0.000000
vn 0.000000 -0.000000 -1.000000
vn -0.968504 0.251968 -0.000000
vn 0.000000 0.834646 -0.551181
vn -0.968504 0.251968 -0.000000
vn 0.000000 0.834646 -0.551181
vn 0.000000 0.000000 1.000000
vn 0.000000 0.000000 1.000000
vn -1.000000 0.000000 0.000000
vn 0.000000 1.000000 -0.000000
vn 0.000000 1.000000 -0.000000
vn -0.968504 0.251968 -0.000000
vn 0.000000 0.834646 0.551181
vn 0.000000 0.834646 0.551181
vn -1.000000 0.000000 0.000000
vn -1.000000 0.000000 0.007874
vn -1.000000 0.007874 -0.000000
vn -1.000000 -0.000000 -0.007874
vn -1.000000 0.015748 -0.000000
vn -1.000000 0.000000 0.062992
vn -0.834646 0.472441 0.283464
vn -1.000000 0.023622 0.062992
vn -0.834646 0.472441 0.267716
vn -0.834646 0.472441 0.283464
vn -0.842520 0.464567 0.275590
vn -0.299213 0.614173 -0.724409
vn -0.803150 0.598425 -0.000000
vn -0.023622 -0.881890 -0.464567
vn 0.000000 -0.881890 -0.472441
vn 0.007874 -0.881890 -0.472441
vn -0.007874 -0.685039 -0.732283
vn 0.000000 -0.881890 -0.472441
vn 0.850394 -0.448819 -0.283464
vn 0.850394 -0.440945 -0.283464
vn 0.850394 -0.440945 -0.291339
vn 0.015748 0.149606 -0.992126
vn 0.000000 0.472441 -0.881890
vn 0.259843 0.307086 -0.913386
vn 0.000000 0.472441 -0.881890
vn 0.000000 0.472441 -0.881890
vn -0.015748 0.740157 -0.669291
vn 0.007874 0.480315 -0.874016
vn 0.267717 0.307086 -0.913386
vn 0.850394 -0.440945 -0.291339
vn 1.000000 -0.023622 -0.062992
vn 1.000000 -0.023622 -0.062992
vn 0.984252 0.110236 -0.149606
vn -0.015748 0.937008 -0.338583
vn -0.007874 0.968504 -0.244095
vn -0.314961 0.944882 -0.000000
vn 0.000000 1.000000 -0.000000
vn -0.314961 0.944882 -0.000000
vn -0.007874 0.968504 0.251968
vn 0.000000 1.000000 -0.000000
vn 0.000000 1.000000 -0.000000
vn 0.314961 0.944882 -0.000000
vn 1.000000 0.000000 0.000000
vn 1.000000 -0.000000 -0.007874
vn 0.314961 0.944882 -0.000000
vn 1.000000 0.000000 0.000000
vn 1.000000 0.000000 0.007874
vn 1.000000 -0.039370 0.078740
vn 0.000000 1.000000 -0.000000
vn 0.952756 0.291339 0.118110
vn -0.015748 0.913386 0.401575
vn 0.897638 0.244095 0.362205
vn -0.015748 0.708661 0.708661
vn 0.000000 0.480315 0.874016
vn 0.251969 0.338583 0.905512
vn 0.850394 -0.440945 0.291339
vn 0.858268 -0.433071 0.283465
vn 0.000000 0.472441 0.881890
vn 0.850394 -0.448819 0.283465
vn 0.850394 -0.440945 0.283465
vn 0.259843 0.307087 0.913386
vn 0.015748 -0.881890 0.472441
vn 0.015748 0.149606 0.992126
vn 0.000000 -0.881890 0.472441
vn 0.000000 -0.881890 0.472441
vn -0.039370 -0.889764 0.456693
vn -0.842520 0.464567 -0.275591
vn -0.007874 -0.685039 0.732283
vn -0.834646 0.472441 -0.283465
vn -0.834646 0.472441 -0.283465
vn -0.803150 0.598425 -0.000000
vn -0.834646 0.472441 -0.267717
vn 0.000000 0.472441 0.881890
vn -0.299213 0.614173 0.724409
vn 0.000000 0.472441 0.881890
vn -1.000000 0.023622 -0.062992
vn -1.000000 0.023622 -0.062992
vn 0.834646 0.472441 -0.283465
vn 1.000000 -0.000000 -0.062992
vn 1.000000 0.023622 -0.062992
vn 0.834646 0.472441 -0.267717
vn 0.834646 0.472441 -0.283465
vn 0.842520 0.464567 -0.275591
vn 0.299213 0.614173 0.724409
vn 0.803150 0.598425 -0.000000
vn 0.039370 -0.889764 0.456693
vn 0.000000 -0.881890 0.472441
vn 0.007874 -0.685039 0.732283
vn 0.000000 -0.881890 0.472441
vn -0.015748 -0.881890 0.472441
vn 0.000000 0.472441 0.881890
vn -0.015748 0.149606 0.992126
vn -0.850394 -0.448819 0.283465
vn -0.850394 -0.440945 0.283465
vn -0.850394 -0.440945 0.291339
vn -0.259843 0.307087 0.913386
vn -0.850394 -0.440945 0.291339
vn 0.000000 0.472441 0.881890
vn -0.267717 0.307087 0.913386
vn -1.000000 -0.023622 0.062992
vn -1.000000 -0.023622 0.062992
vn -0.299213 0.653543 0.700787
vn -0.984252 0.078740 0.133858
vn 0.000000 0.480315 0.874016
vn 0.000000 0.472441 0.881890
vn 0.015748 0.740157 0.669291
vn 0.015748 0.913386 0.401575
vn 1.000000 0.007874 -0.000000
vn 1.000000 -0.000000 -0.007874
vn 1.000000 0.000000 0.007874
vn 1.000000 0.015748 -0.000000
vn 0.000000 1.000000 0.007874
vn 0.000000 1.000000 -0.000000
vn -0.314961 0.944882 -0.000000
vn 0.314961 0.944882 -0.000000
vn 0.000000 1.000000 -0.000000
vn 0.000000 1.000000 -0.000000
vn 0.314961 0.944882 -0.000000
vn 0.007874 0.968504 -0.244095
vn 0.015748 0.937008 -0.338583
vn -0.314961 0.944882 -0.000000
vn -1.000000 0.000000 0.000000
vn -1.000000 0.000000 0.007874
vn -1.000000 -0.000000 -0.007874
vn -1.000000 0.007874 -0.000000
vn -1.000000 -0.039370 -0.078740
vn -0.921260 0.204724 -0.330709
vn 0.015748 0.708661 -0.700787
vn 0.000000 0.480315 -0.874016
vn -0.251969 0.338583 -0.905512
vn -0.850394 -0.440945 -0.291339
vn -0.858268 -0.433071 -0.283464
vn 0.000000 0.472441 -0.881890
vn -0.850394 -0.448819 -0.283464
vn -0.850394 -0.440945 -0.283464
vn -0.259843 0.307086 -0.913386
vn -0.007874 -0.881890 -0.472441
vn -0.015748 0.149606 -0.992126
vn 0.000000 0.472441 -0.881890
vn 0.000000 -0.881890 -0.472441
vn 0.023622 -0.881890 -0.464567
vn 0.000000 -0.881890 -0.472441
vn 0.842520 0.464567 0.275590
vn 0.007874 -0.685039 -0.732283
vn 0.834646 0.472441 0.283464
vn 0.834646 0.472441 0.283464
vn 0.803150 0.598425 -0.000000
vn 0.834646 0.472441 0.267716
vn 0.000000 0.472441 -0.881890
vn 0.299213 0.614173 -0.724409
vn 1.000000 0.023622 0.062992
vn 1.000000 0.023622 0.062992
vn 0.000000 -0.929134 0.377953
vn 0.000000 -0.937008 0.354331
vn 0.000000 -0.937008 0.354331
vn 0.000000 -0.929134 0.377953
vn 0.000000 -0.976378 0.220473
vn 0.000000 -0.976378 0.220473
vn 0.000000 -1.000000 0.000000
vn 0.000000 -1.000000 0.000000
vn 0.000000 -0.976378 -0.220472
vn 0.000000 -0.976378 -0.220472
vn 0.000000 -0.929134 -0.377953
vn 0.000000 -0.929134 -0.377953
vn 0.000000 -0.937008 -0.354331
vn 0.000000 -0.937008 -0.354331
vn 0.000000 0.480315 -0.881890
vn 0.000000 0.480315 -0.881890
vn 0.000000 0.480315 -0.881890
vn 0.000000 0.480315 -0.881890
vn 0.000000 0.472441 -0.881890
vn 0.000000 0.472441 -0.881890
vn 0.000000 0.472441 -0.881890
vn 0.000000 0.472441 -0.881890
vn 0.000000 0.472441 -0.881890
vn 0.000000 0.472441 -0.881890
vn 0.000000 0.472441 -0.881890
vn 0.000000 0.472441 -0.881890
vn 0.000000 0.472441 0.881890
vn 0.000000 0.472441 0.881890
vn 0.000000 0.472441 0.881890
vn 0.000000 0.472441 0.881890
vn 0.000000 0.472441 0.881890
vn 0.000000 0.472441 0.881890
vn 0.000000 0.472441 0.881890
vn 0.000000 0.472441 0.881890
tan 0.000000 -0.582677 -0.811023 1.000000
tan 0.000000 -0.582677 -0.811023 1.000000
tan 0.000000 0.748031 -0.661417 1.000000
tan 0.000000 0.748031 -0.661417 1.000000
tan 0.000000 0.748031 -0.661417 1.000000
tan 0.000000 0.748031 -0.661417 1.000000
tan 0.000000 -0.582677 -0.811023 1.000000
tan 0.000000 -0.818898 -0.574803 1.000000
tan 0.000000 -0.582677 -0.811023 1.000000
tan 0.000000 -0.818898 -0.574803 1.000000
tan 0.000000 -0.937008 -0.346457 1.000000
tan 0.000000 -0.937008 -0.346457 1.000000
tan 0.000000 -0.937008 -0.346457 1.000000
tan 0.000000 -0.937008 -0.346457 1.000000
tan 0.000000 -0.881890 0.472441 1.000000
tan 0.000000 -0.881890 0.472441 1.000000
tan 0.038440 -0.881890 0.472441 1.000000
tan -0.038440 -0.881890 0.472441 1.000000
tan -0.011098 -0.732283 0.677165 1.000000
tan -0.197160 -0.737987 0.635129 1.000000
tan 0.095418 -0.115444 0.973650 1.000000
tan 0.011098 -0.732283 0.677165 1.000000
tan 0.203174 -0.737987 0.636865 1.000000
tan -0.085374 -0.103292 0.979726 1.000000
tan 0.061380 -0.048980 0.972782 1.000000
tan -0.049104 -0.039184 0.972782 1.000000
tan -0.049104 0.039184 0.972782 1.000000
tan -0.085374 0.103292 0.979726 1.000000
tan 0.007874 0.000000 1.000000 1.000000
tan -0.007874 0.000000 1.000000 1.000000
tan 0.061380 0.048980 0.972782 1.000000
tan 0.095418 0.115444 0.973650 1.000000
tan -0.007874 0.000000 1.000000 1.000000
tan 0.007874 0.000000 1.000000 1.000000
tan -0.011098 0.732283 0.677165 1.000000
tan -0.197160 0.737988 0.635129 1.000000
tan -0.038440 0.881890 0.472441 1.000000
tan 0.011098 0.732283 0.677165 1.000000
tan 0.203174 0.737988 0.636865 1.000000
tan 0.038440 0.881890 0.472441 1.000000
tan 0.000000 0.881890 0.472441 1.000000
tan 0.000000 0.881890 0.472441 1.000000
tan 0.000000 0.937008 -0.346457 1.000000
tan 0.000000 0.937008 -0.346457 1.000000
tan 0.000000 0.937008 -0.346457 1.000000
tan 0.000000 0.937008 -0.346457 1.000000
tan 0.000000 0.818897 -0.574803 1.000000
tan 0.000000 0.818897 -0.574803 1.000000
tan 0.000000 0.582677 -0.811024 1.000000
tan 0.000000 0.582677 -0.811024 1.000000
tan 0.000000 0.582677 -0.811024 1.000000
tan 0.000000 0.582677 -0.811024 1.000000
tan 0.000000 -0.748031 -0.661417 1.000000
tan 0.000000 -0.748031 -0.661417 1.000000
tan 0.000000 -0.748031 -0.661417 1.000000
tan 0.000000 -0.748031 -0.661417 1.000000
tan 0.798686 -0.451361 0.316821 1.000000
tan 0.881704 -0.287619 0.275095 1.000000
tan 0.849464 -0.270692 0.376775 1.000000
tan 0.614173 -0.795275 0.000000 1.000000
tan 0.826772 -0.566929 0.023994 1.000000
tan 0.766198 -0.560729 0.207328 1.000000
tan 0.826772 -0.566929 -0.023994 1.000000
tan 0.719511 -0.600905 0.091140 1.000000
tan 0.721929 -0.612375 0.226425 1.000000
tan -0.471387 -0.758261 -0.317998 1.000000
tan -0.385827 -0.921260 -0.061070 1.000000
tan 0.346457 -0.937008 -0.044268 1.000000
tan 0.606299 -0.795275 0.000000 1.000000
tan 0.881704 -0.287619 -0.275095 1.000000
tan 0.849464 -0.270693 -0.376775 1.000000
tan 0.798686 -0.451361 -0.316821 1.000000
tan 0.766198 -0.560729 -0.207328 1.000000
tan 0.346457 -0.937008 0.044268 1.000000
tan 0.719511 -0.600905 -0.091140 1.000000
tan 0.721929 -0.612375 -0.226424 1.000000
tan -0.471387 -0.758261 0.317999 1.000000
tan -0.385827 -0.921260 0.061070 1.000000
tan -0.637795 -0.771653 0.000000 1.000000
tan -0.705561 -0.679769 -0.003348 1.000000
tan -0.509889 -0.789447 -0.291896 1.000000
tan -0.670097 -0.624961 0.334801 1.000000
tan -0.721433 -0.599727 0.261641 1.000000
tan -0.715481 -0.576353 0.308761 1.000000
tan -0.637795 -0.771653 0.000000 1.000000
tan -0.637795 -0.771653 0.000000 1.000000
tan -0.637795 -0.771653 0.000000 1.000000
tan -0.721433 -0.599727 -0.261640 1.000000
tan -0.705561 -0.679769 0.003348 1.000000
tan -0.670097 -0.624961 -0.334801 1.000000
tan -0.715481 -0.576353 -0.308761 1.000000
tan -0.509889 -0.789447 0.291897 1.000000
tan 0.184512 -0.806001 0.565751 1.000000
tan 0.034720 -0.582677 0.811024 1.000000
tan 0.071362 -0.521483 0.847728 1.000000
tan 0.022072 0.016678 0.928390 1.000000
tan 0.071610 0.049104 0.957344 1.000000
tan 0.421353 -0.841093 0.310993 1.000000
tan -0.071610 -0.049104 0.957344 1.000000
tan 0.552421 -0.667245 0.494327 1.000000
tan 0.519995 -0.789447 0.291897 1.000000
tan 0.551181 -0.655217 0.505053 1.000000
tan 0.012152 -0.029016 0.948602 1.000000
tan -0.013640 -0.036890 0.956104 1.000000
tan -0.021948 -0.016740 0.927770 1.000000
tan -0.071362 0.521483 0.847728 1.000000
tan -0.034720 0.582677 0.811023 1.000000
tan -0.184512 0.806002 0.565751 1.000000
tan -0.421353 0.841094 0.310993 1.000000
tan 0.013640 0.036890 0.956104 1.000000
tan -0.552421 0.667245 0.494327 1.000000
tan -0.519995 0.789447 0.291896 1.000000
tan -0.551181 0.655217 0.505053 1.000000
tan -0.012152 0.029016 0.948602 1.000000
tan 0.035154 -0.042532 0.979726 1.000000
tan -0.260276 -0.161324 0.944696 1.000000
tan -0.542129 -0.774691 -0.286440 1.000000
tan -0.397793 -0.798561 0.427801 1.000000
tan -0.358547 -0.678529 0.635129 1.000000
tan -0.376961 -0.805505 0.431521 1.000000
tan -0.005022 0.006076 0.985802 1.000000
tan 0.005022 -0.006076 0.985802 1.000000
tan -0.035154 0.042532 0.979726 1.000000
tan 0.358547 0.678529 0.635129 1.000000
tan 0.260276 0.161324 0.944696 1.000000
tan 0.397793 0.798562 0.427801 1.000000
tan 0.542129 0.774691 -0.286441 1.000000
tan 0.376961 0.805506 0.431521 1.000000
tan 0.875194 0.353401 0.312481 1.000000
tan 0.875256 0.390105 0.246326 1.000000
tan 0.864096 0.371071 0.328105 1.000000
tan 0.847170 0.511501 0.052266 1.000000
tan 0.849464 -0.270692 0.376775 1.000000
tan 0.881704 -0.287619 0.275095 1.000000
tan 0.826772 -0.566929 0.023994 1.000000
tan 0.803150 0.598425 -0.000000 1.000000
tan 0.803150 0.598425 -0.000000 1.000000
tan 0.826772 -0.566929 -0.023994 1.000000
tan 0.803150 0.598425 -0.000000 1.000000
tan 0.803150 0.598425 -0.000000 1.000000
tan 0.875256 0.390105 -0.246326 1.000000
tan 0.847170 0.511501 -0.052266 1.000000
tan 0.881704 -0.287619 -0.275095 1.000000
tan 0.849464 -0.270693 -0.376775 1.000000
tan 0.875194 0.353401 -0.312481 1.000000
tan 0.864096 0.371071 -0.328105 1.000000
tan 0.160332 0.596627 0.775187 1.000000
tan 0.151528 0.736251 0.651001 1.000000
tan 0.162626 0.736251 0.651001 1.000000
tan 0.099820 0.167028 0.929258 1.000000
tan 0.034720 -0.582677 0.811024 1.000000
tan 0.071362 -0.521483 0.847728 1.000000
tan 0.071610 0.049104 0.957344 1.000000
tan 0.044268 -0.032984 0.975510 1.000000
tan 0.006324 -0.004712 0.975510 1.000000
tan -0.071610 -0.049104 0.957344 1.000000
tan -0.006324 0.004712 0.975510 1.000000
tan -0.044268 0.032984 0.975510 1.000000
tan -0.160332 -0.596627 0.775187 1.000000
tan -0.099820 -0.167028 0.929258 1.000000
tan -0.071362 0.521483 0.847728 1.000000
tan -0.034720 0.582677 0.811023 1.000000
tan -0.151528 -0.736251 0.651001 1.000000
tan -0.162626 -0.736251 0.651001 1.000000
tan 0.512369 0.834398 -0.100378 1.000000
tan 0.598425 0.803149 -0.034720 1.000000
tan 0.511873 0.841590 -0.104532 1.000000
tan 0.506045 0.834398 0.080662 1.000000
tan 0.502945 0.843822 0.074524 1.000000
tan 0.598425 0.803149 0.011036 1.000000
tan -0.598425 0.803149 -0.011036 1.000000
tan -0.506045 0.834398 -0.080662 1.000000
tan -0.502945 0.843822 -0.074524 1.000000
tan -0.516337 0.841590 0.117676 1.000000
tan -0.516585 0.834398 0.113522 1.000000
tan -0.598425 0.803149 0.041044 1.000000
tan -1.000000 0.000000 0.000000 1.000000
tan -1.000000 0.000000 0.000000 1.000000
tan -1.000000 0.000000 0.000000 1.000000
tan -1.000000 0.000000 0.000000 1.000000
tan -0.958026 0.000000 0.000000 1.000000
tan -0.958026 0.000000 0.000000 1.000000
tan -0.958026 0.000000 0.000000 1.000000
tan -0.958026 0.000000 0.000000 1.000000
tan -1.000000 0.000000 0.000000 1.000000
tan -1.000000 0.000000 0.000000 1.000000
tan -1.000000 0.000000 0.000000 1.000000
tan -1.000000 0.000000 0.000000 1.000000
tan -0.958026 0.000000 0.000000 1.000000
tan -0.958026 0.000000 0.000000 1.000000
tan -0.958026 0.000000 0.000000 1.000000
tan -0.958026 0.000000 0.000000 1.000000
tan -1.000000 0.000000 0.000000 1.000000
tan -1.000000 0.000000 0.000000 1.000000
tan -1.000000 0.000000 0.000000 1.000000
tan -1.000000 0.000000 0.000000 1.000000
tan -1.000000 0.000000 0.000000 1.000000
tan -1.000000 0.000000 0.000000 1.000000
tan -1.000000 0.000000 0.000000 1.000000
tan -1.000000 0.000000 0.000000 1.000000
tan -0.958026 0.000000 0.000000 1.000000
tan -0.958026 0.000000 0.000000 1.000000
tan -0.958026 0.000000 0.000000 1.000000
tan -0.958026 0.000000 0.000000 1.000000
tan -1.000000 0.000000 0.000000 1.000000
tan -1.000000 0.000000 0.000000 1.000000
tan -1.000000 0.000000 0.000000 1.000000
tan -1.000000 0.000000 0.000000 1.000000
tan -0.958026 0.000000 0.000000 1.000000
tan -0.958026 0.000000 0.000000 1.000000
tan -0.958026 0.000000 0.000000 1.000000
tan -0.958026 0.000000 0.000000 1.000000
tan -1.000000 0.000000 0.000000 1.000000
tan -1.000000 0.000000 0.000000 1.000000
tan -1.000000 0.000000 0.000000 1.000000
tan -1.000000 0.000000 0.000000 1.000000
tan -1.000000 0.000000 0.000000 1.000000
tan -1.000000 0.000000 0.000000 1.000000
tan -1.000000 0.000000 0.000000 1.000000
tan -1.000000 0.000000 0.000000 1.000000
tan -0.958026 0.000000 0.000000 1.000000
tan -0.958026 0.000000 0.000000 1.000000
tan -0.958026 0.000000 0.000000 1.000000
tan -0.958026 0.000000 0.000000 1.000000
tan -1.000000 0.000000 0.000000 1.000000
tan -1.000000 0.000000 0.000000 1.000000
tan -1.000000 0.000000 0.000000 1.000000
tan -1.000000 0.000000 0.000000 1.000000
tan -0.958026 0.000000 0.000000 1.000000
tan -0.958026 0.000000 0.000000 1.000000
tan -0.958026 0.000000 0.000000 1.000000
tan -0.958026 0.000000 0.000000 1.000000
tan -1.000000 0.000000 0.000000 1.000000
tan -1.000000 0.000000 0.000000 1.000000
tan -1.000000 0.000000 0.000000 1.000000
tan -1.000000 0.000000 0.000000 1.000000
tan -0.314961 0.944882 -0.000000 1.000000
tan -0.267717 0.960630 -0.000000 1.000000
tan -0.259843 0.968504 -0.007626 1.000000
tan -0.259843 0.968504 -0.030504 1.000000
tan -0.643065 0.407961 0.617769 1.000000
tan -0.259843 0.968504 0.007626 1.000000
tan -0.769917 0.329841 0.499473 1.000000
tan -0.314961 0.944882 -0.000000 1.000000
tan -0.267717 0.960630 -0.000000 1.000000
tan 0.000000 1.000000 -0.070866 1.000000
tan -0.992126 0.000000 0.110236 1.000000
tan -0.992126 -0.000000 -0.110236 1.000000
tan -0.259843 0.968504 0.030504 1.000000
tan -0.643065 0.407961 -0.617769 1.000000
tan -0.769917 0.329841 -0.499473 1.000000
tan 0.000000 1.000000 0.070866 1.000000
tan 0.944882 -0.314961 0.000000 1.000000
tan 0.000000 -0.000000 -0.972472 1.000000
tan 0.968504 -0.251968 0.000000 1.000000
tan 0.011904 0.045756 -0.972472 1.000000
tan 0.527125 -0.460041 -0.696633 1.000000
tan 0.000000 -0.000000 -0.972472 1.000000
tan 0.382789 -0.503441 -0.762353 1.000000
tan -0.944882 0.314961 -0.000000 1.000000
tan -0.968504 0.251968 -0.000000 1.000000
tan 0.000000 0.070866 -1.000000 1.000000
tan 0.086614 -0.000000 -0.992126 1.000000
tan -0.078740 -0.000000 -1.000000 1.000000
tan -0.011904 -0.045756 -0.972472 1.000000
tan -0.527125 0.460041 -0.696633 1.000000
tan -0.382789 0.503441 -0.762353 1.000000
tan 0.000000 -0.070866 -1.000000 1.000000
tan -0.314961 0.944882 -0.000000 1.000000
tan -0.267717 0.960630 -0.000000 1.000000
tan -0.259843 0.968504 -0.007626 1.000000
tan -0.259843 0.968504 -0.030504 1.000000
tan -0.643065 0.407961 0.617769 1.000000
tan -0.259843 0.968504 0.007626 1.000000
tan -0.769917 0.329841 0.499473 1.000000
tan -0.314961 0.944882 -0.000000 1.000000
tan -0.267717 0.960630 -0.000000 1.000000
tan 0.000000 1.000000 -0.070866 1.000000
tan -0.992126 0.000000 0.110236 1.000000
tan -0.992126 -0.000000 -0.110236 1.000000
tan -0.259843 0.968504 0.030504 1.000000
tan -0.643065 0.407961 -0.617769 1.000000
tan -0.769917 0.329841 -0.499473 1.000000
tan 0.000000 1.000000 0.070866 1.000000
tan 0.314961 0.952756 -0.000000 1.000000
tan 0.251969 0.968504 -0.007626 1.000000
tan 0.259843 0.968504 -0.000000 1.000000
tan 0.251969 0.968504 -0.030504 1.000000
tan 0.643065 0.407961 0.617769 1.000000
tan 0.251969 0.968504 0.007626 1.000000
tan 0.769917 0.329841 0.499473 1.000000
tan 0.314961 0.952756 -0.000000 1.000000
tan 0.259843 0.968504 -0.000000 1.000000
tan 0.000000 1.000000 -0.070866 1.000000
tan 0.992126 0.000000 0.110236 1.000000
tan 0.992126 -0.000000 -0.110236 1.000000
tan 0.251969 0.968504 0.030504 1.000000
tan 0.643065 0.407961 -0.617769 1.000000
tan 0.769917 0.329841 -0.499473 1.000000
tan 0.000000 1.000000 0.070866 1.000000
tan -0.314961 0.944882 -0.000000 1.000000
tan -0.267717 0.960630 -0.000000 1.000000
tan -0.259843 0.968504 -0.007626 1.000000
tan -0.259843 0.968504 -0.030504 1.000000
tan -0.643065 0.407961 0.617769 1.000000
tan -0.259843 0.968504 0.007626 1.000000
tan -0.769917 0.329841 0.499473 1.000000
tan -0.314961 0.944882 -0.000000 1.000000
tan -0.267717 0.960630 -0.000000 1.000000
tan 0.000000 1.000000 -0.070866 1.000000
tan -0.992126 0.000000 0.110236 1.000000
tan -0.992126 -0.000000 -0.110236 1.000000
tan -0.259843 0.968504 0.030504 1.000000
tan -0.643065 0.407961 -0.617769 1.000000
tan -0.769917 0.329841 -0.499473 1.000000
tan 0.000000 1.000000 0.070866 1.000000
tan 0.314961 0.952756 -0.000000 1.000000
tan 0.251969 0.968504 -0.007626 1.000000
tan 0.259843 0.968504 -0.000000 1.000000
tan 0.251969 0.968504 -0.030504 1.000000
tan 0.643065 0.407961 0.617769 1.000000
tan 0.251969 0.968504 0.007626 1.000000
tan 0.769917 0.329841 0.499473 1.000000
tan 0.314961 0.952756 -0.000000 1.000000
tan 0.259843 0.968504 -0.000000 1.000000
tan 0.000000 1.000000 -0.070866 1.000000
tan 0.992126 0.000000 0.110236 1.000000
tan 0.992126 -0.000000 -0.110236 1.000000
tan 0.251969 0.968504 0.030504 1.000000
tan 0.643065 0.407961 -0.617769 1.000000
tan 0.769917 0.329841 -0.499473 1.000000
tan 0.000000 1.000000 0.070866 1.000000
tan -0.000558 1.000000 -0.070866 1.000000
tan 0.007812 0.992126 0.110236 1.000000
tan -0.000930 0.992126 0.118110 1.000000
tan 0.015624 0.992126 -0.102362 1.000000
tan -0.027280 0.897638 -0.433071 1.000000
tan 0.418129 0.834894 -0.160332 1.000000
tan 0.002666 0.952756 -0.314961 1.000000
tan 0.404365 0.827578 -0.199764 1.000000
tan -0.096720 0.349557 -0.867382 1.000000
tan 0.224192 0.709467 -0.510571 1.000000
tan 0.916238 0.163804 -0.239568 1.000000
tan 0.301569 0.404737 -0.842954 1.000000
tan 0.743753 0.240188 -0.493769 1.000000
tan 0.774754 0.267840 -0.499969 1.000000
tan 0.900490 -0.003286 0.021142 1.000000
tan 0.724099 -0.504929 0.464567 1.000000
tan 0.942402 0.003720 -0.006944 1.000000
tan 0.506293 0.540145 0.663649 1.000000
tan 0.504929 0.551305 0.657201 1.000000
tan 0.466427 0.396987 0.760617 1.000000
tan 0.992126 -0.070308 0.005146 1.000000
tan 0.938682 0.083328 0.044640 1.000000
tan 0.932730 0.019592 0.271933 1.000000
tan 0.924794 0.159712 0.085560 1.000000
tan 0.931738 0.138880 0.074400 1.000000
tan 0.980842 0.092070 0.078740 1.000000
tan 0.882944 0.137268 0.083390 1.000000
tan 0.915804 -0.030876 0.258044 1.000000
tan 0.421105 0.267469 0.824354 1.000000
tan 0.046810 -0.433071 0.905512 1.000000
tan 0.056482 -0.212598 0.976378 1.000000
tan 0.176266 -0.806001 0.565751 1.000000
tan 0.937008 0.045074 0.081158 1.000000
tan 0.972348 0.027094 0.076136 1.000000
tan 0.944882 0.314961 0.007440 1.000000
tan 1.000000 0.000000 0.062992 1.000000
tan 0.944882 0.314961 0.007440 1.000000
tan 0.972472 0.025730 -0.068510 1.000000
tan 1.000000 -0.000000 -0.031496 1.000000
tan 1.000000 0.000000 0.055118 1.000000
tan 0.944882 -0.314961 0.059520 1.000000
tan 0.000000 -0.976378 0.220473 1.000000
tan 0.002356 -0.952756 0.299213 1.000000
tan 0.944882 -0.314961 -0.029760 1.000000
tan 0.000000 -0.984252 -0.157480 1.000000
tan 0.001984 -0.968504 -0.251968 1.000000
tan 0.046190 -0.527559 -0.850394 1.000000
tan 1.000000 0.000000 0.000000 1.000000
tan 0.315271 -0.900242 -0.322587 1.000000
tan 0.919710 0.037882 -0.050096 1.000000
tan 0.437039 -0.558373 -0.706801 1.000000
tan 0.993242 -0.088660 0.110732 1.000000
tan 0.893608 0.089466 -0.049166 1.000000
tan 0.908178 -0.051894 -0.233306 1.000000
tan 0.412983 0.247380 -0.831050 1.000000
tan 0.464939 0.434807 -0.743443 1.000000
tan 0.931738 0.131936 -0.070680 1.000000
tan 0.506293 0.540145 -0.663649 1.000000
tan 0.506169 0.558001 -0.650505 1.000000
tan 0.932730 0.012400 -0.269515 1.000000
tan 0.893546 -0.032736 -0.090892 1.000000
tan 0.984314 -0.117180 0.002046 1.000000
tan 0.942402 0.003720 0.006944 1.000000
tan 0.781698 0.267841 0.499969 1.000000
tan 0.739413 0.226672 0.505363 1.000000
tan 0.235848 0.722735 0.497303 1.000000
tan 0.690247 -0.527869 -0.486391 1.000000
tan -0.116064 0.323269 0.880526 1.000000
tan 0.418129 0.834894 0.160332 1.000000
tan 0.282721 0.379441 0.853989 1.000000
tan 0.406473 0.827578 0.193192 1.000000
tan 0.938682 0.090272 -0.048360 1.000000
tan 0.921074 0.177568 0.229896 1.000000
tan 0.924794 0.159712 -0.085560 1.000000
tan -0.008928 0.881890 0.472441 1.000000
tan -0.000868 0.929134 0.362205 1.000000
tan -0.418129 0.834894 0.160332 1.000000
tan 0.027280 0.897638 0.433071 1.000000
tan -0.002666 0.952756 0.314960 1.000000
tan -0.404365 0.827578 0.199764 1.000000
tan 0.098952 0.349557 0.873954 1.000000
tan -0.222022 0.709467 0.517205 1.000000
tan -0.916238 0.163804 0.239568 1.000000
tan -0.296857 0.398413 0.842954 1.000000
tan -0.739413 0.230269 0.512369 1.000000
tan -0.781698 0.264121 0.493025 1.000000
tan -0.718333 -0.510695 -0.470023 1.000000
tan -0.942402 0.011160 0.020832 1.000000
tan -0.893546 -0.032736 -0.090892 1.000000
tan -0.938682 0.083328 -0.044640 1.000000
tan -0.992126 -0.078120 -0.003968 1.000000
tan -0.506293 0.540145 -0.663649 1.000000
tan -0.504929 0.551305 -0.657201 1.000000
tan -0.466427 0.396987 -0.760617 1.000000
tan -0.932730 0.019592 -0.271933 1.000000
tan -0.421105 0.267468 -0.824354 1.000000
tan -0.931738 0.138880 -0.074400 1.000000
tan -0.915804 -0.030876 -0.258044 1.000000
tan -0.046314 -0.433071 -0.897638 1.000000
tan -0.056296 -0.220473 -0.976378 1.000000
tan -0.947300 -0.114390 -0.297787 1.000000
tan -0.142290 -0.790501 -0.581251 1.000000
tan -0.893608 0.123876 -0.068076 1.000000
tan -0.924794 0.159712 -0.085560 1.000000
tan -0.980842 0.081530 -0.067084 1.000000
tan -0.912518 0.053568 -0.086056 1.000000
tan -0.007874 1.000000 0.078740 1.000000
tan 0.000620 1.000000 0.078740 1.000000
tan 0.000930 0.992126 -0.118110 1.000000
tan -0.015624 0.992126 -0.141732 1.000000
tan -1.000000 0.000558 -0.070866 1.000000
tan -1.000000 -0.000000 -0.055118 1.000000
tan -0.944882 -0.314961 -0.066960 1.000000
tan -0.944882 0.314961 -0.007440 1.000000
tan -1.000000 -0.000000 -0.007874 1.000000
tan -1.000000 0.000000 0.023622 1.000000
tan -0.944882 0.314961 -0.014880 1.000000
tan -0.972348 0.021328 0.053258 1.000000
tan -0.937008 0.026412 0.029512 1.000000
tan -0.944882 -0.314961 0.022320 1.000000
tan 0.000000 -0.976378 -0.212598 1.000000
tan -0.002480 -0.952756 -0.314960 1.000000
tan -0.001736 -0.976378 0.220473 1.000000
tan -0.007750 -0.984252 0.188976 1.000000
tan -0.043090 -0.559055 0.826772 1.000000
tan -0.385145 -0.575671 0.716535 1.000000
tan -0.977122 -0.115010 -0.138260 1.000000
tan -0.900490 0.048174 0.026474 1.000000
tan -0.901048 -0.094674 0.215326 1.000000
tan -0.393267 0.200508 0.844442 1.000000
tan -0.459173 0.414533 0.756959 1.000000
tan -0.938682 0.104160 0.055800 1.000000
tan -0.503689 0.526753 0.677041 1.000000
tan -0.503689 0.544609 0.663897 1.000000
tan -0.932730 -0.001984 0.264679 1.000000
tan -0.900490 -0.021886 0.055862 1.000000
tan -0.976502 -0.164052 -0.009238 1.000000
tan -0.931738 0.152768 0.081840 1.000000
tan -0.942402 -0.022320 0.041664 1.000000
tan -0.764586 0.224998 -0.465993 1.000000
tan -0.781698 0.267840 -0.499969 1.000000
tan -0.222022 0.709467 -0.517205 1.000000
tan -0.662161 -0.550809 0.508153 1.000000
tan 0.129456 0.303552 -0.887098 1.000000
tan -0.418129 0.834894 -0.160332 1.000000
tan -0.278009 0.373117 -0.860314 1.000000
tan -0.404365 0.827578 -0.199764 1.000000
tan -0.938682 0.083328 0.044640 1.000000
tan -0.916238 0.158100 -0.244404 1.000000
tan 0.008928 0.881890 -0.472441 1.000000
tan 0.001364 0.929134 -0.370079 1.000000
tan 0.000000 -0.377953 -0.929134 1.000000
tan 0.000000 -0.354331 -0.937008 1.000000
tan 0.000000 -0.354331 -0.937008 1.000000
tan 0.000000 -0.377953 -0.929134 1.000000
tan 0.000000 -0.220473 -0.976378 1.000000
tan 0.000000 -0.220473 -0.976378 1.000000
tan 0.000000 -0.000000 -1.000000 1.000000
tan 0.000000 -0.000000 -1.000000 1.000000
tan 0.000000 0.220472 -0.976378 1.000000
tan 0.000000 0.220472 -0.976378 1.000000
tan 0.000000 0.377953 -0.929134 1.000000
tan 0.000000 0.377953 -0.929134 1.000000
tan 0.000000 0.354331 -0.937008 1.000000
tan 0.000000 0.354331 -0.937008 1.000000
tan 0.000000 -0.881890 -0.480315 1.000000
tan 0.000000 -0.881890 -0.480315 1.000000
tan 0.000000 -0.881890 -0.480315 1.000000
tan 0.000000 -0.881890 -0.480315 1.000000
tan 0.000000 -0.881890 -0.472441 1.000000
tan 0.000000 -0.881890 -0.472441 1.000000
tan 0.000000 -0.881890 -0.472441 1.000000
tan 0.000000 -0.881890 -0.472441 1.000000
tan 0.000000 -0.881890 -0.472441 1.000000
tan 0.000000 -0.881890 -0.472441 1.000000
tan 0.000000 -0.881890 -0.472441 1.000000
tan 0.000000 -0.881890 -0.472441 1.000000
tan 0.000000 -0.881890 0.472441 1.000000
tan 0.000000 -0.881890 0.472441 1.000000
tan 0.000000 -0.881890 0.472441 1.000000
tan 0.000000 -0.881890 0.472441 1.000000
tan 0.000000 -0.881890 0.472441 1.000000
tan 0.000000 -0.881890 0.472441 1.000000
tan 0.000000 -0.881890 0.472441 1.000000
tan 0.000000 -0.881890 0.472441 1.000000
f 3/3/3 2/2/2 1/1/1
f 4/4/4 2/2/2 3/3/3
f 5/5/5 4/4/4 3/3/3
f 6/6/6 4/4/4 5/5/5
f 9/9/9 8/8/8 7/7/7
f 10/10/10 7/7/7 8/8/8
f 8/8/8 11/11/11 10/10/10
f 10/10/10 11/11/11 12/12/12
f 11/11/11 13/13/13 12/12/12
f 12/12/12 13/13/13 14/14/14
f 15/15/15 14/14/14 13/13/13
f 16/16/16 14/14/14 15/15/15
f 16/16/16 15/15/15 17/17/17
f 15/15/15 18/18/18 17/17/17
f 18/18/18 19/19/19 17/17/17
f 18/18/18 20/20/20 19/19/19
f 20/20/20 21/21/21 19/19/19
f 22/22/22 17/17/17 19/19/19
f 23/23/23 17/17/17 22/22/22
f 23/23/23 22/22/22 24/24/24
f 25/25/25 19/19/19 21/21/21
f 26/26/26 24/24/24 22/22/22
f 25/25/25 21/21/21 27/27/27
f 27/27/27 21/21/21 28/28/28
f 29/29/29 19/19/19 25/25/25
f 19/19/19 29/29/29 22/22/22
f 25/25/25 27/27/27 29/29/29
f 30/30/30 26/26/26 22/22/22
f 30/30/30 22/22/22 29/29/29
f 24/24/24 26/26/26 31/31/31
f 26/26/26 30/30/30 31/31/31
f 31/31/31 32/32/32 24/24/24
f 33/33/33 30/30/30 29/29/29
f 33/33/33 29/29/29 27/27/27
f 34/34/34 31/31/31 30/30/30
f 30/30/30 33/33/33 34/34/34
f 35/35/35 32/32/32 31/31/31
f 34/34/34 35/35/35 31/31/31
f 32/32/32 35/35/35 36/36/36
f 35/35/35 37/37/37 36/36/36
f 38/38/38 34/34/34 33/33/33
f 33/33/33 27/27/27 38/38/38
f 34/34/34 38/38/38 35/35/35
f 38/38/38 27/27/27 28/28/28
f 38/38/38 28/28/28 39/39/39
f 38/38/38 39/39/39 40/40/40
f 38/38/38 40/40/40 35/35/35
f 37/37/37 35/35/35 40/40/40
f 40/40/40 41/41/41 37/37/37
f 42/42/42 37/37/37 41/41/41
f 41/41/41 43/43/43 42/42/42
f 42/42/42 43/43/43 44/44/44
f 45/45/45 44/44/44 43/43/43
f 46/46/46 44/44/44 45/45/45
f 47/47/47 46/46/46 45/45/45
f 48/48/48 46/46/46 47/47/47
f 49/49/49 48/48/48 47/47/47
f 50/50/50 48/48/48 49/49/49
f 53/53/53 52/52/52 51/51/51
f 54/54/54 52/52/52 53/53/53
f 55/55/55 54/54/54 53/53/53
f 56/56/56 55/55/55 53/53/53
f 59/59/59 58/58/58 57/57/57
f 60/60/60 57/57/57 58/58/58
f 61/61/61 60/60/60 58/58/58
f 57/57/57 60/60/60 62/62/62
f 60/60/60 61/61/61 63/63/63
f 64/64/64 62/62/62 60/60/60
f 62/62/62 64/64/64 65/65/65
f 66/66/66 65/65/65 64/64/64
f 66/66/66 64/64/64 67/67/67
f 64/64/64 60/60/60 68/68/68
f 68/68/68 67/67/67 64/64/64
f 63/63/63 69/69/69 60/60/60
f 60/60/60 69/69/69 68/68/68
f 63/63/63 70/70/70 69/69/69
f 72/72/72 70/70/70 71/71/71
f 69/69/69 70/70/70 72/72/72
f 69/69/69 72/72/72 73/73/73
f 74/74/74 68/68/68 69/69/69
f 68/68/68 74/74/74 67/67/67
f 73/73/73 75/75/75 69/69/69
f 75/75/75 74/74/74 69/69/69
f 73/73/73 76/76/76 75/75/75
f 77/77/77 75/75/75 76/76/76
f 77/77/77 78/78/78 75/75/75
f 74/74/74 75/75/75 78/78/78
f 74/74/74 78/78/78 67/67/67
f 78/78/78 79/79/79 67/67/67
f 79/79/79 78/78/78 80/80/80
f 82/82/82 80/80/80 81/81/81
f 80/80/80 82/82/82 83/83/83
f 84/84/84 83/83/83 82/82/82
f 80/80/80 83/83/83 79/79/79
f 85/85/85 79/79/79 83/83/83
f 85/85/85 86/86/86 79/79/79
f 87/87/87 79/79/79 86/86/86
f 87/87/87 67/67/67 79/79/79
f 86/86/86 88/88/88 87/87/87
f 87/87/87 89/89/89 67/67/67
f 89/89/89 87/87/87 88/88/88
f 90/90/90 89/89/89 88/88/88
f 88/88/88 91/91/91 90/90/90
f 90/90/90 92/92/92 89/89/89
f 95/95/95 94/94/94 93/93/93
f 93/93/93 96/96/96 95/95/95
f 96/96/96 97/97/97 95/95/95
f 93/93/93 98/98/98 96/96/96
f 97/97/97 96/96/96 99/99/99
f 100/100/100 96/96/96 98/98/98
f 98/98/98 101/101/101 100/100/100
f 102/102/102 100/100/100 101/101/101
f 102/102/102 103/103/103 100/100/100
f 96/96/96 100/100/100 104/104/104
f 104/104/104 100/100/100 103/103/103
f 99/99/99 96/96/96 105/105/105
f 96/96/96 104/104/104 105/105/105
f 106/106/106 99/99/99 105/105/105
f 106/106/106 108/108/108 107/107/107
f 106/106/106 105/105/105 108/108/108
f 108/108/108 105/105/105 109/109/109
f 110/110/110 105/105/105 104/104/104
f 104/104/104 103/103/103 110/110/110
f 109/109/109 105/105/105 111/111/111
f 111/111/111 105/105/105 110/110/110
f 109/109/109 111/111/111 112/112/112
f 113/113/113 112/112/112 111/111/111
f 113/113/113 111/111/111 114/114/114
f 110/110/110 114/114/114 111/111/111
f 110/110/110 103/103/103 114/114/114
f 114/114/114 103/103/103 115/115/115
f 115/115/115 116/116/116 114/114/114
f 118/118/118 117/117/117 116/116/116
f 116/116/116 119/119/119 118/118/118
f 120/120/120 118/118/118 119/119/119
f 115/115/115 119/119/119 116/116/116
f 119/119/119 115/115/115 121/121/121
f 121/121/121 115/115/115 122/122/122
f 123/123/123 122/122/122 115/115/115
f 123/123/123 115/115/115 103/103/103
f 122/122/122 123/123/123 124/124/124
f 123/123/123 103/103/103 125/125/125
f 125/125/125 124/124/124 123/123/123
f 126/126/126 124/124/124 125/125/125
f 126/126/126 125/125/125 127/127/127
f 124/124/124 126/126/126 128/128/128
f 131/131/131 130/130/130 129/129/129
f 132/132/132 129/129/129 130/130/130
f 129/129/129 132/132/132 133/133/133
f 134/134/134 133/133/133 132/132/132
f 134/134/134 132/132/132 135/135/135
f 132/132/132 130/130/130 136/136/136
f 136/136/136 135/135/135 132/132/132
f 137/137/137 136/136/136 130/130/130
f 135/135/135 136/136/136 138/138/138
f 139/139/139 136/136/136 137/137/137
f 139/139/139 140/140/140 136/136/136
f 140/140/140 138/138/138 136/136/136
f 139/139/139 141/141/141 140/140/140
f 140/140/140 142/142/142 138/138/138
f 142/142/142 140/140/140 141/141/141
f 143/143/143 138/138/138 142/142/142
f 143/143/143 142/142/142 144/144/144
f 145/145/145 144/144/144 142/142/142
f 145/145/145 142/142/142 141/141/141
f 141/141/141 146/146/146 145/145/145
f 149/149/149 148/148/148 147/147/147
f 150/150/150 147/147/147 148/148/148
f 148/148/148 151/151/151 150/150/150
f 152/152/152 150/150/150 151/151/151
f 152/152/152 153/153/153 150/150/150
f 154/154/154 147/147/147 150/150/150
f 154/154/154 150/150/150 153/153/153
f 147/147/147 154/154/154 155/155/155
f 153/153/153 156/156/156 154/154/154
f 157/157/157 155/155/155 154/154/154
f 158/158/158 157/157/157 154/154/154
f 158/158/158 154/154/154 156/156/156
f 157/157/157 158/158/158 159/159/159
f 158/158/158 156/156/156 160/160/160
f 160/160/160 159/159/159 158/158/158
f 161/161/161 160/160/160 156/156/156
f 161/161/161 162/162/162 160/160/160
f 163/163/163 160/160/160 162/162/162
f 163/163/163 159/159/159 160/160/160
f 159/159/159 163/163/163 164/164/164
f 167/167/167 166/166/166 165/165/165
f 170/170/170 169/169/169 168/168/168
f 173/173/173 172/172/172 171/171/171
f 176/176/176 175/175/175 174/174/174
f 179/179/179 178/178/178 177/177/177
f 180/180/180 177/177/177 178/178/178
f 177/177/177 180/180/180 181/181/181
f 180/180/180 182/182/182 181/181/181
f 181/181/181 182/182/182 183/183/183
f 181/181/181 183/183/183 184/184/184
f 184/184/184 183/183/183 185/185/185
f 186/186/186 185/185/185 183/183/183
f 185/185/185 186/186/186 187/187/187
f 185/185/185 187/187/187 188/188/188
f 188/188/188 187/187/187 189/189/189
f 187/187/187 190/190/190 189/189/189
f 190/190/190 191/191/191 189/189/189
f 192/192/192 189/189/189 191/191/191
f 193/193/193 192/192/192 191/191/191
f 194/194/194 193/193/193 191/191/191
f 194/194/194 195/195/195 193/193/193
f 196/196/196 193/193/193 195/195/195
f 199/199/199 198/198/198 197/197/197
f 200/200/200 197/197/197 198/198/198
f 197/197/197 200/200/200 201/201/201
f 200/200/200 202/202/202 201/201/201
f 201/201/201 202/202/202 203/203/203
f 201/201/201 203/203/203 204/204/204
f 204/204/204 203/203/203 205/205/205
f 203/203/203 206/206/206 205/205/205
f 205/205/205 206/206/206 207/207/207
f 205/205/205 207/207/207 208/208/208
f 208/208/208 207/207/207 209/209/209
f 207/207/207 210/210/210 209/209/209
f 210/210/210 211/211/211 209/209/209
f 212/212/212 209/209/209 211/211/211
f 213/213/213 212/212/212 211/211/211
f 214/214/214 213/213/213 211/211/211
f 214/214/214 215/215/215 213/213/213
f 216/216/216 213/213/213 215/215/215
f 219/219/219 218/218/218 217/217/217
f 220/220/220 217/217/217 218/218/218
f 217/217/217 220/220/220 221/221/221
f 220/220/220 222/222/222 221/221/221
f 221/221/221 222/222/222 223/223/223
f 221/221/221 223/223/223 224/224/224
f 224/224/224 223/223/223 225/225/225
f 226/226/226 225/225/225 223/223/223
f 225/225/225 226/226/226 227/227/227
f 225/225/225 227/227/227 228/228/228
f 228/228/228 227/227/227 229/229/229
f 227/227/227 230/230/230 229/229/229
f 230/230/230 231/231/231 229/229/229
f 232/232/232 229/229/229 231/231/231
f 233/233/233 232/232/232 231/231/231
f 234/234/234 233/233/233 231/231/231
f 234/234/234 235/235/235 233/233/233
f 236/236/236 233/233/233 235/235/235
f 239/239/239 238/238/238 237/237/237
f 237/237/237 240/240/240 239/239/239
f 237/237/237 241/241/241 240/240/240
f 239/239/239 240/240/240 242/242/242
f 240/240/240 241/241/241 243/243/243
f 245/245/245 242/242/242 244/244/244
f 243/243/243 246/246/246 240/240/240
f 247/247/247 246/246/246 243/243/243
f 247/247/247 248/248/248 246/246/246
f 249/249/249 242/242/242 240/240/240
f 249/249/249 244/244/244 242/242/242
f 240/240/240 246/246/246 249/249/249
f 249/249/249 250/250/250 244/244/244
f 250/250/250 249/249/249 251/251/251
f 252/252/252 246/246/246 248/248/248
f 251/251/251 252/252/252 248/248/248
f 252/252/252 249/249/249 246/246/246
f 252/252/252 251/251/251 249/249/249
f 255/255/255 254/254/254 253/253/253
f 256/256/256 253/253/253 254/254/254
f 253/253/253 256/256/256 257/257/257
f 254/254/254 258/258/258 256/256/256
f 257/257/257 256/256/256 259/259/259
f 258/258/258 261/261/261 260/260/260
f 262/262/262 259/259/259 256/256/256
f 263/263/263 259/259/259 262/262/262
f 263/263/263 262/262/262 264/264/264
f 265/265/265 256/256/256 258/258/258
f 260/260/260 265/265/265 258/258/258
f 262/262/262 256/256/256 265/265/265
f 260/260/260 266/266/266 265/265/265
f 265/265/265 266/266/266 267/267/267
f 268/268/268 264/264/264 262/262/262
f 264/264/264 268/268/268 267/267/267
f 268/268/268 262/262/262 265/265/265
f 267/267/267 268/268/268 265/265/265
f 271/271/271 270/270/270 269/269/269
f 269/269/269 272/272/272 271/271/271
f 269/269/269 273/273/273 272/272/272
f 271/271/271 272/272/272 274/274/274
f 272/272/272 273/273/273 275/275/275
f 277/277/277 274/274/274 276/276/276
f 275/275/275 278/278/278 272/272/272
f 279/279/279 278/278/278 275/275/275
f 279/279/279 280/280/280 278/278/278
f 281/281/281 274/274/274 272/272/272
f 281/281/281 276/276/276 274/274/274
f 272/272/272 278/278/278 281/281/281
f 281/281/281 282/282/282 276/276/276
f 282/282/282 281/281/281 283/283/283
f 284/284/284 278/278/278 280/280/280
f 283/283/283 284/284/284 280/280/280
f 284/284/284 281/281/281 278/278/278
f 284/284/284 283/283/283 281/281/281
f 287/287/287 286/286/286 285/285/285
f 288/288/288 285/285/285 286/286/286
f 285/285/285 288/288/288 289/289/289
f 286/286/286 290/290/290 288/288/288
f 289/289/289 288/288/288 291/291/291
f 290/290/290 293/293/293 292/292/292
f 294/294/294 291/291/291 288/288/288
f 295/295/295 291/291/291 294/294/294
f 295/295/295 294/294/294 296/296/296
f 297/297/297 288/288/288 290/290/290
f 292/292/292 297/297/297 290/290/290
f 294/294/294 288/288/288 297/297/297
f 292/292/292 298/298/298 297/297/297
f 297/297/297 298/298/298 299/299/299
f 300/300/300 296/296/296 294/294/294
f 296/296/296 300/300/300 299/299/299
f 300/300/300 294/294/294 297/297/297
f 299/299/299 300/300/300 297/297/297
f 303/303/303 302/302/302 301/301/301
f 301/301/301 304/304/304 303/303/303
f 301/301/301 305/305/305 304/304/304
f 303/303/303 304/304/304 306/306/306
f 304/304/304 305/305/305 307/307/307
f 309/309/309 306/306/306 308/308/308
f 307/307/307 310/310/310 304/304/304
f 311/311/311 310/310/310 307/307/307
f 311/311/311 312/312/312 310/310/310
f 313/313/313 306/306/306 304/304/304
f 313/313/313 308/308/308 306/306/306
f 304/304/304 310/310/310 313/313/313
f 313/313/313 314/314/314 308/308/308
f 314/314/314 313/313/313 315/315/315
f 316/316/316 310/310/310 312/312/312
f 315/315/315 316/316/316 312/312/312
f 316/316/316 313/313/313 310/310/310
f 316/316/316 315/315/315 313/313/313
f 319/319/319 318/318/318 317/317/317
f 320/320/320 317/317/317 318/318/318
f 317/317/317 320/320/320 321/321/321
f 318/318/318 322/322/322 320/320/320
f 321/321/321 320/320/320 323/323/323
f 322/322/322 325/325/325 324/324/324
f 326/326/326 323/323/323 320/320/320
f 327/327/327 323/323/323 326/326/326
f 327/327/327 326/326/326 328/328/328
f 329/329/329 320/320/320 322/322/322
f 324/324/324 329/329/329 322/322/322
f 326/326/326 320/320/320 329/329/329
f 324/324/324 330/330/330 329/329/329
f 329/329/329 330/330/330 331/331/331
f 332/332/332 328/328/328 326/326/326
f 328/328/328 332/332/332 331/331/331
f 332/332/332 326/326/326 329/329/329
f 331/331/331 332/332/332 329/329/329
f 335/335/335 334/334/334 333/333/333
f 336/336/336 333/333/333 334/334/334
f 333/333/333 336/336/336 337/337/337
f 339/339/339 337/337/337 338/338/338
f 340/340/340 338/338/338 337/337/337
f 340/340/340 341/341/341 338/338/338
f 342/342/342 338/338/338 341/341/341
f 337/337/337 343/343/343 340/340/340
f 340/340/340 343/343/343 344/344/344
f 345/345/345 342/342/342 341/341/341
f 342/342/342 345/345/345 346/346/346
f 346/346/346 345/345/345 347/347/347
f 344/344/344 348/348/348 341/341/341
f 341/341/341 348/348/348 345/345/345
f 349/349/349 347/347/347 345/345/345
f 345/345/345 348/348/348 349/349/349
f 349/349/349 350/350/350 347/347/347
f 351/351/351 347/347/347 350/350/350
f 350/350/350 352/352/352 351/351/351
f 353/353/353 349/349/349 348/348/348
f 350/350/350 349/349/349 353/353/353
f 354/354/354 348/348/348 344/344/344
f 348/348/348 354/354/354 353/353/353
f 354/354/354 344/344/344 343/343/343
f 353/353/353 355/355/355 350/350/350
f 343/343/343 356/356/356 354/354/354
f 357/357/357 353/353/353 354/354/354
f 354/354/354 356/356/356 357/357/357
f 357/357/357 355/355/355 353/353/353
f 356/356/356 343/343/343 358/358/358
f 343/343/343 337/337/337 358/358/358
f 336/336/336 358/358/358 337/337/337
f 356/356/356 359/359/359 357/357/357
f 356/356/356 358/358/358 359/359/359
f 355/355/355 357/357/357 360/360/360
f 359/359/359 360/360/360 357/357/357
f 360/360/360 361/361/361 355/355/355
f 350/350/350 355/355/355 361/361/361
f 360/360/360 359/359/359 361/361/361
f 352/352/352 350/350/350 361/361/361
f 361/361/361 362/362/362 352/352/352
f 362/362/362 361/361/361 359/359/359
f 363/363/363 352/352/352 362/362/362
f 364/364/364 363/363/363 362/362/362
f 359/359/359 364/364/364 362/362/362
f 365/365/365 359/359/359 358/358/358
f 359/359/359 365/365/365 364/364/364
f 358/358/358 366/366/366 365/365/365
f 366/366/366 358/358/358 336/336/336
f 336/336/336 367/367/367 366/366/366
f 336/336/336 334/334/334 367/367/367
f 368/368/368 366/366/366 367/367/367
f 368/368/368 365/365/365 366/366/366
f 334/334/334 369/369/369 367/367/367
f 367/367/367 369/369/369 368/368/368
f 334/334/334 370/370/370 369/369/369
f 371/371/371 368/368/368 369/369/369
f 371/371/371 369/369/369 370/370/370
f 365/365/365 368/368/368 372/372/372
f 372/372/372 368/368/368 371/371/371
f 364/364/364 365/365/365 373/373/373
f 372/372/372 373/373/373 365/365/365
f 373/373/373 374/374/374 364/364/364
f 374/374/374 375/375/375 364/364/364
f 373/373/373 372/372/372 376/376/376
f 374/374/374 377/377/377 375/375/375
f 374/374/374 373/373/373 377/377/377
f 376/376/376 377/377/377 373/373/373
f 378/378/378 375/375/375 377/377/377
f 379/379/379 378/378/378 377/377/377
f 380/380/380 376/376/376 372/372/372
f 371/371/371 380/380/380 372/372/372
f 377/377/377 376/376/376 381/381/381
f 376/376/376 380/380/380 381/381/381
f 381/381/381 379/379/379 377/377/377
f 380/380/380 371/371/371 382/382/382
f 382/382/382 381/381/381 380/380/380
f 371/371/371 370/370/370 382/382/382
f 383/383/383 379/379/379 381/381/381
f 383/383/383 381/381/381 382/382/382
f 370/370/370 384/384/384 382/382/382
f 370/370/370 334/334/334 384/384/384
f 385/385/385 383/383/383 382/382/382
f 382/382/382 384/384/384 385/385/385
f 386/386/386 379/379/379 383/383/383
f 383/383/383 385/385/385 386/386/386
f 379/379/379 386/386/386 387/387/387
f 387/387/387 388/388/388 379/379/379
f 386/386/386 385/385/385 389/389/389
f 387/387/387 390/390/390 388/388/388
f 390/390/390 391/391/391 388/388/388
f 387/387/387 386/386/386 392/392/392
f 392/392/392 390/390/390 387/387/387
f 392/392/392 386/386/386 389/389/389
f 391/391/391 390/390/390 393/393/393
f 392/392/392 389/389/389 394/394/394
f 392/392/392 394/394/394 390/390/390
f 390/390/390 395/395/395 393/393/393
f 394/394/394 395/395/395 390/390/390
f 395/395/395 396/396/396 393/393/393
f 396/396/396 395/395/395 397/397/397
f 398/398/398 396/396/396 397/397/397
f 395/395/395 394/394/394 399/399/399
f 399/399/399 397/397/397 395/395/395
f 397/397/397 400/400/400 398/398/398
f 399/399/399 400/400/400 397/397/397
f 400/400/400 401/401/401 398/398/398
f 399/399/399 402/402/402 400/400/400
f 401/401/401 400/400/400 403/403/403
f 399/399/399 394/394/394 404/404/404
f 404/404/404 402/402/402 399/399/399
f 394/394/394 389/389/389 404/404/404
f 405/405/405 403/403/403 402/402/402
f 402/402/402 404/404/404 405/405/405
f 389/389/389 406/406/406 404/404/404
f 406/406/406 405/405/405 404/404/404
f 406/406/406 389/389/389 385/385/385
f 406/406/406 385/385/385 384/384/384
f 405/405/405 406/406/406 384/384/384
f 407/407/407 403/403/403 405/405/405
f 405/405/405 384/384/384 407/407/407
f 403/403/403 407/407/407 401/401/401
f 407/407/407 384/384/384 334/334/334
f 408/408/408 401/401/401 407/407/407
f 334/334/334 408/408/408 407/407/407
f 411/411/411 410/410/410 409/409/409
f 412/412/412 409/409/409 410/410/410
f 412/412/412 413/413/413 409/409/409
f 413/413/413 414/414/414 409/409/409
f 410/410/410 415/415/415 412/412/412
f 415/415/415 416/416/416 412/412/412
f 417/417/417 414/414/414 413/413/413
f 414/414/414 417/417/417 418/418/418
f 416/416/416 419/419/419 413/413/413
f 413/413/413 419/419/419 417/417/417
f 417/417/417 420/420/420 418/418/418
f 417/417/417 419/419/419 420/420/420
f 420/420/420 421/421/421 418/418/418
f 422/422/422 419/419/419 416/416/416
f 416/416/416 415/415/415 422/422/422
f 423/423/423 420/420/420 419/419/419
f 422/422/422 423/423/423 419/419/419
f 420/420/420 424/424/424 421/421/421
f 423/423/423 424/424/424 420/420/420
f 421/421/421 424/424/424 425/425/425
f 424/424/424 426/426/426 425/425/425
f 423/423/423 427/427/427 424/424/424
f 426/426/426 424/424/424 428/428/428
f 427/427/427 428/428/428 424/424/424
f 429/429/429 427/427/427 423/423/423
f 423/423/423 422/422/422 429/429/429
f 428/428/428 427/427/427 430/430/430
f 427/427/427 429/429/429 430/430/430
f 428/428/428 431/431/431 426/426/426
f 426/426/426 431/431/431 432/432/432
f 430/430/430 433/433/433 428/428/428
f 431/431/431 428/428/428 433/433/433
f 434/434/434 432/432/432 431/431/431
f 433/433/433 434/434/434 431/431/431
f 430/430/430 435/435/435 433/433/433
f 435/435/435 430/430/430 429/429/429
f 434/434/434 433/433/433 435/435/435
f 422/422/422 436/436/436 429/429/429
f 436/436/436 435/435/435 429/429/429
f 436/436/436 422/422/422 415/415/415
f 415/415/415 437/437/437 436/436/436
f 436/436/436 437/437/437 435/435/435
f 437/437/437 415/415/415 410/410/410
f 435/435/435 437/437/437 438/438/438
f 435/435/435 438/438/438 434/434/434
f 439/439/439 437/437/437 410/410/410
f 440/440/440 439/439/439 410/410/410
f 440/440/440 441/441/441 439/439/439
f 441/441/441 442/442/442 439/439/439
f 437/437/437 443/443/443 438/438/438
f 443/443/443 437/437/437 439/439/439
f 438/438/438 444/444/444 434/434/434
f 444/444/444 438/438/438 443/443/443
f 445/445/445 434/434/434 444/444/444
f 439/439/439 446/446/446 443/443/443
f 443/443/443 447/447/447 444/444/444
f 444/444/444 447/447/447 445/445/445
f 446/446/446 448/448/448 443/443/443
f 448/448/448 447/447/447 443/443/443
f 446/446/446 439/439/439 449/449/449
f 449/449/449 448/448/448 446/446/446
f 442/442/442 449/449/449 439/439/439
f 449/449/449 450/450/450 448/448/448
f 442/442/442 450/450/450 449/449/449
f 451/451/451 447/447/447 448/448/448
f 450/450/450 451/451/451 448/448/448
f 452/452/452 445/445/445 447/447/447
f 447/447/447 451/451/451 452/452/452
f 445/445/445 453/453/453 434/434/434
f 445/445/445 452/452/452 453/453/453
f 434/434/434 453/453/453 454/454/454
f 454/454/454 453/453/453 455/455/455
f 456/456/456 453/453/453 452/452/452
f 456/456/456 455/455/455 453/453/453
f 456/456/456 452/452/452 451/451/451
f 457/457/457 455/455/455 456/456/456
f 456/456/456 451/451/451 458/458/458
f 456/456/456 458/458/458 457/457/457
f 459/459/459 451/451/451 450/450/450
f 450/450/450 442/442/442 459/459/459
f 460/460/460 458/458/458 451/451/451
f 451/451/451 459/459/459 460/460/460
f 458/458/458 461/461/461 457/457/457
f 460/460/460 461/461/461 458/458/458
f 457/457/457 461/461/461 462/462/462
f 462/462/462 463/463/463 457/457/457
f 460/460/460 464/464/464 461/461/461
f 462/462/462 465/465/465 463/463/463
f 465/465/465 466/466/466 463/463/463
f 461/461/461 467/467/467 462/462/462
f 465/465/465 462/462/462 467/467/467
f 467/467/467 461/461/461 464/464/464
f 466/466/466 465/465/465 468/468/468
f 467/467/467 464/464/464 469/469/469
f 467/467/467 469/469/469 465/465/465
f 470/470/470 464/464/464 460/460/460
f 470/470/470 460/460/460 459/459/459
f 471/471/471 468/468/468 465/465/465
f 465/465/465 469/469/469 471/471/471
f 468/468/468 471/471/471 472/472/472
f 473/473/473 468/468/468 472/472/472
f 474/474/474 473/473/473 472/472/472
f 469/469/469 475/475/475 471/471/471
f 472/472/472 471/471/471 475/475/475
f 472/472/472 476/476/476 474/474/474
f 475/475/475 476/476/476 472/472/472
f 474/474/474 476/476/476 477/477/477
f 475/475/475 478/478/478 476/476/476
f 479/479/479 477/477/477 476/476/476
f 475/475/475 469/469/469 480/480/480
f 480/480/480 478/478/478 475/475/475
f 464/464/464 480/480/480 469/469/469
f 480/480/480 464/464/464 470/470/470
f 480/480/480 481/481/481 478/478/478
f 481/481/481 480/480/480 470/470/470
f 479/479/479 478/478/478 481/481/481
f 470/470/470 459/459/459 481/481/481
f 482/482/482 479/479/479 481/481/481
f 481/481/481 459/459/459 482/482/482
f 479/479/479 482/482/482 477/477/477
f 442/442/442 482/482/482 459/459/459
f 477/477/477 482/482/482 483/483/483
f 442/442/442 483/483/483 482/482/482
f 486/486/486 485/485/485 484/484/484
f 487/487/487 484/484/484 485/485/485
f 487/487/487 488/488/488 484/484/484
f 489/489/489 484/484/484 488/488/488
f 489/489/489 488/488/488 490/490/490
f 488/488/488 491/491/491 490/490/490
f 491/491/491 492/492/492 490/490/490
f 493/493/493 490/490/490 492/492/492
f 493/493/493 492/492/492 494/494/494
f 492/492/492 495/495/495 494/494/494
f 495/495/495 496/496/496 494/494/494
f 497/497/497 494/494/494 496/496/496
f 500/500/500 499/499/499 498/498/498
f 501/501/501 500/500/500 498/498/498
f 504/504/504 503/503/503 502/502/502
f 505/505/505 502/502/502 503/503/503
f 508/508/508 507/507/507 506/506/506
f 509/509/509 506/506/506 507/507/507
f 512/512/512 511/511/511 510/510/510
f 513/513/513 510/510/510 511/511/511
f 516/516/516 515/515/515 514/514/514
f 517/517/517 514/514/514 515/515/515
