mtllib SM_Metal_Trim_01.mtl
g SM_Metal_Trim_01
#Vertices 96
#Indices 354
#Section 0 Offset 0 NumIndices 354 MaterialIndex 0 MI_Fence_02
v 0.000263 0.028054 -0.000000
v 0.025047 0.030474 -0.000000
v 0.003512 0.030474 -0.000000
v -0.006665 0.006107 -0.000000
v 0.029024 0.028996 -0.000000
v 0.040214 0.019354 -0.000000
v 0.063785 0.019354 -0.000000
v -0.010882 0.000000 0.000000
v -0.010882 0.004149 -0.000000
v 0.114881 0.000000 0.000000
v 0.110665 0.006107 -0.000000
v 0.114881 0.004149 -0.000000
v 0.074975 0.028996 -0.000000
v 0.078953 0.030474 -0.000000
v 0.103739 0.028055 -0.000000
v 0.100488 0.030474 -0.000000
v 0.103737 0.028054 2.000000
v 0.078953 0.030474 2.000000
v 0.100488 0.030474 2.000000
v 0.110665 0.006107 2.000000
v 0.074975 0.028997 2.000000
v 0.063785 0.019354 2.000000
v 0.040214 0.019354 2.000000
v 0.114881 0.000000 2.000000
v 0.114881 0.004149 2.000000
v -0.010882 0.000000 2.000000
v -0.006665 0.006107 2.000000
v -0.010882 0.004149 2.000000
v 0.029024 0.028997 2.000000
v 0.025047 0.030474 2.000000
v 0.000261 0.028055 2.000000
v 0.003512 0.030474 2.000000
v -0.010882 0.004149 -0.000000
v -0.015055 0.000000 0.004000
v -0.010882 0.000000 0.000000
v -0.015054 0.006656 0.004000
v -0.015055 0.000000 1.996000
v -0.010095 0.008959 0.004000
v -0.006665 0.006107 -0.000000
v -0.015054 0.006656 1.996000
v 0.000263 0.028054 -0.000000
v -0.010882 0.004149 2.000000
v -0.010882 0.000000 2.000000
v -0.010095 0.008959 1.996000
v -0.006665 0.006107 2.000000
v 0.000261 0.028055 2.000000
v -0.002901 0.032353 1.995999
v -0.002901 0.032353 0.004000
v -0.000053 0.034474 0.004000
v 0.003512 0.030474 -0.000000
v -0.000053 0.034474 1.996000
v 0.003512 0.030474 2.000000
v 0.026607 0.034474 0.004000
v 0.025047 0.030474 -0.000000
v 0.026607 0.034474 1.996000
v 0.025047 0.030474 2.000000
v 0.030454 0.033045 0.004000
v 0.029024 0.028996 -0.000000
v 0.030454 0.033045 1.996000
v 0.029024 0.028997 2.000000
v 0.041700 0.023354 0.004000
v 0.040214 0.019354 -0.000000
v 0.041700 0.023354 1.996000
v 0.040214 0.019354 2.000000
v 0.063785 0.019354 2.000000
v 0.062299 0.023354 0.004000
v 0.063785 0.019354 -0.000000
v 0.074975 0.028996 -0.000000
v 0.062299 0.023354 1.996000
v 0.074975 0.028997 2.000000
v 0.073546 0.033045 0.004000
v 0.078953 0.030474 -0.000000
v 0.073546 0.033045 1.996000
v 0.078953 0.030474 2.000000
v 0.077393 0.034474 0.004000
v 0.100488 0.030474 -0.000000
v 0.077393 0.034474 1.996000
v 0.100488 0.030474 2.000000
v 0.104053 0.034474 0.004000
v 0.103739 0.028055 -0.000000
v 0.104053 0.034474 1.996000
v 0.103737 0.028054 2.000000
v 0.106900 0.032353 0.004000
v 0.106900 0.032353 1.996000
v 0.114094 0.008959 1.996000
v 0.110665 0.006107 2.000000
v 0.114094 0.008959 0.004000
v 0.110665 0.006107 -0.000000
v 0.114881 0.004149 2.000000
v 0.114881 0.004149 -0.000000
v 0.119054 0.000000 1.996000
v 0.114881 0.000000 2.000000
v 0.119054 0.006656 0.004000
v 0.119054 0.006656 1.996000
v 0.119054 0.000000 0.004000
v 0.114881 0.000000 0.000000
vt 0.119629 0.764160
vt 0.130981 0.765259
vt 0.121033 0.765259
vt 0.116333 0.753906
vt 0.132812 0.764526
vt 0.138184 0.760132
vt 0.149414 0.760132
vt 0.114441 0.750977
vt 0.114441 0.752930
vt 0.173218 0.750977
vt 0.171265 0.753906
vt 0.173096 0.752930
vt 0.154785 0.764526
vt 0.156494 0.765259
vt 0.167969 0.764160
vt 0.166504 0.765259
vt 0.119629 0.801147
vt 0.130981 0.802124
vt 0.121033 0.802124
vt 0.116333 0.790894
vt 0.132812 0.801514
vt 0.138184 0.797119
vt 0.149292 0.797119
vt 0.114441 0.787964
vt 0.114441 0.789795
vt 0.173096 0.787964
vt 0.171265 0.790894
vt 0.173096 0.789795
vt 0.154785 0.801514
vt 0.156494 0.802124
vt 0.167969 0.801147
vt 0.166504 0.802124
vt 0.024841 0.096680
vt 0.027145 0.099121
vt 0.024307 0.098633
vt 0.027573 0.096191
vt 0.958008 0.099121
vt 0.027115 0.094238
vt 0.024094 0.094727
vt 0.957520 0.096191
vt 0.024399 0.083984
vt 0.960449 0.096680
vt 0.960938 0.098633
vt 0.958008 0.094238
vt 0.960938 0.094727
vt 0.960449 0.083984
vt 0.957520 0.083496
vt 0.027374 0.083496
vt 0.027359 0.083008
vt 0.024475 0.082031
vt 0.957520 0.083008
vt 0.960449 0.082031
vt 0.027374 0.071289
vt 0.024658 0.071777
vt 0.957520 0.071289
vt 0.960449 0.071777
vt 0.027405 0.070312
vt 0.024689 0.070312
vt 0.957520 0.070312
vt 0.960449 0.070312
vt 0.027237 0.064453
vt 0.024399 0.064453
vt 0.958008 0.064453
vt 0.960938 0.064453
vt 0.960938 0.055176
vt 0.027237 0.055176
vt 0.024399 0.055176
vt 0.024689 0.049316
vt 0.958008 0.055176
vt 0.960449 0.049316
vt 0.027405 0.048828
vt 0.024658 0.047852
vt 0.957520 0.048828
vt 0.960449 0.047852
vt 0.027374 0.047852
vt 0.024475 0.037598
vt 0.957520 0.047852
vt 0.960449 0.037598
vt 0.027359 0.036621
vt 0.024399 0.035645
vt 0.957520 0.036621
vt 0.960449 0.035645
vt 0.027374 0.036133
vt 0.957520 0.036133
vt 0.958008 0.025391
vt 0.960938 0.024902
vt 0.027115 0.025391
vt 0.024094 0.024902
vt 0.960449 0.022949
vt 0.024841 0.022949
vt 0.958008 0.020020
vt 0.960938 0.020996
vt 0.027573 0.022949
vt 0.957520 0.022949
vt 0.027145 0.020020
vt 0.024307 0.020996
vt1 0.515625 0.535889
vt1 0.514648 0.546875
vt1 0.514648 0.537354
vt1 0.525391 0.532715
vt1 0.515137 0.548584
vt1 0.519531 0.553711
vt1 0.519531 0.564453
vt1 0.528320 0.530762
vt1 0.526367 0.531006
vt1 0.528320 0.587402
vt1 0.525391 0.585449
vt1 0.526367 0.587158
vt1 0.515137 0.569580
vt1 0.514648 0.571289
vt1 0.515625 0.582275
vt1 0.514648 0.581055
vt1 0.178101 0.583496
vt1 0.179077 0.572510
vt1 0.179077 0.582275
vt1 0.168213 0.586670
vt1 0.178467 0.570801
vt1 0.174194 0.565674
vt1 0.174194 0.554932
vt1 0.165405 0.588623
vt1 0.167236 0.588623
vt1 0.165405 0.532227
vt1 0.168213 0.533936
vt1 0.167236 0.532227
vt1 0.178467 0.549805
vt1 0.179077 0.548096
vt1 0.178101 0.537109
vt1 0.179077 0.538574
vt1 0.949219 0.052734
vt1 0.946777 0.050293
vt1 0.949707 0.050781
vt1 0.946289 0.053223
vt1 0.052917 0.050293
vt1 0.946777 0.055176
vt1 0.949707 0.054688
vt1 0.053314 0.053223
vt1 0.949219 0.064941
vt1 0.050690 0.052734
vt1 0.050171 0.050781
vt1 0.052887 0.055176
vt1 0.049988 0.054688
vt1 0.050293 0.064941
vt1 0.053131 0.065430
vt1 0.946777 0.065430
vt1 0.946777 0.065918
vt1 0.949219 0.066895
vt1 0.053131 0.065918
vt1 0.050354 0.066895
vt1 0.946777 0.077148
vt1 0.949219 0.076660
vt1 0.053101 0.077148
vt1 0.050476 0.076660
vt1 0.946777 0.077637
vt1 0.949219 0.078125
vt1 0.053131 0.077637
vt1 0.050537 0.078125
vt1 0.946777 0.083984
vt1 0.949707 0.083496
vt1 0.052979 0.083984
vt1 0.050262 0.083496
vt1 0.050262 0.092773
vt1 0.946777 0.092773
vt1 0.949707 0.092773
vt1 0.949219 0.098145
vt1 0.052979 0.092773
vt1 0.050537 0.098145
vt1 0.946777 0.098633
vt1 0.949219 0.099609
vt1 0.053131 0.098633
vt1 0.050476 0.099609
vt1 0.946777 0.099609
vt1 0.949219 0.109375
vt1 0.053101 0.099609
vt1 0.050354 0.109375
vt1 0.946777 0.110352
vt1 0.949219 0.111328
vt1 0.053131 0.110352
vt1 0.050293 0.111328
vt1 0.946777 0.110840
vt1 0.053131 0.110840
vt1 0.052887 0.121094
vt1 0.049988 0.121582
vt1 0.946777 0.121094
vt1 0.949707 0.121582
vt1 0.050690 0.123535
vt1 0.949219 0.123535
vt1 0.052917 0.125977
vt1 0.050171 0.125488
vt1 0.946289 0.123535
vt1 0.053314 0.123535
vt1 0.946777 0.125977
vt1 0.949707 0.125488
vn 0.000000 -0.000000 -1.000000
vn 0.000000 -0.000000 -1.000000
vn 0.000000 -0.000000 -1.000000
vn 0.000000 -0.000000 -1.000000
vn 0.000000 -0.000000 -1.000000
vn 0.000000 -0.000000 -1.000000
vn 0.000000 -0.000000 -1.000000
vn 0.000000 -0.000000 -1.000000
vn 0.000000 -0.000000 -1.000000
vn 0.000000 -0.000000 -1.000000
vn 0.000000 -0.000000 -1.000000
vn 0.000000 -0.000000 -1.000000
vn 0.000000 -0.000000 -1.000000
vn 0.000000 -0.000000 -1.000000
vn 0.000000 -0.000000 -1.000000
vn 0.000000 -0.000000 -1.000000
vn 0.000000 0.000000 1.000000
vn 0.000000 0.000000 1.000000
vn 0.000000 0.000000 1.000000
vn 0.000000 0.000000 1.000000
vn 0.000000 0.000000 1.000000
vn 0.000000 0.000000 1.000000
vn 0.000000 0.000000 1.000000
vn 0.000000 0.000000 1.000000
vn 0.000000 0.000000 1.000000
vn 0.000000 0.000000 1.000000
vn 0.000000 0.000000 1.000000
vn 0.000000 0.000000 1.000000
vn 0.000000 0.000000 1.000000
vn 0.000000 0.000000 1.000000
vn 0.000000 0.000000 1.000000
vn 0.000000 0.000000 1.000000
vn -0.527559 0.346457 -0.771653
vn -0.921260 -0.000000 -0.393701
vn -0.692913 -0.000000 -0.724409
vn -0.779528 0.496063 -0.377953
vn -0.921260 0.000000 0.393701
vn -0.669291 0.590551 -0.456693
vn -0.503937 0.433071 -0.748031
vn -0.779528 0.496063 0.377953
vn -0.543307 0.330709 -0.771653
vn -0.527559 0.346457 0.771653
vn -0.692913 0.000000 0.724409
vn -0.669291 0.590551 0.456693
vn -0.503937 0.433071 0.748031
vn -0.543307 0.330709 0.771653
vn -0.740157 0.535433 0.409449
vn -0.740157 0.535433 -0.409449
vn -0.307087 0.866142 -0.401575
vn -0.149606 0.629921 -0.763779
vn -0.307087 0.866142 0.401575
vn -0.149606 0.629921 0.763779
vn 0.165354 0.913386 -0.377953
vn 0.110236 0.685039 -0.724409
vn 0.165354 0.913386 0.377953
vn 0.110236 0.685039 0.724409
vn 0.464567 0.795275 -0.377953
vn 0.362205 0.590551 -0.724409
vn 0.464567 0.795276 0.377953
vn 0.362205 0.590551 0.724409
vn 0.314961 0.842520 -0.433071
vn 0.236220 0.637795 -0.732283
vn 0.314961 0.842520 0.433071
vn 0.236220 0.637795 0.732283
vn -0.236220 0.637795 0.732283
vn -0.314961 0.842520 -0.433071
vn -0.236220 0.637795 -0.732283
vn -0.362205 0.590551 -0.724409
vn -0.314961 0.842520 0.433071
vn -0.362205 0.590551 0.724409
vn -0.464567 0.795275 -0.377953
vn -0.110236 0.685039 -0.724409
vn -0.464567 0.795276 0.377953
vn -0.110236 0.685039 0.724409
vn -0.165354 0.913386 -0.377953
vn 0.149606 0.629921 -0.763779
vn -0.165354 0.913386 0.377953
vn 0.149606 0.629921 0.763779
vn 0.307087 0.866142 -0.401575
vn 0.543307 0.330709 -0.771653
vn 0.307087 0.866142 0.401575
vn 0.543307 0.330709 0.771653
vn 0.740157 0.535433 -0.409449
vn 0.740157 0.535433 0.409449
vn 0.669291 0.590551 0.456693
vn 0.503937 0.433071 0.748031
vn 0.669291 0.590551 -0.456693
vn 0.503937 0.433071 -0.748031
vn 0.527559 0.346457 0.771653
vn 0.527559 0.346457 -0.771653
vn 0.921260 0.000000 0.393701
vn 0.692913 0.000000 0.724409
vn 0.779528 0.496063 -0.377953
vn 0.779528 0.496063 0.377953
vn 0.921260 -0.000000 -0.393701
vn 0.692913 -0.000000 -0.724409
tan 0.007874 -1.000000 0.000000 1.000000
tan -0.007874 -1.000000 0.000000 1.000000
tan 0.000000 -1.000000 0.000000 1.000000
tan -0.007874 -1.000000 0.000000 1.000000
tan -0.007874 -1.000000 0.000000 1.000000
tan 0.000000 -1.000000 0.000000 1.000000
tan 0.000000 -1.000000 0.000000 1.000000
tan -0.031496 -1.000000 0.000000 1.000000
tan -0.078740 -1.000000 0.000000 1.000000
tan 0.031496 -1.000000 0.000000 1.000000
tan 0.007874 -1.000000 0.000000 1.000000
tan 0.078740 -1.000000 0.000000 1.000000
tan 0.007874 -1.000000 0.000000 1.000000
tan 0.007874 -1.000000 0.000000 1.000000
tan -0.007874 -1.000000 0.000000 1.000000
tan 0.000000 -1.000000 0.000000 1.000000
tan 0.000000 -1.000000 0.000000 1.000000
tan 0.007874 -1.000000 0.000000 1.000000
tan 0.007874 -1.000000 0.000000 1.000000
tan 0.007874 -1.000000 0.000000 1.000000
tan 0.007874 -1.000000 0.000000 1.000000
tan 0.000000 -1.000000 0.000000 1.000000
tan 0.000000 -1.000000 0.000000 1.000000
tan 0.031496 -1.000000 0.000000 1.000000
tan 0.078740 -1.000000 0.000000 1.000000
tan -0.031496 -1.000000 0.000000 1.000000
tan -0.007874 -1.000000 0.000000 1.000000
tan -0.078740 -1.000000 0.000000 1.000000
tan -0.007874 -1.000000 0.000000 1.000000
tan -0.007874 -1.000000 0.000000 1.000000
tan 0.000000 -1.000000 0.000000 1.000000
tan 0.000000 -1.000000 0.000000 1.000000
tan 0.485585 0.867010 0.057288 1.000000
tan 0.071300 0.986112 -0.166842 1.000000
tan 0.199640 0.960258 -0.190960 1.000000
tan 0.525451 0.846116 0.026784 1.000000
tan 0.071300 0.986112 0.166842 1.000000
tan 0.625085 0.777233 0.088970 1.000000
tan 0.548081 0.829996 0.111290 1.000000
tan 0.525451 0.846116 -0.026784 1.000000
tan 0.631037 0.763283 -0.117180 1.000000
tan 0.485585 0.867010 -0.057288 1.000000
tan 0.199640 0.960258 0.190960 1.000000
tan 0.625085 0.777233 -0.088970 1.000000
tan 0.548081 0.829996 -0.111290 1.000000
tan 0.631037 0.763283 0.117180 1.000000
tan 0.569657 0.824354 -0.048236 1.000000
tan 0.569657 0.824354 0.048236 1.000000
tan 0.917106 0.379255 0.116684 1.000000
tan 0.960010 0.283031 0.045384 1.000000
tan 0.917106 0.379255 -0.116684 1.000000
tan 0.960010 0.283031 -0.045384 1.000000
tan 0.987290 -0.149358 0.070990 1.000000
tan 0.988034 -0.173352 -0.013578 1.000000
tan 0.987290 -0.149358 -0.070990 1.000000
tan 0.988034 -0.173352 0.013578 1.000000
tan 0.875504 -0.469651 0.087916 1.000000
tan 0.883688 -0.459173 0.067518 1.000000
tan 0.875504 -0.469651 -0.087916 1.000000
tan 0.883688 -0.459173 -0.067518 1.000000
tan 0.937008 -0.337281 0.025296 1.000000
tan 0.956600 -0.281047 0.063798 1.000000
tan 0.940418 -0.330461 -0.041044 1.000000
tan 0.950090 -0.305971 -0.039990 1.000000
tan 0.956600 0.281047 0.063798 1.000000
tan 0.940418 0.330461 -0.041044 1.000000
tan 0.950090 0.305971 -0.039990 1.000000
tan 0.883688 0.459173 -0.067518 1.000000
tan 0.937008 0.337281 0.025296 1.000000
tan 0.883688 0.459173 0.067518 1.000000
tan 0.875504 0.469651 -0.087916 1.000000
tan 0.988034 0.173352 0.013578 1.000000
tan 0.875504 0.469651 0.087916 1.000000
tan 0.988034 0.173352 -0.013578 1.000000
tan 0.987290 0.149358 -0.070990 1.000000
tan 0.960010 -0.283031 -0.045384 1.000000
tan 0.987290 0.149358 0.070990 1.000000
tan 0.960010 -0.283031 0.045384 1.000000
tan 0.917106 -0.379255 -0.116684 1.000000
tan 0.631037 -0.763283 0.117180 1.000000
tan 0.917106 -0.379255 0.116684 1.000000
tan 0.631037 -0.763283 -0.117180 1.000000
tan 0.569657 -0.824354 -0.048236 1.000000
tan 0.569657 -0.824354 0.048236 1.000000
tan 0.625085 -0.777233 0.088970 1.000000
tan 0.548081 -0.829996 0.111290 1.000000
tan 0.625085 -0.777233 -0.088970 1.000000
tan 0.548081 -0.829996 -0.111290 1.000000
tan 0.485585 -0.867010 0.057288 1.000000
tan 0.485585 -0.867010 -0.057288 1.000000
tan 0.071300 -0.986112 -0.166842 1.000000
tan 0.199640 -0.960258 -0.190960 1.000000
tan 0.525451 -0.846116 -0.026784 1.000000
tan 0.525451 -0.846116 0.026784 1.000000
tan 0.071300 -0.986112 0.166842 1.000000
tan 0.199640 -0.960258 0.190960 1.000000
f 3/3/3 2/2/2 1/1/1
f 1/1/1 2/2/2 4/4/4
f 2/2/2 5/5/5 4/4/4
f 6/6/6 4/4/4 5/5/5
f 6/6/6 7/7/7 4/4/4
f 9/9/9 4/4/4 8/8/8
f 8/8/8 4/4/4 10/10/10
f 11/11/11 4/4/4 7/7/7
f 11/11/11 10/10/10 4/4/4
f 11/11/11 12/12/12 10/10/10
f 7/7/7 13/13/13 11/11/11
f 14/14/14 11/11/11 13/13/13
f 15/15/15 11/11/11 14/14/14
f 16/16/16 15/15/15 14/14/14
f 19/19/19 18/18/18 17/17/17
f 17/17/17 18/18/18 20/20/20
f 18/18/18 21/21/21 20/20/20
f 22/22/22 20/20/20 21/21/21
f 22/22/22 23/23/23 20/20/20
f 25/25/25 20/20/20 24/24/24
f 24/24/24 20/20/20 26/26/26
f 27/27/27 20/20/20 23/23/23
f 27/27/27 26/26/26 20/20/20
f 27/27/27 28/28/28 26/26/26
f 23/23/23 29/29/29 27/27/27
f 30/30/30 27/27/27 29/29/29
f 31/31/31 27/27/27 30/30/30
f 32/32/32 31/31/31 30/30/30
f 35/35/35 34/34/34 33/33/33
f 36/36/36 33/33/33 34/34/34
f 34/34/34 37/37/37 36/36/36
f 36/36/36 38/38/38 33/33/33
f 39/39/39 33/33/33 38/38/38
f 37/37/37 40/40/40 36/36/36
f 38/38/38 36/36/36 40/40/40
f 38/38/38 41/41/41 39/39/39
f 37/37/37 42/42/42 40/40/40
f 37/37/37 43/43/43 42/42/42
f 40/40/40 42/42/42 44/44/44
f 40/40/40 44/44/44 38/38/38
f 45/45/45 44/44/44 42/42/42
f 44/44/44 45/45/45 46/46/46
f 44/44/44 47/47/47 38/38/38
f 46/46/46 47/47/47 44/44/44
f 41/41/41 38/38/38 48/48/48
f 48/48/48 38/38/38 47/47/47
f 48/48/48 49/49/49 41/41/41
f 48/48/48 47/47/47 49/49/49
f 50/50/50 41/41/41 49/49/49
f 51/51/51 47/47/47 46/46/46
f 51/51/51 49/49/49 47/47/47
f 52/52/52 51/51/51 46/46/46
f 50/50/50 49/49/49 53/53/53
f 53/53/53 49/49/49 51/51/51
f 54/54/54 50/50/50 53/53/53
f 52/52/52 55/55/55 51/51/51
f 51/51/51 55/55/55 53/53/53
f 55/55/55 52/52/52 56/56/56
f 53/53/53 57/57/57 54/54/54
f 57/57/57 53/53/53 55/55/55
f 58/58/58 54/54/54 57/57/57
f 55/55/55 56/56/56 59/59/59
f 55/55/55 59/59/59 57/57/57
f 60/60/60 59/59/59 56/56/56
f 57/57/57 61/61/61 58/58/58
f 57/57/57 59/59/59 61/61/61
f 62/62/62 58/58/58 61/61/61
f 59/59/59 60/60/60 63/63/63
f 63/63/63 61/61/61 59/59/59
f 63/63/63 60/60/60 64/64/64
f 63/63/63 64/64/64 65/65/65
f 62/62/62 61/61/61 66/66/66
f 66/66/66 61/61/61 63/63/63
f 67/67/67 62/62/62 66/66/66
f 66/66/66 68/68/68 67/67/67
f 69/69/69 63/63/63 65/65/65
f 63/63/63 69/69/69 66/66/66
f 65/65/65 70/70/70 69/69/69
f 71/71/71 68/68/68 66/66/66
f 66/66/66 69/69/69 71/71/71
f 68/68/68 71/71/71 72/72/72
f 73/73/73 69/69/69 70/70/70
f 73/73/73 71/71/71 69/69/69
f 70/70/70 74/74/74 73/73/73
f 75/75/75 72/72/72 71/71/71
f 71/71/71 73/73/73 75/75/75
f 72/72/72 75/75/75 76/76/76
f 77/77/77 73/73/73 74/74/74
f 77/77/77 75/75/75 73/73/73
f 74/74/74 78/78/78 77/77/77
f 76/76/76 75/75/75 79/79/79
f 75/75/75 77/77/77 79/79/79
f 76/76/76 79/79/79 80/80/80
f 78/78/78 81/81/81 77/77/77
f 81/81/81 79/79/79 77/77/77
f 78/78/78 82/82/82 81/81/81
f 79/79/79 83/83/83 80/80/80
f 83/83/83 79/79/79 81/81/81
f 84/84/84 81/81/81 82/82/82
f 81/81/81 84/84/84 83/83/83
f 82/82/82 85/85/85 84/84/84
f 84/84/84 85/85/85 83/83/83
f 86/86/86 85/85/85 82/82/82
f 80/80/80 83/83/83 87/87/87
f 87/87/87 83/83/83 85/85/85
f 87/87/87 88/88/88 80/80/80
f 86/86/86 89/89/89 85/85/85
f 88/88/88 87/87/87 90/90/90
f 92/92/92 91/91/91 89/89/89
f 93/93/93 90/90/90 87/87/87
f 87/87/87 85/85/85 93/93/93
f 94/94/94 89/89/89 91/91/91
f 94/94/94 85/85/85 89/89/89
f 94/94/94 93/93/93 85/85/85
f 91/91/91 95/95/95 94/94/94
f 95/95/95 93/93/93 94/94/94
f 95/95/95 90/90/90 93/93/93
f 95/95/95 96/96/96 90/90/90
