mtllib SM_Metal_Screen_Floor.mtl
g SM_Metal_Screen_Floor
#Vertices 336
#Indices 954
#Section 0 Offset 0 NumIndices 36 MaterialIndex 0 MI_Metal_Screen_01
#Section 1 Offset 36 NumIndices 918 MaterialIndex 1 MI_Metal_Rusty_01
v 1.078920 -0.003245 1.109005
v 0.163250 -0.003246 0.160202
v 1.078920 -0.003246 0.160202
v 0.163249 -0.003245 1.109005
v 0.163250 -0.003245 2.272569
v 1.078920 -0.003245 1.187785
v 1.078920 -0.003245 2.272569
v 0.163249 -0.003245 1.187785
v 1.170042 -0.003245 1.109005
v 1.987014 -0.003246 0.160202
v 1.989616 -0.003245 1.109005
v 1.170042 -0.003246 0.160202
v 1.981750 -0.003245 2.272569
v 1.170042 -0.003245 2.272569
v 1.170042 -0.003245 1.187785
v 1.985037 -0.003245 1.187785
v 2.012125 -0.003245 1.109005
v 2.933682 -0.003246 0.160202
v 2.933683 -0.003245 1.109005
v 2.012125 -0.003246 0.160202
v 2.933683 -0.003245 1.662301
v 2.012125 -0.003245 1.662301
v 2.012125 -0.003245 1.161257
v 2.933682 -0.003245 1.161257
v 1.069814 -0.016802 1.186093
v 1.077314 -0.016802 1.193594
v 1.084814 -0.024302 1.178593
v 0.161458 -0.039771 0.155529
v 0.168958 -0.032271 0.170529
v 0.176458 -0.032271 0.163029
v 0.161458 -0.039771 2.237506
v 0.176458 -0.032271 2.230006
v 0.168958 -0.032271 2.222506
v 1.084814 -0.024302 1.114913
v 1.077314 -0.016802 1.099913
v 1.069814 -0.016802 1.107413
v 2.088766 0.017624 1.757762
v 2.971933 0.017624 1.757762
v 2.971933 -0.032271 1.757762
v 2.088766 -0.032271 1.757762
v 2.971933 -0.039771 1.750262
v 2.073789 -0.039771 1.750262
v 2.897883 -0.039771 1.610664
v 1.917025 -0.039771 1.610664
v 2.882883 -0.032271 1.603164
v 1.917050 -0.032271 1.603164
v 1.917050 0.017624 1.603164
v 2.882883 0.017624 1.603164
v 1.917025 0.025124 1.610664
v 2.897883 0.025124 1.610664
v 2.073789 0.025124 1.750262
v 2.971933 0.025124 1.750262
v 2.088766 0.017624 1.757762
v 2.971933 0.017624 1.757762
v 2.895248 -0.001613 1.186093
v 2.035014 -0.001613 1.186093
v 2.895248 0.005887 1.178593
v 2.020041 0.005887 1.178593
v 2.895248 0.005887 1.114913
v 2.020014 0.005887 1.114913
v 2.035014 -0.001613 1.107413
v 2.895248 -0.001613 1.107413
v 2.027514 -0.001613 1.099913
v 2.027514 -0.016802 1.099913
v 2.035014 -0.016802 1.107413
v 2.895248 -0.016802 1.107413
v 2.020014 -0.024302 1.114913
v 2.895248 -0.024302 1.114913
v 2.027514 -0.024302 1.146753
v 2.895248 -0.024302 1.146753
v 2.895248 -0.024302 1.178593
v 1.911021 -0.024302 1.146753
v 1.918521 -0.024302 1.114913
v 2.020041 -0.024302 1.178593
v 1.918548 -0.024302 1.178593
v 2.035014 -0.016802 1.186093
v 2.027488 -0.016802 1.193594
v 2.027488 -0.001613 1.193594
v 2.895248 -0.016802 1.186093
v 2.035014 -0.001613 1.186093
v 2.895248 -0.001613 1.186093
v 1.164874 -0.024302 1.178593
v 1.172374 -0.024302 1.146753
v 1.903521 -0.016802 1.186093
v 1.910995 -0.016802 1.193594
v 1.910995 -0.001613 1.193594
v 1.903521 -0.001613 1.186093
v 1.179874 -0.001613 1.186093
v 1.179874 -0.016802 1.186093
v 1.172374 -0.001613 1.193594
v 1.172374 -0.016802 1.193594
v 1.172374 -0.016802 1.193594
v 1.084814 -0.024302 1.178593
v 1.077314 -0.024302 1.146753
v 0.158505 -0.024302 1.178593
v 0.158505 -0.024302 1.146753
v 0.158505 -0.024302 1.114913
v 1.164874 -0.024302 1.114913
v 1.084814 -0.024302 1.114913
v 1.069814 -0.016802 1.107413
v 0.158505 -0.016802 1.107413
v 0.158505 -0.001613 1.107413
v 1.077314 -0.001613 1.099913
v 1.077314 -0.016802 1.099913
v 1.069814 -0.001613 1.107413
v 0.158505 0.005887 1.114913
v 1.084814 0.005887 1.114913
v 0.158505 0.005887 1.178593
v 1.084814 0.005887 1.178593
v 1.069814 -0.001613 1.186093
v 0.158505 -0.001613 1.186093
v 0.158505 -0.016802 1.186093
v 1.077314 -0.001613 1.193594
v 1.077314 -0.016802 1.193594
v 1.069814 -0.016802 1.186093
v 0.158505 -0.024302 1.178593
v 1.084814 -0.024302 1.178593
v 1.172374 -0.016802 1.099913
v 1.179874 -0.016802 1.107413
v 1.903521 -0.016802 1.107413
v 1.911021 -0.016802 1.099913
v 1.911021 -0.001613 1.099913
v 1.179874 -0.001613 1.107413
v 1.903521 -0.001613 1.107413
v 1.164874 0.005887 1.114913
v 1.918521 0.005887 1.114913
v 1.164874 0.005887 1.178593
v 1.918548 0.005887 1.178593
v 1.903521 -0.001613 1.186093
v 1.179874 -0.001613 1.186093
v 1.910995 -0.016802 1.193594
v 1.910834 -0.016802 1.611738
v 1.918334 -0.024302 1.611738
v 1.918548 -0.024302 1.178593
v 2.019827 -0.024302 1.611738
v 2.020041 -0.024302 1.178593
v 2.027488 -0.016802 1.193594
v 2.027327 -0.016802 1.611738
v 2.027327 -0.001613 1.611738
v 2.027488 -0.001613 1.193594
v 2.019827 0.005887 1.611738
v 2.020041 0.005887 1.178593
v 2.035014 -0.001613 1.186093
v 1.918548 0.005887 1.178593
v 1.918334 0.005887 1.611738
v 2.020014 0.005887 1.114913
v 1.910995 -0.001613 1.193594
v 1.903521 -0.001613 1.186093
v 1.910834 -0.001613 1.611738
v 1.910834 -0.016802 1.611738
v 1.910995 -0.016802 1.193594
v 1.918521 0.005887 1.114913
v 2.027514 -0.001613 1.099913
v 2.035014 -0.001613 1.107413
v 2.020014 0.005887 0.160840
v 2.027514 -0.001613 0.160840
v 2.027514 -0.016802 0.160840
v 1.918521 0.005887 0.160840
v 2.027514 -0.016802 1.099913
v 2.020014 -0.024302 0.160840
v 2.020014 -0.024302 1.114913
v 1.918521 -0.024302 0.160840
v 1.918521 -0.024302 1.114913
v 1.911021 -0.016802 1.099913
v 1.911021 -0.016802 0.160840
v 1.911021 -0.001613 1.099913
v 1.903521 -0.001613 1.107413
v 1.911021 -0.001613 0.160840
v 1.911021 -0.016802 1.099913
v 1.911021 -0.016802 0.160840
v 2.971933 0.017624 1.757762
v 2.979433 -0.032271 1.750262
v 2.971933 -0.032271 1.757762
v 2.979433 0.017624 1.750262
v 2.979433 -0.032271 0.017932
v 2.971933 0.017624 1.757762
v 2.971933 0.025124 1.750262
v 2.979433 0.017624 0.017932
v 2.971933 -0.032271 0.010432
v 2.971933 0.017624 0.010432
v 2.971933 0.025124 0.017932
v 2.971933 0.017624 0.010432
v 2.897883 0.025124 1.610664
v 2.897883 0.025124 0.155529
v 2.890383 0.017624 1.595664
v 2.882883 0.017624 1.603164
v 2.882883 -0.032271 1.603164
v 2.890383 0.017624 0.170529
v 2.882883 0.017624 0.163029
v 2.890383 -0.032271 1.595664
v 2.890383 -0.032271 0.170529
v 2.882883 -0.032271 0.163029
v 2.897883 -0.039771 1.610664
v 2.897883 -0.039771 0.155529
v 2.971933 -0.039771 0.017932
v 2.971933 -0.039771 1.750262
v 2.971933 -0.032271 0.010432
v 2.979433 -0.032271 0.017932
v 2.979433 -0.032271 1.750262
v 2.971933 -0.032271 1.757762
v 0.161458 -0.039771 0.155529
v 0.007500 -0.039771 2.324538
v 0.161458 -0.039771 2.237506
v 0.007500 -0.039771 0.017932
v 0.000000 -0.032271 2.324538
v 0.007500 -0.032271 2.332038
v 0.000000 -0.032271 0.017932
v 0.007500 -0.032271 0.010432
v 0.000000 0.017624 2.324538
v 0.007500 0.017624 2.332038
v 0.007500 0.025124 2.324538
v 0.000000 0.017624 0.017932
v 0.007500 0.017624 0.010432
v 0.007500 0.025124 0.017932
v 0.161458 0.025124 0.155529
v 0.161458 0.025124 2.237506
v 0.168958 0.017624 2.222506
v 0.176458 0.017624 2.230006
v 0.168958 0.017624 0.170529
v 0.176458 0.017624 0.163029
v 0.168958 -0.032271 2.222506
v 0.176458 -0.032271 2.230006
v 0.168958 -0.032271 0.170529
v 0.176458 -0.032271 0.163029
v 0.161458 -0.039771 2.237506
v 0.161458 -0.039771 0.155529
v 1.172374 -0.001613 2.232681
v 1.172374 -0.001613 1.193594
v 1.172374 -0.016802 1.193594
v 1.172374 -0.016802 2.232681
v 1.164874 -0.024302 2.232681
v 1.164874 -0.024302 1.178593
v 1.084814 -0.024302 1.178593
v 1.084814 -0.024302 2.232681
v 1.077314 -0.016802 1.193594
v 1.077314 -0.016802 2.232681
v 1.077314 -0.001613 1.193594
v 1.077314 -0.001613 2.232681
v 1.084814 0.005887 2.232681
v 1.084814 0.005887 1.178593
v 1.069814 -0.001613 1.186093
v 1.164874 0.005887 1.178593
v 1.164874 0.005887 2.232681
v 1.172374 -0.001613 1.193594
v 1.172374 -0.001613 2.232681
v 1.179874 -0.001613 1.186093
v 1.164874 0.005887 1.114913
v 1.084814 0.005887 1.114913
v 1.172374 -0.001613 1.099913
v 1.179874 -0.001613 1.107413
v 1.164874 0.005887 0.158138
v 1.172374 -0.001613 0.158138
v 1.084814 0.005887 0.158138
v 1.077314 -0.001613 1.099913
v 1.069814 -0.001613 1.107413
v 1.077314 -0.001613 0.158138
v 1.077314 -0.016802 0.158138
v 1.077314 -0.016802 1.099913
v 1.084814 -0.024302 0.158138
v 1.084814 -0.024302 1.114913
v 1.164874 -0.024302 1.114913
v 1.164874 -0.024302 0.158138
v 1.172374 -0.016802 1.099913
v 1.172374 -0.016802 0.158138
v 1.172374 -0.001613 1.099913
v 1.172374 -0.001613 0.158138
v 1.179874 -0.001613 1.107413
v 1.179874 -0.016802 1.107413
v 2.882883 0.017624 0.163029
v 0.176458 -0.032271 0.163029
v 0.176458 0.017624 0.163029
v 2.882883 -0.032271 0.163029
v 2.897883 -0.039771 0.155529
v 0.161458 -0.039771 0.155529
v 2.971933 -0.039771 0.017932
v 0.007500 -0.039771 0.017932
v 0.007500 -0.032271 0.010432
v 2.971933 -0.032271 0.010432
v 2.971933 0.017624 0.010432
v 0.007500 0.017624 0.010432
v 0.007500 0.025124 0.017932
v 2.971933 0.025124 0.017932
v 0.161458 0.025124 0.155529
v 2.897883 0.025124 0.155529
v 2.882883 0.017624 0.163029
v 0.176458 0.017624 0.163029
v 1.917050 0.017624 1.603164
v 1.917025 0.025124 1.610664
v 1.909525 0.017624 1.610664
v 1.907537 0.017624 2.222506
v 1.914988 0.025124 2.237506
v 1.900013 0.017624 2.230006
v 2.073789 0.025124 1.750262
v 2.072042 0.025124 2.324538
v 2.079542 0.017624 2.324538
v 2.072019 0.017624 2.332038
v 2.081244 0.017624 1.765262
v 2.088766 0.017624 1.757762
v 2.079542 -0.032271 2.324538
v 2.088766 -0.032271 1.757762
v 2.081244 -0.032271 1.765262
v 2.073789 -0.039771 1.750262
v 2.072042 -0.039771 2.324538
v 2.072019 -0.032271 2.332038
v 1.914988 -0.039771 2.237506
v 1.917025 -0.039771 1.610664
v 1.907537 -0.032271 2.222506
v 1.900013 -0.032271 2.230006
v 1.909525 0.017624 1.610664
v 1.907537 0.017624 2.222506
v 1.909525 -0.032271 1.610664
v 1.917050 -0.032271 1.603164
v 1.917050 0.017624 1.603164
v 1.917050 -0.032271 1.603164
v 0.176458 -0.032271 2.230006
v 1.914988 -0.039771 2.237506
v 1.900013 -0.032271 2.230006
v 0.161458 -0.039771 2.237506
v 0.007500 -0.039771 2.324538
v 2.072042 -0.039771 2.324538
v 2.072019 -0.032271 2.332038
v 0.007500 -0.032271 2.332038
v 0.007500 0.017624 2.332038
v 2.072019 0.017624 2.332038
v 2.079542 -0.032271 2.324538
v 2.079542 0.017624 2.324538
v 0.007500 0.025124 2.324538
v 2.072042 0.025124 2.324538
v 1.914988 0.025124 2.237506
v 0.161458 0.025124 2.237506
v 0.176458 0.017624 2.230006
v 1.900013 0.017624 2.230006
v 1.900013 -0.032271 2.230006
v 0.176458 -0.032271 2.230006
v 1.907537 0.017624 2.222506
v 1.907537 -0.032271 2.222506
vt 1.000000 1.000000
vt 0.000000 0.000000
vt 1.000000 0.000000
vt 0.000000 1.000000
vt 0.000000 1.000000
vt 1.000000 0.000000
vt 1.000000 1.000000
vt 0.000000 0.000000
vt 0.000000 1.000000
vt 0.825684 0.000000
vt 0.825684 1.000000
vt 0.000000 0.000000
vt 0.820312 1.000000
vt 0.000000 1.000000
vt 0.000000 0.000000
vt 0.820312 0.000000
vt 0.000000 1.000000
vt 0.856934 0.000000
vt 0.856934 1.000000
vt 0.000000 0.000000
vt 0.856934 0.493652
vt 0.000000 0.493652
vt 0.000000 0.000000
vt 0.856934 0.000000
vt 1.301758 0.464844
vt 1.305664 0.467773
vt 1.298828 0.473633
vt 1.167969 1.100159
vt 1.170898 1.091614
vt 1.175781 1.094910
vt 1.167969 0.058594
vt 1.175781 0.063477
vt 1.170898 0.066895
vt 1.266602 0.473633
vt 1.259766 0.467773
vt 1.263672 0.464844
vt 0.042511 0.452148
vt 0.042511 0.010254
vt 0.067444 0.010254
vt 0.067444 0.452148
vt 0.072632 0.010254
vt 0.072632 0.459473
vt 0.142334 0.047363
vt 0.142334 0.538086
vt 0.147583 0.054688
vt 0.147583 0.538086
vt 0.172363 0.538086
vt 0.172363 0.054688
vt 0.177490 0.538086
vt 0.177612 0.047363
vt 0.247314 0.459961
vt 0.247314 0.010254
vt 0.252441 0.452148
vt 0.252441 0.010254
vt 1.210938 1.380859
vt 1.210938 0.950592
vt 1.216797 1.380859
vt 1.216797 0.943085
vt 1.248047 1.380859
vt 1.248047 0.942993
vt 1.253906 0.950470
vt 1.253906 1.380615
vt 1.251953 0.945770
vt 1.258789 0.944336
vt 1.260742 0.949554
vt 1.261719 1.380127
vt 1.266602 0.942139
vt 1.266602 1.379883
vt 1.283203 0.945740
vt 1.283203 1.379883
vt 1.298828 1.379883
vt 1.283203 0.887268
vt 1.266602 0.890991
vt 1.298828 0.942078
vt 1.298828 0.890930
vt 1.304688 0.949341
vt 1.306641 0.944153
vt 1.313477 0.945496
vt 1.304688 1.379883
vt 1.312500 0.950226
vt 1.312500 1.380127
vt 1.298828 0.513916
vt 1.283203 0.517578
vt 1.304688 0.883667
vt 1.306641 0.888855
vt 1.313477 0.887512
vt 1.312500 0.882812
vt 1.311523 0.521240
vt 1.304688 0.521240
vt 1.311523 0.515869
vt 1.304688 0.515869
vt 1.307617 0.517090
vt 1.298828 0.473633
vt 1.282227 0.470215
vt 1.298828 0.010254
vt 1.282227 0.010254
vt 1.266602 0.010254
vt 1.266602 0.513916
vt 1.266602 0.473633
vt 1.261719 0.466309
vt 1.261719 0.010254
vt 1.253906 0.010254
vt 1.253906 0.471680
vt 1.261719 0.471680
vt 1.253906 0.466309
vt 1.248047 0.010254
vt 1.248047 0.473633
vt 1.216797 0.010254
vt 1.216797 0.473633
vt 1.210938 0.466309
vt 1.210938 0.010254
vt 1.204102 0.010254
vt 1.210938 0.471680
vt 1.204102 0.471680
vt 1.204102 0.466309
vt 1.198242 0.010254
vt 1.198242 0.473633
vt 1.257812 0.517090
vt 1.261719 0.521484
vt 1.260742 0.883728
vt 1.258789 0.888916
vt 1.251953 0.887634
vt 1.253906 0.521240
vt 1.253906 0.882874
vt 1.248047 0.513428
vt 1.248047 0.890503
vt 1.216797 0.513428
vt 1.216797 0.890442
vt 1.210938 0.882935
vt 1.210938 0.520996
vt 0.416992 0.527832
vt 0.417236 0.737061
vt 0.412109 0.736816
vt 0.412109 0.520020
vt 0.361328 0.736816
vt 0.361328 0.520020
vt 0.356689 0.527832
vt 0.356201 0.737061
vt 0.348389 0.737061
vt 0.349121 0.527832
vt 0.343262 0.736816
vt 0.344482 0.520020
vt 0.352295 0.524658
vt 0.293457 0.519775
vt 0.292480 0.736572
vt 0.344482 0.488281
vt 0.288818 0.527588
vt 0.285645 0.524414
vt 0.287109 0.736572
vt 0.279541 0.736572
vt 0.281250 0.527588
vt 0.293701 0.487793
vt 0.350342 0.480469
vt 0.352539 0.483398
vt 0.346680 0.010254
vt 0.353027 0.010742
vt 0.360596 0.010742
vt 0.295898 0.010254
vt 0.357910 0.480469
vt 0.365967 0.010742
vt 0.362549 0.488770
vt 0.416748 0.011230
vt 0.413330 0.488770
vt 0.418213 0.480957
vt 0.422119 0.011230
vt 0.289062 0.479980
vt 0.285645 0.483398
vt 0.290527 0.010254
vt 0.281250 0.479980
vt 0.282959 0.010254
vt 0.566406 0.887939
vt 0.591309 0.882568
vt 0.591309 0.887939
vt 0.566406 0.882568
vt 0.591309 0.015625
vt 0.563965 0.887146
vt 0.561523 0.882507
vt 0.566406 0.015625
vt 0.591309 0.010254
vt 0.566406 0.010254
vt 0.561523 0.015625
vt 0.563965 0.010742
vt 0.524902 0.812500
vt 0.524902 0.084473
vt 0.519043 0.805298
vt 0.517578 0.810547
vt 0.494629 0.810547
vt 0.519043 0.091797
vt 0.517578 0.086426
vt 0.493408 0.805298
vt 0.493408 0.091797
vt 0.494629 0.086426
vt 0.487305 0.812500
vt 0.487305 0.084473
vt 0.450439 0.015625
vt 0.450684 0.882507
vt 0.448242 0.010742
vt 0.445312 0.015625
vt 0.445312 0.882568
vt 0.448242 0.887146
vt 1.167969 1.100159
vt 1.090820 0.014648
vt 1.167969 0.058594
vt 1.090820 1.169189
vt 1.085938 0.015137
vt 1.086914 0.010254
vt 1.085938 1.168701
vt 1.086914 1.173706
vt 1.061523 0.015137
vt 1.060547 0.010254
vt 1.056641 0.014648
vt 1.061523 1.168823
vt 1.060547 1.173706
vt 1.056641 1.169312
vt 0.979980 1.100159
vt 0.979980 0.058594
vt 0.973633 0.065918
vt 0.972168 0.061035
vt 0.973633 1.093018
vt 0.972168 1.098206
vt 0.948242 0.066406
vt 0.948242 0.061035
vt 0.948242 1.092896
vt 0.948242 1.098267
vt 0.943359 0.058594
vt 0.943359 1.100403
vt 0.616211 1.048401
vt 0.616211 0.528564
vt 0.624023 0.528564
vt 0.624023 1.048370
vt 0.629395 1.048370
vt 0.629395 0.520996
vt 0.669434 0.520996
vt 0.669434 1.048340
vt 0.674316 0.528564
vt 0.674316 1.048309
vt 0.682129 0.528564
vt 0.682129 1.048279
vt 0.687500 1.048279
vt 0.687500 0.520996
vt 0.678711 0.524414
vt 0.727539 0.520996
vt 0.727539 1.048279
vt 0.732910 0.528564
vt 0.732910 1.048279
vt 0.735840 0.524414
vt 0.727539 0.489258
vt 0.687500 0.489258
vt 0.732910 0.481445
vt 0.735840 0.485840
vt 0.727539 0.010254
vt 0.732910 0.010254
vt 0.687500 0.010254
vt 0.682129 0.481445
vt 0.678711 0.485840
vt 0.682129 0.010254
vt 0.674316 0.010254
vt 0.674316 0.481445
vt 0.669434 0.010254
vt 0.669434 0.488770
vt 0.629395 0.488770
vt 0.629395 0.010254
vt 0.624023 0.481445
vt 0.624023 0.010254
vt 0.616699 0.481445
vt 0.616211 0.010254
vt 0.616699 0.486816
vt 0.624023 0.486816
vt 1.337891 0.055664
vt 1.362305 1.409424
vt 1.337891 1.409424
vt 1.363281 0.055664
vt 1.368164 0.047852
vt 1.368164 1.416748
vt 1.436523 0.010742
vt 1.436523 1.493652
vt 1.442383 1.493652
vt 1.442383 0.010254
vt 1.466797 0.010254
vt 1.466797 1.493652
vt 1.471680 1.493652
vt 1.471680 0.010742
vt 1.541016 1.416748
vt 1.541016 0.047852
vt 1.545898 0.055664
vt 1.545898 1.409424
vt 0.888184 1.186768
vt 0.890625 1.191528
vt 0.885742 1.191406
vt 0.884766 1.497803
vt 0.890137 1.505371
vt 0.881348 1.501465
vt 0.968750 1.261475
vt 0.968750 1.548828
vt 0.974121 1.548828
vt 0.971680 1.553223
vt 0.974609 1.268799
vt 0.975586 1.263672
vt 1.000000 1.548828
vt 0.998535 1.263672
vt 1.000000 1.268799
vt 1.004883 1.261475
vt 1.005859 1.548828
vt 1.002930 1.553223
vt 1.083984 1.504883
vt 1.083008 1.191406
vt 1.088867 1.497559
vt 1.092773 1.501465
vt 1.113281 1.191162
vt 1.114258 1.497314
vt 1.088867 1.191162
vt 1.085938 1.186646
vt 1.113281 1.185791
vt 1.088867 1.185791
vt 0.917969 0.963959
vt 0.912598 0.094238
vt 0.917969 0.101562
vt 0.912598 0.971436
vt 0.869141 1.048401
vt 0.869141 0.015625
vt 0.864258 0.015625
vt 0.864258 1.048340
vt 0.839355 1.048370
vt 0.839355 0.015625
vt 0.864258 0.010254
vt 0.839355 0.010254
vt 0.833984 1.048431
vt 0.833984 0.015625
vt 0.790527 0.094238
vt 0.790527 0.971542
vt 0.785156 0.964142
vt 0.785156 0.102051
vt 0.760254 0.102051
vt 0.760254 0.964172
vt 0.785156 0.096680
vt 0.760254 0.096680
vt1 0.916992 0.675537
vt1 0.734375 0.486816
vt1 0.916992 0.486816
vt1 0.734375 0.675537
vt1 0.702637 0.086426
vt1 0.918457 0.268555
vt1 0.702637 0.268555
vt1 0.918457 0.086426
vt1 0.522949 0.950012
vt1 0.334229 0.787354
vt1 0.522949 0.786865
vt1 0.334229 0.950012
vt1 0.049988 0.948456
vt1 0.049988 0.786865
vt1 0.265869 0.786865
vt1 0.265869 0.949097
vt1 0.917969 0.742920
vt1 0.734375 0.931702
vt1 0.734375 0.742920
vt1 0.917969 0.931702
vt1 0.654297 0.282715
vt1 0.654297 0.465820
vt1 0.554199 0.465820
vt1 0.554199 0.282715
vt1 0.231201 0.179199
vt1 0.232300 0.177734
vt1 0.234741 0.180176
vt1 0.483887 0.265625
vt1 0.480469 0.264160
vt1 0.481689 0.262695
vt1 0.069214 0.265625
vt1 0.071167 0.262207
vt1 0.072571 0.264160
vt1 0.234619 0.192871
vt1 0.232300 0.195801
vt1 0.231201 0.194336
vt1 0.740723 0.334473
vt1 0.916504 0.334473
vt1 0.916504 0.344238
vt1 0.740723 0.344238
vt1 0.916504 0.346680
vt1 0.737793 0.346680
vt1 0.901855 0.374512
vt1 0.706543 0.374512
vt1 0.898926 0.376465
vt1 0.706543 0.376465
vt1 0.706543 0.386230
vt1 0.898926 0.386230
vt1 0.706543 0.388672
vt1 0.901855 0.388672
vt1 0.737793 0.416504
vt1 0.916504 0.416504
vt1 0.740723 0.418457
vt1 0.916504 0.418457
vt1 0.595703 0.215332
vt1 0.424316 0.215332
vt1 0.595703 0.213379
vt1 0.421387 0.213379
vt1 0.595703 0.200684
vt1 0.421387 0.200684
vt1 0.424316 0.198242
vt1 0.595215 0.198242
vt1 0.422363 0.198730
vt1 0.421875 0.196289
vt1 0.423828 0.195312
vt1 0.595215 0.195312
vt1 0.421143 0.192871
vt1 0.595215 0.192871
vt1 0.422607 0.186523
vt1 0.595215 0.186523
vt1 0.595215 0.180176
vt1 0.399170 0.186523
vt1 0.400635 0.192871
vt1 0.420898 0.180176
vt1 0.400635 0.180176
vt1 0.423828 0.177734
vt1 0.421875 0.177246
vt1 0.422363 0.174316
vt1 0.595215 0.178223
vt1 0.424072 0.174805
vt1 0.595215 0.175293
vt1 0.250732 0.180176
vt1 0.252197 0.186523
vt1 0.397949 0.177734
vt1 0.399902 0.177246
vt1 0.399414 0.174316
vt1 0.397461 0.174805
vt1 0.253662 0.175293
vt1 0.253662 0.178223
vt1 0.251465 0.175293
vt1 0.251465 0.178223
vt1 0.251953 0.176758
vt1 0.234741 0.180176
vt1 0.233154 0.186523
vt1 0.050232 0.180176
vt1 0.050201 0.186523
vt1 0.050171 0.192871
vt1 0.250732 0.192871
vt1 0.234619 0.192871
vt1 0.231567 0.195312
vt1 0.050140 0.195312
vt1 0.050079 0.198242
vt1 0.233643 0.198242
vt1 0.233765 0.195312
vt1 0.231567 0.198242
vt1 0.050049 0.200195
vt1 0.234497 0.200195
vt1 0.050018 0.212891
vt1 0.234497 0.212891
vt1 0.231445 0.215332
vt1 0.050018 0.215332
vt1 0.050018 0.218262
vt1 0.233643 0.215332
vt1 0.233643 0.218262
vt1 0.231445 0.218262
vt1 0.049988 0.220215
vt1 0.234497 0.220215
vt1 0.251953 0.196289
vt1 0.253662 0.195312
vt1 0.397949 0.195312
vt1 0.399902 0.196289
vt1 0.399414 0.198730
vt1 0.253418 0.198242
vt1 0.397461 0.198730
vt1 0.250488 0.200684
vt1 0.400635 0.200684
vt1 0.250488 0.213379
vt1 0.400635 0.213379
vt1 0.397461 0.215332
vt1 0.253418 0.215332
vt1 0.133301 0.745605
vt1 0.049988 0.745605
vt1 0.049988 0.743408
vt1 0.136230 0.743408
vt1 0.050018 0.723145
vt1 0.136230 0.723145
vt1 0.133301 0.721191
vt1 0.050018 0.721191
vt1 0.050049 0.718262
vt1 0.133301 0.718262
vt1 0.050079 0.716064
vt1 0.136353 0.716064
vt1 0.134888 0.719482
vt1 0.136353 0.696045
vt1 0.050110 0.695801
vt1 0.149048 0.716309
vt1 0.133301 0.693848
vt1 0.135010 0.692627
vt1 0.050110 0.693848
vt1 0.050110 0.690674
vt1 0.133301 0.690674
vt1 0.149048 0.696045
vt1 0.151978 0.718506
vt1 0.150269 0.719727
vt1 0.339111 0.716309
vt1 0.339111 0.718506
vt1 0.339111 0.721436
vt1 0.339111 0.696045
vt1 0.151978 0.721436
vt1 0.339111 0.723633
vt1 0.149048 0.723633
vt1 0.339111 0.743896
vt1 0.149048 0.743896
vt1 0.151978 0.746094
vt1 0.339111 0.746094
vt1 0.152100 0.693848
vt1 0.150391 0.692627
vt1 0.339111 0.693848
vt1 0.152100 0.690918
vt1 0.339111 0.690918
vt1 0.399170 0.600586
vt1 0.396973 0.590576
vt1 0.399170 0.590576
vt1 0.396973 0.600586
vt1 0.052124 0.590576
vt1 0.398926 0.601562
vt1 0.396973 0.602783
vt1 0.052155 0.600586
vt1 0.050018 0.590576
vt1 0.050018 0.600586
vt1 0.052155 0.602783
vt1 0.050323 0.601562
vt1 0.369141 0.617432
vt1 0.079590 0.617432
vt1 0.366455 0.619873
vt1 0.368408 0.620361
vt1 0.368408 0.629639
vt1 0.082458 0.619873
vt1 0.080383 0.620361
vt1 0.366455 0.630127
vt1 0.082458 0.630127
vt1 0.080383 0.629639
vt1 0.369141 0.632812
vt1 0.079590 0.632812
vt1 0.052124 0.647461
vt1 0.396973 0.647461
vt1 0.050293 0.648438
vt1 0.052124 0.649658
vt1 0.396973 0.649658
vt1 0.398926 0.648438
vt1 0.483887 0.265625
vt1 0.051819 0.296387
vt1 0.069214 0.265625
vt1 0.511230 0.296387
vt1 0.052002 0.298340
vt1 0.050018 0.297852
vt1 0.511230 0.298340
vt1 0.513184 0.297852
vt1 0.052002 0.308105
vt1 0.050018 0.308105
vt1 0.051819 0.310059
vt1 0.511230 0.308105
vt1 0.513184 0.308105
vt1 0.511230 0.310059
vt1 0.483887 0.340332
vt1 0.069336 0.340332
vt1 0.072144 0.343262
vt1 0.070007 0.343750
vt1 0.480957 0.343262
vt1 0.483154 0.343750
vt1 0.072266 0.353027
vt1 0.070251 0.353516
vt1 0.480957 0.353027
vt1 0.482910 0.353516
vt1 0.069275 0.355469
vt1 0.483887 0.355469
vt1 0.050018 0.398438
vt1 0.256836 0.398438
vt1 0.256836 0.401855
vt1 0.050018 0.401855
vt1 0.050018 0.403809
vt1 0.259766 0.403809
vt1 0.259766 0.419922
vt1 0.050018 0.419922
vt1 0.256836 0.421875
vt1 0.050049 0.421875
vt1 0.256836 0.424805
vt1 0.050049 0.424805
vt1 0.050079 0.426758
vt1 0.260010 0.426758
vt1 0.258545 0.423340
vt1 0.260010 0.442871
vt1 0.050079 0.442871
vt1 0.256836 0.444824
vt1 0.050079 0.444824
vt1 0.258545 0.446289
vt1 0.272705 0.442871
vt1 0.272705 0.426758
vt1 0.275635 0.444824
vt1 0.273926 0.446289
vt1 0.463135 0.442871
vt1 0.463135 0.444824
vt1 0.463135 0.426758
vt1 0.275635 0.424805
vt1 0.273926 0.423340
vt1 0.463379 0.424805
vt1 0.463379 0.421875
vt1 0.275635 0.421875
vt1 0.463379 0.419922
vt1 0.272705 0.419922
vt1 0.272705 0.403809
vt1 0.463379 0.403809
vt1 0.275635 0.401855
vt1 0.463379 0.401855
vt1 0.275635 0.398438
vt1 0.463379 0.398438
vt1 0.273682 0.398438
vt1 0.273682 0.401855
vt1 0.067749 0.133301
vt1 0.606445 0.123535
vt1 0.606445 0.133301
vt1 0.067749 0.123535
vt1 0.064758 0.121094
vt1 0.609375 0.121094
vt1 0.050018 0.093750
vt1 0.640137 0.093750
vt1 0.640137 0.091797
vt1 0.050018 0.091797
vt1 0.050018 0.082031
vt1 0.640137 0.082031
vt1 0.640137 0.079590
vt1 0.050018 0.079590
vt1 0.609375 0.052246
vt1 0.064758 0.052246
vt1 0.067749 0.050293
vt1 0.606445 0.050293
vt1 0.648926 0.680420
vt1 0.647949 0.678711
vt1 0.649902 0.678711
vt1 0.649902 0.556641
vt1 0.647949 0.553711
vt1 0.651367 0.555176
vt1 0.616699 0.650879
vt1 0.616699 0.536377
vt1 0.614258 0.536377
vt1 0.615234 0.534668
vt1 0.614258 0.647949
vt1 0.613770 0.649902
vt1 0.604004 0.536621
vt1 0.604492 0.649902
vt1 0.604004 0.647949
vt1 0.601562 0.650879
vt1 0.601562 0.536377
vt1 0.603027 0.534668
vt1 0.570312 0.553711
vt1 0.570801 0.678711
vt1 0.568359 0.556885
vt1 0.566895 0.555176
vt1 0.558594 0.678711
vt1 0.558105 0.556885
vt1 0.568359 0.678711
vt1 0.569336 0.680420
vt1 0.558594 0.680664
vt1 0.568359 0.680664
vt1 0.429688 0.486816
vt1 0.083374 0.488770
vt1 0.086365 0.486816
vt1 0.432617 0.488770
vt1 0.463135 0.506104
vt1 0.052124 0.506104
vt1 0.052124 0.508057
vt1 0.463135 0.508057
vt1 0.463135 0.518066
vt1 0.052124 0.518066
vt1 0.050018 0.508057
vt1 0.050018 0.518066
vt1 0.463135 0.520264
vt1 0.052124 0.520264
vt1 0.083374 0.537598
vt1 0.432617 0.537598
vt1 0.429688 0.539551
vt1 0.086365 0.539551
vt1 0.086365 0.549561
vt1 0.429688 0.549561
vt1 0.084229 0.539551
vt1 0.084229 0.549561
vn 0.000000 1.000000 -0.000000
vn 0.000000 1.000000 -0.000000
vn 0.000000 1.000000 -0.000000
vn 0.000000 1.000000 -0.000000
vn 0.000000 1.000000 -0.000000
vn 0.000000 1.000000 -0.000000
vn 0.000000 1.000000 -0.000000
vn 0.000000 1.000000 -0.000000
vn 0.000000 1.000000 -0.000000
vn 0.000000 1.000000 -0.000000
vn 0.000000 1.000000 -0.000000
vn 0.000000 1.000000 -0.000000
vn 0.000000 1.000000 -0.000000
vn 0.000000 1.000000 -0.000000
vn 0.000000 1.000000 -0.000000
vn 0.000000 1.000000 -0.000000
vn 0.000000 1.000000 -0.000000
vn 0.000000 1.000000 -0.000000
vn 0.000000 1.000000 -0.000000
vn 0.000000 1.000000 -0.000000
vn 0.000000 1.000000 -0.000000
vn 0.000000 1.000000 -0.000000
vn 0.000000 1.000000 -0.000000
vn 0.000000 1.000000 -0.000000
vn -0.007874 -0.409449 0.913386
vn -0.913386 -0.409449 0.007874
vn -0.023622 -1.000000 0.023622
vn 0.007874 -1.000000 0.007874
vn 0.984252 -0.196850 0.000000
vn 0.000000 -0.188976 0.984252
vn 0.007874 -1.000000 -0.007874
vn 0.000000 -0.196850 -0.984252
vn 0.984252 -0.188976 0.000000
vn -0.023622 -1.000000 -0.023622
vn -0.913386 -0.409449 -0.007874
vn -0.007874 -0.409449 -0.913386
vn 0.007874 0.196850 0.984252
vn 0.007874 0.125984 0.992126
vn 0.007874 -0.125984 0.992126
vn 0.007874 -0.196850 0.984252
vn 0.094488 -0.992126 0.047244
vn 0.007874 -1.000000 0.007874
vn -0.015748 -1.000000 -0.007874
vn -0.039370 -1.000000 -0.055118
vn -0.007874 -0.196850 -0.984252
vn -0.007874 -0.125984 -0.992126
vn -0.007874 0.125984 -0.992126
vn -0.007874 0.196850 -0.984252
vn -0.039370 1.000000 -0.055118
vn -0.007874 1.000000 -0.007874
vn 0.007874 1.000000 0.007874
vn 0.086614 0.992126 0.047244
vn 0.007874 0.196850 0.984252
vn 0.007874 0.125984 0.992126
vn 0.000000 0.314961 0.952756
vn 0.007874 0.409449 0.913386
vn 0.000000 0.992126 0.102362
vn 0.007874 1.000000 0.023622
vn 0.000000 0.992126 -0.102362
vn 0.015748 1.000000 -0.015748
vn 0.007874 0.409449 -0.913386
vn 0.000000 0.314960 -0.952756
vn 0.913386 0.409449 -0.007874
vn 0.913386 -0.409449 -0.007874
vn 0.007874 -0.409449 -0.913386
vn 0.000000 -0.314961 -0.952756
vn 0.023622 -1.000000 -0.023622
vn 0.000000 -0.984252 -0.188976
vn 0.000000 -1.000000 0.000000
vn 0.000000 -1.000000 0.000000
vn 0.000000 -0.984252 0.188976
vn 0.000000 -1.000000 0.000000
vn -0.023622 -1.000000 -0.015748
vn 0.015748 -1.000000 0.031496
vn -0.015748 -1.000000 0.031496
vn 0.007874 -0.409449 0.913386
vn 0.913386 -0.417323 0.015748
vn 0.913386 0.417323 0.015748
vn 0.000000 -0.314960 0.952756
vn 0.007874 0.409449 0.913386
vn 0.000000 0.314961 0.952756
vn 0.031496 -1.000000 0.015748
vn 0.000000 -1.000000 0.000000
vn -0.007874 -0.417323 0.913386
vn -0.905512 -0.417323 0.015748
vn -0.905512 0.417323 0.015748
vn -0.007874 0.409449 0.913386
vn 0.007874 0.417323 0.913386
vn 0.007874 -0.409449 0.913386
vn 0.913386 0.409449 0.007874
vn 0.913386 -0.409449 0.007874
vn 0.913386 -0.409449 0.007874
vn -0.023622 -1.000000 0.023622
vn 0.000000 -1.000000 0.000000
vn 0.000000 -0.984252 0.188976
vn 0.000000 -1.000000 0.000000
vn 0.000000 -0.984252 -0.188976
vn 0.023622 -1.000000 -0.023622
vn -0.023622 -1.000000 -0.023622
vn -0.007874 -0.409449 -0.913386
vn 0.000000 -0.314961 -0.952756
vn 0.000000 0.314960 -0.952756
vn -0.913386 0.409449 -0.007874
vn -0.913386 -0.409449 -0.007874
vn -0.007874 0.409449 -0.913386
vn 0.000000 0.992126 -0.102362
vn -0.015748 1.000000 -0.015748
vn 0.000000 0.992126 0.102362
vn -0.023622 1.000000 0.015748
vn -0.007874 0.409449 0.913386
vn 0.000000 0.314961 0.952756
vn 0.000000 -0.314960 0.952756
vn -0.913386 0.409449 0.007874
vn -0.913386 -0.409449 0.007874
vn -0.007874 -0.409449 0.913386
vn 0.000000 -0.984252 0.188976
vn -0.023622 -1.000000 0.023622
vn 0.913386 -0.409449 -0.007874
vn 0.007874 -0.417323 -0.913386
vn -0.007874 -0.409449 -0.913386
vn -0.913386 -0.409449 -0.007874
vn -0.913386 0.409449 -0.007874
vn 0.007874 0.409449 -0.913386
vn -0.007874 0.417323 -0.913386
vn 0.023622 1.000000 -0.015748
vn -0.015748 1.000000 -0.015748
vn 0.023622 1.000000 0.015748
vn -0.015748 1.000000 0.023622
vn -0.007874 0.409449 0.913386
vn 0.007874 0.417323 0.913386
vn -0.905512 -0.417323 0.015748
vn -0.952756 -0.314961 0.000000
vn -0.062992 -1.000000 0.000000
vn -0.015748 -1.000000 0.031496
vn 0.062992 -1.000000 0.000000
vn 0.015748 -1.000000 0.031496
vn 0.913386 -0.417323 0.015748
vn 0.952756 -0.314961 0.000000
vn 0.952756 0.314961 -0.000000
vn 0.913386 0.417323 0.015748
vn 0.062992 1.000000 -0.000000
vn 0.007874 1.000000 0.023622
vn 0.007874 0.409449 0.913386
vn -0.015748 1.000000 0.023622
vn -0.062992 1.000000 -0.000000
vn 0.015748 1.000000 -0.015748
vn -0.905512 0.417323 0.015748
vn -0.007874 0.409449 0.913386
vn -0.952756 0.314961 -0.000000
vn -0.952756 -0.314961 0.000000
vn -0.905512 -0.417323 0.015748
vn -0.015748 1.000000 -0.015748
vn 0.913386 0.409449 -0.007874
vn 0.007874 0.409449 -0.913386
vn 0.070866 1.000000 -0.000000
vn 0.952756 0.314961 -0.000000
vn 0.952756 -0.314961 0.000000
vn -0.070866 1.000000 -0.000000
vn 0.913386 -0.409449 -0.007874
vn 0.070866 -1.000000 0.000000
vn 0.023622 -1.000000 -0.023622
vn -0.070866 -1.000000 0.000000
vn -0.023622 -1.000000 -0.015748
vn -0.913386 -0.409449 -0.007874
vn -0.952756 -0.314961 0.000000
vn -0.913386 0.409449 -0.007874
vn -0.007874 0.417323 -0.913386
vn -0.952756 0.314961 -0.000000
vn -0.913386 -0.409449 -0.007874
vn -0.952756 -0.314961 0.000000
vn 0.007874 0.125984 0.992126
vn 0.992126 -0.125984 0.007874
vn 0.007874 -0.125984 0.992126
vn 0.992126 0.125984 0.007874
vn 0.992126 -0.125984 -0.007874
vn 0.007874 0.125984 0.992126
vn 0.086614 0.992126 0.047244
vn 0.992126 0.125984 -0.007874
vn 0.000000 -0.125984 -0.992126
vn 0.000000 0.125984 -0.992126
vn 0.039370 1.000000 -0.070866
vn 0.000000 0.125984 -0.992126
vn -0.007874 1.000000 -0.007874
vn -0.007874 1.000000 0.007874
vn -0.984252 0.188976 -0.007874
vn -0.007874 0.196850 -0.984252
vn -0.007874 -0.196850 -0.984252
vn -0.984252 0.196850 0.007874
vn 0.000000 0.188976 0.984252
vn -0.984252 -0.196850 -0.007874
vn -0.984252 -0.188976 0.007874
vn 0.000000 -0.196850 0.984252
vn -0.015748 -1.000000 -0.007874
vn -0.007874 -1.000000 0.007874
vn 0.039370 -1.000000 -0.062992
vn 0.094488 -0.992126 0.047244
vn 0.000000 -0.125984 -0.992126
vn 0.992126 -0.125984 -0.007874
vn 0.992126 -0.125984 0.007874
vn 0.007874 -0.125984 0.992126
vn 0.007874 -1.000000 0.007874
vn -0.055118 -1.000000 0.055118
vn 0.007874 -1.000000 -0.007874
vn -0.039370 -1.000000 -0.055118
vn -0.992126 -0.125984 0.000000
vn 0.000000 -0.125984 0.992126
vn -0.992126 -0.125984 0.000000
vn 0.000000 -0.125984 -0.992126
vn -0.992126 0.125984 -0.000000
vn 0.000000 0.125984 0.992126
vn -0.055118 1.000000 0.047244
vn -0.992126 0.125984 -0.000000
vn 0.000000 0.125984 -0.992126
vn -0.039370 1.000000 -0.055118
vn 0.007874 1.000000 0.007874
vn 0.007874 1.000000 -0.007874
vn 0.984252 0.196850 -0.000000
vn 0.000000 0.188976 -0.984252
vn 0.984252 0.188976 -0.000000
vn 0.000000 0.196850 0.984252
vn 0.984252 -0.188976 0.000000
vn 0.000000 -0.196850 -0.984252
vn 0.984252 -0.196850 0.000000
vn 0.000000 -0.188976 0.984252
vn 0.007874 -1.000000 -0.007874
vn 0.007874 -1.000000 0.007874
vn 0.952756 0.314961 -0.000000
vn 0.913386 0.409449 0.007874
vn 0.913386 -0.409449 0.007874
vn 0.952756 -0.314961 0.000000
vn 0.086614 -1.000000 0.000000
vn 0.031496 -1.000000 0.015748
vn -0.023622 -1.000000 0.023622
vn -0.086614 -1.000000 0.000000
vn -0.913386 -0.409449 0.007874
vn -0.952756 -0.314961 0.000000
vn -0.913386 0.409449 0.007874
vn -0.952756 0.314961 -0.000000
vn -0.086614 1.000000 -0.000000
vn -0.023622 1.000000 0.015748
vn -0.007874 0.409449 0.913386
vn 0.023622 1.000000 0.015748
vn 0.086614 1.000000 -0.000000
vn 0.913386 0.409449 0.007874
vn 0.952756 0.314961 -0.000000
vn 0.007874 0.417323 0.913386
vn 0.023622 1.000000 -0.015748
vn -0.015748 1.000000 -0.015748
vn 0.913386 0.409449 -0.007874
vn 0.007874 0.409449 -0.913386
vn 0.086614 1.000000 -0.000000
vn 0.952756 0.314961 -0.000000
vn -0.086614 1.000000 -0.000000
vn -0.913386 0.409449 -0.007874
vn -0.007874 0.409449 -0.913386
vn -0.952756 0.314961 -0.000000
vn -0.952756 -0.314961 0.000000
vn -0.913386 -0.409449 -0.007874
vn -0.086614 -1.000000 0.000000
vn -0.023622 -1.000000 -0.023622
vn 0.023622 -1.000000 -0.023622
vn 0.086614 -1.000000 0.000000
vn 0.913386 -0.409449 -0.007874
vn 0.952756 -0.314961 0.000000
vn 0.913386 0.409449 -0.007874
vn 0.952756 0.314961 -0.000000
vn 0.007874 0.409449 -0.913386
vn 0.007874 -0.417323 -0.913386
vn 0.000000 0.188976 0.984252
vn 0.000000 -0.188976 0.984252
vn 0.000000 0.196850 0.984252
vn 0.000000 -0.196850 0.984252
vn -0.007874 -1.000000 0.007874
vn 0.007874 -1.000000 0.007874
vn 0.039370 -1.000000 -0.062992
vn -0.039370 -1.000000 -0.055118
vn 0.000000 -0.125984 -0.992126
vn 0.000000 -0.125984 -0.992126
vn 0.000000 0.125984 -0.992126
vn 0.000000 0.125984 -0.992126
vn -0.039370 1.000000 -0.055118
vn 0.039370 1.000000 -0.070866
vn 0.007874 1.000000 0.007874
vn -0.007874 1.000000 0.007874
vn 0.000000 0.188976 0.984252
vn 0.000000 0.196850 0.984252
vn -0.007874 0.125984 -0.992126
vn -0.039370 1.000000 -0.055118
vn -0.992126 0.125984 -0.015748
vn -0.984252 0.196850 -0.015748
vn -0.007874 1.000000 -0.015748
vn 0.000000 0.196850 -0.984252
vn 0.007874 1.000000 0.007874
vn 0.031496 0.992126 0.118110
vn 0.992126 0.125984 0.015748
vn 0.000000 0.125984 0.992126
vn 0.984252 0.196850 0.015748
vn 0.007874 0.196850 0.984252
vn 0.992126 -0.125984 0.015748
vn 0.007874 -0.196850 0.984252
vn 0.984252 -0.196850 0.015748
vn 0.007874 -1.000000 0.007874
vn 0.031496 -0.992126 0.110236
vn 0.000000 -0.125984 0.992126
vn -0.007874 -1.000000 -0.015748
vn -0.039370 -1.000000 -0.055118
vn -0.984252 -0.196850 -0.015748
vn 0.000000 -0.188976 -0.984252
vn -0.992126 0.125984 -0.015748
vn -0.984252 0.196850 -0.015748
vn -0.992126 -0.125984 -0.015748
vn -0.007874 -0.125984 -0.992126
vn -0.007874 0.125984 -0.992126
vn -0.007874 -0.125984 -0.992126
vn 0.000000 -0.196850 -0.984252
vn -0.007874 -1.000000 -0.015748
vn 0.000000 -0.188976 -0.984252
vn 0.007874 -1.000000 -0.007874
vn -0.055118 -1.000000 0.055118
vn 0.031496 -0.992126 0.110236
vn 0.000000 -0.125984 0.992126
vn 0.000000 -0.125984 0.992126
vn 0.000000 0.125984 0.992126
vn 0.000000 0.125984 0.992126
vn 0.992126 -0.125984 0.015748
vn 0.992126 0.125984 0.015748
vn -0.055118 1.000000 0.047244
vn 0.031496 0.992126 0.118110
vn -0.007874 1.000000 -0.015748
vn 0.007874 1.000000 -0.007874
vn 0.000000 0.188976 -0.984252
vn 0.000000 0.196850 -0.984252
vn 0.000000 -0.188976 -0.984252
vn 0.000000 -0.196850 -0.984252
vn -0.984252 0.196850 -0.015748
vn -0.984252 -0.196850 -0.015748
tan 0.000000 -0.000000 -1.000000 1.000000
tan 0.000000 -0.000000 -1.000000 1.000000
tan 0.000000 -0.000000 -1.000000 1.000000
tan 0.000000 -0.000000 -1.000000 1.000000
tan 0.000000 -0.000000 -1.000000 1.000000
tan 0.000000 -0.000000 -1.000000 1.000000
tan 0.000000 -0.000000 -1.000000 1.000000
tan 0.000000 -0.000000 -1.000000 1.000000
tan 0.000000 -0.000000 -1.000000 1.000000
tan 0.000000 -0.000000 -1.000000 1.000000
tan 0.000000 -0.000000 -1.000000 1.000000
tan 0.000000 -0.000000 -1.000000 1.000000
tan 0.000000 -0.000000 -1.000000 1.000000
tan 0.000000 -0.000000 -1.000000 1.000000
tan 0.000000 -0.000000 -1.000000 1.000000
tan 0.000000 -0.000000 -1.000000 1.000000
tan 0.000000 -0.000000 -1.000000 1.000000
tan 0.000000 -0.000000 -1.000000 1.000000
tan 0.000000 -0.000000 -1.000000 1.000000
tan 0.000000 -0.000000 -1.000000 1.000000
tan 0.000000 -0.000000 -1.000000 1.000000
tan 0.000000 -0.000000 -1.000000 1.000000
tan 0.000000 -0.000000 -1.000000 1.000000
tan 0.000000 -0.000000 -1.000000 1.000000
tan -0.934714 0.333871 0.141608 1.000000
tan -0.407155 0.905822 -0.127224 1.000000
tan -0.976750 0.028458 0.227974 1.000000
tan 0.157418 0.008990 0.984314 1.000000
tan 0.065100 0.325501 0.942402 1.000000
tan -0.239940 0.953252 0.183024 1.000000
tan -0.149544 -0.008990 0.992188 1.000000
tan 0.240250 -0.953252 0.190650 1.000000
tan -0.061008 -0.317750 0.948726 1.000000
tan -0.976750 0.028458 -0.227974 1.000000
tan -0.407217 0.905822 0.134416 1.000000
tan -0.934714 0.326679 -0.138384 1.000000
tan 1.007502 -0.001550 -0.007750 1.000000
tan 1.000186 -0.000992 -0.007812 1.000000
tan 1.000186 0.008804 -0.006820 1.000000
tan 1.007502 0.009300 -0.006200 1.000000
tan 0.994730 0.092628 -0.044268 1.000000
tan 1.000062 0.007874 -0.000062 1.000000
tan 1.000062 -0.015748 -0.000124 1.000000
tan 1.003038 -0.038502 -0.017918 1.000000
tan 1.007502 -0.009300 -0.006200 1.000000
tan 1.000186 -0.008804 -0.006820 1.000000
tan 1.000186 0.000992 -0.007812 1.000000
tan 1.007502 0.001550 -0.007750 1.000000
tan 1.003038 0.038068 -0.025792 1.000000
tan 1.000062 0.007874 -0.000062 1.000000
tan 1.000062 -0.007874 -0.000062 1.000000
tan 0.994358 -0.084382 -0.050964 1.000000
tan 1.007502 -0.009300 -0.006200 1.000000
tan 1.000186 -0.008804 -0.006820 1.000000
tan -1.006944 0.007502 -0.002480 1.000000
tan -1.001922 0.010416 0.003968 1.000000
tan -0.994792 0.000806 -0.007812 1.000000
tan -1.000558 0.007874 0.000186 1.000000
tan -0.994792 -0.003224 -0.031248 1.000000
tan -1.000248 0.015624 -0.008122 1.000000
tan -1.001922 -0.061504 -0.036208 1.000000
tan -0.999442 -0.052514 -0.017360 1.000000
tan 0.054188 -0.139872 -0.987538 1.000000
tan -0.228470 -0.493583 -0.836258 1.000000
tan -1.001922 -0.003224 -0.007192 1.000000
tan -0.999442 -0.045012 0.014880 1.000000
tan -1.000558 -0.022878 -0.032054 1.000000
tan -1.004464 -0.004464 0.023250 1.000000
tan -1.000000 0.000000 0.000000 1.000000
tan -1.000000 0.000000 0.000000 1.000000
tan -1.004464 -0.001488 -0.007750 1.000000
tan -1.000000 0.000000 0.000000 1.000000
tan -1.000248 0.023002 0.039742 1.000000
tan -1.000992 -0.014508 0.039866 1.000000
tan -1.000992 0.014508 -0.039866 1.000000
tan -1.001922 0.003968 0.010416 1.000000
tan -0.242048 -0.498109 0.838924 1.000000
tan 0.028458 -0.099944 0.997954 1.000000
tan -1.006944 -0.015004 -0.004960 1.000000
tan -0.994730 -0.104656 0.055490 1.000000
tan -1.006944 -0.015004 0.004960 1.000000
tan -1.000248 -0.031124 0.024118 1.000000
tan -1.000000 0.000000 0.000000 1.000000
tan -1.008432 -0.011098 -0.013764 1.000000
tan -0.238762 0.486515 -0.836196 1.000000
tan 0.045012 0.134912 -0.986980 1.000000
tan -0.991506 0.119102 -0.061938 1.000000
tan -1.008432 0.003286 0.007192 1.000000
tan -1.001922 0.025544 0.020088 1.000000
tan -0.010416 0.003968 1.001922 1.000000
tan -0.007192 0.003224 1.001922 1.000000
tan -0.386199 -0.854734 0.352905 1.000000
tan -1.000558 0.023622 -0.000558 1.000000
tan -1.000000 0.000000 0.000000 1.000000
tan -1.004464 0.000000 0.000000 1.000000
tan -1.000000 0.000000 0.000000 1.000000
tan -1.004464 0.001488 -0.007750 1.000000
tan -1.000558 -0.023250 -0.016306 1.000000
tan -1.000558 0.023622 0.000558 1.000000
tan -1.001922 0.010416 0.003968 1.000000
tan -1.006944 0.007502 -0.002480 1.000000
tan -1.006944 0.007502 0.002480 1.000000
tan -0.007192 0.003224 1.001922 1.000000
tan -0.007192 -0.003224 1.001922 1.000000
tan -1.001922 -0.003224 0.007192 1.000000
tan -0.994792 0.000000 0.000000 1.000000
tan -1.000248 -0.015624 0.008122 1.000000
tan -0.994792 0.000000 0.000000 1.000000
tan -1.000248 -0.023498 -0.008246 1.000000
tan -1.001922 -0.003224 -0.007192 1.000000
tan -1.006944 0.000000 0.000000 1.000000
tan -1.006944 0.000000 0.000000 1.000000
tan -0.007192 0.003224 -1.001922 1.000000
tan -0.007192 -0.003224 -1.001922 1.000000
tan -1.001922 0.003224 -0.007192 1.000000
tan -1.004464 0.000000 0.000000 1.000000
tan -1.000558 0.023064 -0.024180 1.000000
tan -0.386199 -0.854796 -0.349681 1.000000
tan -1.001240 0.032674 -0.023560 1.000000
tan -1.001922 -0.011160 0.013640 1.000000
tan -0.231694 0.500775 0.836258 1.000000
tan 0.034782 0.096720 0.994730 1.000000
tan -1.001922 0.031992 0.005704 1.000000
tan -1.001240 0.039866 0.026846 1.000000
tan -1.000248 0.023746 0.007502 1.000000
tan -1.000248 -0.015748 0.000248 1.000000
tan -1.000248 0.023498 0.008246 1.000000
tan -1.000558 -0.015748 -0.000372 1.000000
tan -1.001922 -0.010416 -0.003968 1.000000
tan -1.008432 0.003286 0.007192 1.000000
tan 0.021886 -0.085002 -0.994110 1.000000
tan 0.004960 -0.015004 -1.006944 1.000000
tan 0.007874 -0.000496 -1.003968 1.000000
tan 0.015252 -0.031744 -1.000248 1.000000
tan -0.007874 -0.000496 -1.003968 1.000000
tan -0.015252 -0.031744 -1.000248 1.000000
tan -0.005456 -0.049724 -1.001240 1.000000
tan -0.002480 -0.007502 -1.006944 1.000000
tan -0.002480 0.007502 -1.006944 1.000000
tan -0.021886 0.085560 -0.997954 1.000000
tan -0.015748 0.000992 -1.003968 1.000000
tan -0.031310 0.023870 -1.000062 1.000000
tan 0.194432 0.898444 -0.404427 1.000000
tan 0.023250 0.023994 -1.000248 1.000000
tan 0.000000 -0.000000 -1.003968 1.000000
tan 0.023374 -0.016120 -1.000248 1.000000
tan 0.018600 0.077872 -0.994110 1.000000
tan -0.204848 0.891190 -0.401265 1.000000
tan 0.000000 -0.000000 -1.006944 1.000000
tan 0.002480 -0.007502 -1.006944 1.000000
tan -0.014260 -0.006572 -0.994110 1.000000
tan -0.031248 -0.016244 -1.000248 1.000000
tan 0.015376 -0.053568 -1.001922 1.000000
tan -0.169632 -0.898506 -0.404241 1.000000
tan -0.039370 0.002790 -1.005022 1.000000
tan -0.012400 0.037510 -1.006944 1.000000
tan 0.004960 0.015004 -1.006944 1.000000
tan -0.007874 -0.000558 -1.005022 1.000000
tan 0.015376 0.053568 -1.001922 1.000000
tan 0.015748 0.001116 -1.005022 1.000000
tan 0.030938 0.024366 -1.000558 1.000000
tan 0.000000 -0.000000 -1.005022 1.000000
tan -0.015376 0.016120 -1.000558 1.000000
tan -0.025110 0.075144 -0.994730 1.000000
tan 0.000000 -0.000000 -1.006944 1.000000
tan -0.028334 -0.082336 -0.994730 1.000000
tan 0.205468 -0.891190 -0.408953 1.000000
tan -0.002480 -0.007502 -1.006944 1.000000
tan 0.010416 -0.003968 -1.001922 1.000000
tan 0.000000 -0.000000 -1.006944 1.000000
tan 1.000186 -0.000992 -0.007812 1.000000
tan 0.007812 -0.000992 -1.000186 1.000000
tan 1.000186 0.000992 -0.007812 1.000000
tan 0.006820 0.008804 -1.000186 1.000000
tan -0.007812 0.000992 -1.000186 1.000000
tan 0.698369 0.710211 -0.095728 1.000000
tan 0.019716 0.045508 -0.991816 1.000000
tan -0.007812 -0.000992 -1.000186 1.000000
tan -1.000186 0.000000 0.000000 1.000000
tan -1.000186 0.000000 0.000000 1.000000
tan -0.050034 -0.069006 -1.001550 1.000000
tan -0.698369 -0.703081 -0.089280 1.000000
tan 0.055180 -0.007440 -1.000062 1.000000
tan -0.055180 0.007440 -1.000062 1.000000
tan 0.022568 0.076012 -0.996714 1.000000
tan 0.934652 -0.355075 -0.078492 1.000000
tan 0.934652 0.355075 -0.078492 1.000000
tan -0.023188 -0.075950 -0.999752 1.000000
tan -0.933226 0.356501 -0.068448 1.000000
tan 0.023188 -0.075950 -0.999752 1.000000
tan -0.022568 0.076012 -0.996714 1.000000
tan -0.934652 -0.356501 -0.071300 1.000000
tan 0.055242 0.007006 -1.000248 1.000000
tan -0.055180 -0.007440 -1.000062 1.000000
tan -0.041850 0.061442 -1.001550 1.000000
tan 0.020088 -0.045384 -0.993242 1.000000
tan -0.698369 0.710893 -0.090272 1.000000
tan -0.005828 0.016616 -1.000186 1.000000
tan 0.004836 -0.024428 -1.000186 1.000000
tan 0.698369 -0.710211 -0.095728 1.000000
tan -0.000062 0.007874 1.000062 1.000000
tan 0.121582 0.048174 0.995598 1.000000
tan 0.000062 -0.007874 1.000062 1.000000
tan -0.120714 -0.050034 0.993986 1.000000
tan 0.005952 -0.046872 1.000186 1.000000
tan 0.944510 0.328105 0.041664 1.000000
tan -0.005952 0.046872 1.000186 1.000000
tan -0.944510 -0.328105 0.041664 1.000000
tan 0.004960 0.039060 1.000186 1.000000
tan 0.944510 -0.328105 0.041664 1.000000
tan 0.105338 -0.041230 0.995598 1.000000
tan -0.005952 -0.046872 1.000186 1.000000
tan -0.944510 0.320293 0.040672 1.000000
tan -0.136462 0.049414 0.993986 1.000000
tan -0.063054 -0.007378 1.000062 1.000000
tan 0.055180 0.007440 1.000062 1.000000
tan 0.012400 -0.062000 0.999752 1.000000
tan 0.931738 0.356501 0.068448 1.000000
tan -0.014880 0.077500 0.996714 1.000000
tan -0.934652 -0.356501 0.071300 1.000000
tan 0.001488 0.007750 1.004464 1.000000
tan 1.007502 0.000000 0.000000 1.000000
tan 0.000000 0.000000 1.007502 1.000000
tan -1.004464 0.000000 0.000000 1.000000
tan 0.015810 -0.007750 1.000062 1.000000
tan -0.007936 0.007812 1.000062 1.000000
tan 0.000000 -0.000000 -1.006944 1.000000
tan 0.007192 0.003224 -1.001922 1.000000
tan 0.007192 -0.003224 -1.001922 1.000000
tan 0.000000 -0.000000 -1.006944 1.000000
tan 0.000000 -0.000000 -1.007502 1.000000
tan 0.000496 -0.015748 -1.000992 1.000000
tan -0.008432 -0.023436 -1.000558 1.000000
tan 0.000000 -0.000000 -1.007502 1.000000
tan -0.010416 0.003968 -1.001922 1.000000
tan -0.002480 0.007502 -1.006944 1.000000
tan -0.010416 -0.003968 -1.001922 1.000000
tan 0.002480 0.007502 -1.006944 1.000000
tan 0.000000 -0.000000 -1.007502 1.000000
tan -0.008246 0.015562 -1.000558 1.000000
tan -0.335297 0.861988 -0.389299 1.000000
tan 0.008246 0.015562 -1.000558 1.000000
tan 0.000000 -0.000000 -1.007502 1.000000
tan 0.013640 -0.011160 -1.001922 1.000000
tan 0.000000 -0.000000 -1.006944 1.000000
tan 0.329159 0.861988 -0.396677 1.000000
tan -0.008246 -0.015562 -1.000558 1.000000
tan 0.008122 -0.015624 -1.000248 1.000000
tan -0.013640 0.011160 -1.001922 1.000000
tan -0.332073 -0.862050 -0.389299 1.000000
tan 0.000000 -0.000000 -1.007502 1.000000
tan 0.000000 -0.000000 -1.006944 1.000000
tan 0.000000 -0.000000 -1.007502 1.000000
tan 0.010416 0.003968 -1.001922 1.000000
tan 0.335297 -0.861988 -0.389299 1.000000
tan -0.002480 -0.007502 -1.006944 1.000000
tan 0.002480 -0.007502 -1.006944 1.000000
tan 0.010416 -0.003968 -1.001922 1.000000
tan 0.007874 -0.000682 -1.007502 1.000000
tan 0.008432 0.023436 -1.000558 1.000000
tan -0.000558 0.023622 -1.000558 1.000000
tan 0.000000 -0.000000 -1.007502 1.000000
tan -0.007192 0.003224 -1.001922 1.000000
tan 0.000000 -0.000000 -1.006944 1.000000
tan -0.007192 -0.003224 -1.001922 1.000000
tan 0.000000 -0.000000 -1.006944 1.000000
tan -1.001922 0.003224 -0.007192 1.000000
tan -1.008432 -0.003286 -0.007192 1.000000
tan 1.004464 0.000000 0.000000 1.000000
tan 1.004464 -0.007750 -0.001488 1.000000
tan 1.007502 0.000000 0.000000 1.000000
tan 0.998202 -0.054250 -0.010850 1.000000
tan 1.000062 -0.007998 -0.015686 1.000000
tan 1.000062 0.007812 -0.007936 1.000000
tan 0.996094 0.044516 -0.084134 1.000000
tan 1.003038 -0.036766 -0.049414 1.000000
tan 1.000186 0.015624 -0.001984 1.000000
tan 0.992374 0.085932 -0.010912 1.000000
tan 0.992374 -0.085932 -0.010912 1.000000
tan 1.000186 -0.015624 -0.001984 1.000000
tan 1.003038 0.036766 -0.049414 1.000000
tan 0.996590 -0.045198 -0.084134 1.000000
tan 1.000062 -0.007874 -0.000062 1.000000
tan 1.000062 0.007998 -0.015686 1.000000
tan 0.996714 0.085250 -0.016368 1.000000
tan 1.007502 0.007750 -0.001550 1.000000
tan 0.690557 -0.718023 -0.096658 1.000000
tan 0.017918 -0.054498 -1.001550 1.000000
tan 0.010664 -0.041044 -1.000186 1.000000
tan 0.013950 -0.010850 -1.007502 1.000000
tan 0.007998 -0.015686 -1.000062 1.000000
tan 0.337901 -0.930002 -0.186000 1.000000
tan 0.055180 0.007440 -1.000062 1.000000
tan 0.090582 0.114452 -0.985554 1.000000
tan 0.015624 0.001984 -1.000186 1.000000
tan 0.706181 0.703081 -0.089280 1.000000
tan 0.029326 -0.066650 -0.999752 1.000000
tan 0.934652 0.355075 -0.078492 1.000000
tan 0.015624 -0.001984 -1.000186 1.000000
tan 0.934652 -0.355075 -0.078492 1.000000
tan 0.027776 0.058900 -0.999752 1.000000
tan 0.055180 -0.007440 -1.000062 1.000000
tan 0.082460 -0.106888 -0.985554 1.000000
tan 0.706181 -0.703081 -0.089280 1.000000
tan 0.000124 0.015748 -1.000062 1.000000
tan 0.002170 0.055118 -1.001550 1.000000
tan 0.012400 0.018600 -1.007502 1.000000
tan 0.329655 0.930002 -0.178560 1.000000
tan 0.016616 0.005828 -1.000186 1.000000
tan 0.017050 0.004650 -1.007502 1.000000
tan 0.011656 0.033232 -1.000186 1.000000
tan 0.682745 0.725835 -0.097588 1.000000
tan 1.000186 0.000992 -0.007812 1.000000
tan 1.000186 -0.000992 -0.007812 1.000000
tan 1.007502 0.000000 0.000000 1.000000
tan 1.000248 -0.007874 -0.000124 1.000000
tan 1.004464 -0.007750 0.001488 1.000000
tan 1.000062 0.007874 0.000062 1.000000
tan 1.003038 -0.052514 0.050282 1.000000
tan 0.996466 0.030380 -0.011284 1.000000
tan 1.000186 0.007812 0.000992 1.000000
tan 1.000186 0.007812 0.000992 1.000000
tan 1.000186 -0.007812 0.000992 1.000000
tan 1.000186 -0.007812 0.000992 1.000000
tan 0.015624 -0.001984 -1.000186 1.000000
tan 0.015624 0.001984 -1.000186 1.000000
tan 1.002604 0.052514 0.058156 1.000000
tan 0.998264 -0.031248 -0.003720 1.000000
tan 1.000248 0.007998 0.007750 1.000000
tan 1.000062 -0.007812 0.007936 1.000000
tan 1.004464 0.015500 0.002976 1.000000
tan 1.007502 0.015500 0.003100 1.000000
tan 1.004464 0.000000 0.000000 1.000000
tan 1.007502 0.000000 0.000000 1.000000
tan 0.015500 -0.003100 -1.007502 1.000000
tan 0.015500 0.003100 -1.007502 1.000000
f 3/3/3 2/2/2 1/1/1
f 4/4/4 1/1/1 2/2/2
f 7/7/7 6/6/6 5/5/5
f 8/8/8 5/5/5 6/6/6
f 11/11/11 10/10/10 9/9/9
f 12/12/12 9/9/9 10/10/10
f 15/15/15 14/14/14 13/13/13
f 16/16/16 15/15/15 13/13/13
f 19/19/19 18/18/18 17/17/17
f 20/20/20 17/17/17 18/18/18
f 23/23/23 22/22/22 21/21/21
f 24/24/24 23/23/23 21/21/21
f 27/27/27 26/26/26 25/25/25
f 30/30/30 29/29/29 28/28/28
f 33/33/33 32/32/32 31/31/31
f 36/36/36 35/35/35 34/34/34
f 39/39/39 38/38/38 37/37/37
f 40/40/40 39/39/39 37/37/37
f 41/41/41 39/39/39 40/40/40
f 40/40/40 42/42/42 41/41/41
f 43/43/43 41/41/41 42/42/42
f 42/42/42 44/44/44 43/43/43
f 45/45/45 43/43/43 44/44/44
f 44/44/44 46/46/46 45/45/45
f 46/46/46 47/47/47 45/45/45
f 48/48/48 45/45/45 47/47/47
f 47/47/47 49/49/49 48/48/48
f 48/48/48 49/49/49 50/50/50
f 49/49/49 51/51/51 50/50/50
f 50/50/50 51/51/51 52/52/52
f 53/53/53 52/52/52 51/51/51
f 54/54/54 52/52/52 53/53/53
f 57/57/57 56/56/56 55/55/55
f 56/56/56 57/57/57 58/58/58
f 57/57/57 59/59/59 58/58/58
f 60/60/60 58/58/58 59/59/59
f 61/61/61 60/60/60 59/59/59
f 62/62/62 61/61/61 59/59/59
f 61/61/61 64/64/64 63/63/63
f 65/65/65 61/61/61 62/62/62
f 65/65/65 64/64/64 61/61/61
f 66/66/66 65/65/65 62/62/62
f 65/65/65 67/67/67 64/64/64
f 68/68/68 65/65/65 66/66/66
f 65/65/65 68/68/68 67/67/67
f 69/69/69 67/67/67 68/68/68
f 70/70/70 69/69/69 68/68/68
f 71/71/71 69/69/69 70/70/70
f 69/69/69 72/72/72 67/67/67
f 72/72/72 73/73/73 67/67/67
f 69/69/69 71/71/71 74/74/74
f 74/74/74 75/75/75 69/69/69
f 75/75/75 72/72/72 69/69/69
f 76/76/76 74/74/74 71/71/71
f 77/77/77 74/74/74 76/76/76
f 77/77/77 76/76/76 78/78/78
f 71/71/71 79/79/79 76/76/76
f 78/78/78 76/76/76 80/80/80
f 76/76/76 79/79/79 80/80/80
f 81/81/81 80/80/80 79/79/79
f 75/75/75 82/82/82 72/72/72
f 82/82/82 83/83/83 72/72/72
f 72/72/72 83/83/83 73/73/73
f 84/84/84 82/82/82 75/75/75
f 84/84/84 75/75/75 85/85/85
f 87/87/87 85/85/85 86/86/86
f 84/84/84 85/85/85 87/87/87
f 84/84/84 87/87/87 88/88/88
f 89/89/89 84/84/84 88/88/88
f 89/89/89 82/82/82 84/84/84
f 90/90/90 89/89/89 88/88/88
f 91/91/91 89/89/89 90/90/90
f 92/92/92 82/82/82 89/89/89
f 82/82/82 93/93/93 83/83/83
f 93/93/93 94/94/94 83/83/83
f 93/93/93 95/95/95 94/94/94
f 95/95/95 96/96/96 94/94/94
f 97/97/97 94/94/94 96/96/96
f 83/83/83 94/94/94 98/98/98
f 83/83/83 98/98/98 73/73/73
f 94/94/94 97/97/97 99/99/99
f 94/94/94 99/99/99 98/98/98
f 100/100/100 99/99/99 97/97/97
f 97/97/97 101/101/101 100/100/100
f 102/102/102 100/100/100 101/101/101
f 104/104/104 100/100/100 103/103/103
f 103/103/103 100/100/100 105/105/105
f 100/100/100 102/102/102 105/105/105
f 106/106/106 105/105/105 102/102/102
f 105/105/105 106/106/106 107/107/107
f 108/108/108 107/107/107 106/106/106
f 107/107/107 108/108/108 109/109/109
f 110/110/110 109/109/109 108/108/108
f 108/108/108 111/111/111 110/110/110
f 111/111/111 112/112/112 110/110/110
f 110/110/110 114/114/114 113/113/113
f 115/115/115 114/114/114 110/110/110
f 115/115/115 110/110/110 112/112/112
f 116/116/116 115/115/115 112/112/112
f 115/115/115 116/116/116 117/117/117
f 119/119/119 98/98/98 118/118/118
f 119/119/119 73/73/73 98/98/98
f 120/120/120 73/73/73 119/119/119
f 120/120/120 121/121/121 73/73/73
f 121/121/121 120/120/120 122/122/122
f 119/119/119 123/123/123 120/120/120
f 122/122/122 120/120/120 124/124/124
f 124/124/124 120/120/120 123/123/123
f 123/123/123 125/125/125 124/124/124
f 126/126/126 124/124/124 125/125/125
f 125/125/125 127/127/127 126/126/126
f 128/128/128 126/126/126 127/127/127
f 128/128/128 127/127/127 129/129/129
f 130/130/130 129/129/129 127/127/127
f 133/133/133 132/132/132 131/131/131
f 131/131/131 134/134/134 133/133/133
f 133/133/133 134/134/134 135/135/135
f 136/136/136 135/135/135 134/134/134
f 137/137/137 135/135/135 136/136/136
f 138/138/138 135/135/135 137/137/137
f 138/138/138 137/137/137 139/139/139
f 137/137/137 140/140/140 139/139/139
f 139/139/139 140/140/140 141/141/141
f 143/143/143 142/142/142 140/140/140
f 140/140/140 142/142/142 141/141/141
f 142/142/142 144/144/144 141/141/141
f 145/145/145 141/141/141 144/144/144
f 146/146/146 144/144/144 142/142/142
f 147/147/147 145/145/145 144/144/144
f 148/148/148 147/147/147 144/144/144
f 145/145/145 147/147/147 149/149/149
f 150/150/150 149/149/149 147/147/147
f 151/151/151 150/150/150 147/147/147
f 146/146/146 152/152/152 144/144/144
f 154/154/154 153/153/153 146/146/146
f 152/152/152 146/146/146 155/155/155
f 153/153/153 155/155/155 146/146/146
f 155/155/155 153/153/153 156/156/156
f 157/157/157 156/156/156 153/153/153
f 155/155/155 158/158/158 152/152/152
f 159/159/159 157/157/157 153/153/153
f 157/157/157 159/159/159 160/160/160
f 159/159/159 161/161/161 160/160/160
f 160/160/160 161/161/161 162/162/162
f 163/163/163 162/162/162 161/161/161
f 164/164/164 162/162/162 163/163/163
f 162/162/162 164/164/164 165/165/165
f 166/166/166 152/152/152 158/158/158
f 152/152/152 166/166/166 167/167/167
f 158/158/158 168/168/168 166/166/166
f 169/169/169 166/166/166 168/168/168
f 170/170/170 169/169/169 168/168/168
f 173/173/173 172/172/172 171/171/171
f 171/171/171 172/172/172 174/174/174
f 172/172/172 175/175/175 174/174/174
f 177/177/177 176/176/176 174/174/174
f 175/175/175 178/178/178 174/174/174
f 174/174/174 178/178/178 177/177/177
f 175/175/175 179/179/179 178/178/178
f 178/178/178 179/179/179 180/180/180
f 181/181/181 177/177/177 178/178/178
f 181/181/181 178/178/178 182/182/182
f 183/183/183 177/177/177 181/181/181
f 184/184/184 183/183/183 181/181/181
f 183/183/183 184/184/184 185/185/185
f 185/185/185 186/186/186 183/183/183
f 185/185/185 187/187/187 186/186/186
f 188/188/188 185/185/185 184/184/184
f 184/184/184 189/189/189 188/188/188
f 190/190/190 187/187/187 185/185/185
f 189/189/189 191/191/191 188/188/188
f 188/188/188 191/191/191 185/185/185
f 190/190/190 185/185/185 191/191/191
f 192/192/192 191/191/191 189/189/189
f 193/193/193 187/187/187 190/190/190
f 194/194/194 191/191/191 192/192/192
f 191/191/191 194/194/194 190/190/190
f 190/190/190 194/194/194 193/193/193
f 194/194/194 195/195/195 193/193/193
f 196/196/196 193/193/193 195/195/195
f 198/198/198 195/195/195 197/197/197
f 198/198/198 196/196/196 195/195/195
f 199/199/199 196/196/196 198/198/198
f 199/199/199 200/200/200 196/196/196
f 203/203/203 202/202/202 201/201/201
f 201/201/201 202/202/202 204/204/204
f 202/202/202 205/205/205 204/204/204
f 202/202/202 206/206/206 205/205/205
f 207/207/207 204/204/204 205/205/205
f 208/208/208 204/204/204 207/207/207
f 205/205/205 206/206/206 209/209/209
f 205/205/205 209/209/209 207/207/207
f 209/209/209 206/206/206 210/210/210
f 209/209/209 210/210/210 211/211/211
f 207/207/207 212/212/212 208/208/208
f 212/212/212 207/207/207 209/209/209
f 211/211/211 212/212/212 209/209/209
f 213/213/213 208/208/208 212/212/212
f 213/213/213 212/212/212 214/214/214
f 214/214/214 212/212/212 211/211/211
f 215/215/215 214/214/214 211/211/211
f 216/216/216 215/215/215 211/211/211
f 216/216/216 217/217/217 215/215/215
f 216/216/216 218/218/218 217/217/217
f 219/219/219 215/215/215 217/217/217
f 219/219/219 220/220/220 215/215/215
f 218/218/218 221/221/221 217/217/217
f 217/217/217 221/221/221 219/219/219
f 222/222/222 221/221/221 218/218/218
f 219/219/219 223/223/223 220/220/220
f 223/223/223 219/219/219 221/221/221
f 224/224/224 220/220/220 223/223/223
f 221/221/221 225/225/225 223/223/223
f 223/223/223 225/225/225 226/226/226
f 229/229/229 228/228/228 227/227/227
f 230/230/230 229/229/229 227/227/227
f 230/230/230 231/231/231 229/229/229
f 229/229/229 231/231/231 232/232/232
f 233/233/233 232/232/232 231/231/231
f 231/231/231 234/234/234 233/233/233
f 235/235/235 233/233/233 234/234/234
f 234/234/234 236/236/236 235/235/235
f 235/235/235 236/236/236 237/237/237
f 238/238/238 237/237/237 236/236/236
f 238/238/238 239/239/239 237/237/237
f 241/241/241 237/237/237 240/240/240
f 237/237/237 239/239/239 240/240/240
f 240/240/240 239/239/239 242/242/242
f 243/243/243 242/242/242 239/239/239
f 245/245/245 244/244/244 243/243/243
f 244/244/244 242/242/242 243/243/243
f 246/246/246 242/242/242 244/244/244
f 247/247/247 240/240/240 242/242/242
f 247/247/247 248/248/248 240/240/240
f 250/250/250 249/249/249 247/247/247
f 249/249/249 251/251/251 247/247/247
f 251/251/251 249/249/249 252/252/252
f 248/248/248 247/247/247 251/251/251
f 251/251/251 253/253/253 248/248/248
f 254/254/254 248/248/248 253/253/253
f 248/248/248 254/254/254 255/255/255
f 256/256/256 254/254/254 253/253/253
f 256/256/256 257/257/257 254/254/254
f 258/258/258 254/254/254 257/257/257
f 259/259/259 258/258/258 257/257/257
f 258/258/258 259/259/259 260/260/260
f 260/260/260 259/259/259 261/261/261
f 262/262/262 261/261/261 259/259/259
f 263/263/263 261/261/261 262/262/262
f 264/264/264 263/263/263 262/262/262
f 264/264/264 266/266/266 265/265/265
f 263/263/263 264/264/264 265/265/265
f 267/267/267 263/263/263 265/265/265
f 268/268/268 263/263/263 267/267/267
f 271/271/271 270/270/270 269/269/269
f 272/272/272 269/269/269 270/270/270
f 272/272/272 270/270/270 273/273/273
f 274/274/274 273/273/273 270/270/270
f 273/273/273 274/274/274 275/275/275
f 274/274/274 276/276/276 275/275/275
f 276/276/276 277/277/277 275/275/275
f 278/278/278 275/275/275 277/277/277
f 278/278/278 277/277/277 279/279/279
f 277/277/277 280/280/280 279/279/279
f 281/281/281 279/279/279 280/280/280
f 279/279/279 281/281/281 282/282/282
f 283/283/283 282/282/282 281/281/281
f 284/284/284 282/282/282 283/283/283
f 284/284/284 283/283/283 285/285/285
f 286/286/286 285/285/285 283/283/283
f 289/289/289 288/288/288 287/287/287
f 288/288/288 289/289/289 290/290/290
f 290/290/290 291/291/291 288/288/288
f 291/291/291 290/290/290 292/292/292
f 293/293/293 288/288/288 291/291/291
f 294/294/294 293/293/293 291/291/291
f 296/296/296 295/295/295 294/294/294
f 297/297/297 293/293/293 294/294/294
f 295/295/295 297/297/297 294/294/294
f 297/297/297 298/298/298 293/293/293
f 295/295/295 299/299/299 297/297/297
f 297/297/297 300/300/300 298/298/298
f 301/301/301 300/300/300 297/297/297
f 301/301/301 297/297/297 299/299/299
f 302/302/302 300/300/300 301/301/301
f 299/299/299 303/303/303 301/301/301
f 301/301/301 303/303/303 302/302/302
f 303/303/303 299/299/299 304/304/304
f 303/303/303 305/305/305 302/302/302
f 302/302/302 305/305/305 306/306/306
f 308/308/308 307/307/307 305/305/305
f 307/307/307 306/306/306 305/305/305
f 310/310/310 309/309/309 307/307/307
f 306/306/306 307/307/307 311/311/311
f 311/311/311 307/307/307 309/309/309
f 311/311/311 312/312/312 306/306/306
f 313/313/313 311/311/311 309/309/309
f 314/314/314 311/311/311 313/313/313
f 317/317/317 316/316/316 315/315/315
f 315/315/315 316/316/316 318/318/318
f 318/318/318 316/316/316 319/319/319
f 316/316/316 320/320/320 319/319/319
f 320/320/320 321/321/321 319/319/319
f 322/322/322 319/319/319 321/321/321
f 322/322/322 321/321/321 323/323/323
f 321/321/321 324/324/324 323/323/323
f 321/321/321 325/325/325 324/324/324
f 324/324/324 325/325/325 326/326/326
f 323/323/323 324/324/324 327/327/327
f 328/328/328 327/327/327 324/324/324
f 328/328/328 329/329/329 327/327/327
f 330/330/330 327/327/327 329/329/329
f 330/330/330 329/329/329 331/331/331
f 332/332/332 331/331/331 329/329/329
f 332/332/332 333/333/333 331/331/331
f 334/334/334 331/331/331 333/333/333
f 335/335/335 333/333/333 332/332/332
f 336/336/336 333/333/333 335/335/335
