mtllib SM_Metal_Trim_02.mtl
g SM_Metal_Trim_02
#Vertices 128
#Indices 444
#Section 0 Offset 0 NumIndices 444 MaterialIndex 0 MI_Fence_02
v 0.000263 0.028054 -0.000000
v 0.025047 0.030474 -0.000000
v 0.003512 0.030474 -0.000000
v -0.006665 0.006107 -0.000000
v 0.029024 0.028996 -0.000000
v 0.040214 0.019354 -0.000000
v 0.063785 0.019354 -0.000000
v -0.010882 0.000000 0.000000
v -0.010882 0.004149 -0.000000
v 0.114881 0.000000 0.000000
v 0.110665 0.006107 -0.000000
v 0.114881 0.004149 -0.000000
v 0.074975 0.028996 -0.000000
v 0.078953 0.030474 -0.000000
v 0.103739 0.028055 -0.000000
v 0.100488 0.030474 -0.000000
v 0.103737 0.028054 1.200000
v 0.078953 0.030474 1.200000
v 0.100488 0.030474 1.200000
v 0.110665 0.006107 1.200000
v 0.074975 0.028997 1.200000
v 0.063785 0.019354 1.200000
v 0.040214 0.019354 1.200000
v 0.114881 0.000000 1.200000
v 0.114881 0.004149 1.200000
v -0.010882 0.000000 1.200000
v -0.006665 0.006107 1.200000
v -0.010882 0.004149 1.200000
v 0.029024 0.028997 1.200000
v 0.025047 0.030474 1.200000
v 0.000261 0.028055 1.200000
v 0.003512 0.030474 1.200000
v 0.114881 0.004149 1.200000
v 0.119054 0.000000 1.196000
v 0.114881 0.000000 1.200000
v 0.119054 0.006656 1.196000
v 0.114094 0.008959 1.196000
v 0.110665 0.006107 1.200000
v 0.103737 0.028054 1.200000
v 0.106900 0.032353 1.196000
v 0.104053 0.034474 1.196000
v 0.100488 0.030474 1.200000
v 0.077393 0.034474 1.196000
v 0.078953 0.030474 1.200000
v 0.073546 0.033045 1.196000
v 0.074975 0.028997 1.200000
v 0.062299 0.023354 1.196000
v 0.063785 0.019354 1.200000
v 0.041700 0.023354 1.196000
v 0.040214 0.019354 1.200000
v 0.029024 0.028997 1.200000
v 0.030454 0.033045 1.196000
v 0.025047 0.030474 1.200000
v 0.026607 0.034474 1.196000
v 0.003512 0.030474 1.200000
v -0.000053 0.034474 1.196000
v 0.000261 0.028055 1.200000
v -0.002901 0.032353 1.196000
v -0.010095 0.008959 1.196000
v -0.006665 0.006107 1.200000
v -0.010882 0.004149 1.200000
v -0.015054 0.006656 1.196000
v -0.015055 0.000000 1.196000
v -0.010882 0.000000 1.200000
v -0.010882 0.004149 -0.000000
v -0.015055 0.000000 0.004000
v -0.010882 0.000000 0.000000
v -0.015054 0.006656 0.004000
v -0.015055 0.000000 1.194340
v -0.015054 0.006656 1.196000
v -0.015055 0.000000 1.196000
v -0.015054 0.006656 1.194340
v -0.010095 0.008959 1.196000
v -0.010095 0.008959 1.194340
v -0.002901 0.032353 1.196000
v -0.010095 0.008959 0.004000
v -0.006665 0.006107 -0.000000
v 0.000263 0.028054 -0.000000
v -0.002901 0.032353 1.194340
v -0.002901 0.032353 0.004000
v -0.000053 0.034474 0.004000
v 0.003512 0.030474 -0.000000
v -0.000053 0.034474 1.194340
v -0.000053 0.034474 1.196000
v 0.026607 0.034474 1.196000
v 0.026607 0.034474 0.004000
v 0.025047 0.030474 -0.000000
v 0.026607 0.034474 1.194340
v 0.030454 0.033045 0.004000
v 0.029024 0.028996 -0.000000
v 0.030454 0.033045 1.194340
v 0.030454 0.033045 1.196000
v 0.041700 0.023354 0.004000
v 0.040214 0.019354 -0.000000
v 0.041700 0.023354 1.194340
v 0.041700 0.023354 1.196000
v 0.062299 0.023354 0.004000
v 0.063785 0.019354 -0.000000
v 0.074975 0.028996 -0.000000
v 0.062299 0.023354 1.194340
v 0.062299 0.023354 1.196000
v 0.073546 0.033045 0.004000
v 0.078953 0.030474 -0.000000
v 0.073546 0.033045 1.194340
v 0.073546 0.033045 1.196000
v 0.077393 0.034474 0.004000
v 0.100488 0.030474 -0.000000
v 0.077393 0.034474 1.194340
v 0.077393 0.034474 1.196000
v 0.104053 0.034474 0.004000
v 0.103739 0.028055 -0.000000
v 0.104053 0.034474 1.194340
v 0.104053 0.034474 1.196000
v 0.106900 0.032353 0.004000
v 0.106900 0.032353 1.194340
v 0.106900 0.032353 1.196000
v 0.114094 0.008959 0.004000
v 0.110665 0.006107 -0.000000
v 0.114881 0.004149 -0.000000
v 0.114094 0.008959 1.194340
v 0.114094 0.008959 1.196000
v 0.119054 0.006656 1.196000
v 0.114881 0.000000 0.000000
v 0.119054 0.000000 0.004000
v 0.119054 0.006656 1.194340
v 0.119054 0.000000 1.196000
v 0.119054 0.000000 1.194340
v 0.119054 0.006656 0.004000
vt 0.119629 0.764160
vt 0.130981 0.765259
vt 0.121033 0.765259
vt 0.116333 0.753906
vt 0.132812 0.764526
vt 0.138184 0.760132
vt 0.149414 0.760132
vt 0.114441 0.750977
vt 0.114441 0.752930
vt 0.173218 0.750977
vt 0.171265 0.753906
vt 0.173096 0.752930
vt 0.154785 0.764526
vt 0.156494 0.765259
vt 0.167969 0.764160
vt 0.166504 0.765259
vt 0.119629 0.801147
vt 0.130981 0.802124
vt 0.121033 0.802124
vt 0.116333 0.790894
vt 0.132812 0.801514
vt 0.138184 0.797119
vt 0.149292 0.797119
vt 0.114441 0.787964
vt 0.114441 0.789795
vt 0.173096 0.787964
vt 0.171265 0.790894
vt 0.173096 0.789795
vt 0.154785 0.801514
vt 0.156494 0.802124
vt 0.167969 0.801147
vt 0.166504 0.802124
vt 0.960449 0.022949
vt 0.958008 0.020020
vt 0.960938 0.020996
vt 0.957520 0.022949
vt 0.958008 0.025391
vt 0.960938 0.024902
vt 0.960449 0.035645
vt 0.957520 0.036133
vt 0.957520 0.036621
vt 0.960449 0.037598
vt 0.957520 0.047852
vt 0.960449 0.047852
vt 0.957520 0.048828
vt 0.960449 0.049316
vt 0.958008 0.055176
vt 0.960938 0.055176
vt 0.958008 0.064453
vt 0.960938 0.064453
vt 0.960449 0.070312
vt 0.957520 0.070312
vt 0.960449 0.071777
vt 0.957520 0.071289
vt 0.960449 0.082031
vt 0.957520 0.083008
vt 0.960449 0.083984
vt 0.957520 0.083496
vt 0.958008 0.094238
vt 0.960938 0.094727
vt 0.960449 0.096680
vt 0.957520 0.096191
vt 0.958008 0.099121
vt 0.960938 0.098633
vt 0.024841 0.096680
vt 0.027145 0.099121
vt 0.024307 0.098633
vt 0.027573 0.096191
vt 0.587402 0.099121
vt 0.588379 0.096191
vt 0.588379 0.099121
vt 0.587402 0.096191
vt 0.588379 0.094238
vt 0.587402 0.094238
vt 0.588379 0.083496
vt 0.027115 0.094238
vt 0.024094 0.094727
vt 0.024399 0.083984
vt 0.587402 0.083496
vt 0.027374 0.083496
vt 0.027359 0.083008
vt 0.024475 0.082031
vt 0.587402 0.083008
vt 0.588379 0.083008
vt 0.588379 0.071289
vt 0.027374 0.071289
vt 0.024658 0.071777
vt 0.587402 0.071289
vt 0.027405 0.070312
vt 0.024689 0.070312
vt 0.587402 0.070312
vt 0.588379 0.070312
vt 0.027237 0.064453
vt 0.024399 0.064453
vt 0.587402 0.064453
vt 0.588379 0.064453
vt 0.027237 0.055176
vt 0.024399 0.055176
vt 0.024689 0.049316
vt 0.587402 0.055176
vt 0.588379 0.055176
vt 0.027405 0.048828
vt 0.024658 0.047852
vt 0.587402 0.048828
vt 0.588379 0.048828
vt 0.027374 0.047852
vt 0.024475 0.037598
vt 0.587402 0.047852
vt 0.588379 0.047852
vt 0.027359 0.036621
vt 0.024399 0.035645
vt 0.587402 0.036621
vt 0.588379 0.036621
vt 0.027374 0.036133
vt 0.587402 0.036133
vt 0.588379 0.036133
vt 0.027115 0.025391
vt 0.024094 0.024902
vt 0.024841 0.022949
vt 0.587402 0.025391
vt 0.588379 0.025391
vt 0.588379 0.022949
vt 0.024307 0.020996
vt 0.027145 0.020020
vt 0.587402 0.022949
vt 0.588379 0.020020
vt 0.587402 0.020020
vt 0.027573 0.022949
vt1 0.479492 0.478027
vt1 0.498047 0.479980
vt1 0.481689 0.479980
vt1 0.474121 0.461426
vt1 0.500977 0.479004
vt1 0.509766 0.471680
vt1 0.527832 0.471680
vt1 0.470947 0.456543
vt1 0.471191 0.459961
vt1 0.566406 0.456543
vt1 0.563477 0.461426
vt1 0.566406 0.459961
vt1 0.536621 0.478516
vt1 0.539551 0.479980
vt1 0.558105 0.478027
vt1 0.555664 0.479980
vt1 0.509766 0.787964
vt1 0.511230 0.769409
vt1 0.511230 0.785645
vt1 0.493164 0.793335
vt1 0.510254 0.766479
vt1 0.502930 0.757690
vt1 0.502930 0.739502
vt1 0.488281 0.796387
vt1 0.491455 0.796387
vt1 0.488281 0.700928
vt1 0.493164 0.704102
vt1 0.491455 0.700928
vt1 0.510254 0.730957
vt1 0.511230 0.728027
vt1 0.509766 0.709229
vt1 0.511230 0.711670
vt1 0.232788 0.696045
vt1 0.236816 0.700684
vt1 0.231934 0.699219
vt1 0.237549 0.695801
vt1 0.236694 0.692139
vt1 0.231567 0.692871
vt1 0.232056 0.674561
vt1 0.237183 0.673340
vt1 0.237183 0.672363
vt1 0.232178 0.670654
vt1 0.237183 0.652832
vt1 0.232422 0.653564
vt1 0.237183 0.651123
vt1 0.232544 0.650879
vt1 0.236938 0.640381
vt1 0.232056 0.640625
vt1 0.236938 0.624756
vt1 0.232056 0.624512
vt1 0.232544 0.614502
vt1 0.237183 0.614014
vt1 0.232422 0.611816
vt1 0.237183 0.612549
vt1 0.232178 0.594482
vt1 0.237183 0.592773
vt1 0.232056 0.590820
vt1 0.237183 0.591797
vt1 0.236694 0.573242
vt1 0.231567 0.572510
vt1 0.232788 0.569336
vt1 0.237549 0.569580
vt1 0.236816 0.564453
vt1 0.231934 0.565918
vt1 0.041199 0.164551
vt1 0.044952 0.168945
vt1 0.040314 0.167969
vt1 0.045654 0.164551
vt1 0.958496 0.168945
vt1 0.959473 0.164551
vt1 0.959961 0.168945
vt1 0.958496 0.164551
vt1 0.959961 0.160645
vt1 0.958496 0.160645
vt1 0.959473 0.143066
vt1 0.044891 0.160645
vt1 0.039978 0.161621
vt1 0.040497 0.144043
vt1 0.958496 0.143066
vt1 0.045319 0.143066
vt1 0.045319 0.142090
vt1 0.040588 0.140625
vt1 0.958496 0.142090
vt1 0.959473 0.142090
vt1 0.959473 0.123535
vt1 0.045319 0.123535
vt1 0.040894 0.124512
vt1 0.958496 0.123535
vt1 0.045380 0.122070
vt1 0.040955 0.122070
vt1 0.958496 0.122070
vt1 0.959473 0.122070
vt1 0.045074 0.112305
vt1 0.040466 0.112305
vt1 0.958496 0.112305
vt1 0.959961 0.112305
vt1 0.045074 0.097168
vt1 0.040466 0.097168
vt1 0.040955 0.087402
vt1 0.958496 0.097168
vt1 0.959961 0.097168
vt1 0.045380 0.086914
vt1 0.040894 0.084961
vt1 0.958496 0.086914
vt1 0.959473 0.086914
vt1 0.045319 0.085449
vt1 0.040588 0.068359
vt1 0.958496 0.085449
vt1 0.959473 0.085449
vt1 0.045319 0.066895
vt1 0.040497 0.064941
vt1 0.958496 0.066895
vt1 0.959473 0.066895
vt1 0.045319 0.065918
vt1 0.958496 0.065918
vt1 0.959473 0.065918
vt1 0.044891 0.048340
vt1 0.039978 0.047852
vt1 0.041199 0.044922
vt1 0.958496 0.048340
vt1 0.959961 0.048340
vt1 0.959473 0.044922
vt1 0.040314 0.041504
vt1 0.044952 0.040039
vt1 0.958496 0.044922
vt1 0.959961 0.040039
vt1 0.958496 0.040039
vt1 0.045654 0.044922
vn 0.000000 -0.000000 -1.000000
vn 0.000000 -0.000000 -1.000000
vn 0.000000 -0.000000 -1.000000
vn 0.000000 -0.000000 -1.000000
vn 0.000000 -0.000000 -1.000000
vn 0.000000 -0.000000 -1.000000
vn 0.000000 -0.000000 -1.000000
vn 0.000000 -0.000000 -1.000000
vn 0.000000 -0.000000 -1.000000
vn 0.000000 -0.000000 -1.000000
vn 0.000000 -0.000000 -1.000000
vn 0.000000 -0.000000 -1.000000
vn 0.000000 -0.000000 -1.000000
vn 0.000000 -0.000000 -1.000000
vn 0.000000 -0.000000 -1.000000
vn 0.000000 -0.000000 -1.000000
vn 0.000000 0.000000 1.000000
vn 0.000000 0.000000 1.000000
vn 0.000000 0.000000 1.000000
vn 0.000000 0.000000 1.000000
vn 0.000000 0.000000 1.000000
vn 0.000000 0.000000 1.000000
vn 0.000000 0.000000 1.000000
vn 0.000000 0.000000 1.000000
vn 0.000000 0.000000 1.000000
vn 0.000000 0.000000 1.000000
vn 0.000000 0.000000 1.000000
vn 0.000000 0.000000 1.000000
vn 0.000000 0.000000 1.000000
vn 0.000000 0.000000 1.000000
vn 0.000000 0.000000 1.000000
vn 0.000000 0.000000 1.000000
vn 0.527559 0.346457 0.771653
vn 0.921260 0.000000 0.393701
vn 0.692913 0.000000 0.724409
vn 0.779528 0.496063 0.377953
vn 0.669291 0.590551 0.456693
vn 0.503937 0.433071 0.748031
vn 0.543307 0.330709 0.771653
vn 0.740157 0.535433 0.409449
vn 0.307087 0.866142 0.401575
vn 0.149606 0.629921 0.763779
vn -0.165354 0.913386 0.377953
vn -0.110236 0.685039 0.724409
vn -0.464567 0.795276 0.377953
vn -0.362205 0.590551 0.724409
vn -0.314961 0.842520 0.433071
vn -0.236220 0.637795 0.732283
vn 0.314961 0.842520 0.433071
vn 0.236220 0.637795 0.732283
vn 0.362205 0.590551 0.724409
vn 0.464567 0.795276 0.377953
vn 0.110236 0.685039 0.724409
vn 0.165354 0.913386 0.377953
vn -0.149606 0.629921 0.763779
vn -0.307087 0.866142 0.401575
vn -0.543307 0.330709 0.771653
vn -0.740157 0.535433 0.409449
vn -0.669291 0.590551 0.456693
vn -0.503937 0.433071 0.748031
vn -0.527559 0.346457 0.771653
vn -0.779528 0.496063 0.377953
vn -0.921260 0.000000 0.393701
vn -0.692913 0.000000 0.724409
vn -0.527559 0.346457 -0.771653
vn -0.921260 -0.000000 -0.393701
vn -0.692913 -0.000000 -0.724409
vn -0.779528 0.496063 -0.377953
vn -1.000000 0.000000 0.000000
vn -0.779528 0.496063 0.377953
vn -0.921260 0.000000 0.393701
vn -0.842520 0.535433 -0.000000
vn -0.669291 0.590551 0.456693
vn -0.755906 0.653543 -0.000000
vn -0.740157 0.535433 0.409449
vn -0.669291 0.590551 -0.456693
vn -0.503937 0.433071 -0.748031
vn -0.543307 0.330709 -0.771653
vn -0.818898 0.574803 -0.000000
vn -0.740157 0.535433 -0.409449
vn -0.307087 0.866142 -0.401575
vn -0.149606 0.629921 -0.763779
vn -0.314961 0.952756 -0.000000
vn -0.307087 0.866142 0.401575
vn 0.165354 0.913386 0.377953
vn 0.165354 0.913386 -0.377953
vn 0.110236 0.685039 -0.724409
vn 0.173228 0.984252 -0.000000
vn 0.464567 0.795275 -0.377953
vn 0.362205 0.590551 -0.724409
vn 0.511811 0.858268 -0.000000
vn 0.464567 0.795276 0.377953
vn 0.314961 0.842520 -0.433071
vn 0.236220 0.637795 -0.732283
vn 0.346457 0.937008 -0.000000
vn 0.314961 0.842520 0.433071
vn -0.314961 0.842520 -0.433071
vn -0.236220 0.637795 -0.732283
vn -0.362205 0.590551 -0.724409
vn -0.346457 0.937008 -0.000000
vn -0.314961 0.842520 0.433071
vn -0.464567 0.795275 -0.377953
vn -0.110236 0.685039 -0.724409
vn -0.511811 0.858268 -0.000000
vn -0.464567 0.795276 0.377953
vn -0.165354 0.913386 -0.377953
vn 0.149606 0.629921 -0.763779
vn -0.173228 0.984252 -0.000000
vn -0.165354 0.913386 0.377953
vn 0.307087 0.866142 -0.401575
vn 0.543307 0.330709 -0.771653
vn 0.314961 0.952756 -0.000000
vn 0.307087 0.866142 0.401575
vn 0.740157 0.535433 -0.409449
vn 0.818898 0.574803 -0.000000
vn 0.740157 0.535433 0.409449
vn 0.669291 0.590551 -0.456693
vn 0.503937 0.433071 -0.748031
vn 0.527559 0.346457 -0.771653
vn 0.755906 0.653543 -0.000000
vn 0.669291 0.590551 0.456693
vn 0.779528 0.496063 0.377953
vn 0.692913 -0.000000 -0.724409
vn 0.921260 -0.000000 -0.393701
vn 0.842520 0.535433 -0.000000
vn 0.921260 0.000000 0.393701
vn 1.000000 0.000000 0.000000
vn 0.779528 0.496063 -0.377953
tan 0.007874 -1.000000 0.000000 1.000000
tan -0.007874 -1.000000 0.000000 1.000000
tan 0.000000 -1.000000 0.000000 1.000000
tan -0.007874 -1.000000 0.000000 1.000000
tan -0.007874 -1.000000 0.000000 1.000000
tan 0.000000 -1.000000 0.000000 1.000000
tan 0.000000 -1.000000 0.000000 1.000000
tan -0.031496 -1.000000 0.000000 1.000000
tan -0.078740 -1.000000 0.000000 1.000000
tan 0.031496 -1.000000 0.000000 1.000000
tan 0.007874 -1.000000 0.000000 1.000000
tan 0.078740 -1.000000 0.000000 1.000000
tan 0.007874 -1.000000 0.000000 1.000000
tan 0.007874 -1.000000 0.000000 1.000000
tan -0.007874 -1.000000 0.000000 1.000000
tan 0.000000 -1.000000 0.000000 1.000000
tan 0.000000 -1.000000 0.000000 1.000000
tan 0.007874 -1.000000 0.000000 1.000000
tan 0.007874 -1.000000 0.000000 1.000000
tan 0.007874 -1.000000 0.000000 1.000000
tan 0.007874 -1.000000 0.000000 1.000000
tan 0.000000 -1.000000 0.000000 1.000000
tan 0.000000 -1.000000 0.000000 1.000000
tan 0.031496 -1.000000 0.000000 1.000000
tan 0.078740 -1.000000 0.000000 1.000000
tan -0.031496 -1.000000 0.000000 1.000000
tan -0.007874 -1.000000 0.000000 1.000000
tan -0.078740 -1.000000 0.000000 1.000000
tan -0.007874 -1.000000 0.000000 1.000000
tan -0.007874 -1.000000 0.000000 1.000000
tan 0.000000 -1.000000 0.000000 1.000000
tan 0.000000 -1.000000 0.000000 1.000000
tan 0.485585 -0.867010 0.057288 1.000000
tan 0.136400 -0.936388 -0.319176 1.000000
tan 0.199640 -0.960258 -0.190960 1.000000
tan 0.510571 -0.852068 0.065286 1.000000
tan 0.591667 -0.793539 0.159030 1.000000
tan 0.548081 -0.829996 0.111290 1.000000
tan 0.631037 -0.763283 -0.117180 1.000000
tan 0.542873 -0.831421 0.105896 1.000000
tan 0.864530 -0.429661 0.265609 1.000000
tan 0.960010 -0.283031 0.045384 1.000000
tan 0.986050 0.115320 0.152706 1.000000
tan 0.988034 0.173352 -0.013578 1.000000
tan 0.880836 0.426623 0.185008 1.000000
tan 0.883688 0.459173 0.067518 1.000000
tan 0.940418 0.327051 0.047678 1.000000
tan 0.956600 0.281047 0.063798 1.000000
tan 0.943828 -0.316821 -0.070060 1.000000
tan 0.950090 -0.305971 -0.039990 1.000000
tan 0.883688 -0.459173 -0.067518 1.000000
tan 0.880836 -0.426623 -0.185008 1.000000
tan 0.988034 -0.173352 0.013578 1.000000
tan 0.986050 -0.115320 -0.152706 1.000000
tan 0.960010 0.283031 -0.045384 1.000000
tan 0.864530 0.429661 -0.265609 1.000000
tan 0.631037 0.763283 0.117180 1.000000
tan 0.542873 0.831421 -0.105896 1.000000
tan 0.591667 0.793539 -0.159030 1.000000
tan 0.548081 0.829996 -0.111290 1.000000
tan 0.485585 0.867010 -0.057288 1.000000
tan 0.510571 0.852068 -0.065286 1.000000
tan 0.136400 0.936388 0.319176 1.000000
tan 0.199640 0.960258 0.190960 1.000000
tan 0.485585 0.867010 0.057288 1.000000
tan 0.071300 0.986112 -0.166842 1.000000
tan 0.199640 0.960258 -0.190960 1.000000
tan 0.525451 0.846116 0.026784 1.000000
tan 0.000000 1.000000 -0.000000 1.000000
tan 0.538285 0.846302 -0.000558 1.000000
tan 0.000000 1.003720 -0.000000 1.000000
tan 0.535433 0.842520 -0.000000 1.000000
tan 0.662099 0.750139 0.000310 1.000000
tan 0.653543 0.755905 -0.000000 1.000000
tan 0.585777 0.811458 -0.002232 1.000000
tan 0.625085 0.777233 0.088970 1.000000
tan 0.548081 0.829996 0.111290 1.000000
tan 0.631037 0.763283 -0.117180 1.000000
tan 0.574803 0.818897 -0.000000 1.000000
tan 0.569657 0.824354 0.048236 1.000000
tan 0.917106 0.379255 0.116684 1.000000
tan 0.960010 0.283031 0.045384 1.000000
tan 0.952756 0.314961 -0.000000 1.000000
tan 0.942898 0.334243 0.000124 1.000000
tan 0.981338 -0.179118 0.003534 1.000000
tan 0.987290 -0.149358 0.070990 1.000000
tan 0.988034 -0.173352 -0.013578 1.000000
tan 0.984252 -0.173228 0.000000 1.000000
tan 0.875504 -0.469651 0.087916 1.000000
tan 0.883688 -0.459173 0.067518 1.000000
tan 0.858268 -0.511811 0.000000 1.000000
tan 0.857648 -0.499411 -0.003348 1.000000
tan 0.937008 -0.337281 0.025296 1.000000
tan 0.956600 -0.281047 0.063798 1.000000
tan 0.937008 -0.346457 0.000000 1.000000
tan 0.933598 -0.347511 -0.002914 1.000000
tan 0.940418 0.330461 -0.041044 1.000000
tan 0.950090 0.305971 -0.039990 1.000000
tan 0.883688 0.459173 -0.067518 1.000000
tan 0.937008 0.346457 -0.000000 1.000000
tan 0.933598 0.347511 0.002914 1.000000
tan 0.875504 0.469651 -0.087916 1.000000
tan 0.988034 0.173352 0.013578 1.000000
tan 0.858268 0.511811 -0.000000 1.000000
tan 0.857648 0.499411 0.003348 1.000000
tan 0.987290 0.149358 -0.070990 1.000000
tan 0.960010 -0.283031 -0.045384 1.000000
tan 0.984252 0.173228 -0.000000 1.000000
tan 0.981338 0.179118 -0.003534 1.000000
tan 0.917106 -0.379255 -0.116684 1.000000
tan 0.631037 -0.763283 0.117180 1.000000
tan 0.952756 -0.314961 0.000000 1.000000
tan 0.942898 -0.334243 -0.000124 1.000000
tan 0.569657 -0.824354 -0.048236 1.000000
tan 0.574803 -0.818897 0.000000 1.000000
tan 0.585777 -0.811458 0.002232 1.000000
tan 0.625085 -0.777233 -0.088970 1.000000
tan 0.548081 -0.829996 -0.111290 1.000000
tan 0.485585 -0.867010 -0.057288 1.000000
tan 0.653543 -0.755905 0.000000 1.000000
tan 0.662099 -0.750139 -0.000310 1.000000
tan 0.538285 -0.846302 0.000558 1.000000
tan 0.199640 -0.960258 0.190960 1.000000
tan 0.071300 -0.986112 0.166842 1.000000
tan 0.535433 -0.842520 0.000000 1.000000
tan 0.000000 -1.003720 0.000000 1.000000
tan 0.000000 -1.000000 0.000000 1.000000
tan 0.525451 -0.846116 -0.026784 1.000000
f 3/3/3 2/2/2 1/1/1
f 1/1/1 2/2/2 4/4/4
f 2/2/2 5/5/5 4/4/4
f 6/6/6 4/4/4 5/5/5
f 6/6/6 7/7/7 4/4/4
f 9/9/9 4/4/4 8/8/8
f 8/8/8 4/4/4 10/10/10
f 11/11/11 4/4/4 7/7/7
f 11/11/11 10/10/10 4/4/4
f 11/11/11 12/12/12 10/10/10
f 7/7/7 13/13/13 11/11/11
f 14/14/14 11/11/11 13/13/13
f 15/15/15 11/11/11 14/14/14
f 16/16/16 15/15/15 14/14/14
f 19/19/19 18/18/18 17/17/17
f 17/17/17 18/18/18 20/20/20
f 18/18/18 21/21/21 20/20/20
f 22/22/22 20/20/20 21/21/21
f 22/22/22 23/23/23 20/20/20
f 25/25/25 20/20/20 24/24/24
f 24/24/24 20/20/20 26/26/26
f 27/27/27 20/20/20 23/23/23
f 27/27/27 26/26/26 20/20/20
f 27/27/27 28/28/28 26/26/26
f 23/23/23 29/29/29 27/27/27
f 30/30/30 27/27/27 29/29/29
f 31/31/31 27/27/27 30/30/30
f 32/32/32 31/31/31 30/30/30
f 35/35/35 34/34/34 33/33/33
f 36/36/36 33/33/33 34/34/34
f 36/36/36 37/37/37 33/33/33
f 38/38/38 33/33/33 37/37/37
f 38/38/38 37/37/37 39/39/39
f 39/39/39 37/37/37 40/40/40
f 40/40/40 41/41/41 39/39/39
f 42/42/42 39/39/39 41/41/41
f 42/42/42 41/41/41 43/43/43
f 44/44/44 42/42/42 43/43/43
f 43/43/43 45/45/45 44/44/44
f 46/46/46 44/44/44 45/45/45
f 45/45/45 47/47/47 46/46/46
f 48/48/48 46/46/46 47/47/47
f 47/47/47 49/49/49 48/48/48
f 49/49/49 50/50/50 48/48/48
f 49/49/49 51/51/51 50/50/50
f 52/52/52 51/51/51 49/49/49
f 51/51/51 52/52/52 53/53/53
f 54/54/54 53/53/53 52/52/52
f 54/54/54 55/55/55 53/53/53
f 55/55/55 54/54/54 56/56/56
f 55/55/55 56/56/56 57/57/57
f 56/56/56 58/58/58 57/57/57
f 57/57/57 58/58/58 59/59/59
f 59/59/59 60/60/60 57/57/57
f 60/60/60 59/59/59 61/61/61
f 62/62/62 61/61/61 59/59/59
f 63/63/63 61/61/61 62/62/62
f 63/63/63 64/64/64 61/61/61
f 67/67/67 66/66/66 65/65/65
f 68/68/68 65/65/65 66/66/66
f 66/66/66 69/69/69 68/68/68
f 69/69/69 71/71/71 70/70/70
f 70/70/70 72/72/72 69/69/69
f 69/69/69 72/72/72 68/68/68
f 72/72/72 70/70/70 73/73/73
f 74/74/74 72/72/72 73/73/73
f 74/74/74 68/68/68 72/72/72
f 73/73/73 75/75/75 74/74/74
f 68/68/68 76/76/76 65/65/65
f 76/76/76 68/68/68 74/74/74
f 77/77/77 65/65/65 76/76/76
f 76/76/76 78/78/78 77/77/77
f 79/79/79 74/74/74 75/75/75
f 74/74/74 79/79/79 76/76/76
f 78/78/78 76/76/76 80/80/80
f 80/80/80 76/76/76 79/79/79
f 80/80/80 81/81/81 78/78/78
f 80/80/80 79/79/79 81/81/81
f 82/82/82 78/78/78 81/81/81
f 79/79/79 75/75/75 83/83/83
f 83/83/83 81/81/81 79/79/79
f 84/84/84 83/83/83 75/75/75
f 83/83/83 84/84/84 85/85/85
f 82/82/82 81/81/81 86/86/86
f 81/81/81 83/83/83 86/86/86
f 87/87/87 82/82/82 86/86/86
f 88/88/88 83/83/83 85/85/85
f 88/88/88 86/86/86 83/83/83
f 86/86/86 89/89/89 87/87/87
f 86/86/86 88/88/88 89/89/89
f 90/90/90 87/87/87 89/89/89
f 88/88/88 85/85/85 91/91/91
f 91/91/91 89/89/89 88/88/88
f 92/92/92 91/91/91 85/85/85
f 89/89/89 93/93/93 90/90/90
f 89/89/89 91/91/91 93/93/93
f 94/94/94 90/90/90 93/93/93
f 91/91/91 92/92/92 95/95/95
f 95/95/95 93/93/93 91/91/91
f 96/96/96 95/95/95 92/92/92
f 94/94/94 93/93/93 97/97/97
f 93/93/93 95/95/95 97/97/97
f 98/98/98 94/94/94 97/97/97
f 97/97/97 99/99/99 98/98/98
f 95/95/95 96/96/96 100/100/100
f 100/100/100 97/97/97 95/95/95
f 101/101/101 100/100/100 96/96/96
f 102/102/102 99/99/99 97/97/97
f 97/97/97 100/100/100 102/102/102
f 99/99/99 102/102/102 103/103/103
f 100/100/100 101/101/101 104/104/104
f 104/104/104 102/102/102 100/100/100
f 105/105/105 104/104/104 101/101/101
f 106/106/106 103/103/103 102/102/102
f 102/102/102 104/104/104 106/106/106
f 103/103/103 106/106/106 107/107/107
f 104/104/104 105/105/105 108/108/108
f 108/108/108 106/106/106 104/104/104
f 109/109/109 108/108/108 105/105/105
f 107/107/107 106/106/106 110/110/110
f 106/106/106 108/108/108 110/110/110
f 107/107/107 110/110/110 111/111/111
f 108/108/108 109/109/109 112/112/112
f 112/112/112 110/110/110 108/108/108
f 113/113/113 112/112/112 109/109/109
f 110/110/110 114/114/114 111/111/111
f 110/110/110 112/112/112 114/114/114
f 112/112/112 113/113/113 115/115/115
f 115/115/115 114/114/114 112/112/112
f 116/116/116 115/115/115 113/113/113
f 111/111/111 114/114/114 117/117/117
f 117/117/117 118/118/118 111/111/111
f 118/118/118 117/117/117 119/119/119
f 115/115/115 120/120/120 114/114/114
f 115/115/115 116/116/116 120/120/120
f 117/117/117 114/114/114 120/120/120
f 121/121/121 120/120/120 116/116/116
f 120/120/120 121/121/121 122/122/122
f 124/124/124 123/123/123 119/119/119
f 125/125/125 120/120/120 122/122/122
f 125/125/125 122/122/122 126/126/126
f 126/126/126 127/127/127 125/125/125
f 124/124/124 119/119/119 128/128/128
f 128/128/128 127/127/127 124/124/124
f 127/127/127 128/128/128 125/125/125
f 125/125/125 128/128/128 120/120/120
f 128/128/128 119/119/119 117/117/117
f 117/117/117 120/120/120 128/128/128
