mtllib SM_Metal_Trim_03.mtl
g SM_Metal_Trim_03
#Vertices 112
#Indices 354
#Section 0 Offset 0 NumIndices 354 MaterialIndex 0 MI_Fence_02
v 0.000263 0.028054 -0.000000
v 0.025047 0.030474 -0.000000
v 0.003512 0.030474 -0.000000
v -0.006665 0.006107 -0.000000
v 0.029024 0.028996 -0.000000
v 0.040214 0.019354 -0.000000
v 0.063785 0.019354 -0.000000
v -0.010882 0.000000 0.000000
v -0.010882 0.004149 -0.000000
v 0.114881 0.000000 0.000000
v 0.110665 0.006107 -0.000000
v 0.114881 0.004149 -0.000000
v 0.074975 0.028996 -0.000000
v 0.078953 0.030474 -0.000000
v 0.103739 0.028055 -0.000000
v 0.100488 0.030474 -0.000000
v 0.103737 0.028054 0.600000
v 0.078953 0.030474 0.600000
v 0.100488 0.030474 0.600000
v 0.110665 0.006107 0.600000
v 0.074975 0.028997 0.600000
v 0.063785 0.019354 0.600000
v 0.040214 0.019354 0.600000
v 0.114881 0.000000 0.600000
v 0.114881 0.004149 0.600000
v -0.010882 0.000000 0.600000
v -0.006665 0.006107 0.600000
v -0.010882 0.004149 0.600000
v 0.029024 0.028997 0.600000
v 0.025047 0.030474 0.600000
v 0.000261 0.028055 0.600000
v 0.003512 0.030474 0.600000
v 0.114881 0.004149 0.600000
v 0.119054 0.000000 0.596000
v 0.114881 0.000000 0.600000
v 0.119054 0.006656 0.596000
v 0.114094 0.008959 0.596000
v 0.110665 0.006107 0.600000
v 0.103737 0.028054 0.600000
v 0.106900 0.032353 0.596000
v 0.104053 0.034474 0.596000
v 0.100488 0.030474 0.600000
v 0.077393 0.034474 0.596000
v 0.078953 0.030474 0.600000
v 0.074975 0.028997 0.600000
v 0.073546 0.033045 0.596000
v 0.062299 0.023354 0.596000
v 0.063785 0.019354 0.600000
v 0.040214 0.019354 0.600000
v 0.041700 0.023354 0.596000
v 0.029024 0.028997 0.600000
v 0.030454 0.033045 0.596000
v 0.025047 0.030474 0.600000
v 0.026607 0.034474 0.596000
v 0.003512 0.030474 0.600000
v -0.000053 0.034474 0.596000
v 0.000261 0.028055 0.600000
v -0.002901 0.032353 0.596000
v -0.010095 0.008959 0.596000
v -0.006665 0.006107 0.600000
v -0.010882 0.004149 0.600000
v -0.015054 0.006656 0.596000
v -0.015055 0.000000 0.596000
v -0.010882 0.000000 0.600000
v -0.015055 0.000000 0.004000
v -0.015054 0.006656 0.596000
v -0.015055 0.000000 0.596000
v -0.015054 0.006656 0.004000
v -0.010095 0.008959 0.596000
v -0.010882 0.004149 -0.000000
v -0.010882 0.000000 0.000000
v -0.010095 0.008959 0.004000
v -0.006665 0.006107 -0.000000
v -0.002901 0.032353 0.596000
v 0.000263 0.028054 -0.000000
v -0.002901 0.032353 0.004000
v -0.000053 0.034474 0.004000
v -0.000053 0.034474 0.596000
v 0.003512 0.030474 -0.000000
v 0.026607 0.034474 0.596000
v 0.026607 0.034474 0.004000
v 0.025047 0.030474 -0.000000
v 0.030454 0.033045 0.004000
v 0.030454 0.033045 0.596000
v 0.029024 0.028996 -0.000000
v 0.041700 0.023354 0.004000
v 0.041700 0.023354 0.596000
v 0.040214 0.019354 -0.000000
v 0.062299 0.023354 0.596000
v 0.062299 0.023354 0.004000
v 0.063785 0.019354 -0.000000
v 0.074975 0.028996 -0.000000
v 0.073546 0.033045 0.004000
v 0.073546 0.033045 0.596000
v 0.078953 0.030474 -0.000000
v 0.077393 0.034474 0.004000
v 0.077393 0.034474 0.596000
v 0.100488 0.030474 -0.000000
v 0.104053 0.034474 0.596000
v 0.104053 0.034474 0.004000
v 0.103739 0.028055 -0.000000
v 0.106900 0.032353 0.004000
v 0.106900 0.032353 0.596000
v 0.114094 0.008959 0.596000
v 0.114094 0.008959 0.004000
v 0.110665 0.006107 -0.000000
v 0.114881 0.004149 -0.000000
v 0.119054 0.006656 0.004000
v 0.119054 0.006656 0.596000
v 0.119054 0.000000 0.596000
v 0.119054 0.000000 0.004000
v 0.114881 0.000000 0.000000
vt 0.119629 0.764160
vt 0.130981 0.765259
vt 0.121033 0.765259
vt 0.116333 0.753906
vt 0.132812 0.764526
vt 0.138184 0.760132
vt 0.149414 0.760132
vt 0.114441 0.750977
vt 0.114441 0.752930
vt 0.173218 0.750977
vt 0.171265 0.753906
vt 0.173096 0.752930
vt 0.154785 0.764526
vt 0.156494 0.765259
vt 0.167969 0.764160
vt 0.166504 0.765259
vt 0.119629 0.801147
vt 0.130981 0.802124
vt 0.121033 0.802124
vt 0.116333 0.790894
vt 0.132812 0.801514
vt 0.138184 0.797119
vt 0.149292 0.797119
vt 0.114441 0.787964
vt 0.114441 0.789795
vt 0.173096 0.787964
vt 0.171265 0.790894
vt 0.173096 0.789795
vt 0.154785 0.801514
vt 0.156494 0.802124
vt 0.167969 0.801147
vt 0.166504 0.802124
vt 0.960449 0.022949
vt 0.958008 0.020020
vt 0.960938 0.020996
vt 0.957520 0.022949
vt 0.958008 0.025391
vt 0.960938 0.024902
vt 0.960449 0.035645
vt 0.957520 0.036133
vt 0.957520 0.036621
vt 0.960449 0.037598
vt 0.957520 0.047852
vt 0.960449 0.047852
vt 0.960449 0.049316
vt 0.957520 0.048828
vt 0.958008 0.055176
vt 0.960938 0.055176
vt 0.960938 0.064453
vt 0.958008 0.064453
vt 0.960449 0.070312
vt 0.957520 0.070312
vt 0.960449 0.071777
vt 0.957520 0.071289
vt 0.960449 0.082031
vt 0.957520 0.083008
vt 0.960449 0.083984
vt 0.957520 0.083496
vt 0.958008 0.094238
vt 0.960938 0.094727
vt 0.960449 0.096680
vt 0.957520 0.096191
vt 0.958008 0.099121
vt 0.960938 0.098633
vt 0.027145 0.099121
vt 0.305908 0.096191
vt 0.305664 0.099121
vt 0.027573 0.096191
vt 0.305664 0.094238
vt 0.024841 0.096680
vt 0.024307 0.098633
vt 0.027115 0.094238
vt 0.024094 0.094727
vt 0.305908 0.083496
vt 0.024399 0.083984
vt 0.027374 0.083496
vt 0.027359 0.083008
vt 0.305908 0.083008
vt 0.024475 0.082031
vt 0.305908 0.071289
vt 0.027374 0.071289
vt 0.024658 0.071777
vt 0.027405 0.070312
vt 0.305908 0.070312
vt 0.024689 0.070312
vt 0.027237 0.064453
vt 0.305908 0.064453
vt 0.024399 0.064453
vt 0.305908 0.055176
vt 0.027237 0.055176
vt 0.024399 0.055176
vt 0.024689 0.049316
vt 0.027405 0.048828
vt 0.305908 0.048828
vt 0.024658 0.047852
vt 0.027374 0.047852
vt 0.305908 0.047852
vt 0.024475 0.037598
vt 0.305908 0.036621
vt 0.027359 0.036621
vt 0.024399 0.035645
vt 0.027374 0.036133
vt 0.305908 0.036133
vt 0.305664 0.025391
vt 0.027115 0.025391
vt 0.024094 0.024902
vt 0.024841 0.022949
vt 0.027573 0.022949
vt 0.305908 0.022949
vt 0.305664 0.020020
vt 0.027145 0.020020
vt 0.024307 0.020996
vt1 0.604980 0.794189
vt1 0.642578 0.797607
vt1 0.609863 0.797607
vt1 0.594727 0.760864
vt1 0.648438 0.795532
vt1 0.665527 0.781128
vt1 0.702148 0.781128
vt1 0.588379 0.751465
vt1 0.588379 0.757568
vt1 0.779785 0.751465
vt1 0.773438 0.760864
vt1 0.779297 0.757568
vt1 0.719727 0.795532
vt1 0.725586 0.797607
vt1 0.762695 0.794189
vt1 0.757812 0.797607
vt1 0.545410 0.606201
vt1 0.548828 0.568848
vt1 0.548828 0.601318
vt1 0.511719 0.616699
vt1 0.546387 0.562988
vt1 0.532227 0.545410
vt1 0.532227 0.509277
vt1 0.502441 0.623047
vt1 0.508789 0.622803
vt1 0.502441 0.431641
vt1 0.511719 0.437988
vt1 0.508789 0.432129
vt1 0.546387 0.491699
vt1 0.548828 0.485840
vt1 0.545410 0.448730
vt1 0.548828 0.453613
vt1 0.211792 0.503418
vt1 0.203857 0.494141
vt1 0.213623 0.497070
vt1 0.202271 0.503906
vt1 0.203857 0.511230
vt1 0.214355 0.509766
vt1 0.213257 0.546387
vt1 0.203003 0.548584
vt1 0.203003 0.550781
vt1 0.213013 0.553955
vt1 0.203125 0.590088
vt1 0.212524 0.588379
vt1 0.212402 0.593750
vt1 0.203003 0.593262
vt1 0.203613 0.614502
vt1 0.213379 0.614014
vt1 0.213379 0.646484
vt1 0.203613 0.645996
vt1 0.212402 0.666504
vt1 0.203003 0.667236
vt1 0.212524 0.672119
vt1 0.203125 0.670410
vt1 0.213013 0.706543
vt1 0.203003 0.709717
vt1 0.213257 0.713867
vt1 0.203003 0.711914
vt1 0.203857 0.749023
vt1 0.214355 0.750610
vt1 0.211792 0.756836
vt1 0.202271 0.756348
vt1 0.203857 0.766235
vt1 0.213623 0.763550
vt1 0.049927 0.297852
vt1 0.959961 0.288574
vt1 0.958984 0.297852
vt1 0.051331 0.288574
vt1 0.958984 0.281738
vt1 0.042419 0.289062
vt1 0.040649 0.295410
vt1 0.049835 0.281738
vt1 0.039978 0.283203
vt1 0.959473 0.246582
vt1 0.040985 0.248535
vt1 0.050659 0.246582
vt1 0.050629 0.244629
vt1 0.959473 0.244629
vt1 0.041199 0.241211
vt1 0.959473 0.207031
vt1 0.050659 0.207031
vt1 0.041809 0.208496
vt1 0.050751 0.204102
vt1 0.959473 0.204102
vt1 0.041931 0.203613
vt1 0.050201 0.184082
vt1 0.959473 0.184082
vt1 0.040955 0.184570
vt1 0.959473 0.154297
vt1 0.050201 0.154297
vt1 0.040955 0.153809
vt1 0.041931 0.134766
vt1 0.050751 0.134277
vt1 0.959473 0.134277
vt1 0.041809 0.129395
vt1 0.050659 0.130859
vt1 0.959473 0.130859
vt1 0.041199 0.097168
vt1 0.959473 0.093750
vt1 0.050629 0.093750
vt1 0.040985 0.089844
vt1 0.050659 0.091797
vt1 0.959473 0.091797
vt1 0.958984 0.056641
vt1 0.049835 0.056641
vt1 0.039978 0.055176
vt1 0.042419 0.049316
vt1 0.051331 0.049805
vt1 0.959961 0.049805
vt1 0.958984 0.040039
vt1 0.049927 0.040039
vt1 0.040649 0.042969
vn 0.000000 -0.000000 -1.000000
vn 0.000000 -0.000000 -1.000000
vn 0.000000 -0.000000 -1.000000
vn 0.000000 -0.000000 -1.000000
vn 0.000000 -0.000000 -1.000000
vn 0.000000 -0.000000 -1.000000
vn 0.000000 -0.000000 -1.000000
vn 0.000000 -0.000000 -1.000000
vn 0.000000 -0.000000 -1.000000
vn 0.000000 -0.000000 -1.000000
vn 0.000000 -0.000000 -1.000000
vn 0.000000 -0.000000 -1.000000
vn 0.000000 -0.000000 -1.000000
vn 0.000000 -0.000000 -1.000000
vn 0.000000 -0.000000 -1.000000
vn 0.000000 -0.000000 -1.000000
vn 0.000000 0.000000 1.000000
vn 0.000000 0.000000 1.000000
vn 0.000000 0.000000 1.000000
vn 0.000000 0.000000 1.000000
vn 0.000000 0.000000 1.000000
vn 0.000000 0.000000 1.000000
vn 0.000000 0.000000 1.000000
vn 0.000000 0.000000 1.000000
vn 0.000000 0.000000 1.000000
vn 0.000000 0.000000 1.000000
vn 0.000000 0.000000 1.000000
vn 0.000000 0.000000 1.000000
vn 0.000000 0.000000 1.000000
vn 0.000000 0.000000 1.000000
vn 0.000000 0.000000 1.000000
vn 0.000000 0.000000 1.000000
vn 0.527559 0.346457 0.771653
vn 0.921260 0.000000 0.393701
vn 0.692913 0.000000 0.724409
vn 0.779528 0.496063 0.377953
vn 0.669291 0.590551 0.456693
vn 0.503937 0.433071 0.748031
vn 0.543307 0.330709 0.771653
vn 0.740157 0.535433 0.409449
vn 0.307087 0.866142 0.401575
vn 0.149606 0.629921 0.763779
vn -0.165354 0.913386 0.377953
vn -0.110236 0.685039 0.724409
vn -0.362205 0.590551 0.724409
vn -0.464567 0.795276 0.377953
vn -0.314961 0.842520 0.433071
vn -0.236220 0.637795 0.732283
vn 0.236220 0.637795 0.732283
vn 0.314961 0.842520 0.433071
vn 0.362205 0.590551 0.724409
vn 0.464567 0.795276 0.377953
vn 0.110236 0.685039 0.724409
vn 0.165354 0.913386 0.377953
vn -0.149606 0.629921 0.763779
vn -0.307087 0.866142 0.401575
vn -0.543307 0.330709 0.771653
vn -0.740157 0.535433 0.409449
vn -0.669291 0.590551 0.456693
vn -0.503937 0.433071 0.748031
vn -0.527559 0.346457 0.771653
vn -0.779528 0.496063 0.377953
vn -0.921260 0.000000 0.393701
vn -0.692913 0.000000 0.724409
vn -0.921260 -0.000000 -0.393701
vn -0.779528 0.496063 0.377953
vn -0.921260 0.000000 0.393701
vn -0.779528 0.496063 -0.377953
vn -0.669291 0.590551 0.456693
vn -0.527559 0.346457 -0.771653
vn -0.692913 -0.000000 -0.724409
vn -0.669291 0.590551 -0.456693
vn -0.503937 0.433071 -0.748031
vn -0.740157 0.535433 0.409449
vn -0.543307 0.330709 -0.771653
vn -0.740157 0.535433 -0.409449
vn -0.307087 0.866142 -0.401575
vn -0.307087 0.866142 0.401575
vn -0.149606 0.629921 -0.763779
vn 0.165354 0.913386 0.377953
vn 0.165354 0.913386 -0.377953
vn 0.110236 0.685039 -0.724409
vn 0.464567 0.795275 -0.377953
vn 0.464567 0.795276 0.377953
vn 0.362205 0.590551 -0.724409
vn 0.314961 0.842520 -0.433071
vn 0.314961 0.842520 0.433071
vn 0.236220 0.637795 -0.732283
vn -0.314961 0.842520 0.433071
vn -0.314961 0.842520 -0.433071
vn -0.236220 0.637795 -0.732283
vn -0.362205 0.590551 -0.724409
vn -0.464567 0.795275 -0.377953
vn -0.464567 0.795276 0.377953
vn -0.110236 0.685039 -0.724409
vn -0.165354 0.913386 -0.377953
vn -0.165354 0.913386 0.377953
vn 0.149606 0.629921 -0.763779
vn 0.307087 0.866142 0.401575
vn 0.307087 0.866142 -0.401575
vn 0.543307 0.330709 -0.771653
vn 0.740157 0.535433 -0.409449
vn 0.740157 0.535433 0.409449
vn 0.669291 0.590551 0.456693
vn 0.669291 0.590551 -0.456693
vn 0.503937 0.433071 -0.748031
vn 0.527559 0.346457 -0.771653
vn 0.779528 0.496063 -0.377953
vn 0.779528 0.496063 0.377953
vn 0.921260 0.000000 0.393701
vn 0.921260 -0.000000 -0.393701
vn 0.692913 -0.000000 -0.724409
tan 0.007874 -1.000000 0.000000 1.000000
tan -0.007874 -1.000000 0.000000 1.000000
tan 0.000000 -1.000000 0.000000 1.000000
tan -0.007874 -1.000000 0.000000 1.000000
tan -0.007874 -1.000000 0.000000 1.000000
tan 0.000000 -1.000000 0.000000 1.000000
tan 0.000000 -1.000000 0.000000 1.000000
tan -0.031496 -1.000000 0.000000 1.000000
tan -0.078740 -1.000000 0.000000 1.000000
tan 0.031496 -1.000000 0.000000 1.000000
tan 0.007874 -1.000000 0.000000 1.000000
tan 0.078740 -1.000000 0.000000 1.000000
tan 0.007874 -1.000000 0.000000 1.000000
tan 0.007874 -1.000000 0.000000 1.000000
tan -0.007874 -1.000000 0.000000 1.000000
tan 0.000000 -1.000000 0.000000 1.000000
tan 0.000000 -1.000000 0.000000 1.000000
tan 0.007874 -1.000000 0.000000 1.000000
tan 0.007874 -1.000000 0.000000 1.000000
tan 0.007874 -1.000000 0.000000 1.000000
tan 0.007874 -1.000000 0.000000 1.000000
tan 0.000000 -1.000000 0.000000 1.000000
tan 0.000000 -1.000000 0.000000 1.000000
tan 0.031496 -1.000000 0.000000 1.000000
tan 0.078740 -1.000000 0.000000 1.000000
tan -0.031496 -1.000000 0.000000 1.000000
tan -0.007874 -1.000000 0.000000 1.000000
tan -0.078740 -1.000000 0.000000 1.000000
tan -0.007874 -1.000000 0.000000 1.000000
tan -0.007874 -1.000000 0.000000 1.000000
tan 0.000000 -1.000000 0.000000 1.000000
tan 0.000000 -1.000000 0.000000 1.000000
tan 0.485585 -0.867010 0.057288 1.000000
tan 0.136400 -0.936388 -0.319176 1.000000
tan 0.199640 -0.960258 -0.190960 1.000000
tan 0.510571 -0.852068 0.065286 1.000000
tan 0.591667 -0.793539 0.159030 1.000000
tan 0.548081 -0.829996 0.111290 1.000000
tan 0.631037 -0.763283 -0.117180 1.000000
tan 0.542873 -0.834646 0.110112 1.000000
tan 0.864530 -0.429661 0.265609 1.000000
tan 0.960010 -0.283031 0.045384 1.000000
tan 0.981338 0.188046 -0.025110 1.000000
tan 0.993738 0.133424 0.025048 1.000000
tan 0.901854 0.416393 0.111476 1.000000
tan 0.863600 0.487507 0.035712 1.000000
tan 0.943828 0.316821 0.070060 1.000000
tan 0.950090 0.305971 0.039990 1.000000
tan 0.956600 -0.281047 -0.063798 1.000000
tan 0.940418 -0.327051 -0.047678 1.000000
tan 0.883688 -0.459173 -0.067518 1.000000
tan 0.880836 -0.426623 -0.185008 1.000000
tan 0.988034 -0.173352 0.013578 1.000000
tan 0.986050 -0.115320 -0.152706 1.000000
tan 0.960010 0.283031 -0.045384 1.000000
tan 0.864530 0.429661 -0.265609 1.000000
tan 0.631037 0.763283 0.117180 1.000000
tan 0.542873 0.834646 -0.110112 1.000000
tan 0.591667 0.793539 -0.159030 1.000000
tan 0.548081 0.829996 -0.111290 1.000000
tan 0.485585 0.867010 -0.057288 1.000000
tan 0.510571 0.852068 -0.065286 1.000000
tan 0.136400 0.936388 0.319176 1.000000
tan 0.199640 0.960258 0.190960 1.000000
tan 0.071300 0.986112 -0.166842 1.000000
tan 0.538285 0.846302 -0.000558 1.000000
tan 0.000000 1.003720 -0.000000 1.000000
tan 0.525451 0.846116 0.026784 1.000000
tan 0.662099 0.750139 0.000310 1.000000
tan 0.485585 0.867010 0.057288 1.000000
tan 0.199640 0.960258 -0.190960 1.000000
tan 0.625085 0.777233 0.088970 1.000000
tan 0.548081 0.829996 0.111290 1.000000
tan 0.585777 0.811458 -0.002232 1.000000
tan 0.631037 0.763283 -0.117180 1.000000
tan 0.569657 0.824354 0.048236 1.000000
tan 0.917106 0.379255 0.116684 1.000000
tan 0.942898 0.334243 0.000124 1.000000
tan 0.960010 0.283031 0.045384 1.000000
tan 0.981338 -0.179118 0.003534 1.000000
tan 0.987290 -0.149358 0.070990 1.000000
tan 0.988034 -0.173352 -0.013578 1.000000
tan 0.875504 -0.469651 0.087916 1.000000
tan 0.857648 -0.499411 -0.003348 1.000000
tan 0.883688 -0.459173 0.067518 1.000000
tan 0.937008 -0.337281 0.025296 1.000000
tan 0.933598 -0.347511 -0.002914 1.000000
tan 0.956600 -0.281047 0.063798 1.000000
tan 0.933598 0.347511 0.002914 1.000000
tan 0.940418 0.330461 -0.041044 1.000000
tan 0.950090 0.305971 -0.039990 1.000000
tan 0.883688 0.459173 -0.067518 1.000000
tan 0.875504 0.469651 -0.087916 1.000000
tan 0.857648 0.499411 0.003348 1.000000
tan 0.988034 0.173352 0.013578 1.000000
tan 0.987290 0.149358 -0.070990 1.000000
tan 0.981338 0.179118 -0.003534 1.000000
tan 0.960010 -0.283031 -0.045384 1.000000
tan 0.942898 -0.334243 -0.000124 1.000000
tan 0.917106 -0.379255 -0.116684 1.000000
tan 0.631037 -0.763283 0.117180 1.000000
tan 0.569657 -0.824354 -0.048236 1.000000
tan 0.585777 -0.811458 0.002232 1.000000
tan 0.662099 -0.750139 -0.000310 1.000000
tan 0.625085 -0.777233 -0.088970 1.000000
tan 0.548081 -0.829996 -0.111290 1.000000
tan 0.485585 -0.867010 -0.057288 1.000000
tan 0.525451 -0.846116 -0.026784 1.000000
tan 0.538285 -0.846302 0.000558 1.000000
tan 0.000000 -1.003720 0.000000 1.000000
tan 0.071300 -0.986112 0.166842 1.000000
tan 0.199640 -0.960258 0.190960 1.000000
f 3/3/3 2/2/2 1/1/1
f 1/1/1 2/2/2 4/4/4
f 2/2/2 5/5/5 4/4/4
f 6/6/6 4/4/4 5/5/5
f 6/6/6 7/7/7 4/4/4
f 9/9/9 4/4/4 8/8/8
f 8/8/8 4/4/4 10/10/10
f 11/11/11 4/4/4 7/7/7
f 11/11/11 10/10/10 4/4/4
f 11/11/11 12/12/12 10/10/10
f 7/7/7 13/13/13 11/11/11
f 14/14/14 11/11/11 13/13/13
f 15/15/15 11/11/11 14/14/14
f 16/16/16 15/15/15 14/14/14
f 19/19/19 18/18/18 17/17/17
f 17/17/17 18/18/18 20/20/20
f 18/18/18 21/21/21 20/20/20
f 22/22/22 20/20/20 21/21/21
f 22/22/22 23/23/23 20/20/20
f 25/25/25 20/20/20 24/24/24
f 24/24/24 20/20/20 26/26/26
f 27/27/27 20/20/20 23/23/23
f 27/27/27 26/26/26 20/20/20
f 27/27/27 28/28/28 26/26/26
f 23/23/23 29/29/29 27/27/27
f 30/30/30 27/27/27 29/29/29
f 31/31/31 27/27/27 30/30/30
f 32/32/32 31/31/31 30/30/30
f 35/35/35 34/34/34 33/33/33
f 36/36/36 33/33/33 34/34/34
f 36/36/36 37/37/37 33/33/33
f 38/38/38 33/33/33 37/37/37
f 38/38/38 37/37/37 39/39/39
f 39/39/39 37/37/37 40/40/40
f 40/40/40 41/41/41 39/39/39
f 42/42/42 39/39/39 41/41/41
f 41/41/41 43/43/43 42/42/42
f 44/44/44 42/42/42 43/43/43
f 45/45/45 44/44/44 43/43/43
f 43/43/43 46/46/46 45/45/45
f 46/46/46 47/47/47 45/45/45
f 48/48/48 45/45/45 47/47/47
f 48/48/48 47/47/47 49/49/49
f 50/50/50 49/49/49 47/47/47
f 50/50/50 51/51/51 49/49/49
f 52/52/52 51/51/51 50/50/50
f 51/51/51 52/52/52 53/53/53
f 54/54/54 53/53/53 52/52/52
f 54/54/54 55/55/55 53/53/53
f 55/55/55 54/54/54 56/56/56
f 55/55/55 56/56/56 57/57/57
f 56/56/56 58/58/58 57/57/57
f 57/57/57 58/58/58 59/59/59
f 59/59/59 60/60/60 57/57/57
f 60/60/60 59/59/59 61/61/61
f 62/62/62 61/61/61 59/59/59
f 63/63/63 61/61/61 62/62/62
f 63/63/63 64/64/64 61/61/61
f 67/67/67 66/66/66 65/65/65
f 68/68/68 65/65/65 66/66/66
f 69/69/69 68/68/68 66/66/66
f 71/71/71 65/65/65 70/70/70
f 68/68/68 70/70/70 65/65/65
f 72/72/72 68/68/68 69/69/69
f 68/68/68 72/72/72 70/70/70
f 73/73/73 70/70/70 72/72/72
f 69/69/69 74/74/74 72/72/72
f 72/72/72 75/75/75 73/73/73
f 76/76/76 72/72/72 74/74/74
f 75/75/75 72/72/72 76/76/76
f 76/76/76 74/74/74 77/77/77
f 76/76/76 77/77/77 75/75/75
f 78/78/78 77/77/77 74/74/74
f 79/79/79 75/75/75 77/77/77
f 80/80/80 77/77/77 78/78/78
f 79/79/79 77/77/77 81/81/81
f 81/81/81 77/77/77 80/80/80
f 82/82/82 79/79/79 81/81/81
f 81/81/81 80/80/80 83/83/83
f 81/81/81 83/83/83 82/82/82
f 84/84/84 83/83/83 80/80/80
f 85/85/85 82/82/82 83/83/83
f 83/83/83 84/84/84 86/86/86
f 83/83/83 86/86/86 85/85/85
f 87/87/87 86/86/86 84/84/84
f 88/88/88 85/85/85 86/86/86
f 89/89/89 86/86/86 87/87/87
f 88/88/88 86/86/86 90/90/90
f 90/90/90 86/86/86 89/89/89
f 91/91/91 88/88/88 90/90/90
f 90/90/90 92/92/92 91/91/91
f 90/90/90 89/89/89 93/93/93
f 93/93/93 92/92/92 90/90/90
f 94/94/94 93/93/93 89/89/89
f 92/92/92 93/93/93 95/95/95
f 93/93/93 94/94/94 96/96/96
f 96/96/96 95/95/95 93/93/93
f 97/97/97 96/96/96 94/94/94
f 95/95/95 96/96/96 98/98/98
f 97/97/97 99/99/99 96/96/96
f 98/98/98 96/96/96 100/100/100
f 100/100/100 96/96/96 99/99/99
f 98/98/98 100/100/100 101/101/101
f 100/100/100 99/99/99 102/102/102
f 100/100/100 102/102/102 101/101/101
f 103/103/103 102/102/102 99/99/99
f 103/103/103 104/104/104 102/102/102
f 101/101/101 102/102/102 105/105/105
f 105/105/105 102/102/102 104/104/104
f 105/105/105 106/106/106 101/101/101
f 106/106/106 105/105/105 107/107/107
f 105/105/105 104/104/104 108/108/108
f 108/108/108 107/107/107 105/105/105
f 109/109/109 108/108/108 104/104/104
f 110/110/110 108/108/108 109/109/109
f 108/108/108 110/110/110 111/111/111
f 111/111/111 107/107/107 108/108/108
f 111/111/111 112/112/112 107/107/107
