mtllib SM_Metal_Screen_Floor_LOD1.mtl
g SM_Metal_Screen_Floor_LOD1
#Vertices 264
#Indices 714
#Section 0 Offset 0 NumIndices 36 MaterialIndex 0 MI_Metal_Screen_01
#Section 1 Offset 36 NumIndices 678 MaterialIndex 1 MI_Metal_Rusty_01
v 1.078920 -0.003245 1.109005
v 0.163250 -0.003246 0.160202
v 1.078920 -0.003246 0.160202
v 0.163249 -0.003245 1.109005
v 0.163250 -0.003245 2.272569
v 1.078920 -0.003245 1.187785
v 1.078920 -0.003245 2.272569
v 0.163249 -0.003245 1.187785
v 1.170042 -0.003245 1.109005
v 1.987014 -0.003246 0.160202
v 1.989616 -0.003245 1.109005
v 1.170042 -0.003246 0.160202
v 1.981750 -0.003245 2.272569
v 1.170042 -0.003245 2.272569
v 1.170042 -0.003245 1.187785
v 1.985037 -0.003245 1.187785
v 2.012125 -0.003245 1.109005
v 2.933682 -0.003246 0.160202
v 2.933683 -0.003245 1.109005
v 2.012125 -0.003246 0.160202
v 2.933683 -0.003245 1.662301
v 2.012125 -0.003245 1.662301
v 2.012125 -0.003245 1.161257
v 2.933682 -0.003245 1.161257
v 0.161458 -0.039771 0.155529
v 0.168958 -0.032271 0.170529
v 0.176458 -0.032271 0.163029
v 1.171880 -0.001290 1.106756
v 1.172374 -0.001613 0.158138
v 1.172374 -0.016802 0.158138
v 1.171777 -0.018959 1.109078
v 1.164874 -0.024302 0.158138
v 1.164874 -0.024302 1.114913
v 1.084814 -0.024302 0.158138
v 1.084814 -0.024302 1.114913
v 1.079004 -0.018377 1.107231
v 1.075318 -0.009617 0.158114
v 1.077225 -0.000311 1.108651
v 1.084814 0.005887 0.158138
v 1.084814 0.005887 1.114913
v 1.164874 0.005887 0.158138
v 1.172374 -0.001613 0.158138
v 1.171880 -0.001290 1.106756
v 1.164874 0.005887 1.114913
v 1.084814 0.005887 1.178593
v 1.164874 0.005887 1.178593
v 1.084814 0.005887 2.232681
v 1.077578 -0.000434 1.185636
v 1.164874 0.005887 2.232681
v 1.171647 -0.001175 1.186692
v 1.172374 -0.001613 2.232681
v 1.075448 -0.009455 2.232713
v 1.078236 -0.018693 1.185347
v 1.084814 -0.024302 2.232681
v 1.084814 -0.024302 1.178593
v 1.164874 -0.024302 2.232681
v 1.164874 -0.024302 1.178593
v 1.172681 -0.017812 1.184971
v 1.172374 -0.016802 2.232681
v 1.172374 -0.001613 2.232681
v 1.171647 -0.001175 1.186692
v 2.081959 0.019768 1.756992
v 2.979280 0.019948 1.757335
v 2.978513 -0.033563 1.758365
v 2.080977 -0.035293 1.757016
v 2.971933 -0.039771 1.750262
v 2.073789 -0.039771 1.750262
v 2.897883 -0.039771 1.610664
v 1.917025 -0.039771 1.610664
v 2.891095 -0.035667 1.603575
v 1.910707 -0.036500 1.602998
v 1.910715 0.019104 1.602679
v 2.890144 0.020386 1.605294
v 1.917025 0.025124 1.610664
v 2.897883 0.025124 1.610664
v 2.073789 0.025124 1.750262
v 2.971933 0.025124 1.750262
v 2.081959 0.019768 1.756992
v 2.979280 0.019948 1.757335
v 1.084814 -0.024302 1.178593
v 0.158505 -0.024302 1.178593
v 1.078236 -0.018693 1.185347
v 0.158486 -0.008656 1.187921
v 1.077578 -0.000434 1.185636
v 0.158505 0.005887 1.178593
v 1.084814 0.005887 1.178593
v 1.084814 0.005887 1.114913
v 0.158505 0.005887 1.114913
v 1.077225 -0.000311 1.108651
v 0.158480 -0.007963 1.105464
v 1.079004 -0.018377 1.107231
v 0.158505 -0.024311 1.114997
v 1.084814 -0.024302 1.114913
v 1.474476 -0.024301 1.147361
v 0.158505 -0.024302 1.178593
v 1.084814 -0.024302 1.178593
v 1.164874 -0.024302 1.114913
v 1.164874 -0.024302 1.178593
v 1.918521 -0.024302 1.114913
v 1.171777 -0.018959 1.109078
v 1.911954 -0.017039 1.106040
v 1.171880 -0.001290 1.106756
v 1.911974 0.000573 1.108619
v 1.164874 0.005887 1.114913
v 1.918521 0.005887 1.114913
v 1.164874 0.005887 1.178593
v 1.918548 0.005887 1.178593
v 1.910946 -0.000778 1.185495
v 1.171647 -0.001175 1.186692
v 2.020014 -0.024302 1.114913
v 2.895247 -0.024311 1.114996
v 2.025758 -0.018468 1.107207
v 2.895274 -0.007937 1.105461
v 2.027627 -0.000340 1.108689
v 2.895248 0.005887 1.114913
v 2.020014 0.005887 1.114913
v 2.020041 0.005887 1.178593
v 2.895248 0.005887 1.178593
v 2.025944 -0.000764 1.186292
v 2.895248 -0.001613 1.186093
v 2.895248 -0.024302 1.178593
v 2.020041 -0.024302 1.178593
v 2.026504 -0.018579 1.185629
v 1.918548 -0.024302 1.178593
v 2.895248 -0.016802 1.186093
v 2.025944 -0.000764 1.186292
v 2.895248 -0.001613 1.186093
v 1.912532 -0.017457 1.186450
v 1.172681 -0.017812 1.184971
v 1.171647 -0.001175 1.186692
v 1.910946 -0.000778 1.185495
v 1.908942 0.019415 2.229722
v 1.910715 0.019104 1.602679
v 1.917025 0.025124 1.610664
v 1.914988 0.025124 2.237506
v 2.073789 0.025124 1.750262
v 2.072042 0.025124 2.324538
v 2.081959 0.019768 1.756992
v 2.076513 0.019794 2.332191
v 2.076590 -0.034473 2.332426
v 2.080977 -0.035293 1.757016
v 2.072042 -0.039771 2.324538
v 2.073789 -0.039771 1.750262
v 1.914988 -0.039771 2.237506
v 1.917025 -0.039771 1.610664
v 1.908649 -0.033966 2.229717
v 1.910707 -0.036500 1.602998
v 1.910715 0.019104 1.602679
v 1.908942 0.019415 2.229722
v 1.912532 -0.017457 1.186450
v 1.908994 -0.016690 1.611731
v 1.918334 -0.024302 1.611738
v 1.918548 -0.024302 1.178593
v 2.019827 -0.024302 1.611738
v 2.020041 -0.024302 1.178593
v 2.026504 -0.018579 1.185629
v 2.029193 -0.008805 1.611749
v 2.025944 -0.000764 1.186292
v 2.019827 0.005887 1.611738
v 2.020041 0.005887 1.178593
v 1.918548 0.005887 1.178593
v 1.918334 0.005887 1.611738
v 2.020014 0.005887 1.114913
v 1.910946 -0.000778 1.185495
v 1.908994 -0.016690 1.611731
v 1.912532 -0.017457 1.186450
v 1.918521 0.005887 1.114913
v 2.020014 0.005887 0.160840
v 2.027627 -0.000340 1.108689
v 1.918521 0.005887 0.160840
v 2.029520 -0.009612 0.160813
v 1.911974 0.000573 1.108619
v 2.025758 -0.018468 1.107207
v 1.911021 -0.001613 0.160840
v 2.020014 -0.024302 0.160840
v 1.911954 -0.017039 1.106040
v 1.911021 -0.016802 0.160840
v 2.020014 -0.024302 1.114913
v 1.918521 -0.024302 0.160840
v 1.918521 -0.024302 1.114913
v 1.911954 -0.017039 1.106040
v 1.911021 -0.016802 0.160840
v 0.161458 -0.039771 0.155529
v 0.007500 -0.039771 2.324538
v 0.161458 -0.039771 2.237506
v 0.007500 -0.039771 0.017932
v 0.000000 -0.032271 2.324538
v 0.007500 -0.032271 2.332038
v 0.000285 0.020956 2.331823
v 0.000000 -0.032271 0.017932
v 0.007500 -0.032271 0.010432
v 0.000000 0.017624 0.017932
v 0.007500 0.017624 0.010432
v 0.007500 0.025124 2.324538
v 0.007500 0.025124 0.017932
v 0.161458 0.025124 0.155529
v 0.161458 0.025124 2.237506
v 0.168958 0.017624 2.222506
v 0.176458 0.017624 2.230006
v 0.169629 0.018749 0.161881
v 0.169735 -0.033730 2.232073
v 0.168958 -0.032271 0.170529
v 0.176458 -0.032271 0.163029
v 0.161458 -0.039771 2.237506
v 0.161458 -0.039771 0.155529
v 1.908649 -0.033966 2.229717
v 0.176458 0.017624 2.230006
v 0.169735 -0.033730 2.232073
v 1.908942 0.019415 2.229722
v 1.914988 0.025124 2.237506
v 0.161458 0.025124 2.237506
v 0.007500 0.025124 2.324538
v 2.072042 0.025124 2.324538
v 2.076513 0.019794 2.332191
v 0.000285 0.020956 2.331823
v 2.076590 -0.034473 2.332426
v 0.007500 -0.032271 2.332038
v 0.007500 -0.039771 2.324538
v 2.072042 -0.039771 2.324538
v 1.914988 -0.039771 2.237506
v 0.161458 -0.039771 2.237506
v 0.169735 -0.033730 2.232073
v 1.908649 -0.033966 2.229717
v 2.882883 0.017624 0.163029
v 0.176458 -0.032271 0.163029
v 0.169629 0.018749 0.161881
v 2.890349 -0.035354 0.162438
v 2.897883 -0.039771 0.155529
v 0.161458 -0.039771 0.155529
v 2.971933 -0.039771 0.017932
v 0.007500 -0.039771 0.017932
v 0.007500 -0.032271 0.010432
v 2.971933 -0.032271 0.010432
v 2.971933 0.017624 0.010432
v 0.007500 0.017624 0.010432
v 0.007500 0.025124 0.017932
v 2.971933 0.025124 0.017932
v 0.161458 0.025124 0.155529
v 2.897883 0.025124 0.155529
v 2.882883 0.017624 0.163029
v 0.169629 0.018749 0.161881
v 2.979280 0.019948 1.757335
v 2.979433 -0.032271 0.017932
v 2.978513 -0.033563 1.758365
v 2.979433 0.017624 0.017932
v 2.971933 -0.032271 0.010432
v 2.971933 0.017624 0.010432
v 2.971933 0.025124 1.750262
v 2.971933 0.025124 0.017932
v 2.971933 0.017624 0.010432
v 2.897883 0.025124 1.610664
v 2.897883 0.025124 0.155529
v 2.890144 0.020386 1.605294
v 2.890383 0.017624 0.170529
v 2.882883 0.017624 0.163029
v 2.890349 -0.035354 0.162438
v 2.891095 -0.035667 1.603575
v 2.897883 -0.039771 0.155529
v 2.897883 -0.039771 1.610664
v 2.971933 -0.039771 0.017932
v 2.971933 -0.039771 1.750262
v 2.979433 -0.032271 0.017932
v 2.971933 -0.032271 0.010432
v 2.978513 -0.033563 1.758365
vt 1.000000 1.000000
vt 0.000000 0.000000
vt 1.000000 0.000000
vt 0.000000 1.000000
vt 0.000000 1.000000
vt 1.000000 0.000000
vt 1.000000 1.000000
vt 0.000000 0.000000
vt 0.000000 1.000000
vt 0.825684 0.000000
vt 0.825684 1.000000
vt 0.000000 0.000000
vt 0.820312 1.000000
vt 0.000000 1.000000
vt 0.000000 0.000000
vt 0.820312 0.000000
vt 0.000000 1.000000
vt 0.856934 0.000000
vt 0.856934 1.000000
vt 0.000000 0.000000
vt 0.856934 0.493652
vt 0.000000 0.493652
vt 0.000000 0.000000
vt 0.856934 0.000000
vt 1.167969 1.100159
vt 1.170898 1.091614
vt 1.175781 1.094910
vt 0.616211 0.484863
vt 0.616211 0.010254
vt 0.624023 0.010254
vt 0.625000 0.485840
vt 0.629395 0.010254
vt 0.629395 0.488770
vt 0.669434 0.010254
vt 0.669434 0.488770
vt 0.673340 0.485352
vt 0.678223 0.010254
vt 0.682617 0.485840
vt 0.687500 0.010254
vt 0.687500 0.489258
vt 0.727539 0.010254
vt 0.732910 0.010254
vt 0.732422 0.484863
vt 0.727539 0.489258
vt 0.687500 0.520996
vt 0.727539 0.520996
vt 0.687500 1.048279
vt 0.682617 0.524414
vt 0.727539 1.048279
vt 0.732422 0.525146
vt 0.732910 1.048279
vt 0.678223 1.048309
vt 0.673340 0.524414
vt 0.669434 1.048340
vt 0.669434 0.520996
vt 0.629395 1.048370
vt 0.629395 0.520996
vt 0.624512 0.524170
vt 0.624023 1.048370
vt 0.616211 1.048401
vt 0.616211 0.525146
vt 0.041443 0.455566
vt 0.041351 0.006348
vt 0.068054 0.006836
vt 0.068848 0.456055
vt 0.072632 0.010254
vt 0.072632 0.459473
vt 0.142334 0.047363
vt 0.142334 0.538086
vt 0.145996 0.050781
vt 0.145508 0.541260
vt 0.173096 0.541260
vt 0.173828 0.051270
vt 0.177490 0.538086
vt 0.177612 0.047363
vt 0.247314 0.459961
vt 0.247314 0.010254
vt 0.251465 0.455566
vt 0.251465 0.006836
vt 1.198242 0.473633
vt 1.198242 0.010254
vt 1.203125 0.470215
vt 1.208008 0.010254
vt 1.211914 0.470215
vt 1.216797 0.010254
vt 1.216797 0.473633
vt 1.248047 0.473633
vt 1.248047 0.010254
vt 1.252930 0.469727
vt 1.256836 0.010254
vt 1.261719 0.470703
vt 1.266602 0.010254
vt 1.266602 0.473633
vt 1.283203 0.668945
vt 1.298828 0.010254
vt 1.298828 0.473633
vt 1.266602 0.513916
vt 1.298828 0.513916
vt 1.266602 0.890991
vt 1.262695 0.517334
vt 1.260742 0.887939
vt 1.253906 0.517090
vt 1.251953 0.887024
vt 1.248047 0.513428
vt 1.248047 0.890503
vt 1.216797 0.513428
vt 1.216797 0.890442
vt 1.211914 0.886658
vt 1.210938 0.516846
vt 1.266602 0.942139
vt 1.266602 1.379883
vt 1.261719 0.944885
vt 1.256836 1.380371
vt 1.252930 0.946838
vt 1.248047 1.380859
vt 1.248047 0.942993
vt 1.216797 0.943085
vt 1.216797 1.380859
vt 1.210938 0.946045
vt 1.210938 1.380859
vt 1.298828 1.379883
vt 1.298828 0.942078
vt 1.303711 0.945068
vt 1.298828 0.890930
vt 1.304688 1.379883
vt 1.312500 0.945740
vt 1.312500 1.380127
vt 1.304688 0.888184
vt 1.303711 0.517822
vt 1.312500 0.517090
vt 1.312500 0.886414
vt 0.885742 1.500977
vt 0.886719 1.187378
vt 0.890625 1.191528
vt 0.890137 1.505371
vt 0.968750 1.261475
vt 0.968750 1.548828
vt 0.973633 1.264648
vt 0.973145 1.552734
vt 1.000977 1.552734
vt 1.000977 1.264648
vt 1.005859 1.548828
vt 1.004883 1.261475
vt 1.083984 1.504883
vt 1.083008 1.191406
vt 1.087891 1.500977
vt 1.085938 1.187378
vt 1.114258 1.187134
vt 1.115234 1.500977
vt 0.416260 0.524414
vt 0.417969 0.737061
vt 0.412109 0.736816
vt 0.412109 0.520020
vt 0.361328 0.736816
vt 0.361328 0.520020
vt 0.357422 0.523926
vt 0.352051 0.737061
vt 0.348389 0.524170
vt 0.343262 0.736816
vt 0.344482 0.520020
vt 0.293457 0.519775
vt 0.292480 0.736572
vt 0.344482 0.488281
vt 0.289062 0.523682
vt 0.279785 0.736572
vt 0.280762 0.523926
vt 0.293701 0.487793
vt 0.346680 0.010254
vt 0.349609 0.484863
vt 0.295898 0.010254
vt 0.357178 0.010742
vt 0.290039 0.484375
vt 0.358887 0.484375
vt 0.290527 0.010254
vt 0.365967 0.010742
vt 0.281250 0.482910
vt 0.282959 0.010254
vt 0.362549 0.488770
vt 0.416748 0.011230
vt 0.413330 0.488770
vt 0.417725 0.484375
vt 0.422119 0.011230
vt 1.167969 1.100159
vt 1.090820 0.014648
vt 1.167969 0.058594
vt 1.090820 1.169189
vt 1.085938 0.015137
vt 1.086914 0.010254
vt 1.059570 0.011719
vt 1.085938 1.168701
vt 1.086914 1.173706
vt 1.061523 1.168823
vt 1.060547 1.173706
vt 1.056641 0.014648
vt 1.056641 1.169312
vt 0.979980 1.100159
vt 0.979980 0.058594
vt 0.973633 0.065918
vt 0.972168 0.061035
vt 0.974121 1.097351
vt 0.947754 0.061523
vt 0.948242 1.092896
vt 0.948242 1.098267
vt 0.943359 0.058594
vt 0.943359 1.100403
vt 0.759277 0.097656
vt 0.785156 0.964142
vt 0.759766 0.967529
vt 0.786133 0.097656
vt 0.790527 0.094238
vt 0.790527 0.971542
vt 0.833984 1.048431
vt 0.833984 0.015625
vt 0.838379 0.013184
vt 0.837402 1.051971
vt 0.865234 0.013184
vt 0.864258 1.048340
vt 0.869141 1.048401
vt 0.869141 0.015625
vt 0.912598 0.094238
vt 0.912598 0.971436
vt 0.916992 0.967316
vt 0.917480 0.097656
vt 1.337891 0.055664
vt 1.362305 1.409424
vt 1.337891 1.412842
vt 1.365234 0.052246
vt 1.368164 0.047852
vt 1.368164 1.416748
vt 1.436523 0.010742
vt 1.436523 1.493652
vt 1.442383 1.493652
vt 1.442383 0.010254
vt 1.466797 0.010254
vt 1.466797 1.493652
vt 1.471680 1.493652
vt 1.471680 0.010742
vt 1.541016 1.416748
vt 1.541016 0.047852
vt 1.545898 0.055664
vt 1.544922 1.412842
vt 0.565430 0.886108
vt 0.591309 0.015625
vt 0.592285 0.886658
vt 0.566406 0.015625
vt 0.591309 0.010254
vt 0.566406 0.010254
vt 0.561523 0.882507
vt 0.561523 0.015625
vt 0.563965 0.010742
vt 0.524902 0.812500
vt 0.524902 0.084473
vt 0.520508 0.810181
vt 0.519043 0.091797
vt 0.517578 0.086426
vt 0.491943 0.087402
vt 0.491699 0.809204
vt 0.487305 0.084473
vt 0.487305 0.812500
vt 0.450439 0.015625
vt 0.450684 0.882507
vt 0.445312 0.015625
vt 0.448242 0.010742
vt 0.446045 0.886597
vt1 0.916992 0.675537
vt1 0.734375 0.486816
vt1 0.916992 0.486816
vt1 0.734375 0.675537
vt1 0.702637 0.086426
vt1 0.918457 0.268555
vt1 0.702637 0.268555
vt1 0.918457 0.086426
vt1 0.522949 0.950012
vt1 0.334229 0.787354
vt1 0.522949 0.786865
vt1 0.334229 0.950012
vt1 0.049988 0.948456
vt1 0.049988 0.786865
vt1 0.265869 0.786865
vt1 0.265869 0.949097
vt1 0.917969 0.742920
vt1 0.734375 0.931702
vt1 0.734375 0.742920
vt1 0.917969 0.931702
vt1 0.654297 0.282715
vt1 0.654297 0.465820
vt1 0.554199 0.465820
vt1 0.554199 0.282715
vt1 0.483887 0.265625
vt1 0.480469 0.264160
vt1 0.481689 0.262695
vt1 0.274414 0.398438
vt1 0.463379 0.398438
vt1 0.463379 0.401855
vt1 0.273926 0.401855
vt1 0.463379 0.403809
vt1 0.272705 0.403809
vt1 0.463379 0.419922
vt1 0.272705 0.419922
vt1 0.274170 0.421387
vt1 0.463379 0.423340
vt1 0.273926 0.425293
vt1 0.463135 0.426758
vt1 0.272705 0.426758
vt1 0.463135 0.442871
vt1 0.463135 0.444824
vt1 0.274170 0.444824
vt1 0.272705 0.442871
vt1 0.260010 0.426758
vt1 0.260010 0.442871
vt1 0.050079 0.426758
vt1 0.258545 0.424805
vt1 0.050079 0.442871
vt1 0.258301 0.444824
vt1 0.050079 0.444824
vt1 0.050049 0.423340
vt1 0.258545 0.421387
vt1 0.050018 0.419922
vt1 0.259766 0.419922
vt1 0.050018 0.403809
vt1 0.259766 0.403809
vt1 0.258545 0.401855
vt1 0.050018 0.401855
vt1 0.050018 0.398438
vt1 0.258301 0.398438
vt1 0.739258 0.333984
vt1 0.917969 0.333984
vt1 0.917969 0.344727
vt1 0.739258 0.345215
vt1 0.916504 0.346680
vt1 0.737793 0.346680
vt1 0.901855 0.374512
vt1 0.706543 0.374512
vt1 0.900391 0.375977
vt1 0.705078 0.375488
vt1 0.705078 0.386719
vt1 0.900391 0.387207
vt1 0.706543 0.388672
vt1 0.901855 0.388672
vt1 0.737793 0.416504
vt1 0.916504 0.416504
vt1 0.739258 0.417969
vt1 0.917969 0.417969
vt1 0.234497 0.220215
vt1 0.049988 0.220215
vt1 0.233154 0.218750
vt1 0.050018 0.216797
vt1 0.233032 0.214844
vt1 0.050018 0.212891
vt1 0.234497 0.212891
vt1 0.234497 0.200195
vt1 0.050049 0.200195
vt1 0.233032 0.198730
vt1 0.050110 0.196777
vt1 0.233398 0.194824
vt1 0.050171 0.192871
vt1 0.234619 0.192871
vt1 0.312256 0.186523
vt1 0.050232 0.180176
vt1 0.234741 0.180176
vt1 0.250732 0.192871
vt1 0.250732 0.180176
vt1 0.400635 0.192871
vt1 0.251953 0.194824
vt1 0.399658 0.195312
vt1 0.251953 0.198242
vt1 0.399170 0.198730
vt1 0.250488 0.200684
vt1 0.400635 0.200684
vt1 0.250488 0.213379
vt1 0.400635 0.213379
vt1 0.399170 0.214844
vt1 0.251709 0.215332
vt1 0.421143 0.192871
vt1 0.595215 0.192871
vt1 0.422119 0.195312
vt1 0.595215 0.196777
vt1 0.422852 0.198730
vt1 0.595703 0.200684
vt1 0.421387 0.200684
vt1 0.421387 0.213379
vt1 0.595703 0.213379
vt1 0.422607 0.215332
vt1 0.595703 0.215332
vt1 0.595215 0.180176
vt1 0.420898 0.180176
vt1 0.422119 0.178223
vt1 0.400635 0.180176
vt1 0.595215 0.178223
vt1 0.422363 0.174805
vt1 0.595215 0.175293
vt1 0.399658 0.178223
vt1 0.252197 0.178711
vt1 0.251953 0.175293
vt1 0.398926 0.174805
vt1 0.649902 0.555176
vt1 0.649414 0.680176
vt1 0.647949 0.678711
vt1 0.647949 0.553711
vt1 0.616699 0.650879
vt1 0.616699 0.536377
vt1 0.614746 0.649658
vt1 0.614746 0.534912
vt1 0.603516 0.534912
vt1 0.603516 0.649658
vt1 0.601562 0.536377
vt1 0.601562 0.650879
vt1 0.570312 0.553711
vt1 0.570801 0.678711
vt1 0.568359 0.555420
vt1 0.569336 0.680176
vt1 0.558105 0.680176
vt1 0.558105 0.555420
vt1 0.134644 0.745117
vt1 0.049988 0.745850
vt1 0.049988 0.743408
vt1 0.136230 0.743408
vt1 0.050018 0.723145
vt1 0.136230 0.723145
vt1 0.134888 0.721436
vt1 0.050049 0.719482
vt1 0.134766 0.718018
vt1 0.050079 0.716064
vt1 0.136353 0.716064
vt1 0.136353 0.696045
vt1 0.050110 0.695801
vt1 0.149048 0.716309
vt1 0.135010 0.693848
vt1 0.050110 0.690918
vt1 0.134766 0.690674
vt1 0.149048 0.696045
vt1 0.339111 0.716309
vt1 0.150269 0.718262
vt1 0.339111 0.696045
vt1 0.339111 0.719971
vt1 0.150269 0.694336
vt1 0.150513 0.721924
vt1 0.339111 0.693848
vt1 0.339111 0.723633
vt1 0.150879 0.690918
vt1 0.339111 0.690918
vt1 0.149048 0.723633
vt1 0.339111 0.743896
vt1 0.149048 0.743896
vt1 0.150757 0.745850
vt1 0.339111 0.746094
vt1 0.483887 0.265625
vt1 0.051819 0.296387
vt1 0.069214 0.265625
vt1 0.511230 0.296387
vt1 0.052002 0.298340
vt1 0.050018 0.297852
vt1 0.050568 0.308594
vt1 0.511230 0.298340
vt1 0.513184 0.297852
vt1 0.511230 0.308105
vt1 0.513184 0.308105
vt1 0.051819 0.310059
vt1 0.511230 0.310059
vt1 0.483887 0.340332
vt1 0.069336 0.340332
vt1 0.072144 0.343262
vt1 0.070007 0.343750
vt1 0.482666 0.342773
vt1 0.070374 0.353516
vt1 0.480957 0.353027
vt1 0.482910 0.353516
vt1 0.069275 0.355469
vt1 0.483887 0.355469
vt1 0.084656 0.549805
vt1 0.429688 0.539551
vt1 0.430908 0.549805
vt1 0.084595 0.539307
vt1 0.083374 0.537598
vt1 0.432617 0.537598
vt1 0.463135 0.520264
vt1 0.052124 0.520264
vt1 0.051239 0.518555
vt1 0.464600 0.518799
vt1 0.051208 0.507812
vt1 0.463135 0.508057
vt1 0.463135 0.506104
vt1 0.052124 0.506104
vt1 0.083374 0.488770
vt1 0.432617 0.488770
vt1 0.430908 0.487305
vt1 0.084656 0.486816
vt1 0.067749 0.133301
vt1 0.606445 0.123535
vt1 0.607910 0.133789
vt1 0.066284 0.123047
vt1 0.064758 0.121094
vt1 0.609375 0.121094
vt1 0.050018 0.093750
vt1 0.640137 0.093750
vt1 0.640137 0.091797
vt1 0.050018 0.091797
vt1 0.050018 0.082031
vt1 0.640137 0.082031
vt1 0.640137 0.079590
vt1 0.050018 0.079590
vt1 0.609375 0.052246
vt1 0.064758 0.052246
vt1 0.067749 0.050293
vt1 0.607910 0.050781
vt1 0.398438 0.601074
vt1 0.052124 0.590576
vt1 0.398682 0.590332
vt1 0.052155 0.600586
vt1 0.050018 0.590576
vt1 0.050018 0.600586
vt1 0.396973 0.602783
vt1 0.052155 0.602783
vt1 0.050323 0.601562
vt1 0.369141 0.617432
vt1 0.079590 0.617432
vt1 0.368164 0.619385
vt1 0.082458 0.619873
vt1 0.080383 0.620361
vt1 0.080811 0.630859
vt1 0.367920 0.630859
vt1 0.079590 0.632812
vt1 0.369141 0.632812
vt1 0.052124 0.647461
vt1 0.396973 0.647461
vt1 0.052124 0.649658
vt1 0.050293 0.648438
vt1 0.398682 0.649170
vn 0.000000 1.000000 -0.000000
vn 0.000000 1.000000 -0.000000
vn 0.000000 1.000000 -0.000000
vn 0.000000 1.000000 -0.000000
vn 0.000000 1.000000 -0.000000
vn 0.000000 1.000000 -0.000000
vn 0.000000 1.000000 -0.000000
vn 0.000000 1.000000 -0.000000
vn 0.000000 1.000000 -0.000000
vn 0.000000 1.000000 -0.000000
vn 0.000000 1.000000 -0.000000
vn 0.000000 1.000000 -0.000000
vn 0.000000 1.000000 -0.000000
vn 0.000000 1.000000 -0.000000
vn 0.000000 1.000000 -0.000000
vn 0.000000 1.000000 -0.000000
vn 0.000000 1.000000 -0.000000
vn 0.000000 1.000000 -0.000000
vn 0.000000 1.000000 -0.000000
vn 0.000000 1.000000 -0.000000
vn 0.000000 1.000000 -0.000000
vn 0.000000 1.000000 -0.000000
vn 0.000000 1.000000 -0.000000
vn 0.000000 1.000000 -0.000000
vn 0.007874 -1.000000 0.007874
vn 0.984252 -0.196850 0.000000
vn 0.000000 -0.188976 0.984252
vn 0.905512 0.425197 -0.015748
vn 0.952756 0.314961 -0.000000
vn 0.952756 -0.314961 0.000000
vn 0.842520 -0.543307 -0.007874
vn 0.086614 -1.000000 0.000000
vn 0.023622 -1.000000 -0.023622
vn -0.086614 -1.000000 0.000000
vn -0.023622 -1.000000 -0.023622
vn -0.834646 -0.551181 -0.007874
vn -1.000000 0.007874 -0.000000
vn -0.881890 0.472441 -0.007874
vn -0.086614 1.000000 -0.000000
vn -0.015748 1.000000 -0.015748
vn 0.086614 1.000000 -0.000000
vn 0.952756 0.314961 -0.000000
vn 0.889764 0.464567 -0.007874
vn 0.023622 1.000000 -0.015748
vn -0.023622 1.000000 0.015748
vn 0.023622 1.000000 0.015748
vn -0.086614 1.000000 -0.000000
vn -0.881890 0.472441 0.007874
vn 0.086614 1.000000 -0.000000
vn 0.874016 0.480315 0.007874
vn 0.952756 0.314961 -0.000000
vn -1.000000 0.015748 -0.000000
vn -0.842520 -0.535433 0.007874
vn -0.086614 -1.000000 0.000000
vn -0.023622 -1.000000 0.023622
vn 0.086614 -1.000000 0.000000
vn 0.031496 -1.000000 0.015748
vn 0.889764 -0.448819 0.007874
vn 0.952756 -0.314961 0.000000
vn 0.952756 0.314961 -0.000000
vn 0.905512 0.433071 0.007874
vn 0.007874 0.212599 0.976378
vn 0.007874 0.141732 0.992126
vn 0.007874 -0.141732 0.992126
vn 0.007874 -0.283464 0.960630
vn 0.094488 -0.992126 0.047244
vn 0.007874 -1.000000 0.007874
vn -0.015748 -1.000000 -0.007874
vn -0.039370 -1.000000 -0.055118
vn -0.007874 -0.251969 -0.968504
vn -0.007874 -0.196850 -0.984252
vn -0.007874 0.141732 -0.992126
vn -0.007874 0.307086 -0.952756
vn -0.039370 1.000000 -0.055118
vn -0.007874 1.000000 -0.007874
vn 0.007874 1.000000 0.007874
vn 0.086614 0.992126 0.047244
vn 0.015748 0.409449 0.913386
vn 0.023622 0.330709 0.944882
vn -0.023622 -1.000000 0.023622
vn 0.000000 -0.984252 0.188976
vn -0.007874 -0.527559 0.850394
vn 0.000000 0.047244 1.000000
vn -0.007874 0.480315 0.881890
vn 0.000000 0.992126 0.102362
vn -0.023622 1.000000 0.015748
vn -0.015748 1.000000 -0.015748
vn 0.000000 0.992126 -0.102362
vn -0.007874 0.519685 -0.858268
vn 0.000000 0.023622 -1.000000
vn -0.015748 -0.480315 -0.874016
vn 0.000000 -0.984252 -0.181102
vn -0.023622 -1.000000 -0.023622
vn 0.000000 -1.000000 0.000000
vn 0.000000 -0.984252 0.188976
vn -0.023622 -1.000000 0.023622
vn 0.023622 -1.000000 -0.023622
vn 0.031496 -1.000000 0.015748
vn -0.023622 -1.000000 -0.015748
vn 0.015748 -0.574803 -0.818897
vn -0.023622 -0.409449 -0.913386
vn 0.007874 0.409449 -0.913386
vn -0.015748 0.566929 -0.826772
vn 0.023622 1.000000 -0.015748
vn -0.015748 1.000000 -0.015748
vn 0.023622 1.000000 0.015748
vn -0.015748 1.000000 0.023622
vn -0.007874 0.488189 0.874016
vn 0.007874 0.409449 0.913386
vn 0.023622 -1.000000 -0.023622
vn 0.000000 -0.984252 -0.181102
vn 0.015748 -0.488189 -0.874016
vn 0.000000 0.023622 -1.000000
vn 0.007874 0.519685 -0.858268
vn 0.000000 0.992126 -0.102362
vn 0.015748 1.000000 -0.015748
vn 0.007874 1.000000 0.023622
vn 0.000000 0.992126 0.102362
vn 0.007874 0.448819 0.897638
vn 0.000000 0.314961 0.952756
vn 0.000000 -0.984252 0.188976
vn 0.015748 -1.000000 0.031496
vn 0.015748 -0.519685 0.850394
vn -0.015748 -1.000000 0.031496
vn 0.000000 -0.314960 0.952756
vn 0.015748 0.440945 0.897638
vn 0.000000 0.314961 0.952756
vn -0.015748 -0.448819 0.897638
vn 0.015748 -0.488189 0.874016
vn 0.015748 0.440945 0.897638
vn -0.015748 0.448819 0.897638
vn -0.897638 0.448819 -0.023622
vn -0.944882 0.314961 -0.047244
vn -0.039370 1.000000 -0.055118
vn -0.007874 1.000000 -0.015748
vn 0.007874 1.000000 0.007874
vn 0.031496 0.992126 0.118110
vn 0.976378 0.228346 0.023622
vn 0.976378 0.196850 0.023622
vn 0.984252 -0.173228 0.023622
vn 0.952756 -0.291339 0.047244
vn 0.031496 -0.992126 0.110236
vn 0.007874 -1.000000 0.007874
vn -0.007874 -1.000000 -0.015748
vn -0.039370 -1.000000 -0.055118
vn -0.968504 -0.236220 -0.015748
vn -0.976378 -0.212598 -0.031496
vn -0.992126 0.141732 -0.031496
vn -0.976378 0.212598 -0.015748
vn -0.834646 -0.551181 0.015748
vn -0.976378 -0.204724 0.000000
vn -0.062992 -1.000000 0.000000
vn -0.015748 -1.000000 0.031496
vn 0.062992 -1.000000 0.000000
vn 0.015748 -1.000000 0.031496
vn 0.850394 -0.519685 0.015748
vn 1.000000 -0.015748 0.000000
vn 0.858268 0.511811 0.015748
vn 0.062992 1.000000 -0.000000
vn 0.007874 1.000000 0.023622
vn -0.015748 1.000000 0.023622
vn -0.062992 1.000000 -0.000000
vn 0.015748 1.000000 -0.015748
vn -0.889764 0.464567 0.015748
vn -0.960630 -0.283465 0.000000
vn -0.897638 -0.448819 0.015748
vn -0.015748 1.000000 -0.015748
vn 0.070866 1.000000 -0.000000
vn 0.881890 0.472441 -0.007874
vn -0.070866 1.000000 -0.000000
vn 1.000000 0.015748 -0.000000
vn -0.826772 0.559055 -0.007874
vn 0.826772 -0.559055 -0.007874
vn -0.952756 0.314961 -0.000000
vn 0.070866 -1.000000 0.000000
vn -0.905512 -0.417323 -0.007874
vn -0.952756 -0.314961 0.000000
vn 0.023622 -1.000000 -0.023622
vn -0.070866 -1.000000 0.000000
vn -0.023622 -1.000000 -0.015748
vn -0.881890 -0.480315 -0.007874
vn -0.952756 -0.314961 0.000000
vn 0.007874 -1.000000 0.007874
vn -0.055118 -1.000000 0.055118
vn 0.007874 -1.000000 -0.007874
vn -0.039370 -1.000000 -0.055118
vn -0.992126 -0.125984 0.000000
vn 0.000000 -0.125984 0.992126
vn -0.984252 0.165354 0.007874
vn -0.992126 -0.125984 0.000000
vn 0.000000 -0.125984 -0.992126
vn -0.992126 0.125984 -0.000000
vn 0.000000 0.125984 -0.992126
vn -0.055118 1.000000 0.047244
vn -0.039370 1.000000 -0.055118
vn 0.007874 1.000000 0.007874
vn 0.007874 1.000000 -0.007874
vn 0.984252 0.196850 -0.000000
vn 0.000000 0.188976 -0.984252
vn 0.976378 0.204724 0.007874
vn 0.976378 -0.204724 -0.007874
vn 0.984252 -0.196850 0.000000
vn 0.000000 -0.188976 0.984252
vn 0.007874 -1.000000 -0.007874
vn 0.007874 -1.000000 0.007874
vn -0.007874 -0.204724 -0.976378
vn 0.000000 0.188976 -0.984252
vn 0.000000 -0.204724 -0.976378
vn -0.015748 0.220472 -0.976378
vn -0.007874 1.000000 -0.015748
vn 0.007874 1.000000 -0.007874
vn -0.055118 1.000000 0.047244
vn 0.031496 0.992126 0.118110
vn 0.007874 0.173228 0.984252
vn -0.007874 0.165354 0.984252
vn 0.007874 -0.157480 0.984252
vn 0.000000 -0.125984 0.992126
vn -0.055118 -1.000000 0.055118
vn 0.031496 -0.992126 0.110236
vn -0.007874 -1.000000 -0.015748
vn 0.007874 -1.000000 -0.007874
vn 0.007874 -0.456693 -0.889764
vn -0.007874 -0.291339 -0.960630
vn 0.000000 0.188976 0.984252
vn 0.000000 -0.188976 0.984252
vn 0.000000 0.204724 0.976378
vn 0.000000 -0.251968 0.968504
vn -0.007874 -1.000000 0.007874
vn 0.007874 -1.000000 0.007874
vn 0.039370 -1.000000 -0.062992
vn -0.039370 -1.000000 -0.055118
vn 0.000000 -0.125984 -0.992126
vn 0.000000 -0.125984 -0.992126
vn 0.000000 0.125984 -0.992126
vn 0.000000 0.125984 -0.992126
vn -0.039370 1.000000 -0.055118
vn 0.039370 1.000000 -0.070866
vn 0.007874 1.000000 0.007874
vn -0.007874 1.000000 0.007874
vn 0.000000 0.188976 0.984252
vn 0.000000 0.354331 0.937008
vn 0.984252 0.157480 0.007874
vn 0.992126 -0.125984 -0.007874
vn 0.992126 -0.133858 0.015748
vn 0.992126 0.125984 -0.007874
vn 0.000000 -0.125984 -0.992126
vn 0.000000 0.125984 -0.992126
vn 0.086614 0.992126 0.047244
vn 0.039370 1.000000 -0.070866
vn 0.000000 0.125984 -0.992126
vn -0.007874 1.000000 -0.007874
vn -0.007874 1.000000 0.007874
vn -0.968504 0.236220 -0.007874
vn -0.984252 0.196850 0.007874
vn 0.000000 0.188976 0.984252
vn -0.968504 -0.236220 0.007874
vn -0.960630 -0.291339 -0.007874
vn -0.007874 -1.000000 0.007874
vn -0.015748 -1.000000 -0.007874
vn 0.039370 -1.000000 -0.062992
vn 0.094488 -0.992126 0.047244
vn 0.992126 -0.125984 -0.007874
vn 0.000000 -0.125984 -0.992126
vn 0.960630 -0.283465 0.023622
tan 0.000000 -0.000000 -1.000000 1.000000
tan 0.000000 -0.000000 -1.000000 1.000000
tan 0.000000 -0.000000 -1.000000 1.000000
tan 0.000000 -0.000000 -1.000000 1.000000
tan 0.000000 -0.000000 -1.000000 1.000000
tan 0.000000 -0.000000 -1.000000 1.000000
tan 0.000000 -0.000000 -1.000000 1.000000
tan 0.000000 -0.000000 -1.000000 1.000000
tan 0.000000 -0.000000 -1.000000 1.000000
tan 0.000000 -0.000000 -1.000000 1.000000
tan 0.000000 -0.000000 -1.000000 1.000000
tan 0.000000 -0.000000 -1.000000 1.000000
tan 0.000000 -0.000000 -1.000000 1.000000
tan 0.000000 -0.000000 -1.000000 1.000000
tan 0.000000 -0.000000 -1.000000 1.000000
tan 0.000000 -0.000000 -1.000000 1.000000
tan 0.000000 -0.000000 -1.000000 1.000000
tan 0.000000 -0.000000 -1.000000 1.000000
tan 0.000000 -0.000000 -1.000000 1.000000
tan 0.000000 -0.000000 -1.000000 1.000000
tan 0.000000 -0.000000 -1.000000 1.000000
tan 0.000000 -0.000000 -1.000000 1.000000
tan 0.000000 -0.000000 -1.000000 1.000000
tan 0.000000 -0.000000 -1.000000 1.000000
tan 0.157480 0.008990 0.984252 1.000000
tan 0.068200 0.341001 0.923802 1.000000
tan -0.224750 0.961002 0.184512 1.000000
tan -0.019096 0.006758 -0.915556 1.000000
tan 0.000000 -0.000000 -0.965156 1.000000
tan 0.000000 -0.000000 -0.965156 1.000000
tan -0.003534 0.007378 -0.887222 1.000000
tan 0.000000 -0.000000 -1.000000 1.000000
tan 0.000000 0.023622 -1.000000 1.000000
tan 0.007874 -0.000682 -1.000000 1.000000
tan 0.007874 0.023436 -1.000000 1.000000
tan 0.016492 -0.012276 -0.888834 1.000000
tan 0.000000 -0.000000 -1.000000 1.000000
tan 0.015314 0.013578 -0.900490 1.000000
tan 0.000000 -0.000000 -1.000000 1.000000
tan 0.007874 -0.015624 -1.000000 1.000000
tan 0.000000 -0.000000 -1.000000 1.000000
tan 0.000000 -0.000000 -0.965156 1.000000
tan -0.018848 0.020646 -0.911712 1.000000
tan -0.007874 -0.015562 -1.000000 1.000000
tan -0.007874 0.015562 -1.000000 1.000000
tan 0.007874 0.015562 -1.000000 1.000000
tan 0.000000 -0.000000 -1.000000 1.000000
tan -0.019034 -0.020522 -0.900490 1.000000
tan 0.000000 -0.000000 -1.000000 1.000000
tan 0.019220 -0.020212 -0.900490 1.000000
tan 0.000000 -0.000000 -0.965156 1.000000
tan 0.000000 -0.000000 -1.000000 1.000000
tan -0.016244 0.012586 -0.882262 1.000000
tan 0.000000 -0.000000 -1.000000 1.000000
tan -0.007874 -0.023436 -1.000000 1.000000
tan 0.000000 -0.000000 -1.000000 1.000000
tan 0.000000 -0.015748 -1.000000 1.000000
tan 0.004340 -0.007254 -0.903900 1.000000
tan 0.000000 -0.000000 -0.965156 1.000000
tan 0.000000 -0.000000 -0.965156 1.000000
tan 0.011284 -0.006944 -0.915742 1.000000
tan 0.976378 -0.000000 -0.007874 1.000000
tan 0.992126 -0.000000 -0.007874 1.000000
tan 0.992126 0.007812 -0.006758 1.000000
tan 0.962862 0.007626 -0.005642 1.000000
tan 0.992126 0.092628 -0.039060 1.000000
tan 1.000000 0.007874 -0.000000 1.000000
tan 1.000000 -0.015748 0.000000 1.000000
tan 1.000000 -0.038502 -0.015748 1.000000
tan 0.968504 -0.007626 -0.005890 1.000000
tan 0.984252 -0.007750 -0.006324 1.000000
tan 0.992126 -0.000000 -0.007874 1.000000
tan 0.957592 0.000124 -0.007874 1.000000
tan 1.000000 0.038068 -0.023622 1.000000
tan 1.000000 0.007874 -0.000000 1.000000
tan 1.000000 -0.007874 0.000000 1.000000
tan 0.992126 -0.084382 -0.046872 1.000000
tan 0.932730 -0.000744 -0.015748 1.000000
tan 0.955298 0.006696 -0.026226 1.000000
tan -1.000000 0.023064 -0.023622 1.000000
tan -0.985740 0.000000 0.000000 1.000000
tan -0.891934 0.000620 -0.007874 1.000000
tan -1.000000 0.000000 0.000000 1.000000
tan -0.900800 -0.000310 -0.007874 1.000000
tan -0.992126 0.000000 0.000000 1.000000
tan -1.000000 -0.023498 -0.007874 1.000000
tan -1.000000 -0.015624 0.007874 1.000000
tan -0.992126 0.000000 0.000000 1.000000
tan -0.895096 0.006200 0.011966 1.000000
tan -1.000000 0.007874 0.000186 1.000000
tan -0.892926 0.014384 0.008184 1.000000
tan -0.984252 0.001426 -0.007750 1.000000
tan -1.000000 0.023622 -0.000000 1.000000
tan -1.000000 0.000000 0.000000 1.000000
tan -0.985740 0.000000 0.000000 1.000000
tan -1.000000 0.023622 -0.000000 1.000000
tan -1.000000 -0.023250 -0.015748 1.000000
tan -1.000000 -0.031124 0.023622 1.000000
tan -1.000000 0.023002 0.039370 1.000000
tan -0.887470 0.068696 -0.065286 1.000000
tan -0.919834 -0.021204 0.033294 1.000000
tan -0.919834 0.050468 0.014694 1.000000
tan -0.880712 0.082770 0.073532 1.000000
tan -1.000000 0.023746 0.007874 1.000000
tan -1.000000 -0.015748 0.000000 1.000000
tan -1.000000 0.023498 0.007874 1.000000
tan -1.000000 -0.015748 0.000000 1.000000
tan -0.904768 -0.007378 -0.004030 1.000000
tan -0.919834 0.000124 0.007874 1.000000
tan -1.000000 -0.022878 -0.031496 1.000000
tan -0.984252 -0.004278 0.023250 1.000000
tan -0.897080 0.013020 -0.023436 1.000000
tan -1.000000 -0.047244 -0.001116 1.000000
tan -0.881580 -0.121086 -0.081406 1.000000
tan -0.992126 -0.003224 -0.031248 1.000000
tan -1.000000 0.015624 -0.007874 1.000000
tan -1.000000 0.007874 -0.000000 1.000000
tan -0.992126 0.000806 -0.007812 1.000000
tan -0.911774 0.014384 0.000806 1.000000
tan -0.965156 0.007502 -0.002480 1.000000
tan -0.985740 -0.001488 -0.007750 1.000000
tan -1.000000 -0.014508 0.039370 1.000000
tan -0.891314 0.032240 0.036208 1.000000
tan -1.000000 0.014508 -0.039370 1.000000
tan -0.965156 -0.022506 -0.007440 1.000000
tan -0.886850 -0.176328 0.102176 1.000000
tan -0.965156 -0.015004 0.004960 1.000000
tan -0.911774 -0.027776 -0.029884 1.000000
tan -0.897080 0.047430 0.042656 1.000000
tan -0.908054 0.007440 0.012276 1.000000
tan -0.887036 0.204600 -0.117862 1.000000
tan 0.023622 -0.001860 -0.932978 1.000000
tan 0.034844 -0.038316 -0.952322 1.000000
tan 0.015748 -0.054498 -1.000000 1.000000
tan 0.007874 -0.015686 -1.000000 1.000000
tan 0.055118 0.007440 -1.000000 1.000000
tan 0.085932 0.115382 -0.992126 1.000000
tan 0.041602 -0.076880 -0.976378 1.000000
tan 0.025172 -0.007688 -0.976378 1.000000
tan 0.023622 -0.000000 -0.984252 1.000000
tan 0.074400 0.089652 -0.947548 1.000000
tan 0.078120 -0.107756 -0.992126 1.000000
tan 0.055118 -0.007440 -1.000000 1.000000
tan 0.000000 0.015748 -1.000000 1.000000
tan 0.000000 0.055118 -1.000000 1.000000
tan 0.012028 0.015252 -0.968504 1.000000
tan 0.024800 0.030752 -0.976378 1.000000
tan 0.032612 0.007812 -0.992126 1.000000
tan 0.017422 0.007688 -0.976378 1.000000
tan 0.080104 -0.146444 -0.880030 1.000000
tan 0.003224 -0.015376 -0.976378 1.000000
tan 0.007874 -0.000496 -1.000000 1.000000
tan 0.015748 -0.031744 -1.000000 1.000000
tan -0.007874 -0.000496 -1.000000 1.000000
tan -0.015748 -0.031744 -1.000000 1.000000
tan -0.037572 -0.088164 -0.880526 1.000000
tan -0.000248 -0.015748 -1.000000 1.000000
tan -0.077190 0.156674 -0.885052 1.000000
tan -0.015748 0.000992 -1.000000 1.000000
tan -0.031496 0.023870 -1.000000 1.000000
tan 0.023622 0.023994 -1.000000 1.000000
tan 0.000000 -0.000000 -1.000000 1.000000
tan 0.023622 -0.016120 -1.000000 1.000000
tan 0.046562 0.119722 -0.901048 1.000000
tan 0.002232 -0.007564 -0.965094 1.000000
tan -0.012214 -0.007440 -0.908240 1.000000
tan -0.031496 -0.016244 -1.000000 1.000000
tan -0.039370 0.002790 -1.000000 1.000000
tan 0.040548 -0.090582 -0.893546 1.000000
tan -0.007874 -0.000558 -1.000000 1.000000
tan 0.000000 -0.000000 -1.000000 1.000000
tan -0.093558 -0.150598 -0.868870 1.000000
tan 0.067084 0.111600 -0.879782 1.000000
tan -0.002480 -0.007502 -0.965156 1.000000
tan 0.015748 0.001116 -1.000000 1.000000
tan 0.011160 -0.006944 -0.915370 1.000000
tan 0.002480 -0.007502 -0.965156 1.000000
tan 0.031496 0.024366 -1.000000 1.000000
tan 0.000000 -0.000000 -1.000000 1.000000
tan -0.015748 0.016120 -1.000000 1.000000
tan -0.060264 0.125426 -0.901420 1.000000
tan -0.002480 0.007502 -0.965156 1.000000
tan 0.000000 0.007874 1.000000 1.000000
tan 0.118110 0.048174 0.992126 1.000000
tan 0.000000 -0.007874 1.000000 1.000000
tan -0.118110 -0.050034 0.992126 1.000000
tan 0.005952 -0.046872 0.992126 1.000000
tan 0.937442 0.335917 0.042656 1.000000
tan 0.015686 0.046500 0.984252 1.000000
tan -0.005952 0.046872 0.992126 1.000000
tan -0.937442 -0.335917 0.042656 1.000000
tan -0.006944 -0.054684 0.992126 1.000000
tan -0.937442 0.328105 0.041664 1.000000
tan 0.102362 -0.041230 0.992126 1.000000
tan -0.133858 0.049414 0.992126 1.000000
tan -0.062992 -0.007378 1.000000 1.000000
tan 0.055118 0.007440 1.000000 1.000000
tan 0.013950 -0.069750 0.985802 1.000000
tan 0.908240 0.379751 0.072912 1.000000
tan -0.025606 0.084568 0.976378 1.000000
tan 0.009486 0.007688 0.976378 1.000000
tan 0.000000 0.000000 0.985802 1.000000
tan -0.985740 0.000000 0.000000 1.000000
tan 0.015748 -0.007750 1.000000 1.000000
tan -0.007874 0.007812 1.000000 1.000000
tan 0.976378 -0.000000 -0.007874 1.000000
tan 0.985740 0.015500 0.002976 1.000000
tan 0.976378 0.000000 0.000000 1.000000
tan 0.976378 0.015376 -0.012276 1.000000
tan 1.000000 0.007998 0.007874 1.000000
tan 1.000000 -0.007812 0.007874 1.000000
tan 1.000000 0.052514 0.055118 1.000000
tan 0.992126 -0.031496 0.000000 1.000000
tan 0.984252 -0.007750 -0.006510 1.000000
tan 0.984252 -0.015500 0.010478 1.000000
tan 0.984252 0.007750 -0.006634 1.000000
tan 0.992126 0.007812 0.000992 1.000000
tan 1.000000 -0.052514 0.047244 1.000000
tan 0.992126 0.030628 -0.007812 1.000000
tan 1.000000 -0.007874 0.000000 1.000000
tan 1.000000 0.007874 -0.000000 1.000000
tan 0.929320 0.000682 0.007874 1.000000
tan 0.962924 -0.007626 -0.005580 1.000000
tan 0.985740 0.000000 0.000000 1.000000
tan 0.985740 -0.007750 -0.001488 1.000000
tan 0.976378 0.000000 0.000000 1.000000
tan 0.968504 -0.068634 -0.017856 1.000000
tan 1.000000 -0.007998 -0.015748 1.000000
tan 1.000000 0.007812 -0.007874 1.000000
tan 0.992126 0.044516 -0.086614 1.000000
tan 1.000000 -0.036766 -0.047244 1.000000
tan 0.992126 0.015624 -0.001984 1.000000
tan 0.984314 0.085932 -0.010912 1.000000
tan 0.984314 -0.085932 -0.010912 1.000000
tan 0.992126 -0.015624 -0.001984 1.000000
tan 1.000000 0.036766 -0.047244 1.000000
tan 0.992126 -0.045198 -0.086614 1.000000
tan 1.000000 -0.007874 0.000000 1.000000
tan 1.000000 0.007998 -0.015748 1.000000
tan 0.977990 0.093000 -0.017856 1.000000
tan 0.945378 0.007378 -0.002790 1.000000
tan 0.006634 0.007750 -0.984252 1.000000
tan -0.007874 -0.000000 -0.992126 1.000000
tan 0.015748 -0.000000 -0.992126 1.000000
tan -0.007874 -0.000000 -0.992126 1.000000
tan -0.992126 0.000000 0.000000 1.000000
tan -0.992126 0.000000 0.000000 1.000000
tan 0.015624 0.045880 -0.992126 1.000000
tan -0.047244 -0.069006 -1.000000 1.000000
tan -0.687457 -0.718705 -0.091264 1.000000
tan 0.055118 -0.007440 -1.000000 1.000000
tan -0.055118 0.007440 -1.000000 1.000000
tan 0.028272 0.083886 -0.960878 1.000000
tan -0.024924 -0.085188 -0.985802 1.000000
tan -0.915990 0.372001 -0.071424 1.000000
tan -0.030132 0.091512 -0.960878 1.000000
tan 0.039928 -0.105834 -0.955360 1.000000
tan -0.055118 -0.007440 -1.000000 1.000000
tan 0.055118 0.007006 -1.000000 1.000000
tan -0.039370 0.061442 -1.000000 1.000000
tan 0.015624 -0.045756 -0.992126 1.000000
tan -0.005890 0.015624 -0.992126 1.000000
tan -0.687457 0.718705 -0.091264 1.000000
tan 0.016926 -0.023064 -0.965094 1.000000
f 3/3/3 2/2/2 1/1/1
f 4/4/4 1/1/1 2/2/2
f 7/7/7 6/6/6 5/5/5
f 8/8/8 5/5/5 6/6/6
f 11/11/11 10/10/10 9/9/9
f 12/12/12 9/9/9 10/10/10
f 15/15/15 14/14/14 13/13/13
f 16/16/16 15/15/15 13/13/13
f 19/19/19 18/18/18 17/17/17
f 20/20/20 17/17/17 18/18/18
f 23/23/23 22/22/22 21/21/21
f 24/24/24 23/23/23 21/21/21
f 27/27/27 26/26/26 25/25/25
f 30/30/30 29/29/29 28/28/28
f 31/31/31 30/30/30 28/28/28
f 30/30/30 31/31/31 32/32/32
f 31/31/31 33/33/33 32/32/32
f 32/32/32 33/33/33 34/34/34
f 35/35/35 34/34/34 33/33/33
f 36/36/36 34/34/34 35/35/35
f 34/34/34 36/36/36 37/37/37
f 36/36/36 38/38/38 37/37/37
f 37/37/37 38/38/38 39/39/39
f 38/38/38 40/40/40 39/39/39
f 41/41/41 39/39/39 40/40/40
f 41/41/41 43/43/43 42/42/42
f 43/43/43 41/41/41 44/44/44
f 40/40/40 44/44/44 41/41/41
f 44/44/44 40/40/40 45/45/45
f 44/44/44 45/45/45 46/46/46
f 45/45/45 47/47/47 46/46/46
f 48/48/48 47/47/47 45/45/45
f 49/49/49 46/46/46 47/47/47
f 50/50/50 46/46/46 49/49/49
f 51/51/51 50/50/50 49/49/49
f 52/52/52 47/47/47 48/48/48
f 53/53/53 52/52/52 48/48/48
f 54/54/54 52/52/52 53/53/53
f 53/53/53 55/55/55 54/54/54
f 56/56/56 54/54/54 55/55/55
f 55/55/55 57/57/57 56/56/56
f 58/58/58 56/56/56 57/57/57
f 59/59/59 56/56/56 58/58/58
f 59/59/59 58/58/58 60/60/60
f 58/58/58 61/61/61 60/60/60
f 64/64/64 63/63/63 62/62/62
f 65/65/65 64/64/64 62/62/62
f 66/66/66 64/64/64 65/65/65
f 65/65/65 67/67/67 66/66/66
f 68/68/68 66/66/66 67/67/67
f 67/67/67 69/69/69 68/68/68
f 70/70/70 68/68/68 69/69/69
f 69/69/69 71/71/71 70/70/70
f 71/71/71 72/72/72 70/70/70
f 73/73/73 70/70/70 72/72/72
f 72/72/72 74/74/74 73/73/73
f 73/73/73 74/74/74 75/75/75
f 74/74/74 76/76/76 75/75/75
f 75/75/75 76/76/76 77/77/77
f 78/78/78 77/77/77 76/76/76
f 79/79/79 77/77/77 78/78/78
f 82/82/82 81/81/81 80/80/80
f 81/81/81 82/82/82 83/83/83
f 82/82/82 84/84/84 83/83/83
f 85/85/85 83/83/83 84/84/84
f 84/84/84 86/86/86 85/85/85
f 87/87/87 85/85/85 86/86/86
f 85/85/85 87/87/87 88/88/88
f 89/89/89 88/88/88 87/87/87
f 88/88/88 89/89/89 90/90/90
f 91/91/91 90/90/90 89/89/89
f 92/92/92 90/90/90 91/91/91
f 91/91/91 93/93/93 92/92/92
f 94/94/94 92/92/92 93/93/93
f 95/95/95 92/92/92 94/94/94
f 96/96/96 95/95/95 94/94/94
f 94/94/94 93/93/93 97/97/97
f 98/98/98 96/96/96 94/94/94
f 94/94/94 97/97/97 99/99/99
f 100/100/100 99/99/99 97/97/97
f 101/101/101 99/99/99 100/100/100
f 100/100/100 102/102/102 101/101/101
f 103/103/103 101/101/101 102/102/102
f 102/102/102 104/104/104 103/103/103
f 105/105/105 103/103/103 104/104/104
f 104/104/104 106/106/106 105/105/105
f 107/107/107 105/105/105 106/106/106
f 107/107/107 106/106/106 108/108/108
f 109/109/109 108/108/108 106/106/106
f 94/94/94 99/99/99 110/110/110
f 94/94/94 110/110/110 111/111/111
f 112/112/112 111/111/111 110/110/110
f 111/111/111 112/112/112 113/113/113
f 112/112/112 114/114/114 113/113/113
f 113/113/113 114/114/114 115/115/115
f 114/114/114 116/116/116 115/115/115
f 116/116/116 117/117/117 115/115/115
f 118/118/118 115/115/115 117/117/117
f 119/119/119 118/118/118 117/117/117
f 118/118/118 119/119/119 120/120/120
f 121/121/121 94/94/94 111/111/111
f 94/94/94 121/121/121 122/122/122
f 123/123/123 122/122/122 121/121/121
f 122/122/122 124/124/124 94/94/94
f 121/121/121 125/125/125 123/123/123
f 124/124/124 98/98/98 94/94/94
f 123/123/123 125/125/125 126/126/126
f 127/127/127 126/126/126 125/125/125
f 128/128/128 98/98/98 124/124/124
f 129/129/129 98/98/98 128/128/128
f 129/129/129 128/128/128 130/130/130
f 128/128/128 131/131/131 130/130/130
f 134/134/134 133/133/133 132/132/132
f 132/132/132 135/135/135 134/134/134
f 136/136/136 134/134/134 135/135/135
f 137/137/137 136/136/136 135/135/135
f 138/138/138 136/136/136 137/137/137
f 139/139/139 138/138/138 137/137/137
f 139/139/139 140/140/140 138/138/138
f 141/141/141 138/138/138 140/140/140
f 140/140/140 142/142/142 141/141/141
f 141/141/141 142/142/142 143/143/143
f 142/142/142 144/144/144 143/143/143
f 143/143/143 144/144/144 145/145/145
f 146/146/146 145/145/145 144/144/144
f 145/145/145 146/146/146 147/147/147
f 147/147/147 146/146/146 148/148/148
f 149/149/149 148/148/148 146/146/146
f 152/152/152 151/151/151 150/150/150
f 150/150/150 153/153/153 152/152/152
f 152/152/152 153/153/153 154/154/154
f 155/155/155 154/154/154 153/153/153
f 156/156/156 154/154/154 155/155/155
f 157/157/157 154/154/154 156/156/156
f 156/156/156 158/158/158 157/157/157
f 157/157/157 158/158/158 159/159/159
f 158/158/158 160/160/160 159/159/159
f 160/160/160 161/161/161 159/159/159
f 162/162/162 159/159/159 161/161/161
f 163/163/163 161/161/161 160/160/160
f 164/164/164 162/162/162 161/161/161
f 162/162/162 164/164/164 165/165/165
f 166/166/166 165/165/165 164/164/164
f 163/163/163 167/167/167 161/161/161
f 167/167/167 163/163/163 168/168/168
f 169/169/169 168/168/168 163/163/163
f 168/168/168 170/170/170 167/167/167
f 168/168/168 169/169/169 171/171/171
f 172/172/172 167/167/167 170/170/170
f 173/173/173 171/171/171 169/169/169
f 170/170/170 174/174/174 172/172/172
f 171/171/171 173/173/173 175/175/175
f 176/176/176 172/172/172 174/174/174
f 177/177/177 176/176/176 174/174/174
f 173/173/173 178/178/178 175/175/175
f 175/175/175 178/178/178 179/179/179
f 180/180/180 179/179/179 178/178/178
f 181/181/181 179/179/179 180/180/180
f 179/179/179 181/181/181 182/182/182
f 185/185/185 184/184/184 183/183/183
f 183/183/183 184/184/184 186/186/186
f 184/184/184 187/187/187 186/186/186
f 184/184/184 188/188/188 187/187/187
f 187/187/187 188/188/188 189/189/189
f 190/190/190 186/186/186 187/187/187
f 187/187/187 189/189/189 190/190/190
f 191/191/191 186/186/186 190/190/190
f 192/192/192 190/190/190 189/189/189
f 190/190/190 192/192/192 191/191/191
f 193/193/193 191/191/191 192/192/192
f 194/194/194 192/192/192 189/189/189
f 193/193/193 192/192/192 195/195/195
f 195/195/195 192/192/192 194/194/194
f 196/196/196 195/195/195 194/194/194
f 197/197/197 196/196/196 194/194/194
f 197/197/197 198/198/198 196/196/196
f 197/197/197 199/199/199 198/198/198
f 200/200/200 196/196/196 198/198/198
f 199/199/199 201/201/201 198/198/198
f 198/198/198 201/201/201 200/200/200
f 202/202/202 200/200/200 201/201/201
f 203/203/203 200/200/200 202/202/202
f 201/201/201 204/204/204 202/202/202
f 202/202/202 204/204/204 205/205/205
f 208/208/208 207/207/207 206/206/206
f 209/209/209 206/206/206 207/207/207
f 209/209/209 207/207/207 210/210/210
f 211/211/211 210/210/210 207/207/207
f 211/211/211 212/212/212 210/210/210
f 213/213/213 210/210/210 212/212/212
f 213/213/213 212/212/212 214/214/214
f 215/215/215 214/214/214 212/212/212
f 216/216/216 214/214/214 215/215/215
f 217/217/217 216/216/216 215/215/215
f 217/217/217 218/218/218 216/216/216
f 219/219/219 216/216/216 218/218/218
f 220/220/220 219/219/219 218/218/218
f 221/221/221 220/220/220 218/218/218
f 222/222/222 220/220/220 221/221/221
f 223/223/223 220/220/220 222/222/222
f 226/226/226 225/225/225 224/224/224
f 227/227/227 224/224/224 225/225/225
f 227/227/227 225/225/225 228/228/228
f 229/229/229 228/228/228 225/225/225
f 228/228/228 229/229/229 230/230/230
f 229/229/229 231/231/231 230/230/230
f 231/231/231 232/232/232 230/230/230
f 233/233/233 230/230/230 232/232/232
f 233/233/233 232/232/232 234/234/234
f 232/232/232 235/235/235 234/234/234
f 236/236/236 234/234/234 235/235/235
f 234/234/234 236/236/236 237/237/237
f 238/238/238 237/237/237 236/236/236
f 239/239/239 237/237/237 238/238/238
f 239/239/239 238/238/238 240/240/240
f 241/241/241 240/240/240 238/238/238
f 244/244/244 243/243/243 242/242/242
f 243/243/243 245/245/245 242/242/242
f 243/243/243 246/246/246 245/245/245
f 245/245/245 246/246/246 247/247/247
f 242/242/242 245/245/245 248/248/248
f 249/249/249 248/248/248 245/245/245
f 249/249/249 245/245/245 250/250/250
f 251/251/251 248/248/248 249/249/249
f 252/252/252 251/251/251 249/249/249
f 251/251/251 252/252/252 253/253/253
f 254/254/254 253/253/253 252/252/252
f 252/252/252 255/255/255 254/254/254
f 255/255/255 256/256/256 254/254/254
f 254/254/254 256/256/256 253/253/253
f 257/257/257 253/253/253 256/256/256
f 256/256/256 258/258/258 257/257/257
f 257/257/257 258/258/258 259/259/259
f 258/258/258 260/260/260 259/259/259
f 261/261/261 259/259/259 260/260/260
f 262/262/262 261/261/261 260/260/260
f 262/262/262 260/260/260 263/263/263
f 264/264/264 261/261/261 262/262/262
