mtllib SM_Poster_03.mtl
g SM_Poster_03
#Vertices 8
#Indices 18
#Section 0 Offset 0 NumIndices 18 MaterialIndex 0 MI_Posters_01
v 0.301979 0.061927 -0.000000
v 0.000000 0.000000 0.000000
v 0.256954 0.001288 -0.000000
v -0.082426 0.070839 -0.000000
v -0.044445 0.414751 -0.000000
v -0.076301 0.414779 -0.000000
v 0.307963 0.543550 -0.000000
v -0.047021 0.548702 -0.000000
vt 0.785156 0.755371
vt 0.637695 0.725098
vt 0.763184 0.725830
vt 0.597656 0.759644
vt 0.616211 0.927551
vt 0.600586 0.927551
vt 0.788086 0.990425
vt 0.614746 0.992939
vt1 0.768555 0.198242
vt1 0.339600 0.110352
vt1 0.704590 0.112305
vt1 0.222412 0.210938
vt1 0.276367 0.699707
vt1 0.231201 0.699707
vt1 0.777344 0.882690
vt1 0.272705 0.890015
vn 0.000000 -0.000000 -1.000000
vn 0.000000 -0.000000 -1.000000
vn 0.000000 -0.000000 -1.000000
vn 0.000000 -0.000000 -1.000000
vn 0.000000 -0.000000 -1.000000
vn 0.000000 -0.000000 -1.000000
vn 0.000000 -0.000000 -1.000000
vn 0.000000 -0.000000 -1.000000
tan 0.000000 -1.000000 0.000000 1.000000
tan 0.000000 -1.000000 0.000000 1.000000
tan 0.000000 -1.000000 0.000000 1.000000
tan 0.000000 -1.000000 0.000000 1.000000
tan 0.000000 -1.000000 0.000000 1.000000
tan 0.000000 -1.000000 0.000000 1.000000
tan 0.000000 -1.000000 0.000000 1.000000
tan 0.000000 -1.000000 0.000000 1.000000
f 3/3/3 2/2/2 1/1/1
f 2/2/2 4/4/4 1/1/1
f 1/1/1 4/4/4 5/5/5
f 6/6/6 5/5/5 4/4/4
f 1/1/1 5/5/5 7/7/7
f 8/8/8 7/7/7 5/5/5
