mtllib SM_Poster_05.mtl
g SM_Poster_05
#Vertices 4
#Indices 6
#Section 0 Offset 0 NumIndices 6 MaterialIndex 0 MI_Posters_01
v 0.279882 0.368227 -0.000000
v 0.003769 0.365790 -0.000000
v 0.287370 0.005911 -0.000000
v -0.000000 0.000000 0.000000
vt 0.924805 0.988312
vt 0.789551 0.987122
vt 0.928223 0.811401
vt 0.788086 0.808594
vt1 0.788086 0.890015
vt1 0.203613 0.884888
vt1 0.804199 0.122559
vt1 0.195557 0.110352
vn 0.000000 -0.000000 -1.000000
vn 0.000000 -0.000000 -1.000000
vn 0.000000 -0.000000 -1.000000
vn 0.000000 -0.000000 -1.000000
tan 0.000000 -1.000000 0.000000 1.000000
tan 0.000000 -1.000000 0.000000 1.000000
tan 0.000000 -1.000000 0.000000 1.000000
tan 0.000000 -1.000000 0.000000 1.000000
f 3/3/3 2/2/2 1/1/1
f 3/3/3 4/4/4 2/2/2
