mtllib SM_Poster_01.mtl
g SM_Poster_01
#Vertices 5
#Indices 9
#Section 0 Offset 0 NumIndices 9 MaterialIndex 0 MI_Posters_01
v 0.000000 0.460519 -0.000000
v 0.000000 0.000000 0.000000
v 0.392103 -0.002732 0.000000
v 0.064890 0.558372 -0.000000
v 0.392102 0.558372 -0.000000
vt 0.000000 0.952240
vt 0.000000 0.727539
vt 0.191406 0.726074
vt 0.031677 1.000000
vt 0.191406 1.000000
vt1 0.227417 0.754028
vt1 0.227417 0.114258
vt1 0.772461 0.110352
vt1 0.317627 0.890015
vt1 0.772461 0.890015
vn 0.000000 -0.000000 -1.000000
vn 0.000000 -0.000000 -1.000000
vn 0.000000 -0.000000 -1.000000
vn 0.000000 -0.000000 -1.000000
vn 0.000000 -0.000000 -1.000000
tan 0.000000 -1.000000 0.000000 1.000000
tan 0.000000 -1.000000 0.000000 1.000000
tan 0.000000 -1.000000 0.000000 1.000000
tan 0.000000 -1.000000 0.000000 1.000000
tan 0.000000 -1.000000 0.000000 1.000000
f 3/3/3 2/2/2 1/1/1
f 4/4/4 3/3/3 1/1/1
f 4/4/4 5/5/5 3/3/3
