mtllib SM_Poster_08.mtl
g SM_Poster_08
#Vertices 4
#Indices 6
#Section 0 Offset 0 NumIndices 6 MaterialIndex 0 MI_Posters_01
v 0.470877 0.625444 -0.000000
v -0.001618 0.626185 -0.000000
v 0.000000 0.000000 0.000000
v 0.471710 -0.001237 0.000000
vt 0.455078 0.718994
vt 0.224365 0.719238
vt 0.225220 0.413574
vt 0.455566 0.413086
vt1 0.792969 0.889099
vt1 0.205688 0.890015
vt1 0.207764 0.111816
vt1 0.793945 0.110352
vn 0.000000 -0.000000 -1.000000
vn 0.000000 -0.000000 -1.000000
vn 0.000000 -0.000000 -1.000000
vn 0.000000 -0.000000 -1.000000
tan 0.000000 -1.000000 0.000000 1.000000
tan 0.000000 -1.000000 0.000000 1.000000
tan 0.000000 -1.000000 0.000000 1.000000
tan 0.000000 -1.000000 0.000000 1.000000
f 3/3/3 2/2/2 1/1/1
f 4/4/4 3/3/3 1/1/1
