mtllib SM_Poster_06.mtl
g SM_Poster_06
#Vertices 4
#Indices 6
#Section 0 Offset 0 NumIndices 6 MaterialIndex 0 MI_Posters_01
v 0.248061 0.158069 -0.000000
v -0.002033 0.158649 -0.000000
v 0.000000 0.000000 -0.000000
v 0.251113 0.001977 -0.000000
vt 0.913086 0.806641
vt 0.791016 0.806885
vt 0.791992 0.729492
vt 0.914551 0.730469
vt1 0.880371 0.742676
vt1 0.109985 0.744629
vt1 0.116211 0.255859
vt1 0.889648 0.261719
vn 0.000000 -0.000000 -1.000000
vn 0.000000 -0.000000 -1.000000
vn 0.000000 -0.000000 -1.000000
vn 0.000000 -0.000000 -1.000000
tan 0.000000 -1.000000 0.000000 1.000000
tan 0.000000 -1.000000 0.000000 1.000000
tan 0.000000 -1.000000 0.000000 1.000000
tan 0.000000 -1.000000 0.000000 1.000000
f 3/3/3 2/2/2 1/1/1
f 4/4/4 3/3/3 1/1/1
