mtllib SM_Poster_12.mtl
g SM_Poster_12
#Vertices 35
#Indices 99
#Section 0 Offset 0 NumIndices 99 MaterialIndex 0 MI_Posters_01
v 0.000000 0.000000 0.000000
v 0.034560 -0.006912 0.000000
v 0.053012 0.005620 -0.000000
v -0.006704 0.035382 -0.000000
v 0.084056 0.005165 -0.000000
v 0.211547 0.002051 -0.000000
v 0.085084 -0.032501 0.000000
v 0.211284 -0.034345 0.000000
v 0.303222 0.026476 -0.000000
v 0.240893 0.001530 -0.000000
v 0.300901 0.002598 -0.000000
v 0.266799 -0.013059 0.000000
v 0.298076 0.049411 -0.000000
v 0.000342 0.138064 -0.000000
v 0.302160 0.136752 -0.000000
v 0.309993 0.169045 -0.000000
v 0.299331 0.202416 -0.000000
v -0.014645 0.171227 -0.000000
v -0.005342 0.202017 -0.000000
v 0.105821 0.341126 -0.000000
v -0.026844 0.233435 -0.000000
v -0.000628 0.270193 -0.000000
v 0.060501 0.341126 -0.000000
v 0.001164 0.345560 -0.000000
v 0.039395 0.352901 -0.000000
v 0.174933 0.347486 -0.000000
v 0.111414 0.359084 -0.000000
v 0.133811 0.375624 -0.000000
v 0.206457 0.337635 -0.000000
v 0.175220 0.400728 -0.000000
v 0.302505 0.237290 -0.000000
v 0.140013 0.415390 -0.000000
v 0.160026 0.422722 -0.000000
v 0.272664 0.347632 -0.000000
v 0.299989 0.341412 -0.000000
vt 0.842773 0.257812
vt 0.859375 0.254395
vt 0.868652 0.260742
vt 0.839355 0.274902
vt 0.883789 0.260254
vt 0.945801 0.258789
vt 0.884277 0.241699
vt 0.945801 0.241211
vt 0.990723 0.270508
vt 0.959961 0.258301
vt 0.989258 0.259277
vt 0.972656 0.251465
vt 0.988281 0.281738
vt 0.842773 0.325195
vt 0.990234 0.324707
vt 0.994141 0.340332
vt 0.988770 0.356445
vt 0.835449 0.341309
vt 0.839844 0.356445
vt 0.894043 0.424316
vt 0.829590 0.371582
vt 0.842285 0.389648
vt 0.872070 0.424316
vt 0.843262 0.426758
vt 0.861816 0.430176
vt 0.928223 0.427246
vt 0.896973 0.433105
vt 0.907715 0.441406
vt 0.943359 0.422852
vt 0.928223 0.453613
vt 0.990234 0.373535
vt 0.911133 0.460449
vt 0.920898 0.464355
vt 0.975586 0.427734
vt 0.989258 0.424316
vt1 0.258301 0.168945
vt1 0.317139 0.157227
vt1 0.348633 0.178223
vt1 0.246948 0.229004
vt1 0.401611 0.177734
vt1 0.619141 0.172363
vt1 0.403564 0.113281
vt1 0.618652 0.110352
vt1 0.775391 0.213867
vt1 0.669434 0.171387
vt1 0.771484 0.173340
vt1 0.713379 0.146484
vt1 0.766602 0.253418
vt1 0.258789 0.404297
vt1 0.773926 0.402344
vt1 0.787109 0.457520
vt1 0.769043 0.514160
vt1 0.233398 0.460938
vt1 0.249268 0.513428
vt1 0.438965 0.750854
vt1 0.212524 0.567139
vt1 0.257324 0.629883
vt1 0.361572 0.750854
vt1 0.260254 0.758423
vt1 0.325439 0.770874
vt1 0.556641 0.761719
vt1 0.448486 0.781494
vt1 0.486572 0.809692
vt1 0.610352 0.744873
vt1 0.557129 0.852539
vt1 0.774414 0.573730
vt1 0.497314 0.877502
vt1 0.531250 0.890015
vt1 0.723633 0.761963
vt1 0.770020 0.751343
vn 0.000000 -0.000000 -1.000000
vn 0.000000 -0.000000 -1.000000
vn 0.000000 -0.000000 -1.000000
vn 0.000000 -0.000000 -1.000000
vn 0.000000 -0.000000 -1.000000
vn 0.000000 -0.000000 -1.000000
vn 0.000000 -0.000000 -1.000000
vn 0.000000 -0.000000 -1.000000
vn 0.000000 -0.000000 -1.000000
vn 0.000000 -0.000000 -1.000000
vn 0.000000 -0.000000 -1.000000
vn 0.000000 -0.000000 -1.000000
vn 0.000000 -0.000000 -1.000000
vn 0.000000 -0.000000 -1.000000
vn 0.000000 -0.000000 -1.000000
vn 0.000000 -0.000000 -1.000000
vn 0.000000 -0.000000 -1.000000
vn 0.000000 -0.000000 -1.000000
vn 0.000000 -0.000000 -1.000000
vn 0.000000 -0.000000 -1.000000
vn 0.000000 -0.000000 -1.000000
vn 0.000000 -0.000000 -1.000000
vn 0.000000 -0.000000 -1.000000
vn 0.000000 -0.000000 -1.000000
vn 0.000000 -0.000000 -1.000000
vn 0.000000 -0.000000 -1.000000
vn 0.000000 -0.000000 -1.000000
vn 0.000000 -0.000000 -1.000000
vn 0.000000 -0.000000 -1.000000
vn 0.000000 -0.000000 -1.000000
vn 0.000000 -0.000000 -1.000000
vn 0.000000 -0.000000 -1.000000
vn 0.000000 -0.000000 -1.000000
vn 0.000000 -0.000000 -1.000000
vn 0.000000 -0.000000 -1.000000
tan 0.000000 -1.000000 0.000000 1.000000
tan 0.000000 -1.000000 0.000000 1.000000
tan 0.000000 -1.000000 0.000000 1.000000
tan 0.000000 -1.000000 0.000000 1.000000
tan 0.000000 -1.000000 0.000000 1.000000
tan 0.000000 -1.000000 0.000000 1.000000
tan 0.000000 -1.000000 0.000000 1.000000
tan 0.000000 -1.000000 0.000000 1.000000
tan 0.000000 -1.000000 0.000000 1.000000
tan 0.000000 -1.000000 0.000000 1.000000
tan 0.000000 -1.000000 0.000000 1.000000
tan 0.000000 -1.000000 0.000000 1.000000
tan 0.000000 -1.000000 0.000000 1.000000
tan 0.000000 -1.000000 0.000000 1.000000
tan 0.000000 -1.000000 0.000000 1.000000
tan 0.000000 -1.000000 0.000000 1.000000
tan 0.000000 -1.000000 0.000000 1.000000
tan 0.000000 -1.000000 0.000000 1.000000
tan 0.000000 -1.000000 0.000000 1.000000
tan 0.000000 -1.000000 0.000000 1.000000
tan 0.000000 -1.000000 0.000000 1.000000
tan 0.000000 -1.000000 0.000000 1.000000
tan 0.000000 -1.000000 0.000000 1.000000
tan 0.000000 -1.000000 0.000000 1.000000
tan 0.000000 -1.000000 0.000000 1.000000
tan 0.000000 -1.000000 0.000000 1.000000
tan 0.000000 -1.000000 0.000000 1.000000
tan 0.000000 -1.000000 0.000000 1.000000
tan 0.000000 -1.000000 0.000000 1.000000
tan 0.000000 -1.000000 0.000000 1.000000
tan 0.000000 -1.000000 0.000000 1.000000
tan 0.000000 -1.000000 0.000000 1.000000
tan 0.000000 -1.000000 0.000000 1.000000
tan 0.000000 -1.000000 0.000000 1.000000
tan 0.000000 -1.000000 0.000000 1.000000
f 3/3/3 2/2/2 1/1/1
f 3/3/3 1/1/1 4/4/4
f 5/5/5 3/3/3 4/4/4
f 5/5/5 4/4/4 6/6/6
f 5/5/5 6/6/6 7/7/7
f 8/8/8 7/7/7 6/6/6
f 9/9/9 6/6/6 4/4/4
f 9/9/9 10/10/10 6/6/6
f 9/9/9 11/11/11 10/10/10
f 11/11/11 12/12/12 10/10/10
f 13/13/13 9/9/9 4/4/4
f 14/14/14 13/13/13 4/4/4
f 13/13/13 14/14/14 15/15/15
f 16/16/16 15/15/15 14/14/14
f 16/16/16 14/14/14 17/17/17
f 18/18/18 17/17/17 14/14/14
f 18/18/18 19/19/19 17/17/17
f 19/19/19 20/20/20 17/17/17
f 19/19/19 21/21/21 20/20/20
f 22/22/22 20/20/20 21/21/21
f 23/23/23 20/20/20 22/22/22
f 22/22/22 24/24/24 23/23/23
f 25/25/25 23/23/23 24/24/24
f 26/26/26 17/17/17 20/20/20
f 26/26/26 20/20/20 27/27/27
f 26/26/26 27/27/27 28/28/28
f 29/29/29 17/17/17 26/26/26
f 26/26/26 28/28/28 30/30/30
f 17/17/17 29/29/29 31/31/31
f 28/28/28 32/32/32 30/30/30
f 33/33/33 30/30/30 32/32/32
f 29/29/29 34/34/34 31/31/31
f 35/35/35 31/31/31 34/34/34
