mtllib SM_Poster_10.mtl
g SM_Poster_10
#Vertices 15
#Indices 39
#Section 0 Offset 0 NumIndices 39 MaterialIndex 0 MI_Posters_01
v 0.001938 0.627218 -0.000000
v 0.001879 0.613295 -0.000000
v 0.041332 0.588879 -0.000000
v 0.063741 0.600267 -0.000000
v 0.084313 0.598798 -0.000000
v 0.358763 0.627426 -0.000000
v 0.356512 0.102459 -0.000000
v 0.054189 0.579328 -0.000000
v 0.055291 0.545163 -0.000000
v 0.017821 0.510264 -0.000000
v 0.337842 0.071038 -0.000000
v 0.294822 0.037445 -0.000000
v 0.000000 0.000000 0.000000
v 0.292062 -0.000455 0.000000
v -0.000537 0.507696 -0.000000
vt 0.697266 0.721924
vt 0.697266 0.715088
vt 0.716797 0.703125
vt 0.727539 0.708740
vt 0.737793 0.708008
vt 0.871582 0.721924
vt 0.870605 0.465820
vt 0.723145 0.698486
vt 0.723633 0.681885
vt 0.705078 0.664795
vt 0.861328 0.450684
vt 0.840332 0.434082
vt 0.696289 0.415527
vt 0.838867 0.415527
vt 0.696289 0.663574
vt1 0.279785 0.889771
vt1 0.279785 0.872559
vt1 0.328613 0.842163
vt1 0.356445 0.856323
vt1 0.382080 0.854492
vt1 0.723145 0.890015
vt1 0.720215 0.238281
vt1 0.344727 0.830322
vt1 0.345947 0.787842
vt1 0.299561 0.744629
vt1 0.696777 0.199219
vt1 0.643555 0.157227
vt1 0.277344 0.110840
vt1 0.640137 0.110352
vt1 0.276611 0.741455
vn 0.000000 -0.000000 -1.000000
vn 0.000000 -0.000000 -1.000000
vn 0.000000 -0.000000 -1.000000
vn 0.000000 -0.000000 -1.000000
vn 0.000000 -0.000000 -1.000000
vn 0.000000 -0.000000 -1.000000
vn 0.000000 -0.000000 -1.000000
vn 0.000000 -0.000000 -1.000000
vn 0.000000 -0.000000 -1.000000
vn 0.000000 -0.000000 -1.000000
vn 0.000000 -0.000000 -1.000000
vn 0.000000 -0.000000 -1.000000
vn 0.000000 -0.000000 -1.000000
vn 0.000000 -0.000000 -1.000000
vn 0.000000 -0.000000 -1.000000
tan 0.000000 -1.000000 0.000000 1.000000
tan 0.000000 -1.000000 0.000000 1.000000
tan 0.000000 -1.000000 0.000000 1.000000
tan 0.000000 -1.000000 0.000000 1.000000
tan 0.000000 -1.000000 0.000000 1.000000
tan 0.000000 -1.000000 0.000000 1.000000
tan 0.000000 -1.000000 0.000000 1.000000
tan 0.000000 -1.000000 0.000000 1.000000
tan 0.000000 -1.000000 0.000000 1.000000
tan 0.000000 -1.000000 0.000000 1.000000
tan 0.000000 -1.000000 0.000000 1.000000
tan 0.000000 -1.000000 0.000000 1.000000
tan 0.000000 -1.000000 0.000000 1.000000
tan 0.000000 -1.000000 0.000000 1.000000
tan 0.000000 -1.000000 0.000000 1.000000
f 3/3/3 2/2/2 1/1/1
f 4/4/4 3/3/3 1/1/1
f 4/4/4 1/1/1 5/5/5
f 5/5/5 1/1/1 6/6/6
f 6/6/6 7/7/7 5/5/5
f 8/8/8 5/5/5 7/7/7
f 9/9/9 8/8/8 7/7/7
f 9/9/9 7/7/7 10/10/10
f 11/11/11 10/10/10 7/7/7
f 11/11/11 12/12/12 10/10/10
f 13/13/13 10/10/10 12/12/12
f 12/12/12 14/14/14 13/13/13
f 10/10/10 13/13/13 15/15/15
