mtllib SM_Poster_07.mtl
g SM_Poster_07
#Vertices 4
#Indices 6
#Section 0 Offset 0 NumIndices 6 MaterialIndex 0 MI_Posters_01
v -0.001511 0.622503 -0.000000
v 0.436987 0.003159 -0.000000
v 0.439609 0.622169 -0.000000
v -0.000000 0.000000 0.000000
vt 0.005497 0.718994
vt 0.219604 0.416992
vt 0.220825 0.718994
vt 0.006237 0.415039
vt1 0.223633 0.890015
vt1 0.772949 0.114258
vt1 0.775879 0.889587
vt1 0.225464 0.110352
vn 0.000000 -0.000000 -1.000000
vn 0.000000 -0.000000 -1.000000
vn 0.000000 -0.000000 -1.000000
vn 0.000000 -0.000000 -1.000000
tan 0.000000 -1.000000 0.000000 1.000000
tan 0.000000 -1.000000 0.000000 1.000000
tan 0.000000 -1.000000 0.000000 1.000000
tan 0.000000 -1.000000 0.000000 1.000000
f 3/3/3 2/2/2 1/1/1
f 4/4/4 1/1/1 2/2/2
