mtllib SM_Plane_01.mtl
g SM_Plane_01
#Vertices 4
#Indices 6
#Section 0 Offset 0 NumIndices 6 MaterialIndex 0 MI_Ciggarettes_02
v -0.256000 0.000000 0.256000
v 0.256000 -0.000000 -0.256000
v 0.256000 0.000000 0.256000
v -0.256000 -0.000000 -0.256000
vt 0.000000 1.000000
vt 1.000000 0.000000
vt 1.000000 1.000000
vt 0.000000 0.000000
vt1 0.117920 0.882080
vt1 0.881836 0.118164
vt1 0.881836 0.882080
vt1 0.117920 0.118164
vn 0.000000 1.000000 -0.000000
vn 0.000000 1.000000 -0.000000
vn 0.000000 1.000000 -0.000000
vn 0.000000 1.000000 -0.000000
tan 0.000000 -0.000000 -1.000000 1.000000
tan 0.000000 -0.000000 -1.000000 1.000000
tan 0.000000 -0.000000 -1.000000 1.000000
tan 0.000000 -0.000000 -1.000000 1.000000
f 3/3/3 2/2/2 1/1/1
f 4/4/4 1/1/1 2/2/2
