mtllib SM_Poster_09.mtl
g SM_Poster_09
#Vertices 7
#Indices 15
#Section 0 Offset 0 NumIndices 15 MaterialIndex 0 MI_Posters_01
v 0.476451 0.311261 -0.000000
v 0.477837 0.631059 -0.000000
v 0.000186 0.632554 -0.000000
v 0.454355 0.302464 -0.000000
v 0.000000 0.000000 0.000000
v 0.462629 0.246436 -0.000000
v 0.462299 -0.000156 0.000000
vt 0.691406 0.563477
vt 0.691895 0.719482
vt 0.458740 0.720215
vt 0.680664 0.559082
vt 0.458740 0.411621
vt 0.684570 0.531738
vt 0.684082 0.411621
vt1 0.792480 0.494141
vt1 0.794434 0.888184
vt1 0.205688 0.890015
vt1 0.765137 0.483398
vt1 0.205444 0.110352
vt1 0.775391 0.414062
vt1 0.774902 0.110352
vn 0.000000 -0.000000 -1.000000
vn 0.000000 -0.000000 -1.000000
vn 0.000000 -0.000000 -1.000000
vn 0.000000 -0.000000 -1.000000
vn 0.000000 -0.000000 -1.000000
vn 0.000000 -0.000000 -1.000000
vn 0.000000 -0.000000 -1.000000
tan 0.000000 -1.000000 0.000000 1.000000
tan 0.000000 -1.000000 0.000000 1.000000
tan 0.000000 -1.000000 0.000000 1.000000
tan 0.000000 -1.000000 0.000000 1.000000
tan 0.000000 -1.000000 0.000000 1.000000
tan 0.000000 -1.000000 0.000000 1.000000
tan 0.000000 -1.000000 0.000000 1.000000
f 3/3/3 2/2/2 1/1/1
f 3/3/3 1/1/1 4/4/4
f 4/4/4 5/5/5 3/3/3
f 6/6/6 5/5/5 4/4/4
f 6/6/6 7/7/7 5/5/5
