mtllib SM_Rock_01.mtl
g SM_Rock_01
#Vertices 41
#Indices 150
#Section 0 Offset 0 NumIndices 150 MaterialIndex 0 MI_Small_Rocks_01
v 0.029828 0.038156 0.020682
v 0.031903 0.039067 -0.014559
v 0.032130 0.008677 0.018277
v 0.023190 0.013858 -0.023617
v 0.025215 -0.000381 0.016761
v 0.015634 -0.000000 -0.015948
v 0.021938 0.044306 -0.027763
v 0.001617 0.005386 -0.029356
v 0.009068 0.036952 -0.028883
v -0.020792 0.017932 -0.027306
v -0.018630 0.005895 -0.020163
v -0.022442 0.041920 -0.019419
v -0.031714 0.024177 -0.016253
v -0.032130 0.012311 0.013918
v -0.029929 0.040268 -0.006263
v -0.031200 0.026117 0.023302
v -0.028136 0.049196 0.008696
v -0.018630 0.005895 -0.020163
v 0.015634 -0.000000 -0.015948
v 0.001617 0.005386 -0.029356
v -0.018875 -0.000105 -0.004932
v -0.032130 0.012311 0.013918
v -0.006490 -0.000410 0.022231
v 0.025215 -0.000381 0.016761
v 0.032130 0.008677 0.018277
v -0.022096 0.019742 0.028706
v -0.031200 0.026117 0.023302
v -0.003510 0.013964 0.029318
v -0.015871 0.032400 0.029356
v -0.028136 0.049196 0.008696
v 0.004331 0.044418 0.029267
v 0.029828 0.038156 0.020682
v -0.008124 0.052368 0.016643
v 0.021296 0.051725 0.005929
v 0.031903 0.039067 -0.014559
v 0.021938 0.044306 -0.027763
v -0.014411 0.052630 -0.009716
v -0.029929 0.040268 -0.006263
v -0.022442 0.041920 -0.019419
v -0.004814 0.047950 -0.018142
v 0.009068 0.036952 -0.028883
vt 0.258789 0.525391
vt 0.201416 0.545898
vt 0.239380 0.478027
vt 0.172729 0.508301
vt 0.227295 0.459961
vt 0.170288 0.479492
vt 0.172974 0.560059
vt 0.136597 0.492676
vt 0.150024 0.548340
vt 0.100830 0.514893
vt 0.096741 0.491699
vt 0.090271 0.556885
vt 0.077637 0.524902
vt 0.030991 0.497070
vt 0.060699 0.551270
vt 0.011429 0.520752
vt 0.032776 0.563721
vt 0.239868 0.453125
vt 0.239502 0.389648
vt 0.260010 0.418945
vt 0.214111 0.446777
vt 0.174438 0.472168
vt 0.173950 0.421875
vt 0.178589 0.368652
vt 0.155273 0.355957
vt 0.145996 0.455078
vt 0.138428 0.475098
vt 0.152222 0.421875
vt 0.125366 0.448730
vt 0.082153 0.478027
vt 0.104553 0.417480
vt 0.098877 0.371582
vt 0.085754 0.441895
vt 0.067200 0.393066
vt 0.032867 0.367676
vt 0.008865 0.394531
vt 0.048553 0.455078
vt 0.051544 0.489258
vt 0.028076 0.473633
vt 0.031067 0.440430
vt 0.000999 0.421387
vt1 0.840332 0.725830
vt1 0.684570 0.781616
vt1 0.787598 0.597168
vt1 0.606934 0.679443
vt1 0.754883 0.548584
vt1 0.600098 0.600586
vt1 0.607422 0.819824
vt1 0.508789 0.637451
vt1 0.545410 0.787964
vt1 0.412109 0.697754
vt1 0.400879 0.633789
vt1 0.383301 0.810913
vt1 0.349121 0.724854
vt1 0.222778 0.648926
vt1 0.303223 0.796265
vt1 0.169678 0.713379
vt1 0.227661 0.829712
vt1 0.781250 0.402832
vt1 0.780762 0.239746
vt1 0.833496 0.314941
vt1 0.715332 0.387207
vt1 0.613281 0.452148
vt1 0.611816 0.323242
vt1 0.624023 0.186035
vt1 0.563965 0.153320
vt1 0.540039 0.407715
vt1 0.520508 0.459961
vt1 0.556152 0.323242
vt1 0.487061 0.391602
vt1 0.376221 0.467773
vt1 0.433594 0.311523
vt1 0.418945 0.193848
vt1 0.385254 0.374023
vt1 0.337402 0.249023
vt1 0.249390 0.183594
vt1 0.187622 0.252930
vt1 0.289551 0.408691
vt1 0.297363 0.496094
vt1 0.237061 0.455566
vt1 0.244751 0.370605
vt1 0.167480 0.321777
vn 0.992126 0.070866 0.062992
vn 0.929134 -0.094488 -0.346457
vn 0.937008 -0.314961 -0.157480
vn 0.685039 -0.346457 -0.645669
vn 0.787402 -0.566929 -0.236220
vn 0.661417 -0.606299 -0.440945
vn 0.527559 -0.062992 -0.850394
vn 0.078740 -0.251969 -0.968504
vn -0.007874 0.062992 -1.000000
vn -0.496063 -0.141732 -0.858268
vn -0.629921 -0.535433 -0.566929
vn -0.574803 0.314961 -0.755905
vn -0.913386 -0.070866 -0.409449
vn -0.992126 -0.102362 -0.055118
vn -0.968504 0.204724 -0.125984
vn -0.992126 0.094488 0.015748
vn -0.992126 0.149606 0.031496
vn -0.314961 -0.889764 -0.322834
vn -0.055118 -0.992126 -0.133858
vn -0.133858 -0.960630 -0.244094
vn -0.448819 -0.881890 -0.133858
vn -0.606299 -0.677165 0.417323
vn -0.133858 -0.826771 0.551181
vn 0.118110 -0.708661 0.692913
vn 0.244094 -0.196850 0.952756
vn -0.393701 -0.236220 0.889764
vn -0.590551 0.086614 0.803149
vn 0.070866 -0.251968 0.960630
vn -0.267717 0.291339 0.921260
vn -0.417323 0.874016 0.251968
vn 0.110236 0.503937 0.858268
vn 0.519685 0.409449 0.748031
vn -0.165354 0.929134 0.322834
vn 0.433071 0.897638 0.110236
vn 0.677165 0.732283 -0.102362
vn 0.181102 0.881890 -0.433071
vn -0.244094 0.929134 -0.267717
vn -0.629921 0.708661 -0.314961
vn -0.433071 0.740157 -0.519685
vn -0.141732 0.716535 -0.677165
vn -0.204724 0.535433 -0.818898
tan 0.047616 -0.942402 0.310249 1.000000
tan 0.005208 -0.959514 0.275653 1.000000
tan -0.254200 -0.916424 0.320355 1.000000
tan -0.145824 -0.931924 0.345341 1.000000
tan -0.447889 -0.792981 0.410193 1.000000
tan -0.360655 -0.775993 0.526009 1.000000
tan 0.067704 -0.997334 0.115878 1.000000
tan -0.021824 -0.975324 0.251969 1.000000
tan 0.039370 -1.000000 -0.063302 1.000000
tan 0.043276 -0.989460 0.138384 1.000000
tan 0.339265 -0.843697 0.419865 1.000000
tan -0.231632 -0.952756 -0.220844 1.000000
tan 0.028706 -0.994730 0.108128 1.000000
tan 0.095914 -0.987786 0.108004 1.000000
tan -0.215388 -0.967140 0.084196 1.000000
tan -0.092008 -0.984686 0.111600 1.000000
tan -0.144708 -0.985802 0.124248 1.000000
tan 0.929692 -0.358609 0.081344 1.000000
tan 0.993366 -0.070060 0.110236 1.000000
tan 0.978548 -0.163184 0.105586 1.000000
tan 0.878542 -0.459669 0.082708 1.000000
tan 0.796826 -0.538285 0.284209 1.000000
tan 0.989522 -0.137764 0.033666 1.000000
tan 0.987910 0.150102 -0.014880 1.000000
tan 0.964350 -0.077748 -0.263129 1.000000
tan 0.904830 -0.284333 0.324881 1.000000
tan 0.780086 -0.186000 0.593651 1.000000
tan 0.974766 -0.157232 -0.113150 1.000000
tan 0.951144 -0.099386 0.307831 1.000000
tan 0.897390 0.346085 0.285820 1.000000
tan 0.978238 -0.212722 -0.000744 1.000000
tan 0.821688 -0.473619 -0.311613 1.000000
tan 0.967822 0.101494 0.203608 1.000000
tan 0.900986 -0.436605 0.015624 1.000000
tan 0.736066 -0.664083 0.118606 1.000000
tan 0.979044 -0.120218 0.164610 1.000000
tan 0.960010 0.257672 0.018972 1.000000
tan 0.766322 0.632401 -0.109740 1.000000
tan 0.901854 0.413975 -0.161944 1.000000
tan 0.972596 0.215760 0.024738 1.000000
tan 0.952570 0.304669 -0.038936 1.000000
f 3/3/3 2/2/2 1/1/1
f 3/3/3 4/4/4 2/2/2
f 4/4/4 3/3/3 5/5/5
f 4/4/4 5/5/5 6/6/6
f 7/7/7 2/2/2 4/4/4
f 4/4/4 6/6/6 8/8/8
f 8/8/8 7/7/7 4/4/4
f 8/8/8 9/9/9 7/7/7
f 10/10/10 9/9/9 8/8/8
f 8/8/8 11/11/11 10/10/10
f 10/10/10 12/12/12 9/9/9
f 13/13/13 10/10/10 11/11/11
f 10/10/10 13/13/13 12/12/12
f 11/11/11 14/14/14 13/13/13
f 13/13/13 15/15/15 12/12/12
f 14/14/14 16/16/16 13/13/13
f 13/13/13 16/16/16 15/15/15
f 15/15/15 16/16/16 17/17/17
f 20/20/20 19/19/19 18/18/18
f 21/21/21 18/18/18 19/19/19
f 18/18/18 21/21/21 22/22/22
f 23/23/23 21/21/21 19/19/19
f 21/21/21 23/23/23 22/22/22
f 19/19/19 24/24/24 23/23/23
f 25/25/25 23/23/23 24/24/24
f 26/26/26 22/22/22 23/23/23
f 22/22/22 26/26/26 27/27/27
f 23/23/23 25/25/25 28/28/28
f 28/28/28 26/26/26 23/23/23
f 29/29/29 27/27/27 26/26/26
f 29/29/29 26/26/26 28/28/28
f 29/29/29 30/30/30 27/27/27
f 25/25/25 31/31/31 28/28/28
f 28/28/28 31/31/31 29/29/29
f 32/32/32 31/31/31 25/25/25
f 29/29/29 31/31/31 33/33/33
f 33/33/33 30/30/30 29/29/29
f 34/34/34 31/31/31 32/32/32
f 31/31/31 34/34/34 33/33/33
f 34/34/34 30/30/30 33/33/33
f 32/32/32 35/35/35 34/34/34
f 36/36/36 34/34/34 35/35/35
f 37/37/37 30/30/30 34/34/34
f 34/34/34 36/36/36 37/37/37
f 37/37/37 38/38/38 30/30/30
f 38/38/38 37/37/37 39/39/39
f 37/37/37 36/36/36 40/40/40
f 39/39/39 37/37/37 40/40/40
f 41/41/41 40/40/40 36/36/36
f 40/40/40 41/41/41 39/39/39
