mtllib SM_Roof_02.mtl
g SM_Roof_02
#Vertices 128
#Indices 348
#Section 0 Offset 0 NumIndices 348 MaterialIndex 0 MI_Walls_Plastic_05
v 0.010000 0.338644 0.010000
v 5.297318 0.338644 0.010000
v 0.134271 0.338644 0.134271
v 5.245870 0.338644 0.134271
v 0.154271 0.328644 0.144271
v 5.231714 0.328644 0.144271
v 5.297318 -0.000000 0.010000
v 0.010000 -0.000000 0.010000
v 0.010000 0.000002 6.989999
v 6.989999 0.000001 1.710204
v 6.989999 0.000002 6.989999
v 0.134272 0.338646 6.865728
v 6.989999 0.338646 6.989999
v 0.010000 0.338646 6.989999
v 6.865728 0.338647 6.865727
v 0.154272 0.328646 6.855728
v 6.845728 0.328647 6.855728
v 0.154272 0.117937 6.845728
v 6.845728 0.117937 1.769963
v 6.845728 0.117938 6.845727
v 5.237558 0.117935 0.154272
v 0.154271 0.117935 0.154271
v 0.154272 0.328646 6.855728
v 6.845728 0.127938 6.855728
v 6.845728 0.328647 6.855728
v 0.154272 0.127937 6.855728
v 6.845728 0.117938 6.845727
v 0.154272 0.117937 6.845728
v 6.989999 0.328646 6.999999
v 0.010000 0.338646 6.989999
v 6.989999 0.338646 6.989999
v 0.010000 0.328646 6.999999
v 6.989999 0.010002 6.999999
v 0.010000 0.010002 6.999999
v 0.010000 0.000002 6.989999
v 6.989999 0.000002 6.989999
v 0.134271 0.338644 0.134271
v 0.010000 0.338646 6.989999
v 0.010000 0.338644 0.010000
v 0.134272 0.338646 6.865728
v 0.154271 0.328644 0.144271
v 0.144271 0.328644 0.154271
v 0.144272 0.328646 6.845728
v 0.154272 0.328646 6.855728
v 5.297318 0.338644 0.010000
v 6.989999 0.338646 1.710204
v 5.245870 0.338644 0.134271
v 6.865728 0.338646 1.761706
v 5.248769 0.328644 0.151359
v 5.231714 0.328644 0.144271
v 6.848673 0.328646 1.758747
v 6.989999 0.338646 1.710204
v 6.989999 0.338646 6.989999
v 6.865728 0.338647 6.865727
v 6.865728 0.338646 1.761706
v 6.855728 0.328647 6.845727
v 6.845728 0.328647 6.855728
v 6.855728 0.328646 1.775834
v 6.848673 0.328646 1.758747
v 6.845728 0.328647 6.855728
v 6.845728 0.127938 6.855728
v 6.855728 0.328647 6.845727
v 6.855728 0.127938 6.845727
v 6.855728 0.328646 1.775834
v 6.845728 0.117938 6.845727
v 6.855728 0.127937 1.775834
v 6.848673 0.328646 1.758747
v 6.845728 0.117937 1.769963
v 6.848673 0.127937 1.758747
v 5.248769 0.328644 0.151359
v 5.237558 0.117935 0.154272
v 5.248769 0.127935 0.151359
v 5.231714 0.328644 0.144271
v 0.154271 0.127935 0.144271
v 0.154271 0.328644 0.144271
v 5.248769 0.127935 0.151359
v 5.248769 0.328644 0.151359
v 5.231714 0.127935 0.144272
v 0.154271 0.117935 0.154271
v 5.237558 0.117935 0.154272
v 5.291473 0.010000 -0.000000
v 0.010000 -0.000000 0.010000
v 5.297318 -0.000000 0.010000
v 5.308529 0.010000 0.007086
v 0.010000 0.010000 -0.000000
v 5.291473 0.328644 -0.000000
v 5.308529 0.328644 0.007086
v 0.010000 0.328644 -0.000000
v 5.297318 0.338644 0.010000
v 0.010000 0.338644 0.010000
v 0.144271 0.127935 0.154271
v 0.154271 0.328644 0.144271
v 0.154271 0.127935 0.144271
v 0.154271 0.117935 0.154271
v 0.144271 0.328644 0.154271
v 0.144272 0.127937 6.845728
v 0.154272 0.117937 6.845728
v 0.144272 0.328646 6.845728
v 0.154272 0.127937 6.855728
v 0.154272 0.328646 6.855728
v -0.000000 0.010000 0.010000
v 0.010000 -0.000000 0.010000
v 0.010000 0.010000 -0.000000
v 0.010000 0.328644 -0.000000
v 0.010000 0.000002 6.989999
v -0.000000 0.328644 0.010000
v 0.010000 0.338644 0.010000
v -0.000000 0.010002 6.989999
v 0.010000 0.010002 6.999999
v -0.000000 0.328646 6.989999
v 0.010000 0.338646 6.989999
v 0.010000 0.328646 6.999999
v 5.297318 -0.000000 0.010000
v 6.992944 0.010001 1.698988
v 5.308529 0.010000 0.007086
v 6.989999 0.000001 1.710204
v 5.308529 0.328644 0.007086
v 6.999999 0.010001 1.716075
v 6.989999 0.000002 6.989999
v 6.992944 0.328646 1.698988
v 5.297318 0.338644 0.010000
v 6.989999 0.338646 1.710204
v 6.999999 0.328646 1.716075
v 6.989999 0.338646 6.989999
v 6.999999 0.328646 6.989999
v 6.989999 0.328646 6.999999
v 6.999999 0.010002 6.989999
v 6.989999 0.010002 6.999999
vt 2.593750 2.233398
vt -0.049713 2.233398
vt 2.533203 2.170898
vt -0.024017 2.171875
vt 2.521484 2.165039
vt -0.016388 2.165039
vt 3.607422 3.656250
vt 3.607422 6.300781
vt 0.117432 6.300781
vt 2.757812 2.810547
vt 0.117432 2.810547
vt 3.517578 0.139160
vt 0.089050 0.077148
vt 3.580078 0.077637
vt 0.151001 0.139160
vt 3.507812 0.145508
vt 0.161621 0.145508
vt 6.777344 0.670166
vt 3.433594 3.208984
vt 3.433594 0.670166
vt 4.234375 4.015625
vt 6.777344 4.015625
vt -0.049713 2.707031
vt 3.296875 2.606445
vt 3.296875 2.707031
vt -0.049713 2.606445
vt 3.296875 2.599609
vt -0.049713 2.599609
vt -0.049713 0.554932
vt 3.441406 0.562012
vt -0.049713 0.562012
vt 3.441406 0.554932
vt -0.049713 0.395508
vt 3.441406 0.395508
vt 3.441406 0.388672
vt -0.049713 0.388672
vt 0.012314 6.433594
vt 3.441406 6.496094
vt -0.049713 6.496094
vt 3.378906 6.433594
vt 0.018402 6.421875
vt 0.022934 6.429688
vt 3.369141 6.425781
vt 3.373047 6.421875
vt 1.150391 1.686035
vt -0.049713 1.704102
vt 1.123047 1.624512
vt -0.025208 1.642090
vt 1.116211 1.618164
vt 1.124023 1.614258
vt -0.017761 1.635254
vt 2.591797 2.066406
vt -0.049713 2.066406
vt 0.012207 2.003906
vt 2.564453 2.003906
vt 0.022690 1.998047
vt 0.018250 1.993652
vt 2.558594 1.998047
vt 2.566406 1.994629
vt -0.049438 6.968750
vt -0.049713 6.867188
vt -0.043304 6.968750
vt -0.043549 6.871094
vt 2.492188 6.968750
vt -0.044769 6.863281
vt 2.492188 6.867188
vt 2.500000 6.968750
vt 2.496094 6.863281
vt 2.500000 6.867188
vt 3.634766 6.968750
vt 3.636719 6.859375
vt 3.634766 6.867188
vt 2.490234 1.791992
vt -0.049683 1.892090
vt -0.049713 1.791992
vt 2.498047 1.893066
vt 2.498047 1.792480
vt 2.488281 1.892578
vt -0.049622 1.899414
vt 2.492188 1.898926
vt 2.591797 2.345703
vt -0.049652 2.338867
vt 2.593750 2.338867
vt 2.599609 2.344727
vt -0.049713 2.345703
vt 2.591797 2.504883
vt 2.599609 2.504883
vt -0.049683 2.504883
vt 2.593750 2.511719
vt -0.049622 2.511719
vt 3.304688 0.750366
vt 3.310547 0.650391
vt 3.310547 0.751343
vt 3.304688 0.756958
vt 3.304688 0.650146
vt -0.042084 0.750366
vt -0.042877 0.756958
vt -0.042450 0.650146
vt -0.048798 0.751343
vt -0.049713 0.650391
vt -0.042969 6.769531
vt -0.043823 6.773438
vt -0.049713 6.769531
vt -0.049713 6.609375
vt 3.447266 6.773438
vt -0.042969 6.609375
vt -0.043823 6.601562
vt 3.447266 6.769531
vt 3.453125 6.769531
vt 3.447266 6.609375
vt 3.447266 6.601562
vt 3.453125 6.609375
vt -0.049713 7.074219
vt 1.147461 7.082031
vt -0.046875 7.082031
vt 1.151367 7.074219
vt -0.046875 7.242188
vt 1.154297 7.082031
vt 3.794922 7.074219
vt 1.147461 7.242188
vt -0.049713 7.250000
vt 1.151367 7.246094
vt 1.154297 7.242188
vt 3.794922 7.246094
vt 3.792969 7.242188
vt 3.798828 7.242188
vt 3.792969 7.082031
vt 3.798828 7.082031
vt1 0.679688 0.033691
vt1 0.679688 0.390625
vt1 0.671387 0.041992
vt1 0.671387 0.387207
vt1 0.670898 0.043457
vt1 0.670898 0.386230
vt1 0.451660 0.625244
vt1 0.094849 0.625244
vt1 0.094849 0.154297
vt1 0.565918 0.510498
vt1 0.565918 0.154297
vt1 0.064148 0.609131
vt1 0.072510 0.146484
vt1 0.072510 0.617432
vt1 0.064148 0.154785
vt1 0.063293 0.607666
vt1 0.063293 0.156250
vt1 0.932617 0.980011
vt1 0.589844 0.528320
vt1 0.932617 0.528320
vt1 0.480957 0.636963
vt1 0.480957 0.980011
vt1 0.769043 0.025879
vt1 0.782715 0.477539
vt1 0.769043 0.477539
vt1 0.782715 0.025879
vt1 0.783691 0.477539
vt1 0.783691 0.025879
vt1 0.958008 0.494629
vt1 0.958984 0.023438
vt1 0.958984 0.494629
vt1 0.958008 0.023438
vt1 0.936523 0.494629
vt1 0.936523 0.023438
vt1 0.935547 0.023438
vt1 0.935547 0.494629
vt1 0.071716 0.116211
vt1 0.534180 0.124512
vt1 0.063293 0.124512
vt1 0.525879 0.116211
vt1 0.072510 0.114746
vt1 0.073120 0.115723
vt1 0.524414 0.115234
vt1 0.525391 0.114746
vt1 0.026413 0.918823
vt1 0.023926 0.756958
vt1 0.034698 0.915222
vt1 0.032349 0.760254
vt1 0.035553 0.914246
vt1 0.036041 0.915344
vt1 0.033234 0.761230
vt1 0.445557 0.811035
vt1 0.089111 0.811035
vt1 0.097473 0.802734
vt1 0.442139 0.802734
vt1 0.098938 0.801880
vt1 0.098328 0.801270
vt1 0.440918 0.801880
vt1 0.442139 0.801392
vt1 0.034607 0.572998
vt1 0.020981 0.572998
vt1 0.034607 0.572021
vt1 0.021072 0.572266
vt1 0.034607 0.229980
vt1 0.020172 0.572266
vt1 0.021042 0.229980
vt1 0.034546 0.229004
vt1 0.020126 0.229492
vt1 0.021011 0.229004
vt1 0.034546 0.075684
vt1 0.019989 0.075195
vt1 0.020966 0.075684
vt1 0.428467 0.899170
vt1 0.085754 0.912659
vt1 0.085754 0.899109
vt1 0.429688 0.912781
vt1 0.429688 0.899170
vt1 0.428467 0.912720
vt1 0.085754 0.913635
vt1 0.428955 0.913574
vt1 0.439941 0.711670
vt1 0.083496 0.710693
vt1 0.440430 0.710693
vt1 0.441162 0.711670
vt1 0.083496 0.711670
vt1 0.439941 0.733154
vt1 0.441162 0.733154
vt1 0.083496 0.733154
vt1 0.440430 0.734131
vt1 0.083496 0.734131
vt1 0.854492 0.485352
vt1 0.867676 0.486328
vt1 0.854492 0.486328
vt1 0.853516 0.485352
vt1 0.867676 0.485352
vt1 0.854492 0.033691
vt1 0.853516 0.033691
vt1 0.867676 0.033691
vt1 0.854492 0.032715
vt1 0.867676 0.032715
vt1 0.064209 0.093750
vt1 0.064087 0.094727
vt1 0.063293 0.093750
vt1 0.063293 0.072266
vt1 0.535156 0.094727
vt1 0.064209 0.072266
vt1 0.064087 0.071289
vt1 0.535156 0.093750
vt1 0.536133 0.093750
vt1 0.535156 0.072266
vt1 0.535156 0.071289
vt1 0.536133 0.072266
vt1 0.542969 0.043457
vt1 0.381836 0.042480
vt1 0.542969 0.042969
vt1 0.381104 0.043457
vt1 0.542969 0.020996
vt1 0.380615 0.042480
vt1 0.024597 0.043457
vt1 0.381836 0.020996
vt1 0.542969 0.020020
vt1 0.381104 0.020508
vt1 0.380615 0.020996
vt1 0.024597 0.020508
vt1 0.024750 0.020996
vt1 0.023926 0.020996
vt1 0.024750 0.042480
vt1 0.023926 0.042969
vn -0.078740 0.992126 -0.062992
vn 0.015748 1.000000 -0.070866
vn 0.007874 1.000000 0.007874
vn -0.007874 1.000000 0.031496
vn 0.000000 0.070866 1.000000
vn 0.000000 0.070866 1.000000
vn 0.000000 -1.000000 0.000000
vn 0.000000 -1.000000 0.000000
vn 0.000000 -1.000000 0.000000
vn 0.000000 -1.000000 0.000000
vn 0.000000 -1.000000 0.000000
vn 0.007874 1.000000 -0.007874
vn 0.062992 0.992126 0.078740
vn -0.070866 0.992126 0.070866
vn -0.007874 1.000000 -0.007874
vn 0.000000 0.070866 -1.000000
vn 0.000000 0.070866 -1.000000
vn 0.000000 1.000000 -0.000000
vn -0.007874 1.000000 -0.000000
vn 0.000000 1.000000 -0.000000
vn 0.000000 1.000000 -0.000000
vn 0.000000 1.000000 -0.000000
vn 0.000000 0.070866 -1.000000
vn 0.000000 0.047244 -1.000000
vn 0.000000 0.070866 -1.000000
vn 0.000000 0.047244 -1.000000
vn 0.000000 1.000000 -0.000000
vn 0.000000 1.000000 -0.000000
vn 0.000000 0.031496 1.000000
vn -0.070866 0.992126 0.070866
vn 0.062992 0.992126 0.078740
vn 0.000000 0.031496 1.000000
vn 0.000000 -0.031496 1.000000
vn 0.000000 -0.031496 1.000000
vn 0.000000 -1.000000 0.000000
vn 0.000000 -1.000000 0.000000
vn 0.007874 1.000000 0.007874
vn -0.070866 0.992126 0.070866
vn -0.078740 0.992126 -0.062992
vn 0.007874 1.000000 -0.007874
vn 0.000000 0.070866 1.000000
vn 1.000000 0.070866 -0.000000
vn 1.000000 0.070866 -0.000000
vn 0.000000 0.070866 -1.000000
vn 0.015748 1.000000 -0.070866
vn 0.070866 1.000000 -0.015748
vn -0.007874 1.000000 0.031496
vn -0.031496 1.000000 0.007874
vn -0.708661 0.070866 0.708661
vn 0.000000 0.070866 1.000000
vn -0.708661 0.070866 0.700787
vn 0.070866 1.000000 -0.015748
vn 0.062992 0.992126 0.078740
vn -0.007874 1.000000 -0.007874
vn -0.031496 1.000000 0.007874
vn -1.000000 0.070866 -0.000000
vn 0.000000 0.070866 -1.000000
vn -1.000000 0.070866 -0.000000
vn -0.708661 0.070866 0.700787
vn 0.000000 0.070866 -1.000000
vn 0.000000 0.047244 -1.000000
vn -1.000000 0.070866 -0.000000
vn -1.000000 0.047244 -0.000000
vn -1.000000 0.070866 -0.000000
vn 0.000000 1.000000 -0.000000
vn -1.000000 0.055118 -0.000000
vn -0.708661 0.070866 0.700787
vn -0.007874 1.000000 -0.000000
vn -0.708661 0.055118 0.700787
vn -0.708661 0.070866 0.708661
vn 0.000000 1.000000 -0.000000
vn -0.708661 0.055118 0.708661
vn 0.000000 0.070866 1.000000
vn 0.000000 0.047244 1.000000
vn 0.000000 0.070866 1.000000
vn -0.708661 0.055118 0.708661
vn -0.708661 0.070866 0.708661
vn 0.000000 0.055118 1.000000
vn 0.000000 1.000000 -0.000000
vn 0.000000 1.000000 -0.000000
vn 0.000000 -0.039370 -1.000000
vn 0.000000 -1.000000 0.000000
vn 0.000000 -1.000000 0.000000
vn 0.708661 -0.039370 -0.708661
vn 0.000000 -0.031496 -1.000000
vn 0.000000 0.039370 -1.000000
vn 0.708661 0.039370 -0.708661
vn 0.000000 0.031496 -1.000000
vn 0.015748 1.000000 -0.070866
vn -0.078740 0.992126 -0.062992
vn 1.000000 0.047244 -0.000000
vn 0.000000 0.070866 1.000000
vn 0.000000 0.047244 1.000000
vn 0.000000 1.000000 -0.000000
vn 1.000000 0.070866 -0.000000
vn 1.000000 0.047244 -0.000000
vn 0.000000 1.000000 -0.000000
vn 1.000000 0.070866 -0.000000
vn 0.000000 0.047244 -1.000000
vn 0.000000 0.070866 -1.000000
vn -1.000000 -0.031496 0.000000
vn 0.000000 -1.000000 0.000000
vn 0.000000 -0.031496 -1.000000
vn 0.000000 0.031496 -1.000000
vn 0.000000 -1.000000 0.000000
vn -1.000000 0.031496 -0.000000
vn -0.078740 0.992126 -0.062992
vn -1.000000 -0.031496 0.000000
vn 0.000000 -0.031496 1.000000
vn -1.000000 0.031496 -0.000000
vn -0.070866 0.992126 0.070866
vn 0.000000 0.031496 1.000000
vn 0.000000 -1.000000 0.000000
vn 0.708661 -0.039370 -0.700787
vn 0.708661 -0.039370 -0.708661
vn 0.000000 -1.000000 0.000000
vn 0.708661 0.039370 -0.708661
vn 1.000000 -0.039370 0.000000
vn 0.000000 -1.000000 0.000000
vn 0.708661 0.039370 -0.700787
vn 0.015748 1.000000 -0.070866
vn 0.070866 1.000000 -0.015748
vn 1.000000 0.039370 -0.000000
vn 0.062992 0.992126 0.078740
vn 1.000000 0.031496 -0.000000
vn 0.000000 0.031496 1.000000
vn 1.000000 -0.031496 0.000000
vn 0.000000 -0.031496 1.000000
tan 0.002852 0.063612 0.998326 1.000000
tan 0.001116 0.070866 1.000248 1.000000
tan -0.000062 -0.007874 1.000062 1.000000
tan 0.000248 -0.031496 1.000062 1.000000
tan 0.000000 -1.000000 0.070866 1.000000
tan 0.000000 -1.000000 0.070866 1.000000
tan 1.000000 0.000000 0.000000 1.000000
tan 1.000000 0.000000 0.000000 1.000000
tan 1.000000 0.000000 0.000000 1.000000
tan 1.000000 0.000000 0.000000 1.000000
tan 1.000000 0.000000 0.000000 1.000000
tan 0.000062 0.007874 1.000062 1.000000
tan 0.002852 -0.079236 0.996094 1.000000
tan -0.002790 -0.071424 0.997148 1.000000
tan -0.000062 0.007874 1.000062 1.000000
tan 0.000000 1.000000 0.070866 1.000000
tan 0.000000 1.000000 0.070866 1.000000
tan 0.000000 0.000000 1.000000 1.000000
tan 0.000000 0.000000 1.000062 1.000000
tan 0.000000 0.000000 1.000000 1.000000
tan 0.000000 0.000000 1.000000 1.000000
tan 0.000000 0.000000 1.000000 1.000000
tan 0.000000 -1.000000 -0.070866 1.000000
tan 0.000000 -1.000000 -0.047244 1.000000
tan 0.000000 -1.000000 -0.070866 1.000000
tan 0.000000 -1.000000 -0.047244 1.000000
tan 0.000000 -0.000000 -1.000000 1.000000
tan 0.000000 -0.000000 -1.000000 1.000000
tan 0.000000 -1.000000 0.031496 1.000000
tan -0.002790 -0.071424 0.997148 1.000000
tan 0.002852 -0.079236 0.996094 1.000000
tan 0.000000 -1.000000 0.031496 1.000000
tan 0.000000 -1.000000 -0.031496 1.000000
tan 0.000000 -1.000000 -0.031496 1.000000
tan 0.000000 -0.000000 -1.000000 1.000000
tan 0.000000 -0.000000 -1.000000 1.000000
tan 1.000062 -0.007998 0.015686 1.000000
tan 0.997148 0.071424 -0.002790 1.000000
tan 0.996094 0.079236 0.002852 1.000000
tan 1.000062 -0.008060 -0.023560 1.000000
tan 0.973526 -0.251968 0.017856 1.000000
tan 0.070866 -1.000000 -0.047244 1.000000
tan 0.070866 -1.000000 0.047244 1.000000
tan 0.957778 -0.299213 -0.021204 1.000000
tan -0.719325 0.060388 0.692293 1.000000
tan -0.723789 0.062248 0.695703 1.000000
tan -0.709157 -0.027900 0.708537 1.000000
tan -0.716411 -0.028024 0.693409 1.000000
tan -0.089280 -0.998822 0.010602 1.000000
tan -0.348131 -0.937008 0.066402 1.000000
tan -0.061256 -0.993304 0.038502 1.000000
tan -1.000248 0.070866 -0.001116 1.000000
tan -0.998326 0.063612 -0.002852 1.000000
tan -1.000062 -0.007998 -0.015686 1.000000
tan -1.000062 -0.031682 0.023374 1.000000
tan -0.070866 -1.000000 0.047244 1.000000
tan -0.965652 -0.267716 -0.018972 1.000000
tan -0.070866 -1.000000 -0.039370 1.000000
tan -0.269825 -0.949036 -0.176886 1.000000
tan -0.079298 -1.000000 -0.070866 1.000000
tan -0.165726 -0.984252 -0.046500 1.000000
tan -0.070866 -1.000000 -0.032054 1.000000
tan -0.047244 -1.000000 0.039370 1.000000
tan -0.070866 -1.000000 0.000000 1.000000
tan -0.937008 -0.000000 -0.354331 1.000000
tan -0.055118 -1.000000 0.000000 1.000000
tan -0.072292 -0.993304 0.027342 1.000000
tan -0.929134 -0.007316 0.377953 1.000000
tan -0.055614 -0.993304 0.021886 1.000000
tan -0.050220 -1.004402 0.050220 1.000000
tan -0.708661 0.000000 0.708661 1.000000
tan -0.039060 -1.004402 0.039060 1.000000
tan 0.007874 1.000000 -0.070866 1.000000
tan 0.000000 1.000000 -0.047244 1.000000
tan 0.000000 1.000000 -0.070866 1.000000
tan -0.022754 0.998822 -0.100440 1.000000
tan 0.021762 0.998822 -0.078120 1.000000
tan -0.015748 1.000000 -0.055118 1.000000
tan 0.000000 -0.000000 -1.000000 1.000000
tan 0.228346 -0.000000 -0.976378 1.000000
tan 0.015748 -1.000000 0.039370 1.000000
tan 0.000000 0.000000 1.000000 1.000000
tan -0.228346 0.000000 0.976378 1.000000
tan 0.022630 -0.998822 0.078120 1.000000
tan 0.000000 -1.000000 0.031496 1.000000
tan -0.015748 -1.000000 -0.039370 1.000000
tan -0.022630 -0.998822 -0.078120 1.000000
tan 0.000000 -1.000000 -0.031496 1.000000
tan 0.220472 -0.072664 -0.976378 1.000000
tan -0.002852 -0.063612 -0.998326 1.000000
tan -0.047244 1.000000 0.062992 1.000000
tan -0.118668 0.992126 -0.070308 1.000000
tan -0.236964 0.968504 -0.045756 1.000000
tan -0.937008 -0.000000 -0.346457 1.000000
tan -0.070866 1.000000 -0.015748 1.000000
tan -0.047244 1.000000 -0.062992 1.000000
tan -0.937008 0.000000 0.346457 1.000000
tan -0.070866 1.000000 0.015748 1.000000
tan -0.236964 0.968504 0.045756 1.000000
tan -0.118668 0.992126 0.070308 1.000000
tan -0.031496 1.000000 0.062992 1.000000
tan -0.937008 -0.000000 -0.346457 1.000000
tan -0.197098 0.984252 -0.031000 1.000000
tan 0.189224 0.984252 0.031000 1.000000
tan -0.937008 0.000000 0.346457 1.000000
tan 0.031496 1.000000 -0.062992 1.000000
tan 0.939426 0.095232 0.325625 1.000000
tan -0.031496 1.000000 -0.062992 1.000000
tan -0.189224 0.984252 0.031000 1.000000
tan 0.031496 1.000000 0.062992 1.000000
tan 0.940790 0.089838 -0.316945 1.000000
tan 0.197098 0.984252 -0.031000 1.000000
tan -0.708661 0.000000 0.708661 1.000000
tan -0.033418 -0.993304 0.022010 1.000000
tan -0.027900 -1.004402 0.027900 1.000000
tan -0.921260 0.000000 0.377953 1.000000
tan 0.027900 -1.004402 -0.027900 1.000000
tan -0.039370 -1.000000 0.007874 1.000000
tan -0.937008 -0.000000 -0.354331 1.000000
tan 0.033418 -0.993304 -0.022010 1.000000
tan 0.711451 -0.061380 -0.708041 1.000000
tan 0.921136 -0.071238 -0.378511 1.000000
tan 0.039370 -1.000000 -0.007874 1.000000
tan 0.933970 -0.085684 0.332445 1.000000
tan 0.031496 -1.000000 -0.039370 1.000000
tan 0.149854 -0.992126 0.031248 1.000000
tan -0.031496 -1.000000 0.039370 1.000000
tan -0.149854 -0.992126 -0.031248 1.000000
f 3/3/3 2/2/2 1/1/1
f 4/4/4 2/2/2 3/3/3
f 5/5/5 4/4/4 3/3/3
f 6/6/6 4/4/4 5/5/5
f 9/9/9 8/8/8 7/7/7
f 7/7/7 10/10/10 9/9/9
f 11/11/11 9/9/9 10/10/10
f 14/14/14 13/13/13 12/12/12
f 15/15/15 12/12/12 13/13/13
f 12/12/12 15/15/15 16/16/16
f 17/17/17 16/16/16 15/15/15
f 20/20/20 19/19/19 18/18/18
f 19/19/19 21/21/21 18/18/18
f 22/22/22 18/18/18 21/21/21
f 25/25/25 24/24/24 23/23/23
f 26/26/26 23/23/23 24/24/24
f 24/24/24 27/27/27 26/26/26
f 28/28/28 26/26/26 27/27/27
f 31/31/31 30/30/30 29/29/29
f 32/32/32 29/29/29 30/30/30
f 33/33/33 29/29/29 32/32/32
f 34/34/34 33/33/33 32/32/32
f 34/34/34 35/35/35 33/33/33
f 36/36/36 33/33/33 35/35/35
f 39/39/39 38/38/38 37/37/37
f 40/40/40 37/37/37 38/38/38
f 42/42/42 41/41/41 37/37/37
f 37/37/37 40/40/40 42/42/42
f 43/43/43 42/42/42 40/40/40
f 40/40/40 44/44/44 43/43/43
f 47/47/47 46/46/46 45/45/45
f 46/46/46 47/47/47 48/48/48
f 49/49/49 48/48/48 47/47/47
f 47/47/47 50/50/50 49/49/49
f 51/51/51 48/48/48 49/49/49
f 54/54/54 53/53/53 52/52/52
f 55/55/55 54/54/54 52/52/52
f 57/57/57 54/54/54 56/56/56
f 54/54/54 55/55/55 56/56/56
f 58/58/58 56/56/56 55/55/55
f 58/58/58 55/55/55 59/59/59
f 62/62/62 61/61/61 60/60/60
f 63/63/63 61/61/61 62/62/62
f 62/62/62 64/64/64 63/63/63
f 63/63/63 65/65/65 61/61/61
f 66/66/66 63/63/63 64/64/64
f 63/63/63 66/66/66 65/65/65
f 67/67/67 66/66/66 64/64/64
f 68/68/68 65/65/65 66/66/66
f 69/69/69 66/66/66 67/67/67
f 66/66/66 69/69/69 68/68/68
f 67/67/67 70/70/70 69/69/69
f 68/68/68 69/69/69 71/71/71
f 72/72/72 69/69/69 70/70/70
f 72/72/72 71/71/71 69/69/69
f 75/75/75 74/74/74 73/73/73
f 77/77/77 73/73/73 76/76/76
f 78/78/78 73/73/73 74/74/74
f 78/78/78 76/76/76 73/73/73
f 79/79/79 78/78/78 74/74/74
f 80/80/80 76/76/76 78/78/78
f 78/78/78 79/79/79 80/80/80
f 83/83/83 82/82/82 81/81/81
f 81/81/81 84/84/84 83/83/83
f 85/85/85 81/81/81 82/82/82
f 81/81/81 86/86/86 84/84/84
f 81/81/81 85/85/85 86/86/86
f 87/87/87 84/84/84 86/86/86
f 85/85/85 88/88/88 86/86/86
f 89/89/89 87/87/87 86/86/86
f 88/88/88 90/90/90 86/86/86
f 86/86/86 90/90/90 89/89/89
f 93/93/93 92/92/92 91/91/91
f 94/94/94 93/93/93 91/91/91
f 95/95/95 91/91/91 92/92/92
f 91/91/91 96/96/96 94/94/94
f 91/91/91 95/95/95 96/96/96
f 97/97/97 94/94/94 96/96/96
f 98/98/98 96/96/96 95/95/95
f 97/97/97 96/96/96 99/99/99
f 100/100/100 96/96/96 98/98/98
f 99/99/99 96/96/96 100/100/100
f 103/103/103 102/102/102 101/101/101
f 103/103/103 101/101/101 104/104/104
f 102/102/102 105/105/105 101/101/101
f 104/104/104 101/101/101 106/106/106
f 104/104/104 106/106/106 107/107/107
f 108/108/108 101/101/101 105/105/105
f 101/101/101 108/108/108 106/106/106
f 105/105/105 109/109/109 108/108/108
f 106/106/106 110/110/110 107/107/107
f 108/108/108 110/110/110 106/106/106
f 108/108/108 109/109/109 110/110/110
f 111/111/111 107/107/107 110/110/110
f 110/110/110 109/109/109 112/112/112
f 110/110/110 112/112/112 111/111/111
f 115/115/115 114/114/114 113/113/113
f 116/116/116 113/113/113 114/114/114
f 115/115/115 117/117/117 114/114/114
f 116/116/116 114/114/114 118/118/118
f 116/116/116 118/118/118 119/119/119
f 120/120/120 114/114/114 117/117/117
f 114/114/114 120/120/120 118/118/118
f 117/117/117 121/121/121 120/120/120
f 120/120/120 121/121/121 122/122/122
f 123/123/123 120/120/120 122/122/122
f 123/123/123 118/118/118 120/120/120
f 122/122/122 124/124/124 123/123/123
f 125/125/125 123/123/123 124/124/124
f 118/118/118 123/123/123 125/125/125
f 126/126/126 125/125/125 124/124/124
f 127/127/127 118/118/118 125/125/125
f 126/126/126 127/127/127 125/125/125
f 127/127/127 119/119/119 118/118/118
f 128/128/128 127/127/127 126/126/126
f 119/119/119 127/127/127 128/128/128
