mtllib SM_Rock_09.mtl
g SM_Rock_09
#Vertices 24
#Indices 78
#Section 0 Offset 0 NumIndices 78 MaterialIndex 0 MI_Small_Rocks_01
v -0.004751 0.012772 -0.016411
v -0.000000 -0.000000 -0.008846
v 0.005578 0.015284 -0.001935
v 0.001858 0.001035 0.006907
v 0.007257 0.014393 0.007673
v -0.022270 0.000256 0.001864
v -0.016956 0.009587 0.017354
v -0.012911 0.027123 0.011885
v -0.031501 0.008638 0.014721
v -0.025119 0.025067 0.010656
v -0.035166 0.012807 0.007100
v -0.012911 0.027123 0.011885
v 0.005578 0.015284 -0.001935
v 0.007257 0.014393 0.007673
v -0.009887 0.027685 -0.004747
v -0.025119 0.025067 0.010656
v -0.004751 0.012772 -0.016411
v -0.035166 0.012807 0.007100
v -0.018938 0.014329 -0.014854
v -0.012976 0.004610 -0.017354
v -0.000000 -0.000000 -0.008846
v -0.022270 0.000256 0.001864
v -0.031904 0.007254 -0.000794
v -0.031501 0.008638 0.014721
vt 0.793457 0.039062
vt 0.818848 0.028809
vt 0.815918 0.061523
vt 0.837891 0.044922
vt 0.835938 0.068359
vt 0.862793 0.011719
vt 0.874023 0.042480
vt 0.880371 0.073730
vt 0.893555 0.027344
vt 0.899414 0.059570
vt 0.909668 0.032715
vt 0.266113 0.371582
vt 0.312988 0.364258
vt 0.308350 0.381348
vt 0.283447 0.351074
vt 0.247192 0.353516
vt 0.309326 0.328125
vt 0.237305 0.321289
vt 0.284912 0.323730
vt 0.295898 0.313477
vt 0.312988 0.295410
vt 0.264648 0.293457
vt 0.253418 0.312500
vt 0.230347 0.301758
vt1 0.409424 0.257324
vt1 0.504395 0.218262
vt1 0.493408 0.340332
vt1 0.574219 0.279297
vt1 0.566895 0.366699
vt1 0.666992 0.155273
vt1 0.708984 0.270020
vt1 0.731934 0.385254
vt1 0.781250 0.214355
vt1 0.804199 0.333984
vt1 0.841309 0.234375
vt1 0.302246 0.790283
vt1 0.458984 0.765381
vt1 0.443359 0.822510
vt1 0.360352 0.721191
vt1 0.238159 0.729492
vt1 0.447266 0.644287
vt1 0.204956 0.621338
vt1 0.365234 0.630371
vt1 0.402344 0.594971
vt1 0.459717 0.534668
vt1 0.297119 0.527344
vt1 0.259277 0.592529
vt1 0.181641 0.555908
vn 0.818898 -0.039370 -0.574803
vn 0.748031 -0.614173 -0.259842
vn 0.921260 -0.244094 -0.291339
vn 0.559055 -0.716535 0.417323
vn 0.811024 -0.244094 0.527559
vn -0.047244 -0.905512 0.425197
vn 0.023622 -0.283464 0.960630
vn 0.102362 0.275591 0.952756
vn -0.401575 -0.078740 0.913386
vn -0.291339 0.354331 0.889764
vn -0.708661 0.417323 0.566929
vn 0.173228 0.984252 0.047244
vn 0.598425 0.787401 -0.173228
vn 0.535433 0.850394 -0.015748
vn 0.110236 0.921260 -0.362205
vn -0.496063 0.795275 -0.354331
vn 0.291339 0.307086 -0.905512
vn -0.960630 0.015748 -0.283465
vn -0.488189 0.346457 -0.795276
vn -0.157480 -0.496063 -0.850394
vn 0.102362 -0.795276 -0.590551
vn -0.456693 -0.858268 -0.236220
vn -0.842520 -0.370079 -0.393701
vn -0.708661 -0.700787 0.078740
tan -0.348627 -0.829934 -0.439829 1.000000
tan -0.666625 -0.669167 -0.337405 1.000000
tan -0.356687 -0.822432 -0.438837 1.000000
tan -0.599913 -0.697687 -0.394259 1.000000
tan -0.213962 -0.969930 -0.119846 1.000000
tan -0.608717 -0.312853 -0.733895 1.000000
tan -0.458429 -0.858268 -0.241986 1.000000
tan -0.445967 -0.843698 0.291959 1.000000
tan -0.295741 -0.933412 -0.210490 1.000000
tan -0.521979 -0.838490 0.162998 1.000000
tan -0.432203 -0.891686 0.116126 1.000000
tan -0.552421 0.136896 -0.826462 1.000000
tan -0.337157 0.047492 -0.948850 1.000000
tan -0.335917 0.194308 -0.928514 1.000000
tan -0.587141 -0.233617 -0.772893 1.000000
tan -0.485523 -0.592597 -0.650319 1.000000
tan -0.274785 -0.877550 -0.386013 1.000000
tan -0.046252 -0.993366 0.101556 1.000000
tan -0.321657 -0.921756 -0.204104 1.000000
tan 0.055242 -0.863042 0.493211 1.000000
tan 0.113398 -0.578027 0.798066 1.000000
tan 0.560543 -0.483725 0.673817 1.000000
tan 0.246327 -0.912208 0.330337 1.000000
tan 0.666129 -0.629921 0.388865 1.000000
f 3/3/3 2/2/2 1/1/1
f 4/4/4 2/2/2 3/3/3
f 5/5/5 4/4/4 3/3/3
f 4/4/4 6/6/6 2/2/2
f 4/4/4 5/5/5 7/7/7
f 7/7/7 6/6/6 4/4/4
f 5/5/5 8/8/8 7/7/7
f 9/9/9 6/6/6 7/7/7
f 7/7/7 8/8/8 10/10/10
f 9/9/9 7/7/7 10/10/10
f 11/11/11 9/9/9 10/10/10
f 14/14/14 13/13/13 12/12/12
f 15/15/15 12/12/12 13/13/13
f 12/12/12 15/15/15 16/16/16
f 17/17/17 15/15/15 13/13/13
f 18/18/18 16/16/16 15/15/15
f 15/15/15 17/17/17 19/19/19
f 19/19/19 18/18/18 15/15/15
f 20/20/20 19/19/19 17/17/17
f 20/20/20 17/17/17 21/21/21
f 22/22/22 20/20/20 21/21/21
f 19/19/19 23/23/23 18/18/18
f 20/20/20 23/23/23 19/19/19
f 20/20/20 22/22/22 23/23/23
f 18/18/18 23/23/23 24/24/24
f 22/22/22 24/24/24 23/23/23
