mtllib SM_Roof_01_LOD1.mtl
g SM_Roof_01_LOD1
#Vertices 497
#Indices 1374
#Section 0 Offset 0 NumIndices 1155 MaterialIndex 0 MI_Walls_Plastic_05
#Section 1 Offset 1155 NumIndices 219 MaterialIndex 1 MI_Walls_Plastic_02
v 11.142197 0.321679 1.833040
v 11.144321 0.306478 1.842351
v 9.639140 0.307351 0.403403
v 11.121290 0.281186 1.859628
v 11.114005 0.281186 1.842584
v 11.144321 0.306478 1.842351
v 9.803586 0.624468 0.014861
v 9.771014 0.651457 0.068005
v 9.786981 0.624363 0.007732
v 0.040871 0.651928 11.436549
v 0.017727 0.624861 11.491055
v 0.008037 0.626337 11.472565
v 0.059021 0.656692 11.417444
v 0.041170 0.650924 8.146228
v 0.008037 0.626336 8.153243
v 0.006436 0.616535 8.143656
v 0.059018 0.656690 8.153243
v 0.179338 0.656692 11.229761
v 0.186037 0.646690 8.143244
v 0.179337 0.656690 8.153243
v 0.197734 0.652196 11.211709
v 0.230321 0.626337 11.143567
v 0.243998 0.624860 11.156155
v 0.197373 0.650738 8.153243
v 0.228356 0.615347 8.143244
v 0.230320 0.626336 8.153243
v 0.007468 0.616304 6.071977
v 0.008036 0.626335 6.062405
v 0.041113 0.650807 6.069847
v 0.059018 0.656690 6.062405
v 0.040982 0.650737 0.076310
v 0.059018 0.656689 0.082685
v 0.179337 0.656689 0.270223
v 0.179337 0.656690 6.062405
v 0.193339 0.653180 0.286900
v 0.198122 0.650309 6.068819
v 0.230320 0.626334 0.356657
v 0.230320 0.626335 6.062405
v 0.228356 0.615346 6.072405
v 0.011507 0.287262 6.073776
v 0.000694 0.209525 6.078595
v 0.004619 0.216449 6.062405
v 0.007468 0.616304 6.071977
v 0.004619 0.373036 6.062405
v 0.004868 0.239274 0.004567
v 0.000694 0.209525 6.078595
v 0.000001 0.379924 6.062405
v 0.004572 0.365027 0.005038
v 0.000000 0.231827 0.009997
v 0.010000 0.231827 0.000013
v 0.000000 0.372665 0.009998
v 0.010000 0.372665 0.000013
v -0.000006 0.610111 6.062403
v 0.008036 0.626335 6.062405
v -0.000002 0.610294 0.009995
v 0.008183 0.609906 0.000185
v 0.017729 0.624855 0.008972
v 0.008036 0.626334 0.027467
v 0.040982 0.650737 0.076310
v 0.041113 0.650807 6.069847
v 0.000000 0.046309 0.009997
v 0.010000 0.046309 0.000018
v 0.017740 0.031831 0.008965
v 0.008036 0.030357 0.027430
v -0.000017 0.046699 11.489964
v 0.000001 0.179752 6.062406
v 0.009588 0.192593 6.082406
v 0.009589 0.192593 8.133243
v 0.000001 0.179752 8.153243
v 0.008692 0.204123 8.142937
v 0.007832 0.030541 7.715306
v 0.040982 0.005953 0.076194
v 0.041458 0.005691 11.421382
v 0.008037 0.030360 11.471815
v 0.017473 0.031961 11.490993
v 0.010001 0.046313 11.499997
v 0.010001 0.231830 11.499997
v 0.000001 0.231830 11.489998
v 0.004477 0.239578 11.495147
v 0.001499 0.225205 8.158468
v 0.012946 0.254651 8.149240
v 0.012850 0.326733 8.146442
v 0.006436 0.616535 8.143656
v 0.000320 0.363542 8.153930
v -0.000023 0.609816 8.153242
v 0.008037 0.626336 8.153243
v 0.041170 0.650924 8.146228
v 0.040871 0.651928 11.436549
v 0.008037 0.626337 11.472565
v -0.000002 0.610175 11.490009
v 0.017727 0.624861 11.491055
v 0.007222 0.610217 11.500001
v 0.000001 0.372669 11.489998
v 0.005199 0.365160 11.495342
v 0.010001 0.372668 11.499997
v 11.499990 0.610306 11.492821
v 11.490287 0.610138 11.500000
v 11.482274 0.624860 11.491054
v 11.491966 0.626339 11.472564
v 11.453209 0.653619 11.433969
v 11.503479 0.624466 1.716533
v 11.460492 0.650591 1.730823
v 11.440283 0.656357 1.737982
v 11.440981 0.656692 11.417442
v 11.320460 0.656692 11.229761
v 11.211194 0.657026 1.818523
v 11.191146 0.651979 1.825577
v 11.304078 0.653279 11.214268
v 11.268923 0.626343 11.143519
v 11.156590 0.626088 1.838575
v 11.255308 0.624861 11.156155
v 0.248356 0.610382 0.353068
v 0.238356 0.610382 0.363018
v 0.230320 0.626334 0.356657
v 0.244022 0.624862 0.344112
v 0.193339 0.653180 0.286900
v 0.008036 0.626334 0.027467
v 0.017729 0.624855 0.008972
v 0.054668 0.652215 0.063735
v 0.040982 0.650737 0.076310
v 0.059018 0.656689 0.082685
v 11.141575 0.610716 1.833275
v 11.148873 0.610685 1.850312
v 11.149486 0.321485 1.850072
v 11.142197 0.321679 1.833040
v 11.144321 0.306478 1.842351
v 9.640485 0.610752 0.400220
v 9.623245 0.610681 0.393160
v 9.627919 0.625544 0.382428
v 9.644859 0.625599 0.389442
v 9.658989 0.653060 0.332304
v 11.498176 0.030964 1.707954
v 11.505131 0.030963 1.724977
v 11.508650 0.046311 1.723777
v 11.501685 0.046651 1.706611
v 11.508879 0.231535 1.723742
v 11.501876 0.231395 1.706544
v 11.506655 0.238058 1.715927
v 11.506085 0.366254 1.713484
v 11.508798 0.372955 1.723773
v 11.501792 0.373094 1.706577
v 11.508407 0.609879 1.722902
v 11.501938 0.609947 1.707407
v 11.503479 0.624466 1.716533
v 0.246392 0.305267 8.153243
v 0.279554 0.280725 8.143072
v 0.279341 0.280865 11.071013
v 0.238599 0.319352 11.136161
v 0.238356 0.321218 8.153243
v 0.256083 0.306745 11.138270
v 0.248357 0.321220 11.147213
v 0.248357 0.610385 11.147212
v 0.228356 0.615347 8.143244
v 0.228356 0.306181 8.143243
v 0.238357 0.610385 11.137212
v 0.238356 0.610384 8.153243
v 0.230320 0.626336 8.153243
v 0.230321 0.626337 11.143567
v 0.243998 0.624860 11.156155
v 0.197373 0.650738 8.153243
v 0.197734 0.652196 11.211709
v 9.641106 0.321580 0.398814
v 9.640485 0.610752 0.400220
v 11.141575 0.610716 1.833275
v 11.142197 0.321679 1.833040
v 9.639140 0.307351 0.403403
v 0.007468 0.616304 6.071977
v 0.041113 0.650807 6.069847
v 0.198122 0.650309 6.068819
v 0.228356 0.615346 6.072405
v 0.011507 0.287262 6.073776
v 0.228356 0.306181 6.072405
v 0.000694 0.209525 6.078595
v 0.246392 0.305267 6.062406
v 0.238356 0.321218 6.062406
v 0.279488 0.280738 6.072892
v 0.009588 0.192593 6.082406
v 0.297352 0.275627 6.082406
v 11.499990 0.610306 11.492821
v 11.491966 0.626339 11.472564
v 11.503479 0.624466 1.716533
v 11.508407 0.609879 1.722902
v 11.499993 0.372668 11.489996
v 11.508798 0.372955 1.723773
v 11.495404 0.364741 11.495105
v 11.506085 0.366254 1.713484
v 0.007222 0.610217 11.500001
v 0.017727 0.624861 11.491055
v 11.482274 0.624860 11.491054
v 11.490287 0.610138 11.500000
v 0.010001 0.372668 11.499997
v 11.489994 0.372669 11.499996
v 11.499990 0.610306 11.492821
v 0.005199 0.365160 11.495342
v 11.499993 0.372668 11.489996
v 11.495404 0.364741 11.495105
v 11.156590 0.626088 1.838575
v 11.141575 0.610716 1.833275
v 9.640485 0.610752 0.400220
v 9.644859 0.625599 0.389442
v 11.191146 0.651979 1.825577
v 9.658989 0.653060 0.332304
v 11.211194 0.657026 1.818523
v 9.666582 0.657010 0.314293
v 9.763937 0.656370 0.084937
v 11.440283 0.656357 1.737982
v 11.460492 0.650591 1.730823
v 9.771014 0.651457 0.068005
v 9.803586 0.624468 0.014861
v 11.503479 0.624466 1.716533
v 0.228356 0.615347 8.143244
v 0.186037 0.646690 8.143244
v 0.041170 0.650924 8.146228
v 0.006436 0.616535 8.143656
v 0.228356 0.306181 8.143243
v 0.012850 0.326733 8.146442
v 0.008692 0.204123 8.142937
v 0.238356 0.321218 8.153243
v 0.246392 0.305267 8.153243
v 0.279554 0.280725 8.143072
v 0.009589 0.192593 8.133243
v 0.297332 0.275868 8.133243
v 0.243998 0.624860 11.156155
v 11.255308 0.624861 11.156155
v 11.304078 0.653279 11.214268
v 0.197734 0.652196 11.211709
v 0.179338 0.656692 11.229761
v 11.320460 0.656692 11.229761
v 0.059021 0.656692 11.417444
v 11.440981 0.656692 11.417442
v 0.040871 0.651928 11.436549
v 11.453209 0.653619 11.433969
v 11.482274 0.624860 11.491054
v 0.017727 0.624861 11.491055
v 0.279341 0.280862 0.429214
v 0.279488 0.280738 6.072892
v 0.246392 0.305267 6.062406
v 0.246392 0.305265 0.380447
v 0.238356 0.321217 0.363014
v 0.256139 0.306733 0.362058
v 0.238356 0.321218 6.062406
v 0.248356 0.321217 0.353084
v 0.228356 0.306181 6.072405
v 0.228356 0.615346 6.072405
v 0.238356 0.610382 0.363018
v 0.248356 0.610382 0.353068
v 0.238356 0.610384 6.062405
v 0.230320 0.626334 0.356657
v 0.230320 0.626335 6.062405
v 11.219889 0.280887 11.070980
v 11.121290 0.281186 1.859628
v 11.144321 0.306478 1.842351
v 11.252648 0.305247 11.119534
v 11.260847 0.321220 11.137212
v 11.243199 0.306745 11.138269
v 11.250925 0.321220 11.147212
v 11.149486 0.321485 1.850072
v 11.148873 0.610685 1.850312
v 11.260818 0.610385 11.137212
v 11.268923 0.626343 11.143519
v 11.156590 0.626088 1.838575
v 11.141575 0.610716 1.833275
v 0.017729 0.624855 0.008972
v 9.786981 0.624363 0.007732
v 9.771014 0.651457 0.068005
v 0.054668 0.652215 0.063735
v 0.059018 0.656689 0.082685
v 9.763937 0.656370 0.084937
v 9.666582 0.657010 0.314293
v 0.179337 0.656689 0.270223
v 0.193339 0.653180 0.286900
v 9.658989 0.653060 0.332304
v 9.627919 0.625544 0.382428
v 0.244022 0.624862 0.344112
v 0.248356 0.610382 0.353068
v 9.623245 0.610681 0.393160
v 9.807135 0.046752 0.007185
v 9.805008 0.032096 0.011907
v 11.498176 0.030964 1.707954
v 11.501685 0.046651 1.706611
v 11.501876 0.231395 1.706544
v 9.804590 0.232328 0.000946
v 9.799443 0.238231 0.003163
v 11.506655 0.238058 1.715927
v 0.248357 0.321220 11.147213
v 0.256083 0.306745 11.138270
v 11.243199 0.306745 11.138269
v 11.250925 0.321220 11.147212
v 11.260847 0.321220 11.137212
v 11.260818 0.610385 11.137212
v 11.250925 0.610385 11.147212
v 0.248357 0.610385 11.147212
v 11.268923 0.626343 11.143519
v 0.243998 0.624860 11.156155
v 11.255308 0.624861 11.156155
v 11.501938 0.609947 1.707407
v 11.503479 0.624466 1.716533
v 9.803586 0.624468 0.014861
v 9.806418 0.609951 0.008783
v 9.806067 0.372997 0.007470
v 11.501792 0.373094 1.706577
v 11.506085 0.366254 1.713484
v 9.797979 0.366357 0.002993
v 11.508650 0.046311 1.723777
v 11.505131 0.030963 1.724977
v 11.491922 0.030399 11.472088
v 11.499997 0.046312 11.489996
v 11.499993 0.231830 11.489996
v 11.508879 0.231535 1.723742
v 11.506655 0.238058 1.715927
v 11.494873 0.239553 11.495327
v 0.010000 0.372665 0.000013
v 0.004572 0.365027 0.005038
v 9.797979 0.366357 0.002993
v 9.789747 0.372936 0.000730
v 9.806067 0.372997 0.007470
v 0.008183 0.609906 0.000185
v 9.789368 0.609880 0.001688
v 9.806418 0.609951 0.008783
v 0.017729 0.624855 0.008972
v 9.803586 0.624468 0.014861
v 9.786981 0.624363 0.007732
v 9.623245 0.610681 0.393160
v 9.640485 0.610752 0.400220
v 9.641106 0.321580 0.398814
v 9.623896 0.321489 0.391756
v 9.639140 0.307351 0.403403
v 0.248356 0.610382 0.353068
v 9.622025 0.307070 0.396475
v 0.248356 0.321217 0.353084
v 0.256139 0.306733 0.362058
v 11.482344 0.031961 11.490993
v 11.489990 0.046312 11.499996
v 11.499997 0.046312 11.489996
v 11.491922 0.030399 11.472088
v 11.444340 0.004354 11.433867
v 11.458071 0.005915 11.421279
v 11.505131 0.030963 1.724977
v 0.054741 0.004353 11.433867
v 0.017473 0.031961 11.490993
v 0.008037 0.030360 11.471815
v 0.041458 0.005691 11.421382
v 11.470899 0.006178 1.737137
v 11.498176 0.030964 1.707954
v 0.059214 0.000002 11.414855
v 11.440006 0.000002 11.414864
v 0.059018 0.000000 0.082564
v 0.040982 0.005953 0.076194
v 11.446918 0.000000 1.735458
v 9.768266 -0.000000 0.062878
v 11.464452 0.006430 1.719671
v 9.805008 0.032096 0.011907
v 9.775938 -0.001309 0.061151
v 0.054664 0.004479 0.063616
v 0.008036 0.030357 0.027430
v 0.017740 0.031831 0.008965
v 9.788215 0.032167 0.004718
v 9.774894 0.005668 0.038049
v 11.489990 0.046312 11.499996
v 11.482344 0.031961 11.490993
v 0.017473 0.031961 11.490993
v 0.010001 0.046313 11.499997
v 0.010001 0.231830 11.499997
v 0.004477 0.239578 11.495147
v 11.494873 0.239553 11.495327
v 11.489994 0.231830 11.499996
v 11.499997 0.046312 11.489996
v 11.499993 0.231830 11.489996
v 9.804590 0.232328 0.000946
v 9.799443 0.238231 0.003163
v 0.004868 0.239274 0.004567
v 0.010000 0.231827 0.000013
v 0.010000 0.046309 0.000018
v 9.790080 0.046588 0.000010
v 9.807135 0.046752 0.007185
v 9.788215 0.032167 0.004718
v 0.017740 0.031831 0.008965
v 9.805008 0.032096 0.011907
v 0.009589 0.192593 8.133243
v 0.009588 0.192593 6.082406
v 0.297352 0.275627 6.082406
v 0.297332 0.275868 8.133243
v 0.279488 0.280738 6.072892
v 0.279341 0.280862 0.429214
v 0.297377 0.274910 0.435629
v 0.293036 0.279394 0.416664
v 0.246392 0.305265 0.380447
v 0.256139 0.306733 0.362058
v 9.622025 0.307070 0.396475
v 9.608420 0.280394 0.430288
v 9.612021 0.271902 0.452635
v 9.639140 0.307351 0.403403
v 11.144321 0.306478 1.842351
v 11.114005 0.281186 1.842584
v 9.602017 0.274910 0.454614
v 11.095366 0.274905 1.856299
v 11.121290 0.281186 1.859628
v 11.219889 0.280887 11.070980
v 11.201809 0.274913 11.064658
v 0.297377 0.274913 11.064658
v 0.279554 0.280725 8.143072
v 0.279341 0.280865 11.071013
v 11.206262 0.279388 11.083601
v 11.252648 0.305247 11.119534
v 11.243199 0.306745 11.138269
v 0.256083 0.306745 11.138270
v 0.293019 0.279388 11.083601
v 0.238599 0.319352 11.136161
v 0.033243 0.264245 0.030830
v 0.021853 0.264068 0.044961
v 0.004868 0.239274 0.004567
v 9.788160 0.271945 0.034727
v 9.789249 0.263952 0.031460
v 11.475987 0.263576 1.723497
v 11.475987 0.263576 1.723497
v 11.471906 0.270998 1.726565
v 9.788160 0.271945 0.034727
v 11.506085 0.366254 1.713484
v 9.797979 0.366357 0.002993
v 9.786571 0.340993 0.030556
v 11.476467 0.341171 1.723760
v 11.495404 0.364741 11.495105
v 11.506085 0.366254 1.713484
v 11.476467 0.341171 1.723760
v 11.484970 0.339951 11.471045
v 9.797979 0.366357 0.002993
v 0.004572 0.365027 0.005038
v 0.025019 0.339014 0.030598
v 9.786571 0.340993 0.030556
v 11.506655 0.238058 1.715927
v 11.475987 0.263576 1.723497
v 9.789249 0.263952 0.031460
v 9.799443 0.238231 0.003163
v 0.000320 0.363542 8.153930
v 0.005199 0.365160 11.495342
v 0.026503 0.338798 11.467055
v 0.012850 0.326733 8.146442
v 0.029064 0.333323 11.463550
v 0.014981 0.264205 8.205554
v 0.030235 0.271253 11.462739
v 0.012946 0.254651 8.149240
v 0.026954 0.265182 11.467129
v 0.004477 0.239578 11.495147
v 0.001499 0.225205 8.158468
v 0.026503 0.338798 11.467055
v 0.005199 0.365160 11.495342
v 11.495404 0.364741 11.495105
v 11.484970 0.339951 11.471045
v 0.029064 0.333323 11.463550
v 11.468015 0.332421 11.467572
v 11.480081 0.332583 11.454459
v 0.030235 0.271253 11.462739
v 11.468015 0.272192 11.467572
v 11.480078 0.272028 11.454458
v 0.026954 0.265182 11.467129
v 11.484218 0.265120 11.469448
v 11.494873 0.239553 11.495327
v 0.004477 0.239578 11.495147
v 9.791305 0.334899 0.035553
v 9.788160 0.271945 0.034727
v 11.471906 0.270998 1.726565
v 11.471766 0.334386 1.725045
v 9.786571 0.340993 0.030556
v 11.476467 0.341171 1.723760
v 11.480081 0.332583 11.454459
v 11.484970 0.339951 11.471045
v 11.476467 0.341171 1.723760
v 11.471766 0.334386 1.725045
v 11.480078 0.272028 11.454458
v 11.471906 0.270998 1.726565
v 11.484218 0.265120 11.469448
v 11.475987 0.263576 1.723497
v 11.506655 0.238058 1.715927
v 11.494873 0.239553 11.495327
v 9.791305 0.334899 0.035553
v 9.786571 0.340993 0.030556
v 0.025019 0.339014 0.030598
v 0.026195 0.334553 0.035998
v 9.788160 0.271945 0.034727
v 0.036385 0.272377 0.036223
v 9.789249 0.263952 0.031460
v 0.033243 0.264245 0.030830
v 0.004868 0.239274 0.004567
v 9.799443 0.238231 0.003163
v 0.025019 0.339014 0.030598
v 0.004572 0.365027 0.005038
v 0.025549 0.336489 6.034901
v 0.011507 0.287262 6.073776
v 0.026195 0.334553 0.035998
v 0.027831 0.255941 6.031062
v 0.004868 0.239274 0.004567
v 0.021853 0.264068 0.044961
v 0.028619 0.327971 6.025312
v 0.025786 0.272046 0.048193
v 0.036385 0.272377 0.036223
v 0.033243 0.264245 0.030830
v 0.030560 0.264276 6.022437
vt 10.343750 10.164062
vt 10.343750 10.164062
vt 11.382812 10.156250
vt 10.351562 10.140625
vt 10.367188 10.148438
vt 10.343750 10.164062
vt 13.234375 6.574219
vt 13.210938 6.601562
vt 13.218750 6.566406
vt 6.210938 7.152344
vt 6.183594 7.148438
vt 6.187500 7.140625
vt 6.222656 7.160156
vt 7.855469 7.144531
vt 7.855469 7.121094
vt 7.863281 7.117188
vt 7.851562 7.156250
vt 6.316406 7.222656
vt 7.859375 7.214844
vt 7.851562 7.214844
vt 6.324219 7.230469
vt 6.359375 7.250000
vt 6.355469 7.257812
vt 7.855469 7.222656
vt 7.871094 7.238281
vt 7.863281 7.238281
vt 8.906250 7.121094
vt 8.914062 7.121094
vt 8.921875 7.144531
vt 8.921875 7.152344
vt 11.914062 7.148438
vt 11.914062 7.160156
vt 11.820312 7.222656
vt 8.921875 7.214844
vt 11.812500 7.222656
vt 8.921875 7.222656
vt 11.781250 7.246094
vt 8.921875 7.242188
vt 8.914062 7.242188
vt 9.289062 13.171875
vt 9.289062 13.210938
vt 9.281250 13.210938
vt 9.289062 13.007812
vt 9.281250 13.125000
vt 6.253906 13.195312
vt 9.289062 13.210938
vt 9.281250 13.125000
vt 6.250000 13.132812
vt 6.261719 13.203125
vt 6.250000 13.203125
vt 6.253906 13.125000
vt 6.246094 13.125000
vt 9.281250 13.007812
vt 9.281250 13.000000
vt 6.253906 13.007812
vt 6.246094 13.007812
vt 6.250000 13.000000
vt 6.261719 13.000000
vt 6.285156 12.976562
vt 9.281250 12.976562
vt 6.261719 13.289062
vt 6.253906 13.289062
vt 6.257812 13.304688
vt 6.269531 13.296875
vt 12.015625 13.289062
vt 9.289062 13.226562
vt 9.304688 13.218750
vt 10.328125 13.218750
vt 10.343750 13.226562
vt 10.343750 13.210938
vt 10.117188 13.296875
vt 6.296875 13.320312
vt 11.976562 13.320312
vt 12.007812 13.296875
vt 12.015625 13.304688
vt 12.023438 13.289062
vt 12.023438 13.203125
vt 12.015625 13.203125
vt 12.023438 13.195312
vt 10.351562 13.203125
vt 10.343750 13.187500
vt 10.343750 13.148438
vt 10.343750 13.007812
vt 10.351562 13.132812
vt 10.351562 13.007812
vt 10.351562 13.000000
vt 10.351562 12.976562
vt 11.992188 12.976562
vt 12.015625 13.000000
vt 12.023438 13.007812
vt 12.023438 13.000000
vt 12.031250 13.007812
vt 12.023438 13.125000
vt 12.023438 13.132812
vt 12.031250 13.125000
vt 6.187500 12.898438
vt 6.183594 12.890625
vt 6.187500 12.882812
vt 6.203125 12.890625
vt 6.222656 12.867188
vt 11.085938 12.898438
vt 11.078125 12.867188
vt 11.070312 12.851562
vt 6.230469 12.851562
vt 6.324219 12.789062
vt 11.031250 12.742188
vt 11.031250 12.734375
vt 6.335938 12.789062
vt 6.371094 12.765625
vt 11.023438 12.718750
vt 6.359375 12.757812
vt 8.453125 6.742188
vt 8.445312 6.746094
vt 8.437500 6.738281
vt 8.445312 6.734375
vt 8.414062 6.707031
vt 8.328125 6.570312
vt 8.335938 6.562500
vt 8.351562 6.597656
vt 8.335938 6.601562
vt 8.351562 6.605469
vt 10.351562 10.304688
vt 10.351562 10.312500
vt 10.351562 10.164062
vt 10.343750 10.164062
vt 10.351562 10.164062
vt 13.148438 6.765625
vt 13.132812 6.761719
vt 13.140625 6.753906
vt 13.156250 6.757812
vt 13.156250 6.730469
vt 6.093750 0.574707
vt 6.082031 0.574707
vt 6.085938 0.574707
vt 6.093750 0.574951
vt 6.082031 0.667969
vt 6.089844 0.668213
vt 6.085938 0.668213
vt 6.089844 0.740479
vt 6.085938 0.740479
vt 6.093750 0.740723
vt 6.089844 0.860352
vt 6.089844 0.860474
vt 6.089844 0.860718
vt 5.179688 4.087891
vt 5.175781 4.068359
vt 6.640625 4.068359
vt 6.671875 4.095703
vt 5.179688 4.095703
vt 6.675781 4.085938
vt 6.679688 4.095703
vt 6.679688 4.240234
vt 5.171875 4.244141
vt 5.171875 4.089844
vt 6.675781 4.242188
vt 5.179688 4.240234
vt 5.179688 4.250000
vt 6.675781 4.250000
vt 6.683594 4.248047
vt 5.179688 4.269531
vt 6.710938 4.271484
vt 11.382812 10.164062
vt 11.382812 10.304688
vt 10.351562 10.304688
vt 10.343750 10.164062
vt 11.382812 10.156250
vt 5.167969 3.716797
vt 5.183594 3.699219
vt 5.261719 3.699219
vt 5.277344 3.716797
vt 5.167969 3.880859
vt 5.277344 3.871094
vt 5.164062 3.919922
vt 5.289062 3.871094
vt 5.285156 3.863281
vt 5.304688 3.884766
vt 5.167969 3.931641
vt 5.312500 3.888672
vt 10.984375 0.859619
vt 10.968750 0.868652
vt 6.078125 0.860474
vt 6.089844 0.860229
vt 10.976562 0.740234
vt 6.085938 0.740479
vt 10.984375 0.735596
vt 6.078125 0.740234
vt -0.189575 6.453125
vt -0.184937 6.441406
vt 5.554688 6.441406
vt 5.558594 6.453125
vt -0.187012 6.570312
vt 5.558594 6.570312
vt 5.566406 6.453125
vt -0.189331 6.574219
vt 5.566406 6.570312
vt 5.562500 6.574219
vt 11.382812 11.601562
vt 11.375000 11.609375
vt 10.335938 11.625000
vt 10.328125 11.617188
vt 11.390625 11.578125
vt 10.312500 11.585938
vt 11.390625 11.570312
vt 10.312500 11.578125
vt 10.265625 11.460938
vt 11.445312 11.460938
vt 11.453125 11.453125
vt 10.265625 11.453125
vt 10.257812 11.421875
vt 11.460938 11.429688
vt 5.277344 3.513672
vt 5.257812 3.529297
vt 5.183594 3.531250
vt 5.167969 3.513672
vt 5.277344 3.357422
vt 5.167969 3.369141
vt 5.167969 3.306641
vt 5.285156 3.367188
vt 5.289062 3.359375
vt 5.304688 3.345703
vt 5.167969 3.298828
vt 5.312500 3.341797
vt 0.019043 7.218750
vt 5.519531 7.218750
vt 5.546875 7.246094
vt -0.005054 7.250000
vt -0.016479 7.257812
vt 5.554688 7.250000
vt -0.076355 7.351562
vt 5.617188 7.347656
vt -0.080383 7.363281
vt 5.625000 7.359375
vt 5.644531 7.390625
vt -0.088074 7.394531
vt 8.007812 4.603516
vt 5.183594 4.603516
vt 5.187500 4.582031
vt 8.031250 4.582031
vt 8.039062 4.572266
vt 8.039062 4.582031
vt 5.183594 4.574219
vt 8.046875 4.574219
vt 5.175781 4.582031
vt 5.175781 4.425781
vt 8.039062 4.427734
vt 8.046875 4.427734
vt 5.183594 4.429688
vt 8.039062 4.419922
vt 5.183594 4.419922
vt 5.734375 10.132812
vt 10.351562 10.140625
vt 10.359375 10.164062
vt 5.710938 10.156250
vt 5.699219 10.164062
vt 5.703125 10.156250
vt 5.695312 10.164062
vt 10.351562 10.164062
vt 10.351562 10.312500
vt 5.699219 10.312500
vt 5.699219 10.320312
vt 10.367188 10.320312
vt 10.351562 10.304688
vt 8.335938 6.562500
vt 13.218750 6.566406
vt 13.210938 6.601562
vt 8.351562 6.597656
vt 8.351562 6.605469
vt 13.203125 6.609375
vt 13.156250 6.722656
vt 8.406250 6.699219
vt 8.421875 6.703125
vt 13.156250 6.730469
vt 13.140625 6.753906
vt 8.445312 6.734375
vt 8.453125 6.742188
vt 13.132812 6.761719
vt 4.894531 0.575195
vt 4.894531 0.567627
vt 6.093750 0.574707
vt 6.093750 0.574951
vt 6.089844 0.668213
vt 4.886719 0.668457
vt 4.886719 0.671875
vt 6.093750 0.669189
vt 11.085938 9.976562
vt 11.078125 9.984375
vt 5.582031 9.984375
vt 5.578125 9.976562
vt 5.570312 9.976562
vt 5.570312 9.835938
vt 5.578125 9.828125
vt 11.085938 9.828125
vt 5.566406 9.828125
vt 11.085938 9.820312
vt 5.574219 9.820312
vt 6.093750 0.860352
vt 6.101562 0.860596
vt 4.898438 0.867554
vt 4.894531 0.859497
vt 4.894531 0.740234
vt 6.093750 0.740723
vt 6.101562 0.740723
vt 4.890625 0.736816
vt 6.085938 0.574707
vt 6.082031 0.574707
vt 10.968750 0.566162
vt 10.976562 0.574951
vt 10.976562 0.667725
vt 6.082031 0.667969
vt 6.078125 0.667725
vt 10.976562 0.672119
vt 10.078125 1.161377
vt 10.085938 1.165894
vt 5.183594 1.164795
vt 5.187500 1.161255
vt 5.179688 1.161377
vt 10.078125 1.042694
vt 5.187500 1.042633
vt 5.179688 1.042358
vt 10.078125 1.034149
vt 5.179688 1.034210
vt 5.187500 1.034698
vt 4.632812 7.570312
vt 4.640625 7.570312
vt 4.640625 7.714844
vt 4.632812 7.714844
vt 4.640625 7.722656
vt -0.059113 7.570312
vt 4.632812 7.726562
vt -0.058990 7.710938
vt -0.054993 7.718750
vt 5.082031 0.613770
vt 5.089844 0.606689
vt 5.093750 0.611816
vt 5.085938 0.626221
vt 5.058594 0.645508
vt 5.066406 0.654297
vt 5.093750 5.500000
vt -0.631348 0.642822
vt -0.647949 0.608887
vt -0.655273 0.617676
vt -0.643555 0.656494
vt 5.074219 5.492188
vt 5.089844 5.515625
vt -0.631836 0.658691
vt 5.054688 0.657959
vt -0.633789 6.335938
vt -0.644531 6.339844
vt 5.054688 5.496094
vt 4.214844 6.339844
vt 5.066406 5.507812
vt 4.242188 6.371094
vt 4.222656 6.343750
vt -0.635254 6.347656
vt -0.660156 6.371094
vt -0.653320 6.378906
vt 4.230469 6.378906
vt 4.222656 6.355469
vt 5.558594 6.738281
vt 5.550781 6.746094
vt -0.185547 6.746094
vt -0.188965 6.738281
vt -0.188110 6.644531
vt -0.190308 6.640625
vt 5.562500 6.640625
vt 5.558594 6.644531
vt 5.562500 6.738281
vt 5.566406 6.644531
vt 5.179688 1.234741
vt 5.179688 1.232788
vt 10.085938 1.231567
vt 10.078125 1.235107
vt 10.078125 1.327148
vt 5.187500 1.326904
vt 5.175781 1.326904
vt 5.187500 1.334229
vt 10.078125 1.335449
vt 5.175781 1.334717
vt 5.433594 9.335938
vt 5.429688 10.359375
vt 5.281250 10.367188
vt 5.285156 9.328125
vt 5.292969 10.375000
vt 5.289062 13.195312
vt 5.281250 13.195312
vt 5.281250 13.203125
vt 5.304688 13.226562
vt 5.300781 13.234375
vt 0.619629 13.218750
vt 0.627441 13.195312
vt 0.625000 13.179688
vt 0.606445 13.210938
vt -0.146362 12.492188
vt -0.126709 12.484375
vt 0.632324 13.179688
vt -0.112915 12.476562
vt -0.130859 12.468750
vt -0.176147 7.863281
vt -0.164795 7.871094
vt 5.281250 7.859375
vt 5.292969 9.320312
vt 5.292969 7.855469
vt -0.167969 7.855469
vt -0.192261 7.832031
vt -0.186157 7.824219
vt 5.300781 7.816406
vt 5.281250 7.847656
vt 5.312500 7.812500
vt 8.023438 7.308594
vt 8.031250 7.300781
vt 8.039062 7.324219
vt 4.914062 0.689697
vt 4.910156 0.685303
vt 6.101562 0.689209
vt 6.101562 0.688965
vt 6.105469 0.688721
vt 4.914062 0.690186
vt 6.363281 6.003906
vt 5.503906 6.859375
vt 5.496094 6.843750
vt 6.347656 5.996094
vt 6.367188 1.113220
vt 6.367188 5.996094
vt 6.347656 5.992188
vt 6.351562 1.123474
vt 5.496094 6.867188
vt 0.605957 6.867188
vt 0.615234 6.847656
vt 5.488281 6.847656
vt 2.064453 6.894531
vt 2.072266 6.875000
vt 3.267578 6.878906
vt 3.275391 6.898438
vt 10.351562 13.132812
vt 12.023438 13.132812
vt 12.007812 13.148438
vt 10.351562 13.148438
vt 12.007812 13.148438
vt 10.382812 13.179688
vt 12.007812 13.179688
vt 10.351562 13.187500
vt 12.007812 13.179688
vt 12.023438 13.195312
vt 10.351562 13.203125
vt -0.178589 6.589844
vt -0.189331 6.574219
vt 5.562500 6.574219
vt 5.554688 6.589844
vt -0.177002 6.593750
vt 5.546875 6.593750
vt 5.558594 6.593750
vt -0.176514 6.621094
vt 5.546875 6.621094
vt 5.558594 6.621094
vt -0.178589 6.625000
vt 5.554688 6.625000
vt 5.562500 6.640625
vt -0.190308 6.640625
vt 4.925781 0.721680
vt 4.917969 0.690186
vt 6.105469 0.688232
vt 6.113281 0.719971
vt 4.925781 0.725098
vt 6.128906 0.724121
vt 10.953125 0.719971
vt 10.960938 0.724365
vt 6.078125 0.723145
vt 6.085938 0.718994
vt 10.960938 0.689697
vt 6.085938 0.687256
vt 10.960938 0.685059
vt 6.082031 0.687744
vt 6.078125 0.667480
vt 10.976562 0.672119
vt 5.183594 1.180176
vt 5.187500 1.176636
vt 10.070312 1.177490
vt 10.070312 1.180420
vt 5.187500 1.211182
vt 10.070312 1.210815
vt 5.187500 1.214844
vt 10.070312 1.214600
vt 10.085938 1.231812
vt 5.179688 1.232788
vt 6.265625 13.148438
vt 6.253906 13.132812
vt 9.265625 13.148438
vt 9.289062 13.171875
vt 6.265625 13.148438
vt 9.265625 13.187500
vt 6.253906 13.195312
vt 6.273438 13.179688
vt 9.257812 13.148438
vt 6.273438 13.179688
vt 6.265625 13.179688
vt 6.261719 13.179688
vt 9.257812 13.179688
vt1 0.411865 0.637939
vt1 0.411621 0.637939
vt1 0.485352 0.637207
vt1 0.412598 0.636719
vt1 0.413086 0.636963
vt1 0.411621 0.637939
vt1 0.337646 0.813354
vt1 0.338135 0.815796
vt1 0.336670 0.813599
vt1 0.200195 0.897461
vt1 0.202271 0.897583
vt1 0.201904 0.898132
vt1 0.199341 0.896729
vt1 0.083679 0.898010
vt1 0.083679 0.899597
vt1 0.083252 0.899780
vt1 0.083862 0.897278
vt1 0.192749 0.892517
vt1 0.083496 0.893005
vt1 0.083923 0.893005
vt1 0.192139 0.891968
vt1 0.189575 0.890564
vt1 0.189941 0.890015
vt1 0.083862 0.892456
vt1 0.082764 0.891418
vt1 0.083252 0.891357
vt1 0.082825 0.787476
vt1 0.083252 0.787598
vt1 0.083618 0.789185
vt1 0.083984 0.789917
vt1 0.295654 0.789551
vt1 0.295410 0.790405
vt1 0.288818 0.794678
vt1 0.084045 0.794189
vt1 0.288330 0.794922
vt1 0.083801 0.794678
vt1 0.285889 0.796387
vt1 0.083984 0.796021
vt1 0.083374 0.796021
vt1 0.159058 0.265625
vt1 0.156250 0.266113
vt1 0.156372 0.265625
vt1 0.170776 0.265625
vt1 0.162109 0.265137
vt1 0.157104 0.051270
vt1 0.156128 0.266602
vt1 0.162354 0.265137
vt1 0.161865 0.050781
vt1 0.156738 0.051270
vt1 0.156738 0.050781
vt1 0.162231 0.050781
vt1 0.162109 0.050293
vt1 0.170532 0.265137
vt1 0.171143 0.265137
vt1 0.170532 0.050781
vt1 0.170532 0.050293
vt1 0.171265 0.050781
vt1 0.171143 0.051270
vt1 0.172607 0.053223
vt1 0.172607 0.265625
vt1 0.150269 0.051758
vt1 0.150146 0.051270
vt1 0.149536 0.051270
vt1 0.149658 0.052246
vt1 0.150391 0.458496
vt1 0.155151 0.266113
vt1 0.155640 0.266602
vt1 0.155762 0.339355
vt1 0.155151 0.340332
vt1 0.156128 0.339844
vt1 0.149780 0.324707
vt1 0.148193 0.053711
vt1 0.148193 0.456055
vt1 0.149658 0.458008
vt1 0.149536 0.458496
vt1 0.150146 0.458984
vt1 0.156738 0.458984
vt1 0.156738 0.458496
vt1 0.156982 0.458984
vt1 0.156738 0.340820
vt1 0.157837 0.340332
vt1 0.160400 0.340332
vt1 0.170654 0.340820
vt1 0.161743 0.340820
vt1 0.170410 0.340820
vt1 0.171143 0.340820
vt1 0.172607 0.340820
vt1 0.172607 0.457520
vt1 0.171143 0.458496
vt1 0.170532 0.459473
vt1 0.171265 0.459473
vt1 0.170532 0.459473
vt1 0.162231 0.459473
vt1 0.161987 0.459473
vt1 0.162109 0.459961
vt1 0.697266 0.050293
vt1 0.697266 0.050293
vt1 0.698242 0.050781
vt1 0.697754 0.051758
vt1 0.699219 0.053223
vt1 0.697266 0.396973
vt1 0.699219 0.396484
vt1 0.700195 0.395996
vt1 0.700195 0.053711
vt1 0.704590 0.060547
vt1 0.708008 0.393555
vt1 0.708496 0.393066
vt1 0.705078 0.061035
vt1 0.706543 0.063477
vt1 0.709961 0.392578
vt1 0.707031 0.062988
vt1 0.285889 0.797485
vt1 0.285645 0.796997
vt1 0.285889 0.796387
vt1 0.286377 0.797241
vt1 0.288330 0.795044
vt1 0.297852 0.788818
vt1 0.298340 0.789429
vt1 0.296143 0.790527
vt1 0.295654 0.789551
vt1 0.295410 0.790405
vt1 0.412354 0.648193
vt1 0.412354 0.648438
vt1 0.412354 0.637939
vt1 0.411865 0.637939
vt1 0.412354 0.637695
vt1 0.343262 0.827026
vt1 0.342529 0.827515
vt1 0.342285 0.826904
vt1 0.343262 0.826416
vt1 0.342041 0.824707
vt1 0.109802 0.135742
vt1 0.109802 0.134766
vt1 0.109802 0.134766
vt1 0.109802 0.135254
vt1 0.103210 0.134766
vt1 0.103149 0.135254
vt1 0.103210 0.134766
vt1 0.059052 0.134766
vt1 0.059052 0.134766
vt1 0.059052 0.135254
vt1 0.050568 0.134766
vt1 0.050568 0.135254
vt1 0.050537 0.134766
vt1 0.466797 0.906128
vt1 0.466553 0.904663
vt1 0.570312 0.904663
vt1 0.572266 0.906616
vt1 0.466797 0.906677
vt1 0.572754 0.906006
vt1 0.572754 0.906616
vt1 0.572754 0.916870
vt1 0.466309 0.917114
vt1 0.466309 0.906128
vt1 0.572266 0.916931
vt1 0.466797 0.916931
vt1 0.466797 0.917542
vt1 0.572754 0.917542
vt1 0.573242 0.917419
vt1 0.466797 0.919006
vt1 0.575195 0.919006
vt1 0.485596 0.637939
vt1 0.485596 0.648193
vt1 0.412354 0.648193
vt1 0.411865 0.637939
vt1 0.485352 0.637207
vt1 0.404297 0.917480
vt1 0.403076 0.918701
vt1 0.397705 0.918701
vt1 0.396484 0.917419
vt1 0.404297 0.905762
vt1 0.396484 0.906433
vt1 0.404541 0.903015
vt1 0.395752 0.906494
vt1 0.396240 0.907043
vt1 0.394775 0.905518
vt1 0.404297 0.902283
vt1 0.394043 0.905212
vt1 0.050629 0.481445
vt1 0.049988 0.480469
vt1 0.050568 0.134277
vt1 0.050568 0.134766
vt1 0.059082 0.480957
vt1 0.059052 0.134766
vt1 0.059387 0.481445
vt1 0.059082 0.134277
vt1 0.082703 0.521973
vt1 0.083008 0.521240
vt1 0.489258 0.521240
vt1 0.489502 0.521973
vt1 0.082886 0.530273
vt1 0.489746 0.530273
vt1 0.489990 0.521973
vt1 0.082703 0.530518
vt1 0.490234 0.530273
vt1 0.489746 0.530518
vt1 0.416992 0.823975
vt1 0.416504 0.824341
vt1 0.343262 0.827026
vt1 0.343262 0.826416
vt1 0.417969 0.822998
vt1 0.342041 0.824707
vt1 0.418213 0.822632
vt1 0.341797 0.824463
vt1 0.338379 0.816528
vt1 0.421631 0.814819
vt1 0.422119 0.813965
vt1 0.338135 0.815796
vt1 0.337646 0.813354
vt1 0.422852 0.812134
vt1 0.322754 0.903381
vt1 0.324219 0.902283
vt1 0.329346 0.902161
vt1 0.330566 0.903381
vt1 0.322754 0.914368
vt1 0.330322 0.913635
vt1 0.330566 0.918030
vt1 0.322266 0.913757
vt1 0.322021 0.914307
vt1 0.321045 0.915283
vt1 0.330566 0.918518
vt1 0.320312 0.915588
vt1 0.090332 0.583008
vt1 0.479980 0.582764
vt1 0.481934 0.584961
vt1 0.088623 0.584961
vt1 0.087830 0.585693
vt1 0.482666 0.585205
vt1 0.083557 0.592285
vt1 0.486816 0.591797
vt1 0.083313 0.593018
vt1 0.487549 0.592773
vt1 0.488770 0.594971
vt1 0.082764 0.595215
vt1 0.085510 0.836792
vt1 0.285400 0.836792
vt1 0.284912 0.838257
vt1 0.083740 0.838135
vt1 0.083252 0.838867
vt1 0.082947 0.838135
vt1 0.285156 0.838867
vt1 0.082764 0.838745
vt1 0.285645 0.838257
vt1 0.285645 0.849243
vt1 0.083313 0.849121
vt1 0.082764 0.849121
vt1 0.285156 0.848999
vt1 0.083130 0.849731
vt1 0.285156 0.849609
vt1 0.085510 0.635986
vt1 0.412598 0.636719
vt1 0.412842 0.637695
vt1 0.083740 0.637451
vt1 0.083008 0.638184
vt1 0.083130 0.637207
vt1 0.082764 0.637939
vt1 0.412354 0.637939
vt1 0.412354 0.648438
vt1 0.083069 0.648193
vt1 0.082886 0.648926
vt1 0.413086 0.648926
vt1 0.412354 0.648193
vt1 0.889648 0.395996
vt1 0.889648 0.050293
vt1 0.892090 0.050781
vt1 0.892090 0.395020
vt1 0.892578 0.395020
vt1 0.893066 0.051270
vt1 0.900879 0.054688
vt1 0.899414 0.391113
vt1 0.899902 0.390137
vt1 0.901367 0.054688
vt1 0.903320 0.056152
vt1 0.901855 0.388184
vt1 0.902344 0.388184
vt1 0.903809 0.056152
vt1 0.109741 0.050293
vt1 0.110291 0.050781
vt1 0.109802 0.135742
vt1 0.109802 0.135254
vt1 0.103149 0.135254
vt1 0.103149 0.050293
vt1 0.102905 0.049805
vt1 0.103088 0.135254
vt1 0.082825 0.689941
vt1 0.083069 0.689209
vt1 0.472168 0.689209
vt1 0.472656 0.689941
vt1 0.473145 0.689941
vt1 0.473145 0.700195
vt1 0.472656 0.700195
vt1 0.082886 0.700195
vt1 0.473389 0.700684
vt1 0.082764 0.700684
vt1 0.472900 0.700928
vt1 0.050568 0.135254
vt1 0.050568 0.135742
vt1 0.050049 0.050293
vt1 0.050629 0.050293
vt1 0.059082 0.050293
vt1 0.059052 0.135254
vt1 0.059052 0.135742
vt1 0.059326 0.049805
vt1 0.109802 0.134766
vt1 0.109802 0.134766
vt1 0.110413 0.480469
vt1 0.109802 0.480957
vt1 0.103210 0.480957
vt1 0.103210 0.134766
vt1 0.103210 0.134277
vt1 0.102905 0.480957
vt1 0.799805 0.397461
vt1 0.799805 0.397461
vt1 0.799805 0.050781
vt1 0.799805 0.050781
vt1 0.799805 0.050293
vt1 0.808105 0.397461
vt1 0.808105 0.050781
vt1 0.808105 0.050293
vt1 0.809082 0.396973
vt1 0.809082 0.050293
vt1 0.809082 0.050781
vt1 0.414795 0.738525
vt1 0.415527 0.738525
vt1 0.415527 0.748779
vt1 0.414795 0.748779
vt1 0.415527 0.749268
vt1 0.082764 0.738525
vt1 0.414795 0.749512
vt1 0.082764 0.748535
vt1 0.083069 0.749023
vt1 0.616211 0.050781
vt1 0.616699 0.050293
vt1 0.617188 0.050781
vt1 0.616699 0.051758
vt1 0.614258 0.053223
vt1 0.615234 0.053711
vt1 0.617188 0.396973
vt1 0.211792 0.052734
vt1 0.210571 0.050293
vt1 0.210083 0.050781
vt1 0.210938 0.053711
vt1 0.615723 0.396484
vt1 0.616699 0.397949
vt1 0.211792 0.053711
vt1 0.614258 0.053711
vt1 0.211670 0.455566
vt1 0.210815 0.456055
vt1 0.614258 0.396484
vt1 0.554688 0.456055
vt1 0.615234 0.397461
vt1 0.556641 0.458496
vt1 0.555176 0.456543
vt1 0.211548 0.456543
vt1 0.209717 0.458496
vt1 0.210205 0.458984
vt1 0.555664 0.458984
vt1 0.555176 0.457520
vt1 0.489502 0.541992
vt1 0.489258 0.542725
vt1 0.083008 0.542725
vt1 0.082764 0.541992
vt1 0.082825 0.535645
vt1 0.082642 0.535400
vt1 0.489746 0.535400
vt1 0.489502 0.535645
vt1 0.489990 0.541992
vt1 0.489990 0.535400
vt1 0.757324 0.050293
vt1 0.757812 0.050781
vt1 0.757812 0.397949
vt1 0.757324 0.397461
vt1 0.750977 0.397461
vt1 0.750977 0.050781
vt1 0.750977 0.050293
vt1 0.750488 0.050781
vt1 0.750488 0.397461
vt1 0.750488 0.050293
vt1 0.841797 0.858154
vt1 0.769531 0.857910
vt1 0.769043 0.847290
vt1 0.842285 0.847534
vt1 0.768555 0.848145
vt1 0.568848 0.848022
vt1 0.569336 0.847290
vt1 0.568359 0.847412
vt1 0.566406 0.849121
vt1 0.565918 0.848633
vt1 0.567383 0.517334
vt1 0.568848 0.517822
vt1 0.569824 0.517822
vt1 0.567383 0.516357
vt1 0.618652 0.463379
vt1 0.619141 0.464844
vt1 0.570312 0.518311
vt1 0.620117 0.465820
vt1 0.620117 0.464355
vt1 0.946289 0.460938
vt1 0.945801 0.461914
vt1 0.946777 0.847412
vt1 0.843262 0.848267
vt1 0.946777 0.848022
vt1 0.946777 0.461914
vt1 0.948730 0.459961
vt1 0.949219 0.460449
vt1 0.949707 0.848633
vt1 0.947266 0.847412
vt1 0.949707 0.849487
vt1 0.158325 0.051758
vt1 0.158203 0.052246
vt1 0.156982 0.051270
vt1 0.101685 0.052246
vt1 0.101990 0.051758
vt1 0.101685 0.135742
vt1 0.101746 0.135742
vt1 0.101746 0.136230
vt1 0.101624 0.052246
vt1 0.944336 0.049805
vt1 0.945801 0.135742
vt1 0.944336 0.135254
vt1 0.942871 0.050293
vt1 0.848633 0.396973
vt1 0.848633 0.050781
vt1 0.850098 0.051270
vt1 0.849609 0.395996
vt1 0.658203 0.051270
vt1 0.658203 0.397461
vt1 0.656738 0.396973
vt1 0.656738 0.051758
vt1 0.945801 0.287109
vt1 0.944336 0.286621
vt1 0.942871 0.202148
vt1 0.944336 0.201660
vt1 0.161743 0.340820
vt1 0.161987 0.459473
vt1 0.160889 0.458496
vt1 0.160278 0.340820
vt1 0.160645 0.458008
vt1 0.158081 0.342773
vt1 0.158447 0.458008
vt1 0.157715 0.340332
vt1 0.158325 0.458008
vt1 0.156982 0.458984
vt1 0.156738 0.340820
vt1 0.083496 0.531738
vt1 0.082703 0.530518
vt1 0.489746 0.530518
vt1 0.489502 0.531494
vt1 0.083618 0.531982
vt1 0.489014 0.531982
vt1 0.489502 0.531738
vt1 0.083618 0.533936
vt1 0.489014 0.533936
vt1 0.489502 0.533936
vt1 0.083496 0.534180
vt1 0.489502 0.534180
vt1 0.489746 0.535400
vt1 0.082642 0.535400
vt1 0.099365 0.052734
vt1 0.101624 0.052246
vt1 0.101746 0.136230
vt1 0.099487 0.136719
vt1 0.099182 0.052734
vt1 0.099243 0.137695
vt1 0.099487 0.479980
vt1 0.099182 0.480469
vt1 0.099304 0.134277
vt1 0.099609 0.134766
vt1 0.101685 0.479980
vt1 0.101807 0.134766
vt1 0.101990 0.479980
vt1 0.101807 0.134766
vt1 0.103210 0.134277
vt1 0.102905 0.480957
vt1 0.761230 0.050781
vt1 0.761719 0.051270
vt1 0.761719 0.396973
vt1 0.761230 0.396973
vt1 0.759277 0.050781
vt1 0.759277 0.396484
vt1 0.758789 0.050781
vt1 0.758789 0.396484
vt1 0.757812 0.397949
vt1 0.757812 0.050781
vt1 0.160889 0.051758
vt1 0.161865 0.050781
vt1 0.160645 0.264160
vt1 0.159058 0.266113
vt1 0.160767 0.051758
vt1 0.157837 0.264648
vt1 0.157104 0.051270
vt1 0.158203 0.052246
vt1 0.160400 0.264160
vt1 0.158569 0.052246
vt1 0.158569 0.051758
vt1 0.158325 0.051758
vt1 0.158081 0.264160
vn -0.692913 0.015748 0.724409
vn -0.590551 0.519685 0.622047
vn -0.519685 0.661417 0.543307
vn -0.606299 0.795275 0.007874
vn -0.440945 0.763779 0.464567
vn -0.724409 0.551181 0.417323
vn 0.385827 0.834646 -0.393701
vn 0.055118 0.929134 -0.370079
vn 0.000000 0.834646 -0.559055
vn -0.535433 0.842520 0.015748
vn 0.000000 0.795276 0.606299
vn -0.787402 0.614173 -0.000000
vn -0.015748 1.000000 0.031496
vn -0.503937 0.866142 -0.023622
vn -0.700787 0.708661 -0.000000
vn -0.173228 0.157480 -0.976378
vn -0.047244 1.000000 -0.007874
vn 0.000000 1.000000 -0.007874
vn 0.031496 0.165354 -0.984252
vn 0.039370 1.000000 -0.000000
vn 0.401575 0.913386 -0.015748
vn 0.653543 0.755905 -0.000000
vn 0.000000 0.858268 -0.519685
vn 0.511811 0.858268 -0.007874
vn 0.047244 0.007874 -1.000000
vn 0.700787 0.716535 -0.000000
vn -0.141732 0.118110 0.984252
vn -0.700787 0.708661 -0.000000
vn -0.503937 0.858268 0.031496
vn -0.047244 1.000000 -0.000000
vn -0.543307 0.834646 -0.000000
vn -0.023622 1.000000 -0.031496
vn 0.000000 1.000000 0.007874
vn 0.039370 1.000000 -0.000000
vn 0.354331 0.937008 -0.000000
vn 0.519685 0.858268 0.007874
vn 0.661417 0.755905 -0.000000
vn 0.700787 0.716535 -0.000000
vn 0.055118 0.007874 1.000000
vn -0.236220 -0.039370 0.968504
vn -0.078740 0.157480 0.984252
vn -0.850394 0.527559 -0.000000
vn -0.094488 0.110236 0.992126
vn -0.866142 -0.503937 0.007874
vn -0.858268 0.511811 -0.000000
vn -0.992126 0.110236 0.007874
vn -1.000000 -0.039370 0.000000
vn -0.858268 -0.511811 0.000000
vn -1.000000 0.015748 -0.000000
vn 0.000000 0.023622 -1.000000
vn -1.000000 -0.023622 0.000000
vn 0.000000 -0.031496 -1.000000
vn -1.000000 0.055118 -0.000000
vn -0.700787 0.708661 -0.000000
vn -1.000000 0.031496 -0.000000
vn -0.110236 0.047244 -0.992126
vn 0.000000 0.795275 -0.606299
vn -0.787402 0.614173 -0.000000
vn -0.543307 0.834646 -0.000000
vn -0.511811 0.858268 -0.000000
vn -1.000000 -0.023622 0.000000
vn 0.000000 -0.031496 -1.000000
vn 0.000000 -0.795276 -0.606299
vn -0.787402 -0.614173 0.000000
vn -1.000000 -0.047244 0.000000
vn -1.000000 0.007874 -0.000000
vn -0.322835 0.944882 -0.000000
vn -0.322835 0.944882 -0.000000
vn -1.000000 0.007874 -0.000000
vn -0.165354 0.125984 -0.976378
vn -0.692913 -0.724409 0.000000
vn -0.543307 -0.834646 0.000000
vn -0.519685 -0.858268 0.000000
vn -0.787402 -0.614173 0.000000
vn 0.000000 -0.803149 0.598425
vn 0.000000 -0.031496 1.000000
vn 0.000000 0.023622 1.000000
vn -1.000000 0.015748 -0.000000
vn -0.858268 0.511811 0.007874
vn -0.984252 0.165354 -0.007874
vn -0.968504 0.086614 -0.228346
vn -0.456693 -0.000000 -0.889764
vn -0.196850 0.023622 -0.984252
vn -1.000000 -0.031496 -0.007874
vn -1.000000 0.047244 -0.000000
vn -0.700787 0.708661 -0.000000
vn -0.511811 0.858268 -0.000000
vn -0.543307 0.842520 -0.000000
vn -0.787402 0.614173 -0.000000
vn -1.000000 0.031496 0.007874
vn 0.000000 0.795276 0.606299
vn -0.157480 0.039370 0.984252
vn -1.000000 -0.015748 0.000000
vn -0.858268 -0.519685 0.007874
vn 0.000000 -0.031496 1.000000
vn 0.992126 0.015748 0.110236
vn 0.015748 0.039370 1.000000
vn 0.000000 0.795276 0.614173
vn 0.787402 0.614173 -0.000000
vn 0.480315 0.874016 -0.000000
vn 0.661417 0.748031 -0.000000
vn 0.440945 0.897638 -0.070866
vn 0.039370 1.000000 -0.007874
vn 0.031496 1.000000 0.023622
vn 0.000000 1.000000 -0.000000
vn -0.007874 1.000000 -0.000000
vn -0.425197 0.905512 0.062992
vn -0.393701 0.921260 -0.000000
vn -0.661417 0.748031 0.007874
vn -0.677165 0.740157 0.007874
vn 0.000000 0.858268 -0.519685
vn 0.000000 0.031496 1.000000
vn 1.000000 0.031496 -0.000000
vn 0.661417 0.755905 -0.000000
vn 0.000000 0.858268 0.519685
vn 0.149606 0.976378 0.157480
vn -0.787402 0.614173 -0.000000
vn 0.000000 0.795275 -0.606299
vn 0.000000 0.913386 -0.409449
vn -0.543307 0.834646 -0.000000
vn -0.023622 1.000000 -0.031496
vn -0.692913 0.023622 0.716535
vn -1.000000 0.023622 0.015748
vn -1.000000 0.015748 0.015748
vn -0.692913 0.015748 0.724409
vn -0.755906 0.535433 0.370079
vn -0.685039 0.039370 0.724409
vn -0.007874 0.039370 1.000000
vn 0.000000 0.842520 0.543307
vn -0.377953 0.842520 0.385827
vn -0.055118 0.929134 0.370079
vn 0.551181 -0.622047 -0.551181
vn 0.755906 -0.653543 0.000000
vn 1.000000 -0.015748 0.000000
vn 0.708661 -0.015748 -0.700787
vn 1.000000 0.015748 -0.000000
vn 0.708661 0.015748 -0.700787
vn 0.755906 0.566929 -0.314961
vn 0.724409 -0.566929 -0.401575
vn 1.000000 -0.015748 0.000000
vn 0.708661 -0.015748 -0.700787
vn 1.000000 0.031496 -0.039370
vn 0.732283 0.039370 -0.685039
vn 0.645669 0.700787 -0.291339
vn 0.700787 0.708661 -0.007874
vn 0.464567 0.881890 -0.000000
vn 0.653543 0.755905 -0.000000
vn 1.000000 0.062992 -0.000000
vn 1.000000 0.023622 -0.007874
vn 0.000000 0.795275 -0.614173
vn 0.000000 0.023622 -1.000000
vn 0.000000 0.031496 -1.000000
vn 0.047244 0.007874 -1.000000
vn 0.023622 0.007874 -1.000000
vn 1.000000 0.031496 -0.000000
vn 1.000000 0.023622 -0.000000
vn 0.700787 0.716535 -0.000000
vn 0.653543 0.755905 -0.000000
vn 0.000000 0.858268 -0.519685
vn 0.511811 0.858268 -0.007874
vn 0.409449 0.913386 -0.000000
vn -0.685039 0.007874 0.724409
vn -0.685039 0.039370 0.724409
vn -0.692913 0.023622 0.716535
vn -0.692913 0.015748 0.724409
vn -0.519685 0.661417 0.543307
vn -0.047244 0.015748 1.000000
vn -0.039370 0.188976 0.984252
vn 0.023622 0.125984 0.992126
vn 0.055118 0.007874 1.000000
vn -0.007874 -0.007874 1.000000
vn 0.023622 0.000000 1.000000
vn -0.110236 0.149606 0.984252
vn 0.700787 0.708661 -0.000000
vn 1.000000 0.023622 -0.000000
vn -0.055118 0.511811 0.858268
vn -0.322835 0.944882 -0.000000
vn 0.000000 1.000000 -0.000000
vn 1.000000 0.031496 -0.000000
vn 0.787402 0.614173 -0.000000
vn 0.685039 0.732283 -0.000000
vn 1.000000 0.031496 -0.000000
vn 1.000000 -0.023622 0.000000
vn 1.000000 -0.015748 0.000000
vn 0.897638 -0.440945 0.000000
vn 0.740157 -0.669291 0.000000
vn 0.000000 0.047244 1.000000
vn 0.000000 0.795276 0.606299
vn 0.000000 0.795276 0.614173
vn 0.000000 0.039370 1.000000
vn 0.000000 -0.031496 1.000000
vn 0.000000 -0.031496 1.000000
vn 0.984252 0.039370 0.173228
vn 0.000000 -0.653543 0.755905
vn 1.000000 -0.023622 0.000000
vn 0.000000 -0.614173 0.787401
vn -0.496063 0.700787 0.519685
vn -0.692913 0.023622 0.716535
vn -0.685039 0.039370 0.724409
vn -0.377953 0.842520 0.385827
vn -0.425197 0.905512 0.062992
vn -0.055118 0.929134 0.370079
vn -0.007874 1.000000 -0.000000
vn 0.000000 1.000000 0.007874
vn 0.007874 1.000000 -0.031496
vn 0.039370 1.000000 -0.007874
vn 0.440945 0.897638 -0.070866
vn 0.055118 0.929134 -0.370079
vn 0.385827 0.834646 -0.393701
vn 0.488189 0.724409 -0.488189
vn 0.047244 0.007874 -1.000000
vn 0.031496 0.165354 -0.984252
vn -0.023622 0.133858 -0.992126
vn -0.031496 0.007874 -1.000000
vn 0.023622 0.007874 -1.000000
vn -0.015748 0.007874 -1.000000
vn -0.094488 0.133858 -0.984252
vn 1.000000 0.023622 -0.007874
vn 0.700787 0.708661 -0.007874
vn -0.062992 0.519685 -0.850394
vn -0.322835 0.944882 -0.000000
vn 0.000000 1.000000 -0.000000
vn 0.000000 0.858268 -0.519685
vn 0.000000 0.858268 -0.519685
vn 0.000000 0.944882 -0.330709
vn 0.000000 0.937008 -0.346457
vn 0.000000 1.000000 -0.007874
vn 0.000000 1.000000 -0.000000
vn -0.015748 1.000000 0.031496
vn 0.031496 1.000000 0.023622
vn 0.000000 0.913386 0.417323
vn 0.000000 0.921260 0.393701
vn 0.000000 0.795276 0.614173
vn 0.000000 0.795276 0.606299
vn 0.543307 0.834646 -0.000000
vn 0.472441 0.881890 -0.000000
vn 0.700787 0.708661 -0.000000
vn 0.787402 0.614173 -0.000000
vn 1.000000 0.015748 -0.000000
vn 0.000000 0.787401 0.614173
vn 1.000000 0.023622 -0.000000
vn 0.000000 0.023622 1.000000
vn 0.023622 0.000000 1.000000
vn 0.055118 0.007874 1.000000
vn 1.000000 0.031496 -0.000000
vn 0.000000 0.031496 1.000000
vn 1.000000 0.023622 -0.000000
vn 0.661417 0.755905 -0.000000
vn 0.700787 0.716535 -0.000000
vn -0.551181 0.834646 0.007874
vn -0.606299 0.795275 0.007874
vn -0.834646 0.551181 0.007874
vn -0.795276 0.606299 0.007874
vn -1.000000 0.015748 0.007874
vn 0.000000 0.795275 -0.606299
vn 0.000000 0.023622 -1.000000
vn -1.000000 0.015748 0.015748
vn -1.000000 0.023622 0.015748
vn -1.000000 0.031496 0.007874
vn -0.661417 0.748031 0.007874
vn -0.692913 0.724409 0.007874
vn -0.692913 0.023622 0.716535
vn 0.000000 0.795275 -0.606299
vn 0.000000 0.834646 -0.559055
vn 0.055118 0.929134 -0.370079
vn 0.000000 0.913386 -0.409449
vn -0.023622 1.000000 -0.031496
vn 0.007874 1.000000 -0.031496
vn 0.000000 1.000000 0.007874
vn 0.000000 1.000000 0.007874
vn 0.000000 0.944882 0.338583
vn -0.055118 0.929134 0.370079
vn 0.000000 0.842520 0.543307
vn 0.000000 0.858268 0.519685
vn 0.000000 0.031496 1.000000
vn -0.007874 0.039370 1.000000
vn 0.708661 -0.023622 -0.708661
vn 0.535433 -0.653543 -0.535433
vn 0.551181 -0.622047 -0.551181
vn 0.708661 -0.015748 -0.700787
vn 0.708661 0.015748 -0.700787
vn 0.708661 0.015748 -0.708661
vn 0.559055 0.606299 -0.566929
vn 0.551181 0.629921 -0.543307
vn 0.000000 0.023622 -1.000000
vn 0.000000 0.795275 -0.614173
vn 0.000000 0.795275 -0.606299
vn 0.000000 0.023622 -1.000000
vn -1.000000 0.015748 0.007874
vn -1.000000 0.031496 0.007874
vn 0.000000 0.031496 -1.000000
vn 0.000000 0.031496 -1.000000
vn -0.661417 0.748031 0.007874
vn 0.000000 0.858268 -0.519685
vn 0.000000 0.858268 -0.519685
vn 0.708661 0.039370 -0.700787
vn 0.503937 0.700787 -0.503937
vn 0.385827 0.834646 -0.393701
vn 0.708661 0.047244 -0.708661
vn 0.708661 -0.023622 -0.708661
vn 0.708661 -0.015748 -0.700787
vn 0.559055 -0.614173 -0.559055
vn 0.559055 -0.614173 -0.559055
vn 1.000000 -0.015748 0.000000
vn 0.755906 -0.653543 0.000000
vn 0.787402 -0.614173 0.000000
vn 1.000000 -0.023622 0.000000
vn 1.000000 0.015748 -0.000000
vn 1.000000 0.015748 -0.000000
vn 0.755906 0.661417 -0.000000
vn 0.897638 0.448819 -0.000000
vn 0.000000 -0.031496 -1.000000
vn 0.000000 -0.653543 -0.755905
vn 0.000000 -0.629921 -0.779527
vn 0.000000 -0.015748 -1.000000
vn 0.685039 -0.023622 -0.732283
vn 0.000000 0.039370 -1.000000
vn 0.000000 0.039370 -1.000000
vn 0.708661 0.047244 -0.708661
vn 0.000000 0.795275 -0.606299
vn 0.385827 0.834646 -0.393701
vn 0.000000 0.834646 -0.559055
vn -0.007874 0.039370 1.000000
vn -0.685039 0.039370 0.724409
vn -0.685039 0.007874 0.724409
vn -0.007874 0.007874 1.000000
vn -0.519685 0.661417 0.543307
vn 0.000000 0.031496 1.000000
vn 0.000000 0.661417 0.755905
vn 0.000000 0.023622 1.000000
vn 0.000000 0.787401 0.614173
vn 0.000000 -0.803149 0.598425
vn 0.000000 -0.031496 1.000000
vn 1.000000 -0.023622 0.000000
vn 0.787402 -0.614173 0.000000
vn 0.000000 -0.913386 0.401575
vn 0.535433 -0.842520 0.000000
vn 0.755906 -0.653543 0.000000
vn 0.000000 -0.913386 0.401575
vn 0.000000 -0.803149 0.598425
vn -0.787402 -0.614173 0.000000
vn -0.503937 -0.866142 0.000000
vn 0.480315 -0.874016 0.000000
vn 0.551181 -0.622047 -0.551181
vn 0.000000 -1.000000 0.000000
vn 0.000000 -1.000000 0.000000
vn 0.000000 -1.000000 0.000000
vn -0.543307 -0.834646 0.000000
vn 0.000000 -1.000000 0.000000
vn 0.000000 -1.000000 0.000000
vn 0.362205 -0.866142 -0.354331
vn 0.535433 -0.653543 -0.535433
vn 0.062992 -0.976378 -0.220472
vn 0.000000 -0.913386 -0.409449
vn -0.787402 -0.614173 0.000000
vn 0.000000 -0.795276 -0.606299
vn 0.000000 -0.653543 -0.755905
vn 0.000000 -0.858268 -0.511811
vn 0.000000 -0.031496 1.000000
vn 0.000000 -0.803149 0.598425
vn 0.000000 -0.803149 0.598425
vn 0.000000 -0.031496 1.000000
vn 0.000000 0.023622 1.000000
vn 0.000000 0.669291 0.748031
vn 0.000000 0.598425 0.803149
vn 0.000000 0.023622 1.000000
vn 1.000000 -0.023622 0.000000
vn 1.000000 0.015748 -0.000000
vn 0.000000 0.015748 -1.000000
vn 0.000000 0.645669 -0.763779
vn 0.000000 0.629921 -0.779527
vn 0.000000 0.023622 -1.000000
vn 0.000000 -0.031496 -1.000000
vn 0.000000 -0.015748 -1.000000
vn 0.708661 -0.023622 -0.708661
vn 0.000000 -0.653543 -0.755905
vn 0.000000 -0.795276 -0.606299
vn 0.535433 -0.653543 -0.535433
vn -0.322835 0.944882 -0.000000
vn -0.322835 0.944882 -0.000000
vn 0.000000 1.000000 -0.000000
vn 0.000000 1.000000 -0.000000
vn 0.464567 0.881890 0.007874
vn 0.543307 0.834646 -0.000000
vn 0.000000 1.000000 -0.000000
vn 0.000000 0.913386 0.409449
vn 0.787402 0.614173 -0.000000
vn 0.000000 0.787401 0.614173
vn 0.000000 0.661417 0.755905
vn 0.000000 0.858268 0.503937
vn -0.102362 0.968504 0.236220
vn -0.519685 0.661417 0.543307
vn -0.590551 0.519685 0.614173
vn -0.440945 0.763779 0.464567
vn 0.000000 1.000000 -0.000000
vn 0.000000 1.000000 -0.000000
vn -0.606299 0.795275 0.007874
vn -0.551181 0.834646 0.007874
vn 0.000000 1.000000 -0.000000
vn 0.000000 1.000000 -0.000000
vn 0.456693 0.889764 -0.007874
vn 0.653543 0.755905 -0.000000
vn 0.000000 0.913386 -0.409449
vn -0.795276 0.606299 0.007874
vn 0.000000 0.795275 -0.606299
vn 0.000000 0.795275 -0.614173
vn 0.000000 0.913386 -0.409449
vn 0.653543 0.755905 -0.047244
vn 0.000000 0.692913 -0.716535
vn -0.826772 0.566929 -0.000000
vn -0.519685 0.732283 -0.440945
vn 0.700787 0.125984 -0.700787
vn 0.519685 0.677165 -0.519685
vn 0.511811 0.685039 -0.511811
vn 0.511811 0.692913 -0.511811
vn 0.700787 0.125984 -0.700787
vn 0.700787 0.118110 -0.700787
vn 0.527559 -0.669291 -0.519685
vn 0.527559 -0.669291 -0.527559
vn 0.503937 -0.692913 -0.511811
vn 0.496063 -0.716535 -0.488189
vn 0.889764 -0.464567 0.000000
vn 0.716535 -0.700787 0.000000
vn 0.685039 -0.724409 0.000000
vn 0.897638 -0.440945 0.000000
vn 0.000000 -0.669291 -0.748031
vn 0.000000 -0.677165 -0.740157
vn 0.000000 -0.700787 -0.716535
vn 0.000000 -0.692913 -0.724409
vn 0.527559 0.677165 -0.519685
vn 0.496063 0.716535 -0.488189
vn 0.503937 0.700787 -0.503937
vn 0.519685 0.669291 -0.527559
vn -0.960630 -0.291339 0.000000
vn -0.842520 -0.535433 0.007874
vn -0.818898 -0.574803 0.007874
vn -0.992126 -0.141732 0.007874
vn -1.000000 -0.070866 0.007874
vn -1.000000 0.039370 0.007874
vn -1.000000 0.078740 0.015748
vn -0.944882 0.322835 -0.000000
vn -0.826772 0.566929 0.007874
vn -0.850394 0.535433 -0.000000
vn -0.960630 0.267716 -0.000000
vn 0.000000 -0.716535 0.700787
vn 0.000000 -0.685039 0.724409
vn 0.000000 -0.637795 0.771653
vn 0.000000 -0.622047 0.779527
vn 0.000000 -0.118110 0.992126
vn 0.000000 -0.086614 1.000000
vn 1.000000 -0.062992 0.000000
vn 0.000000 0.102362 0.992126
vn 0.000000 0.086614 1.000000
vn 1.000000 0.062992 -0.000000
vn 0.000000 0.708661 0.700787
vn 0.000000 0.622047 0.779527
vn 0.000000 0.637795 0.771653
vn 0.000000 0.685039 0.724409
vn 0.700787 -0.086614 -0.708661
vn 0.708661 0.062992 -0.708661
vn 0.708661 0.078740 -0.700787
vn 0.708661 -0.110236 -0.700787
vn 0.519685 -0.669291 -0.527559
vn 0.503937 -0.700787 -0.503937
vn 1.000000 -0.062992 0.000000
vn 0.905512 -0.425197 0.000000
vn 0.716535 -0.692913 0.000000
vn 0.992126 -0.094488 0.000000
vn 1.000000 0.062992 -0.000000
vn 0.992126 0.094488 -0.000000
vn 0.905512 0.425197 -0.000000
vn 0.700787 0.716535 -0.000000
vn 0.716535 0.700787 -0.000000
vn 0.889764 0.464567 0.007874
vn 0.000000 -0.094488 -0.992126
vn 0.000000 -0.669291 -0.748031
vn 0.000000 -0.653543 -0.763779
vn 0.000000 -0.110236 -0.992126
vn 0.000000 0.062992 -1.000000
vn 0.000000 0.094488 -0.992126
vn 0.000000 0.677165 -0.732283
vn 0.000000 0.692913 -0.716535
vn 0.000000 0.669291 -0.740157
vn 0.000000 0.669291 -0.740157
vn -0.834646 -0.551181 0.000000
vn -0.842520 -0.543307 0.000000
vn -0.874016 -0.480315 -0.007874
vn -0.913386 -0.039370 -0.401575
vn -0.992126 -0.094488 -0.007874
vn -0.874016 0.496063 -0.000000
vn -0.842520 0.543307 -0.000000
vn -0.826772 0.566929 -0.000000
vn -1.000000 -0.086614 0.000000
vn -1.000000 0.070866 -0.000000
vn 0.000000 0.094488 -0.992126
vn 0.000000 0.692913 -0.716535
vn -1.000000 0.023622 -0.000000
tan -0.246884 0.938682 -0.256557 1.000000
tan 0.162378 0.829499 -0.538843 1.000000
tan 0.324571 0.739351 -0.589621 1.000000
tan -0.674623 -0.519437 0.517143 1.000000
tan -0.378387 -0.627317 0.672205 1.000000
tan -0.290347 -0.770661 0.513857 1.000000
tan -0.192696 -0.326617 -0.881270 1.000000
tan -0.002914 -0.370079 -0.929568 1.000000
tan -0.103044 -0.554653 -0.828074 1.000000
tan -0.829500 -0.524521 -0.141112 1.000000
tan -0.903962 0.224378 -0.294315 1.000000
tan -0.599665 -0.768801 -0.219232 1.000000
tan -0.992126 -0.011904 -0.118110 1.000000
tan -0.866142 -0.505611 -0.061380 1.000000
tan -0.697501 -0.689751 0.188666 1.000000
tan -0.885362 -0.416517 0.089900 1.000000
tan -0.952756 -0.047430 -0.307087 1.000000
tan -1.000000 -0.000248 -0.031496 1.000000
tan -0.891252 -0.418501 -0.098828 1.000000
tan -0.952756 0.037510 -0.314961 1.000000
tan -0.913386 0.400211 -0.079112 1.000000
tan -0.749954 0.648397 -0.095542 1.000000
tan -0.948478 -0.028644 -0.047306 1.000000
tan -0.804762 0.476843 -0.333623 1.000000
tan -1.000000 0.023622 -0.047058 1.000000
tan -0.665757 0.651125 -0.379565 1.000000
tan -0.969682 -0.187116 -0.117180 1.000000
tan -0.669601 -0.662161 -0.316325 1.000000
tan -0.858516 -0.504185 0.002790 1.000000
tan -0.960630 -0.045384 0.267716 1.000000
tan -0.834646 -0.543307 0.000000 1.000000
tan -1.000000 -0.023622 0.000000 1.000000
tan -1.000000 0.000000 0.000000 1.000000
tan -0.976378 0.038440 0.212598 1.000000
tan -0.937008 0.354331 0.007378 1.000000
tan -0.851572 0.514539 0.118978 1.000000
tan -0.755906 0.661417 -0.000000 1.000000
tan -0.705251 0.689751 0.173042 1.000000
tan -0.984252 0.181102 0.052824 1.000000
tan 0.076260 0.968504 0.057970 1.000000
tan 0.457251 0.868002 -0.102300 1.000000
tan 0.527559 0.850394 -0.006696 1.000000
tan 0.070308 0.992126 -0.103540 1.000000
tan -0.499225 0.859508 0.093744 1.000000
tan 0.511811 0.858268 0.044578 1.000000
tan 0.110670 0.992126 0.054684 1.000000
tan -0.039370 1.000000 -0.039370 1.000000
tan -0.511811 0.858268 -0.013516 1.000000
tan 0.015748 1.000000 -0.007874 1.000000
tan 0.007874 1.000000 0.023622 1.000000
tan -0.023622 1.000000 0.078740 1.000000
tan -0.149606 0.992126 -0.031248 1.000000
tan 0.055118 1.000000 0.055118 1.000000
tan 0.708661 0.700787 -0.044392 1.000000
tan 0.031496 1.000000 -0.055118 1.000000
tan 0.187488 0.976502 0.025668 1.000000
tan 0.638229 0.458305 0.601153 1.000000
tan 0.614173 0.787401 0.017236 1.000000
tan 0.834646 0.543307 -0.000000 1.000000
tan 0.858268 0.511811 -0.000000 1.000000
tan -0.023622 1.000000 0.078740 1.000000
tan -0.188976 0.984252 -0.031000 1.000000
tan -0.631967 0.458305 -0.601153 1.000000
tan -0.614173 0.787401 -0.017236 1.000000
tan -0.047244 1.000000 -0.055118 1.000000
tan 0.007874 1.000000 0.039370 1.000000
tan 0.944882 0.322835 -0.029760 1.000000
tan 0.944882 0.322835 0.037200 1.000000
tan 0.007874 1.000000 -0.031496 1.000000
tan 0.376713 0.899498 0.052266 1.000000
tan -0.724409 0.692913 -0.000000 1.000000
tan -0.834646 0.543307 -0.000000 1.000000
tan -0.858268 0.519685 -0.000000 1.000000
tan -0.614173 0.787401 0.017236 1.000000
tan -0.667741 0.433505 0.581809 1.000000
tan -0.220472 0.976378 0.030752 1.000000
tan 0.007874 1.000000 -0.023622 1.000000
tan 0.015748 1.000000 0.007874 1.000000
tan 0.511439 0.858330 -0.044578 1.000000
tan 0.165106 0.976502 -0.131750 1.000000
tan 0.107508 0.964474 -0.090148 1.000000
tan -0.028024 0.907744 0.014384 1.000000
tan 0.093186 0.978052 0.004836 1.000000
tan -0.031558 1.000000 0.007874 1.000000
tan 0.047244 1.000000 -0.039370 1.000000
tan 0.708661 0.700787 0.044392 1.000000
tan 0.858268 0.511811 -0.000000 1.000000
tan 0.842520 0.543307 -0.000000 1.000000
tan 0.614173 0.787401 -0.017236 1.000000
tan 0.031868 1.000000 0.047244 1.000000
tan 0.666563 0.443983 -0.582367 1.000000
tan 0.170810 0.969992 -0.011470 1.000000
tan -0.015624 0.992126 -0.086614 1.000000
tan -0.519623 0.858268 0.006758 1.000000
tan -0.157480 0.984252 0.031000 1.000000
tan -0.067580 0.867134 0.484345 1.000000
tan -0.724409 0.692913 -0.015872 1.000000
tan -0.965342 0.106392 -0.137764 1.000000
tan -0.609337 0.781201 0.115816 1.000000
tan -0.874016 0.480315 0.013764 1.000000
tan -0.748031 0.661417 -0.033976 1.000000
tan -0.898754 0.441503 0.000124 1.000000
tan -1.000000 0.039370 -0.000000 1.000000
tan -1.000000 0.031868 -0.015748 1.000000
tan -1.000000 0.000000 0.015748 1.000000
tan -1.000000 -0.007874 0.000000 1.000000
tan -0.906504 -0.424701 -0.013826 1.000000
tan -0.921260 -0.393701 0.036270 1.000000
tan -0.748031 -0.661479 0.005890 1.000000
tan -0.740281 -0.676979 -0.028148 1.000000
tan -0.934962 -0.081840 -0.135160 1.000000
tan 0.267717 0.960630 -0.030256 1.000000
tan -0.009920 0.314960 -0.952756 1.000000
tan -0.077376 0.067704 -0.989522 1.000000
tan 0.069006 0.519685 -0.858268 1.000000
tan 0.169136 0.129084 -0.961002 1.000000
tan -0.396553 -0.508401 -0.743877 1.000000
tan -0.040858 -0.606299 -0.795275 1.000000
tan -0.035960 -0.409449 -0.913386 1.000000
tan -0.289169 -0.188232 -0.892678 1.000000
tan -0.055118 -0.032798 -1.000000 1.000000
tan -0.452725 -0.788518 -0.411805 1.000000
tan -0.027714 -0.937008 -0.354331 1.000000
tan -0.013888 -0.992126 0.110236 1.000000
tan 0.103788 -0.989026 0.120776 1.000000
tan -0.418501 -0.804575 0.309257 1.000000
tan -0.513423 0.678839 -0.522413 1.000000
tan -0.141732 0.992126 -0.040176 1.000000
tan -0.048360 0.543307 -0.842520 1.000000
tan -0.034782 0.391717 -0.889454 1.000000
tan 0.004402 0.370513 -0.929568 1.000000
tan -0.326741 -0.768181 0.540207 1.000000
tan -0.617521 -0.714241 0.315581 1.000000
tan -0.015252 -0.968504 0.236221 1.000000
tan 0.282287 -0.904520 0.305785 1.000000
tan 0.012772 -0.811023 0.582677 1.000000
tan 0.471945 -0.743629 0.460537 1.000000
tan 0.628929 -0.745985 0.166656 1.000000
tan -0.485089 -0.807799 0.265361 1.000000
tan -0.015624 -0.992126 0.102362 1.000000
tan 0.115878 -0.976688 0.139128 1.000000
tan 0.020274 -0.968504 -0.259842 1.000000
tan -0.357555 -0.834212 -0.430157 1.000000
tan 0.568479 -0.693781 -0.408953 1.000000
tan 0.708661 -0.700787 0.000000 1.000000
tan 0.881890 -0.464567 0.000000 1.000000
tan 0.755906 -0.653543 0.000000 1.000000
tan 0.062992 -1.000000 0.055118 1.000000
tan 0.023560 -1.000000 -0.007874 1.000000
tan 0.662533 -0.454585 -0.588629 1.000000
tan 0.204724 -0.976378 -0.023064 1.000000
tan 0.181102 -0.984252 -0.031000 1.000000
tan 0.110236 -0.992126 -0.002604 1.000000
tan 0.007874 -1.000000 -0.007688 1.000000
tan 0.031496 -1.000000 0.047244 1.000000
tan 0.023622 -1.000000 0.039370 1.000000
tan 0.716535 -0.700787 -0.050282 1.000000
tan 0.755906 -0.653543 -0.062248 1.000000
tan 0.552049 -0.425569 -0.702833 1.000000
tan 0.858268 -0.511811 0.000000 1.000000
tan 0.913386 -0.409449 0.000000 1.000000
tan -0.005084 -0.995598 0.006014 1.000000
tan -0.025420 -0.995598 0.030070 1.000000
tan -0.015624 -0.994296 0.017670 1.000000
tan -0.010416 -1.000186 0.011780 1.000000
tan -0.447889 -0.754045 0.489553 1.000000
tan 0.000000 1.000000 -0.015748 1.000000
tan -0.007750 0.984252 -0.189286 1.000000
tan 0.000000 0.992126 -0.125984 1.000000
tan 0.000000 1.000000 -0.007874 1.000000
tan 0.000000 1.000000 0.007874 1.000000
tan 0.039370 1.000000 -0.000930 1.000000
tan -0.038750 0.984252 -0.153946 1.000000
tan -0.546841 0.540765 -0.632649 1.000000
tan -0.022320 0.944882 -0.322835 1.000000
tan -0.020274 0.858268 -0.513113 1.000000
tan 0.230640 0.078802 -0.927832 1.000000
tan 0.181102 -0.000000 -0.984252 1.000000
tan 0.031496 -1.000000 0.000000 1.000000
tan 0.614173 -0.787401 0.000000 1.000000
tan 0.732283 -0.685039 0.000000 1.000000
tan 0.031496 -1.000000 0.000000 1.000000
tan -0.023622 -1.000000 0.000000 1.000000
tan -0.015748 -1.000000 0.007874 1.000000
tan -0.440945 -0.897638 0.000000 1.000000
tan -0.669291 -0.740157 0.000000 1.000000
tan 0.000000 1.000000 -0.047244 1.000000
tan 0.000000 0.606299 -0.795276 1.000000
tan 0.000000 0.614173 -0.795276 1.000000
tan 0.015748 1.000000 -0.039370 1.000000
tan 0.000000 1.000000 0.031496 1.000000
tan -0.086614 0.992126 0.031248 1.000000
tan -0.015872 0.977866 -0.132060 1.000000
tan 0.000000 0.755905 0.653543 1.000000
tan 0.022506 0.952756 0.314960 1.000000
tan 0.023436 0.787401 0.614173 1.000000
tan 0.478641 0.720565 -0.514787 1.000000
tan 0.038192 0.994296 0.004154 1.000000
tan 0.042842 0.995288 -0.013578 1.000000
tan 0.590427 0.541323 -0.603695 1.000000
tan 0.738545 0.383905 -0.533449 1.000000
tan 0.567673 0.330213 -0.744497 1.000000
tan 0.700787 0.005518 -0.708661 1.000000
tan 0.700787 0.005580 -0.708661 1.000000
tan 0.700787 -0.027838 -0.708661 1.000000
tan 0.700787 -0.033170 -0.708661 1.000000
tan 0.745304 -0.407093 -0.519065 1.000000
tan 0.567673 -0.330213 -0.744497 1.000000
tan 0.584909 -0.549383 -0.591481 1.000000
tan 0.513361 -0.691921 -0.513361 1.000000
tan 0.000000 -1.000000 -0.007874 1.000000
tan -0.007750 -0.984252 -0.165602 1.000000
tan 0.000000 -0.992126 -0.133858 1.000000
tan 0.007874 -1.000000 -0.008122 1.000000
tan -0.039370 -1.000000 -0.008804 1.000000
tan 0.000000 -1.000000 -0.007874 1.000000
tan 0.031000 -0.984252 -0.136834 1.000000
tan 0.019778 -0.944882 -0.322834 1.000000
tan 0.543369 -0.544361 -0.632649 1.000000
tan 0.020088 -0.850394 -0.521173 1.000000
tan -0.230640 -0.078802 -0.927832 1.000000
tan -0.181102 -0.000000 -0.984252 1.000000
tan 0.000000 -0.519685 -0.858268 1.000000
tan 0.000000 -0.519685 -0.858268 1.000000
tan 0.000000 -0.330709 -0.944882 1.000000
tan 0.000000 -0.346457 -0.937008 1.000000
tan 0.000000 -0.007874 -1.000000 1.000000
tan 0.000000 -0.000000 -1.000000 1.000000
tan 0.000000 0.031496 -1.000000 1.000000
tan 0.000000 0.023622 -1.000000 1.000000
tan 0.000000 0.417323 -0.913386 1.000000
tan 0.000000 0.393701 -0.921260 1.000000
tan 0.000000 0.614173 -0.795276 1.000000
tan 0.000000 0.606299 -0.795276 1.000000
tan -0.834646 0.543307 -0.000000 1.000000
tan -0.881890 0.472441 -0.000000 1.000000
tan -0.708661 0.700787 -0.000000 1.000000
tan -0.614173 0.787401 -0.023436 1.000000
tan -0.015748 1.000000 0.070866 1.000000
tan -0.605989 0.478765 -0.613801 1.000000
tan -0.023622 1.000000 -0.015748 1.000000
tan -0.157480 0.984252 -0.023250 1.000000
tan 0.000000 1.000000 -0.000000 1.000000
tan -0.086614 1.000000 -0.003100 1.000000
tan -0.031496 1.000000 -0.007874 1.000000
tan -0.047244 1.000000 -0.031496 1.000000
tan -0.023622 1.000000 0.031496 1.000000
tan -0.755906 0.661417 -0.000000 1.000000
tan -0.716535 0.700787 -0.089280 1.000000
tan -0.834646 -0.551243 0.006572 1.000000
tan -0.795276 -0.606361 0.006262 1.000000
tan -0.551181 -0.834646 0.000000 1.000000
tan -0.606237 -0.795337 0.011036 1.000000
tan -0.013950 -0.984252 0.196850 1.000000
tan -0.845806 -0.305537 -0.400769 1.000000
tan -0.755906 -0.653543 -0.015438 1.000000
tan -0.015748 -1.000000 0.000000 1.000000
tan -0.026722 -0.968504 -0.244094 1.000000
tan -0.031496 -1.000000 0.000000 1.000000
tan -0.748031 -0.661479 0.005890 1.000000
tan -0.724843 -0.692355 -0.089528 1.000000
tan -0.712939 -0.116436 -0.685597 1.000000
tan -0.040858 -0.606299 -0.795275 1.000000
tan -0.103044 -0.554653 -0.828074 1.000000
tan -0.002914 -0.370079 -0.929568 1.000000
tan -0.035960 -0.409449 -0.913386 1.000000
tan -0.055118 -0.032798 -1.000000 1.000000
tan 0.000000 -0.031496 -1.000000 1.000000
tan 0.000000 0.007874 -1.000000 1.000000
tan 0.031496 0.007874 -1.000000 1.000000
tan 0.074400 0.338583 -0.944882 1.000000
tan 0.004402 0.370513 -0.929568 1.000000
tan -0.048360 0.543307 -0.842520 1.000000
tan 0.069006 0.519685 -0.858268 1.000000
tan 0.267717 0.960630 -0.030256 1.000000
tan -0.141732 0.992126 -0.040176 1.000000
tan -0.022134 -0.998822 0.011160 1.000000
tan -0.467357 -0.758881 0.458925 1.000000
tan -0.436481 -0.781201 0.445161 1.000000
tan -0.000248 -0.998884 0.022196 1.000000
tan 0.016802 -0.998884 -0.005456 1.000000
tan 0.011036 -1.004402 -0.011284 1.000000
tan 0.424887 -0.793539 -0.429661 1.000000
tan 0.451361 -0.771406 -0.436481 1.000000
tan 0.000000 1.000000 0.023622 1.000000
tan 0.000000 0.614173 0.795275 1.000000
tan 0.000000 0.606299 0.795275 1.000000
tan 0.000000 1.000000 0.023622 1.000000
tan 0.016058 1.000000 0.039370 1.000000
tan 0.032488 0.976378 0.220472 1.000000
tan -0.078740 1.000000 0.031496 1.000000
tan 0.000000 1.000000 0.031496 1.000000
tan 0.656023 0.574927 0.487879 1.000000
tan 0.000000 0.519685 0.858268 1.000000
tan 0.144770 0.511501 0.844752 1.000000
tan 0.187612 -0.971170 0.135160 1.000000
tan 0.604067 -0.698369 -0.367103 1.000000
tan 0.584909 -0.549383 -0.591481 1.000000
tan 0.033108 -0.998822 -0.033480 1.000000
tan -0.083328 -0.993242 -0.050220 1.000000
tan -0.011284 -0.998884 0.011036 1.000000
tan -0.444479 -0.792361 0.426003 1.000000
tan -0.434807 -0.787959 0.430839 1.000000
tan -0.015748 -1.000000 0.039370 1.000000
tan -0.653543 -0.755905 0.034100 1.000000
tan -0.614173 -0.787401 0.000000 1.000000
tan -0.023622 -1.000000 0.000000 1.000000
tan 0.015748 -1.000000 0.000000 1.000000
tan 0.015748 -1.000000 0.000000 1.000000
tan 0.661417 -0.755905 0.000000 1.000000
tan 0.448819 -0.897638 -0.035340 1.000000
tan 0.000000 1.000000 -0.031496 1.000000
tan 0.000000 0.755905 -0.653543 1.000000
tan 0.034472 0.779527 -0.629921 1.000000
tan 0.000000 1.000000 -0.015748 1.000000
tan -0.025482 0.996590 -0.055986 1.000000
tan 0.000000 1.000000 0.039370 1.000000
tan 0.007874 1.000000 0.039370 1.000000
tan 0.028272 0.998822 0.094860 1.000000
tan 0.000000 0.606299 0.795275 1.000000
tan -0.359849 0.526443 0.763407 1.000000
tan -0.085498 0.554653 0.828074 1.000000
tan -0.031496 1.000000 -0.039618 1.000000
tan -0.100378 0.978796 -0.148118 1.000000
tan 0.022196 0.995598 0.010168 1.000000
tan 0.023622 1.000000 -0.007688 1.000000
tan 0.305599 0.735445 -0.603013 1.000000
tan 0.000000 1.000000 -0.031496 1.000000
tan 0.084816 0.755905 -0.661417 1.000000
tan 0.000000 1.000000 -0.023622 1.000000
tan 0.000000 0.614173 -0.787401 1.000000
tan -0.116808 0.593713 0.796825 1.000000
tan -0.551181 0.834646 0.026288 1.000000
tan 0.007068 0.299213 0.952756 1.000000
tan -0.014508 -0.018600 0.972782 1.000000
tan -0.075082 0.401575 0.913386 1.000000
tan 0.033170 0.021080 0.950896 1.000000
tan 0.061752 0.071424 0.985182 1.000000
tan 0.014384 0.401575 0.913386 1.000000
tan 0.000000 0.598425 0.803149 1.000000
tan -0.246636 0.316201 0.894166 1.000000
tan -0.306901 0.178560 0.827453 1.000000
tan 0.041292 0.022692 0.935892 1.000000
tan 0.258602 -0.499101 0.821873 1.000000
tan -0.110236 0.000000 0.992126 1.000000
tan 0.007874 0.000000 1.000000 1.000000
tan 0.062992 0.000000 1.000000 1.000000
tan 0.105152 -0.068448 0.936388 1.000000
tan -0.015748 0.000000 1.000000 1.000000
tan -0.047244 0.000000 1.000000 1.000000
tan -0.015500 -0.374357 0.899250 1.000000
tan 0.173910 -0.535433 0.827454 1.000000
tan -0.099944 -0.225184 0.968690 1.000000
tan -0.021576 -0.409449 0.913386 1.000000
tan 0.193440 -0.248000 0.922438 1.000000
tan -0.017298 -0.606299 0.795276 1.000000
tan 0.101494 -0.749953 0.648397 1.000000
tan 0.062124 -0.511811 0.858268 1.000000
tan 0.007874 1.000000 0.031496 1.000000
tan 0.000000 0.598425 0.803149 1.000000
tan 0.000000 0.598425 0.803149 1.000000
tan 0.000000 1.000000 0.031496 1.000000
tan 0.000000 1.000000 -0.023622 1.000000
tan 0.000000 0.748031 -0.669291 1.000000
tan -0.030008 0.803149 -0.598425 1.000000
tan 0.070866 1.000000 -0.023622 1.000000
tan 0.023622 1.000000 0.031496 1.000000
tan -0.015252 0.968504 -0.259843 1.000000
tan 0.070866 1.000000 0.015748 1.000000
tan 0.000000 0.763779 0.645669 1.000000
tan 0.000000 0.779527 0.629921 1.000000
tan 0.000000 1.000000 0.023622 1.000000
tan 0.000000 1.000000 -0.031496 1.000000
tan 0.000000 1.000000 -0.015748 1.000000
tan -0.022506 0.998822 -0.055800 1.000000
tan 0.062248 0.755905 -0.653543 1.000000
tan 0.000000 0.606299 -0.795276 1.000000
tan 0.267469 0.733585 -0.627937 1.000000
tan 0.037200 0.012710 0.957592 1.000000
tan -0.044640 -0.015252 0.957592 1.000000
tan 0.015748 0.000000 1.000000 1.000000
tan -0.047244 0.000000 1.000000 1.000000
tan 0.194122 -0.110112 0.879348 1.000000
tan 0.118296 -0.077004 0.936388 1.000000
tan 0.062992 0.000000 1.000000 1.000000
tan -0.021576 -0.409449 0.913386 1.000000
tan 0.188604 -0.241800 0.922438 1.000000
tan -0.017236 -0.614173 0.787401 1.000000
tan 0.067704 -0.755905 0.661417 1.000000
tan 0.024242 -0.503937 0.858268 1.000000
tan -0.122016 -0.247256 0.960878 1.000000
tan 0.106950 -0.577531 0.805382 1.000000
tan 0.211296 -0.636307 0.741583 1.000000
tan -0.085312 -0.546779 0.817968 1.000000
tan -0.055118 0.000000 1.000000 1.000000
tan -0.102362 0.000000 0.992126 1.000000
tan 0.172174 0.121830 0.952570 1.000000
tan 0.146754 0.088040 0.940542 1.000000
tan 0.094488 0.000000 0.992126 1.000000
tan -0.086614 0.000000 1.000000 1.000000
tan -0.420113 0.222705 0.799057 1.000000
tan -0.178560 0.154380 0.958646 1.000000
tan -0.028768 0.409449 0.913386 1.000000
tan 0.178808 0.222456 0.930498 1.000000
tan -0.017298 0.606299 0.795275 1.000000
tan 0.006262 0.614173 0.795275 1.000000
tan 0.014384 0.409449 0.913386 1.000000
tan -0.378697 0.379379 0.831421 1.000000
tan -0.127720 0.710893 0.687457 1.000000
tan 0.147312 0.214831 0.926840 1.000000
tan -0.125302 0.443301 0.883874 1.000000
tan 0.082770 -0.987724 -0.094798 1.000000
tan 0.474549 -0.732469 -0.479881 1.000000
tan 0.485461 -0.721371 -0.480067 1.000000
tan -0.481555 0.725401 0.500527 1.000000
tan -0.018538 0.987724 0.159030 1.000000
tan -0.010106 0.982206 0.155434 1.000000
tan 0.183520 -0.491289 0.819022 1.000000
tan 0.170810 -0.510943 0.819022 1.000000
tan 0.102610 -0.523281 0.809474 1.000000
tan 0.108128 -0.484593 0.821130 1.000000
tan -0.241428 -0.462397 0.771281 1.000000
tan 0.226238 0.231323 0.949098 1.000000
tan 0.285201 0.269701 0.908054 1.000000
tan -0.156240 -0.318061 0.851510 1.000000
tan 0.073470 -0.748031 0.669291 1.000000
tan 0.016988 -0.740157 0.677165 1.000000
tan 0.011160 -0.716535 0.700787 1.000000
tan 0.050344 -0.724409 0.692913 1.000000
tan -0.485213 0.742203 0.474549 1.000000
tan -0.507781 0.693657 0.502139 1.000000
tan -0.496621 0.714241 0.496621 1.000000
tan -0.469031 0.738050 0.474301 1.000000
tan -0.291339 0.960630 0.007564 1.000000
tan -0.535309 0.842520 0.013268 1.000000
tan -0.574369 0.818959 0.049662 1.000000
tan -0.141670 0.992126 0.007812 1.000000
tan -0.070618 1.000000 0.031496 1.000000
tan 0.039308 1.000000 -0.007874 1.000000
tan 0.078120 1.000000 -0.039370 1.000000
tan 0.322835 0.944882 -0.014880 1.000000
tan 0.566495 0.826896 -0.054498 1.000000
tan 0.535433 0.850394 -0.037696 1.000000
tan 0.267717 0.960630 -0.007564 1.000000
tan 0.000000 0.700787 0.716535 1.000000
tan 0.000000 0.724409 0.685039 1.000000
tan 0.023250 0.771653 0.637795 1.000000
tan 0.051522 0.779527 0.622047 1.000000
tan 0.000000 0.992126 0.118110 1.000000
tan 0.055118 1.000000 0.086614 1.000000
tan 0.062992 1.000000 0.055118 1.000000
tan 0.000000 0.992126 -0.102362 1.000000
tan -0.055118 1.000000 -0.086614 1.000000
tan -0.062992 1.000000 -0.055118 1.000000
tan 0.000000 0.700787 -0.708661 1.000000
tan -0.051522 0.779527 -0.622047 1.000000
tan -0.034348 0.771653 -0.637795 1.000000
tan 0.000000 0.724409 -0.685039 1.000000
tan -0.060698 -0.993304 0.061380 1.000000
tan 0.049724 -0.998822 -0.039060 1.000000
tan 0.062558 -0.998946 -0.048980 1.000000
tan -0.074338 -0.998946 0.081964 1.000000
tan -0.474301 -0.742141 0.474301 1.000000
tan -0.502139 -0.714241 0.491103 1.000000
tan -0.062992 -1.000000 0.000000 1.000000
tan -0.425197 -0.905512 0.000000 1.000000
tan -0.692913 -0.716535 0.000000 1.000000
tan -0.094488 -0.992126 -0.007812 1.000000
tan 0.062992 -1.000000 0.000000 1.000000
tan 0.090024 -0.945254 0.289045 1.000000
tan 0.425197 -0.905512 -0.021390 1.000000
tan 0.716535 -0.700787 0.072602 1.000000
tan 0.700787 -0.716535 0.000000 1.000000
tan 0.464877 -0.889764 -0.035030 1.000000
tan 0.007812 0.992126 -0.094488 1.000000
tan 0.028210 0.748031 -0.669291 1.000000
tan 0.000000 0.763779 -0.653543 1.000000
tan 0.000000 0.992126 -0.110236 1.000000
tan 0.039370 1.000000 0.062992 1.000000
tan 0.000000 0.992126 0.094488 1.000000
tan -0.011098 0.732283 0.677165 1.000000
tan 0.000000 0.716535 0.692913 1.000000
tan 0.000000 0.740157 0.669291 1.000000
tan 0.000000 0.740157 0.669291 1.000000
tan -0.551181 0.834646 -0.056916 1.000000
tan -0.543307 0.842520 -0.013268 1.000000
tan -0.479819 0.874140 -0.062620 1.000000
tan -0.052018 0.913386 0.028768 1.000000
tan -0.094178 0.992126 -0.039060 1.000000
tan 0.496063 0.874016 0.069750 1.000000
tan 0.543307 0.842520 0.037448 1.000000
tan 0.562465 0.820262 0.089466 1.000000
tan -0.086614 1.000000 -0.031496 1.000000
tan 0.070866 1.000000 0.055118 1.000000
tan 0.007812 0.992126 0.094488 1.000000
tan 0.277637 0.688325 0.665633 1.000000
tan 0.023622 1.000000 0.031496 1.000000
f 3/3/3 2/2/2 1/1/1
f 6/6/6 5/5/5 4/4/4
f 9/9/9 8/8/8 7/7/7
f 12/12/12 11/11/11 10/10/10
f 14/14/14 10/10/10 13/13/13
f 16/16/16 15/15/15 14/14/14
f 13/13/13 17/17/17 14/14/14
f 17/17/17 13/13/13 18/18/18
f 19/19/19 14/14/14 17/17/17
f 18/18/18 20/20/20 17/17/17
f 17/17/17 20/20/20 19/19/19
f 20/20/20 18/18/18 21/21/21
f 23/23/23 22/22/22 21/21/21
f 21/21/21 24/24/24 20/20/20
f 24/24/24 19/19/19 20/20/20
f 25/25/25 19/19/19 24/24/24
f 24/24/24 26/26/26 25/25/25
f 29/29/29 28/28/28 27/27/27
f 31/31/31 29/29/29 30/30/30
f 30/30/30 32/32/32 31/31/31
f 33/33/33 32/32/32 30/30/30
f 34/34/34 30/30/30 29/29/29
f 30/30/30 34/34/34 33/33/33
f 35/35/35 33/33/33 34/34/34
f 29/29/29 36/36/36 34/34/34
f 34/34/34 36/36/36 35/35/35
f 37/37/37 35/35/35 36/36/36
f 36/36/36 38/38/38 37/37/37
f 39/39/39 38/38/38 36/36/36
f 42/42/42 41/41/41 40/40/40
f 44/44/44 40/40/40 43/43/43
f 46/46/46 42/42/42 45/45/45
f 43/43/43 47/47/47 44/44/44
f 48/48/48 44/44/44 47/47/47
f 45/45/45 49/49/49 46/46/46
f 45/45/45 50/50/50 49/49/49
f 47/47/47 51/51/51 48/48/48
f 51/51/51 52/52/52 48/48/48
f 43/43/43 53/53/53 47/47/47
f 53/53/53 43/43/43 54/54/54
f 55/55/55 51/51/51 47/47/47
f 47/47/47 53/53/53 55/55/55
f 52/52/52 51/51/51 55/55/55
f 55/55/55 53/53/53 54/54/54
f 55/55/55 56/56/56 52/52/52
f 57/57/57 56/56/56 55/55/55
f 55/55/55 58/58/58 57/57/57
f 54/54/54 58/58/58 55/55/55
f 59/59/59 58/58/58 54/54/54
f 54/54/54 60/60/60 59/59/59
f 61/61/61 49/49/49 50/50/50
f 50/50/50 62/62/62 61/61/61
f 61/61/61 62/62/62 63/63/63
f 63/63/63 64/64/64 61/61/61
f 49/49/49 61/61/61 65/65/65
f 65/65/65 61/61/61 64/64/64
f 66/66/66 46/46/46 49/49/49
f 65/65/65 66/66/66 49/49/49
f 66/66/66 67/67/67 46/46/46
f 68/68/68 67/67/67 66/66/66
f 66/66/66 69/69/69 68/68/68
f 69/69/69 66/66/66 65/65/65
f 70/70/70 68/68/68 69/69/69
f 64/64/64 71/71/71 65/65/65
f 71/71/71 64/64/64 72/72/72
f 72/72/72 73/73/73 71/71/71
f 73/73/73 74/74/74 71/71/71
f 65/65/65 71/71/71 74/74/74
f 65/65/65 74/74/74 75/75/75
f 75/75/75 76/76/76 65/65/65
f 65/65/65 76/76/76 77/77/77
f 77/77/77 78/78/78 65/65/65
f 65/65/65 78/78/78 69/69/69
f 78/78/78 77/77/77 79/79/79
f 80/80/80 78/78/78 79/79/79
f 78/78/78 80/80/80 69/69/69
f 70/70/70 69/69/69 80/80/80
f 80/80/80 81/81/81 70/70/70
f 82/82/82 70/70/70 81/81/81
f 84/84/84 83/83/83 82/82/82
f 84/84/84 85/85/85 83/83/83
f 86/86/86 83/83/83 85/85/85
f 88/88/88 87/87/87 86/86/86
f 86/86/86 89/89/89 88/88/88
f 89/89/89 86/86/86 85/85/85
f 85/85/85 90/90/90 89/89/89
f 90/90/90 85/85/85 84/84/84
f 91/91/91 89/89/89 90/90/90
f 90/90/90 92/92/92 91/91/91
f 84/84/84 93/93/93 90/90/90
f 92/92/92 90/90/90 93/93/93
f 84/84/84 94/94/94 93/93/93
f 93/93/93 95/95/95 92/92/92
f 94/94/94 95/95/95 93/93/93
f 98/98/98 97/97/97 96/96/96
f 96/96/96 99/99/99 98/98/98
f 100/100/100 98/98/98 99/99/99
f 100/100/100 99/99/99 101/101/101
f 101/101/101 102/102/102 100/100/100
f 100/100/100 102/102/102 103/103/103
f 103/103/103 104/104/104 100/100/100
f 105/105/105 104/104/104 103/103/103
f 103/103/103 106/106/106 105/105/105
f 105/105/105 106/106/106 107/107/107
f 107/107/107 108/108/108 105/105/105
f 109/109/109 108/108/108 107/107/107
f 107/107/107 110/110/110 109/109/109
f 108/108/108 109/109/109 111/111/111
f 114/114/114 113/113/113 112/112/112
f 112/112/112 115/115/115 114/114/114
f 116/116/116 114/114/114 115/115/115
f 119/119/119 118/118/118 117/117/117
f 117/117/117 120/120/120 119/119/119
f 119/119/119 120/120/120 121/121/121
f 124/124/124 123/123/123 122/122/122
f 122/122/122 125/125/125 124/124/124
f 126/126/126 124/124/124 125/125/125
f 129/129/129 128/128/128 127/127/127
f 127/127/127 130/130/130 129/129/129
f 131/131/131 129/129/129 130/130/130
f 134/134/134 133/133/133 132/132/132
f 132/132/132 135/135/135 134/134/134
f 136/136/136 134/134/134 135/135/135
f 135/135/135 137/137/137 136/136/136
f 138/138/138 136/136/136 137/137/137
f 141/141/141 140/140/140 139/139/139
f 142/142/142 140/140/140 141/141/141
f 141/141/141 143/143/143 142/142/142
f 144/144/144 142/142/142 143/143/143
f 147/147/147 146/146/146 145/145/145
f 148/148/148 147/147/147 145/145/145
f 149/149/149 148/148/148 145/145/145
f 148/148/148 151/151/151 150/150/150
f 152/152/152 151/151/151 148/148/148
f 149/149/149 154/154/154 153/153/153
f 148/148/148 155/155/155 152/152/152
f 155/155/155 148/148/148 149/149/149
f 153/153/153 156/156/156 149/149/149
f 149/149/149 156/156/156 155/155/155
f 156/156/156 153/153/153 157/157/157
f 155/155/155 156/156/156 157/157/157
f 152/152/152 155/155/155 158/158/158
f 157/157/157 158/158/158 155/155/155
f 158/158/158 159/159/159 152/152/152
f 158/158/158 157/157/157 160/160/160
f 160/160/160 161/161/161 158/158/158
f 164/164/164 163/163/163 162/162/162
f 162/162/162 165/165/165 164/164/164
f 165/165/165 162/162/162 166/166/166
f 169/169/169 168/168/168 167/167/167
f 167/167/167 170/170/170 169/169/169
f 167/167/167 171/171/171 170/170/170
f 172/172/172 170/170/170 171/171/171
f 171/171/171 173/173/173 172/172/172
f 175/175/175 172/172/172 174/174/174
f 174/174/174 172/172/172 176/176/176
f 173/173/173 176/176/176 172/172/172
f 176/176/176 173/173/173 177/177/177
f 177/177/177 178/178/178 176/176/176
f 181/181/181 180/180/180 179/179/179
f 179/179/179 182/182/182 181/181/181
f 182/182/182 179/179/179 183/183/183
f 183/183/183 184/184/184 182/182/182
f 184/184/184 183/183/183 185/185/185
f 185/185/185 186/186/186 184/184/184
f 189/189/189 188/188/188 187/187/187
f 187/187/187 190/190/190 189/189/189
f 190/190/190 187/187/187 191/191/191
f 191/191/191 192/192/192 190/190/190
f 193/193/193 190/190/190 192/192/192
f 192/192/192 191/191/191 194/194/194
f 192/192/192 195/195/195 193/193/193
f 194/194/194 196/196/196 192/192/192
f 195/195/195 192/192/192 196/196/196
f 199/199/199 198/198/198 197/197/197
f 197/197/197 200/200/200 199/199/199
f 200/200/200 197/197/197 201/201/201
f 201/201/201 202/202/202 200/200/200
f 202/202/202 201/201/201 203/203/203
f 203/203/203 204/204/204 202/202/202
f 205/205/205 204/204/204 203/203/203
f 203/203/203 206/206/206 205/205/205
f 205/205/205 206/206/206 207/207/207
f 207/207/207 208/208/208 205/205/205
f 209/209/209 208/208/208 207/207/207
f 207/207/207 210/210/210 209/209/209
f 213/213/213 212/212/212 211/211/211
f 211/211/211 214/214/214 213/213/213
f 214/214/214 211/211/211 215/215/215
f 215/215/215 216/216/216 214/214/214
f 215/215/215 217/217/217 216/216/216
f 219/219/219 215/215/215 218/218/218
f 220/220/220 215/215/215 219/219/219
f 215/215/215 220/220/220 217/217/217
f 221/221/221 217/217/217 220/220/220
f 220/220/220 222/222/222 221/221/221
f 225/225/225 224/224/224 223/223/223
f 223/223/223 226/226/226 225/225/225
f 225/225/225 226/226/226 227/227/227
f 227/227/227 228/228/228 225/225/225
f 228/228/228 227/227/227 229/229/229
f 229/229/229 230/230/230 228/228/228
f 230/230/230 229/229/229 231/231/231
f 231/231/231 232/232/232 230/230/230
f 233/233/233 232/232/232 231/231/231
f 231/231/231 234/234/234 233/233/233
f 237/237/237 236/236/236 235/235/235
f 235/235/235 238/238/238 237/237/237
f 237/237/237 238/238/238 239/239/239
f 239/239/239 238/238/238 240/240/240
f 239/239/239 241/241/241 237/237/237
f 240/240/240 242/242/242 239/239/239
f 244/244/244 243/243/243 241/241/241
f 245/245/245 239/239/239 242/242/242
f 242/242/242 246/246/246 245/245/245
f 247/247/247 241/241/241 239/239/239
f 239/239/239 245/245/245 247/247/247
f 241/241/241 247/247/247 244/244/244
f 247/247/247 245/245/245 248/248/248
f 249/249/249 244/244/244 247/247/247
f 248/248/248 249/249/249 247/247/247
f 252/252/252 251/251/251 250/250/250
f 250/250/250 253/253/253 252/252/252
f 252/252/252 253/253/253 254/254/254
f 254/254/254 253/253/253 255/255/255
f 255/255/255 256/256/256 254/254/254
f 254/254/254 257/257/257 252/252/252
f 258/258/258 257/257/257 254/254/254
f 254/254/254 259/259/259 258/258/258
f 258/258/258 259/259/259 260/260/260
f 260/260/260 261/261/261 258/258/258
f 261/261/261 262/262/262 258/258/258
f 265/265/265 264/264/264 263/263/263
f 263/263/263 266/266/266 265/265/265
f 265/265/265 266/266/266 267/267/267
f 267/267/267 268/268/268 265/265/265
f 269/269/269 268/268/268 267/267/267
f 267/267/267 270/270/270 269/269/269
f 269/269/269 270/270/270 271/271/271
f 271/271/271 272/272/272 269/269/269
f 273/273/273 272/272/272 271/271/271
f 271/271/271 274/274/274 273/273/273
f 273/273/273 274/274/274 275/275/275
f 275/275/275 276/276/276 273/273/273
f 279/279/279 278/278/278 277/277/277
f 277/277/277 280/280/280 279/279/279
f 281/281/281 280/280/280 277/277/277
f 277/277/277 282/282/282 281/281/281
f 281/281/281 282/282/282 283/283/283
f 283/283/283 284/284/284 281/281/281
f 287/287/287 286/286/286 285/285/285
f 285/285/285 288/288/288 287/287/287
f 290/290/290 289/289/289 288/288/288
f 291/291/291 288/288/288 285/285/285
f 288/288/288 291/291/291 290/290/290
f 285/285/285 292/292/292 291/291/291
f 293/293/293 290/290/290 291/291/291
f 291/291/291 292/292/292 294/294/294
f 291/291/291 295/295/295 293/293/293
f 294/294/294 295/295/295 291/291/291
f 298/298/298 297/297/297 296/296/296
f 296/296/296 299/299/299 298/298/298
f 296/296/296 300/300/300 299/299/299
f 300/300/300 296/296/296 301/301/301
f 300/300/300 301/301/301 302/302/302
f 302/302/302 303/303/303 300/300/300
f 306/306/306 305/305/305 304/304/304
f 304/304/304 307/307/307 306/306/306
f 308/308/308 307/307/307 304/304/304
f 304/304/304 309/309/309 308/308/308
f 308/308/308 309/309/309 310/310/310
f 310/310/310 311/311/311 308/308/308
f 314/314/314 313/313/313 312/312/312
f 312/312/312 315/315/315 314/314/314
f 314/314/314 315/315/315 316/316/316
f 315/315/315 312/312/312 317/317/317
f 315/315/315 318/318/318 316/316/316
f 317/317/317 318/318/318 315/315/315
f 319/319/319 316/316/316 318/318/318
f 318/318/318 317/317/317 320/320/320
f 321/321/321 319/319/319 318/318/318
f 320/320/320 322/322/322 318/318/318
f 318/318/318 322/322/322 321/321/321
f 325/325/325 324/324/324 323/323/323
f 323/323/323 326/326/326 325/325/325
f 327/327/327 325/325/325 326/326/326
f 326/326/326 323/323/323 328/328/328
f 326/326/326 329/329/329 327/327/327
f 328/328/328 330/330/330 326/326/326
f 331/331/331 329/329/329 326/326/326
f 326/326/326 330/330/330 331/331/331
f 334/334/334 333/333/333 332/332/332
f 332/332/332 335/335/335 334/334/334
f 335/335/335 332/332/332 336/336/336
f 336/336/336 337/337/337 335/335/335
f 338/338/338 335/335/335 337/337/337
f 339/339/339 336/336/336 332/332/332
f 332/332/332 340/340/340 339/339/339
f 339/339/339 340/340/340 341/341/341
f 341/341/341 342/342/342 339/339/339
f 337/337/337 343/343/343 338/338/338
f 344/344/344 338/338/338 343/343/343
f 342/342/342 345/345/345 339/339/339
f 336/336/336 339/339/339 345/345/345
f 346/346/346 337/337/337 336/336/336
f 345/345/345 346/346/346 336/336/336
f 343/343/343 337/337/337 346/346/346
f 347/347/347 345/345/345 342/342/342
f 342/342/342 348/348/348 347/347/347
f 345/345/345 349/349/349 346/346/346
f 346/346/346 349/349/349 343/343/343
f 350/350/350 345/345/345 347/347/347
f 349/349/349 345/345/345 350/350/350
f 343/343/343 351/351/351 344/344/344
f 351/351/351 343/343/343 349/349/349
f 352/352/352 344/344/344 351/351/351
f 350/350/350 353/353/353 349/349/349
f 351/351/351 349/349/349 353/353/353
f 347/347/347 353/353/353 350/350/350
f 351/351/351 353/353/353 352/352/352
f 354/354/354 347/347/347 348/348/348
f 353/353/353 347/347/347 354/354/354
f 354/354/354 348/348/348 355/355/355
f 355/355/355 356/356/356 354/354/354
f 354/354/354 356/356/356 357/357/357
f 352/352/352 353/353/353 358/358/358
f 358/358/358 357/357/357 352/352/352
f 354/354/354 358/358/358 353/353/353
f 357/357/357 358/358/358 354/354/354
f 361/361/361 360/360/360 359/359/359
f 359/359/359 362/362/362 361/361/361
f 363/363/363 362/362/362 359/359/359
f 365/365/365 364/364/364 363/363/363
f 359/359/359 366/366/366 363/363/363
f 363/363/363 366/366/366 365/365/365
f 366/366/366 359/359/359 367/367/367
f 365/365/365 366/366/366 368/368/368
f 367/367/367 368/368/368 366/366/366
f 371/371/371 370/370/370 369/369/369
f 369/369/369 372/372/372 371/371/371
f 373/373/373 372/372/372 369/369/369
f 369/369/369 374/374/374 373/373/373
f 369/369/369 375/375/375 374/374/374
f 373/373/373 374/374/374 376/376/376
f 376/376/376 374/374/374 375/375/375
f 376/376/376 377/377/377 373/373/373
f 375/375/375 378/378/378 376/376/376
f 381/381/381 380/380/380 379/379/379
f 379/379/379 382/382/382 381/381/381
f 384/384/384 383/383/383 381/381/381
f 381/381/381 385/385/385 384/384/384
f 386/386/386 384/384/384 385/385/385
f 387/387/387 384/384/384 386/386/386
f 386/386/386 388/388/388 387/387/387
f 389/389/389 388/388/388 386/386/386
f 386/386/386 390/390/390 389/389/389
f 390/390/390 386/386/386 385/385/385
f 389/389/389 390/390/390 391/391/391
f 385/385/385 391/391/391 390/390/390
f 391/391/391 392/392/392 389/389/389
f 393/393/393 392/392/392 391/391/391
f 391/391/391 394/394/394 393/393/393
f 395/395/395 391/391/391 385/385/385
f 385/385/385 381/381/381 395/395/395
f 391/391/391 396/396/396 394/394/394
f 395/395/395 396/396/396 391/391/391
f 395/395/395 381/381/381 396/396/396
f 397/397/397 394/394/394 396/396/396
f 381/381/381 382/382/382 396/396/396
f 398/398/398 397/397/397 396/396/396
f 382/382/382 399/399/399 396/396/396
f 396/396/396 399/399/399 398/398/398
f 382/382/382 400/400/400 399/399/399
f 400/400/400 382/382/382 401/401/401
f 401/401/401 402/402/402 400/400/400
f 399/399/399 403/403/403 398/398/398
f 404/404/404 398/398/398 403/403/403
f 403/403/403 405/405/405 404/404/404
f 406/406/406 405/405/405 403/403/403
f 399/399/399 400/400/400 407/407/407
f 407/407/407 403/403/403 399/399/399
f 400/400/400 402/402/402 407/407/407
f 403/403/403 407/407/407 406/406/406
f 407/407/407 402/402/402 408/408/408
f 408/408/408 406/406/406 407/407/407
f 411/411/411 410/410/410 409/409/409
f 414/414/414 413/413/413 412/412/412
f 417/417/417 416/416/416 415/415/415
f 420/420/420 419/419/419 418/418/418
f 418/418/418 421/421/421 420/420/420
f 424/424/424 423/423/423 422/422/422
f 422/422/422 425/425/425 424/424/424
f 428/428/428 427/427/427 426/426/426
f 426/426/426 429/429/429 428/428/428
f 432/432/432 431/431/431 430/430/430
f 430/430/430 433/433/433 432/432/432
f 436/436/436 435/435/435 434/434/434
f 434/434/434 437/437/437 436/436/436
f 437/437/437 438/438/438 436/436/436
f 438/438/438 437/437/437 439/439/439
f 439/439/439 440/440/440 438/438/438
f 441/441/441 439/439/439 437/437/437
f 440/440/440 439/439/439 441/441/441
f 441/441/441 442/442/442 440/440/440
f 443/443/443 442/442/442 441/441/441
f 441/441/441 444/444/444 443/443/443
f 447/447/447 446/446/446 445/445/445
f 445/445/445 448/448/448 447/447/447
f 448/448/448 445/445/445 449/449/449
f 449/449/449 450/450/450 448/448/448
f 450/450/450 451/451/451 448/448/448
f 450/450/450 449/449/449 452/452/452
f 451/451/451 450/450/450 453/453/453
f 452/452/452 453/453/453 450/450/450
f 453/453/453 454/454/454 451/451/451
f 453/453/453 452/452/452 455/455/455
f 456/456/456 454/454/454 453/453/453
f 455/455/455 456/456/456 453/453/453
f 457/457/457 456/456/456 455/455/455
f 455/455/455 458/458/458 457/457/457
f 461/461/461 460/460/460 459/459/459
f 459/459/459 462/462/462 461/461/461
f 462/462/462 459/459/459 463/463/463
f 463/463/463 464/464/464 462/462/462
f 467/467/467 466/466/466 465/465/465
f 465/465/465 468/468/468 467/467/467
f 468/468/468 465/465/465 469/469/469
f 469/469/469 470/470/470 468/468/468
f 470/470/470 469/469/469 471/471/471
f 471/471/471 472/472/472 470/470/470
f 473/473/473 472/472/472 471/471/471
f 471/471/471 474/474/474 473/473/473
f 477/477/477 476/476/476 475/475/475
f 475/475/475 478/478/478 477/477/477
f 478/478/478 475/475/475 479/479/479
f 479/479/479 480/480/480 478/478/478
f 480/480/480 479/479/479 481/481/481
f 481/481/481 482/482/482 480/480/480
f 483/483/483 482/482/482 481/481/481
f 481/481/481 484/484/484 483/483/483
f 44/44/44 486/486/486 485/485/485
f 485/485/485 487/487/487 44/44/44
f 488/488/488 44/44/44 487/487/487
f 487/487/487 485/485/485 489/489/489
f 487/487/487 490/490/490 488/488/488
f 488/488/488 490/490/490 42/42/42
f 491/491/491 42/42/42 490/490/490
f 490/490/490 492/492/492 491/491/491
f 489/489/489 493/493/493 487/487/487
f 490/490/490 487/487/487 493/493/493
f 493/493/493 489/489/489 494/494/494
f 495/495/495 494/494/494 489/489/489
f 495/495/495 496/496/496 492/492/492
f 492/492/492 494/494/494 495/495/495
f 493/493/493 497/497/497 490/490/490
f 494/494/494 497/497/497 493/493/493
f 492/492/492 490/490/490 497/497/497
f 497/497/497 494/494/494 492/492/492
