mtllib SM_Rock_08.mtl
g SM_Rock_08
#Vertices 23
#Indices 78
#Section 0 Offset 0 NumIndices 78 MaterialIndex 0 MI_Small_Rocks_01
v -0.018613 0.023536 -0.004758
v 0.008487 0.000128 -0.020432
v -0.004971 0.013099 -0.020150
v -0.018245 0.001165 0.006817
v -0.020006 0.015822 0.012659
v 0.018958 0.000582 -0.005055
v 0.021164 0.008451 -0.022754
v 0.026665 0.015491 0.008568
v 0.000000 0.000000 0.011389
v 0.021480 0.027172 0.014654
v -0.007623 0.028665 0.011102
v -0.017432 0.007973 0.018298
v 0.008487 0.000128 -0.020432
v 0.021164 0.008451 -0.022754
v -0.004971 0.013099 -0.020150
v 0.018776 0.018998 -0.018161
v 0.026665 0.015491 0.008568
v 0.021480 0.027172 0.014654
v 0.007399 0.029004 -0.011213
v -0.007623 0.028665 0.011102
v -0.012635 0.029234 -0.007881
v -0.018613 0.023536 -0.004758
v -0.020006 0.015822 0.012659
vt 0.427246 0.653076
vt 0.426758 0.576416
vt 0.440186 0.610352
vt 0.395752 0.633545
vt 0.380615 0.654053
vt 0.391846 0.568604
vt 0.412598 0.543457
vt 0.352539 0.564941
vt 0.382568 0.609619
vt 0.329346 0.586182
vt 0.348389 0.639404
vt 0.379639 0.642822
vt 0.246094 0.018066
vt 0.269287 0.002441
vt 0.256836 0.050293
vt 0.282959 0.016113
vt 0.329346 0.001465
vt 0.342773 0.024902
vt 0.293701 0.040039
vt 0.322510 0.076660
vt 0.287842 0.072266
vt 0.283447 0.085938
vt 0.312012 0.109375
vt1 0.454834 0.792603
vt1 0.453613 0.585693
vt1 0.489746 0.677490
vt1 0.369873 0.740234
vt1 0.329346 0.795410
vt1 0.359375 0.564697
vt1 0.415283 0.497070
vt1 0.253418 0.555176
vt1 0.334229 0.675537
vt1 0.191040 0.612305
vt1 0.242065 0.755981
vt1 0.326660 0.764893
vt1 0.490967 0.236816
vt1 0.559570 0.191406
vt1 0.522949 0.332031
vt1 0.599609 0.231445
vt1 0.737305 0.187988
vt1 0.776367 0.258301
vt1 0.631836 0.301758
vt1 0.716797 0.411133
vt1 0.614258 0.397461
vt1 0.601562 0.437012
vt1 0.685547 0.506592
vn -0.834646 -0.338583 -0.440945
vn -0.047244 -0.960630 -0.267716
vn -0.692913 -0.716535 -0.125984
vn -0.685039 -0.724409 -0.039370
vn -0.834646 0.181102 0.519685
vn 0.543307 -0.834646 0.078740
vn 0.685039 -0.692913 -0.220472
vn 0.519685 -0.519685 0.677165
vn 0.141732 -0.826771 0.543307
vn 0.173228 -0.157480 0.968504
vn -0.110236 0.220473 0.968504
vn -0.496063 -0.220472 0.842520
vn -0.118110 -0.102362 -0.992126
vn 0.354331 0.299212 -0.881890
vn -0.165354 0.385827 -0.905512
vn 0.519685 0.574803 -0.637795
vn 0.866142 0.448819 -0.196850
vn 0.527559 0.842520 -0.118110
vn 0.141732 0.874016 -0.456693
vn -0.307087 0.944882 0.118110
vn -0.456693 0.803149 -0.377953
vn -0.708661 0.700787 -0.078740
vn -0.669291 0.708661 0.228346
tan 0.527807 -0.723541 -0.443487 1.000000
tan 0.958770 0.030256 -0.277761 1.000000
tan 0.699113 -0.608097 -0.386571 1.000000
tan 0.709343 -0.657263 -0.248930 1.000000
tan 0.074648 -0.900118 0.433567 1.000000
tan 0.742390 0.435303 -0.508277 1.000000
tan 0.570897 0.699423 -0.424329 1.000000
tan 0.796826 0.013020 -0.601525 1.000000
tan 0.887594 -0.138012 -0.441565 1.000000
tan 0.922376 -0.303925 -0.214396 1.000000
tan 0.947424 -0.277451 0.170996 1.000000
tan 0.722860 -0.649575 0.255627 1.000000
tan 0.919896 -0.398599 -0.068386 1.000000
tan 0.826338 -0.531217 0.151776 1.000000
tan 0.927212 -0.240250 -0.271684 1.000000
tan 0.790564 -0.607849 0.096348 1.000000
tan 0.466117 -0.875132 0.055614 1.000000
tan 0.832972 -0.540641 -0.135966 1.000000
tan 0.933536 -0.265485 -0.218364 1.000000
tan 0.894662 0.328291 -0.300205 1.000000
tan 0.815426 0.214272 -0.529977 1.000000
tan 0.533883 0.460661 -0.705065 1.000000
tan 0.627503 0.703019 -0.342551 1.000000
f 3/3/3 2/2/2 1/1/1
f 1/1/1 2/2/2 4/4/4
f 4/4/4 5/5/5 1/1/1
f 4/4/4 2/2/2 6/6/6
f 2/2/2 7/7/7 6/6/6
f 7/7/7 8/8/8 6/6/6
f 8/8/8 9/9/9 6/6/6
f 9/9/9 4/4/4 6/6/6
f 9/9/9 8/8/8 10/10/10
f 10/10/10 11/11/11 5/5/5
f 4/4/4 9/9/9 12/12/12
f 5/5/5 4/4/4 12/12/12
f 12/12/12 9/9/9 10/10/10
f 10/10/10 5/5/5 12/12/12
f 15/15/15 14/14/14 13/13/13
f 14/14/14 15/15/15 16/16/16
f 16/16/16 17/17/17 14/14/14
f 18/18/18 17/17/17 16/16/16
f 18/18/18 16/16/16 19/19/19
f 16/16/16 15/15/15 19/19/19
f 20/20/20 18/18/18 19/19/19
f 15/15/15 21/21/21 19/19/19
f 20/20/20 19/19/19 21/21/21
f 21/21/21 15/15/15 22/22/22
f 23/23/23 20/20/20 21/21/21
f 22/22/22 23/23/23 21/21/21
