mtllib SM_Rock_03.mtl
g SM_Rock_03
#Vertices 41
#Indices 144
#Section 0 Offset 0 NumIndices 144 MaterialIndex 0 MI_Small_Rocks_01
v 0.013782 0.016216 0.025782
v 0.011498 -0.000199 0.026842
v 0.012236 0.008011 0.027476
v 0.026885 0.016466 0.014602
v 0.024976 0.000471 0.013527
v 0.028320 0.004864 0.001190
v 0.026243 0.016733 0.000182
v 0.029543 0.000327 0.005176
v 0.018707 0.016988 -0.011652
v 0.021478 0.007880 -0.005370
v 0.014313 -0.000426 -0.017029
v 0.014189 0.008904 -0.015685
v 0.006707 0.013524 -0.027476
v -0.002182 0.016712 -0.021830
v 0.000000 -0.000000 -0.026118
v -0.008984 0.007465 -0.017886
v -0.017452 0.016901 -0.006636
v -0.011900 0.000337 -0.014202
v -0.025700 0.016763 0.001647
v -0.024163 0.000243 0.002378
v -0.011900 0.000337 -0.014202
v 0.014313 -0.000426 -0.017029
v 0.000000 -0.000000 -0.026118
v -0.004270 -0.000048 0.018520
v 0.029543 0.000327 0.005176
v 0.024976 0.000471 0.013527
v -0.024163 0.000243 0.002378
v 0.011498 -0.000199 0.026842
v 0.002450 0.011780 0.023582
v 0.012236 0.008011 0.027476
v 0.013782 0.016216 0.025782
v -0.005564 0.007260 0.015325
v 0.026243 0.016733 0.000182
v 0.026885 0.016466 0.014602
v -0.004183 0.016582 0.017562
v 0.018707 0.016988 -0.011652
v -0.020079 0.011061 0.009502
v -0.025700 0.016763 0.001647
v -0.016035 0.016920 0.011770
v -0.002182 0.016712 -0.021830
v -0.017452 0.016901 -0.006636
vt 0.693359 0.215332
vt 0.697754 0.187500
vt 0.697754 0.201660
vt 0.664062 0.215332
vt 0.665527 0.187988
vt 0.643066 0.193848
vt 0.639648 0.214355
vt 0.649414 0.185547
vt 0.615723 0.214844
vt 0.626953 0.198242
vt 0.602539 0.183594
vt 0.605957 0.200195
vt 0.583984 0.208496
vt 0.574219 0.221191
vt 0.571289 0.189941
vt 0.556641 0.209961
vt 0.540039 0.233398
vt 0.544922 0.201172
vt 0.520996 0.240234
vt 0.511719 0.213379
vt 0.251953 0.251465
vt 0.284668 0.282715
vt 0.255859 0.279785
vt 0.296387 0.216309
vt 0.329590 0.268066
vt 0.332520 0.250977
vt 0.252930 0.215332
vt 0.326416 0.218262
vt 0.311035 0.197266
vt 0.328613 0.203613
vt 0.329590 0.187988
vt 0.291992 0.204590
vt 0.328613 0.139160
vt 0.340820 0.160645
vt 0.296143 0.188965
vt 0.307129 0.126465
vt 0.266357 0.197266
vt 0.251221 0.185547
vt 0.274414 0.188965
vt 0.266113 0.128418
vt 0.255615 0.164551
vt1 0.795410 0.363770
vt1 0.823730 0.271484
vt1 0.816406 0.318848
vt1 0.695801 0.350098
vt1 0.713867 0.257812
vt1 0.635254 0.266113
vt1 0.613770 0.333496
vt1 0.660156 0.240234
vt1 0.532715 0.323242
vt1 0.578125 0.272461
vt1 0.502930 0.211914
vt1 0.506348 0.269043
vt1 0.428223 0.286621
vt1 0.388916 0.324219
vt1 0.393066 0.216797
vt1 0.333984 0.277344
vt1 0.265381 0.348633
vt1 0.298096 0.242676
vt1 0.198608 0.361816
vt1 0.180420 0.267090
vt1 0.675293 0.751831
vt1 0.765625 0.657227
vt1 0.757324 0.740723
vt1 0.574219 0.624023
vt1 0.722656 0.528320
vt1 0.673828 0.520020
vt1 0.571777 0.749023
vt1 0.580078 0.537109
vt1 0.519043 0.581787
vt1 0.537109 0.530762
vt1 0.492676 0.528076
vt1 0.540527 0.636719
vt1 0.352295 0.531006
vt1 0.414307 0.496094
vt1 0.494873 0.624756
vt1 0.315430 0.592529
vt1 0.519043 0.710693
vt1 0.486084 0.753906
vt1 0.495117 0.687500
vt1 0.320557 0.711182
vt1 0.425049 0.741699
vn 0.677165 -0.047244 0.732283
vn 0.708661 -0.086614 0.700787
vn 0.937008 -0.110236 0.322835
vn 0.897638 -0.039370 0.440945
vn 0.858268 -0.047244 0.511811
vn 0.897638 -0.181102 -0.401575
vn 0.937008 0.133858 -0.322835
vn 0.913386 0.401575 0.086614
vn 0.787402 0.031496 -0.622047
vn 0.732283 -0.141732 -0.669291
vn 0.771654 -0.023622 -0.637795
vn 0.826772 -0.023622 -0.559055
vn 0.251969 0.385827 -0.889764
vn -0.464567 0.433071 -0.771653
vn -0.204724 -0.094488 -0.976378
vn -0.708661 0.070866 -0.700787
vn -0.716535 0.094488 -0.685039
vn -0.763780 -0.031496 -0.645669
vn -0.763780 -0.023622 -0.645669
vn -0.803150 -0.102362 -0.590551
vn -0.023622 -1.000000 -0.007874
vn -0.007874 -1.000000 0.007874
vn -0.031496 -1.000000 0.000000
vn -0.480315 -0.653543 0.590551
vn 0.023622 -1.000000 0.023622
vn 0.023622 -1.000000 0.015748
vn -0.448819 -0.748031 0.488189
vn -0.267717 -0.779527 0.559055
vn -0.480315 0.188976 0.858268
vn -0.338583 0.086614 0.937008
vn -0.149606 0.858268 0.480315
vn -0.614173 0.015748 0.787401
vn 0.007874 1.000000 0.023622
vn 0.000000 1.000000 0.015748
vn -0.377953 0.700787 0.606299
vn 0.000000 1.000000 0.007874
vn -0.622047 -0.086614 0.779527
vn -0.535433 0.740157 0.401575
vn -0.377953 0.669291 0.645669
vn -0.007874 1.000000 -0.007874
vn 0.000000 1.000000 -0.000000
tan -0.026226 -0.994792 -0.039928 1.000000
tan -0.050344 -0.993304 -0.071858 1.000000
tan -0.086366 -0.992126 -0.088102 1.000000
tan -0.014508 -1.000186 -0.059768 1.000000
tan -0.012338 -0.998574 -0.071486 1.000000
tan -0.197036 -0.977990 0.000620 1.000000
tan 0.116312 -0.992126 -0.073780 1.000000
tan 0.404551 -0.911650 -0.039432 1.000000
tan 0.024800 -1.006944 -0.019592 1.000000
tan -0.131254 -0.989956 0.066030 1.000000
tan 0.022134 -0.996156 0.063674 1.000000
tan -0.015128 -0.996094 0.019716 1.000000
tan 0.332879 -0.894972 -0.293818 1.000000
tan 0.164734 -0.811024 -0.554343 1.000000
tan 0.352161 -0.938558 0.016988 1.000000
tan 0.196478 -0.937690 -0.293508 1.000000
tan 0.175584 -0.932172 -0.312232 1.000000
tan 0.251348 -0.933660 -0.251782 1.000000
tan 0.240808 -0.939674 -0.250480 1.000000
tan 0.283589 -0.931304 -0.224254 1.000000
tan -0.630107 0.008742 0.780085 1.000000
tan -0.606237 0.011036 0.795337 1.000000
tan -0.614173 0.019344 0.788145 1.000000
tan -0.411681 0.762911 0.509455 1.000000
tan -0.567673 0.005952 0.819641 1.000000
tan -0.520057 0.001116 0.850952 1.000000
tan -0.506541 0.661417 0.547771 1.000000
tan -0.369211 0.619691 0.687271 1.000000
tan 0.099014 0.984624 -0.161386 1.000000
tan 0.066898 0.995288 -0.067828 1.000000
tan 0.347077 0.499039 -0.783619 1.000000
tan 0.003472 0.997210 -0.017236 1.000000
tan 0.433443 0.017794 -0.897762 1.000000
tan 0.448943 0.014012 -0.889764 1.000000
tan 0.364933 0.714985 -0.598921 1.000000
tan 0.448881 0.007006 -0.889764 1.000000
tan -0.122078 0.993366 0.012958 1.000000
tan 0.507223 0.660859 -0.541757 1.000000
tan 0.311489 0.748837 -0.593899 1.000000
tan 0.503999 -0.002852 -0.866204 1.000000
tan 0.590551 -0.000000 -0.803149 1.000000
f 3/3/3 2/2/2 1/1/1
f 1/1/1 2/2/2 4/4/4
f 2/2/2 5/5/5 4/4/4
f 5/5/5 6/6/6 4/4/4
f 7/7/7 4/4/4 6/6/6
f 6/6/6 5/5/5 8/8/8
f 9/9/9 7/7/7 6/6/6
f 6/6/6 8/8/8 10/10/10
f 6/6/6 10/10/10 9/9/9
f 8/8/8 11/11/11 10/10/10
f 9/9/9 10/10/10 12/12/12
f 10/10/10 11/11/11 12/12/12
f 12/12/12 13/13/13 9/9/9
f 12/12/12 11/11/11 13/13/13
f 9/9/9 13/13/13 14/14/14
f 15/15/15 13/13/13 11/11/11
f 13/13/13 15/15/15 14/14/14
f 15/15/15 16/16/16 14/14/14
f 17/17/17 14/14/14 16/16/16
f 16/16/16 15/15/15 18/18/18
f 17/17/17 16/16/16 18/18/18
f 19/19/19 17/17/17 18/18/18
f 18/18/18 20/20/20 19/19/19
f 23/23/23 22/22/22 21/21/21
f 21/21/21 22/22/22 24/24/24
f 22/22/22 25/25/25 24/24/24
f 25/25/25 26/26/26 24/24/24
f 24/24/24 27/27/27 21/21/21
f 26/26/26 28/28/28 24/24/24
f 28/28/28 29/29/29 24/24/24
f 28/28/28 30/30/30 29/29/29
f 30/30/30 31/31/31 29/29/29
f 24/24/24 32/32/32 27/27/27
f 32/32/32 24/24/24 29/29/29
f 34/34/34 33/33/33 31/31/31
f 31/31/31 35/35/35 29/29/29
f 33/33/33 35/35/35 31/31/31
f 29/29/29 35/35/35 32/32/32
f 36/36/36 35/35/35 33/33/33
f 32/32/32 37/37/37 27/27/27
f 37/37/37 38/38/38 27/27/27
f 32/32/32 35/35/35 39/39/39
f 37/37/37 32/32/32 39/39/39
f 39/39/39 35/35/35 36/36/36
f 38/38/38 37/37/37 39/39/39
f 40/40/40 39/39/39 36/36/36
f 39/39/39 41/41/41 38/38/38
f 39/39/39 40/40/40 41/41/41
