mtllib SM_Rock_02.mtl
g SM_Rock_02
#Vertices 42
#Indices 132
#Section 0 Offset 0 NumIndices 132 MaterialIndex 0 MI_Small_Rocks_01
v -0.027410 0.008463 -0.000236
v -0.026054 0.011398 0.016866
v -0.027388 0.000441 0.011660
v -0.027252 0.000295 -0.018499
v -0.027012 0.010233 -0.018522
v -0.019068 0.002471 -0.024541
v -0.016993 0.014383 -0.023942
v -0.009107 0.000020 -0.017858
v -0.005901 0.013553 -0.024687
v 0.002095 0.007065 -0.024898
v 0.018069 0.000129 -0.017563
v 0.012259 0.012537 -0.020368
v 0.027096 0.001815 -0.008497
v 0.013114 0.017986 -0.008360
v 0.015817 0.018011 0.000435
v 0.027410 0.008144 0.000300
v 0.008887 0.017124 0.018652
v 0.015973 0.001020 0.013533
v 0.008486 0.007943 0.024043
v 0.005118 0.000000 0.018992
v 0.027096 0.001815 -0.008497
v 0.018069 0.000129 -0.017563
v 0.015973 0.001020 0.013533
v -0.009107 0.000020 -0.017858
v -0.027252 0.000295 -0.018499
v -0.017164 -0.000164 0.022577
v -0.027388 0.000441 0.011660
v 0.005118 0.000000 0.018992
v -0.026054 0.011398 0.016866
v 0.008486 0.007943 0.024043
v -0.012113 0.008689 0.024898
v -0.021081 0.017952 0.015132
v 0.008887 0.017124 0.018652
v -0.019254 0.017944 0.003472
v -0.027410 0.008463 -0.000236
v 0.015817 0.018011 0.000435
v -0.027012 0.010233 -0.018522
v -0.016993 0.014383 -0.023942
v 0.013114 0.017986 -0.008360
v -0.005901 0.013553 -0.024687
v 0.002095 0.007065 -0.024898
v 0.012259 0.012537 -0.020368
vt 0.780273 0.783691
vt 0.751465 0.775513
vt 0.768066 0.762451
vt 0.814941 0.784790
vt 0.806641 0.800903
vt 0.826660 0.796387
vt 0.823730 0.815918
vt 0.846191 0.791626
vt 0.844238 0.818970
vt 0.860840 0.812500
vt 0.891602 0.801880
vt 0.879395 0.822388
vt 0.913574 0.806519
vt 0.894531 0.839111
vt 0.909180 0.844482
vt 0.919434 0.822144
vt 0.937012 0.865356
vt 0.948242 0.833862
vt 0.955566 0.858521
vt 0.966309 0.844849
vt 0.799316 0.851074
vt 0.815430 0.866577
vt 0.761719 0.870605
vt 0.816895 0.913086
vt 0.819336 0.944489
vt 0.751953 0.927246
vt 0.764160 0.946869
vt 0.752441 0.889282
vt 0.737305 0.948486
vt 0.733887 0.885315
vt 0.739258 0.920288
vt 0.724121 0.940094
vt 0.714844 0.889954
vt 0.708008 0.945099
vt 0.710938 0.966766
vt 0.681152 0.890869
vt 0.679199 0.975372
vt 0.663086 0.960083
vt 0.668945 0.901245
vt 0.654297 0.942505
vt 0.642090 0.929443
vt 0.647461 0.908813
vt1 0.704590 0.698975
vt1 0.778809 0.676758
vt1 0.761230 0.728271
vt1 0.627441 0.744629
vt1 0.622559 0.697998
vt1 0.584961 0.735840
vt1 0.564941 0.688477
vt1 0.549316 0.773071
vt1 0.515137 0.710205
vt1 0.487549 0.747803
vt1 0.435303 0.814087
vt1 0.433594 0.751709
vt1 0.380859 0.834351
vt1 0.376953 0.736572
vt1 0.336914 0.745117
vt1 0.346191 0.808105
vt1 0.247314 0.738037
vt1 0.266113 0.823120
vt1 0.215820 0.779053
vt1 0.211304 0.823975
vt1 0.341797 0.512207
vt1 0.295166 0.466797
vt1 0.452637 0.455078
vt1 0.290771 0.330078
vt1 0.282715 0.237305
vt1 0.482178 0.288086
vt1 0.445068 0.230469
vt1 0.480225 0.399902
vt1 0.525391 0.225586
vt1 0.534180 0.411621
vt1 0.519043 0.308594
vt1 0.562988 0.250000
vt1 0.590332 0.397949
vt1 0.611328 0.235352
vt1 0.602051 0.171875
vt1 0.689941 0.395020
vt1 0.695312 0.146484
vt1 0.742676 0.191406
vt1 0.726074 0.364746
vt1 0.768555 0.243164
vt1 0.804688 0.281738
vt1 0.788574 0.342285
vn -1.000000 0.015748 0.007874
vn -0.992126 0.094488 0.062992
vn -1.000000 0.062992 0.039370
vn -0.850394 -0.220472 -0.480315
vn -0.842520 0.062992 -0.543307
vn -0.157480 -0.480315 -0.866142
vn -0.251969 0.094488 -0.960630
vn 0.102362 -0.637795 -0.763779
vn -0.047244 -0.299213 -0.952756
vn -0.015748 -0.496063 -0.866142
vn 0.559055 -0.039370 -0.834646
vn 0.637795 0.267716 -0.724409
vn 0.881890 0.330709 -0.338583
vn 0.858268 0.448819 -0.267717
vn 0.692913 0.716535 -0.039370
vn 0.968504 0.236220 0.102362
vn 0.732283 0.433071 0.527559
vn 0.724409 -0.275590 0.629921
vn 0.692913 -0.118110 0.708661
vn 0.401575 -0.606299 0.685039
vn 0.149606 -0.992126 0.039370
vn 0.055118 -1.000000 0.031496
vn 0.031496 -1.000000 -0.007874
vn -0.007874 -1.000000 0.039370
vn 0.000000 -1.000000 0.007874
vn -0.291339 -0.685039 0.669291
vn -0.346457 -0.897638 0.275591
vn 0.039370 -0.976378 0.204724
vn -0.732283 0.362205 0.574803
vn 0.023622 0.118110 0.992126
vn -0.118110 0.275591 0.952756
vn -0.425197 0.842520 0.322835
vn -0.039370 0.874016 0.480315
vn -0.385827 0.921260 -0.047244
vn -0.755906 0.653543 0.007874
vn 0.000000 1.000000 0.023622
vn -0.535433 0.834646 -0.102362
vn -0.188976 0.968504 -0.181102
vn 0.000000 0.976378 -0.196850
vn 0.188976 0.874016 -0.456693
vn 0.291339 0.692913 -0.653543
vn -0.307087 0.874016 -0.377953
tan -0.010726 -0.897762 0.433319 1.000000
tan -0.057536 -0.896522 0.438589 1.000000
tan -0.039494 -0.900118 0.437039 1.000000
tan -0.094798 -0.832165 0.549817 1.000000
tan -0.308575 -0.880712 0.376403 1.000000
tan -0.213714 -0.835761 0.502325 1.000000
tan -0.342985 -0.937318 -0.002232 1.000000
tan -0.257921 -0.758695 0.598983 1.000000
tan -0.232128 -0.921632 0.300949 1.000000
tan -0.221278 -0.844070 0.487445 1.000000
tan -0.087730 -1.002604 -0.011470 1.000000
tan 0.083080 -0.955050 -0.279806 1.000000
tan 0.161386 -0.885362 -0.444417 1.000000
tan 0.299461 -0.843698 -0.454399 1.000000
tan 0.601649 -0.610205 -0.516709 1.000000
tan 0.253581 -0.803522 -0.544981 1.000000
tan 0.659681 -0.644925 -0.386261 1.000000
tan 0.287371 -0.705561 -0.639159 1.000000
tan 0.400831 -0.756898 -0.518073 1.000000
tan 0.276521 -0.633517 -0.722797 1.000000
tan 0.993676 0.149296 -0.013702 1.000000
tan 1.000992 0.054870 -0.009610 1.000000
tan 1.000062 0.031558 -0.007626 1.000000
tan 1.001550 -0.008494 -0.015438 1.000000
tan 1.000062 -0.000124 -0.015748 1.000000
tan 0.949594 -0.281853 0.124868 1.000000
tan 0.936078 -0.350177 0.036208 1.000000
tan 0.995226 0.020708 -0.092628 1.000000
tan 0.657883 0.159898 0.737367 1.000000
tan 0.975758 -0.229524 0.004092 1.000000
tan 0.977184 -0.135284 0.160270 1.000000
tan 0.855726 0.258293 0.452973 1.000000
tan 0.925104 -0.153698 0.355509 1.000000
tan 0.851138 0.375597 0.373179 1.000000
tan 0.599417 0.688387 0.407899 1.000000
tan 0.921632 -0.009114 0.385827 1.000000
tan 0.779776 0.538161 0.309257 1.000000
tan 0.910782 0.239692 0.331453 1.000000
tan 0.929010 0.071300 0.353649 1.000000
tan 0.931800 -0.009424 0.367537 1.000000
tan 0.926592 -0.043462 0.366979 1.000000
tan 0.921260 0.381115 0.132804 1.000000
f 3/3/3 2/2/2 1/1/1
f 3/3/3 1/1/1 4/4/4
f 4/4/4 1/1/1 5/5/5
f 6/6/6 4/4/4 5/5/5
f 6/6/6 5/5/5 7/7/7
f 6/6/6 8/8/8 4/4/4
f 9/9/9 6/6/6 7/7/7
f 9/9/9 8/8/8 6/6/6
f 8/8/8 9/9/9 10/10/10
f 8/8/8 10/10/10 11/11/11
f 11/11/11 10/10/10 12/12/12
f 13/13/13 11/11/11 12/12/12
f 15/15/15 12/12/12 14/14/14
f 15/15/15 13/13/13 12/12/12
f 16/16/16 13/13/13 15/15/15
f 17/17/17 16/16/16 15/15/15
f 18/18/18 13/13/13 16/16/16
f 19/19/19 16/16/16 17/17/17
f 16/16/16 19/19/19 18/18/18
f 18/18/18 19/19/19 20/20/20
f 23/23/23 22/22/22 21/21/21
f 23/23/23 24/24/24 22/22/22
f 23/23/23 25/25/25 24/24/24
f 25/25/25 23/23/23 26/26/26
f 25/25/25 26/26/26 27/27/27
f 23/23/23 28/28/28 26/26/26
f 29/29/29 27/27/27 26/26/26
f 26/26/26 28/28/28 30/30/30
f 31/31/31 29/29/29 26/26/26
f 26/26/26 30/30/30 31/31/31
f 32/32/32 31/31/31 30/30/30
f 31/31/31 32/32/32 29/29/29
f 30/30/30 33/33/33 32/32/32
f 34/34/34 29/29/29 32/32/32
f 34/34/34 32/32/32 33/33/33
f 29/29/29 34/34/34 35/35/35
f 33/33/33 36/36/36 34/34/34
f 34/34/34 37/37/37 35/35/35
f 37/37/37 34/34/34 38/38/38
f 36/36/36 39/39/39 34/34/34
f 39/39/39 38/38/38 34/34/34
f 39/39/39 40/40/40 38/38/38
f 39/39/39 41/41/41 40/40/40
f 41/41/41 39/39/39 42/42/42
