mtllib SM_Rock_10.mtl
g SM_Rock_10
#Vertices 34
#Indices 132
#Section 0 Offset 0 NumIndices 132 MaterialIndex 0 MI_Small_Rocks_01
v -0.041823 0.033952 -0.000213
v -0.037737 0.039633 0.011793
v -0.037251 0.008273 0.009047
v -0.034190 0.007832 -0.009593
v -0.029522 -0.000065 0.005262
v 0.000000 -0.000000 -0.002212
v -0.034440 0.023493 -0.011966
v -0.028936 0.048833 -0.011154
v -0.017410 0.032420 -0.022441
v -0.006051 0.041072 -0.021001
v -0.005192 0.020460 -0.020364
v 0.002190 0.026215 -0.020352
v 0.007367 0.040667 -0.012802
v 0.013251 0.027062 -0.008801
v 0.012562 0.012227 -0.006787
v 0.006885 0.008375 -0.010531
v -0.037737 0.039633 0.011793
v -0.041823 0.033952 -0.000213
v -0.028936 0.048833 -0.011154
v -0.024078 0.051703 0.003233
v -0.004522 0.047499 -0.005331
v -0.006051 0.041072 -0.021001
v 0.007367 0.040667 -0.012802
v -0.015378 0.038666 0.019554
v 0.008029 0.034151 0.002165
v 0.013251 0.027062 -0.008801
v -0.025196 0.029381 0.022090
v -0.037251 0.008273 0.009047
v -0.007933 0.027965 0.017030
v 0.007125 0.015990 0.003602
v 0.012562 0.012227 -0.006787
v 0.000000 -0.000000 -0.002212
v -0.015590 0.015871 0.022441
v -0.029522 -0.000065 0.005262
vt 0.035034 0.892822
vt 0.011429 0.899231
vt 0.019913 0.843994
vt 0.048920 0.847046
vt 0.036469 0.822876
vt 0.091553 0.804199
vt 0.056030 0.871460
vt 0.073730 0.912720
vt 0.092773 0.878235
vt 0.115845 0.885681
vt 0.103210 0.851807
vt 0.116516 0.855103
vt 0.141235 0.869873
vt 0.139526 0.840942
vt 0.123779 0.816772
vt 0.110657 0.819458
vt 0.403564 0.781982
vt 0.402100 0.807739
vt 0.360596 0.809082
vt 0.367676 0.786987
vt 0.333008 0.772217
vt 0.312256 0.790649
vt 0.308594 0.757324
vt 0.375244 0.754395
vt 0.329346 0.737793
vt 0.311279 0.722900
vt 0.393555 0.751221
vt 0.431152 0.723633
vt 0.366699 0.737549
vt 0.340576 0.708252
vt 0.325439 0.694580
vt 0.359131 0.678955
vt 0.386719 0.727783
vt 0.418213 0.696533
vt1 0.203247 0.770142
vt1 0.147339 0.785278
vt1 0.167480 0.654541
vt1 0.236206 0.661865
vt1 0.206665 0.604736
vt1 0.336914 0.560303
vt1 0.252930 0.719482
vt1 0.294922 0.817139
vt1 0.339844 0.735596
vt1 0.394531 0.753174
vt1 0.364502 0.672852
vt1 0.395996 0.680908
vt1 0.454834 0.715820
vt1 0.450439 0.647461
vt1 0.413330 0.590088
vt1 0.382080 0.596680
vt1 0.753418 0.404785
vt1 0.750488 0.459961
vt1 0.661621 0.462891
vt1 0.676758 0.415527
vt1 0.602539 0.383789
vt1 0.558594 0.423340
vt1 0.550293 0.352051
vt1 0.693359 0.345703
vt1 0.594727 0.310547
vt1 0.556152 0.278320
vt1 0.731934 0.338867
vt1 0.812988 0.279785
vt1 0.674805 0.309570
vt1 0.619141 0.247070
vt1 0.586914 0.217773
vt1 0.658691 0.184570
vt1 0.717773 0.288574
vt1 0.785156 0.222168
vn -0.984252 -0.000000 -0.181102
vn -0.937008 -0.047244 0.338583
vn -0.921260 -0.385827 -0.062992
vn -0.590551 -0.551181 -0.590551
vn -0.433071 -0.842520 -0.314961
vn 0.062992 -0.763779 -0.645669
vn -0.700787 -0.023622 -0.716535
vn -0.559055 0.244094 -0.795275
vn -0.236220 0.047244 -0.968504
vn 0.141732 0.212598 -0.968504
vn 0.055118 -0.377953 -0.921260
vn 0.425197 -0.070866 -0.905512
vn 0.614173 0.181102 -0.763779
vn 0.724409 -0.031496 -0.692913
vn 0.708661 -0.362205 -0.614173
vn 0.425197 -0.629921 -0.645669
vn -0.614173 0.574803 0.543307
vn -0.771654 0.637795 -0.039370
vn -0.275591 0.944882 -0.165354
vn -0.125984 0.960630 0.244094
vn 0.377953 0.929134 0.047244
vn 0.196850 0.897638 -0.385827
vn 0.629921 0.779527 0.023622
vn 0.228346 0.496063 0.834646
vn 0.771654 0.385827 0.503937
vn 0.921260 0.165354 0.346457
vn -0.267717 0.102362 0.960630
vn -0.417323 -0.409449 0.811024
vn 0.543307 0.094488 0.834646
vn 0.740157 -0.228346 0.629921
vn 0.826772 -0.236220 0.519685
vn 0.472441 -0.614173 0.637795
vn 0.157480 -0.330709 0.929134
vn -0.062992 -0.708661 0.708661
tan 0.000000 -1.001550 0.000000 1.000000
tan 0.099882 -0.982578 0.139314 1.000000
tan 0.372807 -0.913696 0.144088 1.000000
tan 0.491041 -0.823052 0.277141 1.000000
tan 0.710645 -0.535061 0.454151 1.000000
tan 0.408767 -0.572385 0.716969 1.000000
tan 0.174158 -0.976564 -0.138136 1.000000
tan 0.083638 -0.939240 -0.347077 1.000000
tan 0.294997 -0.950090 -0.118296 1.000000
tan 0.458677 -0.885362 -0.127224 1.000000
tan 0.376651 -0.843511 0.368591 1.000000
tan 0.447145 -0.853617 0.276769 1.000000
tan 0.500713 -0.835452 0.204538 1.000000
tan 0.341001 -0.853866 0.395313 1.000000
tan 0.226052 -0.711637 0.680513 1.000000
tan 0.255689 -0.599417 0.753177 1.000000
tan 0.389051 -0.377023 0.838676 1.000000
tan 0.264927 0.375349 0.888090 1.000000
tan 0.575671 0.301197 0.761671 1.000000
tan 0.598549 -0.121768 0.788145 1.000000
tan 0.714613 -0.322525 0.626077 1.000000
tan 0.831484 0.051770 0.544671 1.000000
tan 0.687271 -0.569223 0.457127 1.000000
tan 0.555149 -0.768057 0.304607 1.000000
tan 0.370823 -0.920206 0.136710 1.000000
tan 0.184946 -0.977804 -0.025110 1.000000
tan 0.434497 -0.875070 0.214335 1.000000
tan 0.417199 -0.874822 -0.226982 1.000000
tan 0.372621 -0.921818 -0.138198 1.000000
tan 0.032054 -0.928638 -0.374295 1.000000
tan -0.034968 -0.932606 -0.368281 1.000000
tan -0.016740 -0.729865 -0.690433 1.000000
tan 0.308885 -0.876806 -0.364437 1.000000
tan 0.368281 -0.677289 -0.644553 1.000000
f 3/3/3 2/2/2 1/1/1
f 4/4/4 3/3/3 1/1/1
f 4/4/4 5/5/5 3/3/3
f 5/5/5 4/4/4 6/6/6
f 1/1/1 7/7/7 4/4/4
f 7/7/7 1/1/1 8/8/8
f 8/8/8 9/9/9 7/7/7
f 7/7/7 9/9/9 4/4/4
f 9/9/9 8/8/8 10/10/10
f 4/4/4 9/9/9 11/11/11
f 10/10/10 11/11/11 9/9/9
f 4/4/4 11/11/11 6/6/6
f 11/11/11 10/10/10 12/12/12
f 12/12/12 10/10/10 13/13/13
f 12/12/12 13/13/13 14/14/14
f 15/15/15 12/12/12 14/14/14
f 16/16/16 6/6/6 11/11/11
f 11/11/11 12/12/12 16/16/16
f 16/16/16 15/15/15 6/6/6
f 15/15/15 16/16/16 12/12/12
f 19/19/19 18/18/18 17/17/17
f 17/17/17 20/20/20 19/19/19
f 20/20/20 21/21/21 19/19/19
f 19/19/19 21/21/21 22/22/22
f 22/22/22 21/21/21 23/23/23
f 24/24/24 20/20/20 17/17/17
f 24/24/24 21/21/21 20/20/20
f 25/25/25 23/23/23 21/21/21
f 21/21/21 24/24/24 25/25/25
f 25/25/25 26/26/26 23/23/23
f 17/17/17 27/27/27 24/24/24
f 27/27/27 17/17/17 28/28/28
f 29/29/29 25/25/25 24/24/24
f 27/27/27 29/29/29 24/24/24
f 26/26/26 25/25/25 30/30/30
f 30/30/30 25/25/25 29/29/29
f 31/31/31 26/26/26 30/30/30
f 31/31/31 30/30/30 32/32/32
f 33/33/33 29/29/29 27/27/27
f 33/33/33 30/30/30 29/29/29
f 27/27/27 28/28/28 33/33/33
f 33/33/33 32/32/32 30/30/30
f 33/33/33 28/28/28 34/34/34
f 33/33/33 34/34/34 32/32/32
