mtllib SM_Ramp_01@000001EE2A52F900.mtl
g SM_Ramp_01@000001EE2A52F900
#Vertices 30
#Indices 120
#Section 0 Offset 0 NumIndices 120 MaterialIndex 0 MI_Base_01
v 0.000000 0.680893 0.019610 0.000000 0.000000 0.035294 1.000000
v -0.000001 -0.000000 -0.000001 0.000000 0.000000 0.000000 1.000000
v -0.000000 0.453929 -0.438435 0.000000 0.000000 0.035294 1.000000
v -0.000002 -0.000000 -0.451509 0.000000 0.000000 0.000000 1.000000
v 0.016433 0.466667 -0.449344 0.000000 0.000000 0.043137 1.000000
v 0.016434 0.700000 0.020161 0.000000 0.000000 0.035294 1.000000
v -0.000002 0.226964 -0.896065 0.000000 0.000000 0.015686 1.000000
v -0.000002 -0.000000 -0.902602 0.000000 0.000000 0.000000 1.000000
v -0.000002 -0.000000 -1.353478 0.000000 0.000000 0.023529 1.000000
v 0.016433 0.233333 -0.918435 0.000000 0.000000 0.015686 1.000000
v 0.016432 -0.000000 -1.387309 0.000000 0.000000 0.023529 1.000000
v 0.623456 -0.000000 -1.387309 0.000000 0.000000 0.117647 1.000000
v 0.623457 0.233333 -0.918435 0.000000 0.000000 0.168627 1.000000
v 1.326133 -0.000000 -1.387309 0.000000 0.529412 0.000000 1.000000
v 0.623457 0.466667 -0.449344 0.000000 0.090196 0.200000 1.000000
v 0.623457 0.700000 0.020161 0.000000 0.035294 0.011765 1.000000
v 1.326133 0.233333 -0.918435 0.000000 0.580392 0.000000 1.000000
v 1.326133 0.466667 -0.449343 0.000000 0.549020 0.035294 1.000000
v 1.326133 0.700000 0.020162 0.000000 0.352941 0.000000 1.000000
v 1.983567 0.233333 -0.918435 0.000000 0.701961 0.000000 1.000000
v 1.983567 -0.000000 -1.387310 0.000000 0.600000 0.000000 1.000000
v 2.000001 -0.000000 -1.353478 0.000000 0.600000 0.000000 1.000000
v 1.983567 0.466667 -0.449343 0.000000 0.647059 0.000000 1.000000
v 1.983567 0.700000 0.020163 0.000000 0.298039 0.000000 1.000000
v 2.000000 0.681199 0.020163 0.000000 0.298039 0.000000 1.000000
v 2.000000 0.227066 -0.895881 0.000000 0.721569 0.000000 1.000000
v 2.000000 -0.000000 -0.895881 0.000000 0.000000 0.000000 1.000000
v 2.000000 -0.000000 -0.438065 0.000000 0.000000 0.000000 1.000000
v 2.000000 0.454132 -0.438065 0.000000 0.647059 0.000000 1.000000
v 2.000000 -0.000000 -0.000001 0.000000 0.000000 0.000000 1.000000
vt -0.244141 1.132568
vt -0.680176 0.899170
vt -0.243286 0.761597
vt -0.533691 0.605957
vt -0.226318 0.758667
vt -0.226562 1.139282
vt -0.242554 0.390625
vt -0.387695 0.312988
vt -0.241821 0.020020
vt -0.225952 0.378418
vt -0.225830 -0.001953
vt 0.214844 -0.001953
vt 0.214722 0.378418
vt 0.725098 -0.001953
vt 0.214600 0.758667
vt 0.214600 1.139282
vt 0.725098 0.378418
vt 0.725098 0.758667
vt 0.725098 1.139282
vt 1.202148 0.378418
vt 1.202148 -0.001953
vt 1.217773 0.020020
vt 1.202148 0.758667
vt 1.203125 1.139282
vt 1.219727 1.133179
vt 1.218750 0.391113
vt 1.366211 0.317383
vt 1.514648 0.614746
vt 1.219727 0.761963
vt 1.656250 0.899353
vt1 0.761230 0.332031
vt1 0.917969 0.416016
vt1 0.760742 0.465332
vt1 0.865234 0.521484
vt1 0.754883 0.466309
vt1 0.754883 0.329590
vt1 0.760254 0.598633
vt1 0.812500 0.626709
vt1 0.759766 0.731934
vt1 0.754395 0.603027
vt1 0.753906 0.739990
vt1 0.595703 0.739502
vt1 0.595703 0.602783
vt1 0.412598 0.739502
vt1 0.596191 0.465820
vt1 0.596191 0.329102
vt1 0.412598 0.602783
vt1 0.412354 0.465820
vt1 0.412354 0.329102
vt1 0.240845 0.603027
vt1 0.241089 0.739990
vt1 0.235352 0.731934
vt1 0.240601 0.466309
vt1 0.240234 0.329590
vt1 0.233887 0.331543
vt1 0.234985 0.598633
vt1 0.181885 0.625244
vt1 0.128418 0.518311
vt1 0.234497 0.465332
vt1 0.077148 0.416016
vn -1.000000 0.047244 -0.023622
vn -1.000000 0.000000 0.000000
vn -1.000000 0.031496 -0.015748
vn -1.000000 0.000000 0.000000
vn -0.023622 0.874016 -0.488189
vn -0.023622 0.874016 -0.488189
vn -1.000000 0.055118 -0.031496
vn -1.000000 0.000000 0.000000
vn -0.960630 0.251968 -0.141732
vn -0.023622 0.874016 -0.488189
vn -0.007874 0.874016 -0.488189
vn 0.000000 0.874016 -0.488189
vn 0.000000 0.874016 -0.488189
vn 0.000000 0.874016 -0.488189
vn 0.000000 0.874016 -0.488189
vn 0.000000 0.874016 -0.488189
vn 0.000000 0.874016 -0.488189
vn 0.000000 0.874016 -0.488189
vn 0.000000 0.874016 -0.488189
vn 0.023622 0.874016 -0.488189
vn 0.007874 0.874016 -0.488189
vn 0.960630 0.244094 -0.133858
vn 0.023622 0.874016 -0.488189
vn 0.015748 0.874016 -0.488189
vn 1.000000 0.039370 -0.023622
vn 1.000000 0.055118 -0.031496
vn 1.000000 0.000000 0.000000
vn 1.000000 0.000000 0.000000
vn 1.000000 0.031496 -0.015748
vn 1.000000 0.000000 0.000000
tan -0.000186 -0.450121 -0.892368 1.000000
tan 0.000000 -0.448819 -0.897638 1.000000
tan -0.000124 -0.449315 -0.890756 1.000000
tan 0.000000 -0.448819 -0.897638 1.000000
tan 0.022258 -0.488003 -0.874760 1.000000
tan 0.018414 -0.488003 -0.874574 1.000000
tan 0.003286 -0.450803 -0.893236 1.000000
tan 0.000000 -0.448819 -0.897638 1.000000
tan 0.011408 -0.456197 -0.888338 1.000000
tan 0.015376 -0.488189 -0.874760 1.000000
tan 0.007688 -0.488189 -0.874140 1.000000
tan 0.000000 -0.488189 -0.874016 1.000000
tan 0.000000 -0.488189 -0.874016 1.000000
tan 0.000000 -0.488189 -0.874016 1.000000
tan 0.000000 -0.488189 -0.874016 1.000000
tan 0.000000 -0.488189 -0.874016 1.000000
tan 0.000000 -0.488189 -0.874016 1.000000
tan 0.000000 -0.488189 -0.874016 1.000000
tan 0.000000 -0.488189 -0.874016 1.000000
tan -0.022258 -0.488003 -0.874760 1.000000
tan -0.007688 -0.488189 -0.874140 1.000000
tan -0.009176 -0.453965 -0.893670 1.000000
tan -0.022258 -0.488003 -0.874760 1.000000
tan -0.018414 -0.488065 -0.874388 1.000000
tan -0.003348 -0.449935 -0.891624 1.000000
tan -0.003286 -0.450803 -0.893236 1.000000
tan 0.000000 -0.448819 -0.897638 1.000000
tan 0.000000 -0.448819 -0.897638 1.000000
tan 0.000124 -0.449315 -0.890756 1.000000
tan 0.000000 -0.448819 -0.897638 1.000000
f 3/3/3 2/2/2 1/1/1
f 4/4/4 2/2/2 3/3/3
f 5/5/5 3/3/3 1/1/1
f 1/1/1 6/6/6 5/5/5
f 4/4/4 3/3/3 7/7/7
f 5/5/5 7/7/7 3/3/3
f 8/8/8 4/4/4 7/7/7
f 7/7/7 9/9/9 8/8/8
f 10/10/10 9/9/9 7/7/7
f 7/7/7 5/5/5 10/10/10
f 9/9/9 10/10/10 11/11/11
f 11/11/11 10/10/10 12/12/12
f 13/13/13 12/12/12 10/10/10
f 10/10/10 5/5/5 13/13/13
f 12/12/12 13/13/13 14/14/14
f 5/5/5 6/6/6 15/15/15
f 15/15/15 13/13/13 5/5/5
f 16/16/16 15/15/15 6/6/6
f 17/17/17 14/14/14 13/13/13
f 13/13/13 15/15/15 17/17/17
f 15/15/15 16/16/16 18/18/18
f 18/18/18 17/17/17 15/15/15
f 19/19/19 18/18/18 16/16/16
f 14/14/14 17/17/17 20/20/20
f 21/21/21 14/14/14 20/20/20
f 22/22/22 21/21/21 20/20/20
f 23/23/23 17/17/17 18/18/18
f 18/18/18 19/19/19 23/23/23
f 20/20/20 17/17/17 23/23/23
f 24/24/24 23/23/23 19/19/19
f 24/24/24 25/25/25 23/23/23
f 20/20/20 26/26/26 22/22/22
f 26/26/26 20/20/20 23/23/23
f 27/27/27 22/22/22 26/26/26
f 28/28/28 27/27/27 26/26/26
f 23/23/23 25/25/25 29/29/29
f 29/29/29 26/26/26 23/23/23
f 28/28/28 26/26/26 29/29/29
f 25/25/25 30/30/30 29/29/29
f 28/28/28 29/29/29 30/30/30
