mtllib SM_Rock_6.mtl
g SM_Rock_6
#Vertices 71
#Indices 288
#Section 0 Offset 0 NumIndices 288 MaterialIndex 0 MI_Small_Rocks_01
v 0.033255 0.000898 0.005478
v 0.024460 0.000436 -0.021030
v 0.026861 0.000503 0.009778
v 0.000000 0.000000 0.034919
v 0.017535 0.000245 0.024296
v 0.011075 0.000343 -0.032807
v -0.031263 0.000618 0.006295
v -0.006820 0.000045 -0.035884
v -0.019964 0.000765 -0.035032
v -0.030989 -0.000046 0.013390
v -0.012992 0.000911 0.029883
v -0.004431 0.009267 0.031900
v -0.024513 0.006215 0.020561
v -0.017212 0.011872 0.022696
v -0.000724 0.017059 0.035403
v -0.028780 0.012190 0.016500
v -0.016250 0.017393 0.026320
v 0.003592 0.017490 0.032442
v -0.026860 0.017593 0.017148
v 0.015967 0.017337 0.025522
v -0.035721 0.014553 0.005768
v 0.032893 0.017334 0.005531
v 0.027611 0.017409 0.014107
v 0.033324 0.017453 -0.002652
v 0.008246 0.017776 -0.006831
v 0.021053 0.017130 -0.025278
v -0.004865 0.017289 -0.034308
v -0.034194 0.017562 -0.003218
v -0.035553 0.017615 -0.016604
v -0.021411 0.017564 -0.035802
v -0.030707 0.017523 -0.032862
v -0.036248 0.005614 -0.006909
v -0.036928 0.010451 -0.020228
v -0.031847 0.007294 -0.035555
v -0.034763 0.000958 -0.012044
v -0.033661 0.000787 -0.024407
v -0.032464 0.001769 -0.034365
v -0.004431 0.009267 0.031900
v -0.000724 0.017059 0.035403
v 0.003592 0.017490 0.032442
v 0.010595 0.009019 0.030366
v 0.015967 0.017337 0.025522
v -0.001677 0.004729 0.038081
v 0.000000 0.000000 0.034919
v 0.017535 0.000245 0.024296
v 0.020112 0.007719 0.025135
v 0.026861 0.000503 0.009778
v 0.024770 0.010970 0.022027
v 0.027611 0.017409 0.014107
v 0.033888 0.007801 0.008240
v 0.032893 0.017334 0.005531
v 0.033255 0.000898 0.005478
v 0.033324 0.017453 -0.002652
v 0.036747 0.003900 -0.001577
v 0.024460 0.000436 -0.021030
v 0.024886 0.011263 -0.019740
v 0.021053 0.017130 -0.025278
v 0.018243 0.003766 -0.030914
v 0.011075 0.000343 -0.032807
v 0.017289 0.010847 -0.031656
v -0.004865 0.017289 -0.034308
v -0.000342 0.004461 -0.032836
v -0.006820 0.000045 -0.035884
v -0.019964 0.000765 -0.035032
v 0.004955 0.012186 -0.036577
v -0.005421 0.010247 -0.037594
v -0.021411 0.017564 -0.035802
v -0.019072 0.010459 -0.038081
v -0.031847 0.007294 -0.035555
v -0.030707 0.017523 -0.032862
v -0.032464 0.001769 -0.034365
vt 0.183716 0.677002
vt 0.230713 0.668701
vt 0.182373 0.690186
vt 0.164551 0.750977
vt 0.167358 0.715820
vt 0.260010 0.676758
vt 0.232788 0.768066
vt 0.282715 0.702881
vt 0.292725 0.727051
vt 0.225464 0.767578
vt 0.185059 0.762695
vt 0.168823 0.776245
vt 0.208252 0.774658
vt 0.195435 0.783936
vt 0.162598 0.797729
vt 0.216309 0.784668
vt 0.193848 0.795898
vt 0.164795 0.812866
vt 0.214233 0.789795
vt 0.169189 0.842285
vt 0.237915 0.786499
vt 0.189209 0.882751
vt 0.179199 0.868408
vt 0.203003 0.889893
vt 0.228882 0.855225
vt 0.250244 0.886658
vt 0.285889 0.848755
vt 0.249878 0.788208
vt 0.269531 0.789185
vt 0.299805 0.814087
vt 0.297852 0.791382
vt 0.255371 0.768677
vt 0.276367 0.775269
vt 0.302490 0.765991
vt 0.261963 0.760010
vt 0.281494 0.754395
vt 0.297607 0.751953
vt 0.994629 0.303223
vt 0.985352 0.315430
vt 0.977539 0.311523
vt 0.971191 0.292969
vt 0.956055 0.304199
vt 0.995605 0.291016
vt 0.998535 0.285156
vt 0.959961 0.273926
vt 0.954102 0.286133
vt 0.928711 0.267578
vt 0.944336 0.289551
vt 0.929688 0.297852
vt 0.916992 0.280762
vt 0.913086 0.297363
vt 0.912598 0.267578
vt 0.898438 0.298828
vt 0.901367 0.275879
vt 0.863281 0.269531
vt 0.865234 0.288574
vt 0.853516 0.298828
vt 0.844238 0.275391
vt 0.832031 0.268555
vt 0.842285 0.287109
vt 0.805664 0.302246
vt 0.812500 0.275391
vt 0.800781 0.267090
vt 0.778320 0.271484
vt 0.820312 0.290039
vt 0.803223 0.288574
vt 0.776367 0.301758
vt 0.780273 0.289062
vt 0.758301 0.284180
vt 0.759766 0.302246
vt 0.756836 0.274414
vt1 0.267090 0.799438
vt1 0.249268 0.697998
vt1 0.295654 0.802368
vt1 0.427246 0.840820
vt1 0.351074 0.834717
vt1 0.267090 0.634521
vt1 0.464111 0.693359
vt1 0.323486 0.585693
vt1 0.375488 0.563965
vt1 0.463135 0.709473
vt1 0.452393 0.796509
vt1 0.481934 0.831665
vt1 0.478516 0.746582
vt1 0.498535 0.774292
vt1 0.527832 0.845093
vt1 0.500000 0.729248
vt1 0.523926 0.777710
vt1 0.561035 0.840454
vt1 0.510742 0.733643
vt1 0.624512 0.830933
vt1 0.503906 0.682373
vt1 0.711914 0.787476
vt1 0.680664 0.809204
vt1 0.727051 0.757812
vt1 0.652344 0.701904
vt1 0.720215 0.656006
vt1 0.638184 0.578369
vt1 0.507812 0.656738
vt1 0.509766 0.614258
vt1 0.563477 0.548584
vt1 0.514648 0.552734
vt1 0.465576 0.644775
vt1 0.479492 0.599121
vt1 0.459717 0.542969
vt1 0.446777 0.630127
vt1 0.434570 0.588379
vt1 0.429443 0.553223
vt1 0.879883 0.347656
vt1 0.851562 0.384766
vt1 0.828613 0.372070
vt1 0.809082 0.316895
vt1 0.763672 0.350098
vt1 0.883301 0.310547
vt1 0.892578 0.293457
vt1 0.775879 0.258789
vt1 0.758301 0.295898
vt1 0.681152 0.240234
vt1 0.729492 0.306152
vt1 0.684570 0.331543
vt1 0.646484 0.280273
vt1 0.634277 0.330078
vt1 0.634277 0.240723
vt1 0.591309 0.334473
vt1 0.599609 0.265137
vt1 0.485352 0.246582
vt1 0.491943 0.303711
vt1 0.456299 0.334473
vt1 0.427490 0.264648
vt1 0.392090 0.242676
vt1 0.422363 0.298828
vt1 0.312500 0.343750
vt1 0.332520 0.264160
vt1 0.297363 0.239258
vt1 0.229858 0.252930
vt1 0.356934 0.308105
vt1 0.305420 0.302734
vt1 0.224731 0.342773
vt1 0.236572 0.304199
vt1 0.170288 0.290039
vt1 0.174438 0.344727
vt1 0.165649 0.261230
vn 0.062992 -1.000000 0.000000
vn 0.015748 -1.000000 0.000000
vn 0.031496 -1.000000 0.000000
vn -0.165354 -0.897638 0.409449
vn 0.007874 -1.000000 -0.015748
vn 0.007874 -1.000000 0.007874
vn -0.606299 -0.779527 0.149606
vn -0.007874 -1.000000 0.007874
vn -0.055118 -1.000000 -0.031496
vn -0.724409 -0.645669 0.236221
vn -0.456693 -0.456693 0.763779
vn -0.511811 0.078740 0.858268
vn -0.606299 0.062992 0.787401
vn -0.551181 0.000000 0.834646
vn -0.299213 0.834646 0.464567
vn -0.740157 0.070866 0.669291
vn -0.480315 0.519685 0.708661
vn -0.007874 1.000000 0.015748
vn -0.456693 0.716535 0.527559
vn 0.007874 1.000000 0.007874
vn -0.905512 0.307087 0.283464
vn 0.015748 1.000000 0.015748
vn -0.039370 1.000000 -0.031496
vn 0.015748 1.000000 -0.000000
vn 0.007874 1.000000 -0.007874
vn 0.015748 1.000000 -0.023622
vn 0.007874 1.000000 -0.007874
vn -0.614173 0.787401 0.015748
vn -0.669291 0.740157 -0.023622
vn 0.007874 1.000000 0.007874
vn -0.535433 0.826772 -0.188976
vn -0.976378 -0.188976 0.094488
vn -0.992126 0.023622 -0.141732
vn -0.960630 0.055118 -0.259842
vn -0.661417 -0.755905 0.000000
vn -0.629921 -0.763779 -0.133858
vn -0.779528 -0.606299 -0.157480
vn -0.055118 0.228347 0.968504
vn 0.511811 -0.543307 0.669291
vn 0.338583 -0.188976 0.921260
vn 0.448819 0.055118 0.889764
vn 0.519685 0.251969 0.818897
vn -0.370079 0.015748 0.929134
vn 0.118110 -0.519685 0.842520
vn 0.645669 -0.283464 0.716535
vn 0.606299 -0.149606 0.779527
vn 0.692913 -0.299212 0.653543
vn 0.771654 0.007874 0.629921
vn 0.818898 0.102362 0.559055
vn 0.811024 -0.062992 0.574803
vn 0.952756 0.173228 0.259842
vn 0.755906 -0.472441 0.456693
vn 0.960630 0.188976 -0.220472
vn 0.937008 -0.322835 -0.133858
vn 0.834646 -0.141732 -0.535433
vn 0.858268 0.078740 -0.511811
vn 0.740157 0.236220 -0.629921
vn 0.559055 -0.267717 -0.787401
vn 0.204724 0.141732 -0.968504
vn 0.496063 0.196850 -0.842520
vn 0.102362 0.488189 -0.866142
vn 0.157480 -0.062992 -0.984252
vn 0.015748 0.551181 -0.834646
vn 0.015748 -0.212599 -0.976378
vn 0.307087 0.173228 -0.937008
vn 0.070866 -0.141732 -0.984252
vn -0.141732 0.291338 -0.944882
vn -0.031496 -0.007874 -1.000000
vn -0.165354 -0.047244 -0.984252
vn -0.291339 0.275590 -0.913386
vn -0.070866 -0.204724 -0.976378
tan 0.881890 0.055552 -0.473929 1.000000
tan 0.858268 0.013516 -0.519809 1.000000
tan 0.881890 0.027776 -0.472937 1.000000
tan 0.747598 -0.382231 -0.536053 1.000000
tan 0.897762 0.014136 -0.448757 1.000000
tan 0.874078 0.003100 -0.480377 1.000000
tan 0.700477 -0.613925 -0.360097 1.000000
tan 0.937008 -0.010044 -0.338583 1.000000
tan 0.969992 -0.045942 -0.238824 1.000000
tan 0.635129 -0.757269 -0.122140 1.000000
tan 0.370761 -0.881952 -0.305660 1.000000
tan 0.062310 -0.990514 0.128030 1.000000
tan 0.049104 -0.982826 0.116436 1.000000
tan -0.026288 -1.000434 -0.017360 1.000000
tan -0.463699 -0.552669 0.694277 1.000000
tan -0.047182 -1.001054 0.053816 1.000000
tan -0.433381 -0.843821 0.325067 1.000000
tan -0.598425 -0.017360 0.803149 1.000000
tan -0.624713 -0.677537 0.379441 1.000000
tan -0.858330 0.002666 0.519747 1.000000
tan -0.335173 -0.941286 -0.050964 1.000000
tan -0.874264 0.006200 0.480563 1.000000
tan -0.899126 -0.021700 0.434931 1.000000
tan -0.897638 0.014136 0.441069 1.000000
tan -0.921260 0.010292 0.385827 1.000000
tan -0.937380 0.023312 0.361957 1.000000
tan -0.976440 0.009300 0.204662 1.000000
tan -0.786782 -0.615413 0.086180 1.000000
tan -0.740716 -0.669477 0.009982 1.000000
tan -0.992126 0.008928 -0.141732 1.000000
tan -0.792176 -0.566681 -0.234732 1.000000
tan 0.164424 -0.958274 -0.217496 1.000000
tan -0.013206 -0.997706 -0.073842 1.000000
tan -0.028396 -0.990328 -0.105090 1.000000
tan 0.541633 -0.473929 -0.694897 1.000000
tan 0.775994 -0.618947 -0.120094 1.000000
tan 0.621551 -0.778411 -0.079794 1.000000
tan 0.405543 -0.882448 0.231137 1.000000
tan 0.175026 -0.696881 -0.699547 1.000000
tan 0.307831 -0.905016 -0.298778 1.000000
tan 0.262509 -0.961560 -0.072850 1.000000
tan 0.349185 -0.932978 0.065472 1.000000
tan 0.551429 -0.795523 0.233121 1.000000
tan 0.449253 -0.725339 -0.510385 1.000000
tan 0.013144 -0.928576 -0.379193 1.000000
tan 0.099324 -0.957530 -0.261020 1.000000
tan -0.137640 -0.948726 -0.288424 1.000000
tan 0.139872 -0.970178 -0.159216 1.000000
tan 0.146258 -0.985182 -0.033852 1.000000
tan -0.078740 -0.994544 0.002108 1.000000
tan 0.156178 -0.984810 0.083886 1.000000
tan -0.456073 -0.876434 -0.151776 1.000000
tan 0.194928 -0.984810 0.005208 1.000000
tan -0.308265 -0.943332 0.117242 1.000000
tan -0.119412 -0.994110 0.077004 1.000000
tan 0.071610 -0.998574 -0.033542 1.000000
tan 0.180420 -0.972038 -0.152520 1.000000
tan -0.189100 -0.962552 0.193006 1.000000
tan -0.010230 -0.985926 -0.146444 1.000000
tan 0.064480 -0.975820 -0.190030 1.000000
tan 0.096472 -0.873830 -0.481121 1.000000
tan 0.013330 -0.993552 0.065720 1.000000
tan 0.104780 -0.829190 -0.545601 1.000000
tan 0.061504 -0.976378 0.213591 1.000000
tan 0.091450 -0.982082 -0.151590 1.000000
tan 0.022072 -0.988716 0.143964 1.000000
tan -0.018972 -0.957530 -0.292392 1.000000
tan 0.031744 -1.000992 0.006882 1.000000
tan 0.046562 -0.996094 0.039990 1.000000
tan -0.044330 -0.955112 -0.274040 1.000000
tan 0.062248 -0.974270 0.199764 1.000000
f 3/3/3 2/2/2 1/1/1
f 4/4/4 2/2/2 3/3/3
f 3/3/3 5/5/5 4/4/4
f 2/2/2 4/4/4 6/6/6
f 6/6/6 4/4/4 7/7/7
f 7/7/7 8/8/8 6/6/6
f 9/9/9 8/8/8 7/7/7
f 10/10/10 7/7/7 4/4/4
f 4/4/4 11/11/11 10/10/10
f 12/12/12 11/11/11 4/4/4
f 10/10/10 11/11/11 13/13/13
f 12/12/12 14/14/14 11/11/11
f 13/13/13 11/11/11 14/14/14
f 14/14/14 12/12/12 15/15/15
f 16/16/16 10/10/10 13/13/13
f 14/14/14 16/16/16 13/13/13
f 10/10/10 16/16/16 7/7/7
f 15/15/15 17/17/17 14/14/14
f 15/15/15 18/18/18 17/17/17
f 16/16/16 14/14/14 19/19/19
f 17/17/17 19/19/19 14/14/14
f 18/18/18 20/20/20 17/17/17
f 21/21/21 16/16/16 19/19/19
f 7/7/7 16/16/16 21/21/21
f 23/23/23 22/22/22 20/20/20
f 22/22/22 24/24/24 20/20/20
f 20/20/20 24/24/24 25/25/25
f 20/20/20 25/25/25 17/17/17
f 26/26/26 25/25/25 24/24/24
f 27/27/27 25/25/25 26/26/26
f 25/25/25 28/28/28 17/17/17
f 27/27/27 28/28/28 25/25/25
f 17/17/17 28/28/28 19/19/19
f 21/21/21 19/19/19 28/28/28
f 28/28/28 27/27/27 29/29/29
f 27/27/27 30/30/30 29/29/29
f 29/29/29 30/30/30 31/31/31
f 32/32/32 21/21/21 28/28/28
f 32/32/32 28/28/28 29/29/29
f 32/32/32 7/7/7 21/21/21
f 31/31/31 33/33/33 29/29/29
f 33/33/33 32/32/32 29/29/29
f 34/34/34 33/33/33 31/31/31
f 7/7/7 32/32/32 35/35/35
f 33/33/33 35/35/35 32/32/32
f 35/35/35 36/36/36 7/7/7
f 33/33/33 36/36/36 35/35/35
f 36/36/36 33/33/33 34/34/34
f 36/36/36 9/9/9 7/7/7
f 34/34/34 37/37/37 36/36/36
f 36/36/36 37/37/37 9/9/9
f 40/40/40 39/39/39 38/38/38
f 40/40/40 38/38/38 41/41/41
f 41/41/41 42/42/42 40/40/40
f 43/43/43 41/41/41 38/38/38
f 38/38/38 44/44/44 43/43/43
f 43/43/43 44/44/44 45/45/45
f 45/45/45 41/41/41 43/43/43
f 45/45/45 46/46/46 41/41/41
f 42/42/42 41/41/41 46/46/46
f 45/45/45 47/47/47 46/46/46
f 46/46/46 48/48/48 42/42/42
f 47/47/47 48/48/48 46/46/46
f 42/42/42 48/48/48 49/49/49
f 47/47/47 49/49/49 48/48/48
f 50/50/50 49/49/49 47/47/47
f 50/50/50 51/51/51 49/49/49
f 47/47/47 52/52/52 50/50/50
f 50/50/50 53/53/53 51/51/51
f 52/52/52 54/54/54 50/50/50
f 53/53/53 50/50/50 54/54/54
f 54/54/54 52/52/52 55/55/55
f 54/54/54 56/56/56 53/53/53
f 54/54/54 55/55/55 56/56/56
f 57/57/57 53/53/53 56/56/56
f 58/58/58 56/56/56 55/55/55
f 58/58/58 57/57/57 56/56/56
f 55/55/55 59/59/59 58/58/58
f 58/58/58 60/60/60 57/57/57
f 61/61/61 57/57/57 60/60/60
f 59/59/59 62/62/62 58/58/58
f 60/60/60 58/58/58 62/62/62
f 62/62/62 59/59/59 63/63/63
f 62/62/62 63/63/63 64/64/64
f 65/65/65 61/61/61 60/60/60
f 60/60/60 62/62/62 65/65/65
f 66/66/66 61/61/61 65/65/65
f 66/66/66 65/65/65 62/62/62
f 66/66/66 67/67/67 61/61/61
f 66/66/66 62/62/62 68/68/68
f 68/68/68 67/67/67 66/66/66
f 64/64/64 68/68/68 62/62/62
f 69/69/69 67/67/67 68/68/68
f 64/64/64 69/69/69 68/68/68
f 70/70/70 67/67/67 69/69/69
f 69/69/69 64/64/64 71/71/71
