mtllib SM_Ramp_02@000001EE2A52F200.mtl
g SM_Ramp_02@000001EE2A52F200
#Vertices 62
#Indices 264
#Section 0 Offset 0 NumIndices 264 MaterialIndex 0 MI_Base_01
v 10.240469 0.455278 -0.737765 0.000000 0.635294 0.000000 1.000000
v 10.254155 -0.000000 -0.000003 0.000000 0.000000 0.000000 1.000000
v 10.254156 0.682917 0.000854 0.000000 0.678431 0.000000 1.000000
v 10.237837 0.700000 0.000875 0.000000 0.878431 0.000000 1.000000
v 10.240467 -0.000000 -0.738337 0.000000 0.000000 0.000000 1.000000
v 10.224149 0.466666 -0.756221 0.000000 0.662745 0.000000 1.000000
v 9.296165 0.700000 0.000875 0.000000 0.000000 0.000000 1.000000
v 10.240466 0.227639 -1.476385 0.000000 0.164706 0.000000 1.000000
v 10.240466 -0.000000 -1.476670 0.000000 0.000000 0.000000 1.000000
v 10.229303 -0.000000 -2.215004 0.886275 0.886275 0.886275 1.000000
v 10.224148 0.233333 -1.513317 0.000000 0.180392 0.000000 1.000000
v 10.212984 -0.000000 -2.270413 0.886275 0.886275 0.886275 1.000000
v 9.296165 0.466666 -0.756221 0.000000 0.619608 0.000000 1.000000
v 8.368180 0.700000 0.000875 0.000000 0.000000 0.000000 1.000000
v 9.296165 0.233333 -1.513317 0.000000 0.941177 0.000000 1.000000
v 9.296162 -0.000000 -2.270413 0.384314 0.384314 0.384314 1.000000
v 8.368179 0.233333 -1.513317 0.000000 0.000000 0.360784 1.000000
v 8.368178 -0.000000 -2.270413 0.000000 0.000000 0.000000 1.000000
v 7.440193 -0.000000 -2.270411 1.000000 1.000000 1.000000 1.000000
v 8.368179 0.466666 -0.756221 0.000000 0.000000 0.082353 1.000000
v 7.440195 0.233333 -1.513315 0.000000 0.000000 0.035294 1.000000
v 7.440195 0.466666 -0.756220 0.000000 0.000000 0.000000 1.000000
v 7.440195 0.700000 0.000876 0.000000 0.000000 0.000000 1.000000
v 6.512210 0.700000 0.000876 0.000000 0.870588 0.000000 1.000000
v 6.512210 0.233333 -1.513315 0.000000 0.600000 0.211765 1.000000
v 6.512209 -0.000000 -2.270411 0.000000 0.054902 0.000000 1.000000
v 6.512210 0.466666 -0.756219 0.000000 1.000000 0.000000 1.000000
v 5.584226 0.700000 0.000877 0.000000 0.372549 0.000000 1.000000
v 5.584226 0.233333 -1.513315 0.000000 0.000000 0.313726 1.000000
v 5.584224 -0.000000 -2.270411 0.690196 0.690196 0.690196 1.000000
v 5.584226 0.466666 -0.756219 0.352941 0.352941 0.600000 1.000000
v 4.656241 0.700000 0.000877 0.019608 0.682353 0.019608 1.000000
v 4.656240 -0.000000 -2.270411 0.458824 0.458824 0.458824 1.000000
v 4.656241 0.466666 -0.756219 0.258824 0.258824 0.258824 1.000000
v 3.728257 0.700000 0.000877 0.000000 0.631373 0.000000 1.000000
v 4.656241 0.219365 -1.489464 0.564706 0.564706 0.564706 1.000000
v 3.728256 0.219365 -1.489464 0.000000 1.000000 0.000000 1.000000
v 3.728256 -0.000000 -2.270411 0.047059 0.047059 0.047059 1.000000
v 3.728256 0.466666 -0.756219 0.000000 1.000000 0.000000 1.000000
v 2.800272 0.700000 0.000877 0.000000 0.862745 0.000000 1.000000
v 2.800272 0.233333 -1.513314 0.000000 0.000000 0.000000 1.000000
v 2.800272 0.466666 -0.756219 0.000000 0.000000 0.000000 1.000000
v 1.872288 0.700000 0.000877 0.000000 0.211765 0.000000 1.000000
v 2.800271 -0.000000 -2.270410 0.878431 0.878431 0.878431 1.000000
v 1.872288 0.466666 -0.756218 0.000000 0.000000 0.000000 1.000000
v 0.944302 0.700000 0.000877 0.000000 0.650980 0.000000 1.000000
v 1.872287 0.233333 -1.513314 0.000000 0.000000 0.000000 1.000000
v 1.872286 -0.000000 -2.270410 0.082353 0.082353 0.082353 1.000000
v 0.944302 0.466666 -0.756218 0.000000 0.290196 0.000000 1.000000
v 0.944302 0.233333 -1.513314 0.000000 0.000000 0.000000 1.000000
v 0.944302 -0.000000 -2.270410 0.000000 0.000000 0.000000 1.000000
v 0.016318 0.700000 0.000878 0.000000 0.800000 0.000000 1.000000
v 0.055228 0.233333 -1.513314 0.000000 0.917647 0.000000 1.000000
v 0.016318 -0.000000 -2.270410 1.000000 1.000000 1.000000 1.000000
v -0.000002 -0.000000 -2.215001 1.000000 1.000000 1.000000 1.000000
v 0.016318 0.466666 -0.756218 0.270588 1.000000 0.270588 1.000000
v 0.038909 0.227639 -1.476382 0.000000 0.231373 0.000000 1.000000
v 0.009952 -0.000000 -1.476667 0.000000 0.000000 0.000000 1.000000
v -0.000001 -0.000000 -0.738334 0.000000 0.000000 0.000000 1.000000
v -0.000001 0.455278 -0.737762 0.000000 0.741176 0.000000 1.000000
v -0.000001 0.682917 0.000856 0.000000 0.784314 0.000000 1.000000
v -0.000001 0.000000 0.000000 0.000000 0.000000 0.000000 1.000000
vt 3.082031 0.798706
vt 3.410156 1.081177
vt 3.085938 1.185181
vt 3.076172 1.187500
vt 3.298828 0.729980
vt 3.070312 0.791504
vt 2.605469 1.187256
vt 3.080078 0.412109
vt 3.189453 0.377930
vt 3.076172 0.025879
vt 3.070312 0.395508
vt 3.064453 0.000000
vt 2.605469 0.791382
vt 2.142578 1.187134
vt 2.605469 0.395508
vt 2.605469 0.000000
vt 2.142578 0.395508
vt 2.142578 -0.000977
vt 1.678711 -0.000977
vt 2.142578 0.791138
vt 1.678711 0.395020
vt 1.678711 0.791016
vt 1.678711 1.187012
vt 1.214844 1.186890
vt 1.214844 0.395020
vt 1.214844 -0.000977
vt 1.214844 0.790894
vt 0.751465 1.187134
vt 0.750977 0.394531
vt 0.750488 -0.000977
vt 0.751465 0.790894
vt 0.287354 1.187378
vt 0.286621 0.000000
vt 0.287354 0.791748
vt -0.176758 1.187378
vt 0.287109 0.405273
vt -0.176636 0.405273
vt -0.176270 0.000000
vt -0.177002 0.791748
vt -0.640625 1.187134
vt -0.640625 0.394531
vt -0.641113 0.790894
vt -1.104492 1.187012
vt -0.640137 -0.000977
vt -1.104492 0.791016
vt -1.568359 1.187134
vt -1.104492 0.395020
vt -1.104492 -0.000977
vt -1.568359 0.791138
vt -1.569336 0.395020
vt -1.569336 -0.000977
vt -2.033203 1.187378
vt -2.013672 0.395020
vt -2.033203 -0.000977
vt -2.042969 0.024902
vt -2.031250 0.791382
vt -2.029297 0.412109
vt -2.138672 0.378906
vt -2.257812 0.727783
vt -2.041016 0.798950
vt -2.044922 1.184692
vt -2.369141 1.080200
vt1 0.091431 0.501953
vt1 0.038940 0.457031
vt1 0.090698 0.440430
vt1 0.092407 0.439941
vt1 0.056854 0.512939
vt1 0.093384 0.502930
vt1 0.167358 0.439941
vt1 0.091614 0.563477
vt1 0.074341 0.569092
vt1 0.092346 0.625000
vt1 0.093384 0.566162
vt1 0.094238 0.629395
vt1 0.167358 0.503174
vt1 0.241211 0.439941
vt1 0.167236 0.566162
vt1 0.167236 0.629395
vt1 0.241211 0.566162
vt1 0.241211 0.629395
vt1 0.315186 0.629395
vt1 0.241211 0.503174
vt1 0.315186 0.566162
vt1 0.315186 0.503174
vt1 0.315186 0.439941
vt1 0.388916 0.439941
vt1 0.389160 0.566406
vt1 0.389160 0.629395
vt1 0.388916 0.503174
vt1 0.462891 0.439941
vt1 0.462891 0.566406
vt1 0.463135 0.629395
vt1 0.462891 0.503174
vt1 0.536621 0.439941
vt1 0.537109 0.629150
vt1 0.536621 0.502930
vt1 0.610840 0.439941
vt1 0.536621 0.564697
vt1 0.610840 0.564697
vt1 0.610840 0.629395
vt1 0.610840 0.503174
vt1 0.684570 0.439941
vt1 0.684570 0.566406
vt1 0.684570 0.503174
vt1 0.758789 0.440430
vt1 0.684570 0.629395
vt1 0.758789 0.503174
vt1 0.832520 0.440430
vt1 0.758789 0.566406
vt1 0.758789 0.629395
vt1 0.832520 0.503174
vt1 0.832520 0.566406
vt1 0.832520 0.629395
vt1 0.906738 0.439941
vt1 0.903809 0.566406
vt1 0.906738 0.629395
vt1 0.908203 0.625488
vt1 0.906738 0.503174
vt1 0.905762 0.563721
vt1 0.923340 0.569092
vt1 0.942383 0.513428
vt1 0.908203 0.501953
vt1 0.908691 0.440430
vt1 0.960449 0.457520
vn 1.000000 0.031496 -0.007874
vn 1.000000 0.000000 0.000000
vn 1.000000 0.031496 -0.007874
vn 0.015748 0.952756 -0.291339
vn 1.000000 0.000000 0.000000
vn 0.015748 0.952756 -0.291339
vn 0.000000 0.952756 -0.291339
vn 1.000000 0.055118 -0.015748
vn 1.000000 0.000000 0.000000
vn 0.921260 0.362205 -0.110236
vn 0.015748 0.952756 -0.291339
vn 0.007874 0.952756 -0.291339
vn 0.000000 0.952756 -0.291339
vn 0.000000 0.952756 -0.291339
vn 0.000000 0.952756 -0.291339
vn 0.000000 0.952756 -0.291339
vn 0.000000 0.952756 -0.291339
vn 0.000000 0.952756 -0.291339
vn 0.000000 0.952756 -0.291339
vn 0.000000 0.952756 -0.291339
vn 0.000000 0.952756 -0.291339
vn 0.000000 0.952756 -0.291339
vn 0.000000 0.952756 -0.291339
vn 0.000000 0.952756 -0.291339
vn 0.000000 0.952756 -0.291339
vn 0.000000 0.952756 -0.291339
vn 0.000000 0.952756 -0.291339
vn 0.000000 0.952756 -0.291339
vn 0.000000 0.952756 -0.291339
vn 0.000000 0.952756 -0.291339
vn 0.000000 0.952756 -0.291339
vn 0.000000 0.952756 -0.291339
vn 0.000000 0.952756 -0.291339
vn 0.000000 0.952756 -0.291339
vn 0.000000 0.952756 -0.291339
vn 0.000000 0.952756 -0.291339
vn 0.000000 0.952756 -0.291339
vn 0.000000 0.952756 -0.291339
vn 0.000000 0.952756 -0.291339
vn 0.000000 0.952756 -0.291339
vn 0.000000 0.952756 -0.291339
vn 0.000000 0.952756 -0.291339
vn 0.000000 0.952756 -0.291339
vn 0.000000 0.952756 -0.291339
vn 0.000000 0.952756 -0.291339
vn 0.000000 0.952756 -0.291339
vn 0.000000 0.952756 -0.291339
vn 0.000000 0.952756 -0.291339
vn 0.000000 0.952756 -0.291339
vn 0.000000 0.952756 -0.291339
vn 0.000000 0.952756 -0.291339
vn -0.015748 0.952756 -0.291339
vn -0.015748 0.952756 -0.291339
vn -0.007874 0.952756 -0.291339
vn -0.921260 0.362205 -0.110236
vn -0.015748 0.952756 -0.291339
vn -1.000000 0.055118 -0.015748
vn -1.000000 0.000000 0.000000
vn -1.000000 0.000000 0.000000
vn -1.000000 0.031496 -0.007874
vn -1.000000 0.031496 -0.007874
vn -1.000000 0.000000 0.000000
tan 0.001674 -0.291587 -0.953748 1.000000
tan 0.000000 -0.299213 -0.952756 1.000000
tan 0.001364 -0.283713 -0.961622 1.000000
tan -0.012090 -0.291215 -0.953004 1.000000
tan 0.000000 -0.299213 -0.952756 1.000000
tan -0.004588 -0.291339 -0.953004 1.000000
tan 0.000000 -0.291339 -0.952756 1.000000
tan 0.001488 -0.300205 -0.956228 1.000000
tan 0.000000 -0.299213 -0.952756 1.000000
tan -0.000248 -0.288301 -0.949346 1.000000
tan 0.002914 -0.291463 -0.953004 1.000000
tan -0.002294 -0.291339 -0.952818 1.000000
tan 0.000000 -0.291339 -0.952756 1.000000
tan 0.000000 -0.291339 -0.952756 1.000000
tan 0.000000 -0.291339 -0.952756 1.000000
tan 0.000000 -0.291339 -0.952756 1.000000
tan 0.000000 -0.291339 -0.952756 1.000000
tan 0.000000 -0.291339 -0.952756 1.000000
tan 0.000000 -0.291339 -0.952756 1.000000
tan 0.000000 -0.291339 -0.952756 1.000000
tan 0.000000 -0.291339 -0.952756 1.000000
tan 0.000000 -0.291339 -0.952756 1.000000
tan 0.000000 -0.291339 -0.952756 1.000000
tan 0.000000 -0.291339 -0.952756 1.000000
tan 0.000000 -0.291339 -0.952756 1.000000
tan 0.000000 -0.291339 -0.952756 1.000000
tan 0.000000 -0.291339 -0.952756 1.000000
tan 0.000000 -0.291339 -0.952756 1.000000
tan 0.000000 -0.291339 -0.952756 1.000000
tan 0.000000 -0.291339 -0.952756 1.000000
tan 0.000000 -0.291339 -0.952756 1.000000
tan 0.000000 -0.291339 -0.952756 1.000000
tan 0.000000 -0.291339 -0.952756 1.000000
tan 0.000000 -0.291339 -0.952756 1.000000
tan 0.000000 -0.291339 -0.952756 1.000000
tan 0.000000 -0.291339 -0.952756 1.000000
tan 0.000000 -0.291339 -0.952756 1.000000
tan 0.000000 -0.291339 -0.952756 1.000000
tan 0.000000 -0.291339 -0.952756 1.000000
tan 0.000000 -0.291339 -0.952756 1.000000
tan 0.000000 -0.291339 -0.952756 1.000000
tan 0.000000 -0.291339 -0.952756 1.000000
tan 0.000000 -0.291339 -0.952756 1.000000
tan 0.000000 -0.291339 -0.952756 1.000000
tan 0.000000 -0.291339 -0.952756 1.000000
tan 0.000000 -0.291339 -0.952756 1.000000
tan 0.000000 -0.291339 -0.952756 1.000000
tan 0.000000 -0.291339 -0.952756 1.000000
tan 0.000000 -0.291339 -0.952756 1.000000
tan 0.000000 -0.291339 -0.952756 1.000000
tan 0.000000 -0.291339 -0.952756 1.000000
tan -0.002914 -0.291463 -0.953004 1.000000
tan 0.012090 -0.291215 -0.953004 1.000000
tan -0.007502 -0.291401 -0.952756 1.000000
tan -0.014880 -0.324571 -0.942092 1.000000
tan 0.021886 -0.291091 -0.953128 1.000000
tan -0.000496 -0.284457 -0.964102 1.000000
tan 0.000000 -0.291339 -0.952756 1.000000
tan 0.000000 -0.307087 -0.952756 1.000000
tan -0.001116 -0.275839 -0.961622 1.000000
tan -0.002170 -0.307335 -0.953748 1.000000
tan 0.000000 -0.307087 -0.952756 1.000000
f 3/3/3 2/2/2 1/1/1
f 3/3/3 1/1/1 4/4/4
f 5/5/5 1/1/1 2/2/2
f 1/1/1 6/6/6 4/4/4
f 4/4/4 6/6/6 7/7/7
f 5/5/5 8/8/8 1/1/1
f 6/6/6 1/1/1 8/8/8
f 8/8/8 5/5/5 9/9/9
f 9/9/9 10/10/10 8/8/8
f 11/11/11 8/8/8 10/10/10
f 8/8/8 11/11/11 6/6/6
f 10/10/10 12/12/12 11/11/11
f 13/13/13 7/7/7 6/6/6
f 6/6/6 11/11/11 13/13/13
f 7/7/7 13/13/13 14/14/14
f 11/11/11 12/12/12 15/15/15
f 15/15/15 13/13/13 11/11/11
f 16/16/16 15/15/15 12/12/12
f 15/15/15 16/16/16 17/17/17
f 15/15/15 17/17/17 13/13/13
f 18/18/18 17/17/17 16/16/16
f 18/18/18 19/19/19 17/17/17
f 20/20/20 14/14/14 13/13/13
f 13/13/13 17/17/17 20/20/20
f 17/17/17 19/19/19 21/21/21
f 17/17/17 21/21/21 20/20/20
f 20/20/20 22/22/22 14/14/14
f 20/20/20 21/21/21 22/22/22
f 14/14/14 22/22/22 23/23/23
f 23/23/23 22/22/22 24/24/24
f 21/21/21 19/19/19 25/25/25
f 21/21/21 25/25/25 22/22/22
f 26/26/26 25/25/25 19/19/19
f 27/27/27 24/24/24 22/22/22
f 22/22/22 25/25/25 27/27/27
f 24/24/24 27/27/27 28/28/28
f 25/25/25 26/26/26 29/29/29
f 25/25/25 29/29/29 27/27/27
f 30/30/30 29/29/29 26/26/26
f 31/31/31 28/28/28 27/27/27
f 27/27/27 29/29/29 31/31/31
f 28/28/28 31/31/31 32/32/32
f 30/30/30 33/33/33 29/29/29
f 34/34/34 32/32/32 31/31/31
f 32/32/32 34/34/34 35/35/35
f 29/29/29 36/36/36 31/31/31
f 29/29/29 33/33/33 36/36/36
f 36/36/36 34/34/34 31/31/31
f 36/36/36 33/33/33 37/37/37
f 36/36/36 37/37/37 34/34/34
f 38/38/38 37/37/37 33/33/33
f 39/39/39 35/35/35 34/34/34
f 37/37/37 39/39/39 34/34/34
f 35/35/35 39/39/39 40/40/40
f 37/37/37 38/38/38 41/41/41
f 42/42/42 40/40/40 39/39/39
f 39/39/39 37/37/37 42/42/42
f 41/41/41 42/42/42 37/37/37
f 40/40/40 42/42/42 43/43/43
f 44/44/44 41/41/41 38/38/38
f 45/45/45 43/43/43 42/42/42
f 42/42/42 41/41/41 45/45/45
f 43/43/43 45/45/45 46/46/46
f 41/41/41 44/44/44 47/47/47
f 47/47/47 45/45/45 41/41/41
f 48/48/48 47/47/47 44/44/44
f 49/49/49 46/46/46 45/45/45
f 47/47/47 48/48/48 50/50/50
f 47/47/47 50/50/50 45/45/45
f 50/50/50 49/49/49 45/45/45
f 51/51/51 50/50/50 48/48/48
f 46/46/46 49/49/49 52/52/52
f 50/50/50 51/51/51 53/53/53
f 50/50/50 53/53/53 49/49/49
f 54/54/54 53/53/53 51/51/51
f 55/55/55 53/53/53 54/54/54
f 56/56/56 52/52/52 49/49/49
f 53/53/53 56/56/56 49/49/49
f 53/53/53 55/55/55 57/57/57
f 57/57/57 56/56/56 53/53/53
f 57/57/57 55/55/55 58/58/58
f 58/58/58 59/59/59 57/57/57
f 60/60/60 52/52/52 56/56/56
f 56/56/56 57/57/57 60/60/60
f 59/59/59 60/60/60 57/57/57
f 52/52/52 60/60/60 61/61/61
f 59/59/59 62/62/62 60/60/60
f 60/60/60 62/62/62 61/61/61
