mtllib SM_Roof_02_LOD1.mtl
g SM_Roof_02_LOD1
#Vertices 109
#Indices 258
#Section 0 Offset 0 NumIndices 258 MaterialIndex 0 MI_Walls_Plastic_05
v 5.297318 0.338644 0.010000
v 6.989999 0.338646 1.710204
v 5.245870 0.338644 0.134271
v 6.865728 0.338646 1.761706
v 5.245501 0.330701 0.145146
v 6.848673 0.328646 1.758747
v 6.989999 0.338646 1.710204
v 6.989999 0.338646 6.989999
v 6.865728 0.338647 6.865727
v 6.865728 0.338646 1.761706
v 6.856613 0.330859 6.855257
v 6.855728 0.328646 1.775834
v 6.848673 0.328646 1.758747
v 0.010000 0.338644 0.010000
v 5.297318 0.338644 0.010000
v 0.134271 0.338644 0.134271
v 5.245870 0.338644 0.134271
v 0.144474 0.331556 0.143167
v 5.245501 0.330701 0.145146
v 5.237558 0.117935 0.154272
v 0.154271 0.117935 0.154271
v 5.243415 0.124412 0.144987
v 0.145797 0.123214 0.143544
v 5.245501 0.330701 0.145146
v 0.144474 0.331556 0.143167
v 5.297318 -0.000000 0.010000
v 0.010000 -0.000000 0.010000
v 0.010000 0.000002 6.989999
v 6.989999 0.000001 1.710204
v 6.989999 0.000002 6.989999
v 0.134271 0.338644 0.134271
v 0.010000 0.338646 6.989999
v 0.010000 0.338644 0.010000
v 0.134272 0.338646 6.865728
v 0.144474 0.331556 0.143167
v 0.145097 0.331119 6.856286
v 0.134272 0.338646 6.865728
v 6.989999 0.338646 6.989999
v 0.010000 0.338646 6.989999
v 6.865728 0.338647 6.865727
v 0.145097 0.331119 6.856286
v 6.856613 0.330859 6.855257
v 0.154272 0.117937 6.845728
v 6.845728 0.117937 1.769963
v 6.845728 0.117938 6.845727
v 5.237558 0.117935 0.154272
v 0.154271 0.117935 0.154271
v 0.145097 0.331119 6.856286
v 6.854648 0.123077 6.856317
v 6.856613 0.330859 6.855257
v 0.143718 0.123393 6.853783
v 6.845728 0.117938 6.845727
v 0.154272 0.117937 6.845728
v 5.304315 0.006534 0.000885
v 0.010000 -0.000000 0.010000
v 5.297318 -0.000000 0.010000
v 0.001715 0.005394 -0.000891
v 5.303916 0.332175 0.000703
v -0.000570 0.332957 0.001833
v 0.010000 0.338644 0.010000
v 5.297318 0.338644 0.010000
v 0.001715 0.005394 -0.000891
v 0.010000 0.000002 6.989999
v 0.010000 -0.000000 0.010000
v -0.000463 0.005320 6.998746
v -0.000570 0.332957 0.001833
v -0.000000 0.328646 6.989999
v 0.010000 0.338644 0.010000
v 0.010000 0.328646 6.999999
v 0.010000 0.338646 6.989999
v 6.999976 0.333864 6.999601
v 0.010000 0.338646 6.989999
v 6.989999 0.338646 6.989999
v 0.010000 0.328646 6.999999
v 6.997067 0.005877 7.000916
v -0.000463 0.005320 6.998746
v 0.010000 0.000002 6.989999
v 6.989999 0.000002 6.989999
v 0.144474 0.331556 0.143167
v 0.143718 0.123393 6.853783
v 0.145097 0.331119 6.856286
v 0.145797 0.123214 0.143544
v 0.154271 0.117935 0.154271
v 0.154272 0.117937 6.845728
v 6.854648 0.123077 6.856317
v 6.855728 0.328646 1.775834
v 6.856613 0.330859 6.855257
v 6.855728 0.127937 1.775834
v 6.845728 0.117938 6.845727
v 6.848673 0.328646 1.758747
v 6.845728 0.117937 1.769963
v 6.848673 0.127937 1.758747
v 5.245501 0.330701 0.145146
v 5.237558 0.117935 0.154272
v 5.243415 0.124412 0.144987
v 5.297318 -0.000000 0.010000
v 6.992944 0.010001 1.698988
v 5.304315 0.006534 0.000885
v 6.989999 0.000001 1.710204
v 5.303916 0.332175 0.000703
v 6.999999 0.010001 1.716075
v 6.989999 0.000002 6.989999
v 6.997067 0.005877 7.000916
v 6.999976 0.333864 6.999601
v 6.992944 0.328646 1.698988
v 5.297318 0.338644 0.010000
v 6.989999 0.338646 1.710204
v 6.999999 0.328646 1.716075
v 6.989999 0.338646 6.989999
vt 1.150391 1.686035
vt -0.049713 1.704102
vt 1.123047 1.624512
vt -0.025208 1.642090
vt 1.119141 1.619141
vt -0.017761 1.635254
vt 2.591797 2.066406
vt -0.049713 2.066406
vt 0.012207 2.003906
vt 2.564453 2.003906
vt 0.017929 1.999023
vt 2.558594 1.998047
vt 2.566406 1.994629
vt 2.593750 2.233398
vt -0.049713 2.233398
vt 2.533203 2.170898
vt -0.024017 2.171875
vt 2.527344 2.166016
vt -0.023315 2.165039
vt 2.492188 1.898926
vt -0.049622 1.899414
vt 2.494141 1.894043
vt -0.053925 1.894531
vt 2.496094 1.791016
vt -0.054626 1.790527
vt 3.607422 3.656250
vt 3.607422 6.300781
vt 0.117432 6.300781
vt 2.757812 2.810547
vt 0.117432 2.810547
vt 0.012314 6.433594
vt 3.441406 6.496094
vt -0.049713 6.496094
vt 3.378906 6.433594
vt 0.017365 6.429688
vt 3.375000 6.429688
vt 3.517578 0.139160
vt 0.089050 0.077148
vt 3.580078 0.077637
vt 0.151001 0.139160
vt 3.511719 0.144531
vt 0.156128 0.145020
vt 6.777344 0.670166
vt 3.433594 3.208984
vt 3.433594 0.670166
vt 4.234375 4.015625
vt 6.777344 4.015625
vt -0.054291 2.708008
vt 3.300781 2.604492
vt 3.302734 2.708008
vt -0.054993 2.604492
vt 3.296875 2.599609
vt -0.049713 2.599609
vt 2.597656 2.343750
vt -0.049652 2.338867
vt 2.593750 2.338867
vt -0.053864 2.343750
vt 2.597656 2.506836
vt -0.054993 2.506836
vt -0.049622 2.511719
vt 2.593750 2.511719
vt -0.048431 6.769531
vt 3.447266 6.773438
vt -0.043823 6.773438
vt 3.451172 6.769531
vt -0.047058 6.605469
vt 3.447266 6.609375
vt -0.043823 6.601562
vt 3.453125 6.609375
vt 3.447266 6.601562
vt -0.054718 0.557373
vt 3.441406 0.562012
vt -0.049713 0.562012
vt 3.441406 0.554932
vt -0.053253 0.393555
vt 3.447266 0.393066
vt 3.441406 0.388672
vt -0.049713 0.388672
vt 3.310547 0.648926
vt -0.046082 0.752563
vt -0.047729 0.648926
vt 3.308594 0.752686
vt 3.304688 0.756958
vt -0.042877 0.756958
vt -0.048859 6.867188
vt 2.492188 6.968750
vt -0.048065 6.968750
vt 2.492188 6.867188
vt -0.044769 6.863281
vt 2.500000 6.968750
vt 2.496094 6.863281
vt 2.500000 6.867188
vt 3.638672 6.968750
vt 3.636719 6.859375
vt 3.638672 6.867188
vt -0.049713 7.074219
vt 1.147461 7.082031
vt -0.050568 7.078125
vt 1.151367 7.074219
vt -0.050781 7.242188
vt 1.154297 7.082031
vt 3.794922 7.074219
vt 3.798828 7.078125
vt 3.798828 7.242188
vt 1.147461 7.242188
vt -0.049713 7.250000
vt 1.151367 7.246094
vt 1.154297 7.242188
vt 3.794922 7.246094
vt1 0.026413 0.918823
vt1 0.023926 0.756958
vt1 0.034698 0.915222
vt1 0.032349 0.760254
vt1 0.035370 0.914673
vt1 0.033234 0.761230
vt1 0.445557 0.811035
vt1 0.089111 0.811035
vt1 0.097473 0.802734
vt1 0.442139 0.802734
vt1 0.098267 0.802002
vt1 0.440918 0.801880
vt1 0.442139 0.801392
vt1 0.679688 0.033691
vt1 0.679688 0.390625
vt1 0.671387 0.041992
vt1 0.671387 0.387207
vt1 0.670898 0.042969
vt1 0.670898 0.387207
vt1 0.428955 0.913574
vt1 0.085754 0.913635
vt1 0.429199 0.912903
vt1 0.085205 0.912964
vt1 0.429443 0.899048
vt1 0.085083 0.898926
vt1 0.451660 0.625244
vt1 0.094849 0.625244
vt1 0.094849 0.154297
vt1 0.565918 0.510498
vt1 0.565918 0.154297
vt1 0.071716 0.116211
vt1 0.534180 0.124512
vt1 0.063293 0.124512
vt1 0.525879 0.116211
vt1 0.072388 0.115723
vt1 0.525391 0.115723
vt1 0.064148 0.609131
vt1 0.072510 0.146484
vt1 0.072510 0.617432
vt1 0.064148 0.154785
vt1 0.063416 0.608154
vt1 0.063416 0.155273
vt1 0.932617 0.980011
vt1 0.589844 0.528320
vt1 0.932617 0.528320
vt1 0.480957 0.636963
vt1 0.480957 0.980011
vt1 0.769043 0.025391
vt1 0.783203 0.478027
vt1 0.769043 0.478516
vt1 0.782715 0.025391
vt1 0.783691 0.477539
vt1 0.783691 0.025879
vt1 0.440674 0.711426
vt1 0.083496 0.710693
vt1 0.440430 0.710693
vt1 0.082947 0.711426
vt1 0.440674 0.733398
vt1 0.082825 0.733398
vt1 0.083496 0.734131
vt1 0.440430 0.734131
vt1 0.063477 0.094238
vt1 0.535156 0.094727
vt1 0.064087 0.094727
vt1 0.535645 0.094238
vt1 0.063660 0.072266
vt1 0.535156 0.072266
vt1 0.064087 0.071289
vt1 0.536133 0.072266
vt1 0.535156 0.071289
vt1 0.958496 0.495605
vt1 0.958984 0.023438
vt1 0.958984 0.494629
vt1 0.958008 0.023438
vt1 0.936523 0.495117
vt1 0.936035 0.022949
vt1 0.935547 0.023438
vt1 0.935547 0.494629
vt1 0.868164 0.485840
vt1 0.854004 0.033203
vt1 0.868164 0.032715
vt1 0.854004 0.485840
vt1 0.853516 0.485352
vt1 0.853516 0.033691
vt1 0.020752 0.572754
vt1 0.034607 0.229980
vt1 0.034760 0.572754
vt1 0.021042 0.229980
vt1 0.020172 0.572266
vt1 0.034546 0.229004
vt1 0.020126 0.229492
vt1 0.021011 0.229004
vt1 0.034668 0.075195
vt1 0.019989 0.075195
vt1 0.020737 0.075195
vt1 0.542969 0.043457
vt1 0.381836 0.042480
vt1 0.543457 0.042969
vt1 0.381104 0.043457
vt1 0.543457 0.020996
vt1 0.380615 0.042480
vt1 0.024597 0.043457
vt1 0.024017 0.042969
vt1 0.024109 0.020996
vt1 0.381836 0.020996
vt1 0.542969 0.020020
vt1 0.381104 0.020508
vt1 0.380615 0.020996
vt1 0.024597 0.020508
vn 0.015748 1.000000 -0.070866
vn 0.070866 1.000000 -0.015748
vn -0.007874 1.000000 0.031496
vn -0.031496 1.000000 0.007874
vn -0.669291 0.314961 0.677165
vn -0.708661 0.070866 0.700787
vn 0.070866 1.000000 -0.015748
vn 0.062992 0.992126 0.078740
vn -0.007874 1.000000 -0.007874
vn -0.031496 1.000000 0.007874
vn -0.968504 0.251968 -0.007874
vn -1.000000 0.070866 -0.000000
vn -0.708661 0.070866 0.700787
vn -0.078740 0.992126 -0.062992
vn 0.015748 1.000000 -0.070866
vn 0.007874 1.000000 0.007874
vn -0.007874 1.000000 0.031496
vn 0.000000 0.299213 0.952756
vn 0.000000 0.133858 0.992126
vn 0.000000 1.000000 -0.000000
vn 0.000000 1.000000 -0.000000
vn -0.007874 0.086614 1.000000
vn 0.000000 0.055118 1.000000
vn -0.007874 0.070866 1.000000
vn 0.000000 0.078740 1.000000
vn 0.000000 -1.000000 0.000000
vn 0.000000 -1.000000 0.000000
vn 0.000000 -1.000000 0.000000
vn 0.000000 -1.000000 0.000000
vn 0.000000 -1.000000 0.000000
vn 0.007874 1.000000 0.007874
vn -0.070866 0.992126 0.070866
vn -0.078740 0.992126 -0.062992
vn 0.007874 1.000000 -0.007874
vn 0.976378 0.204724 -0.000000
vn 0.984252 0.165354 -0.007874
vn 0.007874 1.000000 -0.007874
vn 0.062992 0.992126 0.078740
vn -0.070866 0.992126 0.070866
vn -0.007874 1.000000 -0.007874
vn 0.000000 0.236220 -0.968504
vn 0.000000 0.165354 -0.984252
vn 0.000000 1.000000 -0.000000
vn -0.007874 1.000000 -0.000000
vn 0.000000 1.000000 -0.000000
vn 0.000000 1.000000 -0.000000
vn 0.000000 1.000000 -0.000000
vn 0.000000 0.070866 -1.000000
vn 0.000000 0.055118 -1.000000
vn 0.000000 0.070866 -1.000000
vn 0.000000 0.086614 -1.000000
vn 0.000000 1.000000 -0.000000
vn 0.000000 1.000000 -0.000000
vn 0.007874 -0.055118 -1.000000
vn 0.000000 -1.000000 0.000000
vn 0.000000 -1.000000 0.000000
vn 0.000000 -0.039370 -1.000000
vn 0.000000 0.047244 -1.000000
vn 0.000000 0.047244 -1.000000
vn -0.078740 0.992126 -0.062992
vn 0.015748 1.000000 -0.070866
vn -1.000000 -0.055118 -0.007874
vn 0.000000 -1.000000 0.000000
vn 0.000000 -1.000000 0.000000
vn -1.000000 -0.039370 0.000000
vn -1.000000 0.031496 -0.000000
vn -1.000000 0.031496 -0.000000
vn -0.078740 0.992126 -0.062992
vn 0.000000 0.031496 1.000000
vn -0.070866 0.992126 0.070866
vn 0.000000 0.055118 1.000000
vn -0.070866 0.992126 0.070866
vn 0.062992 0.992126 0.078740
vn 0.000000 0.031496 1.000000
vn 0.000000 -0.039370 1.000000
vn 0.000000 -0.047244 1.000000
vn 0.000000 -1.000000 0.000000
vn 0.000000 -1.000000 0.000000
vn 1.000000 0.070866 -0.000000
vn 1.000000 0.055118 -0.000000
vn 1.000000 0.078740 -0.007874
vn 1.000000 0.070866 0.007874
vn 0.000000 1.000000 -0.000000
vn 0.000000 1.000000 -0.000000
vn -1.000000 0.055118 -0.007874
vn -1.000000 0.070866 -0.000000
vn -1.000000 0.070866 -0.007874
vn -1.000000 0.055118 -0.000000
vn 0.000000 1.000000 -0.000000
vn -0.708661 0.070866 0.700787
vn -0.007874 1.000000 -0.000000
vn -0.708661 0.055118 0.700787
vn -0.708661 0.070866 0.708661
vn 0.000000 1.000000 -0.000000
vn -0.708661 0.070866 0.708661
vn 0.000000 -1.000000 0.000000
vn 0.708661 -0.039370 -0.700787
vn 0.708661 -0.039370 -0.708661
vn 0.000000 -1.000000 0.000000
vn 0.708661 0.039370 -0.708661
vn 1.000000 -0.039370 0.000000
vn 0.000000 -1.000000 0.000000
vn 1.000000 -0.047244 0.007874
vn 1.000000 0.039370 -0.000000
vn 0.708661 0.039370 -0.700787
vn 0.015748 1.000000 -0.070866
vn 0.070866 1.000000 -0.015748
vn 1.000000 0.039370 -0.000000
vn 0.062992 0.992126 0.078740
tan -0.716535 0.060946 0.700787 1.000000
tan -0.724409 0.062248 0.692913 1.000000
tan -0.708661 -0.027900 0.708661 1.000000
tan -0.716535 -0.028024 0.692913 1.000000
tan -0.324881 -0.938310 0.115320 1.000000
tan -0.067332 -0.993366 0.032364 1.000000
tan -1.000000 0.070866 -0.000000 1.000000
tan -0.992126 0.063612 -0.007812 1.000000
tan -1.000000 -0.007998 -0.015748 1.000000
tan -1.000000 -0.031682 0.023622 1.000000
tan -0.252340 -0.968504 0.045756 1.000000
tan -0.070866 -1.000000 -0.039370 1.000000
tan -0.429785 -0.832538 -0.350425 1.000000
tan 0.007812 0.063612 0.992126 1.000000
tan 0.000000 0.070866 1.000000 1.000000
tan 0.000000 -0.007874 1.000000 1.000000
tan 0.000000 -0.031496 1.000000 1.000000
tan 0.000000 -0.952756 0.299213 1.000000
tan 0.000000 -0.992126 0.133858 1.000000
tan 0.228346 -0.000000 -0.976378 1.000000
tan 0.000000 -0.000000 -1.000000 1.000000
tan -0.015748 1.000000 -0.086738 1.000000
tan 0.000000 1.000000 -0.055118 1.000000
tan 0.007874 1.000000 -0.070804 1.000000
tan 0.000000 1.000000 -0.078740 1.000000
tan 1.000000 0.000000 0.000000 1.000000
tan 1.000000 0.000000 0.000000 1.000000
tan 1.000000 0.000000 0.000000 1.000000
tan 1.000000 0.000000 0.000000 1.000000
tan 1.000000 0.000000 0.000000 1.000000
tan 1.000000 -0.007998 0.015748 1.000000
tan 0.992126 0.071424 -0.007812 1.000000
tan 0.992126 0.079236 0.007812 1.000000
tan 1.000000 -0.008060 -0.023622 1.000000
tan 0.204724 -0.976378 -0.046128 1.000000
tan 0.165726 -0.984252 0.046500 1.000000
tan 0.000000 0.007874 1.000000 1.000000
tan 0.007812 -0.079236 0.992126 1.000000
tan -0.007812 -0.071424 0.992126 1.000000
tan 0.000000 0.007874 1.000000 1.000000
tan 0.000000 0.968504 0.236220 1.000000
tan 0.000000 0.984252 0.165354 1.000000
tan 0.000000 0.000000 1.000000 1.000000
tan 0.000000 0.000000 1.000000 1.000000
tan 0.000000 0.000000 1.000000 1.000000
tan 0.000000 0.000000 1.000000 1.000000
tan 0.000000 0.000000 1.000000 1.000000
tan 0.000000 -1.000000 -0.070866 1.000000
tan 0.000000 -1.000000 -0.055118 1.000000
tan 0.000000 -1.000000 -0.070866 1.000000
tan 0.000000 -1.000000 -0.086614 1.000000
tan 0.000000 -0.000000 -1.000000 1.000000
tan 0.000000 -0.000000 -1.000000 1.000000
tan 0.015748 -1.000000 0.055242 1.000000
tan 0.000000 0.000000 1.000000 1.000000
tan -0.228346 0.000000 0.976378 1.000000
tan 0.000000 -1.000000 0.039370 1.000000
tan -0.015748 -1.000000 -0.047244 1.000000
tan 0.000000 -1.000000 -0.047244 1.000000
tan -0.007812 -0.063612 -0.992126 1.000000
tan 0.220472 -0.072664 -0.976378 1.000000
tan -0.055614 1.000000 0.062992 1.000000
tan -0.937008 0.000000 0.346457 1.000000
tan -0.937008 -0.000000 -0.346457 1.000000
tan -0.039370 1.000000 -0.062992 1.000000
tan 0.031496 1.000000 -0.062992 1.000000
tan 0.031496 1.000000 0.062992 1.000000
tan 0.937442 0.094736 0.320293 1.000000
tan 0.196850 0.984252 -0.031000 1.000000
tan 0.937442 0.090396 -0.328105 1.000000
tan 0.000000 -1.000000 0.055118 1.000000
tan -0.007812 -0.071424 0.992126 1.000000
tan 0.007812 -0.079236 0.992126 1.000000
tan 0.000000 -1.000000 0.031496 1.000000
tan 0.000000 -1.000000 -0.039370 1.000000
tan 0.000000 -1.000000 -0.047244 1.000000
tan 0.000000 -0.000000 -1.000000 1.000000
tan 0.000000 -0.000000 -1.000000 1.000000
tan -0.070866 1.000000 -0.015748 1.000000
tan -0.055118 1.000000 -0.062992 1.000000
tan -0.078616 1.000000 0.015748 1.000000
tan -0.071424 1.000000 0.070866 1.000000
tan -0.937008 -0.000000 -0.346457 1.000000
tan -0.937008 0.000000 0.346457 1.000000
tan -0.055428 -1.000000 0.039370 1.000000
tan -0.070866 -1.000000 0.000000 1.000000
tan -0.070618 -1.000000 -0.031496 1.000000
tan -0.055118 -1.000000 0.000000 1.000000
tan -0.937008 -0.000000 -0.354331 1.000000
tan -0.089404 -0.993366 0.010044 1.000000
tan -0.929134 -0.007316 0.377953 1.000000
tan -0.067084 -0.993366 0.010292 1.000000
tan -0.050220 -1.004402 0.050220 1.000000
tan -0.708661 0.000000 0.708661 1.000000
tan -0.049662 -0.998822 0.050220 1.000000
tan -0.708661 0.000000 0.708661 1.000000
tan -0.039246 -0.993366 0.016120 1.000000
tan -0.027590 -0.998822 0.027900 1.000000
tan -0.921260 0.000000 0.377953 1.000000
tan 0.027590 -0.998822 -0.027900 1.000000
tan -0.039370 -1.000000 0.007874 1.000000
tan -0.937008 -0.000000 -0.354331 1.000000
tan -0.047554 -1.000000 0.039370 1.000000
tan 0.039370 -1.000000 -0.047244 1.000000
tan 0.039246 -0.993366 -0.016120 1.000000
tan 0.708661 -0.061380 -0.708661 1.000000
tan 0.921260 -0.071238 -0.377953 1.000000
tan 0.039370 -1.000000 -0.007874 1.000000
tan 0.937442 -0.086180 0.335917 1.000000
f 3/3/3 2/2/2 1/1/1
f 2/2/2 3/3/3 4/4/4
f 5/5/5 4/4/4 3/3/3
f 6/6/6 4/4/4 5/5/5
f 9/9/9 8/8/8 7/7/7
f 10/10/10 9/9/9 7/7/7
f 9/9/9 10/10/10 11/11/11
f 12/12/12 11/11/11 10/10/10
f 12/12/12 10/10/10 13/13/13
f 16/16/16 15/15/15 14/14/14
f 17/17/17 15/15/15 16/16/16
f 18/18/18 17/17/17 16/16/16
f 19/19/19 17/17/17 18/18/18
f 22/22/22 21/21/21 20/20/20
f 21/21/21 22/22/22 23/23/23
f 22/22/22 24/24/24 23/23/23
f 25/25/25 23/23/23 24/24/24
f 28/28/28 27/27/27 26/26/26
f 26/26/26 29/29/29 28/28/28
f 30/30/30 28/28/28 29/29/29
f 33/33/33 32/32/32 31/31/31
f 34/34/34 31/31/31 32/32/32
f 31/31/31 34/34/34 35/35/35
f 36/36/36 35/35/35 34/34/34
f 39/39/39 38/38/38 37/37/37
f 40/40/40 37/37/37 38/38/38
f 37/37/37 40/40/40 41/41/41
f 42/42/42 41/41/41 40/40/40
f 45/45/45 44/44/44 43/43/43
f 44/44/44 46/46/46 43/43/43
f 47/47/47 43/43/43 46/46/46
f 50/50/50 49/49/49 48/48/48
f 51/51/51 48/48/48 49/49/49
f 49/49/49 52/52/52 51/51/51
f 53/53/53 51/51/51 52/52/52
f 56/56/56 55/55/55 54/54/54
f 57/57/57 54/54/54 55/55/55
f 54/54/54 57/57/57 58/58/58
f 57/57/57 59/59/59 58/58/58
f 59/59/59 60/60/60 58/58/58
f 58/58/58 60/60/60 61/61/61
f 64/64/64 63/63/63 62/62/62
f 65/65/65 62/62/62 63/63/63
f 62/62/62 65/65/65 66/66/66
f 65/65/65 67/67/67 66/66/66
f 66/66/66 67/67/67 68/68/68
f 67/67/67 65/65/65 69/69/69
f 70/70/70 68/68/68 67/67/67
f 67/67/67 69/69/69 70/70/70
f 73/73/73 72/72/72 71/71/71
f 74/74/74 71/71/71 72/72/72
f 75/75/75 71/71/71 74/74/74
f 76/76/76 75/75/75 74/74/74
f 76/76/76 77/77/77 75/75/75
f 78/78/78 75/75/75 77/77/77
f 81/81/81 80/80/80 79/79/79
f 82/82/82 79/79/79 80/80/80
f 82/82/82 80/80/80 83/83/83
f 84/84/84 83/83/83 80/80/80
f 87/87/87 86/86/86 85/85/85
f 88/88/88 85/85/85 86/86/86
f 85/85/85 88/88/88 89/89/89
f 90/90/90 88/88/88 86/86/86
f 91/91/91 89/89/89 88/88/88
f 92/92/92 88/88/88 90/90/90
f 88/88/88 92/92/92 91/91/91
f 90/90/90 93/93/93 92/92/92
f 91/91/91 92/92/92 94/94/94
f 95/95/95 92/92/92 93/93/93
f 95/95/95 94/94/94 92/92/92
f 98/98/98 97/97/97 96/96/96
f 99/99/99 96/96/96 97/97/97
f 98/98/98 100/100/100 97/97/97
f 99/99/99 97/97/97 101/101/101
f 99/99/99 101/101/101 102/102/102
f 103/103/103 102/102/102 101/101/101
f 103/103/103 101/101/101 104/104/104
f 105/105/105 97/97/97 100/100/100
f 97/97/97 105/105/105 101/101/101
f 100/100/100 106/106/106 105/105/105
f 105/105/105 106/106/106 107/107/107
f 101/101/101 108/108/108 104/104/104
f 108/108/108 101/101/101 105/105/105
f 108/108/108 105/105/105 107/107/107
f 104/104/104 108/108/108 109/109/109
f 107/107/107 109/109/109 108/108/108
