mtllib SM_Rock_13.mtl
g SM_Rock_13
#Vertices 117
#Indices 480
#Section 0 Offset 0 NumIndices 480 MaterialIndex 0 MI_Small_Rocks_01
v 0.025723 0.000617 -0.015045
v 0.028355 0.000308 0.000259
v 0.033569 0.000645 -0.005640
v 0.020719 0.000077 0.006558
v 0.021914 0.000647 -0.020551
v 0.012355 0.000444 -0.024247
v 0.011137 0.001571 -0.029893
v 0.000000 -0.000000 -0.026485
v -0.003619 -0.000222 -0.002023
v 0.016094 0.000926 0.013511
v 0.011962 0.000893 0.018428
v 0.002933 0.000460 0.025508
v -0.002477 0.000520 0.033531
v -0.024372 0.000476 -0.011267
v -0.014186 0.001095 -0.026375
v -0.026415 0.001519 -0.018034
v -0.030730 0.000303 0.006591
v -0.037275 0.003848 -0.003862
v -0.012093 0.000826 0.018015
v -0.008850 0.000510 0.034787
v -0.006621 0.002572 0.038173
v -0.014605 0.002887 0.033188
v -0.025100 0.003261 0.017762
v -0.016300 0.003385 0.021726
v -0.023184 0.003581 0.025241
v -0.013506 0.007513 0.033126
v -0.020211 0.008727 0.031884
v -0.014767 0.009677 0.036616
v -0.007461 0.014044 0.037141
v -0.013944 0.014176 0.036051
v 0.001914 0.013773 0.024940
v 0.001516 0.014404 0.019740
v -0.025243 0.013379 0.028597
v 0.021360 0.013516 0.004232
v 0.015520 0.013988 0.017867
v -0.022563 0.014664 0.027727
v 0.019059 0.014187 -0.013329
v 0.029460 0.013473 -0.003132
v 0.033287 0.013385 -0.007002
v 0.020640 0.013683 -0.024598
v 0.011093 0.013797 -0.027253
v -0.031396 0.014729 -0.012001
v -0.002285 0.013635 -0.003199
v 0.004282 0.013963 -0.027233
v 0.007256 0.013921 -0.031790
v -0.004227 0.013689 -0.038173
v -0.013864 0.014223 -0.029862
v -0.018750 0.014654 -0.024527
v -0.026402 0.014713 -0.017031
v -0.033314 0.014281 0.014502
v -0.031375 0.011717 0.023455
v -0.040110 0.014382 0.008235
v -0.036849 0.014516 -0.006999
v -0.041976 0.014498 -0.003014
v -0.047556 0.014189 0.003354
v -0.028916 0.004218 0.023079
v -0.038915 0.003657 0.010679
v -0.046053 0.009198 0.002680
v -0.042868 0.005748 0.001491
v -0.034420 0.001370 0.014211
v -0.046053 0.009198 0.002680
v -0.041976 0.014498 -0.003014
v -0.047556 0.014189 0.003354
v -0.042868 0.005748 0.001491
v -0.037275 0.003848 -0.003862
v -0.036849 0.014516 -0.006999
v -0.031187 0.009361 -0.011764
v -0.031396 0.014729 -0.012001
v -0.026415 0.001519 -0.018034
v -0.027792 0.009444 -0.015291
v -0.026402 0.014713 -0.017031
v -0.018750 0.014654 -0.024527
v -0.024951 0.006819 -0.020195
v -0.014482 0.007925 -0.028356
v -0.013864 0.014223 -0.029862
v -0.014186 0.001095 -0.026375
v -0.007809 0.009508 -0.034069
v -0.004227 0.013689 -0.038173
v -0.011358 0.005901 -0.030417
v 0.000000 -0.000000 -0.026485
v -0.001880 0.006707 -0.034688
v 0.002563 0.005357 -0.036606
v 0.011137 0.001571 -0.029893
v 0.007256 0.013921 -0.031790
v 0.014138 0.008938 -0.028709
v 0.021914 0.000647 -0.020551
v 0.011093 0.013797 -0.027253
v 0.022647 0.009064 -0.024170
v 0.020640 0.013683 -0.024598
v 0.025723 0.000617 -0.015045
v 0.028546 0.009312 -0.020487
v 0.033287 0.013385 -0.007002
v 0.027963 0.002547 -0.014414
v 0.033569 0.000645 -0.005640
v 0.033285 0.008592 -0.012599
v 0.029460 0.013473 -0.003132
v 0.028355 0.000308 0.000259
v 0.021600 0.008766 0.003260
v 0.021360 0.013516 0.004232
v 0.026722 0.003462 0.002701
v 0.020719 0.000077 0.006558
v 0.021890 0.005416 0.006833
v 0.016094 0.000926 0.013511
v 0.020553 0.009660 0.011053
v 0.014044 0.010400 0.015851
v 0.015520 0.013988 0.017867
v 0.013777 0.007939 0.019024
v 0.011962 0.000893 0.018428
v 0.005364 0.009914 0.024798
v 0.001516 0.014404 0.019740
v 0.006697 0.004555 0.024146
v 0.002933 0.000460 0.025508
v 0.001914 0.013773 0.024940
v -0.000134 0.003799 0.032010
v -0.002477 0.000520 0.033531
v -0.007461 0.014044 0.037141
v -0.006621 0.002572 0.038173
vt 0.344727 0.307129
vt 0.324463 0.324219
vt 0.324219 0.311035
vt 0.327637 0.340820
vt 0.355957 0.304199
vt 0.372559 0.310059
vt 0.380371 0.303711
vt 0.391113 0.320801
vt 0.368652 0.356445
vt 0.325928 0.355469
vt 0.325928 0.366211
vt 0.329834 0.385742
vt 0.328125 0.402344
vt 0.406250 0.367188
vt 0.409912 0.336426
vt 0.416992 0.361328
vt 0.395020 0.397461
vt 0.416260 0.393066
vt 0.357666 0.391602
vt 0.335205 0.410645
vt 0.328613 0.415527
vt 0.344971 0.415039
vt 0.375000 0.405273
vt 0.359375 0.401855
vt 0.364746 0.413574
vt 0.343994 0.422363
vt 0.354736 0.424805
vt 0.341309 0.428223
vt 0.332275 0.438477
vt 0.342529 0.434570
vt 0.336914 0.466797
vt 0.345703 0.472656
vt 0.364746 0.431152
vt 0.344482 0.515625
vt 0.333008 0.493164
vt 0.362793 0.434570
vt 0.369873 0.531738
vt 0.345215 0.534424
vt 0.345947 0.543457
vt 0.382812 0.546387
vt 0.396973 0.536865
vt 0.424316 0.464844
vt 0.380371 0.493164
vt 0.404297 0.528076
vt 0.406982 0.536865
vt 0.427979 0.529053
vt 0.427734 0.507324
vt 0.426270 0.495117
vt 0.425049 0.477051
vt 0.392090 0.433105
vt 0.377441 0.427246
vt 0.408203 0.430664
vt 0.424316 0.452148
vt 0.425049 0.440918
vt 0.423584 0.426270
vt 0.374756 0.415527
vt 0.400879 0.413086
vt 0.420898 0.416504
vt 0.417236 0.407715
vt 0.391357 0.410645
vt 0.013092 0.917114
vt 0.017944 0.931335
vt 0.006214 0.922852
vt 0.020966 0.914734
vt 0.033722 0.919250
vt 0.027451 0.937134
vt 0.042877 0.936462
vt 0.037964 0.944275
vt 0.061371 0.932312
vt 0.049805 0.941223
vt 0.048248 0.950836
vt 0.064026 0.960419
vt 0.060333 0.942200
vt 0.078430 0.955872
vt 0.075073 0.966644
vt 0.083069 0.944550
vt 0.090027 0.965942
vt 0.094727 0.977280
vt 0.085693 0.955902
vt 0.107117 0.947052
vt 0.100891 0.964569
vt 0.108215 0.966095
vt 0.124756 0.958069
vt 0.118958 0.980377
vt 0.130615 0.970200
vt 0.148193 0.954407
vt 0.130371 0.980270
vt 0.149536 0.970016
vt 0.148438 0.979172
vt 0.158691 0.949738
vt 0.159912 0.967407
vt 0.184814 0.966858
vt 0.163086 0.952576
vt 0.179565 0.945282
vt 0.173706 0.961639
vt 0.194214 0.963745
vt 0.191528 0.940643
vt 0.207764 0.950317
vt 0.212158 0.957062
vt 0.198364 0.942627
vt 0.207275 0.932922
vt 0.209717 0.942200
vt 0.221436 0.929504
vt 0.219116 0.946045
vt 0.232178 0.944000
vt 0.236450 0.949158
vt 0.235229 0.938019
vt 0.231934 0.926086
vt 0.252930 0.934326
vt 0.259277 0.946289
vt 0.246704 0.926697
vt 0.248779 0.917053
vt 0.261230 0.938385
vt 0.261963 0.917603
vt 0.263672 0.910400
vt 0.283936 0.925598
vt 0.274414 0.908386
vt1 0.164185 0.398438
vt1 0.213135 0.456543
vt1 0.174561 0.457520
vt1 0.260498 0.447754
vt1 0.155762 0.366699
vt1 0.172119 0.319336
vt1 0.154175 0.296875
vt1 0.202637 0.265625
vt1 0.305176 0.330078
vt1 0.301514 0.452637
vt1 0.333252 0.452637
vt1 0.388428 0.440918
vt1 0.436768 0.446289
vt1 0.336182 0.222656
vt1 0.248047 0.212402
vt1 0.318359 0.191895
vt1 0.421875 0.254883
vt1 0.409912 0.193848
vt1 0.406006 0.361816
vt1 0.460449 0.425781
vt1 0.474365 0.445312
vt1 0.472656 0.397949
vt1 0.445312 0.312012
vt1 0.434570 0.356934
vt1 0.468262 0.341309
vt1 0.494141 0.400879
vt1 0.500000 0.370117
vt1 0.509766 0.408691
vt1 0.540039 0.434570
vt1 0.529297 0.404785
vt1 0.620117 0.420898
vt1 0.637695 0.395508
vt1 0.518555 0.341309
vt1 0.760742 0.399414
vt1 0.696289 0.432617
vt1 0.529297 0.347168
vt1 0.807129 0.326660
vt1 0.814453 0.397461
vt1 0.840820 0.395020
vt1 0.848633 0.289551
vt1 0.821777 0.249512
vt1 0.615234 0.170898
vt1 0.695801 0.296875
vt1 0.796387 0.228027
vt1 0.821777 0.220215
vt1 0.799316 0.160156
vt1 0.736816 0.160645
vt1 0.702148 0.165039
vt1 0.649902 0.168457
vt1 0.523926 0.263184
vt1 0.507812 0.305176
vt1 0.517090 0.216797
vt1 0.578613 0.171387
vt1 0.546387 0.168945
vt1 0.504395 0.172852
vt1 0.474365 0.312500
vt1 0.467529 0.237793
vt1 0.476807 0.180176
vt1 0.452393 0.190918
vt1 0.459473 0.265137
vt1 0.208008 0.642334
vt1 0.218994 0.674561
vt1 0.192261 0.655273
vt1 0.225952 0.636719
vt1 0.255127 0.647217
vt1 0.240723 0.687988
vt1 0.275879 0.686279
vt1 0.264648 0.704102
vt1 0.318115 0.676758
vt1 0.291748 0.697266
vt1 0.288086 0.719238
vt1 0.323975 0.740967
vt1 0.315674 0.699463
vt1 0.356934 0.730713
vt1 0.349365 0.755127
vt1 0.367676 0.704834
vt1 0.383301 0.753540
vt1 0.394043 0.779419
vt1 0.373535 0.730713
vt1 0.422363 0.710449
vt1 0.408203 0.750366
vt1 0.424805 0.753906
vt1 0.462646 0.735596
vt1 0.449219 0.786377
vt1 0.476074 0.763306
vt1 0.516113 0.727295
vt1 0.475342 0.786133
vt1 0.519043 0.762817
vt1 0.516602 0.783691
vt1 0.540039 0.716553
vt1 0.542480 0.756836
vt1 0.599609 0.755615
vt1 0.549805 0.723145
vt1 0.587402 0.706543
vt1 0.574219 0.743652
vt1 0.620605 0.748535
vt1 0.614746 0.695801
vt1 0.651855 0.718018
vt1 0.661621 0.733398
vt1 0.630371 0.700439
vt1 0.650879 0.678223
vt1 0.656250 0.699463
vt1 0.683105 0.670410
vt1 0.677734 0.708252
vt1 0.707520 0.703613
vt1 0.717285 0.715332
vt1 0.714355 0.689941
vt1 0.707031 0.662598
vt1 0.754883 0.681396
vt1 0.769531 0.708740
vt1 0.740723 0.664062
vt1 0.745605 0.642090
vt1 0.773438 0.690674
vt1 0.775879 0.643311
vt1 0.779297 0.626953
vt1 0.825195 0.661621
vt1 0.804199 0.622314
vn 0.023622 -1.000000 -0.023622
vn 0.015748 -1.000000 -0.023622
vn 0.031496 -1.000000 -0.023622
vn 0.000000 -1.000000 0.031496
vn 0.039370 -1.000000 -0.047244
vn 0.062992 -0.992126 -0.118110
vn 0.086614 -0.976378 -0.212598
vn 0.007874 -1.000000 -0.047244
vn 0.000000 -1.000000 0.007874
vn 0.007874 -1.000000 0.062992
vn 0.047244 -1.000000 0.015748
vn 0.031496 -1.000000 0.015748
vn 0.015748 -0.992126 0.110236
vn -0.118110 -0.992126 -0.062992
vn -0.086614 -0.992126 -0.094488
vn -0.173228 -0.976378 -0.110236
vn -0.188976 -0.984252 0.031496
vn -0.362205 -0.929134 -0.086614
vn -0.141732 -0.984252 0.110236
vn -0.228346 -0.905512 0.362205
vn -0.275591 -0.559055 0.787401
vn -0.503937 -0.590551 0.629921
vn -0.055118 -0.968504 0.228347
vn -0.244094 -0.960630 0.149606
vn -0.322835 -0.850394 0.409449
vn -0.574803 -0.283464 0.771653
vn -0.551181 -0.251968 0.795276
vn -0.866142 -0.110236 0.480315
vn -0.062992 0.803150 0.590551
vn -0.322835 0.669291 0.669291
vn 0.094488 0.992126 0.094488
vn 0.031496 1.000000 0.015748
vn -0.622047 0.448819 0.645669
vn 0.055118 1.000000 0.023622
vn 0.023622 1.000000 -0.023622
vn -0.157480 0.976378 0.165354
vn 0.031496 1.000000 -0.007874
vn 0.039370 1.000000 0.031496
vn 0.055118 1.000000 0.007874
vn 0.039370 1.000000 -0.039370
vn 0.023622 1.000000 -0.031496
vn 0.007874 1.000000 0.007874
vn 0.007874 1.000000 -0.015748
vn 0.007874 1.000000 -0.007874
vn 0.007874 1.000000 -0.007874
vn 0.015748 1.000000 -0.039370
vn 0.023622 1.000000 -0.055118
vn 0.031496 1.000000 0.007874
vn 0.031496 1.000000 0.023622
vn -0.511811 0.771653 0.362205
vn -0.834646 0.236221 0.496063
vn -0.393701 0.763779 0.519685
vn -0.031496 1.000000 -0.000000
vn -0.007874 1.000000 0.007874
vn -0.535433 0.661417 0.527559
vn -0.503937 -0.653543 0.566929
vn -0.724409 -0.551181 0.409449
vn -0.795276 -0.448819 0.401575
vn -0.543307 -0.834646 0.039370
vn -0.377953 -0.866142 0.330709
vn -0.669291 -0.236221 -0.700787
vn -0.661417 -0.220472 -0.716535
vn -0.740157 -0.133858 -0.653543
vn -0.669291 -0.283465 -0.685039
vn -0.716535 -0.173228 -0.677165
vn -0.661417 -0.165354 -0.732283
vn -0.748031 -0.031496 -0.669291
vn -0.692913 -0.055118 -0.716535
vn -0.724409 -0.078740 -0.677165
vn -0.708661 0.204724 -0.669291
vn -0.700787 -0.047244 -0.708661
vn -0.685039 0.039370 -0.724409
vn -0.716535 0.047244 -0.700787
vn -0.637795 -0.141732 -0.763779
vn -0.685039 -0.118110 -0.724409
vn -0.417323 -0.401575 -0.818897
vn -0.488189 -0.346457 -0.803149
vn -0.212598 -0.244095 -0.944882
vn -0.433071 -0.433071 -0.787401
vn -0.149606 -0.803150 -0.582677
vn -0.377953 -0.637795 -0.669291
vn 0.118110 -0.433071 -0.889764
vn 0.480315 -0.307087 -0.818897
vn 0.566929 0.212598 -0.795275
vn 0.716535 0.275590 -0.637795
vn 0.677165 -0.251969 -0.692913
vn 0.629921 0.409449 -0.661417
vn 0.393701 -0.212599 -0.897638
vn 0.409449 0.188976 -0.889764
vn 0.645669 -0.503937 -0.574803
vn 0.732283 0.039370 -0.677165
vn 0.944882 0.244094 0.236220
vn 0.661417 -0.527559 -0.527559
vn 0.968504 -0.118110 0.212598
vn 0.913386 0.007874 -0.401575
vn 0.669291 0.086614 0.732283
vn 0.732283 0.102362 0.677165
vn 0.874016 0.181102 0.456693
vn 0.866142 0.062992 0.496063
vn 0.881890 0.362205 0.291339
vn 0.716535 -0.204724 0.669291
vn 0.850394 0.023622 0.527559
vn 0.771654 -0.236220 0.582677
vn 0.803150 0.291339 0.519685
vn 0.921260 0.086614 0.377953
vn 0.826772 -0.149606 0.543307
vn 0.732283 -0.062992 0.677165
vn 0.685039 -0.244094 0.685039
vn 0.566929 0.417323 0.716535
vn 0.393701 0.818898 0.425197
vn 0.661417 -0.149606 0.740157
vn 0.685039 -0.393701 0.606299
vn 0.740157 0.527559 0.409449
vn 0.755906 -0.047244 0.653543
vn 0.732283 -0.220472 0.645669
vn 0.732283 0.196850 0.653543
vn 0.685039 0.047244 0.732283
tan 0.645669 0.033294 -0.763779 1.000000
tan 0.645669 0.028210 -0.763779 1.000000
tan 0.645483 0.038378 -0.764027 1.000000
tan 0.646165 -0.024056 -0.763779 1.000000
tan 0.645669 0.061504 -0.763779 1.000000
tan 0.636493 0.130386 -0.755781 1.000000
tan 0.637795 0.219294 -0.747287 1.000000
tan 0.646785 0.041168 -0.763593 1.000000
tan 0.645669 -0.006014 -0.763779 1.000000
tan 0.640771 -0.043090 -0.764151 1.000000
tan 0.638539 0.018104 -0.766011 1.000000
tan 0.654039 0.008680 -0.756897 1.000000
tan 0.578957 -0.080352 -0.805878 1.000000
tan 0.656829 -0.030070 -0.757951 1.000000
tan 0.652489 0.014756 -0.753053 1.000000
tan 0.676049 -0.036952 -0.735073 1.000000
tan 0.670531 -0.152024 -0.727571 1.000000
tan 0.685039 -0.201438 -0.703825 1.000000
tan 0.614793 -0.175212 -0.773947 1.000000
tan 0.484841 -0.427429 -0.762911 1.000000
tan 0.290099 -0.831732 -0.488995 1.000000
tan 0.226920 -0.795586 -0.564325 1.000000
tan 0.625829 -0.212288 -0.749333 1.000000
tan 0.582243 -0.268461 -0.773823 1.000000
tan 0.485833 -0.520181 -0.697315 1.000000
tan 0.075640 -0.951702 -0.293260 1.000000
tan 0.055490 -0.963234 -0.266724 1.000000
tan -0.086304 -0.923306 -0.367537 1.000000
tan -0.317689 -0.576353 0.749954 1.000000
tan -0.447951 -0.731477 0.515407 1.000000
tan -0.637609 -0.012648 0.770413 1.000000
tan -0.748528 0.013144 0.662409 1.000000
tan -0.348565 -0.893298 0.285139 1.000000
tan -0.765082 0.027032 0.640833 1.000000
tan -0.763780 0.033108 0.637795 1.000000
tan -0.725277 -0.227230 0.651001 1.000000
tan -0.763718 0.029140 0.645917 1.000000
tan -0.765268 0.009982 0.639655 1.000000
tan -0.764090 0.037076 0.639965 1.000000
tan -0.764090 0.055490 0.645359 1.000000
tan -0.764028 0.038378 0.645483 1.000000
tan -0.763903 0.000930 0.645793 1.000000
tan -0.763903 0.016182 0.645607 1.000000
tan -0.763780 0.011098 0.645669 1.000000
tan -0.763780 0.011098 0.645669 1.000000
tan -0.764400 0.037448 0.645421 1.000000
tan -0.765082 0.053630 0.645111 1.000000
tan -0.763966 0.018972 0.646413 1.000000
tan -0.764710 0.008804 0.646909 1.000000
tan -0.622977 -0.626139 0.453655 1.000000
tan -0.198834 -0.966334 0.125612 1.000000
tan -0.592535 -0.640089 0.491847 1.000000
tan -0.771654 -0.024304 0.638291 1.000000
tan -0.763780 -0.011098 0.645669 1.000000
tan -0.560233 -0.745489 0.366049 1.000000
tan 0.465559 -0.755905 -0.457561 1.000000
tan 0.301569 -0.787650 -0.526753 1.000000
tan 0.189906 -0.819456 -0.539773 1.000000
tan 0.611321 -0.428731 -0.652861 1.000000
tan 0.619629 -0.502945 -0.609089 1.000000
tan -0.254387 -0.812325 0.516771 1.000000
tan -0.272119 -0.819827 0.503441 1.000000
tan -0.283279 -0.821688 0.489119 1.000000
tan -0.222084 -0.801661 0.548701 1.000000
tan -0.268461 -0.826523 0.495505 1.000000
tan -0.302995 -0.834956 0.462211 1.000000
tan -0.339017 -0.844132 0.418625 1.000000
tan -0.358485 -0.833095 0.410751 1.000000
tan -0.316077 -0.838365 0.435613 1.000000
tan -0.489677 -0.828322 0.265113 1.000000
tan -0.352285 -0.843636 0.404613 1.000000
tan -0.405729 -0.843450 0.337839 1.000000
tan -0.399095 -0.848534 0.350859 1.000000
tan -0.314589 -0.857648 0.421849 1.000000
tan -0.312295 -0.851323 0.434125 1.000000
tan -0.211606 -0.830615 0.515159 1.000000
tan -0.224192 -0.841962 0.499473 1.000000
tan -0.315333 -0.893918 0.301879 1.000000
tan -0.178250 -0.813751 0.545601 1.000000
tan -0.172732 -0.560667 0.817162 1.000000
tan -0.116374 -0.685039 0.718519 1.000000
tan -0.274041 -0.874698 0.389361 1.000000
tan -0.126542 -0.947548 0.281109 1.000000
tan 0.122202 -0.977122 -0.174096 1.000000
tan 0.226238 -0.957840 -0.159712 1.000000
tan 0.028768 -0.934094 0.367785 1.000000
tan 0.288921 -0.910410 -0.288424 1.000000
tan 0.078492 -0.962490 0.262385 1.000000
tan 0.223448 -0.965218 -0.102176 1.000000
tan -0.164672 -0.826523 0.539649 1.000000
tan 0.214520 -0.956166 0.176390 1.000000
tan 0.139066 -0.913262 0.387439 1.000000
tan -0.240932 -0.816541 0.514477 1.000000
tan -0.184140 -0.925724 0.324571 1.000000
tan 0.117614 -0.957282 0.248745 1.000000
tan -0.194742 -0.935768 0.288673 1.000000
tan -0.189038 -0.921136 0.343667 1.000000
tan -0.052266 -0.890508 0.453159 1.000000
tan -0.141794 -0.916362 0.363941 1.000000
tan 0.110980 -0.769607 0.620869 1.000000
tan -0.387067 -0.914688 0.134602 1.000000
tan -0.176638 -0.931304 0.326431 1.000000
tan -0.377829 -0.917974 0.128216 1.000000
tan 0.051956 -0.905450 0.427305 1.000000
tan -0.041044 -0.943766 0.316325 1.000000
tan -0.321223 -0.916424 0.236469 1.000000
tan -0.284085 -0.929072 0.220783 1.000000
tan -0.417633 -0.900800 0.096658 1.000000
tan -0.099014 -0.827825 0.560481 1.000000
tan 0.059520 -0.484717 0.878418 1.000000
tan -0.395003 -0.904334 0.170190 1.000000
tan -0.548701 -0.825842 0.083700 1.000000
tan 0.036022 -0.641205 0.761051 1.000000
tan -0.326059 -0.894290 0.312481 1.000000
tan -0.451237 -0.866700 0.215823 1.000000
tan -0.204352 -0.853804 0.486143 1.000000
tan -0.324199 -0.877736 0.359911 1.000000
f 3/3/3 2/2/2 1/1/1
f 1/1/1 2/2/2 4/4/4
f 1/1/1 4/4/4 5/5/5
f 4/4/4 6/6/6 5/5/5
f 6/6/6 7/7/7 5/5/5
f 7/7/7 6/6/6 8/8/8
f 4/4/4 9/9/9 6/6/6
f 8/8/8 6/6/6 9/9/9
f 4/4/4 10/10/10 9/9/9
f 10/10/10 11/11/11 9/9/9
f 12/12/12 9/9/9 11/11/11
f 12/12/12 13/13/13 9/9/9
f 9/9/9 14/14/14 8/8/8
f 14/14/14 15/15/15 8/8/8
f 14/14/14 16/16/16 15/15/15
f 16/16/16 14/14/14 17/17/17
f 14/14/14 9/9/9 17/17/17
f 18/18/18 16/16/16 17/17/17
f 13/13/13 19/19/19 9/9/9
f 19/19/19 17/17/17 9/9/9
f 20/20/20 19/19/19 13/13/13
f 21/21/21 20/20/20 13/13/13
f 20/20/20 22/22/22 19/19/19
f 21/21/21 22/22/22 20/20/20
f 19/19/19 23/23/23 17/17/17
f 22/22/22 24/24/24 19/19/19
f 19/19/19 24/24/24 23/23/23
f 22/22/22 25/25/25 24/24/24
f 23/23/23 24/24/24 25/25/25
f 21/21/21 26/26/26 22/22/22
f 22/22/22 27/27/27 25/25/25
f 26/26/26 27/27/27 22/22/22
f 28/28/28 26/26/26 21/21/21
f 29/29/29 28/28/28 21/21/21
f 26/26/26 28/28/28 30/30/30
f 30/30/30 28/28/28 29/29/29
f 30/30/30 27/27/27 26/26/26
f 29/29/29 31/31/31 30/30/30
f 30/30/30 31/31/31 32/32/32
f 27/27/27 33/33/33 25/25/25
f 33/33/33 27/27/27 30/30/30
f 35/35/35 34/34/34 32/32/32
f 36/36/36 33/33/33 30/30/30
f 34/34/34 37/37/37 32/32/32
f 34/34/34 38/38/38 37/37/37
f 37/37/37 38/38/38 39/39/39
f 37/37/37 39/39/39 40/40/40
f 41/41/41 37/37/37 40/40/40
f 30/30/30 32/32/32 42/42/42
f 36/36/36 30/30/30 42/42/42
f 37/37/37 43/43/43 32/32/32
f 43/43/43 42/42/42 32/32/32
f 41/41/41 44/44/44 37/37/37
f 37/37/37 44/44/44 43/43/43
f 44/44/44 41/41/41 45/45/45
f 44/44/44 45/45/45 46/46/46
f 47/47/47 44/44/44 46/46/46
f 44/44/44 47/47/47 48/48/48
f 48/48/48 43/43/43 44/44/44
f 49/49/49 43/43/43 48/48/48
f 42/42/42 43/43/43 49/49/49
f 50/50/50 36/36/36 42/42/42
f 50/50/50 51/51/51 36/36/36
f 33/33/33 36/36/36 51/51/51
f 50/50/50 42/42/42 52/52/52
f 52/52/52 42/42/42 53/53/53
f 54/54/54 52/52/52 53/53/53
f 54/54/54 55/55/55 52/52/52
f 56/56/56 33/33/33 51/51/51
f 51/51/51 50/50/50 56/56/56
f 33/33/33 56/56/56 25/25/25
f 23/23/23 25/25/25 56/56/56
f 57/57/57 50/50/50 52/52/52
f 55/55/55 57/57/57 52/52/52
f 57/57/57 56/56/56 50/50/50
f 55/55/55 58/58/58 57/57/57
f 57/57/57 58/58/58 59/59/59
f 59/59/59 18/18/18 57/57/57
f 57/57/57 18/18/18 17/17/17
f 57/57/57 60/60/60 56/56/56
f 57/57/57 17/17/17 60/60/60
f 56/56/56 60/60/60 23/23/23
f 17/17/17 23/23/23 60/60/60
f 63/63/63 62/62/62 61/61/61
f 64/64/64 61/61/61 62/62/62
f 64/64/64 62/62/62 65/65/65
f 65/65/65 62/62/62 66/66/66
f 66/66/66 67/67/67 65/65/65
f 68/68/68 67/67/67 66/66/66
f 69/69/69 65/65/65 67/67/67
f 68/68/68 70/70/70 67/67/67
f 71/71/71 70/70/70 68/68/68
f 70/70/70 71/71/71 72/72/72
f 70/70/70 73/73/73 67/67/67
f 70/70/70 72/72/72 73/73/73
f 73/73/73 69/69/69 67/67/67
f 74/74/74 73/73/73 72/72/72
f 73/73/73 74/74/74 69/69/69
f 72/72/72 75/75/75 74/74/74
f 76/76/76 69/69/69 74/74/74
f 74/74/74 75/75/75 77/77/77
f 77/77/77 75/75/75 78/78/78
f 74/74/74 79/79/79 76/76/76
f 74/74/74 77/77/77 79/79/79
f 79/79/79 80/80/80 76/76/76
f 81/81/81 79/79/79 77/77/77
f 80/80/80 79/79/79 81/81/81
f 81/81/81 77/77/77 78/78/78
f 82/82/82 80/80/80 81/81/81
f 78/78/78 82/82/82 81/81/81
f 80/80/80 82/82/82 83/83/83
f 82/82/82 78/78/78 84/84/84
f 82/82/82 84/84/84 83/83/83
f 84/84/84 85/85/85 83/83/83
f 83/83/83 85/85/85 86/86/86
f 85/85/85 84/84/84 87/87/87
f 86/86/86 85/85/85 87/87/87
f 87/87/87 88/88/88 86/86/86
f 87/87/87 89/89/89 88/88/88
f 90/90/90 86/86/86 88/88/88
f 91/91/91 88/88/88 89/89/89
f 88/88/88 91/91/91 90/90/90
f 91/91/91 89/89/89 92/92/92
f 91/91/91 93/93/93 90/90/90
f 93/93/93 94/94/94 90/90/90
f 91/91/91 95/95/95 93/93/93
f 95/95/95 91/91/91 92/92/92
f 95/95/95 94/94/94 93/93/93
f 92/92/92 94/94/94 95/95/95
f 96/96/96 94/94/94 92/92/92
f 96/96/96 97/97/97 94/94/94
f 98/98/98 97/97/97 96/96/96
f 96/96/96 99/99/99 98/98/98
f 98/98/98 100/100/100 97/97/97
f 100/100/100 101/101/101 97/97/97
f 100/100/100 98/98/98 102/102/102
f 100/100/100 102/102/102 101/101/101
f 99/99/99 102/102/102 98/98/98
f 103/103/103 101/101/101 102/102/102
f 102/102/102 99/99/99 104/104/104
f 103/103/103 102/102/102 104/104/104
f 105/105/105 104/104/104 99/99/99
f 99/99/99 106/106/106 105/105/105
f 107/107/107 103/103/103 104/104/104
f 104/104/104 105/105/105 107/107/107
f 105/105/105 106/106/106 107/107/107
f 103/103/103 107/107/107 108/108/108
f 109/109/109 107/107/107 106/106/106
f 109/109/109 106/106/106 110/110/110
f 111/111/111 108/108/108 107/107/107
f 109/109/109 111/111/111 107/107/107
f 108/108/108 111/111/111 112/112/112
f 110/110/110 113/113/113 109/109/109
f 111/111/111 114/114/114 112/112/112
f 111/111/111 109/109/109 114/114/114
f 114/114/114 109/109/109 113/113/113
f 112/112/112 114/114/114 115/115/115
f 116/116/116 114/114/114 113/113/113
f 114/114/114 117/117/117 115/115/115
f 117/117/117 114/114/114 116/116/116
