mtllib SM_Rock_11.mtl
g SM_Rock_11
#Vertices 28
#Indices 114
#Section 0 Offset 0 NumIndices 114 MaterialIndex 0 MI_Small_Rocks_01
v -0.016615 0.021769 0.022058
v -0.001799 0.033158 0.017637
v 0.004716 0.012557 0.014533
v -0.015554 0.002749 0.015423
v 0.011915 0.034979 -0.000138
v 0.000000 0.000000 0.005314
v -0.018716 -0.000184 -0.002219
v 0.014646 0.005149 0.007026
v 0.005669 -0.000086 -0.007540
v -0.009467 0.005634 -0.022058
v 0.016397 0.013213 -0.003763
v 0.003423 0.026144 -0.014303
v -0.008151 0.038218 0.003591
v 0.011915 0.034979 -0.000138
v -0.001799 0.033158 0.017637
v -0.016615 0.021769 0.022058
v 0.003546 0.037139 -0.003883
v 0.003423 0.026144 -0.014303
v -0.024004 0.023155 0.001727
v -0.013008 0.018639 -0.021032
v -0.009467 0.005634 -0.022058
v -0.019128 0.026987 -0.012763
v -0.020308 0.008162 -0.019281
v -0.018716 -0.000184 -0.002219
v -0.024994 0.016163 -0.011213
v -0.024183 0.008058 0.004458
v -0.015554 0.002749 0.015423
v -0.022239 0.017383 0.016622
vt 0.282471 0.591064
vt 0.273682 0.631836
vt 0.244385 0.608398
vt 0.245728 0.566406
vt 0.234741 0.661621
vt 0.222534 0.588867
vt 0.202759 0.559082
vt 0.228271 0.610596
vt 0.203491 0.602295
vt 0.167847 0.598389
vt 0.219238 0.625977
vt 0.193237 0.647949
vt 0.875000 0.919861
vt 0.905762 0.939911
vt 0.858398 0.939850
vt 0.828125 0.909668
vt 0.899414 0.925659
vt 0.914551 0.899963
vt 0.859375 0.887634
vt 0.896973 0.870605
vt 0.902344 0.845825
vt 0.883789 0.884583
vt 0.885742 0.852905
vt 0.852539 0.846802
vt 0.874512 0.868652
vt 0.845215 0.867310
vt 0.819336 0.867310
vt 0.833984 0.892944
vt1 0.481201 0.297363
vt1 0.459229 0.399902
vt1 0.385254 0.341309
vt1 0.388672 0.235352
vt1 0.360840 0.475098
vt1 0.330078 0.291504
vt1 0.280273 0.216797
vt1 0.344727 0.346680
vt1 0.282227 0.325195
vt1 0.192261 0.315430
vt1 0.321777 0.385254
vt1 0.256104 0.440918
vt1 0.670898 0.739990
vt1 0.743164 0.787720
vt1 0.630371 0.787598
vt1 0.558594 0.715820
vt1 0.728516 0.753784
vt1 0.764160 0.692871
vt1 0.633301 0.663330
vt1 0.723145 0.622803
vt1 0.734863 0.563965
vt1 0.691406 0.656250
vt1 0.696289 0.580811
vt1 0.616699 0.566162
vt1 0.669922 0.618164
vt1 0.599121 0.614990
vt1 0.538574 0.614990
vt1 0.572754 0.676025
vn 0.259843 -0.181102 0.952756
vn 0.582677 0.062992 0.811023
vn 0.480315 -0.196850 0.858268
vn 0.157480 -0.724409 0.669291
vn 0.960630 0.251969 0.149606
vn 0.165354 -0.913386 0.362205
vn -0.047244 -1.000000 -0.039370
vn 0.755906 -0.480315 0.448819
vn 0.440945 -0.811024 -0.393701
vn 0.330709 -0.669291 -0.669291
vn 0.937008 -0.078740 -0.330709
vn 0.677165 0.078740 -0.732283
vn -0.299213 0.952756 0.062992
vn 0.338583 0.929134 -0.165354
vn -0.204724 0.889764 0.409449
vn -0.700787 0.464567 0.551181
vn 0.173228 0.905512 -0.377953
vn 0.118110 0.614173 -0.779527
vn -0.897638 0.433071 0.094488
vn -0.141732 0.346457 -0.929134
vn -0.125984 -0.307087 -0.944882
vn -0.543307 0.661417 -0.511811
vn -0.645669 -0.354331 -0.677165
vn -0.779528 -0.622047 -0.078740
vn -0.944882 0.070866 -0.322835
vn -0.921260 -0.354331 0.149606
vn -0.740157 -0.488189 0.464567
vn -0.850394 0.055118 0.519685
tan -0.685783 -0.724967 0.049228 1.000000
tan -0.497861 -0.762229 0.416889 1.000000
tan -0.629983 -0.761609 0.177878 1.000000
tan -0.892802 -0.390911 -0.213032 1.000000
tan 0.171988 -0.897638 0.407465 1.000000
tan -0.974146 -0.193564 -0.043400 1.000000
tan -0.970674 0.035836 0.254572 1.000000
tan -0.600037 -0.777295 0.178746 1.000000
tan -0.764461 -0.571021 0.320107 1.000000
tan -0.632401 -0.682559 0.370079 1.000000
tan -0.082212 -0.994730 0.003906 1.000000
tan -0.004960 -0.995226 -0.111600 1.000000
tan -0.816108 -0.220844 -0.536239 1.000000
tan -0.608593 0.081468 -0.788393 1.000000
tan -0.915618 -0.025792 -0.401761 1.000000
tan -0.688325 -0.653605 -0.324261 1.000000
tan -0.603323 -0.205964 -0.769979 1.000000
tan -0.408457 -0.686341 -0.602641 1.000000
tan -0.427739 -0.786782 -0.457437 1.000000
tan -0.251969 -0.916486 -0.303304 1.000000
tan 0.214272 -0.938930 0.276583 1.000000
tan -0.452601 -0.747721 -0.485833 1.000000
tan 0.448881 -0.893794 0.039680 1.000000
tan 0.607043 -0.718023 -0.337343 1.000000
tan 0.049352 -0.937504 -0.350239 1.000000
tan 0.245644 -0.841528 -0.480439 1.000000
tan 0.154628 -0.793168 -0.587141 1.000000
tan -0.299461 -0.867878 -0.397979 1.000000
f 3/3/3 2/2/2 1/1/1
f 3/3/3 1/1/1 4/4/4
f 5/5/5 2/2/2 3/3/3
f 6/6/6 3/3/3 4/4/4
f 4/4/4 7/7/7 6/6/6
f 5/5/5 3/3/3 8/8/8
f 3/3/3 6/6/6 8/8/8
f 6/6/6 7/7/7 9/9/9
f 6/6/6 9/9/9 8/8/8
f 10/10/10 9/9/9 7/7/7
f 8/8/8 11/11/11 5/5/5
f 8/8/8 9/9/9 11/11/11
f 9/9/9 10/10/10 11/11/11
f 12/12/12 5/5/5 11/11/11
f 11/11/11 10/10/10 12/12/12
f 15/15/15 14/14/14 13/13/13
f 16/16/16 15/15/15 13/13/13
f 13/13/13 14/14/14 17/17/17
f 18/18/18 17/17/17 14/14/14
f 19/19/19 16/16/16 13/13/13
f 17/17/17 18/18/18 20/20/20
f 21/21/21 20/20/20 18/18/18
f 13/13/13 17/17/17 22/22/22
f 17/17/17 20/20/20 22/22/22
f 13/13/13 22/22/22 19/19/19
f 20/20/20 21/21/21 23/23/23
f 23/23/23 22/22/22 20/20/20
f 21/21/21 24/24/24 23/23/23
f 23/23/23 25/25/25 22/22/22
f 22/22/22 25/25/25 19/19/19
f 24/24/24 26/26/26 23/23/23
f 26/26/26 25/25/25 23/23/23
f 19/19/19 25/25/25 26/26/26
f 24/24/24 27/27/27 26/26/26
f 26/26/26 28/28/28 19/19/19
f 26/26/26 27/27/27 28/28/28
f 19/19/19 28/28/28 16/16/16
f 27/27/27 16/16/16 28/28/28
