mtllib SM_Rock_12.mtl
g SM_Rock_12
#Vertices 25
#Indices 90
#Section 0 Offset 0 NumIndices 90 MaterialIndex 0 MI_Small_Rocks_01
v -0.015245 0.000101 -0.008775
v 0.021388 0.000010 0.003157
v -0.000000 -0.000000 -0.015524
v -0.003214 0.006528 0.016216
v -0.017498 0.007193 0.004064
v 0.019808 0.017591 0.018471
v 0.031247 0.013467 0.000526
v 0.022422 0.030245 0.011156
v -0.008382 0.025404 0.010064
v -0.009509 0.027242 0.000590
v 0.004192 0.032658 0.014367
v 0.006074 0.041728 -0.002192
v -0.017498 0.007193 0.004064
v -0.015245 0.000101 -0.008775
v -0.011418 0.014287 -0.018258
v -0.009509 0.027242 0.000590
v -0.000000 -0.000000 -0.015524
v 0.006074 0.041728 -0.002192
v 0.013556 0.010469 -0.018471
v 0.007164 0.034718 -0.010643
v 0.026828 0.019032 -0.011574
v 0.022422 0.030245 0.011156
v 0.031247 0.013467 0.000526
v 0.027021 0.008473 -0.009853
v 0.021388 0.000010 0.003157
vt 0.517090 0.781738
vt 0.587891 0.793823
vt 0.537109 0.804932
vt 0.556152 0.757080
vt 0.526367 0.751099
vt 0.595215 0.754761
vt 0.620605 0.778442
vt 0.610352 0.735352
vt 0.553223 0.724609
vt 0.545898 0.710693
vt 0.578613 0.724609
vt 0.585938 0.694580
vt 0.525391 0.699951
vt 0.530762 0.730957
vt 0.502441 0.732422
vt 0.481201 0.701172
vt 0.514160 0.761963
vt 0.440186 0.717773
vt 0.484375 0.765747
vt 0.454590 0.730225
vt 0.459473 0.772217
vt 0.417969 0.762085
vt 0.449463 0.793213
vt 0.468994 0.785278
vt 0.482178 0.807495
vt1 0.495117 0.730469
vt1 0.695801 0.764771
vt1 0.552246 0.796387
vt1 0.605957 0.660400
vt1 0.520996 0.643555
vt1 0.717773 0.653809
vt1 0.789551 0.721191
vt1 0.759277 0.598633
vt1 0.598145 0.567871
vt1 0.577148 0.528809
vt1 0.669434 0.567871
vt1 0.690430 0.483398
vt1 0.459473 0.221680
vt1 0.473389 0.305176
vt1 0.398193 0.309570
vt1 0.339844 0.225098
vt1 0.429688 0.389648
vt1 0.228882 0.270020
vt1 0.348877 0.399902
vt1 0.268311 0.303711
vt1 0.281250 0.416992
vt1 0.169434 0.389648
vt1 0.254395 0.474121
vt1 0.306641 0.452148
vt1 0.342773 0.512207
vn -0.149606 -0.960630 0.236221
vn 0.314961 -0.779527 0.543307
vn -0.007874 -1.000000 0.007874
vn -0.275591 -0.464567 0.842520
vn -0.637795 -0.496063 0.582677
vn 0.409449 -0.078740 0.913386
vn 0.795276 -0.236220 0.559055
vn 0.480315 0.496063 0.724409
vn -0.653543 0.456693 0.598425
vn -0.740157 0.622047 0.244094
vn -0.244094 0.574803 0.779527
vn -0.267717 0.858268 0.440945
vn -0.952756 0.244094 -0.181102
vn -0.834646 -0.133858 -0.535433
vn -0.598425 0.165354 -0.787401
vn -0.787402 0.543307 -0.299213
vn -0.015748 -0.480315 -0.874016
vn 0.110236 0.850394 -0.519685
vn 0.259843 -0.157480 -0.952756
vn 0.055118 0.661417 -0.748031
vn 0.716535 0.330709 -0.614173
vn 0.732283 0.653543 -0.181102
vn 0.984252 0.015748 -0.149606
vn 0.716535 -0.480315 -0.511811
vn 0.543307 -0.795276 -0.283464
tan -0.546469 0.280117 0.793043 1.000000
tan -0.178374 0.512245 0.838365 1.000000
tan -0.472441 0.010664 0.881890 1.000000
tan -0.369335 0.855850 0.351107 1.000000
tan -0.433257 0.863786 0.261144 1.000000
tan -0.347325 0.908178 0.233988 1.000000
tan -0.073346 0.877488 0.475107 1.000000
tan -0.449377 0.850146 -0.284209 1.000000
tan -0.049228 0.766259 -0.638539 1.000000
tan 0.212164 0.563643 -0.793044 1.000000
tan -0.273297 0.728129 -0.622481 1.000000
tan -0.165912 0.411681 -0.902040 1.000000
tan -0.090954 0.337839 0.933846 1.000000
tan -0.516461 0.539153 0.670283 1.000000
tan -0.653357 0.475665 0.596441 1.000000
tan -0.318185 0.061008 0.948106 1.000000
tan -0.794718 0.529233 -0.276521 1.000000
tan -0.890570 0.320045 0.334801 1.000000
tan -0.671523 0.678591 -0.295307 1.000000
tan -0.761238 0.512059 0.396677 1.000000
tan -0.604873 0.737491 -0.308575 1.000000
tan -0.678281 0.690557 -0.250605 1.000000
tan -0.099820 0.808171 -0.571641 1.000000
tan -0.237894 0.524707 -0.825470 1.000000
tan -0.124930 0.257982 -0.963234 1.000000
f 3/3/3 2/2/2 1/1/1
f 4/4/4 1/1/1 2/2/2
f 4/4/4 5/5/5 1/1/1
f 4/4/4 2/2/2 6/6/6
f 2/2/2 7/7/7 6/6/6
f 7/7/7 8/8/8 6/6/6
f 4/4/4 9/9/9 5/5/5
f 4/4/4 6/6/6 9/9/9
f 10/10/10 5/5/5 9/9/9
f 11/11/11 6/6/6 8/8/8
f 11/11/11 9/9/9 6/6/6
f 9/9/9 11/11/11 10/10/10
f 11/11/11 8/8/8 12/12/12
f 12/12/12 10/10/10 11/11/11
f 15/15/15 14/14/14 13/13/13
f 13/13/13 16/16/16 15/15/15
f 17/17/17 14/14/14 15/15/15
f 15/15/15 16/16/16 18/18/18
f 19/19/19 17/17/17 15/15/15
f 18/18/18 20/20/20 15/15/15
f 19/19/19 15/15/15 20/20/20
f 18/18/18 21/21/21 20/20/20
f 20/20/20 21/21/21 19/19/19
f 21/21/21 18/18/18 22/22/22
f 23/23/23 21/21/21 22/22/22
f 17/17/17 19/19/19 24/24/24
f 19/19/19 21/21/21 24/24/24
f 21/21/21 23/23/23 24/24/24
f 25/25/25 17/17/17 24/24/24
f 23/23/23 25/25/25 24/24/24
