mtllib SM_Rock_05.mtl
g SM_Rock_05
#Vertices 51
#Indices 174
#Section 0 Offset 0 NumIndices 174 MaterialIndex 0 MI_Small_Rocks_01
v -0.033566 0.013041 0.029163
v -0.027936 0.002854 0.023790
v -0.044213 0.016915 0.020798
v -0.039210 0.000391 0.010619
v -0.048480 0.022190 -0.005017
v -0.035451 0.042900 0.009343
v -0.036561 0.000501 -0.012329
v -0.039092 0.041384 -0.012190
v -0.031213 0.008187 -0.026287
v -0.030251 0.028355 -0.026358
v 0.002418 0.007978 -0.026085
v -0.002077 0.027524 -0.025942
v 0.018745 0.006042 -0.024898
v 0.046762 0.025878 -0.026359
v 0.054866 0.011888 -0.022547
v 0.038401 0.000117 -0.020091
v 0.052331 0.034578 -0.010975
v 0.054172 0.002930 -0.012180
v 0.055411 0.017686 0.017768
v 0.049099 0.034079 0.014630
v 0.045737 0.000118 0.007881
v 0.043115 0.008470 0.024341
v 0.002418 0.007978 -0.026085
v -0.031213 0.008187 -0.026287
v -0.036561 0.000501 -0.012329
v 0.004649 0.000132 -0.009934
v 0.018745 0.006042 -0.024898
v -0.039210 0.000391 0.010619
v 0.038401 0.000117 -0.020091
v -0.027936 0.002854 0.023790
v 0.045737 0.000118 0.007881
v 0.054172 0.002930 -0.012180
v 0.007618 0.002063 0.020058
v -0.033566 0.013041 0.029163
v 0.029149 0.013402 0.027932
v 0.043115 0.008470 0.024341
v 0.035322 0.028551 0.028094
v 0.055411 0.017686 0.017768
v 0.049099 0.034079 0.014630
v 0.015240 0.029239 0.028977
v 0.034173 0.041217 0.017993
v 0.052331 0.034578 -0.010975
v -0.011967 0.035163 0.023725
v 0.016345 0.042574 -0.015025
v 0.046762 0.025878 -0.026359
v -0.002077 0.027524 -0.025942
v -0.035451 0.042900 0.009343
v -0.044213 0.016915 0.020798
v -0.004173 0.041151 -0.018588
v -0.039092 0.041384 -0.012190
v -0.030251 0.028355 -0.026358
vt 0.647461 0.615479
vt 0.656738 0.595703
vt 0.664551 0.632080
vt 0.686035 0.603516
vt 0.706543 0.645752
vt 0.678223 0.683594
vt 0.727539 0.608643
vt 0.717773 0.681152
vt 0.753906 0.625977
vt 0.750977 0.661621
vt 0.810547 0.634521
vt 0.797363 0.666504
vt 0.837402 0.635254
vt 0.879395 0.678467
vt 0.893555 0.656738
vt 0.875000 0.629395
vt 0.910156 0.695557
vt 0.907227 0.639893
vt 0.959961 0.664551
vt 0.955078 0.694824
vt 0.943359 0.629639
vt 0.973633 0.639404
vt 0.097717 0.559570
vt 0.154907 0.559082
vt 0.164062 0.586182
vt 0.093750 0.590088
vt 0.070129 0.562256
vt 0.168457 0.625244
vt 0.036041 0.572998
vt 0.149292 0.647949
vt 0.023590 0.620361
vt 0.008659 0.586426
vt 0.088928 0.641113
vt 0.158447 0.668945
vt 0.050995 0.661133
vt 0.025345 0.652832
vt 0.040802 0.685791
vt 0.000999 0.674316
vt 0.013206 0.706543
vt 0.073669 0.687744
vt 0.040802 0.709961
vt 0.002840 0.753784
vt 0.118469 0.703125
vt 0.065918 0.765991
vt 0.008179 0.787231
vt 0.092529 0.801392
vt 0.157959 0.731445
vt 0.177612 0.684082
vt 0.100098 0.775269
vt 0.160156 0.770874
vt 0.141968 0.803711
vt1 0.314697 0.262695
vt1 0.324219 0.237793
vt1 0.337402 0.280762
vt1 0.359863 0.244141
vt1 0.388916 0.292969
vt1 0.359131 0.341309
vt1 0.410645 0.246094
vt1 0.406494 0.334473
vt1 0.443848 0.264160
vt1 0.443848 0.307129
vt1 0.512695 0.268555
vt1 0.500000 0.308105
vt1 0.545410 0.266602
vt1 0.600098 0.313965
vt1 0.615234 0.286621
vt1 0.589844 0.255859
vt1 0.638672 0.331543
vt1 0.629395 0.264648
vt1 0.695312 0.289062
vt1 0.692383 0.325684
vt1 0.671875 0.248535
vt1 0.709473 0.257324
vt1 0.322998 0.620850
vt1 0.321289 0.536133
vt1 0.361084 0.522217
vt1 0.368408 0.626221
vt1 0.327637 0.661621
vt1 0.418945 0.514893
vt1 0.343994 0.711914
vt1 0.452881 0.542725
vt1 0.414551 0.729492
vt1 0.364258 0.752075
vt1 0.443604 0.632324
vt1 0.483643 0.528809
vt1 0.474365 0.687988
vt1 0.462402 0.726318
vt1 0.510742 0.702637
vt1 0.494629 0.761841
vt1 0.541992 0.743164
vt1 0.513184 0.654053
vt1 0.546387 0.702148
vt1 0.612305 0.757568
vt1 0.535156 0.587402
vt1 0.628906 0.664062
vt1 0.661621 0.749023
vt1 0.681152 0.624023
vt1 0.576172 0.528320
vt1 0.505859 0.500244
vt1 0.642090 0.613281
vt1 0.634277 0.524414
vt1 0.683594 0.550781
vn -0.614173 -0.606299 0.503937
vn -0.598425 -0.566929 0.566929
vn -0.897638 -0.251968 0.354331
vn -0.850394 -0.480315 0.228346
vn -0.984252 0.039370 -0.181102
vn -0.881890 0.433071 0.173228
vn -0.874016 -0.370079 -0.322835
vn -0.897638 0.338583 -0.283465
vn -0.519685 -0.078740 -0.850394
vn -0.488189 0.055118 -0.874016
vn 0.047244 0.015748 -1.000000
vn 0.015748 -0.000000 -1.000000
vn 0.039370 -0.110236 -0.992126
vn 0.448819 0.062992 -0.889764
vn 0.740157 -0.196850 -0.637795
vn 0.196850 -0.456693 -0.866142
vn 0.960630 0.236220 -0.118110
vn 0.881890 -0.440945 -0.173228
vn 0.960630 -0.188976 0.212598
vn 0.921260 0.377953 0.125984
vn 0.748031 -0.582677 0.307087
vn 0.677165 -0.606299 0.417323
vn -0.023622 -0.897638 -0.440945
vn 0.000000 -0.874016 -0.480315
vn 0.000000 -0.976378 -0.220472
vn -0.023622 -0.984252 -0.173228
vn -0.118110 -0.881890 -0.464567
vn 0.031496 -1.000000 0.070866
vn 0.031496 -0.992126 -0.110236
vn 0.070866 -0.818897 0.574803
vn 0.039370 -0.976378 0.196850
vn 0.204724 -0.976378 -0.055118
vn 0.023622 -0.874016 0.480315
vn -0.196850 0.157480 0.968504
vn 0.094488 -0.409449 0.905512
vn 0.118110 -0.543307 0.834646
vn 0.275591 0.307087 0.913386
vn 0.527559 0.181102 0.834646
vn 0.527559 0.708661 0.472441
vn -0.007874 0.377953 0.929134
vn 0.220472 0.881890 0.409449
vn 0.283465 0.921260 -0.275591
vn -0.031496 0.740157 0.677165
vn 0.047244 0.913386 -0.401575
vn 0.173228 0.755905 -0.637795
vn 0.047244 0.503937 -0.858268
vn -0.141732 0.913386 0.385827
vn -0.425197 0.480315 0.763779
vn 0.023622 0.842520 -0.535433
vn -0.055118 0.937008 -0.338583
vn -0.086614 0.637795 -0.763779
tan 0.683861 -0.730361 -0.045260 1.000000
tan 0.660673 -0.753673 -0.056296 1.000000
tan 0.301073 -0.942836 0.092256 1.000000
tan 0.510137 -0.857772 0.095542 1.000000
tan -0.054126 -0.992374 0.078430 1.000000
tan -0.416021 -0.897886 0.126790 1.000000
tan 0.299895 -0.922872 0.246017 1.000000
tan -0.345341 -0.940418 -0.029698 1.000000
tan -0.080228 -0.989150 0.140616 1.000000
tan -0.144336 -0.992312 0.018042 1.000000
tan -0.140988 -0.994358 -0.022320 1.000000
tan -0.141732 -0.992374 -0.002232 1.000000
tan -0.170128 -0.978672 0.101990 1.000000
tan -0.112344 -0.982578 -0.126232 1.000000
tan -0.210614 -0.972100 0.055614 1.000000
tan -0.266229 -0.877302 0.402071 1.000000
tan 0.232500 -0.967946 -0.044888 1.000000
tan -0.427801 -0.896522 0.104160 1.000000
tan -0.204600 -0.979788 0.053568 1.000000
tan 0.374977 -0.930870 0.050592 1.000000
tan -0.598673 -0.797321 -0.054560 1.000000
tan -0.644305 -0.761051 -0.060202 1.000000
tan 0.010416 0.440945 -0.898196 1.000000
tan 0.000000 0.480315 -0.874016 1.000000
tan 0.000000 0.220472 -0.976378 1.000000
tan 0.004092 0.173228 -0.984810 1.000000
tan 0.030752 0.464629 -0.889826 1.000000
tan 0.002232 -0.070866 -1.000992 1.000000
tan -0.011284 0.109988 -0.993118 1.000000
tan 0.010416 -0.577035 -0.823361 1.000000
tan 0.000062 -0.197160 -0.977928 1.000000
tan -0.011284 0.053816 -0.995226 1.000000
tan 0.022010 -0.480129 -0.874760 1.000000
tan 0.156984 -0.970550 0.189720 1.000000
tan 0.017670 -0.905822 -0.411433 1.000000
tan -0.231508 -0.834398 -0.510385 1.000000
tan -0.016120 -0.946866 0.323207 1.000000
tan -0.089032 -0.960754 0.264741 1.000000
tan 0.113460 -0.609895 0.788146 1.000000
tan 0.082088 -0.928948 0.378573 1.000000
tan 0.078120 -0.436233 0.897514 1.000000
tan 0.181102 0.231385 0.959762 1.000000
tan 0.031992 -0.677165 0.741646 1.000000
tan 0.124248 0.393949 0.910658 1.000000
tan 0.223386 0.601773 0.773885 1.000000
tan 0.116064 0.850766 0.505921 1.000000
tan 0.001302 -0.390601 0.925166 1.000000
tan 0.077252 -0.819517 0.558373 1.000000
tan 0.062682 0.534503 0.843822 1.000000
tan 0.105338 0.342427 0.930498 1.000000
tan 0.053258 0.766631 0.634137 1.000000
f 3/3/3 2/2/2 1/1/1
f 3/3/3 4/4/4 2/2/2
f 5/5/5 4/4/4 3/3/3
f 3/3/3 6/6/6 5/5/5
f 5/5/5 7/7/7 4/4/4
f 5/5/5 6/6/6 8/8/8
f 5/5/5 9/9/9 7/7/7
f 10/10/10 5/5/5 8/8/8
f 5/5/5 10/10/10 9/9/9
f 9/9/9 10/10/10 11/11/11
f 12/12/12 11/11/11 10/10/10
f 12/12/12 13/13/13 11/11/11
f 12/12/12 14/14/14 13/13/13
f 14/14/14 15/15/15 13/13/13
f 13/13/13 15/15/15 16/16/16
f 17/17/17 15/15/15 14/14/14
f 16/16/16 15/15/15 18/18/18
f 15/15/15 17/17/17 19/19/19
f 18/18/18 15/15/15 19/19/19
f 20/20/20 19/19/19 17/17/17
f 18/18/18 19/19/19 21/21/21
f 21/21/21 19/19/19 22/22/22
f 25/25/25 24/24/24 23/23/23
f 26/26/26 25/25/25 23/23/23
f 23/23/23 27/27/27 26/26/26
f 25/25/25 26/26/26 28/28/28
f 27/27/27 29/29/29 26/26/26
f 30/30/30 28/28/28 26/26/26
f 29/29/29 32/32/32 31/31/31
f 31/31/31 26/26/26 29/29/29
f 33/33/33 30/30/30 26/26/26
f 31/31/31 33/33/33 26/26/26
f 34/34/34 30/30/30 33/33/33
f 35/35/35 33/33/33 31/31/31
f 33/33/33 35/35/35 34/34/34
f 36/36/36 35/35/35 31/31/31
f 37/37/37 35/35/35 36/36/36
f 37/37/37 36/36/36 38/38/38
f 37/37/37 38/38/38 39/39/39
f 37/37/37 40/40/40 35/35/35
f 34/34/34 35/35/35 40/40/40
f 39/39/39 41/41/41 37/37/37
f 37/37/37 41/41/41 40/40/40
f 39/39/39 42/42/42 41/41/41
f 43/43/43 34/34/34 40/40/40
f 44/44/44 41/41/41 42/42/42
f 42/42/42 45/45/45 44/44/44
f 46/46/46 44/44/44 45/45/45
f 43/43/43 40/40/40 47/47/47
f 47/47/47 34/34/34 43/43/43
f 40/40/40 41/41/41 47/47/47
f 34/34/34 47/47/47 48/48/48
f 49/49/49 41/41/41 44/44/44
f 41/41/41 49/49/49 47/47/47
f 46/46/46 49/49/49 44/44/44
f 47/47/47 49/49/49 50/50/50
f 51/51/51 49/49/49 46/46/46
f 51/51/51 50/50/50 49/49/49
