mtllib SM_Sticker_32.mtl
g SM_Sticker_32
#Vertices 55
#Indices 159
#Section 0 Offset 0 NumIndices 159 MaterialIndex 0 MI_Posters_01
v 0.156125 0.241676 -0.000000
v 0.151135 0.211984 -0.000000
v 0.161265 0.225040 -0.000000
v 0.136804 0.250787 -0.000000
v 0.090437 0.190893 -0.000000
v 0.093604 0.252986 -0.000000
v -0.019919 0.252938 -0.000000
v -0.023251 0.222280 -0.000000
v -0.010811 0.205396 -0.000000
v 0.092292 0.149858 -0.000000
v -0.022892 0.178874 -0.000000
v -0.007144 0.309387 -0.000000
v -0.033095 0.292118 -0.000000
v 0.097060 0.264611 -0.000000
v -0.042011 0.293645 -0.000000
v -0.022225 0.329808 -0.000000
v -0.052229 0.331065 -0.000000
v -0.088203 0.284724 -0.000000
v 0.009979 0.326981 -0.000000
v -0.111767 0.323525 -0.000000
v 0.092504 0.280948 -0.000000
v -0.076736 0.373479 -0.000000
v -0.104540 0.370494 -0.000000
v -0.120093 0.355414 -0.000000
v 0.111669 0.292730 -0.000000
v 0.119128 0.358831 -0.000000
v 0.128164 0.288017 -0.000000
v 0.118500 0.377524 -0.000000
v 0.141749 0.367471 -0.000000
v 0.088810 0.401402 -0.000000
v 0.144753 0.292473 -0.000000
v -0.016570 0.355100 -0.000000
v 0.153612 0.312523 -0.000000
v 0.054386 0.415075 -0.000000
v 0.162042 0.355377 -0.000000
v -0.045317 0.369395 -0.000000
v 0.166942 0.344558 -0.000000
v 0.050817 0.439847 -0.000000
v 0.165237 0.272779 -0.000000
v 0.231999 0.292259 -0.000000
v 0.213184 0.360171 -0.000000
v -0.054742 0.388717 -0.000000
v 0.031103 0.470553 -0.000000
v -0.007043 0.453037 -0.000000
v -0.058883 0.404968 -0.000000
v 0.016921 0.472599 -0.000000
v -0.002017 0.470003 -0.000000
v -0.003226 0.012121 -0.000000
v 0.000000 0.000000 0.000000
v 0.020009 -0.004392 0.000000
v 0.033024 0.006466 -0.000000
v 0.046143 0.076196 -0.000000
v 0.009107 0.086926 -0.000000
v 0.082142 0.090388 -0.000000
v -0.036464 0.102863 -0.000000
vt 0.954102 0.130371
vt 0.951660 0.115723
vt 0.956543 0.122070
vt 0.944824 0.134766
vt 0.921875 0.105469
vt 0.923828 0.135742
vt 0.868164 0.135742
vt 0.866699 0.121094
vt 0.872559 0.112793
vt 0.922852 0.085449
vt 0.866699 0.099609
vt 0.874512 0.163574
vt 0.861816 0.154785
vt 0.925293 0.141602
vt 0.857422 0.155762
vt 0.867188 0.173340
vt 0.852539 0.173828
vt 0.834961 0.151367
vt 0.882812 0.171875
vt 0.823242 0.170410
vt 0.923340 0.149414
vt 0.840332 0.194824
vt 0.826660 0.193359
vt 0.819336 0.186035
vt 0.932617 0.155273
vt 0.936035 0.187500
vt 0.940430 0.152832
vt 0.936035 0.196777
vt 0.947266 0.191895
vt 0.921387 0.208496
vt 0.948730 0.155273
vt 0.869629 0.185547
vt 0.953125 0.165039
vt 0.904297 0.214844
vt 0.957031 0.186035
vt 0.855957 0.192871
vt 0.959473 0.180664
vt 0.902832 0.227051
vt 0.958496 0.145508
vt 0.991211 0.155273
vt 0.981934 0.187988
vt 0.851074 0.202148
vt 0.893066 0.242188
vt 0.874512 0.233398
vt 0.849121 0.209961
vt 0.886230 0.243164
vt 0.876953 0.241699
vt 0.876465 0.018066
vt 0.877930 0.012207
vt 0.887695 0.010254
vt 0.894043 0.015625
vt 0.900391 0.049805
vt 0.882324 0.054688
vt 0.917969 0.056641
vt 0.860352 0.062500
vt1 0.663574 0.512451
vt1 0.655273 0.463867
vt1 0.671875 0.485352
vt1 0.631836 0.527344
vt1 0.556152 0.429688
vt1 0.561523 0.531006
vt1 0.375732 0.531006
vt1 0.370361 0.480957
vt1 0.390625 0.453125
vt1 0.559082 0.362305
vt1 0.370850 0.410156
vt1 0.396729 0.623291
vt1 0.354248 0.594971
vt1 0.566895 0.550049
vt1 0.339600 0.597412
vt1 0.372070 0.656738
vt1 0.322998 0.658691
vt1 0.264160 0.583008
vt1 0.424805 0.652100
vt1 0.225708 0.646240
vt1 0.559570 0.576660
vt1 0.282959 0.728027
vt1 0.237549 0.723145
vt1 0.212036 0.698486
vt1 0.590820 0.595947
vt1 0.603027 0.704102
vt1 0.617676 0.588379
vt1 0.602051 0.734619
vt1 0.640137 0.718262
vt1 0.553711 0.773682
vt1 0.645020 0.595459
vt1 0.381348 0.697998
vt1 0.659668 0.628418
vt1 0.497314 0.796021
vt1 0.673340 0.698486
vt1 0.334229 0.721436
vt1 0.681152 0.680664
vt1 0.491455 0.836548
vt1 0.678223 0.563477
vt1 0.787598 0.595215
vt1 0.756836 0.706299
vt1 0.318848 0.752930
vt1 0.459229 0.886658
vt1 0.396973 0.858032
vt1 0.312012 0.779419
vt1 0.436035 0.890015
vt1 0.405029 0.885803
vt1 0.403076 0.137207
vt1 0.408447 0.117188
vt1 0.441162 0.110352
vt1 0.462402 0.127930
vt1 0.483887 0.242188
vt1 0.423340 0.259766
vt1 0.542480 0.265137
vt1 0.348633 0.285645
vn 0.000000 -0.000000 -1.000000
vn 0.000000 -0.000000 -1.000000
vn 0.000000 -0.000000 -1.000000
vn 0.000000 -0.000000 -1.000000
vn 0.000000 -0.000000 -1.000000
vn 0.000000 -0.000000 -1.000000
vn 0.000000 -0.000000 -1.000000
vn 0.000000 -0.000000 -1.000000
vn 0.000000 -0.000000 -1.000000
vn 0.000000 -0.000000 -1.000000
vn 0.000000 -0.000000 -1.000000
vn 0.000000 -0.000000 -1.000000
vn 0.000000 -0.000000 -1.000000
vn 0.000000 -0.000000 -1.000000
vn 0.000000 -0.000000 -1.000000
vn 0.000000 -0.000000 -1.000000
vn 0.000000 -0.000000 -1.000000
vn 0.000000 -0.000000 -1.000000
vn 0.000000 -0.000000 -1.000000
vn 0.000000 -0.000000 -1.000000
vn 0.000000 -0.000000 -1.000000
vn 0.000000 -0.000000 -1.000000
vn 0.000000 -0.000000 -1.000000
vn 0.000000 -0.000000 -1.000000
vn 0.000000 -0.000000 -1.000000
vn 0.000000 -0.000000 -1.000000
vn 0.000000 -0.000000 -1.000000
vn 0.000000 -0.000000 -1.000000
vn 0.000000 -0.000000 -1.000000
vn 0.000000 -0.000000 -1.000000
vn 0.000000 -0.000000 -1.000000
vn 0.000000 -0.000000 -1.000000
vn 0.000000 -0.000000 -1.000000
vn 0.000000 -0.000000 -1.000000
vn 0.000000 -0.000000 -1.000000
vn 0.000000 -0.000000 -1.000000
vn 0.000000 -0.000000 -1.000000
vn 0.000000 -0.000000 -1.000000
vn 0.000000 -0.000000 -1.000000
vn 0.000000 -0.000000 -1.000000
vn 0.000000 -0.000000 -1.000000
vn 0.000000 -0.000000 -1.000000
vn 0.000000 -0.000000 -1.000000
vn 0.000000 -0.000000 -1.000000
vn 0.000000 -0.000000 -1.000000
vn 0.000000 -0.000000 -1.000000
vn 0.000000 -0.000000 -1.000000
vn 0.000000 -0.000000 -1.000000
vn 0.000000 -0.000000 -1.000000
vn 0.000000 -0.000000 -1.000000
vn 0.000000 -0.000000 -1.000000
vn 0.000000 -0.000000 -1.000000
vn 0.000000 -0.000000 -1.000000
vn 0.000000 -0.000000 -1.000000
vn 0.000000 -0.000000 -1.000000
tan 0.000000 -1.000000 0.000000 1.000000
tan 0.000000 -1.000000 0.000000 1.000000
tan 0.000000 -1.000000 0.000000 1.000000
tan 0.000000 -1.000000 0.000000 1.000000
tan 0.000000 -1.000000 0.000000 1.000000
tan 0.000000 -1.000000 0.000000 1.000000
tan 0.000000 -1.000000 0.000000 1.000000
tan 0.000000 -1.000000 0.000000 1.000000
tan 0.000000 -1.000000 0.000000 1.000000
tan 0.000000 -1.000000 0.000000 1.000000
tan 0.000000 -1.000000 0.000000 1.000000
tan 0.000000 -1.000000 0.000000 1.000000
tan 0.000000 -1.000000 0.000000 1.000000
tan 0.000000 -1.000000 0.000000 1.000000
tan 0.000000 -1.000000 0.000000 1.000000
tan 0.000000 -1.000000 0.000000 1.000000
tan 0.000000 -1.000000 0.000000 1.000000
tan 0.000000 -1.000000 0.000000 1.000000
tan 0.000000 -1.000000 0.000000 1.000000
tan 0.000000 -1.000000 0.000000 1.000000
tan 0.000000 -1.000000 0.000000 1.000000
tan 0.000000 -1.000000 0.000000 1.000000
tan 0.000000 -1.000000 0.000000 1.000000
tan 0.000000 -1.000000 0.000000 1.000000
tan 0.000000 -1.000000 0.000000 1.000000
tan 0.000000 -1.000000 0.000000 1.000000
tan 0.000000 -1.000000 0.000000 1.000000
tan 0.000000 -1.000000 0.000000 1.000000
tan 0.000000 -1.000000 0.000000 1.000000
tan 0.000000 -1.000000 0.000000 1.000000
tan 0.000000 -1.000000 0.000000 1.000000
tan 0.000000 -1.000000 0.000000 1.000000
tan 0.000000 -1.000000 0.000000 1.000000
tan 0.000000 -1.000000 0.000000 1.000000
tan 0.000000 -1.000000 0.000000 1.000000
tan 0.000000 -1.000000 0.000000 1.000000
tan 0.000000 -1.000000 0.000000 1.000000
tan 0.000000 -1.000000 0.000000 1.000000
tan 0.000000 -1.000000 0.000000 1.000000
tan 0.000000 -1.000000 0.000000 1.000000
tan 0.000000 -1.000000 0.000000 1.000000
tan 0.000000 -1.000000 0.000000 1.000000
tan 0.000000 -1.000000 0.000000 1.000000
tan 0.000000 -1.000000 0.000000 1.000000
tan 0.000000 -1.000000 0.000000 1.000000
tan 0.000000 -1.000000 0.000000 1.000000
tan 0.000000 -1.000000 0.000000 1.000000
tan 0.000000 -1.000000 0.000000 1.000000
tan 0.000000 -1.000000 0.000000 1.000000
tan 0.000000 -1.000000 0.000000 1.000000
tan 0.000000 -1.000000 0.000000 1.000000
tan 0.000000 -1.000000 0.000000 1.000000
tan 0.000000 -1.000000 0.000000 1.000000
tan 0.000000 -1.000000 0.000000 1.000000
tan 0.000000 -1.000000 0.000000 1.000000
f 3/3/3 2/2/2 1/1/1
f 4/4/4 1/1/1 2/2/2
f 2/2/2 5/5/5 4/4/4
f 6/6/6 4/4/4 5/5/5
f 6/6/6 5/5/5 7/7/7
f 5/5/5 8/8/8 7/7/7
f 9/9/9 8/8/8 5/5/5
f 10/10/10 9/9/9 5/5/5
f 10/10/10 11/11/11 9/9/9
f 12/12/12 6/6/6 7/7/7
f 12/12/12 7/7/7 13/13/13
f 6/6/6 12/12/12 14/14/14
f 12/12/12 13/13/13 15/15/15
f 16/16/16 12/12/12 15/15/15
f 15/15/15 17/17/17 16/16/16
f 18/18/18 17/17/17 15/15/15
f 19/19/19 14/14/14 12/12/12
f 20/20/20 17/17/17 18/18/18
f 19/19/19 21/21/21 14/14/14
f 22/22/22 17/17/17 20/20/20
f 22/22/22 20/20/20 23/23/23
f 24/24/24 23/23/23 20/20/20
f 19/19/19 25/25/25 21/21/21
f 26/26/26 25/25/25 19/19/19
f 25/25/25 26/26/26 27/27/27
f 28/28/28 26/26/26 19/19/19
f 29/29/29 27/27/27 26/26/26
f 30/30/30 28/28/28 19/19/19
f 29/29/29 31/31/31 27/27/27
f 32/32/32 30/30/30 19/19/19
f 33/33/33 31/31/31 29/29/29
f 32/32/32 34/34/34 30/30/30
f 35/35/35 33/33/33 29/29/29
f 32/32/32 36/36/36 34/34/34
f 37/37/37 33/33/33 35/35/35
f 38/38/38 34/34/34 36/36/36
f 33/33/33 37/37/37 39/39/39
f 39/39/39 37/37/37 40/40/40
f 41/41/41 40/40/40 37/37/37
f 36/36/36 42/42/42 38/38/38
f 43/43/43 38/38/38 42/42/42
f 42/42/42 44/44/44 43/43/43
f 42/42/42 45/45/45 44/44/44
f 46/46/46 43/43/43 44/44/44
f 44/44/44 47/47/47 46/46/46
f 50/50/50 49/49/49 48/48/48
f 50/50/50 48/48/48 51/51/51
f 51/51/51 48/48/48 52/52/52
f 53/53/53 52/52/52 48/48/48
f 10/10/10 54/54/54 52/52/52
f 52/52/52 53/53/53 10/10/10
f 53/53/53 11/11/11 10/10/10
f 53/53/53 55/55/55 11/11/11
