mtllib SM_Soda_Can_02_LOD2.mtl
g SM_Soda_Can_02_LOD2
#Vertices 415
#Indices 1680
#Section 0 Offset 0 NumIndices 1680 MaterialIndex 0 MI_Small_Props_01
v -0.005939 0.137176 0.009860
v -0.000066 0.137970 0.010610
v -0.005611 0.135217 0.008941
v 0.005317 0.135351 0.008952
v 0.006550 0.137243 0.009216
v 0.005093 0.131468 0.004879
v 0.006698 0.129325 0.002974
v -0.006893 0.131419 0.006024
v -0.005801 0.128917 0.002146
v -0.006137 0.126144 -0.002808
v -0.000021 0.125486 -0.006974
v -0.006721 0.126535 -0.005538
v -0.000014 0.126726 -0.005011
v 0.005896 0.126008 -0.002684
v 0.006535 0.126599 -0.005525
v 0.006617 0.131840 0.003959
v 0.006550 0.137243 0.009216
v 0.004695 0.137204 0.008074
v 0.006535 0.126599 -0.005525
v 0.004677 0.127348 -0.003933
v -0.000143 0.126539 -0.007420
v 0.005215 0.130114 0.002045
v -0.000014 0.126726 -0.005011
v -0.005725 0.132116 0.004634
v -0.004908 0.127373 -0.003691
v -0.006721 0.126535 -0.005538
v -0.006829 0.129879 0.001378
v -0.006708 0.136805 0.008208
v -0.004837 0.137222 0.008070
v -0.006829 0.129879 0.001378
v 0.006698 0.129325 0.002974
v 0.005215 0.130114 0.002045
v -0.005801 0.128917 0.002146
v -0.005725 0.132116 0.004634
v 0.005093 0.131468 0.004879
v -0.006893 0.131419 0.006024
v 0.006617 0.131840 0.003959
v 0.005093 0.131468 0.004879
v 0.006617 0.131840 0.003959
v 0.004695 0.137204 0.008074
v 0.005317 0.135351 0.008952
v 0.000347 0.139142 0.007789
v -0.000066 0.137970 0.010610
v -0.005611 0.135217 0.008941
v -0.004837 0.137222 0.008070
v -0.006893 0.131419 0.006024
v -0.005725 0.132116 0.004634
v -0.007377 0.125820 -0.005319
v -0.011503 0.125689 -0.009774
v -0.011731 0.124348 -0.016960
v -0.004074 0.123804 -0.019929
v 0.006013 0.125850 -0.004698
v 0.004507 0.123922 -0.019863
v 0.011756 0.124403 -0.016954
v 0.011659 0.125677 -0.010030
v -0.004908 0.127373 -0.003691
v -0.005801 0.128917 0.002146
v -0.006829 0.129879 0.001378
v -0.006137 0.126144 -0.002808
v -0.000014 0.126726 -0.005011
v 0.005896 0.126008 -0.002684
v 0.004677 0.127348 -0.003933
v 0.005215 0.130114 0.002045
v 0.006698 0.129325 0.002974
v 0.004761 0.003644 -0.026098
v -0.004627 0.006417 -0.024880
v 0.004627 0.006417 -0.024880
v -0.004762 0.003644 -0.026098
v -0.013323 0.006073 -0.021676
v 0.004843 0.004393 -0.027257
v -0.013710 0.003269 -0.022841
v -0.020413 0.005476 -0.015671
v -0.004966 0.003781 -0.027255
v -0.009951 0.004910 -0.026522
v -0.014298 0.003384 -0.023859
v -0.021005 0.002620 -0.016720
v -0.021797 0.003558 -0.017811
v -0.025767 0.001859 -0.008473
v -0.025040 0.004774 -0.007615
v -0.010607 0.006949 -0.028148
v 0.005317 0.006938 -0.028840
v 0.005828 0.009237 -0.031553
v -0.005828 0.009237 -0.031553
v -0.016780 0.008772 -0.027456
v -0.026692 0.005345 -0.014646
v -0.027533 0.007687 -0.018329
v -0.033557 0.006605 -0.002493
v -0.027264 0.002919 -0.008659
v -0.030858 0.003936 0.006828
v -0.031536 0.005647 0.013249
v -0.028595 0.001152 0.000906
v -0.018040 0.004931 0.029874
v -0.025709 0.005323 0.023113
v -0.028788 0.002074 0.006499
v -0.027420 0.001152 0.000906
v -0.026989 0.003571 0.006192
v -0.026871 0.000594 0.010686
v -0.025767 0.000614 0.010284
v -0.020413 0.003299 0.018479
v -0.022119 0.001213 0.019554
v -0.021005 0.000279 0.018531
v -0.013710 0.000115 0.024652
v -0.013323 0.003140 0.024334
v -0.014298 0.000094 0.025670
v -0.010875 0.001332 0.028309
v -0.004966 0.000041 0.029066
v -0.004762 0.000057 0.027909
v -0.004627 0.003082 0.027440
v 0.005376 0.000916 0.029359
v -0.000138 0.003075 0.031968
v -0.005872 0.005443 0.034717
v 0.011915 0.005181 0.032976
v 0.004761 0.000057 0.027909
v 0.009314 0.002747 0.026849
v 0.020156 0.003182 0.025460
v 0.025709 0.005323 0.023113
v 0.033617 0.005843 0.008045
v 0.014298 0.000094 0.025670
v 0.030858 0.003936 0.006828
v 0.031536 0.007058 -0.009586
v 0.020166 0.001434 0.022527
v 0.013710 0.000115 0.024652
v 0.020413 0.003299 0.018479
v 0.021905 0.000255 0.019286
v 0.021005 0.000279 0.018531
v 0.025767 0.000614 0.010284
v 0.026942 0.003561 0.006274
v 0.026871 0.000594 0.010686
v 0.028788 0.002074 0.006499
v 0.027420 0.001152 0.000906
v 0.025040 0.004774 -0.007615
v 0.028595 0.001152 0.000906
v 0.025767 0.001859 -0.008473
v 0.020413 0.005476 -0.015671
v 0.027309 0.002835 -0.008575
v 0.021005 0.002620 -0.016720
v 0.013710 0.003269 -0.022841
v 0.013323 0.006073 -0.021676
v 0.021905 0.002696 -0.017475
v 0.004761 0.003644 -0.026098
v 0.004627 0.006417 -0.024880
v 0.014298 0.003384 -0.023859
v 0.004843 0.004393 -0.027257
v 0.018784 0.004404 -0.021655
v 0.005317 0.006938 -0.028840
v 0.028773 0.004957 -0.008964
v 0.025709 0.007975 -0.019803
v 0.019546 0.006151 -0.022548
v 0.005828 0.009237 -0.031553
v 0.016780 0.008772 -0.027456
v -0.012728 0.129240 0.023257
v -0.004421 0.129535 0.026071
v -0.004776 0.123654 0.028539
v -0.014630 0.121336 0.027037
v -0.019501 0.128685 0.017913
v -0.005985 0.117391 0.034730
v -0.029328 0.119877 0.011286
v -0.023921 0.127937 0.010600
v -0.025457 0.127089 0.002124
v -0.022744 0.117733 0.027069
v -0.024007 0.113290 0.029001
v -0.006118 0.113894 0.035568
v -0.006134 0.098952 0.036264
v -0.032890 0.116427 0.011030
v -0.023615 0.084387 0.030917
v -0.006118 0.035309 0.036460
v -0.033055 0.112302 0.016438
v -0.033331 0.077059 0.018527
v -0.024020 0.034182 0.029930
v -0.006118 0.009320 0.035908
v -0.024887 0.009827 0.027659
v -0.005872 0.005443 0.034717
v -0.018040 0.004931 0.029874
v -0.025709 0.005323 0.023113
v -0.033112 0.035420 0.017425
v -0.035657 0.009979 0.008611
v -0.031536 0.005647 0.013249
v -0.033557 0.006605 -0.002493
v -0.027533 0.007687 -0.018329
v -0.034590 0.044907 0.007507
v -0.035235 0.086223 0.007144
v -0.031451 0.036072 -0.005298
v -0.035046 0.110845 -0.003292
v -0.029183 0.061057 -0.002844
v -0.032341 0.085861 -0.004647
v -0.033110 0.011120 -0.009432
v -0.023693 0.036351 -0.014178
v -0.022376 0.011965 -0.025764
v -0.012691 0.014094 -0.031273
v -0.016780 0.008772 -0.027456
v -0.005828 0.009237 -0.031553
v -0.009674 0.036825 -0.023676
v 0.007441 0.013548 -0.032733
v 0.005828 0.009237 -0.031553
v 0.016780 0.008772 -0.027456
v -0.020683 0.061186 -0.009921
v 0.018261 0.012858 -0.028073
v 0.025709 0.007975 -0.019803
v -0.023814 0.085791 -0.013413
v 0.032104 0.011972 -0.013262
v 0.031536 0.007058 -0.009586
v -0.023336 0.108990 -0.023458
v 0.035522 0.010219 0.008045
v 0.033617 0.005843 0.008045
v 0.025709 0.005323 0.023113
v -0.010445 0.086142 -0.018362
v -0.008470 0.060927 -0.012372
v 0.001243 0.108779 -0.032717
v 0.005741 0.037172 -0.027825
v 0.004633 0.085614 -0.019740
v 0.004330 0.061236 -0.013977
v 0.017178 0.037066 -0.025225
v 0.013644 0.061056 -0.017170
v 0.026976 0.036660 -0.017306
v 0.025518 0.061056 -0.014753
v 0.014338 0.085470 -0.019492
v 0.022786 0.085606 -0.012818
v 0.033281 0.057614 -0.003338
v 0.017550 0.109176 -0.027055
v 0.028536 0.085878 -0.003225
v 0.035391 0.055676 0.007857
v 0.030854 0.110028 -0.012774
v 0.010242 0.113431 -0.030928
v 0.026246 0.114009 -0.017690
v 0.035196 0.111342 0.004685
v 0.033541 0.115499 0.000032
v 0.032761 0.086223 0.007147
v 0.032956 0.112360 0.016831
v 0.033262 0.047286 0.018433
v 0.032756 0.086657 0.018115
v 0.026843 0.009583 0.024870
v 0.027097 0.038921 0.027143
v 0.026903 0.112864 0.026186
v 0.012431 0.009697 0.035012
v 0.011915 0.005181 0.032976
v -0.005872 0.005443 0.034717
v -0.006118 0.009320 0.035908
v -0.006118 0.035309 0.036460
v 0.013078 0.035334 0.035608
v -0.006134 0.098952 0.036264
v 0.014660 0.085981 0.035026
v -0.006118 0.113894 0.035568
v 0.013420 0.113640 0.034171
v -0.005985 0.117391 0.034730
v 0.012783 0.118456 0.032671
v 0.029776 0.117199 0.019381
v 0.009956 0.121757 0.029325
v -0.004776 0.123654 0.028539
v -0.004421 0.129535 0.026071
v 0.004420 0.129535 0.026071
v 0.012728 0.129240 0.023257
v 0.019501 0.128685 0.017913
v 0.028981 0.120051 0.012926
v 0.023921 0.127937 0.010600
v 0.025457 0.127089 0.002124
v 0.026107 0.117949 -0.010382
v 0.023921 0.126241 -0.006521
v 0.019501 0.125496 -0.014263
v 0.008080 0.116778 -0.026623
v 0.012728 0.124944 -0.020093
v 0.004420 0.124650 -0.023225
v -0.004421 0.124650 -0.023225
v -0.019757 0.113489 -0.024908
v -0.013434 0.117022 -0.022717
v -0.012728 0.124944 -0.020093
v -0.019501 0.125496 -0.014263
v -0.031341 0.114842 -0.007864
v -0.025910 0.117954 -0.010609
v -0.023921 0.126241 -0.006521
v -0.000143 0.126539 -0.007420
v -0.006721 0.126535 -0.005538
v -0.000021 0.125486 -0.006974
v 0.006535 0.126599 -0.005525
v -0.006829 0.129879 0.001378
v -0.006137 0.126144 -0.002808
v -0.006893 0.131419 0.006024
v -0.006708 0.136805 0.008208
v -0.005611 0.135217 0.008941
v -0.005939 0.137176 0.009860
v -0.004837 0.137222 0.008070
v 0.000347 0.139142 0.007789
v -0.000066 0.137970 0.010610
v 0.006550 0.137243 0.009216
v 0.004695 0.137204 0.008074
v 0.006698 0.129325 0.002974
v 0.005317 0.135351 0.008952
v 0.006617 0.131840 0.003959
v 0.005896 0.126008 -0.002684
v -0.012136 0.124883 -0.019007
v -0.004260 0.126720 -0.022604
v -0.004215 0.124606 -0.021989
v -0.012266 0.127013 -0.019612
v -0.021782 0.125846 -0.010252
v -0.012904 0.126954 -0.020753
v -0.004482 0.126645 -0.023907
v -0.004521 0.124663 -0.023828
v -0.018793 0.127564 -0.014031
v -0.013018 0.124963 -0.020622
v -0.004421 0.124650 -0.023225
v -0.012728 0.124944 -0.020093
v -0.019770 0.127534 -0.014873
v -0.019944 0.125529 -0.014654
v -0.019501 0.125496 -0.014263
v -0.024252 0.128317 -0.007046
v -0.024465 0.126291 -0.006732
v -0.023921 0.126241 -0.006521
v -0.023053 0.128308 -0.006599
v -0.025808 0.129207 0.001719
v -0.026035 0.127159 0.002111
v -0.025457 0.127089 0.002124
v -0.024533 0.129153 0.001730
v -0.024271 0.126907 0.002158
v -0.024252 0.130099 0.010342
v -0.024465 0.128028 0.010778
v -0.023921 0.127937 0.010600
v -0.023053 0.130000 0.009929
v -0.021603 0.128165 0.014157
v -0.019770 0.130883 0.017806
v -0.019944 0.128793 0.018255
v -0.019501 0.128685 0.017913
v -0.018793 0.130744 0.017032
v -0.012136 0.128936 0.022304
v -0.013018 0.129362 0.023716
v -0.012728 0.129240 0.023257
v -0.012904 0.131465 0.023275
v -0.004521 0.129664 0.026591
v -0.004421 0.129535 0.026071
v -0.012266 0.131298 0.022239
v -0.004482 0.131775 0.026161
v 0.004521 0.129664 0.026591
v 0.004420 0.129535 0.026071
v 0.012728 0.129240 0.023257
v -0.004260 0.131592 0.024987
v -0.000078 0.129338 0.025909
v 0.004482 0.131775 0.026161
v 0.004260 0.131592 0.024987
v 0.012136 0.128936 0.022304
v 0.012266 0.131298 0.022239
v 0.012904 0.131465 0.023275
v 0.018793 0.130744 0.017032
v 0.021602 0.128164 0.014160
v 0.013018 0.129362 0.023716
v 0.019501 0.128685 0.017913
v 0.019770 0.130883 0.017806
v 0.019944 0.128793 0.018255
v 0.023921 0.127937 0.010600
v 0.023053 0.130000 0.009929
v 0.024897 0.126861 -0.000992
v 0.024465 0.128028 0.010778
v 0.025457 0.127089 0.002124
v 0.024252 0.130099 0.010342
v 0.026035 0.127159 0.002111
v 0.023921 0.126241 -0.006521
v 0.024533 0.129153 0.001730
v 0.025808 0.129207 0.001719
v 0.024465 0.126291 -0.006733
v 0.019501 0.125496 -0.014263
v 0.023053 0.128308 -0.006599
v 0.018593 0.125404 -0.013454
v 0.024252 0.128317 -0.007046
v 0.019944 0.125529 -0.014654
v 0.012728 0.124944 -0.020093
v 0.018793 0.127564 -0.014031
v 0.019770 0.127534 -0.014873
v 0.013018 0.124963 -0.020622
v 0.004420 0.124650 -0.023225
v 0.012904 0.126954 -0.020753
v 0.012266 0.127013 -0.019612
v 0.008363 0.124958 -0.021360
v 0.004260 0.126720 -0.022604
v -0.004215 0.124606 -0.021989
v -0.004260 0.126720 -0.022604
v 0.004482 0.126645 -0.023907
v -0.004482 0.126645 -0.023907
v 0.004521 0.124663 -0.023828
v -0.004521 0.124663 -0.023828
v -0.004421 0.124650 -0.023225
v 0.021602 0.128164 0.014160
v 0.018593 0.125404 -0.013454
v 0.024897 0.126861 -0.000992
v 0.011659 0.125677 -0.010030
v 0.012136 0.128936 0.022304
v 0.011756 0.124403 -0.016954
v 0.006013 0.125850 -0.004698
v 0.008363 0.124958 -0.021360
v -0.000078 0.129338 0.025909
v 0.004507 0.123922 -0.019863
v -0.007377 0.125820 -0.005319
v -0.004215 0.124606 -0.021989
v -0.012136 0.128936 0.022304
v -0.004074 0.123804 -0.019929
v -0.011503 0.125689 -0.009774
v -0.012136 0.124883 -0.019007
v -0.021603 0.128165 0.014157
v -0.011731 0.124348 -0.016960
v -0.021782 0.125846 -0.010252
v -0.024271 0.126907 0.002158
v 0.016161 0.009736 -0.006035
v 0.026942 0.003561 0.006274
v 0.025040 0.004774 -0.007615
v 0.020413 0.005476 -0.015671
v 0.013323 0.006073 -0.021676
v 0.004627 0.006417 -0.024880
v 0.020413 0.003299 0.018479
v -0.004627 0.006417 -0.024880
v 0.007412 0.006578 0.021142
v 0.009314 0.002747 0.026849
v -0.004627 0.003082 0.027440
v -0.011263 0.010694 0.002266
v -0.013323 0.006073 -0.021676
v -0.013323 0.003140 0.024334
v -0.020413 0.005476 -0.015671
v -0.020413 0.003299 0.018479
v -0.025040 0.004774 -0.007615
v -0.026989 0.003571 0.006192
vt 0.699219 0.288574
vt 0.696289 0.289062
vt 0.699219 0.287109
vt 0.692871 0.287109
vt 0.692383 0.288086
vt 0.693359 0.284180
vt 0.692383 0.282715
vt 0.699707 0.284668
vt 0.699219 0.282227
vt 0.699707 0.278809
vt 0.696289 0.276855
vt 0.699707 0.277832
vt 0.696289 0.277832
vt 0.692871 0.278809
vt 0.692383 0.277832
vt 0.836914 0.894775
vt 0.836914 0.899231
vt 0.835449 0.898865
vt 0.836426 0.888550
vt 0.835449 0.889526
vt 0.833008 0.887451
vt 0.835938 0.893372
vt 0.833008 0.888733
vt 0.829590 0.895203
vt 0.830078 0.889709
vt 0.829102 0.888611
vt 0.829102 0.893005
vt 0.829102 0.898682
vt 0.830566 0.898865
vt 0.829102 0.893250
vt 0.836426 0.893005
vt 0.835938 0.893433
vt 0.830078 0.892761
vt 0.829590 0.895142
vt 0.835938 0.895081
vt 0.829590 0.895874
vt 0.836914 0.894714
vt 0.835938 0.895325
vt 0.836426 0.894775
vt 0.835938 0.898682
vt 0.835449 0.897827
vt 0.833008 0.900208
vt 0.833008 0.898804
vt 0.830566 0.897766
vt 0.830078 0.898743
vt 0.830078 0.895569
vt 0.829590 0.895386
vt 0.747070 0.732666
vt 0.745117 0.730225
vt 0.744629 0.726074
vt 0.749023 0.724609
vt 0.754395 0.732910
vt 0.753906 0.724609
vt 0.757812 0.726074
vt 0.757324 0.729980
vt 0.830078 0.889771
vt 0.830078 0.892883
vt 0.829590 0.893066
vt 0.830566 0.890442
vt 0.833008 0.888611
vt 0.835449 0.890320
vt 0.835449 0.889587
vt 0.836426 0.893127
vt 0.835938 0.893066
vt 0.292480 0.816284
vt 0.297852 0.817993
vt 0.292480 0.817993
vt 0.297852 0.816284
vt 0.303711 0.817993
vt 0.291992 0.815308
vt 0.303467 0.816284
vt 0.309326 0.817993
vt 0.297852 0.815552
vt 0.300537 0.814819
vt 0.303467 0.815552
vt 0.309326 0.816284
vt 0.309082 0.815186
vt 0.314941 0.816284
vt 0.315186 0.817993
vt 0.300293 0.813354
vt 0.291504 0.813721
vt 0.291016 0.811646
vt 0.297363 0.811523
vt 0.303223 0.811523
vt 0.311768 0.813599
vt 0.310547 0.811401
vt 0.319092 0.811401
vt 0.315186 0.815063
vt 0.323730 0.813477
vt 0.326660 0.811401
vt 0.320801 0.815552
vt 0.337402 0.812012
vt 0.332520 0.811401
vt 0.323975 0.814819
vt 0.320801 0.816284
vt 0.323730 0.817871
vt 0.326416 0.815674
vt 0.326416 0.816284
vt 0.332520 0.817993
vt 0.332275 0.815063
vt 0.332275 0.816284
vt 0.338135 0.816284
vt 0.338135 0.817993
vt 0.337891 0.815674
vt 0.340332 0.814941
vt 0.343750 0.815674
vt 0.343750 0.816284
vt 0.343750 0.817993
vt 0.349609 0.815063
vt 0.346680 0.813477
vt 0.343750 0.811157
vt 0.352539 0.811401
vt 0.349609 0.816284
vt 0.352295 0.817749
vt 0.357910 0.813477
vt 0.360840 0.811401
vt 0.369141 0.811646
vt 0.355225 0.815674
vt 0.369385 0.813477
vt 0.377930 0.811523
vt 0.358887 0.814941
vt 0.355225 0.816284
vt 0.360840 0.817993
vt 0.361084 0.815674
vt 0.361084 0.816284
vt 0.366699 0.816284
vt 0.369385 0.817871
vt 0.366699 0.815674
vt 0.369385 0.814819
vt 0.372314 0.816284
vt 0.377930 0.817993
vt 0.372559 0.815552
vt 0.378174 0.816284
vt 0.383789 0.817993
vt 0.377930 0.815063
vt 0.383789 0.816284
vt 0.389404 0.816284
vt 0.389404 0.817993
vt 0.384033 0.815552
vt 0.395020 0.816406
vt 0.394775 0.818115
vt 0.389648 0.815552
vt 0.395508 0.815430
vt 0.386963 0.814819
vt 0.395996 0.813721
vt 0.378174 0.813477
vt 0.384033 0.811523
vt 0.387207 0.813477
vt 0.396484 0.811768
vt 0.390137 0.811523
vt 0.162231 0.963013
vt 0.157227 0.963348
vt 0.156616 0.959930
vt 0.161743 0.958099
vt 0.167480 0.962982
vt 0.155029 0.955444
vt 0.173950 0.958130
vt 0.172974 0.962982
vt 0.178589 0.962982
vt 0.165161 0.955444
vt 0.164795 0.954102
vt 0.154663 0.954437
vt 0.154785 0.946838
vt 0.174683 0.955444
vt 0.164673 0.939148
vt 0.154541 0.911987
vt 0.172363 0.953888
vt 0.172729 0.935303
vt 0.164673 0.911316
vt 0.154419 0.896606
vt 0.165161 0.896851
vt 0.154541 0.892761
vt 0.161621 0.892517
vt 0.166992 0.892639
vt 0.172485 0.911987
vt 0.175781 0.896729
vt 0.172852 0.892639
vt 0.180786 0.892883
vt 0.188965 0.892883
vt 0.178101 0.917480
vt 0.178101 0.940308
vt 0.184204 0.911926
vt 0.181885 0.953705
vt 0.184692 0.926575
vt 0.184204 0.940399
vt 0.184204 0.896790
vt 0.190186 0.911865
vt 0.193237 0.896362
vt 0.198486 0.897034
vt 0.195801 0.892761
vt 0.201538 0.892761
vt 0.198853 0.911499
vt 0.207764 0.896912
vt 0.207153 0.892822
vt 0.212891 0.892883
vt 0.190918 0.926636
vt 0.213135 0.896912
vt 0.218506 0.892883
vt 0.190552 0.940582
vt 0.222534 0.897156
vt 0.224243 0.892761
vt 0.192749 0.953705
vt 0.232544 0.896790
vt 0.232788 0.892822
vt 0.241211 0.892578
vt 0.198242 0.940704
vt 0.198242 0.926575
vt 0.204834 0.954285
vt 0.206909 0.911255
vt 0.206787 0.940369
vt 0.205933 0.926880
vt 0.212524 0.911621
vt 0.211426 0.926514
vt 0.218506 0.911926
vt 0.217896 0.926270
vt 0.212280 0.940338
vt 0.218140 0.940125
vt 0.224976 0.924561
vt 0.212769 0.953827
vt 0.224243 0.940186
vt 0.230713 0.923584
vt 0.221802 0.953674
vt 0.209106 0.955597
vt 0.218994 0.955292
vt 0.230347 0.953766
vt 0.228394 0.955414
vt 0.230103 0.940277
vt 0.236084 0.953888
vt 0.236084 0.918945
vt 0.235718 0.940338
vt 0.241333 0.896729
vt 0.241333 0.914185
vt 0.241089 0.954132
vt 0.249878 0.896790
vt 0.249878 0.892761
vt 0.259521 0.892761
vt 0.259766 0.896545
vt 0.259521 0.911865
vt 0.249390 0.911865
vt 0.259521 0.946991
vt 0.248413 0.939880
vt 0.259521 0.954376
vt 0.249023 0.954193
vt 0.259277 0.955383
vt 0.248901 0.955566
vt 0.238037 0.955566
vt 0.249512 0.958191
vt 0.257324 0.959839
vt 0.256836 0.963257
vt 0.251709 0.962982
vt 0.246460 0.962982
vt 0.241089 0.963013
vt 0.235474 0.958160
vt 0.235474 0.963013
vt 0.229980 0.962982
vt 0.222168 0.958221
vt 0.224243 0.962952
vt 0.218628 0.962921
vt 0.208618 0.958374
vt 0.212891 0.962891
vt 0.207153 0.962860
vt 0.201538 0.962891
vt 0.194214 0.955292
vt 0.196411 0.958374
vt 0.195801 0.962891
vt 0.190063 0.962921
vt 0.184204 0.955414
vt 0.186646 0.958252
vt 0.184326 0.962952
vt 0.833008 0.887390
vt 0.829102 0.888672
vt 0.833008 0.886841
vt 0.836426 0.888672
vt 0.829102 0.893005
vt 0.828125 0.889648
vt 0.828125 0.895630
vt 0.829102 0.898682
vt 0.828613 0.898560
vt 0.829590 0.899841
vt 0.830078 0.899231
vt 0.833496 0.899963
vt 0.833008 0.901306
vt 0.836914 0.899292
vt 0.835938 0.899170
vt 0.837891 0.893494
vt 0.837402 0.898560
vt 0.836914 0.894836
vt 0.837402 0.889648
vt 0.318115 0.863892
vt 0.323730 0.862671
vt 0.323730 0.863892
vt 0.318115 0.862671
vt 0.310547 0.863770
vt 0.318115 0.861816
vt 0.323730 0.861816
vt 0.323730 0.861206
vt 0.313232 0.862671
vt 0.318115 0.861206
vt 0.323730 0.860596
vt 0.318115 0.860596
vt 0.313232 0.861816
vt 0.313232 0.861206
vt 0.313232 0.860596
vt 0.308105 0.861816
vt 0.308105 0.861206
vt 0.308105 0.860596
vt 0.308105 0.862671
vt 0.303223 0.861816
vt 0.303223 0.861206
vt 0.303223 0.860596
vt 0.303223 0.862671
vt 0.303223 0.863892
vt 0.298340 0.861816
vt 0.298340 0.861206
vt 0.298340 0.860596
vt 0.298340 0.862671
vt 0.296143 0.863892
vt 0.293701 0.861816
vt 0.293701 0.861206
vt 0.293701 0.860596
vt 0.293701 0.862671
vt 0.288818 0.863892
vt 0.288818 0.861206
vt 0.288818 0.860596
vt 0.288818 0.861816
vt 0.284180 0.861206
vt 0.284180 0.860596
vt 0.288818 0.862671
vt 0.284180 0.861816
vt 0.279297 0.861206
vt 0.279297 0.860596
vt 0.274414 0.860596
vt 0.284180 0.862671
vt 0.281738 0.863892
vt 0.279297 0.861816
vt 0.279297 0.862671
vt 0.274414 0.863892
vt 0.274414 0.862671
vt 0.274414 0.861816
vt 0.269531 0.862671
vt 0.267090 0.863892
vt 0.274414 0.861206
vt 0.269531 0.860596
vt 0.269531 0.861816
vt 0.269531 0.861206
vt 0.264648 0.860596
vt 0.264648 0.862671
vt 0.258301 0.863770
vt 0.264648 0.861206
vt 0.260010 0.860596
vt 0.264648 0.861816
vt 0.260010 0.861206
vt 0.255127 0.860596
vt 0.260010 0.862671
vt 0.260010 0.861816
vt 0.255127 0.861206
vt 0.250244 0.860596
vt 0.255127 0.862671
vt 0.250244 0.863892
vt 0.255127 0.861816
vt 0.250244 0.861206
vt 0.245239 0.860596
vt 0.250244 0.862671
vt 0.250244 0.861816
vt 0.245239 0.861206
vt 0.240356 0.860596
vt 0.245239 0.861816
vt 0.245239 0.862671
vt 0.242676 0.863770
vt 0.240356 0.862671
vt 0.235596 0.863892
vt 0.235596 0.862671
vt 0.240356 0.861816
vt 0.235596 0.861816
vt 0.240356 0.861206
vt 0.235596 0.861206
vt 0.235596 0.860596
vt 0.700195 0.178711
vt 0.698730 0.163086
vt 0.702148 0.169922
vt 0.694824 0.165039
vt 0.694824 0.183105
vt 0.694824 0.161133
vt 0.691406 0.167969
vt 0.692871 0.158691
vt 0.687988 0.185059
vt 0.690918 0.159668
vt 0.684082 0.167969
vt 0.685547 0.158203
vt 0.681152 0.183105
vt 0.686035 0.159668
vt 0.681641 0.165039
vt 0.681152 0.160156
vt 0.675781 0.178711
vt 0.681641 0.161133
vt 0.675781 0.165039
vt 0.674316 0.171875
vt 0.651367 0.332520
vt 0.658203 0.325684
vt 0.656738 0.333496
vt 0.654297 0.337891
vt 0.650391 0.341309
vt 0.645508 0.343262
vt 0.654297 0.318848
vt 0.640137 0.343262
vt 0.646973 0.317383
vt 0.647949 0.313965
vt 0.640137 0.313477
vt 0.636719 0.328125
vt 0.635254 0.341309
vt 0.635254 0.315430
vt 0.631348 0.337891
vt 0.631348 0.318848
vt 0.628906 0.333496
vt 0.627441 0.325684
vt1 0.829590 0.353516
vt1 0.847656 0.352051
vt1 0.829590 0.360352
vt1 0.863770 0.362305
vt1 0.868164 0.356934
vt1 0.861816 0.379395
vt1 0.866211 0.388672
vt1 0.825195 0.374512
vt1 0.827148 0.388672
vt1 0.825195 0.405762
vt1 0.843262 0.419434
vt1 0.822754 0.413574
vt1 0.843750 0.412598
vt1 0.862305 0.408203
vt1 0.863770 0.416016
vt1 0.415039 0.791382
vt1 0.439697 0.791992
vt1 0.437744 0.797852
vt1 0.380615 0.792725
vt1 0.385986 0.798096
vt1 0.374268 0.813232
vt1 0.407227 0.795898
vt1 0.381592 0.812866
vt1 0.417480 0.831055
vt1 0.386963 0.828247
vt1 0.380615 0.833374
vt1 0.405273 0.834473
vt1 0.436768 0.833374
vt1 0.437988 0.827515
vt1 0.406494 0.833984
vt1 0.405029 0.792847
vt1 0.407471 0.796509
vt1 0.403809 0.829224
vt1 0.416992 0.830444
vt1 0.416748 0.797607
vt1 0.421143 0.831787
vt1 0.414551 0.792114
vt1 0.418213 0.795898
vt1 0.415283 0.793335
vt1 0.436768 0.796997
vt1 0.432129 0.799438
vt1 0.445312 0.811768
vt1 0.437256 0.812378
vt1 0.431885 0.826294
vt1 0.437012 0.828369
vt1 0.419434 0.827759
vt1 0.418213 0.831177
vt1 0.825195 0.175781
vt1 0.839355 0.164062
vt1 0.861328 0.162598
vt1 0.870605 0.186035
vt1 0.823730 0.216797
vt1 0.870605 0.212402
vt1 0.861328 0.234375
vt1 0.839844 0.233398
vt1 0.387207 0.828491
vt1 0.404541 0.828979
vt1 0.405518 0.831299
vt1 0.390869 0.826782
vt1 0.380859 0.812988
vt1 0.390381 0.800171
vt1 0.386230 0.798218
vt1 0.406006 0.793945
vt1 0.405762 0.797485
vt1 0.663574 0.580566
vt1 0.633301 0.571533
vt1 0.662598 0.571045
vt1 0.633789 0.580811
vt1 0.603027 0.571533
vt1 0.665039 0.585693
vt1 0.603516 0.580811
vt1 0.571777 0.571289
vt1 0.634766 0.584473
vt1 0.620117 0.588623
vt1 0.603516 0.584473
vt1 0.572266 0.580811
vt1 0.573730 0.586914
vt1 0.541016 0.580811
vt1 0.540039 0.571289
vt1 0.620605 0.596191
vt1 0.668945 0.594971
vt1 0.671387 0.605713
vt1 0.637207 0.606689
vt1 0.604492 0.606445
vt1 0.558105 0.595215
vt1 0.565918 0.606934
vt1 0.519531 0.607178
vt1 0.540527 0.587646
vt1 0.493652 0.596191
vt1 0.477539 0.606934
vt1 0.509766 0.584229
vt1 0.419434 0.603516
vt1 0.446777 0.606934
vt1 0.493164 0.588379
vt1 0.509766 0.580811
vt1 0.493408 0.572266
vt1 0.478760 0.584229
vt1 0.478760 0.580566
vt1 0.446777 0.571289
vt1 0.447510 0.586914
vt1 0.447510 0.580566
vt1 0.416504 0.580566
vt1 0.416016 0.571289
vt1 0.416504 0.584229
vt1 0.403564 0.588135
vt1 0.385254 0.584229
vt1 0.385254 0.580566
vt1 0.385254 0.571289
vt1 0.353027 0.586914
vt1 0.369873 0.595703
vt1 0.385010 0.608398
vt1 0.337402 0.607422
vt1 0.354248 0.580566
vt1 0.338867 0.572510
vt1 0.308105 0.595947
vt1 0.292725 0.606934
vt1 0.247070 0.605957
vt1 0.322998 0.584229
vt1 0.245972 0.596191
vt1 0.199707 0.606201
vt1 0.302734 0.588135
vt1 0.322998 0.580566
vt1 0.292725 0.571289
vt1 0.291992 0.584229
vt1 0.291992 0.580566
vt1 0.260986 0.580566
vt1 0.246704 0.572266
vt1 0.260742 0.584229
vt1 0.246704 0.588379
vt1 0.229858 0.580811
vt1 0.199829 0.571289
vt1 0.229858 0.584229
vt1 0.198853 0.580811
vt1 0.168701 0.571289
vt1 0.199585 0.587402
vt1 0.167969 0.580811
vt1 0.137573 0.580811
vt1 0.138184 0.571533
vt1 0.167603 0.584473
vt1 0.107910 0.580322
vt1 0.109070 0.571045
vt1 0.136841 0.584717
vt1 0.105347 0.585449
vt1 0.151123 0.588867
vt1 0.102783 0.594482
vt1 0.199219 0.595703
vt1 0.167358 0.606201
vt1 0.150269 0.595703
vt1 0.099976 0.605225
vt1 0.134399 0.606689
vt1 0.657227 0.102051
vt1 0.686035 0.100098
vt1 0.689453 0.119629
vt1 0.659668 0.130371
vt1 0.626953 0.102051
vt1 0.698242 0.145508
vt1 0.589844 0.129883
vt1 0.595703 0.102051
vt1 0.563477 0.102051
vt1 0.640625 0.145508
vt1 0.642090 0.152832
vt1 0.700195 0.151367
vt1 0.699707 0.194824
vt1 0.585938 0.145508
vt1 0.643555 0.238770
vt1 0.701172 0.394043
vt1 0.599121 0.154297
vt1 0.597168 0.260254
vt1 0.643066 0.397949
vt1 0.702148 0.481445
vt1 0.640137 0.480469
vt1 0.701172 0.503906
vt1 0.660645 0.505127
vt1 0.629883 0.504395
vt1 0.598633 0.394043
vt1 0.580078 0.481445
vt1 0.596191 0.504395
vt1 0.551270 0.502930
vt1 0.504395 0.502930
vt1 0.566406 0.362305
vt1 0.566406 0.231934
vt1 0.531250 0.394043
vt1 0.544434 0.155273
vt1 0.528809 0.310547
vt1 0.531250 0.231445
vt1 0.531250 0.480957
vt1 0.497314 0.394531
vt1 0.479736 0.483398
vt1 0.450195 0.479492
vt1 0.465332 0.503906
vt1 0.432617 0.503662
vt1 0.447754 0.396484
vt1 0.396973 0.479980
vt1 0.400146 0.503418
vt1 0.367676 0.502930
vt1 0.493164 0.310059
vt1 0.365967 0.479980
vt1 0.335205 0.502930
vt1 0.495117 0.230469
vt1 0.312744 0.478516
vt1 0.302734 0.503418
vt1 0.482910 0.155273
vt1 0.255371 0.480957
vt1 0.253906 0.503174
vt1 0.206055 0.504639
vt1 0.451172 0.229492
vt1 0.451416 0.310547
vt1 0.414062 0.151855
vt1 0.402100 0.397949
vt1 0.402344 0.231445
vt1 0.407471 0.308594
vt1 0.369873 0.395996
vt1 0.375977 0.310547
vt1 0.335693 0.394043
vt1 0.339111 0.312012
vt1 0.371094 0.231934
vt1 0.337402 0.232910
vt1 0.298340 0.321777
vt1 0.368164 0.154785
vt1 0.302734 0.232422
vt1 0.266113 0.327637
vt1 0.316895 0.155273
vt1 0.389404 0.144531
vt1 0.333008 0.145996
vt1 0.268066 0.154785
vt1 0.279297 0.145508
vt1 0.269287 0.231934
vt1 0.234985 0.154297
vt1 0.235352 0.354004
vt1 0.237305 0.231445
vt1 0.205078 0.481445
vt1 0.205444 0.381348
vt1 0.206299 0.152832
vt1 0.156372 0.480957
vt1 0.156616 0.503906
vt1 0.101135 0.503662
vt1 0.099976 0.482422
vt1 0.100220 0.394531
vt1 0.158936 0.394531
vt1 0.101013 0.193848
vt1 0.164795 0.234375
vt1 0.101135 0.151367
vt1 0.160889 0.152344
vt1 0.102905 0.145996
vt1 0.161743 0.144531
vt1 0.223999 0.144531
vt1 0.158447 0.129883
vt1 0.112854 0.120117
vt1 0.116272 0.100586
vt1 0.145142 0.102051
vt1 0.175537 0.102051
vt1 0.206787 0.102051
vt1 0.238647 0.129883
vt1 0.238403 0.102051
vt1 0.270264 0.102051
vt1 0.314697 0.129395
vt1 0.302490 0.102539
vt1 0.335205 0.102539
vt1 0.392334 0.128418
vt1 0.367676 0.103027
vt1 0.400391 0.103027
vt1 0.432861 0.103027
vt1 0.474121 0.145996
vt1 0.461914 0.128418
vt1 0.465332 0.103027
vt1 0.498291 0.102539
vt1 0.531250 0.145508
vt1 0.517578 0.129395
vt1 0.530762 0.102539
vt1 0.374023 0.813232
vt1 0.381104 0.833496
vt1 0.371094 0.812988
vt1 0.381104 0.792725
vt1 0.405029 0.835693
vt1 0.386719 0.838623
vt1 0.419922 0.840088
vt1 0.436768 0.833252
vt1 0.436035 0.838013
vt1 0.443115 0.832886
vt1 0.439941 0.828003
vt1 0.444092 0.810913
vt1 0.451172 0.812744
vt1 0.440430 0.791260
vt1 0.439697 0.797363
vt1 0.407959 0.785278
vt1 0.436035 0.787842
vt1 0.415283 0.789795
vt1 0.386475 0.787354
vt1 0.558105 0.688232
vt1 0.588379 0.681641
vt1 0.588379 0.688232
vt1 0.558105 0.681641
vt1 0.516113 0.687744
vt1 0.558105 0.676758
vt1 0.588379 0.676758
vt1 0.588379 0.673096
vt1 0.530762 0.681641
vt1 0.558105 0.673096
vt1 0.588379 0.670166
vt1 0.558105 0.670166
vt1 0.530762 0.676758
vt1 0.530762 0.673096
vt1 0.530762 0.670166
vt1 0.502930 0.676758
vt1 0.502930 0.673096
vt1 0.502930 0.670166
vt1 0.502930 0.681641
vt1 0.475586 0.676758
vt1 0.475586 0.673096
vt1 0.475586 0.670166
vt1 0.475586 0.681641
vt1 0.475586 0.688232
vt1 0.448730 0.676758
vt1 0.448730 0.673096
vt1 0.448730 0.670166
vt1 0.448730 0.681641
vt1 0.435791 0.687988
vt1 0.422363 0.676758
vt1 0.422363 0.673096
vt1 0.422363 0.670166
vt1 0.422363 0.681641
vt1 0.395996 0.688232
vt1 0.395996 0.673096
vt1 0.395996 0.670166
vt1 0.395996 0.676758
vt1 0.369141 0.673096
vt1 0.369141 0.670166
vt1 0.395996 0.681641
vt1 0.369141 0.676758
vt1 0.342041 0.673096
vt1 0.342041 0.670166
vt1 0.315186 0.670166
vt1 0.369141 0.681641
vt1 0.355957 0.688232
vt1 0.342041 0.676758
vt1 0.342041 0.681641
vt1 0.315186 0.688232
vt1 0.315186 0.681641
vt1 0.315186 0.676758
vt1 0.288330 0.681641
vt1 0.274902 0.687988
vt1 0.315186 0.673096
vt1 0.288330 0.670166
vt1 0.288330 0.676758
vt1 0.288330 0.673096
vt1 0.261963 0.670166
vt1 0.261963 0.681641
vt1 0.225830 0.687500
vt1 0.261963 0.673096
vt1 0.235474 0.670166
vt1 0.261963 0.676758
vt1 0.235474 0.673096
vt1 0.208618 0.670166
vt1 0.235474 0.681641
vt1 0.235474 0.676758
vt1 0.208618 0.673096
vt1 0.181396 0.670166
vt1 0.208618 0.681641
vt1 0.181396 0.688232
vt1 0.208618 0.676758
vt1 0.181396 0.673096
vt1 0.153809 0.670166
vt1 0.181396 0.681641
vt1 0.181396 0.676758
vt1 0.153809 0.673096
vt1 0.126221 0.670166
vt1 0.153809 0.676758
vt1 0.153809 0.681641
vt1 0.139648 0.687256
vt1 0.126221 0.681641
vt1 0.099976 0.688232
vt1 0.099976 0.681641
vt1 0.126221 0.676758
vt1 0.099976 0.676758
vt1 0.126221 0.673096
vt1 0.099976 0.673096
vt1 0.099976 0.670166
vt1 0.112915 0.881104
vt1 0.191650 0.915771
vt1 0.148193 0.913391
vt1 0.192993 0.891724
vt1 0.105591 0.842896
vt1 0.212158 0.903137
vt1 0.187378 0.867920
vt1 0.229248 0.900574
vt1 0.114746 0.803833
vt1 0.231445 0.887756
vt1 0.210083 0.832397
vt1 0.250732 0.867432
vt1 0.143677 0.776855
vt1 0.244873 0.864746
vt1 0.228760 0.828125
vt1 0.254883 0.841187
vt1 0.180542 0.764038
vt1 0.249146 0.839111
vt1 0.246216 0.801392
vt1 0.216797 0.775391
vt1 0.715332 0.849487
vt1 0.730957 0.900696
vt1 0.696289 0.873169
vt1 0.681641 0.847900
vt1 0.675781 0.818726
vt1 0.680664 0.790039
vt1 0.774414 0.901917
vt1 0.695312 0.764648
vt1 0.800781 0.869141
vt1 0.815430 0.885071
vt1 0.838867 0.847656
vt1 0.778320 0.790649
vt1 0.718262 0.746094
vt1 0.843750 0.818726
vt1 0.746094 0.736328
vt1 0.839355 0.790405
vt1 0.775391 0.736572
vt1 0.816406 0.752686
vn 0.000000 -0.480315 0.874016
vn 0.000000 -0.433071 0.905512
vn -0.007874 -0.535433 0.842520
vn 0.015748 -0.535433 0.842520
vn 0.000000 -0.488189 0.874016
vn 0.023622 -0.755905 0.653543
vn 0.023622 -0.811023 0.582677
vn -0.015748 -0.732283 0.685039
vn -0.023622 -0.842520 0.535433
vn -0.015748 -0.952756 0.307087
vn 0.000000 -0.976378 0.212599
vn 0.000000 -0.960630 0.275591
vn 0.000000 -0.976378 0.220473
vn 0.015748 -0.944882 0.322835
vn 0.000000 -0.960630 0.275591
vn -0.031496 0.763779 -0.645669
vn -0.007874 0.488189 -0.874016
vn 0.000000 0.472441 -0.881890
vn 0.000000 0.960630 -0.267717
vn -0.007874 0.960630 -0.283465
vn 0.000000 0.976378 -0.220473
vn -0.023622 0.811023 -0.590551
vn 0.000000 0.976378 -0.220473
vn 0.015748 0.748031 -0.669291
vn 0.007874 0.960630 -0.283465
vn 0.000000 0.960630 -0.267717
vn 0.023622 0.834646 -0.543307
vn 0.007874 0.519685 -0.850394
vn 0.000000 0.472441 -0.881890
vn 0.330709 -0.637795 -0.700787
vn -0.267717 -0.653543 -0.708661
vn -0.212598 -0.661417 -0.716535
vn 0.291339 -0.645669 -0.708661
vn 0.275591 0.732283 0.622047
vn -0.204724 0.732283 0.645669
vn 0.330709 0.724409 0.606299
vn -0.267717 0.724409 0.637795
vn -0.984252 0.165354 0.102362
vn -0.944882 0.267717 0.188976
vn -0.811024 -0.527559 -0.259842
vn -0.803150 -0.535433 -0.259842
vn -0.062992 -0.929134 -0.370079
vn 0.000000 -0.929134 -0.370079
vn 0.811024 -0.527559 -0.259842
vn 0.795276 -0.543307 -0.267716
vn 0.992126 0.062992 0.062992
vn 0.976378 0.181102 0.141732
vn 0.000000 0.992126 -0.094488
vn 0.000000 0.992126 -0.094488
vn 0.000000 0.992126 -0.094488
vn 0.000000 0.992126 -0.094488
vn 0.000000 0.992126 -0.094488
vn 0.000000 0.992126 -0.094488
vn 0.000000 0.992126 -0.094488
vn 0.000000 0.992126 -0.094488
vn 0.834646 0.259843 0.480315
vn 0.984252 -0.110236 -0.141732
vn 0.968504 -0.165354 -0.188976
vn 0.818898 0.259843 0.511811
vn -0.015748 0.377953 0.921260
vn -0.874016 0.228346 0.433071
vn -0.787402 0.275591 0.551181
vn -0.984252 -0.102362 -0.157480
vn -0.960630 -0.157480 -0.212598
vn -0.094488 -0.897638 0.433071
vn 0.165354 -0.401575 0.897638
vn -0.165354 -0.401575 0.897638
vn 0.094488 -0.897638 0.433071
vn 0.480315 -0.393701 0.779527
vn 0.133858 -0.456693 -0.881890
vn 0.275591 -0.889764 0.377953
vn 0.740157 -0.362205 0.574803
vn -0.118110 -0.677165 -0.724409
vn -0.299213 -0.401575 -0.866142
vn -0.330709 -0.685039 -0.645669
vn 0.417323 -0.874016 0.267717
vn -0.653543 -0.464567 -0.598425
vn 0.511811 -0.850394 0.125984
vn 0.905512 -0.307087 0.291339
vn -0.220472 -0.692913 -0.685039
vn 0.110236 -0.700787 -0.708661
vn 0.094488 -0.763779 -0.637795
vn -0.094488 -0.763779 -0.637795
vn -0.283465 -0.771653 -0.566929
vn -0.574803 -0.708661 -0.409449
vn -0.464567 -0.787401 -0.409449
vn -0.574803 -0.811023 -0.118110
vn -0.811024 -0.480315 -0.330709
vn -0.637795 -0.763779 0.070866
vn -0.527559 -0.834646 0.165354
vn -0.645669 -0.763779 -0.062992
vn -0.291339 -0.826771 0.472441
vn -0.425197 -0.834646 0.346457
vn -0.842520 -0.527559 0.133858
vn 0.566929 -0.826772 -0.047244
vn 0.937008 -0.299213 -0.173228
vn -0.598425 -0.787401 0.173228
vn 0.543307 -0.803149 -0.228346
vn 0.748031 -0.157480 -0.645669
vn -0.629921 -0.590551 0.503937
vn 0.456693 -0.795276 -0.401575
vn 0.299213 -0.787401 -0.535433
vn 0.488189 -0.149606 -0.858268
vn -0.307087 -0.795275 0.519685
vn -0.307087 -0.543307 0.779527
vn -0.110236 -0.795275 0.598425
vn 0.102362 -0.795276 -0.598425
vn 0.165354 -0.157480 -0.976378
vn 0.149606 -0.574803 0.803150
vn 0.000000 -0.771653 0.637795
vn -0.094488 -0.826771 0.551181
vn 0.196850 -0.826771 0.527559
vn -0.102362 -0.795276 -0.598425
vn -0.338583 -0.244095 -0.905512
vn 0.409449 -0.771653 0.488189
vn 0.425197 -0.834646 0.346457
vn 0.574803 -0.818897 0.062992
vn 0.307087 -0.795275 0.519685
vn 0.637795 -0.763779 0.070866
vn 0.543307 -0.795276 -0.259842
vn 0.574803 -0.551181 0.606299
vn -0.299213 -0.787401 -0.535433
vn -0.748031 -0.157480 -0.645669
vn 0.480315 -0.795275 0.370079
vn -0.456693 -0.795276 -0.401575
vn -0.543307 -0.803149 -0.228346
vn -0.937008 -0.291339 -0.181102
vn 0.598425 -0.787401 0.173228
vn 0.842520 -0.527559 0.133858
vn -0.566929 -0.826772 -0.047244
vn -0.905512 -0.307087 0.291339
vn 0.645669 -0.763779 -0.062992
vn -0.511811 -0.850394 0.125984
vn -0.740157 -0.362205 0.574803
vn 0.811024 -0.488189 -0.330709
vn -0.417323 -0.874016 0.267717
vn -0.275591 -0.889764 0.377953
vn -0.480315 -0.393701 0.779527
vn 0.503937 -0.700787 -0.496063
vn -0.094488 -0.897638 0.433071
vn -0.165354 -0.401575 0.897638
vn 0.330709 -0.685039 -0.645669
vn 0.133858 -0.472441 -0.874016
vn 0.566929 -0.393701 -0.724409
vn 0.110236 -0.700787 -0.708661
vn 0.622047 -0.732283 -0.283464
vn 0.440945 -0.779527 -0.440945
vn 0.425197 -0.692913 -0.582677
vn 0.094488 -0.763779 -0.637795
vn 0.283465 -0.771653 -0.566929
vn -0.456693 0.322835 0.826771
vn -0.157480 0.314961 0.937008
vn -0.125984 0.614173 0.779527
vn -0.362205 0.692913 0.622047
vn -0.724409 0.314961 0.614173
vn -0.125984 0.535433 0.834646
vn -0.708661 0.685039 0.149606
vn -0.905512 0.291339 0.307087
vn -0.968504 0.244094 -0.031496
vn -0.496063 0.653543 0.566929
vn -0.598425 0.141732 0.787401
vn -0.141732 0.118110 0.984252
vn -0.133858 0.047244 0.992126
vn -0.748031 0.653543 0.118110
vn -0.559055 0.015748 0.826772
vn -0.141732 -0.015748 0.992126
vn -0.921260 0.133858 0.377953
vn -0.929134 -0.007874 0.362205
vn -0.606299 -0.039370 0.795275
vn -0.157480 -0.118110 0.984252
vn -0.653543 -0.141732 0.740157
vn -0.133858 -0.535433 0.834646
vn -0.425197 -0.582677 0.692913
vn -0.622047 -0.590551 0.519685
vn -0.929134 -0.023622 0.362205
vn -0.984252 -0.118110 0.157480
vn -0.771654 -0.582677 0.251969
vn -0.842520 -0.511811 -0.157480
vn -0.692913 -0.488189 -0.535433
vn -1.000000 0.023622 -0.086614
vn -1.000000 -0.031496 -0.047244
vn -0.874016 0.133858 -0.472441
vn -0.968504 0.055118 -0.251968
vn -0.834646 -0.000000 -0.551181
vn -0.874016 -0.118110 -0.464567
vn -0.929134 -0.000000 -0.377953
vn -0.645669 0.236220 -0.724409
vn -0.629921 0.086614 -0.771653
vn -0.377953 0.102362 -0.921260
vn -0.425197 -0.488189 -0.763779
vn -0.149606 -0.488189 -0.858268
vn -0.314961 0.354331 -0.881890
vn 0.173228 0.047244 -0.984252
vn 0.149606 -0.488189 -0.858268
vn 0.425197 -0.488189 -0.763779
vn -0.535433 0.023622 -0.842520
vn 0.511811 0.015748 -0.858268
vn 0.645669 -0.488189 -0.582677
vn -0.590551 -0.220472 -0.779527
vn 0.897638 -0.023622 -0.440945
vn 0.787402 -0.511811 -0.330709
vn -0.614173 -0.110236 -0.779527
vn 0.984252 -0.118110 0.149606
vn 0.826772 -0.543307 0.118110
vn 0.622047 -0.590551 0.519685
vn -0.228346 -0.330709 -0.913386
vn -0.236220 0.094488 -0.968504
vn 0.015748 -0.204724 -0.976378
vn 0.000000 0.330709 -0.944882
vn -0.039370 -0.322835 -0.944882
vn -0.141732 0.133858 -0.984252
vn 0.354331 0.236220 -0.905512
vn 0.157480 0.141732 -0.976378
vn 0.724409 0.118110 -0.677165
vn 0.661417 0.125984 -0.740157
vn 0.291339 -0.228347 -0.929134
vn 0.716535 -0.102362 -0.692913
vn 0.929134 0.102362 -0.346457
vn 0.488189 -0.141732 -0.858268
vn 0.913386 -0.031496 -0.401575
vn 1.000000 0.055118 -0.015748
vn 0.874016 -0.078740 -0.488189
vn 0.236220 0.590551 -0.771653
vn 0.629921 0.582677 -0.519685
vn 1.000000 0.031496 -0.047244
vn 0.779528 0.614173 -0.141732
vn 0.992126 -0.007874 -0.086614
vn 0.921260 0.118110 0.370079
vn 0.929134 0.007874 0.370079
vn 0.944882 0.015748 0.338583
vn 0.732283 -0.149606 0.669291
vn 0.708661 -0.023622 0.700787
vn 0.708661 0.110236 0.692913
vn 0.314961 -0.125984 0.944882
vn 0.283465 -0.551181 0.787401
vn -0.141732 -0.535433 0.834646
vn -0.157480 -0.118110 0.984252
vn -0.141732 -0.015748 0.992126
vn 0.299213 -0.023622 0.952756
vn -0.133858 0.031496 0.992126
vn 0.322835 0.023622 0.944882
vn -0.141732 0.118110 0.984252
vn 0.314961 0.118110 0.937008
vn -0.133858 0.543307 0.826771
vn 0.275591 0.622047 0.732283
vn 0.661417 0.669291 0.338583
vn 0.244094 0.669291 0.700787
vn -0.133858 0.622047 0.771653
vn -0.157480 0.314961 0.937008
vn 0.157480 0.314961 0.937008
vn 0.456693 0.322835 0.826771
vn 0.724409 0.314961 0.614173
vn 0.692913 0.692913 0.196850
vn 0.905512 0.291339 0.307087
vn 0.968504 0.244094 -0.031496
vn 0.653543 0.637795 -0.401575
vn 0.913386 0.188976 -0.354331
vn 0.755906 0.149606 -0.637795
vn 0.204724 0.629921 -0.748031
vn 0.503937 0.133858 -0.858268
vn 0.173228 0.125984 -0.976378
vn -0.173228 0.125984 -0.976378
vn -0.472441 0.598425 -0.645669
vn -0.354331 0.637795 -0.685039
vn -0.503937 0.133858 -0.858268
vn -0.755906 0.149606 -0.637795
vn -0.732283 0.606299 -0.307087
vn -0.653543 0.637795 -0.409449
vn -0.913386 0.188976 -0.354331
vn -0.007874 -0.338583 -0.944882
vn -0.755906 -0.251969 -0.598425
vn 0.007874 -0.338583 -0.937008
vn 0.763780 -0.251969 -0.590551
vn -1.000000 -0.031496 -0.047244
vn -0.992126 -0.078740 -0.110236
vn -1.000000 0.047244 0.039370
vn -0.968504 0.236220 0.110236
vn -0.976378 0.181102 0.086614
vn -0.527559 0.787401 0.314961
vn -0.440945 0.834646 0.330709
vn 0.007874 0.937008 0.346457
vn 0.000000 0.937008 0.346457
vn 0.811024 0.543307 0.228346
vn 0.448819 0.834646 0.330709
vn 1.000000 -0.039370 -0.007874
vn 0.976378 0.196850 0.094488
vn 1.000000 0.015748 0.023622
vn 0.992126 -0.078740 -0.094488
vn 0.503937 0.267717 0.818897
vn 0.110236 0.850394 0.519685
vn 0.181102 0.283465 0.944882
vn 0.307087 0.842520 0.448819
vn 0.850394 0.259843 0.456693
vn -0.362205 0.637795 -0.677165
vn -0.125984 0.629921 -0.763779
vn -0.141732 -0.677165 -0.716535
vn 0.472441 0.818898 0.314961
vn -0.409449 -0.669291 -0.622047
vn -0.023622 -1.000000 -0.015748
vn -0.055118 -1.000000 0.000000
vn -0.543307 0.661417 -0.519685
vn -0.614173 -0.653543 -0.440945
vn -0.094488 -0.992126 0.023622
vn -0.653543 0.685039 -0.314961
vn -0.755906 -0.622047 -0.204724
vn -0.110236 -0.992126 0.055118
vn 0.590551 0.795275 0.141732
vn -0.692913 0.716535 -0.078740
vn -0.811024 -0.582677 0.062992
vn -0.125984 -0.984252 0.102362
vn 0.637795 0.763779 -0.070866
vn 0.992126 0.110236 -0.023622
vn -0.645669 0.748031 0.157480
vn -0.763780 -0.543307 0.346457
vn -0.118110 -0.984252 0.141732
vn 0.606299 0.732283 -0.299213
vn 0.858268 0.062992 -0.511811
vn -0.519685 0.771653 0.370079
vn -0.614173 -0.511811 0.598425
vn -0.094488 -0.976378 0.188976
vn 0.488189 0.708661 -0.503937
vn 0.480315 -0.000000 -0.881890
vn -0.393701 -0.503937 0.771653
vn -0.062992 -0.976378 0.220473
vn -0.330709 0.787401 0.519685
vn -0.133858 -0.496063 0.858268
vn -0.023622 -0.968504 0.236221
vn 0.314961 0.692913 -0.645669
vn -0.110236 0.795276 0.598425
vn 0.133858 -0.496063 0.858268
vn 0.023622 -0.968504 0.236221
vn 0.062992 -0.976378 0.220473
vn 0.110236 0.692913 -0.716535
vn -0.007874 0.015748 -1.000000
vn 0.110236 0.795276 0.598425
vn -0.110236 0.692913 -0.716535
vn -0.480315 -0.000000 -0.881890
vn -0.314961 0.692913 -0.645669
vn 0.330709 0.787401 0.519685
vn -0.488189 0.708661 -0.503937
vn -0.858268 0.062992 -0.511811
vn 0.393701 -0.503937 0.771653
vn 0.094488 -0.976378 0.188976
vn 0.519685 0.771653 0.370079
vn 0.614173 -0.511811 0.598425
vn 0.118110 -0.984252 0.141732
vn -0.606299 0.732283 -0.299213
vn -0.968504 0.228346 0.102362
vn 0.763780 -0.543307 0.346457
vn 0.125984 -0.984252 0.102362
vn 0.645669 0.748031 0.157480
vn 0.811024 -0.582677 0.062992
vn 0.110236 -0.992126 0.055118
vn -0.637795 0.763779 -0.070866
vn 0.692913 0.716535 -0.078740
vn 0.755906 -0.622047 -0.204724
vn 0.094488 -0.992126 0.023622
vn -0.590551 0.795275 0.141732
vn -0.763780 0.228346 0.598425
vn 0.653543 0.685039 -0.314961
vn 0.614173 -0.653543 -0.440945
vn 0.055118 -1.000000 -0.007874
vn -0.472441 0.818898 0.314961
vn 0.543307 0.661417 -0.519685
vn 0.409449 -0.669291 -0.622047
vn 0.023622 -1.000000 -0.015748
vn 0.362205 0.637795 -0.677165
vn -0.307087 0.842520 0.448819
vn -0.354331 0.370079 0.858268
vn -0.110236 0.850394 0.519685
vn 0.181102 0.283465 0.944882
vn 0.110236 0.850394 0.519685
vn 0.125984 0.629921 -0.763779
vn -0.125984 0.629921 -0.763779
vn 0.141732 -0.677165 -0.716535
vn -0.141732 -0.677165 -0.716535
vn -0.023622 -1.000000 -0.015748
vn 0.000000 0.992126 -0.094488
vn 0.000000 0.992126 -0.094488
vn 0.007874 0.992126 -0.094488
vn -0.007874 0.992126 -0.094488
vn 0.000000 0.992126 -0.102362
vn -0.007874 0.992126 -0.094488
vn 0.000000 0.992126 -0.102362
vn -0.007874 1.000000 -0.078740
vn 0.000000 0.992126 -0.102362
vn 0.000000 1.000000 -0.078740
vn 0.000000 0.992126 -0.102362
vn 0.000000 1.000000 -0.078740
vn 0.000000 0.992126 -0.102362
vn 0.000000 1.000000 -0.078740
vn 0.000000 0.992126 -0.094488
vn 0.007874 1.000000 -0.086614
vn 0.000000 0.992126 -0.094488
vn 0.007874 0.992126 -0.094488
vn 0.000000 0.992126 -0.094488
vn -0.007874 0.992126 -0.094488
vn -0.259843 -0.960630 0.078740
vn -0.433071 -0.889764 -0.125984
vn -0.393701 -0.913386 0.070866
vn -0.314961 -0.929134 0.181102
vn -0.204724 -0.944882 0.259843
vn -0.070866 -0.952756 0.299213
vn -0.338583 -0.881890 -0.322834
vn 0.070866 -0.952756 0.299213
vn -0.141732 -0.905512 -0.393701
vn -0.157480 -0.874016 -0.456693
vn 0.078740 -0.881890 -0.472441
vn 0.196850 -0.976378 -0.047244
vn 0.204724 -0.944882 0.259843
vn 0.228346 -0.881890 -0.417323
vn 0.314961 -0.929134 0.181102
vn 0.338583 -0.881890 -0.322834
vn 0.393701 -0.913386 0.070866
vn 0.433071 -0.889764 -0.125984
tan 0.013764 -0.874016 -0.480315 1.000000
tan 0.000000 -0.905512 -0.433071 1.000000
tan 0.006634 -0.842520 -0.535371 1.000000
tan -0.006634 -0.842520 -0.535309 1.000000
tan -0.013764 -0.874016 -0.488189 1.000000
tan 0.000000 -0.653543 -0.755905 1.000000
tan 0.000000 -0.582677 -0.811023 1.000000
tan 0.000000 -0.685039 -0.732283 1.000000
tan 0.006634 -0.535619 -0.842520 1.000000
tan -0.007502 -0.306963 -0.952756 1.000000
tan 0.000000 -0.212599 -0.976378 1.000000
tan -0.007564 -0.275591 -0.960630 1.000000
tan 0.000000 -0.220473 -0.976378 1.000000
tan 0.007440 -0.322711 -0.944882 1.000000
tan 0.007564 -0.275591 -0.960630 1.000000
tan 0.000000 -0.645669 -0.763779 1.000000
tan 0.006882 -0.874016 -0.488251 1.000000
tan 0.034720 -0.881890 -0.472441 1.000000
tan -0.007564 -0.267717 -0.960630 1.000000
tan -0.022692 -0.283651 -0.960630 1.000000
tan 0.000000 -0.220473 -0.976378 1.000000
tan 0.000000 -0.590551 -0.811023 1.000000
tan 0.007688 -0.220473 -0.976378 1.000000
tan 0.005890 -0.669415 -0.748031 1.000000
tan 0.030256 -0.283713 -0.960630 1.000000
tan 0.007564 -0.267717 -0.960630 1.000000
tan 0.000000 -0.543307 -0.834646 1.000000
tan 0.000000 -0.850394 -0.519685 1.000000
tan -0.027776 -0.881890 -0.472441 1.000000
tan -0.041168 -0.716411 0.632587 1.000000
tan 0.015872 -0.712877 0.651435 1.000000
tan 0.037324 -0.724905 0.658069 1.000000
tan -0.046252 -0.727013 0.643375 1.000000
tan 0.040920 0.617707 -0.745304 1.000000
tan -0.010850 0.644057 -0.733895 1.000000
tan 0.024800 0.603695 -0.734825 1.000000
tan -0.010726 0.635687 -0.726517 1.000000
tan -0.161200 -0.403001 -0.899002 1.000000
tan -0.239320 -0.193440 -0.922562 1.000000
tan 0.521421 -0.817162 0.031620 1.000000
tan 0.533387 -0.807241 0.014756 1.000000
tan 0.043896 -0.373055 0.929134 1.000000
tan 0.021948 -0.370079 0.929134 1.000000
tan -0.523467 -0.813069 0.016926 1.000000
tan -0.532767 -0.803707 0.048422 1.000000
tan 0.086800 -0.539029 -0.828074 1.000000
tan 0.193812 -0.322897 -0.922562 1.000000
tan 0.000000 -0.094488 -0.992126 1.000000
tan 0.000000 -0.094488 -0.992126 1.000000
tan 0.000000 -0.094488 -0.992126 1.000000
tan 0.000000 -0.094488 -0.992126 1.000000
tan 0.000000 -0.094488 -0.992126 1.000000
tan 0.000000 -0.094488 -0.992126 1.000000
tan 0.000000 -0.094488 -0.992126 1.000000
tan 0.000000 -0.094488 -0.992126 1.000000
tan 0.441751 0.138198 -0.842396 1.000000
tan -0.165540 -0.860252 -0.480501 1.000000
tan -0.244218 -0.785479 -0.564325 1.000000
tan 0.503627 0.045942 -0.829127 1.000000
tan -0.007254 0.921260 -0.378077 1.000000
tan -0.422283 0.044702 -0.875814 1.000000
tan -0.512121 0.156240 -0.809721 1.000000
tan 0.176886 -0.782752 -0.596751 1.000000
tan 0.215760 -0.907682 -0.302560 1.000000
tan 0.021452 -0.436047 -0.899126 1.000000
tan -0.001674 -0.904148 -0.404179 1.000000
tan -0.050964 -0.902846 -0.413293 1.000000
tan -0.127224 -0.443053 -0.890570 1.000000
tan -0.062496 -0.884990 -0.408457 1.000000
tan -0.045012 0.882944 -0.464071 1.000000
tan -0.414409 -0.463513 -0.789013 1.000000
tan -0.250357 -0.921694 -0.258416 1.000000
tan -0.070060 0.734639 -0.675305 1.000000
tan -0.036766 0.873210 -0.392151 1.000000
tan -0.257673 0.719573 -0.631471 1.000000
tan -0.688759 -0.494203 -0.539773 1.000000
tan -0.442743 0.874016 -0.194990 1.000000
tan -0.813938 -0.525389 -0.239754 1.000000
tan -0.281729 -0.919028 -0.093062 1.000000
tan -0.070866 0.700477 -0.685721 1.000000
tan -0.016988 0.712133 -0.706863 1.000000
tan -0.007068 0.640027 -0.767499 1.000000
tan -0.089218 0.643189 -0.757021 1.000000
tan -0.317193 0.633889 -0.704197 1.000000
tan -0.671337 0.682373 -0.238577 1.000000
tan -0.663649 0.613429 -0.426685 1.000000
tan -0.811954 0.581313 -0.040176 1.000000
tan -0.501147 0.829252 0.024614 1.000000
tan -0.763222 0.641701 0.047120 1.000000
tan -0.799182 0.551057 0.231756 1.000000
tan -0.765764 0.646165 0.014322 1.000000
tan -0.312481 0.545353 0.761671 1.000000
tan -0.647901 0.546965 0.522537 1.000000
tan -0.523343 0.843574 0.030690 1.000000
tan -0.827888 -0.566557 -0.019902 1.000000
tan -0.307397 -0.937008 -0.044268 1.000000
tan -0.766074 0.623845 0.189224 1.000000
tan -0.781450 -0.583731 0.193812 1.000000
tan -0.161944 -0.980222 0.051460 1.000000
tan -0.504247 0.796578 0.303180 1.000000
tan -0.632525 -0.606237 0.481245 1.000000
tan -0.332817 -0.613925 0.716845 1.000000
tan -0.041788 -0.937008 0.139562 1.000000
tan -0.334057 0.601153 0.722549 1.000000
tan -0.038502 0.801289 0.543307 1.000000
tan -0.087668 0.605865 0.789013 1.000000
tan -0.087668 -0.604997 0.789014 1.000000
tan -0.001240 -0.977680 0.157480 1.000000
tan 0.013578 0.806684 0.574803 1.000000
tan 0.000000 0.637795 0.771653 1.000000
tan -0.065100 0.558621 0.826771 1.000000
tan 0.169260 0.555397 0.807241 1.000000
tan 0.087668 -0.604997 0.789014 1.000000
tan 0.009052 -0.908178 0.241429 1.000000
tan 0.437473 0.635749 0.637981 1.000000
tan 0.647901 0.546965 0.522537 1.000000
tan 0.818402 0.579267 0.062558 1.000000
tan 0.334057 0.601153 0.722549 1.000000
tan 0.763222 0.641701 0.047120 1.000000
tan 0.778412 0.591667 -0.183272 1.000000
tan 0.341559 0.834212 0.434559 1.000000
tan 0.332817 -0.613925 0.716845 1.000000
tan 0.161944 -0.980222 0.051460 1.000000
tan 0.632897 0.607229 0.483477 1.000000
tan 0.632525 -0.606237 0.481245 1.000000
tan 0.781450 -0.583731 0.193812 1.000000
tan 0.299895 -0.937008 -0.044268 1.000000
tan 0.766074 0.623845 0.189224 1.000000
tan 0.523343 0.843574 0.030690 1.000000
tan 0.827888 -0.566557 -0.019902 1.000000
tan 0.281729 -0.919028 -0.093062 1.000000
tan 0.765764 0.646165 0.014322 1.000000
tan 0.813938 -0.525389 -0.239754 1.000000
tan 0.250357 -0.921694 -0.258416 1.000000
tan 0.506417 0.829252 0.017794 1.000000
tan 0.688759 -0.494203 -0.539773 1.000000
tan 0.421415 -0.465683 -0.789013 1.000000
tan 0.068634 -0.884990 -0.404675 1.000000
tan 0.558683 0.705189 -0.428669 1.000000
tan 0.243722 -0.441317 -0.861554 1.000000
tan 0.058218 -0.904148 -0.393763 1.000000
tan 0.268151 0.722177 -0.628867 1.000000
tan 0.076260 0.876124 -0.461901 1.000000
tan 0.240560 0.884866 -0.292641 1.000000
tan 0.166160 0.714861 -0.681071 1.000000
tan 0.720379 0.669415 -0.148490 1.000000
tan 0.615413 0.621489 -0.483291 1.000000
tan 0.346581 0.713497 -0.595573 1.000000
tan 0.190526 0.641329 -0.739785 1.000000
tan 0.333809 0.633889 -0.695889 1.000000
tan -0.062124 -0.904334 0.318805 1.000000
tan -0.081220 -0.940728 0.302561 1.000000
tan -0.067146 -0.784487 0.607229 1.000000
tan -0.180048 -0.696571 0.671089 1.000000
tan -0.185380 -0.936574 0.261641 1.000000
tan -0.082584 -0.838614 0.525513 1.000000
tan -0.683861 -0.709839 0.010974 1.000000
tan -0.257611 -0.920144 0.113336 1.000000
tan -0.244900 -0.960878 0.083886 1.000000
tan -0.351975 -0.746047 0.552049 1.000000
tan -0.009176 -0.926034 0.159712 1.000000
tan -0.055180 -0.985368 0.110298 1.000000
tan -0.007812 -0.992126 0.046190 1.000000
tan -0.649823 -0.752681 0.049290 1.000000
tan 0.043586 -0.890694 0.046438 1.000000
tan 0.000000 -0.992126 -0.015748 1.000000
tan -0.113026 -0.927212 0.052886 1.000000
tan 0.019282 -0.931986 0.029202 1.000000
tan 0.011160 -0.935830 -0.037820 1.000000
tan 0.024180 -0.985492 -0.114390 1.000000
tan 0.025296 -0.948106 -0.159216 1.000000
tan 0.047864 -0.836754 -0.529109 1.000000
tan 0.132184 -0.771529 -0.567673 1.000000
tan 0.470767 -0.807303 -0.353897 1.000000
tan 0.017918 -0.951950 -0.016120 1.000000
tan 0.111910 -0.984252 -0.038750 1.000000
tan 0.567549 -0.797197 -0.105400 1.000000
tan 0.516771 -0.846240 -0.014446 1.000000
tan 0.536425 -0.796329 0.031868 1.000000
tan -0.022258 -1.000000 -0.015748 1.000000
tan 0.029636 -1.000000 0.039370 1.000000
tan -0.105710 -0.938372 -0.070308 1.000000
tan -0.072974 -0.968504 0.068634 1.000000
tan 0.000000 -0.953686 0.000000 1.000000
tan 0.090644 -0.933412 0.066774 1.000000
tan 0.032736 -0.948602 -0.080476 1.000000
tan -0.084444 -0.964350 -0.239196 1.000000
tan 0.133362 -0.928018 -0.213032 1.000000
tan 0.078988 -0.924236 -0.135098 1.000000
tan 0.184326 -0.851572 0.441689 1.000000
tan 0.036580 -0.865336 0.485833 1.000000
tan 0.022196 -0.886850 -0.364251 1.000000
tan -0.038750 -0.984252 -0.054064 1.000000
tan -0.043338 -0.865336 0.484655 1.000000
tan -0.184326 -0.851572 0.441689 1.000000
tan 0.000682 -0.950896 -0.027094 1.000000
tan -0.113646 -0.891810 -0.084134 1.000000
tan -0.442557 -0.862670 0.232377 1.000000
tan 0.061318 -0.952322 0.222891 1.000000
tan -0.085932 -0.894042 -0.127038 1.000000
tan -0.521979 -0.827082 0.037200 1.000000
tan -0.162564 -0.906752 0.256309 1.000000
tan -0.112220 -0.984252 -0.038750 1.000000
tan -0.540517 -0.828632 -0.028086 1.000000
tan -0.470767 -0.807303 -0.353897 1.000000
tan 0.000000 -0.913386 0.330709 1.000000
tan 0.000000 -0.968504 -0.094488 1.000000
tan 0.038440 -0.976378 0.205344 1.000000
tan -0.014880 -0.944882 -0.330709 1.000000
tan 0.002542 -0.945192 0.322835 1.000000
tan -0.001054 -0.985368 -0.133858 1.000000
tan -0.024180 -0.926282 -0.251100 1.000000
tan 0.008804 -0.977618 -0.140492 1.000000
tan 0.019964 -0.984810 -0.150412 1.000000
tan 0.054932 -0.986298 -0.118792 1.000000
tan -0.003472 -0.942898 0.230641 1.000000
tan -0.036766 -0.993924 0.108810 1.000000
tan 0.096906 -0.931862 -0.015438 1.000000
tan 0.054312 -0.930250 0.184512 1.000000
tan -0.022010 -0.948168 0.024304 1.000000
tan 0.054870 -1.000000 -0.015748 1.000000
tan -0.020460 -0.897886 0.108190 1.000000
tan 0.021452 -0.775373 -0.586831 1.000000
tan 0.573625 -0.780829 -0.180172 1.000000
tan 0.034472 -1.000000 0.062992 1.000000
tan 0.617521 -0.779527 0.018414 1.000000
tan -0.005828 -0.992126 0.023436 1.000000
tan 0.094798 -0.927088 0.059892 1.000000
tan 0.010788 -0.934962 -0.007192 1.000000
tan 0.005084 -0.960878 0.030504 1.000000
tan -0.099696 -0.975324 -0.108934 1.000000
tan -0.028334 -0.993490 -0.004836 1.000000
tan 0.018724 -0.983198 0.137268 1.000000
tan 0.000000 -0.944882 -0.125984 1.000000
tan -0.030380 -0.803026 -0.551181 1.000000
tan -0.031000 -0.836878 -0.542129 1.000000
tan -0.022320 -0.985492 -0.121830 1.000000
tan -0.007812 -0.992126 -0.016864 1.000000
tan -0.007502 -0.952756 -0.021266 1.000000
tan 0.007812 -0.992126 0.032550 1.000000
tan -0.015066 -0.942340 0.028706 1.000000
tan 0.030070 -0.985368 0.122574 1.000000
tan 0.000000 -0.937008 0.118110 1.000000
tan 0.047802 -0.827825 0.551739 1.000000
tan 0.013826 -0.740963 0.624217 1.000000
tan 0.645483 -0.720441 0.163184 1.000000
tan 0.010292 -0.706553 0.671213 1.000000
tan 0.037634 -0.772707 0.629425 1.000000
tan 0.090954 -0.932110 0.328601 1.000000
tan 0.014818 -0.940728 0.313721 1.000000
tan 0.014012 -0.900738 0.343977 1.000000
tan 0.180544 -0.936574 0.267345 1.000000
tan 0.691363 -0.700663 0.032736 1.000000
tan 0.257611 -0.920144 0.113336 1.000000
tan 0.246822 -0.968504 0.083886 1.000000
tan 0.645421 -0.702151 -0.064790 1.000000
tan 0.220968 -0.931304 0.072912 1.000000
tan 0.207576 -0.969248 0.018662 1.000000
tan 0.010850 -0.749644 -0.628309 1.000000
tan 0.081468 -0.941162 -0.098952 1.000000
tan 0.016368 -0.977742 -0.123256 1.000000
tan -0.016368 -0.977742 -0.123256 1.000000
tan -0.243660 -0.766321 -0.531961 1.000000
tan -0.126666 -0.735631 -0.619381 1.000000
tan -0.081468 -0.941162 -0.098952 1.000000
tan -0.207576 -0.969248 0.018662 1.000000
tan -0.613615 -0.755533 -0.028458 1.000000
tan -0.648893 -0.706429 -0.064666 1.000000
tan -0.220968 -0.931304 0.072912 1.000000
tan 0.007440 -0.944882 0.338521 1.000000
tan 0.641577 -0.280241 -0.692417 1.000000
tan -0.007378 -0.937008 0.338521 1.000000
tan -0.635377 -0.294997 -0.695889 1.000000
tan 0.056792 -0.574803 -0.818897 1.000000
tan 0.135904 -0.531217 -0.843698 1.000000
tan -0.060760 -0.669291 -0.740157 1.000000
tan -0.239692 -0.648211 -0.716845 1.000000
tan -0.183830 -0.638105 -0.738049 1.000000
tan -0.584041 -0.124930 -0.665943 1.000000
tan -0.421601 0.086800 -0.781201 1.000000
tan 0.029512 0.346209 -0.937008 1.000000
tan 0.007378 0.346457 -0.937008 1.000000
tan 0.582305 -0.685659 -0.436791 1.000000
tan 0.443921 0.067332 -0.772397 1.000000
tan -0.031434 -0.645669 -0.763779 1.000000
tan 0.202430 -0.653481 -0.730361 1.000000
tan 0.028396 -0.622047 -0.787401 1.000000
tan -0.122140 -0.554653 -0.820261 1.000000
tan -0.009424 0.920082 -0.294997 1.000000
tan -0.195672 0.531713 -0.828570 1.000000
tan -0.021576 0.949160 -0.280613 1.000000
tan -0.384339 0.542005 -0.754479 1.000000
tan -0.194618 0.872962 -0.134292 1.000000
tan -0.242606 -0.757145 -0.583359 1.000000
tan -0.123566 -0.771653 -0.616033 1.000000
tan 0.113522 -0.728749 0.666253 1.000000
tan -0.654225 0.566681 -0.492033 1.000000
tan 0.249178 -0.732593 0.624217 1.000000
tan 0.354331 -0.023126 0.937008 1.000000
tan 0.511811 -0.028210 0.858268 1.000000
tan -0.548329 -0.750883 -0.382417 1.000000
tan 0.522847 -0.753549 0.388617 1.000000
tan 0.773390 -0.058776 0.624961 1.000000
tan -0.680823 -0.704879 -0.120404 1.000000
tan 0.599355 -0.776241 0.145576 1.000000
tan 0.937442 -0.085498 0.335917 1.000000
tan -0.764648 0.605431 -0.211110 1.000000
tan -0.720255 -0.692913 0.032736 1.000000
tan 0.587141 -0.811023 0.057474 1.000000
tan 0.984252 -0.125984 0.000000 1.000000
tan -0.766570 0.637795 -0.025110 1.000000
tan -0.111600 0.984314 -0.093744 1.000000
tan -0.722921 -0.663897 0.189534 1.000000
tan 0.562031 -0.814496 -0.038254 1.000000
tan 0.922252 -0.162006 -0.356501 1.000000
tan -0.723355 0.662595 0.155868 1.000000
tan -0.154194 0.886354 -0.149482 1.000000
tan -0.605183 -0.638849 0.482237 1.000000
tan 0.443425 -0.850642 -0.272428 1.000000
tan 0.722673 -0.197904 -0.661169 1.000000
tan -0.553909 0.698493 0.445657 1.000000
tan -0.062496 0.943642 -0.034038 1.000000
tan 0.163432 -0.846550 -0.469465 1.000000
tan 0.445905 -0.224937 -0.868746 1.000000
tan -0.310125 -0.610081 0.727013 1.000000
tan 0.036952 -0.864592 -0.493955 1.000000
tan 0.144894 -0.237895 -0.960878 1.000000
tan -0.249489 0.714241 0.644801 1.000000
tan -0.082956 -0.605865 0.789882 1.000000
tan -0.036952 -0.864592 -0.493955 1.000000
tan -0.144894 -0.237895 -0.960878 1.000000
tan -0.445905 -0.224937 -0.868746 1.000000
tan -0.060202 0.725215 0.692045 1.000000
tan 0.000000 1.000000 0.015748 1.000000
tan 0.082956 -0.605865 0.789882 1.000000
tan 0.060202 0.725215 0.692045 1.000000
tan 0.062496 0.943642 -0.034038 1.000000
tan 0.249489 0.714241 0.644801 1.000000
tan 0.310125 -0.610081 0.727013 1.000000
tan 0.553909 0.698493 0.445657 1.000000
tan 0.154194 0.886354 -0.149482 1.000000
tan -0.163432 -0.846550 -0.469465 1.000000
tan -0.722673 -0.197904 -0.661169 1.000000
tan 0.605183 -0.638849 0.482237 1.000000
tan -0.443425 -0.850642 -0.272428 1.000000
tan -0.922252 -0.162006 -0.356501 1.000000
tan 0.723355 0.662595 0.155868 1.000000
tan 0.220286 0.968504 -0.076260 1.000000
tan -0.562031 -0.814496 -0.038254 1.000000
tan -0.984252 -0.125984 0.000000 1.000000
tan 0.722921 -0.663897 0.189534 1.000000
tan -0.587141 -0.811023 0.057474 1.000000
tan -0.937442 -0.085498 0.335917 1.000000
tan 0.766570 0.637795 -0.025110 1.000000
tan 0.720255 -0.692913 0.032736 1.000000
tan -0.599355 -0.776241 0.145576 1.000000
tan -0.773390 -0.058776 0.624961 1.000000
tan 0.764648 0.605431 -0.211110 1.000000
tan 0.124186 0.945564 -0.202306 1.000000
tan 0.680823 -0.704879 -0.120404 1.000000
tan -0.522847 -0.753549 0.388617 1.000000
tan -0.511811 -0.034968 0.858268 1.000000
tan 0.654225 0.566681 -0.492033 1.000000
tan 0.548329 -0.750883 -0.382417 1.000000
tan -0.249178 -0.732593 0.624217 1.000000
tan -0.181102 -0.019778 0.984252 1.000000
tan 0.242606 -0.757145 -0.583359 1.000000
tan 0.384339 0.542005 -0.754479 1.000000
tan -0.025048 0.866638 -0.384029 1.000000
tan 0.109740 0.530349 -0.844566 1.000000
tan 0.040176 0.947734 -0.292021 1.000000
tan -0.021204 0.524025 -0.852998 1.000000
tan 0.055614 -0.773699 -0.628929 1.000000
tan 0.011284 -0.768739 -0.635873 1.000000
tan -0.053010 -0.723169 0.672949 1.000000
tan -0.002170 -0.724347 0.684977 1.000000
tan 0.000000 -0.015748 1.000000 1.000000
tan 0.000000 -0.094488 -0.992126 1.000000
tan 0.000000 -0.094488 -0.992126 1.000000
tan -0.007812 -0.094426 -0.992126 1.000000
tan 0.015624 -0.094364 -0.992126 1.000000
tan 0.015624 -0.102362 -0.992126 1.000000
tan -0.023436 -0.094674 -0.992126 1.000000
tan 0.007812 -0.102362 -0.992126 1.000000
tan -0.023622 -0.078926 -1.000000 1.000000
tan 0.000000 -0.102362 -0.992126 1.000000
tan -0.007874 -0.078740 -1.000000 1.000000
tan -0.007812 -0.102362 -0.992126 1.000000
tan 0.007874 -0.078740 -1.000000 1.000000
tan -0.015624 -0.102362 -0.992126 1.000000
tan 0.007874 -0.078740 -1.000000 1.000000
tan -0.015624 -0.094488 -0.992126 1.000000
tan 0.023622 -0.086800 -1.000000 1.000000
tan 0.000000 -0.094488 -0.992126 1.000000
tan 0.023436 -0.094674 -0.992126 1.000000
tan 0.000000 -0.094488 -0.992126 1.000000
tan 0.000000 -0.094488 -0.992126 1.000000
tan 0.015128 0.074648 0.960630 1.000000
tan 0.052080 -0.153264 0.903404 1.000000
tan 0.012772 0.067766 0.944386 1.000000
tan 0.008556 0.181102 0.944014 1.000000
tan 0.006138 0.259843 0.949718 1.000000
tan 0.002356 0.299213 0.953314 1.000000
tan 0.020646 -0.338955 0.904272 1.000000
tan -0.002356 0.299213 0.953314 1.000000
tan 0.014260 -0.395933 0.905512 1.000000
tan 0.017050 -0.460413 0.875256 1.000000
tan -0.006448 -0.473681 0.883130 1.000000
tan -0.015376 -0.050344 0.976378 1.000000
tan -0.006138 0.259843 0.949718 1.000000
tan -0.011718 -0.426313 0.894476 1.000000
tan -0.008556 0.181102 0.944014 1.000000
tan -0.020646 -0.338955 0.904272 1.000000
tan -0.019964 0.064666 0.944386 1.000000
tan -0.052080 -0.153264 0.903404 1.000000
f 3/3/3 2/2/2 1/1/1
f 5/5/5 2/2/2 4/4/4
f 7/7/7 4/4/4 6/6/6
f 6/6/6 8/8/8 7/7/7
f 7/7/7 8/8/8 9/9/9
f 9/9/9 8/8/8 10/10/10
f 12/12/12 11/11/11 10/10/10
f 13/13/13 10/10/10 11/11/11
f 14/14/14 13/13/13 11/11/11
f 14/14/14 11/11/11 15/15/15
f 18/18/18 17/17/17 16/16/16
f 20/20/20 16/16/16 19/19/19
f 20/20/20 19/19/19 21/21/21
f 22/22/22 16/16/16 20/20/20
f 21/21/21 23/23/23 20/20/20
f 16/16/16 22/22/22 24/24/24
f 23/23/23 21/21/21 25/25/25
f 26/26/26 25/25/25 21/21/21
f 25/25/25 26/26/26 27/27/27
f 24/24/24 22/22/22 27/27/27
f 24/24/24 27/27/27 28/28/28
f 24/24/24 28/28/28 29/29/29
f 32/32/32 31/31/31 30/30/30
f 33/33/33 30/30/30 31/31/31
f 36/36/36 35/35/35 34/34/34
f 37/37/37 34/34/34 35/35/35
f 40/40/40 39/39/39 38/38/38
f 40/40/40 38/38/38 41/41/41
f 40/40/40 41/41/41 42/42/42
f 43/43/43 42/42/42 41/41/41
f 43/43/43 44/44/44 42/42/42
f 45/45/45 42/42/42 44/44/44
f 44/44/44 46/46/46 45/45/45
f 47/47/47 45/45/45 46/46/46
f 50/50/50 49/49/49 48/48/48
f 50/50/50 48/48/48 51/51/51
f 52/52/52 51/51/51 48/48/48
f 53/53/53 51/51/51 52/52/52
f 54/54/54 53/53/53 52/52/52
f 52/52/52 55/55/55 54/54/54
f 58/58/58 57/57/57 56/56/56
f 56/56/56 57/57/57 59/59/59
f 56/56/56 59/59/59 60/60/60
f 62/62/62 60/60/60 61/61/61
f 62/62/62 61/61/61 63/63/63
f 64/64/64 63/63/63 61/61/61
f 67/67/67 66/66/66 65/65/65
f 68/68/68 65/65/65 66/66/66
f 66/66/66 69/69/69 68/68/68
f 65/65/65 68/68/68 70/70/70
f 71/71/71 68/68/68 69/69/69
f 69/69/69 72/72/72 71/71/71
f 73/73/73 70/70/70 68/68/68
f 68/68/68 71/71/71 73/73/73
f 73/73/73 74/74/74 70/70/70
f 75/75/75 73/73/73 71/71/71
f 73/73/73 75/75/75 74/74/74
f 76/76/76 71/71/71 72/72/72
f 75/75/75 71/71/71 77/77/77
f 76/76/76 77/77/77 71/71/71
f 75/75/75 77/77/77 74/74/74
f 76/76/76 72/72/72 78/78/78
f 77/77/77 76/76/76 78/78/78
f 79/79/79 78/78/78 72/72/72
f 74/74/74 80/80/80 70/70/70
f 74/74/74 77/77/77 80/80/80
f 81/81/81 70/70/70 80/80/80
f 81/81/81 80/80/80 82/82/82
f 83/83/83 82/82/82 80/80/80
f 84/84/84 83/83/83 80/80/80
f 80/80/80 85/85/85 84/84/84
f 85/85/85 80/80/80 77/77/77
f 86/86/86 84/84/84 85/85/85
f 85/85/85 87/87/87 86/86/86
f 88/88/88 85/85/85 77/77/77
f 88/88/88 77/77/77 78/78/78
f 87/87/87 85/85/85 89/89/89
f 85/85/85 88/88/88 89/89/89
f 89/89/89 90/90/90 87/87/87
f 88/88/88 78/78/78 91/91/91
f 93/93/93 90/90/90 92/92/92
f 89/89/89 92/92/92 90/90/90
f 94/94/94 88/88/88 91/91/91
f 94/94/94 89/89/89 88/88/88
f 95/95/95 91/91/91 78/78/78
f 78/78/78 79/79/79 95/95/95
f 96/96/96 95/95/95 79/79/79
f 91/91/91 97/97/97 94/94/94
f 91/91/91 95/95/95 97/97/97
f 95/95/95 96/96/96 98/98/98
f 98/98/98 97/97/97 95/95/95
f 96/96/96 99/99/99 98/98/98
f 97/97/97 100/100/100 94/94/94
f 97/97/97 98/98/98 100/100/100
f 94/94/94 100/100/100 89/89/89
f 92/92/92 89/89/89 100/100/100
f 101/101/101 98/98/98 99/99/99
f 101/101/101 100/100/100 98/98/98
f 101/101/101 99/99/99 102/102/102
f 103/103/103 102/102/102 99/99/99
f 100/100/100 101/101/101 104/104/104
f 102/102/102 104/104/104 101/101/101
f 100/100/100 105/105/105 92/92/92
f 104/104/104 105/105/105 100/100/100
f 104/104/104 102/102/102 106/106/106
f 106/106/106 105/105/105 104/104/104
f 102/102/102 103/103/103 107/107/107
f 107/107/107 106/106/106 102/102/102
f 108/108/108 107/107/107 103/103/103
f 105/105/105 106/106/106 109/109/109
f 106/106/106 107/107/107 109/109/109
f 110/110/110 92/92/92 105/105/105
f 105/105/105 109/109/109 110/110/110
f 110/110/110 111/111/111 92/92/92
f 112/112/112 111/111/111 110/110/110
f 107/107/107 108/108/108 113/113/113
f 113/113/113 109/109/109 107/107/107
f 114/114/114 113/113/113 108/108/108
f 112/112/112 110/110/110 115/115/115
f 110/110/110 109/109/109 115/115/115
f 112/112/112 115/115/115 116/116/116
f 116/116/116 115/115/115 117/117/117
f 109/109/109 113/113/113 118/118/118
f 119/119/119 117/117/117 115/115/115
f 117/117/117 119/119/119 120/120/120
f 121/121/121 115/115/115 109/109/109
f 121/121/121 109/109/109 118/118/118
f 115/115/115 121/121/121 119/119/119
f 122/122/122 118/118/118 113/113/113
f 122/122/122 113/113/113 114/114/114
f 114/114/114 123/123/123 122/122/122
f 118/118/118 124/124/124 121/121/121
f 118/118/118 122/122/122 124/124/124
f 125/125/125 122/122/122 123/123/123
f 125/125/125 124/124/124 122/122/122
f 125/125/125 123/123/123 126/126/126
f 127/127/127 126/126/126 123/123/123
f 124/124/124 125/125/125 128/128/128
f 126/126/126 128/128/128 125/125/125
f 121/121/121 124/124/124 129/129/129
f 128/128/128 129/129/129 124/124/124
f 129/129/129 119/119/119 121/121/121
f 130/130/130 126/126/126 127/127/127
f 126/126/126 130/130/130 128/128/128
f 127/127/127 131/131/131 130/130/130
f 132/132/132 129/129/129 128/128/128
f 132/132/132 128/128/128 130/130/130
f 133/133/133 130/130/130 131/131/131
f 130/130/130 133/133/133 132/132/132
f 131/131/131 134/134/134 133/133/133
f 129/129/129 132/132/132 135/135/135
f 135/135/135 132/132/132 133/133/133
f 129/129/129 135/135/135 119/119/119
f 136/136/136 133/133/133 134/134/134
f 135/135/135 133/133/133 136/136/136
f 136/136/136 134/134/134 137/137/137
f 138/138/138 137/137/137 134/134/134
f 139/139/139 135/135/135 136/136/136
f 139/139/139 136/136/136 137/137/137
f 141/141/141 140/140/140 138/138/138
f 137/137/137 138/138/138 140/140/140
f 142/142/142 137/137/137 140/140/140
f 137/137/137 142/142/142 139/139/139
f 140/140/140 143/143/143 142/142/142
f 142/142/142 144/144/144 139/139/139
f 144/144/144 142/142/142 143/143/143
f 144/144/144 135/135/135 139/139/139
f 143/143/143 145/145/145 144/144/144
f 135/135/135 146/146/146 119/119/119
f 135/135/135 144/144/144 146/146/146
f 146/146/146 120/120/120 119/119/119
f 120/120/120 146/146/146 147/147/147
f 148/148/148 144/144/144 145/145/145
f 144/144/144 148/148/148 146/146/146
f 148/148/148 147/147/147 146/146/146
f 145/145/145 149/149/149 148/148/148
f 147/147/147 148/148/148 150/150/150
f 150/150/150 148/148/148 149/149/149
f 153/153/153 152/152/152 151/151/151
f 154/154/154 153/153/153 151/151/151
f 155/155/155 154/154/154 151/151/151
f 153/153/153 154/154/154 156/156/156
f 157/157/157 154/154/154 155/155/155
f 158/158/158 157/157/157 155/155/155
f 159/159/159 157/157/157 158/158/158
f 154/154/154 160/160/160 156/156/156
f 160/160/160 154/154/154 157/157/157
f 161/161/161 156/156/156 160/160/160
f 162/162/162 156/156/156 161/161/161
f 161/161/161 163/163/163 162/162/162
f 160/160/160 157/157/157 164/164/164
f 165/165/165 163/163/163 161/161/161
f 165/165/165 166/166/166 163/163/163
f 161/161/161 160/160/160 167/167/167
f 164/164/164 167/167/167 160/160/160
f 165/165/165 161/161/161 168/168/168
f 167/167/167 168/168/168 161/161/161
f 169/169/169 166/166/166 165/165/165
f 168/168/168 169/169/169 165/165/165
f 169/169/169 170/170/170 166/166/166
f 171/171/171 170/170/170 169/169/169
f 172/172/172 170/170/170 171/171/171
f 171/171/171 173/173/173 172/172/172
f 173/173/173 171/171/171 174/174/174
f 175/175/175 171/171/171 169/169/169
f 175/175/175 169/169/169 168/168/168
f 174/174/174 171/171/171 176/176/176
f 176/176/176 171/171/171 175/175/175
f 176/176/176 177/177/177 174/174/174
f 178/178/178 177/177/177 176/176/176
f 179/179/179 178/178/178 176/176/176
f 180/180/180 175/175/175 168/168/168
f 180/180/180 176/176/176 175/175/175
f 180/180/180 168/168/168 181/181/181
f 168/168/168 167/167/167 181/181/181
f 182/182/182 176/176/176 180/180/180
f 183/183/183 181/181/181 167/167/167
f 167/167/167 164/164/164 183/183/183
f 180/180/180 181/181/181 184/184/184
f 182/182/182 180/180/180 184/184/184
f 181/181/181 183/183/183 185/185/185
f 185/185/185 184/184/184 181/181/181
f 186/186/186 176/176/176 182/182/182
f 179/179/179 176/176/176 186/186/186
f 187/187/187 186/186/186 182/182/182
f 182/182/182 184/184/184 187/187/187
f 188/188/188 179/179/179 186/186/186
f 188/188/188 186/186/186 187/187/187
f 189/189/189 179/179/179 188/188/188
f 189/189/189 190/190/190 179/179/179
f 191/191/191 190/190/190 189/189/189
f 192/192/192 188/188/188 187/187/187
f 188/188/188 192/192/192 189/189/189
f 191/191/191 189/189/189 193/193/193
f 189/189/189 192/192/192 193/193/193
f 194/194/194 191/191/191 193/193/193
f 194/194/194 193/193/193 195/195/195
f 187/187/187 196/196/196 192/192/192
f 196/196/196 187/187/187 184/184/184
f 197/197/197 195/195/195 193/193/193
f 195/195/195 197/197/197 198/198/198
f 196/196/196 184/184/184 199/199/199
f 199/199/199 184/184/184 185/185/185
f 185/185/185 183/183/183 199/199/199
f 200/200/200 198/198/198 197/197/197
f 201/201/201 198/198/198 200/200/200
f 202/202/202 199/199/199 183/183/183
f 201/201/201 200/200/200 203/203/203
f 204/204/204 201/201/201 203/203/203
f 204/204/204 203/203/203 205/205/205
f 206/206/206 199/199/199 202/202/202
f 206/206/206 196/196/196 199/199/199
f 207/207/207 196/196/196 206/206/206
f 207/207/207 192/192/192 196/196/196
f 208/208/208 206/206/206 202/202/202
f 192/192/192 207/207/207 209/209/209
f 209/209/209 193/193/193 192/192/192
f 210/210/210 207/207/207 206/206/206
f 210/210/210 206/206/206 208/208/208
f 211/211/211 209/209/209 207/207/207
f 211/211/211 207/207/207 210/210/210
f 212/212/212 193/193/193 209/209/209
f 197/197/197 193/193/193 212/212/212
f 213/213/213 209/209/209 211/211/211
f 211/211/211 210/210/210 213/213/213
f 212/212/212 209/209/209 213/213/213
f 214/214/214 197/197/197 212/212/212
f 200/200/200 197/197/197 214/214/214
f 215/215/215 212/212/212 213/213/213
f 214/214/214 212/212/212 215/215/215
f 216/216/216 213/213/213 210/210/210
f 210/210/210 208/208/208 216/216/216
f 215/215/215 213/213/213 217/217/217
f 217/217/217 213/213/213 216/216/216
f 214/214/214 215/215/215 218/218/218
f 218/218/218 200/200/200 214/214/214
f 215/215/215 217/217/217 218/218/218
f 200/200/200 218/218/218 203/203/203
f 216/216/216 219/219/219 217/217/217
f 219/219/219 216/216/216 208/208/208
f 220/220/220 218/218/218 217/217/217
f 221/221/221 203/203/203 218/218/218
f 218/218/218 220/220/220 221/221/221
f 222/222/222 217/217/217 219/219/219
f 220/220/220 217/217/217 222/222/222
f 219/219/219 208/208/208 223/223/223
f 222/222/222 219/219/219 224/224/224
f 219/219/219 223/223/223 224/224/224
f 222/222/222 225/225/225 220/220/220
f 222/222/222 224/224/224 226/226/226
f 225/225/225 222/222/222 226/226/226
f 227/227/227 220/220/220 225/225/225
f 227/227/227 221/221/221 220/220/220
f 225/225/225 226/226/226 228/228/228
f 225/225/225 228/228/228 227/227/227
f 221/221/221 227/227/227 229/229/229
f 229/229/229 203/203/203 221/221/221
f 230/230/230 227/227/227 228/228/228
f 230/230/230 229/229/229 227/227/227
f 203/203/203 229/229/229 231/231/231
f 231/231/231 205/205/205 203/203/203
f 229/229/229 230/230/230 232/232/232
f 232/232/232 231/231/231 229/229/229
f 228/228/228 233/233/233 230/230/230
f 233/233/233 232/232/232 230/230/230
f 205/205/205 231/231/231 234/234/234
f 234/234/234 235/235/235 205/205/205
f 235/235/235 234/234/234 236/236/236
f 237/237/237 236/236/236 234/234/234
f 237/237/237 234/234/234 238/238/238
f 234/234/234 231/231/231 239/239/239
f 238/238/238 234/234/234 239/239/239
f 239/239/239 231/231/231 232/232/232
f 238/238/238 239/239/239 240/240/240
f 241/241/241 239/239/239 232/232/232
f 240/240/240 239/239/239 241/241/241
f 232/232/232 233/233/233 241/241/241
f 240/240/240 241/241/241 242/242/242
f 243/243/243 242/242/242 241/241/241
f 243/243/243 241/241/241 233/233/233
f 242/242/242 243/243/243 244/244/244
f 245/245/245 243/243/243 233/233/233
f 243/243/243 245/245/245 244/244/244
f 233/233/233 228/228/228 246/246/246
f 233/233/233 246/246/246 245/245/245
f 228/228/228 226/226/226 246/246/246
f 245/245/245 247/247/247 244/244/244
f 248/248/248 244/244/244 247/247/247
f 248/248/248 247/247/247 249/249/249
f 247/247/247 250/250/250 249/249/249
f 250/250/250 247/247/247 251/251/251
f 251/251/251 247/247/247 252/252/252
f 246/246/246 253/253/253 245/245/245
f 247/247/247 245/245/245 253/253/253
f 253/253/253 252/252/252 247/247/247
f 253/253/253 246/246/246 226/226/226
f 254/254/254 252/252/252 253/253/253
f 255/255/255 254/254/254 253/253/253
f 226/226/226 256/256/256 253/253/253
f 253/253/253 256/256/256 255/255/255
f 256/256/256 226/226/226 224/224/224
f 257/257/257 255/255/255 256/256/256
f 256/256/256 224/224/224 223/223/223
f 257/257/257 256/256/256 258/258/258
f 256/256/256 259/259/259 258/258/258
f 259/259/259 256/256/256 223/223/223
f 260/260/260 258/258/258 259/259/259
f 261/261/261 260/260/260 259/259/259
f 261/261/261 259/259/259 262/262/262
f 259/259/259 223/223/223 263/263/263
f 223/223/223 208/208/208 263/263/263
f 202/202/202 263/263/263 208/208/208
f 202/202/202 183/183/183 263/263/263
f 264/264/264 262/262/262 259/259/259
f 263/263/263 264/264/264 259/259/259
f 262/262/262 264/264/264 265/265/265
f 265/265/265 264/264/264 266/266/266
f 183/183/183 267/267/267 263/263/263
f 183/183/183 164/164/164 267/267/267
f 164/164/164 157/157/157 267/267/267
f 264/264/264 263/263/263 268/268/268
f 267/267/267 268/268/268 263/263/263
f 268/268/268 266/266/266 264/264/264
f 268/268/268 267/267/267 157/157/157
f 268/268/268 269/269/269 266/266/266
f 157/157/157 159/159/159 268/268/268
f 269/269/269 268/268/268 159/159/159
f 272/272/272 271/271/271 270/270/270
f 272/272/272 270/270/270 273/273/273
f 271/271/271 275/275/275 274/274/274
f 276/276/276 274/274/274 275/275/275
f 276/276/276 277/277/277 274/274/274
f 277/277/277 276/276/276 278/278/278
f 277/277/277 278/278/278 279/279/279
f 277/277/277 279/279/279 280/280/280
f 279/279/279 281/281/281 280/280/280
f 281/281/281 279/279/279 282/282/282
f 282/282/282 283/283/283 281/281/281
f 284/284/284 281/281/281 283/283/283
f 286/286/286 285/285/285 283/283/283
f 287/287/287 283/283/283 285/285/285
f 285/285/285 288/288/288 287/287/287
f 273/273/273 287/287/287 288/288/288
f 291/291/291 290/290/290 289/289/289
f 292/292/292 289/289/289 290/290/290
f 289/289/289 292/292/292 293/293/293
f 292/292/292 290/290/290 294/294/294
f 295/295/295 294/294/294 290/290/290
f 295/295/295 296/296/296 294/294/294
f 297/297/297 293/293/293 292/292/292
f 298/298/298 294/294/294 296/296/296
f 296/296/296 299/299/299 298/298/298
f 300/300/300 298/298/298 299/299/299
f 294/294/294 301/301/301 292/292/292
f 297/297/297 292/292/292 301/301/301
f 298/298/298 302/302/302 294/294/294
f 298/298/298 300/300/300 302/302/302
f 302/302/302 301/301/301 294/294/294
f 303/303/303 302/302/302 300/300/300
f 297/297/297 301/301/301 304/304/304
f 301/301/301 302/302/302 304/304/304
f 302/302/302 303/303/303 305/305/305
f 305/305/305 304/304/304 302/302/302
f 306/306/306 305/305/305 303/303/303
f 307/307/307 297/297/297 304/304/304
f 297/297/297 307/307/307 293/293/293
f 304/304/304 305/305/305 308/308/308
f 307/307/307 304/304/304 308/308/308
f 305/305/305 306/306/306 309/309/309
f 309/309/309 308/308/308 305/305/305
f 310/310/310 309/309/309 306/306/306
f 307/307/307 311/311/311 293/293/293
f 308/308/308 311/311/311 307/307/307
f 312/312/312 293/293/293 311/311/311
f 308/308/308 309/309/309 313/313/313
f 311/311/311 308/308/308 313/313/313
f 309/309/309 310/310/310 314/314/314
f 314/314/314 313/313/313 309/309/309
f 315/315/315 314/314/314 310/310/310
f 311/311/311 316/316/316 312/312/312
f 313/313/313 316/316/316 311/311/311
f 317/317/317 312/312/312 316/316/316
f 313/313/313 314/314/314 318/318/318
f 313/313/313 318/318/318 316/316/316
f 314/314/314 315/315/315 319/319/319
f 319/319/319 318/318/318 314/314/314
f 320/320/320 319/319/319 315/315/315
f 316/316/316 321/321/321 317/317/317
f 318/318/318 321/321/321 316/316/316
f 317/317/317 321/321/321 322/322/322
f 319/319/319 320/320/320 323/323/323
f 319/319/319 323/323/323 318/318/318
f 324/324/324 323/323/323 320/320/320
f 318/318/318 325/325/325 321/321/321
f 323/323/323 325/325/325 318/318/318
f 323/323/323 324/324/324 326/326/326
f 323/323/323 326/326/326 325/325/325
f 327/327/327 326/326/326 324/324/324
f 328/328/328 321/321/321 325/325/325
f 328/328/328 322/322/322 321/321/321
f 326/326/326 329/329/329 325/325/325
f 325/325/325 329/329/329 328/328/328
f 326/326/326 327/327/327 330/330/330
f 326/326/326 330/330/330 329/329/329
f 331/331/331 330/330/330 327/327/327
f 331/331/331 332/332/332 330/330/330
f 328/328/328 333/333/333 322/322/322
f 333/333/333 328/328/328 329/329/329
f 334/334/334 322/322/322 333/333/333
f 329/329/329 335/335/335 333/333/333
f 335/335/335 329/329/329 330/330/330
f 336/336/336 334/334/334 333/333/333
f 336/336/336 333/333/333 335/335/335
f 334/334/334 336/336/336 337/337/337
f 336/336/336 335/335/335 338/338/338
f 338/338/338 337/337/337 336/336/336
f 335/335/335 330/330/330 339/339/339
f 339/339/339 338/338/338 335/335/335
f 337/337/337 338/338/338 340/340/340
f 338/338/338 339/339/339 340/340/340
f 341/341/341 337/337/337 340/340/340
f 342/342/342 339/339/339 330/330/330
f 342/342/342 330/330/330 332/332/332
f 332/332/332 343/343/343 342/342/342
f 344/344/344 340/340/340 339/339/339
f 339/339/339 342/342/342 344/344/344
f 343/343/343 345/345/345 342/342/342
f 345/345/345 344/344/344 342/342/342
f 343/343/343 346/346/346 345/345/345
f 347/347/347 341/341/341 340/340/340
f 340/340/340 344/344/344 347/347/347
f 341/341/341 347/347/347 348/348/348
f 346/346/346 349/349/349 345/345/345
f 345/345/345 349/349/349 344/344/344
f 346/346/346 350/350/350 349/349/349
f 351/351/351 347/347/347 344/344/344
f 351/351/351 344/344/344 349/349/349
f 350/350/350 352/352/352 349/349/349
f 349/349/349 352/352/352 351/351/351
f 352/352/352 350/350/350 353/353/353
f 347/347/347 351/351/351 354/354/354
f 354/354/354 348/348/348 347/347/347
f 355/355/355 351/351/351 352/352/352
f 355/355/355 354/354/354 351/351/351
f 353/353/353 356/356/356 352/352/352
f 352/352/352 356/356/356 355/355/355
f 356/356/356 353/353/353 357/357/357
f 358/358/358 348/348/348 354/354/354
f 354/354/354 355/355/355 358/358/358
f 348/348/348 358/358/358 359/359/359
f 360/360/360 355/355/355 356/356/356
f 360/360/360 358/358/358 355/355/355
f 361/361/361 356/356/356 357/357/357
f 356/356/356 361/361/361 360/360/360
f 357/357/357 362/362/362 361/361/361
f 360/360/360 363/363/363 358/358/358
f 363/363/363 359/359/359 358/358/358
f 364/364/364 360/360/360 361/361/361
f 363/363/363 360/360/360 364/364/364
f 365/365/365 361/361/361 362/362/362
f 362/362/362 366/366/366 365/365/365
f 364/364/364 361/361/361 367/367/367
f 365/365/365 367/367/367 361/361/361
f 363/363/363 364/364/364 368/368/368
f 359/359/359 363/363/363 368/368/368
f 367/367/367 368/368/368 364/364/364
f 369/369/369 359/359/359 368/368/368
f 369/369/369 368/368/368 370/370/370
f 368/368/368 367/367/367 370/370/370
f 369/369/369 370/370/370 371/371/371
f 372/372/372 371/371/371 370/370/370
f 370/370/370 373/373/373 372/372/372
f 373/373/373 370/370/370 367/367/367
f 374/374/374 372/372/372 373/373/373
f 373/373/373 367/367/367 375/375/375
f 373/373/373 375/375/375 374/374/374
f 365/365/365 375/375/375 367/367/367
f 366/366/366 375/375/375 365/365/365
f 376/376/376 374/374/374 375/375/375
f 366/366/366 377/377/377 375/375/375
f 377/377/377 376/376/376 375/375/375
f 380/380/380 379/379/379 378/378/378
f 378/378/378 379/379/379 381/381/381
f 381/381/381 382/382/382 378/378/378
f 381/381/381 379/379/379 383/383/383
f 381/381/381 384/384/384 382/382/382
f 385/385/385 383/383/383 379/379/379
f 382/382/382 384/384/384 386/386/386
f 383/383/383 385/385/385 387/387/387
f 384/384/384 388/388/388 386/386/386
f 385/385/385 389/389/389 387/387/387
f 390/390/390 386/386/386 388/388/388
f 389/389/389 391/391/391 387/387/387
f 388/388/388 392/392/392 390/390/390
f 389/389/389 393/393/393 391/391/391
f 390/390/390 392/392/392 394/394/394
f 395/395/395 391/391/391 393/393/393
f 393/393/393 396/396/396 395/395/395
f 395/395/395 396/396/396 392/392/392
f 394/394/394 392/392/392 396/396/396
f 396/396/396 397/397/397 394/394/394
f 400/400/400 399/399/399 398/398/398
f 398/398/398 401/401/401 400/400/400
f 398/398/398 402/402/402 401/401/401
f 398/398/398 403/403/403 402/402/402
f 404/404/404 398/398/398 399/399/399
f 403/403/403 398/398/398 405/405/405
f 406/406/406 398/398/398 404/404/404
f 406/406/406 404/404/404 407/407/407
f 408/408/408 406/406/406 407/407/407
f 409/409/409 405/405/405 398/398/398
f 409/409/409 398/398/398 406/406/406
f 406/406/406 408/408/408 409/409/409
f 405/405/405 409/409/409 410/410/410
f 411/411/411 409/409/409 408/408/408
f 410/410/410 409/409/409 412/412/412
f 413/413/413 409/409/409 411/411/411
f 412/412/412 409/409/409 414/414/414
f 415/415/415 409/409/409 413/413/413
f 414/414/414 409/409/409 415/415/415
