mtllib SM_Sticker_21.mtl
g SM_Sticker_21
#Vertices 5
#Indices 9
#Section 0 Offset 0 NumIndices 9 MaterialIndex 0 MI_Posters_01
v 0.149268 -0.003626 0.000000
v 0.000074 0.117001 -0.000000
v 0.000000 0.000000 0.000000
v 0.022242 0.149459 -0.000000
v 0.148427 0.148080 -0.000000
vt 0.321045 0.078613
vt 0.248413 0.137695
vt 0.248291 0.080566
vt 0.259033 0.153320
vt 0.320801 0.152832
vt1 0.879883 0.110352
vt1 0.120056 0.724854
vt1 0.119690 0.128906
vt1 0.233032 0.890015
vt1 0.875977 0.882996
vn 0.000000 -0.000000 -1.000000
vn 0.000000 -0.000000 -1.000000
vn 0.000000 -0.000000 -1.000000
vn 0.000000 -0.000000 -1.000000
vn 0.000000 -0.000000 -1.000000
tan 0.000000 -1.000000 0.000000 1.000000
tan 0.000000 -1.000000 0.000000 1.000000
tan 0.000000 -1.000000 0.000000 1.000000
tan 0.000000 -1.000000 0.000000 1.000000
tan 0.000000 -1.000000 0.000000 1.000000
f 3/3/3 2/2/2 1/1/1
f 2/2/2 4/4/4 1/1/1
f 4/4/4 5/5/5 1/1/1
