mtllib SM_Sticker_18.mtl
g SM_Sticker_18
#Vertices 6
#Indices 12
#Section 0 Offset 0 NumIndices 12 MaterialIndex 0 MI_Posters_01
v 0.000000 0.000000 0.000000
v 0.293895 -0.000840 0.000000
v 0.305371 0.032347 -0.000000
v 0.301732 0.076011 -0.000000
v 0.000557 0.118417 -0.000000
v 0.276262 0.116738 -0.000000
vt 0.007107 0.154785
vt 0.150513 0.154297
vt 0.156128 0.170410
vt 0.154419 0.191895
vt 0.007378 0.212402
vt 0.141968 0.211426
vt1 0.109985 0.350098
vt1 0.860352 0.348145
vt1 0.889648 0.432617
vt1 0.880371 0.544189
vt1 0.111389 0.652344
vt1 0.815430 0.648193
vn 0.000000 -0.000000 -1.000000
vn 0.000000 -0.000000 -1.000000
vn 0.000000 -0.000000 -1.000000
vn 0.000000 -0.000000 -1.000000
vn 0.000000 -0.000000 -1.000000
vn 0.000000 -0.000000 -1.000000
tan 0.000000 -1.000000 0.000000 1.000000
tan 0.000000 -1.000000 0.000000 1.000000
tan 0.000000 -1.000000 0.000000 1.000000
tan 0.000000 -1.000000 0.000000 1.000000
tan 0.000000 -1.000000 0.000000 1.000000
tan 0.000000 -1.000000 0.000000 1.000000
f 3/3/3 2/2/2 1/1/1
f 3/3/3 1/1/1 4/4/4
f 1/1/1 5/5/5 4/4/4
f 5/5/5 6/6/6 4/4/4
