mtllib SM_Sticker_20.mtl
g SM_Sticker_20
#Vertices 4
#Indices 6
#Section 0 Offset 0 NumIndices 6 MaterialIndex 0 MI_Posters_01
v 0.000000 0.000000 0.000000
v 0.109582 0.178724 -0.000000
v -0.001688 0.178294 -0.000000
v 0.115783 0.000396 0.000000
vt 0.120850 0.065430
vt 0.208130 0.011719
vt 0.207886 0.065918
vt 0.121033 0.008789
vt1 0.250977 0.110352
vt1 0.729004 0.890015
vt1 0.243652 0.888123
vt1 0.755859 0.111816
vn 0.000000 -0.000000 -1.000000
vn 0.000000 -0.000000 -1.000000
vn 0.000000 -0.000000 -1.000000
vn 0.000000 -0.000000 -1.000000
tan 1.000000 0.000000 0.000000 1.000000
tan 1.000000 0.000000 0.000000 1.000000
tan 1.000000 0.000000 0.000000 1.000000
tan 1.000000 0.000000 0.000000 1.000000
f 3/3/3 2/2/2 1/1/1
f 4/4/4 1/1/1 2/2/2
