mtllib SM_Sticker_02.mtl
g SM_Sticker_02
#Vertices 4
#Indices 6
#Section 0 Offset 0 NumIndices 6 MaterialIndex 0 MI_Posters_01
v 0.000000 -0.000000 0.000000
v 0.388806 -0.000598 0.000000
v 0.002448 0.136085 -0.000000
v 0.389261 0.139530 0.000000
vt 0.930664 0.990120
vt 0.930664 0.800293
vt 0.997070 0.988922
vt 0.999023 0.800049
vt1 0.109985 0.360840
vt1 0.888672 0.359863
vt1 0.114868 0.633545
vt1 0.889648 0.640625
vn 0.000000 -0.000000 -1.000000
vn 0.000000 -0.000000 -1.000000
vn 0.000000 -0.000000 -1.000000
vn 0.000000 -0.000000 -1.000000
tan 1.000000 0.000000 0.000000 1.000000
tan 1.000000 0.000000 0.000000 1.000000
tan 1.000000 0.000000 0.000000 1.000000
tan 1.000000 0.000000 0.000000 1.000000
f 3/3/3 2/2/2 1/1/1
f 4/4/4 2/2/2 3/3/3
