mtllib SM_Sticker_22.mtl
g SM_Sticker_22
#Vertices 4
#Indices 6
#Section 0 Offset 0 NumIndices 6 MaterialIndex 0 MI_Posters_01
v 0.318344 0.162740 -0.000000
v 0.000000 0.000000 0.000000
v 0.320814 0.001120 -0.000000
v -0.000265 0.159576 -0.000000
vt 0.316406 0.241699
vt 0.161133 0.162598
vt 0.317627 0.163086
vt 0.161011 0.240234
vt1 0.883789 0.697754
vt1 0.110596 0.302734
vt1 0.889648 0.305176
vt1 0.109985 0.690186
vn 0.000000 -0.000000 -1.000000
vn 0.000000 -0.000000 -1.000000
vn 0.000000 -0.000000 -1.000000
vn 0.000000 -0.000000 -1.000000
tan 0.000000 -1.000000 0.000000 1.000000
tan 0.000000 -1.000000 0.000000 1.000000
tan 0.000000 -1.000000 0.000000 1.000000
tan 0.000000 -1.000000 0.000000 1.000000
f 3/3/3 2/2/2 1/1/1
f 4/4/4 1/1/1 2/2/2
