mtllib SM_Screen_02.mtl
g SM_Screen_02
#Vertices 128
#Indices 438
#Section 0 Offset 0 NumIndices 432 MaterialIndex 0 MI_Plastic_Glossy_01
#Section 1 Offset 432 NumIndices 6 MaterialIndex 1 MI_Screens_Emissive_02
v 4.120302 0.558150 -0.045175
v 4.120302 -0.011817 -0.045175
v 4.120302 -0.011817 -0.058322
v 4.120302 0.558150 -0.058322
v 4.122303 -0.013817 -0.060322
v 4.122303 0.560150 -0.060322
v 4.134396 -0.022216 -0.060322
v 4.130739 -0.025873 -0.060322
v 4.134396 0.568548 -0.060322
v 4.130739 0.572205 -0.060322
v 4.138396 -0.023873 -0.056322
v 4.132396 -0.029873 -0.056322
v 4.138396 0.570205 -0.056322
v 4.132396 0.576205 -0.056322
v 4.132396 0.576205 -0.026597
v 4.138396 0.570205 -0.026597
v 4.130739 0.572205 -0.022597
v 4.138396 -0.023873 -0.026596
v 4.132396 -0.029873 -0.026596
v 4.130739 -0.025873 -0.022596
v 4.134396 0.568548 -0.022597
v 4.134396 -0.022216 -0.022596
v 4.112468 0.544332 -0.022597
v 4.106468 0.550332 -0.022597
v 4.106468 0.550332 -0.004000
v 4.112468 0.002001 -0.022596
v 4.106468 -0.003999 -0.022596
v 4.112468 0.544332 -0.004000
v 4.104811 0.546332 -0.000000
v 4.112468 0.002000 -0.004000
v 4.106468 -0.004000 -0.004000
v 4.108468 0.542675 -0.000000
v 4.092728 0.531411 -0.000001
v 4.108468 0.003657 -0.000000
v 4.104811 -0.000000 0.000000
v 4.092728 0.014920 0.000000
v 4.092729 0.531411 -0.015451
v 4.092729 0.014920 -0.015450
v -0.015491 0.558150 -0.045175
v -0.015491 -0.011817 -0.058322
v -0.015491 -0.011817 -0.045175
v -0.015491 0.558150 -0.058322
v -0.017491 -0.013817 -0.060322
v -0.017491 0.560150 -0.060322
v -0.029584 -0.022216 -0.060322
v -0.025927 -0.025873 -0.060322
v -0.029584 0.568548 -0.060322
v -0.025927 0.572205 -0.060322
v -0.033584 -0.023873 -0.056322
v -0.027584 -0.029873 -0.056322
v -0.033584 0.570205 -0.056322
v -0.027584 0.576205 -0.056322
v -0.027584 0.576205 -0.026597
v -0.033584 0.570205 -0.026597
v -0.025927 0.572205 -0.022597
v -0.033584 -0.023873 -0.026596
v -0.027584 -0.029873 -0.026596
v -0.029584 0.568548 -0.022597
v -0.029584 -0.022216 -0.022596
v -0.025927 -0.025873 -0.022596
v -0.007656 0.544332 -0.022597
v -0.001656 0.550332 -0.022597
v -0.001657 0.550332 -0.004000
v -0.007656 0.002001 -0.022596
v -0.001656 -0.003999 -0.022596
v -0.007657 0.544332 -0.004000
v -0.000000 0.546332 -0.000000
v -0.007657 0.002000 -0.004000
v -0.001657 -0.004000 -0.004000
v -0.003657 0.542675 -0.000000
v 0.012083 0.531411 -0.000001
v -0.003657 0.003657 -0.000000
v 0.000000 0.000000 0.000000
v 0.012083 0.014920 0.000000
v 0.012083 0.531411 -0.015451
v 0.012083 0.014920 -0.015450
v 0.012083 0.531411 -0.015451
v 4.092728 0.531411 -0.000001
v 4.092729 0.531411 -0.015451
v 0.012083 0.531411 -0.000001
v 4.104811 0.546332 -0.000000
v -0.000000 0.546332 -0.000000
v -0.001657 0.550332 -0.004000
v 4.106468 0.550332 -0.004000
v -0.001656 0.550332 -0.022597
v 4.106468 0.550332 -0.022597
v -0.025927 0.572205 -0.022597
v 4.130739 0.572205 -0.022597
v 4.132396 0.576205 -0.026597
v -0.027584 0.576205 -0.026597
v -0.027584 0.576205 -0.056322
v 4.132396 0.576205 -0.056322
v -0.025927 0.572205 -0.060322
v 4.130739 0.572205 -0.060322
v 4.122303 0.560150 -0.060322
v -0.017491 0.560150 -0.060322
v 4.120302 0.558150 -0.058322
v -0.015491 0.558150 -0.058322
v -0.015491 0.558150 -0.045175
v 4.120302 0.558150 -0.045175
v -0.015491 -0.011817 -0.045175
v 4.120302 -0.011817 -0.058322
v 4.120302 -0.011817 -0.045175
v -0.015491 -0.011817 -0.058322
v -0.017491 -0.013817 -0.060322
v 4.122303 -0.013817 -0.060322
v 4.130739 -0.025873 -0.060322
v -0.025927 -0.025873 -0.060322
v 4.132396 -0.029873 -0.056322
v -0.027584 -0.029873 -0.056322
v 4.132396 -0.029873 -0.026596
v -0.027584 -0.029873 -0.026596
v -0.025927 -0.025873 -0.022596
v 4.130739 -0.025873 -0.022596
v 4.106468 -0.003999 -0.022596
v -0.001656 -0.003999 -0.022596
v 4.106468 -0.004000 -0.004000
v -0.001657 -0.004000 -0.004000
v 4.104811 -0.000000 0.000000
v 0.000000 0.000000 0.000000
v 0.012083 0.014920 0.000000
v 4.092728 0.014920 0.000000
v 4.092729 0.014920 -0.015450
v 0.012083 0.014920 -0.015450
v -0.015491 -0.011817 -0.045175
v 4.120302 -0.011817 -0.045175
v -0.015491 0.558150 -0.045175
v 4.120302 0.558150 -0.045175
vt 0.444336 0.731201
vt 0.444336 0.441895
vt 0.451172 0.441895
vt 0.451172 0.731201
vt 0.452637 0.440918
vt 0.452637 0.732422
vt 0.458740 0.437012
vt 0.457275 0.434570
vt 0.458740 0.736572
vt 0.457275 0.738770
vt 0.461182 0.436035
vt 0.460449 0.432129
vt 0.461182 0.737061
vt 0.460449 0.740967
vt 0.476318 0.741211
vt 0.475830 0.737061
vt 0.479492 0.739014
vt 0.475830 0.436035
vt 0.476318 0.432129
vt 0.479492 0.434570
vt 0.478271 0.736572
vt 0.478271 0.436523
vt 0.489990 0.724365
vt 0.491699 0.728516
vt 0.500488 0.727539
vt 0.489990 0.448730
vt 0.491699 0.444824
vt 0.499512 0.723877
vt 0.503418 0.725342
vt 0.499512 0.449219
vt 0.500488 0.445801
vt 0.501953 0.723389
vt 0.509766 0.717773
vt 0.501953 0.450195
vt 0.503418 0.447754
vt 0.509766 0.455566
vt 0.517578 0.717529
vt 0.517578 0.455566
vt 0.636719 0.383789
vt 0.630371 0.094727
vt 0.636719 0.094727
vt 0.630371 0.383789
vt 0.628906 0.093750
vt 0.628906 0.385254
vt 0.622559 0.089355
vt 0.624023 0.087402
vt 0.622559 0.389160
vt 0.624023 0.391602
vt 0.620117 0.088867
vt 0.621094 0.084961
vt 0.620117 0.390137
vt 0.621094 0.394043
vt 0.604980 0.394043
vt 0.605469 0.390137
vt 0.602051 0.391602
vt 0.605469 0.088867
vt 0.604980 0.084961
vt 0.603027 0.389648
vt 0.603027 0.089355
vt 0.602051 0.086914
vt 0.591309 0.377441
vt 0.589844 0.381348
vt 0.580566 0.380371
vt 0.591309 0.101562
vt 0.589844 0.097656
vt 0.582031 0.376953
vt 0.577637 0.378418
vt 0.582031 0.102051
vt 0.580566 0.098633
vt 0.579102 0.375977
vt 0.571289 0.370605
vt 0.579102 0.102539
vt 0.577637 0.100586
vt 0.571289 0.108398
vt 0.563477 0.370605
vt 0.563477 0.108398
vt 0.316162 -0.317383
vt 0.323975 1.751465
vt 0.316162 1.751465
vt 0.323975 -0.317383
vt 0.331543 1.757324
vt 0.331543 -0.324219
vt 0.333984 -0.324219
vt 0.333984 1.758301
vt 0.343018 -0.324219
vt 0.343018 1.758301
vt 0.353760 -0.336914
vt 0.353760 1.770508
vt 0.356201 1.771484
vt 0.356201 -0.337891
vt 0.370850 -0.337891
vt 0.370850 1.771484
vt 0.373291 -0.336914
vt 0.373291 1.770508
vt 0.379150 1.766113
vt 0.379150 -0.333008
vt 0.380371 1.765137
vt 0.380371 -0.332031
vt 0.386963 -0.332031
vt 0.386963 1.765137
vt 0.202881 -0.295898
vt 0.209473 1.800781
vt 0.202881 1.800781
vt 0.209473 -0.295898
vt 0.210815 -0.296875
vt 0.210815 1.801758
vt 0.216797 1.806152
vt 0.216797 -0.301758
vt 0.219482 1.806641
vt 0.219482 -0.302734
vt 0.234375 1.806641
vt 0.234375 -0.302734
vt 0.237061 -0.301758
vt 0.237061 1.806152
vt 0.248047 1.793457
vt 0.248047 -0.289062
vt 0.257080 1.793457
vt 0.257080 -0.289062
vt 0.260010 1.792969
vt 0.260010 -0.288086
vt 0.267334 -0.282227
vt 0.267334 1.786621
vt 0.275146 1.786621
vt 0.275146 -0.282227
vt 0.014793 0.742676
vt 0.984375 0.742676
vt 0.014793 0.989754
vt 0.984375 0.989754
vt1 0.321045 0.483398
vt1 0.447021 0.483398
vt1 0.447021 0.486328
vt1 0.321045 0.486328
vt1 0.447510 0.486816
vt1 0.320557 0.486816
vt1 0.449463 0.489746
vt1 0.450439 0.488770
vt1 0.318604 0.489746
vt1 0.317627 0.488770
vt1 0.449707 0.490723
vt1 0.451416 0.490234
vt1 0.318359 0.490723
vt1 0.316650 0.490234
vt1 0.316650 0.497070
vt1 0.318359 0.497070
vt1 0.317627 0.498535
vt1 0.449707 0.497070
vt1 0.451416 0.497070
vt1 0.450439 0.498535
vt1 0.318604 0.498047
vt1 0.449463 0.498047
vt1 0.323975 0.502930
vt1 0.322021 0.503906
vt1 0.322510 0.507812
vt1 0.444092 0.502930
vt1 0.445801 0.503906
vt1 0.324219 0.507324
vt1 0.323486 0.509033
vt1 0.443848 0.507324
vt1 0.445557 0.507812
vt1 0.324463 0.508301
vt1 0.326904 0.511719
vt1 0.443604 0.508301
vt1 0.444580 0.509033
vt1 0.441162 0.511719
vt1 0.326904 0.515137
vt1 0.441162 0.515137
vt1 0.181885 0.404297
vt1 0.184814 0.530273
vt1 0.181885 0.530273
vt1 0.184814 0.404297
vt1 0.185425 0.530762
vt1 0.185425 0.403809
vt1 0.188110 0.532715
vt1 0.187500 0.533691
vt1 0.188110 0.401855
vt1 0.187500 0.400879
vt1 0.191406 0.532959
vt1 0.188843 0.534668
vt1 0.191406 0.401855
vt1 0.188843 0.399902
vt1 0.195801 0.399902
vt1 0.197754 0.401855
vt1 0.197144 0.400879
vt1 0.197754 0.532959
vt1 0.195801 0.534668
vt1 0.196655 0.401855
vt1 0.196655 0.532715
vt1 0.197144 0.533691
vt1 0.201660 0.407227
vt1 0.202515 0.405762
vt1 0.206421 0.405762
vt1 0.201660 0.527344
vt1 0.202515 0.529053
vt1 0.205811 0.407715
vt1 0.207642 0.406738
vt1 0.205811 0.527100
vt1 0.206421 0.528809
vt1 0.207031 0.407715
vt1 0.210449 0.410156
vt1 0.207031 0.526855
vt1 0.207642 0.527832
vt1 0.210449 0.524414
vt1 0.213867 0.410156
vt1 0.213867 0.524414
vt1 0.048767 0.071777
vt1 0.951172 0.068359
vt1 0.951172 0.071777
vt1 0.048767 0.068359
vt1 0.953613 0.064941
vt1 0.046082 0.064941
vt1 0.045715 0.063965
vt1 0.954102 0.063965
vt1 0.045715 0.059570
vt1 0.954102 0.059570
vt1 0.040344 0.055176
vt1 0.959473 0.055176
vt1 0.959961 0.053711
vt1 0.039978 0.053711
vt1 0.039978 0.047363
vt1 0.959961 0.047363
vt1 0.040344 0.046387
vt1 0.959473 0.046387
vt1 0.957520 0.043945
vt1 0.042206 0.043945
vt1 0.957031 0.042969
vt1 0.042664 0.042969
vt1 0.042664 0.040039
vt1 0.957031 0.040039
vt1 0.957031 0.106445
vt1 0.042664 0.109375
vt1 0.042664 0.106445
vt1 0.957031 0.109375
vt1 0.957520 0.109863
vt1 0.042206 0.109863
vt1 0.040344 0.112305
vt1 0.959473 0.112305
vt1 0.039978 0.113770
vt1 0.959473 0.113770
vt1 0.039978 0.120117
vt1 0.959473 0.120117
vt1 0.959473 0.121094
vt1 0.040344 0.121094
vt1 0.045715 0.125977
vt1 0.954102 0.125977
vt1 0.045715 0.130371
vt1 0.954102 0.130371
vt1 0.046082 0.131348
vt1 0.953613 0.131348
vt1 0.951172 0.134766
vt1 0.048767 0.134766
vt1 0.048767 0.138184
vt1 0.951172 0.138184
vt1 0.954102 0.333008
vt1 0.039978 0.333008
vt1 0.954102 0.207031
vt1 0.039978 0.207031
vn -0.133858 -0.992126 0.000000
vn -0.133858 0.992126 -0.000000
vn -0.133858 0.968504 -0.196850
vn -0.133858 -0.968504 -0.196850
vn -0.007874 0.062992 -1.000000
vn -0.007874 -0.062992 -1.000000
vn 0.362205 -0.000000 -0.929134
vn 0.000000 -0.362205 -0.929134
vn 0.370079 -0.000000 -0.929134
vn 0.000000 0.362205 -0.929134
vn 0.992126 -0.007874 -0.102362
vn 0.000000 -0.992126 -0.102362
vn 0.992126 0.007874 -0.102362
vn 0.000000 0.992126 -0.102362
vn 0.000000 0.992126 0.102362
vn 0.992126 0.007874 0.102362
vn 0.000000 0.299213 0.952756
vn 0.992126 -0.007874 0.102362
vn 0.000000 -0.992126 0.102362
vn 0.000000 -0.307086 0.952756
vn 0.314961 0.000000 0.952756
vn 0.299213 0.000000 0.952756
vn 0.480315 0.007874 0.874016
vn 0.000000 0.480315 0.874016
vn 0.000000 0.992126 0.149606
vn 0.456693 -0.007874 0.889764
vn 0.000000 -0.488189 0.874016
vn 0.992126 0.007874 0.149606
vn 0.000000 0.338583 0.944882
vn 0.992126 -0.007874 0.149606
vn 0.000000 -0.992126 0.149606
vn 0.314961 0.000000 0.952756
vn -0.070866 -0.535433 0.842520
vn 0.322835 0.000000 0.944882
vn 0.000000 -0.338583 0.944882
vn -0.070866 0.535433 0.842520
vn -0.125984 -0.992126 0.000000
vn -0.125984 0.992126 -0.000000
vn 0.133858 -0.992126 0.000000
vn 0.133858 0.968504 -0.196850
vn 0.133858 0.992126 -0.000000
vn 0.133858 -0.968504 -0.196850
vn 0.007874 0.062992 -1.000000
vn 0.007874 -0.055118 -1.000000
vn -0.370079 -0.000000 -0.929134
vn 0.000000 -0.362205 -0.929134
vn -0.362205 -0.000000 -0.929134
vn 0.000000 0.362205 -0.929134
vn -0.992126 -0.007874 -0.102362
vn 0.000000 -0.992126 -0.102362
vn -0.992126 0.007874 -0.102362
vn 0.000000 0.992126 -0.102362
vn 0.000000 0.992126 0.102362
vn -0.992126 0.007874 0.102362
vn 0.000000 0.307087 0.952756
vn -0.992126 -0.007874 0.102362
vn 0.000000 -0.992126 0.102362
vn -0.299213 0.000000 0.952756
vn -0.314961 0.000000 0.952756
vn 0.000000 -0.299212 0.952756
vn -0.456693 0.007874 0.889764
vn 0.000000 0.488189 0.874016
vn 0.000000 0.992126 0.149606
vn -0.480315 -0.007874 0.874016
vn 0.000000 -0.480315 0.874016
vn -0.992126 0.007874 0.149606
vn 0.000000 0.338583 0.944882
vn -0.992126 -0.007874 0.149606
vn 0.000000 -0.992126 0.149606
vn -0.322835 0.000000 0.944882
vn 0.070866 -0.535433 0.842520
vn -0.314961 0.000000 0.952756
vn 0.000000 -0.338583 0.944882
vn 0.070866 0.535433 0.842520
vn 0.125984 -0.992126 0.000000
vn 0.125984 0.992126 -0.000000
vn 0.125984 -0.992126 0.000000
vn -0.070866 -0.535433 0.842520
vn -0.125984 -0.992126 0.000000
vn 0.070866 -0.535433 0.842520
vn 0.000000 0.338583 0.944882
vn 0.000000 0.338583 0.944882
vn 0.000000 0.992126 0.149606
vn 0.000000 0.992126 0.149606
vn 0.000000 0.488189 0.874016
vn 0.000000 0.480315 0.874016
vn 0.000000 0.307087 0.952756
vn 0.000000 0.299213 0.952756
vn 0.000000 0.992126 0.102362
vn 0.000000 0.992126 0.102362
vn 0.000000 0.992126 -0.102362
vn 0.000000 0.992126 -0.102362
vn 0.000000 0.362205 -0.929134
vn 0.000000 0.362205 -0.929134
vn -0.007874 -0.062992 -1.000000
vn 0.007874 -0.055118 -1.000000
vn -0.133858 -0.968504 -0.196850
vn 0.133858 -0.968504 -0.196850
vn 0.133858 -0.992126 0.000000
vn -0.133858 -0.992126 0.000000
vn 0.133858 0.992126 -0.000000
vn -0.133858 0.968504 -0.196850
vn -0.133858 0.992126 -0.000000
vn 0.133858 0.968504 -0.196850
vn 0.007874 0.062992 -1.000000
vn -0.007874 0.062992 -1.000000
vn 0.000000 -0.362205 -0.929134
vn 0.000000 -0.362205 -0.929134
vn 0.000000 -0.992126 -0.102362
vn 0.000000 -0.992126 -0.102362
vn 0.000000 -0.992126 0.102362
vn 0.000000 -0.992126 0.102362
vn 0.000000 -0.299212 0.952756
vn 0.000000 -0.307086 0.952756
vn 0.000000 -0.488189 0.874016
vn 0.000000 -0.480315 0.874016
vn 0.000000 -0.992126 0.149606
vn 0.000000 -0.992126 0.149606
vn 0.000000 -0.338583 0.944882
vn 0.000000 -0.338583 0.944882
vn 0.070866 0.535433 0.842520
vn -0.070866 0.535433 0.842520
vn -0.125984 0.992126 -0.000000
vn 0.125984 0.992126 -0.000000
vn 0.000000 -0.000000 -1.000000
vn 0.000000 -0.000000 -1.000000
vn 0.000000 -0.000000 -1.000000
vn 0.000000 -0.000000 -1.000000
tan 0.992126 -0.133858 0.000000 1.000000
tan -0.992126 -0.133858 0.000000 1.000000
tan -0.793354 -0.223758 -0.561411 1.000000
tan 0.793354 -0.223758 0.561411 1.000000
tan -0.000496 -1.000062 -0.062992 1.000000
tan 0.000496 -1.000062 0.062992 1.000000
tan -0.073160 -0.994482 -0.028520 1.000000
tan -0.236220 -0.899870 0.350797 1.000000
tan 0.073160 -0.997334 0.029140 1.000000
tan 0.236220 -0.899870 -0.350797 1.000000
tan -0.012648 -0.993986 -0.046128 1.000000
tan -0.883812 -0.047554 0.460909 1.000000
tan 0.012648 -0.993986 0.046128 1.000000
tan 0.883812 -0.047554 -0.460909 1.000000
tan 0.891624 -0.045942 0.445285 1.000000
tan 0.015066 -0.993986 -0.069564 1.000000
tan 0.248621 -0.922748 0.289789 1.000000
tan -0.015066 -0.993986 0.069564 1.000000
tan -0.891624 -0.045942 -0.445285 1.000000
tan -0.249241 -0.922748 -0.297414 1.000000
tan 0.105028 -0.996962 -0.034720 1.000000
tan -0.105028 -0.987414 0.032984 1.000000
tan 0.003782 -0.994606 0.006882 1.000000
tan 0.562155 -0.722611 0.397111 1.000000
tan 0.887160 -0.070680 0.468721 1.000000
tan -0.003596 -1.000248 -0.007006 1.000000
tan -0.568107 -0.715729 -0.399777 1.000000
tan 0.011346 -1.006696 -0.022258 1.000000
tan 0.227540 -0.922562 0.330585 1.000000
tan -0.012524 -1.006696 0.030070 1.000000
tan -0.885982 -0.070680 -0.468721 1.000000
tan 0.082522 -0.999442 -0.027280 1.000000
tan 0.077128 -0.842582 -0.528985 1.000000
tan -0.074400 -0.997024 0.025420 1.000000
tan -0.177568 -0.930002 -0.333251 1.000000
tan -0.081344 -0.843140 0.528985 1.000000
tan 0.992126 -0.125984 0.000000 1.000000
tan -0.992126 -0.125984 0.000000 1.000000
tan -0.992126 -0.133858 0.000000 1.000000
tan 0.793354 -0.223758 -0.561411 1.000000
tan 0.992126 -0.133858 0.000000 1.000000
tan -0.793354 -0.223758 0.561411 1.000000
tan 0.000496 -1.000062 -0.062992 1.000000
tan -0.000434 -1.000062 0.055118 1.000000
tan 0.073160 -0.997334 -0.029140 1.000000
tan 0.236220 -0.899870 0.350797 1.000000
tan -0.073160 -0.994482 0.028520 1.000000
tan -0.236220 -0.899870 -0.350797 1.000000
tan 0.012648 -0.993986 -0.046128 1.000000
tan 0.883812 -0.047554 0.460909 1.000000
tan -0.012648 -0.993986 0.046128 1.000000
tan -0.883812 -0.047554 -0.460909 1.000000
tan -0.891624 -0.045942 0.445285 1.000000
tan -0.015066 -0.993986 -0.069564 1.000000
tan -0.249241 -0.922748 0.297415 1.000000
tan 0.015872 -0.993986 0.077376 1.000000
tan 0.891624 -0.045942 -0.445285 1.000000
tan -0.112530 -0.987414 -0.035340 1.000000
tan 0.105028 -0.996962 0.034720 1.000000
tan 0.223758 -0.930250 -0.292144 1.000000
tan -0.003596 -1.000248 0.007006 1.000000
tan -0.568107 -0.722611 0.403621 1.000000
tan -0.887160 -0.070680 0.468721 1.000000
tan 0.003782 -0.994606 -0.006882 1.000000
tan 0.565937 -0.722611 -0.397111 1.000000
tan -0.011346 -1.006696 -0.022258 1.000000
tan -0.227540 -0.922562 0.330585 1.000000
tan 0.012524 -1.006696 0.030070 1.000000
tan 0.885982 -0.070680 -0.468721 1.000000
tan -0.081840 -0.997024 -0.027962 1.000000
tan -0.077128 -0.842582 -0.528985 1.000000
tan 0.075020 -0.999442 0.024800 1.000000
tan 0.177568 -0.930002 -0.333251 1.000000
tan 0.077128 -0.842582 0.528985 1.000000
tan -0.992126 -0.125984 0.000000 1.000000
tan 0.992126 -0.125984 0.000000 1.000000
tan -0.992126 -0.125984 0.000000 1.000000
tan -0.996528 0.051212 -0.051274 1.000000
tan -0.992126 0.125984 -0.000000 1.000000
tan -0.996528 -0.051212 0.051274 1.000000
tan -1.007440 0.000000 0.000000 1.000000
tan -1.007440 0.000000 0.000000 1.000000
tan -1.006696 0.000000 0.000000 1.000000
tan -1.006696 0.000000 0.000000 1.000000
tan -1.002232 0.000000 0.000000 1.000000
tan -0.994606 0.000000 0.000000 1.000000
tan -1.002046 0.000000 0.000000 1.000000
tan -0.997272 0.000000 0.000000 1.000000
tan -0.994792 0.000000 0.000000 1.000000
tan -0.994792 0.000000 0.000000 1.000000
tan -0.994792 0.000000 0.000000 1.000000
tan -0.994792 0.000000 0.000000 1.000000
tan -0.994482 0.000000 0.000000 1.000000
tan -0.994482 0.000000 0.000000 1.000000
tan -1.003968 0.000496 0.007874 1.000000
tan -1.003038 -0.000434 -0.007874 1.000000
tan -0.984376 0.122946 0.064480 1.000000
tan -0.984376 -0.122946 -0.064480 1.000000
tan -0.992126 -0.133858 0.000000 1.000000
tan -0.992126 0.133858 -0.000000 1.000000
tan -0.992126 0.133858 -0.000000 1.000000
tan -0.984376 -0.122946 0.064480 1.000000
tan -0.992126 -0.133858 0.000000 1.000000
tan -0.984376 0.122946 -0.064480 1.000000
tan -1.003968 0.000496 -0.007874 1.000000
tan -1.003968 -0.000496 0.007874 1.000000
tan -0.994482 0.000000 0.000000 1.000000
tan -0.994482 0.000000 0.000000 1.000000
tan -0.994792 0.000000 0.000000 1.000000
tan -0.994792 0.000000 0.000000 1.000000
tan -0.994792 0.000000 0.000000 1.000000
tan -0.994792 0.000000 0.000000 1.000000
tan -0.997272 0.000000 0.000000 1.000000
tan -1.002046 0.000000 0.000000 1.000000
tan -1.002232 0.000000 0.000000 1.000000
tan -0.994606 0.000000 0.000000 1.000000
tan -1.006696 0.000000 0.000000 1.000000
tan -1.006696 0.000000 0.000000 1.000000
tan -1.007440 0.000000 0.000000 1.000000
tan -1.007440 0.000000 0.000000 1.000000
tan -0.996528 0.051212 0.051274 1.000000
tan -1.000744 -0.051770 -0.051274 1.000000
tan -0.992126 -0.125984 0.000000 1.000000
tan -0.992126 0.125984 -0.000000 1.000000
tan 0.000000 -1.000000 0.000000 1.000000
tan 0.000000 -1.000000 0.000000 1.000000
tan 0.000000 -1.000000 0.000000 1.000000
tan 0.000000 -1.000000 0.000000 1.000000
f 3/3/3 2/2/2 1/1/1
f 1/1/1 4/4/4 3/3/3
f 3/3/3 4/4/4 5/5/5
f 6/6/6 5/5/5 4/4/4
f 5/5/5 6/6/6 7/7/7
f 8/8/8 5/5/5 7/7/7
f 9/9/9 7/7/7 6/6/6
f 9/9/9 6/6/6 10/10/10
f 7/7/7 11/11/11 8/8/8
f 7/7/7 9/9/9 11/11/11
f 8/8/8 11/11/11 12/12/12
f 9/9/9 10/10/10 13/13/13
f 13/13/13 11/11/11 9/9/9
f 14/14/14 13/13/13 10/10/10
f 14/14/14 15/15/15 13/13/13
f 16/16/16 13/13/13 15/15/15
f 13/13/13 16/16/16 11/11/11
f 15/15/15 17/17/17 16/16/16
f 11/11/11 18/18/18 12/12/12
f 18/18/18 11/11/11 16/16/16
f 19/19/19 12/12/12 18/18/18
f 19/19/19 18/18/18 20/20/20
f 21/21/21 16/16/16 17/17/17
f 21/21/21 18/18/18 16/16/16
f 22/22/22 20/20/20 18/18/18
f 22/22/22 18/18/18 21/21/21
f 21/21/21 17/17/17 23/23/23
f 21/21/21 23/23/23 22/22/22
f 24/24/24 23/23/23 17/17/17
f 24/24/24 25/25/25 23/23/23
f 20/20/20 22/22/22 26/26/26
f 26/26/26 22/22/22 23/23/23
f 26/26/26 27/27/27 20/20/20
f 28/28/28 23/23/23 25/25/25
f 23/23/23 28/28/28 26/26/26
f 28/28/28 25/25/25 29/29/29
f 27/27/27 26/26/26 30/30/30
f 30/30/30 26/26/26 28/28/28
f 31/31/31 27/27/27 30/30/30
f 28/28/28 29/29/29 32/32/32
f 32/32/32 30/30/30 28/28/28
f 29/29/29 33/33/33 32/32/32
f 30/30/30 34/34/34 31/31/31
f 34/34/34 30/30/30 32/32/32
f 33/33/33 34/34/34 32/32/32
f 35/35/35 31/31/31 34/34/34
f 34/34/34 36/36/36 35/35/35
f 36/36/36 34/34/34 33/33/33
f 37/37/37 36/36/36 33/33/33
f 38/38/38 36/36/36 37/37/37
f 41/41/41 40/40/40 39/39/39
f 39/39/39 40/40/40 42/42/42
f 40/40/40 43/43/43 42/42/42
f 42/42/42 43/43/43 44/44/44
f 43/43/43 45/45/45 44/44/44
f 45/45/45 43/43/43 46/46/46
f 44/44/44 45/45/45 47/47/47
f 48/48/48 44/44/44 47/47/47
f 45/45/45 46/46/46 49/49/49
f 50/50/50 49/49/49 46/46/46
f 47/47/47 45/45/45 51/51/51
f 51/51/51 48/48/48 47/47/47
f 49/49/49 51/51/51 45/45/45
f 51/51/51 52/52/52 48/48/48
f 52/52/52 51/51/51 53/53/53
f 54/54/54 53/53/53 51/51/51
f 54/54/54 51/51/51 49/49/49
f 53/53/53 54/54/54 55/55/55
f 49/49/49 50/50/50 56/56/56
f 49/49/49 56/56/56 54/54/54
f 57/57/57 56/56/56 50/50/50
f 58/58/58 55/55/55 54/54/54
f 54/54/54 56/56/56 58/58/58
f 56/56/56 57/57/57 59/59/59
f 59/59/59 58/58/58 56/56/56
f 60/60/60 59/59/59 57/57/57
f 58/58/58 61/61/61 55/55/55
f 62/62/62 55/55/55 61/61/61
f 62/62/62 61/61/61 63/63/63
f 59/59/59 64/64/64 58/58/58
f 59/59/59 60/60/60 64/64/64
f 61/61/61 58/58/58 64/64/64
f 65/65/65 64/64/64 60/60/60
f 66/66/66 63/63/63 61/61/61
f 66/66/66 61/61/61 64/64/64
f 63/63/63 66/66/66 67/67/67
f 64/64/64 65/65/65 68/68/68
f 64/64/64 68/68/68 66/66/66
f 69/69/69 68/68/68 65/65/65
f 70/70/70 67/67/67 66/66/66
f 66/66/66 68/68/68 70/70/70
f 70/70/70 71/71/71 67/67/67
f 68/68/68 69/69/69 72/72/72
f 72/72/72 70/70/70 68/68/68
f 73/73/73 72/72/72 69/69/69
f 73/73/73 74/74/74 72/72/72
f 74/74/74 70/70/70 72/72/72
f 71/71/71 70/70/70 74/74/74
f 71/71/71 74/74/74 75/75/75
f 76/76/76 75/75/75 74/74/74
f 79/79/79 78/78/78 77/77/77
f 80/80/80 77/77/77 78/78/78
f 78/78/78 81/81/81 80/80/80
f 80/80/80 81/81/81 82/82/82
f 82/82/82 81/81/81 83/83/83
f 84/84/84 83/83/83 81/81/81
f 83/83/83 84/84/84 85/85/85
f 86/86/86 85/85/85 84/84/84
f 85/85/85 86/86/86 87/87/87
f 86/86/86 88/88/88 87/87/87
f 88/88/88 89/89/89 87/87/87
f 87/87/87 89/89/89 90/90/90
f 91/91/91 90/90/90 89/89/89
f 92/92/92 91/91/91 89/89/89
f 91/91/91 92/92/92 93/93/93
f 94/94/94 93/93/93 92/92/92
f 94/94/94 95/95/95 93/93/93
f 96/96/96 93/93/93 95/95/95
f 97/97/97 96/96/96 95/95/95
f 98/98/98 96/96/96 97/97/97
f 99/99/99 98/98/98 97/97/97
f 100/100/100 99/99/99 97/97/97
f 103/103/103 102/102/102 101/101/101
f 104/104/104 101/101/101 102/102/102
f 104/104/104 102/102/102 105/105/105
f 106/106/106 105/105/105 102/102/102
f 106/106/106 107/107/107 105/105/105
f 108/108/108 105/105/105 107/107/107
f 107/107/107 109/109/109 108/108/108
f 110/110/110 108/108/108 109/109/109
f 109/109/109 111/111/111 110/110/110
f 112/112/112 110/110/110 111/111/111
f 112/112/112 111/111/111 113/113/113
f 114/114/114 113/113/113 111/111/111
f 114/114/114 115/115/115 113/113/113
f 116/116/116 113/113/113 115/115/115
f 115/115/115 117/117/117 116/116/116
f 118/118/118 116/116/116 117/117/117
f 119/119/119 118/118/118 117/117/117
f 120/120/120 118/118/118 119/119/119
f 120/120/120 119/119/119 121/121/121
f 122/122/122 121/121/121 119/119/119
f 123/123/123 121/121/121 122/122/122
f 121/121/121 123/123/123 124/124/124
f 127/127/127 126/126/126 125/125/125
f 126/126/126 127/127/127 128/128/128
