mtllib SM_Sticker_23.mtl
g SM_Sticker_23
#Vertices 4
#Indices 6
#Section 0 Offset 0 NumIndices 6 MaterialIndex 0 MI_Posters_01
v 0.000620 0.182014 -0.000000
v 0.126913 -0.001779 0.000000
v 0.128281 0.183424 -0.000000
v 0.000000 0.000000 0.000000
vt 0.305908 0.072754
vt 0.216309 0.011230
vt 0.306641 0.010742
vt 0.217163 0.073242
vt1 0.232422 0.884094
vt1 0.764160 0.110352
vt1 0.770020 0.890015
vt1 0.229858 0.117676
vn 0.000000 -0.000000 -1.000000
vn 0.000000 -0.000000 -1.000000
vn 0.000000 -0.000000 -1.000000
vn 0.000000 -0.000000 -1.000000
tan 1.000000 0.000000 0.000000 1.000000
tan 1.000000 0.000000 0.000000 1.000000
tan 1.000000 0.000000 0.000000 1.000000
tan 1.000000 0.000000 0.000000 1.000000
f 3/3/3 2/2/2 1/1/1
f 4/4/4 1/1/1 2/2/2
