mtllib SM_Sticker_19.mtl
g SM_Sticker_19
#Vertices 6
#Indices 12
#Section 0 Offset 0 NumIndices 12 MaterialIndex 0 MI_Posters_01
v 0.204961 -0.000944 0.000000
v -0.002430 0.135738 -0.000000
v 0.000000 0.000000 0.000000
v 0.011877 0.151316 -0.000000
v 0.203064 0.152585 -0.000000
v -0.005898 0.144459 -0.000000
vt 0.239868 0.076172
vt 0.138550 0.143066
vt 0.139771 0.076660
vt 0.145508 0.150391
vt 0.238892 0.151367
vt 0.136841 0.147461
vt1 0.889648 0.216309
vt1 0.122803 0.721680
vt1 0.131714 0.219727
vt1 0.175659 0.779297
vt1 0.882812 0.784058
vt1 0.109985 0.753906
vn 0.000000 -0.000000 -1.000000
vn 0.000000 -0.000000 -1.000000
vn 0.000000 -0.000000 -1.000000
vn 0.000000 -0.000000 -1.000000
vn 0.000000 -0.000000 -1.000000
vn 0.000000 -0.000000 -1.000000
tan 0.000000 -1.000000 0.000000 1.000000
tan 0.000000 -1.000000 0.000000 1.000000
tan 0.000000 -1.000000 0.000000 1.000000
tan 0.000000 -1.000000 0.000000 1.000000
tan 0.000000 -1.000000 0.000000 1.000000
tan 0.000000 -1.000000 0.000000 1.000000
f 3/3/3 2/2/2 1/1/1
f 2/2/2 4/4/4 1/1/1
f 5/5/5 1/1/1 4/4/4
f 2/2/2 6/6/6 4/4/4
