mtllib SM_Sticker_14.mtl
g SM_Sticker_14
#Vertices 4
#Indices 6
#Section 0 Offset 0 NumIndices 6 MaterialIndex 0 MI_Posters_01
v 0.000000 0.000000 0.000000
v 0.183718 0.186171 -0.000000
v -0.001777 0.185501 -0.000000
v 0.185297 0.001292 -0.000000
vt 0.497070 0.007324
vt 0.586914 0.098145
vt 0.496338 0.098145
vt 0.587402 0.007812
vt1 0.117371 0.112305
vt1 0.883301 0.888123
vt1 0.109985 0.885376
vt1 0.889648 0.117676
vn 0.000000 -0.000000 -1.000000
vn 0.000000 -0.000000 -1.000000
vn 0.000000 -0.000000 -1.000000
vn 0.000000 -0.000000 -1.000000
tan 0.000000 -1.000000 0.000000 1.000000
tan 0.000000 -1.000000 0.000000 1.000000
tan 0.000000 -1.000000 0.000000 1.000000
tan 0.000000 -1.000000 0.000000 1.000000
f 3/3/3 2/2/2 1/1/1
f 4/4/4 1/1/1 2/2/2
