mtllib SM_Sticker_05.mtl
g SM_Sticker_05
#Vertices 12
#Indices 30
#Section 0 Offset 0 NumIndices 30 MaterialIndex 0 MI_Posters_01
v 0.061676 0.119086 -0.000000
v 0.000000 0.000000 0.000000
v 0.062410 0.005572 -0.000000
v -0.051104 0.088962 -0.000000
v -0.076089 0.164271 -0.000000
v 0.079676 0.137821 -0.000000
v 0.088127 0.191088 -0.000000
v -0.078653 0.245457 -0.000000
v -0.048162 0.282928 -0.000000
v 0.073802 0.272642 -0.000000
v 0.055066 0.288806 -0.000000
v 0.008412 0.303500 -0.000000
vt 0.629883 0.315430
vt 0.599609 0.257324
vt 0.630371 0.259766
vt 0.574707 0.300781
vt 0.562500 0.337402
vt 0.638672 0.324707
vt 0.642578 0.350586
vt 0.561523 0.376953
vt 0.576172 0.395508
vt 0.635742 0.390137
vt 0.626465 0.398438
vt 0.604004 0.405273
vt1 0.645996 0.416504
vt1 0.487793 0.110352
vt1 0.647949 0.124512
vt1 0.356445 0.338867
vt1 0.292236 0.532227
vt1 0.692383 0.464355
vt1 0.713867 0.601318
vt1 0.285645 0.740967
vt1 0.364014 0.837158
vt1 0.677246 0.810791
vt1 0.628906 0.852295
vt1 0.509277 0.890015
vn 0.000000 -0.000000 -1.000000
vn 0.000000 -0.000000 -1.000000
vn 0.000000 -0.000000 -1.000000
vn 0.000000 -0.000000 -1.000000
vn 0.000000 -0.000000 -1.000000
vn 0.000000 -0.000000 -1.000000
vn 0.000000 -0.000000 -1.000000
vn 0.000000 -0.000000 -1.000000
vn 0.000000 -0.000000 -1.000000
vn 0.000000 -0.000000 -1.000000
vn 0.000000 -0.000000 -1.000000
vn 0.000000 -0.000000 -1.000000
tan 0.000000 -1.000000 0.000000 1.000000
tan 0.000000 -1.000000 0.000000 1.000000
tan 0.000000 -1.000000 0.000000 1.000000
tan 0.000000 -1.000000 0.000000 1.000000
tan 0.000000 -1.000000 0.000000 1.000000
tan 0.000000 -1.000000 0.000000 1.000000
tan 0.000000 -1.000000 0.000000 1.000000
tan 0.000000 -1.000000 0.000000 1.000000
tan 0.000000 -1.000000 0.000000 1.000000
tan 0.000000 -1.000000 0.000000 1.000000
tan 0.000000 -1.000000 0.000000 1.000000
tan 0.000000 -1.000000 0.000000 1.000000
f 3/3/3 2/2/2 1/1/1
f 1/1/1 2/2/2 4/4/4
f 4/4/4 5/5/5 1/1/1
f 6/6/6 1/1/1 5/5/5
f 6/6/6 5/5/5 7/7/7
f 5/5/5 8/8/8 7/7/7
f 8/8/8 9/9/9 7/7/7
f 10/10/10 7/7/7 9/9/9
f 10/10/10 9/9/9 11/11/11
f 12/12/12 11/11/11 9/9/9
