mtllib SM_Stairs_02@000001EE27C7AB00.mtl
g SM_Stairs_02@000001EE27C7AB00
#Vertices 118
#Indices 546
#Section 0 Offset 0 NumIndices 546 MaterialIndex 0 MI_Base_01
v 2.836409 0.690430 0.013791 0.000000 0.094118 0.000000 1.000000
v 2.836409 0.690430 -0.261642 0.000000 0.478431 0.000000 1.000000
v 2.830792 0.515433 -0.261642 0.000000 0.517647 0.000000 1.000000
v 2.837071 -0.000000 0.013791 0.000000 0.094118 0.000000 1.000000
v 2.830792 0.515433 -0.546642 0.000000 0.298039 0.000000 1.000000
v 2.830792 0.340433 -0.546642 0.000000 0.172549 0.000000 1.000000
v 2.824087 0.165433 -0.831642 0.000000 0.329412 0.000000 1.000000
v 2.824351 0.340433 -0.831642 0.000000 0.494118 0.000000 1.000000
v 2.830792 -0.000000 -1.131642 0.000000 0.141176 0.000000 1.000000
v 2.830792 0.165433 -1.131642 0.000000 0.141176 0.000000 1.000000
v 0.007256 0.690430 0.013603 0.000000 0.000000 0.000000 1.000000
v -0.003918 0.515433 -0.261642 0.000000 0.000000 0.000000 1.000000
v 0.007256 0.690430 -0.261642 0.000000 0.000000 0.000000 1.000000
v -0.019989 0.000000 0.000000 0.000000 0.717647 0.000000 1.000000
v 0.000000 0.340433 -0.546642 0.000000 0.000000 0.000000 1.000000
v -0.003918 0.515433 -0.546642 0.000000 0.000000 0.000000 1.000000
v 0.012161 0.165433 -0.831642 0.000000 0.717647 0.000000 1.000000
v 0.000000 0.340433 -0.831642 0.000000 0.000000 0.000000 1.000000
v 0.009430 -0.000000 -1.131642 0.000000 0.717647 0.000000 1.000000
v 0.009430 0.165433 -1.131642 0.000000 0.000000 0.000000 1.000000
v 2.830792 0.165433 -1.131642 0.000000 0.141176 0.000000 1.000000
v 2.821225 -0.000000 -1.141209 0.000000 0.098039 0.000000 1.000000
v 2.830792 -0.000000 -1.131642 0.000000 0.141176 0.000000 1.000000
v 2.821225 0.165433 -1.141209 0.000000 0.098039 0.000000 1.000000
v 2.120668 -0.000000 -1.141209 0.000000 0.098039 0.000000 1.000000
v 2.821225 0.175000 -1.131642 0.000000 0.098039 0.000000 1.000000
v 2.120668 0.165433 -1.141209 0.000000 0.098039 0.000000 1.000000
v 2.814520 0.175000 -0.850776 0.000000 0.243137 0.000000 1.000000
v 2.824087 0.165433 -0.831642 0.000000 0.329412 0.000000 1.000000
v 2.120668 0.175000 -1.131642 0.000000 0.098039 0.000000 1.000000
v 2.814520 0.184567 -0.841209 0.000000 0.243137 0.000000 1.000000
v 2.824351 0.340433 -0.831642 0.000000 0.494118 0.000000 1.000000
v 2.116322 0.175000 -0.850776 0.000000 0.054902 0.105882 1.000000
v 1.420111 0.175000 -1.131642 0.000000 0.098039 0.000000 1.000000
v 1.420111 0.165433 -1.141209 0.000000 0.098039 0.000000 1.000000
v 1.420111 -0.000000 -1.141209 0.000000 0.098039 0.000000 1.000000
v 0.719554 0.165433 -1.141209 0.000000 0.717647 0.329412 1.000000
v 0.719554 -0.000000 -1.141209 0.000000 0.717647 0.211765 1.000000
v 1.418124 0.175000 -0.850776 0.000000 0.054902 0.364706 1.000000
v 0.018997 0.165433 -1.141209 0.000000 0.717647 0.000000 1.000000
v 0.018997 -0.000000 -1.141209 0.000000 0.717647 0.000000 1.000000
v 0.009430 -0.000000 -1.131642 0.000000 0.717647 0.000000 1.000000
v 0.009430 0.165433 -1.131642 0.000000 0.000000 0.000000 1.000000
v 0.719554 0.175000 -1.131642 0.000000 0.717647 0.392157 1.000000
v 0.018997 0.175000 -1.131642 0.000000 0.717647 0.000000 1.000000
v 0.021728 0.175000 -0.850776 0.000000 0.717647 0.000000 1.000000
v 0.012161 0.165433 -0.831642 0.000000 0.717647 0.000000 1.000000
v 0.719926 0.175000 -0.850776 0.000000 0.686275 0.568627 1.000000
v 0.021728 0.184567 -0.841209 0.000000 0.717647 0.000000 1.000000
v 0.000000 0.340433 -0.831642 0.000000 0.000000 0.000000 1.000000
v 0.719926 0.184567 -0.841209 0.000000 0.686275 0.556863 1.000000
v 1.418124 0.184567 -0.841209 0.000000 0.054902 0.356863 1.000000
v 2.116322 0.184567 -0.841209 0.000000 0.054902 0.133333 1.000000
v 1.412175 0.340433 -0.841209 0.000000 0.054902 0.396078 1.000000
v 2.814784 0.340433 -0.841209 0.000000 0.450980 0.000000 1.000000
v 2.113480 0.340433 -0.841209 0.000000 0.054902 0.117647 1.000000
v 2.814784 0.350000 -0.831642 0.000000 0.462745 0.000000 1.000000
v 2.113480 0.350000 -0.831642 0.000000 0.054902 0.121569 1.000000
v 1.412175 0.350000 -0.831642 0.000000 0.054902 0.349020 1.000000
v 2.821225 0.350000 -0.565776 0.000000 0.094118 0.000000 1.000000
v 2.830792 0.340433 -0.546642 0.000000 0.172549 0.000000 1.000000
v 2.118311 0.350000 -0.565776 0.000000 0.054902 0.000000 1.000000
v 2.821225 0.359567 -0.556209 0.000000 0.133333 0.000000 1.000000
v 2.830792 0.515433 -0.546642 0.000000 0.298039 0.000000 1.000000
v 2.118311 0.359567 -0.556209 0.000000 0.054902 0.000000 1.000000
v 1.415396 0.350000 -0.565776 0.000000 0.054902 0.333333 1.000000
v 1.415396 0.359567 -0.556209 0.000000 0.054902 0.388235 1.000000
v 2.821225 0.515433 -0.556208 0.000000 0.156863 0.000000 1.000000
v 2.117331 0.515433 -0.556208 0.000000 0.054902 0.000000 1.000000
v 2.821225 0.525000 -0.546642 0.000000 0.235294 0.000000 1.000000
v 2.117331 0.525000 -0.546642 0.000000 0.054902 0.000000 1.000000
v 2.821225 0.525000 -0.280776 0.000000 0.533333 0.000000 1.000000
v 2.830792 0.515433 -0.261642 0.000000 0.517647 0.000000 1.000000
v 1.413437 0.525000 -0.546642 0.000000 0.054902 0.419608 1.000000
v 2.821225 0.534567 -0.271209 0.000000 0.525490 0.000000 1.000000
v 2.836409 0.690430 -0.261642 0.000000 0.478431 0.000000 1.000000
v 2.117331 0.525000 -0.280776 0.000000 0.054902 0.000000 1.000000
v 2.117331 0.534567 -0.271209 0.000000 0.054902 0.000000 1.000000
v 2.826842 0.690430 -0.271209 0.000000 0.498039 0.000000 1.000000
v 2.124337 0.690430 -0.271209 0.000000 0.054902 0.000000 1.000000
v 2.826842 0.699997 -0.261642 0.000000 0.482353 0.000000 1.000000
v 2.836409 0.690430 0.013791 0.000000 0.094118 0.000000 1.000000
v 2.826842 0.699997 0.013791 0.000000 0.050980 0.000000 1.000000
v 2.124337 0.699997 0.013791 0.000000 0.345098 0.223529 1.000000
v 2.124337 0.699997 -0.261642 0.000000 0.054902 0.019608 1.000000
v 1.421833 0.699997 0.013791 0.000000 0.368627 0.223529 1.000000
v 1.421833 0.690430 -0.271209 0.000000 0.054902 0.054902 1.000000
v 1.421832 0.699997 -0.261642 0.000000 0.054902 0.054902 1.000000
v 0.719328 0.699997 0.013791 0.000000 0.329412 0.094118 1.000000
v 1.413437 0.534567 -0.271209 0.000000 0.054902 0.090196 1.000000
v 0.719328 0.690430 -0.271209 0.000000 0.717647 0.549020 1.000000
v 0.719328 0.699997 -0.261642 0.000000 0.717647 0.549020 1.000000
v 0.016823 0.699997 0.013791 0.000000 0.000000 0.000000 1.000000
v 1.413437 0.525000 -0.280776 0.000000 0.054902 0.160784 1.000000
v 0.016823 0.699997 -0.261642 0.000000 0.600000 0.000000 1.000000
v 0.007256 0.690430 0.013603 0.000000 0.000000 0.000000 1.000000
v 0.007256 0.690430 -0.261642 0.000000 0.000000 0.000000 1.000000
v 0.016823 0.690430 -0.271209 0.000000 0.600000 0.000000 1.000000
v 0.005649 0.534567 -0.271209 0.000000 0.600000 0.000000 1.000000
v -0.003918 0.515433 -0.261642 0.000000 0.000000 0.000000 1.000000
v 0.709543 0.534567 -0.271209 0.000000 0.717647 0.388235 1.000000
v 0.005649 0.525000 -0.280776 0.000000 0.643137 0.000000 1.000000
v -0.003918 0.515433 -0.546642 0.000000 0.000000 0.000000 1.000000
v 0.709543 0.525000 -0.280776 0.000000 0.717647 0.349020 1.000000
v 0.005649 0.525000 -0.546642 0.000000 0.717647 0.000000 1.000000
v 0.709543 0.525000 -0.546642 0.000000 0.619608 0.447059 1.000000
v 0.005649 0.515433 -0.556208 0.000000 0.717647 0.000000 1.000000
v 1.413437 0.515433 -0.556208 0.000000 0.054902 0.419608 1.000000
v 0.709543 0.515433 -0.556208 0.000000 0.537255 0.439216 1.000000
v 0.712481 0.359567 -0.556209 0.000000 0.568627 0.600000 1.000000
v 0.009567 0.359567 -0.556209 0.000000 0.717647 0.000000 1.000000
v 0.000000 0.340433 -0.546642 0.000000 0.000000 0.000000 1.000000
v 0.712481 0.350000 -0.565776 0.000000 0.725490 0.572549 1.000000
v 0.009567 0.350000 -0.565776 0.000000 0.717647 0.000000 1.000000
v 0.710871 0.350000 -0.831642 0.000000 0.666667 0.619608 1.000000
v 0.009567 0.350000 -0.831642 0.000000 0.717647 0.000000 1.000000
v 0.009567 0.340433 -0.841209 0.000000 0.717647 0.000000 1.000000
v 0.710871 0.340433 -0.841209 0.000000 0.690196 0.635294 1.000000
vt 0.876953 0.426758
vt 0.739746 0.426758
vt 0.739746 0.339355
vt 0.876953 0.082031
vt 0.597656 0.339355
vt 0.597656 0.251953
vt 0.455566 0.164551
vt 0.455566 0.251953
vt 0.305908 0.082031
vt 0.305908 0.164551
vt -0.120972 0.638184
vt 0.016434 0.550781
vt 0.016296 0.638428
vt -0.114075 0.293945
vt 0.158691 0.463379
vt 0.158569 0.550781
vt 0.300781 0.376465
vt 0.300781 0.463867
vt 0.450439 0.293945
vt 0.450439 0.376465
vt 1.181641 0.095215
vt 1.175781 0.011230
vt 1.182617 0.011719
vt 1.174805 0.093262
vt 0.825684 0.011230
vt 1.175781 0.098633
vt 0.825684 0.093262
vt 1.171875 0.239258
vt 1.180664 0.243652
vt 0.825684 0.098145
vt 1.171875 0.248535
vt 1.177734 0.329590
vt 0.823730 0.239258
vt 0.476318 0.098145
vt 0.476318 0.093262
vt 0.476318 0.011230
vt 0.126587 0.093262
vt 0.126587 0.011230
vt 0.475342 0.239258
vt -0.223022 0.092773
vt -0.223022 0.011230
vt -0.229980 0.011719
vt -0.229492 0.095215
vt 0.126587 0.098145
vt -0.223145 0.098145
vt -0.221436 0.239258
vt -0.229980 0.243652
vt 0.126953 0.239258
vt -0.221558 0.248535
vt -0.234375 0.329102
vt 0.126831 0.248535
vt 0.475342 0.248535
vt 0.823730 0.248535
vt 0.472168 0.326660
vt 1.171875 0.326660
vt 0.822266 0.326660
vt 1.171875 0.332031
vt 0.822266 0.332031
vt 0.472168 0.332031
vt 1.175781 0.465332
vt 1.184570 0.469727
vt 0.824707 0.465332
vt 1.175781 0.474121
vt 1.181641 0.555176
vt 0.825195 0.474121
vt 0.474121 0.465332
vt 0.474121 0.474121
vt 1.175781 0.552490
vt 0.824219 0.552490
vt 1.175781 0.557861
vt 0.824219 0.557861
vt 1.174805 0.691162
vt 1.183594 0.695801
vt 0.473145 0.557861
vt 1.174805 0.700195
vt 1.184570 0.781494
vt 0.824219 0.691162
vt 0.824219 0.700195
vt 1.177734 0.778564
vt 0.827637 0.778564
vt 1.177734 0.783936
vt 1.184570 0.920349
vt 1.177734 0.920654
vt 0.827148 0.920654
vt 0.827637 0.783936
vt 0.476807 0.920654
vt 0.476807 0.778564
vt 0.476807 0.783936
vt 0.126343 0.920654
vt 0.472900 0.700195
vt 0.126343 0.778564
vt 0.126343 0.783936
vt -0.224121 0.920654
vt 0.472900 0.691162
vt -0.224243 0.783936
vt -0.230835 0.920227
vt -0.230713 0.781494
vt -0.224243 0.778564
vt -0.229492 0.700195
vt -0.237915 0.695801
vt 0.121765 0.700195
vt -0.229370 0.691162
vt -0.236084 0.555176
vt 0.121826 0.691162
vt -0.229614 0.557861
vt 0.121704 0.557861
vt -0.229492 0.552490
vt 0.473145 0.552490
vt 0.121826 0.552490
vt 0.123413 0.474121
vt -0.227417 0.474121
vt -0.235840 0.469727
vt 0.123413 0.465332
vt -0.227295 0.465332
vt 0.122131 0.332031
vt -0.227905 0.332031
vt -0.227783 0.326660
vt 0.122192 0.326660
vt1 0.919922 0.487305
vt1 0.919922 0.576172
vt1 0.863281 0.576172
vt1 0.697266 0.487305
vt1 0.863281 0.667969
vt1 0.806641 0.667969
vt1 0.750488 0.759888
vt1 0.806641 0.759888
vt1 0.697266 0.856689
vt1 0.750488 0.856689
vt1 0.706055 0.076172
vt1 0.762695 0.165039
vt1 0.706055 0.164551
vt1 0.928711 0.080566
vt1 0.818848 0.256836
vt1 0.762695 0.256836
vt1 0.875488 0.348633
vt1 0.818848 0.348633
vt1 0.928711 0.445801
vt1 0.875488 0.445801
vt1 0.573242 0.958221
vt1 0.627930 0.954132
vt1 0.627930 0.958618
vt1 0.575195 0.954041
vt1 0.627930 0.728027
vt1 0.571777 0.954102
vt1 0.575195 0.728027
vt1 0.480713 0.951935
vt1 0.477783 0.957520
vt1 0.571777 0.728027
vt1 0.474609 0.951935
vt1 0.422363 0.955933
vt1 0.480713 0.726807
vt1 0.571777 0.501953
vt1 0.575195 0.501953
vt1 0.627930 0.501953
vt1 0.575195 0.275879
vt1 0.627930 0.275879
vt1 0.480713 0.501465
vt1 0.575195 0.049805
vt1 0.627930 0.049805
vt1 0.627930 0.045410
vt1 0.573242 0.045410
vt1 0.571777 0.275879
vt1 0.571777 0.049805
vt1 0.480713 0.050781
vt1 0.477783 0.045410
vt1 0.480713 0.276367
vt1 0.474609 0.050781
vt1 0.422363 0.042480
vt1 0.474609 0.275879
vt1 0.474609 0.501221
vt1 0.474609 0.726562
vt1 0.424072 0.499512
vt1 0.424072 0.951843
vt1 0.424072 0.725586
vt1 0.420654 0.951874
vt1 0.420654 0.725586
vt1 0.420654 0.499512
vt1 0.334473 0.954254
vt1 0.331543 0.959961
vt1 0.334473 0.727539
vt1 0.328613 0.954315
vt1 0.276123 0.958435
vt1 0.328613 0.727539
vt1 0.334473 0.500732
vt1 0.328613 0.500732
vt1 0.278076 0.954193
vt1 0.278076 0.727051
vt1 0.274414 0.954254
vt1 0.274414 0.727051
vt1 0.188477 0.954010
vt1 0.185425 0.959503
vt1 0.274414 0.500000
vt1 0.182495 0.954071
vt1 0.129883 0.959869
vt1 0.188477 0.727051
vt1 0.182495 0.727051
vt1 0.131836 0.955750
vt1 0.131836 0.729248
vt1 0.128418 0.955719
vt1 0.040192 0.960022
vt1 0.039978 0.955688
vt1 0.039978 0.729004
vt1 0.128418 0.729004
vt1 0.039978 0.502441
vt1 0.131836 0.502441
vt1 0.128418 0.502441
vt1 0.039978 0.275879
vt1 0.182495 0.500000
vt1 0.131836 0.275879
vt1 0.128418 0.275879
vt1 0.039978 0.049316
vt1 0.188477 0.500000
vt1 0.128418 0.048828
vt1 0.040253 0.044922
vt1 0.129883 0.044922
vt1 0.131836 0.048828
vt1 0.182495 0.045898
vt1 0.185425 0.040039
vt1 0.182495 0.272949
vt1 0.188477 0.045898
vt1 0.276123 0.041504
vt1 0.188477 0.272949
vt1 0.274414 0.045410
vt1 0.274414 0.272949
vt1 0.278076 0.045898
vt1 0.278076 0.500000
vt1 0.278076 0.272949
vt1 0.328613 0.273926
vt1 0.328613 0.046875
vt1 0.331543 0.041504
vt1 0.334473 0.273926
vt1 0.334473 0.046875
vt1 0.420654 0.272949
vt1 0.420654 0.046875
vt1 0.424072 0.046875
vt1 0.424072 0.272949
vn 1.000000 0.015748 -0.015748
vn 1.000000 0.023622 -0.031496
vn 1.000000 0.007874 -0.015748
vn 1.000000 0.007874 -0.015748
vn 1.000000 0.047244 -0.031496
vn 1.000000 -0.000000 -0.015748
vn 1.000000 0.031496 -0.007874
vn 1.000000 0.047244 -0.047244
vn 1.000000 0.031496 -0.015748
vn 1.000000 0.047244 -0.007874
vn -1.000000 0.062992 0.015748
vn -1.000000 0.031496 -0.007874
vn -0.992126 0.110236 -0.031496
vn -1.000000 0.023622 -0.015748
vn -1.000000 -0.000000 -0.031496
vn -1.000000 0.023622 -0.031496
vn -1.000000 0.039370 -0.023622
vn -1.000000 -0.015748 -0.031496
vn -1.000000 0.039370 -0.031496
vn -1.000000 0.047244 -0.023622
vn 1.000000 0.047244 -0.007874
vn 0.015748 -0.000000 -1.000000
vn 1.000000 0.031496 -0.015748
vn 0.015748 0.055118 -1.000000
vn 0.000000 -0.000000 -1.000000
vn 0.015748 1.000000 -0.031496
vn 0.000000 0.055118 -1.000000
vn 0.023622 1.000000 -0.031496
vn 1.000000 0.031496 -0.007874
vn 0.000000 1.000000 -0.031496
vn 0.023622 0.055118 -1.000000
vn 1.000000 0.047244 -0.047244
vn 0.000000 1.000000 -0.031496
vn 0.000000 1.000000 -0.031496
vn 0.000000 0.055118 -1.000000
vn 0.000000 -0.000000 -1.000000
vn 0.000000 0.055118 -1.000000
vn 0.000000 -0.000000 -1.000000
vn 0.000000 1.000000 -0.031496
vn -0.015748 0.055118 -1.000000
vn -0.015748 -0.000000 -1.000000
vn -1.000000 0.039370 -0.031496
vn -1.000000 0.047244 -0.023622
vn 0.000000 1.000000 -0.031496
vn -0.015748 1.000000 -0.031496
vn -0.023622 1.000000 -0.031496
vn -1.000000 0.039370 -0.023622
vn 0.000000 1.000000 -0.031496
vn -0.023622 0.055118 -1.000000
vn -1.000000 -0.015748 -0.031496
vn 0.000000 0.055118 -1.000000
vn 0.000000 0.055118 -1.000000
vn 0.000000 0.055118 -1.000000
vn 0.000000 0.055118 -1.000000
vn 0.015748 0.055118 -1.000000
vn 0.000000 0.055118 -1.000000
vn 0.015748 1.000000 -0.031496
vn 0.000000 1.000000 -0.031496
vn 0.000000 1.000000 -0.031496
vn 0.023622 1.000000 -0.031496
vn 1.000000 -0.000000 -0.015748
vn 0.000000 1.000000 -0.031496
vn 0.023622 0.055118 -1.000000
vn 1.000000 0.047244 -0.031496
vn 0.000000 0.055118 -1.000000
vn 0.000000 1.000000 -0.031496
vn 0.000000 0.055118 -1.000000
vn 0.015748 0.055118 -1.000000
vn 0.000000 0.055118 -1.000000
vn 0.015748 1.000000 -0.031496
vn 0.000000 1.000000 -0.031496
vn 0.023622 1.000000 -0.031496
vn 1.000000 0.007874 -0.015748
vn 0.000000 1.000000 -0.031496
vn 0.023622 0.055118 -1.000000
vn 1.000000 0.023622 -0.031496
vn 0.000000 1.000000 -0.031496
vn 0.000000 0.055118 -1.000000
vn 0.015748 0.055118 -1.000000
vn 0.000000 0.055118 -1.000000
vn 0.015748 1.000000 -0.031496
vn 1.000000 0.015748 -0.015748
vn 0.015748 1.000000 -0.000000
vn 0.000000 1.000000 -0.000000
vn 0.000000 1.000000 -0.031496
vn 0.000000 1.000000 -0.000000
vn 0.000000 0.055118 -1.000000
vn 0.000000 1.000000 -0.031496
vn 0.000000 1.000000 -0.000000
vn 0.000000 0.055118 -1.000000
vn 0.000000 0.055118 -1.000000
vn 0.000000 1.000000 -0.031496
vn -0.015748 1.000000 -0.000000
vn 0.000000 1.000000 -0.031496
vn -0.015748 1.000000 -0.031496
vn -1.000000 0.062992 0.015748
vn -0.992126 0.110236 -0.031496
vn -0.015748 0.055118 -1.000000
vn -0.023622 0.062992 -1.000000
vn -1.000000 0.031496 -0.007874
vn 0.000000 0.055118 -1.000000
vn -0.023622 1.000000 -0.031496
vn -1.000000 0.023622 -0.031496
vn 0.000000 1.000000 -0.031496
vn -0.015748 1.000000 -0.031496
vn 0.000000 1.000000 -0.031496
vn -0.015748 0.055118 -1.000000
vn 0.000000 0.055118 -1.000000
vn 0.000000 0.055118 -1.000000
vn 0.000000 0.055118 -1.000000
vn -0.023622 0.055118 -1.000000
vn -1.000000 -0.000000 -0.031496
vn 0.000000 1.000000 -0.031496
vn -0.023622 1.000000 -0.031496
vn 0.000000 1.000000 -0.031496
vn -0.015748 1.000000 -0.031496
vn -0.015748 0.062992 -1.000000
vn 0.000000 0.055118 -1.000000
tan 0.015748 -1.000248 -0.000248 1.000000
tan 0.023622 -1.000992 -0.000744 1.000000
tan 0.007874 -1.000248 -0.000124 1.000000
tan 0.007874 -1.000248 -0.000124 1.000000
tan 0.047244 -1.000992 -0.001488 1.000000
tan 0.000000 -1.000248 0.000000 1.000000
tan 0.031496 -1.000062 -0.000248 1.000000
tan 0.047244 -1.002232 -0.002232 1.000000
tan 0.031496 -1.000248 -0.000496 1.000000
tan 0.047244 -1.000062 -0.000372 1.000000
tan -0.062992 -1.000248 0.000992 1.000000
tan -0.031496 -1.000062 -0.000248 1.000000
tan -0.110236 -0.993118 -0.003472 1.000000
tan -0.023622 -1.000248 -0.000372 1.000000
tan 0.000000 -1.000992 0.000000 1.000000
tan -0.023622 -1.000992 -0.000744 1.000000
tan -0.039370 -1.000558 -0.000930 1.000000
tan 0.015748 -1.000992 0.000496 1.000000
tan -0.039370 -1.000992 -0.001240 1.000000
tan -0.047244 -1.000558 -0.001116 1.000000
tan 0.029264 -0.732593 -0.679025 1.000000
tan -0.047244 -1.000248 -0.000744 1.000000
tan 0.029512 -0.992374 -0.110732 1.000000
tan -0.204724 -0.976378 -0.057040 1.000000
tan 0.000000 -1.000000 0.000000 1.000000
tan 0.251720 -0.034472 -0.968628 1.000000
tan 0.000000 -1.000000 -0.055118 1.000000
tan 0.385579 -0.038130 -0.921446 1.000000
tan 0.016430 -0.701035 -0.717527 1.000000
tan 0.000000 -0.031496 -1.000000 1.000000
tan -0.377953 -0.921260 -0.059706 1.000000
tan 0.000372 -0.712009 -0.704135 1.000000
tan 0.000000 -0.031496 -1.000000 1.000000
tan 0.000000 -0.031496 -1.000000 1.000000
tan 0.000000 -1.000000 -0.055118 1.000000
tan 0.000000 -1.000000 0.000000 1.000000
tan 0.000000 -1.000000 -0.055118 1.000000
tan 0.000000 -1.000000 0.000000 1.000000
tan 0.000000 -0.031496 -1.000000 1.000000
tan 0.196850 -0.984252 -0.057350 1.000000
tan 0.039370 -1.000248 -0.000620 1.000000
tan -0.035092 -0.993118 -0.127224 1.000000
tan -0.019158 -0.741273 -0.671523 1.000000
tan 0.000000 -0.031496 -1.000000 1.000000
tan -0.251720 -0.034472 -0.968628 1.000000
tan -0.393453 -0.038316 -0.921446 1.000000
tan -0.011346 -0.709777 -0.702647 1.000000
tan 0.000000 -0.031496 -1.000000 1.000000
tan 0.354331 -0.937008 -0.060016 1.000000
tan 0.032860 -0.732531 -0.677041 1.000000
tan 0.000000 -1.000000 -0.055118 1.000000
tan 0.000000 -1.000000 -0.055118 1.000000
tan 0.000000 -1.000000 -0.055118 1.000000
tan 0.000000 -1.000000 -0.055118 1.000000
tan -0.220472 -0.976378 -0.057288 1.000000
tan 0.000000 -1.000000 -0.055118 1.000000
tan 0.228098 -0.034348 -0.976502 1.000000
tan 0.000000 -0.031496 -1.000000 1.000000
tan 0.000000 -0.031496 -1.000000 1.000000
tan 0.401327 -0.038254 -0.913572 1.000000
tan -0.011036 -0.716659 -0.700787 1.000000
tan 0.000000 -0.031496 -1.000000 1.000000
tan -0.377953 -0.921260 -0.059706 1.000000
tan 0.010168 -0.694649 -0.719139 1.000000
tan 0.000000 -1.000000 -0.055118 1.000000
tan 0.000000 -0.031496 -1.000000 1.000000
tan 0.000000 -1.000000 -0.055118 1.000000
tan -0.220472 -0.976378 -0.057288 1.000000
tan 0.000000 -1.000000 -0.055118 1.000000
tan 0.228098 -0.034348 -0.976502 1.000000
tan 0.000000 -0.031496 -1.000000 1.000000
tan 0.385579 -0.038130 -0.921446 1.000000
tan -0.005580 -0.708909 -0.708785 1.000000
tan 0.000000 -0.031496 -1.000000 1.000000
tan -0.370079 -0.929134 -0.059954 1.000000
tan -0.007936 -0.662409 -0.748775 1.000000
tan 0.000000 -0.031496 -1.000000 1.000000
tan 0.000000 -1.000000 -0.055118 1.000000
tan -0.251969 -0.968504 -0.057350 1.000000
tan 0.000000 -1.000000 -0.055118 1.000000
tan 0.204476 -0.033976 -0.976502 1.000000
tan -0.014136 -0.094736 -0.992374 1.000000
tan 0.031496 -0.000496 -1.000248 1.000000
tan 0.000000 -0.000000 -1.000000 1.000000
tan 0.000000 -0.031496 -1.000000 1.000000
tan 0.000000 -0.000000 -1.000000 1.000000
tan 0.000000 -1.000000 -0.055118 1.000000
tan 0.000000 -0.031496 -1.000000 1.000000
tan 0.000000 -0.000000 -1.000000 1.000000
tan 0.000000 -1.000000 -0.055118 1.000000
tan 0.000000 -1.000000 -0.055118 1.000000
tan 0.000000 -0.031496 -1.000000 1.000000
tan -0.031496 -0.000496 -1.000248 1.000000
tan 0.000000 -0.031496 -1.000000 1.000000
tan -0.204476 -0.033976 -0.976502 1.000000
tan -0.019716 -0.062000 -1.003968 1.000000
tan -0.044020 -0.620373 -0.784673 1.000000
tan 0.236220 -0.968504 -0.057102 1.000000
tan 0.401575 -0.913386 -0.067022 1.000000
tan -0.016182 -0.693099 -0.717279 1.000000
tan 0.000000 -1.000000 -0.055118 1.000000
tan -0.385579 -0.038130 -0.921446 1.000000
tan 0.005332 -0.709901 -0.701717 1.000000
tan 0.000000 -0.031496 -1.000000 1.000000
tan -0.228098 -0.034348 -0.976502 1.000000
tan 0.000000 -0.031496 -1.000000 1.000000
tan 0.220472 -0.976378 -0.057288 1.000000
tan 0.000000 -1.000000 -0.055118 1.000000
tan 0.000000 -1.000000 -0.055118 1.000000
tan 0.000000 -1.000000 -0.055118 1.000000
tan 0.377953 -0.929134 -0.060140 1.000000
tan 0.021824 -0.717279 -0.692913 1.000000
tan 0.000000 -0.031496 -1.000000 1.000000
tan -0.393453 -0.038316 -0.921446 1.000000
tan 0.000000 -0.031496 -1.000000 1.000000
tan -0.228098 -0.034348 -0.976502 1.000000
tan 0.228346 -0.976378 -0.065100 1.000000
tan 0.000000 -1.000000 -0.055118 1.000000
f 3/3/3 2/2/2 1/1/1
f 3/3/3 1/1/1 4/4/4
f 6/6/6 5/5/5 3/3/3
f 3/3/3 4/4/4 6/6/6
f 6/6/6 4/4/4 7/7/7
f 7/7/7 8/8/8 6/6/6
f 7/7/7 4/4/4 9/9/9
f 9/9/9 10/10/10 7/7/7
f 13/13/13 12/12/12 11/11/11
f 12/12/12 14/14/14 11/11/11
f 16/16/16 15/15/15 12/12/12
f 15/15/15 14/14/14 12/12/12
f 15/15/15 17/17/17 14/14/14
f 18/18/18 17/17/17 15/15/15
f 17/17/17 19/19/19 14/14/14
f 20/20/20 19/19/19 17/17/17
f 23/23/23 22/22/22 21/21/21
f 21/21/21 22/22/22 24/24/24
f 22/22/22 25/25/25 24/24/24
f 26/26/26 21/21/21 24/24/24
f 25/25/25 27/27/27 24/24/24
f 21/21/21 26/26/26 28/28/28
f 28/28/28 29/29/29 21/21/21
f 24/24/24 30/30/30 26/26/26
f 26/26/26 30/30/30 28/28/28
f 30/30/30 24/24/24 27/27/27
f 29/29/29 28/28/28 31/31/31
f 31/31/31 32/32/32 29/29/29
f 30/30/30 33/33/33 28/28/28
f 28/28/28 33/33/33 31/31/31
f 27/27/27 34/34/34 30/30/30
f 30/30/30 34/34/34 33/33/33
f 25/25/25 35/35/35 27/27/27
f 34/34/34 27/27/27 35/35/35
f 35/35/35 25/25/25 36/36/36
f 36/36/36 37/37/37 35/35/35
f 35/35/35 37/37/37 34/34/34
f 37/37/37 36/36/36 38/38/38
f 34/34/34 39/39/39 33/33/33
f 38/38/38 40/40/40 37/37/37
f 40/40/40 38/38/38 41/41/41
f 41/41/41 42/42/42 40/40/40
f 40/40/40 42/42/42 43/43/43
f 44/44/44 34/34/34 37/37/37
f 37/37/37 40/40/40 44/44/44
f 34/34/34 44/44/44 39/39/39
f 40/40/40 43/43/43 45/45/45
f 45/45/45 44/44/44 40/40/40
f 45/45/45 43/43/43 46/46/46
f 46/46/46 44/44/44 45/45/45
f 46/46/46 43/43/43 47/47/47
f 48/48/48 39/39/39 44/44/44
f 44/44/44 46/46/46 48/48/48
f 49/49/49 46/46/46 47/47/47
f 49/49/49 47/47/47 50/50/50
f 48/48/48 46/46/46 51/51/51
f 49/49/49 51/51/51 46/46/46
f 39/39/39 48/48/48 52/52/52
f 51/51/51 52/52/52 48/48/48
f 33/33/33 39/39/39 53/53/53
f 52/52/52 53/53/53 39/39/39
f 53/53/53 31/31/31 33/33/33
f 52/52/52 51/51/51 54/54/54
f 31/31/31 53/53/53 55/55/55
f 32/32/32 31/31/31 55/55/55
f 53/53/53 52/52/52 56/56/56
f 53/53/53 56/56/56 55/55/55
f 52/52/52 54/54/54 56/56/56
f 57/57/57 32/32/32 55/55/55
f 58/58/58 55/55/55 56/56/56
f 55/55/55 58/58/58 57/57/57
f 59/59/59 56/56/56 54/54/54
f 56/56/56 59/59/59 58/58/58
f 32/32/32 57/57/57 60/60/60
f 60/60/60 61/61/61 32/32/32
f 58/58/58 62/62/62 57/57/57
f 60/60/60 57/57/57 62/62/62
f 61/61/61 60/60/60 63/63/63
f 63/63/63 64/64/64 61/61/61
f 62/62/62 65/65/65 60/60/60
f 63/63/63 60/60/60 65/65/65
f 58/58/58 66/66/66 62/62/62
f 66/66/66 58/58/58 59/59/59
f 65/65/65 62/62/62 67/67/67
f 66/66/66 67/67/67 62/62/62
f 63/63/63 65/65/65 68/68/68
f 64/64/64 63/63/63 68/68/68
f 65/65/65 67/67/67 69/69/69
f 65/65/65 69/69/69 68/68/68
f 70/70/70 64/64/64 68/68/68
f 71/71/71 68/68/68 69/69/69
f 68/68/68 71/71/71 70/70/70
f 64/64/64 70/70/70 72/72/72
f 70/70/70 71/71/71 72/72/72
f 72/72/72 73/73/73 64/64/64
f 69/69/69 74/74/74 71/71/71
f 75/75/75 73/73/73 72/72/72
f 75/75/75 76/76/76 73/73/73
f 77/77/77 72/72/72 71/71/71
f 71/71/71 74/74/74 77/77/77
f 72/72/72 78/78/78 75/75/75
f 78/78/78 72/72/72 77/77/77
f 76/76/76 75/75/75 79/79/79
f 79/79/79 75/75/75 80/80/80
f 78/78/78 80/80/80 75/75/75
f 81/81/81 76/76/76 79/79/79
f 79/79/79 80/80/80 81/81/81
f 76/76/76 81/81/81 82/82/82
f 82/82/82 81/81/81 83/83/83
f 83/83/83 81/81/81 84/84/84
f 85/85/85 84/84/84 81/81/81
f 85/85/85 81/81/81 80/80/80
f 85/85/85 86/86/86 84/84/84
f 80/80/80 87/87/87 85/85/85
f 78/78/78 87/87/87 80/80/80
f 86/86/86 85/85/85 88/88/88
f 88/88/88 85/85/85 87/87/87
f 88/88/88 89/89/89 86/86/86
f 87/87/87 78/78/78 90/90/90
f 77/77/77 90/90/90 78/78/78
f 87/87/87 91/91/91 88/88/88
f 90/90/90 91/91/91 87/87/87
f 89/89/89 88/88/88 92/92/92
f 92/92/92 88/88/88 91/91/91
f 92/92/92 93/93/93 89/89/89
f 90/90/90 77/77/77 94/94/94
f 94/94/94 77/77/77 74/74/74
f 93/93/93 92/92/92 95/95/95
f 93/93/93 95/95/95 96/96/96
f 97/97/97 96/96/96 95/95/95
f 95/95/95 92/92/92 98/98/98
f 98/98/98 97/97/97 95/95/95
f 91/91/91 98/98/98 92/92/92
f 98/98/98 99/99/99 97/97/97
f 99/99/99 100/100/100 97/97/97
f 101/101/101 98/98/98 91/91/91
f 91/91/91 90/90/90 101/101/101
f 98/98/98 101/101/101 99/99/99
f 94/94/94 101/101/101 90/90/90
f 102/102/102 100/100/100 99/99/99
f 102/102/102 103/103/103 100/100/100
f 104/104/104 99/99/99 101/101/101
f 99/99/99 104/104/104 102/102/102
f 101/101/101 94/94/94 104/104/104
f 102/102/102 104/104/104 105/105/105
f 105/105/105 103/103/103 102/102/102
f 104/104/104 94/94/94 106/106/106
f 106/106/106 105/105/105 104/104/104
f 74/74/74 106/106/106 94/94/94
f 107/107/107 103/103/103 105/105/105
f 108/108/108 106/106/106 74/74/74
f 74/74/74 69/69/69 108/108/108
f 108/108/108 69/69/69 67/67/67
f 109/109/109 105/105/105 106/106/106
f 106/106/106 108/108/108 109/109/109
f 105/105/105 109/109/109 107/107/107
f 67/67/67 110/110/110 108/108/108
f 110/110/110 109/109/109 108/108/108
f 67/67/67 66/66/66 110/110/110
f 111/111/111 107/107/107 109/109/109
f 110/110/110 111/111/111 109/109/109
f 107/107/107 111/111/111 103/103/103
f 111/111/111 112/112/112 103/103/103
f 113/113/113 110/110/110 66/66/66
f 110/110/110 113/113/113 111/111/111
f 59/59/59 113/113/113 66/66/66
f 111/111/111 114/114/114 112/112/112
f 114/114/114 111/111/111 113/113/113
f 114/114/114 50/50/50 112/112/112
f 113/113/113 59/59/59 115/115/115
f 115/115/115 114/114/114 113/113/113
f 54/54/54 115/115/115 59/59/59
f 116/116/116 50/50/50 114/114/114
f 114/114/114 115/115/115 116/116/116
f 117/117/117 50/50/50 116/116/116
f 117/117/117 49/49/49 50/50/50
f 118/118/118 116/116/116 115/115/115
f 116/116/116 118/118/118 117/117/117
f 115/115/115 54/54/54 118/118/118
f 49/49/49 117/117/117 118/118/118
f 51/51/51 118/118/118 54/54/54
f 51/51/51 49/49/49 118/118/118
