mtllib SM_Sticker_31.mtl
g SM_Sticker_31
#Vertices 18
#Indices 48
#Section 0 Offset 0 NumIndices 48 MaterialIndex 0 MI_Posters_01
v 0.095433 0.015746 -0.000000
v 0.073661 -0.004692 0.000000
v 0.094100 0.006194 -0.000000
v 0.000000 0.000000 0.000000
v 0.078889 0.181928 -0.000000
v 0.147640 0.014313 -0.000000
v 0.003380 0.133645 -0.000000
v 0.149640 0.131713 -0.000000
v -0.041634 0.178485 -0.000000
v -0.016100 0.125005 -0.000000
v 0.007352 0.211031 -0.000000
v 0.065337 0.186705 -0.000000
v 0.049341 0.211919 -0.000000
v 0.091553 0.188260 -0.000000
v 0.150306 0.209690 -0.000000
v 0.107659 0.210809 -0.000000
v 0.197182 0.177255 -0.000000
v 0.169412 0.122160 -0.000000
vt 0.659668 0.017578
vt 0.648926 0.007812
vt 0.658691 0.013184
vt 0.612793 0.010254
vt 0.651367 0.098633
vt 0.685059 0.017090
vt 0.614746 0.075195
vt 0.686035 0.074219
vt 0.592285 0.097168
vt 0.604980 0.071289
vt 0.616211 0.113281
vt 0.644531 0.101074
vt 0.636719 0.113281
vt 0.657715 0.102051
vt 0.686035 0.112305
vt 0.665527 0.112793
vt 0.708984 0.096680
vt 0.695801 0.069824
vt1 0.557617 0.213379
vt1 0.486328 0.146484
vt1 0.553223 0.182129
vt1 0.245972 0.161621
vt1 0.503418 0.755859
vt1 0.728027 0.208496
vt1 0.256836 0.598145
vt1 0.734375 0.591797
vt1 0.109985 0.744629
vt1 0.193359 0.570068
vt1 0.269775 0.850952
vt1 0.459229 0.771484
vt1 0.406982 0.853760
vt1 0.544922 0.776489
vt1 0.736816 0.846558
vt1 0.597168 0.850220
vt1 0.889648 0.740723
vt1 0.798828 0.560791
vn 0.000000 -0.000000 -1.000000
vn 0.000000 -0.000000 -1.000000
vn 0.000000 -0.000000 -1.000000
vn 0.000000 -0.000000 -1.000000
vn 0.000000 -0.000000 -1.000000
vn 0.000000 -0.000000 -1.000000
vn 0.000000 -0.000000 -1.000000
vn 0.000000 -0.000000 -1.000000
vn 0.000000 -0.000000 -1.000000
vn 0.000000 -0.000000 -1.000000
vn 0.000000 -0.000000 -1.000000
vn 0.000000 -0.000000 -1.000000
vn 0.000000 -0.000000 -1.000000
vn 0.000000 -0.000000 -1.000000
vn 0.000000 -0.000000 -1.000000
vn 0.000000 -0.000000 -1.000000
vn 0.000000 -0.000000 -1.000000
vn 0.000000 -0.000000 -1.000000
tan 0.000000 -1.000000 0.000000 1.000000
tan 0.000000 -1.000000 0.000000 1.000000
tan 0.000000 -1.000000 0.000000 1.000000
tan 0.000000 -1.000000 0.000000 1.000000
tan 0.000000 -1.000000 0.000000 1.000000
tan 0.000000 -1.000000 0.000000 1.000000
tan 0.000000 -1.000000 0.000000 1.000000
tan 0.000000 -1.000000 0.000000 1.000000
tan 0.000000 -1.000000 0.000000 1.000000
tan 0.000000 -1.000000 0.000000 1.000000
tan 0.000000 -1.000000 0.000000 1.000000
tan 0.000000 -1.000000 0.000000 1.000000
tan 0.000000 -1.000000 0.000000 1.000000
tan 0.000000 -1.000000 0.000000 1.000000
tan 0.000000 -1.000000 0.000000 1.000000
tan 0.000000 -1.000000 0.000000 1.000000
tan 0.000000 -1.000000 0.000000 1.000000
tan 0.000000 -1.000000 0.000000 1.000000
f 3/3/3 2/2/2 1/1/1
f 2/2/2 4/4/4 1/1/1
f 5/5/5 1/1/1 4/4/4
f 5/5/5 6/6/6 1/1/1
f 7/7/7 5/5/5 4/4/4
f 8/8/8 6/6/6 5/5/5
f 10/10/10 9/9/9 7/7/7
f 11/11/11 7/7/7 9/9/9
f 12/12/12 5/5/5 7/7/7
f 12/12/12 7/7/7 11/11/11
f 13/13/13 12/12/12 11/11/11
f 14/14/14 8/8/8 5/5/5
f 16/16/16 15/15/15 14/14/14
f 14/14/14 15/15/15 8/8/8
f 8/8/8 15/15/15 17/17/17
f 18/18/18 8/8/8 17/17/17
