mtllib SM_Salt_shaker_01_LOD1.mtl
g SM_Salt_shaker_01_LOD1
#Vertices 171
#Indices 690
#Section 0 Offset 0 NumIndices 690 MaterialIndex 0 MI_Small_Props_01
v 0.010988 0.063360 -0.013084
v 0.017660 0.063360 -0.013084
v 0.003694 0.063360 -0.006509
v 0.017660 0.063360 0.013084
v 0.003694 0.063360 0.006509
v 0.010988 0.063360 0.013084
v -0.019118 0.000876 -0.014541
v -0.017660 -0.000000 -0.013084
v -0.017660 0.000488 -0.014549
v -0.019125 0.000488 -0.013084
v 0.017660 0.000488 -0.014549
v -0.017660 0.000000 0.013084
v -0.019125 0.000488 0.013084
v -0.018881 0.000732 0.014305
v -0.017660 0.000488 0.014549
v 0.017660 -0.000000 -0.013084
v 0.019118 0.000876 -0.014541
v 0.019125 0.000488 -0.013084
v 0.019125 0.000488 0.013084
v 0.017660 0.000000 0.013084
v 0.017660 0.000488 0.014549
v 0.019118 0.000876 0.014541
v -0.018285 0.056666 0.013921
v -0.016491 0.056666 0.014477
v -0.017458 0.055941 0.014794
v -0.019122 0.055161 0.014565
v 0.016491 0.056666 0.014477
v -0.017693 0.054739 0.015083
v -0.019125 0.001953 0.014549
v 0.017458 0.055941 0.014794
v 0.018285 0.056666 0.013921
v 0.017660 0.054737 0.015088
v -0.017660 0.001953 0.015037
v -0.018881 0.000732 0.014305
v -0.017660 0.000488 0.014549
v 0.017660 0.000488 0.014549
v 0.017660 0.001953 0.015037
v 0.019118 0.000876 0.014541
v 0.019136 0.054837 0.014567
v 0.019641 0.054852 0.013088
v 0.019265 0.056048 0.012915
v 0.018883 0.056666 0.012255
v 0.018883 0.056666 -0.012255
v 0.019614 0.001953 0.013084
v 0.019125 0.000488 0.013084
v 0.019125 0.000488 -0.013084
v 0.019265 0.056048 -0.012915
v 0.019614 0.001953 -0.013084
v 0.018285 0.056666 -0.013921
v 0.019118 0.000876 -0.014541
v 0.019642 0.054852 -0.013084
v 0.019136 0.054838 -0.014567
v 0.017693 0.054739 -0.015083
v 0.017458 0.055941 -0.014794
v 0.016491 0.056666 -0.014477
v -0.016491 0.056666 -0.014477
v 0.017660 0.001953 -0.015037
v 0.017660 0.000488 -0.014549
v -0.017660 0.000488 -0.014549
v -0.017458 0.055941 -0.014794
v -0.017660 0.001953 -0.015037
v -0.018285 0.056666 -0.013921
v -0.019118 0.000876 -0.014541
v -0.017660 0.054737 -0.015088
v -0.019136 0.054837 -0.014567
v -0.019641 0.054852 -0.013088
v -0.019265 0.056048 -0.012915
v -0.018883 0.056666 -0.012255
v -0.018883 0.056666 0.012255
v -0.019614 0.001953 -0.013084
v -0.019125 0.000488 -0.013084
v -0.019125 0.000488 0.013084
v -0.019265 0.056048 0.012915
v -0.018285 0.056666 0.013921
v -0.019122 0.055161 0.014565
v -0.019642 0.054852 0.013084
v -0.019125 0.001953 0.014549
v -0.019614 0.001953 0.013084
v -0.018881 0.000732 0.014305
v -0.017660 0.063918 0.013084
v -0.019024 0.063070 0.014454
v -0.019125 0.063274 0.013084
v -0.017660 0.063430 0.014549
v -0.019281 0.063348 -0.013165
v 0.010988 0.063918 0.013084
v 0.017660 0.063430 0.014549
v -0.017660 0.063918 -0.013084
v -0.019024 0.063070 -0.014453
v -0.017660 0.063430 -0.014549
v 0.003694 0.063918 0.006509
v 0.010988 0.063918 -0.013084
v 0.017660 0.063430 -0.014549
v 0.003694 0.063918 -0.006509
v 0.003694 0.063360 0.006509
v 0.003694 0.063360 -0.006509
v 0.010988 0.063360 0.013084
v 0.010988 0.063360 -0.013084
v 0.017660 0.063360 -0.013084
v 0.017660 0.063918 0.013084
v 0.018989 0.063354 0.014397
v 0.019125 0.063274 0.013084
v 0.017660 0.063360 0.013084
v 0.019125 0.063274 -0.013084
v 0.017660 0.063918 -0.013084
v 0.019039 0.063096 -0.014450
v 0.019265 0.057283 -0.012915
v 0.018285 0.056666 -0.013921
v 0.018883 0.056666 -0.012255
v 0.018883 0.056666 0.012255
v 0.019070 0.058038 -0.014524
v 0.019265 0.057283 0.012915
v 0.018285 0.056666 0.013921
v 0.019637 0.058480 -0.013087
v 0.019039 0.063096 -0.014450
v 0.019638 0.058480 0.013084
v 0.019614 0.061965 -0.013084
v 0.019125 0.063274 -0.013084
v 0.019614 0.061965 0.013084
v 0.019125 0.063274 0.013084
v 0.018989 0.063354 0.014397
v 0.019138 0.058395 0.014581
v 0.017692 0.058593 0.015075
v 0.017458 0.057391 0.014794
v 0.016491 0.056666 0.014477
v -0.016491 0.056666 0.014477
v 0.017660 0.061965 0.015037
v 0.017660 0.063430 0.014549
v -0.017660 0.063430 0.014549
v -0.017458 0.057391 0.014794
v -0.018285 0.056666 0.013921
v -0.017660 0.061965 0.015037
v -0.019024 0.063070 0.014454
v -0.017660 0.058595 0.015081
v -0.019139 0.058398 0.014581
v -0.019637 0.058480 0.013087
v -0.019265 0.057283 0.012915
v -0.018883 0.056666 0.012255
v -0.018883 0.056666 -0.012255
v -0.019614 0.061965 0.013084
v -0.019125 0.063274 0.013084
v -0.019281 0.063348 -0.013165
v -0.019638 0.058480 -0.013084
v -0.019024 0.063070 -0.014453
v -0.019265 0.057283 -0.012915
v -0.018285 0.056666 -0.013921
v -0.019138 0.058395 -0.014581
v -0.017458 0.057391 -0.014794
v -0.016491 0.056666 -0.014477
v 0.016491 0.056666 -0.014477
v -0.017692 0.058593 -0.015076
v 0.017458 0.057391 -0.014794
v 0.018285 0.056666 -0.013921
v 0.019070 0.058038 -0.014524
v 0.017660 0.058595 -0.015081
v 0.019039 0.063096 -0.014450
v -0.017660 0.061965 -0.015037
v -0.017660 0.063430 -0.014549
v 0.017660 0.063430 -0.014549
v 0.017660 0.061965 -0.015037
v 0.000669 0.064054 0.003611
v -0.002537 0.063933 0.003228
v -0.001068 0.065096 0.001828
v -0.004411 0.064013 0.001329
v 0.001174 0.065184 -0.000053
v 0.002716 0.063931 0.001367
v 0.002663 0.063932 -0.001565
v -0.002507 0.065127 -0.000546
v -0.004032 0.063949 -0.001790
v -0.002218 0.063931 -0.003496
v -0.000193 0.065033 -0.002291
v 0.000905 0.063805 -0.003141
vt 0.740234 0.675781
vt 0.740234 0.671875
vt 0.744141 0.680176
vt 0.755859 0.671875
vt 0.751953 0.680176
vt 0.755859 0.675781
vt 0.811035 0.891357
vt 0.810059 0.892273
vt 0.810059 0.891357
vt 0.811035 0.892212
vt 0.789551 0.891357
vt 0.810059 0.907593
vt 0.811035 0.907654
vt 0.811035 0.908386
vt 0.810059 0.908508
vt 0.789551 0.892273
vt 0.788574 0.891357
vt 0.788574 0.892212
vt 0.788574 0.907654
vt 0.789551 0.907593
vt 0.789551 0.908508
vt 0.788574 0.908508
vt 0.459229 0.964142
vt 0.458008 0.964050
vt 0.458740 0.963562
vt 0.459717 0.963135
vt 0.438721 0.964050
vt 0.458740 0.962860
vt 0.459961 0.932068
vt 0.438232 0.963470
vt 0.437256 0.963898
vt 0.438232 0.962708
vt 0.458984 0.932068
vt 0.459717 0.931274
vt 0.458984 0.931152
vt 0.438232 0.930969
vt 0.438477 0.931885
vt 0.437500 0.931213
vt 0.437256 0.962708
vt 0.436523 0.962708
vt 0.436279 0.963470
vt 0.436035 0.963959
vt 0.421387 0.963959
vt 0.436523 0.931824
vt 0.436523 0.930908
vt 0.421143 0.930908
vt 0.421143 0.963470
vt 0.421143 0.931824
vt 0.419922 0.963837
vt 0.420166 0.931213
vt 0.421143 0.962708
vt 0.420166 0.962646
vt 0.419189 0.962646
vt 0.419189 0.963409
vt 0.418701 0.963959
vt 0.398926 0.963928
vt 0.419189 0.931824
vt 0.419189 0.930908
vt 0.398438 0.930847
vt 0.398438 0.963379
vt 0.398438 0.931763
vt 0.397705 0.963776
vt 0.397461 0.931152
vt 0.398438 0.962616
vt 0.397461 0.962616
vt 0.396729 0.962646
vt 0.396729 0.963409
vt 0.396240 0.963867
vt 0.381836 0.963837
vt 0.396484 0.931763
vt 0.396729 0.930847
vt 0.381348 0.930908
vt 0.381348 0.963379
vt 0.380859 0.963959
vt 0.380371 0.962891
vt 0.381348 0.962646
vt 0.380371 0.931763
vt 0.381348 0.931763
vt 0.380615 0.931030
vt 0.245239 0.084473
vt 0.244385 0.083496
vt 0.245239 0.083496
vt 0.244385 0.084473
vt 0.260742 0.083496
vt 0.245239 0.101562
vt 0.244385 0.105469
vt 0.260742 0.084473
vt 0.261475 0.083496
vt 0.261475 0.084473
vt 0.249146 0.097168
vt 0.260742 0.101562
vt 0.261475 0.105469
vt 0.256836 0.097168
vt 0.249268 0.097168
vt 0.256592 0.097168
vt 0.245483 0.101562
vt 0.260498 0.101562
vt 0.260498 0.105469
vt 0.245239 0.105469
vt 0.244507 0.106445
vt 0.245239 0.106445
vt 0.245361 0.105469
vt 0.260742 0.106445
vt 0.260742 0.105469
vt 0.261475 0.106445
vt 0.342041 0.861328
vt 0.341309 0.860596
vt 0.342285 0.860840
vt 0.356934 0.860840
vt 0.340820 0.861694
vt 0.357422 0.861328
vt 0.358154 0.860840
vt 0.341797 0.862061
vt 0.340820 0.864746
vt 0.357422 0.862061
vt 0.341797 0.864136
vt 0.341797 0.864990
vt 0.357422 0.864136
vt 0.357422 0.864990
vt 0.357910 0.864990
vt 0.357910 0.862061
vt 0.358643 0.862183
vt 0.358887 0.861450
vt 0.359375 0.860962
vt 0.378906 0.860840
vt 0.358643 0.864136
vt 0.358643 0.865112
vt 0.379639 0.865112
vt 0.379639 0.861450
vt 0.380127 0.860840
vt 0.379639 0.864136
vt 0.380127 0.864746
vt 0.379639 0.862183
vt 0.380127 0.862061
vt 0.380859 0.862061
vt 0.380859 0.861328
vt 0.381104 0.860840
vt 0.395752 0.860840
vt 0.380859 0.864136
vt 0.380859 0.864990
vt 0.396240 0.864990
vt 0.396240 0.862061
vt 0.396973 0.864746
vt 0.396240 0.861328
vt 0.396973 0.860840
vt 0.396973 0.862061
vt 0.397461 0.861328
vt 0.397949 0.860718
vt 0.417725 0.860962
vt 0.397461 0.862061
vt 0.418457 0.861328
vt 0.418945 0.860718
vt 0.419434 0.861694
vt 0.418701 0.862061
vt 0.419434 0.864746
vt 0.397705 0.864136
vt 0.397461 0.864990
vt 0.418701 0.864990
vt 0.418701 0.864014
vt 0.596680 0.869385
vt 0.595215 0.867676
vt 0.596680 0.867798
vt 0.595703 0.866089
vt 0.598633 0.868286
vt 0.598145 0.869629
vt 0.599609 0.868530
vt 0.597168 0.866333
vt 0.597168 0.865112
vt 0.599121 0.865356
vt 0.599121 0.866821
vt 0.600098 0.866943
vt1 0.880859 0.868042
vt1 0.880859 0.905762
vt1 0.843750 0.826782
vt1 0.732910 0.905762
vt1 0.770020 0.826782
vt1 0.732910 0.868042
vt1 0.693359 0.505615
vt1 0.702148 0.514404
vt1 0.693359 0.514160
vt1 0.702148 0.505615
vt1 0.693359 0.714111
vt1 0.850098 0.514404
vt1 0.850098 0.505615
vt1 0.857422 0.506836
vt1 0.858887 0.514160
vt1 0.702148 0.713867
vt1 0.693359 0.722900
vt1 0.702148 0.722656
vt1 0.850098 0.722656
vt1 0.850098 0.713867
vt1 0.858887 0.714111
vt1 0.858887 0.722900
vt1 0.420410 0.106934
vt1 0.419434 0.117676
vt1 0.414795 0.112305
vt1 0.410645 0.102051
vt1 0.419189 0.304688
vt1 0.407715 0.110840
vt1 0.111267 0.100098
vt1 0.413818 0.309082
vt1 0.417725 0.317871
vt1 0.406494 0.309082
vt1 0.111328 0.108887
vt1 0.104065 0.101562
vt1 0.102722 0.108887
vt1 0.101013 0.308105
vt1 0.109741 0.308105
vt1 0.103516 0.317383
vt1 0.406250 0.317871
vt1 0.406494 0.326660
vt1 0.413818 0.327148
vt1 0.418457 0.330566
vt1 0.418457 0.471191
vt1 0.109253 0.326660
vt1 0.100525 0.325684
vt1 0.100464 0.474609
vt1 0.413574 0.474121
vt1 0.109131 0.474121
vt1 0.417236 0.484375
vt1 0.103027 0.482910
vt1 0.406494 0.474121
vt1 0.405762 0.482910
vt1 0.405762 0.492676
vt1 0.413086 0.493652
vt1 0.418457 0.498047
vt1 0.418213 0.686523
vt1 0.108948 0.492676
vt1 0.100220 0.492188
vt1 0.099976 0.692383
vt1 0.412598 0.691162
vt1 0.108704 0.691650
vt1 0.416748 0.699951
vt1 0.102661 0.700928
vt1 0.405273 0.691650
vt1 0.405518 0.700684
vt1 0.405762 0.709717
vt1 0.413086 0.709473
vt1 0.417725 0.712402
vt1 0.417236 0.851685
vt1 0.108643 0.709717
vt1 0.099976 0.709229
vt1 0.100098 0.857178
vt1 0.413086 0.855347
vt1 0.418457 0.862061
vt1 0.407959 0.865479
vt1 0.405762 0.856689
vt1 0.108704 0.865601
vt1 0.108765 0.856812
vt1 0.101501 0.864502
vt1 0.851074 0.374023
vt1 0.859375 0.382324
vt1 0.851074 0.382812
vt1 0.859863 0.374023
vt1 0.701660 0.383301
vt1 0.851074 0.211426
vt1 0.859863 0.172852
vt1 0.702637 0.374023
vt1 0.693848 0.382324
vt1 0.693359 0.374023
vt1 0.813965 0.253418
vt1 0.702148 0.211426
vt1 0.693359 0.172852
vt1 0.739746 0.253418
vt1 0.812500 0.250977
vt1 0.740723 0.250977
vt1 0.848633 0.210449
vt1 0.704590 0.210449
vt1 0.703613 0.174316
vt1 0.851074 0.172852
vt1 0.858398 0.165527
vt1 0.851074 0.164062
vt1 0.850098 0.174316
vt1 0.702148 0.164062
vt1 0.702148 0.172852
vt1 0.694336 0.164551
vt1 0.617676 0.114258
vt1 0.623535 0.108398
vt1 0.622070 0.118164
vt1 0.622559 0.259766
vt1 0.613770 0.104492
vt1 0.617676 0.262207
vt1 0.621582 0.270508
vt1 0.610352 0.112793
vt1 0.583984 0.104492
vt1 0.610352 0.262207
vt1 0.590332 0.112305
vt1 0.582520 0.112305
vt1 0.590332 0.262207
vt1 0.582520 0.262207
vt1 0.582031 0.269043
vt1 0.610352 0.269043
vt1 0.609375 0.275391
vt1 0.616211 0.276367
vt1 0.621094 0.281250
vt1 0.621582 0.470703
vt1 0.589844 0.275391
vt1 0.581055 0.274902
vt1 0.581055 0.477051
vt1 0.616699 0.476074
vt1 0.622070 0.481445
vt1 0.589844 0.476074
vt1 0.583984 0.482422
vt1 0.609375 0.476562
vt1 0.610352 0.482422
vt1 0.610352 0.488281
vt1 0.617676 0.488770
vt1 0.622070 0.491699
vt1 0.622070 0.632568
vt1 0.589844 0.488281
vt1 0.582031 0.487793
vt1 0.582031 0.637207
vt1 0.610352 0.636230
vt1 0.583984 0.643066
vt1 0.617676 0.635742
vt1 0.622070 0.642822
vt1 0.610352 0.642578
vt1 0.617188 0.649414
vt1 0.622559 0.654053
vt1 0.621094 0.844116
vt1 0.609863 0.649414
vt1 0.616699 0.849976
vt1 0.623047 0.854492
vt1 0.614258 0.859741
vt1 0.609863 0.851807
vt1 0.584473 0.860596
vt1 0.590332 0.649902
vt1 0.581543 0.649414
vt1 0.582031 0.852539
vt1 0.590820 0.852295
vt1 0.506836 0.449219
vt1 0.509277 0.467773
vt1 0.498535 0.461426
vt1 0.500488 0.481445
vt1 0.485596 0.451660
vt1 0.491455 0.439941
vt1 0.474609 0.443848
vt1 0.487549 0.472168
vt1 0.482178 0.483398
vt1 0.469482 0.475098
vt1 0.475098 0.461914
vt1 0.466553 0.456055
vn 0.000000 1.000000 -0.000000
vn 0.000000 1.000000 -0.000000
vn 0.000000 1.000000 -0.000000
vn 0.000000 1.000000 -0.000000
vn 0.000000 1.000000 -0.000000
vn 0.000000 1.000000 -0.000000
vn -0.299213 -0.905512 -0.299212
vn -0.149606 -0.976378 -0.149606
vn -0.133858 -0.944882 -0.299212
vn -0.299213 -0.944882 -0.133858
vn 0.133858 -0.944882 -0.299212
vn -0.149606 -0.976378 0.149606
vn -0.299213 -0.944882 0.133858
vn -0.275591 -0.921260 0.275591
vn -0.133858 -0.944882 0.299213
vn 0.149606 -0.976378 -0.149606
vn 0.299213 -0.905512 -0.299212
vn 0.299213 -0.944882 -0.133858
vn 0.299213 -0.944882 0.133858
vn 0.149606 -0.976378 0.149606
vn 0.133858 -0.944882 0.299213
vn 0.299213 -0.905512 0.299213
vn -0.472441 0.692913 0.543307
vn -0.062992 0.464567 0.881890
vn -0.165354 0.417323 0.889764
vn -0.700787 0.188976 0.692913
vn 0.062992 0.464567 0.881890
vn -0.173228 0.133858 0.976378
vn -0.700787 -0.149606 0.700787
vn 0.173228 0.417323 0.889764
vn 0.472441 0.692913 0.543307
vn 0.173228 0.133858 0.976378
vn -0.149606 -0.149606 0.976378
vn -0.669291 -0.307086 0.669291
vn -0.133858 -0.299212 0.944882
vn 0.133858 -0.299212 0.944882
vn 0.149606 -0.149606 0.976378
vn 0.700787 -0.157480 0.692913
vn 0.700787 0.181102 0.692913
vn 0.968504 0.165354 0.165354
vn 0.858268 0.480315 0.173228
vn 0.811024 0.582677 0.078740
vn 0.811024 0.582677 -0.078740
vn 0.976378 -0.149606 0.149606
vn 0.944882 -0.299213 0.133858
vn 0.944882 -0.299213 -0.133858
vn 0.858268 0.480315 -0.173228
vn 0.976378 -0.149606 -0.149606
vn 0.472441 0.692913 -0.543307
vn 0.700787 -0.157480 -0.692913
vn 0.968504 0.165354 -0.165354
vn 0.700787 0.181102 -0.692913
vn 0.173228 0.133858 -0.976378
vn 0.165354 0.417323 -0.889764
vn 0.062992 0.464567 -0.881890
vn -0.062992 0.464567 -0.881890
vn 0.149606 -0.149606 -0.976378
vn 0.133858 -0.299213 -0.944882
vn -0.133858 -0.299213 -0.944882
vn -0.173228 0.417323 -0.889764
vn -0.149606 -0.149606 -0.976378
vn -0.472441 0.692913 -0.543307
vn -0.700787 -0.157480 -0.692913
vn -0.173228 0.133858 -0.976378
vn -0.700787 0.181102 -0.692913
vn -0.968504 0.165354 -0.165354
vn -0.858268 0.480315 -0.173228
vn -0.811024 0.582677 -0.078740
vn -0.811024 0.582677 0.078740
vn -0.976378 -0.149606 -0.149606
vn -0.944882 -0.299213 -0.133858
vn -0.944882 -0.299213 0.133858
vn -0.858268 0.480315 0.173228
vn -0.472441 0.692913 0.543307
vn -0.700787 0.188976 0.692913
vn -0.968504 0.165354 0.165354
vn -0.700787 -0.149606 0.700787
vn -0.976378 -0.149606 0.149606
vn -0.669291 -0.307086 0.669291
vn -0.196850 0.968504 0.149606
vn -0.385827 0.881890 0.283464
vn -0.393701 0.913386 0.133858
vn -0.181102 0.937008 0.299212
vn -0.401575 0.905512 -0.133858
vn 0.251969 0.874016 -0.409449
vn 0.181102 0.937008 0.299212
vn -0.196850 0.968504 -0.149606
vn -0.385827 0.881890 -0.283465
vn -0.181102 0.937008 -0.299213
vn 0.535433 0.811023 -0.236221
vn 0.251969 0.874016 0.409449
vn 0.181102 0.937008 -0.299213
vn 0.535433 0.811023 0.236220
vn 0.913386 -0.000000 -0.409449
vn 0.913386 0.000000 0.409449
vn 0.362205 -0.000000 -0.937008
vn 0.362205 0.000000 0.937008
vn -0.708661 0.000000 0.708661
vn -0.094488 0.984252 -0.157480
vn 0.362205 0.889764 0.267716
vn 0.393701 0.913386 0.133858
vn -0.708661 -0.000000 -0.708661
vn 0.393701 0.913386 -0.133858
vn -0.094488 0.984252 0.157480
vn 0.401575 0.866142 -0.307087
vn 0.858268 -0.480315 -0.173228
vn 0.472441 -0.692913 -0.543307
vn 0.811024 -0.582677 -0.078740
vn 0.811024 -0.582677 0.078740
vn 0.685039 -0.259843 -0.677165
vn 0.858268 -0.480315 0.173228
vn 0.472441 -0.692913 0.543307
vn 0.976378 -0.157480 -0.165354
vn 0.677165 0.291338 -0.669291
vn 0.976378 -0.157480 0.165354
vn 0.976378 0.165354 -0.149606
vn 0.937008 0.330709 -0.133858
vn 0.976378 0.165354 0.149606
vn 0.937008 0.330709 0.133858
vn 0.669291 0.314961 0.669291
vn 0.700787 -0.196850 0.692913
vn 0.173228 -0.125984 0.976378
vn 0.165354 -0.417323 0.889764
vn 0.062992 -0.464567 0.881890
vn -0.062992 -0.464567 0.881890
vn 0.157480 0.157480 0.976378
vn 0.133858 0.307087 0.944882
vn -0.133858 0.307087 0.944882
vn -0.173228 -0.417323 0.889764
vn -0.472441 -0.692913 0.543307
vn -0.157480 0.157480 0.976378
vn -0.677165 0.291339 0.677165
vn -0.173228 -0.125984 0.976378
vn -0.700787 -0.196850 0.692913
vn -0.976378 -0.157480 0.165354
vn -0.858268 -0.480315 0.173228
vn -0.811024 -0.582677 0.078740
vn -0.811024 -0.582677 -0.078740
vn -0.976378 0.165354 0.149606
vn -0.937008 0.330709 0.133858
vn -0.937008 0.314961 -0.141732
vn -0.976378 -0.157480 -0.165354
vn -0.677165 0.291338 -0.677165
vn -0.858268 -0.480315 -0.173228
vn -0.472441 -0.692913 -0.543307
vn -0.700787 -0.196850 -0.692913
vn -0.165354 -0.417323 -0.889764
vn -0.062992 -0.464567 -0.881890
vn 0.062992 -0.464567 -0.881890
vn -0.173228 -0.125984 -0.976378
vn 0.173228 -0.417323 -0.889764
vn 0.472441 -0.692913 -0.543307
vn 0.685039 -0.259843 -0.685039
vn 0.173228 -0.125984 -0.976378
vn 0.677165 0.291338 -0.677165
vn -0.157480 0.157480 -0.976378
vn -0.133858 0.307086 -0.944882
vn 0.133858 0.307086 -0.944882
vn 0.157480 0.157480 -0.976378
vn 0.307087 0.574803 0.763779
vn -0.385827 0.559055 0.732283
vn -0.047244 0.960630 0.275590
vn -0.779528 0.551181 0.291339
vn 0.283465 0.960630 -0.007874
vn 0.779528 0.559055 0.291339
vn 0.755906 0.551181 -0.346457
vn -0.259843 0.960630 -0.078740
vn -0.732283 0.559055 -0.385827
vn -0.330709 0.543307 -0.771653
vn 0.094488 0.897638 -0.425197
vn 0.393701 0.543307 -0.740157
tan 1.000000 0.000000 0.000000 1.000000
tan 1.000000 0.000000 0.000000 1.000000
tan 1.000000 0.000000 0.000000 1.000000
tan 1.000000 0.000000 0.000000 1.000000
tan 1.000000 0.000000 0.000000 1.000000
tan 1.000000 0.000000 0.000000 1.000000
tan -0.019034 0.306280 -0.907868 1.000000
tan -0.014198 0.151962 -0.977556 1.000000
tan -0.010168 0.301320 -0.946990 1.000000
tan -0.017050 0.140926 -0.956662 1.000000
tan 0.010168 0.301320 -0.946990 1.000000
tan 0.006510 -0.150784 -0.977556 1.000000
tan 0.017050 -0.140926 -0.956662 1.000000
tan 0.008742 -0.282101 -0.934280 1.000000
tan 0.010168 -0.301321 -0.946990 1.000000
tan 0.006510 0.150784 -0.977556 1.000000
tan 0.019034 0.306280 -0.907868 1.000000
tan 0.017050 0.140926 -0.956662 1.000000
tan -0.017050 -0.140926 -0.956662 1.000000
tan -0.014198 -0.151962 -0.977556 1.000000
tan -0.010168 -0.301321 -0.946990 1.000000
tan -0.019034 -0.306281 -0.907868 1.000000
tan -0.179862 -0.677413 0.707545 1.000000
tan 0.006572 -0.882882 0.465559 1.000000
tan 0.021886 -0.894972 0.423833 1.000000
tan 0.181040 -0.883378 0.424019 1.000000
tan 0.038750 -0.883378 0.462583 1.000000
tan 0.029698 -0.977742 0.139314 1.000000
tan -0.006696 -0.976688 -0.215202 1.000000
tan 0.096782 -0.890942 0.399033 1.000000
tan 0.485151 -0.722611 0.499721 1.000000
tan 0.054870 -0.977742 0.124310 1.000000
tan 0.001178 -0.977556 -0.149606 1.000000
tan 0.011408 -0.906442 -0.404489 1.000000
tan -0.002728 -0.946990 -0.300266 1.000000
tan 0.002728 -0.946990 -0.300266 1.000000
tan 0.014198 -0.977556 -0.151962 1.000000
tan -0.028520 -0.976688 -0.193130 1.000000
tan 0.229400 -0.976874 0.023312 1.000000
tan 0.162750 -0.969806 0.016554 1.000000
tan 0.474859 -0.869180 0.057288 1.000000
tan 0.581437 -0.814123 0.035712 1.000000
tan 0.580817 -0.814123 -0.042098 1.000000
tan -0.146072 -0.977556 -0.024242 1.000000
tan -0.296051 -0.946990 -0.027032 1.000000
tan -0.299213 -0.946990 0.004712 1.000000
tan 0.470767 -0.869180 -0.077562 1.000000
tan -0.150784 -0.977556 -0.006510 1.000000
tan 0.450493 -0.720565 -0.527249 1.000000
tan -0.151032 -0.987724 0.071734 1.000000
tan 0.158844 -0.969806 -0.039432 1.000000
tan 0.114824 -0.982330 -0.140616 1.000000
tan 0.031806 -0.977742 -0.128402 1.000000
tan 0.075764 -0.897576 -0.406907 1.000000
tan 0.028148 -0.882882 -0.463079 1.000000
tan -0.035092 -0.882882 -0.462583 1.000000
tan -0.008866 -0.977556 0.148428 1.000000
tan -0.019592 -0.946990 0.297105 1.000000
tan 0.012152 -0.946990 0.298159 1.000000
tan -0.082770 -0.897948 -0.405047 1.000000
tan 0.001178 -0.977556 0.149606 1.000000
tan -0.465683 -0.719449 -0.512617 1.000000
tan 0.106144 -0.982206 0.115878 1.000000
tan -0.039494 -0.977742 -0.127038 1.000000
tan -0.153016 -0.982330 -0.101990 1.000000
tan -0.160146 -0.969806 -0.031806 1.000000
tan -0.472131 -0.869180 -0.070804 1.000000
tan -0.581437 -0.814123 -0.035712 1.000000
tan -0.583917 -0.813504 0.005580 1.000000
tan 0.149606 -0.977556 0.001178 1.000000
tan 0.298159 -0.946990 0.012152 1.000000
tan 0.299213 -0.946990 -0.004712 1.000000
tan -0.487135 -0.866452 -0.011098 1.000000
tan -0.705499 -0.668671 0.239321 1.000000
tan -0.432017 -0.883688 -0.195920 1.000000
tan -0.170562 -0.969806 -0.029202 1.000000
tan 0.210862 -0.976688 0.002356 1.000000
tan 0.149606 -0.977556 -0.001178 1.000000
tan 0.393949 -0.911712 -0.024366 1.000000
tan -0.969682 -0.196850 -0.001550 1.000000
tan -0.886354 -0.388059 0.000868 1.000000
tan -0.916548 -0.395809 0.005084 1.000000
tan -0.951144 -0.178746 -0.015934 1.000000
tan -0.906566 -0.402629 -0.003968 1.000000
tan -0.898506 0.326617 0.144274 1.000000
tan -0.951144 0.183458 0.001178 1.000000
tan -0.969682 -0.196850 0.001550 1.000000
tan -0.886354 -0.388059 -0.000868 1.000000
tan -0.951144 -0.178746 0.015934 1.000000
tan -0.821378 0.557257 0.051460 1.000000
tan -0.898506 0.326617 -0.144274 1.000000
tan -0.951144 0.183458 -0.001178 1.000000
tan -0.821378 0.557257 -0.051460 1.000000
tan -0.206336 0.816169 -0.460289 1.000000
tan -0.206336 0.816170 0.460289 1.000000
tan -0.900118 0.256556 -0.347945 1.000000
tan -0.900118 0.271313 0.347945 1.000000
tan -0.597061 -0.535681 -0.597061 1.000000
tan -0.962242 -0.123256 -0.193006 1.000000
tan -0.893980 0.368529 -0.015314 1.000000
tan -0.916548 0.395809 -0.005084 1.000000
tan -0.585901 -0.558001 0.585901 1.000000
tan -0.916548 0.395809 0.005084 1.000000
tan -0.962242 -0.124496 0.200756 1.000000
tan -0.873396 0.403993 -0.002666 1.000000
tan -0.491227 -0.865088 -0.035154 1.000000
tan -0.733523 -0.646165 0.186248 1.000000
tan -0.584537 -0.812883 -0.005394 1.000000
tan -0.581437 -0.814123 -0.035712 1.000000
tan -0.530349 -0.810217 -0.225618 1.000000
tan -0.473495 -0.869180 -0.064046 1.000000
tan -0.411557 -0.718519 -0.558497 1.000000
tan -0.165292 -0.977680 -0.044888 1.000000
tan 0.466055 -0.874884 0.090706 1.000000
tan -0.152272 -0.977680 -0.031992 1.000000
tan 0.165354 -0.977556 -0.001302 1.000000
tan 0.330709 -0.939116 -0.005208 1.000000
tan 0.166532 -0.977556 -0.006386 1.000000
tan 0.331763 -0.939116 -0.002170 1.000000
tan 0.278381 -0.943332 0.165540 1.000000
tan -0.064666 -0.982268 -0.213652 1.000000
tan -0.000992 -0.977742 -0.125984 1.000000
tan -0.016430 -0.896274 -0.417323 1.000000
tan -0.007316 -0.882882 -0.464567 1.000000
tan 0.000372 -0.882882 -0.465063 1.000000
tan 0.024304 -0.977618 0.153760 1.000000
tan 0.027156 -0.946990 0.303925 1.000000
tan -0.019716 -0.946990 0.304979 1.000000
tan 0.016430 -0.896584 -0.417323 1.000000
tan 0.426747 -0.721681 -0.549321 1.000000
tan -0.008928 -0.977618 0.156240 1.000000
tan -0.204166 -0.954430 0.206461 1.000000
tan 0.008680 -0.977742 -0.124620 1.000000
tan 0.126232 -0.987786 -0.152954 1.000000
tan 0.154876 -0.977680 -0.016616 1.000000
tan 0.476223 -0.867816 -0.046748 1.000000
tan 0.582057 -0.814123 -0.029326 1.000000
tan 0.582057 -0.814123 0.029326 1.000000
tan -0.164176 -0.977556 0.008990 1.000000
tan -0.328601 -0.940170 0.022568 1.000000
tan -0.311613 -0.937008 -0.022134 1.000000
tan 0.157480 -0.977680 0.001240 1.000000
tan -0.161510 -0.954430 -0.249116 1.000000
tan 0.477587 -0.867816 0.039990 1.000000
tan 0.469961 -0.719449 0.508897 1.000000
tan 0.218984 -0.976874 0.056048 1.000000
tan 0.061752 -0.897576 0.409511 1.000000
tan 0.014260 -0.882882 0.464071 1.000000
tan 0.024118 -0.882386 0.466551 1.000000
tan 0.039432 -0.977742 0.119164 1.000000
tan 0.063922 -0.888214 0.429041 1.000000
tan -0.100812 -0.652489 0.744497 1.000000
tan 0.254635 -0.792919 0.555397 1.000000
tan 0.052824 -0.977742 0.135532 1.000000
tan -0.080786 -0.879782 -0.459297 1.000000
tan 0.006448 -0.977618 -0.158720 1.000000
tan -0.004836 -0.946990 -0.307086 1.000000
tan -0.002604 -0.946990 -0.308140 1.000000
tan 0.001240 -0.977618 -0.157480 1.000000
tan -0.207700 0.779589 -0.503193 1.000000
tan -0.659495 0.381983 -0.639097 1.000000
tan -0.695889 0.156736 -0.665633 1.000000
tan -0.616901 -0.733523 -0.262880 1.000000
tan -0.847170 0.246264 -0.453841 1.000000
tan -0.524831 0.794035 -0.119412 1.000000
tan -0.650877 0.636121 -0.408085 1.000000
tan -0.854734 -0.266539 -0.431149 1.000000
tan -0.495877 -0.788207 -0.200942 1.000000
tan -0.299337 -0.770785 -0.414409 1.000000
tan -0.445285 -0.321409 -0.777481 1.000000
tan -0.784984 -0.212040 -0.573191 1.000000
f 3/3/3 2/2/2 1/1/1
f 3/3/3 4/4/4 2/2/2
f 5/5/5 4/4/4 3/3/3
f 5/5/5 6/6/6 4/4/4
f 9/9/9 8/8/8 7/7/7
f 10/10/10 7/7/7 8/8/8
f 8/8/8 9/9/9 11/11/11
f 8/8/8 12/12/12 10/10/10
f 13/13/13 10/10/10 12/12/12
f 12/12/12 14/14/14 13/13/13
f 15/15/15 14/14/14 12/12/12
f 16/16/16 8/8/8 11/11/11
f 12/12/12 8/8/8 16/16/16
f 16/16/16 11/11/11 17/17/17
f 17/17/17 18/18/18 16/16/16
f 16/16/16 18/18/18 19/19/19
f 12/12/12 20/20/20 15/15/15
f 20/20/20 12/12/12 16/16/16
f 19/19/19 20/20/20 16/16/16
f 21/21/21 15/15/15 20/20/20
f 22/22/22 20/20/20 19/19/19
f 22/22/22 21/21/21 20/20/20
f 25/25/25 24/24/24 23/23/23
f 23/23/23 26/26/26 25/25/25
f 24/24/24 25/25/25 27/27/27
f 28/28/28 25/25/25 26/26/26
f 26/26/26 29/29/29 28/28/28
f 27/27/27 25/25/25 30/30/30
f 30/30/30 31/31/31 27/27/27
f 28/28/28 32/32/32 25/25/25
f 32/32/32 30/30/30 25/25/25
f 33/33/33 28/28/28 29/29/29
f 28/28/28 33/33/33 32/32/32
f 34/34/34 33/33/33 29/29/29
f 34/34/34 35/35/35 33/33/33
f 35/35/35 36/36/36 33/33/33
f 37/37/37 33/33/33 36/36/36
f 37/37/37 32/32/32 33/33/33
f 36/36/36 38/38/38 37/37/37
f 37/37/37 38/38/38 32/32/32
f 30/30/30 32/32/32 39/39/39
f 32/32/32 38/38/38 39/39/39
f 39/39/39 31/31/31 30/30/30
f 39/39/39 38/38/38 40/40/40
f 31/31/31 39/39/39 41/41/41
f 40/40/40 41/41/41 39/39/39
f 41/41/41 42/42/42 31/31/31
f 42/42/42 41/41/41 43/43/43
f 44/44/44 40/40/40 38/38/38
f 38/38/38 45/45/45 44/44/44
f 45/45/45 46/46/46 44/44/44
f 47/47/47 43/43/43 41/41/41
f 46/46/46 48/48/48 44/44/44
f 47/47/47 49/49/49 43/43/43
f 46/46/46 50/50/50 48/48/48
f 48/48/48 51/51/51 44/44/44
f 40/40/40 44/44/44 51/51/51
f 40/40/40 51/51/51 41/41/41
f 48/48/48 50/50/50 51/51/51
f 51/51/51 47/47/47 41/41/41
f 47/47/47 51/51/51 52/52/52
f 51/51/51 50/50/50 52/52/52
f 52/52/52 49/49/49 47/47/47
f 52/52/52 50/50/50 53/53/53
f 49/49/49 52/52/52 54/54/54
f 53/53/53 54/54/54 52/52/52
f 54/54/54 55/55/55 49/49/49
f 55/55/55 54/54/54 56/56/56
f 57/57/57 53/53/53 50/50/50
f 50/50/50 58/58/58 57/57/57
f 58/58/58 59/59/59 57/57/57
f 56/56/56 54/54/54 60/60/60
f 61/61/61 57/57/57 59/59/59
f 60/60/60 62/62/62 56/56/56
f 59/59/59 63/63/63 61/61/61
f 61/61/61 64/64/64 57/57/57
f 53/53/53 57/57/57 64/64/64
f 53/53/53 64/64/64 54/54/54
f 61/61/61 63/63/63 64/64/64
f 64/64/64 60/60/60 54/54/54
f 60/60/60 64/64/64 65/65/65
f 64/64/64 63/63/63 65/65/65
f 65/65/65 62/62/62 60/60/60
f 65/65/65 63/63/63 66/66/66
f 62/62/62 65/65/65 67/67/67
f 66/66/66 67/67/67 65/65/65
f 67/67/67 68/68/68 62/62/62
f 68/68/68 67/67/67 69/69/69
f 70/70/70 66/66/66 63/63/63
f 63/63/63 71/71/71 70/70/70
f 71/71/71 72/72/72 70/70/70
f 73/73/73 69/69/69 67/67/67
f 73/73/73 74/74/74 69/69/69
f 75/75/75 74/74/74 73/73/73
f 76/76/76 73/73/73 67/67/67
f 73/73/73 76/76/76 75/75/75
f 66/66/66 76/76/76 67/67/67
f 66/66/66 70/70/70 76/76/76
f 76/76/76 77/77/77 75/75/75
f 78/78/78 76/76/76 70/70/70
f 78/78/78 77/77/77 76/76/76
f 72/72/72 78/78/78 70/70/70
f 78/78/78 79/79/79 77/77/77
f 72/72/72 79/79/79 78/78/78
f 82/82/82 81/81/81 80/80/80
f 83/83/83 80/80/80 81/81/81
f 82/82/82 80/80/80 84/84/84
f 83/83/83 85/85/85 80/80/80
f 85/85/85 83/83/83 86/86/86
f 87/87/87 84/84/84 80/80/80
f 87/87/87 88/88/88 84/84/84
f 89/89/89 88/88/88 87/87/87
f 87/87/87 80/80/80 90/90/90
f 80/80/80 85/85/85 90/90/90
f 89/89/89 87/87/87 91/91/91
f 91/91/91 92/92/92 89/89/89
f 93/93/93 87/87/87 90/90/90
f 87/87/87 93/93/93 91/91/91
f 90/90/90 94/94/94 93/93/93
f 90/90/90 85/85/85 94/94/94
f 95/95/95 93/93/93 94/94/94
f 95/95/95 91/91/91 93/93/93
f 96/96/96 94/94/94 85/85/85
f 91/91/91 95/95/95 97/97/97
f 97/97/97 98/98/98 91/91/91
f 85/85/85 99/99/99 96/96/96
f 99/99/99 85/85/85 86/86/86
f 99/99/99 86/86/86 100/100/100
f 100/100/100 101/101/101 99/99/99
f 102/102/102 96/96/96 99/99/99
f 99/99/99 101/101/101 103/103/103
f 102/102/102 99/99/99 104/104/104
f 103/103/103 104/104/104 99/99/99
f 98/98/98 102/102/102 104/104/104
f 98/98/98 104/104/104 91/91/91
f 92/92/92 91/91/91 104/104/104
f 105/105/105 104/104/104 103/103/103
f 105/105/105 92/92/92 104/104/104
f 108/108/108 107/107/107 106/106/106
f 108/108/108 106/106/106 109/109/109
f 106/106/106 107/107/107 110/110/110
f 109/109/109 106/106/106 111/111/111
f 112/112/112 109/109/109 111/111/111
f 106/106/106 110/110/110 113/113/113
f 110/110/110 114/114/114 113/113/113
f 111/111/111 106/106/106 115/115/115
f 113/113/113 115/115/115 106/106/106
f 116/116/116 113/113/113 114/114/114
f 113/113/113 116/116/116 115/115/115
f 117/117/117 116/116/116 114/114/114
f 116/116/116 117/117/117 118/118/118
f 118/118/118 115/115/115 116/116/116
f 119/119/119 118/118/118 117/117/117
f 118/118/118 119/119/119 120/120/120
f 120/120/120 115/115/115 118/118/118
f 111/111/111 115/115/115 121/121/121
f 121/121/121 115/115/115 120/120/120
f 112/112/112 111/111/111 121/121/121
f 121/121/121 120/120/120 122/122/122
f 123/123/123 112/112/112 121/121/121
f 123/123/123 121/121/121 122/122/122
f 124/124/124 112/112/112 123/123/123
f 124/124/124 123/123/123 125/125/125
f 126/126/126 122/122/122 120/120/120
f 127/127/127 126/126/126 120/120/120
f 126/126/126 127/127/127 128/128/128
f 125/125/125 123/123/123 129/129/129
f 130/130/130 125/125/125 129/129/129
f 131/131/131 126/126/126 128/128/128
f 131/131/131 128/128/128 132/132/132
f 131/131/131 133/133/133 126/126/126
f 122/122/122 126/126/126 133/133/133
f 122/122/122 133/133/133 123/123/123
f 132/132/132 133/133/133 131/131/131
f 129/129/129 123/123/123 133/133/133
f 129/129/129 133/133/133 134/134/134
f 134/134/134 133/133/133 132/132/132
f 130/130/130 129/129/129 134/134/134
f 134/134/134 132/132/132 135/135/135
f 136/136/136 130/130/130 134/134/134
f 136/136/136 134/134/134 135/135/135
f 137/137/137 130/130/130 136/136/136
f 137/137/137 136/136/136 138/138/138
f 139/139/139 135/135/135 132/132/132
f 140/140/140 139/139/139 132/132/132
f 139/139/139 140/140/140 141/141/141
f 135/135/135 139/139/139 142/142/142
f 141/141/141 142/142/142 139/139/139
f 135/135/135 142/142/142 136/136/136
f 143/143/143 142/142/142 141/141/141
f 138/138/138 136/136/136 144/144/144
f 144/144/144 136/136/136 142/142/142
f 145/145/145 138/138/138 144/144/144
f 144/144/144 142/142/142 146/146/146
f 145/145/145 144/144/144 146/146/146
f 146/146/146 142/142/142 143/143/143
f 147/147/147 145/145/145 146/146/146
f 148/148/148 145/145/145 147/147/147
f 148/148/148 147/147/147 149/149/149
f 146/146/146 143/143/143 150/150/150
f 147/147/147 146/146/146 150/150/150
f 149/149/149 147/147/147 151/151/151
f 152/152/152 149/149/149 151/151/151
f 152/152/152 151/151/151 153/153/153
f 151/151/151 147/147/147 154/154/154
f 151/151/151 154/154/154 153/153/153
f 150/150/150 154/154/154 147/147/147
f 153/153/153 154/154/154 155/155/155
f 156/156/156 150/150/150 143/143/143
f 150/150/150 156/156/156 154/154/154
f 157/157/157 156/156/156 143/143/143
f 156/156/156 157/157/157 158/158/158
f 155/155/155 154/154/154 159/159/159
f 159/159/159 158/158/158 155/155/155
f 159/159/159 154/154/154 156/156/156
f 159/159/159 156/156/156 158/158/158
f 162/162/162 161/161/161 160/160/160
f 161/161/161 162/162/162 163/163/163
f 162/162/162 160/160/160 164/164/164
f 165/165/165 164/164/164 160/160/160
f 165/165/165 166/166/166 164/164/164
f 167/167/167 163/163/163 162/162/162
f 167/167/167 162/162/162 164/164/164
f 168/168/168 163/163/163 167/167/167
f 169/169/169 168/168/168 167/167/167
f 166/166/166 170/170/170 164/164/164
f 170/170/170 167/167/167 164/164/164
f 167/167/167 170/170/170 169/169/169
f 170/170/170 166/166/166 171/171/171
f 171/171/171 169/169/169 170/170/170
