mtllib SM_Shrub.mtl
g SM_Shrub
#Vertices 393
#Indices 975
#Section 0 Offset 0 NumIndices 975 MaterialIndex 0 MI_Shrubs_01
v -0.031298 0.358939 0.001203 0.945098 0.000000 0.000000 1.000000
v -0.145844 0.342752 0.037256 1.000000 0.000000 0.000000 1.000000
v -0.155009 0.211355 0.029463 0.772549 0.000000 0.000000 1.000000
v 0.028202 0.198521 -0.010098 0.996078 0.000000 0.000000 1.000000
v -0.010096 -0.002026 -0.016928 0.000000 0.000000 0.000000 1.000000
v 0.005560 0.003194 -0.017699 0.000000 0.000000 0.000000 1.000000
v -0.019381 0.130315 0.412755 1.000000 0.000000 0.000000 1.000000
v -0.010796 0.066807 0.409000 0.439216 0.000000 0.000000 1.000000
v -0.024279 0.167718 0.366962 1.000000 0.000000 0.000000 1.000000
v -0.013687 0.090756 0.305661 0.321569 0.000000 0.000000 1.000000
v -0.021990 0.155481 0.324531 1.000000 0.000000 0.000000 1.000000
v -0.005842 0.072168 0.129002 0.000000 0.000000 0.000000 1.000000
v -0.007856 0.041245 0.303763 0.000000 0.000000 0.000000 1.000000
v -0.003301 0.244540 0.355193 0.831373 0.000000 0.000000 1.000000
v 0.005342 0.262989 0.333558 0.894118 0.000000 0.000000 1.000000
v 0.020357 0.220341 0.209017 0.992157 0.000000 0.000000 1.000000
v -0.000772 0.001757 0.033351 0.000000 0.000000 0.000000 1.000000
v 0.021133 0.173150 0.150213 0.870588 0.000000 0.000000 1.000000
v -0.006657 -0.000117 0.025124 0.000000 0.000000 0.000000 1.000000
v -0.015098 0.195885 0.031209 0.815686 0.000000 0.000000 1.000000
v -0.002220 0.035668 0.073807 0.000000 0.000000 0.000000 1.000000
v -0.010858 0.352194 0.123377 0.996078 0.000000 0.000000 1.000000
v 0.031107 0.171204 0.190579 0.968628 0.000000 0.000000 1.000000
v 0.037652 0.209924 0.216260 1.000000 0.000000 0.000000 1.000000
v 0.032338 0.329193 0.229623 1.000000 0.000000 0.000000 1.000000
v 0.121775 0.137551 0.110509 0.262745 0.000000 0.000000 1.000000
v -0.012288 0.026357 0.002247 0.000000 0.000000 0.000000 1.000000
v -0.019745 0.034482 -0.000936 0.000000 0.000000 0.000000 1.000000
v 0.171392 0.199532 0.154708 1.000000 0.000000 0.000000 1.000000
v 0.002966 0.069247 0.020564 0.000000 0.000000 0.000000 1.000000
v 0.160842 0.211167 0.150233 1.000000 0.000000 0.000000 1.000000
v 0.064856 0.159477 0.071000 0.000000 0.000000 0.000000 1.000000
v 0.185456 0.285967 0.184817 1.000000 0.000000 0.000000 1.000000
v 0.147576 0.256045 0.143051 1.000000 0.000000 0.000000 1.000000
v 0.181305 0.304282 0.157883 0.878431 0.000000 0.000000 1.000000
v 0.140453 0.301329 0.103965 0.988235 0.000000 0.000000 1.000000
v 0.108432 0.301099 0.053282 1.000000 0.000000 0.000000 1.000000
v -0.029992 0.001027 0.006771 0.000000 0.000000 0.000000 1.000000
v -0.028695 0.004382 0.000782 0.000000 0.000000 0.000000 1.000000
v -0.079302 0.069549 0.087482 0.000000 0.000000 0.000000 1.000000
v -0.069329 0.079594 0.053238 0.000000 0.000000 0.000000 1.000000
v -0.146302 0.186854 0.179004 1.000000 0.000000 0.000000 1.000000
v -0.151254 0.210049 0.174879 1.000000 0.000000 0.000000 1.000000
v -0.151541 0.196803 0.185578 1.000000 0.000000 0.000000 1.000000
v -0.086529 0.154294 0.072235 0.000000 0.000000 0.000000 1.000000
v -0.066774 0.280112 0.070404 1.000000 0.000000 0.000000 1.000000
v -0.108155 0.286520 0.114248 1.000000 0.000000 0.000000 1.000000
v -0.142568 0.240107 0.143041 1.000000 0.000000 0.000000 1.000000
v -0.180159 0.297670 0.190538 1.000000 0.000000 0.000000 1.000000
v -0.154666 0.293722 0.163527 1.000000 0.000000 0.000000 1.000000
v 0.015085 0.357652 -0.020514 0.945098 0.000000 0.000000 1.000000
v 0.078581 0.336524 -0.121398 0.996078 0.000000 0.000000 1.000000
v 0.083216 0.204744 -0.118630 0.772549 0.000000 0.000000 1.000000
v -0.032149 0.200196 0.029652 0.749020 0.000000 0.000000 1.000000
v -0.009744 -0.002036 0.014379 0.000000 0.000000 0.000000 1.000000
v -0.020924 0.003929 0.024922 0.000000 0.000000 0.000000 1.000000
v -0.191851 0.221166 -0.163121 0.890196 0.000000 0.000000 1.000000
v -0.222305 0.231598 -0.086895 0.992157 0.000000 0.000000 1.000000
v -0.212351 0.148380 -0.053815 0.560784 0.000000 0.000000 1.000000
v -0.149280 0.112147 -0.159495 0.368627 0.000000 0.000000 1.000000
v -0.142317 -0.011169 -0.094647 0.000000 0.000000 0.000000 1.000000
v -0.136481 -0.009647 -0.104181 0.000000 0.000000 0.000000 1.000000
v -0.148740 0.238105 0.154117 0.835294 0.000000 0.000000 1.000000
v -0.066794 0.249418 0.188892 1.000000 0.000000 0.000000 1.000000
v -0.030697 0.159170 0.178861 0.647059 0.000000 0.000000 1.000000
v -0.143828 0.119875 0.108043 0.000000 0.000000 0.000000 1.000000
v -0.073357 -0.013859 0.101987 0.000000 0.000000 0.000000 1.000000
v -0.083560 -0.012209 0.095440 0.000000 0.000000 0.000000 1.000000
v 0.177151 0.221166 0.182938 0.929412 0.000000 0.000000 1.000000
v 0.215601 0.231598 0.110416 1.000000 0.000000 0.000000 1.000000
v 0.209250 0.148381 0.076459 0.062745 0.000000 0.000000 1.000000
v 0.135214 0.112147 0.174769 0.058824 0.000000 0.000000 1.000000
v 0.135243 -0.011169 0.109549 0.000000 0.000000 0.000000 1.000000
v 0.128418 -0.009647 0.118403 0.000000 0.000000 0.000000 1.000000
v 0.213213 0.238105 -0.157614 0.874510 0.000000 0.000000 1.000000
v 0.135467 0.249418 -0.200973 1.000000 0.000000 0.000000 1.000000
v 0.098503 0.159170 -0.194870 0.678431 0.000000 0.000000 1.000000
v 0.203390 0.119875 -0.112333 0.000000 0.000000 0.000000 1.000000
v 0.132676 -0.013859 -0.113866 0.000000 0.000000 0.000000 1.000000
v 0.142118 -0.012209 -0.106262 0.000000 0.000000 0.000000 1.000000
v 0.216163 0.022715 0.001869 0.000000 0.000000 0.000000 1.000000
v 0.200175 0.025938 0.098067 0.000000 0.000000 0.000000 1.000000
v 0.093944 0.026215 0.099921 0.000000 0.000000 0.000000 1.000000
v 0.089351 0.005007 -0.049796 0.000000 0.000000 0.000000 1.000000
v -0.073553 0.008278 -0.027191 0.000000 0.000000 0.000000 1.000000
v -0.068745 0.004887 -0.039122 0.000000 0.000000 0.000000 1.000000
v -0.246718 0.022715 0.042490 0.000000 0.000000 0.000000 1.000000
v -0.256174 0.025939 -0.054569 0.000000 0.000000 0.000000 1.000000
v -0.154042 0.026215 -0.083854 0.000000 0.000000 0.000000 1.000000
v -0.110855 0.005007 0.059572 0.000000 0.000000 0.000000 1.000000
v 0.040647 0.008278 -0.004425 0.000000 0.000000 0.000000 1.000000
v 0.039090 0.004887 0.008345 0.000000 0.000000 0.000000 1.000000
v -0.225335 0.180777 -0.004986 0.894118 0.000000 0.000000 1.000000
v -0.191294 0.165316 -0.005328 0.854902 0.000000 0.000000 1.000000
v -0.209999 0.200395 0.007554 0.996078 0.000000 0.000000 1.000000
v -0.196188 0.083098 -0.024547 0.000000 0.000000 0.000000 1.000000
v -0.246170 0.186086 -0.005631 0.898039 0.000000 0.000000 1.000000
v -0.246352 0.268572 0.032592 1.000000 0.000000 0.000000 1.000000
v -0.313844 0.256563 0.003231 0.996078 0.000000 0.000000 1.000000
v -0.322960 0.206176 -0.005305 0.996078 0.000000 0.000000 1.000000
v -0.367587 0.170959 -0.006246 0.674510 0.000000 0.000000 1.000000
v -0.199662 0.059173 -0.030529 0.000000 0.000000 0.000000 1.000000
v -0.425927 0.161818 0.006931 0.156863 0.000000 0.000000 1.000000
v -0.402584 0.195630 0.005756 0.737255 0.000000 0.000000 1.000000
v -0.357282 0.080962 -0.002311 0.058824 0.000000 0.000000 1.000000
v -0.110213 -0.000373 -0.037596 0.000000 0.000000 0.000000 1.000000
v -0.306011 0.050322 -0.008718 0.000000 0.000000 0.000000 1.000000
v -0.113729 0.006573 -0.035784 0.000000 0.000000 0.000000 1.000000
v -0.215905 0.189122 0.003831 0.972549 0.000000 0.000000 1.000000
v -0.259632 0.082681 0.005115 0.000000 0.000000 0.000000 1.000000
v -0.180804 0.059216 -0.029088 0.000000 0.000000 0.000000 1.000000
v -0.152073 -0.014511 -0.051206 0.000000 0.000000 0.000000 1.000000
v -0.198431 0.266961 0.007105 0.937255 0.000000 0.000000 1.000000
v -0.139526 0.230246 0.018068 0.996078 0.000000 0.000000 1.000000
v -0.164810 0.273915 0.020758 1.000000 0.000000 0.000000 1.000000
v -0.126868 0.138495 -0.000414 0.000000 0.000000 0.000000 1.000000
v -0.067379 0.130177 0.023067 0.000000 0.000000 0.000000 1.000000
v -0.096424 0.192548 0.026817 0.482353 0.000000 0.000000 1.000000
v -0.107434 0.058356 -0.012944 0.000000 0.000000 0.000000 1.000000
v -0.117870 -0.003535 -0.033594 0.000000 0.000000 0.000000 1.000000
v -0.070342 0.034151 -0.003266 0.000000 0.000000 0.000000 1.000000
v 0.018476 0.043867 -0.105862 0.000000 0.000000 0.000000 1.000000
v 0.003135 -0.000473 -0.046565 0.000000 0.000000 0.000000 1.000000
v 0.023509 0.021354 -0.117592 0.000000 0.000000 0.000000 1.000000
v -0.001905 0.028916 -0.036245 0.000000 0.000000 0.000000 1.000000
v -0.024399 0.015849 0.039872 0.000000 0.000000 0.000000 1.000000
v 0.046724 0.126965 -0.215355 0.000000 0.000000 0.000000 1.000000
v 0.046590 0.203636 -0.230900 0.968628 0.000000 0.000000 1.000000
v 0.029849 0.272504 -0.190636 0.996078 0.000000 0.000000 1.000000
v 0.046333 0.350487 -0.260674 0.831373 0.000000 0.000000 1.000000
v 0.021073 0.378274 -0.165093 0.917647 0.000000 0.000000 1.000000
v 0.026041 0.318033 -0.100573 0.996078 0.000000 0.000000 1.000000
v 0.047601 0.203361 0.067684 0.913726 0.000000 0.000000 1.000000
v 0.094641 0.316356 0.037814 1.000000 0.000000 0.000000 1.000000
v -0.082648 0.197825 0.035574 0.588235 0.000000 0.000000 1.000000
v -0.011941 0.117570 -0.013590 0.000000 0.000000 0.000000 1.000000
v -0.048946 0.017245 -0.044441 0.000000 0.000000 0.000000 1.000000
v 0.161672 0.376606 0.041185 0.996078 0.000000 0.000000 1.000000
v 0.232464 0.350609 0.068799 0.501961 0.000000 0.000000 1.000000
v 0.205796 0.304681 0.052411 0.996078 0.000000 0.000000 1.000000
v 0.124131 0.170895 0.021566 0.788235 0.000000 0.000000 1.000000
v 0.180844 0.125619 0.055266 0.003922 0.000000 0.000000 1.000000
v 0.206675 0.219191 0.062553 0.937255 0.000000 0.000000 1.000000
v 0.017032 0.028903 -0.014876 0.000000 0.000000 0.000000 1.000000
v -0.000156 0.004991 -0.021572 0.000000 0.000000 0.000000 1.000000
v 0.087816 0.012000 0.018261 0.000000 0.000000 0.000000 1.000000
v 0.075665 0.046675 0.011042 0.000000 0.000000 0.000000 1.000000
v 0.033914 0.108163 0.034369 0.000000 0.000000 0.000000 1.000000
v 0.054013 0.074307 0.011324 0.000000 0.000000 0.000000 1.000000
v 0.052041 0.106789 0.031010 0.000000 0.000000 0.000000 1.000000
v -0.016827 0.006141 -0.014068 0.000000 0.000000 0.000000 1.000000
v 0.031934 0.014154 -0.012076 0.000000 0.000000 0.000000 1.000000
v -0.002821 -0.008710 -0.020286 0.000000 0.000000 0.000000 1.000000
v 0.074614 0.020939 -0.008701 0.000000 0.000000 0.000000 1.000000
v 0.094469 -0.006572 -0.003162 0.000000 0.000000 0.000000 1.000000
v 0.243244 0.078197 0.040346 0.066667 0.000000 0.000000 1.000000
v 0.286491 0.175817 0.053495 0.000000 0.000000 0.000000 1.000000
v 0.113178 0.108671 0.023577 0.000000 0.000000 0.000000 1.000000
v 0.380018 0.254339 0.073272 0.976471 0.000000 0.000000 1.000000
v 0.280196 0.212529 0.062261 0.439216 0.000000 0.000000 1.000000
v 0.312909 0.292987 0.108249 1.000000 0.000000 0.000000 1.000000
v 0.215307 0.229507 0.083135 0.996078 0.000000 0.000000 1.000000
v 0.149083 0.186434 0.066094 0.952941 0.000000 0.000000 1.000000
v 0.029490 0.203587 -0.449924 0.780392 0.000000 0.000000 1.000000
v 0.057109 0.243581 -0.398765 1.000000 0.000000 0.000000 1.000000
v 0.037650 0.165052 -0.246825 0.494118 0.000000 0.000000 1.000000
v 0.010224 0.030927 -0.168737 0.000000 0.000000 0.000000 1.000000
v 0.026466 0.143317 -0.362558 0.909804 0.000000 0.000000 1.000000
v 0.027767 0.065492 -0.321831 1.000000 0.000000 0.000000 1.000000
v 0.008952 0.000113 -0.175575 0.000000 0.000000 0.000000 1.000000
v -0.000322 0.004067 -0.125822 0.000000 0.000000 0.000000 1.000000
v 0.003404 0.020711 -0.133531 0.000000 0.000000 0.000000 1.000000
v 0.027362 0.101584 -0.151970 0.000000 0.000000 0.000000 1.000000
v 0.031267 0.103801 -0.132487 0.000000 0.000000 0.000000 1.000000
v 0.006439 0.022491 -0.087893 0.000000 0.000000 0.000000 1.000000
v 0.002732 0.008494 -0.086049 0.000000 0.000000 0.000000 1.000000
v 0.006353 0.019956 -0.075153 0.000000 0.000000 0.000000 1.000000
v 0.128644 0.210941 0.168351 0.964706 0.000000 0.000000 1.000000
v 0.160243 0.082214 0.155103 0.000000 0.000000 0.000000 1.000000
v 0.079374 0.064197 0.128910 0.000000 0.000000 0.000000 1.000000
v 0.043607 -0.005388 0.106667 0.000000 0.000000 0.000000 1.000000
v 0.124184 0.268862 0.178588 1.000000 0.000000 0.000000 1.000000
v 0.084076 0.241021 0.121942 1.000000 0.000000 0.000000 1.000000
v 0.107284 0.282165 0.149918 1.000000 0.000000 0.000000 1.000000
v 0.059037 0.154890 0.097062 0.615686 0.000000 0.000000 1.000000
v 0.027866 0.156348 0.040813 0.000000 0.000000 0.000000 1.000000
v 0.054917 0.213612 0.076014 1.000000 0.000000 0.000000 1.000000
v 0.037056 0.052303 0.081497 0.000000 0.000000 0.000000 1.000000
v 0.029703 0.011148 0.077880 0.000000 0.000000 0.000000 1.000000
v 0.013193 0.057905 0.037391 0.000000 0.000000 0.000000 1.000000
v 0.021340 0.068689 0.049496 0.000000 0.000000 0.000000 1.000000
v -0.212415 0.077238 0.228630 0.000000 0.000000 0.000000 1.000000
v -0.220839 0.099377 0.228751 0.000000 0.000000 0.000000 1.000000
v -0.233063 0.090693 0.251025 0.000000 0.000000 0.000000 1.000000
v -0.186450 0.083450 0.185985 0.000000 0.000000 0.000000 1.000000
v -0.179792 0.127530 0.180980 0.000000 0.000000 0.000000 1.000000
v -0.169773 0.086371 0.170637 0.000000 0.000000 0.000000 1.000000
v -0.082493 0.046329 0.088872 0.000000 0.000000 0.000000 1.000000
v -0.110204 0.029549 0.115014 0.000000 0.000000 0.000000 1.000000
v -0.097012 0.009359 0.100268 0.000000 0.000000 0.000000 1.000000
v -0.063414 0.036568 0.070972 0.000000 0.000000 0.000000 1.000000
v -0.153215 0.181284 0.180095 0.988235 0.000000 0.000000 1.000000
v -0.184722 0.143460 0.185956 0.000000 0.000000 0.000000 1.000000
v -0.021844 0.005041 0.032289 0.000000 0.000000 0.000000 1.000000
v -0.027666 -0.001785 0.037832 0.000000 0.000000 0.000000 1.000000
v -0.229341 0.187955 0.267425 1.000000 0.000000 0.000000 1.000000
v -0.275453 0.132050 0.293544 0.000000 0.000000 0.000000 1.000000
v -0.277696 0.161544 0.307936 0.000000 0.000000 0.000000 1.000000
v -0.088704 0.317755 -0.127519 0.890196 0.000000 0.000000 1.000000
v 0.036029 0.201732 -0.035141 1.000000 0.000000 0.000000 1.000000
v -0.046611 0.132640 -0.036717 0.000000 0.000000 0.000000 1.000000
v -0.040444 0.040057 0.004001 0.000000 0.000000 0.000000 1.000000
v -0.133731 0.375636 -0.164075 0.768628 0.000000 0.000000 1.000000
v -0.173437 0.354825 -0.222138 0.901961 0.000000 0.000000 1.000000
v -0.164547 0.312027 -0.196721 0.980392 0.000000 0.000000 1.000000
v -0.126852 0.186930 -0.133219 0.992157 0.000000 0.000000 1.000000
v -0.153899 0.147835 -0.188789 0.678431 0.000000 0.000000 1.000000
v -0.164410 0.234098 -0.206178 0.996078 0.000000 0.000000 1.000000
v -0.073556 0.053275 -0.052378 0.000000 0.000000 0.000000 1.000000
v -0.065505 0.030814 -0.038789 0.000000 0.000000 0.000000 1.000000
v -0.109890 0.040663 -0.114410 0.000000 0.000000 0.000000 1.000000
v -0.102777 0.071774 -0.102090 0.000000 0.000000 0.000000 1.000000
v -0.060655 0.121725 -0.102856 0.000000 0.000000 0.000000 1.000000
v -0.089470 0.092163 -0.096715 0.000000 0.000000 0.000000 1.000000
v -0.075996 0.121356 -0.109847 0.000000 0.000000 0.000000 1.000000
v -0.053532 0.027220 -0.041852 0.000000 0.000000 0.000000 1.000000
v -0.088416 0.036729 -0.068696 0.000000 0.000000 0.000000 1.000000
v -0.068006 0.014436 -0.044776 0.000000 0.000000 0.000000 1.000000
v -0.118109 0.044820 -0.093415 0.000000 0.000000 0.000000 1.000000
v -0.131465 0.020608 -0.108389 0.000000 0.000000 0.000000 1.000000
v -0.215151 0.103986 -0.217246 0.164706 0.000000 0.000000 1.000000
v -0.235367 0.194651 -0.248050 1.000000 0.000000 0.000000 1.000000
v -0.125355 0.125989 -0.136223 0.447059 0.000000 0.000000 1.000000
v -0.290604 0.270145 -0.310406 0.964706 0.000000 0.000000 1.000000
v -0.224155 0.227653 -0.250696 1.000000 0.000000 0.000000 1.000000
v -0.220257 0.301733 -0.300806 1.000000 0.000000 0.000000 1.000000
v -0.163978 0.239821 -0.232083 0.996078 0.000000 0.000000 1.000000
v -0.125792 0.197813 -0.185454 0.996078 0.000000 0.000000 1.000000
v 0.157396 0.170155 -0.136800 1.000000 0.000000 0.000000 1.000000
v 0.130724 0.156380 -0.114350 0.000000 0.000000 0.000000 1.000000
v 0.138716 0.190717 -0.136953 1.000000 0.000000 0.000000 1.000000
v 0.142196 0.073707 -0.101091 0.000000 0.000000 0.000000 1.000000
v 0.174036 0.174424 -0.149800 1.000000 0.000000 0.000000 1.000000
v 0.154249 0.257454 -0.180884 1.000000 0.000000 0.000000 1.000000
v 0.224036 0.241636 -0.201511 1.000000 0.000000 0.000000 1.000000
v 0.233660 0.190728 -0.199799 1.000000 0.000000 0.000000 1.000000
v 0.266404 0.153364 -0.227031 1.000000 0.000000 0.000000 1.000000
v 0.147352 0.049542 -0.098250 0.000000 0.000000 0.000000 1.000000
v 0.302024 0.141616 -0.274421 0.000000 0.000000 0.000000 1.000000
v 0.286833 0.176497 -0.259216 1.000000 0.000000 0.000000 1.000000
v 0.250944 0.064082 -0.221585 1.000000 0.000000 0.000000 1.000000
v 0.080167 -0.005656 -0.034148 0.000000 0.000000 0.000000 1.000000
v 0.214144 0.035887 -0.183108 0.000000 0.000000 0.000000 1.000000
v 0.082080 0.001139 -0.037937 0.000000 0.000000 0.000000 1.000000
v 0.144990 0.179107 -0.137665 0.937255 0.000000 0.000000 1.000000
v 0.171617 0.070713 -0.164568 0.000000 0.000000 0.000000 1.000000
v 0.132012 0.050534 -0.087239 0.000000 0.000000 0.000000 1.000000
v 0.120118 -0.022065 -0.050329 0.000000 0.000000 0.000000 1.000000
v 0.133899 0.257738 -0.130538 0.984314 0.000000 0.000000 1.000000
v 0.079762 0.224160 -0.100339 0.886275 0.000000 0.000000 1.000000
v 0.099815 0.266571 -0.119538 1.000000 0.000000 0.000000 1.000000
v 0.076808 0.132842 -0.076172 0.000000 0.000000 0.000000 1.000000
v 0.015776 0.127869 -0.055768 0.000000 0.000000 0.000000 1.000000
v 0.039072 0.188788 -0.078577 0.988235 0.000000 0.000000 1.000000
v 0.065501 0.053556 -0.052448 0.000000 0.000000 0.000000 1.000000
v 0.083271 -0.009117 -0.042070 0.000000 0.000000 0.000000 1.000000
v 0.029567 0.031378 -0.035535 0.000000 0.000000 0.000000 1.000000
v -0.151193 0.212390 -0.166526 0.898039 0.000000 0.000000 1.000000
v -0.188418 0.120646 -0.059717 0.623529 0.000000 0.000000 1.000000
v -0.164928 0.064626 -0.112366 0.000000 0.000000 0.000000 1.000000
v -0.167934 -0.009596 -0.096305 0.000000 0.000000 0.000000 1.000000
v -0.139937 0.257378 -0.207056 0.917647 0.000000 0.000000 1.000000
v -0.092270 0.255026 -0.234075 1.000000 0.000000 0.000000 1.000000
v -0.098484 0.219530 -0.222160 0.819608 0.000000 0.000000 1.000000
v -0.109627 0.120091 -0.178712 0.000000 0.000000 0.000000 1.000000
v -0.059164 0.105893 -0.194117 0.000000 0.000000 0.000000 1.000000
v -0.070441 0.168763 -0.212533 0.584314 0.000000 0.000000 1.000000
v -0.131085 0.011636 -0.122615 0.000000 0.000000 0.000000 1.000000
v -0.134656 -0.006690 -0.113857 0.000000 0.000000 0.000000 1.000000
v -0.083058 0.016390 -0.148159 0.000000 0.000000 0.000000 1.000000
v -0.100478 0.035048 -0.146672 0.000000 0.000000 0.000000 1.000000
v -0.151495 0.228588 0.109955 0.913726 0.000000 0.000000 1.000000
v -0.036546 0.129093 0.152776 0.262745 0.000000 0.000000 1.000000
v -0.093089 0.068340 0.126095 0.000000 0.000000 0.000000 1.000000
v -0.075744 -0.012154 0.129725 0.000000 0.000000 0.000000 1.000000
v -0.195180 0.277377 0.096817 0.819608 0.000000 0.000000 1.000000
v -0.223378 0.274825 0.044513 1.000000 0.000000 0.000000 1.000000
v -0.210603 0.236331 0.051524 0.964706 0.000000 0.000000 1.000000
v -0.163751 0.128490 0.064607 0.000000 0.000000 0.000000 1.000000
v -0.179291 0.113093 0.009539 0.000000 0.000000 0.000000 1.000000
v -0.199519 0.181274 0.021341 0.992157 0.000000 0.000000 1.000000
v -0.103422 0.010873 0.089165 0.000000 0.000000 0.000000 1.000000
v -0.094009 -0.009002 0.093239 0.000000 0.000000 0.000000 1.000000
v -0.130012 0.016028 0.036504 0.000000 0.000000 0.000000 1.000000
v -0.128800 0.036263 0.055425 0.000000 0.000000 0.000000 1.000000
v 0.136362 0.212390 0.181965 0.992157 0.000000 0.000000 1.000000
v 0.184822 0.120646 0.079762 0.098039 0.000000 0.000000 1.000000
v 0.155824 0.064626 0.129590 0.000000 0.000000 0.000000 1.000000
v 0.160535 -0.009596 0.113943 0.000000 0.000000 0.000000 1.000000
v 0.120826 0.257378 0.221055 0.890196 0.000000 0.000000 1.000000
v 0.070538 0.255025 0.242808 1.000000 0.000000 0.000000 1.000000
v 0.077993 0.219530 0.231628 0.819608 0.000000 0.000000 1.000000
v 0.093729 0.120091 0.189625 0.160784 0.000000 0.000000 1.000000
v 0.041906 0.105893 0.199532 0.011765 0.000000 0.000000 1.000000
v 0.051144 0.168763 0.219051 0.949020 0.000000 0.000000 1.000000
v 0.121077 0.011636 0.136151 0.000000 0.000000 0.000000 1.000000
v 0.125567 -0.006690 0.127827 0.000000 0.000000 0.000000 1.000000
v 0.070589 0.016390 0.156401 0.000000 0.000000 0.000000 1.000000
v 0.088067 0.035049 0.156789 0.000000 0.000000 0.000000 1.000000
v 0.211218 0.228588 -0.113411 0.941177 0.000000 0.000000 1.000000
v 0.101521 0.129093 -0.168308 0.000000 0.000000 0.000000 1.000000
v 0.154879 0.068340 -0.135720 0.000000 0.000000 0.000000 1.000000
v 0.138023 -0.012154 -0.141187 0.000000 0.000000 0.000000 1.000000
v 0.253243 0.277377 -0.095666 0.921569 0.000000 0.000000 1.000000
v 0.275671 0.274825 -0.040641 1.000000 0.000000 0.000000 1.000000
v 0.263721 0.236331 -0.048981 0.878431 0.000000 0.000000 1.000000
v 0.218542 0.128490 -0.067011 0.000000 0.000000 0.000000 1.000000
v 0.228090 0.113094 -0.010594 0.066667 0.000000 0.000000 1.000000
v 0.249466 0.181274 -0.020160 0.639216 0.000000 0.000000 1.000000
v 0.161193 0.010873 -0.097894 0.000000 0.000000 0.000000 1.000000
v 0.152271 -0.009002 -0.102954 0.000000 0.000000 0.000000 1.000000
v 0.181985 0.016028 -0.042686 0.000000 0.000000 0.000000 1.000000
v 0.182809 0.036263 -0.061628 0.000000 0.000000 0.000000 1.000000
v -0.020899 0.016152 0.237581 0.000000 0.000000 0.000000 1.000000
v -0.119478 0.004563 0.104689 0.000000 0.000000 0.000000 1.000000
v -0.051434 0.025716 0.054226 0.000000 0.000000 0.000000 1.000000
v -0.054236 0.023971 -0.035664 0.000000 0.000000 0.000000 1.000000
v 0.013574 0.022692 0.299973 0.000000 0.000000 0.000000 1.000000
v 0.077111 0.010891 0.302415 0.000000 0.000000 0.000000 1.000000
v 0.067916 0.015359 0.258843 0.000000 0.000000 0.000000 1.000000
v 0.040385 0.014475 0.133193 0.000000 0.000000 0.000000 1.000000
v 0.099617 -0.006086 0.118366 0.000000 0.000000 0.000000 1.000000
v 0.093720 0.000415 0.196259 0.000000 0.000000 0.000000 1.000000
v -0.004517 0.012979 -0.005922 0.000000 0.000000 0.000000 1.000000
v -0.011521 0.013308 -0.029207 0.000000 0.000000 0.000000 1.000000
v 0.057205 0.003874 0.004572 0.000000 0.000000 0.000000 1.000000
v 0.037556 0.004110 0.026027 0.000000 0.000000 0.000000 1.000000
v -0.016776 0.024385 -0.226724 0.000000 0.000000 0.000000 1.000000
v 0.092298 0.005118 -0.103434 0.000000 0.000000 0.000000 1.000000
v 0.030778 0.024489 -0.046422 0.000000 0.000000 0.000000 1.000000
v 0.039535 0.019994 0.042650 0.000000 0.000000 0.000000 1.000000
v -0.057195 0.031918 -0.285607 0.000000 0.000000 0.000000 1.000000
v -0.107804 0.023175 -0.240212 0.000000 0.000000 0.000000 1.000000
v -0.120780 0.020426 -0.282956 0.000000 0.000000 0.000000 1.000000
v -0.069464 0.017343 -0.117563 0.000000 0.000000 0.000000 1.000000
v -0.126546 0.004489 -0.098730 0.000000 0.000000 0.000000 1.000000
v -0.128482 0.009583 -0.176371 0.000000 0.000000 0.000000 1.000000
v -0.012653 0.010320 0.016953 0.000000 0.000000 0.000000 1.000000
v -0.003649 0.009726 0.039535 0.000000 0.000000 0.000000 1.000000
v -0.075424 0.005506 0.011399 0.000000 0.000000 0.000000 1.000000
v -0.057400 0.002829 -0.011526 0.000000 0.000000 0.000000 1.000000
v -0.128844 0.142263 0.012345 0.000000 0.000000 0.000000 1.000000
v -0.125303 0.276909 0.083676 1.000000 0.000000 0.000000 1.000000
v -0.257515 0.303354 0.042467 0.996078 0.000000 0.000000 1.000000
v -0.263264 0.287217 0.031706 0.996078 0.000000 0.000000 1.000000
v -0.237555 0.205084 0.024386 0.996078 0.000000 0.000000 1.000000
v -0.035454 0.011915 -0.015788 0.000000 0.000000 0.000000 1.000000
v -0.208663 0.135840 0.014882 0.615686 0.000000 0.000000 1.000000
v -0.058383 -0.004197 -0.014665 0.000000 0.000000 0.000000 1.000000
v -0.259357 0.203047 0.026653 0.996078 0.000000 0.000000 1.000000
v 0.080231 0.232256 -0.166507 0.996078 0.000000 0.000000 1.000000
v 0.046548 0.265312 -0.377092 0.890196 0.000000 0.000000 1.000000
v 0.097906 0.328332 -0.281980 0.956863 0.000000 0.000000 1.000000
v 0.040610 0.127999 -0.132116 0.000000 0.000000 0.000000 1.000000
v 0.016809 0.054138 -0.090994 0.000000 0.000000 0.000000 1.000000
v 0.018109 0.109177 -0.269838 0.015686 0.000000 0.000000 1.000000
v 0.013002 0.049701 -0.137852 0.000000 0.000000 0.000000 1.000000
v 0.005314 0.001120 -0.086011 0.000000 0.000000 0.000000 1.000000
v 0.006263 0.003647 -0.079966 0.000000 0.000000 0.000000 1.000000
v -0.002175 0.020381 0.037832 0.000000 0.000000 0.000000 1.000000
v 0.038383 0.028042 0.067029 0.000000 0.000000 0.000000 1.000000
v -0.001557 0.013434 0.037440 0.000000 0.000000 0.000000 1.000000
v 0.074778 0.062231 0.099713 0.000000 0.000000 0.000000 1.000000
v 0.218770 0.084660 0.196898 0.537255 0.000000 0.000000 1.000000
v 0.159618 0.040090 0.143842 0.000000 0.000000 0.000000 1.000000
v 0.202269 0.062875 0.178333 0.000000 0.000000 0.000000 1.000000
v 0.211367 0.149908 0.210806 1.000000 0.000000 0.000000 1.000000
v 0.261390 0.136814 0.238622 1.000000 0.000000 0.000000 1.000000
v 0.247863 0.164869 0.238080 1.000000 0.000000 0.000000 1.000000
v 0.072595 0.087463 0.105520 0.011765 0.000000 0.000000 1.000000
v 0.189285 0.196356 0.210106 0.992157 0.000000 0.000000 1.000000
v 0.184341 0.244478 0.192482 1.000000 0.000000 0.000000 1.000000
v 0.147864 0.265598 0.145990 1.000000 0.000000 0.000000 1.000000
v 0.087782 0.167404 0.102679 0.878431 0.000000 0.000000 1.000000
v 0.070332 0.136735 -0.087292 0.000000 0.000000 0.000000 1.000000
v 0.029355 0.272617 -0.142413 1.000000 0.000000 0.000000 1.000000
v 0.158391 0.291811 -0.196332 1.000000 0.000000 0.000000 1.000000
v 0.168795 0.275226 -0.191453 1.000000 0.000000 0.000000 1.000000
v 0.149231 0.194350 -0.167648 0.690196 0.000000 0.000000 1.000000
v 0.009692 0.010662 -0.003073 0.000000 0.000000 0.000000 1.000000
v 0.129362 0.126459 -0.140388 0.000000 0.000000 0.000000 1.000000
v 0.025596 -0.006528 -0.018335 0.000000 0.000000 0.000000 1.000000
v 0.164328 0.191288 -0.183351 1.000000 0.000000 0.000000 1.000000
vt 0.575195 0.474121
vt 0.435547 0.489258
vt 0.387451 0.334473
vt 0.586426 0.263672
vt 0.486572 0.034668
vt 0.503906 0.036133
vt 0.243164 0.940369
vt 0.290771 0.886353
vt 0.179321 0.939819
vt 0.194580 0.836182
vt 0.157715 0.902039
vt 0.077454 0.702393
vt 0.232422 0.794800
vt 0.106750 0.993122
vt 0.074951 0.993122
vt 0.014832 0.874268
vt 0.061737 0.580322
vt 0.008789 0.796631
vt 0.496338 0.035645
vt 0.586426 0.260742
vt 0.467285 0.094727
vt 0.575195 0.474121
vt 0.398438 0.294434
vt 0.387939 0.348145
vt 0.435059 0.489258
vt 0.010170 0.292480
vt 0.065491 0.028809
vt 0.081604 0.028809
vt 0.008621 0.411621
vt 0.086670 0.090332
vt 0.031494 0.411621
vt 0.100464 0.247070
vt 0.069275 0.519043
vt 0.093689 0.438477
vt 0.113953 0.513916
vt 0.174072 0.447754
vt 0.232056 0.391602
vt 0.069763 0.028809
vt 0.079102 0.028809
vt 0.027634 0.174316
vt 0.074219 0.163086
vt 0.008904 0.389648
vt 0.030655 0.416992
vt 0.008675 0.407227
vt 0.110779 0.266602
vt 0.232056 0.391602
vt 0.176270 0.445801
vt 0.091858 0.430176
vt 0.079163 0.539551
vt 0.113525 0.506348
vt 0.575195 0.474121
vt 0.435547 0.489258
vt 0.387451 0.334473
vt 0.586426 0.263672
vt 0.486572 0.034668
vt 0.503906 0.036133
vt 0.575195 0.474121
vt 0.435547 0.489258
vt 0.387451 0.334473
vt 0.586426 0.263672
vt 0.486572 0.034668
vt 0.503906 0.036133
vt 0.575195 0.474121
vt 0.435547 0.489258
vt 0.387451 0.334473
vt 0.586426 0.263672
vt 0.486572 0.034668
vt 0.503906 0.036133
vt 0.575195 0.474121
vt 0.435547 0.489258
vt 0.387451 0.334473
vt 0.586426 0.263672
vt 0.486572 0.034668
vt 0.503906 0.036133
vt 0.575195 0.474121
vt 0.435547 0.489258
vt 0.387451 0.334473
vt 0.586426 0.263672
vt 0.486572 0.034668
vt 0.503906 0.036133
vt 0.575195 0.474121
vt 0.435547 0.489258
vt 0.387451 0.334473
vt 0.586426 0.263672
vt 0.486572 0.034668
vt 0.503906 0.036133
vt 0.575195 0.474121
vt 0.435547 0.489258
vt 0.387451 0.334473
vt 0.586426 0.263672
vt 0.486572 0.034668
vt 0.503906 0.036133
vt 0.201050 0.812012
vt 0.202881 0.768921
vt 0.232788 0.808838
vt 0.107056 0.718994
vt 0.195312 0.835815
vt 0.290771 0.886353
vt 0.235718 0.948944
vt 0.173950 0.923340
vt 0.109924 0.942902
vt 0.078491 0.706543
vt 0.067322 0.993122
vt 0.117981 0.993122
vt 0.015327 0.872925
vt 0.061737 0.580322
vt 0.009659 0.802856
vt 0.067627 0.588379
vt 0.211182 0.366699
vt 0.097534 0.226562
vt 0.201416 0.163086
vt 0.209351 0.044434
vt 0.263916 0.474121
vt 0.330078 0.398926
vt 0.313477 0.472168
vt 0.311523 0.259277
vt 0.399658 0.225098
vt 0.380859 0.327637
vt 0.308105 0.134766
vt 0.266602 0.047852
vt 0.356445 0.084473
vt 0.331543 0.110840
vt 0.294678 0.049316
vt 0.351074 0.090332
vt 0.273926 0.077637
vt 0.209351 0.044434
vt 0.399414 0.225586
vt 0.384033 0.309570
vt 0.320557 0.371094
vt 0.354492 0.470215
vt 0.263916 0.474121
vt 0.227905 0.393555
vt 0.097534 0.226562
vt 0.227905 0.393555
vt 0.096619 0.221191
vt 0.203979 0.158691
vt 0.209351 0.044434
vt 0.263916 0.474121
vt 0.343750 0.470703
vt 0.335938 0.415527
vt 0.315430 0.254395
vt 0.399170 0.227539
vt 0.380371 0.330078
vt 0.273438 0.077637
vt 0.267090 0.047852
vt 0.356689 0.083496
vt 0.326660 0.114258
vt 0.372803 0.677490
vt 0.330811 0.666992
vt 0.360840 0.687988
vt 0.314453 0.575195
vt 0.293701 0.612793
vt 0.294189 0.576416
vt 0.275879 0.645508
vt 0.240112 0.643066
vt 0.226196 0.799072
vt 0.285889 0.888062
vt 0.326660 0.728027
vt 0.296631 1.000000
vt 0.318848 0.907227
vt 0.369629 0.984055
vt 0.371826 0.877563
vt 0.373291 0.805420
vt 0.296631 1.000000
vt 0.369629 0.984055
vt 0.371826 0.808960
vt 0.278809 0.656250
vt 0.285889 0.888062
vt 0.227295 0.800903
vt 0.241821 0.639648
vt 0.274170 0.603516
vt 0.286377 0.620850
vt 0.360107 0.689697
vt 0.374023 0.675293
vt 0.312988 0.585449
vt 0.300293 0.574463
vt 0.317627 0.573242
vt 0.227905 0.393555
vt 0.097534 0.226562
vt 0.203125 0.161133
vt 0.209351 0.044434
vt 0.263916 0.474121
vt 0.328857 0.395508
vt 0.312500 0.472168
vt 0.315918 0.259277
vt 0.400146 0.222656
vt 0.381104 0.326172
vt 0.279785 0.106934
vt 0.261475 0.047363
vt 0.348389 0.084473
vt 0.336670 0.107422
vt 0.847656 0.843506
vt 0.859863 0.869995
vt 0.836426 0.881958
vt 0.884766 0.810181
vt 0.930664 0.836914
vt 0.903320 0.793945
vt 0.949219 0.665527
vt 0.907227 0.685059
vt 0.902832 0.652100
vt 0.958008 0.636719
vt 0.993164 0.862549
vt 0.940430 0.854980
vt 0.968750 0.564209
vt 0.956543 0.567383
vt 0.916016 0.967438
vt 0.830078 0.966339
vt 0.848633 0.999005
vt 0.227905 0.393555
vt 0.096619 0.221191
vt 0.203979 0.158691
vt 0.209351 0.044434
vt 0.263916 0.474121
vt 0.343750 0.470703
vt 0.335938 0.415527
vt 0.315430 0.254395
vt 0.399170 0.227539
vt 0.380371 0.330078
vt 0.273438 0.077637
vt 0.267090 0.047852
vt 0.356689 0.083496
vt 0.326660 0.114258
vt 0.372803 0.677490
vt 0.330811 0.666992
vt 0.360840 0.687988
vt 0.314453 0.575195
vt 0.293701 0.612793
vt 0.294189 0.576416
vt 0.275879 0.645508
vt 0.240112 0.643066
vt 0.226196 0.799072
vt 0.285889 0.888062
vt 0.326660 0.728027
vt 0.296631 1.000000
vt 0.318848 0.907227
vt 0.369629 0.984055
vt 0.371826 0.877563
vt 0.373291 0.805420
vt 0.201050 0.812012
vt 0.202881 0.768921
vt 0.232788 0.808838
vt 0.107056 0.718994
vt 0.195312 0.835815
vt 0.290771 0.886353
vt 0.235718 0.948944
vt 0.173950 0.923340
vt 0.109924 0.942902
vt 0.078491 0.706543
vt 0.067322 0.993122
vt 0.117981 0.993122
vt 0.015327 0.872925
vt 0.061737 0.580322
vt 0.009659 0.802856
vt 0.067627 0.588379
vt 0.211182 0.366699
vt 0.097534 0.226562
vt 0.201416 0.163086
vt 0.209351 0.044434
vt 0.263916 0.474121
vt 0.330078 0.398926
vt 0.313477 0.472168
vt 0.311523 0.259277
vt 0.399658 0.225098
vt 0.380859 0.327637
vt 0.308105 0.134766
vt 0.266602 0.047852
vt 0.356445 0.084473
vt 0.227905 0.393555
vt 0.096619 0.221191
vt 0.203979 0.158691
vt 0.209351 0.044434
vt 0.263916 0.474121
vt 0.343750 0.470703
vt 0.335938 0.415527
vt 0.315430 0.254395
vt 0.399170 0.227539
vt 0.380371 0.330078
vt 0.273438 0.077637
vt 0.267090 0.047852
vt 0.356689 0.083496
vt 0.326660 0.114258
vt 0.227905 0.393555
vt 0.096619 0.221191
vt 0.203979 0.158691
vt 0.209351 0.044434
vt 0.263916 0.474121
vt 0.343750 0.470703
vt 0.335938 0.415527
vt 0.315430 0.254395
vt 0.399170 0.227539
vt 0.380371 0.330078
vt 0.273438 0.077637
vt 0.267090 0.047852
vt 0.356689 0.083496
vt 0.326660 0.114258
vt 0.227905 0.393555
vt 0.096619 0.221191
vt 0.203979 0.158691
vt 0.209351 0.044434
vt 0.263916 0.474121
vt 0.343750 0.470703
vt 0.335938 0.415527
vt 0.315430 0.254395
vt 0.399170 0.227539
vt 0.380371 0.330078
vt 0.273438 0.077637
vt 0.267090 0.047852
vt 0.356689 0.083496
vt 0.326660 0.114258
vt 0.227905 0.393555
vt 0.096619 0.221191
vt 0.203979 0.158691
vt 0.209351 0.044434
vt 0.263916 0.474121
vt 0.343750 0.470703
vt 0.335938 0.415527
vt 0.315430 0.254395
vt 0.399170 0.227539
vt 0.380371 0.330078
vt 0.273438 0.077637
vt 0.267090 0.047852
vt 0.356689 0.083496
vt 0.326660 0.114258
vt 0.227905 0.393555
vt 0.096619 0.221191
vt 0.203979 0.158691
vt 0.209351 0.044434
vt 0.263916 0.474121
vt 0.343750 0.470703
vt 0.335938 0.415527
vt 0.315430 0.254395
vt 0.399170 0.227539
vt 0.380371 0.330078
vt 0.273438 0.077637
vt 0.267090 0.047852
vt 0.356689 0.083496
vt 0.326660 0.114258
vt 0.227905 0.393555
vt 0.096619 0.221191
vt 0.203979 0.158691
vt 0.209351 0.044434
vt 0.263916 0.474121
vt 0.335938 0.415527
vt 0.343750 0.470703
vt 0.315430 0.254395
vt 0.399170 0.227539
vt 0.380371 0.330078
vt 0.273438 0.077637
vt 0.267090 0.047852
vt 0.356689 0.083496
vt 0.326660 0.114258
vt 0.100464 0.247070
vt 0.232056 0.391602
vt 0.092285 0.526855
vt 0.069824 0.513916
vt 0.033203 0.401855
vt 0.097168 0.029297
vt 0.010040 0.301758
vt 0.060394 0.028809
vt 0.008560 0.416504
vt 0.390625 0.325684
vt 0.575195 0.474121
vt 0.422607 0.490234
vt 0.447754 0.195801
vt 0.470459 0.094727
vt 0.587402 0.250488
vt 0.513672 0.115723
vt 0.501465 0.036133
vt 0.494873 0.035156
vt 0.067444 0.588135
vt 0.055847 0.645020
vt 0.058716 0.585449
vt 0.077942 0.711914
vt 0.031891 0.907471
vt 0.009315 0.803345
vt 0.014648 0.871948
vt 0.112793 0.937866
vt 0.072083 0.993122
vt 0.112122 0.993122
vt 0.108887 0.724365
vt 0.178833 0.938263
vt 0.242676 0.940918
vt 0.290771 0.886353
vt 0.201294 0.766846
vt 0.100464 0.247070
vt 0.232056 0.391602
vt 0.092285 0.526855
vt 0.069824 0.513916
vt 0.033203 0.401855
vt 0.097168 0.029297
vt 0.010040 0.301758
vt 0.060394 0.028809
vt 0.008560 0.416504
vt1 0.537109 0.139648
vt1 0.530762 0.078125
vt1 0.599121 0.056641
vt1 0.630371 0.145020
vt1 0.731934 0.100586
vt1 0.730957 0.108398
vt1 0.845215 0.287109
vt1 0.835449 0.254395
vt1 0.829102 0.312988
vt1 0.791016 0.280762
vt1 0.808105 0.312012
vt1 0.707031 0.293945
vt1 0.783691 0.254883
vt1 0.832031 0.355957
vt1 0.824219 0.368652
vt1 0.760742 0.363281
vt1 0.653320 0.269531
vt1 0.727539 0.345703
vt1 0.069580 0.527832
vt1 0.029999 0.429199
vt1 0.082336 0.501709
vt1 0.035065 0.335449
vt1 0.112549 0.414551
vt1 0.117126 0.390625
vt1 0.096497 0.329102
vt1 0.563965 0.281738
vt1 0.506836 0.366699
vt1 0.500977 0.364258
vt1 0.581543 0.239746
vt1 0.508301 0.342285
vt1 0.573730 0.236328
vt1 0.525879 0.284668
vt1 0.575684 0.192871
vt1 0.555664 0.217773
vt1 0.559082 0.188477
vt1 0.528320 0.203125
vt1 0.500000 0.214844
vt1 0.167358 0.573730
vt1 0.164062 0.572266
vt1 0.203247 0.528076
vt1 0.185059 0.525146
vt1 0.240967 0.454102
vt1 0.237183 0.441406
vt1 0.243530 0.447754
vt1 0.187012 0.483398
vt1 0.161743 0.421387
vt1 0.189331 0.410156
vt1 0.217285 0.427734
vt1 0.237549 0.390625
vt1 0.220459 0.397461
vt1 0.962402 0.061523
vt1 0.968750 0.123535
vt1 0.900391 0.145020
vt1 0.869141 0.056641
vt1 0.767578 0.101074
vt1 0.768555 0.093262
vt1 0.902832 0.487305
vt1 0.943848 0.482910
vt1 0.958008 0.528076
vt1 0.899414 0.548828
vt1 0.929199 0.616455
vt1 0.923828 0.615967
vt1 0.946289 0.965271
vt1 0.901855 0.970001
vt1 0.886230 0.920654
vt1 0.949707 0.898193
vt1 0.917969 0.825195
vt1 0.923340 0.825684
vt1 0.845703 0.395020
vt1 0.886719 0.390625
vt1 0.901367 0.436035
vt1 0.842285 0.457031
vt1 0.872070 0.524414
vt1 0.866699 0.523926
vt1 0.836426 0.961517
vt1 0.791992 0.966248
vt1 0.776367 0.916687
vt1 0.840332 0.894104
vt1 0.808105 0.820801
vt1 0.813965 0.821289
vt1 0.644531 0.617432
vt1 0.640137 0.575928
vt1 0.686523 0.561523
vt1 0.707520 0.620850
vt1 0.775391 0.591064
vt1 0.774902 0.596436
vt1 0.797363 0.731934
vt1 0.801758 0.773438
vt1 0.755859 0.787720
vt1 0.734863 0.728516
vt1 0.666504 0.758301
vt1 0.666992 0.753052
vt1 0.225342 0.954254
vt1 0.239380 0.965454
vt1 0.218506 0.965729
vt1 0.279785 0.945343
vt1 0.218628 0.946503
vt1 0.178101 0.966309
vt1 0.170532 0.932373
vt1 0.194336 0.917786
vt1 0.203369 0.891357
vt1 0.291016 0.938782
vt1 0.196899 0.864624
vt1 0.184448 0.881775
vt1 0.250244 0.876587
vt1 0.337646 0.964050
vt1 0.275391 0.891846
vt1 0.333496 0.964111
vt1 0.598633 0.559814
vt1 0.570801 0.619873
vt1 0.533203 0.595703
vt1 0.492676 0.612305
vt1 0.625977 0.524902
vt1 0.590332 0.515381
vt1 0.617188 0.509033
vt1 0.547363 0.543945
vt1 0.521484 0.520264
vt1 0.558594 0.510010
vt1 0.506348 0.564941
vt1 0.484619 0.592773
vt1 0.482422 0.557129
vt1 0.286377 0.093750
vt1 0.288086 0.057129
vt1 0.300537 0.090820
vt1 0.271240 0.062988
vt1 0.253174 0.030273
vt1 0.282227 0.162109
vt1 0.251465 0.193359
vt1 0.206909 0.201660
vt1 0.192749 0.253418
vt1 0.152954 0.229492
vt1 0.160767 0.184570
vt1 0.153320 0.075684
vt1 0.324463 0.142578
vt1 0.393066 0.056641
vt1 0.437256 0.101562
vt1 0.494141 0.090332
vt1 0.289062 0.169922
vt1 0.300537 0.208984
vt1 0.326904 0.198242
vt1 0.403564 0.168457
vt1 0.427002 0.206543
vt1 0.374268 0.209473
vt1 0.485596 0.125977
vt1 0.499512 0.119141
vt1 0.492920 0.167969
vt1 0.474121 0.156738
vt1 0.109375 0.111816
vt1 0.086670 0.106445
vt1 0.102905 0.117676
vt1 0.077820 0.056641
vt1 0.066650 0.077148
vt1 0.066772 0.057129
vt1 0.056915 0.094727
vt1 0.037537 0.093262
vt1 0.029999 0.177734
vt1 0.062317 0.226074
vt1 0.084351 0.139160
vt1 0.068176 0.286621
vt1 0.080261 0.236328
vt1 0.107666 0.277832
vt1 0.108826 0.220215
vt1 0.109619 0.181152
vt1 0.648926 0.189941
vt1 0.656738 0.223633
vt1 0.737793 0.224609
vt1 0.808594 0.181641
vt1 0.701172 0.184570
vt1 0.741211 0.157715
vt1 0.815918 0.164551
vt1 0.833008 0.179199
vt1 0.824707 0.185059
vt1 0.792969 0.219238
vt1 0.799805 0.225586
vt1 0.841309 0.197266
vt1 0.846191 0.191406
vt1 0.846680 0.199707
vt1 0.687988 0.487305
vt1 0.722168 0.416992
vt1 0.761230 0.441406
vt1 0.801270 0.424316
vt1 0.666504 0.512451
vt1 0.703613 0.521240
vt1 0.675293 0.528320
vt1 0.746582 0.495117
vt1 0.772461 0.516846
vt1 0.735352 0.527344
vt1 0.791504 0.458008
vt1 0.808594 0.442383
vt1 0.810547 0.477539
vt1 0.800781 0.477051
vt1 0.098022 0.629639
vt1 0.092712 0.617920
vt1 0.102905 0.612793
vt1 0.081665 0.644043
vt1 0.061676 0.632324
vt1 0.073730 0.651123
vt1 0.053711 0.707275
vt1 0.072021 0.698730
vt1 0.073914 0.713135
vt1 0.049805 0.719971
vt1 0.034363 0.621338
vt1 0.057465 0.624512
vt1 0.045197 0.751465
vt1 0.050415 0.750000
vt1 0.068115 0.575439
vt1 0.105713 0.575928
vt1 0.097595 0.561523
vt1 0.202759 0.306152
vt1 0.265381 0.228027
vt1 0.305664 0.269043
vt1 0.357422 0.258789
vt1 0.170532 0.331543
vt1 0.181030 0.366699
vt1 0.204956 0.356934
vt1 0.274902 0.330078
vt1 0.296387 0.364746
vt1 0.248291 0.367676
vt1 0.349609 0.291016
vt1 0.362305 0.285156
vt1 0.356445 0.329102
vt1 0.339111 0.319336
vt1 0.128662 0.809692
vt1 0.108032 0.804565
vt1 0.122803 0.815063
vt1 0.099915 0.759277
vt1 0.089722 0.777832
vt1 0.089905 0.759888
vt1 0.080872 0.794067
vt1 0.063232 0.792847
vt1 0.056335 0.869751
vt1 0.085815 0.913696
vt1 0.105957 0.834717
vt1 0.091187 0.968933
vt1 0.102173 0.923157
vt1 0.127075 0.961060
vt1 0.128174 0.908508
vt1 0.128906 0.872925
vt1 0.414551 0.876709
vt1 0.400635 0.865601
vt1 0.421387 0.865234
vt1 0.360107 0.885620
vt1 0.421387 0.884460
vt1 0.461914 0.864624
vt1 0.469482 0.898621
vt1 0.445557 0.913208
vt1 0.436523 0.939606
vt1 0.348877 0.892212
vt1 0.443115 0.966309
vt1 0.455566 0.949219
vt1 0.389648 0.954376
vt1 0.302246 0.866943
vt1 0.364502 0.939117
vt1 0.306396 0.866943
vt1 0.320557 0.608643
vt1 0.348633 0.548340
vt1 0.386230 0.572510
vt1 0.426758 0.556152
vt1 0.293457 0.643311
vt1 0.329102 0.653076
vt1 0.302246 0.659424
vt1 0.372070 0.624512
vt1 0.397705 0.648193
vt1 0.360840 0.658447
vt1 0.412842 0.603271
vt1 0.434814 0.575439
vt1 0.437256 0.611328
vt1 0.643555 0.323242
vt1 0.704102 0.371582
vt1 0.672363 0.402344
vt1 0.680176 0.442383
vt1 0.624023 0.298340
vt1 0.597168 0.306152
vt1 0.604492 0.324707
vt1 0.625488 0.378906
vt1 0.598633 0.395020
vt1 0.596191 0.357910
vt1 0.655273 0.436523
vt1 0.660156 0.446289
vt1 0.625977 0.441406
vt1 0.633789 0.428223
vt1 0.421387 0.464355
vt1 0.473633 0.399414
vt1 0.506836 0.433594
vt1 0.549805 0.424805
vt1 0.394531 0.485352
vt1 0.403320 0.514893
vt1 0.423096 0.506592
vt1 0.481445 0.484375
vt1 0.499268 0.512939
vt1 0.459229 0.515381
vt1 0.543457 0.452148
vt1 0.554199 0.446777
vt1 0.549316 0.483887
vt1 0.534668 0.475098
vt1 0.691895 0.925781
vt1 0.631348 0.877625
vt1 0.663086 0.846802
vt1 0.655273 0.807007
vt1 0.710938 0.950562
vt1 0.738281 0.942444
vt1 0.730957 0.924072
vt1 0.709961 0.870361
vt1 0.736328 0.853882
vt1 0.738770 0.890808
vt1 0.680176 0.812866
vt1 0.675293 0.803223
vt1 0.709473 0.807739
vt1 0.701660 0.820923
vt1 0.174561 0.782959
vt1 0.109009 0.730469
vt1 0.143433 0.697021
vt1 0.134888 0.653564
vt1 0.195679 0.809937
vt1 0.225342 0.801147
vt1 0.217163 0.781128
vt1 0.194336 0.722656
vt1 0.223389 0.704590
vt1 0.225830 0.744873
vt1 0.161987 0.659912
vt1 0.156860 0.649414
vt1 0.193848 0.654541
vt1 0.185547 0.668945
vt1 0.296387 0.784546
vt1 0.344971 0.724121
vt1 0.375977 0.755981
vt1 0.416016 0.748047
vt1 0.271484 0.804077
vt1 0.279541 0.831421
vt1 0.298096 0.823975
vt1 0.352295 0.802979
vt1 0.368652 0.829712
vt1 0.331543 0.832031
vt1 0.409912 0.773071
vt1 0.419678 0.768311
vt1 0.415283 0.802490
vt1 0.401855 0.794800
vt1 0.485107 0.784424
vt1 0.533203 0.724121
vt1 0.564453 0.755859
vt1 0.604492 0.748047
vt1 0.460449 0.803833
vt1 0.486816 0.823608
vt1 0.468506 0.831177
vt1 0.540527 0.802734
vt1 0.557129 0.829346
vt1 0.520020 0.831665
vt1 0.598145 0.772949
vt1 0.607910 0.768188
vt1 0.603516 0.802246
vt1 0.590332 0.794556
vt1 0.440186 0.301758
vt1 0.468262 0.370117
vt1 0.401123 0.399902
vt1 0.394775 0.392578
vt1 0.396240 0.348145
vt1 0.467285 0.224121
vt1 0.401123 0.309570
vt1 0.454102 0.219238
vt1 0.385742 0.350098
vt1 0.967773 0.260254
vt1 0.887207 0.195312
vt1 0.954102 0.188477
vt1 0.942871 0.316895
vt1 0.933105 0.361328
vt1 0.881836 0.293457
vt1 0.914062 0.352051
vt1 0.919434 0.386719
vt1 0.922363 0.387207
vt1 0.661133 0.966492
vt1 0.645020 0.948639
vt1 0.664551 0.964172
vt1 0.617188 0.939758
vt1 0.562500 0.876465
vt1 0.603027 0.894287
vt1 0.578613 0.879333
vt1 0.532715 0.896240
vt1 0.523926 0.869019
vt1 0.514160 0.882507
vt1 0.605469 0.947083
vt1 0.516113 0.918335
vt1 0.500000 0.939178
vt1 0.506348 0.968689
vt1 0.568359 0.967804
vt1 0.325928 0.455566
vt1 0.354004 0.523682
vt1 0.286865 0.553711
vt1 0.280518 0.546143
vt1 0.282227 0.501709
vt1 0.353027 0.377930
vt1 0.286865 0.463379
vt1 0.339844 0.373047
vt1 0.271484 0.503662
vn -0.078740 0.992126 0.133858
vn -0.393701 0.889764 0.228346
vn -0.566929 0.771653 0.299212
vn 0.165354 0.960630 0.220472
vn -0.283465 0.141732 0.944882
vn 0.102362 0.149606 0.984252
vn -0.039370 0.267717 0.960630
vn -0.031496 0.165354 0.984252
vn -0.055118 0.362205 0.929134
vn -0.055118 0.259843 0.968504
vn -0.062992 0.362205 0.929134
vn -0.070866 0.322835 0.944882
vn -0.039370 0.149606 0.984252
vn -0.007874 0.511811 0.858268
vn 0.015748 0.566929 0.826771
vn 0.062992 0.637795 0.763779
vn -0.078740 0.141732 0.984252
vn 0.078740 0.637795 0.763779
vn -0.094488 0.141732 0.984252
vn -0.055118 0.897638 0.440945
vn -0.070866 0.283465 0.952756
vn -0.031496 0.889764 0.456693
vn 0.094488 0.598425 0.795275
vn 0.102362 0.614173 0.779527
vn 0.070866 0.755905 0.645669
vn 0.496063 0.598425 0.629921
vn -0.251969 0.464567 0.850394
vn -0.259843 0.480315 0.842520
vn 0.503937 0.606299 0.614173
vn 0.070866 0.645669 0.763779
vn 0.488189 0.629921 0.606299
vn 0.307087 0.763779 0.574803
vn 0.456693 0.677165 0.574803
vn 0.417323 0.732283 0.535433
vn 0.433071 0.740157 0.503937
vn 0.393701 0.803150 0.440945
vn 0.338583 0.889764 0.307086
vn -0.464567 0.141732 0.874016
vn -0.464567 0.141732 0.874016
vn -0.433071 0.440945 0.787401
vn -0.433071 0.488189 0.755905
vn -0.417323 0.582677 0.692913
vn -0.456693 0.614173 0.637795
vn -0.417323 0.590551 0.692913
vn -0.401575 0.748031 0.527559
vn -0.220472 0.889764 0.401575
vn -0.307087 0.803150 0.503937
vn -0.440945 0.677165 0.582677
vn -0.440945 0.692913 0.574803
vn -0.393701 0.748031 0.535433
vn 0.047244 0.992126 0.086614
vn 0.228346 0.952756 -0.196850
vn 0.370079 0.881890 -0.299213
vn -0.141732 0.897638 0.417323
vn -0.102362 0.141732 0.984252
vn -0.283465 0.141732 0.944882
vn -0.637795 0.677165 -0.362205
vn -0.669291 0.732283 -0.094488
vn -0.803150 0.598425 -0.039370
vn -0.685039 0.488189 -0.535433
vn -0.952756 0.118110 -0.291339
vn -0.944882 0.125984 -0.307087
vn -0.448819 0.669291 0.598425
vn -0.204724 0.685039 0.700787
vn -0.094488 0.590551 0.803149
vn -0.574803 0.480315 0.669291
vn -0.456693 0.118110 0.881890
vn -0.480315 0.118110 0.874016
vn 0.488189 0.606299 0.629921
vn 0.606299 0.645669 0.464567
vn 0.755906 0.496063 0.433071
vn 0.448819 0.425197 0.787401
vn 0.637795 0.118110 0.763779
vn 0.614173 0.118110 0.779527
vn 0.653543 0.677165 -0.330709
vn 0.417323 0.771653 -0.480315
vn 0.456693 0.653543 -0.606299
vn 0.842520 0.480315 -0.251969
vn 0.881890 0.118110 -0.456693
vn 0.944882 0.118110 -0.307087
vn 0.952756 0.149606 0.259842
vn 0.779528 0.149606 0.606299
vn 0.488189 0.157480 0.858268
vn 0.984252 0.141732 0.078740
vn -0.944882 0.149606 0.291339
vn -0.984252 0.141732 0.110236
vn -0.937008 0.141732 0.322835
vn -0.984252 0.149606 -0.055118
vn -0.952756 0.157480 -0.259843
vn -0.748031 0.133858 0.653543
vn 0.629921 0.149606 0.763779
vn 0.480315 0.141732 0.866142
vn -0.763780 0.622047 0.188976
vn -0.748031 0.637795 0.204724
vn -0.724409 0.653543 0.212598
vn -0.937008 0.330709 0.110236
vn -0.787402 0.606299 0.118110
vn -0.653543 0.732283 0.212598
vn -0.771654 0.622047 0.125984
vn -0.850394 0.519685 0.110236
vn -0.897638 0.425197 0.102362
vn -0.952756 0.283465 0.094488
vn -0.929134 0.346457 0.125984
vn -0.889764 0.433071 0.118110
vn -0.960630 0.236220 0.118110
vn -0.984252 0.133858 0.102362
vn -0.976378 0.165354 0.118110
vn -0.984252 0.141732 0.102362
vn -0.740157 0.637795 0.204724
vn -0.929134 0.291339 0.236220
vn -0.952756 0.291339 0.102362
vn -0.992126 0.118110 -0.070866
vn -0.598425 0.779527 0.173228
vn -0.535433 0.803150 0.275590
vn -0.480315 0.850394 0.220472
vn -0.708661 0.661417 0.236220
vn -0.409449 0.779527 0.480315
vn -0.393701 0.858268 0.322835
vn -0.842520 0.464567 0.267716
vn -0.984252 0.133858 0.110236
vn -0.748031 0.299213 0.590551
vn 0.228346 0.622047 -0.748031
vn 0.629921 0.141732 0.763779
vn 0.283465 0.283464 -0.913386
vn -0.047244 0.881890 0.472441
vn -0.283465 0.149606 0.944882
vn 0.220472 0.614173 -0.755905
vn 0.173228 0.748031 -0.637795
vn 0.110236 0.881890 -0.456693
vn 0.118110 0.858268 -0.503937
vn 0.047244 0.952756 -0.291339
vn 0.070866 0.992126 -0.133858
vn 0.165354 0.866142 0.480315
vn 0.267717 0.937008 0.236220
vn -0.330709 0.866142 0.370079
vn -0.086614 0.952756 0.291338
vn -0.952756 0.291339 0.094488
vn 0.393701 0.889764 0.220472
vn 0.535433 0.795276 0.275590
vn 0.551181 0.787401 0.275590
vn 0.559055 0.763779 0.314961
vn 0.763780 0.488189 0.425197
vn 0.661417 0.661417 0.354331
vn 0.409449 0.480315 0.779527
vn -0.094488 0.149606 0.984252
vn 0.763780 0.149606 0.622047
vn 0.685039 0.456693 0.566929
vn 0.204724 0.763779 0.606299
vn 0.496063 0.637795 0.590551
vn 0.322835 0.763779 0.566929
vn -0.464567 0.149606 0.874016
vn 0.606299 0.283465 0.740157
vn -0.094488 0.133858 0.984252
vn 0.842520 0.275591 0.456693
vn 0.874016 0.125984 0.464567
vn 0.905512 0.283465 0.307087
vn 0.826772 0.488189 0.283464
vn 0.677165 0.629921 0.385827
vn 0.803150 0.527559 0.259842
vn 0.755906 0.590551 0.283464
vn 0.685039 0.637795 0.346457
vn 0.645669 0.653543 0.385827
vn 0.582677 0.669291 0.464567
vn 0.070866 0.448819 -0.889764
vn 0.125984 0.574803 -0.811024
vn 0.110236 0.629921 -0.763779
vn 0.094488 0.275590 -0.952756
vn 0.078740 0.433071 -0.897638
vn 0.094488 0.259842 -0.960630
vn 0.086614 0.133858 -0.984252
vn -0.086614 0.141732 -0.984252
vn 0.086614 0.275590 -0.952756
vn 0.212598 0.645669 -0.732283
vn 0.196850 0.763779 -0.614173
vn 0.094488 0.472441 -0.874016
vn 0.094488 0.283464 -0.952756
vn 0.220472 0.629921 -0.748031
vn 0.385827 0.629921 0.669291
vn 0.598425 0.291339 0.748031
vn 0.425197 0.299213 0.858268
vn 0.283465 0.125984 0.952756
vn 0.322835 0.732283 0.606299
vn 0.283465 0.771653 0.566929
vn 0.299213 0.771653 0.559055
vn 0.244094 0.661417 0.708661
vn 0.141732 0.866142 0.472441
vn 0.220472 0.858268 0.464567
vn 0.267717 0.307087 0.913386
vn 0.267717 0.141732 0.952756
vn 0.094488 0.480315 0.874016
vn 0.236220 0.488189 0.842520
vn -0.598425 0.236221 0.771653
vn -0.598425 0.275591 0.755905
vn -0.598425 0.244095 0.763779
vn -0.598425 0.275591 0.748031
vn -0.559055 0.425197 0.708661
vn -0.590551 0.291339 0.748031
vn -0.464567 0.283465 0.842520
vn -0.496063 0.157480 0.850394
vn -0.488189 0.141732 0.858268
vn -0.448819 0.275591 0.850394
vn -0.448819 0.519685 0.724409
vn -0.559055 0.440945 0.700787
vn -0.283465 0.141732 0.952756
vn -0.291339 0.133858 0.944882
vn -0.535433 0.433071 0.724409
vn -0.598425 0.283465 0.748031
vn -0.574803 0.330709 0.748031
vn -0.251969 0.944882 -0.220473
vn 0.125984 0.992126 0.062992
vn -0.299213 0.952756 0.094488
vn -0.551181 0.472441 0.685039
vn -0.330709 0.897638 -0.283465
vn -0.417323 0.811023 -0.401575
vn -0.448819 0.803149 -0.393701
vn -0.551181 0.771653 -0.322835
vn -0.606299 0.606299 -0.519685
vn -0.503937 0.732283 -0.456693
vn -0.779528 0.622047 -0.062992
vn -0.881890 0.456693 0.094488
vn -0.842520 0.291339 -0.456693
vn -0.771654 0.480315 -0.409449
vn -0.472441 0.787401 -0.393701
vn -0.677165 0.637795 -0.362205
vn -0.496063 0.771653 -0.401575
vn -0.881890 0.464567 0.094488
vn -0.913386 0.307087 -0.259843
vn -0.984252 0.157480 0.094488
vn -0.905512 0.299213 -0.291339
vn -0.881890 0.149606 -0.448819
vn -0.740157 0.330709 -0.590551
vn -0.661417 0.511811 -0.551181
vn -0.614173 0.629921 -0.472441
vn -0.614173 0.566929 -0.543307
vn -0.598425 0.606299 -0.519685
vn -0.488189 0.661417 -0.559055
vn -0.488189 0.677165 -0.551181
vn -0.440945 0.748031 -0.496063
vn 0.661417 0.661417 -0.354331
vn 0.582677 0.755905 -0.299213
vn 0.559055 0.763779 -0.322835
vn 0.850394 0.456693 -0.267717
vn 0.669291 0.645669 -0.370079
vn 0.480315 0.779527 -0.401575
vn 0.614173 0.653543 -0.440945
vn 0.692913 0.582677 -0.417323
vn 0.763780 0.440945 -0.472441
vn 0.913386 0.291339 -0.283465
vn 0.748031 0.338583 -0.566929
vn 0.716535 0.448819 -0.535433
vn 0.787402 0.236220 -0.574803
vn 0.952756 0.133858 0.275590
vn 0.858268 0.157480 -0.496063
vn 0.984252 0.141732 0.110236
vn 0.574803 0.748031 -0.330709
vn 0.818898 0.307087 -0.480315
vn 0.913386 0.307087 -0.267717
vn 0.992126 0.110236 0.070866
vn 0.440945 0.866142 -0.251969
vn 0.377953 0.897638 -0.212599
vn 0.354331 0.897638 -0.267717
vn 0.472441 0.874016 -0.149606
vn 0.102362 0.992126 -0.031496
vn 0.220472 0.960630 -0.173228
vn 0.771654 0.629921 -0.062992
vn 0.984252 0.125984 0.094488
vn 0.685039 0.637795 0.362205
vn -0.519685 0.755905 -0.409449
vn -0.866142 0.496063 -0.062992
vn -0.905512 0.307087 -0.299213
vn -0.952756 0.118110 -0.275591
vn -0.417323 0.771653 -0.480315
vn -0.291339 0.771653 -0.566929
vn -0.322835 0.748031 -0.574803
vn -0.511811 0.606299 -0.606299
vn -0.259843 0.606299 -0.755905
vn -0.330709 0.661417 -0.677165
vn -0.874016 0.141732 -0.472441
vn -0.881890 0.125984 -0.456693
vn -0.629921 0.149606 -0.763779
vn -0.732283 0.275590 -0.622047
vn -0.456693 0.732283 0.503937
vn -0.118110 0.496063 0.858268
vn -0.448819 0.299213 0.842520
vn -0.433071 0.118110 0.889764
vn -0.519685 0.755905 0.401575
vn -0.598425 0.755905 0.275590
vn -0.614173 0.732283 0.307086
vn -0.685039 0.503937 0.527559
vn -0.834646 0.488189 0.267716
vn -0.732283 0.637795 0.244094
vn -0.614173 0.141732 0.779527
vn -0.496063 0.118110 0.858268
vn -0.779528 0.149606 0.606299
vn -0.748031 0.259843 0.614173
vn 0.385827 0.622047 0.685039
vn 0.700787 0.464567 0.535433
vn 0.622047 0.275591 0.732283
vn 0.661417 0.118110 0.740157
vn 0.322835 0.645669 0.692913
vn 0.188976 0.637795 0.748031
vn 0.220472 0.606299 0.763779
vn 0.299213 0.440945 0.850394
vn 0.125984 0.338583 0.929134
vn 0.133858 0.503937 0.850394
vn 0.496063 0.133858 0.858268
vn 0.606299 0.118110 0.787401
vn 0.299213 0.141732 0.944882
vn 0.433071 0.157480 0.889764
vn 0.645669 0.732283 -0.196850
vn 0.496063 0.629921 -0.590551
vn 0.834646 0.314961 -0.448819
vn 0.858268 0.118110 -0.496063
vn 0.661417 0.740157 -0.102362
vn 0.724409 0.685039 0.039370
vn 0.755906 0.653543 0.023622
vn 0.874016 0.488189 -0.078740
vn 0.881890 0.448819 0.125984
vn 0.795276 0.598425 0.086614
vn 0.944882 0.141732 -0.283465
vn 0.944882 0.125984 -0.299213
vn 0.984252 0.141732 0.078740
vn 0.984252 0.165354 -0.078740
vn -0.078740 0.133858 0.984252
vn -0.622047 0.133858 0.771653
vn -0.448819 0.267717 0.850394
vn -0.913386 0.299213 0.275590
vn 0.055118 0.133858 0.992126
vn 0.236220 0.125984 0.968504
vn 0.236220 0.133858 0.960630
vn 0.259843 0.141732 0.952756
vn 0.480315 0.118110 0.866142
vn 0.322835 0.118110 0.937008
vn -0.094488 0.283465 0.952756
vn -0.417323 0.464567 0.779527
vn 0.755906 0.141732 0.637795
vn 0.464567 0.141732 0.874016
vn -0.094488 0.149606 -0.984252
vn 0.874016 0.141732 -0.472441
vn 0.771654 0.629921 0.078740
vn 0.448819 0.157480 0.881890
vn -0.259843 0.157480 -0.952756
vn -0.480315 0.149606 -0.866142
vn -0.464567 0.141732 -0.874016
vn -0.755906 0.157480 -0.637795
vn -0.944882 0.133858 -0.307087
vn -0.748031 0.141732 -0.653543
vn -0.110236 0.149606 0.984252
vn -0.086614 0.149606 0.984252
vn -0.763780 0.141732 0.629921
vn -0.771654 0.141732 0.622047
vn -0.669291 0.661417 0.346457
vn -0.385827 0.811024 0.440945
vn -0.629921 0.748031 0.220472
vn -0.653543 0.732283 0.204724
vn -0.740157 0.629921 0.228346
vn -0.732283 0.283465 0.614173
vn -0.826772 0.496063 0.259842
vn -0.866142 0.133858 0.472441
vn -0.763780 0.606299 0.228346
vn 0.299213 0.866142 -0.401575
vn 0.102362 0.622047 -0.771653
vn 0.251969 0.787401 -0.566929
vn 0.291339 0.779527 -0.551181
vn 0.291339 0.771653 -0.566929
vn 0.078740 0.456693 -0.889764
vn 0.094488 0.472441 -0.874016
vn 0.102362 0.141732 -0.984252
vn 0.283465 0.149606 -0.944882
vn -0.078740 0.275591 0.960630
vn 0.283465 0.267717 0.921260
vn -0.078740 0.149606 0.984252
vn 0.440945 0.307087 0.842520
vn 0.629921 0.259843 0.732283
vn 0.629921 0.165354 0.763779
vn 0.637795 0.236221 0.740157
vn 0.574803 0.417323 0.700787
vn 0.629921 0.322835 0.708661
vn 0.590551 0.409449 0.692913
vn 0.401575 0.464567 0.795275
vn 0.519685 0.503937 0.692913
vn 0.480315 0.622047 0.622047
vn 0.409449 0.740157 0.535433
vn 0.362205 0.653543 0.661417
vn 0.433071 0.874016 -0.228347
vn 0.094488 0.944882 -0.307087
vn 0.456693 0.795275 -0.401575
vn 0.488189 0.779527 -0.401575
vn 0.527559 0.740157 -0.417323
vn 0.267717 0.283465 0.921260
vn 0.614173 0.629921 -0.472441
vn 0.629921 0.133858 0.763779
vn 0.590551 0.653543 -0.480315
tan -0.241304 0.111662 -0.969558 1.000000
tan -0.310869 0.104780 -0.944262 1.000000
tan -0.236096 0.195424 -0.951330 1.000000
tan -0.225308 0.254758 -0.941038 1.000000
tan -0.256681 0.937442 -0.217620 1.000000
tan -0.244776 0.959204 -0.120342 1.000000
tan -0.989026 -0.131874 -0.003782 1.000000
tan -0.989646 -0.137206 -0.008618 1.000000
tan -0.990018 -0.115506 -0.013702 1.000000
tan -0.997892 -0.128712 -0.022258 1.000000
tan -0.953810 0.235228 -0.156364 1.000000
tan -0.984500 0.141918 -0.122326 1.000000
tan -0.992312 -0.106950 -0.023436 1.000000
tan -0.948664 0.259780 -0.163618 1.000000
tan -0.941534 0.301383 -0.188728 1.000000
tan -0.920950 0.327361 -0.197408 1.000000
tan -0.888028 0.442681 -0.134788 1.000000
tan -0.920950 0.337033 -0.186496 1.000000
tan -0.891438 -0.441875 -0.021948 1.000000
tan -0.986174 -0.111538 0.103788 1.000000
tan -0.930312 -0.365739 0.039618 1.000000
tan -0.986050 -0.106888 0.140244 1.000000
tan -0.923120 -0.250728 0.298345 1.000000
tan -0.916796 -0.232872 0.303863 1.000000
tan -0.925414 -0.189844 0.323827 1.000000
tan -0.612809 -0.273606 0.742514 1.000000
tan -0.753363 -0.651249 0.132556 1.000000
tan -0.750946 -0.647901 0.137764 1.000000
tan -0.607477 -0.258168 0.753301 1.000000
tan -0.746853 -0.473371 0.469465 1.000000
tan -0.627317 -0.229214 0.743257 1.000000
tan -0.846240 -0.062434 0.535061 1.000000
tan -0.746171 -0.056730 0.659681 1.000000
tan -0.895034 0.231136 0.381487 1.000000
tan -0.896026 0.308141 0.317441 1.000000
tan -0.878914 0.198896 0.422469 1.000000
tan -0.884804 0.193626 0.414533 1.000000
tan -0.846488 -0.369335 -0.390043 1.000000
tan -0.840722 -0.372993 -0.386385 1.000000
tan -0.901482 -0.265051 -0.347387 1.000000
tan -0.899994 -0.256557 -0.349929 1.000000
tan -0.906318 -0.249799 -0.335793 1.000000
tan -0.859880 -0.134106 -0.486577 1.000000
tan -0.905884 -0.249799 -0.332693 1.000000
tan -0.743567 0.066464 -0.660239 1.000000
tan -0.723541 0.127038 -0.678715 1.000000
tan -0.726021 0.138694 -0.663463 1.000000
tan -0.815922 -0.042408 -0.568169 1.000000
tan -0.820138 -0.044206 -0.575857 1.000000
tan -0.720999 0.112468 -0.687271 1.000000
tan 0.776799 -0.090706 0.615289 1.000000
tan 0.830058 -0.084444 0.554157 1.000000
tan 0.775498 -0.114948 0.620373 1.000000
tan 0.725959 -0.191146 0.657697 1.000000
tan -0.306839 -0.944510 0.104098 1.000000
tan -0.357121 -0.930002 0.032364 1.000000
tan -0.622481 -0.730051 -0.268770 1.000000
tan -0.700291 -0.670531 -0.236220 1.000000
tan -0.572447 -0.785294 -0.258540 1.000000
tan -0.442309 -0.863352 -0.221278 1.000000
tan -0.094178 -0.994916 -0.095356 1.000000
tan -0.090024 -0.991940 -0.129952 1.000000
tan -0.281853 -0.742141 0.618637 1.000000
tan -0.232438 -0.730547 0.646227 1.000000
tan -0.261331 -0.793105 0.552421 1.000000
tan -0.227974 -0.875504 0.432513 1.000000
tan -0.096534 -0.989894 0.082584 1.000000
tan -0.119598 -0.998388 0.069192 1.000000
tan 0.553661 -0.772521 0.314465 1.000000
tan 0.595201 -0.755905 0.273793 1.000000
tan 0.429661 -0.869552 0.246079 1.000000
tan 0.389857 -0.886850 0.256681 1.000000
tan 0.063302 -0.996156 0.101184 1.000000
tan 0.041850 -0.991010 0.117180 1.000000
tan 0.380805 -0.674127 -0.627813 1.000000
tan 0.346581 -0.624837 -0.702709 1.000000
tan 0.331949 -0.756587 -0.565503 1.000000
tan 0.325315 -0.818960 -0.473371 1.000000
tan 0.101494 -0.993242 -0.060884 1.000000
tan 0.112530 -0.996962 -0.037200 1.000000
tan -0.115940 0.981400 -0.139934 1.000000
tan -0.132122 0.986174 -0.073470 1.000000
tan -0.049848 0.988468 -0.153016 1.000000
tan -0.124124 0.969682 -0.193874 1.000000
tan -0.081654 -0.969682 0.233121 1.000000
tan -0.112964 -0.968008 0.235973 1.000000
tan 0.184760 0.981958 0.105152 1.000000
tan 0.148304 0.987290 0.031496 1.000000
tan 0.132866 0.986856 0.110918 1.000000
tan 0.295679 0.950648 0.143716 1.000000
tan 0.417819 -0.891004 -0.170066 1.000000
tan 0.584165 -0.789199 -0.194804 1.000000
tan 0.000248 0.290408 -0.954926 1.000000
tan 0.118916 0.428297 -0.899808 1.000000
tan 0.143840 0.444603 -0.876620 1.000000
tan -0.021700 0.259532 -0.963048 1.000000
tan 0.044392 0.246140 -0.967574 1.000000
tan 0.225618 0.452477 -0.864964 1.000000
tan 0.190960 0.416641 -0.887532 1.000000
tan 0.011160 0.225556 -0.977246 1.000000
tan -0.075144 0.079670 -0.989894 1.000000
tan -0.125736 -0.093992 -0.985864 1.000000
tan -0.167152 -0.090024 -0.985182 1.000000
tan -0.109430 0.044144 -0.986236 1.000000
tan -0.162750 -0.180048 -0.963606 1.000000
tan -0.095232 0.061008 -0.995474 1.000000
tan -0.133176 -0.081344 -0.987042 1.000000
tan -0.034968 0.412983 -0.908054 1.000000
tan -0.337157 -0.092132 -0.931924 1.000000
tan -0.292021 -0.163680 -0.946742 1.000000
tan -0.217124 -0.397545 -0.889454 1.000000
tan 0.127410 0.597619 -0.787712 1.000000
tan 0.233244 0.378697 -0.898382 1.000000
tan 0.247814 0.459607 -0.857958 1.000000
tan 0.275033 0.384463 -0.883750 1.000000
tan 0.250728 0.550561 -0.789385 1.000000
tan 0.233120 0.597681 -0.771281 1.000000
tan 0.302189 0.453221 -0.836382 1.000000
tan 0.165478 0.700911 -0.695517 1.000000
tan 0.053568 0.839730 -0.541385 1.000000
tan -0.006696 0.885362 -0.457065 1.000000
tan -0.950462 -0.012400 -0.300453 1.000000
tan 0.046376 0.977308 -0.219605 1.000000
tan -0.953314 -0.017608 -0.301321 1.000000
tan -0.937938 0.128712 -0.334057 1.000000
tan 0.957096 0.118296 0.268398 1.000000
tan -0.953066 -0.026288 -0.299337 1.000000
tan -0.951950 -0.032922 -0.297167 1.000000
tan -0.958770 -0.022196 -0.274289 1.000000
tan -0.971480 -0.013454 -0.250604 1.000000
tan -0.987414 -0.001240 -0.164176 1.000000
tan -0.903218 0.121582 0.422965 1.000000
tan -0.910410 -0.061504 0.424329 1.000000
tan -0.324323 0.319052 -0.898010 1.000000
tan -0.241180 0.301568 -0.921322 1.000000
tan -0.280737 0.256432 -0.922066 1.000000
tan 0.293509 0.953438 0.019778 1.000000
tan 0.286379 0.108996 -0.951268 1.000000
tan 0.386261 0.058590 -0.919524 1.000000
tan 0.367661 0.067270 -0.927522 1.000000
tan 0.449935 0.037758 -0.890198 1.000000
tan 0.463885 0.049848 -0.890508 1.000000
tan 0.483787 -0.015066 -0.874946 1.000000
tan 0.493397 0.604749 -0.631781 1.000000
tan 0.353277 0.927150 -0.107012 1.000000
tan 0.495195 0.477215 -0.722797 1.000000
tan 0.488437 0.291834 -0.825284 1.000000
tan 0.016058 0.614545 -0.779589 1.000000
tan 0.148428 0.608407 -0.781760 1.000000
tan -0.001488 0.596689 -0.803026 1.000000
tan 0.771096 0.550437 0.315643 1.000000
tan 0.466985 0.625891 -0.622233 1.000000
tan 0.766136 0.635625 -0.012896 1.000000
tan 0.400459 0.234794 -0.880464 1.000000
tan 0.441689 0.174034 -0.878170 1.000000
tan 0.310621 0.037138 -0.950214 1.000000
tan 0.165168 0.271188 -0.948788 1.000000
tan -0.009424 0.530845 -0.850146 1.000000
tan 0.158782 0.229524 -0.956786 1.000000
tan -0.102486 0.534193 -0.839606 1.000000
tan -0.095728 0.553041 -0.828818 1.000000
tan -0.073160 0.556017 -0.819394 1.000000
tan -0.030256 0.587823 -0.808916 1.000000
tan -0.968628 0.235538 0.041664 1.000000
tan -0.894228 0.429041 0.165168 1.000000
tan -0.909046 0.369273 0.173352 1.000000
tan -0.991196 -0.018972 -0.103788 1.000000
tan -0.867568 -0.411557 -0.274660 1.000000
tan -0.997892 0.039680 -0.087420 1.000000
tan -0.994420 -0.003906 -0.088040 1.000000
tan -0.989956 -0.082708 0.075206 1.000000
tan -0.973030 0.212784 -0.026908 1.000000
tan -0.921570 0.374605 0.062744 1.000000
tan -0.944758 0.314589 0.088412 1.000000
tan -0.956414 0.286255 0.051336 1.000000
tan -0.955050 0.298345 -0.005952 1.000000
tan -0.951702 0.312481 -0.017360 1.000000
tan -0.327361 -0.585777 0.740033 1.000000
tan -0.379441 -0.718581 0.583421 1.000000
tan -0.384463 -0.799925 0.469341 1.000000
tan -0.804266 -0.516027 0.307521 1.000000
tan -0.819952 -0.110732 0.570339 1.000000
tan -0.873582 -0.033480 0.482361 1.000000
tan -0.868622 -0.019840 0.492281 1.000000
tan -0.910286 -0.094054 0.401327 1.000000
tan -0.905822 -0.075516 0.410193 1.000000
tan -0.900056 -0.005456 0.437225 1.000000
tan -0.916362 -0.214272 0.340629 1.000000
tan -0.908054 -0.292827 0.298717 1.000000
tan -0.901730 -0.333685 0.280861 1.000000
tan -0.912518 -0.183768 0.362329 1.000000
tan -0.800670 -0.278877 -0.535557 1.000000
tan -0.782566 0.014384 -0.624775 1.000000
tan -0.798066 -0.276893 -0.536797 1.000000
tan -0.798562 -0.223820 -0.556389 1.000000
tan -0.646165 0.305474 -0.693037 1.000000
tan -0.748093 0.128340 -0.640585 1.000000
tan -0.771902 0.345899 -0.542005 1.000000
tan -0.810218 0.247752 -0.518507 1.000000
tan -0.815488 0.264492 -0.507533 1.000000
tan -0.751938 0.394321 -0.524645 1.000000
tan -0.635129 0.385641 -0.670159 1.000000
tan -0.605121 0.357679 -0.707793 1.000000
tan -0.889702 0.343667 -0.315829 1.000000
tan -0.898072 0.293571 -0.318495 1.000000
tan -0.648955 0.338769 -0.682187 1.000000
tan -0.700291 0.265050 -0.660673 1.000000
tan -0.703391 0.266910 -0.658503 1.000000
tan -0.244529 0.158968 0.960754 1.000000
tan -0.258913 -0.028768 0.970922 1.000000
tan -0.207266 -0.160828 0.965342 1.000000
tan -0.205158 -0.871350 0.435861 1.000000
tan -0.582181 0.040548 0.807613 1.000000
tan -0.802406 -0.124992 0.581437 1.000000
tan -0.782814 -0.140492 0.605803 1.000000
tan -0.773389 -0.323641 0.546841 1.000000
tan -0.787712 -0.349867 0.510819 1.000000
tan -0.831856 -0.269080 0.486453 1.000000
tan -0.561659 -0.651683 0.515159 1.000000
tan -0.372125 -0.811457 0.448881 1.000000
tan -0.511811 -0.696075 0.500155 1.000000
tan -0.629549 -0.558249 0.531589 1.000000
tan -0.226300 0.323641 0.918842 1.000000
tan -0.234422 0.280489 0.932172 1.000000
tan -0.236406 0.323455 0.913572 1.000000
tan 0.008680 -0.183520 0.983322 1.000000
tan -0.262075 0.036642 0.964536 1.000000
tan 0.040176 -0.318619 0.949532 1.000000
tan -0.376899 -0.289478 0.874140 1.000000
tan -0.473557 -0.295182 0.832104 1.000000
tan -0.654907 -0.124992 0.750821 1.000000
tan -0.585591 0.109368 0.804265 1.000000
tan -0.378201 0.288673 0.876558 1.000000
tan -0.499411 0.247195 0.822493 1.000000
tan -0.291215 0.440573 0.849340 1.000000
tan -0.300515 0.473185 0.822245 1.000000
tan -0.311489 0.455205 0.835141 1.000000
tan -0.285263 0.407961 0.868746 1.000000
tan 0.366421 0.127410 0.921818 1.000000
tan 0.253953 0.180420 0.950338 1.000000
tan 0.211234 0.246079 0.947982 1.000000
tan 0.320913 -0.042284 0.947238 1.000000
tan 0.409759 0.098456 0.912828 1.000000
tan 0.239568 0.323207 0.913944 1.000000
tan 0.358795 0.265485 0.893236 1.000000
tan 0.494451 0.031372 0.864778 1.000000
tan 0.569657 -0.113522 0.814992 1.000000
tan 0.373737 -0.329345 0.865770 1.000000
tan 0.644925 -0.190588 0.737119 1.000000
tan 0.624837 -0.068324 0.778907 1.000000
tan 0.621241 -0.237770 0.753301 1.000000
tan -0.206398 -0.385517 0.900800 1.000000
tan 0.520987 -0.267468 0.816480 1.000000
tan -0.091760 -0.132742 0.989956 1.000000
tan 0.767996 -0.356935 0.527497 1.000000
tan 0.551801 -0.649513 0.525513 1.000000
tan 0.401761 -0.779217 0.476905 1.000000
tan 0.026164 -0.696943 0.717837 1.000000
tan 0.427057 0.045632 0.904210 1.000000
tan 0.316573 0.088908 0.938186 1.000000
tan 0.330833 0.147498 0.932420 1.000000
tan 0.245086 0.034224 0.973898 1.000000
tan 0.237832 0.006324 0.972162 1.000000
tan 0.264369 0.111972 0.957406 1.000000
tan 0.191952 -0.138012 0.971294 1.000000
tan 0.004464 -0.620125 0.780334 1.000000
tan 0.040734 -0.529543 0.855416 1.000000
tan -0.794098 -0.602765 -0.104904 1.000000
tan -0.498543 -0.869118 0.010664 1.000000
tan -0.351479 -0.935768 0.103292 1.000000
tan -0.088660 -0.988034 -0.116932 1.000000
tan -0.533883 -0.634323 -0.555211 1.000000
tan -0.384029 -0.635439 -0.667555 1.000000
tan -0.396429 -0.658565 -0.634385 1.000000
tan -0.267345 -0.782627 -0.556947 1.000000
tan -0.211234 -0.802220 -0.570835 1.000000
tan -0.228408 -0.748713 -0.619753 1.000000
tan -0.063240 -0.987662 -0.179304 1.000000
tan -0.056172 -0.982950 -0.162688 1.000000
tan -0.052142 -0.986174 -0.150164 1.000000
tan -0.116374 -0.951702 -0.284642 1.000000
tan -0.114452 -0.609833 0.782442 1.000000
tan 0.003286 -0.863600 0.499597 1.000000
tan 0.083576 -0.922810 0.372249 1.000000
tan -0.094116 -0.989646 0.085560 1.000000
tan -0.552421 -0.655279 0.518569 1.000000
tan -0.661727 -0.656147 0.362825 1.000000
tan -0.627937 -0.684295 0.375907 1.000000
tan -0.470643 -0.861306 0.211606 1.000000
tan -0.463017 -0.877426 0.156488 1.000000
tan -0.602641 -0.770723 0.205902 1.000000
tan -0.162936 -0.988406 0.051336 1.000000
tan -0.154132 -0.986608 0.046686 1.000000
tan -0.152396 -0.987538 0.047740 1.000000
tan -0.252961 -0.966210 0.100688 1.000000
tan 0.747784 -0.648645 0.167834 1.000000
tan 0.517887 -0.847604 0.057598 1.000000
tan 0.428793 -0.905574 -0.023436 1.000000
tan 0.072292 -0.991134 0.093558 1.000000
tan 0.433753 -0.751565 0.498233 1.000000
tan 0.265671 -0.766321 0.586273 1.000000
tan 0.271437 -0.790315 0.549011 1.000000
tan 0.139128 -0.902474 0.418997 1.000000
tan 0.062620 -0.939674 0.333933 1.000000
tan 0.114080 -0.860190 0.491785 1.000000
tan 0.025854 -0.989460 0.139376 1.000000
tan 0.027280 -0.989026 0.127348 1.000000
tan 0.027528 -0.989770 0.139748 1.000000
tan 0.040176 -0.993242 0.156240 1.000000
tan 0.278691 -0.469961 -0.834150 1.000000
tan 0.172360 -0.740467 -0.645049 1.000000
tan 0.044392 -0.852006 -0.515345 1.000000
tan 0.094488 -0.989460 -0.072106 1.000000
tan 0.587141 -0.599603 -0.541757 1.000000
tan 0.667059 -0.689379 -0.278690 1.000000
tan 0.628433 -0.716101 -0.297724 1.000000
tan 0.473061 -0.871412 -0.151776 1.000000
tan 0.459607 -0.875938 -0.096720 1.000000
tan 0.603323 -0.782069 -0.136214 1.000000
tan 0.140616 -0.988034 -0.025296 1.000000
tan 0.124744 -0.989770 -0.022816 1.000000
tan 0.144832 -0.989832 -0.028706 1.000000
tan 0.162192 -0.983322 -0.037572 1.000000
tan -0.281481 0.940852 -0.150474 1.000000
tan -0.226052 0.910286 -0.340133 1.000000
tan 0.224440 0.955670 -0.182404 1.000000
tan 0.172546 0.900304 -0.405605 1.000000
tan 0.040548 0.994730 -0.136462 1.000000
tan 0.195362 0.971108 -0.173972 1.000000
tan 0.175770 0.965466 -0.177754 1.000000
tan 0.263563 0.938434 -0.211482 1.000000
tan 0.307211 0.902164 -0.293385 1.000000
tan 0.323455 0.917602 -0.227107 1.000000
tan 0.214954 0.936884 -0.257425 1.000000
tan 0.251348 0.885052 -0.392895 1.000000
tan 0.168516 0.895778 -0.398785 1.000000
tan 0.154194 0.957778 -0.237275 1.000000
tan 0.228098 0.965156 0.124806 1.000000
tan 0.259285 0.685783 0.685411 1.000000
tan 0.193440 -0.351541 0.916610 1.000000
tan 0.142600 -0.986236 0.103540 1.000000
tan 0.025916 0.990266 0.156612 1.000000
tan -0.138632 0.961994 0.243040 1.000000
tan -0.174840 0.950896 0.247132 1.000000
tan -0.169508 0.894848 0.421849 1.000000
tan -0.147188 0.657325 0.739413 1.000000
tan -0.187488 0.893918 0.408457 1.000000
tan 0.189720 -0.969682 0.168640 1.000000
tan 0.216504 -0.965776 0.165850 1.000000
tan 0.056048 -0.960010 0.283961 1.000000
tan 0.057846 -0.956910 0.289789 1.000000
tan -0.009424 0.459421 -0.895282 1.000000
tan 0.235414 0.547275 -0.800608 1.000000
tan 0.295679 0.490297 -0.818712 1.000000
tan 0.028334 0.293694 -0.960072 1.000000
tan -0.104532 0.226796 -0.964474 1.000000
tan -0.396181 0.547027 -0.724843 1.000000
tan -0.183768 0.195672 -0.958274 1.000000
tan -0.364437 0.469961 -0.801290 1.000000
tan -0.163680 0.161882 -0.977308 1.000000
tan -0.890818 0.405357 0.210552 1.000000
tan -0.969062 0.228532 0.055676 1.000000
tan -0.886850 0.425569 0.196912 1.000000
tan -0.877054 0.451237 0.174592 1.000000
tan -0.893670 0.428235 0.123628 1.000000
tan -0.972224 0.253146 0.043896 1.000000
tan -0.963296 0.258726 0.035712 1.000000
tan -0.923554 0.389733 -0.039928 1.000000
tan -0.801290 0.571393 -0.149916 1.000000
tan -0.932854 -0.355137 0.025420 1.000000
tan -0.853432 -0.370513 0.370265 1.000000
tan -0.932668 -0.354641 -0.020708 1.000000
tan -0.767190 -0.356687 0.531527 1.000000
tan -0.643003 -0.351851 0.677971 1.000000
tan -0.660859 -0.412983 0.634447 1.000000
tan -0.632525 -0.402505 0.673507 1.000000
tan -0.644181 -0.294314 0.703639 1.000000
tan -0.643747 -0.297600 0.707793 1.000000
tan -0.635625 -0.292578 0.714613 1.000000
tan -0.814248 -0.224316 0.542191 1.000000
tan -0.777234 -0.057288 0.624589 1.000000
tan -0.837560 0.104656 0.542067 1.000000
tan -0.849526 0.092752 0.521421 1.000000
tan -0.891004 0.052948 0.435613 1.000000
tan 0.371195 0.059210 0.930622 1.000000
tan 0.194742 0.284953 0.936698 1.000000
tan 0.230578 0.330275 0.916300 1.000000
tan 0.526009 0.108438 0.849960 1.000000
tan 0.643933 -0.027528 0.765205 1.000000
tan -0.478207 -0.790005 0.382045 1.000000
tan 0.647281 -0.067332 0.751689 1.000000
tan -0.392027 -0.788951 0.461591 1.000000
tan 0.666687 -0.051212 0.750015 1.000000
f 3/3/3 2/2/2 1/1/1
f 1/1/1 4/4/4 3/3/3
f 5/5/5 3/3/3 4/4/4
f 6/6/6 5/5/5 4/4/4
f 9/9/9 8/8/8 7/7/7
f 10/10/10 8/8/8 9/9/9
f 10/10/10 9/9/9 11/11/11
f 10/10/10 11/11/11 12/12/12
f 10/10/10 12/12/12 13/13/13
f 14/14/14 12/12/12 11/11/11
f 12/12/12 14/14/14 15/15/15
f 16/16/16 12/12/12 15/15/15
f 12/12/12 16/16/16 17/17/17
f 16/16/16 18/18/18 17/17/17
f 21/21/21 20/20/20 19/19/19
f 20/20/20 21/21/21 22/22/22
f 23/23/23 22/22/22 21/21/21
f 23/23/23 24/24/24 22/22/22
f 24/24/24 25/25/25 22/22/22
f 28/28/28 27/27/27 26/26/26
f 28/28/28 26/26/26 29/29/29
f 30/30/30 28/28/28 29/29/29
f 31/31/31 30/30/30 29/29/29
f 32/32/32 30/30/30 31/31/31
f 31/31/31 33/33/33 32/32/32
f 35/35/35 34/34/34 33/33/33
f 34/34/34 32/32/32 33/33/33
f 36/36/36 32/32/32 34/34/34
f 36/36/36 37/37/37 32/32/32
f 40/40/40 39/39/39 38/38/38
f 40/40/40 41/41/41 39/39/39
f 40/40/40 42/42/42 41/41/41
f 42/42/42 43/43/43 41/41/41
f 43/43/43 42/42/42 44/44/44
f 45/45/45 41/41/41 43/43/43
f 47/47/47 46/46/46 45/45/45
f 48/48/48 47/47/47 45/45/45
f 48/48/48 45/45/45 43/43/43
f 43/43/43 49/49/49 48/48/48
f 48/48/48 49/49/49 50/50/50
f 53/53/53 52/52/52 51/51/51
f 51/51/51 54/54/54 53/53/53
f 55/55/55 53/53/53 54/54/54
f 56/56/56 55/55/55 54/54/54
f 59/59/59 58/58/58 57/57/57
f 57/57/57 60/60/60 59/59/59
f 61/61/61 59/59/59 60/60/60
f 62/62/62 61/61/61 60/60/60
f 65/65/65 64/64/64 63/63/63
f 63/63/63 66/66/66 65/65/65
f 67/67/67 65/65/65 66/66/66
f 68/68/68 67/67/67 66/66/66
f 71/71/71 70/70/70 69/69/69
f 69/69/69 72/72/72 71/71/71
f 73/73/73 71/71/71 72/72/72
f 74/74/74 73/73/73 72/72/72
f 77/77/77 76/76/76 75/75/75
f 75/75/75 78/78/78 77/77/77
f 79/79/79 77/77/77 78/78/78
f 80/80/80 79/79/79 78/78/78
f 83/83/83 82/82/82 81/81/81
f 81/81/81 84/84/84 83/83/83
f 85/85/85 83/83/83 84/84/84
f 86/86/86 85/85/85 84/84/84
f 89/89/89 88/88/88 87/87/87
f 87/87/87 90/90/90 89/89/89
f 91/91/91 89/89/89 90/90/90
f 92/92/92 91/91/91 90/90/90
f 95/95/95 94/94/94 93/93/93
f 93/93/93 94/94/94 96/96/96
f 93/93/93 96/96/96 97/97/97
f 97/97/97 99/99/99 98/98/98
f 100/100/100 99/99/99 97/97/97
f 96/96/96 100/100/100 97/97/97
f 100/100/100 96/96/96 101/101/101
f 96/96/96 102/102/102 101/101/101
f 104/104/104 101/101/101 103/103/103
f 105/105/105 103/103/103 101/101/101
f 105/105/105 101/101/101 102/102/102
f 102/102/102 106/106/106 105/105/105
f 107/107/107 105/105/105 106/106/106
f 102/102/102 108/108/108 106/106/106
f 111/111/111 110/110/110 109/109/109
f 111/111/111 109/109/109 112/112/112
f 112/112/112 109/109/109 113/113/113
f 115/115/115 114/114/114 113/113/113
f 113/113/113 114/114/114 112/112/112
f 112/112/112 114/114/114 116/116/116
f 118/118/118 117/117/117 116/116/116
f 117/117/117 119/119/119 116/116/116
f 119/119/119 112/112/112 116/116/116
f 120/120/120 112/112/112 119/119/119
f 119/119/119 121/121/121 120/120/120
f 124/124/124 123/123/123 122/122/122
f 125/125/125 122/122/122 123/123/123
f 125/125/125 123/123/123 126/126/126
f 125/125/125 128/128/128 127/127/127
f 128/128/128 125/125/125 129/129/129
f 125/125/125 126/126/126 129/129/129
f 129/129/129 131/131/131 130/130/130
f 129/129/129 126/126/126 131/131/131
f 126/126/126 132/132/132 131/131/131
f 126/126/126 133/133/133 132/132/132
f 136/136/136 135/135/135 134/134/134
f 137/137/137 136/136/136 134/134/134
f 137/137/137 134/134/134 138/138/138
f 140/140/140 138/138/138 139/139/139
f 140/140/140 137/137/137 138/138/138
f 137/137/137 140/140/140 141/141/141
f 141/141/141 143/143/143 142/142/142
f 137/137/137 141/141/141 142/142/142
f 144/144/144 137/137/137 142/142/142
f 144/144/144 145/145/145 137/137/137
f 145/145/145 144/144/144 146/146/146
f 147/147/147 146/146/146 144/144/144
f 150/150/150 149/149/149 148/148/148
f 149/149/149 151/151/151 148/148/148
f 151/151/151 149/149/149 152/152/152
f 151/151/151 152/152/152 153/153/153
f 152/152/152 154/154/154 153/153/153
f 155/155/155 153/153/153 154/154/154
f 156/156/156 155/155/155 154/154/154
f 156/156/156 154/154/154 157/157/157
f 158/158/158 157/157/157 154/154/154
f 158/158/158 159/159/159 157/157/157
f 161/161/161 159/159/159 160/160/160
f 158/158/158 160/160/160 159/159/159
f 162/162/162 160/160/160 158/158/158
f 163/163/163 162/162/162 158/158/158
f 166/166/166 165/165/165 164/164/164
f 166/166/166 164/164/164 167/167/167
f 167/167/167 164/164/164 168/168/168
f 167/167/167 168/168/168 169/169/169
f 167/167/167 169/169/169 170/170/170
f 171/171/171 167/167/167 170/170/170
f 172/172/172 167/167/167 171/171/171
f 174/174/174 173/173/173 172/172/172
f 172/172/172 175/175/175 174/174/174
f 172/172/172 171/171/171 175/175/175
f 171/171/171 176/176/176 175/175/175
f 177/177/177 175/175/175 176/176/176
f 180/180/180 179/179/179 178/178/178
f 180/180/180 178/178/178 181/181/181
f 181/181/181 178/178/178 182/182/182
f 184/184/184 183/183/183 182/182/182
f 181/181/181 182/182/182 183/183/183
f 181/181/181 183/183/183 185/185/185
f 185/185/185 187/187/187 186/186/186
f 185/185/185 186/186/186 188/188/188
f 181/181/181 185/185/185 188/188/188
f 189/189/189 181/181/181 188/188/188
f 188/188/188 190/190/190 189/189/189
f 191/191/191 190/190/190 188/188/188
f 194/194/194 193/193/193 192/192/192
f 193/193/193 195/195/195 192/192/192
f 195/195/195 193/193/193 196/196/196
f 197/197/197 195/195/195 196/196/196
f 197/197/197 196/196/196 198/198/198
f 198/198/198 200/200/200 199/199/199
f 198/198/198 201/201/201 200/200/200
f 198/198/198 196/196/196 202/202/202
f 198/198/198 202/202/202 201/201/201
f 203/203/203 202/202/202 196/196/196
f 202/202/202 204/204/204 201/201/201
f 201/201/201 204/204/204 205/205/205
f 203/203/203 206/206/206 202/202/202
f 206/206/206 203/203/203 207/207/207
f 207/207/207 208/208/208 206/206/206
f 211/211/211 210/210/210 209/209/209
f 212/212/212 211/211/211 209/209/209
f 212/212/212 209/209/209 213/213/213
f 215/215/215 213/213/213 214/214/214
f 215/215/215 212/212/212 213/213/213
f 212/212/212 215/215/215 216/216/216
f 216/216/216 218/218/218 217/217/217
f 212/212/212 216/216/216 217/217/217
f 219/219/219 212/212/212 217/217/217
f 219/219/219 220/220/220 212/212/212
f 220/220/220 219/219/219 221/221/221
f 222/222/222 221/221/221 219/219/219
f 225/225/225 224/224/224 223/223/223
f 224/224/224 226/226/226 223/223/223
f 226/226/226 224/224/224 227/227/227
f 226/226/226 227/227/227 228/228/228
f 227/227/227 229/229/229 228/228/228
f 230/230/230 228/228/228 229/229/229
f 231/231/231 230/230/230 229/229/229
f 231/231/231 229/229/229 232/232/232
f 233/233/233 232/232/232 229/229/229
f 233/233/233 234/234/234 232/232/232
f 236/236/236 234/234/234 235/235/235
f 233/233/233 235/235/235 234/234/234
f 237/237/237 235/235/235 233/233/233
f 238/238/238 237/237/237 233/233/233
f 241/241/241 240/240/240 239/239/239
f 239/239/239 240/240/240 242/242/242
f 239/239/239 242/242/242 243/243/243
f 243/243/243 245/245/245 244/244/244
f 246/246/246 245/245/245 243/243/243
f 242/242/242 246/246/246 243/243/243
f 247/247/247 246/246/246 242/242/242
f 242/242/242 248/248/248 247/247/247
f 250/250/250 247/247/247 249/249/249
f 251/251/251 249/249/249 247/247/247
f 251/251/251 247/247/247 248/248/248
f 248/248/248 252/252/252 251/251/251
f 253/253/253 251/251/251 252/252/252
f 248/248/248 254/254/254 252/252/252
f 257/257/257 256/256/256 255/255/255
f 257/257/257 255/255/255 258/258/258
f 258/258/258 255/255/255 259/259/259
f 261/261/261 260/260/260 259/259/259
f 259/259/259 260/260/260 258/258/258
f 258/258/258 260/260/260 262/262/262
f 264/264/264 263/263/263 262/262/262
f 263/263/263 265/265/265 262/262/262
f 265/265/265 258/258/258 262/262/262
f 266/266/266 258/258/258 265/265/265
f 265/265/265 267/267/267 266/266/266
f 270/270/270 269/269/269 268/268/268
f 271/271/271 270/270/270 268/268/268
f 271/271/271 268/268/268 272/272/272
f 274/274/274 272/272/272 273/273/273
f 274/274/274 271/271/271 272/272/272
f 271/271/271 274/274/274 275/275/275
f 275/275/275 277/277/277 276/276/276
f 271/271/271 275/275/275 276/276/276
f 278/278/278 271/271/271 276/276/276
f 278/278/278 279/279/279 271/271/271
f 278/278/278 280/280/280 279/279/279
f 278/278/278 281/281/281 280/280/280
f 284/284/284 283/283/283 282/282/282
f 285/285/285 284/284/284 282/282/282
f 285/285/285 282/282/282 286/286/286
f 288/288/288 286/286/286 287/287/287
f 288/288/288 285/285/285 286/286/286
f 285/285/285 288/288/288 289/289/289
f 289/289/289 291/291/291 290/290/290
f 285/285/285 289/289/289 290/290/290
f 292/292/292 285/285/285 290/290/290
f 292/292/292 293/293/293 285/285/285
f 292/292/292 294/294/294 293/293/293
f 292/292/292 295/295/295 294/294/294
f 298/298/298 297/297/297 296/296/296
f 299/299/299 298/298/298 296/296/296
f 299/299/299 296/296/296 300/300/300
f 302/302/302 300/300/300 301/301/301
f 302/302/302 299/299/299 300/300/300
f 299/299/299 302/302/302 303/303/303
f 303/303/303 305/305/305 304/304/304
f 299/299/299 303/303/303 304/304/304
f 306/306/306 299/299/299 304/304/304
f 306/306/306 307/307/307 299/299/299
f 306/306/306 308/308/308 307/307/307
f 306/306/306 309/309/309 308/308/308
f 312/312/312 311/311/311 310/310/310
f 313/313/313 312/312/312 310/310/310
f 313/313/313 310/310/310 314/314/314
f 316/316/316 314/314/314 315/315/315
f 316/316/316 313/313/313 314/314/314
f 313/313/313 316/316/316 317/317/317
f 317/317/317 319/319/319 318/318/318
f 313/313/313 317/317/317 318/318/318
f 320/320/320 313/313/313 318/318/318
f 320/320/320 321/321/321 313/313/313
f 320/320/320 322/322/322 321/321/321
f 320/320/320 323/323/323 322/322/322
f 326/326/326 325/325/325 324/324/324
f 327/327/327 326/326/326 324/324/324
f 327/327/327 324/324/324 328/328/328
f 330/330/330 328/328/328 329/329/329
f 328/328/328 330/330/330 327/327/327
f 327/327/327 330/330/330 331/331/331
f 331/331/331 333/333/333 332/332/332
f 327/327/327 331/331/331 332/332/332
f 334/334/334 327/327/327 332/332/332
f 334/334/334 335/335/335 327/327/327
f 334/334/334 336/336/336 335/335/335
f 334/334/334 337/337/337 336/336/336
f 340/340/340 339/339/339 338/338/338
f 341/341/341 340/340/340 338/338/338
f 341/341/341 338/338/338 342/342/342
f 344/344/344 343/343/343 342/342/342
f 343/343/343 341/341/341 342/342/342
f 341/341/341 343/343/343 345/345/345
f 345/345/345 347/347/347 346/346/346
f 341/341/341 345/345/345 346/346/346
f 348/348/348 341/341/341 346/346/346
f 348/348/348 349/349/349 341/341/341
f 348/348/348 350/350/350 349/349/349
f 351/351/351 350/350/350 348/348/348
f 354/354/354 353/353/353 352/352/352
f 355/355/355 354/354/354 352/352/352
f 356/356/356 355/355/355 352/352/352
f 352/352/352 357/357/357 356/356/356
f 358/358/358 356/356/356 357/357/357
f 359/359/359 358/358/358 357/357/357
f 356/356/356 358/358/358 360/360/360
f 363/363/363 362/362/362 361/361/361
f 362/362/362 364/364/364 361/361/361
f 362/362/362 365/365/365 364/364/364
f 362/362/362 366/366/366 365/365/365
f 367/367/367 365/365/365 366/366/366
f 367/367/367 368/368/368 365/365/365
f 369/369/369 365/365/365 368/368/368
f 372/372/372 371/371/371 370/370/370
f 371/371/371 373/373/373 370/370/370
f 373/373/373 371/371/371 374/374/374
f 375/375/375 374/374/374 371/371/371
f 376/376/376 374/374/374 375/375/375
f 377/377/377 373/373/373 374/374/374
f 374/374/374 378/378/378 377/377/377
f 379/379/379 377/377/377 378/378/378
f 380/380/380 373/373/373 377/377/377
f 377/377/377 381/381/381 380/380/380
f 382/382/382 380/380/380 381/381/381
f 382/382/382 383/383/383 380/380/380
f 383/383/383 384/384/384 380/380/380
f 387/387/387 386/386/386 385/385/385
f 388/388/388 387/387/387 385/385/385
f 389/389/389 388/388/388 385/385/385
f 385/385/385 390/390/390 389/389/389
f 391/391/391 389/389/389 390/390/390
f 392/392/392 391/391/391 390/390/390
f 393/393/393 389/389/389 391/391/391
