mtllib SM_Sticker_03.mtl
g SM_Sticker_03
#Vertices 12
#Indices 30
#Section 0 Offset 0 NumIndices 30 MaterialIndex 0 MI_Posters_01
v -0.095073 0.042082 -0.000000
v -0.047277 0.006234 -0.000000
v 0.000000 0.000000 0.000000
v 0.088319 0.047796 -0.000000
v -0.117933 0.081046 -0.000000
v 0.109619 0.090397 -0.000000
v -0.126243 0.193264 -0.000000
v -0.114250 0.336940 -0.000000
v 0.116373 0.332496 -0.000000
v -0.080528 0.392761 -0.000000
v -0.003118 0.429647 -0.000000
v 0.085720 0.409905 -0.000000
vt 0.890137 0.535645
vt 0.913574 0.518311
vt 0.937012 0.515137
vt 0.979980 0.538574
vt 0.879395 0.554688
vt 0.990234 0.559326
vt 0.875000 0.609619
vt 0.880859 0.679688
vt 0.993652 0.677490
vt 0.897461 0.707031
vt 0.935059 0.725098
vt 0.978516 0.715332
vt1 0.336182 0.186523
vt1 0.423096 0.121582
vt1 0.508789 0.110352
vt1 0.668945 0.196777
vt1 0.294678 0.257324
vt1 0.707520 0.274414
vt1 0.279541 0.460938
vt1 0.301514 0.721924
vt1 0.720215 0.713867
vt1 0.362549 0.823120
vt1 0.502930 0.890015
vt1 0.664551 0.854248
vn 0.000000 -0.000000 -1.000000
vn 0.000000 -0.000000 -1.000000
vn 0.000000 -0.000000 -1.000000
vn 0.000000 -0.000000 -1.000000
vn 0.000000 -0.000000 -1.000000
vn 0.000000 -0.000000 -1.000000
vn 0.000000 -0.000000 -1.000000
vn 0.000000 -0.000000 -1.000000
vn 0.000000 -0.000000 -1.000000
vn 0.000000 -0.000000 -1.000000
vn 0.000000 -0.000000 -1.000000
vn 0.000000 -0.000000 -1.000000
tan 0.000000 -1.000000 0.000000 1.000000
tan 0.000000 -1.000000 0.000000 1.000000
tan 0.000000 -1.000000 0.000000 1.000000
tan 0.000000 -1.000000 0.000000 1.000000
tan 0.000000 -1.000000 0.000000 1.000000
tan 0.000000 -1.000000 0.000000 1.000000
tan 0.000000 -1.000000 0.000000 1.000000
tan 0.000000 -1.000000 0.000000 1.000000
tan 0.000000 -1.000000 0.000000 1.000000
tan 0.000000 -1.000000 0.000000 1.000000
tan 0.000000 -1.000000 0.000000 1.000000
tan 0.000000 -1.000000 0.000000 1.000000
f 3/3/3 2/2/2 1/1/1
f 3/3/3 1/1/1 4/4/4
f 1/1/1 5/5/5 4/4/4
f 4/4/4 5/5/5 6/6/6
f 5/5/5 7/7/7 6/6/6
f 8/8/8 6/6/6 7/7/7
f 9/9/9 6/6/6 8/8/8
f 8/8/8 10/10/10 9/9/9
f 11/11/11 9/9/9 10/10/10
f 12/12/12 9/9/9 11/11/11
