mtllib SM_Sticker_06.mtl
g SM_Sticker_06
#Vertices 8
#Indices 18
#Section 0 Offset 0 NumIndices 18 MaterialIndex 0 MI_Posters_01
v 0.218337 0.288524 -0.000000
v 0.274761 0.192933 -0.000000
v 0.269033 0.270078 -0.000000
v 0.211724 0.088235 -0.000000
v 0.272705 0.113950 -0.000000
v -0.001713 0.292820 -0.000000
v 0.000000 0.000000 0.000000
v 0.208267 0.000367 -0.000000
vt 0.414307 0.401367
vt 0.441895 0.354492
vt 0.439209 0.392090
vt 0.411133 0.303223
vt 0.440918 0.315918
vt 0.306885 0.403320
vt 0.307861 0.260254
vt 0.409424 0.260254
vt1 0.717773 0.878601
vt1 0.868164 0.624023
vt1 0.852539 0.829468
vt1 0.700195 0.345215
vt1 0.862305 0.413574
vt1 0.131714 0.890015
vt1 0.136230 0.110352
vt1 0.690918 0.111328
vn 0.000000 -0.000000 -1.000000
vn 0.000000 -0.000000 -1.000000
vn 0.000000 -0.000000 -1.000000
vn 0.000000 -0.000000 -1.000000
vn 0.000000 -0.000000 -1.000000
vn 0.000000 -0.000000 -1.000000
vn 0.000000 -0.000000 -1.000000
vn 0.000000 -0.000000 -1.000000
tan 0.000000 -1.000000 0.000000 1.000000
tan 0.000000 -1.000000 0.000000 1.000000
tan 0.000000 -1.000000 0.000000 1.000000
tan 0.000000 -1.000000 0.000000 1.000000
tan 0.000000 -1.000000 0.000000 1.000000
tan 0.000000 -1.000000 0.000000 1.000000
tan 0.000000 -1.000000 0.000000 1.000000
tan 0.000000 -1.000000 0.000000 1.000000
f 3/3/3 2/2/2 1/1/1
f 4/4/4 1/1/1 2/2/2
f 4/4/4 2/2/2 5/5/5
f 4/4/4 6/6/6 1/1/1
f 4/4/4 7/7/7 6/6/6
f 4/4/4 8/8/8 7/7/7
