mtllib SM_Salt_shaker_01.mtl
g SM_Salt_shaker_01
#Vertices 215
#Indices 924
#Section 0 Offset 0 NumIndices 924 MaterialIndex 0 MI_Small_Props_01
v 0.010988 0.063360 -0.013084
v 0.017660 0.063360 -0.013084
v 0.003694 0.063360 -0.006509
v 0.017660 0.063360 0.013084
v 0.003694 0.063360 0.006509
v 0.010988 0.063360 0.013084
v -0.018881 0.000732 -0.014305
v -0.017660 -0.000000 -0.013084
v -0.017660 0.000488 -0.014549
v -0.019125 0.000488 -0.013084
v 0.017660 0.000488 -0.014549
v -0.017660 0.000000 0.013084
v -0.019125 0.000488 0.013084
v -0.018881 0.000732 0.014305
v -0.017660 0.000488 0.014549
v 0.017660 -0.000000 -0.013084
v 0.018881 0.000732 -0.014305
v 0.019125 0.000488 -0.013084
v 0.019125 0.000488 0.013084
v 0.017660 0.000000 0.013084
v 0.017660 0.000488 0.014549
v 0.018881 0.000732 0.014305
v -0.018285 0.056666 0.013921
v -0.016491 0.056666 0.014477
v -0.017458 0.055941 0.014794
v -0.018739 0.056076 0.014260
v 0.016491 0.056666 0.014477
v -0.017693 0.054739 0.015083
v -0.019132 0.054867 0.014561
v -0.019125 0.001953 0.014549
v 0.017458 0.055941 0.014794
v 0.018285 0.056666 0.013921
v 0.017660 0.054737 0.015088
v -0.017660 0.001953 0.015037
v -0.018881 0.000732 0.014305
v -0.017660 0.000488 0.014549
v 0.017660 0.000488 0.014549
v 0.017660 0.001953 0.015037
v 0.018881 0.000732 0.014305
v 0.019125 0.001953 0.014549
v 0.018739 0.056076 0.014260
v 0.019132 0.054867 0.014561
v 0.019614 0.001953 0.013084
v 0.019125 0.000488 0.013084
v 0.019125 0.000488 -0.013084
v 0.019641 0.054852 0.013088
v 0.019614 0.001953 -0.013084
v 0.018881 0.000732 -0.014305
v 0.019642 0.054852 -0.013084
v 0.019265 0.056048 0.012915
v 0.018883 0.056666 0.012255
v 0.018883 0.056666 -0.012255
v 0.019265 0.056048 -0.012915
v 0.018285 0.056666 -0.013921
v 0.018739 0.056076 -0.014260
v 0.019125 0.001953 -0.014549
v 0.019132 0.054867 -0.014561
v 0.017693 0.054739 -0.015083
v 0.017458 0.055941 -0.014794
v 0.016491 0.056666 -0.014477
v -0.016491 0.056666 -0.014477
v 0.017660 0.001953 -0.015037
v 0.017660 0.000488 -0.014549
v -0.017660 0.000488 -0.014549
v -0.017458 0.055941 -0.014794
v -0.018285 0.056666 -0.013921
v -0.017660 0.001953 -0.015037
v -0.018881 0.000732 -0.014305
v -0.017660 0.054737 -0.015088
v -0.019125 0.001953 -0.014549
v -0.018739 0.056076 -0.014260
v -0.019132 0.054867 -0.014561
v -0.019641 0.054852 -0.013088
v -0.019614 0.001953 -0.013084
v -0.019125 0.000488 -0.013084
v -0.019125 0.000488 0.013084
v -0.019265 0.056048 -0.012915
v -0.018883 0.056666 -0.012255
v -0.018883 0.056666 0.012255
v -0.019614 0.001953 0.013084
v -0.018881 0.000732 0.014305
v -0.019125 0.001953 0.014549
v -0.019642 0.054852 0.013084
v -0.019132 0.054867 0.014561
v -0.018739 0.056076 0.014260
v -0.019265 0.056048 0.012915
v -0.018285 0.056666 0.013921
v -0.017660 0.063918 0.013084
v -0.018881 0.063030 0.014305
v -0.019125 0.063274 0.013084
v -0.017660 0.063430 0.014549
v -0.019125 0.063274 -0.013084
v 0.010988 0.063918 0.013084
v 0.017660 0.063430 0.014549
v -0.017660 0.063918 -0.013084
v -0.018881 0.063030 -0.014305
v -0.017660 0.063430 -0.014549
v 0.003694 0.063918 0.006509
v 0.010988 0.063918 -0.013084
v 0.017660 0.063430 -0.014549
v 0.003694 0.063918 -0.006509
v 0.003694 0.063360 0.006509
v 0.003694 0.063360 -0.006509
v 0.010988 0.063360 0.013084
v 0.010988 0.063360 -0.013084
v 0.017660 0.063360 -0.013084
v 0.017660 0.063918 0.013084
v 0.018881 0.063030 0.014305
v 0.019125 0.063274 0.013084
v 0.017660 0.063360 0.013084
v 0.019125 0.063274 -0.013084
v 0.017660 0.063918 -0.013084
v 0.018881 0.063030 -0.014305
v 0.019265 0.057283 -0.012915
v 0.018285 0.056666 -0.013921
v 0.018883 0.056666 -0.012255
v 0.018883 0.056666 0.012255
v 0.018739 0.057255 -0.014260
v 0.019265 0.057283 0.012915
v 0.018285 0.056666 0.013921
v 0.019637 0.058480 -0.013087
v 0.019131 0.058465 -0.014559
v 0.019125 0.061965 -0.014549
v 0.019638 0.058480 0.013084
v 0.019614 0.061965 -0.013084
v 0.018881 0.063030 -0.014305
v 0.019125 0.063274 -0.013084
v 0.019614 0.061965 0.013084
v 0.019125 0.063274 0.013084
v 0.018881 0.063030 0.014305
v 0.019125 0.061965 0.014549
v 0.017660 0.061965 0.015037
v 0.017660 0.063430 0.014549
v -0.017660 0.063430 0.014549
v 0.019131 0.058465 0.014559
v -0.017660 0.061965 0.015037
v -0.018881 0.063030 0.014305
v 0.017692 0.058593 0.015075
v 0.018739 0.057255 0.014260
v 0.017458 0.057391 0.014794
v 0.016491 0.056666 0.014477
v -0.016491 0.056666 0.014477
v -0.017660 0.058595 0.015081
v -0.017458 0.057391 0.014794
v -0.018285 0.056666 0.013921
v -0.019125 0.061965 0.014549
v -0.018739 0.057255 0.014260
v -0.019131 0.058465 0.014559
v -0.019637 0.058480 0.013087
v -0.019614 0.061965 0.013084
v -0.019125 0.063274 0.013084
v -0.019125 0.063274 -0.013084
v -0.019265 0.057283 0.012915
v -0.018883 0.056666 0.012255
v -0.018883 0.056666 -0.012255
v -0.019614 0.061965 -0.013084
v -0.018881 0.063030 -0.014305
v -0.019265 0.057283 -0.012915
v -0.018285 0.056666 -0.013921
v -0.019638 0.058480 -0.013084
v -0.018739 0.057255 -0.014260
v -0.019125 0.061965 -0.014549
v -0.019131 0.058465 -0.014559
v -0.017692 0.058593 -0.015076
v -0.017458 0.057391 -0.014794
v -0.016491 0.056666 -0.014477
v 0.016491 0.056666 -0.014477
v -0.017660 0.061965 -0.015037
v -0.017660 0.063430 -0.014549
v 0.017660 0.063430 -0.014549
v 0.017458 0.057391 -0.014794
v 0.018285 0.056666 -0.013921
v 0.018739 0.057255 -0.014260
v 0.017660 0.058595 -0.015081
v 0.019131 0.058465 -0.014559
v 0.019125 0.061965 -0.014549
v 0.017660 0.061965 -0.015037
v 0.018881 0.063030 -0.014305
v -0.003370 0.064541 0.001635
v -0.002424 0.063806 0.003143
v -0.003772 0.063805 0.001890
v -0.004313 0.063804 0.000130
v -0.002203 0.064542 0.002721
v -0.000630 0.063807 0.003554
v -0.003838 0.064541 0.000112
v -0.000649 0.064543 0.003077
v -0.003482 0.064540 -0.001442
v -0.003901 0.063804 -0.001664
v -0.002268 0.065080 0.000943
v -0.001594 0.065081 0.001570
v -0.000698 0.065081 0.001776
v -0.002539 0.065080 0.000064
v -0.000763 0.065278 -0.000001
v -0.002333 0.065080 -0.000833
v -0.001706 0.065080 -0.001507
v -0.002397 0.064541 -0.002609
v -0.002648 0.063804 -0.003011
v -0.000889 0.063805 -0.003552
v -0.000827 0.065080 -0.001777
v -0.000873 0.064541 -0.003077
v 0.000681 0.064542 -0.002721
v 0.000905 0.063805 -0.003141
v 0.000070 0.065081 -0.001572
v 0.000744 0.065081 -0.000945
v 0.001848 0.064542 -0.001635
v 0.002253 0.063806 -0.001887
v 0.002794 0.063807 -0.000128
v 0.001014 0.065081 -0.000065
v 0.002316 0.064543 -0.000112
v 0.001960 0.064543 0.001442
v 0.002382 0.063807 0.001666
v 0.000809 0.065081 0.000832
v 0.000874 0.064543 0.002609
v 0.001129 0.063807 0.003014
v 0.000182 0.065081 0.001505
vt 0.740234 0.675781
vt 0.740234 0.671875
vt 0.744141 0.680176
vt 0.755859 0.671875
vt 0.751953 0.680176
vt 0.755859 0.675781
vt 0.811035 0.891479
vt 0.810059 0.892273
vt 0.810059 0.891357
vt 0.811035 0.892212
vt 0.789551 0.891357
vt 0.810059 0.907593
vt 0.811035 0.907654
vt 0.811035 0.908386
vt 0.810059 0.908508
vt 0.789551 0.892273
vt 0.788574 0.891479
vt 0.788574 0.892212
vt 0.788574 0.907654
vt 0.789551 0.907593
vt 0.789551 0.908508
vt 0.788574 0.908386
vt 0.459229 0.964142
vt 0.458008 0.964050
vt 0.458740 0.963562
vt 0.459473 0.963745
vt 0.438721 0.964050
vt 0.458740 0.962860
vt 0.459717 0.962982
vt 0.459961 0.932068
vt 0.438232 0.963470
vt 0.437256 0.963898
vt 0.438232 0.962708
vt 0.458984 0.932068
vt 0.459717 0.931274
vt 0.458984 0.931152
vt 0.438232 0.930969
vt 0.438477 0.931885
vt 0.437500 0.931152
vt 0.437500 0.931885
vt 0.437256 0.963440
vt 0.437256 0.962708
vt 0.436523 0.931824
vt 0.436523 0.930908
vt 0.421143 0.930908
vt 0.436523 0.962708
vt 0.421143 0.931824
vt 0.420166 0.931091
vt 0.421143 0.962708
vt 0.436279 0.963470
vt 0.436035 0.963959
vt 0.421387 0.963959
vt 0.421143 0.963470
vt 0.419922 0.963837
vt 0.420166 0.963379
vt 0.420166 0.931824
vt 0.420166 0.962677
vt 0.419189 0.962646
vt 0.419189 0.963409
vt 0.418701 0.963959
vt 0.398926 0.963928
vt 0.419189 0.931824
vt 0.419189 0.930908
vt 0.398438 0.930847
vt 0.398438 0.963379
vt 0.397705 0.963776
vt 0.398438 0.931763
vt 0.397461 0.931030
vt 0.398438 0.962616
vt 0.397461 0.931763
vt 0.397461 0.963348
vt 0.397461 0.962616
vt 0.396729 0.962646
vt 0.396484 0.931763
vt 0.396729 0.930847
vt 0.381348 0.930908
vt 0.396729 0.963409
vt 0.396240 0.963867
vt 0.381836 0.963837
vt 0.381348 0.931763
vt 0.380615 0.931030
vt 0.380371 0.931763
vt 0.381348 0.962646
vt 0.380371 0.962708
vt 0.380615 0.963501
vt 0.381348 0.963379
vt 0.380859 0.963959
vt 0.245239 0.084473
vt 0.244507 0.083984
vt 0.245239 0.083496
vt 0.244385 0.084473
vt 0.260742 0.083496
vt 0.245239 0.101562
vt 0.244385 0.105469
vt 0.260742 0.084473
vt 0.261475 0.083984
vt 0.261475 0.084473
vt 0.249146 0.097168
vt 0.260742 0.101562
vt 0.261475 0.105469
vt 0.256836 0.097168
vt 0.249268 0.097168
vt 0.256592 0.097168
vt 0.245483 0.101562
vt 0.260498 0.101562
vt 0.260498 0.105469
vt 0.245239 0.105469
vt 0.244507 0.106445
vt 0.245239 0.106445
vt 0.245361 0.105469
vt 0.260742 0.106445
vt 0.260742 0.105469
vt 0.261475 0.106445
vt 0.342041 0.861328
vt 0.341309 0.860596
vt 0.342285 0.860840
vt 0.356934 0.860840
vt 0.341064 0.861084
vt 0.357422 0.861328
vt 0.358154 0.860840
vt 0.341797 0.862061
vt 0.340820 0.861938
vt 0.340820 0.864136
vt 0.357422 0.862061
vt 0.341797 0.864136
vt 0.341064 0.864746
vt 0.341797 0.864990
vt 0.357422 0.864136
vt 0.357422 0.864990
vt 0.357910 0.864746
vt 0.357910 0.864136
vt 0.358643 0.864136
vt 0.358643 0.865112
vt 0.379639 0.865112
vt 0.357910 0.862061
vt 0.379639 0.864136
vt 0.380127 0.864746
vt 0.358643 0.862183
vt 0.358154 0.861328
vt 0.358887 0.861450
vt 0.359375 0.860962
vt 0.378906 0.860840
vt 0.379639 0.862183
vt 0.379639 0.861450
vt 0.380127 0.860840
vt 0.380127 0.864136
vt 0.380127 0.861328
vt 0.380127 0.862061
vt 0.380859 0.862061
vt 0.380859 0.864136
vt 0.380859 0.864990
vt 0.396240 0.864990
vt 0.380859 0.861328
vt 0.381104 0.860840
vt 0.395752 0.860840
vt 0.396240 0.864136
vt 0.396973 0.864746
vt 0.396240 0.861328
vt 0.396973 0.860840
vt 0.396240 0.862061
vt 0.396973 0.861328
vt 0.396973 0.864136
vt 0.396973 0.862061
vt 0.397461 0.862061
vt 0.397461 0.861328
vt 0.397949 0.860718
vt 0.417725 0.860962
vt 0.397705 0.864136
vt 0.397461 0.864990
vt 0.418701 0.864990
vt 0.418457 0.861328
vt 0.418945 0.860718
vt 0.419189 0.861084
vt 0.418701 0.862061
vt 0.419434 0.861938
vt 0.419434 0.864014
vt 0.418701 0.864014
vt 0.419434 0.864746
vt 0.596191 0.866699
vt 0.595215 0.867676
vt 0.595703 0.866455
vt 0.596191 0.865479
vt 0.595703 0.867676
vt 0.595703 0.868774
vt 0.596680 0.865967
vt 0.596191 0.868530
vt 0.597656 0.865479
vt 0.597168 0.864990
vt 0.596680 0.866943
vt 0.596680 0.867554
vt 0.597168 0.868042
vt 0.597168 0.866577
vt 0.597656 0.867310
vt 0.597656 0.866333
vt 0.598145 0.866455
vt 0.598633 0.865601
vt 0.598633 0.865112
vt 0.599609 0.865845
vt 0.598633 0.866699
vt 0.599121 0.866211
vt 0.599609 0.867065
vt 0.600098 0.866943
vt 0.598633 0.867188
vt 0.598633 0.867676
vt 0.599609 0.868042
vt 0.600098 0.868164
vt 0.599121 0.869141
vt 0.598633 0.868164
vt 0.599121 0.868774
vt 0.598145 0.869141
vt 0.598145 0.869629
vt 0.598145 0.868408
vt 0.597168 0.869019
vt 0.596680 0.869507
vt 0.597168 0.868286
vt1 0.880859 0.868042
vt1 0.880859 0.905762
vt1 0.843750 0.826782
vt1 0.732910 0.905762
vt1 0.770020 0.826782
vt1 0.732910 0.868042
vt1 0.694824 0.506836
vt1 0.702148 0.514404
vt1 0.693359 0.514160
vt1 0.702148 0.505615
vt1 0.693359 0.714111
vt1 0.850098 0.514404
vt1 0.850098 0.505615
vt1 0.857422 0.506836
vt1 0.858887 0.514160
vt1 0.702148 0.713867
vt1 0.694824 0.721436
vt1 0.702148 0.722656
vt1 0.850098 0.722656
vt1 0.850098 0.713867
vt1 0.858887 0.714111
vt1 0.857422 0.721436
vt1 0.420410 0.106934
vt1 0.419434 0.117676
vt1 0.414795 0.112305
vt1 0.416260 0.104492
vt1 0.419189 0.304688
vt1 0.407715 0.110840
vt1 0.408936 0.102051
vt1 0.111267 0.100098
vt1 0.413818 0.309082
vt1 0.417725 0.317871
vt1 0.406494 0.309082
vt1 0.111328 0.108887
vt1 0.104065 0.101562
vt1 0.102722 0.108887
vt1 0.101013 0.308105
vt1 0.109741 0.308105
vt1 0.102478 0.316895
vt1 0.109558 0.317383
vt1 0.413330 0.317871
vt1 0.406494 0.317871
vt1 0.109253 0.326660
vt1 0.100525 0.325684
vt1 0.100464 0.474609
vt1 0.406494 0.326660
vt1 0.109131 0.474121
vt1 0.101990 0.482910
vt1 0.406494 0.474121
vt1 0.413818 0.327148
vt1 0.418457 0.330566
vt1 0.418457 0.471191
vt1 0.413574 0.474121
vt1 0.417236 0.484375
vt1 0.412842 0.482910
vt1 0.109070 0.482910
vt1 0.406006 0.482910
vt1 0.405762 0.492676
vt1 0.413086 0.493652
vt1 0.418457 0.498047
vt1 0.418213 0.686523
vt1 0.108948 0.492676
vt1 0.100220 0.492188
vt1 0.099976 0.692383
vt1 0.412598 0.691162
vt1 0.416748 0.699951
vt1 0.108704 0.691650
vt1 0.101624 0.700928
vt1 0.405273 0.691650
vt1 0.108704 0.700928
vt1 0.412354 0.700439
vt1 0.405518 0.700684
vt1 0.405762 0.709717
vt1 0.108643 0.709717
vt1 0.099976 0.709229
vt1 0.100098 0.857178
vt1 0.413086 0.709473
vt1 0.417725 0.712402
vt1 0.417236 0.851685
vt1 0.108765 0.856812
vt1 0.101501 0.864502
vt1 0.108704 0.865601
vt1 0.405762 0.856689
vt1 0.406494 0.865479
vt1 0.414062 0.863647
vt1 0.413086 0.855347
vt1 0.418457 0.862061
vt1 0.851074 0.374023
vt1 0.858398 0.381348
vt1 0.851074 0.382812
vt1 0.859863 0.374023
vt1 0.702148 0.382812
vt1 0.851074 0.211426
vt1 0.859863 0.172852
vt1 0.702637 0.374023
vt1 0.694824 0.381348
vt1 0.693359 0.374023
vt1 0.813965 0.253418
vt1 0.702148 0.211426
vt1 0.693359 0.172852
vt1 0.739746 0.253418
vt1 0.812500 0.250977
vt1 0.740723 0.250977
vt1 0.848633 0.210449
vt1 0.704590 0.210449
vt1 0.703613 0.174316
vt1 0.851074 0.172852
vt1 0.858398 0.165527
vt1 0.851074 0.164062
vt1 0.850098 0.174316
vt1 0.702148 0.164062
vt1 0.702148 0.172852
vt1 0.694824 0.165527
vt1 0.617676 0.114258
vt1 0.623535 0.108398
vt1 0.622070 0.118164
vt1 0.622559 0.259766
vt1 0.619141 0.106445
vt1 0.617676 0.262207
vt1 0.621582 0.270508
vt1 0.610352 0.112793
vt1 0.611328 0.104004
vt1 0.590332 0.104004
vt1 0.610352 0.262207
vt1 0.590332 0.112305
vt1 0.583984 0.104980
vt1 0.582520 0.112305
vt1 0.590332 0.262207
vt1 0.582520 0.262207
vt1 0.583984 0.268555
vt1 0.590332 0.269043
vt1 0.589844 0.275391
vt1 0.581055 0.274902
vt1 0.581055 0.477051
vt1 0.609863 0.269043
vt1 0.589844 0.476074
vt1 0.583984 0.482422
vt1 0.609375 0.275391
vt1 0.617188 0.269531
vt1 0.616211 0.276367
vt1 0.621094 0.281250
vt1 0.621582 0.470703
vt1 0.609375 0.476562
vt1 0.616699 0.476074
vt1 0.622070 0.481445
vt1 0.590332 0.482422
vt1 0.617188 0.482422
vt1 0.609863 0.482422
vt1 0.610352 0.488281
vt1 0.589844 0.488281
vt1 0.582031 0.487793
vt1 0.582031 0.636963
vt1 0.617676 0.488770
vt1 0.622070 0.491699
vt1 0.622070 0.632568
vt1 0.589844 0.636475
vt1 0.583984 0.643066
vt1 0.617676 0.635742
vt1 0.622070 0.642822
vt1 0.610352 0.636230
vt1 0.617676 0.642578
vt1 0.590332 0.642822
vt1 0.610352 0.642578
vt1 0.609863 0.649414
vt1 0.617188 0.649414
vt1 0.622559 0.654053
vt1 0.621094 0.844116
vt1 0.590332 0.649902
vt1 0.581543 0.649414
vt1 0.582031 0.852539
vt1 0.616699 0.849976
vt1 0.623047 0.854492
vt1 0.619141 0.857422
vt1 0.609863 0.851807
vt1 0.611328 0.860229
vt1 0.590820 0.860840
vt1 0.590820 0.852295
vt1 0.584473 0.859619
vt1 0.500488 0.474609
vt1 0.509766 0.467773
vt1 0.503906 0.478027
vt1 0.493896 0.483887
vt1 0.504883 0.466797
vt1 0.509766 0.456055
vt1 0.492676 0.479004
vt1 0.505371 0.457520
vt1 0.483643 0.479004
vt1 0.482422 0.483398
vt1 0.495117 0.468750
vt1 0.497803 0.464355
vt1 0.497803 0.459473
vt1 0.490723 0.471680
vt1 0.488281 0.461914
vt1 0.485596 0.471680
vt1 0.481201 0.468750
vt1 0.475830 0.474121
vt1 0.472412 0.477539
vt1 0.466553 0.467773
vt1 0.478760 0.464355
vt1 0.471191 0.466309
vt1 0.471191 0.457520
vt1 0.466553 0.456055
vt1 0.478760 0.459473
vt1 0.481445 0.455078
vt1 0.475830 0.449219
vt1 0.472412 0.445801
vt1 0.482666 0.440430
vt1 0.485840 0.452637
vt1 0.483887 0.444824
vt1 0.492920 0.444824
vt1 0.494141 0.440430
vt1 0.490967 0.452637
vt1 0.500488 0.449707
vt1 0.503906 0.446289
vt1 0.495361 0.455078
vn 0.000000 1.000000 -0.000000
vn 0.000000 1.000000 -0.000000
vn 0.000000 1.000000 -0.000000
vn 0.000000 1.000000 -0.000000
vn 0.000000 1.000000 -0.000000
vn 0.000000 1.000000 -0.000000
vn -0.275591 -0.921260 -0.275590
vn -0.149606 -0.976378 -0.149606
vn -0.133858 -0.944882 -0.299212
vn -0.299213 -0.944882 -0.133858
vn 0.133858 -0.944882 -0.299212
vn -0.149606 -0.976378 0.149606
vn -0.299213 -0.944882 0.133858
vn -0.275591 -0.921260 0.275591
vn -0.133858 -0.944882 0.299213
vn 0.149606 -0.976378 -0.149606
vn 0.275591 -0.921260 -0.275590
vn 0.299213 -0.944882 -0.133858
vn 0.299213 -0.944882 0.133858
vn 0.149606 -0.976378 0.149606
vn 0.133858 -0.944882 0.299213
vn 0.275591 -0.921260 0.275591
vn -0.472441 0.692913 0.543307
vn -0.062992 0.464567 0.881890
vn -0.165354 0.417323 0.889764
vn -0.598425 0.519685 0.614173
vn 0.062992 0.464567 0.881890
vn -0.173228 0.133858 0.976378
vn -0.700787 0.173228 0.692913
vn -0.700787 -0.149606 0.700787
vn 0.173228 0.417323 0.889764
vn 0.472441 0.692913 0.543307
vn 0.173228 0.133858 0.976378
vn -0.149606 -0.149606 0.976378
vn -0.669291 -0.307086 0.669291
vn -0.133858 -0.299212 0.944882
vn 0.133858 -0.299212 0.944882
vn 0.149606 -0.149606 0.976378
vn 0.669291 -0.307086 0.669291
vn 0.700787 -0.149606 0.700787
vn 0.598425 0.519685 0.614173
vn 0.700787 0.173228 0.692913
vn 0.976378 -0.149606 0.149606
vn 0.944882 -0.299213 0.133858
vn 0.944882 -0.299213 -0.133858
vn 0.968504 0.165354 0.165354
vn 0.976378 -0.149606 -0.149606
vn 0.669291 -0.307087 -0.669291
vn 0.968504 0.165354 -0.165354
vn 0.858268 0.480315 0.173228
vn 0.811024 0.582677 0.078740
vn 0.811024 0.582677 -0.078740
vn 0.858268 0.480315 -0.173228
vn 0.472441 0.692913 -0.543307
vn 0.598425 0.519685 -0.614173
vn 0.700787 -0.149606 -0.700787
vn 0.700787 0.173228 -0.692913
vn 0.173228 0.133858 -0.976378
vn 0.165354 0.417323 -0.889764
vn 0.062992 0.464567 -0.881890
vn -0.062992 0.464567 -0.881890
vn 0.149606 -0.149606 -0.976378
vn 0.133858 -0.299213 -0.944882
vn -0.133858 -0.299213 -0.944882
vn -0.173228 0.417323 -0.889764
vn -0.472441 0.692913 -0.543307
vn -0.149606 -0.149606 -0.976378
vn -0.669291 -0.307087 -0.669291
vn -0.173228 0.133858 -0.976378
vn -0.700787 -0.149606 -0.700787
vn -0.598425 0.519685 -0.614173
vn -0.700787 0.173228 -0.692913
vn -0.968504 0.165354 -0.165354
vn -0.976378 -0.149606 -0.149606
vn -0.944882 -0.299213 -0.133858
vn -0.944882 -0.299213 0.133858
vn -0.858268 0.480315 -0.173228
vn -0.811024 0.582677 -0.078740
vn -0.811024 0.582677 0.078740
vn -0.976378 -0.149606 0.149606
vn -0.669291 -0.307086 0.669291
vn -0.700787 -0.149606 0.700787
vn -0.968504 0.165354 0.165354
vn -0.700787 0.173228 0.692913
vn -0.598425 0.519685 0.614173
vn -0.858268 0.480315 0.173228
vn -0.472441 0.692913 0.543307
vn -0.196850 0.968504 0.149606
vn -0.370079 0.889764 0.275590
vn -0.393701 0.913386 0.133858
vn -0.181102 0.937008 0.299212
vn -0.393701 0.913386 -0.133858
vn 0.251969 0.874016 -0.409449
vn 0.181102 0.937008 0.299212
vn -0.196850 0.968504 -0.149606
vn -0.370079 0.889764 -0.275591
vn -0.181102 0.937008 -0.299213
vn 0.535433 0.811023 -0.236221
vn 0.251969 0.874016 0.409449
vn 0.181102 0.937008 -0.299213
vn 0.535433 0.811023 0.236220
vn 0.913386 -0.000000 -0.409449
vn 0.913386 0.000000 0.409449
vn 0.362205 -0.000000 -0.937008
vn 0.362205 0.000000 0.937008
vn -0.708661 0.000000 0.708661
vn -0.094488 0.984252 -0.157480
vn 0.370079 0.889764 0.275590
vn 0.393701 0.913386 0.133858
vn -0.708661 -0.000000 -0.708661
vn 0.393701 0.913386 -0.133858
vn -0.094488 0.984252 0.157480
vn 0.370079 0.889764 -0.275591
vn 0.858268 -0.480315 -0.173228
vn 0.472441 -0.692913 -0.543307
vn 0.811024 -0.582677 -0.078740
vn 0.811024 -0.582677 0.078740
vn 0.598425 -0.519685 -0.614173
vn 0.858268 -0.480315 0.173228
vn 0.472441 -0.692913 0.543307
vn 0.976378 -0.157480 -0.165354
vn 0.700787 -0.173228 -0.692913
vn 0.700787 0.165354 -0.692913
vn 0.976378 -0.157480 0.165354
vn 0.976378 0.165354 -0.149606
vn 0.661417 0.338583 -0.669291
vn 0.937008 0.330709 -0.133858
vn 0.976378 0.165354 0.149606
vn 0.937008 0.330709 0.133858
vn 0.661417 0.338583 0.669291
vn 0.700787 0.165354 0.692913
vn 0.157480 0.157480 0.976378
vn 0.133858 0.307087 0.944882
vn -0.133858 0.307087 0.944882
vn 0.700787 -0.173228 0.692913
vn -0.157480 0.157480 0.976378
vn -0.661417 0.338583 0.669291
vn 0.173228 -0.125984 0.976378
vn 0.598425 -0.519685 0.614173
vn 0.165354 -0.417323 0.889764
vn 0.062992 -0.464567 0.881890
vn -0.062992 -0.464567 0.881890
vn -0.173228 -0.125984 0.976378
vn -0.173228 -0.417323 0.889764
vn -0.472441 -0.692913 0.543307
vn -0.700787 0.165354 0.692913
vn -0.598425 -0.519685 0.614173
vn -0.700787 -0.173228 0.692913
vn -0.976378 -0.157480 0.165354
vn -0.976378 0.165354 0.149606
vn -0.937008 0.330709 0.133858
vn -0.937008 0.330709 -0.133858
vn -0.858268 -0.480315 0.173228
vn -0.811024 -0.582677 0.078740
vn -0.811024 -0.582677 -0.078740
vn -0.976378 0.165354 -0.149606
vn -0.661417 0.338583 -0.669291
vn -0.858268 -0.480315 -0.173228
vn -0.472441 -0.692913 -0.543307
vn -0.976378 -0.157480 -0.165354
vn -0.598425 -0.519685 -0.614173
vn -0.700787 0.165354 -0.692913
vn -0.700787 -0.173228 -0.692913
vn -0.173228 -0.125984 -0.976378
vn -0.165354 -0.417323 -0.889764
vn -0.062992 -0.464567 -0.881890
vn 0.062992 -0.464567 -0.881890
vn -0.157480 0.157480 -0.976378
vn -0.133858 0.307086 -0.944882
vn 0.133858 0.307086 -0.944882
vn 0.173228 -0.417323 -0.889764
vn 0.472441 -0.692913 -0.543307
vn 0.598425 -0.519685 -0.614173
vn 0.173228 -0.125984 -0.976378
vn 0.700787 -0.173228 -0.692913
vn 0.700787 0.165354 -0.692913
vn 0.157480 0.157480 -0.976378
vn 0.661417 0.338583 -0.669291
vn -0.566929 0.748031 0.354331
vn -0.393701 0.543307 0.740157
vn -0.708661 0.543307 0.448819
vn -0.842520 0.543307 0.031496
vn -0.314961 0.748031 0.590551
vn 0.031496 0.543307 0.834646
vn -0.669291 0.740157 0.023622
vn 0.023622 0.748031 0.669291
vn -0.590551 0.740157 -0.314961
vn -0.740157 0.543307 -0.393701
vn -0.228346 0.960630 0.141732
vn -0.125984 0.960630 0.236220
vn 0.007874 0.960630 0.267716
vn -0.267717 0.960630 0.007874
vn 0.000000 1.000000 -0.000000
vn -0.236220 0.960630 -0.125984
vn -0.141732 0.960630 -0.228347
vn -0.354331 0.740157 -0.566929
vn -0.448819 0.543307 -0.708661
vn -0.031496 0.543307 -0.842520
vn -0.007874 0.960630 -0.267717
vn -0.023622 0.748031 -0.669291
vn 0.314961 0.748031 -0.590551
vn 0.393701 0.543307 -0.740157
vn 0.125984 0.960630 -0.236221
vn 0.228346 0.960630 -0.141732
vn 0.566929 0.748031 -0.354331
vn 0.708661 0.543307 -0.448819
vn 0.834646 0.543307 -0.031496
vn 0.267717 0.960630 -0.007874
vn 0.669291 0.748031 -0.023622
vn 0.590551 0.748031 0.314961
vn 0.740157 0.543307 0.393701
vn 0.236220 0.960630 0.125984
vn 0.354331 0.748031 0.566929
vn 0.448819 0.543307 0.708661
vn 0.141732 0.960630 0.228346
tan 1.000000 0.000000 0.000000 1.000000
tan 1.000000 0.000000 0.000000 1.000000
tan 1.000000 0.000000 0.000000 1.000000
tan 1.000000 0.000000 0.000000 1.000000
tan 1.000000 0.000000 0.000000 1.000000
tan 1.000000 0.000000 0.000000 1.000000
tan 0.056358 0.271250 -0.963110 1.000000
tan 0.014694 0.149606 -0.991072 1.000000
tan 0.025172 0.298964 -0.955360 1.000000
tan 0.017732 0.134602 -0.989770 1.000000
tan -0.025172 0.298964 -0.955360 1.000000
tan -0.014694 -0.149606 -0.991072 1.000000
tan -0.017732 -0.134602 -0.989770 1.000000
tan -0.056358 -0.271251 -0.963110 1.000000
tan -0.025172 -0.298965 -0.955360 1.000000
tan -0.014694 0.149606 -0.991072 1.000000
tan -0.056358 0.271250 -0.963110 1.000000
tan -0.017732 0.134602 -0.989770 1.000000
tan 0.017732 -0.134602 -0.989770 1.000000
tan 0.014694 -0.149606 -0.991072 1.000000
tan 0.025172 -0.298965 -0.955360 1.000000
tan 0.056358 -0.271251 -0.963110 1.000000
tan -0.149172 -0.671461 0.726642 1.000000
tan -0.015376 -0.885858 0.465559 1.000000
tan -0.026970 -0.903094 0.418563 1.000000
tan -0.122016 -0.818277 0.573501 1.000000
tan 0.078616 -0.880898 0.458429 1.000000
tan 0.007564 -0.991010 0.137206 1.000000
tan -0.025916 -0.976564 0.217931 1.000000
tan 0.044144 -0.987724 -0.166718 1.000000
tan 0.179366 -0.901296 0.387811 1.000000
tan 0.515531 -0.720379 0.470457 1.000000
tan 0.078058 -0.992374 0.122202 1.000000
tan 0.023560 -0.984562 -0.147250 1.000000
tan 0.084754 -0.927522 -0.340815 1.000000
tan 0.034968 -0.956414 -0.297910 1.000000
tan -0.034968 -0.956414 -0.297910 1.000000
tan -0.007006 -0.991072 -0.150784 1.000000
tan -0.194122 -0.948602 -0.241118 1.000000
tan -0.082770 -0.987724 -0.128092 1.000000
tan 0.401389 -0.854362 0.331825 1.000000
tan 0.151404 -0.987724 0.093806 1.000000
tan -0.143716 -0.984562 -0.046624 1.000000
tan -0.292641 -0.957468 -0.074524 1.000000
tan -0.296857 -0.956414 0.042408 1.000000
tan 0.160146 -0.981896 0.043896 1.000000
tan -0.149606 -0.991072 0.014694 1.000000
tan -0.228160 -0.943332 0.204663 1.000000
tan 0.156240 -0.981896 -0.066774 1.000000
tan 0.462149 -0.874822 0.135904 1.000000
tan 0.576229 -0.813318 0.083390 1.000000
tan 0.574989 -0.814557 -0.105338 1.000000
tan 0.452911 -0.870792 -0.170500 1.000000
tan 0.482051 -0.722053 -0.501705 1.000000
tan 0.369025 -0.854610 -0.363569 1.000000
tan -0.117056 -0.987724 0.093806 1.000000
tan 0.117304 -0.982206 -0.126914 1.000000
tan 0.054994 -0.992374 -0.126294 1.000000
tan 0.162068 -0.905202 -0.394445 1.000000
tan 0.068014 -0.880402 -0.458925 1.000000
tan -0.068014 -0.880402 -0.458925 1.000000
tan -0.031248 -0.984562 0.146072 1.000000
tan -0.057288 -0.956414 0.294749 1.000000
tan 0.049848 -0.956414 0.295803 1.000000
tan -0.169074 -0.899932 -0.389175 1.000000
tan -0.491785 -0.721495 -0.492529 1.000000
tan 0.023560 -0.984562 0.147250 1.000000
tan 0.217620 -0.948602 0.217621 1.000000
tan -0.062682 -0.992374 -0.124930 1.000000
tan 0.106020 -0.993242 0.106020 1.000000
tan -0.382789 -0.859322 -0.354145 1.000000
tan -0.128216 -0.982206 -0.115878 1.000000
tan -0.157542 -0.981896 -0.059148 1.000000
tan 0.148428 -0.991072 0.022382 1.000000
tan 0.295803 -0.956414 0.049848 1.000000
tan 0.296857 -0.956414 -0.042408 1.000000
tan -0.459421 -0.876186 -0.153202 1.000000
tan -0.575609 -0.813937 -0.094364 1.000000
tan -0.584537 -0.817223 0.026722 1.000000
tan 0.148428 -0.991072 -0.022382 1.000000
tan 0.330275 -0.932792 -0.097712 1.000000
tan 0.162378 -0.987724 -0.048484 1.000000
tan -0.167958 -0.980594 -0.003162 1.000000
tan -0.218240 -0.976874 0.023498 1.000000
tan -0.574369 -0.809845 0.125612 1.000000
tan -0.480935 -0.873396 0.038874 1.000000
tan -0.752558 -0.643003 0.165664 1.000000
tan -0.983260 -0.195300 -0.029450 1.000000
tan -0.928018 -0.354765 -0.100812 1.000000
tan -0.925166 -0.392709 -0.041416 1.000000
tan -0.984624 -0.170190 -0.062992 1.000000
tan -0.925166 -0.392709 0.041416 1.000000
tan -0.953066 0.294625 0.042408 1.000000
tan -0.984624 0.174902 0.048236 1.000000
tan -0.983260 -0.195300 0.029450 1.000000
tan -0.928018 -0.354765 0.100812 1.000000
tan -0.984624 -0.170190 0.062992 1.000000
tan -0.830120 0.552049 0.013764 1.000000
tan -0.953066 0.297849 -0.049290 1.000000
tan -0.984624 0.174902 -0.048236 1.000000
tan -0.830120 0.552049 -0.013764 1.000000
tan -0.164424 0.913882 -0.366793 1.000000
tan -0.164424 0.913882 0.366793 1.000000
tan -0.885362 0.323145 -0.342241 1.000000
tan -0.877984 0.348131 0.339389 1.000000
tan -0.435241 -0.792361 -0.435241 1.000000
tan -0.974332 -0.122512 -0.181102 1.000000
tan -0.935024 0.362019 0.086800 1.000000
tan -0.924112 0.393763 0.031124 1.000000
tan -0.424081 -0.803521 0.424081 1.000000
tan -0.924112 0.393763 -0.031124 1.000000
tan -0.974332 -0.122512 0.181102 1.000000
tan -0.935024 0.362019 -0.086800 1.000000
tan -0.486391 -0.870668 0.004278 1.000000
tan -0.779404 -0.621055 0.114328 1.000000
tan -0.585777 -0.816603 0.009362 1.000000
tan -0.576229 -0.813937 -0.087978 1.000000
tan -0.607477 -0.795213 0.080972 1.000000
tan -0.459421 -0.876186 -0.153202 1.000000
tan -0.434559 -0.720007 -0.540393 1.000000
tan -0.162812 -0.988344 -0.020088 1.000000
tan -0.234608 -0.976874 0.006944 1.000000
tan 0.167586 -0.982268 -0.064914 1.000000
tan -0.149792 -0.989646 -0.058032 1.000000
tan 0.164052 -0.991072 -0.024738 1.000000
tan 0.358609 -0.927026 -0.114576 1.000000
tan 0.328105 -0.948602 -0.046872 1.000000
tan 0.165230 -0.991072 0.017050 1.000000
tan 0.329159 -0.948602 0.039494 1.000000
tan 0.261021 -0.937752 0.216443 1.000000
tan 0.140306 -0.987724 0.093806 1.000000
tan 0.047864 -0.985802 0.151280 1.000000
tan 0.068262 -0.957468 0.301507 1.000000
tan -0.060822 -0.957468 0.302561 1.000000
tan -0.100936 -0.987662 -0.144832 1.000000
tan -0.032488 -0.985802 0.153760 1.000000
tan -0.237274 -0.943084 0.242607 1.000000
tan -0.021824 -0.991010 -0.124000 1.000000
tan -0.336661 -0.854858 -0.395313 1.000000
tan -0.075578 -0.905698 -0.410751 1.000000
tan -0.032922 -0.886354 -0.464567 1.000000
tan 0.022320 -0.885858 -0.465063 1.000000
tan 0.029512 -0.991010 -0.122636 1.000000
tan 0.075578 -0.907124 -0.410751 1.000000
tan 0.448571 -0.719449 -0.527497 1.000000
tan -0.117180 -0.982206 0.115878 1.000000
tan 0.355261 -0.854734 -0.377085 1.000000
tan 0.117304 -0.982206 -0.126914 1.000000
tan 0.152396 -0.989646 -0.042656 1.000000
tan -0.161572 -0.984562 0.033728 1.000000
tan -0.325997 -0.949656 0.064232 1.000000
tan -0.321285 -0.942278 -0.078988 1.000000
tan 0.464877 -0.873458 -0.118606 1.000000
tan 0.576849 -0.813318 -0.077004 1.000000
tan 0.577469 -0.812698 0.066030 1.000000
tan -0.160394 -0.984562 -0.041416 1.000000
tan -0.218798 -0.937876 -0.258230 1.000000
tan 0.466241 -0.873458 0.111848 1.000000
tan 0.496063 -0.717217 0.483353 1.000000
tan 0.155000 -0.989646 0.027280 1.000000
tan 0.396553 -0.859198 0.340629 1.000000
tan -0.100812 -0.987662 -0.133734 1.000000
tan 0.145948 -0.987724 0.099324 1.000000
tan 0.053568 -0.992374 0.118544 1.000000
tan 0.127472 -0.902598 0.399653 1.000000
tan 0.050468 -0.886850 0.463575 1.000000
tan 0.012772 -0.884866 0.467047 1.000000
tan -0.017112 -0.985802 -0.156240 1.000000
tan -0.043524 -0.956414 -0.304668 1.000000
tan 0.036084 -0.956414 -0.305722 1.000000
tan 0.031930 -0.900304 0.428483 1.000000
tan -0.060388 -0.638539 0.761857 1.000000
tan -0.049848 -0.790129 0.620001 1.000000
tan 0.032984 -0.989646 0.133548 1.000000
tan 0.002728 -0.971046 0.245521 1.000000
tan 0.066774 -0.982144 -0.166842 1.000000
tan 0.024800 -0.985802 -0.155000 1.000000
tan 0.107942 -0.922438 -0.359973 1.000000
tan -0.717961 -0.229896 -0.663401 1.000000
tan -0.848782 0.089032 -0.516833 1.000000
tan -0.652117 -0.268399 -0.704755 1.000000
tan -0.432327 -0.633083 -0.644057 1.000000
tan -0.820572 0.107260 -0.573501 1.000000
tan -0.813318 0.494141 -0.290967 1.000000
tan -0.604315 -0.527311 -0.599851 1.000000
tan -0.795462 0.419927 -0.441255 1.000000
tan -0.571393 -0.662161 -0.484717 1.000000
tan -0.393391 -0.825842 -0.400087 1.000000
tan -0.792114 -0.099448 -0.602145 1.000000
tan -0.804514 0.038564 -0.585901 1.000000
tan -0.805754 0.164238 -0.565627 1.000000
tan -0.772832 -0.210490 -0.596441 1.000000
tan -0.803150 -0.000000 -0.598425 1.000000
tan -0.766570 -0.264121 -0.576601 1.000000
tan -0.777978 -0.250047 -0.569037 1.000000
tan -0.684853 -0.621055 -0.382789 1.000000
tan -0.603571 -0.769111 -0.207390 1.000000
tan -0.818650 -0.498667 -0.290967 1.000000
tan -0.798190 -0.166284 -0.573191 1.000000
tan -0.795462 -0.419927 -0.441255 1.000000
tan -0.820572 -0.107260 -0.573501 1.000000
tan -0.848782 -0.089032 -0.516833 1.000000
tan -0.804514 -0.040424 -0.593465 1.000000
tan -0.784550 0.096534 -0.609709 1.000000
tan -0.721061 0.237150 -0.653047 1.000000
tan -0.652117 0.264864 -0.709033 1.000000
tan -0.432327 0.627069 -0.639717 1.000000
tan -0.772894 0.210490 -0.598549 1.000000
tan -0.610639 0.527311 -0.603261 1.000000
tan -0.577841 0.662161 -0.489181 1.000000
tan -0.393391 0.825841 -0.400087 1.000000
tan -0.766570 0.264120 -0.576601 1.000000
tan -0.690619 0.621055 -0.387811 1.000000
tan -0.603571 0.769111 -0.207390 1.000000
tan -0.787340 0.249364 -0.560357 1.000000
f 3/3/3 2/2/2 1/1/1
f 3/3/3 4/4/4 2/2/2
f 5/5/5 4/4/4 3/3/3
f 5/5/5 6/6/6 4/4/4
f 9/9/9 8/8/8 7/7/7
f 10/10/10 7/7/7 8/8/8
f 8/8/8 9/9/9 11/11/11
f 8/8/8 12/12/12 10/10/10
f 13/13/13 10/10/10 12/12/12
f 12/12/12 14/14/14 13/13/13
f 15/15/15 14/14/14 12/12/12
f 16/16/16 8/8/8 11/11/11
f 12/12/12 8/8/8 16/16/16
f 16/16/16 11/11/11 17/17/17
f 17/17/17 18/18/18 16/16/16
f 16/16/16 18/18/18 19/19/19
f 12/12/12 20/20/20 15/15/15
f 20/20/20 12/12/12 16/16/16
f 19/19/19 20/20/20 16/16/16
f 21/21/21 15/15/15 20/20/20
f 22/22/22 20/20/20 19/19/19
f 22/22/22 21/21/21 20/20/20
f 25/25/25 24/24/24 23/23/23
f 23/23/23 26/26/26 25/25/25
f 24/24/24 25/25/25 27/27/27
f 28/28/28 25/25/25 26/26/26
f 26/26/26 29/29/29 28/28/28
f 29/29/29 30/30/30 28/28/28
f 27/27/27 25/25/25 31/31/31
f 31/31/31 32/32/32 27/27/27
f 28/28/28 33/33/33 25/25/25
f 33/33/33 31/31/31 25/25/25
f 34/34/34 28/28/28 30/30/30
f 28/28/28 34/34/34 33/33/33
f 35/35/35 34/34/34 30/30/30
f 35/35/35 36/36/36 34/34/34
f 36/36/36 37/37/37 34/34/34
f 38/38/38 34/34/34 37/37/37
f 38/38/38 33/33/33 34/34/34
f 37/37/37 39/39/39 38/38/38
f 38/38/38 40/40/40 33/33/33
f 40/40/40 38/38/38 39/39/39
f 31/31/31 33/33/33 41/41/41
f 41/41/41 32/32/32 31/31/31
f 33/33/33 40/40/40 42/42/42
f 42/42/42 41/41/41 33/33/33
f 39/39/39 43/43/43 40/40/40
f 39/39/39 44/44/44 43/43/43
f 44/44/44 45/45/45 43/43/43
f 42/42/42 40/40/40 46/46/46
f 43/43/43 46/46/46 40/40/40
f 41/41/41 42/42/42 46/46/46
f 45/45/45 47/47/47 43/43/43
f 45/45/45 48/48/48 47/47/47
f 46/46/46 43/43/43 49/49/49
f 47/47/47 49/49/49 43/43/43
f 46/46/46 50/50/50 41/41/41
f 32/32/32 41/41/41 50/50/50
f 46/46/46 49/49/49 50/50/50
f 50/50/50 51/51/51 32/32/32
f 51/51/51 50/50/50 52/52/52
f 53/53/53 52/52/52 50/50/50
f 49/49/49 53/53/53 50/50/50
f 53/53/53 54/54/54 52/52/52
f 53/53/53 49/49/49 55/55/55
f 55/55/55 54/54/54 53/53/53
f 47/47/47 56/56/56 49/49/49
f 47/47/47 48/48/48 56/56/56
f 57/57/57 55/55/55 49/49/49
f 49/49/49 56/56/56 57/57/57
f 55/55/55 57/57/57 58/58/58
f 57/57/57 56/56/56 58/58/58
f 54/54/54 55/55/55 59/59/59
f 58/58/58 59/59/59 55/55/55
f 59/59/59 60/60/60 54/54/54
f 60/60/60 59/59/59 61/61/61
f 48/48/48 62/62/62 56/56/56
f 62/62/62 58/58/58 56/56/56
f 48/48/48 63/63/63 62/62/62
f 63/63/63 64/64/64 62/62/62
f 61/61/61 59/59/59 65/65/65
f 65/65/65 66/66/66 61/61/61
f 67/67/67 62/62/62 64/64/64
f 64/64/64 68/68/68 67/67/67
f 58/58/58 62/62/62 69/69/69
f 67/67/67 69/69/69 62/62/62
f 58/58/58 69/69/69 59/59/59
f 69/69/69 65/65/65 59/59/59
f 70/70/70 67/67/67 68/68/68
f 67/67/67 70/70/70 69/69/69
f 65/65/65 69/69/69 71/71/71
f 71/71/71 66/66/66 65/65/65
f 69/69/69 70/70/70 72/72/72
f 72/72/72 71/71/71 69/69/69
f 72/72/72 70/70/70 73/73/73
f 71/71/71 72/72/72 73/73/73
f 68/68/68 74/74/74 70/70/70
f 74/74/74 73/73/73 70/70/70
f 68/68/68 75/75/75 74/74/74
f 75/75/75 76/76/76 74/74/74
f 66/66/66 71/71/71 77/77/77
f 73/73/73 77/77/77 71/71/71
f 77/77/77 78/78/78 66/66/66
f 78/78/78 77/77/77 79/79/79
f 76/76/76 80/80/80 74/74/74
f 76/76/76 81/81/81 80/80/80
f 80/80/80 81/81/81 82/82/82
f 80/80/80 83/83/83 74/74/74
f 80/80/80 82/82/82 83/83/83
f 73/73/73 74/74/74 83/83/83
f 73/73/73 83/83/83 77/77/77
f 83/83/83 82/82/82 84/84/84
f 84/84/84 85/85/85 83/83/83
f 83/83/83 86/86/86 77/77/77
f 86/86/86 83/83/83 85/85/85
f 86/86/86 79/79/79 77/77/77
f 85/85/85 87/87/87 86/86/86
f 86/86/86 87/87/87 79/79/79
f 90/90/90 89/89/89 88/88/88
f 91/91/91 88/88/88 89/89/89
f 90/90/90 88/88/88 92/92/92
f 91/91/91 93/93/93 88/88/88
f 93/93/93 91/91/91 94/94/94
f 95/95/95 92/92/92 88/88/88
f 95/95/95 96/96/96 92/92/92
f 97/97/97 96/96/96 95/95/95
f 95/95/95 88/88/88 98/98/98
f 88/88/88 93/93/93 98/98/98
f 97/97/97 95/95/95 99/99/99
f 99/99/99 100/100/100 97/97/97
f 101/101/101 95/95/95 98/98/98
f 95/95/95 101/101/101 99/99/99
f 98/98/98 102/102/102 101/101/101
f 98/98/98 93/93/93 102/102/102
f 103/103/103 101/101/101 102/102/102
f 103/103/103 99/99/99 101/101/101
f 104/104/104 102/102/102 93/93/93
f 99/99/99 103/103/103 105/105/105
f 105/105/105 106/106/106 99/99/99
f 93/93/93 107/107/107 104/104/104
f 107/107/107 93/93/93 94/94/94
f 107/107/107 94/94/94 108/108/108
f 108/108/108 109/109/109 107/107/107
f 110/110/110 104/104/104 107/107/107
f 107/107/107 109/109/109 111/111/111
f 110/110/110 107/107/107 112/112/112
f 111/111/111 112/112/112 107/107/107
f 106/106/106 110/110/110 112/112/112
f 106/106/106 112/112/112 99/99/99
f 100/100/100 99/99/99 112/112/112
f 113/113/113 112/112/112 111/111/111
f 113/113/113 100/100/100 112/112/112
f 116/116/116 115/115/115 114/114/114
f 116/116/116 114/114/114 117/117/117
f 114/114/114 115/115/115 118/118/118
f 117/117/117 114/114/114 119/119/119
f 120/120/120 117/117/117 119/119/119
f 114/114/114 118/118/118 121/121/121
f 121/121/121 118/118/118 122/122/122
f 122/122/122 123/123/123 121/121/121
f 119/119/119 114/114/114 124/124/124
f 121/121/121 124/124/124 114/114/114
f 125/125/125 121/121/121 123/123/123
f 121/121/121 125/125/125 124/124/124
f 123/123/123 126/126/126 125/125/125
f 127/127/127 125/125/125 126/126/126
f 125/125/125 127/127/127 128/128/128
f 128/128/128 124/124/124 125/125/125
f 129/129/129 128/128/128 127/127/127
f 128/128/128 129/129/129 130/130/130
f 130/130/130 131/131/131 128/128/128
f 131/131/131 124/124/124 128/128/128
f 131/131/131 130/130/130 132/132/132
f 133/133/133 132/132/132 130/130/130
f 132/132/132 133/133/133 134/134/134
f 135/135/135 124/124/124 131/131/131
f 136/136/136 132/132/132 134/134/134
f 136/136/136 134/134/134 137/137/137
f 132/132/132 138/138/138 131/131/131
f 135/135/135 131/131/131 138/138/138
f 135/135/135 139/139/139 124/124/124
f 135/135/135 138/138/138 139/139/139
f 119/119/119 124/124/124 139/139/139
f 120/120/120 119/119/119 139/139/139
f 140/140/140 120/120/120 139/139/139
f 140/140/140 139/139/139 138/138/138
f 141/141/141 120/120/120 140/140/140
f 141/141/141 140/140/140 142/142/142
f 138/138/138 132/132/132 143/143/143
f 138/138/138 143/143/143 140/140/140
f 136/136/136 143/143/143 132/132/132
f 142/142/142 140/140/140 144/144/144
f 144/144/144 140/140/140 143/143/143
f 145/145/145 142/142/142 144/144/144
f 146/146/146 143/143/143 136/136/136
f 137/137/137 146/146/146 136/136/136
f 144/144/144 143/143/143 147/147/147
f 145/145/145 144/144/144 147/147/147
f 148/148/148 143/143/143 146/146/146
f 148/148/148 147/147/147 143/143/143
f 148/148/148 146/146/146 149/149/149
f 149/149/149 147/147/147 148/148/148
f 146/146/146 137/137/137 150/150/150
f 150/150/150 149/149/149 146/146/146
f 151/151/151 150/150/150 137/137/137
f 150/150/150 151/151/151 152/152/152
f 153/153/153 145/145/145 147/147/147
f 153/153/153 147/147/147 149/149/149
f 154/154/154 145/145/145 153/153/153
f 154/154/154 153/153/153 155/155/155
f 156/156/156 150/150/150 152/152/152
f 156/156/156 152/152/152 157/157/157
f 155/155/155 153/153/153 158/158/158
f 159/159/159 155/155/155 158/158/158
f 149/149/149 160/160/160 153/153/153
f 158/158/158 153/153/153 160/160/160
f 149/149/149 150/150/150 160/160/160
f 156/156/156 160/160/160 150/150/150
f 159/159/159 158/158/158 161/161/161
f 158/158/158 160/160/160 161/161/161
f 162/162/162 160/160/160 156/156/156
f 157/157/157 162/162/162 156/156/156
f 163/163/163 161/161/161 160/160/160
f 163/163/163 160/160/160 162/162/162
f 163/163/163 164/164/164 161/161/161
f 163/163/163 162/162/162 164/164/164
f 165/165/165 159/159/159 161/161/161
f 165/165/165 161/161/161 164/164/164
f 166/166/166 159/159/159 165/165/165
f 166/166/166 165/165/165 167/167/167
f 168/168/168 164/164/164 162/162/162
f 162/162/162 157/157/157 168/168/168
f 169/169/169 168/168/168 157/157/157
f 168/168/168 169/169/169 170/170/170
f 167/167/167 165/165/165 171/171/171
f 172/172/172 167/167/167 171/171/171
f 172/172/172 171/171/171 173/173/173
f 171/171/171 165/165/165 174/174/174
f 171/171/171 174/174/174 173/173/173
f 164/164/164 174/174/174 165/165/165
f 164/164/164 168/168/168 174/174/174
f 175/175/175 173/173/173 174/174/174
f 175/175/175 174/174/174 176/176/176
f 177/177/177 174/174/174 168/168/168
f 176/176/176 174/174/174 177/177/177
f 177/177/177 168/168/168 170/170/170
f 178/178/178 176/176/176 177/177/177
f 177/177/177 170/170/170 178/178/178
f 181/181/181 180/180/180 179/179/179
f 181/181/181 179/179/179 182/182/182
f 183/183/183 179/179/179 180/180/180
f 180/180/180 184/184/184 183/183/183
f 185/185/185 182/182/182 179/179/179
f 186/186/186 183/183/183 184/184/184
f 185/185/185 187/187/187 182/182/182
f 188/188/188 182/182/182 187/187/187
f 179/179/179 189/189/189 185/185/185
f 183/183/183 190/190/190 179/179/179
f 189/189/189 179/179/179 190/190/190
f 191/191/191 190/190/190 183/183/183
f 191/191/191 183/183/183 186/186/186
f 192/192/192 185/185/185 189/189/189
f 187/187/187 185/185/185 192/192/192
f 189/189/189 190/190/190 193/193/193
f 192/192/192 189/189/189 193/193/193
f 190/190/190 191/191/191 193/193/193
f 192/192/192 194/194/194 187/187/187
f 194/194/194 192/192/192 193/193/193
f 194/194/194 195/195/195 187/187/187
f 195/195/195 194/194/194 193/193/193
f 187/187/187 196/196/196 188/188/188
f 196/196/196 187/187/187 195/195/195
f 197/197/197 188/188/188 196/196/196
f 197/197/197 196/196/196 198/198/198
f 195/195/195 199/199/199 196/196/196
f 199/199/199 195/195/195 193/193/193
f 200/200/200 198/198/198 196/196/196
f 200/200/200 196/196/196 199/199/199
f 200/200/200 201/201/201 198/198/198
f 202/202/202 198/198/198 201/201/201
f 199/199/199 203/203/203 200/200/200
f 201/201/201 200/200/200 203/203/203
f 203/203/203 199/199/199 193/193/193
f 203/203/203 204/204/204 201/201/201
f 204/204/204 203/203/203 193/193/193
f 201/201/201 205/205/205 202/202/202
f 205/205/205 201/201/201 204/204/204
f 206/206/206 202/202/202 205/205/205
f 206/206/206 205/205/205 207/207/207
f 204/204/204 208/208/208 205/205/205
f 208/208/208 204/204/204 193/193/193
f 209/209/209 207/207/207 205/205/205
f 209/209/209 205/205/205 208/208/208
f 209/209/209 210/210/210 207/207/207
f 211/211/211 207/207/207 210/210/210
f 208/208/208 212/212/212 209/209/209
f 210/210/210 209/209/209 212/212/212
f 212/212/212 208/208/208 193/193/193
f 210/210/210 213/213/213 211/211/211
f 210/210/210 212/212/212 213/213/213
f 214/214/214 211/211/211 213/213/213
f 214/214/214 213/213/213 184/184/184
f 186/186/186 184/184/184 213/213/213
f 215/215/215 212/212/212 193/193/193
f 215/215/215 213/213/213 212/212/212
f 215/215/215 186/186/186 213/213/213
f 191/191/191 215/215/215 193/193/193
f 215/215/215 191/191/191 186/186/186
