mtllib SM_Sticker_17.mtl
g SM_Sticker_17
#Vertices 4
#Indices 6
#Section 0 Offset 0 NumIndices 6 MaterialIndex 0 MI_Posters_01
v 0.250789 0.161018 -0.000000
v 0.000397 0.158401 -0.000000
v 0.248898 -0.000392 0.000000
v 0.000000 0.000000 0.000000
vt 0.132202 0.151367
vt 0.010025 0.149902
vt 0.131348 0.072266
vt 0.009834 0.072754
vt1 0.889648 0.751099
vt1 0.111206 0.742920
vt1 0.883789 0.249023
vt1 0.109985 0.250488
vn 0.000000 -0.000000 -1.000000
vn 0.000000 -0.000000 -1.000000
vn 0.000000 -0.000000 -1.000000
vn 0.000000 -0.000000 -1.000000
tan 0.000000 -1.000000 0.000000 1.000000
tan 0.000000 -1.000000 0.000000 1.000000
tan 0.000000 -1.000000 0.000000 1.000000
tan 0.000000 -1.000000 0.000000 1.000000
f 3/3/3 2/2/2 1/1/1
f 3/3/3 4/4/4 2/2/2
