mtllib SM_Sticker_29.mtl
g SM_Sticker_29
#Vertices 14
#Indices 36
#Section 0 Offset 0 NumIndices 36 MaterialIndex 0 MI_Posters_01
v -0.035348 0.093187 -0.000000
v -0.000598 0.124274 -0.000000
v -0.025086 0.113419 -0.000000
v -0.034719 0.068053 -0.000000
v 0.101605 0.087532 -0.000000
v 0.079484 0.123191 -0.000000
v 0.097200 0.105007 -0.000000
v -0.006215 0.044739 -0.000000
v -0.021838 0.048574 -0.000000
v 0.099910 0.068838 -0.000000
v 0.107039 0.049988 -0.000000
v 0.107510 0.014014 -0.000000
v 0.093626 0.000744 -0.000000
v 0.000000 0.000000 0.000000
vt 0.792480 0.056152
vt 0.809570 0.071289
vt 0.797363 0.065918
vt 0.792969 0.043457
vt 0.859375 0.053223
vt 0.848633 0.070801
vt 0.857422 0.061523
vt 0.806641 0.032227
vt 0.799316 0.034180
vt 0.858398 0.043945
vt 0.861816 0.034668
vt 0.862305 0.017090
vt 0.855469 0.010742
vt 0.809570 0.010254
vt1 0.109985 0.669678
vt1 0.299561 0.839355
vt1 0.166016 0.780029
vt1 0.113403 0.532471
vt1 0.857422 0.638672
vt1 0.736816 0.833374
vt1 0.833496 0.734131
vt1 0.269043 0.405273
vt1 0.183716 0.426270
vt1 0.848145 0.536621
vt1 0.887207 0.434082
vt1 0.889648 0.237305
vt1 0.813965 0.165039
vt1 0.302979 0.161133
vn 0.000000 -0.000000 -1.000000
vn 0.000000 -0.000000 -1.000000
vn 0.000000 -0.000000 -1.000000
vn 0.000000 -0.000000 -1.000000
vn 0.000000 -0.000000 -1.000000
vn 0.000000 -0.000000 -1.000000
vn 0.000000 -0.000000 -1.000000
vn 0.000000 -0.000000 -1.000000
vn 0.000000 -0.000000 -1.000000
vn 0.000000 -0.000000 -1.000000
vn 0.000000 -0.000000 -1.000000
vn 0.000000 -0.000000 -1.000000
vn 0.000000 -0.000000 -1.000000
vn 0.000000 -0.000000 -1.000000
tan 0.000000 -1.000000 0.000000 1.000000
tan 0.000000 -1.000000 0.000000 1.000000
tan 0.000000 -1.000000 0.000000 1.000000
tan 0.000000 -1.000000 0.000000 1.000000
tan 0.000000 -1.000000 0.000000 1.000000
tan 0.000000 -1.000000 0.000000 1.000000
tan 0.000000 -1.000000 0.000000 1.000000
tan 0.000000 -1.000000 0.000000 1.000000
tan 0.000000 -1.000000 0.000000 1.000000
tan 0.000000 -1.000000 0.000000 1.000000
tan 0.000000 -1.000000 0.000000 1.000000
tan 0.000000 -1.000000 0.000000 1.000000
tan 0.000000 -1.000000 0.000000 1.000000
tan 0.000000 -1.000000 0.000000 1.000000
f 3/3/3 2/2/2 1/1/1
f 1/1/1 2/2/2 4/4/4
f 2/2/2 5/5/5 4/4/4
f 6/6/6 5/5/5 2/2/2
f 7/7/7 5/5/5 6/6/6
f 8/8/8 4/4/4 5/5/5
f 8/8/8 9/9/9 4/4/4
f 10/10/10 8/8/8 5/5/5
f 10/10/10 11/11/11 8/8/8
f 11/11/11 12/12/12 8/8/8
f 12/12/12 13/13/13 8/8/8
f 14/14/14 8/8/8 13/13/13
