mtllib SM_Sticker_10.mtl
g SM_Sticker_10
#Vertices 4
#Indices 6
#Section 0 Offset 0 NumIndices 6 MaterialIndex 0 MI_Posters_01
v 0.193289 0.251986 -0.000000
v 0.000000 0.000000 0.000000
v 0.198702 0.003411 -0.000000
v -0.004572 0.249518 -0.000000
vt 0.416992 0.252441
vt 0.322754 0.129395
vt 0.419678 0.131348
vt 0.320557 0.251465
vt1 0.797852 0.890015
vt1 0.199463 0.110352
vt1 0.814453 0.120605
vt1 0.185303 0.882385
vn 0.000000 -0.000000 -1.000000
vn 0.000000 -0.000000 -1.000000
vn 0.000000 -0.000000 -1.000000
vn 0.000000 -0.000000 -1.000000
tan 0.000000 -1.000000 0.000000 1.000000
tan 0.000000 -1.000000 0.000000 1.000000
tan 0.000000 -1.000000 0.000000 1.000000
tan 0.000000 -1.000000 0.000000 1.000000
f 3/3/3 2/2/2 1/1/1
f 4/4/4 1/1/1 2/2/2
