mtllib SM_Sticker_27.mtl
g SM_Sticker_27
#Vertices 8
#Indices 18
#Section 0 Offset 0 NumIndices 18 MaterialIndex 0 MI_Posters_01
v -0.045690 -0.036322 0.000001
v -0.035068 0.043124 0.000000
v -0.056636 0.013004 0.000000
v 0.040238 0.039081 0.000000
v 0.003164 0.058720 0.000000
v 0.038982 -0.042606 0.000001
v -0.005789 -0.058720 0.000001
v 0.056636 0.004207 0.000000
vt 0.663574 0.362793
vt 0.668945 0.401367
vt 0.658203 0.386719
vt 0.705566 0.399414
vt 0.687500 0.409180
vt 0.705078 0.359863
vt 0.683105 0.351562
vt 0.713867 0.382324
vt1 0.196533 0.258789
vt1 0.266846 0.786499
vt1 0.123840 0.586426
vt1 0.767090 0.759644
vt1 0.520996 0.890015
vt1 0.758789 0.217285
vt1 0.461426 0.110352
vt1 0.875977 0.528076
vn 0.000000 -0.000000 -1.000000
vn 0.000000 -0.000000 -1.000000
vn 0.000000 -0.000000 -1.000000
vn 0.000000 -0.000000 -1.000000
vn 0.000000 -0.000000 -1.000000
vn 0.000000 -0.000000 -1.000000
vn 0.000000 -0.000000 -1.000000
vn 0.000000 -0.000000 -1.000000
tan 0.000000 -1.000000 0.000000 1.000000
tan 0.000000 -1.000000 0.000000 1.000000
tan 0.000000 -1.000000 0.000000 1.000000
tan 0.000000 -1.000000 0.000000 1.000000
tan 0.000000 -1.000000 0.000000 1.000000
tan 0.000000 -1.000000 0.000000 1.000000
tan 0.000000 -1.000000 0.000000 1.000000
tan 0.000000 -1.000000 0.000000 1.000000
f 3/3/3 2/2/2 1/1/1
f 2/2/2 5/5/5 4/4/4
f 2/2/2 4/4/4 1/1/1
f 4/4/4 6/6/6 1/1/1
f 6/6/6 7/7/7 1/1/1
f 4/4/4 8/8/8 6/6/6
