mtllib SM_Stairs_01.mtl
g SM_Stairs_01
#Vertices 192
#Indices 384
#Section 0 Offset 0 NumIndices 384 MaterialIndex 0 MI_Stairs_01
v 1.479677 0.760000 1.011772
v 0.020323 0.760000 1.355508
v 1.479677 0.760000 1.355508
v 0.020323 0.760000 1.011772
v 1.479677 0.760000 1.011772
v 1.479677 0.800000 1.355508
v 1.479677 0.800000 0.980711
v 1.479677 0.760000 1.355508
v 1.479677 0.760000 1.355508
v 0.020323 0.760000 1.355508
v 1.479677 0.800000 1.355508
v 0.020323 0.800000 1.355508
v 0.020323 0.560000 0.710135
v 1.479677 0.560000 1.053872
v 1.479677 0.560000 0.710135
v 0.020323 0.560000 1.053872
v 1.479677 0.560000 1.053872
v 0.020323 0.560000 1.053872
v 1.479677 0.600000 1.053872
v 0.020323 0.600000 1.053872
v 0.020323 0.360000 0.421313
v 1.479677 0.360000 0.765050
v 1.479677 0.360000 0.421313
v 0.020323 0.360000 0.765050
v 1.479677 0.360000 0.421313
v 1.479677 0.400000 0.765050
v 1.479677 0.400000 0.390252
v 1.479677 0.360000 0.765050
v 1.479677 0.360000 0.765050
v 0.020323 0.360000 0.765050
v 1.479677 0.400000 0.765050
v 0.020323 0.400000 0.765050
v 0.020323 0.160000 0.136199
v 1.479677 0.160000 0.479935
v 1.479677 0.160000 0.136199
v 0.020323 0.160000 0.479935
v 1.479677 0.160000 0.136199
v 1.479677 0.200000 0.479935
v 1.479677 0.200000 0.105138
v 1.479677 0.160000 0.479935
v 1.479677 0.160000 0.479935
v 0.020323 0.160000 0.479935
v 1.479677 0.200000 0.479935
v 0.020323 0.200000 0.479935
v 1.458623 0.720516 0.981556
v 0.041377 0.720516 0.981556
v 0.041377 0.720516 1.023556
v 1.458623 0.720516 1.023556
v 1.458623 0.520516 0.679919
v 0.041377 0.520516 0.679919
v 0.041377 0.520516 0.721919
v 1.458623 0.520516 0.721919
v 0.041377 0.320516 0.391097
v 1.458623 0.320516 0.433097
v 1.458623 0.320516 0.391097
v 0.041377 0.320516 0.433097
v 0.041377 0.120516 0.105983
v 1.458623 0.120516 0.147983
v 1.458623 0.120516 0.105983
v 0.041377 0.120516 0.147983
v 1.479677 0.800000 0.980711
v 1.479677 0.789061 0.969772
v 1.479677 0.760000 1.011772
v 1.479677 0.742452 0.969772
v 1.479677 0.742452 1.011772
v 1.458623 0.720516 0.981556
v 1.458623 0.720516 1.023556
v 1.479677 0.400000 0.390252
v 1.479677 0.389061 0.379313
v 1.479677 0.360000 0.421313
v 1.479677 0.342452 0.379313
v 1.479677 0.342452 0.421313
v 1.458623 0.320516 0.391097
v 1.458623 0.320516 0.433097
v 1.479677 0.200000 0.105138
v 1.479677 0.189061 0.094199
v 1.479677 0.160000 0.136199
v 1.479677 0.142452 0.094199
v 1.479677 0.142452 0.136199
v 1.458623 0.120516 0.105983
v 1.458623 0.120516 0.147983
v 0.020323 0.400000 0.390253
v 1.479677 0.400000 0.765050
v 0.020323 0.400000 0.765050
v 1.479677 0.400000 0.390252
v 0.020323 0.389061 0.379313
v 1.479677 0.389061 0.379313
v 0.020323 0.342452 0.379313
v 1.479677 0.342452 0.379313
v 0.041377 0.320516 0.391097
v 1.458623 0.320516 0.391097
v 0.020323 0.360000 0.421313
v 0.020323 0.400000 0.765050
v 0.020323 0.360000 0.765050
v 0.020323 0.400000 0.390253
v 0.020323 0.389061 0.379313
v 0.020323 0.200000 0.105138
v 1.479677 0.200000 0.479935
v 0.020323 0.200000 0.479935
v 1.479677 0.200000 0.105138
v 0.020323 0.189061 0.094199
v 1.479677 0.189061 0.094199
v 0.020323 0.142452 0.094199
v 1.479677 0.142452 0.094199
v 0.041377 0.120516 0.105983
v 1.458623 0.120516 0.105983
v 1.479677 0.742452 1.011772
v 0.020323 0.760000 1.011772
v 1.479677 0.760000 1.011772
v 0.020323 0.742452 1.011772
v 1.458623 0.720516 1.023556
v 0.041377 0.720516 1.023556
v 1.479677 0.542452 0.710135
v 0.020323 0.560000 0.710135
v 1.479677 0.560000 0.710135
v 0.020323 0.542452 0.710135
v 1.458623 0.520516 0.721919
v 0.041377 0.520516 0.721919
v 0.020323 0.360000 0.421313
v 0.020323 0.342452 0.379313
v 0.020323 0.389061 0.379313
v 0.020323 0.342452 0.421313
v 0.041377 0.320516 0.391097
v 0.041377 0.320516 0.433097
v 1.479677 0.342452 0.421313
v 0.020323 0.360000 0.421313
v 1.479677 0.360000 0.421313
v 0.020323 0.342452 0.421313
v 1.458623 0.320516 0.433097
v 0.041377 0.320516 0.433097
v 0.041377 0.720516 0.981556
v 0.020323 0.742452 1.011772
v 0.041377 0.720516 1.023556
v 0.020323 0.742452 0.969772
v 0.020323 0.760000 1.011772
v 0.020323 0.789061 0.969772
v 0.020323 0.800000 0.980711
v 0.020323 0.800000 1.355508
v 0.020323 0.760000 1.355508
v 1.479677 0.742452 0.969772
v 0.041377 0.720516 0.981556
v 1.458623 0.720516 0.981556
v 0.020323 0.742452 0.969772
v 1.479677 0.789061 0.969772
v 0.020323 0.789061 0.969772
v 1.479677 0.800000 0.980711
v 0.020323 0.800000 0.980711
v 0.020323 0.800000 1.355508
v 1.479677 0.800000 1.355508
v 1.479677 0.542452 0.668135
v 0.041377 0.520516 0.679919
v 1.458623 0.520516 0.679919
v 0.020323 0.542452 0.668135
v 1.479677 0.589061 0.668135
v 0.020323 0.589061 0.668135
v 0.020323 0.600000 0.679075
v 1.479677 0.600000 0.679075
v 1.479677 0.600000 1.053872
v 0.020323 0.600000 1.053872
v 0.041377 0.520516 0.679919
v 0.020323 0.542452 0.710135
v 0.041377 0.520516 0.721919
v 0.020323 0.542452 0.668135
v 0.020323 0.560000 0.710135
v 0.020323 0.589061 0.668135
v 0.020323 0.600000 0.679075
v 0.020323 0.600000 1.053872
v 0.020323 0.560000 1.053872
v 1.479677 0.542452 0.710135
v 1.458623 0.520516 0.679919
v 1.458623 0.520516 0.721919
v 1.479677 0.542452 0.668135
v 1.479677 0.560000 0.710135
v 1.479677 0.589061 0.668135
v 1.479677 0.600000 0.679075
v 1.479677 0.600000 1.053872
v 1.479677 0.560000 1.053872
v 0.041377 0.120516 0.105983
v 0.020323 0.142452 0.136199
v 0.041377 0.120516 0.147983
v 0.020323 0.142452 0.094199
v 0.020323 0.160000 0.136199
v 0.020323 0.189061 0.094199
v 0.020323 0.200000 0.105138
v 0.020323 0.200000 0.479935
v 0.020323 0.160000 0.479935
v 0.020323 0.160000 0.136199
v 1.479677 0.160000 0.136199
v 1.479677 0.142452 0.136199
v 0.020323 0.142452 0.136199
v 0.041377 0.120516 0.147983
v 1.458623 0.120516 0.147983
vt 0.016968 0.757812
vt 0.756836 0.936951
vt 0.016968 0.936951
vt 0.756836 0.757812
vt 0.844238 0.807739
vt 0.827148 0.962830
vt 0.826660 0.794312
vt 0.844727 0.962769
vt 0.869141 0.008301
vt 0.869141 0.748291
vt 0.849121 0.008301
vt 0.849121 0.748291
vt 1.756836 0.757812
vt 1.016602 0.936951
vt 1.016602 0.757812
vt 1.756836 0.936951
vt 0.786133 0.748291
vt 0.786133 0.008301
vt 0.806152 0.748291
vt 0.806152 0.008301
vt 1.756836 0.757812
vt 1.016602 0.936951
vt 1.016602 0.757812
vt 1.756836 0.936951
vt 0.789551 0.787598
vt 0.771973 0.951477
vt 0.771484 0.773560
vt 0.790039 0.951416
vt 0.775879 0.008301
vt 0.775879 0.748291
vt 0.755859 0.008301
vt 0.755859 0.748291
vt 1.016602 0.936951
vt 1.756836 0.757812
vt 1.756836 0.936951
vt 1.016602 0.757812
vt 0.798828 0.971100
vt 0.815918 0.816040
vt 0.816406 0.984436
vt 0.798828 0.816040
vt 0.839844 0.008301
vt 0.839844 0.748291
vt 0.819824 0.008301
vt 0.819824 0.748291
vt 0.971680 0.726074
vt 0.971680 0.007324
vt 0.992676 0.007324
vt 0.992676 0.726074
vt 0.941406 0.726562
vt 0.941406 0.007812
vt 0.962402 0.007812
vt 0.962402 0.726562
vt 0.910156 0.007324
vt 0.931152 0.726074
vt 0.910156 0.726074
vt 0.931152 0.007324
vt 0.878906 0.008301
vt 0.899902 0.727295
vt 0.878906 0.727295
vt 0.899902 0.008301
vt 0.826660 0.794312
vt 0.831543 0.789673
vt 0.844238 0.807739
vt 0.851562 0.789429
vt 0.851562 0.807617
vt 0.864746 0.794312
vt 0.864746 0.812500
vt 0.771484 0.773560
vt 0.776367 0.768555
vt 0.789551 0.787598
vt 0.797363 0.768311
vt 0.797852 0.787476
vt 0.811035 0.773438
vt 0.811523 0.792725
vt 0.816406 0.984436
vt 0.812012 0.989151
vt 0.798828 0.971100
vt 0.791992 0.989410
vt 0.791504 0.971222
vt 0.778809 0.984482
vt 0.778320 0.966309
vt 0.701660 0.010742
vt 0.507324 0.751099
vt 0.507324 0.010742
vt 0.701660 0.751099
vt 0.709473 0.010742
vt 0.709473 0.751099
vt 0.732422 0.010742
vt 0.732422 0.751099
vt 0.744629 0.021484
vt 0.744629 0.740723
vt 0.898926 0.963562
vt 0.881836 0.808472
vt 0.898926 0.808472
vt 0.881836 0.977005
vt 0.886230 0.981750
vt 1.450195 0.011230
vt 1.255859 0.751099
vt 1.255859 0.011230
vt 1.450195 0.751099
vt 1.458008 0.011230
vt 1.458008 0.751099
vt 1.481445 0.011230
vt 1.481445 0.751099
vt 1.493164 0.021484
vt 1.493164 0.740723
vt 0.748535 0.982239
vt 0.008789 0.973450
vt 0.748535 0.973450
vt 0.008789 0.982239
vt 0.738281 0.994678
vt 0.019318 0.994678
vt 1.748047 0.982239
vt 1.008789 0.973450
vt 1.748047 0.973450
vt 1.008789 0.982239
vt 1.738281 0.994678
vt 1.018555 0.994678
vt 0.898926 0.963562
vt 0.906738 0.981766
vt 0.886230 0.981750
vt 0.906738 0.963562
vt 0.919434 0.976669
vt 0.919434 0.958466
vt 0.009102 0.958496
vt 0.749023 0.967285
vt 0.009102 0.967285
vt 0.749023 0.958496
vt 0.019623 0.946045
vt 0.738770 0.946045
vt 0.943848 0.775146
vt 0.957031 0.788208
vt 0.943848 0.793335
vt 0.957031 0.770020
vt 0.964355 0.788330
vt 0.977051 0.770142
vt 0.981934 0.774780
vt 0.981934 0.943329
vt 0.964355 0.943329
vt 0.233276 0.751099
vt 0.245605 0.021484
vt 0.245605 0.740723
vt 0.233276 0.010742
vt 0.210205 0.751099
vt 0.210205 0.010742
vt 0.202637 0.751099
vt 0.202637 0.010742
vt 0.008179 0.010742
vt 0.008179 0.751099
vt 0.480957 0.751099
vt 0.493408 0.021484
vt 0.493408 0.740723
vt 0.480957 0.010742
vt 0.458008 0.751099
vt 0.458008 0.010742
vt 0.450439 0.010742
vt 0.450439 0.751099
vt 0.255859 0.751099
vt 0.255859 0.010742
vt 0.887207 0.779053
vt 0.900391 0.792114
vt 0.887207 0.797241
vt 0.900391 0.773926
vt 0.907715 0.792236
vt 0.920410 0.774048
vt 0.925293 0.778687
vt 0.925293 0.947235
vt 0.907715 0.947235
vt 0.844727 0.972855
vt 0.832031 0.986122
vt 0.831543 0.967926
vt 0.845215 0.991043
vt 0.852539 0.972733
vt 0.865234 0.990784
vt 0.869629 0.986076
vt 0.869141 0.817627
vt 0.852051 0.817627
vt 0.976074 0.975861
vt 0.963379 0.962616
vt 0.976562 0.957672
vt 0.962891 0.980789
vt 0.956055 0.962494
vt 0.942871 0.980530
vt 0.938477 0.975815
vt 0.938965 0.807373
vt 0.956055 0.807373
vt 1.749023 0.967285
vt 1.008789 0.967285
vt 1.008789 0.958496
vt 1.749023 0.958496
vt 1.738281 0.946045
vt 1.019531 0.946045
vt1 0.354004 0.889893
vt1 0.447510 0.492188
vt1 0.447510 0.889893
vt1 0.354004 0.492188
vt1 0.921875 0.503906
vt1 0.911133 0.597900
vt1 0.910645 0.495605
vt1 0.921875 0.597656
vt1 0.142944 0.040039
vt1 0.142944 0.437988
vt1 0.132080 0.040039
vt1 0.132080 0.437988
vt1 0.317871 0.889893
vt1 0.224121 0.492188
vt1 0.317871 0.492188
vt1 0.224121 0.889893
vt1 0.188965 0.492188
vt1 0.188965 0.889893
vt1 0.178101 0.492188
vt1 0.178101 0.889893
vt1 0.354004 0.040039
vt1 0.447510 0.437988
vt1 0.354004 0.437988
vt1 0.447510 0.040039
vt1 0.170410 0.957947
vt1 0.076660 0.947479
vt1 0.178711 0.946930
vt1 0.076721 0.958374
vt1 0.096924 0.492188
vt1 0.096924 0.889893
vt1 0.085999 0.492188
vt1 0.085999 0.889893
vt1 0.224121 0.040039
vt1 0.317871 0.437988
vt1 0.224121 0.437988
vt1 0.317871 0.040039
vt1 0.493164 0.948456
vt1 0.399170 0.937927
vt1 0.501465 0.937439
vt1 0.399414 0.948853
vt1 0.132080 0.889893
vt1 0.132080 0.492188
vt1 0.142944 0.889893
vt1 0.142944 0.492188
vt1 0.902344 0.426270
vt1 0.902344 0.040039
vt1 0.913574 0.040039
vt1 0.913574 0.426270
vt1 0.821777 0.040039
vt1 0.821777 0.426270
vt1 0.810059 0.426270
vt1 0.810059 0.040039
vt1 0.948242 0.040039
vt1 0.959961 0.426270
vt1 0.948242 0.426270
vt1 0.959961 0.040039
vt1 0.855957 0.040039
vt1 0.867676 0.426270
vt1 0.855957 0.426270
vt1 0.867676 0.040039
vt1 0.910645 0.495605
vt1 0.913574 0.492676
vt1 0.921875 0.503906
vt1 0.926270 0.492188
vt1 0.926270 0.503662
vt1 0.934570 0.495117
vt1 0.935059 0.506592
vt1 0.178711 0.946930
vt1 0.181641 0.949799
vt1 0.170410 0.957947
vt1 0.182129 0.962433
vt1 0.170654 0.962769
vt1 0.179199 0.970795
vt1 0.167725 0.971146
vt1 0.501465 0.937439
vt1 0.504395 0.940277
vt1 0.493164 0.948456
vt1 0.504883 0.952911
vt1 0.493408 0.953278
vt1 0.501953 0.961273
vt1 0.490479 0.961639
vt1 0.507324 0.889893
vt1 0.609375 0.492188
vt1 0.609375 0.889893
vt1 0.507324 0.492188
vt1 0.502930 0.889893
vt1 0.502930 0.492188
vt1 0.490479 0.889893
vt1 0.490479 0.492188
vt1 0.483643 0.884155
vt1 0.483643 0.498047
vt1 0.919434 0.780151
vt1 0.930176 0.874023
vt1 0.919434 0.873901
vt1 0.930664 0.771851
vt1 0.927734 0.768799
vt1 0.670898 0.889893
vt1 0.772949 0.492188
vt1 0.772949 0.889893
vt1 0.670898 0.492188
vt1 0.666504 0.889893
vt1 0.666504 0.492188
vt1 0.653809 0.889893
vt1 0.653809 0.492188
vt1 0.646973 0.884155
vt1 0.646973 0.498047
vt1 0.092834 0.437988
vt1 0.097595 0.040039
vt1 0.097595 0.437988
vt1 0.092834 0.040039
vt1 0.085999 0.432129
vt1 0.085999 0.045898
vt1 0.184937 0.437988
vt1 0.189697 0.040039
vt1 0.189697 0.437988
vt1 0.184937 0.040039
vt1 0.178101 0.432129
vt1 0.178101 0.045898
vt1 0.919434 0.780151
vt1 0.915039 0.768555
vt1 0.927734 0.768799
vt1 0.914551 0.780029
vt1 0.906738 0.771606
vt1 0.906250 0.783081
vt1 0.046783 0.889893
vt1 0.051544 0.492188
vt1 0.051544 0.889893
vt1 0.046783 0.492188
vt1 0.039978 0.884155
vt1 0.039978 0.498047
vt1 0.882812 0.728760
vt1 0.875000 0.720215
vt1 0.883301 0.717285
vt1 0.874512 0.731689
vt1 0.870117 0.719971
vt1 0.861816 0.731445
vt1 0.858887 0.728516
vt1 0.859375 0.626221
vt1 0.870117 0.626221
vt1 0.653809 0.040039
vt1 0.646973 0.432129
vt1 0.646973 0.045898
vt1 0.653809 0.437988
vt1 0.666504 0.040039
vt1 0.666504 0.437988
vt1 0.670410 0.040039
vt1 0.670410 0.437988
vt1 0.772949 0.437988
vt1 0.772949 0.040039
vt1 0.490479 0.040039
vt1 0.483643 0.432129
vt1 0.483643 0.045898
vt1 0.490479 0.437988
vt1 0.502930 0.040039
vt1 0.502930 0.437988
vt1 0.507324 0.437988
vt1 0.507324 0.040039
vt1 0.609375 0.040039
vt1 0.609375 0.437988
vt1 0.846680 0.870972
vt1 0.838379 0.862549
vt1 0.846680 0.859497
vt1 0.838379 0.874023
vt1 0.833496 0.862305
vt1 0.825684 0.873657
vt1 0.822754 0.870728
vt1 0.822754 0.768555
vt1 0.833984 0.768555
vt1 0.842773 0.503662
vt1 0.850586 0.495117
vt1 0.851074 0.506592
vt1 0.842285 0.492188
vt1 0.837891 0.503906
vt1 0.829590 0.492676
vt1 0.826660 0.495605
vt1 0.827148 0.597900
vt1 0.838379 0.597656
vt1 0.221802 0.974976
vt1 0.230347 0.966949
vt1 0.233276 0.975342
vt1 0.218872 0.966614
vt1 0.230591 0.962158
vt1 0.219360 0.953979
vt1 0.222290 0.951141
vt1 0.324463 0.951630
vt1 0.324219 0.962555
vt1 0.051544 0.040039
vt1 0.051544 0.437988
vt1 0.046783 0.437988
vt1 0.046783 0.040039
vt1 0.039978 0.045898
vt1 0.039978 0.432129
vn 0.000000 -1.000000 0.000000
vn 0.000000 -1.000000 0.000000
vn 0.000000 -1.000000 0.000000
vn 0.000000 -1.000000 0.000000
vn 1.000000 0.000000 0.000000
vn 1.000000 0.000000 0.000000
vn 1.000000 0.000000 0.000000
vn 1.000000 0.000000 0.000000
vn 0.000000 0.000000 1.000000
vn 0.000000 0.000000 1.000000
vn 0.000000 0.000000 1.000000
vn 0.000000 0.000000 1.000000
vn 0.000000 -1.000000 0.000000
vn 0.000000 -1.000000 0.000000
vn 0.000000 -1.000000 0.000000
vn 0.000000 -1.000000 0.000000
vn 0.000000 0.000000 1.000000
vn 0.000000 0.000000 1.000000
vn 0.000000 0.000000 1.000000
vn 0.000000 0.000000 1.000000
vn 0.000000 -1.000000 0.000000
vn 0.000000 -1.000000 0.000000
vn 0.000000 -1.000000 0.000000
vn 0.000000 -1.000000 0.000000
vn 1.000000 0.000000 0.000000
vn 1.000000 0.000000 0.000000
vn 1.000000 0.000000 0.000000
vn 1.000000 0.000000 0.000000
vn 0.000000 0.000000 1.000000
vn 0.000000 0.000000 1.000000
vn 0.000000 0.000000 1.000000
vn 0.000000 0.000000 1.000000
vn 0.000000 -1.000000 0.000000
vn 0.000000 -1.000000 0.000000
vn 0.000000 -1.000000 0.000000
vn 0.000000 -1.000000 0.000000
vn 1.000000 0.000000 0.000000
vn 1.000000 0.000000 0.000000
vn 1.000000 0.000000 0.000000
vn 1.000000 0.000000 0.000000
vn 0.000000 0.000000 1.000000
vn 0.000000 0.000000 1.000000
vn 0.000000 0.000000 1.000000
vn 0.000000 0.000000 1.000000
vn 0.000000 -1.000000 0.000000
vn 0.000000 -1.000000 0.000000
vn 0.000000 -1.000000 0.000000
vn 0.000000 -1.000000 0.000000
vn 0.000000 -1.000000 0.000000
vn 0.000000 -1.000000 0.000000
vn 0.000000 -1.000000 0.000000
vn 0.000000 -1.000000 0.000000
vn 0.000000 -1.000000 0.000000
vn 0.000000 -1.000000 0.000000
vn 0.000000 -1.000000 0.000000
vn 0.000000 -1.000000 0.000000
vn 0.000000 -1.000000 0.000000
vn 0.000000 -1.000000 0.000000
vn 0.000000 -1.000000 0.000000
vn 0.000000 -1.000000 0.000000
vn 1.000000 0.000000 0.000000
vn 1.000000 0.000000 0.000000
vn 1.000000 0.000000 0.000000
vn 0.944882 -0.322835 0.000000
vn 0.913386 -0.409449 0.000000
vn 0.724409 -0.692913 0.000000
vn 0.724409 -0.692913 0.000000
vn 1.000000 0.000000 0.000000
vn 1.000000 0.000000 0.000000
vn 1.000000 0.000000 0.000000
vn 0.944882 -0.322835 0.000000
vn 0.913386 -0.409449 0.000000
vn 0.724409 -0.692913 0.000000
vn 0.724409 -0.692913 0.000000
vn 1.000000 0.000000 0.000000
vn 1.000000 0.000000 0.000000
vn 1.000000 0.000000 0.000000
vn 0.944882 -0.322835 0.000000
vn 0.913386 -0.409449 0.000000
vn 0.724409 -0.692913 0.000000
vn 0.724409 -0.692913 0.000000
vn 0.000000 0.921260 -0.385827
vn 0.000000 1.000000 -0.000000
vn 0.000000 1.000000 -0.000000
vn 0.000000 0.921260 -0.385827
vn 0.000000 0.385827 -0.921260
vn 0.000000 0.385827 -0.921260
vn 0.000000 -0.173228 -0.984252
vn 0.000000 -0.173228 -0.984252
vn 0.000000 -0.472441 -0.881890
vn 0.000000 -0.472441 -0.881890
vn -1.000000 0.000000 0.000000
vn -1.000000 0.000000 0.000000
vn -1.000000 0.000000 0.000000
vn -1.000000 0.000000 0.000000
vn -1.000000 0.000000 0.000000
vn 0.000000 0.921260 -0.385827
vn 0.000000 1.000000 -0.000000
vn 0.000000 1.000000 -0.000000
vn 0.000000 0.921260 -0.385827
vn 0.000000 0.385827 -0.921260
vn 0.000000 0.385827 -0.921260
vn 0.000000 -0.173228 -0.984252
vn 0.000000 -0.173228 -0.984252
vn 0.000000 -0.472441 -0.881890
vn 0.000000 -0.472441 -0.881890
vn 0.000000 0.173228 0.984252
vn 0.000000 0.000000 1.000000
vn 0.000000 0.000000 1.000000
vn 0.000000 0.173228 0.984252
vn 0.000000 0.472441 0.881890
vn 0.000000 0.472441 0.881890
vn 0.000000 0.173228 0.984252
vn 0.000000 0.000000 1.000000
vn 0.000000 0.000000 1.000000
vn 0.000000 0.173228 0.984252
vn 0.000000 0.472441 0.881890
vn 0.000000 0.472441 0.881890
vn -1.000000 0.000000 0.000000
vn -0.944882 -0.322835 0.000000
vn -1.000000 0.000000 0.000000
vn -0.913386 -0.409449 0.000000
vn -0.724409 -0.692913 0.000000
vn -0.724409 -0.692913 0.000000
vn 0.000000 0.173228 0.984252
vn 0.000000 0.000000 1.000000
vn 0.000000 0.000000 1.000000
vn 0.000000 0.173228 0.984252
vn 0.000000 0.472441 0.881890
vn 0.000000 0.472441 0.881890
vn -0.724409 -0.692913 0.000000
vn -0.913386 -0.409449 0.000000
vn -0.724409 -0.692913 0.000000
vn -0.944882 -0.322835 0.000000
vn -1.000000 0.000000 0.000000
vn -1.000000 0.000000 0.000000
vn -1.000000 0.000000 0.000000
vn -1.000000 0.000000 0.000000
vn -1.000000 0.000000 0.000000
vn 0.000000 -0.173228 -0.984252
vn 0.000000 -0.472441 -0.881890
vn 0.000000 -0.472441 -0.881890
vn 0.000000 -0.173228 -0.984252
vn 0.000000 0.385827 -0.921260
vn 0.000000 0.385827 -0.921260
vn 0.000000 0.921260 -0.385827
vn 0.000000 0.921260 -0.385827
vn 0.000000 1.000000 -0.000000
vn 0.000000 1.000000 -0.000000
vn 0.000000 -0.173228 -0.984252
vn 0.000000 -0.472441 -0.881890
vn 0.000000 -0.472441 -0.881890
vn 0.000000 -0.173228 -0.984252
vn 0.000000 0.385827 -0.921260
vn 0.000000 0.385827 -0.921260
vn 0.000000 0.921260 -0.385827
vn 0.000000 0.921260 -0.385827
vn 0.000000 1.000000 -0.000000
vn 0.000000 1.000000 -0.000000
vn -0.724409 -0.692913 0.000000
vn -0.913386 -0.409449 0.000000
vn -0.724409 -0.692913 0.000000
vn -0.944882 -0.322835 0.000000
vn -1.000000 0.000000 0.000000
vn -1.000000 0.000000 0.000000
vn -1.000000 0.000000 0.000000
vn -1.000000 0.000000 0.000000
vn -1.000000 0.000000 0.000000
vn 0.913386 -0.409449 0.000000
vn 0.724409 -0.692913 0.000000
vn 0.724409 -0.692913 0.000000
vn 0.944882 -0.322835 0.000000
vn 1.000000 0.000000 0.000000
vn 1.000000 0.000000 0.000000
vn 1.000000 0.000000 0.000000
vn 1.000000 0.000000 0.000000
vn 1.000000 0.000000 0.000000
vn -0.724409 -0.692913 0.000000
vn -0.913386 -0.409449 0.000000
vn -0.724409 -0.692913 0.000000
vn -0.944882 -0.322835 0.000000
vn -1.000000 0.000000 0.000000
vn -1.000000 0.000000 0.000000
vn -1.000000 0.000000 0.000000
vn -1.000000 0.000000 0.000000
vn -1.000000 0.000000 0.000000
vn 0.000000 0.000000 1.000000
vn 0.000000 0.000000 1.000000
vn 0.000000 0.173228 0.984252
vn 0.000000 0.173228 0.984252
vn 0.000000 0.472441 0.881890
vn 0.000000 0.472441 0.881890
tan 0.000000 -0.000000 -1.000000 1.000000
tan 0.000000 -0.000000 -1.000000 1.000000
tan 0.000000 -0.000000 -1.000000 1.000000
tan 0.000000 -0.000000 -1.000000 1.000000
tan 0.000000 -0.031496 -1.000000 1.000000
tan 0.000000 -0.007874 -1.000000 1.000000
tan 0.000000 -0.031496 -1.000000 1.000000
tan 0.000000 -0.000000 -1.000000 1.000000
tan 1.000000 0.000000 0.000000 1.000000
tan 1.000000 0.000000 0.000000 1.000000
tan 1.000000 0.000000 0.000000 1.000000
tan 1.000000 0.000000 0.000000 1.000000
tan 0.000000 -0.000000 -1.000000 1.000000
tan 0.000000 -0.000000 -1.000000 1.000000
tan 0.000000 -0.000000 -1.000000 1.000000
tan 0.000000 -0.000000 -1.000000 1.000000
tan -1.000000 0.000000 0.000000 1.000000
tan -1.000000 0.000000 0.000000 1.000000
tan -1.000000 0.000000 0.000000 1.000000
tan -1.000000 0.000000 0.000000 1.000000
tan 0.000000 -0.000000 -1.000000 1.000000
tan 0.000000 -0.000000 -1.000000 1.000000
tan 0.000000 -0.000000 -1.000000 1.000000
tan 0.000000 -0.000000 -1.000000 1.000000
tan 0.000000 -0.031496 -1.000000 1.000000
tan 0.000000 -0.007874 -1.000000 1.000000
tan 0.000000 -0.031496 -1.000000 1.000000
tan 0.000000 -0.000000 -1.000000 1.000000
tan 1.000000 0.000000 0.000000 1.000000
tan 1.000000 0.000000 0.000000 1.000000
tan 1.000000 0.000000 0.000000 1.000000
tan 1.000000 0.000000 0.000000 1.000000
tan 0.000000 0.000000 1.000000 1.000000
tan 0.000000 0.000000 1.000000 1.000000
tan 0.000000 0.000000 1.000000 1.000000
tan 0.000000 0.000000 1.000000 1.000000
tan 0.000000 0.031496 1.000000 1.000000
tan 0.000000 0.007874 1.000000 1.000000
tan 0.000000 0.031496 1.000000 1.000000
tan 0.000000 0.000000 1.000000 1.000000
tan 1.000000 0.000000 0.000000 1.000000
tan 1.000000 0.000000 0.000000 1.000000
tan 1.000000 0.000000 0.000000 1.000000
tan 1.000000 0.000000 0.000000 1.000000
tan -1.000000 0.000000 0.000000 1.000000
tan -1.000000 0.000000 0.000000 1.000000
tan -1.000000 0.000000 0.000000 1.000000
tan -1.000000 0.000000 0.000000 1.000000
tan -1.000000 0.000000 0.000000 1.000000
tan -1.000000 0.000000 0.000000 1.000000
tan -1.000000 0.000000 0.000000 1.000000
tan -1.000000 0.000000 0.000000 1.000000
tan -1.000000 0.000000 0.000000 1.000000
tan -1.000000 0.000000 0.000000 1.000000
tan -1.000000 0.000000 0.000000 1.000000
tan -1.000000 0.000000 0.000000 1.000000
tan -1.000000 0.000000 0.000000 1.000000
tan -1.000000 0.000000 0.000000 1.000000
tan -1.000000 0.000000 0.000000 1.000000
tan -1.000000 0.000000 0.000000 1.000000
tan 0.000000 -0.000000 -1.000000 1.000000
tan 0.000000 -0.007874 -1.000000 1.000000
tan 0.000000 -0.015748 -1.000000 1.000000
tan -0.005084 -0.014880 -0.997024 1.000000
tan -0.006448 -0.014384 -1.001922 1.000000
tan -0.010912 -0.011408 -1.004898 1.000000
tan -0.010912 -0.011408 -1.004898 1.000000
tan 0.000000 -0.000000 -1.000000 1.000000
tan 0.000000 -0.007874 -1.000000 1.000000
tan 0.000000 -0.015748 -1.000000 1.000000
tan -0.005084 -0.014880 -0.997024 1.000000
tan -0.006448 -0.014384 -1.001922 1.000000
tan -0.010912 -0.011408 -1.004898 1.000000
tan -0.010912 -0.011408 -1.004898 1.000000
tan 0.000000 0.000000 1.000000 1.000000
tan 0.000000 0.007874 1.000000 1.000000
tan 0.000000 0.015748 1.000000 1.000000
tan 0.005084 0.014880 0.997024 1.000000
tan 0.006448 0.014384 1.001922 1.000000
tan 0.010912 0.011408 1.004898 1.000000
tan 0.010912 0.011408 1.004898 1.000000
tan -0.997582 0.000000 0.000000 1.000000
tan -1.000000 0.000000 0.000000 1.000000
tan -1.000000 0.000000 0.000000 1.000000
tan -0.997582 0.000000 0.000000 1.000000
tan -0.997582 0.000000 0.000000 1.000000
tan -0.997582 0.000000 0.000000 1.000000
tan -0.998760 -0.007750 0.001364 1.000000
tan -0.998760 0.007750 -0.001364 1.000000
tan -1.000930 -0.006944 0.003720 1.000000
tan -1.000930 0.013888 -0.007440 1.000000
tan 0.000000 0.023622 1.000000 1.000000
tan 0.000000 0.000000 1.000000 1.000000
tan 0.000000 0.000000 1.000000 1.000000
tan 0.000000 0.007874 1.000000 1.000000
tan 0.000000 0.000000 1.000000 1.000000
tan -0.997582 0.000000 0.000000 1.000000
tan -1.000000 0.000000 0.000000 1.000000
tan -1.000000 0.000000 0.000000 1.000000
tan -0.997582 0.000000 0.000000 1.000000
tan -0.997582 0.000000 0.000000 1.000000
tan -0.997582 0.000000 0.000000 1.000000
tan -0.998760 -0.007750 0.001364 1.000000
tan -0.998760 0.007750 -0.001364 1.000000
tan -1.000930 -0.006944 0.003720 1.000000
tan -1.000930 0.013888 -0.007440 1.000000
tan 0.000000 0.984252 -0.173228 1.000000
tan 0.000000 1.000000 -0.000000 1.000000
tan 0.000000 1.000000 -0.000000 1.000000
tan 0.000000 0.984252 -0.173228 1.000000
tan 0.000000 0.881890 -0.472441 1.000000
tan 0.000000 0.881890 -0.472441 1.000000
tan 0.000000 0.984252 -0.173228 1.000000
tan 0.000000 1.000000 -0.000000 1.000000
tan 0.000000 1.000000 -0.000000 1.000000
tan 0.000000 0.984252 -0.173228 1.000000
tan 0.000000 0.881890 -0.472441 1.000000
tan 0.000000 0.881890 -0.472441 1.000000
tan 0.000000 0.000000 1.000000 1.000000
tan 0.000000 0.000000 0.997024 1.000000
tan 0.000000 0.000000 1.000000 1.000000
tan 0.000000 0.000000 1.001922 1.000000
tan 0.000000 0.000000 1.004898 1.000000
tan 0.000000 0.000000 1.004898 1.000000
tan 0.000000 -0.984252 0.173228 1.000000
tan 0.000000 -1.000000 0.000000 1.000000
tan 0.000000 -1.000000 0.000000 1.000000
tan 0.000000 -0.984252 0.173228 1.000000
tan 0.000000 -0.881890 0.472441 1.000000
tan 0.000000 -0.881890 0.472441 1.000000
tan 0.000000 -0.000000 -1.004898 1.000000
tan 0.000000 -0.000000 -1.001922 1.000000
tan 0.000000 -0.000000 -1.004898 1.000000
tan 0.000000 -0.000000 -0.997024 1.000000
tan 0.000000 -0.015748 -1.000000 1.000000
tan 0.000000 -0.000000 -1.000000 1.000000
tan 0.000000 -0.007874 -1.000000 1.000000
tan 0.000000 -0.000000 -1.000000 1.000000
tan 0.000000 -0.000000 -1.000000 1.000000
tan -0.998760 0.007750 -0.001364 1.000000
tan -1.000930 -0.006944 0.003720 1.000000
tan -1.000930 0.013888 -0.007440 1.000000
tan -0.998760 -0.007750 0.001364 1.000000
tan -0.997582 0.000000 0.000000 1.000000
tan -0.997582 0.000000 0.000000 1.000000
tan -0.997582 0.000000 0.000000 1.000000
tan -0.997582 0.000000 0.000000 1.000000
tan -1.000000 0.000000 0.000000 1.000000
tan -1.000000 0.000000 0.000000 1.000000
tan -0.998760 0.007750 -0.001364 1.000000
tan -1.000930 -0.006944 0.003720 1.000000
tan -1.000930 0.013888 -0.007440 1.000000
tan -0.998760 -0.007750 0.001364 1.000000
tan -0.997582 0.000000 0.000000 1.000000
tan -0.997582 0.000000 0.000000 1.000000
tan -0.997582 0.000000 0.000000 1.000000
tan -0.997582 0.000000 0.000000 1.000000
tan -1.000000 0.000000 0.000000 1.000000
tan -1.000000 0.000000 0.000000 1.000000
tan 0.000000 -0.000000 -1.004898 1.000000
tan 0.000000 -0.000000 -1.001922 1.000000
tan 0.000000 -0.000000 -1.004898 1.000000
tan 0.000000 -0.000000 -0.997024 1.000000
tan 0.000000 -0.015748 -1.000000 1.000000
tan 0.000000 -0.000000 -1.000000 1.000000
tan 0.000000 -0.007874 -1.000000 1.000000
tan 0.000000 -0.000000 -1.000000 1.000000
tan 0.000000 -0.000000 -1.000000 1.000000
tan 0.006448 0.014384 1.001922 1.000000
tan 0.010912 0.011408 1.004898 1.000000
tan 0.010912 0.011408 1.004898 1.000000
tan 0.005084 0.014880 0.997024 1.000000
tan 0.000000 0.023622 1.000000 1.000000
tan 0.000000 0.007874 1.000000 1.000000
tan 0.000000 0.015748 1.000000 1.000000
tan 0.000000 0.007874 1.000000 1.000000
tan 0.000000 0.000000 1.000000 1.000000
tan -0.010912 0.011408 1.004898 1.000000
tan -0.006448 0.014384 1.001922 1.000000
tan -0.010912 0.011408 1.004898 1.000000
tan -0.005084 0.014880 0.997024 1.000000
tan 0.000000 0.023622 1.000000 1.000000
tan 0.000000 0.007874 1.000000 1.000000
tan 0.000000 0.015748 1.000000 1.000000
tan 0.000000 0.007874 1.000000 1.000000
tan 0.000000 0.000000 1.000000 1.000000
tan 0.000000 -1.000000 0.000000 1.000000
tan 0.000000 -1.000000 0.000000 1.000000
tan 0.000000 -0.984252 0.173228 1.000000
tan 0.000000 -0.984252 0.173228 1.000000
tan 0.000000 -0.881890 0.472441 1.000000
tan 0.000000 -0.881890 0.472441 1.000000
f 3/3/3 2/2/2 1/1/1
f 4/4/4 1/1/1 2/2/2
f 7/7/7 6/6/6 5/5/5
f 8/8/8 5/5/5 6/6/6
f 11/11/11 10/10/10 9/9/9
f 10/10/10 11/11/11 12/12/12
f 15/15/15 14/14/14 13/13/13
f 16/16/16 13/13/13 14/14/14
f 19/19/19 18/18/18 17/17/17
f 18/18/18 19/19/19 20/20/20
f 23/23/23 22/22/22 21/21/21
f 24/24/24 21/21/21 22/22/22
f 27/27/27 26/26/26 25/25/25
f 28/28/28 25/25/25 26/26/26
f 31/31/31 30/30/30 29/29/29
f 30/30/30 31/31/31 32/32/32
f 35/35/35 34/34/34 33/33/33
f 36/36/36 33/33/33 34/34/34
f 39/39/39 38/38/38 37/37/37
f 40/40/40 37/37/37 38/38/38
f 43/43/43 42/42/42 41/41/41
f 42/42/42 43/43/43 44/44/44
f 47/47/47 46/46/46 45/45/45
f 48/48/48 47/47/47 45/45/45
f 51/51/51 50/50/50 49/49/49
f 52/52/52 51/51/51 49/49/49
f 55/55/55 54/54/54 53/53/53
f 56/56/56 53/53/53 54/54/54
f 59/59/59 58/58/58 57/57/57
f 60/60/60 57/57/57 58/58/58
f 63/63/63 62/62/62 61/61/61
f 64/64/64 62/62/62 63/63/63
f 65/65/65 64/64/64 63/63/63
f 65/65/65 66/66/66 64/64/64
f 67/67/67 66/66/66 65/65/65
f 70/70/70 69/69/69 68/68/68
f 71/71/71 69/69/69 70/70/70
f 72/72/72 71/71/71 70/70/70
f 72/72/72 73/73/73 71/71/71
f 74/74/74 73/73/73 72/72/72
f 77/77/77 76/76/76 75/75/75
f 78/78/78 76/76/76 77/77/77
f 79/79/79 78/78/78 77/77/77
f 79/79/79 80/80/80 78/78/78
f 81/81/81 80/80/80 79/79/79
f 84/84/84 83/83/83 82/82/82
f 85/85/85 82/82/82 83/83/83
f 82/82/82 85/85/85 86/86/86
f 87/87/87 86/86/86 85/85/85
f 88/88/88 86/86/86 87/87/87
f 89/89/89 88/88/88 87/87/87
f 90/90/90 88/88/88 89/89/89
f 91/91/91 90/90/90 89/89/89
f 94/94/94 93/93/93 92/92/92
f 95/95/95 92/92/92 93/93/93
f 95/95/95 96/96/96 92/92/92
f 99/99/99 98/98/98 97/97/97
f 100/100/100 97/97/97 98/98/98
f 101/101/101 97/97/97 100/100/100
f 102/102/102 101/101/101 100/100/100
f 103/103/103 101/101/101 102/102/102
f 104/104/104 103/103/103 102/102/102
f 105/105/105 103/103/103 104/104/104
f 106/106/106 105/105/105 104/104/104
f 109/109/109 108/108/108 107/107/107
f 110/110/110 107/107/107 108/108/108
f 111/111/111 107/107/107 110/110/110
f 112/112/112 111/111/111 110/110/110
f 115/115/115 114/114/114 113/113/113
f 116/116/116 113/113/113 114/114/114
f 113/113/113 116/116/116 117/117/117
f 118/118/118 117/117/117 116/116/116
f 121/121/121 120/120/120 119/119/119
f 122/122/122 119/119/119 120/120/120
f 120/120/120 123/123/123 122/122/122
f 124/124/124 122/122/122 123/123/123
f 127/127/127 126/126/126 125/125/125
f 128/128/128 125/125/125 126/126/126
f 129/129/129 125/125/125 128/128/128
f 130/130/130 129/129/129 128/128/128
f 133/133/133 132/132/132 131/131/131
f 134/134/134 131/131/131 132/132/132
f 132/132/132 135/135/135 134/134/134
f 136/136/136 134/134/134 135/135/135
f 136/136/136 135/135/135 137/137/137
f 135/135/135 138/138/138 137/137/137
f 138/138/138 135/135/135 139/139/139
f 142/142/142 141/141/141 140/140/140
f 143/143/143 140/140/140 141/141/141
f 140/140/140 143/143/143 144/144/144
f 143/143/143 145/145/145 144/144/144
f 144/144/144 145/145/145 146/146/146
f 145/145/145 147/147/147 146/146/146
f 148/148/148 146/146/146 147/147/147
f 146/146/146 148/148/148 149/149/149
f 152/152/152 151/151/151 150/150/150
f 153/153/153 150/150/150 151/151/151
f 150/150/150 153/153/153 154/154/154
f 153/153/153 155/155/155 154/154/154
f 155/155/155 156/156/156 154/154/154
f 157/157/157 154/154/154 156/156/156
f 157/157/157 156/156/156 158/158/158
f 159/159/159 158/158/158 156/156/156
f 162/162/162 161/161/161 160/160/160
f 163/163/163 160/160/160 161/161/161
f 161/161/161 164/164/164 163/163/163
f 165/165/165 163/163/163 164/164/164
f 165/165/165 164/164/164 166/166/166
f 164/164/164 167/167/167 166/166/166
f 167/167/167 164/164/164 168/168/168
f 171/171/171 170/170/170 169/169/169
f 169/169/169 170/170/170 172/172/172
f 169/169/169 172/172/172 173/173/173
f 172/172/172 174/174/174 173/173/173
f 175/175/175 173/173/173 174/174/174
f 175/175/175 176/176/176 173/173/173
f 177/177/177 173/173/173 176/176/176
f 180/180/180 179/179/179 178/178/178
f 181/181/181 178/178/178 179/179/179
f 179/179/179 182/182/182 181/181/181
f 183/183/183 181/181/181 182/182/182
f 183/183/183 182/182/182 184/184/184
f 182/182/182 185/185/185 184/184/184
f 185/185/185 182/182/182 186/186/186
f 189/189/189 188/188/188 187/187/187
f 190/190/190 189/189/189 187/187/187
f 190/190/190 191/191/191 189/189/189
f 192/192/192 189/189/189 191/191/191
