mtllib SM_Steel_Lattice_02.mtl
g SM_Steel_Lattice_02
#Vertices 504
#Indices 1584
#Section 0 Offset 0 NumIndices 1584 MaterialIndex 0 MI_Metal_Rusty_01
v -0.203680 0.440263 0.051276
v -0.203680 0.063108 0.051276
v -0.208415 0.063108 0.056012
v -0.208415 0.440263 0.056012
v -0.244522 0.063108 0.056012
v -0.244522 0.440263 0.056012
v -0.249257 0.063108 0.051276
v -0.249258 0.440263 0.051276
v -0.249258 0.440263 0.000684
v -0.249257 0.063108 0.000685
v -0.244522 0.440263 -0.004051
v -0.244522 0.063108 -0.004051
v -0.208415 0.440263 -0.004051
v -0.208415 0.063108 -0.004051
v -0.203680 0.440263 0.000685
v -0.203679 0.063108 0.000685
v -0.203680 0.440263 0.051276
v -0.203680 0.063108 0.051276
v -0.544506 0.449218 3.822203
v -0.544506 0.449565 0.067410
v -0.549242 0.444807 0.067410
v -0.549241 0.444504 3.831666
v -0.595415 0.444645 0.067410
v -0.595415 0.444646 3.891124
v -0.600151 0.449379 0.067410
v -0.600150 0.449381 3.891132
v -0.600151 0.495263 0.067410
v -0.600150 0.495265 3.891212
v -0.595415 0.500000 0.067410
v -0.595415 0.500000 3.891220
v -0.549241 0.499858 3.831762
v -0.549242 0.500162 0.067410
v -0.544506 0.495102 3.822283
v -0.544506 0.495448 0.067410
v -0.544506 0.449218 3.822203
v -0.544506 0.449565 0.067410
v -0.608002 0.060649 0.068247
v -0.012557 0.060649 0.068247
v -0.012557 0.000000 0.068247
v -0.608002 -0.000000 0.068247
v -0.012557 -0.005000 0.063247
v -0.608002 -0.005000 0.063247
v -0.012557 -0.005000 -0.005827
v -0.608002 -0.005000 -0.005827
v -0.012557 0.000000 -0.010827
v -0.608002 -0.000000 -0.010827
v -0.608002 0.060649 -0.010827
v -0.012557 0.060649 -0.010827
v -0.608002 0.065649 -0.005827
v -0.012557 0.065649 -0.005827
v -0.608002 0.065649 0.063247
v -0.012557 0.065649 0.063247
v -0.608002 0.060649 0.068247
v -0.012557 0.060649 0.068247
v -0.203680 0.446346 0.524354
v -0.203679 0.049888 0.524354
v -0.203680 0.446346 0.574946
v -0.203679 0.049888 0.574946
v -0.208415 0.446346 0.579681
v -0.208415 0.049888 0.579681
v -0.244522 0.049888 0.579681
v -0.244522 0.446346 0.579681
v -0.249257 0.049888 0.574946
v -0.249257 0.446346 0.574946
v -0.249258 0.446346 0.524354
v -0.249257 0.049888 0.524354
v -0.244522 0.049888 0.519618
v -0.244522 0.446346 0.519618
v -0.208415 0.446346 0.519618
v -0.208415 0.049888 0.519618
v -0.203680 0.446346 0.524354
v -0.203679 0.049888 0.524354
v -0.244666 0.495890 0.524354
v -0.554587 0.495890 0.524354
v -0.244666 0.491155 0.519618
v -0.554587 0.491155 0.519618
v -0.244666 0.455048 0.519618
v -0.554587 0.455048 0.519618
v -0.554587 0.450312 0.524354
v -0.244666 0.450313 0.524354
v -0.244666 0.450313 0.574945
v -0.554587 0.450312 0.574946
v -0.554587 0.455048 0.579681
v -0.244666 0.455048 0.579681
v -0.554587 0.491155 0.579681
v -0.244666 0.491155 0.579681
v -0.244666 0.495890 0.574946
v -0.554587 0.495890 0.574946
v -0.244666 0.495890 0.524354
v -0.554587 0.495890 0.524354
v -0.549742 0.445043 0.001944
v -0.549742 0.063615 0.052536
v -0.549742 0.445043 0.052536
v -0.549742 0.063615 0.001944
v -0.554478 0.445043 -0.002792
v -0.554477 0.063615 -0.002792
v -0.590584 0.445043 -0.002792
v -0.590584 0.063615 -0.002792
v -0.595320 0.445043 0.001944
v -0.595320 0.063615 0.001944
v -0.595320 0.445043 0.052536
v -0.595320 0.063615 0.052536
v -0.590584 0.063615 0.057271
v -0.590584 0.445043 0.057271
v -0.554477 0.063615 0.057271
v -0.554478 0.445043 0.057271
v -0.549742 0.063615 0.052536
v -0.549742 0.445043 0.052536
v -0.199821 0.004734 0.064573
v -0.204556 0.000001 3.891124
v -0.199820 0.004736 3.891132
v -0.204556 0.000000 0.064573
v -0.250729 -0.000142 3.831666
v -0.250730 0.000165 0.064573
v -0.255465 0.004573 3.822203
v -0.255465 0.004923 0.064573
v -0.255465 0.050806 0.064573
v -0.255465 0.050456 3.822283
v -0.250730 0.055519 0.064573
v -0.250729 0.055213 3.831762
v -0.204556 0.055355 0.064573
v -0.204556 0.055355 3.891220
v -0.199820 0.050619 3.891212
v -0.199821 0.050617 0.064573
v -0.199820 0.004736 3.891132
v -0.199821 0.004734 0.064573
v -0.203680 0.446346 1.652202
v -0.208415 0.057752 1.647467
v -0.203679 0.057752 1.652202
v -0.208415 0.446346 1.647467
v -0.244521 0.057752 1.647467
v -0.244522 0.446346 1.647467
v -0.249257 0.446346 1.652202
v -0.249257 0.057752 1.652202
v -0.249257 0.057752 1.702794
v -0.249257 0.446346 1.702794
v -0.244522 0.446346 1.707529
v -0.244522 0.057752 1.707529
v -0.208415 0.446346 1.707529
v -0.208415 0.057752 1.707529
v -0.203680 0.446346 1.702794
v -0.203679 0.057752 1.702794
v -0.203679 0.057752 1.652202
v -0.203680 0.446346 1.652202
v -0.203679 0.043601 3.883694
v -0.203679 0.446346 3.833102
v -0.203679 0.043601 3.833102
v -0.203679 0.446346 3.883694
v -0.208415 0.043601 3.888430
v -0.208415 0.446346 3.888430
v -0.244521 0.043601 3.888430
v -0.244522 0.446346 3.888430
v -0.249257 0.043601 3.883694
v -0.249257 0.446346 3.883694
v -0.249257 0.446346 3.833102
v -0.249257 0.043601 3.833102
v -0.244522 0.446346 3.828367
v -0.244521 0.043601 3.828367
v -0.208415 0.446346 3.828367
v -0.208415 0.043601 3.828367
v -0.203679 0.446346 3.833102
v -0.203679 0.043601 3.833102
v -0.549742 0.446654 3.834362
v -0.554477 0.045854 3.829627
v -0.549741 0.045854 3.834362
v -0.554477 0.446654 3.829627
v -0.590584 0.045854 3.829627
v -0.590584 0.446654 3.829627
v -0.595319 0.446654 3.834362
v -0.595319 0.045854 3.834362
v -0.595319 0.045854 3.884954
v -0.595319 0.446654 3.884954
v -0.590584 0.045854 3.889689
v -0.590584 0.446654 3.889689
v -0.554477 0.446654 3.889689
v -0.554477 0.045854 3.889689
v -0.549741 0.045854 3.884954
v -0.549742 0.446654 3.884954
v -0.549742 0.446654 3.834362
v -0.549741 0.045854 3.834362
v -0.199821 0.449379 0.065311
v -0.204556 0.444646 3.891124
v -0.199820 0.449381 3.891132
v -0.204556 0.444645 0.065311
v -0.250729 0.444504 3.831666
v -0.250730 0.444809 0.065311
v -0.255465 0.449218 3.822203
v -0.255465 0.449567 0.065311
v -0.255465 0.495450 0.065311
v -0.255465 0.495102 3.822283
v -0.250730 0.500163 0.065311
v -0.250729 0.499858 3.831762
v -0.204556 0.500000 0.065311
v -0.204556 0.500000 3.891220
v -0.199820 0.495265 3.891212
v -0.199821 0.495263 0.065311
v -0.199820 0.449381 3.891132
v -0.199821 0.449379 0.065311
v -0.012557 0.060649 1.639783
v -0.608002 0.065649 1.644783
v -0.608002 0.060649 1.639783
v -0.012557 0.065649 1.644783
v -0.608002 0.065649 1.713856
v -0.012557 0.065649 1.713856
v -0.608002 0.060649 1.718856
v -0.012557 0.060649 1.718856
v -0.012557 0.000001 1.718856
v -0.608002 0.000000 1.718856
v -0.012557 -0.004999 1.713856
v -0.608002 -0.005000 1.713856
v -0.012557 -0.004999 1.644783
v -0.608002 -0.005000 1.644783
v -0.012557 0.000001 1.639783
v -0.608002 0.000000 1.639783
v -0.608002 0.060649 1.639783
v -0.012557 0.060649 1.639783
v -0.608002 0.438387 1.713856
v -0.012557 0.438388 1.644783
v -0.608002 0.438387 1.644783
v -0.012557 0.438388 1.713856
v -0.608002 0.443387 1.718856
v -0.012557 0.443388 1.718856
v -0.608002 0.504036 1.718856
v -0.012557 0.504036 1.718856
v -0.012557 0.509036 1.713856
v -0.608002 0.509036 1.713856
v -0.012557 0.509036 1.644783
v -0.608002 0.509036 1.644783
v -0.012557 0.504036 1.639783
v -0.608002 0.504036 1.639783
v -0.012557 0.443388 1.639783
v -0.608002 0.443387 1.639783
v -0.608002 0.438387 1.644783
v -0.012557 0.438388 1.644783
v -0.544506 0.050456 3.822283
v -0.549242 0.055517 0.064463
v -0.544506 0.050804 0.064463
v -0.549241 0.055213 3.831762
v -0.595415 0.055355 0.064463
v -0.595415 0.055355 3.891220
v -0.600150 0.050619 3.891212
v -0.600151 0.050617 0.064463
v -0.600150 0.004736 3.891132
v -0.600151 0.004734 0.064463
v -0.595415 0.000001 3.891124
v -0.595415 0.000000 0.064463
v -0.549241 -0.000142 3.831666
v -0.549242 0.000163 0.064463
v -0.544506 0.004573 3.822203
v -0.544506 0.004921 0.064463
v -0.544506 0.050804 0.064463
v -0.544506 0.050456 3.822283
v -0.012557 0.438387 0.063246
v -0.608002 0.443387 0.068247
v -0.012557 0.443387 0.068246
v -0.608002 0.438387 0.063247
v -0.012557 0.438387 -0.005827
v -0.608002 0.438387 -0.005827
v -0.012557 0.443387 -0.010827
v -0.608002 0.443387 -0.010827
v -0.608002 0.504036 -0.010827
v -0.012557 0.504036 -0.010827
v -0.608002 0.509036 -0.005827
v -0.012557 0.509036 -0.005827
v -0.608002 0.509036 0.063247
v -0.012557 0.509036 0.063246
v -0.608002 0.504036 0.068247
v -0.012557 0.504036 0.068246
v -0.012557 0.443387 0.068246
v -0.608002 0.443387 0.068247
v -0.554894 0.051715 0.525614
v -0.246919 0.046979 0.520878
v -0.246919 0.051715 0.525614
v -0.554894 0.046979 0.520878
v -0.246919 0.010872 0.520878
v -0.554894 0.010872 0.520878
v -0.554894 0.006137 0.525613
v -0.246919 0.006137 0.525613
v -0.246919 0.006137 0.576205
v -0.554894 0.006137 0.576205
v -0.554894 0.010872 0.580941
v -0.246919 0.010873 0.580941
v -0.554894 0.046979 0.580941
v -0.246919 0.046979 0.580941
v -0.246919 0.051715 0.576205
v -0.554894 0.051715 0.576205
v -0.554894 0.051715 0.525614
v -0.246919 0.051715 0.525614
v -0.549742 0.060005 1.704054
v -0.549742 0.446653 1.653462
v -0.549742 0.060005 1.653462
v -0.549742 0.446653 1.704054
v -0.554477 0.446653 1.708789
v -0.554477 0.060005 1.708789
v -0.590584 0.060004 1.708789
v -0.590584 0.446653 1.708789
v -0.595320 0.446653 1.704053
v -0.595319 0.060004 1.704053
v -0.595320 0.446653 1.653461
v -0.595319 0.060004 1.653461
v -0.590584 0.060004 1.648726
v -0.590584 0.446653 1.648726
v -0.554477 0.446653 1.648726
v -0.554477 0.060004 1.648726
v -0.549742 0.060005 1.653462
v -0.549742 0.446653 1.653462
v -0.549742 0.052141 0.576205
v -0.549742 0.446653 0.525614
v -0.549742 0.052141 0.525614
v -0.549742 0.446653 0.576205
v -0.554478 0.446653 0.580941
v -0.554477 0.052141 0.580941
v -0.590584 0.052141 0.580941
v -0.590584 0.446653 0.580941
v -0.595320 0.446653 0.576205
v -0.595319 0.052141 0.576205
v -0.595320 0.052141 0.525613
v -0.595320 0.446653 0.525613
v -0.590584 0.052141 0.520878
v -0.590584 0.446653 0.520878
v -0.554478 0.446653 0.520878
v -0.554477 0.052141 0.520878
v -0.549742 0.052141 0.525614
v -0.549742 0.446653 0.525614
v -0.250729 0.055213 3.831762
v -0.595415 0.055355 3.891220
v -0.549241 0.055213 3.831762
v -0.204556 0.055355 3.891220
v -0.204556 0.050630 3.895947
v -0.199820 0.050619 3.891212
v -0.595415 0.050630 3.895947
v -0.600150 0.050619 3.891212
v -0.204556 0.004746 3.895868
v -0.199820 0.004736 3.891132
v -0.204556 0.000001 3.891124
v -0.595415 0.004746 3.895868
v -0.600150 0.004736 3.891132
v -0.595415 0.000001 3.891124
v -0.250729 -0.000142 3.831666
v -0.549241 -0.000142 3.831666
v -0.260200 0.004584 3.826939
v -0.255465 0.004573 3.822203
v -0.255465 0.050456 3.822283
v -0.539770 0.004584 3.826939
v -0.544506 0.004573 3.822203
v -0.544506 0.050456 3.822283
v -0.260200 0.050467 3.827018
v -0.250729 0.055213 3.831762
v -0.549241 0.055213 3.831762
v -0.539770 0.050467 3.827018
v -0.250729 0.499858 3.831762
v -0.595415 0.500000 3.891220
v -0.549241 0.499858 3.831762
v -0.204556 0.500000 3.891220
v -0.204556 0.495275 3.895947
v -0.199820 0.495265 3.891212
v -0.595415 0.495275 3.895947
v -0.600150 0.495265 3.891212
v -0.204556 0.449392 3.895868
v -0.199820 0.449381 3.891132
v -0.204556 0.444646 3.891124
v -0.595415 0.449392 3.895868
v -0.600150 0.449381 3.891132
v -0.595415 0.444646 3.891124
v -0.250729 0.444504 3.831666
v -0.549241 0.444504 3.831666
v -0.260200 0.449229 3.826939
v -0.255465 0.449218 3.822203
v -0.255465 0.495102 3.822283
v -0.539770 0.449229 3.826939
v -0.544506 0.449218 3.822203
v -0.544506 0.495102 3.822283
v -0.260200 0.495112 3.827018
v -0.250729 0.499858 3.831762
v -0.549241 0.499858 3.831762
v -0.539770 0.495112 3.827018
v -0.608002 -0.005000 1.644783
v -0.608002 0.000000 1.639783
v -0.613002 0.000000 1.644783
v -0.608002 -0.005000 1.713856
v -0.608002 0.060649 1.639783
v -0.613002 0.000000 1.713856
v -0.608002 0.000000 1.718856
v -0.613002 0.060649 1.644783
v -0.608002 0.065649 1.644783
v -0.613002 0.060649 1.713856
v -0.608002 0.060649 1.718856
v -0.608002 0.065649 1.713856
v -0.608002 0.065649 -0.005827
v -0.613002 0.060649 -0.005827
v -0.608002 0.060649 -0.010827
v -0.608002 0.065649 0.063247
v -0.608002 -0.000000 -0.010827
v -0.613002 0.060649 0.063247
v -0.608002 0.060649 0.068247
v -0.613002 -0.000000 -0.005827
v -0.608002 -0.005000 -0.005827
v -0.608002 -0.000000 0.068247
v -0.613002 -0.000000 0.063247
v -0.608002 -0.005000 0.063247
v -0.608002 0.443387 0.068247
v -0.608002 0.438387 0.063247
v -0.613002 0.443387 0.063247
v -0.608002 0.504036 0.068247
v -0.608002 0.438387 -0.005827
v -0.613002 0.504036 0.063247
v -0.608002 0.509036 0.063247
v -0.613002 0.443387 -0.005827
v -0.608002 0.443387 -0.010827
v -0.608002 0.509036 -0.005827
v -0.613002 0.504036 -0.005827
v -0.608002 0.504036 -0.010827
v -0.608002 0.443387 1.718856
v -0.608002 0.438387 1.713856
v -0.613002 0.443387 1.713856
v -0.608002 0.504036 1.718856
v -0.608002 0.438387 1.644783
v -0.613002 0.504036 1.713856
v -0.608002 0.509036 1.713856
v -0.608002 0.509036 1.644783
v -0.613002 0.443387 1.644783
v -0.608002 0.443387 1.639783
v -0.613002 0.504036 1.644783
v -0.608002 0.504036 1.639783
v 0.001601 -0.012484 -0.035241
v -0.009550 -0.017484 -0.031265
v 0.001601 -0.017484 -0.031265
v 0.001601 -0.017484 0.088636
v -0.009550 -0.012484 -0.035241
v 0.001601 0.072751 -0.035241
v -0.009550 -0.017484 0.088636
v -0.009550 0.072751 -0.035241
v -0.014550 -0.012484 -0.031265
v -0.009550 0.077751 -0.031265
v 0.001601 0.077751 -0.031265
v -0.014550 0.072751 -0.031265
v -0.009550 0.077751 0.088636
v 0.001601 0.077751 0.088636
v -0.014550 -0.012484 0.088636
v -0.014550 0.072751 0.088636
v -0.009550 0.072751 0.092612
v 0.001601 0.072751 0.092612
v 0.001601 -0.012484 0.092612
v -0.009550 -0.012484 0.092612
v 0.001601 0.430937 -0.035241
v -0.009550 0.425937 -0.031265
v 0.001601 0.425937 -0.031265
v 0.001601 0.425937 0.088636
v -0.009550 0.430937 -0.035241
v 0.001601 0.516172 -0.035241
v -0.009550 0.425937 0.088636
v -0.009550 0.516172 -0.035241
v -0.014550 0.430937 -0.031265
v -0.009550 0.430937 0.092611
v 0.001601 0.430937 0.092611
v -0.014550 0.430937 0.088636
v -0.014550 0.516172 -0.031265
v -0.009550 0.516172 0.092611
v 0.001601 0.516172 0.092611
v 0.001601 0.521172 0.088636
v -0.014550 0.516172 0.088636
v -0.009550 0.521172 0.088636
v 0.001601 0.521172 -0.031265
v -0.009550 0.521172 -0.031265
v 0.001601 0.072751 1.746922
v 0.001601 -0.012484 1.746922
v -0.009550 0.072751 1.746922
v 0.001601 0.077751 1.742946
v -0.009550 -0.012484 1.746922
v 0.001601 -0.017484 1.742946
v -0.009550 0.077751 1.742946
v 0.001601 0.077751 1.623045
v -0.009550 -0.017484 1.742946
v -0.009550 0.077751 1.623045
v 0.001601 0.072751 1.619069
v -0.014550 0.072751 1.742946
v -0.014550 -0.012484 1.742946
v -0.014550 0.072751 1.623045
v -0.009550 0.072751 1.619069
v -0.009550 -0.012484 1.619069
v 0.001601 -0.012484 1.619069
v -0.014550 -0.012484 1.623045
v -0.009550 -0.017484 1.623045
v 0.001601 -0.017484 1.623045
v 0.001601 0.516173 1.746921
v 0.001601 0.430938 1.746922
v -0.009550 0.516173 1.746921
v 0.001601 0.521173 1.742945
v -0.009550 0.430938 1.746922
v 0.001601 0.425938 1.742946
v -0.009550 0.521173 1.742945
v 0.001601 0.521173 1.623045
v -0.009550 0.425938 1.742946
v -0.009550 0.521173 1.623045
v 0.001601 0.516173 1.619069
v -0.014550 0.516173 1.742945
v -0.014550 0.430938 1.742946
v -0.014550 0.516173 1.623045
v -0.009550 0.516173 1.619069
v -0.009550 0.430937 1.619069
v 0.001601 0.430937 1.619069
v -0.014550 0.430937 1.623045
v -0.009550 0.425938 1.623045
v 0.001601 0.425938 1.623045
vt 0.453369 1.170288
vt 0.453369 1.363525
vt 0.450195 1.363525
vt 0.450195 1.170288
vt 0.431641 1.363525
vt 0.431641 1.170288
vt 0.428467 1.363525
vt 0.428467 1.170288
vt 0.402832 1.170288
vt 0.402832 1.363525
vt 0.399658 1.170288
vt 0.399658 1.363525
vt 0.381348 1.170288
vt 0.381348 1.363525
vt 0.377930 1.170288
vt 0.377930 1.363525
vt 0.352051 1.170288
vt 0.352051 1.363525
vt 1.063477 0.414062
vt 1.063477 2.336914
vt 1.059570 2.336914
vt 1.059570 0.409180
vt 1.036133 2.336914
vt 1.036133 0.378906
vt 1.033203 2.336914
vt 1.033203 0.378906
vt 1.009766 2.336914
vt 1.009766 0.378906
vt 1.006836 2.336914
vt 1.006836 0.378906
vt 0.982910 0.409180
vt 0.982910 2.336914
vt 0.979492 0.414062
vt 0.979980 2.336914
vt 0.956055 0.414062
vt 0.956543 2.336914
vt 0.213379 0.383789
vt 0.213379 0.078613
vt 0.244385 0.078613
vt 0.244385 0.383789
vt 0.247925 0.078613
vt 0.247925 0.383789
vt 0.282959 0.078613
vt 0.282959 0.383789
vt 0.286377 0.078613
vt 0.286377 0.383789
vt 0.317139 0.383789
vt 0.317139 0.078613
vt 0.320557 0.383789
vt 0.320557 0.078613
vt 0.355713 0.383789
vt 0.355713 0.078613
vt 0.359375 0.383789
vt 0.359375 0.078613
vt 0.395752 0.369141
vt 0.395752 0.572021
vt 0.369873 0.369141
vt 0.369873 0.572021
vt 0.366455 0.369141
vt 0.366455 0.572021
vt 0.348145 0.572021
vt 0.348145 0.369141
vt 0.344971 0.572021
vt 0.344971 0.369141
vt 0.319336 0.369141
vt 0.319336 0.572021
vt 0.316162 0.572021
vt 0.316162 0.369141
vt 0.297607 0.369141
vt 0.297607 0.572021
vt 0.294189 0.369141
vt 0.294189 0.572021
vt 0.294189 0.549805
vt 0.294189 0.391113
vt 0.297607 0.549805
vt 0.297607 0.391113
vt 0.316162 0.549805
vt 0.316162 0.391113
vt 0.319336 0.391113
vt 0.319336 0.549805
vt 0.344971 0.549805
vt 0.344971 0.391113
vt 0.348145 0.391113
vt 0.348145 0.549805
vt 0.366455 0.391113
vt 0.366455 0.549805
vt 0.369873 0.549805
vt 0.369873 0.391113
vt 0.395752 0.549805
vt 0.395752 0.391113
vt 0.543457 0.956360
vt 0.517578 1.151733
vt 0.517578 0.956360
vt 0.543457 1.151733
vt 0.546875 0.956360
vt 0.546875 1.151733
vt 0.564941 0.956360
vt 0.564941 1.151733
vt 0.568359 0.956360
vt 0.568359 1.151733
vt 0.593750 0.956360
vt 0.593750 1.151733
vt 0.597168 1.151733
vt 0.597168 0.956360
vt 0.615723 1.151733
vt 0.615723 0.956360
vt 0.618652 1.151733
vt 0.618652 0.956360
vt 1.210938 0.353027
vt 1.213867 2.312500
vt 1.210938 2.312500
vt 1.213867 0.353027
vt 1.238281 2.282227
vt 1.238281 0.353027
vt 1.241211 2.277344
vt 1.241211 0.353027
vt 1.264648 0.353027
vt 1.264648 2.277344
vt 1.267578 0.353027
vt 1.267578 2.282227
vt 1.291016 0.353027
vt 1.291016 2.312500
vt 1.294922 2.312500
vt 1.294922 0.353027
vt 1.318359 2.312500
vt 1.318359 0.352539
vt 0.294189 0.371094
vt 0.297607 0.570068
vt 0.294189 0.570068
vt 0.297607 0.371094
vt 0.316162 0.570068
vt 0.316162 0.371094
vt 0.319336 0.371094
vt 0.319336 0.570068
vt 0.344971 0.570068
vt 0.344971 0.371094
vt 0.348145 0.371094
vt 0.348145 0.570068
vt 0.366455 0.371094
vt 0.366455 0.570068
vt 0.369873 0.371094
vt 0.369873 0.570068
vt 0.395752 0.570068
vt 0.395752 0.371094
vt -0.752441 0.295898
vt -0.726562 0.089844
vt -0.726562 0.295898
vt -0.752441 0.089844
vt -0.755859 0.295898
vt -0.755859 0.089844
vt -0.773926 0.295898
vt -0.773926 0.089844
vt -0.777344 0.295898
vt -0.777344 0.089844
vt -0.802734 0.089844
vt -0.802734 0.295898
vt -0.806152 0.089844
vt -0.806152 0.295898
vt -0.824707 0.089844
vt -0.824707 0.295898
vt -0.827637 0.089844
vt -0.827637 0.295898
vt 0.560059 0.370605
vt 0.563477 0.575684
vt 0.560059 0.575684
vt 0.563477 0.370605
vt 0.581543 0.575684
vt 0.581543 0.370605
vt 0.584961 0.370605
vt 0.584961 0.575684
vt 0.610840 0.575684
vt 0.610840 0.370605
vt 0.613770 0.575684
vt 0.613770 0.370605
vt 0.632324 0.370605
vt 0.632324 0.575684
vt 0.635742 0.575684
vt 0.635742 0.370605
vt 0.661621 0.370605
vt 0.661621 0.575684
vt 1.084961 0.382324
vt 1.088867 2.341797
vt 1.084961 2.341797
vt 1.088867 0.382324
vt 1.112305 2.311523
vt 1.112305 0.382324
vt 1.115234 2.306641
vt 1.115234 0.382324
vt 1.138672 0.382324
vt 1.138672 2.306641
vt 1.142578 0.382324
vt 1.142578 2.311523
vt 1.166016 0.382324
vt 1.166016 2.341797
vt 1.168945 2.341797
vt 1.168945 0.382324
vt 1.192383 2.341797
vt 1.192383 0.382324
vt 0.383057 0.079102
vt 0.386719 0.383789
vt 0.383057 0.383789
vt 0.386719 0.079102
vt 0.421875 0.383789
vt 0.421875 0.079102
vt 0.425293 0.383789
vt 0.425293 0.079102
vt 0.456299 0.079102
vt 0.456299 0.383789
vt 0.459717 0.079102
vt 0.459717 0.383789
vt 0.494873 0.079102
vt 0.494873 0.383789
vt 0.498291 0.079102
vt 0.498291 0.383789
vt 0.529297 0.383789
vt 0.529297 0.079102
vt 0.156006 0.862427
vt 0.191406 0.557373
vt 0.191406 0.862427
vt 0.156006 0.557373
vt 0.152466 0.862427
vt 0.152466 0.557373
vt 0.121643 0.862427
vt 0.121643 0.557373
vt 0.118225 0.557373
vt 0.118225 0.862427
vt 0.083008 0.557373
vt 0.083008 0.862427
vt 0.079529 0.557373
vt 0.079529 0.862427
vt 0.048584 0.557373
vt 0.048584 0.862427
vt 0.045013 0.862427
vt 0.045013 0.557373
vt 1.350586 0.384277
vt 1.354492 2.308594
vt 1.351562 2.308594
vt 1.354492 0.379395
vt 1.377930 2.308594
vt 1.377930 0.349121
vt 1.381836 0.349121
vt 1.381836 2.308594
vt 1.404297 0.349121
vt 1.404297 2.308594
vt 1.408203 0.349121
vt 1.408203 2.308594
vt 1.431641 0.379395
vt 1.431641 2.308594
vt 1.434570 0.384277
vt 1.434570 2.308594
vt 1.458984 2.308594
vt 1.458984 0.384277
vt 0.375244 0.079102
vt 0.371826 0.383789
vt 0.371826 0.079102
vt 0.375244 0.383789
vt 0.410645 0.079102
vt 0.410645 0.383789
vt 0.413818 0.079102
vt 0.413818 0.383789
vt 0.444580 0.383789
vt 0.444580 0.079102
vt 0.447998 0.383789
vt 0.447998 0.079102
vt 0.483154 0.383789
vt 0.483154 0.079102
vt 0.486572 0.383789
vt 0.486572 0.079102
vt 0.517578 0.079102
vt 0.517578 0.383789
vt -0.502930 0.391113
vt -0.499756 0.549072
vt -0.502930 0.549072
vt -0.499756 0.391113
vt -0.481201 0.549072
vt -0.481201 0.391113
vt -0.478027 0.391113
vt -0.478027 0.549072
vt -0.452393 0.549072
vt -0.452393 0.391113
vt -0.449219 0.391113
vt -0.449219 0.549072
vt -0.430908 0.391113
vt -0.430908 0.549072
vt -0.427490 0.549072
vt -0.427490 0.391113
vt -0.401611 0.391113
vt -0.401611 0.549072
vt -0.427490 0.569092
vt -0.401611 0.371094
vt -0.401611 0.569092
vt -0.427490 0.371094
vt -0.430908 0.371094
vt -0.430908 0.569092
vt -0.449219 0.569092
vt -0.449219 0.371094
vt -0.452393 0.371094
vt -0.452393 0.569092
vt -0.478027 0.371094
vt -0.478027 0.569092
vt -0.481201 0.569092
vt -0.481201 0.371094
vt -0.499756 0.371094
vt -0.499756 0.569092
vt -0.502930 0.569092
vt -0.502930 0.371094
vt -0.427490 0.571289
vt -0.401611 0.369141
vt -0.401611 0.571289
vt -0.427490 0.369141
vt -0.430908 0.369141
vt -0.430908 0.571289
vt -0.449219 0.571289
vt -0.449219 0.369141
vt -0.452393 0.369141
vt -0.452393 0.571289
vt -0.478027 0.571289
vt -0.478027 0.369141
vt -0.481201 0.571289
vt -0.481201 0.369141
vt -0.499756 0.369141
vt -0.499756 0.571289
vt -0.502930 0.571289
vt -0.502930 0.369141
vt 0.686035 0.396973
vt 0.716309 0.573486
vt 0.686035 0.549805
vt 0.716309 0.373047
vt 0.719727 0.373535
vt 0.719238 0.370117
vt 0.719727 0.573242
vt 0.719238 0.576416
vt 0.742676 0.373535
vt 0.743164 0.370117
vt 0.745117 0.373047
vt 0.742676 0.573242
vt 0.743164 0.576416
vt 0.745117 0.573486
vt 0.774414 0.396973
vt 0.774414 0.549805
vt 0.778320 0.401855
vt 0.778809 0.398438
vt 0.801270 0.398438
vt 0.778320 0.544922
vt 0.778809 0.548340
vt 0.801270 0.548340
vt 0.801758 0.401855
vt 0.806152 0.396973
vt 0.806152 0.549561
vt 0.801758 0.544922
vt -0.967773 0.116211
vt -0.937500 0.292969
vt -0.967773 0.269043
vt -0.937500 0.092285
vt -0.934082 0.092773
vt -0.934570 0.089355
vt -0.934082 0.292969
vt -0.934570 0.295898
vt -0.911133 0.092773
vt -0.910645 0.089355
vt -0.908691 0.092773
vt -0.911133 0.292969
vt -0.910645 0.295898
vt -0.908691 0.292969
vt -0.879395 0.116211
vt -0.879395 0.269043
vt -0.875488 0.121094
vt -0.875000 0.117676
vt -0.852539 0.117676
vt -0.875488 0.264648
vt -0.875000 0.267578
vt -0.852539 0.268066
vt -0.852051 0.121094
vt -0.847656 0.116699
vt -0.847656 0.269043
vt -0.852051 0.264648
vt -0.744629 0.403320
vt -0.741699 0.406250
vt -0.745117 0.406738
vt -0.780762 0.403320
vt -0.741699 0.437988
vt -0.780273 0.406738
vt -0.783691 0.406250
vt -0.745117 0.437500
vt -0.744629 0.440918
vt -0.780273 0.437500
vt -0.783691 0.437988
vt -0.780762 0.440918
vt 0.650391 0.640137
vt 0.649902 0.636719
vt 0.653320 0.637207
vt 0.614258 0.640137
vt 0.653320 0.605469
vt 0.614746 0.636719
vt 0.611328 0.637207
vt 0.649902 0.605957
vt 0.650391 0.602539
vt 0.611328 0.605469
vt 0.614746 0.605957
vt 0.614258 0.602539
vt -0.783691 0.487305
vt -0.780762 0.484375
vt -0.780273 0.487793
vt -0.783691 0.519043
vt -0.744629 0.484375
vt -0.780273 0.518555
vt -0.780762 0.521973
vt -0.745117 0.487793
vt -0.741699 0.487305
vt -0.744629 0.521973
vt -0.745117 0.518555
vt -0.741699 0.519043
vt -0.702637 0.487305
vt -0.699707 0.484375
vt -0.699219 0.487793
vt -0.702637 0.519043
vt -0.663574 0.484375
vt -0.699219 0.518555
vt -0.699707 0.521973
vt -0.663574 0.521973
vt -0.664062 0.487793
vt -0.660645 0.487305
vt -0.664062 0.518555
vt -0.660645 0.519043
vt 0.730469 2.172852
vt 0.736816 2.172852
vt 0.735352 2.177734
vt 0.799805 2.177734
vt 0.734863 2.170898
vt 0.729980 2.125977
vt 0.797852 2.172852
vt 0.734375 2.127930
vt 0.737305 2.170898
vt 0.736328 2.125977
vt 0.734375 2.121094
vt 0.736816 2.127930
vt 0.797363 2.125977
vt 0.799316 2.121094
vt 0.797852 2.170898
vt 0.796875 2.127930
vt 0.799316 2.127930
vt 0.803711 2.125977
vt 0.804199 2.172852
vt 0.799805 2.170898
vt -0.930664 0.356934
vt -0.924316 0.357422
vt -0.926270 0.361816
vt -0.861328 0.361816
vt -0.926270 0.355469
vt -0.931152 0.310547
vt -0.863281 0.357422
vt -0.926758 0.312012
vt -0.923828 0.354980
vt -0.861328 0.355469
vt -0.856934 0.357422
vt -0.863770 0.354980
vt -0.924316 0.312500
vt -0.861816 0.312012
vt -0.857422 0.310547
vt -0.862305 0.305664
vt -0.864258 0.312500
vt -0.863770 0.310059
vt -0.926758 0.305664
vt -0.924805 0.310059
vt 0.803711 1.845703
vt 0.804199 1.892578
vt 0.799316 1.847656
vt 0.799316 1.840820
vt 0.799805 1.890625
vt 0.799805 1.896973
vt 0.797363 1.845215
vt 0.734375 1.840820
vt 0.797852 1.893066
vt 0.736328 1.845215
vt 0.729980 1.845703
vt 0.796875 1.848145
vt 0.797852 1.890625
vt 0.736816 1.847656
vt 0.734375 1.847656
vt 0.734863 1.890625
vt 0.730469 1.892578
vt 0.737305 1.890137
vt 0.736816 1.893066
vt 0.735352 1.896973
vt 0.803711 1.757324
vt 0.804199 1.804199
vt 0.799316 1.759277
vt 0.798828 1.752441
vt 0.799805 1.802246
vt 0.799805 1.808594
vt 0.797363 1.756836
vt 0.734375 1.752441
vt 0.797852 1.804688
vt 0.736328 1.756836
vt 0.729980 1.757324
vt 0.796875 1.759766
vt 0.797363 1.802246
vt 0.736328 1.759277
vt 0.734375 1.759277
vt 0.734863 1.802246
vt 0.730469 1.804199
vt 0.737305 1.801758
vt 0.736816 1.804688
vt 0.734863 1.808594
vt1 0.501953 0.849243
vt1 0.501953 0.758423
vt1 0.503906 0.758423
vt1 0.503906 0.849243
vt1 0.512207 0.758423
vt1 0.512207 0.849243
vt1 0.513672 0.758423
vt1 0.513672 0.849243
vt1 0.525879 0.849243
vt1 0.525879 0.758423
vt1 0.527344 0.849243
vt1 0.527344 0.758423
vt1 0.536133 0.849243
vt1 0.536133 0.758423
vt1 0.537598 0.849243
vt1 0.537598 0.758423
vt1 0.549805 0.849243
vt1 0.549805 0.758423
vt1 0.373047 0.056641
vt1 0.373047 0.959320
vt1 0.371338 0.959320
vt1 0.371338 0.054688
vt1 0.360352 0.959320
vt1 0.360352 0.040039
vt1 0.358887 0.959320
vt1 0.358887 0.040039
vt1 0.347900 0.959320
vt1 0.347900 0.040039
vt1 0.346191 0.959320
vt1 0.346191 0.040039
vt1 0.335205 0.054688
vt1 0.335205 0.959320
vt1 0.333496 0.056641
vt1 0.333740 0.959320
vt1 0.322510 0.056641
vt1 0.322754 0.959320
vt1 0.415771 0.166504
vt1 0.558594 0.166504
vt1 0.558594 0.181152
vt1 0.415771 0.181152
vt1 0.558594 0.182617
vt1 0.415771 0.182617
vt1 0.558594 0.199219
vt1 0.415771 0.199219
vt1 0.558594 0.201172
vt1 0.415771 0.201172
vt1 0.415771 0.215332
vt1 0.558594 0.215332
vt1 0.415771 0.217285
vt1 0.558594 0.217285
vt1 0.415771 0.233887
vt1 0.558594 0.233887
vt1 0.415771 0.235352
vt1 0.558594 0.235352
vt1 0.463623 0.861572
vt1 0.463623 0.956909
vt1 0.451416 0.861572
vt1 0.451416 0.956909
vt1 0.449707 0.861572
vt1 0.449707 0.956909
vt1 0.441162 0.956909
vt1 0.441162 0.861572
vt1 0.439697 0.956909
vt1 0.439697 0.861572
vt1 0.427490 0.861572
vt1 0.427490 0.956909
vt1 0.426025 0.956909
vt1 0.426025 0.861572
vt1 0.417236 0.861572
vt1 0.417236 0.956909
vt1 0.415771 0.861572
vt1 0.415771 0.956909
vt1 0.676270 0.214355
vt1 0.602051 0.214355
vt1 0.676270 0.212891
vt1 0.602051 0.212891
vt1 0.676270 0.204102
vt1 0.602051 0.204102
vt1 0.602051 0.202637
vt1 0.676270 0.202637
vt1 0.676270 0.190430
vt1 0.602051 0.190430
vt1 0.602051 0.188965
vt1 0.676270 0.188965
vt1 0.602051 0.180176
vt1 0.676270 0.180176
vt1 0.676270 0.178711
vt1 0.602051 0.178711
vt1 0.676270 0.166504
vt1 0.602051 0.166504
vt1 0.537598 0.713867
vt1 0.549805 0.622070
vt1 0.549805 0.713867
vt1 0.537598 0.622070
vt1 0.536133 0.713867
vt1 0.536133 0.622070
vt1 0.527344 0.713867
vt1 0.527344 0.622070
vt1 0.525879 0.713867
vt1 0.525879 0.622070
vt1 0.513672 0.713867
vt1 0.513672 0.622070
vt1 0.512207 0.622070
vt1 0.512207 0.713867
vt1 0.503906 0.622070
vt1 0.503906 0.713867
vt1 0.501953 0.622070
vt1 0.501953 0.713867
vt1 0.186890 0.959961
vt1 0.185181 0.040039
vt1 0.186890 0.040039
vt1 0.185181 0.959991
vt1 0.174194 0.054688
vt1 0.174194 0.959991
vt1 0.172607 0.056641
vt1 0.172607 0.959991
vt1 0.161621 0.959991
vt1 0.161621 0.056641
vt1 0.160034 0.959991
vt1 0.160034 0.054688
vt1 0.149048 0.959991
vt1 0.149048 0.040039
vt1 0.147461 0.040039
vt1 0.147461 0.959991
vt1 0.136353 0.040039
vt1 0.136353 0.959991
vt1 0.931641 0.063477
vt1 0.837891 0.064941
vt1 0.837891 0.063477
vt1 0.931641 0.064941
vt1 0.837891 0.073730
vt1 0.931641 0.073730
vt1 0.931641 0.075195
vt1 0.837891 0.075195
vt1 0.837891 0.087402
vt1 0.931641 0.087402
vt1 0.931641 0.088867
vt1 0.837891 0.088867
vt1 0.931641 0.097656
vt1 0.837891 0.097656
vt1 0.931641 0.099121
vt1 0.837891 0.099121
vt1 0.837891 0.111328
vt1 0.931641 0.111328
vt1 0.427979 0.595459
vt1 0.415771 0.692383
vt1 0.415771 0.595459
vt1 0.427979 0.692383
vt1 0.429443 0.595459
vt1 0.429443 0.692383
vt1 0.437988 0.595459
vt1 0.437988 0.692383
vt1 0.439697 0.595459
vt1 0.439697 0.692383
vt1 0.451660 0.692383
vt1 0.451660 0.595459
vt1 0.453369 0.692383
vt1 0.453369 0.595459
vt1 0.461914 0.692383
vt1 0.461914 0.595459
vt1 0.463379 0.692383
vt1 0.463379 0.595459
vt1 0.463623 0.828247
vt1 0.461914 0.731934
vt1 0.463623 0.731934
vt1 0.461914 0.828247
vt1 0.453369 0.731934
vt1 0.453369 0.828247
vt1 0.451660 0.828247
vt1 0.451660 0.731934
vt1 0.439697 0.731934
vt1 0.439697 0.828247
vt1 0.437988 0.731934
vt1 0.437988 0.828247
vt1 0.429443 0.828247
vt1 0.429443 0.731934
vt1 0.427979 0.731934
vt1 0.427979 0.828247
vt1 0.415771 0.828247
vt1 0.415771 0.731934
vt1 0.229492 0.040039
vt1 0.231079 0.959808
vt1 0.229492 0.959808
vt1 0.231079 0.040039
vt1 0.242188 0.945526
vt1 0.242188 0.040039
vt1 0.243774 0.943237
vt1 0.243774 0.040039
vt1 0.254639 0.040039
vt1 0.254639 0.943237
vt1 0.256348 0.040039
vt1 0.256348 0.945526
vt1 0.267334 0.040039
vt1 0.267334 0.959808
vt1 0.268799 0.959808
vt1 0.268799 0.040039
vt1 0.279785 0.959808
vt1 0.279785 0.040039
vt1 0.415771 0.338379
vt1 0.558594 0.336914
vt1 0.558594 0.338379
vt1 0.415771 0.336914
vt1 0.558594 0.320312
vt1 0.415771 0.320312
vt1 0.558594 0.318848
vt1 0.415771 0.318848
vt1 0.415771 0.304199
vt1 0.558594 0.304199
vt1 0.415771 0.302734
vt1 0.558594 0.302734
vt1 0.415771 0.286133
vt1 0.558594 0.286133
vt1 0.415771 0.284180
vt1 0.558594 0.284180
vt1 0.558594 0.269531
vt1 0.415771 0.269531
vt1 0.558594 0.389648
vt1 0.415771 0.373047
vt1 0.558594 0.373047
vt1 0.415771 0.389648
vt1 0.558594 0.391113
vt1 0.415771 0.391113
vt1 0.558594 0.405762
vt1 0.415771 0.405762
vt1 0.415771 0.407227
vt1 0.558594 0.407227
vt1 0.415771 0.423828
vt1 0.558594 0.423828
vt1 0.415771 0.425293
vt1 0.558594 0.425293
vt1 0.415771 0.439941
vt1 0.558594 0.439941
vt1 0.558594 0.441895
vt1 0.415771 0.441895
vt1 0.039978 0.056641
vt1 0.041626 0.960022
vt1 0.040039 0.960022
vt1 0.041595 0.054688
vt1 0.052704 0.960022
vt1 0.052704 0.040039
vt1 0.054291 0.040039
vt1 0.054291 0.960022
vt1 0.065247 0.040039
vt1 0.065247 0.960022
vt1 0.066833 0.040039
vt1 0.066833 0.959991
vt1 0.077942 0.054688
vt1 0.077942 0.959991
vt1 0.079529 0.056641
vt1 0.079529 0.959991
vt1 0.090515 0.959991
vt1 0.090515 0.056641
vt1 0.415771 0.127441
vt1 0.558594 0.128906
vt1 0.415771 0.128906
vt1 0.558594 0.127441
vt1 0.415771 0.110840
vt1 0.558594 0.110840
vt1 0.415771 0.108887
vt1 0.558594 0.108887
vt1 0.558594 0.094727
vt1 0.415771 0.094727
vt1 0.558594 0.092773
vt1 0.415771 0.092773
vt1 0.558594 0.076660
vt1 0.415771 0.076660
vt1 0.558594 0.074707
vt1 0.415771 0.074707
vt1 0.415771 0.060059
vt1 0.558594 0.060059
vt1 0.602051 0.291016
vt1 0.675781 0.289551
vt1 0.675781 0.291016
vt1 0.602051 0.289551
vt1 0.675781 0.280762
vt1 0.602051 0.280762
vt1 0.602051 0.279297
vt1 0.675781 0.279297
vt1 0.675781 0.267090
vt1 0.602051 0.267090
vt1 0.602051 0.265625
vt1 0.675781 0.265625
vt1 0.602051 0.256836
vt1 0.675781 0.256836
vt1 0.675781 0.255371
vt1 0.602051 0.255371
vt1 0.602051 0.243164
vt1 0.675781 0.243164
vt1 0.537598 0.578857
vt1 0.549805 0.485840
vt1 0.549805 0.578857
vt1 0.537598 0.485840
vt1 0.536133 0.485840
vt1 0.536133 0.578857
vt1 0.527344 0.578857
vt1 0.527344 0.485840
vt1 0.525879 0.485840
vt1 0.525879 0.578857
vt1 0.513672 0.485840
vt1 0.513672 0.578857
vt1 0.512207 0.578857
vt1 0.512207 0.485840
vt1 0.503906 0.485840
vt1 0.503906 0.578857
vt1 0.501953 0.578857
vt1 0.501953 0.485840
vt1 0.810059 0.075684
vt1 0.714844 0.063477
vt1 0.810059 0.063477
vt1 0.714844 0.075684
vt1 0.714844 0.077148
vt1 0.810059 0.077148
vt1 0.810059 0.085938
vt1 0.714844 0.085938
vt1 0.714844 0.087402
vt1 0.810059 0.087402
vt1 0.810059 0.099609
vt1 0.714844 0.099609
vt1 0.810059 0.101074
vt1 0.714844 0.101074
vt1 0.714844 0.109863
vt1 0.810059 0.109863
vt1 0.810059 0.111328
vt1 0.714844 0.111328
vt1 0.415771 0.481934
vt1 0.429932 0.564941
vt1 0.415771 0.553711
vt1 0.429932 0.470703
vt1 0.431396 0.470703
vt1 0.431152 0.469238
vt1 0.431396 0.564697
vt1 0.431152 0.566406
vt1 0.442383 0.470703
vt1 0.442627 0.469238
vt1 0.443604 0.470703
vt1 0.442383 0.564697
vt1 0.442627 0.566406
vt1 0.443604 0.564941
vt1 0.457520 0.481934
vt1 0.457520 0.553711
vt1 0.459229 0.483887
vt1 0.459717 0.482422
vt1 0.470215 0.482422
vt1 0.459229 0.551514
vt1 0.459717 0.552979
vt1 0.470215 0.552979
vt1 0.470459 0.483887
vt1 0.472412 0.481934
vt1 0.472412 0.553711
vt1 0.470459 0.551514
vt1 0.672852 0.063477
vt1 0.589844 0.077637
vt1 0.601074 0.063477
vt1 0.684082 0.077637
vt1 0.684082 0.079102
vt1 0.685547 0.079102
vt1 0.589844 0.079102
vt1 0.588379 0.079102
vt1 0.684082 0.090332
vt1 0.685547 0.090332
vt1 0.684082 0.091309
vt1 0.589844 0.090332
vt1 0.588379 0.090332
vt1 0.589844 0.091309
vt1 0.672852 0.105469
vt1 0.601074 0.105469
vt1 0.670898 0.106934
vt1 0.672363 0.107422
vt1 0.672363 0.118164
vt1 0.603516 0.106934
vt1 0.601562 0.107422
vt1 0.601562 0.118164
vt1 0.670898 0.118164
vt1 0.672852 0.120117
vt1 0.601074 0.120117
vt1 0.603516 0.118164
vt1 0.791504 0.231445
vt1 0.792969 0.229980
vt1 0.792969 0.231445
vt1 0.791504 0.248047
vt1 0.807617 0.229980
vt1 0.792969 0.248047
vt1 0.792969 0.249512
vt1 0.807617 0.231445
vt1 0.809082 0.231445
vt1 0.807617 0.248047
vt1 0.807617 0.249512
vt1 0.809082 0.248047
vt1 0.602051 0.437500
vt1 0.603516 0.437500
vt1 0.603027 0.438965
vt1 0.602051 0.420898
vt1 0.618164 0.438965
vt1 0.603516 0.420898
vt1 0.603027 0.419434
vt1 0.617676 0.437500
vt1 0.619629 0.437500
vt1 0.618164 0.419434
vt1 0.617676 0.420898
vt1 0.619629 0.420898
vt1 0.603027 0.392578
vt1 0.602051 0.391113
vt1 0.603516 0.391113
vt1 0.618164 0.392578
vt1 0.602051 0.374023
vt1 0.617676 0.391113
vt1 0.619629 0.391113
vt1 0.603516 0.374512
vt1 0.603027 0.373047
vt1 0.619629 0.374023
vt1 0.617676 0.374512
vt1 0.618164 0.373047
vt1 0.603027 0.339355
vt1 0.602051 0.337891
vt1 0.603516 0.337891
vt1 0.618164 0.339355
vt1 0.602051 0.320801
vt1 0.617676 0.337891
vt1 0.619629 0.337891
vt1 0.619629 0.320801
vt1 0.603516 0.321289
vt1 0.603027 0.319824
vt1 0.617676 0.321289
vt1 0.618164 0.319824
vt1 0.510742 0.878479
vt1 0.510742 0.881470
vt1 0.508789 0.880615
vt1 0.508789 0.911499
vt1 0.511719 0.880554
vt1 0.533203 0.878174
vt1 0.510742 0.910583
vt1 0.532715 0.880310
vt1 0.512207 0.881592
vt1 0.533691 0.881226
vt1 0.535645 0.880310
vt1 0.532227 0.881348
vt1 0.533691 0.910339
vt1 0.535645 0.911194
vt1 0.511719 0.910461
vt1 0.532227 0.910217
vt1 0.532227 0.911255
vt1 0.533203 0.913391
vt1 0.510742 0.913635
vt1 0.511719 0.911499
vt1 0.793457 0.166992
vt1 0.793457 0.169922
vt1 0.791504 0.168945
vt1 0.791504 0.199707
vt1 0.794434 0.168945
vt1 0.815918 0.166504
vt1 0.793457 0.199219
vt1 0.815430 0.168945
vt1 0.794922 0.169922
vt1 0.794434 0.199707
vt1 0.793457 0.202148
vt1 0.794434 0.198730
vt1 0.814941 0.169922
vt1 0.814941 0.199707
vt1 0.815918 0.201660
vt1 0.818359 0.199707
vt1 0.814941 0.198730
vt1 0.816406 0.198730
vt1 0.818359 0.168945
vt1 0.816406 0.169434
vt1 0.723633 0.166992
vt1 0.746094 0.166504
vt1 0.724609 0.168945
vt1 0.721680 0.168945
vt1 0.745605 0.168945
vt1 0.748535 0.168945
vt1 0.723633 0.169922
vt1 0.721680 0.199707
vt1 0.746582 0.169434
vt1 0.723633 0.199219
vt1 0.723633 0.202148
vt1 0.725098 0.169922
vt1 0.745117 0.169922
vt1 0.724609 0.198730
vt1 0.724609 0.199707
vt1 0.745117 0.199707
vt1 0.746094 0.201660
vt1 0.745117 0.198730
vt1 0.746582 0.198730
vt1 0.748535 0.199707
vt1 0.746094 0.265137
vt1 0.723633 0.265137
vt1 0.745117 0.262695
vt1 0.748535 0.262695
vt1 0.724609 0.263184
vt1 0.721680 0.263184
vt1 0.746582 0.261719
vt1 0.748535 0.231934
vt1 0.723633 0.262207
vt1 0.746582 0.232910
vt1 0.746094 0.229980
vt1 0.745117 0.261719
vt1 0.724609 0.262207
vt1 0.745117 0.232910
vt1 0.745605 0.231934
vt1 0.724609 0.232422
vt1 0.723633 0.229980
vt1 0.725098 0.233398
vt1 0.723633 0.232910
vt1 0.721680 0.232422
vn 1.000000 0.000000 0.086614
vn 1.000000 0.000000 0.086614
vn 0.118110 0.000000 0.992126
vn 0.118110 0.000000 0.992126
vn -0.118110 0.000000 0.992126
vn -0.118110 0.000000 0.992126
vn -1.000000 0.000000 0.086614
vn -1.000000 0.000000 0.086614
vn -1.000000 -0.000000 -0.086614
vn -1.000000 -0.000000 -0.086614
vn -0.118110 -0.000000 -0.992126
vn -0.118110 -0.000000 -0.992126
vn 0.118110 -0.000000 -0.992126
vn 0.118110 -0.000000 -0.992126
vn 1.000000 -0.000000 -0.086614
vn 1.000000 -0.000000 -0.086614
vn 1.000000 0.000000 0.086614
vn 1.000000 0.000000 0.086614
vn 0.992126 -0.141732 0.000000
vn 0.992126 -0.094488 0.000000
vn 0.094488 -0.992126 0.000000
vn 0.015748 -1.000000 0.000000
vn -0.094488 -0.992126 0.000000
vn -0.173228 -0.984252 0.015748
vn -0.992126 -0.094488 0.000000
vn -0.992126 -0.094488 0.000000
vn -0.992126 0.094488 -0.000000
vn -0.992126 0.094488 -0.000000
vn -0.094488 0.992126 -0.000000
vn -0.165354 0.984252 0.015748
vn 0.023622 1.000000 -0.000000
vn 0.086614 0.992126 -0.000000
vn 0.992126 0.141732 -0.000000
vn 0.992126 0.094488 -0.000000
vn 0.992126 -0.141732 0.000000
vn 0.992126 -0.094488 0.000000
vn -0.007874 0.078740 1.000000
vn 0.000000 0.078740 1.000000
vn 0.000000 -0.078740 1.000000
vn -0.007874 -0.078740 1.000000
vn 0.000000 -1.000000 0.070866
vn -0.007874 -1.000000 0.070866
vn 0.000000 -1.000000 -0.070866
vn -0.007874 -1.000000 -0.070866
vn 0.000000 -0.078740 -1.000000
vn -0.007874 -0.078740 -1.000000
vn -0.007874 0.078740 -1.000000
vn 0.000000 0.078740 -1.000000
vn -0.007874 1.000000 -0.070866
vn 0.000000 1.000000 -0.070866
vn -0.007874 1.000000 0.070866
vn 0.000000 1.000000 0.070866
vn -0.007874 0.078740 1.000000
vn 0.000000 0.078740 1.000000
vn 1.000000 -0.000000 -0.086614
vn 1.000000 -0.000000 -0.086614
vn 1.000000 0.000000 0.086614
vn 1.000000 0.000000 0.086614
vn 0.118110 0.000000 0.992126
vn 0.118110 0.000000 0.992126
vn -0.118110 0.000000 0.992126
vn -0.118110 0.000000 0.992126
vn -1.000000 0.000000 0.086614
vn -1.000000 0.000000 0.086614
vn -1.000000 -0.000000 -0.086614
vn -1.000000 -0.000000 -0.086614
vn -0.118110 -0.000000 -0.992126
vn -0.118110 -0.000000 -0.992126
vn 0.118110 -0.000000 -0.992126
vn 0.118110 -0.000000 -0.992126
vn 1.000000 -0.000000 -0.086614
vn 1.000000 -0.000000 -0.086614
vn 0.000000 1.000000 -0.086614
vn 0.000000 1.000000 -0.086614
vn 0.000000 0.118110 -0.992126
vn 0.000000 0.118110 -0.992126
vn 0.000000 -0.118110 -0.992126
vn 0.000000 -0.118110 -0.992126
vn 0.000000 -1.000000 -0.086614
vn 0.000000 -1.000000 -0.086614
vn 0.000000 -1.000000 0.086614
vn 0.000000 -1.000000 0.086614
vn 0.000000 -0.118110 0.992126
vn 0.000000 -0.118110 0.992126
vn 0.000000 0.118110 0.992126
vn 0.000000 0.118110 0.992126
vn 0.000000 1.000000 0.086614
vn 0.000000 1.000000 0.086614
vn 0.000000 1.000000 -0.086614
vn 0.000000 1.000000 -0.086614
vn 1.000000 -0.000000 -0.086614
vn 1.000000 0.000000 0.086614
vn 1.000000 0.000000 0.086614
vn 1.000000 -0.000000 -0.086614
vn 0.118110 -0.000000 -0.992126
vn 0.118110 -0.000000 -0.992126
vn -0.118110 -0.000000 -0.992126
vn -0.118110 -0.000000 -0.992126
vn -1.000000 -0.000000 -0.086614
vn -1.000000 -0.000000 -0.086614
vn -1.000000 0.000000 0.086614
vn -1.000000 0.000000 0.086614
vn -0.118110 0.000000 0.992126
vn -0.118110 0.000000 0.992126
vn 0.118110 0.000000 0.992126
vn 0.118110 0.000000 0.992126
vn 1.000000 0.000000 0.086614
vn 1.000000 0.000000 0.086614
vn 0.992126 -0.094488 0.000000
vn 0.165354 -0.984252 0.015748
vn 0.992126 -0.094488 0.000000
vn 0.094488 -0.992126 0.000000
vn -0.015748 -1.000000 0.000000
vn -0.094488 -0.992126 0.000000
vn -0.992126 -0.141732 0.000000
vn -0.992126 -0.094488 0.000000
vn -0.992126 0.094488 -0.000000
vn -0.992126 0.141732 -0.000000
vn -0.086614 0.992126 -0.000000
vn -0.023622 1.000000 -0.000000
vn 0.094488 0.992126 -0.000000
vn 0.165354 0.984252 0.015748
vn 0.992126 0.094488 -0.000000
vn 0.992126 0.094488 -0.000000
vn 0.992126 -0.094488 0.000000
vn 0.992126 -0.094488 0.000000
vn 1.000000 -0.000000 -0.086614
vn 0.118110 -0.000000 -0.992126
vn 1.000000 -0.000000 -0.086614
vn 0.118110 -0.000000 -0.992126
vn -0.118110 -0.000000 -0.992126
vn -0.118110 -0.000000 -0.992126
vn -1.000000 -0.000000 -0.086614
vn -1.000000 -0.000000 -0.086614
vn -1.000000 0.000000 0.086614
vn -1.000000 0.000000 0.086614
vn -0.118110 0.000000 0.992126
vn -0.118110 0.000000 0.992126
vn 0.118110 0.000000 0.992126
vn 0.118110 0.000000 0.992126
vn 1.000000 0.000000 0.086614
vn 1.000000 0.000000 0.086614
vn 1.000000 -0.000000 -0.086614
vn 1.000000 -0.000000 -0.086614
vn 1.000000 0.000000 0.086614
vn 1.000000 -0.000000 -0.086614
vn 1.000000 -0.000000 -0.086614
vn 1.000000 0.000000 0.086614
vn 0.118110 0.000000 0.992126
vn 0.118110 0.000000 0.992126
vn -0.118110 0.000000 0.992126
vn -0.118110 0.000000 0.992126
vn -1.000000 0.000000 0.086614
vn -1.000000 0.000000 0.086614
vn -1.000000 -0.000000 -0.086614
vn -1.000000 -0.000000 -0.086614
vn -0.118110 -0.000000 -0.992126
vn -0.118110 -0.000000 -0.992126
vn 0.118110 -0.000000 -0.992126
vn 0.118110 -0.000000 -0.992126
vn 1.000000 -0.000000 -0.086614
vn 1.000000 -0.000000 -0.086614
vn 1.000000 -0.000000 -0.086614
vn 0.118110 -0.000000 -0.992126
vn 1.000000 -0.000000 -0.086614
vn 0.118110 -0.000000 -0.992126
vn -0.118110 -0.000000 -0.992126
vn -0.118110 -0.000000 -0.992126
vn -1.000000 -0.000000 -0.086614
vn -1.000000 -0.000000 -0.086614
vn -1.000000 0.000000 0.086614
vn -1.000000 0.000000 0.086614
vn -0.118110 0.000000 0.992126
vn -0.118110 0.000000 0.992126
vn 0.118110 0.000000 0.992126
vn 0.118110 0.000000 0.992126
vn 1.000000 0.000000 0.086614
vn 1.000000 0.000000 0.086614
vn 1.000000 -0.000000 -0.086614
vn 1.000000 -0.000000 -0.086614
vn 0.992126 -0.094488 0.000000
vn 0.165354 -0.984252 0.015748
vn 0.992126 -0.094488 0.000000
vn 0.094488 -0.992126 0.000000
vn -0.015748 -1.000000 0.000000
vn -0.094488 -0.992126 0.000000
vn -0.992126 -0.141732 0.000000
vn -0.992126 -0.094488 0.000000
vn -0.992126 0.094488 -0.000000
vn -0.992126 0.141732 -0.000000
vn -0.086614 0.992126 -0.000000
vn -0.023622 1.000000 -0.000000
vn 0.094488 0.992126 -0.000000
vn 0.165354 0.984252 0.015748
vn 0.992126 0.094488 -0.000000
vn 0.992126 0.094488 -0.000000
vn 0.992126 -0.094488 0.000000
vn 0.992126 -0.094488 0.000000
vn 0.000000 0.078740 -1.000000
vn -0.007874 1.000000 -0.070866
vn -0.007874 0.078740 -1.000000
vn 0.000000 1.000000 -0.070866
vn -0.007874 1.000000 0.070866
vn 0.000000 1.000000 0.070866
vn -0.007874 0.078740 1.000000
vn 0.000000 0.078740 1.000000
vn 0.000000 -0.078740 1.000000
vn -0.007874 -0.078740 1.000000
vn 0.000000 -1.000000 0.070866
vn -0.007874 -1.000000 0.070866
vn 0.000000 -1.000000 -0.070866
vn -0.007874 -1.000000 -0.070866
vn 0.000000 -0.078740 -1.000000
vn -0.007874 -0.078740 -1.000000
vn -0.007874 0.078740 -1.000000
vn 0.000000 0.078740 -1.000000
vn -0.007874 -1.000000 0.070866
vn 0.000000 -1.000000 -0.070866
vn -0.007874 -1.000000 -0.070866
vn 0.000000 -1.000000 0.070866
vn -0.007874 -0.078740 1.000000
vn 0.000000 -0.078740 1.000000
vn -0.007874 0.078740 1.000000
vn 0.000000 0.078740 1.000000
vn 0.000000 1.000000 0.070866
vn -0.007874 1.000000 0.070866
vn 0.000000 1.000000 -0.070866
vn -0.007874 1.000000 -0.070866
vn 0.000000 0.078740 -1.000000
vn -0.007874 0.078740 -1.000000
vn 0.000000 -0.078740 -1.000000
vn -0.007874 -0.078740 -1.000000
vn -0.007874 -1.000000 -0.070866
vn 0.000000 -1.000000 -0.070866
vn 0.992126 0.141732 -0.000000
vn 0.086614 0.992126 -0.000000
vn 0.992126 0.094488 -0.000000
vn 0.023622 1.000000 -0.000000
vn -0.094488 0.992126 -0.000000
vn -0.165354 0.984252 0.015748
vn -0.992126 0.094488 -0.000000
vn -0.992126 0.094488 -0.000000
vn -0.992126 -0.094488 0.000000
vn -0.992126 -0.094488 0.000000
vn -0.173228 -0.984252 0.015748
vn -0.094488 -0.992126 0.000000
vn 0.015748 -1.000000 0.000000
vn 0.094488 -0.992126 0.000000
vn 0.992126 -0.141732 0.000000
vn 0.992126 -0.094488 0.000000
vn 0.992126 0.094488 -0.000000
vn 0.992126 0.141732 -0.000000
vn 0.000000 -1.000000 0.070866
vn -0.007874 -0.078740 1.000000
vn 0.000000 -0.078740 1.000000
vn -0.007874 -1.000000 0.070866
vn 0.000000 -1.000000 -0.070866
vn -0.007874 -1.000000 -0.070866
vn 0.000000 -0.078740 -1.000000
vn -0.007874 -0.078740 -1.000000
vn -0.007874 0.078740 -1.000000
vn 0.000000 0.078740 -1.000000
vn -0.007874 1.000000 -0.070866
vn 0.000000 1.000000 -0.070866
vn -0.007874 1.000000 0.070866
vn 0.000000 1.000000 0.070866
vn -0.007874 0.078740 1.000000
vn 0.000000 0.078740 1.000000
vn 0.000000 -0.078740 1.000000
vn -0.007874 -0.078740 1.000000
vn 0.000000 1.000000 -0.086614
vn 0.000000 0.118110 -0.992126
vn 0.000000 1.000000 -0.086614
vn 0.000000 0.118110 -0.992126
vn 0.000000 -0.118110 -0.992126
vn 0.000000 -0.118110 -0.992126
vn 0.000000 -1.000000 -0.086614
vn 0.000000 -1.000000 -0.086614
vn 0.000000 -1.000000 0.086614
vn 0.000000 -1.000000 0.086614
vn 0.000000 -0.118110 0.992126
vn 0.000000 -0.118110 0.992126
vn 0.000000 0.118110 0.992126
vn 0.000000 0.118110 0.992126
vn 0.000000 1.000000 0.086614
vn 0.000000 1.000000 0.086614
vn 0.000000 1.000000 -0.086614
vn 0.000000 1.000000 -0.086614
vn 1.000000 0.000000 0.086614
vn 1.000000 -0.000000 -0.086614
vn 1.000000 -0.000000 -0.086614
vn 1.000000 0.000000 0.086614
vn 0.118110 0.000000 0.992126
vn 0.118110 0.000000 0.992126
vn -0.118110 0.000000 0.992126
vn -0.118110 0.000000 0.992126
vn -1.000000 0.000000 0.086614
vn -1.000000 0.000000 0.086614
vn -1.000000 -0.000000 -0.086614
vn -1.000000 -0.000000 -0.086614
vn -0.118110 -0.000000 -0.992126
vn -0.118110 -0.000000 -0.992126
vn 0.118110 -0.000000 -0.992126
vn 0.118110 -0.000000 -0.992126
vn 1.000000 -0.000000 -0.086614
vn 1.000000 -0.000000 -0.086614
vn 1.000000 0.000000 0.086614
vn 1.000000 -0.000000 -0.086614
vn 1.000000 -0.000000 -0.086614
vn 1.000000 0.000000 0.086614
vn 0.118110 0.000000 0.992126
vn 0.118110 0.000000 0.992126
vn -0.118110 0.000000 0.992126
vn -0.118110 0.000000 0.992126
vn -1.000000 0.000000 0.086614
vn -1.000000 0.000000 0.086614
vn -1.000000 -0.000000 -0.086614
vn -1.000000 -0.000000 -0.086614
vn -0.118110 -0.000000 -0.992126
vn -0.118110 -0.000000 -0.992126
vn 0.118110 -0.000000 -0.992126
vn 0.118110 -0.000000 -0.992126
vn 1.000000 -0.000000 -0.086614
vn 1.000000 -0.000000 -0.086614
vn -0.023622 1.000000 -0.000000
vn -0.165354 0.984252 0.015748
vn 0.023622 1.000000 -0.000000
vn 0.165354 0.984252 0.015748
vn 0.007874 0.094488 0.992126
vn 0.992126 0.094488 -0.000000
vn -0.007874 0.094488 0.992126
vn -0.992126 0.094488 -0.000000
vn 0.007874 -0.094488 0.992126
vn 0.992126 -0.094488 0.000000
vn 0.165354 -0.984252 0.015748
vn -0.007874 -0.094488 0.992126
vn -0.992126 -0.094488 0.000000
vn -0.173228 -0.984252 0.015748
vn -0.015748 -1.000000 0.000000
vn 0.015748 -1.000000 0.000000
vn -0.015748 -0.149606 -0.992126
vn -0.992126 -0.141732 0.000000
vn -0.992126 0.141732 -0.000000
vn 0.015748 -0.141732 -0.992126
vn 0.992126 -0.141732 0.000000
vn 0.992126 0.141732 -0.000000
vn -0.015748 0.141732 -0.992126
vn -0.023622 1.000000 -0.000000
vn 0.023622 1.000000 -0.000000
vn 0.015748 0.149606 -0.992126
vn -0.023622 1.000000 -0.000000
vn -0.165354 0.984252 0.015748
vn 0.023622 1.000000 -0.000000
vn 0.165354 0.984252 0.015748
vn 0.007874 0.094488 0.992126
vn 0.992126 0.094488 -0.000000
vn -0.007874 0.094488 0.992126
vn -0.992126 0.094488 -0.000000
vn 0.007874 -0.094488 0.992126
vn 0.992126 -0.094488 0.000000
vn 0.165354 -0.984252 0.015748
vn -0.007874 -0.094488 0.992126
vn -0.992126 -0.094488 0.000000
vn -0.173228 -0.984252 0.015748
vn -0.015748 -1.000000 0.000000
vn 0.015748 -1.000000 0.000000
vn -0.015748 -0.149606 -0.992126
vn -0.992126 -0.141732 0.000000
vn -0.992126 0.141732 -0.000000
vn 0.015748 -0.141732 -0.992126
vn 0.992126 -0.141732 0.000000
vn 0.992126 0.141732 -0.000000
vn -0.015748 0.141732 -0.992126
vn -0.023622 1.000000 -0.000000
vn 0.023622 1.000000 -0.000000
vn 0.015748 0.149606 -0.992126
vn -0.007874 -1.000000 -0.070866
vn -0.007874 -0.078740 -1.000000
vn -0.992126 -0.070866 -0.062992
vn -0.007874 -1.000000 0.070866
vn -0.007874 0.078740 -1.000000
vn -0.992126 -0.070866 0.062992
vn -0.007874 -0.078740 1.000000
vn -0.992126 0.070866 -0.062992
vn -0.007874 1.000000 -0.070866
vn -0.992126 0.070866 0.062992
vn -0.007874 0.078740 1.000000
vn -0.007874 1.000000 0.070866
vn -0.007874 1.000000 -0.070866
vn -0.992126 0.070866 -0.062992
vn -0.007874 0.078740 -1.000000
vn -0.007874 1.000000 0.070866
vn -0.007874 -0.078740 -1.000000
vn -0.992126 0.070866 0.062992
vn -0.007874 0.078740 1.000000
vn -0.992126 -0.070866 -0.062992
vn -0.007874 -1.000000 -0.070866
vn -0.007874 -0.078740 1.000000
vn -0.992126 -0.070866 0.062992
vn -0.007874 -1.000000 0.070866
vn -0.007874 -0.078740 1.000000
vn -0.007874 -1.000000 0.070866
vn -0.992126 -0.070866 0.062992
vn -0.007874 0.078740 1.000000
vn -0.007874 -1.000000 -0.070866
vn -0.992126 0.070866 0.062992
vn -0.007874 1.000000 0.070866
vn -0.992126 -0.070866 -0.062992
vn -0.007874 -0.078740 -1.000000
vn -0.007874 1.000000 -0.070866
vn -0.992126 0.070866 -0.062992
vn -0.007874 0.078740 -1.000000
vn -0.007874 -0.078740 1.000000
vn -0.007874 -1.000000 0.070866
vn -0.992126 -0.070866 0.062992
vn -0.007874 0.078740 1.000000
vn -0.007874 -1.000000 -0.070866
vn -0.992126 0.070866 0.062992
vn -0.007874 1.000000 0.070866
vn -0.007874 1.000000 -0.070866
vn -0.992126 -0.070866 -0.062992
vn -0.007874 -0.078740 -1.000000
vn -0.992126 0.070866 -0.062992
vn -0.007874 0.078740 -1.000000
vn 0.000000 -0.047244 -1.000000
vn -0.291339 -0.952756 -0.031496
vn 0.000000 -1.000000 -0.039370
vn 0.000000 -1.000000 0.039370
vn -0.236220 -0.039370 -0.968504
vn 0.000000 0.047244 -1.000000
vn -0.291339 -0.952756 0.031496
vn -0.236220 0.039370 -0.968504
vn -1.000000 -0.055118 -0.039370
vn -0.291339 0.952756 -0.031496
vn 0.000000 1.000000 -0.039370
vn -1.000000 0.055118 -0.039370
vn -0.291339 0.952756 0.031496
vn 0.000000 1.000000 0.039370
vn -1.000000 -0.055118 0.039370
vn -1.000000 0.055118 0.039370
vn -0.236220 0.039370 0.968504
vn 0.000000 0.047244 1.000000
vn 0.000000 -0.047244 1.000000
vn -0.236220 -0.039370 0.968504
vn 0.000000 -0.047244 -1.000000
vn -0.291339 -0.952756 -0.031496
vn 0.000000 -1.000000 -0.039370
vn 0.000000 -1.000000 0.039370
vn -0.236220 -0.039370 -0.968504
vn 0.000000 0.047244 -1.000000
vn -0.291339 -0.952756 0.031496
vn -0.236220 0.039370 -0.968504
vn -1.000000 -0.055118 -0.039370
vn -0.236220 -0.039370 0.968504
vn 0.000000 -0.047244 1.000000
vn -1.000000 -0.055118 0.039370
vn -1.000000 0.055118 -0.039370
vn -0.236220 0.039370 0.968504
vn 0.000000 0.047244 1.000000
vn 0.000000 1.000000 0.039370
vn -1.000000 0.055118 0.039370
vn -0.291339 0.952756 0.031496
vn 0.000000 1.000000 -0.039370
vn -0.291339 0.952756 -0.031496
vn 0.000000 0.047244 1.000000
vn 0.000000 -0.047244 1.000000
vn -0.236220 0.039370 0.968504
vn 0.000000 1.000000 0.039370
vn -0.236220 -0.039370 0.968504
vn 0.000000 -1.000000 0.039370
vn -0.291339 0.952756 0.031496
vn 0.000000 1.000000 -0.039370
vn -0.291339 -0.952756 0.031496
vn -0.291339 0.952756 -0.031496
vn 0.000000 0.047244 -1.000000
vn -1.000000 0.055118 0.039370
vn -1.000000 -0.055118 0.039370
vn -1.000000 0.055118 -0.039370
vn -0.236220 0.039370 -0.968504
vn -0.236220 -0.039370 -0.968504
vn 0.000000 -0.047244 -1.000000
vn -1.000000 -0.055118 -0.039370
vn -0.291339 -0.952756 -0.031496
vn 0.000000 -1.000000 -0.039370
vn 0.000000 0.047244 1.000000
vn 0.000000 -0.047244 1.000000
vn -0.236220 0.039370 0.968504
vn 0.000000 1.000000 0.039370
vn -0.236220 -0.039370 0.968504
vn 0.000000 -1.000000 0.039370
vn -0.291339 0.952756 0.031496
vn 0.000000 1.000000 -0.039370
vn -0.291339 -0.952756 0.031496
vn -0.291339 0.952756 -0.031496
vn 0.000000 0.047244 -1.000000
vn -1.000000 0.055118 0.039370
vn -1.000000 -0.055118 0.039370
vn -1.000000 0.055118 -0.039370
vn -0.236220 0.039370 -0.968504
vn -0.236220 -0.039370 -0.968504
vn 0.000000 -0.047244 -1.000000
vn -1.000000 -0.055118 -0.039370
vn -0.291339 -0.952756 -0.031496
vn 0.000000 -1.000000 -0.039370
tan 0.000000 1.007502 -0.000000 1.000000
tan 0.000000 1.007502 -0.000000 1.000000
tan 0.000000 0.998264 -0.000000 1.000000
tan 0.000000 0.998264 -0.000000 1.000000
tan 0.000000 0.998264 -0.000000 1.000000
tan 0.000000 0.998264 -0.000000 1.000000
tan 0.000000 1.007502 -0.000000 1.000000
tan 0.000000 1.007502 -0.000000 1.000000
tan 0.000000 1.007502 -0.000000 1.000000
tan 0.000000 1.007502 -0.000000 1.000000
tan 0.000000 0.998264 -0.000000 1.000000
tan 0.000000 0.998264 -0.000000 1.000000
tan 0.000000 0.998264 -0.000000 1.000000
tan 0.000000 0.998264 -0.000000 1.000000
tan 0.000000 1.007502 -0.000000 1.000000
tan 0.000000 1.007502 -0.000000 1.000000
tan 0.000000 1.007502 -0.000000 1.000000
tan 0.000000 1.007502 -0.000000 1.000000
tan 0.000000 0.000000 1.004402 1.000000
tan 0.000000 0.000000 0.993242 1.000000
tan 0.000000 0.000000 0.993242 1.000000
tan 0.000000 0.000000 1.000248 1.000000
tan 0.000000 0.000000 0.993242 1.000000
tan 0.010478 0.014136 0.998760 1.000000
tan 0.000000 0.000000 0.993242 1.000000
tan 0.000000 0.000000 0.993242 1.000000
tan 0.000000 0.000000 0.993242 1.000000
tan 0.000000 0.000000 0.993242 1.000000
tan 0.000000 0.000000 0.993242 1.000000
tan 0.010354 -0.014198 0.996094 1.000000
tan 0.000000 0.000000 1.000558 1.000000
tan 0.000000 0.000000 0.991816 1.000000
tan 0.000000 0.000000 1.004402 1.000000
tan 0.000000 0.000000 0.993242 1.000000
tan 0.000000 0.000000 1.004402 1.000000
tan 0.000000 0.000000 0.993242 1.000000
tan 1.006200 0.000620 0.007874 1.000000
tan 1.006200 0.000000 0.000000 1.000000
tan 1.006200 0.000000 0.000000 1.000000
tan 1.006200 -0.000620 0.007874 1.000000
tan 1.005022 0.000000 0.000000 1.000000
tan 1.005022 -0.007874 0.000558 1.000000
tan 1.005022 0.000000 0.000000 1.000000
tan 1.005022 -0.007874 -0.000558 1.000000
tan 1.006200 0.000000 0.000000 1.000000
tan 1.006200 -0.000620 -0.007874 1.000000
tan 1.006200 0.000620 -0.007874 1.000000
tan 1.006200 0.000000 0.000000 1.000000
tan 1.005022 0.007874 -0.000558 1.000000
tan 1.005022 0.000000 0.000000 1.000000
tan 1.005022 0.007874 0.000558 1.000000
tan 1.005022 0.000000 0.000000 1.000000
tan 1.006200 0.008494 0.007254 1.000000
tan 1.006200 0.000000 0.000000 1.000000
tan 0.000000 1.007502 -0.000000 1.000000
tan 0.000000 1.007502 -0.000000 1.000000
tan 0.000000 1.007502 -0.000000 1.000000
tan 0.000000 1.007502 -0.000000 1.000000
tan 0.000000 0.998264 -0.000000 1.000000
tan 0.000000 0.998264 -0.000000 1.000000
tan 0.000000 0.998264 -0.000000 1.000000
tan 0.000000 0.998264 -0.000000 1.000000
tan 0.000000 1.007502 -0.000000 1.000000
tan 0.000000 1.007502 -0.000000 1.000000
tan 0.000000 1.007502 -0.000000 1.000000
tan 0.000000 1.007502 -0.000000 1.000000
tan 0.000000 0.998264 -0.000000 1.000000
tan 0.000000 0.998264 -0.000000 1.000000
tan 0.000000 0.998264 -0.000000 1.000000
tan 0.000000 0.998264 -0.000000 1.000000
tan 0.000000 1.007502 -0.000000 1.000000
tan 0.000000 1.007502 -0.000000 1.000000
tan -1.007502 0.000000 0.000000 1.000000
tan -1.007502 0.000000 0.000000 1.000000
tan -0.998264 0.000000 0.000000 1.000000
tan -0.998264 0.000000 0.000000 1.000000
tan -0.998264 0.000000 0.000000 1.000000
tan -0.998264 0.000000 0.000000 1.000000
tan -1.007502 0.000000 0.000000 1.000000
tan -1.007502 0.000000 0.000000 1.000000
tan -1.007502 0.000000 0.000000 1.000000
tan -1.007502 0.000000 0.000000 1.000000
tan -0.998264 0.000000 0.000000 1.000000
tan -0.998264 0.000000 0.000000 1.000000
tan -0.998264 0.000000 0.000000 1.000000
tan -0.998264 0.000000 0.000000 1.000000
tan -1.007502 0.000000 0.000000 1.000000
tan -1.007502 0.000000 0.000000 1.000000
tan -1.007502 0.000000 0.000000 1.000000
tan -1.007502 0.000000 0.000000 1.000000
tan 0.000000 1.007502 -0.000000 1.000000
tan 0.000000 1.007502 -0.000000 1.000000
tan 0.000000 1.007502 -0.000000 1.000000
tan 0.000000 1.007502 -0.000000 1.000000
tan 0.000000 0.998264 -0.000000 1.000000
tan 0.000000 0.998264 -0.000000 1.000000
tan 0.000000 0.998264 -0.000000 1.000000
tan 0.000000 0.998264 -0.000000 1.000000
tan 0.000000 1.007502 -0.000000 1.000000
tan 0.000000 1.007502 -0.000000 1.000000
tan 0.000000 1.007502 -0.000000 1.000000
tan 0.000000 1.007502 -0.000000 1.000000
tan 0.000000 0.998264 -0.000000 1.000000
tan 0.000000 0.998264 -0.000000 1.000000
tan 0.000000 0.998264 -0.000000 1.000000
tan 0.000000 0.998264 -0.000000 1.000000
tan 0.000000 1.007502 -0.000000 1.000000
tan 0.000000 1.007502 -0.000000 1.000000
tan 0.000000 -0.000000 -0.993242 1.000000
tan 0.010354 -0.014198 -0.996094 1.000000
tan 0.000000 -0.000000 -0.993242 1.000000
tan 0.000000 -0.000000 -0.993242 1.000000
tan 0.000000 -0.000000 -1.000248 1.000000
tan 0.000000 -0.000000 -0.993242 1.000000
tan 0.000000 -0.000000 -1.004402 1.000000
tan 0.000000 -0.000000 -0.993242 1.000000
tan 0.000000 -0.000000 -0.993242 1.000000
tan 0.000000 -0.000000 -1.004402 1.000000
tan 0.000000 -0.000000 -0.991816 1.000000
tan 0.000000 -0.000000 -1.000558 1.000000
tan 0.000000 -0.000000 -0.993242 1.000000
tan 0.010354 0.014198 -0.996094 1.000000
tan 0.000000 -0.000000 -0.993242 1.000000
tan 0.000000 -0.000000 -0.993242 1.000000
tan 0.000000 -0.000000 -0.993242 1.000000
tan 0.000000 -0.000000 -0.993242 1.000000
tan 0.000000 1.007502 -0.000000 1.000000
tan 0.000000 0.998264 -0.000000 1.000000
tan 0.000000 1.007502 -0.000000 1.000000
tan 0.000000 0.998264 -0.000000 1.000000
tan 0.000000 0.998264 -0.000000 1.000000
tan 0.000000 0.998264 -0.000000 1.000000
tan 0.000000 1.007502 -0.000000 1.000000
tan 0.000000 1.007502 -0.000000 1.000000
tan 0.000000 1.007502 -0.000000 1.000000
tan 0.000000 1.007502 -0.000000 1.000000
tan 0.000000 0.998264 -0.000000 1.000000
tan 0.000000 0.998264 -0.000000 1.000000
tan 0.000000 0.998264 -0.000000 1.000000
tan 0.000000 0.998264 -0.000000 1.000000
tan 0.000000 1.007502 -0.000000 1.000000
tan 0.000000 1.007502 -0.000000 1.000000
tan 0.000000 1.007502 -0.000000 1.000000
tan 0.000000 1.007502 -0.000000 1.000000
tan 0.000000 1.007502 -0.000000 1.000000
tan 0.000000 1.007502 -0.000000 1.000000
tan 0.000000 1.007502 -0.000000 1.000000
tan 0.000000 1.007502 -0.000000 1.000000
tan 0.000000 0.998264 -0.000000 1.000000
tan 0.000000 0.998264 -0.000000 1.000000
tan 0.000000 0.998264 -0.000000 1.000000
tan 0.000000 0.998264 -0.000000 1.000000
tan 0.000000 1.007502 -0.000000 1.000000
tan 0.000000 1.007502 -0.000000 1.000000
tan 0.000000 1.007502 -0.000000 1.000000
tan 0.000000 1.007502 -0.000000 1.000000
tan 0.000000 0.998264 -0.000000 1.000000
tan 0.000000 0.998264 -0.000000 1.000000
tan 0.000000 0.998264 -0.000000 1.000000
tan 0.000000 0.998264 -0.000000 1.000000
tan 0.000000 1.007502 -0.000000 1.000000
tan 0.000000 1.007502 -0.000000 1.000000
tan 0.000000 1.007502 -0.000000 1.000000
tan 0.000000 0.998264 -0.000000 1.000000
tan 0.000000 1.007502 -0.000000 1.000000
tan 0.000000 0.998264 -0.000000 1.000000
tan 0.000000 0.998264 -0.000000 1.000000
tan 0.000000 0.998264 -0.000000 1.000000
tan 0.000000 1.007502 -0.000000 1.000000
tan 0.000000 1.007502 -0.000000 1.000000
tan 0.000000 1.007502 -0.000000 1.000000
tan 0.000000 1.007502 -0.000000 1.000000
tan 0.000000 0.998264 -0.000000 1.000000
tan 0.000000 0.998264 -0.000000 1.000000
tan 0.000000 0.998264 -0.000000 1.000000
tan 0.000000 0.998264 -0.000000 1.000000
tan 0.000000 1.007502 -0.000000 1.000000
tan 0.000000 1.007502 -0.000000 1.000000
tan 0.000000 1.007502 -0.000000 1.000000
tan 0.000000 1.007502 -0.000000 1.000000
tan 0.000000 -0.000000 -0.993242 1.000000
tan 0.010354 -0.014198 -0.996094 1.000000
tan 0.000000 -0.000000 -0.993242 1.000000
tan 0.000000 -0.000000 -0.993242 1.000000
tan 0.000000 -0.000000 -1.000248 1.000000
tan 0.000000 -0.000000 -0.993242 1.000000
tan 0.000000 -0.000000 -1.004402 1.000000
tan 0.000000 -0.000000 -0.993242 1.000000
tan 0.000000 -0.000000 -0.993242 1.000000
tan 0.000000 -0.000000 -1.004402 1.000000
tan 0.000000 -0.000000 -0.991816 1.000000
tan 0.000000 -0.000000 -1.000558 1.000000
tan 0.000000 -0.000000 -0.993242 1.000000
tan 0.010354 0.014198 -0.996094 1.000000
tan 0.000000 -0.000000 -0.993242 1.000000
tan 0.000000 -0.000000 -0.993242 1.000000
tan 0.000000 -0.000000 -0.993242 1.000000
tan 0.000000 -0.000000 -0.993242 1.000000
tan 1.006200 0.000000 0.000000 1.000000
tan 1.005022 0.007874 -0.000558 1.000000
tan 1.006200 0.008494 -0.007254 1.000000
tan 1.005022 0.000000 0.000000 1.000000
tan 1.005022 0.007874 0.000558 1.000000
tan 1.005022 0.000000 0.000000 1.000000
tan 1.006200 0.000620 0.007874 1.000000
tan 1.006200 0.000000 0.000000 1.000000
tan 1.006200 0.000000 0.000000 1.000000
tan 1.006200 -0.000620 0.007874 1.000000
tan 1.005022 0.000000 0.000000 1.000000
tan 1.005022 -0.007874 0.000558 1.000000
tan 1.005022 0.000000 0.000000 1.000000
tan 1.005022 -0.007874 -0.000558 1.000000
tan 1.006200 0.000000 0.000000 1.000000
tan 1.006200 -0.000620 -0.007874 1.000000
tan 1.006200 0.000620 -0.007874 1.000000
tan 1.006200 0.000000 0.000000 1.000000
tan 1.005022 -0.007874 0.000558 1.000000
tan 1.005022 0.000000 0.000000 1.000000
tan 1.005022 -0.007874 -0.000558 1.000000
tan 1.005022 0.000000 0.000000 1.000000
tan 1.006200 -0.000620 0.007874 1.000000
tan 1.006200 0.000000 0.000000 1.000000
tan 1.006200 0.000620 0.007874 1.000000
tan 1.006200 0.000000 0.000000 1.000000
tan 1.005022 0.000000 0.000000 1.000000
tan 1.005022 0.007874 0.000558 1.000000
tan 1.005022 0.000000 0.000000 1.000000
tan 1.005022 0.007874 -0.000558 1.000000
tan 1.006200 0.000000 0.000000 1.000000
tan 1.006200 0.000620 -0.007874 1.000000
tan 1.006200 0.000000 0.000000 1.000000
tan 1.006200 -0.000620 -0.007874 1.000000
tan 1.005022 -0.007316 -0.008432 1.000000
tan 1.005022 0.000000 0.000000 1.000000
tan 0.000000 0.000000 1.004402 1.000000
tan 0.000000 0.000000 0.991816 1.000000
tan 0.000000 0.000000 0.993242 1.000000
tan 0.000000 0.000000 1.000558 1.000000
tan 0.000000 0.000000 0.993242 1.000000
tan 0.010354 -0.014198 0.996094 1.000000
tan 0.000000 0.000000 0.993242 1.000000
tan 0.000000 0.000000 0.993242 1.000000
tan 0.000000 0.000000 0.993242 1.000000
tan 0.000000 0.000000 0.993242 1.000000
tan 0.010478 0.014136 0.998760 1.000000
tan 0.000000 0.000000 0.993242 1.000000
tan 0.000000 0.000000 1.000248 1.000000
tan 0.000000 0.000000 0.993242 1.000000
tan 0.000000 0.000000 1.004402 1.000000
tan 0.000000 0.000000 0.993242 1.000000
tan 0.000000 0.000000 0.993242 1.000000
tan 0.000000 0.000000 1.004402 1.000000
tan 1.005022 0.000000 0.000000 1.000000
tan 1.006200 -0.008494 0.007254 1.000000
tan 1.006200 0.000000 0.000000 1.000000
tan 1.005022 -0.007874 0.000558 1.000000
tan 1.005022 0.000000 0.000000 1.000000
tan 1.005022 -0.007874 -0.000558 1.000000
tan 1.006200 0.000000 0.000000 1.000000
tan 1.006200 -0.000620 -0.007874 1.000000
tan 1.006200 0.000620 -0.007874 1.000000
tan 1.006200 0.000000 0.000000 1.000000
tan 1.005022 0.007874 -0.000558 1.000000
tan 1.005022 0.000000 0.000000 1.000000
tan 1.005022 0.007874 0.000558 1.000000
tan 1.005022 0.000000 0.000000 1.000000
tan 1.006200 0.000620 0.007874 1.000000
tan 1.006200 0.000000 0.000000 1.000000
tan 1.006200 0.000000 0.000000 1.000000
tan 1.006200 -0.000620 0.007874 1.000000
tan -1.007502 0.000000 0.000000 1.000000
tan -0.998264 0.000000 0.000000 1.000000
tan -1.007502 0.000000 0.000000 1.000000
tan -0.998264 0.000000 0.000000 1.000000
tan -0.998264 0.000000 0.000000 1.000000
tan -0.998264 0.000000 0.000000 1.000000
tan -1.007502 0.000000 0.000000 1.000000
tan -1.007502 0.000000 0.000000 1.000000
tan -1.007502 0.000000 0.000000 1.000000
tan -1.007502 0.000000 0.000000 1.000000
tan -0.998264 0.000000 0.000000 1.000000
tan -0.998264 0.000000 0.000000 1.000000
tan -0.998264 0.000000 0.000000 1.000000
tan -0.998264 0.000000 0.000000 1.000000
tan -1.007502 0.000000 0.000000 1.000000
tan -1.007502 0.000000 0.000000 1.000000
tan -1.007502 0.000000 0.000000 1.000000
tan -1.007502 0.000000 0.000000 1.000000
tan 0.000000 1.007502 -0.000000 1.000000
tan 0.000000 1.007502 -0.000000 1.000000
tan 0.000000 1.007502 -0.000000 1.000000
tan 0.000000 1.007502 -0.000000 1.000000
tan 0.000000 0.998264 -0.000000 1.000000
tan 0.000000 0.998264 -0.000000 1.000000
tan 0.000000 0.998264 -0.000000 1.000000
tan 0.000000 0.998264 -0.000000 1.000000
tan 0.000000 1.007502 -0.000000 1.000000
tan 0.000000 1.007502 -0.000000 1.000000
tan 0.000000 1.007502 -0.000000 1.000000
tan 0.000000 1.007502 -0.000000 1.000000
tan 0.000000 0.998264 -0.000000 1.000000
tan 0.000000 0.998264 -0.000000 1.000000
tan 0.000000 0.998264 -0.000000 1.000000
tan 0.000000 0.998264 -0.000000 1.000000
tan 0.000000 1.007502 -0.000000 1.000000
tan 0.000000 1.007502 -0.000000 1.000000
tan 0.000000 1.007502 -0.000000 1.000000
tan 0.000000 1.007502 -0.000000 1.000000
tan 0.000000 1.007502 -0.000000 1.000000
tan 0.000000 1.007502 -0.000000 1.000000
tan 0.000000 0.998264 -0.000000 1.000000
tan 0.000000 0.998264 -0.000000 1.000000
tan 0.000000 0.998264 -0.000000 1.000000
tan 0.000000 0.998264 -0.000000 1.000000
tan 0.000000 1.007502 -0.000000 1.000000
tan 0.000000 1.007502 -0.000000 1.000000
tan 0.000000 1.007502 -0.000000 1.000000
tan 0.000000 1.007502 -0.000000 1.000000
tan 0.000000 0.998264 -0.000000 1.000000
tan 0.000000 0.998264 -0.000000 1.000000
tan 0.000000 0.998264 -0.000000 1.000000
tan 0.000000 0.998264 -0.000000 1.000000
tan 0.000000 1.007502 -0.000000 1.000000
tan 0.000000 1.007502 -0.000000 1.000000
tan 1.000000 0.023622 -0.000000 1.000000
tan 0.961746 0.158348 0.201562 1.000000
tan 1.000000 -0.023622 -0.007874 1.000000
tan 0.961870 -0.158224 -0.210614 1.000000
tan 0.993242 0.038316 -0.011532 1.000000
tan 0.031992 -0.335917 -0.937814 1.000000
tan 0.992498 -0.038378 0.011532 1.000000
tan 0.031992 0.335917 0.937814 1.000000
tan 0.993242 -0.038316 -0.011532 1.000000
tan 0.032736 0.343729 -0.937814 1.000000
tan 0.969496 0.159774 -0.193812 1.000000
tan 0.993242 0.038316 0.011532 1.000000
tan 0.032736 -0.343729 0.937814 1.000000
tan 0.961870 -0.166036 0.203298 1.000000
tan 1.000000 -0.015748 -0.055118 1.000000
tan 1.000000 0.015748 0.055118 1.000000
tan 0.998884 0.060140 -0.024924 1.000000
tan 0.046872 -0.328105 -0.948602 1.000000
tan 0.046872 0.328104 -0.948602 1.000000
tan 0.996590 -0.060264 0.024428 1.000000
tan 0.046872 0.328105 0.948602 1.000000
tan 0.046872 -0.328104 0.948602 1.000000
tan 0.996590 -0.083700 -0.027776 1.000000
tan 0.976378 0.023064 -0.220658 1.000000
tan 0.976378 -0.023064 0.220658 1.000000
tan 0.998884 0.083576 0.028458 1.000000
tan 1.000000 0.023622 -0.000000 1.000000
tan 0.961746 0.158348 0.201562 1.000000
tan 1.000000 -0.023622 -0.007874 1.000000
tan 0.961870 -0.158224 -0.210614 1.000000
tan 0.993242 0.038316 -0.011532 1.000000
tan 0.031992 -0.335917 -0.937814 1.000000
tan 0.992498 -0.038378 0.011532 1.000000
tan 0.031992 0.335917 0.937814 1.000000
tan 0.993242 -0.038316 -0.011532 1.000000
tan 0.032736 0.343729 -0.937814 1.000000
tan 0.969496 0.159774 -0.193812 1.000000
tan 0.993242 0.038316 0.011532 1.000000
tan 0.032736 -0.343729 0.937814 1.000000
tan 0.961870 -0.166160 0.195548 1.000000
tan 1.000000 -0.015748 -0.055118 1.000000
tan 1.000000 0.015748 0.055118 1.000000
tan 0.998884 0.060140 -0.024924 1.000000
tan 0.046872 -0.328105 -0.948602 1.000000
tan 0.046872 0.328104 -0.948602 1.000000
tan 0.996590 -0.060264 0.024428 1.000000
tan 0.046872 0.328105 0.948602 1.000000
tan 0.046872 -0.328104 0.948602 1.000000
tan 0.996590 -0.083700 -0.027776 1.000000
tan 0.976378 0.023064 -0.220658 1.000000
tan 0.976378 -0.023064 0.220658 1.000000
tan 0.998884 0.083576 0.028458 1.000000
tan 0.941472 -0.030814 0.330213 1.000000
tan 0.230206 -0.968690 0.074462 1.000000
tan 0.073346 -0.996094 -0.034596 1.000000
tan 0.941472 -0.030814 -0.330213 1.000000
tan -0.230206 -0.976564 -0.075082 1.000000
tan 0.073842 -0.996094 0.042408 1.000000
tan 0.230206 -0.976564 -0.075082 1.000000
tan -0.073842 -0.996094 0.042408 1.000000
tan -0.941472 -0.030814 -0.330213 1.000000
tan -0.073346 -0.996094 -0.034596 1.000000
tan -0.230206 -0.968690 0.074462 1.000000
tan -0.941472 -0.030814 0.330213 1.000000
tan -0.941472 -0.030814 -0.330213 1.000000
tan -0.073346 -0.996094 0.034596 1.000000
tan -0.230206 -0.968690 -0.074462 1.000000
tan -0.941472 -0.030814 0.330213 1.000000
tan 0.230206 -0.976564 0.075082 1.000000
tan -0.073346 -0.996094 -0.034596 1.000000
tan -0.230206 -0.968690 0.074462 1.000000
tan 0.073842 -0.996094 -0.042408 1.000000
tan 0.941472 -0.030814 0.330213 1.000000
tan 0.230206 -0.976564 -0.075082 1.000000
tan 0.073842 -0.996094 0.042408 1.000000
tan 0.941472 -0.030814 -0.330213 1.000000
tan 0.230206 -0.968690 -0.074462 1.000000
tan 0.941472 -0.030814 -0.330213 1.000000
tan 0.073346 -0.996094 0.034596 1.000000
tan -0.230206 -0.976564 0.075082 1.000000
tan 0.941472 -0.030814 0.330213 1.000000
tan -0.073842 -0.996094 -0.042408 1.000000
tan -0.941472 -0.030814 0.330213 1.000000
tan 0.073842 -0.996094 -0.042408 1.000000
tan 0.230206 -0.976564 0.075082 1.000000
tan -0.941472 -0.030814 -0.330213 1.000000
tan -0.073346 -0.996094 0.034596 1.000000
tan -0.230206 -0.968690 -0.074462 1.000000
tan 0.230206 -0.968690 -0.074462 1.000000
tan 0.941472 -0.030814 -0.330213 1.000000
tan 0.073346 -0.996094 0.034596 1.000000
tan -0.230206 -0.976564 0.075082 1.000000
tan 0.941472 -0.030814 0.330213 1.000000
tan -0.073842 -0.996094 -0.042408 1.000000
tan -0.941472 -0.030814 0.330213 1.000000
tan -0.941472 -0.030814 -0.330213 1.000000
tan 0.073842 -0.996094 -0.042408 1.000000
tan 0.230206 -0.976564 0.075082 1.000000
tan -0.073346 -0.996094 0.034596 1.000000
tan -0.230206 -0.968690 -0.074462 1.000000
tan -0.339327 0.937008 -0.044268 1.000000
tan -0.829252 0.269266 -0.474735 1.000000
tan -0.812264 0.022940 -0.582677 1.000000
tan -0.796516 0.023870 0.606299 1.000000
tan -0.238080 0.970922 0.018600 1.000000
tan 0.315705 0.944882 0.044640 1.000000
tan -0.882758 0.282101 0.368033 1.000000
tan 0.215202 0.970922 -0.013020 1.000000
tan -0.057598 1.001550 0.060822 1.000000
tan 0.829004 0.269763 0.492033 1.000000
tan 0.812264 0.022940 0.582677 1.000000
tan 0.056358 1.001550 -0.029326 1.000000
tan 0.882758 0.281853 -0.360531 1.000000
tan 0.796516 0.023870 -0.606299 1.000000
tan -0.056358 1.001550 -0.029326 1.000000
tan 0.057598 1.001550 0.060822 1.000000
tan 0.276211 0.955670 0.028520 1.000000
tan 0.236592 0.968504 -0.045756 1.000000
tan -0.212970 0.976378 0.046128 1.000000
tan -0.268585 0.963296 -0.026350 1.000000
tan -0.339327 0.937008 -0.044268 1.000000
tan -0.829252 0.269266 -0.474735 1.000000
tan -0.812264 0.022940 -0.582677 1.000000
tan -0.796516 0.023870 0.606299 1.000000
tan -0.230454 0.970922 0.016740 1.000000
tan 0.315705 0.944882 0.044640 1.000000
tan -0.882758 0.282101 0.368033 1.000000
tan 0.222828 0.970922 -0.014880 1.000000
tan -0.057598 1.001550 0.060822 1.000000
tan -0.268585 0.955670 -0.026660 1.000000
tan -0.212970 0.976378 0.046128 1.000000
tan -0.056358 1.001550 -0.029326 1.000000
tan 0.056358 1.001550 -0.029326 1.000000
tan 0.276211 0.955670 0.028520 1.000000
tan 0.236592 0.968504 -0.045756 1.000000
tan 0.796516 0.023870 -0.606299 1.000000
tan 0.057598 1.001550 0.060822 1.000000
tan 0.882758 0.281853 -0.360531 1.000000
tan 0.812264 0.022940 0.582677 1.000000
tan 0.829004 0.269763 0.492033 1.000000
tan 0.236592 0.968504 -0.045756 1.000000
tan -0.212970 0.976378 0.046128 1.000000
tan 0.276211 0.955670 0.028520 1.000000
tan 0.796516 0.023870 -0.606299 1.000000
tan -0.268585 0.963296 -0.026350 1.000000
tan -0.796516 0.023870 0.606299 1.000000
tan 0.882758 0.281853 -0.360531 1.000000
tan 0.812264 0.022940 0.582677 1.000000
tan -0.882758 0.282101 0.368033 1.000000
tan 0.829004 0.269763 0.492033 1.000000
tan 0.315705 0.944882 0.044640 1.000000
tan 0.057598 1.001550 0.060822 1.000000
tan -0.056358 1.001550 -0.029326 1.000000
tan 0.056358 1.001550 -0.029326 1.000000
tan 0.222828 0.970922 -0.014880 1.000000
tan -0.230454 0.970922 0.016740 1.000000
tan -0.339327 0.937008 -0.044268 1.000000
tan -0.057598 1.001550 0.060822 1.000000
tan -0.829252 0.269514 -0.482237 1.000000
tan -0.812264 0.022940 -0.582677 1.000000
tan 0.236592 0.968504 -0.045756 1.000000
tan -0.212970 0.976378 0.046128 1.000000
tan 0.276211 0.955670 0.028520 1.000000
tan 0.796516 0.023870 -0.606299 1.000000
tan -0.268585 0.955670 -0.026660 1.000000
tan -0.796516 0.023870 0.606299 1.000000
tan 0.882758 0.281853 -0.360531 1.000000
tan 0.812264 0.022940 0.582677 1.000000
tan -0.882758 0.282101 0.368033 1.000000
tan 0.829004 0.269515 0.484531 1.000000
tan 0.315705 0.944882 0.044640 1.000000
tan 0.057598 1.001550 0.060822 1.000000
tan -0.056358 1.001550 -0.029326 1.000000
tan 0.056358 1.001550 -0.029326 1.000000
tan 0.222828 0.970922 -0.014880 1.000000
tan -0.230454 0.970922 0.016740 1.000000
tan -0.339327 0.937008 -0.044268 1.000000
tan -0.057598 1.001550 0.060822 1.000000
tan -0.829252 0.269514 -0.482237 1.000000
tan -0.812264 0.022940 -0.582677 1.000000
f 3/3/3 2/2/2 1/1/1
f 1/1/1 4/4/4 3/3/3
f 5/5/5 3/3/3 4/4/4
f 4/4/4 6/6/6 5/5/5
f 5/5/5 6/6/6 7/7/7
f 8/8/8 7/7/7 6/6/6
f 8/8/8 9/9/9 7/7/7
f 10/10/10 7/7/7 9/9/9
f 9/9/9 11/11/11 10/10/10
f 12/12/12 10/10/10 11/11/11
f 11/11/11 13/13/13 12/12/12
f 14/14/14 12/12/12 13/13/13
f 13/13/13 15/15/15 14/14/14
f 16/16/16 14/14/14 15/15/15
f 17/17/17 16/16/16 15/15/15
f 18/18/18 16/16/16 17/17/17
f 21/21/21 20/20/20 19/19/19
f 19/19/19 22/22/22 21/21/21
f 21/21/21 22/22/22 23/23/23
f 22/22/22 24/24/24 23/23/23
f 23/23/23 24/24/24 25/25/25
f 26/26/26 25/25/25 24/24/24
f 25/25/25 26/26/26 27/27/27
f 28/28/28 27/27/27 26/26/26
f 27/27/27 28/28/28 29/29/29
f 30/30/30 29/29/29 28/28/28
f 31/31/31 29/29/29 30/30/30
f 32/32/32 29/29/29 31/31/31
f 31/31/31 33/33/33 32/32/32
f 34/34/34 32/32/32 33/33/33
f 33/33/33 35/35/35 34/34/34
f 36/36/36 34/34/34 35/35/35
f 39/39/39 38/38/38 37/37/37
f 40/40/40 39/39/39 37/37/37
f 41/41/41 39/39/39 40/40/40
f 42/42/42 41/41/41 40/40/40
f 41/41/41 42/42/42 43/43/43
f 44/44/44 43/43/43 42/42/42
f 43/43/43 44/44/44 45/45/45
f 44/44/44 46/46/46 45/45/45
f 46/46/46 47/47/47 45/45/45
f 48/48/48 45/45/45 47/47/47
f 47/47/47 49/49/49 48/48/48
f 50/50/50 48/48/48 49/49/49
f 49/49/49 51/51/51 50/50/50
f 52/52/52 50/50/50 51/51/51
f 51/51/51 53/53/53 52/52/52
f 54/54/54 52/52/52 53/53/53
f 57/57/57 56/56/56 55/55/55
f 58/58/58 56/56/56 57/57/57
f 57/57/57 59/59/59 58/58/58
f 60/60/60 58/58/58 59/59/59
f 61/61/61 60/60/60 59/59/59
f 59/59/59 62/62/62 61/61/61
f 61/61/61 62/62/62 63/63/63
f 64/64/64 63/63/63 62/62/62
f 64/64/64 65/65/65 63/63/63
f 66/66/66 63/63/63 65/65/65
f 67/67/67 66/66/66 65/65/65
f 65/65/65 68/68/68 67/67/67
f 68/68/68 69/69/69 67/67/67
f 70/70/70 67/67/67 69/69/69
f 69/69/69 71/71/71 70/70/70
f 72/72/72 70/70/70 71/71/71
f 75/75/75 74/74/74 73/73/73
f 74/74/74 75/75/75 76/76/76
f 77/77/77 76/76/76 75/75/75
f 76/76/76 77/77/77 78/78/78
f 78/78/78 77/77/77 79/79/79
f 80/80/80 79/79/79 77/77/77
f 80/80/80 81/81/81 79/79/79
f 82/82/82 79/79/79 81/81/81
f 82/82/82 81/81/81 83/83/83
f 84/84/84 83/83/83 81/81/81
f 83/83/83 84/84/84 85/85/85
f 86/86/86 85/85/85 84/84/84
f 86/86/86 87/87/87 85/85/85
f 88/88/88 85/85/85 87/87/87
f 87/87/87 89/89/89 88/88/88
f 90/90/90 88/88/88 89/89/89
f 93/93/93 92/92/92 91/91/91
f 94/94/94 91/91/91 92/92/92
f 91/91/91 94/94/94 95/95/95
f 96/96/96 95/95/95 94/94/94
f 95/95/95 96/96/96 97/97/97
f 98/98/98 97/97/97 96/96/96
f 99/99/99 97/97/97 98/98/98
f 98/98/98 100/100/100 99/99/99
f 101/101/101 99/99/99 100/100/100
f 100/100/100 102/102/102 101/101/101
f 102/102/102 103/103/103 101/101/101
f 104/104/104 101/101/101 103/103/103
f 103/103/103 105/105/105 104/104/104
f 106/106/106 104/104/104 105/105/105
f 105/105/105 107/107/107 106/106/106
f 108/108/108 106/106/106 107/107/107
f 111/111/111 110/110/110 109/109/109
f 112/112/112 109/109/109 110/110/110
f 113/113/113 112/112/112 110/110/110
f 112/112/112 113/113/113 114/114/114
f 113/113/113 115/115/115 114/114/114
f 116/116/116 114/114/114 115/115/115
f 116/116/116 115/115/115 117/117/117
f 118/118/118 117/117/117 115/115/115
f 117/117/117 118/118/118 119/119/119
f 118/118/118 120/120/120 119/119/119
f 121/121/121 119/119/119 120/120/120
f 120/120/120 122/122/122 121/121/121
f 122/122/122 123/123/123 121/121/121
f 124/124/124 121/121/121 123/123/123
f 123/123/123 125/125/125 124/124/124
f 126/126/126 124/124/124 125/125/125
f 129/129/129 128/128/128 127/127/127
f 130/130/130 127/127/127 128/128/128
f 128/128/128 131/131/131 130/130/130
f 132/132/132 130/130/130 131/131/131
f 133/133/133 132/132/132 131/131/131
f 131/131/131 134/134/134 133/133/133
f 134/134/134 135/135/135 133/133/133
f 136/136/136 133/133/133 135/135/135
f 136/136/136 135/135/135 137/137/137
f 138/138/138 137/137/137 135/135/135
f 139/139/139 137/137/137 138/138/138
f 138/138/138 140/140/140 139/139/139
f 141/141/141 139/139/139 140/140/140
f 140/140/140 142/142/142 141/141/141
f 142/142/142 143/143/143 141/141/141
f 141/141/141 143/143/143 144/144/144
f 147/147/147 146/146/146 145/145/145
f 148/148/148 145/145/145 146/146/146
f 149/149/149 145/145/145 148/148/148
f 148/148/148 150/150/150 149/149/149
f 151/151/151 149/149/149 150/150/150
f 150/150/150 152/152/152 151/151/151
f 151/151/151 152/152/152 153/153/153
f 154/154/154 153/153/153 152/152/152
f 154/154/154 155/155/155 153/153/153
f 156/156/156 153/153/153 155/155/155
f 155/155/155 157/157/157 156/156/156
f 158/158/158 156/156/156 157/157/157
f 157/157/157 159/159/159 158/158/158
f 160/160/160 158/158/158 159/159/159
f 159/159/159 161/161/161 160/160/160
f 162/162/162 160/160/160 161/161/161
f 165/165/165 164/164/164 163/163/163
f 166/166/166 163/163/163 164/164/164
f 164/164/164 167/167/167 166/166/166
f 168/168/168 166/166/166 167/167/167
f 169/169/169 168/168/168 167/167/167
f 167/167/167 170/170/170 169/169/169
f 170/170/170 171/171/171 169/169/169
f 172/172/172 169/169/169 171/171/171
f 171/171/171 173/173/173 172/172/172
f 174/174/174 172/172/172 173/173/173
f 175/175/175 174/174/174 173/173/173
f 173/173/173 176/176/176 175/175/175
f 176/176/176 177/177/177 175/175/175
f 178/178/178 175/175/175 177/177/177
f 178/178/178 177/177/177 179/179/179
f 180/180/180 179/179/179 177/177/177
f 183/183/183 182/182/182 181/181/181
f 184/184/184 181/181/181 182/182/182
f 185/185/185 184/184/184 182/182/182
f 184/184/184 185/185/185 186/186/186
f 185/185/185 187/187/187 186/186/186
f 188/188/188 186/186/186 187/187/187
f 188/188/188 187/187/187 189/189/189
f 190/190/190 189/189/189 187/187/187
f 189/189/189 190/190/190 191/191/191
f 190/190/190 192/192/192 191/191/191
f 193/193/193 191/191/191 192/192/192
f 192/192/192 194/194/194 193/193/193
f 194/194/194 195/195/195 193/193/193
f 196/196/196 193/193/193 195/195/195
f 195/195/195 197/197/197 196/196/196
f 198/198/198 196/196/196 197/197/197
f 201/201/201 200/200/200 199/199/199
f 202/202/202 199/199/199 200/200/200
f 200/200/200 203/203/203 202/202/202
f 204/204/204 202/202/202 203/203/203
f 203/203/203 205/205/205 204/204/204
f 206/206/206 204/204/204 205/205/205
f 207/207/207 206/206/206 205/205/205
f 208/208/208 207/207/207 205/205/205
f 209/209/209 207/207/207 208/208/208
f 210/210/210 209/209/209 208/208/208
f 209/209/209 210/210/210 211/211/211
f 212/212/212 211/211/211 210/210/210
f 211/211/211 212/212/212 213/213/213
f 212/212/212 214/214/214 213/213/213
f 214/214/214 215/215/215 213/213/213
f 216/216/216 213/213/213 215/215/215
f 219/219/219 218/218/218 217/217/217
f 220/220/220 217/217/217 218/218/218
f 217/217/217 220/220/220 221/221/221
f 222/222/222 221/221/221 220/220/220
f 221/221/221 222/222/222 223/223/223
f 222/222/222 224/224/224 223/223/223
f 224/224/224 225/225/225 223/223/223
f 226/226/226 223/223/223 225/225/225
f 225/225/225 227/227/227 226/226/226
f 228/228/228 226/226/226 227/227/227
f 227/227/227 229/229/229 228/228/228
f 230/230/230 228/228/228 229/229/229
f 229/229/229 231/231/231 230/230/230
f 232/232/232 230/230/230 231/231/231
f 233/233/233 232/232/232 231/231/231
f 234/234/234 233/233/233 231/231/231
f 237/237/237 236/236/236 235/235/235
f 238/238/238 235/235/235 236/236/236
f 236/236/236 239/239/239 238/238/238
f 238/238/238 239/239/239 240/240/240
f 241/241/241 240/240/240 239/239/239
f 242/242/242 241/241/241 239/239/239
f 241/241/241 242/242/242 243/243/243
f 244/244/244 243/243/243 242/242/242
f 243/243/243 244/244/244 245/245/245
f 246/246/246 245/245/245 244/244/244
f 247/247/247 245/245/245 246/246/246
f 248/248/248 247/247/247 246/246/246
f 249/249/249 247/247/247 248/248/248
f 248/248/248 250/250/250 249/249/249
f 250/250/250 251/251/251 249/249/249
f 252/252/252 249/249/249 251/251/251
f 255/255/255 254/254/254 253/253/253
f 256/256/256 253/253/253 254/254/254
f 253/253/253 256/256/256 257/257/257
f 258/258/258 257/257/257 256/256/256
f 257/257/257 258/258/258 259/259/259
f 258/258/258 260/260/260 259/259/259
f 260/260/260 261/261/261 259/259/259
f 262/262/262 259/259/259 261/261/261
f 261/261/261 263/263/263 262/262/262
f 264/264/264 262/262/262 263/263/263
f 263/263/263 265/265/265 264/264/264
f 266/266/266 264/264/264 265/265/265
f 265/265/265 267/267/267 266/266/266
f 268/268/268 266/266/266 267/267/267
f 269/269/269 268/268/268 267/267/267
f 270/270/270 269/269/269 267/267/267
f 273/273/273 272/272/272 271/271/271
f 274/274/274 271/271/271 272/272/272
f 272/272/272 275/275/275 274/274/274
f 276/276/276 274/274/274 275/275/275
f 277/277/277 276/276/276 275/275/275
f 278/278/278 277/277/277 275/275/275
f 278/278/278 279/279/279 277/277/277
f 280/280/280 277/277/277 279/279/279
f 281/281/281 280/280/280 279/279/279
f 282/282/282 281/281/281 279/279/279
f 281/281/281 282/282/282 283/283/283
f 282/282/282 284/284/284 283/283/283
f 284/284/284 285/285/285 283/283/283
f 286/286/286 283/283/283 285/285/285
f 286/286/286 285/285/285 287/287/287
f 288/288/288 287/287/287 285/285/285
f 291/291/291 290/290/290 289/289/289
f 292/292/292 289/289/289 290/290/290
f 292/292/292 293/293/293 289/289/289
f 294/294/294 289/289/289 293/293/293
f 295/295/295 294/294/294 293/293/293
f 293/293/293 296/296/296 295/295/295
f 296/296/296 297/297/297 295/295/295
f 298/298/298 295/295/295 297/297/297
f 297/297/297 299/299/299 298/298/298
f 300/300/300 298/298/298 299/299/299
f 301/301/301 300/300/300 299/299/299
f 299/299/299 302/302/302 301/301/301
f 302/302/302 303/303/303 301/301/301
f 304/304/304 301/301/301 303/303/303
f 304/304/304 303/303/303 305/305/305
f 306/306/306 305/305/305 303/303/303
f 309/309/309 308/308/308 307/307/307
f 310/310/310 307/307/307 308/308/308
f 310/310/310 311/311/311 307/307/307
f 312/312/312 307/307/307 311/311/311
f 313/313/313 312/312/312 311/311/311
f 311/311/311 314/314/314 313/313/313
f 314/314/314 315/315/315 313/313/313
f 316/316/316 313/313/313 315/315/315
f 317/317/317 316/316/316 315/315/315
f 315/315/315 318/318/318 317/317/317
f 319/319/319 317/317/317 318/318/318
f 318/318/318 320/320/320 319/319/319
f 320/320/320 321/321/321 319/319/319
f 322/322/322 319/319/319 321/321/321
f 322/322/322 321/321/321 323/323/323
f 324/324/324 323/323/323 321/321/321
f 327/327/327 326/326/326 325/325/325
f 328/328/328 325/325/325 326/326/326
f 328/328/328 326/326/326 329/329/329
f 328/328/328 329/329/329 330/330/330
f 326/326/326 331/331/331 329/329/329
f 326/326/326 332/332/332 331/331/331
f 330/330/330 329/329/329 333/333/333
f 333/333/333 329/329/329 331/331/331
f 333/333/333 334/334/334 330/330/330
f 335/335/335 334/334/334 333/333/333
f 331/331/331 332/332/332 336/336/336
f 336/336/336 333/333/333 331/331/331
f 335/335/335 333/333/333 336/336/336
f 337/337/337 336/336/336 332/332/332
f 338/338/338 336/336/336 337/337/337
f 338/338/338 335/335/335 336/336/336
f 335/335/335 338/338/338 339/339/339
f 338/338/338 340/340/340 339/339/339
f 341/341/341 339/339/339 340/340/340
f 341/341/341 342/342/342 339/339/339
f 342/342/342 341/341/341 343/343/343
f 344/344/344 341/341/341 340/340/340
f 344/344/344 340/340/340 345/345/345
f 344/344/344 345/345/345 346/346/346
f 347/347/347 343/343/343 341/341/341
f 341/341/341 344/344/344 347/347/347
f 347/347/347 348/348/348 343/343/343
f 348/348/348 347/347/347 349/349/349
f 346/346/346 350/350/350 344/344/344
f 350/350/350 346/346/346 349/349/349
f 344/344/344 350/350/350 347/347/347
f 350/350/350 349/349/349 347/347/347
f 353/353/353 352/352/352 351/351/351
f 354/354/354 351/351/351 352/352/352
f 354/354/354 352/352/352 355/355/355
f 354/354/354 355/355/355 356/356/356
f 352/352/352 357/357/357 355/355/355
f 352/352/352 358/358/358 357/357/357
f 356/356/356 355/355/355 359/359/359
f 359/359/359 355/355/355 357/357/357
f 359/359/359 360/360/360 356/356/356
f 361/361/361 360/360/360 359/359/359
f 357/357/357 358/358/358 362/362/362
f 362/362/362 359/359/359 357/357/357
f 361/361/361 359/359/359 362/362/362
f 363/363/363 362/362/362 358/358/358
f 364/364/364 362/362/362 363/363/363
f 364/364/364 361/361/361 362/362/362
f 361/361/361 364/364/364 365/365/365
f 364/364/364 366/366/366 365/365/365
f 367/367/367 365/365/365 366/366/366
f 367/367/367 368/368/368 365/365/365
f 368/368/368 367/367/367 369/369/369
f 370/370/370 367/367/367 366/366/366
f 370/370/370 366/366/366 371/371/371
f 370/370/370 371/371/371 372/372/372
f 373/373/373 369/369/369 367/367/367
f 367/367/367 370/370/370 373/373/373
f 373/373/373 374/374/374 369/369/369
f 374/374/374 373/373/373 375/375/375
f 372/372/372 376/376/376 370/370/370
f 376/376/376 372/372/372 375/375/375
f 370/370/370 376/376/376 373/373/373
f 376/376/376 375/375/375 373/373/373
f 379/379/379 378/378/378 377/377/377
f 377/377/377 380/380/380 379/379/379
f 378/378/378 379/379/379 381/381/381
f 380/380/380 382/382/382 379/379/379
f 382/382/382 380/380/380 383/383/383
f 384/384/384 381/381/381 379/379/379
f 379/379/379 382/382/382 384/384/384
f 381/381/381 384/384/384 385/385/385
f 382/382/382 383/383/383 386/386/386
f 382/382/382 386/386/386 384/384/384
f 384/384/384 386/386/386 385/385/385
f 387/387/387 386/386/386 383/383/383
f 388/388/388 385/385/385 386/386/386
f 387/387/387 388/388/388 386/386/386
f 391/391/391 390/390/390 389/389/389
f 389/389/389 390/390/390 392/392/392
f 390/390/390 391/391/391 393/393/393
f 394/394/394 392/392/392 390/390/390
f 395/395/395 392/392/392 394/394/394
f 393/393/393 396/396/396 390/390/390
f 390/390/390 396/396/396 394/394/394
f 396/396/396 393/393/393 397/397/397
f 395/395/395 394/394/394 398/398/398
f 396/396/396 397/397/397 399/399/399
f 399/399/399 394/394/394 396/396/396
f 399/399/399 398/398/398 394/394/394
f 400/400/400 399/399/399 397/397/397
f 399/399/399 400/400/400 398/398/398
f 403/403/403 402/402/402 401/401/401
f 401/401/401 404/404/404 403/403/403
f 402/402/402 403/403/403 405/405/405
f 406/406/406 403/403/403 404/404/404
f 404/404/404 407/407/407 406/406/406
f 408/408/408 405/405/405 403/403/403
f 403/403/403 406/406/406 408/408/408
f 408/408/408 409/409/409 405/405/405
f 406/406/406 407/407/407 410/410/410
f 409/409/409 408/408/408 411/411/411
f 411/411/411 408/408/408 406/406/406
f 411/411/411 406/406/406 410/410/410
f 411/411/411 412/412/412 409/409/409
f 412/412/412 411/411/411 410/410/410
f 415/415/415 414/414/414 413/413/413
f 413/413/413 416/416/416 415/415/415
f 414/414/414 415/415/415 417/417/417
f 418/418/418 415/415/415 416/416/416
f 416/416/416 419/419/419 418/418/418
f 419/419/419 420/420/420 418/418/418
f 421/421/421 417/417/417 415/415/415
f 421/421/421 422/422/422 417/417/417
f 415/415/415 418/418/418 423/423/423
f 421/421/421 415/415/415 423/423/423
f 423/423/423 418/418/418 420/420/420
f 422/422/422 421/421/421 423/423/423
f 424/424/424 423/423/423 420/420/420
f 423/423/423 424/424/424 422/422/422
f 427/427/427 426/426/426 425/425/425
f 426/426/426 427/427/427 428/428/428
f 426/426/426 429/429/429 425/425/425
f 425/425/425 429/429/429 430/430/430
f 428/428/428 431/431/431 426/426/426
f 430/430/430 429/429/429 432/432/432
f 429/429/429 426/426/426 433/433/433
f 429/429/429 433/433/433 432/432/432
f 426/426/426 431/431/431 433/433/433
f 432/432/432 434/434/434 430/430/430
f 435/435/435 430/430/430 434/434/434
f 436/436/436 432/432/432 433/433/433
f 436/436/436 434/434/434 432/432/432
f 434/434/434 437/437/437 435/435/435
f 434/434/434 436/436/436 437/437/437
f 438/438/438 435/435/435 437/437/437
f 436/436/436 433/433/433 439/439/439
f 431/431/431 439/439/439 433/433/433
f 440/440/440 437/437/437 436/436/436
f 440/440/440 436/436/436 439/439/439
f 437/437/437 441/441/441 438/438/438
f 440/440/440 441/441/441 437/437/437
f 441/441/441 440/440/440 439/439/439
f 442/442/442 438/438/438 441/441/441
f 441/441/441 443/443/443 442/442/442
f 439/439/439 444/444/444 441/441/441
f 444/444/444 443/443/443 441/441/441
f 444/444/444 439/439/439 431/431/431
f 428/428/428 443/443/443 444/444/444
f 431/431/431 428/428/428 444/444/444
f 447/447/447 446/446/446 445/445/445
f 446/446/446 447/447/447 448/448/448
f 446/446/446 449/449/449 445/445/445
f 445/445/445 449/449/449 450/450/450
f 448/448/448 451/451/451 446/446/446
f 450/450/450 449/449/449 452/452/452
f 446/446/446 451/451/451 453/453/453
f 449/449/449 446/446/446 453/453/453
f 451/451/451 448/448/448 454/454/454
f 448/448/448 455/455/455 454/454/454
f 451/451/451 456/456/456 453/453/453
f 454/454/454 456/456/456 451/451/451
f 453/453/453 457/457/457 449/449/449
f 457/457/457 453/453/453 456/456/456
f 452/452/452 449/449/449 457/457/457
f 454/454/454 455/455/455 458/458/458
f 456/456/456 454/454/454 458/458/458
f 458/458/458 455/455/455 459/459/459
f 459/459/459 460/460/460 458/458/458
f 458/458/458 461/461/461 456/456/456
f 461/461/461 457/457/457 456/456/456
f 462/462/462 458/458/458 460/460/460
f 461/461/461 458/458/458 462/462/462
f 461/461/461 462/462/462 457/457/457
f 460/460/460 463/463/463 462/462/462
f 464/464/464 457/457/457 462/462/462
f 464/464/464 462/462/462 463/463/463
f 457/457/457 464/464/464 452/452/452
f 463/463/463 450/450/450 464/464/464
f 452/452/452 464/464/464 450/450/450
f 467/467/467 466/466/466 465/465/465
f 465/465/465 468/468/468 467/467/467
f 469/469/469 466/466/466 467/467/467
f 470/470/470 466/466/466 469/469/469
f 471/471/471 467/467/467 468/468/468
f 468/468/468 472/472/472 471/471/471
f 473/473/473 470/470/470 469/469/469
f 474/474/474 471/471/471 472/472/472
f 472/472/472 475/475/475 474/474/474
f 476/476/476 467/467/467 471/471/471
f 471/471/471 474/474/474 476/476/476
f 477/477/477 469/469/469 467/467/467
f 467/467/467 476/476/476 477/477/477
f 469/469/469 477/477/477 473/473/473
f 478/478/478 476/476/476 474/474/474
f 476/476/476 478/478/478 477/477/477
f 479/479/479 474/474/474 475/475/475
f 478/478/478 474/474/474 479/479/479
f 475/475/475 480/480/480 479/479/479
f 479/479/479 480/480/480 478/478/478
f 481/481/481 480/480/480 475/475/475
f 478/478/478 482/482/482 477/477/477
f 482/482/482 478/478/478 480/480/480
f 482/482/482 483/483/483 477/477/477
f 480/480/480 483/483/483 482/482/482
f 473/473/473 477/477/477 483/483/483
f 483/483/483 480/480/480 481/481/481
f 470/470/470 473/473/473 483/483/483
f 484/484/484 483/483/483 481/481/481
f 483/483/483 484/484/484 470/470/470
f 487/487/487 486/486/486 485/485/485
f 485/485/485 488/488/488 487/487/487
f 489/489/489 486/486/486 487/487/487
f 490/490/490 486/486/486 489/489/489
f 491/491/491 487/487/487 488/488/488
f 488/488/488 492/492/492 491/491/491
f 493/493/493 490/490/490 489/489/489
f 494/494/494 491/491/491 492/492/492
f 492/492/492 495/495/495 494/494/494
f 496/496/496 487/487/487 491/491/491
f 491/491/491 494/494/494 496/496/496
f 497/497/497 489/489/489 487/487/487
f 487/487/487 496/496/496 497/497/497
f 489/489/489 497/497/497 493/493/493
f 498/498/498 496/496/496 494/494/494
f 496/496/496 498/498/498 497/497/497
f 499/499/499 494/494/494 495/495/495
f 498/498/498 494/494/494 499/499/499
f 495/495/495 500/500/500 499/499/499
f 499/499/499 500/500/500 498/498/498
f 501/501/501 500/500/500 495/495/495
f 498/498/498 502/502/502 497/497/497
f 502/502/502 498/498/498 500/500/500
f 502/502/502 503/503/503 497/497/497
f 500/500/500 503/503/503 502/502/502
f 493/493/493 497/497/497 503/503/503
f 503/503/503 500/500/500 501/501/501
f 490/490/490 493/493/493 503/503/503
f 504/504/504 503/503/503 501/501/501
f 503/503/503 504/504/504 490/490/490
