mtllib SM_Sticker_24.mtl
g SM_Sticker_24
#Vertices 37
#Indices 105
#Section 0 Offset 0 NumIndices 105 MaterialIndex 0 MI_Posters_01
v 0.022238 0.229981 -0.000000
v 0.001352 0.201101 -0.000000
v 0.023568 0.178663 -0.000000
v 0.067336 0.233314 -0.000000
v 0.319789 0.159194 -0.000000
v 0.086886 0.240423 -0.000000
v 0.012460 0.123568 -0.000000
v 0.106215 0.266860 -0.000000
v 0.008904 0.090244 -0.000000
v 0.007794 0.122235 -0.000000
v -0.005535 0.104906 -0.000000
v 0.228451 0.270257 -0.000000
v 0.119989 0.275079 -0.000000
v 0.317301 0.286309 -0.000000
v 0.235206 0.284341 -0.000000
v 0.211485 0.279682 -0.000000
v 0.335180 0.081278 -0.000000
v 0.117323 0.284410 -0.000000
v 0.328583 0.069654 -0.000000
v 0.224993 0.306858 -0.000000
v 0.282398 -0.001037 0.000000
v 0.344291 0.005561 -0.000000
v 0.001573 0.030262 -0.000000
v 0.000000 0.000000 0.000000
v 0.101550 0.329508 -0.000000
v 0.107474 0.289976 -0.000000
v 0.112214 0.343726 -0.000000
v 0.216835 0.360610 -0.000000
v 0.201304 0.388824 -0.000000
v 0.110881 0.362165 -0.000000
v 0.115102 0.379494 -0.000000
v 0.118879 0.404153 -0.000000
v 0.199749 0.408818 -0.000000
v 0.107549 0.393712 -0.000000
v 0.109993 0.402820 -0.000000
v 0.188832 0.424234 -0.000000
v 0.116598 0.421037 -0.000000
vt 0.616699 0.252441
vt 0.606445 0.238281
vt 0.617188 0.227539
vt 0.638672 0.253906
vt 0.762207 0.217773
vt 0.648438 0.257324
vt 0.611816 0.200195
vt 0.657715 0.270508
vt 0.610352 0.184082
vt 0.609863 0.199707
vt 0.603027 0.191406
vt 0.717285 0.271973
vt 0.664551 0.274414
vt 0.760742 0.279785
vt 0.720703 0.278809
vt 0.708984 0.276855
vt 0.769531 0.179688
vt 0.663086 0.278809
vt 0.766113 0.174316
vt 0.715820 0.290039
vt 0.743652 0.139648
vt 0.773926 0.142578
vt 0.606445 0.154785
vt 0.605957 0.140137
vt 0.655273 0.300781
vt 0.658203 0.281738
vt 0.660645 0.308105
vt 0.711914 0.315918
vt 0.704102 0.330078
vt 0.660156 0.316895
vt 0.662109 0.325195
vt 0.664062 0.337402
vt 0.703613 0.339844
vt 0.658203 0.332520
vt 0.659668 0.336914
vt 0.698242 0.347168
vt 0.662598 0.345703
vt1 0.230103 0.533936
vt1 0.191772 0.480957
vt1 0.232544 0.439941
vt1 0.312744 0.540039
vt1 0.775391 0.404297
vt1 0.348633 0.552979
vt1 0.212158 0.338867
vt1 0.384033 0.601562
vt1 0.205566 0.277832
vt1 0.203613 0.336426
vt1 0.179077 0.304688
vt1 0.607910 0.607666
vt1 0.409180 0.616455
vt1 0.770996 0.637207
vt1 0.620605 0.633545
vt1 0.577148 0.625000
vt1 0.803711 0.261230
vt1 0.404297 0.633789
vt1 0.791992 0.239746
vt1 0.601562 0.674805
vt1 0.707031 0.110352
vt1 0.820801 0.122559
vt1 0.192139 0.167480
vt1 0.189331 0.112305
vt1 0.375488 0.716309
vt1 0.386230 0.643799
vt1 0.395020 0.742432
vt1 0.586914 0.773315
vt1 0.558105 0.825073
vt1 0.392578 0.776245
vt1 0.400391 0.807983
vt1 0.407227 0.853271
vt1 0.555664 0.861816
vt1 0.386475 0.834106
vt1 0.390869 0.850830
vt1 0.535645 0.890015
vt1 0.403076 0.884155
vn 0.000000 -0.000000 -1.000000
vn 0.000000 -0.000000 -1.000000
vn 0.000000 -0.000000 -1.000000
vn 0.000000 -0.000000 -1.000000
vn 0.000000 -0.000000 -1.000000
vn 0.000000 -0.000000 -1.000000
vn 0.000000 -0.000000 -1.000000
vn 0.000000 -0.000000 -1.000000
vn 0.000000 -0.000000 -1.000000
vn 0.000000 -0.000000 -1.000000
vn 0.000000 -0.000000 -1.000000
vn 0.000000 -0.000000 -1.000000
vn 0.000000 -0.000000 -1.000000
vn 0.000000 -0.000000 -1.000000
vn 0.000000 -0.000000 -1.000000
vn 0.000000 -0.000000 -1.000000
vn 0.000000 -0.000000 -1.000000
vn 0.000000 -0.000000 -1.000000
vn 0.000000 -0.000000 -1.000000
vn 0.000000 -0.000000 -1.000000
vn 0.000000 -0.000000 -1.000000
vn 0.000000 -0.000000 -1.000000
vn 0.000000 -0.000000 -1.000000
vn 0.000000 -0.000000 -1.000000
vn 0.000000 -0.000000 -1.000000
vn 0.000000 -0.000000 -1.000000
vn 0.000000 -0.000000 -1.000000
vn 0.000000 -0.000000 -1.000000
vn 0.000000 -0.000000 -1.000000
vn 0.000000 -0.000000 -1.000000
vn 0.000000 -0.000000 -1.000000
vn 0.000000 -0.000000 -1.000000
vn 0.000000 -0.000000 -1.000000
vn 0.000000 -0.000000 -1.000000
vn 0.000000 -0.000000 -1.000000
vn 0.000000 -0.000000 -1.000000
vn 0.000000 -0.000000 -1.000000
tan 0.000000 -1.000000 0.000000 1.000000
tan 0.000000 -1.000000 0.000000 1.000000
tan 0.000000 -1.000000 0.000000 1.000000
tan 0.000000 -1.000000 0.000000 1.000000
tan 0.000000 -1.000000 0.000000 1.000000
tan 0.000000 -1.000000 0.000000 1.000000
tan 0.000000 -1.000000 0.000000 1.000000
tan 0.000000 -1.000000 0.000000 1.000000
tan 0.000000 -1.000000 0.000000 1.000000
tan 0.000000 -1.000000 0.000000 1.000000
tan 0.000000 -1.000000 0.000000 1.000000
tan 0.000000 -1.000000 0.000000 1.000000
tan 0.000000 -1.000000 0.000000 1.000000
tan 0.000000 -1.000000 0.000000 1.000000
tan 0.000000 -1.000000 0.000000 1.000000
tan 0.000000 -1.000000 0.000000 1.000000
tan 0.000000 -1.000000 0.000000 1.000000
tan 0.000000 -1.000000 0.000000 1.000000
tan 0.000000 -1.000000 0.000000 1.000000
tan 0.000000 -1.000000 0.000000 1.000000
tan 0.000000 -1.000000 0.000000 1.000000
tan 0.000000 -1.000000 0.000000 1.000000
tan 0.000000 -1.000000 0.000000 1.000000
tan 0.000000 -1.000000 0.000000 1.000000
tan 0.000000 -1.000000 0.000000 1.000000
tan 0.000000 -1.000000 0.000000 1.000000
tan 0.000000 -1.000000 0.000000 1.000000
tan 0.000000 -1.000000 0.000000 1.000000
tan 0.000000 -1.000000 0.000000 1.000000
tan 0.000000 -1.000000 0.000000 1.000000
tan 0.000000 -1.000000 0.000000 1.000000
tan 0.000000 -1.000000 0.000000 1.000000
tan 0.000000 -1.000000 0.000000 1.000000
tan 0.000000 -1.000000 0.000000 1.000000
tan 0.000000 -1.000000 0.000000 1.000000
tan 0.000000 -1.000000 0.000000 1.000000
tan 0.000000 -1.000000 0.000000 1.000000
f 3/3/3 2/2/2 1/1/1
f 3/3/3 1/1/1 4/4/4
f 3/3/3 4/4/4 5/5/5
f 6/6/6 5/5/5 4/4/4
f 7/7/7 3/3/3 5/5/5
f 6/6/6 8/8/8 5/5/5
f 7/7/7 5/5/5 9/9/9
f 9/9/9 10/10/10 7/7/7
f 9/9/9 11/11/11 10/10/10
f 5/5/5 8/8/8 12/12/12
f 8/8/8 13/13/13 12/12/12
f 5/5/5 12/12/12 14/14/14
f 15/15/15 14/14/14 12/12/12
f 16/16/16 12/12/12 13/13/13
f 17/17/17 9/9/9 5/5/5
f 13/13/13 18/18/18 16/16/16
f 19/19/19 9/9/9 17/17/17
f 16/16/16 18/18/18 20/20/20
f 21/21/21 9/9/9 19/19/19
f 19/19/19 22/22/22 21/21/21
f 23/23/23 9/9/9 21/21/21
f 21/21/21 24/24/24 23/23/23
f 25/25/25 20/20/20 18/18/18
f 26/26/26 25/25/25 18/18/18
f 25/25/25 27/27/27 20/20/20
f 28/28/28 20/20/20 27/27/27
f 28/28/28 27/27/27 29/29/29
f 30/30/30 29/29/29 27/27/27
f 30/30/30 31/31/31 29/29/29
f 31/31/31 32/32/32 29/29/29
f 33/33/33 29/29/29 32/32/32
f 34/34/34 32/32/32 31/31/31
f 35/35/35 32/32/32 34/34/34
f 33/33/33 32/32/32 36/36/36
f 37/37/37 36/36/36 32/32/32
