mtllib SM_Stairs_Step_01.mtl
g SM_Stairs_Step_01
#Vertices 48
#Indices 96
#Section 0 Offset 0 NumIndices 96 MaterialIndex 0 MI_Stairs_01
v -0.000000 0.039484 0.030216
v 1.459353 0.039484 0.373952
v 1.459354 0.039484 0.030216
v -0.000000 0.039484 0.373953
v 1.459354 0.039484 0.030216
v 1.459353 0.079484 0.373952
v 1.459354 0.079484 -0.000845
v 1.459353 0.039484 0.373952
v 1.459353 0.039484 0.373952
v -0.000000 0.039484 0.373953
v 1.459353 0.079484 0.373952
v -0.000000 0.079484 0.373953
v 0.021054 0.000000 0.000000
v 1.438300 -0.000000 0.042000
v 1.438300 -0.000000 -0.000000
v 0.021054 -0.000000 0.042000
v 1.459354 0.079484 -0.000845
v 1.459354 0.068544 -0.011784
v 1.459354 0.039484 0.030216
v 1.459354 0.021935 -0.011784
v 1.459354 0.021935 0.030216
v 1.438300 -0.000000 -0.000000
v 1.438300 -0.000000 0.042000
v -0.000000 0.079484 -0.000845
v 1.459353 0.079484 0.373952
v -0.000000 0.079484 0.373953
v 1.459354 0.079484 -0.000845
v 0.000000 0.068544 -0.011784
v 1.459354 0.068544 -0.011784
v 0.000000 0.021935 -0.011784
v 1.459354 0.021935 -0.011784
v 0.021054 0.000000 0.000000
v 1.438300 -0.000000 -0.000000
v 0.021054 0.000000 0.000000
v -0.000000 0.021935 0.030216
v 0.021054 -0.000000 0.042000
v 0.000000 0.021935 -0.011784
v -0.000000 0.039484 0.030216
v 0.000000 0.068544 -0.011784
v -0.000000 0.079484 -0.000845
v -0.000000 0.079484 0.373953
v -0.000000 0.039484 0.373953
v -0.000000 0.039484 0.030216
v 1.459354 0.039484 0.030216
v 1.459354 0.021935 0.030216
v -0.000000 0.021935 0.030216
v 0.021054 -0.000000 0.042000
v 1.438300 -0.000000 0.042000
vt 1.016602 0.936951
vt 1.756836 0.757812
vt 1.756836 0.936951
vt 1.016602 0.757812
vt 0.798828 0.971100
vt 0.815918 0.816040
vt 0.816406 0.984436
vt 0.798828 0.816040
vt 0.839844 0.008301
vt 0.839844 0.748291
vt 0.819824 0.008301
vt 0.819824 0.748291
vt 0.878906 0.008301
vt 0.899902 0.727295
vt 0.878906 0.727295
vt 0.899902 0.008301
vt 0.816406 0.984436
vt 0.812012 0.989151
vt 0.798828 0.971100
vt 0.791992 0.989410
vt 0.791504 0.971222
vt 0.778809 0.984482
vt 0.778320 0.966309
vt 1.450195 0.011230
vt 1.255859 0.751099
vt 1.255859 0.011230
vt 1.450195 0.751099
vt 1.458008 0.011230
vt 1.458008 0.751099
vt 1.481445 0.011230
vt 1.481445 0.751099
vt 1.493164 0.021484
vt 1.493164 0.740723
vt 0.976074 0.975861
vt 0.963379 0.962616
vt 0.976562 0.957672
vt 0.962891 0.980789
vt 0.956055 0.962494
vt 0.942871 0.980530
vt 0.938477 0.975815
vt 0.938965 0.807373
vt 0.956055 0.807373
vt 1.749023 0.967285
vt 1.008789 0.967285
vt 1.008789 0.958496
vt 1.749023 0.958496
vt 1.738281 0.946045
vt 1.019531 0.946045
vt1 0.277588 0.104492
vt1 0.440430 0.795410
vt1 0.277588 0.795410
vt1 0.440430 0.104492
vt1 0.913574 0.598877
vt1 0.895020 0.761719
vt1 0.894043 0.584473
vt1 0.914062 0.761719
vt1 0.175415 0.820190
vt1 0.175415 0.129395
vt1 0.194336 0.820190
vt1 0.194336 0.129395
vt1 0.796875 0.114746
vt1 0.816895 0.785645
vt1 0.796875 0.785645
vt1 0.816895 0.114746
vt1 0.894043 0.584473
vt1 0.899414 0.579102
vt1 0.913574 0.598877
vt1 0.921387 0.578613
vt1 0.921875 0.598389
vt1 0.935547 0.583740
vt1 0.936523 0.603516
vt1 0.555176 0.805542
vt1 0.732422 0.114746
vt1 0.732422 0.805542
vt1 0.555176 0.114746
vt1 0.547363 0.805542
vt1 0.547363 0.114746
vt1 0.525391 0.805542
vt1 0.525391 0.114746
vt1 0.513672 0.795532
vt1 0.513672 0.125000
vt1 0.881836 0.120117
vt1 0.895508 0.134766
vt1 0.881348 0.139648
vt1 0.896484 0.114746
vt1 0.903809 0.135254
vt1 0.918457 0.115723
vt1 0.923340 0.120605
vt1 0.922363 0.298340
vt1 0.903320 0.297852
vt1 0.089355 0.125000
vt1 0.089355 0.815796
vt1 0.081055 0.815796
vt1 0.081055 0.125000
vt1 0.069275 0.135254
vt1 0.069275 0.805908
vn 0.000000 -1.000000 0.000000
vn 0.000000 -1.000000 0.000000
vn 0.000000 -1.000000 0.000000
vn 0.000000 -1.000000 0.000000
vn 1.000000 0.000000 0.000000
vn 1.000000 0.000000 0.000000
vn 1.000000 0.000000 0.000000
vn 1.000000 0.000000 0.000000
vn 0.000000 0.000000 1.000000
vn 0.000000 0.000000 1.000000
vn 0.000000 0.000000 1.000000
vn 0.000000 0.000000 1.000000
vn 0.000000 -1.000000 0.000000
vn 0.000000 -1.000000 0.000000
vn 0.000000 -1.000000 0.000000
vn 0.000000 -1.000000 0.000000
vn 1.000000 0.000000 0.000000
vn 1.000000 0.000000 0.000000
vn 1.000000 0.000000 0.000000
vn 0.944882 -0.322835 0.000000
vn 0.913386 -0.409449 0.000000
vn 0.724409 -0.692913 0.000000
vn 0.724409 -0.692913 0.000000
vn 0.000000 0.921260 -0.385827
vn 0.000000 1.000000 -0.000000
vn 0.000000 1.000000 -0.000000
vn 0.000000 0.921260 -0.385827
vn 0.000000 0.385827 -0.921260
vn 0.000000 0.385827 -0.921260
vn 0.000000 -0.173228 -0.984252
vn 0.000000 -0.173228 -0.984252
vn 0.000000 -0.472441 -0.881890
vn 0.000000 -0.472441 -0.881890
vn -0.724409 -0.692913 0.000000
vn -0.913386 -0.409449 0.000000
vn -0.724409 -0.692913 0.000000
vn -0.944882 -0.322835 0.000000
vn -1.000000 0.000000 0.000000
vn -1.000000 0.000000 0.000000
vn -1.000000 0.000000 0.000000
vn -1.000000 0.000000 0.000000
vn -1.000000 0.000000 0.000000
vn 0.000000 0.000000 1.000000
vn 0.000000 0.000000 1.000000
vn 0.000000 0.173228 0.984252
vn 0.000000 0.173228 0.984252
vn 0.000000 0.472441 0.881890
vn 0.000000 0.472441 0.881890
tan 0.000000 0.000000 1.000000 1.000000
tan 0.000000 0.000000 1.000000 1.000000
tan 0.000000 0.000000 1.000000 1.000000
tan 0.000000 0.000000 1.000000 1.000000
tan 0.000000 0.031496 1.000000 1.000000
tan 0.000000 0.007874 1.000000 1.000000
tan 0.000000 0.031496 1.000000 1.000000
tan 0.000000 0.000000 1.000000 1.000000
tan 1.000000 0.000000 0.000000 1.000000
tan 1.000000 0.000000 0.000000 1.000000
tan 1.000000 0.000000 0.000000 1.000000
tan 1.000000 0.000000 0.000000 1.000000
tan -1.000000 0.000000 0.000000 1.000000
tan -1.000000 0.000000 0.000000 1.000000
tan -1.000000 0.000000 0.000000 1.000000
tan -1.000000 0.000000 0.000000 1.000000
tan 0.000000 0.000000 1.000000 1.000000
tan 0.000000 0.007874 1.000000 1.000000
tan 0.000000 0.015748 1.000000 1.000000
tan 0.005084 0.014880 0.997024 1.000000
tan 0.006448 0.014384 1.001922 1.000000
tan 0.010912 0.011408 1.004898 1.000000
tan 0.010912 0.011408 1.004898 1.000000
tan -0.997582 0.000000 0.000000 1.000000
tan -1.000000 0.000000 0.000000 1.000000
tan -1.000000 0.000000 0.000000 1.000000
tan -0.997582 0.000000 0.000000 1.000000
tan -0.997582 0.000000 0.000000 1.000000
tan -0.997582 0.000000 0.000000 1.000000
tan -0.998760 -0.007750 0.001364 1.000000
tan -0.998760 0.007750 -0.001364 1.000000
tan -1.000930 -0.006944 0.003720 1.000000
tan -1.000930 0.013888 -0.007440 1.000000
tan -0.010912 0.011408 1.004898 1.000000
tan -0.006448 0.014384 1.001922 1.000000
tan -0.010912 0.011408 1.004898 1.000000
tan -0.005084 0.014880 0.997024 1.000000
tan 0.000000 0.023622 1.000000 1.000000
tan 0.000000 0.007874 1.000000 1.000000
tan 0.000000 0.015748 1.000000 1.000000
tan 0.000000 0.007874 1.000000 1.000000
tan 0.000000 0.000000 1.000000 1.000000
tan 0.000000 -1.000000 0.000000 1.000000
tan 0.000000 -1.000000 0.000000 1.000000
tan 0.000000 -0.984252 0.173228 1.000000
tan 0.000000 -0.984252 0.173228 1.000000
tan 0.000000 -0.881890 0.472441 1.000000
tan 0.000000 -0.881890 0.472441 1.000000
f 3/3/3 2/2/2 1/1/1
f 4/4/4 1/1/1 2/2/2
f 7/7/7 6/6/6 5/5/5
f 8/8/8 5/5/5 6/6/6
f 11/11/11 10/10/10 9/9/9
f 10/10/10 11/11/11 12/12/12
f 15/15/15 14/14/14 13/13/13
f 16/16/16 13/13/13 14/14/14
f 19/19/19 18/18/18 17/17/17
f 20/20/20 18/18/18 19/19/19
f 21/21/21 20/20/20 19/19/19
f 21/21/21 22/22/22 20/20/20
f 23/23/23 22/22/22 21/21/21
f 26/26/26 25/25/25 24/24/24
f 27/27/27 24/24/24 25/25/25
f 28/28/28 24/24/24 27/27/27
f 29/29/29 28/28/28 27/27/27
f 30/30/30 28/28/28 29/29/29
f 31/31/31 30/30/30 29/29/29
f 32/32/32 30/30/30 31/31/31
f 33/33/33 32/32/32 31/31/31
f 36/36/36 35/35/35 34/34/34
f 37/37/37 34/34/34 35/35/35
f 35/35/35 38/38/38 37/37/37
f 39/39/39 37/37/37 38/38/38
f 39/39/39 38/38/38 40/40/40
f 38/38/38 41/41/41 40/40/40
f 41/41/41 38/38/38 42/42/42
f 45/45/45 44/44/44 43/43/43
f 46/46/46 45/45/45 43/43/43
f 46/46/46 47/47/47 45/45/45
f 48/48/48 45/45/45 47/47/47
