mtllib SM_Sticker_25.mtl
g SM_Sticker_25
#Vertices 15
#Indices 39
#Section 0 Offset 0 NumIndices 39 MaterialIndex 0 MI_Posters_01
v 0.030383 0.008324 -0.000000
v -0.050208 0.031102 -0.000000
v 0.000000 0.000000 0.000000
v -0.072202 0.067314 -0.000000
v 0.044207 0.018849 -0.000000
v 0.060020 0.067498 -0.000000
v 0.062759 0.101079 -0.000000
v 0.065766 0.074011 -0.000000
v 0.070771 0.090240 -0.000000
v -0.063041 0.150565 -0.000000
v -0.018471 0.177791 -0.000000
v -0.041076 0.170355 -0.000000
v 0.007465 0.176796 -0.000000
v 0.060089 0.126213 -0.000000
v 0.045951 0.162658 -0.000000
vt 0.817871 0.199219
vt 0.778320 0.210449
vt 0.802734 0.195312
vt 0.767578 0.228027
vt 0.824219 0.204102
vt 0.832031 0.228027
vt 0.833496 0.244629
vt 0.834961 0.231445
vt 0.837402 0.239258
vt 0.771973 0.268555
vt 0.793945 0.281738
vt 0.782715 0.278320
vt 0.806641 0.281250
vt 0.832031 0.256836
vt 0.825195 0.274414
vt1 0.636230 0.146973
vt1 0.282715 0.246582
vt1 0.502930 0.110352
vt1 0.186279 0.405762
vt1 0.696777 0.192871
vt1 0.766113 0.406250
vt1 0.778320 0.553467
vt1 0.791504 0.435059
vt1 0.813477 0.506104
vt1 0.226562 0.770630
vt1 0.421875 0.890015
vt1 0.322754 0.857422
vt1 0.535645 0.885681
vt1 0.766602 0.663818
vt1 0.704590 0.823608
vn 0.000000 -0.000000 -1.000000
vn 0.000000 -0.000000 -1.000000
vn 0.000000 -0.000000 -1.000000
vn 0.000000 -0.000000 -1.000000
vn 0.000000 -0.000000 -1.000000
vn 0.000000 -0.000000 -1.000000
vn 0.000000 -0.000000 -1.000000
vn 0.000000 -0.000000 -1.000000
vn 0.000000 -0.000000 -1.000000
vn 0.000000 -0.000000 -1.000000
vn 0.000000 -0.000000 -1.000000
vn 0.000000 -0.000000 -1.000000
vn 0.000000 -0.000000 -1.000000
vn 0.000000 -0.000000 -1.000000
vn 0.000000 -0.000000 -1.000000
tan 0.000000 -1.000000 0.000000 1.000000
tan 0.000000 -1.000000 0.000000 1.000000
tan 0.000000 -1.000000 0.000000 1.000000
tan 0.000000 -1.000000 0.000000 1.000000
tan 0.000000 -1.000000 0.000000 1.000000
tan 0.000000 -1.000000 0.000000 1.000000
tan 0.000000 -1.000000 0.000000 1.000000
tan 0.000000 -1.000000 0.000000 1.000000
tan 0.000000 -1.000000 0.000000 1.000000
tan 0.000000 -1.000000 0.000000 1.000000
tan 0.000000 -1.000000 0.000000 1.000000
tan 0.000000 -1.000000 0.000000 1.000000
tan 0.000000 -1.000000 0.000000 1.000000
tan 0.000000 -1.000000 0.000000 1.000000
tan 0.000000 -1.000000 0.000000 1.000000
f 3/3/3 2/2/2 1/1/1
f 2/2/2 4/4/4 1/1/1
f 6/6/6 5/5/5 1/1/1
f 4/4/4 6/6/6 1/1/1
f 6/6/6 4/4/4 7/7/7
f 6/6/6 7/7/7 8/8/8
f 9/9/9 8/8/8 7/7/7
f 4/4/4 10/10/10 7/7/7
f 12/12/12 11/11/11 10/10/10
f 11/11/11 13/13/13 10/10/10
f 10/10/10 13/13/13 7/7/7
f 14/14/14 7/7/7 13/13/13
f 15/15/15 14/14/14 13/13/13
