mtllib SM_Sticker_15.mtl
g SM_Sticker_15
#Vertices 5
#Indices 9
#Section 0 Offset 0 NumIndices 9 MaterialIndex 0 MI_Posters_01
v 0.002032 0.134783 -0.000000
v 0.210220 0.036773 -0.000000
v 0.213499 0.132277 -0.000000
v 0.192702 -0.000025 0.000000
v 0.000000 0.000000 0.000000
vt 0.493896 0.168945
vt 0.595215 0.121094
vt 0.597168 0.167480
vt 0.586914 0.103027
vt 0.492920 0.103027
vt1 0.117371 0.746338
vt1 0.877930 0.388672
vt1 0.889648 0.737305
vt1 0.813965 0.253906
vt1 0.109985 0.253906
vn 0.000000 -0.000000 -1.000000
vn 0.000000 -0.000000 -1.000000
vn 0.000000 -0.000000 -1.000000
vn 0.000000 -0.000000 -1.000000
vn 0.000000 -0.000000 -1.000000
tan 0.000000 -1.000000 0.000000 1.000000
tan 0.000000 -1.000000 0.000000 1.000000
tan 0.000000 -1.000000 0.000000 1.000000
tan 0.000000 -1.000000 0.000000 1.000000
tan 0.000000 -1.000000 0.000000 1.000000
f 3/3/3 2/2/2 1/1/1
f 2/2/2 4/4/4 1/1/1
f 5/5/5 1/1/1 4/4/4
