mtllib SM_Sticker_26.mtl
g SM_Sticker_26
#Vertices 30
#Indices 84
#Section 0 Offset 0 NumIndices 84 MaterialIndex 0 MI_Posters_01
v 0.125198 0.242461 -0.000000
v 0.088764 0.263279 -0.000000
v 0.049938 0.263338 -0.000000
v 0.137639 0.181367 -0.000000
v 0.014121 0.242618 -0.000000
v -0.020784 0.168968 -0.000000
v 0.150081 0.165150 -0.000000
v 0.144972 0.135159 -0.000000
v -0.013212 0.105793 -0.000000
v -0.043387 0.101254 -0.000000
v -0.040230 0.179625 -0.000000
v -0.080602 0.158575 -0.000000
v -0.085944 0.118675 -0.000000
v -0.006771 0.087728 -0.000000
v 0.130495 0.064477 -0.000000
v 0.176046 0.116507 -0.000000
v 0.147931 0.064477 -0.000000
v 0.173065 0.081913 -0.000000
v 0.129080 0.039971 -0.000000
v 0.117298 0.038400 -0.000000
v 0.006739 0.072333 -0.000000
v 0.065201 0.014266 -0.000000
v 0.124367 0.027875 -0.000000
v 0.093918 -0.006243 0.000000
v 0.121540 0.002269 -0.000000
v 0.016919 0.010124 -0.000000
v 0.047861 0.001224 -0.000000
v -0.009654 0.064542 -0.000000
v -0.018437 0.043027 -0.000000
v -0.000000 0.000000 -0.000000
vt 0.811035 0.405273
vt 0.792969 0.415527
vt 0.774414 0.415527
vt 0.816895 0.375488
vt 0.756836 0.405762
vt 0.739746 0.369629
vt 0.823242 0.367676
vt 0.820801 0.353027
vt 0.743164 0.338867
vt 0.728516 0.336426
vt 0.729980 0.375000
vt 0.710449 0.364258
vt 0.708008 0.345215
vt 0.746582 0.330078
vt 0.813477 0.318359
vt 0.835938 0.343750
vt 0.822266 0.318359
vt 0.834473 0.327148
vt 0.812988 0.306641
vt 0.807129 0.305664
vt 0.752930 0.322266
vt 0.781738 0.293945
vt 0.810547 0.300781
vt 0.795410 0.284180
vt 0.809082 0.288086
vt 0.757812 0.291992
vt 0.772949 0.287598
vt 0.745117 0.318359
vt 0.740723 0.308105
vt 0.750000 0.287109
vt1 0.731445 0.829712
vt1 0.626465 0.889832
vt1 0.513672 0.890015
vt1 0.767578 0.652832
vt1 0.410400 0.830078
vt1 0.309326 0.617188
vt1 0.803711 0.605957
vt1 0.789062 0.519287
vt1 0.331299 0.434570
vt1 0.244019 0.421387
vt1 0.253174 0.647949
vt1 0.136353 0.586914
vt1 0.120972 0.471680
vt1 0.349854 0.382324
vt1 0.747070 0.314941
vt1 0.878906 0.465332
vt1 0.797363 0.314941
vt1 0.870117 0.365234
vt1 0.742676 0.244141
vt1 0.708984 0.239258
vt1 0.388916 0.337402
vt1 0.558105 0.169434
vt1 0.729004 0.208984
vt1 0.641113 0.110352
vt1 0.721191 0.134766
vt1 0.418457 0.157715
vt1 0.507812 0.131836
vt1 0.341553 0.314941
vt1 0.316162 0.252930
vt1 0.369629 0.128418
vn 0.000000 -0.000000 -1.000000
vn 0.000000 -0.000000 -1.000000
vn 0.000000 -0.000000 -1.000000
vn 0.000000 -0.000000 -1.000000
vn 0.000000 -0.000000 -1.000000
vn 0.000000 -0.000000 -1.000000
vn 0.000000 -0.000000 -1.000000
vn 0.000000 -0.000000 -1.000000
vn 0.000000 -0.000000 -1.000000
vn 0.000000 -0.000000 -1.000000
vn 0.000000 -0.000000 -1.000000
vn 0.000000 -0.000000 -1.000000
vn 0.000000 -0.000000 -1.000000
vn 0.000000 -0.000000 -1.000000
vn 0.000000 -0.000000 -1.000000
vn 0.000000 -0.000000 -1.000000
vn 0.000000 -0.000000 -1.000000
vn 0.000000 -0.000000 -1.000000
vn 0.000000 -0.000000 -1.000000
vn 0.000000 -0.000000 -1.000000
vn 0.000000 -0.000000 -1.000000
vn 0.000000 -0.000000 -1.000000
vn 0.000000 -0.000000 -1.000000
vn 0.000000 -0.000000 -1.000000
vn 0.000000 -0.000000 -1.000000
vn 0.000000 -0.000000 -1.000000
vn 0.000000 -0.000000 -1.000000
vn 0.000000 -0.000000 -1.000000
vn 0.000000 -0.000000 -1.000000
vn 0.000000 -0.000000 -1.000000
tan 0.000000 -1.000000 0.000000 1.000000
tan 0.000000 -1.000000 0.000000 1.000000
tan 0.000000 -1.000000 0.000000 1.000000
tan 0.000000 -1.000000 0.000000 1.000000
tan 0.000000 -1.000000 0.000000 1.000000
tan 0.000000 -1.000000 0.000000 1.000000
tan 0.000000 -1.000000 0.000000 1.000000
tan 0.000000 -1.000000 0.000000 1.000000
tan 0.000000 -1.000000 0.000000 1.000000
tan 0.000000 -1.000000 0.000000 1.000000
tan 0.000000 -1.000000 0.000000 1.000000
tan 0.000000 -1.000000 0.000000 1.000000
tan 0.000000 -1.000000 0.000000 1.000000
tan 0.000000 -1.000000 0.000000 1.000000
tan 0.000000 -1.000000 0.000000 1.000000
tan 0.000000 -1.000000 0.000000 1.000000
tan 0.000000 -1.000000 0.000000 1.000000
tan 0.000000 -1.000000 0.000000 1.000000
tan 0.000000 -1.000000 0.000000 1.000000
tan 0.000000 -1.000000 0.000000 1.000000
tan 0.000000 -1.000000 0.000000 1.000000
tan 0.000000 -1.000000 0.000000 1.000000
tan 0.000000 -1.000000 0.000000 1.000000
tan 0.000000 -1.000000 0.000000 1.000000
tan 0.000000 -1.000000 0.000000 1.000000
tan 0.000000 -1.000000 0.000000 1.000000
tan 0.000000 -1.000000 0.000000 1.000000
tan 0.000000 -1.000000 0.000000 1.000000
tan 0.000000 -1.000000 0.000000 1.000000
tan 0.000000 -1.000000 0.000000 1.000000
f 3/3/3 2/2/2 1/1/1
f 1/1/1 4/4/4 3/3/3
f 5/5/5 3/3/3 4/4/4
f 5/5/5 4/4/4 6/6/6
f 7/7/7 6/6/6 4/4/4
f 7/7/7 8/8/8 6/6/6
f 9/9/9 6/6/6 8/8/8
f 6/6/6 9/9/9 10/10/10
f 6/6/6 10/10/10 11/11/11
f 12/12/12 11/11/11 10/10/10
f 13/13/13 12/12/12 10/10/10
f 9/9/9 8/8/8 14/14/14
f 15/15/15 14/14/14 8/8/8
f 8/8/8 16/16/16 15/15/15
f 15/15/15 16/16/16 17/17/17
f 18/18/18 17/17/17 16/16/16
f 14/14/14 15/15/15 19/19/19
f 19/19/19 20/20/20 14/14/14
f 21/21/21 14/14/14 20/20/20
f 21/21/21 20/20/20 22/22/22
f 23/23/23 22/22/22 20/20/20
f 25/25/25 24/24/24 23/23/23
f 22/22/22 23/23/23 24/24/24
f 22/22/22 26/26/26 21/21/21
f 22/22/22 27/27/27 26/26/26
f 28/28/28 21/21/21 26/26/26
f 28/28/28 26/26/26 29/29/29
f 30/30/30 29/29/29 26/26/26
