mtllib SM_Soda_Can_01_LOD2.mtl
g SM_Soda_Can_01_LOD2
#Vertices 363
#Indices 1560
#Section 0 Offset 0 NumIndices 1560 MaterialIndex 0 MI_Small_Props_01
v 0.011476 0.128941 -0.012051
v 0.006962 0.128640 -0.007501
v 0.011748 0.128252 -0.019127
v 0.000407 0.127895 -0.022740
v -0.006958 0.128645 -0.007489
v -0.011720 0.128247 -0.019127
v -0.011455 0.128941 -0.012059
v -0.004406 0.129193 0.025070
v 0.004434 0.129193 0.025070
v 0.004846 0.122480 0.027566
v -0.010657 0.120985 0.027665
v -0.012714 0.129193 0.022046
v 0.005955 0.116358 0.033747
v -0.019487 0.129193 0.016363
v -0.016729 0.117529 0.029896
v -0.029045 0.121256 0.008707
v -0.023907 0.129193 0.008707
v -0.025443 0.129193 -0.000000
v -0.023907 0.129193 -0.008707
v -0.006384 0.112938 0.034688
v 0.006132 0.112913 0.034700
v 0.006132 0.009314 0.034700
v -0.026845 0.121222 -0.012506
v -0.019487 0.129193 -0.016363
v -0.006104 0.009314 0.034700
v 0.005935 0.005326 0.033498
v -0.007049 0.005269 0.033047
v -0.017878 0.112935 0.030400
v -0.022421 0.009802 0.027777
v -0.016766 0.005170 0.029064
v -0.025695 0.005170 0.021572
v -0.026987 0.112914 0.022656
v -0.033100 0.009460 0.012078
v -0.031522 0.005170 0.011478
v -0.031366 0.117615 0.011792
v -0.033096 0.112913 0.012051
v -0.030616 0.117679 -0.015734
v -0.034985 0.112793 -0.007824
v -0.035221 0.087013 -0.000000
v -0.035248 0.035214 -0.000000
v -0.031829 0.079563 -0.011846
v -0.035363 0.009483 0.000953
v -0.033546 0.005170 0.000000
v -0.031522 0.005170 -0.011478
v -0.032508 0.035214 -0.011837
v -0.031821 0.009916 -0.016486
v -0.025695 0.005170 -0.021572
v -0.025306 0.083266 -0.021767
v -0.016704 0.009503 -0.031193
v -0.016644 0.005220 -0.028986
v -0.020995 0.035259 -0.026703
v 0.000023 0.009819 -0.035774
v -0.005814 0.005170 -0.033050
v 0.005842 0.005170 -0.033050
v 0.016794 0.005170 -0.029064
v -0.005866 0.035214 -0.033350
v 0.017486 0.009504 -0.030657
v 0.025723 0.005170 -0.021572
v 0.006028 0.035214 -0.034105
v -0.009942 0.083103 -0.032899
v 0.031562 0.009861 -0.016912
v 0.031550 0.005170 -0.011478
v -0.023108 0.113014 -0.027287
v 0.035326 0.009509 0.000539
v 0.033574 0.005170 -0.000000
v 0.031550 0.005170 0.011478
v -0.011879 0.117628 -0.031631
v 0.033059 0.009445 0.012362
v 0.022921 0.005276 0.025153
v -0.006104 0.112913 -0.034700
v -0.011228 0.120972 -0.027783
v -0.012714 0.129193 -0.022046
v -0.004406 0.129193 -0.025070
v 0.005441 0.117578 -0.033098
v 0.010310 0.121095 -0.027570
v 0.004434 0.129193 -0.025070
v 0.012742 0.129193 -0.022046
v 0.019515 0.129193 -0.016363
v 0.011061 0.113177 -0.034198
v 0.022528 0.117455 -0.025768
v 0.025146 0.121019 -0.015956
v 0.025624 0.128769 0.000184
v 0.024458 0.129268 -0.008866
v 0.006141 0.084420 -0.034326
v 0.017711 0.080619 -0.029809
v 0.029911 0.113061 -0.019328
v 0.025719 0.066370 -0.022888
v 0.032286 0.117631 -0.009956
v 0.035346 0.062182 -0.004392
v 0.031937 0.086032 -0.003453
v 0.035635 0.113007 0.005075
v 0.032740 0.076546 0.012733
v 0.032132 0.117728 0.009195
v 0.023595 0.009865 0.027208
v 0.005935 0.005326 0.033498
v 0.006132 0.009314 0.034700
v 0.006132 0.112913 0.034700
v 0.026979 0.112932 0.022713
v 0.017712 0.112931 0.030489
v 0.005955 0.116358 0.033747
v 0.022681 0.117498 0.025164
v 0.004846 0.122480 0.027566
v 0.012742 0.129193 0.022046
v 0.004434 0.129193 0.025070
v 0.014794 0.121167 0.024864
v 0.019515 0.129193 0.016363
v 0.029043 0.121128 0.009318
v 0.023936 0.129193 0.008707
v -0.024623 0.129176 -0.004291
v -0.015476 0.129030 0.019831
v -0.022810 0.128992 0.008307
v -0.016346 0.129064 -0.019530
v -0.011455 0.128941 -0.012059
v -0.011720 0.128247 -0.019127
v -0.006958 0.128645 -0.007489
v 0.000407 0.127895 -0.022740
v 0.000073 0.129022 0.024890
v 0.000025 0.129338 -0.024730
v 0.006962 0.128640 -0.007501
v 0.012158 0.128992 -0.021034
v 0.012158 0.128992 0.021034
v 0.011748 0.128252 -0.019127
v 0.011476 0.128941 -0.012051
v 0.022354 0.129161 -0.011603
v 0.018620 0.128992 0.015612
v 0.024651 0.129176 0.004291
v 0.018620 0.128992 0.015612
v 0.012280 0.131321 0.021246
v 0.012158 0.128992 0.021034
v 0.018807 0.131321 0.015769
v 0.012918 0.131377 0.022350
v 0.023067 0.131321 0.008391
v 0.024651 0.129176 0.004291
v 0.019784 0.131377 0.016589
v 0.013031 0.129265 0.022547
v 0.024266 0.131377 0.008827
v 0.024547 0.131321 -0.000000
v 0.022354 0.129161 -0.011603
v 0.025822 0.131377 -0.000000
v 0.023067 0.131321 -0.008391
v 0.019958 0.129265 0.016735
v 0.012742 0.129193 0.022046
v 0.019515 0.129193 0.016363
v 0.024479 0.129265 0.008905
v 0.023936 0.129193 0.008707
v 0.026049 0.129265 -0.000000
v 0.025624 0.128769 0.000184
v 0.024458 0.129268 -0.008866
v 0.024266 0.131377 -0.008827
v 0.018807 0.131321 -0.015769
v 0.019784 0.131377 -0.016589
v 0.019958 0.129265 -0.016735
v 0.019515 0.129193 -0.016363
v 0.012742 0.129193 -0.022046
v 0.013031 0.129265 -0.022547
v 0.012918 0.131377 -0.022350
v 0.012280 0.131321 -0.021246
v 0.012158 0.128992 -0.021034
v 0.004535 0.129265 -0.025640
v 0.004434 0.129193 -0.025070
v 0.004496 0.131377 -0.025416
v 0.004274 0.131321 -0.024160
v 0.000025 0.129338 -0.024730
v -0.004246 0.131321 -0.024160
v -0.016346 0.129064 -0.019530
v -0.004507 0.129265 -0.025640
v -0.004406 0.129193 -0.025070
v -0.012714 0.129193 -0.022046
v -0.004468 0.131377 -0.025416
v -0.012252 0.131321 -0.021246
v -0.012890 0.131377 -0.022350
v -0.013003 0.129265 -0.022547
v -0.019930 0.129265 -0.016735
v -0.019487 0.129193 -0.016363
v -0.023907 0.129193 -0.008707
v -0.019756 0.131377 -0.016589
v -0.018779 0.131321 -0.015769
v -0.024451 0.129265 -0.008905
v -0.024238 0.131377 -0.008827
v -0.023039 0.131321 -0.008391
v -0.024623 0.129176 -0.004291
v -0.026021 0.129265 -0.000000
v -0.025443 0.129193 -0.000000
v -0.023907 0.129193 0.008707
v -0.025794 0.131377 -0.000000
v -0.024519 0.131321 -0.000000
v -0.022810 0.128992 0.008307
v -0.023039 0.131321 0.008391
v -0.015476 0.129030 0.019831
v -0.024238 0.131377 0.008827
v -0.024451 0.129265 0.008905
v -0.019930 0.129265 0.016735
v -0.019487 0.129193 0.016363
v -0.012714 0.129193 0.022046
v -0.019756 0.131377 0.016589
v -0.018779 0.131321 0.015769
v -0.013003 0.129265 0.022547
v -0.012890 0.131377 0.022350
v -0.004507 0.129265 0.025640
v -0.004406 0.129193 0.025070
v 0.004434 0.129193 0.025070
v -0.012252 0.131321 0.021246
v -0.004468 0.131377 0.025416
v 0.004535 0.129265 0.025640
v 0.012742 0.129193 0.022046
v 0.013031 0.129265 0.022547
v 0.012918 0.131377 0.022350
v 0.004496 0.131377 0.025416
v 0.012280 0.131321 0.021246
v 0.004274 0.131321 0.024160
v 0.012158 0.128992 0.021034
v 0.000073 0.129022 0.024890
v -0.004246 0.131321 0.024160
v -0.013696 -0.000000 -0.023747
v -0.020399 0.003016 -0.017128
v -0.013309 0.003016 -0.023077
v -0.020991 -0.000000 -0.017625
v -0.014195 0.000662 -0.024867
v -0.025753 -0.000000 -0.009378
v -0.025026 0.003016 -0.009114
v -0.022485 0.000666 -0.018008
v -0.016644 0.005220 -0.028986
v -0.025695 0.005170 -0.021572
v -0.031522 0.005170 -0.011478
v -0.033546 0.005170 0.000000
v -0.027406 0.000000 0.000000
v -0.026973 0.002865 0.004863
v -0.026857 -0.000000 -0.009780
v -0.028808 0.001165 0.000002
v -0.025753 0.000000 0.009378
v -0.020399 0.003016 0.017128
v -0.026857 0.000000 0.009780
v -0.026700 0.003079 0.016313
v -0.031522 0.005170 0.011478
v -0.025695 0.005170 0.021572
v -0.016766 0.005170 0.029064
v -0.007049 0.005269 0.033047
v -0.025792 0.001290 0.013895
v -0.021891 0.000000 0.018381
v -0.014374 0.001000 0.025082
v -0.020991 0.000000 0.017625
v -0.013696 0.000000 0.023747
v -0.013309 0.003016 0.023077
v -0.004952 0.000000 0.028161
v -0.004748 0.000000 0.027004
v 0.000187 0.002710 0.027281
v 0.000013 0.001272 0.029354
v 0.004776 0.000000 0.027004
v 0.013337 0.003016 0.023077
v 0.004980 0.000000 0.028161
v 0.013724 0.000000 0.023747
v 0.020427 0.003016 0.017128
v 0.014426 0.000999 0.025059
v 0.011335 0.002908 0.029020
v 0.005935 0.005326 0.033498
v 0.022921 0.005276 0.025153
v 0.026803 0.003068 0.015990
v 0.031550 0.005170 0.011478
v 0.033574 0.005170 -0.000000
v 0.021019 0.000000 0.017625
v 0.025820 0.001290 0.013895
v 0.025781 0.000000 0.009378
v 0.027030 0.002848 0.004701
v 0.021919 0.000000 0.018381
v 0.027434 0.000000 -0.000000
v 0.026885 0.000000 0.009780
v 0.025054 0.003016 -0.009114
v 0.028836 0.001164 -0.000000
v 0.025781 -0.000000 -0.009378
v 0.020427 0.003016 -0.017128
v 0.026885 -0.000000 -0.009780
v 0.022551 0.000703 -0.017934
v 0.031550 0.005170 -0.011478
v 0.025723 0.005170 -0.021572
v 0.016794 0.005170 -0.029064
v 0.021019 -0.000000 -0.017625
v 0.014507 0.001255 -0.024831
v 0.005842 0.005170 -0.033050
v 0.013724 -0.000000 -0.023747
v 0.013337 0.003016 -0.023077
v -0.004182 0.000743 -0.028394
v -0.005814 0.005170 -0.033050
v -0.016644 0.005220 -0.028986
v -0.014195 0.000662 -0.024867
v -0.013696 -0.000000 -0.023747
v 0.004980 -0.000000 -0.028161
v 0.004776 -0.000000 -0.027004
v -0.000076 0.002780 -0.027407
v -0.004748 -0.000000 -0.027004
v -0.013309 0.003016 -0.023077
v -0.006758 0.138691 0.009552
v -0.000060 0.139411 0.010523
v -0.004194 0.137428 0.008411
v -0.007545 0.132747 0.003826
v -0.005608 0.134874 0.004116
v 0.006630 0.138672 0.009533
v 0.004086 0.137416 0.008425
v 0.007651 0.132698 0.003179
v 0.005477 0.134797 0.003859
v 0.004369 0.134039 0.003147
v -0.005433 0.131309 0.000277
v -0.004481 0.129311 -0.005396
v 0.003754 0.131601 0.000095
v -0.006861 0.128794 -0.006962
v 0.005365 0.132475 -0.000492
v -0.000102 0.128610 -0.009664
v 0.004354 0.129312 -0.005362
v -0.000144 0.130140 -0.007233
v 0.006739 0.128775 -0.006926
v -0.020399 0.003016 0.017128
v -0.013309 0.003016 0.023077
v -0.002971 0.007262 0.020057
v 0.000187 0.002710 0.027281
v 0.013337 0.003016 0.023077
v -0.026973 0.002865 0.004863
v 0.020427 0.003016 0.017128
v 0.000806 0.010715 -0.008310
v -0.025026 0.003016 -0.009114
v 0.027030 0.002848 0.004701
v -0.020399 0.003016 -0.017128
v 0.025054 0.003016 -0.009114
v -0.013309 0.003016 -0.023077
v 0.020427 0.003016 -0.017128
v -0.000076 0.002780 -0.027407
v 0.013337 0.003016 -0.023077
v 0.000005 0.139417 0.008749
v -0.004194 0.137428 0.008411
v -0.000060 0.139411 0.010523
v 0.004086 0.137416 0.008425
v -0.005094 0.138280 0.007760
v -0.005608 0.134874 0.004116
v 0.004977 0.138278 0.007767
v 0.005477 0.134797 0.003859
v -0.000078 0.140709 0.009569
v 0.006150 0.138628 0.008085
v -0.006265 0.138673 0.008036
v 0.007283 0.133134 0.001630
v 0.004369 0.134039 0.003147
v 0.006630 0.138672 0.009533
v -0.000060 0.139411 0.010523
v 0.007651 0.132698 0.003179
v -0.006758 0.138691 0.009552
v -0.007545 0.132747 0.003826
v 0.006261 0.129981 -0.006557
v 0.006739 0.128775 -0.006926
v -0.007416 0.133034 0.001659
v -0.000061 0.129718 -0.009484
v -0.000102 0.128610 -0.009664
v -0.006861 0.128794 -0.006962
v -0.006395 0.130043 -0.006571
v 0.005012 0.130122 -0.006128
v 0.005365 0.132475 -0.000492
v 0.004354 0.129312 -0.005362
v -0.000144 0.130140 -0.007233
v 0.003754 0.131601 0.000095
v -0.005179 0.130155 -0.006109
v -0.004481 0.129311 -0.005396
v -0.005934 0.131916 -0.000527
v -0.005433 0.131309 0.000277
v -0.004232 0.132310 0.000273
v -0.000067 0.133094 0.001668
v -0.003855 0.133789 0.002901
v -0.007545 0.132747 0.003826
vt 0.968262 0.861816
vt 0.965820 0.864380
vt 0.968750 0.857788
vt 0.962402 0.855835
vt 0.958008 0.864380
vt 0.955566 0.857788
vt 0.955566 0.861816
vt 0.032959 0.964600
vt 0.027512 0.964935
vt 0.026718 0.960663
vt 0.035736 0.958923
vt 0.038879 0.964600
vt 0.024826 0.954834
vt 0.045074 0.964630
vt 0.038269 0.955505
vt 0.052338 0.959290
vt 0.051483 0.964661
vt 0.057953 0.964661
vt 0.064453 0.964661
vt 0.031647 0.951904
vt 0.024429 0.952026
vt 0.024353 0.890320
vt 0.066223 0.959290
vt 0.071045 0.964661
vt 0.031433 0.890320
vt 0.024612 0.887573
vt 0.032227 0.887573
vt 0.038391 0.951904
vt 0.041138 0.890564
vt 0.038208 0.887451
vt 0.044800 0.887390
vt 0.044769 0.951904
vt 0.051086 0.890320
vt 0.051331 0.887390
vt 0.051208 0.955505
vt 0.051117 0.951874
vt 0.066833 0.955780
vt 0.061951 0.951935
vt 0.057739 0.936462
vt 0.057678 0.905579
vt 0.064575 0.931946
vt 0.057251 0.890259
vt 0.057861 0.887390
vt 0.064392 0.887390
vt 0.064392 0.905518
vt 0.066895 0.890381
vt 0.071045 0.887329
vt 0.071228 0.934143
vt 0.078247 0.890198
vt 0.077637 0.887329
vt 0.074890 0.905518
vt 0.087585 0.890381
vt 0.084229 0.887329
vt 0.090820 0.887390
vt 0.097412 0.887451
vt 0.084106 0.905518
vt 0.097534 0.890320
vt 0.103943 0.887451
vt 0.090820 0.905579
vt 0.081787 0.934143
vt 0.107788 0.890503
vt 0.110474 0.887451
vt 0.074219 0.952087
vt 0.117249 0.890320
vt 0.116943 0.887451
vt 0.123474 0.887451
vt 0.080688 0.955627
vt 0.123779 0.890320
vt 0.132568 0.887573
vt 0.084229 0.952026
vt 0.080322 0.959106
vt 0.077576 0.964661
vt 0.084167 0.964661
vt 0.090576 0.955536
vt 0.094238 0.959259
vt 0.090759 0.964661
vt 0.097351 0.964661
vt 0.103882 0.964661
vt 0.093445 0.952148
vt 0.100952 0.955353
vt 0.106323 0.958984
vt 0.116760 0.964508
vt 0.110474 0.964691
vt 0.090698 0.934937
vt 0.097473 0.932617
vt 0.106201 0.952148
vt 0.103271 0.924133
vt 0.111389 0.955444
vt 0.114624 0.921570
vt 0.114746 0.935913
vt 0.119568 0.952087
vt 0.123901 0.930176
vt 0.122009 0.955536
vt 0.133301 0.890625
vt 0.143555 0.887512
vt 0.143921 0.890320
vt 0.143677 0.952026
vt 0.130005 0.951935
vt 0.136597 0.951935
vt 0.143311 0.954865
vt 0.132202 0.955444
vt 0.141357 0.960693
vt 0.135132 0.964600
vt 0.140625 0.964935
vt 0.135498 0.959137
vt 0.129272 0.964600
vt 0.122498 0.959076
vt 0.123108 0.964630
vt 0.678711 0.125488
vt 0.684082 0.139160
vt 0.679688 0.132812
vt 0.683594 0.117188
vt 0.686035 0.121094
vt 0.686035 0.117188
vt 0.688965 0.124023
vt 0.692871 0.115234
vt 0.692871 0.142090
vt 0.692871 0.113770
vt 0.696777 0.124023
vt 0.699707 0.116211
vt 0.699707 0.140137
vt 0.699707 0.117188
vt 0.699707 0.121094
vt 0.705566 0.121582
vt 0.703613 0.136719
vt 0.707031 0.130371
vt 0.952148 0.956360
vt 0.957031 0.955139
vt 0.957031 0.956482
vt 0.952148 0.955017
vt 0.957520 0.954437
vt 0.947266 0.955048
vt 0.944824 0.956238
vt 0.952637 0.954315
vt 0.957520 0.953217
vt 0.947266 0.954346
vt 0.942383 0.955048
vt 0.935547 0.956268
vt 0.942383 0.954346
vt 0.937500 0.955048
vt 0.952637 0.953125
vt 0.957520 0.952881
vt 0.952637 0.952820
vt 0.947266 0.953125
vt 0.947266 0.952820
vt 0.942383 0.953156
vt 0.942383 0.952881
vt 0.937500 0.953125
vt 0.937500 0.954346
vt 0.932617 0.955048
vt 0.932617 0.954346
vt 0.932617 0.953156
vt 0.932617 0.952820
vt 0.927246 0.952820
vt 0.927246 0.953156
vt 0.927246 0.954346
vt 0.927246 0.955048
vt 0.927246 0.956360
vt 0.922363 0.953156
vt 0.922363 0.952820
vt 0.922363 0.954346
vt 0.922363 0.955048
vt 0.919922 0.956177
vt 0.917480 0.955048
vt 0.910156 0.956299
vt 0.917480 0.953156
vt 0.917480 0.952820
vt 0.912598 0.952820
vt 0.917480 0.954346
vt 0.912598 0.955048
vt 0.912598 0.954346
vt 0.912598 0.953156
vt 0.907715 0.953156
vt 0.907715 0.952820
vt 0.902832 0.952820
vt 0.907715 0.954346
vt 0.907715 0.955048
vt 0.902832 0.953156
vt 0.902832 0.954346
vt 0.902832 0.955048
vt 0.899902 0.956238
vt 0.897461 0.953156
vt 0.897461 0.952820
vt 0.892578 0.952820
vt 0.897461 0.954346
vt 0.897461 0.955048
vt 0.892578 0.956360
vt 0.892578 0.955048
vt 0.884766 0.956329
vt 0.892578 0.954346
vt 0.892578 0.953156
vt 0.887695 0.953156
vt 0.887695 0.952820
vt 0.882812 0.952820
vt 0.887695 0.954346
vt 0.887695 0.955048
vt 0.882812 0.953156
vt 0.882812 0.954346
vt 0.877930 0.953125
vt 0.877930 0.952820
vt 0.872559 0.952820
vt 0.882812 0.955048
vt 0.877930 0.954315
vt 0.872559 0.953125
vt 0.867676 0.952881
vt 0.867676 0.953217
vt 0.867676 0.954437
vt 0.872559 0.954315
vt 0.868164 0.955139
vt 0.873047 0.955017
vt 0.868164 0.956482
vt 0.875488 0.956299
vt 0.877930 0.955017
vt 0.151733 0.065918
vt 0.157593 0.067383
vt 0.151978 0.067871
vt 0.157471 0.065918
vt 0.151367 0.064941
vt 0.163330 0.065918
vt 0.163330 0.067383
vt 0.157837 0.064941
vt 0.150146 0.061035
vt 0.156860 0.060547
vt 0.163086 0.060547
vt 0.169189 0.060547
vt 0.169312 0.065918
vt 0.172363 0.067383
vt 0.163330 0.064941
vt 0.169189 0.064453
vt 0.175171 0.065918
vt 0.181152 0.067383
vt 0.175171 0.064941
vt 0.178589 0.062988
vt 0.175171 0.060547
vt 0.181152 0.060547
vt 0.187134 0.060547
vt 0.192627 0.061035
vt 0.177612 0.064453
vt 0.181152 0.064941
vt 0.187256 0.064453
vt 0.181152 0.065918
vt 0.187134 0.065918
vt 0.187134 0.067383
vt 0.193115 0.064941
vt 0.193115 0.065918
vt 0.196167 0.067383
vt 0.196167 0.064453
vt 0.199097 0.065918
vt 0.205078 0.067383
vt 0.199097 0.064941
vt 0.205078 0.065918
vt 0.211060 0.067383
vt 0.205078 0.064453
vt 0.202515 0.062988
vt 0.199097 0.060547
vt 0.208862 0.060547
vt 0.213867 0.062988
vt 0.217041 0.060547
vt 0.223022 0.060547
vt 0.211060 0.065918
vt 0.214600 0.064453
vt 0.217041 0.065918
vt 0.220093 0.067383
vt 0.211060 0.064941
vt 0.223022 0.065918
vt 0.217041 0.064941
vt 0.229004 0.067383
vt 0.223022 0.064453
vt 0.229004 0.065918
vt 0.234985 0.067383
vt 0.229004 0.064941
vt 0.234375 0.064941
vt 0.229004 0.060547
vt 0.234985 0.060547
vt 0.240967 0.060547
vt 0.234985 0.065918
vt 0.240967 0.064453
vt 0.247070 0.060547
vt 0.240967 0.065918
vt 0.240967 0.067383
vt 0.252441 0.064453
vt 0.253174 0.060547
vt 0.260010 0.061035
vt 0.258789 0.064941
vt 0.258301 0.065918
vt 0.246948 0.064941
vt 0.246826 0.065918
vt 0.249756 0.067383
vt 0.252686 0.065918
vt 0.258057 0.067871
vt 0.756836 0.758545
vt 0.753418 0.759155
vt 0.755371 0.757568
vt 0.757324 0.753906
vt 0.756348 0.754883
vt 0.749512 0.758545
vt 0.750977 0.757568
vt 0.749023 0.753662
vt 0.750000 0.754639
vt 0.750488 0.754272
vt 0.756348 0.751831
vt 0.755859 0.748535
vt 0.750977 0.751831
vt 0.756836 0.747803
vt 0.750000 0.751709
vt 0.753418 0.746338
vt 0.750977 0.748535
vt 0.753418 0.747803
vt 0.749512 0.747803
vt 0.635742 0.289551
vt 0.631348 0.286133
vt 0.632324 0.279785
vt 0.627441 0.278809
vt 0.628906 0.270996
vt 0.643066 0.291992
vt 0.631348 0.266113
vt 0.647461 0.274902
vt 0.650879 0.289551
vt 0.637695 0.261230
vt 0.654785 0.286133
vt 0.645996 0.260742
vt 0.657715 0.281250
vt 0.650879 0.262695
vt 0.658691 0.273438
vt 0.654785 0.266113
vt 0.696777 0.048340
vt 0.694824 0.046875
vt 0.696777 0.047852
vt 0.699219 0.046875
vt 0.693848 0.047363
vt 0.693359 0.044434
vt 0.699707 0.047363
vt 0.700195 0.044434
vt 0.696777 0.048828
vt 0.700684 0.047363
vt 0.693359 0.047363
vt 0.701172 0.042480
vt 0.699219 0.043457
vt 0.700684 0.048340
vt 0.696777 0.049805
vt 0.701660 0.042969
vt 0.692871 0.048340
vt 0.691895 0.043457
vt 0.700684 0.037598
vt 0.700684 0.036621
vt 0.692871 0.042480
vt 0.696777 0.035645
vt 0.696777 0.035156
vt 0.692871 0.036621
vt 0.693359 0.037598
vt 0.699707 0.037598
vt 0.700195 0.041504
vt 0.699219 0.038086
vt 0.696777 0.037109
vt 0.699219 0.041504
vt 0.693848 0.037598
vt 0.694336 0.038086
vt 0.693359 0.041016
vt 0.693848 0.041016
vt 0.694336 0.041992
vt 0.696777 0.042480
vt 0.694824 0.043457
vt 0.692871 0.043945
vt1 0.788086 0.612305
vt1 0.800293 0.599121
vt1 0.786621 0.632568
vt1 0.819336 0.642822
vt1 0.840332 0.599121
vt1 0.854004 0.632568
vt1 0.852539 0.612305
vt1 0.141846 0.476562
vt1 0.115356 0.478027
vt1 0.111450 0.457031
vt1 0.155396 0.448730
vt1 0.170532 0.476562
vt1 0.102234 0.428711
vt1 0.200806 0.476562
vt1 0.167603 0.432129
vt1 0.236206 0.450684
vt1 0.231934 0.476562
vt1 0.263428 0.476562
vt1 0.295166 0.476562
vt1 0.135376 0.414551
vt1 0.100342 0.415039
vt1 0.099976 0.114746
vt1 0.303711 0.450684
vt1 0.327148 0.476562
vt1 0.134399 0.114746
vt1 0.101196 0.101562
vt1 0.138184 0.101562
vt1 0.168213 0.414551
vt1 0.181763 0.116211
vt1 0.167358 0.100586
vt1 0.199341 0.100586
vt1 0.199219 0.414551
vt1 0.230103 0.114746
vt1 0.231201 0.100586
vt1 0.230713 0.432129
vt1 0.230225 0.414551
vt1 0.306885 0.433594
vt1 0.282959 0.414551
vt1 0.262451 0.339355
vt1 0.262207 0.188965
vt1 0.295898 0.317383
vt1 0.260010 0.114258
vt1 0.262939 0.100586
vt1 0.294922 0.100586
vt1 0.294922 0.188477
vt1 0.306885 0.115234
vt1 0.327148 0.100098
vt1 0.328125 0.328125
vt1 0.362305 0.114258
vt1 0.359375 0.100098
vt1 0.345947 0.188965
vt1 0.407715 0.115234
vt1 0.391357 0.100098
vt1 0.423584 0.100586
vt1 0.455566 0.100586
vt1 0.390869 0.188965
vt1 0.456055 0.114746
vt1 0.487305 0.100586
vt1 0.423340 0.188965
vt1 0.379639 0.328125
vt1 0.505859 0.115723
vt1 0.519043 0.100586
vt1 0.342529 0.415527
vt1 0.552246 0.114746
vt1 0.550781 0.100586
vt1 0.582031 0.101074
vt1 0.374268 0.432617
vt1 0.583496 0.114746
vt1 0.626465 0.101562
vt1 0.391357 0.415039
vt1 0.372559 0.449707
vt1 0.359131 0.476562
vt1 0.391113 0.476562
vt1 0.422119 0.432129
vt1 0.440186 0.450195
vt1 0.423340 0.476562
vt1 0.455322 0.476562
vt1 0.487061 0.476562
vt1 0.436279 0.415527
vt1 0.472900 0.431152
vt1 0.499023 0.449219
vt1 0.549316 0.476074
vt1 0.519043 0.476562
vt1 0.422852 0.332031
vt1 0.456055 0.320801
vt1 0.498291 0.416016
vt1 0.484131 0.279297
vt1 0.523438 0.431641
vt1 0.539551 0.267090
vt1 0.539551 0.336426
vt1 0.563477 0.415527
vt1 0.584473 0.309082
vt1 0.575195 0.432129
vt1 0.630371 0.116211
vt1 0.680176 0.101074
vt1 0.681641 0.114746
vt1 0.681152 0.415039
vt1 0.614258 0.414551
vt1 0.646484 0.414551
vt1 0.679199 0.429199
vt1 0.625000 0.431641
vt1 0.669922 0.457520
vt1 0.639160 0.476562
vt1 0.666016 0.478027
vt1 0.641113 0.449707
vt1 0.610840 0.476562
vt1 0.577637 0.449707
vt1 0.580566 0.476562
vt1 0.785156 0.228516
vt1 0.855469 0.252930
vt1 0.816406 0.247559
vt1 0.766602 0.181641
vt1 0.792480 0.184570
vt1 0.775879 0.171875
vt1 0.811523 0.183105
vt1 0.791016 0.137695
vt1 0.896484 0.227539
vt1 0.785645 0.134277
vt1 0.837891 0.151855
vt1 0.817383 0.114258
vt1 0.910645 0.192871
vt1 0.820801 0.118652
vt1 0.836426 0.132812
vt1 0.857422 0.108887
vt1 0.910645 0.167969
vt1 0.896973 0.133301
vt1 0.182617 0.751831
vt1 0.157471 0.757935
vt1 0.158081 0.751221
vt1 0.182373 0.758545
vt1 0.156250 0.761475
vt1 0.207520 0.758423
vt1 0.220337 0.752441
vt1 0.181885 0.762085
vt1 0.155762 0.767700
vt1 0.207397 0.762085
vt1 0.232910 0.758423
vt1 0.267578 0.752197
vt1 0.232788 0.762085
vt1 0.258301 0.758423
vt1 0.181641 0.768188
vt1 0.156006 0.769409
vt1 0.181519 0.769775
vt1 0.207275 0.768188
vt1 0.207153 0.769775
vt1 0.232788 0.768066
vt1 0.232178 0.769531
vt1 0.258057 0.768188
vt1 0.258057 0.761963
vt1 0.283691 0.758423
vt1 0.283691 0.761963
vt1 0.283691 0.768066
vt1 0.283691 0.769775
vt1 0.309082 0.769775
vt1 0.309082 0.768066
vt1 0.309082 0.761963
vt1 0.309082 0.758423
vt1 0.309082 0.751709
vt1 0.334473 0.768066
vt1 0.334473 0.769775
vt1 0.334473 0.761963
vt1 0.334473 0.758423
vt1 0.346924 0.752686
vt1 0.359619 0.758423
vt1 0.397705 0.751953
vt1 0.359619 0.768066
vt1 0.359619 0.769775
vt1 0.384766 0.769775
vt1 0.359619 0.761963
vt1 0.384766 0.758423
vt1 0.384766 0.761963
vt1 0.384766 0.768066
vt1 0.410400 0.768066
vt1 0.410400 0.769775
vt1 0.435791 0.769775
vt1 0.410400 0.761963
vt1 0.410400 0.758423
vt1 0.435791 0.768066
vt1 0.435791 0.761963
vt1 0.435791 0.758423
vt1 0.448486 0.752319
vt1 0.461182 0.768066
vt1 0.461182 0.769775
vt1 0.486572 0.769775
vt1 0.461182 0.761963
vt1 0.461182 0.758423
vt1 0.486572 0.751709
vt1 0.486572 0.758423
vt1 0.526855 0.751831
vt1 0.486572 0.761963
vt1 0.486572 0.768066
vt1 0.511719 0.768066
vt1 0.511719 0.769775
vt1 0.537109 0.769775
vt1 0.511719 0.761963
vt1 0.511719 0.758423
vt1 0.537109 0.768066
vt1 0.537109 0.762085
vt1 0.562500 0.768188
vt1 0.562500 0.769775
vt1 0.587891 0.769775
vt1 0.537109 0.758423
vt1 0.562500 0.762085
vt1 0.587891 0.768188
vt1 0.613770 0.769409
vt1 0.613770 0.767700
vt1 0.613281 0.761475
vt1 0.587891 0.762085
vt1 0.612305 0.757935
vt1 0.587402 0.758545
vt1 0.611816 0.751221
vt1 0.574707 0.752075
vt1 0.562012 0.758545
vt1 0.093323 0.653320
vt1 0.121460 0.661621
vt1 0.094238 0.662354
vt1 0.121155 0.652588
vt1 0.091003 0.648193
vt1 0.149658 0.652832
vt1 0.149658 0.661865
vt1 0.122864 0.648193
vt1 0.085571 0.629883
vt1 0.118103 0.627930
vt1 0.148438 0.628174
vt1 0.178101 0.628174
vt1 0.178467 0.652832
vt1 0.193359 0.661133
vt1 0.149292 0.649414
vt1 0.178223 0.646240
vt1 0.207520 0.652832
vt1 0.236572 0.661865
vt1 0.207397 0.649414
vt1 0.224121 0.638672
vt1 0.207397 0.628174
vt1 0.236572 0.628174
vt1 0.265625 0.628174
vt1 0.292236 0.629639
vt1 0.219360 0.645508
vt1 0.236572 0.649414
vt1 0.265869 0.646484
vt1 0.236572 0.652832
vt1 0.265625 0.652832
vt1 0.265625 0.661865
vt1 0.294922 0.649414
vt1 0.294922 0.652832
vt1 0.309814 0.660645
vt1 0.309326 0.645508
vt1 0.323975 0.652832
vt1 0.353271 0.661865
vt1 0.323975 0.649414
vt1 0.353271 0.652832
vt1 0.382568 0.661865
vt1 0.353271 0.646484
vt1 0.340576 0.639160
vt1 0.323975 0.626953
vt1 0.371826 0.627197
vt1 0.395752 0.638672
vt1 0.411621 0.628174
vt1 0.440674 0.628174
vt1 0.382568 0.652832
vt1 0.399658 0.645508
vt1 0.411621 0.652832
vt1 0.426270 0.660889
vt1 0.382568 0.649414
vt1 0.440674 0.652832
vt1 0.411621 0.649414
vt1 0.469727 0.661865
vt1 0.440674 0.646240
vt1 0.469727 0.652832
vt1 0.498779 0.661865
vt1 0.469971 0.649414
vt1 0.495850 0.648193
vt1 0.469971 0.628174
vt1 0.499023 0.628174
vt1 0.528320 0.628174
vt1 0.499023 0.652832
vt1 0.527832 0.645996
vt1 0.557617 0.628174
vt1 0.527832 0.652832
vt1 0.527832 0.661865
vt1 0.583496 0.647461
vt1 0.588379 0.627930
vt1 0.620605 0.630127
vt1 0.614746 0.648193
vt1 0.612793 0.653320
vt1 0.557129 0.649414
vt1 0.556641 0.652832
vt1 0.571289 0.660645
vt1 0.584961 0.652588
vt1 0.612305 0.662354
vt1 0.146606 0.928528
vt1 0.127197 0.931519
vt1 0.139404 0.923523
vt1 0.148926 0.904724
vt1 0.144043 0.909546
vt1 0.107910 0.928406
vt1 0.115051 0.923462
vt1 0.104919 0.902954
vt1 0.110657 0.908508
vt1 0.114258 0.906189
vt1 0.142822 0.893860
vt1 0.140015 0.876404
vt1 0.116211 0.893860
vt1 0.146729 0.871704
vt1 0.111267 0.893066
vt1 0.127319 0.864258
vt1 0.114502 0.876465
vt1 0.127441 0.871826
vt1 0.107727 0.871826
vt1 0.908203 0.811646
vt1 0.913086 0.838745
vt1 0.888184 0.860107
vt1 0.903809 0.879761
vt1 0.873535 0.907166
vt1 0.886719 0.776611
vt1 0.847656 0.916565
vt1 0.812500 0.828979
vt1 0.847656 0.760864
vt1 0.805664 0.915161
vt1 0.819824 0.760864
vt1 0.772949 0.889587
vt1 0.793945 0.770142
vt1 0.759277 0.865845
vt1 0.763184 0.797729
vt1 0.754395 0.838745
vt1 0.820801 0.363281
vt1 0.832520 0.369629
vt1 0.821289 0.366211
vt1 0.809570 0.370117
vt1 0.835938 0.368164
vt1 0.838379 0.383301
vt1 0.806152 0.368164
vt1 0.803711 0.384277
vt1 0.820801 0.358887
vt1 0.802246 0.366699
vt1 0.839355 0.366699
vt1 0.799805 0.393066
vt1 0.808594 0.388184
vt1 0.800293 0.362793
vt1 0.820801 0.355957
vt1 0.796387 0.389648
vt1 0.841797 0.362793
vt1 0.846191 0.387207
vt1 0.802246 0.419434
vt1 0.800293 0.422852
vt1 0.842773 0.392578
vt1 0.821777 0.427734
vt1 0.821777 0.430664
vt1 0.842773 0.422363
vt1 0.840332 0.419434
vt1 0.806152 0.417969
vt1 0.804199 0.399414
vt1 0.809082 0.415527
vt1 0.821777 0.422363
vt1 0.810059 0.397949
vt1 0.836914 0.417480
vt1 0.833984 0.415527
vt1 0.838867 0.399902
vt1 0.836426 0.399414
vt1 0.833496 0.396973
vt1 0.821289 0.393066
vt1 0.832031 0.388672
vt1 0.841309 0.384277
vn 0.000000 1.000000 -0.000000
vn 0.000000 1.000000 -0.000000
vn 0.000000 1.000000 -0.000000
vn 0.000000 1.000000 -0.000000
vn 0.000000 1.000000 -0.000000
vn 0.000000 1.000000 -0.000000
vn 0.000000 1.000000 -0.000000
vn -0.165354 0.236221 0.952756
vn 0.165354 0.236221 0.952756
vn 0.149606 0.629921 0.763779
vn -0.267717 0.661417 0.700787
vn -0.488189 0.236221 0.842520
vn 0.149606 0.543307 0.826771
vn -0.740157 0.236221 0.622047
vn -0.377953 0.629921 0.677165
vn -0.724409 0.645669 0.236220
vn -0.913386 0.236220 0.330709
vn -0.968504 0.236220 -0.000000
vn -0.913386 0.236220 -0.330709
vn -0.181102 0.094488 0.976378
vn 0.173228 0.094488 0.984252
vn 0.173228 -0.094488 0.984252
vn -0.677165 0.661417 -0.322835
vn -0.740157 0.236220 -0.622047
vn -0.173228 -0.094488 0.984252
vn 0.149606 -0.543307 0.826772
vn -0.173228 -0.543307 0.818898
vn -0.503937 0.094488 0.858268
vn -0.629921 -0.086614 0.771653
vn -0.417323 -0.551181 0.724409
vn -0.637795 -0.551181 0.535433
vn -0.763780 0.094488 0.637795
vn -0.937008 -0.094488 0.338583
vn -0.787402 -0.551181 0.283465
vn -0.732283 0.622047 0.275590
vn -0.937008 0.094488 0.338583
vn -0.700787 0.622047 -0.354331
vn -0.968504 0.094488 -0.228346
vn -1.000000 -0.007874 -0.031496
vn -1.000000 0.007874 -0.023622
vn -0.905512 -0.039370 -0.417323
vn -0.992126 -0.094488 0.023622
vn -0.834646 -0.551181 0.000000
vn -0.787402 -0.551181 -0.283464
vn -0.921260 0.039370 -0.385827
vn -0.874016 -0.070866 -0.472441
vn -0.637795 -0.551181 -0.535433
vn -0.740157 -0.062992 -0.669291
vn -0.472441 -0.062992 -0.881890
vn -0.417323 -0.551181 -0.724409
vn -0.614173 0.055118 -0.787401
vn -0.015748 -0.070866 -1.000000
vn -0.141732 -0.551181 -0.818897
vn 0.141732 -0.551181 -0.818897
vn 0.417323 -0.551181 -0.724409
vn -0.220472 0.039370 -0.976378
vn 0.488189 -0.086614 -0.866142
vn 0.637795 -0.551181 -0.535433
vn 0.125984 0.023622 -0.992126
vn -0.322835 -0.055118 -0.944882
vn 0.881890 -0.086614 -0.472441
vn 0.787402 -0.551181 -0.283464
vn -0.637795 0.094488 -0.763779
vn 0.992126 -0.094488 0.015748
vn 0.834646 -0.551181 0.000000
vn 0.787402 -0.551181 0.283465
vn -0.275591 0.629921 -0.732283
vn 0.929134 -0.094488 0.346457
vn 0.566929 -0.535433 0.629921
vn -0.173228 0.086614 -0.976378
vn -0.275591 0.661417 -0.700787
vn -0.488189 0.236220 -0.842520
vn -0.165354 0.236220 -0.952756
vn 0.125984 0.622047 -0.771653
vn 0.267717 0.661417 -0.700787
vn 0.165354 0.236220 -0.952756
vn 0.488189 0.236220 -0.842520
vn 0.740157 0.236220 -0.622047
vn 0.322835 0.086614 -0.944882
vn 0.519685 0.614173 -0.598425
vn 0.629921 0.669291 -0.393701
vn 0.968504 0.251968 -0.031496
vn 0.913386 0.236220 -0.322835
vn 0.149606 -0.023622 -0.984252
vn 0.535433 0.007874 -0.842520
vn 0.858268 0.023622 -0.511811
vn 0.779528 0.039370 -0.629921
vn 0.755906 0.614173 -0.228346
vn 0.984252 0.055118 -0.157480
vn 0.984252 -0.000000 -0.173228
vn 0.992126 0.047244 0.102362
vn 0.944882 0.023622 0.330709
vn 0.755906 0.622047 0.220472
vn 0.645669 -0.086614 0.755905
vn 0.141732 -0.535433 0.834646
vn 0.173228 -0.094488 0.984252
vn 0.173228 0.094488 0.984252
vn 0.763780 0.094488 0.637795
vn 0.496063 0.094488 0.858268
vn 0.141732 0.527559 0.834646
vn 0.519685 0.629921 0.574803
vn 0.125984 0.645669 0.755905
vn 0.488189 0.236221 0.842520
vn 0.165354 0.236221 0.952756
vn 0.377953 0.661417 0.645669
vn 0.740157 0.236221 0.622047
vn 0.716535 0.661417 0.228346
vn 0.913386 0.236220 0.330709
vn 0.000000 1.000000 -0.000000
vn 0.000000 1.000000 -0.000000
vn 0.000000 1.000000 -0.000000
vn 0.000000 1.000000 -0.000000
vn 0.000000 1.000000 -0.000000
vn 0.000000 1.000000 -0.000000
vn 0.000000 1.000000 -0.000000
vn 0.000000 1.000000 -0.000000
vn 0.000000 1.000000 -0.000000
vn 0.000000 1.000000 -0.000000
vn 0.000000 1.000000 -0.000000
vn 0.000000 1.000000 -0.000000
vn 0.000000 1.000000 -0.000000
vn 0.000000 1.000000 -0.000000
vn 0.000000 1.000000 -0.000000
vn 0.000000 1.000000 -0.000000
vn 0.000000 1.000000 -0.000000
vn 0.000000 1.000000 -0.000000
vn -0.763780 0.102362 -0.637795
vn -0.322835 0.763779 -0.559055
vn -0.496063 0.102362 -0.858268
vn -0.496063 0.763779 -0.409449
vn 0.346457 0.724409 0.598425
vn -0.606299 0.763779 -0.220472
vn -0.968504 0.173228 -0.181102
vn 0.527559 0.724409 0.440945
vn 0.401575 -0.582677 0.700787
vn 0.653543 0.724409 0.236220
vn -0.645669 0.763779 -0.000000
vn -0.866142 0.157480 0.472441
vn 0.692913 0.724409 -0.000000
vn -0.606299 0.763779 0.220472
vn 0.622047 -0.582677 0.519685
vn 0.062992 -0.992126 0.110236
vn 0.094488 -0.992126 0.078740
vn 0.763780 -0.582677 0.275591
vn 0.118110 -0.992126 0.039370
vn 0.811024 -0.582677 0.000000
vn 0.251969 -0.968504 0.000000
vn 0.748031 -0.614173 -0.259842
vn 0.653543 0.724409 -0.236221
vn -0.496063 0.763779 0.409449
vn 0.527559 0.724409 -0.440945
vn 0.622047 -0.582677 -0.519685
vn 0.094488 -0.992126 -0.078740
vn 0.062992 -0.992126 -0.110236
vn 0.401575 -0.582677 -0.700787
vn 0.346457 0.724409 -0.598425
vn -0.322835 0.763779 0.559055
vn -0.496063 0.102362 0.858268
vn 0.141732 -0.582677 -0.795275
vn 0.023622 -0.992126 -0.125984
vn 0.118110 0.724409 -0.677165
vn -0.110236 0.763779 0.629921
vn -0.015748 0.212599 0.976378
vn 0.110236 0.763779 0.629921
vn 0.645669 0.133858 0.755905
vn -0.141732 -0.582677 -0.795275
vn -0.023622 -0.992126 -0.125984
vn -0.062992 -0.992126 -0.110236
vn -0.118110 0.724409 -0.677165
vn 0.322835 0.763779 0.559055
vn -0.346457 0.724409 -0.598425
vn -0.401575 -0.582677 -0.700787
vn -0.622047 -0.582677 -0.519685
vn -0.094488 -0.992126 -0.078740
vn -0.118110 -0.992126 -0.039370
vn -0.527559 0.724409 -0.440945
vn 0.496063 0.763779 0.409449
vn -0.763780 -0.582677 -0.275590
vn -0.653543 0.724409 -0.236221
vn 0.606299 0.763779 0.220472
vn 0.968504 0.173228 0.181102
vn -0.811024 -0.582677 0.000000
vn -0.125984 -0.992126 0.000000
vn -0.118110 -0.992126 0.039370
vn -0.692913 0.724409 -0.000000
vn 0.645669 0.763779 -0.000000
vn 0.937008 0.102362 -0.338583
vn 0.606299 0.763779 -0.220472
vn 0.622047 0.118110 -0.771653
vn -0.653543 0.724409 0.236220
vn -0.763780 -0.582677 0.275591
vn -0.622047 -0.582677 0.519685
vn -0.094488 -0.992126 0.078740
vn -0.062992 -0.992126 0.110236
vn -0.527559 0.724409 0.440945
vn 0.496063 0.763779 -0.409449
vn -0.401575 -0.582677 0.700787
vn -0.346457 0.724409 0.598425
vn -0.141732 -0.582677 0.795276
vn -0.023622 -0.992126 0.125984
vn 0.023622 -0.992126 0.125984
vn 0.322835 0.763779 -0.559055
vn -0.118110 0.724409 0.677165
vn 0.141732 -0.582677 0.795276
vn 0.062992 -0.992126 0.110236
vn 0.401575 -0.582677 0.700787
vn 0.346457 0.724409 0.598425
vn 0.118110 0.724409 0.677165
vn -0.322835 0.763779 -0.559055
vn -0.110236 0.763779 -0.629921
vn -0.496063 0.102362 -0.858268
vn 0.007874 0.125984 -0.992126
vn 0.110236 0.763779 -0.629921
vn 0.283465 -0.826771 0.488189
vn 0.740157 -0.251968 0.622047
vn 0.488189 -0.251968 0.842520
vn 0.433071 -0.826771 0.362205
vn -0.425197 -0.543307 -0.724409
vn 0.535433 -0.826772 0.196850
vn 0.913386 -0.251968 0.330709
vn -0.653543 -0.598425 -0.472441
vn -0.267717 -0.842520 -0.472441
vn -0.440945 -0.818898 -0.370079
vn -0.543307 -0.818897 -0.196850
vn -0.574803 -0.818897 0.000000
vn 0.566929 -0.826772 0.000000
vn 0.937008 -0.299213 -0.188976
vn -0.606299 -0.763779 -0.220472
vn -0.818898 -0.574803 0.000000
vn 0.535433 -0.826772 -0.196850
vn 0.740157 -0.251969 -0.622047
vn -0.606299 -0.763779 0.220472
vn -0.566929 -0.748031 0.346457
vn -0.543307 -0.818897 0.196850
vn -0.440945 -0.818897 0.370079
vn -0.291339 -0.818897 0.496063
vn -0.110236 -0.834646 0.543307
vn -0.771654 -0.488189 0.401575
vn -0.496063 -0.763779 0.417323
vn -0.425197 -0.527559 0.732283
vn 0.433071 -0.826772 -0.362205
vn 0.283465 -0.826772 -0.488189
vn 0.488189 -0.251969 -0.842520
vn -0.110236 -0.763779 0.637795
vn 0.102362 -0.826772 -0.559055
vn 0.015748 -0.330709 -0.944882
vn -0.007874 -0.503937 0.866142
vn -0.102362 -0.826772 -0.559055
vn -0.488189 -0.251969 -0.842520
vn 0.110236 -0.763779 0.637795
vn -0.283465 -0.826772 -0.488189
vn -0.740157 -0.251969 -0.622047
vn 0.425197 -0.535433 0.732283
vn 0.236220 -0.748031 0.622047
vn 0.094488 -0.826771 0.559055
vn 0.393701 -0.818897 0.417323
vn 0.574803 -0.748031 0.338583
vn 0.543307 -0.818897 0.196850
vn 0.574803 -0.818897 0.000000
vn -0.433071 -0.826772 -0.362205
vn 0.771654 -0.488189 0.401575
vn -0.535433 -0.826772 -0.196850
vn -0.937008 -0.307087 -0.181102
vn 0.496063 -0.763779 0.417323
vn -0.566929 -0.826772 0.000000
vn 0.606299 -0.763779 0.220472
vn -0.913386 -0.251968 0.330709
vn 0.818898 -0.574803 0.000000
vn -0.535433 -0.826772 0.196850
vn -0.740157 -0.251968 0.622047
vn 0.606299 -0.763779 -0.220472
vn 0.653543 -0.598425 -0.464567
vn 0.543307 -0.818897 -0.196850
vn 0.440945 -0.818898 -0.370079
vn 0.291339 -0.818898 -0.496063
vn -0.433071 -0.826771 0.362205
vn 0.401575 -0.590551 -0.700787
vn 0.102362 -0.818898 -0.566929
vn -0.283465 -0.826771 0.488189
vn -0.488189 -0.251968 0.842520
vn -0.110236 -0.606299 -0.787401
vn -0.102362 -0.818898 -0.566929
vn -0.283465 -0.842520 -0.464567
vn -0.409449 -0.543307 -0.740157
vn 0.283465 -0.826771 0.488189
vn 0.110236 -0.763779 -0.637795
vn -0.102362 -0.826771 0.559055
vn -0.015748 -0.314960 0.944882
vn 0.102362 -0.826771 0.559055
vn 0.488189 -0.251968 0.842520
vn 0.000000 -0.629921 0.779527
vn 0.000000 -0.582677 0.811024
vn -0.007874 -0.622047 0.779527
vn -0.023622 -0.834646 0.543307
vn -0.023622 -0.795275 0.598425
vn 0.000000 -0.629921 0.779527
vn 0.015748 -0.629921 0.779527
vn 0.023622 -0.850394 0.527559
vn 0.023622 -0.811023 0.582677
vn 0.000000 -0.826771 0.559055
vn -0.007874 -0.881890 0.464567
vn -0.007874 -0.984252 0.181102
vn 0.007874 -0.881890 0.472441
vn 0.000000 -0.984252 0.196850
vn 0.023622 -0.905512 0.425197
vn 0.000000 -0.992126 0.133858
vn 0.007874 -0.984252 0.188976
vn 0.000000 -0.992126 0.133858
vn 0.007874 -0.984252 0.196850
vn 0.330709 -0.905512 -0.275590
vn 0.212598 -0.905512 -0.370079
vn 0.055118 -0.937008 -0.346457
vn 0.000000 -0.897638 -0.440945
vn -0.212598 -0.905512 -0.370079
vn 0.433071 -0.897638 -0.078740
vn -0.330709 -0.905512 -0.275590
vn -0.015748 -0.992126 0.141732
vn 0.401575 -0.905512 0.149606
vn -0.433071 -0.897638 -0.078740
vn 0.330709 -0.905512 0.275591
vn -0.401575 -0.905512 0.149606
vn 0.212598 -0.905512 0.370079
vn -0.330709 -0.905512 0.275591
vn 0.000000 -0.897638 0.440945
vn -0.212598 -0.905512 0.370079
vn -0.023622 -0.149606 -0.984252
vn 0.692913 -0.488189 -0.535433
vn -0.007874 -0.811024 -0.582677
vn -0.700787 -0.488189 -0.519685
vn 0.472441 0.204724 -0.858268
vn 0.692913 0.645669 -0.322835
vn -0.472441 0.220472 -0.850394
vn -0.685039 0.653543 -0.314961
vn 0.000000 0.976378 -0.212599
vn 0.503937 0.700787 -0.503937
vn -0.496063 0.700787 -0.511811
vn 0.732283 0.582677 -0.346457
vn -0.212598 0.944882 0.236220
vn 0.724409 0.637795 0.267716
vn -0.007874 0.897638 0.433071
vn 0.992126 0.118110 -0.078740
vn -0.724409 0.629921 0.275590
vn -0.992126 0.133858 -0.015748
vn 0.566929 0.732283 -0.377953
vn 0.803150 -0.055118 -0.590551
vn -0.732283 0.582677 -0.346457
vn 0.007874 0.590551 -0.803150
vn 0.000000 -0.070866 -1.000000
vn -0.803150 -0.047244 -0.590551
vn -0.559055 0.740157 -0.370079
vn -0.448819 0.881890 0.173228
vn -0.629921 0.645669 -0.433071
vn -0.779528 0.307087 0.543307
vn 0.023622 0.763779 0.645669
vn -0.204724 -0.070866 -0.976378
vn 0.433071 0.881890 0.173228
vn 0.771654 0.299213 0.566929
vn 0.614173 0.645669 -0.456693
vn 0.637795 -0.141732 -0.755905
vn 0.157480 0.283464 -0.944882
vn -0.007874 0.858268 -0.519685
vn 0.133858 0.976378 0.157480
vn 0.488189 0.511811 0.708661
tan 0.000000 -0.000000 -1.000000 1.000000
tan 0.000000 -0.000000 -1.000000 1.000000
tan 0.000000 -0.000000 -1.000000 1.000000
tan 0.000000 -0.000000 -1.000000 1.000000
tan 0.000000 -0.000000 -1.000000 1.000000
tan 0.000000 -0.000000 -1.000000 1.000000
tan 0.000000 -0.000000 -1.000000 1.000000
tan -0.033728 -0.955360 0.231013 1.000000
tan -0.093806 -0.947858 0.251287 1.000000
tan -0.043152 -0.764957 0.639345 1.000000
tan -0.025730 -0.713435 0.663525 1.000000
tan -0.043586 -0.926406 0.234485 1.000000
tan -0.047802 -0.827950 0.552731 1.000000
tan -0.195982 -0.957592 0.130448 1.000000
tan -0.093868 -0.726021 0.622977 1.000000
tan -0.645669 -0.729989 0.015252 1.000000
tan -0.236220 -0.936822 0.016740 1.000000
tan -0.236220 -0.968504 0.000000 1.000000
tan -0.236220 -0.936822 -0.016740 1.000000
tan -0.007688 -0.976378 0.093062 1.000000
tan -0.038006 -0.985616 0.101308 1.000000
tan 0.014756 -0.985616 -0.097216 1.000000
tan -0.656209 -0.704879 -0.067704 1.000000
tan -0.200880 -0.952694 -0.122760 1.000000
tan 0.000744 -0.985616 -0.094488 1.000000
tan 0.034782 -0.827950 -0.550375 1.000000
tan 0.004278 -0.820262 -0.543307 1.000000
tan -0.006696 -0.893980 0.094488 1.000000
tan 0.015190 -0.953934 -0.094674 1.000000
tan 0.173600 -0.821626 -0.525141 1.000000
tan 0.451361 -0.830058 -0.316821 1.000000
tan -0.092070 -0.949718 0.030442 1.000000
tan 0.091822 -0.939674 -0.008122 1.000000
tan 0.546841 -0.823610 -0.082460 1.000000
tan -0.617149 -0.752557 0.058776 1.000000
tan -0.091822 -0.955670 0.012586 1.000000
tan -0.612251 -0.748341 -0.102858 1.000000
tan -0.094488 -0.966706 0.000744 1.000000
tan 0.007874 -1.000000 0.000000 1.000000
tan -0.007688 -1.000000 -0.007874 1.000000
tan 0.039370 -0.915370 0.000930 1.000000
tan 0.094302 -0.992126 -0.007812 1.000000
tan 0.551181 -0.834646 0.000000 1.000000
tan 0.546841 -0.823610 0.082460 1.000000
tan -0.036332 -0.948602 -0.010044 1.000000
tan 0.074586 -0.885176 -0.005208 1.000000
tan 0.451361 -0.825841 0.312481 1.000000
tan 0.048794 -0.972534 0.037572 1.000000
tan 0.002480 -0.900490 0.062992 1.000000
tan 0.104160 -0.791865 0.542501 1.000000
tan -0.016492 -0.933970 -0.052514 1.000000
tan -0.007874 -1.000000 0.070990 1.000000
tan 0.030380 -0.826709 0.551181 1.000000
tan -0.041168 -0.827825 0.550065 1.000000
tan -0.173600 -0.815921 0.520801 1.000000
tan -0.007998 -0.978114 -0.037634 1.000000
tan -0.011594 -0.893050 0.082770 1.000000
tan -0.451361 -0.830057 0.316821 1.000000
tan -0.007812 -0.992126 -0.024614 1.000000
tan -0.000434 -0.942340 0.055118 1.000000
tan -0.082894 -0.893050 0.008990 1.000000
tan -0.546841 -0.823610 0.082460 1.000000
tan -0.049972 -0.953748 -0.076260 1.000000
tan -0.094488 -0.992126 0.000000 1.000000
tan -0.551181 -0.834646 0.000000 1.000000
tan -0.546841 -0.823610 -0.082460 1.000000
tan -0.044640 -0.751813 -0.629921 1.000000
tan -0.091760 -0.931862 -0.008060 1.000000
tan -0.307769 -0.841714 -0.438465 1.000000
tan -0.000682 -0.977742 -0.086614 1.000000
tan -0.031248 -0.713807 -0.661417 1.000000
tan -0.050220 -0.926406 -0.230640 1.000000
tan -0.003720 -0.955360 -0.236220 1.000000
tan 0.014694 -0.774629 -0.622047 1.000000
tan 0.020832 -0.709219 -0.661417 1.000000
tan 0.003720 -0.955360 -0.236220 1.000000
tan 0.050220 -0.926406 -0.230640 1.000000
tan 0.200880 -0.952694 -0.122760 1.000000
tan 0.000000 -0.944882 -0.086614 1.000000
tan 0.333685 -0.786534 -0.517453 1.000000
tan 0.642941 -0.716721 -0.189720 1.000000
tan 0.251969 -0.968256 0.001984 1.000000
tan 0.236220 -0.913386 0.000000 1.000000
tan 0.000000 -0.984252 0.023622 1.000000
tan 0.000806 -0.890694 -0.007812 1.000000
tan 0.023622 -0.898568 -0.001860 1.000000
tan 0.042160 -0.939922 -0.006572 1.000000
tan 0.614173 -0.768491 -0.033852 1.000000
tan 0.055118 -0.984252 0.000000 1.000000
tan 0.000000 -0.984252 0.000000 1.000000
tan 0.046438 -0.992126 0.007812 1.000000
tan 0.026226 -0.947486 -0.007254 1.000000
tan 0.622047 -0.768057 0.034286 1.000000
tan -0.018786 -0.937070 -0.091326 1.000000
tan -0.047864 -0.836878 -0.528737 1.000000
tan -0.023994 -0.985616 -0.090396 1.000000
tan 0.039494 -0.985616 0.087668 1.000000
tan 0.077004 -0.954740 0.049228 1.000000
tan 0.013454 -0.893422 0.090582 1.000000
tan 0.075764 -0.839110 0.517515 1.000000
tan 0.367475 -0.773079 0.514973 1.000000
tan 0.077252 -0.762849 0.638725 1.000000
tan 0.091884 -0.930250 0.207576 1.000000
tan 0.101246 -0.947858 0.217435 1.000000
tan 0.182032 -0.723541 0.634633 1.000000
tan 0.195982 -0.957592 0.130448 1.000000
tan 0.661417 -0.718333 0.005208 1.000000
tan 0.233616 -0.936822 0.023932 1.000000
tan 0.007874 -0.000000 -1.000000 1.000000
tan -0.015748 -0.000000 -1.000000 1.000000
tan 0.000000 -0.000000 -1.000000 1.000000
tan 0.000000 -0.000000 -1.000000 1.000000
tan -0.015748 -0.000000 -1.000000 1.000000
tan 0.015748 -0.000000 -1.000000 1.000000
tan -0.007874 -0.000000 -1.000000 1.000000
tan 0.000000 -0.000000 -1.000000 1.000000
tan 0.000000 -0.000000 -1.000000 1.000000
tan 0.000000 -0.000000 -1.000000 1.000000
tan 0.007874 -0.000000 -1.000000 1.000000
tan -0.023622 -0.000000 -1.000000 1.000000
tan 0.015748 -0.000000 -1.000000 1.000000
tan -0.015748 -0.000000 -1.000000 1.000000
tan 0.015748 -0.000000 -1.000000 1.000000
tan 0.000000 -0.000000 -1.000000 1.000000
tan 0.007874 -0.000000 -1.000000 1.000000
tan -0.007874 -0.000000 -1.000000 1.000000
tan 0.102920 0.981958 0.034348 1.000000
tan 0.405295 0.644367 0.646289 1.000000
tan 0.074214 0.935644 0.068696 1.000000
tan 0.607415 0.642755 0.463079 1.000000
tan 0.374233 -0.688697 0.617025 1.000000
tan 0.739724 0.639283 0.180420 1.000000
tan 0.171802 0.968504 0.007626 1.000000
tan 0.581809 -0.687581 0.433505 1.000000
tan -0.255193 -0.796578 -0.516089 1.000000
tan 0.707297 -0.690185 0.159712 1.000000
tan 0.763780 0.645669 -0.000000 1.000000
tan 0.157480 0.895902 -0.009920 1.000000
tan 0.724409 -0.692913 0.000000 1.000000
tan 0.739724 0.639283 -0.180420 1.000000
tan -0.468473 -0.807303 -0.344411 1.000000
tan -0.617149 -0.125116 -0.773389 1.000000
tan -0.757766 -0.123008 -0.640585 1.000000
tan -0.573501 -0.797321 -0.096348 1.000000
tan -0.937442 -0.124930 -0.335917 1.000000
tan -0.582677 -0.811023 0.000000 1.000000
tan -0.968504 -0.251968 -0.007626 1.000000
tan -0.614173 -0.770537 0.053196 1.000000
tan 0.707297 -0.690185 -0.159712 1.000000
tan 0.607415 0.642755 -0.463079 1.000000
tan 0.576105 -0.683427 -0.433505 1.000000
tan -0.477153 -0.808109 0.334925 1.000000
tan -0.757766 -0.123008 0.640585 1.000000
tan -0.492157 -0.126728 0.859322 1.000000
tan -0.192696 -0.794965 0.550561 1.000000
tan 0.279497 -0.684977 -0.667369 1.000000
tan 0.312729 0.642817 -0.697625 1.000000
tan 0.020150 0.942402 -0.100750 1.000000
tan -0.036704 -0.804203 0.582677 1.000000
tan -0.171864 -0.128092 0.976502 1.000000
tan 0.068448 -0.682993 -0.718705 1.000000
tan 0.084196 0.637113 -0.757765 1.000000
tan 0.000000 0.976378 -0.212599 1.000000
tan -0.084196 0.637113 -0.757765 1.000000
tan -0.062186 0.966582 -0.118048 1.000000
tan 0.036704 -0.804203 0.582677 1.000000
tan 0.171864 -0.128092 0.976502 1.000000
tan 0.492157 -0.126728 0.859322 1.000000
tan -0.068448 -0.682993 -0.718705 1.000000
tan -0.312729 0.642817 -0.697625 1.000000
tan -0.279497 -0.684977 -0.667369 1.000000
tan 0.192696 -0.794965 0.550561 1.000000
tan 0.477153 -0.808109 0.334925 1.000000
tan 0.757766 -0.123008 0.640585 1.000000
tan 0.937442 -0.124930 0.335917 1.000000
tan -0.576105 -0.683427 -0.433505 1.000000
tan -0.607415 0.642755 -0.463079 1.000000
tan 0.573501 -0.797321 0.096348 1.000000
tan -0.707297 -0.690185 -0.159712 1.000000
tan -0.739724 0.639283 -0.180420 1.000000
tan -0.173228 0.968504 -0.000000 1.000000
tan 0.582677 -0.811023 0.000000 1.000000
tan 0.992126 -0.125984 0.000000 1.000000
tan 0.937442 -0.124930 -0.335917 1.000000
tan -0.724409 -0.692913 0.000000 1.000000
tan -0.763780 0.645669 -0.000000 1.000000
tan -0.102362 0.955670 0.005642 1.000000
tan -0.739724 0.639283 0.180420 1.000000
tan -0.043710 0.947176 0.109740 1.000000
tan -0.707297 -0.690185 0.159712 1.000000
tan 0.573501 -0.797321 -0.096348 1.000000
tan 0.477153 -0.808110 -0.334925 1.000000
tan 0.757766 -0.122388 -0.632773 1.000000
tan 0.492157 -0.126728 -0.859322 1.000000
tan -0.576105 -0.683427 0.433505 1.000000
tan -0.607415 0.642755 0.463079 1.000000
tan 0.192696 -0.794966 -0.550561 1.000000
tan -0.279497 -0.684977 0.667369 1.000000
tan 0.036704 -0.804204 -0.582677 1.000000
tan 0.171864 -0.128092 -0.976502 1.000000
tan -0.179676 -0.128278 -0.976502 1.000000
tan -0.306715 0.640275 0.697625 1.000000
tan -0.068448 -0.682993 0.718705 1.000000
tan -0.036704 -0.804204 -0.582677 1.000000
tan -0.359353 -0.126108 -0.929630 1.000000
tan -0.125612 -0.784674 -0.580445 1.000000
tan 0.189472 -0.676545 0.709281 1.000000
tan 0.068448 -0.682993 0.718705 1.000000
tan 0.214148 0.629921 0.736933 1.000000
tan 0.078182 0.636245 0.757765 1.000000
tan -0.034720 0.931738 0.131192 1.000000
tan 0.000000 0.992126 0.125984 1.000000
tan -0.078182 0.636245 0.757765 1.000000
tan -0.458057 -0.563085 -0.687643 1.000000
tan -0.224068 -0.952694 -0.119288 1.000000
tan -0.130510 -0.927460 -0.201748 1.000000
tan -0.651001 -0.563457 -0.507781 1.000000
tan -0.182528 0.795337 -0.489367 1.000000
tan -0.800732 -0.569719 -0.214830 1.000000
tan -0.251969 -0.936822 -0.017856 1.000000
tan -0.583297 0.751999 -0.145638 1.000000
tan -0.458553 0.541385 -0.705623 1.000000
tan -0.654163 0.575051 -0.493025 1.000000
tan -0.793106 0.577345 -0.212784 1.000000
tan -0.818898 0.574803 -0.000000 1.000000
tan -0.826772 -0.566929 0.000000 1.000000
tan -0.299213 -0.937008 0.000000 1.000000
tan -0.739724 0.639283 -0.180420 1.000000
tan -0.574803 0.818897 -0.000000 1.000000
tan -0.800732 -0.569719 0.214830 1.000000
tan -0.214272 -0.957592 0.132928 1.000000
tan -0.739724 0.639283 0.180420 1.000000
tan -0.700911 0.648521 0.253270 1.000000
tan -0.793106 0.577345 0.212784 1.000000
tan -0.644801 0.574493 0.502945 1.000000
tan -0.348193 0.573067 0.741521 1.000000
tan -0.052576 0.550251 0.834646 1.000000
tan -0.484345 0.819331 0.065348 1.000000
tan -0.607415 0.647529 0.463079 1.000000
tan -0.099696 0.801104 0.519251 1.000000
tan -0.651001 -0.563457 0.507781 1.000000
tan -0.358051 -0.564821 0.748652 1.000000
tan -0.055552 -0.930250 0.246017 1.000000
tan -0.078182 0.644057 0.757765 1.000000
tan -0.097650 -0.566743 0.820262 1.000000
tan 0.000000 -0.944882 0.330709 1.000000
tan 0.000000 0.866142 0.503937 1.000000
tan 0.097650 -0.566743 0.820262 1.000000
tan 0.055552 -0.930250 0.246017 1.000000
tan 0.078182 0.644057 0.757765 1.000000
tan 0.358051 -0.564821 0.748652 1.000000
tan 0.214272 -0.957592 0.132928 1.000000
tan 0.101184 0.801104 0.527001 1.000000
tan 0.111910 0.652489 0.742141 1.000000
tan 0.071610 0.567239 0.826771 1.000000
tan 0.541633 0.572571 0.612561 1.000000
tan 0.706801 0.652427 0.241490 1.000000
tan 0.793106 0.577345 0.212784 1.000000
tan 0.818898 0.574803 -0.000000 1.000000
tan 0.651001 -0.563457 0.507781 1.000000
tan 0.484345 0.819331 0.065348 1.000000
tan 0.800732 -0.569719 0.214830 1.000000
tan 0.307087 -0.937008 0.000000 1.000000
tan 0.607415 0.647529 0.463079 1.000000
tan 0.826772 -0.566929 0.000000 1.000000
tan 0.739724 0.639283 0.180420 1.000000
tan 0.251969 -0.936822 -0.017856 1.000000
tan 0.574803 0.818897 -0.000000 1.000000
tan 0.800732 -0.569719 -0.214830 1.000000
tan 0.214272 -0.957592 -0.132928 1.000000
tan 0.739724 0.639283 -0.180420 1.000000
tan 0.579577 0.750015 -0.150784 1.000000
tan 0.793106 0.577345 -0.212784 1.000000
tan 0.644801 0.574493 -0.502945 1.000000
tan 0.348193 0.573067 -0.741521 1.000000
tan 0.651001 -0.563457 -0.507781 1.000000
tan 0.093000 0.752991 -0.581251 1.000000
tan 0.096720 0.574555 -0.812450 1.000000
tan 0.358051 -0.564821 -0.748651 1.000000
tan 0.055552 -0.930250 -0.246016 1.000000
tan -0.008122 0.790005 -0.607167 1.000000
tan -0.085808 0.573749 -0.813255 1.000000
tan -0.244777 0.527435 -0.807180 1.000000
tan -0.023002 0.789757 -0.566991 1.000000
tan -0.251534 -0.552793 -0.790129 1.000000
tan 0.078182 0.644057 -0.757765 1.000000
tan 0.097650 -0.566743 -0.820261 1.000000
tan -0.007440 -0.944882 -0.315084 1.000000
tan -0.097650 -0.566743 -0.820261 1.000000
tan 0.019406 -0.926406 -0.288300 1.000000
tan 0.006138 -0.779527 -0.629921 1.000000
tan 0.000000 -0.811024 -0.582677 1.000000
tan 0.006138 -0.779527 -0.621985 1.000000
tan 0.000000 -0.543307 -0.834646 1.000000
tan 0.000000 -0.598425 -0.795275 1.000000
tan -0.006138 -0.779527 -0.629921 1.000000
tan -0.006138 -0.779527 -0.629797 1.000000
tan 0.000000 -0.527559 -0.850394 1.000000
tan 0.000000 -0.582677 -0.811023 1.000000
tan 0.000000 -0.559055 -0.826771 1.000000
tan 0.000000 -0.464567 -0.881890 1.000000
tan -0.015500 -0.180978 -0.984252 1.000000
tan 0.000000 -0.472441 -0.881890 1.000000
tan -0.007750 -0.196850 -0.984252 1.000000
tan 0.000000 -0.425197 -0.905512 1.000000
tan 0.000000 -0.133858 -0.992126 1.000000
tan 0.015500 -0.188852 -0.984252 1.000000
tan 0.000000 -0.133858 -0.992126 1.000000
tan 0.007750 -0.196788 -0.984252 1.000000
tan 0.897142 0.377147 -0.162626 1.000000
tan 0.906132 0.290409 -0.190030 1.000000
tan 0.900118 0.148428 -0.258231 1.000000
tan 0.872714 0.121520 -0.247380 1.000000
tan 0.926220 -0.148056 -0.169818 1.000000
tan 0.890570 0.438961 -0.106020 1.000000
tan 0.910782 -0.288611 -0.144646 1.000000
tan 0.976502 -0.040052 -0.171864 1.000000
tan 0.904272 0.379565 -0.129890 1.000000
tan 0.891190 -0.421601 -0.095294 1.000000
tan 0.917912 0.291215 -0.144646 1.000000
tan 0.893608 -0.418811 -0.136276 1.000000
tan 0.926220 0.148056 -0.169818 1.000000
tan 0.897142 -0.377147 -0.162626 1.000000
tan 0.872714 -0.124992 -0.254448 1.000000
tan 0.906132 -0.290409 -0.190030 1.000000
tan 0.000000 -0.984252 0.149606 1.000000
tan -0.437473 -0.856346 0.214645 1.000000
tan 0.019158 -0.582863 0.811024 1.000000
tan 0.457933 -0.850208 0.181164 1.000000
tan -0.390973 -0.783620 -0.402133 1.000000
tan 0.264369 -0.640585 -0.713745 1.000000
tan 0.417881 -0.760369 -0.429289 1.000000
tan -0.229524 -0.604997 -0.756153 1.000000
tan 0.000000 -0.212599 -0.976378 1.000000
tan 0.295493 -0.682497 -0.653605 1.000000
tan -0.248186 -0.676173 -0.685287 1.000000
tan 0.084692 -0.572447 -0.783743 1.000000
tan -0.046500 0.226176 -0.946556 1.000000
tan 0.606671 -0.409449 -0.666129 1.000000
tan 0.000000 0.433071 -0.897638 1.000000
tan -0.002170 -0.539029 -0.835886 1.000000
tan -0.602021 -0.394817 -0.680017 1.000000
tan -0.061814 -0.554653 -0.820261 1.000000
tan 0.528055 -0.668113 -0.502387 1.000000
tan -0.583669 -0.231199 -0.772211 1.000000
tan -0.058156 -0.549383 -0.801041 1.000000
tan 0.000000 -0.803150 -0.590551 1.000000
tan -0.007874 -1.000000 0.070866 1.000000
tan 0.586273 -0.224874 -0.779341 1.000000
tan -0.512865 -0.654411 -0.534069 1.000000
tan 0.326493 0.329221 -0.830120 1.000000
tan -0.282163 -0.708351 -0.645669 1.000000
tan -0.463327 0.240870 -0.800917 1.000000
tan 0.000000 0.645669 -0.763779 1.000000
tan 0.131254 -0.970302 0.042904 1.000000
tan -0.201500 0.270072 -0.871164 1.000000
tan 0.506417 0.210800 -0.800545 1.000000
tan 0.194928 -0.680265 -0.699609 1.000000
tan -0.489553 -0.774506 -0.267840 1.000000
tan -0.047616 -0.947362 -0.292144 1.000000
tan 0.000000 -0.519685 -0.858268 1.000000
tan 0.000000 0.157480 -0.976378 1.000000
tan 0.232190 0.655961 -0.633703 1.000000
f 3/3/3 2/2/2 1/1/1
f 3/3/3 4/4/4 2/2/2
f 2/2/2 4/4/4 5/5/5
f 6/6/6 5/5/5 4/4/4
f 6/6/6 7/7/7 5/5/5
f 10/10/10 9/9/9 8/8/8
f 11/11/11 10/10/10 8/8/8
f 11/11/11 8/8/8 12/12/12
f 13/13/13 10/10/10 11/11/11
f 11/11/11 12/12/12 14/14/14
f 15/15/15 13/13/13 11/11/11
f 16/16/16 11/11/11 14/14/14
f 11/11/11 16/16/16 15/15/15
f 17/17/17 16/16/16 14/14/14
f 18/18/18 16/16/16 17/17/17
f 16/16/16 18/18/18 19/19/19
f 20/20/20 13/13/13 15/15/15
f 13/13/13 20/20/20 21/21/21
f 20/20/20 22/22/22 21/21/21
f 23/23/23 16/16/16 19/19/19
f 23/23/23 19/19/19 24/24/24
f 25/25/25 22/22/22 20/20/20
f 26/26/26 22/22/22 25/25/25
f 27/27/27 26/26/26 25/25/25
f 28/28/28 25/25/25 20/20/20
f 15/15/15 28/28/28 20/20/20
f 27/27/27 25/25/25 29/29/29
f 29/29/29 25/25/25 28/28/28
f 29/29/29 30/30/30 27/27/27
f 30/30/30 29/29/29 31/31/31
f 15/15/15 32/32/32 28/28/28
f 32/32/32 29/29/29 28/28/28
f 31/31/31 29/29/29 33/33/33
f 33/33/33 29/29/29 32/32/32
f 34/34/34 31/31/31 33/33/33
f 32/32/32 15/15/15 35/35/35
f 35/35/35 15/15/15 16/16/16
f 32/32/32 36/36/36 33/33/33
f 35/35/35 36/36/36 32/32/32
f 16/16/16 37/37/37 35/35/35
f 23/23/23 37/37/37 16/16/16
f 36/36/36 35/35/35 38/38/38
f 37/37/37 38/38/38 35/35/35
f 36/36/36 39/39/39 33/33/33
f 36/36/36 38/38/38 39/39/39
f 40/40/40 33/33/33 39/39/39
f 39/39/39 38/38/38 41/41/41
f 40/40/40 39/39/39 41/41/41
f 34/34/34 33/33/33 42/42/42
f 33/33/33 40/40/40 42/42/42
f 43/43/43 34/34/34 42/42/42
f 43/43/43 42/42/42 44/44/44
f 40/40/40 41/41/41 45/45/45
f 45/45/45 42/42/42 40/40/40
f 46/46/46 44/44/44 42/42/42
f 46/46/46 42/42/42 45/45/45
f 44/44/44 46/46/46 47/47/47
f 48/48/48 45/45/45 41/41/41
f 41/41/41 38/38/38 48/48/48
f 47/47/47 46/46/46 49/49/49
f 50/50/50 47/47/47 49/49/49
f 51/51/51 46/46/46 45/45/45
f 46/46/46 51/51/51 49/49/49
f 51/51/51 45/45/45 48/48/48
f 50/50/50 49/49/49 52/52/52
f 49/49/49 51/51/51 52/52/52
f 53/53/53 50/50/50 52/52/52
f 54/54/54 53/53/53 52/52/52
f 54/54/54 52/52/52 55/55/55
f 56/56/56 52/52/52 51/51/51
f 57/57/57 55/55/55 52/52/52
f 55/55/55 57/57/57 58/58/58
f 59/59/59 52/52/52 56/56/56
f 52/52/52 59/59/59 57/57/57
f 51/51/51 60/60/60 56/56/56
f 56/56/56 60/60/60 59/59/59
f 60/60/60 51/51/51 48/48/48
f 61/61/61 58/58/58 57/57/57
f 62/62/62 58/58/58 61/61/61
f 63/63/63 48/48/48 38/38/38
f 60/60/60 48/48/48 63/63/63
f 37/37/37 63/63/63 38/38/38
f 62/62/62 61/61/61 64/64/64
f 65/65/65 62/62/62 64/64/64
f 65/65/65 64/64/64 66/66/66
f 67/67/67 63/63/63 37/37/37
f 37/37/37 23/23/23 67/67/67
f 68/68/68 66/66/66 64/64/64
f 66/66/66 68/68/68 69/69/69
f 67/67/67 70/70/70 63/63/63
f 70/70/70 60/60/60 63/63/63
f 71/71/71 67/67/67 23/23/23
f 23/23/23 24/24/24 71/71/71
f 72/72/72 71/71/71 24/24/24
f 73/73/73 71/71/71 72/72/72
f 67/67/67 74/74/74 70/70/70
f 67/67/67 71/71/71 74/74/74
f 71/71/71 73/73/73 75/75/75
f 75/75/75 74/74/74 71/71/71
f 76/76/76 75/75/75 73/73/73
f 75/75/75 76/76/76 77/77/77
f 75/75/75 77/77/77 78/78/78
f 79/79/79 70/70/70 74/74/74
f 79/79/79 60/60/60 70/70/70
f 74/74/74 75/75/75 80/80/80
f 79/79/79 74/74/74 80/80/80
f 81/81/81 75/75/75 78/78/78
f 81/81/81 80/80/80 75/75/75
f 83/83/83 82/82/82 78/78/78
f 81/81/81 78/78/78 82/82/82
f 84/84/84 60/60/60 79/79/79
f 84/84/84 59/59/59 60/60/60
f 85/85/85 59/59/59 84/84/84
f 84/84/84 79/79/79 85/85/85
f 59/59/59 85/85/85 57/57/57
f 86/86/86 85/85/85 79/79/79
f 86/86/86 79/79/79 80/80/80
f 87/87/87 57/57/57 85/85/85
f 87/87/87 85/85/85 86/86/86
f 61/61/61 57/57/57 87/87/87
f 88/88/88 86/86/86 80/80/80
f 80/80/80 81/81/81 88/88/88
f 89/89/89 61/61/61 87/87/87
f 61/61/61 89/89/89 64/64/64
f 64/64/64 89/89/89 68/68/68
f 90/90/90 87/87/87 86/86/86
f 90/90/90 89/89/89 87/87/87
f 91/91/91 90/90/90 86/86/86
f 86/86/86 88/88/88 91/91/91
f 92/92/92 89/89/89 90/90/90
f 90/90/90 91/91/91 92/92/92
f 92/92/92 68/68/68 89/89/89
f 91/91/91 88/88/88 93/93/93
f 68/68/68 92/92/92 94/94/94
f 94/94/94 69/69/69 68/68/68
f 69/69/69 94/94/94 95/95/95
f 95/95/95 94/94/94 96/96/96
f 96/96/96 94/94/94 97/97/97
f 92/92/92 91/91/91 98/98/98
f 92/92/92 98/98/98 94/94/94
f 91/91/91 93/93/93 98/98/98
f 97/97/97 94/94/94 99/99/99
f 99/99/99 94/94/94 98/98/98
f 100/100/100 97/97/97 99/99/99
f 98/98/98 101/101/101 99/99/99
f 99/99/99 101/101/101 100/100/100
f 101/101/101 98/98/98 93/93/93
f 102/102/102 100/100/100 101/101/101
f 104/104/104 102/102/102 103/103/103
f 105/105/105 103/103/103 102/102/102
f 101/101/101 105/105/105 102/102/102
f 103/103/103 105/105/105 106/106/106
f 93/93/93 107/107/107 101/101/101
f 105/105/105 101/101/101 107/107/107
f 107/107/107 106/106/106 105/105/105
f 93/93/93 88/88/88 107/107/107
f 107/107/107 108/108/108 106/106/106
f 81/81/81 107/107/107 88/88/88
f 107/107/107 82/82/82 108/108/108
f 81/81/81 82/82/82 107/107/107
f 111/111/111 110/110/110 109/109/109
f 112/112/112 109/109/109 110/110/110
f 110/110/110 113/113/113 112/112/112
f 114/114/114 112/112/112 113/113/113
f 115/115/115 113/113/113 110/110/110
f 112/112/112 114/114/114 116/116/116
f 110/110/110 117/117/117 115/115/115
f 116/116/116 118/118/118 112/112/112
f 115/115/115 117/117/117 119/119/119
f 116/116/116 120/120/120 118/118/118
f 121/121/121 119/119/119 117/117/117
f 122/122/122 120/120/120 116/116/116
f 123/123/123 119/119/119 121/121/121
f 120/120/120 122/122/122 124/124/124
f 123/123/123 124/124/124 122/122/122
f 123/123/123 121/121/121 125/125/125
f 125/125/125 124/124/124 123/123/123
f 125/125/125 126/126/126 124/124/124
f 129/129/129 128/128/128 127/127/127
f 130/130/130 127/127/127 128/128/128
f 128/128/128 131/131/131 130/130/130
f 127/127/127 130/130/130 132/132/132
f 133/133/133 127/127/127 132/132/132
f 134/134/134 130/130/130 131/131/131
f 131/131/131 135/135/135 134/134/134
f 136/136/136 132/132/132 130/130/130
f 134/134/134 136/136/136 130/130/130
f 133/133/133 132/132/132 137/137/137
f 133/133/133 137/137/137 138/138/138
f 139/139/139 137/137/137 132/132/132
f 132/132/132 136/136/136 139/139/139
f 140/140/140 138/138/138 137/137/137
f 137/137/137 139/139/139 140/140/140
f 141/141/141 134/134/134 135/135/135
f 135/135/135 142/142/142 141/141/141
f 143/143/143 141/141/141 142/142/142
f 141/141/141 144/144/144 134/134/134
f 141/141/141 143/143/143 144/144/144
f 144/144/144 136/136/136 134/134/134
f 145/145/145 144/144/144 143/143/143
f 144/144/144 146/146/146 136/136/136
f 144/144/144 145/145/145 146/146/146
f 146/146/146 139/139/139 136/136/136
f 147/147/147 146/146/146 145/145/145
f 147/147/147 148/148/148 146/146/146
f 139/139/139 146/146/146 149/149/149
f 148/148/148 149/149/149 146/146/146
f 149/149/149 140/140/140 139/139/139
f 140/140/140 149/149/149 150/150/150
f 150/150/150 138/138/138 140/140/140
f 149/149/149 148/148/148 151/151/151
f 151/151/151 150/150/150 149/149/149
f 152/152/152 151/151/151 148/148/148
f 152/152/152 148/148/148 153/153/153
f 152/152/152 153/153/153 154/154/154
f 152/152/152 155/155/155 151/151/151
f 154/154/154 155/155/155 152/152/152
f 150/150/150 151/151/151 156/156/156
f 155/155/155 156/156/156 151/151/151
f 138/138/138 150/150/150 157/157/157
f 157/157/157 150/150/150 156/156/156
f 158/158/158 138/138/138 157/157/157
f 155/155/155 154/154/154 159/159/159
f 155/155/155 159/159/159 156/156/156
f 160/160/160 159/159/159 154/154/154
f 156/156/156 161/161/161 157/157/157
f 159/159/159 161/161/161 156/156/156
f 158/158/158 157/157/157 162/162/162
f 162/162/162 157/157/157 161/161/161
f 163/163/163 158/158/158 162/162/162
f 163/163/163 162/162/162 164/164/164
f 162/162/162 161/161/161 164/164/164
f 163/163/163 164/164/164 165/165/165
f 159/159/159 166/166/166 161/161/161
f 159/159/159 160/160/160 166/166/166
f 167/167/167 166/166/166 160/160/160
f 167/167/167 168/168/168 166/166/166
f 169/169/169 164/164/164 161/161/161
f 166/166/166 169/169/169 161/161/161
f 164/164/164 169/169/169 170/170/170
f 170/170/170 165/165/165 164/164/164
f 169/169/169 166/166/166 171/171/171
f 171/171/171 170/170/170 169/169/169
f 172/172/172 166/166/166 168/168/168
f 172/172/172 171/171/171 166/166/166
f 172/172/172 168/168/168 173/173/173
f 174/174/174 173/173/173 168/168/168
f 173/173/173 174/174/174 175/175/175
f 171/171/171 172/172/172 176/176/176
f 173/173/173 176/176/176 172/172/172
f 170/170/170 171/171/171 177/177/177
f 176/176/176 177/177/177 171/171/171
f 177/177/177 165/165/165 170/170/170
f 173/173/173 178/178/178 176/176/176
f 178/178/178 173/173/173 175/175/175
f 177/177/177 176/176/176 179/179/179
f 178/178/178 179/179/179 176/176/176
f 165/165/165 177/177/177 180/180/180
f 180/180/180 177/177/177 179/179/179
f 181/181/181 165/165/165 180/180/180
f 178/178/178 175/175/175 182/182/182
f 178/178/178 182/182/182 179/179/179
f 183/183/183 182/182/182 175/175/175
f 182/182/182 183/183/183 184/184/184
f 180/180/180 179/179/179 185/185/185
f 182/182/182 185/185/185 179/179/179
f 181/181/181 180/180/180 186/186/186
f 186/186/186 180/180/180 185/185/185
f 181/181/181 186/186/186 187/187/187
f 188/188/188 187/187/187 186/186/186
f 186/186/186 185/185/185 188/188/188
f 187/187/187 188/188/188 189/189/189
f 185/185/185 182/182/182 190/190/190
f 190/190/190 188/188/188 185/185/185
f 184/184/184 191/191/191 182/182/182
f 191/191/191 190/190/190 182/182/182
f 191/191/191 184/184/184 192/192/192
f 193/193/193 192/192/192 184/184/184
f 193/193/193 194/194/194 192/192/192
f 190/190/190 191/191/191 195/195/195
f 192/192/192 195/195/195 191/191/191
f 188/188/188 190/190/190 196/196/196
f 195/195/195 196/196/196 190/190/190
f 196/196/196 189/189/189 188/188/188
f 192/192/192 197/197/197 195/195/195
f 197/197/197 192/192/192 194/194/194
f 196/196/196 195/195/195 198/198/198
f 197/197/197 198/198/198 195/195/195
f 197/197/197 194/194/194 199/199/199
f 197/197/197 199/199/199 198/198/198
f 200/200/200 199/199/199 194/194/194
f 199/199/199 200/200/200 201/201/201
f 198/198/198 202/202/202 196/196/196
f 189/189/189 196/196/196 202/202/202
f 199/199/199 203/203/203 198/198/198
f 202/202/202 198/198/198 203/203/203
f 204/204/204 199/199/199 201/201/201
f 199/199/199 204/204/204 203/203/203
f 204/204/204 201/201/201 205/205/205
f 205/205/205 206/206/206 204/204/204
f 206/206/206 207/207/207 204/204/204
f 208/208/208 204/204/204 207/207/207
f 204/204/204 208/208/208 203/203/203
f 207/207/207 209/209/209 208/208/208
f 210/210/210 208/208/208 209/209/209
f 208/208/208 210/210/210 203/203/203
f 209/209/209 211/211/211 210/210/210
f 212/212/212 210/210/210 211/211/211
f 213/213/213 203/203/203 210/210/210
f 212/212/212 213/213/213 210/210/210
f 213/213/213 202/202/202 203/203/203
f 212/212/212 189/189/189 213/213/213
f 189/189/189 202/202/202 213/213/213
f 216/216/216 215/215/215 214/214/214
f 217/217/217 214/214/214 215/215/215
f 218/218/218 214/214/214 217/217/217
f 215/215/215 219/219/219 217/217/217
f 219/219/219 215/215/215 220/220/220
f 217/217/217 221/221/221 218/218/218
f 217/217/217 219/219/219 221/221/221
f 222/222/222 218/218/218 221/221/221
f 221/221/221 223/223/223 222/222/222
f 223/223/223 221/221/221 224/224/224
f 224/224/224 221/221/221 225/225/225
f 220/220/220 226/226/226 219/219/219
f 226/226/226 220/220/220 227/227/227
f 228/228/228 221/221/221 219/219/219
f 219/219/219 226/226/226 228/228/228
f 228/228/228 229/229/229 221/221/221
f 229/229/229 228/228/228 226/226/226
f 229/229/229 225/225/225 221/221/221
f 230/230/230 226/226/226 227/227/227
f 227/227/227 231/231/231 230/230/230
f 229/229/229 226/226/226 232/232/232
f 230/230/230 232/232/232 226/226/226
f 229/229/229 233/233/233 225/225/225
f 233/233/233 234/234/234 225/225/225
f 233/233/233 235/235/235 234/234/234
f 235/235/235 233/233/233 236/236/236
f 237/237/237 236/236/236 233/233/233
f 238/238/238 229/229/229 232/232/232
f 238/238/238 233/233/233 229/229/229
f 232/232/232 239/239/239 238/238/238
f 232/232/232 230/230/230 239/239/239
f 238/238/238 240/240/240 233/233/233
f 239/239/239 240/240/240 238/238/238
f 240/240/240 237/237/237 233/233/233
f 241/241/241 239/239/239 230/230/230
f 239/239/239 241/241/241 240/240/240
f 241/241/241 230/230/230 231/231/231
f 231/231/231 242/242/242 241/241/241
f 242/242/242 240/240/240 241/241/241
f 242/242/242 231/231/231 243/243/243
f 240/240/240 242/242/242 244/244/244
f 243/243/243 245/245/245 242/242/242
f 245/245/245 244/244/244 242/242/242
f 245/245/245 243/243/243 246/246/246
f 247/247/247 240/240/240 244/244/244
f 247/247/247 237/237/237 240/240/240
f 246/246/246 248/248/248 245/245/245
f 246/246/246 249/249/249 248/248/248
f 244/244/244 245/245/245 250/250/250
f 248/248/248 250/250/250 245/245/245
f 247/247/247 244/244/244 250/250/250
f 251/251/251 248/248/248 249/249/249
f 248/248/248 251/251/251 250/250/250
f 249/249/249 252/252/252 251/251/251
f 250/250/250 253/253/253 247/247/247
f 253/253/253 250/250/250 251/251/251
f 237/237/237 247/247/247 254/254/254
f 247/247/247 253/253/253 254/254/254
f 255/255/255 237/237/237 254/254/254
f 256/256/256 255/255/255 254/254/254
f 254/254/254 257/257/257 256/256/256
f 254/254/254 253/253/253 257/257/257
f 256/256/256 257/257/257 258/258/258
f 258/258/258 257/257/257 259/259/259
f 251/251/251 260/260/260 253/253/253
f 260/260/260 251/251/251 252/252/252
f 261/261/261 257/257/257 253/253/253
f 252/252/252 262/262/262 260/260/260
f 262/262/262 252/252/252 263/263/263
f 260/260/260 264/264/264 253/253/253
f 260/260/260 262/262/262 264/264/264
f 261/261/261 253/253/253 264/264/264
f 263/263/263 265/265/265 262/262/262
f 262/262/262 266/266/266 264/264/264
f 261/261/261 264/264/264 266/266/266
f 262/262/262 265/265/265 266/266/266
f 263/263/263 267/267/267 265/265/265
f 266/266/266 268/268/268 261/261/261
f 257/257/257 261/261/261 268/268/268
f 265/265/265 268/268/268 266/266/266
f 268/268/268 259/259/259 257/257/257
f 269/269/269 265/265/265 267/267/267
f 267/267/267 270/270/270 269/269/269
f 268/268/268 265/265/265 271/271/271
f 269/269/269 271/271/271 265/265/265
f 259/259/259 268/268/268 272/272/272
f 272/272/272 268/268/268 271/271/271
f 271/271/271 269/269/269 272/272/272
f 272/272/272 273/273/273 259/259/259
f 274/274/274 273/273/273 272/272/272
f 274/274/274 272/272/272 275/275/275
f 276/276/276 272/272/272 269/269/269
f 276/276/276 269/269/269 270/270/270
f 277/277/277 275/275/275 272/272/272
f 272/272/272 276/276/276 277/277/277
f 275/275/275 277/277/277 278/278/278
f 270/270/270 279/279/279 276/276/276
f 279/279/279 277/277/277 276/276/276
f 279/279/279 270/270/270 280/280/280
f 281/281/281 278/278/278 277/277/277
f 278/278/278 281/281/281 282/282/282
f 281/281/281 283/283/283 282/282/282
f 284/284/284 283/283/283 281/281/281
f 285/285/285 284/284/284 281/281/281
f 277/277/277 279/279/279 286/286/286
f 281/281/281 277/277/277 286/286/286
f 287/287/287 286/286/286 279/279/279
f 286/286/286 287/287/287 281/281/281
f 280/280/280 287/287/287 279/279/279
f 287/287/287 280/280/280 288/288/288
f 289/289/289 285/285/285 281/281/281
f 289/289/289 281/281/281 287/287/287
f 288/288/288 289/289/289 287/287/287
f 285/285/285 289/289/289 290/290/290
f 288/288/288 290/290/290 289/289/289
f 293/293/293 292/292/292 291/291/291
f 293/293/293 291/291/291 294/294/294
f 295/295/295 293/293/293 294/294/294
f 297/297/297 296/296/296 292/292/292
f 298/298/298 296/296/296 297/297/297
f 298/298/298 297/297/297 299/299/299
f 299/299/299 300/300/300 298/298/298
f 298/298/298 300/300/300 294/294/294
f 298/298/298 294/294/294 301/301/301
f 302/302/302 301/301/301 294/294/294
f 301/301/301 303/303/303 298/298/298
f 302/302/302 294/294/294 304/304/304
f 303/303/303 305/305/305 298/298/298
f 302/302/302 304/304/304 306/306/306
f 298/298/298 305/305/305 307/307/307
f 308/308/308 302/302/302 306/306/306
f 307/307/307 308/308/308 306/306/306
f 307/307/307 309/309/309 298/298/298
f 307/307/307 306/306/306 309/309/309
f 312/312/312 311/311/311 310/310/310
f 311/311/311 312/312/312 313/313/313
f 314/314/314 313/313/313 312/312/312
f 312/312/312 310/310/310 315/315/315
f 314/314/314 312/312/312 316/316/316
f 312/312/312 315/315/315 317/317/317
f 317/317/317 316/316/316 312/312/312
f 315/315/315 318/318/318 317/317/317
f 316/316/316 317/317/317 319/319/319
f 320/320/320 317/317/317 318/318/318
f 319/319/319 317/317/317 321/321/321
f 322/322/322 317/317/317 320/320/320
f 323/323/323 321/321/321 317/317/317
f 317/317/317 322/322/322 324/324/324
f 325/325/325 323/323/323 317/317/317
f 325/325/325 317/317/317 324/324/324
f 328/328/328 327/327/327 326/326/326
f 328/328/328 326/326/326 329/329/329
f 327/327/327 330/330/330 326/326/326
f 327/327/327 331/331/331 330/330/330
f 332/332/332 329/329/329 326/326/326
f 329/329/329 332/332/332 333/333/333
f 326/326/326 330/330/330 334/334/334
f 332/332/332 326/326/326 334/334/334
f 333/333/333 332/332/332 335/335/335
f 332/332/332 334/334/334 335/335/335
f 331/331/331 336/336/336 330/330/330
f 330/330/330 336/336/336 334/334/334
f 333/333/333 335/335/335 337/337/337
f 338/338/338 333/333/333 337/337/337
f 335/335/335 334/334/334 339/339/339
f 334/334/334 340/340/340 339/339/339
f 339/339/339 341/341/341 335/335/335
f 334/334/334 342/342/342 340/340/340
f 337/337/337 335/335/335 341/341/341
f 342/342/342 334/334/334 336/336/336
f 336/336/336 343/343/343 342/342/342
f 344/344/344 337/337/337 341/341/341
f 341/341/341 345/345/345 344/344/344
f 343/343/343 336/336/336 346/346/346
f 336/336/336 331/331/331 346/346/346
f 344/344/344 345/345/345 347/347/347
f 348/348/348 347/347/347 345/345/345
f 348/348/348 349/349/349 347/347/347
f 343/343/343 350/350/350 349/349/349
f 350/350/350 347/347/347 349/349/349
f 350/350/350 343/343/343 346/346/346
f 344/344/344 347/347/347 351/351/351
f 344/344/344 351/351/351 352/352/352
f 352/352/352 337/337/337 344/344/344
f 351/351/351 353/353/353 352/352/352
f 351/351/351 354/354/354 353/353/353
f 354/354/354 351/351/351 347/347/347
f 337/337/337 352/352/352 355/355/355
f 354/354/354 347/347/347 356/356/356
f 350/350/350 356/356/356 347/347/347
f 356/356/356 357/357/357 354/354/354
f 350/350/350 358/358/358 356/356/356
f 357/357/357 356/356/356 358/358/358
f 358/358/358 350/350/350 346/346/346
f 358/358/358 359/359/359 357/357/357
f 360/360/360 359/359/359 358/358/358
f 360/360/360 358/358/358 346/346/346
f 355/355/355 359/359/359 360/360/360
f 355/355/355 360/360/360 361/361/361
f 346/346/346 361/361/361 360/360/360
f 355/355/355 361/361/361 337/337/337
f 337/337/337 361/361/361 338/338/338
f 362/362/362 361/361/361 346/346/346
f 362/362/362 338/338/338 361/361/361
f 346/346/346 331/331/331 362/362/362
f 363/363/363 338/338/338 362/362/362
f 363/363/363 362/362/362 331/331/331
