mtllib SM_Sticker_07.mtl
g SM_Sticker_07
#Vertices 28
#Indices 78
#Section 0 Offset 0 NumIndices 78 MaterialIndex 0 MI_Posters_01
v 0.075319 0.164861 -0.000000
v 0.053094 0.181576 -0.000000
v 0.040791 0.184883 -0.000000
v 0.024628 0.180842 -0.000000
v 0.080095 0.151637 -0.000000
v 0.014158 0.162290 -0.000000
v 0.080646 0.140799 -0.000000
v 0.093875 0.120595 -0.000000
v 0.090748 0.133636 -0.000000
v 0.085203 0.080267 -0.000000
v -0.002747 0.155836 -0.000000
v 0.010300 0.163760 -0.000000
v -0.002751 0.133756 -0.000000
v 0.072734 0.068577 -0.000000
v -0.025481 0.119729 -0.000000
v 0.077410 0.056758 -0.000000
v 0.077927 0.038315 -0.000000
v 0.067147 0.030782 -0.000000
v -0.032753 0.095182 -0.000000
v -0.025977 0.041042 -0.000000
v 0.045069 0.012728 -0.000000
v 0.000000 0.000000 0.000000
v 0.025327 -0.003377 0.000000
v 0.063251 0.005585 -0.000000
v 0.074161 0.023119 -0.000000
v 0.045458 0.001299 -0.000000
v 0.056888 -0.005715 0.000000
v 0.064291 -0.000649 0.000000
vt 0.985352 0.514404
vt 0.974609 0.522705
vt 0.968750 0.524170
vt 0.960938 0.522217
vt 0.987793 0.508057
vt 0.955566 0.513184
vt 0.988281 0.502686
vt 0.994629 0.493164
vt 0.993164 0.499512
vt 0.990234 0.473145
vt 0.947266 0.510010
vt 0.953613 0.513916
vt 0.947266 0.499512
vt 0.984375 0.467773
vt 0.936523 0.492676
vt 0.986816 0.461914
vt 0.986816 0.452637
vt 0.981445 0.449219
vt 0.932617 0.480469
vt 0.936035 0.454102
vt 0.970703 0.440430
vt 0.948730 0.434082
vt 0.960938 0.432617
vt 0.979492 0.437012
vt 0.984863 0.445312
vt 0.971191 0.434570
vt 0.976562 0.431152
vt 0.979980 0.433594
vt1 0.683105 0.808105
vt1 0.591797 0.876526
vt1 0.541504 0.890015
vt1 0.475586 0.873535
vt1 0.702637 0.754028
vt1 0.432861 0.797607
vt1 0.704590 0.709717
vt1 0.758789 0.626953
vt1 0.746094 0.680420
vt1 0.723145 0.461914
vt1 0.363525 0.771240
vt1 0.416992 0.803589
vt1 0.363525 0.680908
vt1 0.672363 0.414062
vt1 0.270508 0.623535
vt1 0.691406 0.365723
vt1 0.693359 0.290527
vt1 0.649414 0.259766
vt1 0.240845 0.522949
vt1 0.268555 0.301758
vt1 0.559082 0.185547
vt1 0.374756 0.133789
vt1 0.478516 0.119629
vt1 0.633301 0.156250
vt1 0.678223 0.228027
vt1 0.560547 0.139160
vt1 0.607422 0.110352
vt1 0.637695 0.130859
vn 0.000000 -0.000000 -1.000000
vn 0.000000 -0.000000 -1.000000
vn 0.000000 -0.000000 -1.000000
vn 0.000000 -0.000000 -1.000000
vn 0.000000 -0.000000 -1.000000
vn 0.000000 -0.000000 -1.000000
vn 0.000000 -0.000000 -1.000000
vn 0.000000 -0.000000 -1.000000
vn 0.000000 -0.000000 -1.000000
vn 0.000000 -0.000000 -1.000000
vn 0.000000 -0.000000 -1.000000
vn 0.000000 -0.000000 -1.000000
vn 0.000000 -0.000000 -1.000000
vn 0.000000 -0.000000 -1.000000
vn 0.000000 -0.000000 -1.000000
vn 0.000000 -0.000000 -1.000000
vn 0.000000 -0.000000 -1.000000
vn 0.000000 -0.000000 -1.000000
vn 0.000000 -0.000000 -1.000000
vn 0.000000 -0.000000 -1.000000
vn 0.000000 -0.000000 -1.000000
vn 0.000000 -0.000000 -1.000000
vn 0.000000 -0.000000 -1.000000
vn 0.000000 -0.000000 -1.000000
vn 0.000000 -0.000000 -1.000000
vn 0.000000 -0.000000 -1.000000
vn 0.000000 -0.000000 -1.000000
vn 0.000000 -0.000000 -1.000000
tan 0.000000 -1.000000 0.000000 1.000000
tan 0.000000 -1.000000 0.000000 1.000000
tan 0.000000 -1.000000 0.000000 1.000000
tan 0.000000 -1.000000 0.000000 1.000000
tan 0.000000 -1.000000 0.000000 1.000000
tan 0.000000 -1.000000 0.000000 1.000000
tan 0.000000 -1.000000 0.000000 1.000000
tan 0.000000 -1.000000 0.000000 1.000000
tan 0.000000 -1.000000 0.000000 1.000000
tan 0.000000 -1.000000 0.000000 1.000000
tan 0.000000 -1.000000 0.000000 1.000000
tan 0.000000 -1.000000 0.000000 1.000000
tan 0.000000 -1.000000 0.000000 1.000000
tan 0.000000 -1.000000 0.000000 1.000000
tan 0.000000 -1.000000 0.000000 1.000000
tan 0.000000 -1.000000 0.000000 1.000000
tan 0.000000 -1.000000 0.000000 1.000000
tan 0.000000 -1.000000 0.000000 1.000000
tan 0.000000 -1.000000 0.000000 1.000000
tan 0.000000 -1.000000 0.000000 1.000000
tan 0.000000 -1.000000 0.000000 1.000000
tan 0.000000 -1.000000 0.000000 1.000000
tan 0.000000 -1.000000 0.000000 1.000000
tan 0.000000 -1.000000 0.000000 1.000000
tan 0.000000 -1.000000 0.000000 1.000000
tan 0.000000 -1.000000 0.000000 1.000000
tan 0.000000 -1.000000 0.000000 1.000000
tan 0.000000 -1.000000 0.000000 1.000000
f 3/3/3 2/2/2 1/1/1
f 3/3/3 1/1/1 4/4/4
f 5/5/5 4/4/4 1/1/1
f 6/6/6 4/4/4 5/5/5
f 5/5/5 7/7/7 6/6/6
f 9/9/9 8/8/8 7/7/7
f 7/7/7 8/8/8 6/6/6
f 6/6/6 8/8/8 10/10/10
f 12/12/12 6/6/6 11/11/11
f 10/10/10 11/11/11 6/6/6
f 13/13/13 11/11/11 10/10/10
f 10/10/10 14/14/14 13/13/13
f 13/13/13 14/14/14 15/15/15
f 14/14/14 16/16/16 15/15/15
f 15/15/15 16/16/16 17/17/17
f 17/17/17 18/18/18 15/15/15
f 19/19/19 15/15/15 18/18/18
f 20/20/20 19/19/19 18/18/18
f 18/18/18 21/21/21 20/20/20
f 20/20/20 21/21/21 22/22/22
f 23/23/23 22/22/22 21/21/21
f 24/24/24 21/21/21 18/18/18
f 25/25/25 24/24/24 18/18/18
f 24/24/24 26/26/26 21/21/21
f 27/27/27 26/26/26 24/24/24
f 28/28/28 27/27/27 24/24/24
