mtllib SM_Sticker_04.mtl
g SM_Sticker_04
#Vertices 25
#Indices 69
#Section 0 Offset 0 NumIndices 69 MaterialIndex 0 MI_Posters_01
v 0.074206 0.466533 -0.000000
v 0.103819 0.422893 -0.000000
v 0.107455 0.456662 -0.000000
v -0.023465 0.456143 -0.000000
v -0.025887 0.372978 -0.000000
v 0.112133 0.383929 -0.000000
v -0.016556 0.334315 -0.000000
v 0.144863 0.356394 -0.000000
v 0.000587 0.309377 -0.000000
v 0.138106 0.317949 -0.000000
v -0.040196 0.264439 -0.000000
v 0.173434 0.274829 -0.000000
v -0.088307 0.239501 -0.000000
v -0.074744 0.263399 -0.000000
v -0.093082 0.168846 -0.000000
v 0.219672 0.112737 -0.000000
v -0.137893 0.119483 -0.000000
v -0.126386 0.081306 -0.000000
v -0.003204 0.049874 -0.000000
v -0.101914 0.058122 -0.000000
v 0.172914 0.001039 -0.000000
v 0.000000 0.000000 0.000000
v 0.239933 0.109100 -0.000000
v 0.229023 -0.009871 0.000000
v 0.174473 -0.010390 0.000000
vt 0.518555 0.404297
vt 0.533203 0.383301
vt 0.534668 0.399902
vt 0.470947 0.399414
vt 0.469727 0.358887
vt 0.537109 0.364258
vt 0.474365 0.339844
vt 0.553223 0.350586
vt 0.482666 0.327637
vt 0.549805 0.332031
vt 0.462891 0.305664
vt 0.566895 0.311035
vt 0.439209 0.293457
vt 0.446045 0.305176
vt 0.437012 0.259277
vt 0.589355 0.231934
vt 0.415039 0.234863
vt 0.420654 0.216309
vt 0.480957 0.201172
vt 0.432617 0.205078
vt 0.566895 0.177246
vt 0.482422 0.176758
vt 0.599609 0.229980
vt 0.594238 0.171875
vt 0.567383 0.171387
vt1 0.537598 0.890015
vt1 0.585938 0.818726
vt1 0.592285 0.873901
vt1 0.378174 0.873047
vt1 0.374023 0.737061
vt1 0.599609 0.755005
vt1 0.389404 0.673828
vt1 0.653320 0.709961
vt1 0.417480 0.633057
vt1 0.642090 0.647217
vt1 0.350586 0.559570
vt1 0.700195 0.576660
vt1 0.271973 0.518799
vt1 0.294189 0.557861
vt1 0.264160 0.403320
vt1 0.775391 0.311523
vt1 0.190918 0.322754
vt1 0.209839 0.260254
vt1 0.411133 0.208984
vt1 0.249878 0.222168
vt1 0.699219 0.128906
vt1 0.416504 0.127441
vt1 0.808594 0.305664
vt1 0.791016 0.111328
vt1 0.701660 0.110352
vn 0.000000 -0.000000 -1.000000
vn 0.000000 -0.000000 -1.000000
vn 0.000000 -0.000000 -1.000000
vn 0.000000 -0.000000 -1.000000
vn 0.000000 -0.000000 -1.000000
vn 0.000000 -0.000000 -1.000000
vn 0.000000 -0.000000 -1.000000
vn 0.000000 -0.000000 -1.000000
vn 0.000000 -0.000000 -1.000000
vn 0.000000 -0.000000 -1.000000
vn 0.000000 -0.000000 -1.000000
vn 0.000000 -0.000000 -1.000000
vn 0.000000 -0.000000 -1.000000
vn 0.000000 -0.000000 -1.000000
vn 0.000000 -0.000000 -1.000000
vn 0.000000 -0.000000 -1.000000
vn 0.000000 -0.000000 -1.000000
vn 0.000000 -0.000000 -1.000000
vn 0.000000 -0.000000 -1.000000
vn 0.000000 -0.000000 -1.000000
vn 0.000000 -0.000000 -1.000000
vn 0.000000 -0.000000 -1.000000
vn 0.000000 -0.000000 -1.000000
vn 0.000000 -0.000000 -1.000000
vn 0.000000 -0.000000 -1.000000
tan 0.000000 -1.000000 0.000000 1.000000
tan 0.000000 -1.000000 0.000000 1.000000
tan 0.000000 -1.000000 0.000000 1.000000
tan 0.000000 -1.000000 0.000000 1.000000
tan 0.000000 -1.000000 0.000000 1.000000
tan 0.000000 -1.000000 0.000000 1.000000
tan 0.000000 -1.000000 0.000000 1.000000
tan 0.000000 -1.000000 0.000000 1.000000
tan 0.000000 -1.000000 0.000000 1.000000
tan 0.000000 -1.000000 0.000000 1.000000
tan 0.000000 -1.000000 0.000000 1.000000
tan 0.000000 -1.000000 0.000000 1.000000
tan 0.000000 -1.000000 0.000000 1.000000
tan 0.000000 -1.000000 0.000000 1.000000
tan 0.000000 -1.000000 0.000000 1.000000
tan 0.000000 -1.000000 0.000000 1.000000
tan 0.000000 -1.000000 0.000000 1.000000
tan 0.000000 -1.000000 0.000000 1.000000
tan 0.000000 -1.000000 0.000000 1.000000
tan 0.000000 -1.000000 0.000000 1.000000
tan 0.000000 -1.000000 0.000000 1.000000
tan 0.000000 -1.000000 0.000000 1.000000
tan 0.000000 -1.000000 0.000000 1.000000
tan 0.000000 -1.000000 0.000000 1.000000
tan 0.000000 -1.000000 0.000000 1.000000
f 3/3/3 2/2/2 1/1/1
f 1/1/1 2/2/2 4/4/4
f 5/5/5 4/4/4 2/2/2
f 2/2/2 6/6/6 5/5/5
f 5/5/5 6/6/6 7/7/7
f 8/8/8 7/7/7 6/6/6
f 9/9/9 7/7/7 8/8/8
f 10/10/10 9/9/9 8/8/8
f 10/10/10 11/11/11 9/9/9
f 10/10/10 12/12/12 11/11/11
f 14/14/14 11/11/11 13/13/13
f 13/13/13 11/11/11 15/15/15
f 11/11/11 12/12/12 15/15/15
f 12/12/12 16/16/16 15/15/15
f 18/18/18 17/17/17 15/15/15
f 19/19/19 18/18/18 15/15/15
f 16/16/16 19/19/19 15/15/15
f 19/19/19 20/20/20 18/18/18
f 19/19/19 16/16/16 21/21/21
f 21/21/21 22/22/22 19/19/19
f 23/23/23 21/21/21 16/16/16
f 24/24/24 21/21/21 23/23/23
f 21/21/21 24/24/24 25/25/25
