mtllib SM_Screen_04.mtl
g SM_Screen_04
#Vertices 132
#Indices 444
#Section 0 Offset 0 NumIndices 438 MaterialIndex 0 MI_Plastic_Glossy_01
#Section 1 Offset 438 NumIndices 6 MaterialIndex 1 MI_Screens_Emissive_02
v 4.614950 0.538382 -0.015451
v 0.012083 0.014920 -0.015450
v 0.012083 0.538382 -0.015451
v 4.614950 0.014920 -0.015450
v -0.015491 0.565121 -0.045175
v -0.015491 -0.011817 -0.058322
v -0.015491 -0.011817 -0.045175
v -0.015491 0.565121 -0.058322
v -0.017491 -0.013817 -0.060322
v -0.017491 0.567121 -0.060322
v -0.029584 -0.022216 -0.060322
v -0.025927 -0.025873 -0.060322
v -0.029584 0.575519 -0.060322
v -0.025927 0.579176 -0.060322
v -0.033584 -0.023873 -0.056322
v -0.027584 -0.029873 -0.056322
v -0.033584 0.577176 -0.056322
v -0.027584 0.583176 -0.056322
v -0.027584 0.583176 -0.026597
v -0.033584 0.577176 -0.026597
v -0.025927 0.579176 -0.022597
v -0.033584 -0.023873 -0.026596
v -0.027584 -0.029873 -0.026596
v -0.029584 0.575519 -0.022597
v -0.029584 -0.022216 -0.022596
v -0.025927 -0.025873 -0.022596
v -0.007656 0.551303 -0.022597
v -0.001656 0.557303 -0.022597
v -0.001657 0.557303 -0.004000
v -0.007656 0.002001 -0.022596
v -0.001656 -0.003999 -0.022596
v -0.007657 0.551303 -0.004000
v 0.000000 0.553303 -0.000000
v -0.007657 0.002000 -0.004000
v -0.001657 -0.004000 -0.004000
v -0.003657 0.549646 -0.000000
v 0.012083 0.538382 -0.000001
v -0.003657 0.003657 -0.000000
v 0.000000 0.000000 0.000000
v 0.012083 0.014920 0.000000
v 0.012083 0.538382 -0.015451
v 0.012083 0.014920 -0.015450
v 0.012083 0.538382 -0.015451
v 4.614950 0.538382 -0.000001
v 4.614950 0.538382 -0.015451
v 0.012083 0.538382 -0.000001
v 4.627033 0.553303 -0.000000
v 0.000000 0.553303 -0.000000
v 4.628689 0.557303 -0.004000
v -0.001657 0.557303 -0.004000
v -0.001656 0.557303 -0.022597
v 4.628689 0.557303 -0.022597
v -0.025927 0.579176 -0.022597
v 4.652960 0.579176 -0.022597
v 4.654617 0.583176 -0.026597
v -0.027584 0.583176 -0.026597
v -0.027584 0.583176 -0.056322
v 4.654617 0.583176 -0.056322
v 4.652960 0.579176 -0.060322
v -0.025927 0.579176 -0.060322
v -0.017491 0.567121 -0.060322
v 4.644524 0.567121 -0.060322
v 4.642524 0.565121 -0.058322
v -0.015491 0.565121 -0.058322
v -0.015491 0.565121 -0.045175
v 4.642524 0.565121 -0.045175
v 4.642524 0.565121 -0.045175
v 4.642524 -0.011817 -0.045175
v 4.642524 -0.011817 -0.058322
v 4.642524 0.565121 -0.058322
v 4.644524 0.567121 -0.060322
v 4.644524 -0.013817 -0.060322
v 4.656617 -0.022216 -0.060322
v 4.652960 -0.025873 -0.060322
v 4.656617 0.575519 -0.060322
v 4.652960 0.579176 -0.060322
v 4.660617 -0.023873 -0.056322
v 4.654617 -0.029873 -0.056322
v 4.660617 0.577176 -0.056322
v 4.654617 0.583176 -0.056322
v 4.654617 0.583176 -0.026597
v 4.660617 0.577176 -0.026597
v 4.652960 0.579176 -0.022597
v 4.660617 -0.023873 -0.026596
v 4.654617 -0.029873 -0.026596
v 4.652960 -0.025873 -0.022596
v 4.656617 0.575519 -0.022597
v 4.656617 -0.022216 -0.022596
v 4.634689 0.551303 -0.022597
v 4.628689 0.557303 -0.022597
v 4.628689 0.557303 -0.004000
v 4.634689 0.002001 -0.022596
v 4.628689 -0.003999 -0.022596
v 4.634689 0.551303 -0.004000
v 4.627033 0.553303 -0.000000
v 4.634689 0.002000 -0.004000
v 4.628689 -0.004000 -0.004000
v 4.630690 0.549646 -0.000000
v 4.614950 0.538382 -0.000001
v 4.630690 0.003657 -0.000000
v 4.627033 -0.000000 0.000000
v 4.614950 0.014920 0.000000
v 4.614950 0.538382 -0.015451
v 4.614950 0.014920 -0.015450
v -0.015491 -0.011817 -0.045175
v 4.642524 -0.011817 -0.058322
v 4.642524 -0.011817 -0.045175
v -0.015491 -0.011817 -0.058322
v -0.017491 -0.013817 -0.060322
v 4.644524 -0.013817 -0.060322
v 4.652960 -0.025873 -0.060322
v -0.025927 -0.025873 -0.060322
v 4.654617 -0.029873 -0.056322
v -0.027584 -0.029873 -0.056322
v 4.654617 -0.029873 -0.026596
v -0.027584 -0.029873 -0.026596
v -0.025927 -0.025873 -0.022596
v 4.652960 -0.025873 -0.022596
v 4.628689 -0.003999 -0.022596
v -0.001656 -0.003999 -0.022596
v 4.628689 -0.004000 -0.004000
v -0.001657 -0.004000 -0.004000
v 4.627033 -0.000000 0.000000
v 0.000000 0.000000 0.000000
v 0.012083 0.014920 0.000000
v 4.614950 0.014920 0.000000
v 4.614950 0.014920 -0.015450
v 0.012083 0.014920 -0.015450
v -0.015491 0.565121 -0.045175
v 4.642523 -0.011818 -0.045175
v 4.642523 0.565120 -0.045175
v -0.015491 -0.011817 -0.045175
vt 0.968750 1.662109
vt 0.707031 -0.638672
vt 0.968750 -0.638672
vt 0.707031 1.662109
vt 0.639160 0.373535
vt 0.632812 0.091797
vt 0.639160 0.091797
vt 0.632812 0.373535
vt 0.631348 0.090820
vt 0.631348 0.374512
vt 0.625488 0.086426
vt 0.626953 0.084473
vt 0.625488 0.378418
vt 0.626953 0.380859
vt 0.623047 0.085938
vt 0.623535 0.082031
vt 0.623047 0.379395
vt 0.623535 0.382812
vt 0.608398 0.382812
vt 0.608887 0.379395
vt 0.605469 0.380859
vt 0.608887 0.085938
vt 0.608398 0.082031
vt 0.606445 0.378906
vt 0.606445 0.086426
vt 0.605469 0.084473
vt 0.595215 0.367188
vt 0.593750 0.370605
vt 0.584961 0.370117
vt 0.595215 0.098145
vt 0.593750 0.094238
vt 0.585938 0.366211
vt 0.582031 0.368164
vt 0.585938 0.098633
vt 0.584961 0.095215
vt 0.583496 0.365723
vt 0.575684 0.360352
vt 0.583496 0.099121
vt 0.582031 0.097168
vt 0.575684 0.104980
vt 0.568359 0.360352
vt 0.568359 0.104980
vt 0.312744 -0.402344
vt 0.320312 1.843750
vt 0.312744 1.843750
vt 0.320312 -0.402344
vt 0.327881 1.849609
vt 0.327881 -0.408203
vt 0.330811 1.850586
vt 0.330811 -0.409180
vt 0.340332 -0.409180
vt 0.340332 1.850586
vt 0.351562 -0.420898
vt 0.351562 1.862305
vt 0.354736 1.863281
vt 0.354736 -0.421875
vt 0.369629 -0.421875
vt 0.369629 1.863281
vt 0.372559 1.862305
vt 0.372559 -0.420898
vt 0.378662 -0.416992
vt 0.378662 1.858398
vt 0.380371 1.857422
vt 0.380371 -0.416016
vt 0.386719 -0.416016
vt 0.386719 1.857422
vt 0.446533 0.728516
vt 0.446533 0.446777
vt 0.453125 0.446777
vt 0.453125 0.728516
vt 0.454346 0.729736
vt 0.454346 0.445801
vt 0.460205 0.441895
vt 0.458984 0.439941
vt 0.460205 0.733643
vt 0.458984 0.735840
vt 0.462646 0.441406
vt 0.461914 0.437500
vt 0.462646 0.734375
vt 0.461914 0.738037
vt 0.477295 0.738281
vt 0.476807 0.734375
vt 0.480225 0.736084
vt 0.476807 0.441406
vt 0.477295 0.437500
vt 0.480225 0.439453
vt 0.479248 0.733887
vt 0.479248 0.441895
vt 0.490479 0.722168
vt 0.492188 0.725830
vt 0.500488 0.725098
vt 0.490479 0.453613
vt 0.492188 0.449707
vt 0.499512 0.721436
vt 0.503418 0.723145
vt 0.499512 0.454102
vt 0.500488 0.450195
vt 0.501953 0.720947
vt 0.509766 0.715576
vt 0.501953 0.454590
vt 0.503418 0.452637
vt 0.509766 0.459961
vt 0.517090 0.715576
vt 0.517090 0.459961
vt 0.196045 -0.378906
vt 0.202515 1.893555
vt 0.196045 1.893555
vt 0.202515 -0.378906
vt 0.204224 -0.379883
vt 0.204224 1.894531
vt 0.210449 1.898438
vt 0.210449 -0.384766
vt 0.213867 1.899414
vt 0.213867 -0.384766
vt 0.229004 1.899414
vt 0.229004 -0.384766
vt 0.232422 -0.384766
vt 0.232422 1.898438
vt 0.243896 1.886719
vt 0.243896 -0.372070
vt 0.253418 1.886719
vt 0.253418 -0.372070
vt 0.256836 1.885742
vt 0.256836 -0.372070
vt 0.264404 -0.366211
vt 0.264404 1.879883
vt 0.272217 1.879883
vt 0.272217 -0.366211
vt 0.011925 0.726074
vt 0.987793 0.491699
vt 0.987793 0.726074
vt 0.011925 0.491699
vt1 0.298340 0.944702
vt1 0.195435 0.040039
vt1 0.298340 0.040039
vt1 0.195435 0.944702
vt1 0.844727 0.515137
vt1 0.730957 0.517822
vt1 0.730957 0.515137
vt1 0.844727 0.517822
vt1 0.730469 0.518311
vt1 0.845215 0.518311
vt1 0.729004 0.520752
vt1 0.728027 0.520020
vt1 0.846680 0.520752
vt1 0.847656 0.520020
vt1 0.729004 0.521729
vt1 0.727051 0.521240
vt1 0.846680 0.521729
vt1 0.848145 0.521240
vt1 0.848633 0.527588
vt1 0.846680 0.527344
vt1 0.847656 0.528809
vt1 0.729004 0.527344
vt1 0.727051 0.527588
vt1 0.846680 0.528320
vt1 0.729004 0.528320
vt1 0.728027 0.528809
vt1 0.841797 0.532715
vt1 0.843262 0.533447
vt1 0.843262 0.537109
vt1 0.733887 0.532715
vt1 0.732422 0.533447
vt1 0.841797 0.536377
vt1 0.842285 0.538086
vt1 0.733887 0.536377
vt1 0.732422 0.537109
vt1 0.841309 0.537598
vt1 0.839355 0.540527
vt1 0.734375 0.537598
vt1 0.733398 0.538086
vt1 0.736328 0.540527
vt1 0.839355 0.543701
vt1 0.736328 0.543701
vt1 0.069519 0.952454
vt1 0.066467 0.047852
vt1 0.069519 0.047852
vt1 0.066467 0.952454
vt1 0.063538 0.045410
vt1 0.063538 0.954834
vt1 0.062347 0.044922
vt1 0.062347 0.955170
vt1 0.058594 0.955170
vt1 0.058594 0.044922
vt1 0.054169 0.959930
vt1 0.054169 0.040527
vt1 0.052948 0.040039
vt1 0.052948 0.960266
vt1 0.046997 0.960266
vt1 0.046997 0.040039
vt1 0.045807 0.040527
vt1 0.045807 0.959930
vt1 0.043365 0.958282
vt1 0.043365 0.041992
vt1 0.042755 0.042480
vt1 0.042755 0.957886
vt1 0.040161 0.957886
vt1 0.040161 0.042480
vt1 0.722656 0.210938
vt1 0.835938 0.210938
vt1 0.835938 0.213867
vt1 0.722656 0.213867
vt1 0.722168 0.214355
vt1 0.836426 0.214355
vt1 0.838379 0.216797
vt1 0.838867 0.216309
vt1 0.720703 0.216797
vt1 0.719727 0.216309
vt1 0.838379 0.217773
vt1 0.839844 0.217285
vt1 0.720215 0.217773
vt1 0.718750 0.217285
vt1 0.718750 0.223633
vt1 0.720215 0.223145
vt1 0.719727 0.224609
vt1 0.838379 0.223145
vt1 0.839844 0.223633
vt1 0.839355 0.224609
vt1 0.720703 0.224121
vt1 0.838379 0.224121
vt1 0.725586 0.229004
vt1 0.723633 0.229492
vt1 0.724121 0.232910
vt1 0.833496 0.229004
vt1 0.834961 0.229492
vt1 0.725586 0.232422
vt1 0.725098 0.233887
vt1 0.833496 0.232422
vt1 0.834961 0.232910
vt1 0.725586 0.233398
vt1 0.728027 0.236816
vt1 0.833008 0.233398
vt1 0.833984 0.233887
vt1 0.831055 0.236816
vt1 0.728027 0.239746
vt1 0.831055 0.239746
vt1 0.118042 0.042480
vt1 0.120667 0.957825
vt1 0.118042 0.957825
vt1 0.120667 0.042480
vt1 0.121277 0.041992
vt1 0.121277 0.958221
vt1 0.123779 0.959900
vt1 0.123779 0.040527
vt1 0.125000 0.960205
vt1 0.125000 0.040039
vt1 0.131104 0.960205
vt1 0.131104 0.040039
vt1 0.132324 0.040527
vt1 0.132324 0.959900
vt1 0.136841 0.955109
vt1 0.136841 0.044922
vt1 0.140625 0.955109
vt1 0.140625 0.044922
vt1 0.141846 0.954803
vt1 0.141846 0.045410
vt1 0.144897 0.047852
vt1 0.144897 0.952423
vt1 0.147949 0.952423
vt1 0.147949 0.047852
vt1 0.480713 0.958710
vt1 0.367188 0.042969
vt1 0.480713 0.042969
vt1 0.367188 0.958710
vn 0.000000 -0.031496 1.000000
vn 0.000000 0.031496 1.000000
vn 0.000000 -0.031496 1.000000
vn 0.000000 0.031496 1.000000
vn 0.125984 -0.992126 0.000000
vn 0.118110 0.976378 -0.188976
vn 0.125984 0.992126 -0.000000
vn 0.118110 -0.976378 -0.188976
vn 0.007874 0.062992 -1.000000
vn 0.007874 -0.062992 -1.000000
vn -0.370079 -0.000000 -0.929134
vn 0.000000 -0.362205 -0.929134
vn -0.362205 -0.000000 -0.929134
vn 0.000000 0.362205 -0.929134
vn -0.992126 -0.007874 -0.102362
vn 0.000000 -0.992126 -0.102362
vn -0.992126 0.007874 -0.102362
vn 0.000000 0.992126 -0.102362
vn 0.000000 0.992126 0.102362
vn -0.992126 0.007874 0.102362
vn 0.000000 0.299213 0.952756
vn -0.992126 -0.007874 0.102362
vn 0.000000 -0.992126 0.102362
vn -0.299213 0.000000 0.952756
vn -0.314961 0.000000 0.952756
vn 0.000000 -0.299212 0.952756
vn -0.456693 0.007874 0.889764
vn 0.000000 0.488189 0.874016
vn 0.000000 0.992126 0.149606
vn -0.480315 -0.007874 0.874016
vn 0.000000 -0.480315 0.874016
vn -0.992126 0.007874 0.149606
vn 0.000000 0.338583 0.944882
vn -0.992126 -0.007874 0.149606
vn 0.000000 -0.992126 0.149606
vn -0.322835 0.000000 0.944882
vn 0.062992 -0.543307 0.842520
vn -0.314961 0.000000 0.952756
vn 0.000000 -0.338583 0.944882
vn 0.062992 0.535433 0.842520
vn 0.000000 -0.031496 1.000000
vn 0.000000 0.031496 1.000000
vn 0.000000 -0.031496 1.000000
vn -0.062992 -0.543307 0.842520
vn 0.000000 -0.031496 1.000000
vn 0.062992 -0.543307 0.842520
vn 0.000000 0.338583 0.944882
vn 0.000000 0.338583 0.944882
vn 0.000000 0.992126 0.149606
vn 0.000000 0.992126 0.149606
vn 0.000000 0.488189 0.874016
vn 0.000000 0.480315 0.874016
vn 0.000000 0.299213 0.952756
vn 0.000000 0.299213 0.952756
vn 0.000000 0.992126 0.102362
vn 0.000000 0.992126 0.102362
vn 0.000000 0.992126 -0.102362
vn 0.000000 0.992126 -0.102362
vn 0.000000 0.362205 -0.929134
vn 0.000000 0.362205 -0.929134
vn 0.007874 -0.062992 -1.000000
vn -0.007874 -0.062992 -1.000000
vn -0.118110 -0.976378 -0.188976
vn 0.118110 -0.976378 -0.188976
vn 0.125984 -0.992126 0.000000
vn -0.125984 -0.992126 0.000000
vn -0.125984 -0.992126 0.000000
vn -0.125984 0.992126 -0.000000
vn -0.118110 0.976378 -0.188976
vn -0.118110 -0.976378 -0.188976
vn -0.007874 -0.062992 -1.000000
vn -0.007874 0.062992 -1.000000
vn 0.362205 -0.000000 -0.929134
vn 0.000000 -0.362205 -0.929134
vn 0.370079 -0.000000 -0.929134
vn 0.000000 0.362205 -0.929134
vn 0.992126 -0.007874 -0.102362
vn 0.000000 -0.992126 -0.102362
vn 0.992126 0.007874 -0.102362
vn 0.000000 0.992126 -0.102362
vn 0.000000 0.992126 0.102362
vn 0.992126 0.007874 0.102362
vn 0.000000 0.299213 0.952756
vn 0.992126 -0.007874 0.102362
vn 0.000000 -0.992126 0.102362
vn 0.000000 -0.299212 0.952756
vn 0.314961 0.000000 0.952756
vn 0.299213 0.000000 0.952756
vn 0.480315 0.007874 0.874016
vn 0.000000 0.480315 0.874016
vn 0.000000 0.992126 0.149606
vn 0.456693 -0.007874 0.889764
vn 0.000000 -0.488189 0.874016
vn 0.992126 0.007874 0.149606
vn 0.000000 0.338583 0.944882
vn 0.992126 -0.007874 0.149606
vn 0.000000 -0.992126 0.149606
vn 0.314961 0.000000 0.952756
vn -0.062992 -0.543307 0.842520
vn 0.322835 0.000000 0.944882
vn 0.000000 -0.338583 0.944882
vn -0.062992 0.543307 0.834646
vn 0.000000 -0.031496 1.000000
vn 0.000000 0.031496 1.000000
vn 0.125984 0.992126 -0.000000
vn -0.118110 0.976378 -0.188976
vn -0.125984 0.992126 -0.000000
vn 0.118110 0.976378 -0.188976
vn 0.007874 0.062992 -1.000000
vn -0.007874 0.062992 -1.000000
vn 0.000000 -0.362205 -0.929134
vn 0.000000 -0.362205 -0.929134
vn 0.000000 -0.992126 -0.102362
vn 0.000000 -0.992126 -0.102362
vn 0.000000 -0.992126 0.102362
vn 0.000000 -0.992126 0.102362
vn 0.000000 -0.299212 0.952756
vn 0.000000 -0.299212 0.952756
vn 0.000000 -0.488189 0.874016
vn 0.000000 -0.480315 0.874016
vn 0.000000 -0.992126 0.149606
vn 0.000000 -0.992126 0.149606
vn 0.000000 -0.338583 0.944882
vn 0.000000 -0.338583 0.944882
vn 0.062992 0.535433 0.842520
vn -0.062992 0.543307 0.834646
vn 0.000000 0.031496 1.000000
vn 0.000000 0.031496 1.000000
vn 0.000000 -0.000000 -1.000000
vn 0.000000 -0.000000 -1.000000
vn 0.000000 -0.000000 -1.000000
vn 0.000000 -0.000000 -1.000000
tan -1.000992 0.000000 0.000000 1.000000
tan -1.000992 0.000000 0.000000 1.000000
tan -1.000992 0.000000 0.000000 1.000000
tan -1.000992 0.000000 0.000000 1.000000
tan -0.992126 -0.125984 0.000000 1.000000
tan 0.791370 -0.207018 -0.574989 1.000000
tan 0.992126 -0.125984 0.000000 1.000000
tan -0.791370 -0.207018 0.574989 1.000000
tan 0.000496 -1.000062 -0.062992 1.000000
tan -0.000496 -1.000062 0.062992 1.000000
tan 0.073160 -0.997334 -0.029140 1.000000
tan 0.236220 -0.899870 0.350797 1.000000
tan -0.073160 -0.994482 0.028520 1.000000
tan -0.236220 -0.899870 -0.350797 1.000000
tan 0.012648 -0.993986 -0.046128 1.000000
tan 0.883812 -0.047554 0.460909 1.000000
tan -0.012648 -0.993986 0.046128 1.000000
tan -0.883812 -0.047554 -0.460909 1.000000
tan -0.891624 -0.045942 0.445285 1.000000
tan -0.015066 -0.993986 -0.069564 1.000000
tan -0.248621 -0.922748 0.289789 1.000000
tan 0.015872 -0.993986 0.077376 1.000000
tan 0.891624 -0.045942 -0.445285 1.000000
tan -0.105028 -0.987414 -0.032984 1.000000
tan 0.105028 -0.996962 0.034720 1.000000
tan 0.223758 -0.930250 -0.292144 1.000000
tan -0.003596 -1.000248 0.007006 1.000000
tan -0.568107 -0.722611 0.403621 1.000000
tan -0.887160 -0.070680 0.468721 1.000000
tan 0.003782 -0.994606 -0.006882 1.000000
tan 0.565937 -0.715729 -0.393329 1.000000
tan -0.011346 -1.006696 -0.022258 1.000000
tan -0.227540 -0.922562 0.330585 1.000000
tan 0.012524 -1.006696 0.030070 1.000000
tan 0.885982 -0.070680 -0.468721 1.000000
tan -0.081840 -0.997024 -0.027962 1.000000
tan -0.066960 -0.841342 -0.537541 1.000000
tan 0.075020 -0.999442 0.024800 1.000000
tan 0.177568 -0.930002 -0.333251 1.000000
tan 0.066278 -0.841342 0.529729 1.000000
tan -0.985244 -0.165354 -0.005208 1.000000
tan 0.985244 -0.165354 0.005208 1.000000
tan -0.993118 -0.110236 -0.003472 1.000000
tan -1.005022 0.047492 -0.044516 1.000000
tan -0.993118 0.110236 0.003472 1.000000
tan -1.005022 -0.047492 0.044516 1.000000
tan -1.007440 0.000000 0.000000 1.000000
tan -1.007440 0.000000 0.000000 1.000000
tan -1.006696 0.000000 0.000000 1.000000
tan -1.006696 0.000000 0.000000 1.000000
tan -1.002232 0.000000 0.000000 1.000000
tan -0.994606 0.000000 0.000000 1.000000
tan -0.997272 0.000000 0.000000 1.000000
tan -0.997272 0.000000 0.000000 1.000000
tan -0.994792 0.000000 0.000000 1.000000
tan -0.994792 0.000000 0.000000 1.000000
tan -0.994792 0.000000 0.000000 1.000000
tan -0.994792 0.000000 0.000000 1.000000
tan -0.994482 0.000000 0.000000 1.000000
tan -0.994482 0.000000 0.000000 1.000000
tan -1.003968 -0.000496 -0.007874 1.000000
tan -1.003968 0.000496 0.007874 1.000000
tan -0.990514 0.107880 0.061690 1.000000
tan -0.990514 -0.107880 -0.061690 1.000000
tan -0.992126 -0.125984 0.000000 1.000000
tan -0.992126 0.125984 -0.000000 1.000000
tan 0.992126 -0.125984 0.000000 1.000000
tan -0.992126 -0.125984 0.000000 1.000000
tan -0.791370 -0.207018 -0.574989 1.000000
tan 0.791370 -0.207018 0.574989 1.000000
tan 0.000496 -1.000062 0.062992 1.000000
tan -0.000496 -1.000062 -0.062992 1.000000
tan -0.073160 -0.994482 -0.028520 1.000000
tan -0.236220 -0.899870 0.350797 1.000000
tan 0.073160 -0.997334 0.029140 1.000000
tan 0.236220 -0.899870 -0.350797 1.000000
tan -0.012648 -0.993986 -0.046128 1.000000
tan -0.883812 -0.047554 0.460909 1.000000
tan 0.012648 -0.993986 0.046128 1.000000
tan 0.883812 -0.047554 -0.460909 1.000000
tan 0.891624 -0.045942 0.445285 1.000000
tan 0.015066 -0.993986 -0.069564 1.000000
tan 0.248621 -0.922748 0.289789 1.000000
tan -0.015066 -0.993986 0.069564 1.000000
tan -0.891624 -0.045942 -0.445285 1.000000
tan -0.248621 -0.922748 -0.289788 1.000000
tan 0.105028 -0.996962 -0.034720 1.000000
tan -0.105028 -0.987414 0.032984 1.000000
tan 0.003782 -0.994606 0.006882 1.000000
tan 0.562155 -0.722611 0.397111 1.000000
tan 0.887160 -0.070680 0.468721 1.000000
tan -0.003596 -1.000248 -0.007006 1.000000
tan -0.568107 -0.715729 -0.399777 1.000000
tan 0.011346 -1.006696 -0.022258 1.000000
tan 0.227540 -0.922562 0.330585 1.000000
tan -0.012524 -1.006696 0.030070 1.000000
tan -0.885982 -0.070680 -0.468721 1.000000
tan 0.082522 -0.999442 -0.027280 1.000000
tan 0.066960 -0.841342 -0.537541 1.000000
tan -0.074400 -0.997024 0.025420 1.000000
tan -0.177568 -0.930002 -0.333251 1.000000
tan -0.066774 -0.833530 0.537541 1.000000
tan 0.985244 -0.165354 -0.005208 1.000000
tan -0.985244 -0.165354 0.005208 1.000000
tan -0.992126 0.125984 -0.000000 1.000000
tan -0.990514 -0.107880 0.061690 1.000000
tan -0.992126 -0.125984 0.000000 1.000000
tan -0.990514 0.107880 -0.061690 1.000000
tan -1.003968 0.000496 -0.007874 1.000000
tan -1.003968 -0.000496 0.007874 1.000000
tan -0.994482 0.000000 0.000000 1.000000
tan -0.994482 0.000000 0.000000 1.000000
tan -0.994792 0.000000 0.000000 1.000000
tan -0.994792 0.000000 0.000000 1.000000
tan -0.994792 0.000000 0.000000 1.000000
tan -0.994792 0.000000 0.000000 1.000000
tan -0.997272 0.000000 0.000000 1.000000
tan -0.997272 0.000000 0.000000 1.000000
tan -1.002232 0.000000 0.000000 1.000000
tan -0.994606 0.000000 0.000000 1.000000
tan -1.006696 0.000000 0.000000 1.000000
tan -1.006696 0.000000 0.000000 1.000000
tan -1.007440 0.000000 0.000000 1.000000
tan -1.007440 0.000000 0.000000 1.000000
tan -1.000744 0.047492 0.044640 1.000000
tan -0.998388 -0.047368 -0.044516 1.000000
tan -0.993118 -0.110236 0.003472 1.000000
tan -0.993118 0.110236 -0.003472 1.000000
tan 0.000000 -1.000000 0.000000 1.000000
tan 0.000000 -1.000000 0.000000 1.000000
tan 0.000000 -1.000000 0.000000 1.000000
tan 0.000000 -1.000000 0.000000 1.000000
f 3/3/3 2/2/2 1/1/1
f 4/4/4 1/1/1 2/2/2
f 7/7/7 6/6/6 5/5/5
f 5/5/5 6/6/6 8/8/8
f 6/6/6 9/9/9 8/8/8
f 8/8/8 9/9/9 10/10/10
f 9/9/9 11/11/11 10/10/10
f 11/11/11 9/9/9 12/12/12
f 10/10/10 11/11/11 13/13/13
f 14/14/14 10/10/10 13/13/13
f 11/11/11 12/12/12 15/15/15
f 16/16/16 15/15/15 12/12/12
f 13/13/13 11/11/11 17/17/17
f 17/17/17 14/14/14 13/13/13
f 15/15/15 17/17/17 11/11/11
f 17/17/17 18/18/18 14/14/14
f 18/18/18 17/17/17 19/19/19
f 20/20/20 19/19/19 17/17/17
f 20/20/20 17/17/17 15/15/15
f 19/19/19 20/20/20 21/21/21
f 15/15/15 16/16/16 22/22/22
f 15/15/15 22/22/22 20/20/20
f 23/23/23 22/22/22 16/16/16
f 24/24/24 21/21/21 20/20/20
f 20/20/20 22/22/22 24/24/24
f 22/22/22 23/23/23 25/25/25
f 25/25/25 24/24/24 22/22/22
f 26/26/26 25/25/25 23/23/23
f 24/24/24 27/27/27 21/21/21
f 28/28/28 21/21/21 27/27/27
f 28/28/28 27/27/27 29/29/29
f 25/25/25 30/30/30 24/24/24
f 25/25/25 26/26/26 30/30/30
f 27/27/27 24/24/24 30/30/30
f 31/31/31 30/30/30 26/26/26
f 32/32/32 29/29/29 27/27/27
f 32/32/32 27/27/27 30/30/30
f 29/29/29 32/32/32 33/33/33
f 30/30/30 31/31/31 34/34/34
f 30/30/30 34/34/34 32/32/32
f 35/35/35 34/34/34 31/31/31
f 36/36/36 33/33/33 32/32/32
f 32/32/32 34/34/34 36/36/36
f 36/36/36 37/37/37 33/33/33
f 34/34/34 35/35/35 38/38/38
f 38/38/38 36/36/36 34/34/34
f 39/39/39 38/38/38 35/35/35
f 39/39/39 40/40/40 38/38/38
f 40/40/40 36/36/36 38/38/38
f 37/37/37 36/36/36 40/40/40
f 37/37/37 40/40/40 41/41/41
f 42/42/42 41/41/41 40/40/40
f 45/45/45 44/44/44 43/43/43
f 46/46/46 43/43/43 44/44/44
f 44/44/44 47/47/47 46/46/46
f 46/46/46 47/47/47 48/48/48
f 47/47/47 49/49/49 48/48/48
f 48/48/48 49/49/49 50/50/50
f 50/50/50 49/49/49 51/51/51
f 52/52/52 51/51/51 49/49/49
f 51/51/51 52/52/52 53/53/53
f 52/52/52 54/54/54 53/53/53
f 54/54/54 55/55/55 53/53/53
f 53/53/53 55/55/55 56/56/56
f 57/57/57 56/56/56 55/55/55
f 58/58/58 57/57/57 55/55/55
f 59/59/59 57/57/57 58/58/58
f 60/60/60 57/57/57 59/59/59
f 61/61/61 60/60/60 59/59/59
f 62/62/62 61/61/61 59/59/59
f 63/63/63 61/61/61 62/62/62
f 64/64/64 61/61/61 63/63/63
f 65/65/65 64/64/64 63/63/63
f 66/66/66 65/65/65 63/63/63
f 69/69/69 68/68/68 67/67/67
f 67/67/67 70/70/70 69/69/69
f 70/70/70 71/71/71 69/69/69
f 72/72/72 69/69/69 71/71/71
f 72/72/72 71/71/71 73/73/73
f 74/74/74 72/72/72 73/73/73
f 75/75/75 73/73/73 71/71/71
f 75/75/75 71/71/71 76/76/76
f 73/73/73 77/77/77 74/74/74
f 73/73/73 75/75/75 77/77/77
f 74/74/74 77/77/77 78/78/78
f 75/75/75 76/76/76 79/79/79
f 79/79/79 77/77/77 75/75/75
f 80/80/80 79/79/79 76/76/76
f 80/80/80 81/81/81 79/79/79
f 82/82/82 79/79/79 81/81/81
f 79/79/79 82/82/82 77/77/77
f 81/81/81 83/83/83 82/82/82
f 77/77/77 84/84/84 78/78/78
f 84/84/84 77/77/77 82/82/82
f 85/85/85 78/78/78 84/84/84
f 85/85/85 84/84/84 86/86/86
f 87/87/87 82/82/82 83/83/83
f 87/87/87 84/84/84 82/82/82
f 88/88/88 86/86/86 84/84/84
f 88/88/88 84/84/84 87/87/87
f 87/87/87 83/83/83 89/89/89
f 87/87/87 89/89/89 88/88/88
f 90/90/90 89/89/89 83/83/83
f 90/90/90 91/91/91 89/89/89
f 86/86/86 88/88/88 92/92/92
f 92/92/92 88/88/88 89/89/89
f 92/92/92 93/93/93 86/86/86
f 94/94/94 89/89/89 91/91/91
f 89/89/89 94/94/94 92/92/92
f 94/94/94 91/91/91 95/95/95
f 93/93/93 92/92/92 96/96/96
f 96/96/96 92/92/92 94/94/94
f 97/97/97 93/93/93 96/96/96
f 94/94/94 95/95/95 98/98/98
f 98/98/98 96/96/96 94/94/94
f 95/95/95 99/99/99 98/98/98
f 96/96/96 100/100/100 97/97/97
f 100/100/100 96/96/96 98/98/98
f 99/99/99 100/100/100 98/98/98
f 101/101/101 97/97/97 100/100/100
f 100/100/100 102/102/102 101/101/101
f 102/102/102 100/100/100 99/99/99
f 103/103/103 102/102/102 99/99/99
f 104/104/104 102/102/102 103/103/103
f 107/107/107 106/106/106 105/105/105
f 108/108/108 105/105/105 106/106/106
f 108/108/108 106/106/106 109/109/109
f 110/110/110 109/109/109 106/106/106
f 110/110/110 111/111/111 109/109/109
f 112/112/112 109/109/109 111/111/111
f 111/111/111 113/113/113 112/112/112
f 114/114/114 112/112/112 113/113/113
f 113/113/113 115/115/115 114/114/114
f 116/116/116 114/114/114 115/115/115
f 116/116/116 115/115/115 117/117/117
f 118/118/118 117/117/117 115/115/115
f 118/118/118 119/119/119 117/117/117
f 120/120/120 117/117/117 119/119/119
f 119/119/119 121/121/121 120/120/120
f 122/122/122 120/120/120 121/121/121
f 123/123/123 122/122/122 121/121/121
f 124/124/124 122/122/122 123/123/123
f 124/124/124 123/123/123 125/125/125
f 126/126/126 125/125/125 123/123/123
f 127/127/127 125/125/125 126/126/126
f 125/125/125 127/127/127 128/128/128
f 131/131/131 130/130/130 129/129/129
f 132/132/132 129/129/129 130/130/130
