mtllib SM_Sticker_11.mtl
g SM_Sticker_11
#Vertices 4
#Indices 6
#Section 0 Offset 0 NumIndices 6 MaterialIndex 0 MI_Posters_01
v 0.142537 0.176683 -0.000000
v 0.003826 0.179039 -0.000000
v 0.142890 0.000923 -0.000000
v 0.000000 0.000000 0.000000
vt 0.994629 0.091309
vt 0.926758 0.092285
vt 0.995117 0.005371
vt 0.925293 0.004883
vt1 0.809570 0.879761
vt1 0.205322 0.890015
vt1 0.811035 0.114258
vt1 0.188721 0.110352
vn 0.000000 -0.000000 -1.000000
vn 0.000000 -0.000000 -1.000000
vn 0.000000 -0.000000 -1.000000
vn 0.000000 -0.000000 -1.000000
tan 0.000000 -1.000000 0.000000 1.000000
tan 0.000000 -1.000000 0.000000 1.000000
tan 0.000000 -1.000000 0.000000 1.000000
tan 0.000000 -1.000000 0.000000 1.000000
f 3/3/3 2/2/2 1/1/1
f 3/3/3 4/4/4 2/2/2
