mtllib SM_Sticker_13.mtl
g SM_Sticker_13
#Vertices 4
#Indices 6
#Section 0 Offset 0 NumIndices 6 MaterialIndex 0 MI_Posters_01
v -0.003611 0.231337 -0.000000
v 0.163658 0.002592 -0.000000
v 0.164784 0.233559 -0.000000
v 0.000000 0.000000 0.000000
vt 0.406006 0.122559
vt 0.487793 0.010742
vt 0.488281 0.123535
vt 0.407715 0.009277
vt1 0.218750 0.882629
vt1 0.777344 0.119141
vt1 0.780762 0.890015
vt1 0.230835 0.110352
vn 0.000000 -0.000000 -1.000000
vn 0.000000 -0.000000 -1.000000
vn 0.000000 -0.000000 -1.000000
vn 0.000000 -0.000000 -1.000000
tan 0.000000 -1.000000 0.000000 1.000000
tan 0.000000 -1.000000 0.000000 1.000000
tan 0.000000 -1.000000 0.000000 1.000000
tan 0.000000 -1.000000 0.000000 1.000000
f 3/3/3 2/2/2 1/1/1
f 4/4/4 1/1/1 2/2/2
