mtllib SM_Screen_05.mtl
g SM_Screen_05
#Vertices 132
#Indices 444
#Section 0 Offset 0 NumIndices 438 MaterialIndex 0 MI_Plastic_Glossy_01
#Section 1 Offset 438 NumIndices 6 MaterialIndex 1 MI_Screens_Emissive_02
v 1.297531 0.506138 -0.015451
v 0.012083 0.014920 -0.015450
v 0.012083 0.506138 -0.015451
v 1.297531 0.014920 -0.015450
v 1.325104 -0.011817 -0.058322
v 1.325104 0.532876 -0.045175
v 1.325104 -0.011817 -0.045175
v 1.325104 0.532876 -0.058322
v 1.327104 -0.013817 -0.060322
v 1.327104 0.534876 -0.060322
v 1.339198 -0.022216 -0.060322
v 1.335541 -0.025873 -0.060322
v 1.339198 0.543275 -0.060322
v 1.335541 0.546932 -0.060322
v 1.343198 -0.023873 -0.056322
v 1.337198 -0.029873 -0.056322
v 1.343198 0.544932 -0.056322
v 1.337198 0.550932 -0.056322
v 1.337198 0.550932 -0.026597
v 1.343198 0.544932 -0.026597
v 1.335541 0.546932 -0.022597
v 1.343198 -0.023873 -0.026596
v 1.337198 -0.029873 -0.026596
v 1.335541 -0.025873 -0.022596
v 1.339198 0.543275 -0.022597
v 1.339198 -0.022216 -0.022596
v 1.317270 0.519058 -0.022597
v 1.311270 0.525058 -0.022597
v 1.311270 0.525058 -0.004000
v 1.317270 0.002001 -0.022596
v 1.311270 -0.003999 -0.022596
v 1.317270 0.519058 -0.004000
v 1.309613 0.521058 -0.000000
v 1.317270 0.002000 -0.004000
v 1.311270 -0.004000 -0.004000
v 1.313270 0.517401 -0.000000
v 1.297530 0.506138 -0.000001
v 1.313270 0.003657 -0.000000
v 1.309613 -0.000000 0.000000
v 1.297530 0.014920 0.000000
v 1.297531 0.506138 -0.015451
v 1.297531 0.014920 -0.015450
v -0.015491 0.532876 -0.045175
v -0.015491 -0.011817 -0.058322
v -0.015491 -0.011817 -0.045175
v -0.015491 0.532876 -0.058322
v -0.017491 -0.013817 -0.060322
v -0.017491 0.534876 -0.060322
v -0.029584 -0.022216 -0.060322
v -0.025927 -0.025873 -0.060322
v -0.029584 0.543275 -0.060322
v -0.025927 0.546932 -0.060322
v -0.033584 -0.023873 -0.056322
v -0.027584 -0.029873 -0.056322
v -0.033584 0.544932 -0.056322
v -0.027584 0.550932 -0.056322
v -0.027584 0.550932 -0.026597
v -0.033584 0.544932 -0.026597
v -0.025927 0.546932 -0.022597
v -0.033584 -0.023873 -0.026596
v -0.027584 -0.029873 -0.026596
v -0.029584 0.543275 -0.022597
v -0.029584 -0.022216 -0.022596
v -0.025927 -0.025873 -0.022596
v -0.007656 0.519058 -0.022597
v -0.001656 0.525058 -0.022597
v -0.001657 0.525058 -0.004000
v -0.007656 0.002001 -0.022596
v -0.001656 -0.003999 -0.022596
v -0.007657 0.519058 -0.004000
v 0.000000 0.521058 -0.000000
v -0.007657 0.002000 -0.004000
v -0.001657 -0.004000 -0.004000
v -0.003657 0.517401 -0.000000
v 0.012083 0.506138 -0.000001
v -0.003657 0.003657 -0.000000
v 0.000000 0.000000 0.000000
v 0.012083 0.014920 0.000000
v 0.012083 0.506138 -0.015451
v 0.012083 0.014920 -0.015450
v 0.012083 0.506138 -0.015451
v 1.297530 0.506138 -0.000001
v 1.297531 0.506138 -0.015451
v 0.012083 0.506138 -0.000001
v 1.309613 0.521058 -0.000000
v 0.000000 0.521058 -0.000000
v 1.311270 0.525058 -0.004000
v -0.001657 0.525058 -0.004000
v -0.001656 0.525058 -0.022597
v 1.311270 0.525058 -0.022597
v -0.025927 0.546932 -0.022597
v 1.335541 0.546932 -0.022597
v 1.337198 0.550932 -0.026597
v -0.027584 0.550932 -0.026597
v -0.027584 0.550932 -0.056322
v 1.337198 0.550932 -0.056322
v 1.335541 0.546932 -0.060322
v -0.025927 0.546932 -0.060322
v -0.017491 0.534876 -0.060322
v 1.327104 0.534876 -0.060322
v 1.325104 0.532876 -0.058322
v -0.015491 0.532876 -0.058322
v -0.015491 0.532876 -0.045175
v 1.325104 0.532876 -0.045175
v -0.015491 -0.011817 -0.045175
v 1.325104 -0.011817 -0.058322
v 1.325104 -0.011817 -0.045175
v -0.015491 -0.011817 -0.058322
v -0.017491 -0.013817 -0.060322
v 1.327104 -0.013817 -0.060322
v 1.335541 -0.025873 -0.060322
v -0.025927 -0.025873 -0.060322
v 1.337198 -0.029873 -0.056322
v -0.027584 -0.029873 -0.056322
v 1.337198 -0.029873 -0.026596
v -0.027584 -0.029873 -0.026596
v -0.025927 -0.025873 -0.022596
v 1.335541 -0.025873 -0.022596
v 1.311270 -0.003999 -0.022596
v -0.001656 -0.003999 -0.022596
v 1.311270 -0.004000 -0.004000
v -0.001657 -0.004000 -0.004000
v 1.309613 -0.000000 0.000000
v 0.000000 0.000000 0.000000
v 0.012083 0.014920 0.000000
v 1.297530 0.014920 0.000000
v 1.297531 0.014920 -0.015450
v 0.012083 0.014920 -0.015450
v -0.015491 -0.011817 -0.045175
v 1.325104 -0.011817 -0.045176
v -0.015491 0.532876 -0.045176
v 1.325104 0.532877 -0.045176
vt 0.487793 0.802368
vt 0.242188 0.159668
vt 0.487793 0.159668
vt 0.242188 0.802368
vt 0.823242 0.420898
vt 0.816406 0.694580
vt 0.816406 0.420898
vt 0.823242 0.694580
vt 0.824707 0.419434
vt 0.824707 0.695801
vt 0.830566 0.415527
vt 0.829102 0.413086
vt 0.830566 0.699951
vt 0.829102 0.702148
vt 0.833008 0.415039
vt 0.832031 0.411133
vt 0.833008 0.700439
vt 0.832031 0.704346
vt 0.848145 0.704590
vt 0.847656 0.700439
vt 0.851074 0.702393
vt 0.847656 0.415039
vt 0.848145 0.411133
vt 0.851074 0.413086
vt 0.850098 0.699951
vt 0.850098 0.415527
vt 0.861328 0.687988
vt 0.863281 0.691895
vt 0.872070 0.691162
vt 0.861328 0.427246
vt 0.863281 0.423340
vt 0.870605 0.687500
vt 0.875000 0.688965
vt 0.870605 0.428223
vt 0.872070 0.424316
vt 0.873535 0.686768
vt 0.881348 0.681152
vt 0.873535 0.428711
vt 0.875000 0.426270
vt 0.881348 0.434082
vt 0.889160 0.681152
vt 0.889160 0.434082
vt 0.925293 0.312500
vt 0.918457 0.038574
vt 0.925293 0.038574
vt 0.918457 0.312500
vt 0.916992 0.037598
vt 0.916992 0.313477
vt 0.911133 0.033203
vt 0.912598 0.030762
vt 0.911133 0.317871
vt 0.912598 0.319824
vt 0.908691 0.032715
vt 0.909180 0.028809
vt 0.908691 0.318359
vt 0.909180 0.322266
vt 0.893555 0.322266
vt 0.894043 0.318359
vt 0.890625 0.320312
vt 0.894043 0.032715
vt 0.893555 0.028809
vt 0.891602 0.317871
vt 0.891602 0.033203
vt 0.890625 0.030762
vt 0.880371 0.305664
vt 0.878418 0.309570
vt 0.869629 0.309082
vt 0.880371 0.045410
vt 0.878418 0.041016
vt 0.870605 0.305176
vt 0.866699 0.306641
vt 0.870605 0.045898
vt 0.869629 0.041992
vt 0.868164 0.304688
vt 0.860352 0.299316
vt 0.868164 0.046387
vt 0.866699 0.044434
vt 0.860352 0.051758
vt 0.852539 0.298828
vt 0.852539 0.051758
vt 0.713379 0.261719
vt 0.721191 0.907654
vt 0.713379 0.907654
vt 0.721191 0.261719
vt 0.728516 0.913696
vt 0.728516 0.255371
vt 0.731445 0.914551
vt 0.731445 0.254883
vt 0.740723 0.254883
vt 0.740723 0.914551
vt 0.751465 0.242676
vt 0.751465 0.926758
vt 0.754395 0.927551
vt 0.754395 0.241699
vt 0.769043 0.241699
vt 0.769043 0.927551
vt 0.771973 0.926758
vt 0.771973 0.242676
vt 0.777832 0.246582
vt 0.777832 0.922485
vt 0.779297 0.921509
vt 0.779297 0.247559
vt 0.786133 0.247559
vt 0.786133 0.921509
vt 0.620605 0.220703
vt 0.627441 0.894287
vt 0.620605 0.894287
vt 0.627441 0.220703
vt 0.628906 0.219727
vt 0.628906 0.895264
vt 0.634766 0.899536
vt 0.634766 0.215332
vt 0.637695 0.900330
vt 0.637695 0.214355
vt 0.652344 0.900330
vt 0.652344 0.214355
vt 0.655273 0.215332
vt 0.655273 0.899536
vt 0.666016 0.887329
vt 0.666016 0.227539
vt 0.675293 0.887329
vt 0.675293 0.227539
vt 0.678223 0.886475
vt 0.678223 0.228516
vt 0.685547 0.234375
vt 0.685547 0.880371
vt 0.693359 0.880371
vt 0.693359 0.234375
vt 0.012314 0.017578
vt 0.555176 0.017578
vt 0.012314 0.474609
vt 0.555176 0.474609
vt1 0.259521 0.040039
vt1 0.500000 0.669678
vt1 0.259521 0.669678
vt1 0.500000 0.040039
vt1 0.879883 0.796997
vt1 0.612793 0.790527
vt1 0.879883 0.790527
vt1 0.612793 0.796997
vt1 0.880859 0.798340
vt1 0.611816 0.798340
vt1 0.884766 0.804199
vt1 0.887207 0.802979
vt1 0.607910 0.804199
vt1 0.605469 0.802979
vt1 0.885742 0.806641
vt1 0.889160 0.805786
vt1 0.606934 0.806641
vt1 0.603516 0.805786
vt1 0.603027 0.821411
vt1 0.606934 0.820679
vt1 0.605469 0.824219
vt1 0.885742 0.820679
vt1 0.889160 0.821411
vt1 0.887207 0.824219
vt1 0.607422 0.823120
vt1 0.884766 0.823120
vt1 0.619141 0.834229
vt1 0.615723 0.835938
vt1 0.616211 0.844727
vt1 0.873047 0.834229
vt1 0.876953 0.835938
vt1 0.620117 0.843384
vt1 0.618652 0.847290
vt1 0.872559 0.843384
vt1 0.876465 0.844727
vt1 0.620605 0.845947
vt1 0.625977 0.853638
vt1 0.872070 0.845947
vt1 0.874023 0.847290
vt1 0.866699 0.853638
vt1 0.625977 0.861206
vt1 0.866699 0.861206
vt1 0.447510 0.821167
vt1 0.180542 0.827637
vt1 0.180542 0.821167
vt1 0.447510 0.827637
vt1 0.179443 0.828979
vt1 0.448486 0.828979
vt1 0.175415 0.834839
vt1 0.173340 0.833496
vt1 0.452637 0.834839
vt1 0.454834 0.833496
vt1 0.174805 0.837280
vt1 0.171021 0.836426
vt1 0.453125 0.837280
vt1 0.457031 0.836426
vt1 0.457031 0.851929
vt1 0.453125 0.851318
vt1 0.454834 0.854858
vt1 0.174805 0.851318
vt1 0.171021 0.851929
vt1 0.450684 0.853760
vt1 0.173462 0.853760
vt1 0.173096 0.854858
vt1 0.438965 0.864868
vt1 0.444824 0.866577
vt1 0.444092 0.875244
vt1 0.185181 0.864868
vt1 0.183350 0.866577
vt1 0.440430 0.874023
vt1 0.441895 0.877869
vt1 0.187744 0.874023
vt1 0.184082 0.875244
vt1 0.439941 0.876526
vt1 0.434326 0.884155
vt1 0.188232 0.876526
vt1 0.186157 0.877869
vt1 0.193604 0.884155
vt1 0.434326 0.891724
vt1 0.193726 0.891724
vt1 0.039978 0.059570
vt1 0.047546 0.689209
vt1 0.039978 0.689209
vt1 0.047546 0.059570
vt1 0.054810 0.695068
vt1 0.054810 0.053711
vt1 0.057526 0.695801
vt1 0.057526 0.052734
vt1 0.066528 0.052734
vt1 0.066528 0.695801
vt1 0.077209 0.041016
vt1 0.077209 0.707764
vt1 0.079895 0.708496
vt1 0.079895 0.040039
vt1 0.094360 0.040039
vt1 0.094360 0.708496
vt1 0.097046 0.707764
vt1 0.097046 0.041016
vt1 0.102905 0.045410
vt1 0.102905 0.703613
vt1 0.104248 0.702637
vt1 0.104248 0.046387
vt1 0.110657 0.046387
vt1 0.110657 0.702637
vt1 0.149780 0.046387
vt1 0.156128 0.702637
vt1 0.149780 0.702637
vt1 0.156128 0.046387
vt1 0.157471 0.045410
vt1 0.157471 0.703613
vt1 0.163330 0.707764
vt1 0.163330 0.041016
vt1 0.166016 0.708496
vt1 0.166016 0.040039
vt1 0.180542 0.708496
vt1 0.180542 0.040039
vt1 0.183228 0.041016
vt1 0.183228 0.707764
vt1 0.193848 0.695801
vt1 0.193848 0.052734
vt1 0.202881 0.695801
vt1 0.202881 0.052734
vt1 0.205688 0.695068
vt1 0.205688 0.053711
vt1 0.212891 0.059570
vt1 0.212891 0.689209
vt1 0.220459 0.689209
vt1 0.220459 0.059570
vt1 0.959961 0.040039
vt1 0.959961 0.541504
vt1 0.537598 0.040039
vt1 0.537598 0.541504
vn -0.015748 -0.031496 1.000000
vn 0.015748 0.031496 1.000000
vn 0.015748 -0.031496 1.000000
vn -0.015748 0.031496 1.000000
vn -0.370079 0.905512 -0.220473
vn -0.377953 -0.929134 0.000000
vn -0.377953 0.929134 -0.000000
vn -0.370079 -0.905512 -0.220472
vn -0.015748 0.047244 -1.000000
vn -0.015748 -0.047244 -1.000000
vn 0.370079 -0.000000 -0.929134
vn 0.000000 -0.362205 -0.929134
vn 0.362205 -0.000000 -0.929134
vn 0.000000 0.362205 -0.929134
vn 0.992126 -0.007874 -0.102362
vn 0.007874 -0.992126 -0.102362
vn 0.992126 0.007874 -0.102362
vn 0.007874 0.992126 -0.102362
vn 0.007874 0.992126 0.102362
vn 0.992126 0.007874 0.102362
vn 0.000000 0.299213 0.952756
vn 0.992126 -0.007874 0.102362
vn 0.007874 -0.992126 0.102362
vn 0.000000 -0.307086 0.952756
vn 0.299213 0.000000 0.952756
vn 0.314961 0.000000 0.952756
vn 0.448819 0.007874 0.889764
vn 0.000000 0.472441 0.881890
vn 0.007874 0.992126 0.149606
vn 0.480315 -0.007874 0.874016
vn 0.000000 -0.488189 0.874016
vn 0.992126 0.007874 0.149606
vn 0.000000 0.338583 0.937008
vn 0.992126 -0.007874 0.149606
vn 0.007874 -0.992126 0.149606
vn 0.322835 0.000000 0.944882
vn -0.173228 -0.456693 0.874016
vn 0.314961 0.000000 0.952756
vn 0.000000 -0.338583 0.937008
vn -0.173228 0.448819 0.874016
vn -0.015748 -0.031496 1.000000
vn -0.015748 0.031496 1.000000
vn 0.377953 -0.929134 0.000000
vn 0.370079 0.905512 -0.220473
vn 0.377953 0.929134 -0.000000
vn 0.370079 -0.905512 -0.220472
vn 0.015748 0.047244 -1.000000
vn 0.015748 -0.047244 -1.000000
vn -0.370079 -0.000000 -0.929134
vn 0.000000 -0.362205 -0.929134
vn -0.362205 -0.000000 -0.929134
vn 0.000000 0.362205 -0.929134
vn -0.992126 -0.007874 -0.102362
vn -0.007874 -0.992126 -0.102362
vn -0.992126 0.007874 -0.102362
vn -0.007874 0.992126 -0.102362
vn -0.007874 0.992126 0.102362
vn -0.992126 0.007874 0.102362
vn 0.000000 0.307087 0.952756
vn -0.992126 -0.007874 0.102362
vn -0.007874 -0.992126 0.102362
vn -0.299213 0.000000 0.952756
vn -0.314961 0.000000 0.952756
vn 0.000000 -0.299212 0.952756
vn -0.448819 0.007874 0.889764
vn 0.000000 0.488189 0.874016
vn -0.007874 0.992126 0.149606
vn -0.480315 -0.007874 0.874016
vn 0.000000 -0.472441 0.881890
vn -0.992126 0.007874 0.149606
vn 0.000000 0.338583 0.944882
vn -0.992126 -0.007874 0.149606
vn -0.007874 -0.992126 0.149606
vn -0.322835 0.000000 0.944882
vn 0.173228 -0.448819 0.874016
vn -0.314961 0.000000 0.952756
vn 0.000000 -0.338583 0.944882
vn 0.173228 0.440945 0.881890
vn 0.015748 -0.031496 1.000000
vn 0.015748 0.031496 1.000000
vn 0.015748 -0.031496 1.000000
vn -0.173228 -0.456693 0.874016
vn -0.015748 -0.031496 1.000000
vn 0.173228 -0.448819 0.874016
vn 0.000000 0.338583 0.937008
vn 0.000000 0.338583 0.944882
vn 0.007874 0.992126 0.149606
vn -0.007874 0.992126 0.149606
vn 0.000000 0.488189 0.874016
vn 0.000000 0.472441 0.881890
vn 0.000000 0.307087 0.952756
vn 0.000000 0.299213 0.952756
vn 0.007874 0.992126 0.102362
vn -0.007874 0.992126 0.102362
vn -0.007874 0.992126 -0.102362
vn 0.007874 0.992126 -0.102362
vn 0.000000 0.362205 -0.929134
vn 0.000000 0.362205 -0.929134
vn 0.015748 -0.047244 -1.000000
vn -0.015748 -0.047244 -1.000000
vn -0.370079 -0.905512 -0.220472
vn 0.370079 -0.905512 -0.220472
vn 0.377953 -0.929134 0.000000
vn -0.377953 -0.929134 0.000000
vn 0.377953 0.929134 -0.000000
vn -0.370079 0.905512 -0.220473
vn -0.377953 0.929134 -0.000000
vn 0.370079 0.905512 -0.220473
vn 0.015748 0.047244 -1.000000
vn -0.015748 0.047244 -1.000000
vn 0.000000 -0.362205 -0.929134
vn 0.000000 -0.362205 -0.929134
vn 0.007874 -0.992126 -0.102362
vn -0.007874 -0.992126 -0.102362
vn 0.007874 -0.992126 0.102362
vn -0.007874 -0.992126 0.102362
vn 0.000000 -0.299212 0.952756
vn 0.000000 -0.307086 0.952756
vn 0.000000 -0.488189 0.874016
vn 0.000000 -0.472441 0.881890
vn 0.007874 -0.992126 0.149606
vn -0.007874 -0.992126 0.149606
vn 0.000000 -0.338583 0.937008
vn 0.000000 -0.338583 0.944882
vn 0.173228 0.440945 0.881890
vn -0.173228 0.448819 0.874016
vn -0.015748 0.031496 1.000000
vn 0.015748 0.031496 1.000000
vn 0.000000 -0.000000 -1.000000
vn 0.000000 -0.000000 -1.000000
vn 0.000000 -0.000000 -1.000000
vn 0.000000 -0.000000 -1.000000
tan -1.000992 0.000496 -0.015748 1.000000
tan -1.000992 0.000496 0.015748 1.000000
tan -1.000992 -0.000496 0.015748 1.000000
tan -1.000992 -0.000496 -0.015748 1.000000
tan -0.794904 -0.431087 -0.436233 1.000000
tan 0.929134 -0.377953 0.000000 1.000000
tan -0.929134 -0.377953 0.000000 1.000000
tan 0.794904 -0.431087 0.436233 1.000000
tan -0.000744 -1.000248 -0.047244 1.000000
tan 0.000744 -1.000248 0.047244 1.000000
tan -0.073160 -0.997334 -0.029140 1.000000
tan -0.236220 -0.899870 0.350797 1.000000
tan 0.073160 -0.994482 0.028520 1.000000
tan 0.236220 -0.899870 -0.350797 1.000000
tan -0.012648 -0.993986 -0.046128 1.000000
tan -0.883812 -0.054498 0.460227 1.000000
tan 0.012648 -0.993986 0.046128 1.000000
tan 0.883812 -0.054498 -0.460227 1.000000
tan 0.891624 -0.052948 0.444603 1.000000
tan 0.015066 -0.993986 -0.069564 1.000000
tan 0.248621 -0.922748 0.289789 1.000000
tan -0.015066 -0.993986 0.069564 1.000000
tan -0.891624 -0.052948 -0.444603 1.000000
tan -0.256743 -0.922748 -0.297414 1.000000
tan 0.112530 -0.987414 -0.035340 1.000000
tan -0.112530 -0.996962 0.037200 1.000000
tan -0.003472 -0.993118 0.010540 1.000000
tan 0.563953 -0.729121 0.390601 1.000000
tan 0.885982 -0.077562 0.467729 1.000000
tan -0.003782 -0.994606 -0.006882 1.000000
tan -0.568107 -0.715729 -0.399777 1.000000
tan 0.011346 -1.006696 -0.022258 1.000000
tan 0.225866 -0.914874 0.330585 1.000000
tan -0.012524 -1.006696 0.030070 1.000000
tan -0.885982 -0.077562 -0.467729 1.000000
tan 0.081840 -0.997024 -0.027962 1.000000
tan 0.166222 -0.886044 -0.430033 1.000000
tan -0.075020 -0.999442 0.024800 1.000000
tan -0.176266 -0.922252 -0.333251 1.000000
tan -0.164424 -0.886044 0.422407 1.000000
tan 0.882882 -0.472937 -0.000992 1.000000
tan -0.882882 -0.472937 0.000992 1.000000
tan -0.929134 -0.377953 0.000000 1.000000
tan 0.794904 -0.431087 -0.436233 1.000000
tan 0.929134 -0.377953 0.000000 1.000000
tan -0.794904 -0.431087 0.436233 1.000000
tan 0.000744 -1.000248 -0.047244 1.000000
tan -0.000744 -1.000248 0.047244 1.000000
tan 0.073160 -0.997334 -0.029140 1.000000
tan 0.236220 -0.899870 0.350797 1.000000
tan -0.073160 -0.994482 0.028520 1.000000
tan -0.236220 -0.907186 -0.353649 1.000000
tan 0.012648 -0.993986 -0.046128 1.000000
tan 0.883812 -0.054498 0.460227 1.000000
tan -0.012648 -0.993986 0.046128 1.000000
tan -0.883812 -0.054498 -0.460227 1.000000
tan -0.891624 -0.052948 0.444603 1.000000
tan -0.015066 -0.993986 -0.069564 1.000000
tan -0.256743 -0.922748 0.297415 1.000000
tan 0.015872 -0.993986 0.077376 1.000000
tan 0.891624 -0.052948 -0.444603 1.000000
tan -0.112530 -0.987414 -0.035340 1.000000
tan 0.105028 -0.996962 0.034720 1.000000
tan 0.223758 -0.930250 -0.292144 1.000000
tan -0.003534 -0.993118 0.007006 1.000000
tan -0.568107 -0.722611 0.403621 1.000000
tan -0.885982 -0.077562 0.467729 1.000000
tan 0.003782 -0.994606 -0.006882 1.000000
tan 0.563953 -0.729121 -0.390601 1.000000
tan -0.011346 -1.006696 -0.022258 1.000000
tan -0.227540 -0.922562 0.330585 1.000000
tan 0.012524 -1.006696 0.030070 1.000000
tan 0.885982 -0.077562 -0.467729 1.000000
tan -0.081840 -0.997024 -0.027962 1.000000
tan -0.164424 -0.886044 -0.422407 1.000000
tan 0.075020 -0.999442 0.024800 1.000000
tan 0.177568 -0.930002 -0.333251 1.000000
tan 0.159712 -0.892306 0.414781 1.000000
tan -0.882882 -0.472937 -0.000992 1.000000
tan 0.882882 -0.472937 0.000992 1.000000
tan -0.938000 -0.354827 0.003596 1.000000
tan -0.982950 0.128650 -0.127596 1.000000
tan -0.938000 0.354827 -0.003596 1.000000
tan -0.979292 -0.128650 0.128030 1.000000
tan -0.992622 0.000000 0.000000 1.000000
tan -1.007440 0.000000 0.000000 1.000000
tan -1.006696 0.007812 0.001178 1.000000
tan -1.006696 -0.007812 -0.001178 1.000000
tan -1.002232 0.000000 0.000000 1.000000
tan -1.000930 0.000000 0.000000 1.000000
tan -1.002046 0.000000 0.000000 1.000000
tan -0.997272 0.000000 0.000000 1.000000
tan -0.994792 0.007812 0.000806 1.000000
tan -0.994792 -0.007812 -0.000806 1.000000
tan -0.994792 -0.007812 0.000806 1.000000
tan -0.994792 0.007812 -0.000806 1.000000
tan -0.994482 0.000000 0.000000 1.000000
tan -0.994482 0.000000 0.000000 1.000000
tan -1.002232 -0.008618 -0.015376 1.000000
tan -1.002232 0.008618 0.015376 1.000000
tan -0.928886 0.336413 0.177506 1.000000
tan -0.928886 -0.336413 -0.177506 1.000000
tan -0.929134 -0.377953 0.000000 1.000000
tan -0.929134 0.377953 -0.000000 1.000000
tan -0.929134 0.377953 -0.000000 1.000000
tan -0.928886 -0.336413 0.177506 1.000000
tan -0.929134 -0.377953 0.000000 1.000000
tan -0.928886 0.336413 -0.177506 1.000000
tan -1.002232 0.008618 -0.015376 1.000000
tan -1.002232 -0.008618 0.015376 1.000000
tan -0.994482 0.000000 0.000000 1.000000
tan -0.994482 0.000000 0.000000 1.000000
tan -0.994792 -0.007812 -0.000806 1.000000
tan -0.994792 0.007812 0.000806 1.000000
tan -0.994792 -0.007812 0.000806 1.000000
tan -0.994792 0.007812 -0.000806 1.000000
tan -0.997272 0.000000 0.000000 1.000000
tan -1.002046 0.000000 0.000000 1.000000
tan -1.002232 0.000000 0.000000 1.000000
tan -1.000930 0.000000 0.000000 1.000000
tan -1.006696 -0.007812 0.001178 1.000000
tan -1.006696 0.007812 -0.001178 1.000000
tan -0.992622 0.000000 0.000000 1.000000
tan -1.007440 0.000000 0.000000 1.000000
tan -0.986050 0.127720 0.129828 1.000000
tan -0.979292 -0.128650 -0.128030 1.000000
tan -0.938000 -0.354827 -0.003596 1.000000
tan -0.938000 0.354827 0.003596 1.000000
tan 0.000000 -1.000000 0.000000 1.000000
tan 0.000000 -1.000000 0.000000 1.000000
tan 0.000000 -1.000000 0.000000 1.000000
tan 0.000000 -1.000000 0.000000 1.000000
f 3/3/3 2/2/2 1/1/1
f 4/4/4 1/1/1 2/2/2
f 7/7/7 6/6/6 5/5/5
f 8/8/8 5/5/5 6/6/6
f 5/5/5 8/8/8 9/9/9
f 8/8/8 10/10/10 9/9/9
f 9/9/9 10/10/10 11/11/11
f 12/12/12 9/9/9 11/11/11
f 10/10/10 13/13/13 11/11/11
f 13/13/13 10/10/10 14/14/14
f 11/11/11 15/15/15 12/12/12
f 11/11/11 13/13/13 15/15/15
f 16/16/16 12/12/12 15/15/15
f 17/17/17 13/13/13 14/14/14
f 13/13/13 17/17/17 15/15/15
f 14/14/14 18/18/18 17/17/17
f 18/18/18 19/19/19 17/17/17
f 20/20/20 17/17/17 19/19/19
f 20/20/20 15/15/15 17/17/17
f 19/19/19 21/21/21 20/20/20
f 15/15/15 22/22/22 16/16/16
f 22/22/22 15/15/15 20/20/20
f 23/23/23 16/16/16 22/22/22
f 24/24/24 23/23/23 22/22/22
f 25/25/25 20/20/20 21/21/21
f 20/20/20 25/25/25 22/22/22
f 26/26/26 24/24/24 22/22/22
f 26/26/26 22/22/22 25/25/25
f 25/25/25 21/21/21 27/27/27
f 27/27/27 26/26/26 25/25/25
f 27/27/27 21/21/21 28/28/28
f 28/28/28 29/29/29 27/27/27
f 26/26/26 30/30/30 24/24/24
f 30/30/30 26/26/26 27/27/27
f 31/31/31 24/24/24 30/30/30
f 32/32/32 27/27/27 29/29/29
f 32/32/32 30/30/30 27/27/27
f 29/29/29 33/33/33 32/32/32
f 30/30/30 34/34/34 31/31/31
f 34/34/34 30/30/30 32/32/32
f 35/35/35 31/31/31 34/34/34
f 36/36/36 32/32/32 33/33/33
f 32/32/32 36/36/36 34/34/34
f 33/33/33 37/37/37 36/36/36
f 34/34/34 38/38/38 35/35/35
f 38/38/38 34/34/34 36/36/36
f 39/39/39 35/35/35 38/38/38
f 38/38/38 40/40/40 39/39/39
f 40/40/40 38/38/38 36/36/36
f 37/37/37 40/40/40 36/36/36
f 37/37/37 41/41/41 40/40/40
f 42/42/42 40/40/40 41/41/41
f 45/45/45 44/44/44 43/43/43
f 43/43/43 44/44/44 46/46/46
f 44/44/44 47/47/47 46/46/46
f 46/46/46 47/47/47 48/48/48
f 47/47/47 49/49/49 48/48/48
f 49/49/49 47/47/47 50/50/50
f 48/48/48 49/49/49 51/51/51
f 52/52/52 48/48/48 51/51/51
f 49/49/49 50/50/50 53/53/53
f 54/54/54 53/53/53 50/50/50
f 51/51/51 49/49/49 55/55/55
f 55/55/55 52/52/52 51/51/51
f 53/53/53 55/55/55 49/49/49
f 55/55/55 56/56/56 52/52/52
f 56/56/56 55/55/55 57/57/57
f 58/58/58 57/57/57 55/55/55
f 58/58/58 55/55/55 53/53/53
f 57/57/57 58/58/58 59/59/59
f 53/53/53 54/54/54 60/60/60
f 53/53/53 60/60/60 58/58/58
f 61/61/61 60/60/60 54/54/54
f 62/62/62 59/59/59 58/58/58
f 58/58/58 60/60/60 62/62/62
f 60/60/60 61/61/61 63/63/63
f 63/63/63 62/62/62 60/60/60
f 64/64/64 63/63/63 61/61/61
f 62/62/62 65/65/65 59/59/59
f 66/66/66 59/59/59 65/65/65
f 66/66/66 65/65/65 67/67/67
f 63/63/63 68/68/68 62/62/62
f 63/63/63 64/64/64 68/68/68
f 65/65/65 62/62/62 68/68/68
f 69/69/69 68/68/68 64/64/64
f 70/70/70 67/67/67 65/65/65
f 70/70/70 65/65/65 68/68/68
f 67/67/67 70/70/70 71/71/71
f 68/68/68 69/69/69 72/72/72
f 68/68/68 72/72/72 70/70/70
f 73/73/73 72/72/72 69/69/69
f 74/74/74 71/71/71 70/70/70
f 70/70/70 72/72/72 74/74/74
f 74/74/74 75/75/75 71/71/71
f 72/72/72 73/73/73 76/76/76
f 76/76/76 74/74/74 72/72/72
f 77/77/77 76/76/76 73/73/73
f 77/77/77 78/78/78 76/76/76
f 78/78/78 74/74/74 76/76/76
f 75/75/75 74/74/74 78/78/78
f 75/75/75 78/78/78 79/79/79
f 80/80/80 79/79/79 78/78/78
f 83/83/83 82/82/82 81/81/81
f 84/84/84 81/81/81 82/82/82
f 82/82/82 85/85/85 84/84/84
f 84/84/84 85/85/85 86/86/86
f 85/85/85 87/87/87 86/86/86
f 86/86/86 87/87/87 88/88/88
f 88/88/88 87/87/87 89/89/89
f 90/90/90 89/89/89 87/87/87
f 89/89/89 90/90/90 91/91/91
f 90/90/90 92/92/92 91/91/91
f 92/92/92 93/93/93 91/91/91
f 91/91/91 93/93/93 94/94/94
f 94/94/94 93/93/93 95/95/95
f 96/96/96 95/95/95 93/93/93
f 97/97/97 95/95/95 96/96/96
f 98/98/98 95/95/95 97/97/97
f 99/99/99 98/98/98 97/97/97
f 100/100/100 99/99/99 97/97/97
f 101/101/101 99/99/99 100/100/100
f 102/102/102 99/99/99 101/101/101
f 103/103/103 102/102/102 101/101/101
f 104/104/104 103/103/103 101/101/101
f 107/107/107 106/106/106 105/105/105
f 108/108/108 105/105/105 106/106/106
f 108/108/108 106/106/106 109/109/109
f 110/110/110 109/109/109 106/106/106
f 110/110/110 111/111/111 109/109/109
f 112/112/112 109/109/109 111/111/111
f 111/111/111 113/113/113 112/112/112
f 114/114/114 112/112/112 113/113/113
f 113/113/113 115/115/115 114/114/114
f 116/116/116 114/114/114 115/115/115
f 116/116/116 115/115/115 117/117/117
f 118/118/118 117/117/117 115/115/115
f 118/118/118 119/119/119 117/117/117
f 120/120/120 117/117/117 119/119/119
f 119/119/119 121/121/121 120/120/120
f 122/122/122 120/120/120 121/121/121
f 123/123/123 122/122/122 121/121/121
f 124/124/124 122/122/122 123/123/123
f 124/124/124 123/123/123 125/125/125
f 126/126/126 125/125/125 123/123/123
f 127/127/127 125/125/125 126/126/126
f 125/125/125 127/127/127 128/128/128
f 131/131/131 130/130/130 129/129/129
f 130/130/130 131/131/131 132/132/132
