mtllib SM_Sticker_08.mtl
g SM_Sticker_08
#Vertices 4
#Indices 6
#Section 0 Offset 0 NumIndices 6 MaterialIndex 0 MI_Posters_01
v -0.000638 0.329103 -0.000000
v 0.298091 0.002527 -0.000000
v 0.299012 0.328533 -0.000000
v 0.000000 0.000000 0.000000
vt 0.154785 0.408691
vt 0.300537 0.249023
vt 0.301025 0.408203
vt 0.155151 0.248047
vt1 0.144897 0.890015
vt1 0.852539 0.116211
vt1 0.854980 0.888672
vt1 0.146362 0.110352
vn 0.000000 -0.000000 -1.000000
vn 0.000000 -0.000000 -1.000000
vn 0.000000 -0.000000 -1.000000
vn 0.000000 -0.000000 -1.000000
tan 0.000000 -1.000000 0.000000 1.000000
tan 0.000000 -1.000000 0.000000 1.000000
tan 0.000000 -1.000000 0.000000 1.000000
tan 0.000000 -1.000000 0.000000 1.000000
f 3/3/3 2/2/2 1/1/1
f 4/4/4 1/1/1 2/2/2
