mtllib SM_Screen_03.mtl
g SM_Screen_03
#Vertices 151
#Indices 489
#Section 0 Offset 0 NumIndices 483 MaterialIndex 0 MI_Plastic_Glossy_01
#Section 1 Offset 483 NumIndices 6 MaterialIndex 1 MI_Screens_Emissive_01
v 5.391174 0.015964 -0.059628
v 0.031791 0.015964 -0.059628
v 0.031791 0.015964 -0.076130
v 5.391174 0.015964 -0.076130
v 0.027795 0.011968 -0.080126
v 5.395170 0.011968 -0.080126
v 5.446701 -0.046102 -0.080126
v -0.023736 -0.046102 -0.080126
v -0.025391 -0.050098 -0.076130
v 5.448356 -0.050098 -0.076130
v 5.448356 -0.050098 -0.037551
v -0.025391 -0.050098 -0.037550
v 5.446701 -0.046102 -0.033555
v -0.023736 -0.046102 -0.033555
v 5.419767 -0.009571 -0.033555
v -0.002451 -0.009571 -0.033555
v 5.417458 -0.003996 -0.027979
v -0.000142 -0.003996 -0.027979
v 5.417458 -0.003996 -0.003996
v -0.000142 -0.003996 -0.003996
v 5.417278 -0.000000 -0.000000
v -0.000000 0.000000 0.000000
v 0.059798 0.029866 0.000000
v 5.359086 0.029865 -0.000000
v 0.065274 0.027479 -0.025733
v 5.357542 0.031410 -0.025733
v 5.391173 2.207774 -0.059629
v 0.031791 2.207774 -0.076131
v 0.031791 2.207774 -0.059629
v 5.391173 2.207774 -0.076131
v 0.027795 2.211770 -0.080127
v 5.395170 2.211770 -0.080127
v -0.023736 2.269840 -0.080127
v 5.446701 2.269840 -0.080127
v -0.025391 2.273835 -0.076131
v 5.448356 2.273835 -0.076131
v 5.448356 2.273836 -0.037551
v -0.025391 2.273836 -0.037551
v 5.446701 2.269840 -0.033555
v -0.023736 2.269840 -0.033555
v 5.419767 2.233309 -0.033555
v -0.002451 2.233309 -0.033555
v 5.417458 2.227734 -0.027980
v -0.000142 2.227734 -0.027980
v 5.417458 2.227734 -0.003997
v -0.000142 2.227734 -0.003996
v 5.417278 2.223738 -0.000001
v -0.000000 2.223738 -0.000001
v 0.059798 2.193873 -0.000001
v 5.359086 2.193873 -0.000001
v 5.357542 2.192328 -0.025734
v 0.061342 2.192328 -0.025734
v -0.000142 -0.003996 -0.027979
v -0.013579 0.001557 -0.033555
v -0.008004 0.003867 -0.027979
v -0.002451 -0.009571 -0.033555
v -0.031395 -0.038442 -0.033555
v -0.023736 -0.046102 -0.033555
v -0.025391 -0.050098 -0.037550
v -0.035391 -0.040098 -0.037550
v -0.025391 -0.050098 -0.076130
v -0.035391 -0.040098 -0.076130
v -0.023736 -0.046102 -0.080126
v -0.035391 2.263836 -0.037551
v -0.031395 -0.038442 -0.080126
v 0.027795 0.011968 -0.080126
v -0.035391 2.263835 -0.076131
v -0.031395 2.262180 -0.080127
v 0.027795 2.211770 -0.080127
v 0.031791 0.015964 -0.076130
v -0.023736 2.269840 -0.080127
v 0.031791 2.207774 -0.076131
v -0.025391 2.273835 -0.076131
v 0.031791 2.207774 -0.059629
v 0.031791 0.015964 -0.059628
v -0.025391 2.273836 -0.037551
v -0.031395 2.262181 -0.033555
v -0.023736 2.269840 -0.033555
v -0.013579 0.001557 -0.033555
v -0.002451 2.233309 -0.033555
v -0.013579 2.222181 -0.033555
v -0.000142 2.227734 -0.027980
v -0.008004 2.219872 -0.027980
v -0.008004 2.219872 -0.027980
v -0.008004 0.003867 -0.027979
v -0.000142 2.227734 -0.003996
v -0.000142 2.227734 -0.027980
v -0.000142 -0.003996 -0.003996
v -0.000142 -0.003996 -0.027979
v -0.008004 2.219872 -0.003996
v -0.000000 2.223738 -0.000001
v -0.008004 0.003867 -0.003996
v -0.000000 0.000000 0.000000
v -0.004008 2.217010 -0.000001
v 0.059798 2.193873 -0.000001
v -0.004008 0.006729 -0.000000
v 0.059798 0.029866 0.000000
v 0.057411 0.035341 -0.025733
v 0.061342 2.192328 -0.025734
v 0.065274 0.027479 -0.025733
v 5.391173 2.207774 -0.059629
v 5.391174 0.015964 -0.059628
v 5.391174 0.015964 -0.076130
v 5.391173 2.207774 -0.076131
v 5.395170 2.211770 -0.080127
v 5.395170 0.011968 -0.080126
v 5.454360 2.262180 -0.080127
v 5.446701 2.269840 -0.080127
v 5.448356 2.273835 -0.076131
v 5.454360 -0.038443 -0.080126
v 5.446701 -0.046102 -0.080126
v 5.448356 -0.050098 -0.076130
v 5.458356 2.263835 -0.076131
v 5.458356 -0.040098 -0.076130
v 5.458356 -0.040098 -0.037551
v 5.448356 -0.050098 -0.037551
v 5.458356 2.263836 -0.037551
v 5.448356 2.273836 -0.037551
v 5.454360 -0.038443 -0.033555
v 5.446701 -0.046102 -0.033555
v 5.419767 -0.009571 -0.033555
v 5.454360 2.262181 -0.033555
v 5.446701 2.269840 -0.033555
v 5.419767 2.233309 -0.033555
v 5.425320 0.003867 -0.027979
v 5.417458 -0.003996 -0.027979
v 5.430896 0.001557 -0.033555
v 5.430896 2.222181 -0.033555
v 5.425320 2.219872 -0.027980
v 5.417458 2.227734 -0.027980
v 5.430896 2.222181 -0.033555
v 5.425320 2.219872 -0.027980
v 5.425320 0.003867 -0.027979
v 5.417458 2.227734 -0.003997
v 5.417458 2.227734 -0.027980
v 5.425320 2.219872 -0.003997
v 5.417278 2.223738 -0.000001
v 5.417458 -0.003996 -0.003996
v 5.417458 -0.003996 -0.027979
v 5.421324 2.217034 -0.000001
v 5.425320 0.003867 -0.003996
v 5.417278 -0.000000 -0.000000
v 5.359086 2.193873 -0.000001
v 5.421324 0.006704 -0.000000
v 5.359086 0.029865 -0.000000
v 5.357542 0.031410 -0.025733
v 5.357542 2.192328 -0.025734
v 5.391173 2.207774 -0.059629
v 0.031791 2.207774 -0.059629
v 0.031791 0.015964 -0.059628
v 5.391174 0.015964 -0.059628
vt 0.495605 2.723633
vt 0.495605 0.037598
vt 0.503906 0.037598
vt 0.503906 2.723633
vt 0.506836 0.035645
vt 0.506836 2.725586
vt 0.535645 2.751953
vt 0.535645 0.009766
vt 0.538574 0.008789
vt 0.538574 2.752930
vt 0.558105 2.752930
vt 0.558105 0.008789
vt 0.561035 2.751953
vt 0.561035 0.009766
vt 0.579590 2.738281
vt 0.579590 0.020508
vt 0.583496 2.737305
vt 0.583496 0.021484
vt 0.595703 2.737305
vt 0.595703 0.021484
vt 0.598633 2.737305
vt 0.598633 0.021484
vt 0.613770 0.051270
vt 0.613770 2.708008
vt 0.626953 0.054199
vt 0.626953 2.707031
vt 0.487549 2.719727
vt 0.479248 0.033691
vt 0.487549 0.033691
vt 0.479248 2.719727
vt 0.476318 0.031738
vt 0.476318 2.721680
vt 0.447266 0.005859
vt 0.447266 2.748047
vt 0.444336 0.004883
vt 0.444336 2.749023
vt 0.424805 2.749023
vt 0.424805 0.004883
vt 0.421875 2.748047
vt 0.421875 0.005859
vt 0.403320 2.734375
vt 0.403320 0.016602
vt 0.399414 2.733398
vt 0.399414 0.017578
vt 0.387207 2.733398
vt 0.387207 0.017578
vt 0.384277 2.733398
vt 0.384277 0.017578
vt 0.369385 0.047852
vt 0.369385 2.704102
vt 0.356445 2.703125
vt 0.356445 0.048340
vt 0.253418 0.037598
vt 0.260986 0.040039
vt 0.257324 0.041504
vt 0.255615 0.034180
vt 0.270264 0.020508
vt 0.267578 0.015625
vt 0.271240 0.013184
vt 0.272461 0.020020
vt 0.292480 0.013184
vt 0.291016 0.020020
vt 0.296143 0.016113
vt 0.272461 1.174927
vt 0.293213 0.020508
vt 0.322754 0.045898
vt 0.291016 1.174927
vt 0.293213 1.174438
vt 0.322754 1.149170
vt 0.325684 0.047852
vt 0.296143 1.178955
vt 0.325684 1.147095
vt 0.292480 1.181519
vt 0.333984 1.147095
vt 0.333984 0.047852
vt 0.271240 1.181519
vt 0.270264 1.174438
vt 0.267578 1.178955
vt 0.260986 0.040527
vt 0.255859 1.160522
vt 0.260986 1.154541
vt 0.253662 1.156860
vt 0.257324 1.152710
vt 0.256836 1.153442
vt 0.256836 0.041992
vt 0.243530 1.158081
vt 0.256104 1.159180
vt 0.243530 0.037109
vt 0.256104 0.036133
vt 0.244873 1.152954
vt 0.240845 1.155518
vt 0.244873 0.041992
vt 0.240845 0.039551
vt 0.242310 1.151855
vt 0.210449 1.140259
vt 0.242310 0.043457
vt 0.210449 0.054688
vt 0.197510 0.057617
vt 0.197510 1.139526
vt 0.197388 0.052246
vt 0.183838 0.047852
vt 0.183838 1.146362
vt 0.175537 1.146362
vt 0.175537 0.047852
vt 0.172729 0.045410
vt 0.172729 1.148560
vt 0.143188 0.020508
vt 0.146118 0.015625
vt 0.142334 0.013184
vt 0.143311 1.173706
vt 0.146118 1.178223
vt 0.142456 1.180786
vt 0.141113 0.020020
vt 0.141113 1.174194
vt 0.122620 1.174316
vt 0.121399 1.180908
vt 0.122559 0.020020
vt 0.121338 0.013184
vt 0.120361 1.173828
vt 0.117676 1.178345
vt 0.103210 1.159912
vt 0.120239 0.020508
vt 0.117676 0.015625
vt 0.102905 0.033691
vt 0.104736 1.152222
vt 0.101074 1.156372
vt 0.108459 1.153931
vt 0.108337 0.039551
vt 0.104675 0.041504
vt 0.100830 0.037598
vt 0.108093 0.040527
vt 0.103760 0.041504
vt 0.103882 1.152710
vt 0.090515 0.037109
vt 0.103088 0.035645
vt 0.091919 0.041992
vt 0.087891 0.039551
vt 0.090515 1.157227
vt 0.103088 1.158447
vt 0.089355 0.042969
vt 0.091919 1.152222
vt 0.087891 1.154663
vt 0.058228 0.054688
vt 0.089355 1.151123
vt 0.058258 1.139526
vt 0.045288 1.138672
vt 0.045288 0.055664
vt 0.984375 0.976578
vt 0.011986 0.976578
vt 0.011986 0.596436
vt 0.984375 0.596436
vt1 0.140503 0.950409
vt1 0.140503 0.049805
vt1 0.143188 0.049805
vt1 0.143188 0.950409
vt1 0.144165 0.049316
vt1 0.144165 0.951080
vt1 0.153931 0.959717
vt1 0.153931 0.040527
vt1 0.154907 0.040039
vt1 0.154907 0.960022
vt1 0.161499 0.960022
vt1 0.161499 0.040039
vt1 0.162476 0.959747
vt1 0.162476 0.040527
vt1 0.168701 0.955200
vt1 0.168701 0.043945
vt1 0.170044 0.954834
vt1 0.170044 0.044434
vt1 0.174194 0.954834
vt1 0.174194 0.044434
vt1 0.175171 0.954803
vt1 0.175171 0.044434
vt1 0.180176 0.054688
vt1 0.180176 0.945007
vt1 0.184448 0.055664
vt1 0.184448 0.944763
vt1 0.039978 0.049805
vt1 0.042755 0.950409
vt1 0.039978 0.950409
vt1 0.042755 0.049805
vt1 0.043732 0.951080
vt1 0.043732 0.049316
vt1 0.053497 0.959747
vt1 0.053497 0.040527
vt1 0.054474 0.960022
vt1 0.054474 0.040039
vt1 0.061005 0.040039
vt1 0.061005 0.960022
vt1 0.061981 0.040527
vt1 0.061981 0.959747
vt1 0.068176 0.044922
vt1 0.068176 0.956146
vt1 0.069519 0.045410
vt1 0.069519 0.955780
vt1 0.073608 0.045410
vt1 0.073608 0.955780
vt1 0.074585 0.045410
vt1 0.074585 0.955750
vt1 0.079590 0.945709
vt1 0.079590 0.055176
vt1 0.083923 0.055664
vt1 0.083923 0.945435
vt1 0.798828 0.926270
vt1 0.796387 0.925537
vt1 0.797852 0.924927
vt1 0.798340 0.927490
vt1 0.793457 0.932068
vt1 0.794434 0.933594
vt1 0.792969 0.934448
vt1 0.792480 0.932190
vt1 0.786133 0.934387
vt1 0.786621 0.932190
vt1 0.784668 0.933533
vt1 0.792480 0.545166
vt1 0.785645 0.932007
vt1 0.775879 0.923584
vt1 0.786621 0.545166
vt1 0.785645 0.545410
vt1 0.775879 0.553955
vt1 0.774902 0.922852
vt1 0.784668 0.543945
vt1 0.774902 0.554443
vt1 0.786133 0.542969
vt1 0.771973 0.554443
vt1 0.771973 0.922852
vt1 0.792969 0.542969
vt1 0.793457 0.545410
vt1 0.794434 0.543945
vt1 0.796387 0.925232
vt1 0.798340 0.550049
vt1 0.796387 0.552002
vt1 0.798828 0.551270
vt1 0.797852 0.552734
vt1 0.797852 0.552490
vt1 0.797852 0.924866
vt1 0.802246 0.550781
vt1 0.798340 0.550537
vt1 0.802246 0.926453
vt1 0.798340 0.926819
vt1 0.801758 0.552490
vt1 0.803223 0.551758
vt1 0.801758 0.924805
vt1 0.803223 0.925598
vt1 0.802734 0.552979
vt1 0.813477 0.556885
vt1 0.802734 0.924377
vt1 0.813477 0.920532
vt1 0.817871 0.919556
vt1 0.817871 0.557129
vt1 0.817871 0.921387
vt1 0.771973 0.445801
vt1 0.771973 0.077148
vt1 0.774902 0.077148
vt1 0.774902 0.445801
vt1 0.775879 0.446289
vt1 0.775879 0.076660
vt1 0.785645 0.454590
vt1 0.784668 0.456055
vt1 0.786133 0.457031
vt1 0.785645 0.067871
vt1 0.784668 0.066406
vt1 0.786133 0.065430
vt1 0.786621 0.455078
vt1 0.786621 0.067871
vt1 0.792480 0.067871
vt1 0.792969 0.065430
vt1 0.792480 0.455078
vt1 0.792969 0.457031
vt1 0.793457 0.067871
vt1 0.794434 0.066406
vt1 0.799316 0.072754
vt1 0.793457 0.454590
vt1 0.794434 0.456543
vt1 0.799316 0.450195
vt1 0.798828 0.075195
vt1 0.799805 0.073730
vt1 0.797363 0.074707
vt1 0.797363 0.448242
vt1 0.798828 0.447754
vt1 0.799805 0.449219
vt1 0.797363 0.447754
vt1 0.798828 0.447754
vt1 0.798828 0.075195
vt1 0.803223 0.449219
vt1 0.799316 0.449707
vt1 0.802734 0.447754
vt1 0.804199 0.448242
vt1 0.803223 0.073730
vt1 0.799316 0.073242
vt1 0.803711 0.447266
vt1 0.802734 0.075195
vt1 0.804199 0.074219
vt1 0.814453 0.443359
vt1 0.803711 0.075684
vt1 0.814453 0.079590
vt1 0.818359 0.079590
vt1 0.818359 0.442871
vt1 0.287598 0.956146
vt1 0.287598 0.043945
vt1 0.644531 0.043945
vt1 0.644531 0.956146
vn -0.377953 0.929134 -0.000000
vn 0.377953 0.929134 -0.000000
vn 0.362205 0.881890 -0.314961
vn -0.362205 0.881890 -0.314961
vn 0.007874 0.015748 -1.000000
vn -0.007874 0.015748 -1.000000
vn 0.000000 -0.125984 -0.992126
vn 0.000000 -0.133858 -0.992126
vn 0.000000 -1.000000 -0.078740
vn 0.000000 -1.000000 -0.078740
vn 0.000000 -1.000000 0.078740
vn 0.000000 -1.000000 0.078740
vn 0.000000 -0.173228 0.984252
vn 0.000000 -0.157480 0.984252
vn 0.000000 -0.078740 1.000000
vn 0.000000 -0.086614 1.000000
vn 0.000000 -0.976378 0.212599
vn 0.000000 -0.976378 0.212599
vn 0.000000 -0.992126 0.141732
vn 0.000000 -0.992126 0.141732
vn 0.000000 -0.299212 0.952756
vn 0.000000 -0.299212 0.952756
vn 0.110236 0.267717 0.960630
vn -0.110236 0.275591 0.952756
vn 0.000000 0.992126 -0.094488
vn -0.377953 0.921260 0.078740
vn -0.377953 -0.929134 0.000000
vn 0.362205 -0.881890 -0.314960
vn 0.377953 -0.929134 0.000000
vn -0.362205 -0.881890 -0.314960
vn 0.007874 -0.015748 -1.000000
vn -0.007874 -0.015748 -1.000000
vn 0.000000 0.133858 -0.992126
vn 0.000000 0.125984 -0.992126
vn 0.000000 1.000000 -0.078740
vn 0.000000 1.000000 -0.078740
vn 0.000000 1.000000 0.078740
vn 0.000000 1.000000 0.078740
vn 0.000000 0.173228 0.984252
vn 0.000000 0.165354 0.984252
vn 0.000000 0.078740 1.000000
vn 0.000000 0.086614 1.000000
vn 0.000000 0.976378 0.212598
vn 0.000000 0.976378 0.212598
vn 0.000000 0.992126 0.141732
vn 0.000000 0.992126 0.141732
vn 0.000000 0.299213 0.952756
vn 0.000000 0.299213 0.952756
vn 0.110236 -0.275590 0.952756
vn -0.118110 -0.283464 0.952756
vn -0.377953 -0.921260 0.078740
vn 0.377953 -0.921260 0.078740
vn 0.000000 -0.976378 0.212599
vn -0.125984 0.000000 0.992126
vn -0.976378 0.000000 0.212598
vn 0.000000 -0.086614 1.000000
vn -0.440945 0.000000 0.897638
vn 0.000000 -0.157480 0.984252
vn 0.000000 -1.000000 0.078740
vn -1.000000 -0.007874 0.078740
vn 0.000000 -1.000000 -0.078740
vn -1.000000 -0.007874 -0.078740
vn 0.000000 -0.133858 -0.992126
vn -1.000000 0.007874 0.078740
vn -0.125984 -0.000000 -0.992126
vn 0.007874 0.015748 -1.000000
vn -1.000000 0.007874 -0.078740
vn -0.125984 -0.000000 -0.992126
vn 0.007874 -0.015748 -1.000000
vn 0.362205 0.881890 -0.314961
vn 0.000000 0.133858 -0.992126
vn 0.362205 -0.881890 -0.314960
vn 0.000000 1.000000 -0.078740
vn 0.377953 -0.929134 0.000000
vn 0.377953 0.929134 -0.000000
vn 0.000000 1.000000 0.078740
vn -0.440945 0.000000 0.897638
vn 0.000000 0.165354 0.984252
vn -0.125984 0.000000 0.992126
vn 0.000000 0.086614 1.000000
vn -0.125984 0.000000 0.992126
vn 0.000000 0.976378 0.212598
vn -0.976378 0.000000 0.212598
vn -0.976378 0.000000 0.212598
vn -0.976378 0.000000 0.212598
vn 0.000000 0.992126 0.141732
vn 0.000000 0.976378 0.212598
vn 0.000000 -0.992126 0.141732
vn 0.000000 -0.976378 0.212599
vn -0.992126 0.000000 0.102362
vn 0.000000 0.299213 0.952756
vn -0.992126 0.000000 0.102362
vn 0.000000 -0.299212 0.952756
vn -0.094488 0.000000 0.992126
vn 0.110236 -0.275590 0.952756
vn -0.094488 0.000000 0.992126
vn 0.110236 0.267717 0.960630
vn 0.992126 -0.000000 -0.094488
vn 0.377953 -0.921260 0.078740
vn 0.000000 0.992126 -0.094488
vn -0.377953 -0.929134 0.000000
vn -0.377953 0.929134 -0.000000
vn -0.362205 0.881890 -0.314961
vn -0.362205 -0.881890 -0.314960
vn -0.007874 -0.015748 -1.000000
vn -0.007874 0.015748 -1.000000
vn 0.125984 -0.000000 -0.992126
vn 0.000000 0.125984 -0.992126
vn 0.000000 1.000000 -0.078740
vn 0.125984 -0.000000 -0.992126
vn 0.000000 -0.125984 -0.992126
vn 0.000000 -1.000000 -0.078740
vn 1.000000 0.007874 -0.078740
vn 1.000000 -0.007874 -0.078740
vn 1.000000 -0.007874 0.078740
vn 0.000000 -1.000000 0.078740
vn 1.000000 0.007874 0.078740
vn 0.000000 1.000000 0.078740
vn 0.354331 0.000000 0.937008
vn 0.000000 -0.173228 0.984252
vn 0.000000 -0.078740 1.000000
vn 0.346457 0.000000 0.937008
vn 0.000000 0.173228 0.984252
vn 0.000000 0.078740 1.000000
vn 0.976378 0.000000 0.212598
vn 0.000000 -0.976378 0.212599
vn 0.102362 0.000000 0.992126
vn 0.102362 0.000000 0.992126
vn 0.976378 0.000000 0.212598
vn 0.000000 0.976378 0.212598
vn 0.102362 0.000000 0.992126
vn 0.976378 0.000000 0.212598
vn 0.976378 0.000000 0.212598
vn 0.000000 0.992126 0.141732
vn 0.000000 0.976378 0.212598
vn 0.992126 0.000000 0.102362
vn 0.000000 0.299213 0.952756
vn 0.000000 -0.992126 0.141732
vn 0.000000 -0.976378 0.212599
vn 0.094488 0.000000 0.992126
vn 0.992126 0.000000 0.102362
vn 0.000000 -0.299212 0.952756
vn -0.118110 -0.283464 0.952756
vn 0.094488 0.000000 0.992126
vn -0.110236 0.275591 0.952756
vn -0.377953 0.921260 0.078740
vn -0.377953 -0.921260 0.078740
vn 0.000000 -0.000000 -1.000000
vn 0.000000 -0.000000 -1.000000
vn 0.000000 -0.000000 -1.000000
vn 0.000000 -0.000000 -1.000000
tan -0.929134 -0.377953 0.000000 1.000000
tan -0.929134 0.377953 -0.000000 1.000000
tan -0.937938 0.324509 -0.170004 1.000000
tan -0.937938 -0.324509 0.170004 1.000000
tan -1.000248 0.000124 -0.007874 1.000000
tan -1.000248 -0.000124 0.007874 1.000000
tan -1.000186 0.000000 0.000000 1.000000
tan -1.002232 0.000000 0.000000 1.000000
tan -1.006200 0.000000 0.000000 1.000000
tan -1.006200 0.000000 0.000000 1.000000
tan -1.006200 0.000000 0.000000 1.000000
tan -1.006200 0.000000 0.000000 1.000000
tan -0.998760 0.000000 0.000000 1.000000
tan -0.993552 0.000000 0.000000 1.000000
tan -1.006200 0.000000 0.000000 1.000000
tan -1.007502 0.000000 0.000000 1.000000
tan -0.998512 0.000000 0.000000 1.000000
tan -0.998512 0.000000 0.000000 1.000000
tan -1.004402 0.000000 0.000000 1.000000
tan -1.004402 0.000000 0.000000 1.000000
tan -0.997272 0.000000 0.000000 1.000000
tan -0.997272 0.000000 0.000000 1.000000
tan -0.996590 0.083328 0.091140 1.000000
tan -0.985864 -0.091264 -0.087668 1.000000
tan -0.993242 0.000000 0.000000 1.000000
tan -0.927460 -0.378573 -0.022506 1.000000
tan -0.929134 0.377953 -0.000000 1.000000
tan -0.937938 -0.324509 -0.170004 1.000000
tan -0.929134 -0.377953 0.000000 1.000000
tan -0.937938 0.324509 0.170004 1.000000
tan -1.000372 -0.000186 -0.007874 1.000000
tan -1.000248 0.000124 0.007874 1.000000
tan -1.002232 0.000000 0.000000 1.000000
tan -1.000186 0.000000 0.000000 1.000000
tan -1.006200 0.000000 0.000000 1.000000
tan -1.006200 0.000000 0.000000 1.000000
tan -1.006200 0.000000 0.000000 1.000000
tan -1.006200 0.000000 0.000000 1.000000
tan -0.998760 0.000000 0.000000 1.000000
tan -0.996094 0.000000 0.000000 1.000000
tan -1.006200 0.000000 0.000000 1.000000
tan -1.007502 0.000000 0.000000 1.000000
tan -0.998512 0.000000 0.000000 1.000000
tan -0.998512 0.000000 0.000000 1.000000
tan -1.004402 0.000000 0.000000 1.000000
tan -1.004402 0.000000 0.000000 1.000000
tan -0.997272 0.000000 0.000000 1.000000
tan -0.997272 0.000000 0.000000 1.000000
tan -0.993366 -0.091264 0.088536 1.000000
tan -0.990328 0.094426 -0.094674 1.000000
tan -0.927460 0.378573 -0.022506 1.000000
tan -0.927460 -0.378573 0.022506 1.000000
tan 0.490731 -0.185814 -0.853370 1.000000
tan -0.039060 -1.000186 -0.004960 1.000000
tan -0.038502 -0.981462 -0.176824 1.000000
tan 0.000000 -1.000000 -0.086614 1.000000
tan 0.106020 -0.993118 0.052080 1.000000
tan 0.127720 -0.976502 -0.156240 1.000000
tan 0.887470 -0.037200 -0.472441 1.000000
tan 0.015252 -0.998326 0.093868 1.000000
tan 0.879596 -0.038440 0.488189 1.000000
tan 0.012772 -0.998326 -0.062372 1.000000
tan 0.103664 -0.984314 0.132804 1.000000
tan -0.014632 -0.998326 -0.085994 1.000000
tan 0.101556 -0.992374 -0.012896 1.000000
tan -0.007750 -1.000062 -0.015810 1.000000
tan -0.014632 -0.998326 0.085994 1.000000
tan -0.101556 -0.992374 0.012896 1.000000
tan 0.007750 -1.000062 0.015810 1.000000
tan 0.758386 -0.473433 -0.453469 1.000000
tan -0.040114 -0.992126 -0.133858 1.000000
tan -0.758386 -0.473433 0.453469 1.000000
tan -0.879596 -0.038440 -0.488189 1.000000
tan -0.929134 -0.377953 0.000000 1.000000
tan 0.929134 -0.377953 0.000000 1.000000
tan -0.879596 -0.037820 0.480315 1.000000
tan -0.098952 -0.996714 -0.048608 1.000000
tan -0.080104 -0.984252 0.165354 1.000000
tan -0.007812 -1.000186 -0.000992 1.000000
tan -0.007874 -1.000000 0.086614 1.000000
tan 0.000000 -1.000186 0.000000 1.000000
tan -0.498419 -0.184140 0.845682 1.000000
tan 0.031806 -0.990824 0.146072 1.000000
tan 0.005022 -0.998512 0.023064 1.000000
tan -0.003348 -0.998512 -0.015376 1.000000
tan -0.924050 -0.053568 0.374977 1.000000
tan -0.998512 -0.015066 0.069192 1.000000
tan 0.924050 -0.053568 -0.374977 1.000000
tan 0.998512 -0.013392 -0.061504 1.000000
tan -0.004030 -0.994792 -0.039060 1.000000
tan -0.189038 -0.937752 0.294501 1.000000
tan 0.004030 -0.994792 0.039060 1.000000
tan 0.189038 -0.937752 -0.294500 1.000000
tan -0.085932 -0.993242 -0.008184 1.000000
tan -0.185938 -0.947610 -0.252588 1.000000
tan 0.085932 -0.993242 0.008184 1.000000
tan 0.362825 -0.906690 0.211048 1.000000
tan -0.001488 -0.993242 -0.015624 1.000000
tan -0.917726 -0.381177 -0.054684 1.000000
tan 0.993242 0.005952 0.062496 1.000000
tan -0.929134 0.377953 -0.000000 1.000000
tan 0.929134 0.377953 -0.000000 1.000000
tan 0.758386 0.473433 0.453469 1.000000
tan -0.758386 0.473433 -0.453469 1.000000
tan 0.007750 1.000062 -0.015810 1.000000
tan -0.007750 1.000062 0.015810 1.000000
tan -0.101556 0.992374 -0.012896 1.000000
tan -0.040052 0.992126 0.125984 1.000000
tan -0.879596 0.038440 0.488189 1.000000
tan 0.101556 0.992374 0.012896 1.000000
tan 0.040052 0.992126 -0.125984 1.000000
tan 0.879596 0.038440 -0.488189 1.000000
tan -0.014632 0.998326 -0.085994 1.000000
tan 0.014012 0.998326 0.078120 1.000000
tan 0.014632 0.998326 -0.085994 1.000000
tan 0.879596 0.037820 0.480315 1.000000
tan -0.015252 0.998326 0.093868 1.000000
tan -0.887470 0.037200 -0.472441 1.000000
tan 0.095914 0.993366 -0.036270 1.000000
tan 0.080228 0.984252 0.173228 1.000000
tan 0.007874 1.000000 0.078740 1.000000
tan -0.110670 0.987910 0.040920 1.000000
tan -0.128092 0.976502 -0.171864 1.000000
tan 0.007874 1.000000 -0.078740 1.000000
tan -0.026784 0.990824 0.123008 1.000000
tan 0.506107 0.182466 0.837994 1.000000
tan 0.000000 0.994792 -0.000000 1.000000
tan 0.039060 0.994792 -0.004030 1.000000
tan 0.040176 0.981462 -0.184512 1.000000
tan -0.483043 0.185814 -0.853370 1.000000
tan 0.000000 0.994792 -0.000000 1.000000
tan 0.001674 0.998512 -0.007688 1.000000
tan -0.006696 0.998512 0.030752 1.000000
tan -0.924050 0.053568 -0.374977 1.000000
tan -0.998512 0.013392 -0.061504 1.000000
tan -0.004836 0.994792 0.046872 1.000000
tan -0.189038 0.937752 -0.294501 1.000000
tan 0.924050 0.054684 0.382789 1.000000
tan 0.998512 0.015066 0.069192 1.000000
tan -0.085932 0.993242 0.008184 1.000000
tan 0.003224 0.994792 -0.031248 1.000000
tan 0.181536 0.937752 0.294500 1.000000
tan -0.179676 0.948850 0.260028 1.000000
tan 0.078120 0.993242 -0.007440 1.000000
tan 0.178436 0.947610 -0.253457 1.000000
tan 0.917726 0.381177 -0.054684 1.000000
tan -0.917726 0.381177 0.054684 1.000000
tan 0.000000 -1.000000 0.000000 1.000000
tan 0.000000 -1.000000 0.000000 1.000000
tan 0.000000 -1.000000 0.000000 1.000000
tan 0.000000 -1.000000 0.000000 1.000000
f 3/3/3 2/2/2 1/1/1
f 3/3/3 1/1/1 4/4/4
f 5/5/5 3/3/3 4/4/4
f 6/6/6 5/5/5 4/4/4
f 6/6/6 7/7/7 5/5/5
f 8/8/8 5/5/5 7/7/7
f 8/8/8 7/7/7 9/9/9
f 7/7/7 10/10/10 9/9/9
f 11/11/11 9/9/9 10/10/10
f 9/9/9 11/11/11 12/12/12
f 11/11/11 13/13/13 12/12/12
f 14/14/14 12/12/12 13/13/13
f 13/13/13 15/15/15 14/14/14
f 16/16/16 14/14/14 15/15/15
f 15/15/15 17/17/17 16/16/16
f 18/18/18 16/16/16 17/17/17
f 17/17/17 19/19/19 18/18/18
f 20/20/20 18/18/18 19/19/19
f 19/19/19 21/21/21 20/20/20
f 22/22/22 20/20/20 21/21/21
f 22/22/22 21/21/21 23/23/23
f 24/24/24 23/23/23 21/21/21
f 23/23/23 24/24/24 25/25/25
f 26/26/26 25/25/25 24/24/24
f 29/29/29 28/28/28 27/27/27
f 30/30/30 27/27/27 28/28/28
f 28/28/28 31/31/31 30/30/30
f 32/32/32 30/30/30 31/31/31
f 31/31/31 33/33/33 32/32/32
f 32/32/32 33/33/33 34/34/34
f 33/33/33 35/35/35 34/34/34
f 36/36/36 34/34/34 35/35/35
f 36/36/36 35/35/35 37/37/37
f 35/35/35 38/38/38 37/37/37
f 37/37/37 38/38/38 39/39/39
f 40/40/40 39/39/39 38/38/38
f 41/41/41 39/39/39 40/40/40
f 42/42/42 41/41/41 40/40/40
f 41/41/41 42/42/42 43/43/43
f 42/42/42 44/44/44 43/43/43
f 43/43/43 44/44/44 45/45/45
f 44/44/44 46/46/46 45/45/45
f 45/45/45 46/46/46 47/47/47
f 46/46/46 48/48/48 47/47/47
f 48/48/48 49/49/49 47/47/47
f 50/50/50 47/47/47 49/49/49
f 50/50/50 49/49/49 51/51/51
f 52/52/52 51/51/51 49/49/49
f 55/55/55 54/54/54 53/53/53
f 56/56/56 53/53/53 54/54/54
f 56/56/56 54/54/54 57/57/57
f 57/57/57 58/58/58 56/56/56
f 58/58/58 57/57/57 59/59/59
f 57/57/57 60/60/60 59/59/59
f 59/59/59 60/60/60 61/61/61
f 62/62/62 61/61/61 60/60/60
f 63/63/63 61/61/61 62/62/62
f 60/60/60 57/57/57 64/64/64
f 65/65/65 63/63/63 62/62/62
f 65/65/65 66/66/66 63/63/63
f 62/62/62 60/60/60 67/67/67
f 65/65/65 62/62/62 67/67/67
f 67/67/67 60/60/60 64/64/64
f 66/66/66 65/65/65 68/68/68
f 67/67/67 68/68/68 65/65/65
f 68/68/68 69/69/69 66/66/66
f 70/70/70 66/66/66 69/69/69
f 71/71/71 69/69/69 68/68/68
f 72/72/72 70/70/70 69/69/69
f 73/73/73 71/71/71 68/68/68
f 67/67/67 73/73/73 68/68/68
f 73/73/73 67/67/67 64/64/64
f 74/74/74 70/70/70 72/72/72
f 75/75/75 70/70/70 74/74/74
f 64/64/64 76/76/76 73/73/73
f 64/64/64 77/77/77 76/76/76
f 77/77/77 64/64/64 57/57/57
f 78/78/78 76/76/76 77/77/77
f 57/57/57 79/79/79 77/77/77
f 78/78/78 77/77/77 80/80/80
f 81/81/81 80/80/80 77/77/77
f 81/81/81 77/77/77 79/79/79
f 80/80/80 81/81/81 82/82/82
f 83/83/83 82/82/82 81/81/81
f 84/84/84 81/81/81 79/79/79
f 85/85/85 84/84/84 79/79/79
f 87/87/87 84/84/84 86/86/86
f 89/89/89 88/88/88 85/85/85
f 86/86/86 84/84/84 90/90/90
f 84/84/84 85/85/85 90/90/90
f 91/91/91 86/86/86 90/90/90
f 92/92/92 85/85/85 88/88/88
f 92/92/92 90/90/90 85/85/85
f 93/93/93 92/92/92 88/88/88
f 90/90/90 94/94/94 91/91/91
f 95/95/95 91/91/91 94/94/94
f 92/92/92 96/96/96 90/90/90
f 94/94/94 90/90/90 96/96/96
f 93/93/93 96/96/96 92/92/92
f 94/94/94 96/96/96 95/95/95
f 96/96/96 93/93/93 97/97/97
f 97/97/97 95/95/95 96/96/96
f 97/97/97 98/98/98 95/95/95
f 99/99/99 95/95/95 98/98/98
f 97/97/97 100/100/100 98/98/98
f 103/103/103 102/102/102 101/101/101
f 101/101/101 104/104/104 103/103/103
f 104/104/104 105/105/105 103/103/103
f 106/106/106 103/103/103 105/105/105
f 105/105/105 107/107/107 106/106/106
f 107/107/107 105/105/105 108/108/108
f 108/108/108 109/109/109 107/107/107
f 106/106/106 107/107/107 110/110/110
f 111/111/111 106/106/106 110/110/110
f 111/111/111 110/110/110 112/112/112
f 113/113/113 107/107/107 109/109/109
f 107/107/107 113/113/113 110/110/110
f 110/110/110 114/114/114 112/112/112
f 114/114/114 110/110/110 113/113/113
f 114/114/114 115/115/115 112/112/112
f 115/115/115 114/114/114 113/113/113
f 116/116/116 112/112/112 115/115/115
f 113/113/113 109/109/109 117/117/117
f 113/113/113 117/117/117 115/115/115
f 118/118/118 117/117/117 109/109/109
f 115/115/115 119/119/119 116/116/116
f 119/119/119 115/115/115 117/117/117
f 120/120/120 116/116/116 119/119/119
f 119/119/119 121/121/121 120/120/120
f 117/117/117 118/118/118 122/122/122
f 117/117/117 122/122/122 119/119/119
f 118/118/118 123/123/123 122/122/122
f 123/123/123 124/124/124 122/122/122
f 126/126/126 121/121/121 125/125/125
f 127/127/127 125/125/125 121/121/121
f 121/121/121 119/119/119 127/127/127
f 119/119/119 122/122/122 127/127/127
f 128/128/128 122/122/122 124/124/124
f 128/128/128 124/124/124 129/129/129
f 124/124/124 130/130/130 129/129/129
f 131/131/131 127/127/127 122/122/122
f 131/131/131 132/132/132 127/127/127
f 133/133/133 127/127/127 132/132/132
f 135/135/135 134/134/134 132/132/132
f 136/136/136 132/132/132 134/134/134
f 132/132/132 136/136/136 133/133/133
f 137/137/137 136/136/136 134/134/134
f 139/139/139 133/133/133 138/138/138
f 140/140/140 136/136/136 137/137/137
f 141/141/141 138/138/138 133/133/133
f 141/141/141 133/133/133 136/136/136
f 136/136/136 140/140/140 141/141/141
f 138/138/138 141/141/141 142/142/142
f 140/140/140 137/137/137 143/143/143
f 144/144/144 142/142/142 141/141/141
f 144/144/144 141/141/141 140/140/140
f 145/145/145 142/142/142 144/144/144
f 145/145/145 144/144/144 140/140/140
f 140/140/140 143/143/143 145/145/145
f 146/146/146 145/145/145 143/143/143
f 143/143/143 147/147/147 146/146/146
f 150/150/150 149/149/149 148/148/148
f 151/151/151 150/150/150 148/148/148
