mtllib SM_Sticker_09.mtl
g SM_Sticker_09
#Vertices 16
#Indices 42
#Section 0 Offset 0 NumIndices 42 MaterialIndex 0 MI_Posters_01
v 0.050394 0.103126 -0.000000
v 0.074292 0.085462 -0.000000
v 0.068317 0.098450 -0.000000
v 0.061044 0.064941 -0.000000
v 0.036025 0.091961 -0.000000
v 0.063122 0.050134 -0.000000
v 0.015326 0.093255 -0.000000
v -0.021820 0.031691 -0.000000
v -0.014287 0.076110 -0.000000
v 0.001818 0.107542 -0.000000
v -0.017924 0.103905 -0.000000
v -0.023638 0.088319 -0.000000
v 0.018183 0.003637 -0.000000
v 0.000000 0.000000 0.000000
v 0.058447 0.016885 -0.000000
v 0.035587 -0.001299 0.000000
vt 0.910156 0.511230
vt 0.921875 0.502686
vt 0.918945 0.509033
vt 0.915527 0.492676
vt 0.903320 0.505859
vt 0.916504 0.485352
vt 0.893066 0.506348
vt 0.875000 0.476562
vt 0.878418 0.498047
vt 0.886230 0.513428
vt 0.876953 0.511719
vt 0.874023 0.504150
vt 0.894531 0.462891
vt 0.885742 0.460938
vt 0.914062 0.469238
vt 0.902832 0.460449
vt1 0.679199 0.858398
vt1 0.850586 0.731934
vt1 0.807617 0.824951
vt1 0.755859 0.584717
vt1 0.576660 0.778442
vt1 0.770508 0.479004
vt1 0.428223 0.787720
vt1 0.162109 0.346680
vt1 0.216064 0.664795
vt1 0.331299 0.890015
vt1 0.189941 0.864014
vt1 0.149048 0.752319
vt1 0.448730 0.145508
vt1 0.318359 0.119629
vt1 0.737305 0.240723
vt1 0.573242 0.110352
vn 0.000000 -0.000000 -1.000000
vn 0.000000 -0.000000 -1.000000
vn 0.000000 -0.000000 -1.000000
vn 0.000000 -0.000000 -1.000000
vn 0.000000 -0.000000 -1.000000
vn 0.000000 -0.000000 -1.000000
vn 0.000000 -0.000000 -1.000000
vn 0.000000 -0.000000 -1.000000
vn 0.000000 -0.000000 -1.000000
vn 0.000000 -0.000000 -1.000000
vn 0.000000 -0.000000 -1.000000
vn 0.000000 -0.000000 -1.000000
vn 0.000000 -0.000000 -1.000000
vn 0.000000 -0.000000 -1.000000
vn 0.000000 -0.000000 -1.000000
vn 0.000000 -0.000000 -1.000000
tan 0.000000 -1.000000 0.000000 1.000000
tan 0.000000 -1.000000 0.000000 1.000000
tan 0.000000 -1.000000 0.000000 1.000000
tan 0.000000 -1.000000 0.000000 1.000000
tan 0.000000 -1.000000 0.000000 1.000000
tan 0.000000 -1.000000 0.000000 1.000000
tan 0.000000 -1.000000 0.000000 1.000000
tan 0.000000 -1.000000 0.000000 1.000000
tan 0.000000 -1.000000 0.000000 1.000000
tan 0.000000 -1.000000 0.000000 1.000000
tan 0.000000 -1.000000 0.000000 1.000000
tan 0.000000 -1.000000 0.000000 1.000000
tan 0.000000 -1.000000 0.000000 1.000000
tan 0.000000 -1.000000 0.000000 1.000000
tan 0.000000 -1.000000 0.000000 1.000000
tan 0.000000 -1.000000 0.000000 1.000000
f 3/3/3 2/2/2 1/1/1
f 2/2/2 4/4/4 1/1/1
f 1/1/1 4/4/4 5/5/5
f 4/4/4 6/6/6 5/5/5
f 5/5/5 6/6/6 7/7/7
f 7/7/7 6/6/6 8/8/8
f 9/9/9 7/7/7 8/8/8
f 10/10/10 7/7/7 9/9/9
f 11/11/11 10/10/10 9/9/9
f 12/12/12 11/11/11 9/9/9
f 13/13/13 8/8/8 6/6/6
f 13/13/13 14/14/14 8/8/8
f 6/6/6 15/15/15 13/13/13
f 15/15/15 16/16/16 13/13/13
