mtllib SM_Sticker_16.mtl
g SM_Sticker_16
#Vertices 4
#Indices 6
#Section 0 Offset 0 NumIndices 6 MaterialIndex 0 MI_Posters_01
v 0.000885 0.120334 -0.000000
v 0.000000 0.000000 0.000000
v 0.199920 0.118375 -0.000000
v 0.199920 -0.002799 0.000000
vt 0.009804 0.067871
vt 0.009369 0.009277
vt 0.106934 0.066895
vt 0.106934 0.007812
vt1 0.113403 0.740234
vt1 0.109985 0.270996
vt1 0.889648 0.732666
vt1 0.889648 0.260254
vn 0.000000 -0.000000 -1.000000
vn 0.000000 -0.000000 -1.000000
vn 0.000000 -0.000000 -1.000000
vn 0.000000 -0.000000 -1.000000
tan 0.000000 -1.000000 0.000000 1.000000
tan 0.000000 -1.000000 0.000000 1.000000
tan 0.000000 -1.000000 0.000000 1.000000
tan 0.000000 -1.000000 0.000000 1.000000
f 3/3/3 2/2/2 1/1/1
f 4/4/4 2/2/2 3/3/3
