mtllib SM_Sticker_12.mtl
g SM_Sticker_12
#Vertices 4
#Indices 6
#Section 0 Offset 0 NumIndices 6 MaterialIndex 0 MI_Posters_01
v -0.000319 0.223341 -0.000000
v 0.000000 0.000000 0.000000
v 0.150488 0.222398 -0.000000
v 0.150401 0.000444 -0.000000
vt 0.326416 0.120117
vt 0.326660 0.011230
vt 0.400146 0.119629
vt 0.400146 0.011230
vt1 0.236572 0.890015
vt1 0.237671 0.110352
vt1 0.763184 0.886719
vt1 0.762695 0.111816
vn 0.000000 -0.000000 -1.000000
vn 0.000000 -0.000000 -1.000000
vn 0.000000 -0.000000 -1.000000
vn 0.000000 -0.000000 -1.000000
tan 0.000000 -1.000000 0.000000 1.000000
tan 0.000000 -1.000000 0.000000 1.000000
tan 0.000000 -1.000000 0.000000 1.000000
tan 0.000000 -1.000000 0.000000 1.000000
f 3/3/3 2/2/2 1/1/1
f 4/4/4 2/2/2 3/3/3
