mtllib SM_Sticker_28.mtl
g SM_Sticker_28
#Vertices 14
#Indices 36
#Section 0 Offset 0 NumIndices 36 MaterialIndex 0 MI_Posters_01
v 0.170656 0.100178 -0.000000
v 0.149702 0.123705 -0.000000
v 0.169545 0.067076 -0.000000
v 0.152487 0.050859 -0.000000
v 0.084952 0.139056 -0.000000
v 0.046417 0.137531 -0.000000
v 0.009919 0.123102 -0.000000
v 0.142046 0.029309 -0.000000
v -0.005914 0.082183 -0.000000
v -0.010646 0.010589 -0.000000
v 0.000000 0.000000 0.000000
v 0.120275 -0.012012 0.000000
v 0.172037 -0.004681 0.000000
v 0.174703 0.017535 -0.000000
vt 0.857422 0.128906
vt 0.847168 0.140625
vt 0.856934 0.112793
vt 0.848633 0.104980
vt 0.815918 0.147949
vt 0.796875 0.146973
vt 0.779297 0.140137
vt 0.843750 0.094238
vt 0.771484 0.120117
vt 0.769043 0.085449
vt 0.774414 0.080078
vt 0.833008 0.074219
vt 0.858398 0.077637
vt 0.859375 0.088379
vt1 0.872559 0.654297
vt1 0.784668 0.753296
vt1 0.868164 0.515137
vt1 0.796387 0.446777
vt1 0.512207 0.817871
vt1 0.350098 0.811523
vt1 0.196533 0.750732
vt1 0.752441 0.356445
vt1 0.129883 0.578613
vt1 0.109985 0.277344
vt1 0.154785 0.232910
vt1 0.660645 0.182617
vt1 0.878418 0.213379
vt1 0.889648 0.306641
vn 0.000000 -0.000000 -1.000000
vn 0.000000 -0.000000 -1.000000
vn 0.000000 -0.000000 -1.000000
vn 0.000000 -0.000000 -1.000000
vn 0.000000 -0.000000 -1.000000
vn 0.000000 -0.000000 -1.000000
vn 0.000000 -0.000000 -1.000000
vn 0.000000 -0.000000 -1.000000
vn 0.000000 -0.000000 -1.000000
vn 0.000000 -0.000000 -1.000000
vn 0.000000 -0.000000 -1.000000
vn 0.000000 -0.000000 -1.000000
vn 0.000000 -0.000000 -1.000000
vn 0.000000 -0.000000 -1.000000
tan 0.000000 -1.000000 0.000000 1.000000
tan 0.000000 -1.000000 0.000000 1.000000
tan 0.000000 -1.000000 0.000000 1.000000
tan 0.000000 -1.000000 0.000000 1.000000
tan 0.000000 -1.000000 0.000000 1.000000
tan 0.000000 -1.000000 0.000000 1.000000
tan 0.000000 -1.000000 0.000000 1.000000
tan 0.000000 -1.000000 0.000000 1.000000
tan 0.000000 -1.000000 0.000000 1.000000
tan 0.000000 -1.000000 0.000000 1.000000
tan 0.000000 -1.000000 0.000000 1.000000
tan 0.000000 -1.000000 0.000000 1.000000
tan 0.000000 -1.000000 0.000000 1.000000
tan 0.000000 -1.000000 0.000000 1.000000
f 3/3/3 2/2/2 1/1/1
f 3/3/3 4/4/4 2/2/2
f 5/5/5 2/2/2 4/4/4
f 5/5/5 4/4/4 6/6/6
f 7/7/7 6/6/6 4/4/4
f 8/8/8 7/7/7 4/4/4
f 8/8/8 9/9/9 7/7/7
f 8/8/8 10/10/10 9/9/9
f 8/8/8 11/11/11 10/10/10
f 8/8/8 12/12/12 11/11/11
f 12/12/12 8/8/8 13/13/13
f 14/14/14 13/13/13 8/8/8
