mtllib SM_Screen_01.mtl
g SM_Screen_01
#Vertices 140
#Indices 486
#Section 0 Offset 0 NumIndices 480 MaterialIndex 0 MI_Plastic_Glossy_01
#Section 1 Offset 480 NumIndices 6 MaterialIndex 1 MI_Screens_Emissive_03
v 1.191751 2.288100 -0.019929
v 0.015106 2.288100 -0.019929
v 0.015106 2.288100 -0.000000
v 1.191751 2.288100 -0.000000
v 0.000000 2.322435 -0.000001
v 1.206857 2.322435 -0.000001
v -0.001657 2.326435 -0.004001
v 1.208514 2.326435 -0.004001
v -0.001656 2.326435 -0.018524
v 1.208514 2.326435 -0.018524
v -0.003313 2.330435 -0.022524
v 1.210171 2.330435 -0.022524
v -0.030217 2.351606 -0.022524
v 1.237235 2.351606 -0.022524
v -0.031874 2.355606 -0.026524
v 1.238892 2.355606 -0.026524
v 1.238892 2.355606 -0.054368
v -0.031874 2.355606 -0.054368
v 1.237235 2.351606 -0.058368
v -0.030217 2.351606 -0.058368
v 1.226829 2.337249 -0.058368
v -0.019971 2.337249 -0.058368
v -0.017971 2.335249 -0.056368
v 1.224829 2.335249 -0.056368
v -0.017971 2.335249 -0.041291
v 1.224829 2.335249 -0.041291
v -0.017971 -0.012815 -0.041290
v 1.224830 -0.012815 -0.056367
v 1.224830 -0.012815 -0.041290
v -0.017971 -0.012815 -0.056367
v 1.226830 -0.014815 -0.058367
v -0.019971 -0.014815 -0.058367
v 1.237061 -0.029171 -0.058367
v -0.030482 -0.029171 -0.058367
v 1.238718 -0.033171 -0.054367
v -0.032138 -0.033171 -0.054367
v -0.032138 -0.033171 -0.026523
v 1.238718 -0.033171 -0.026523
v -0.030482 -0.029171 -0.022523
v 1.237061 -0.029171 -0.022523
v -0.003313 -0.008000 -0.022523
v 1.210171 -0.008000 -0.022523
v 1.208515 -0.004000 -0.018523
v -0.001656 -0.004000 -0.018523
v 1.208515 -0.004000 -0.004000
v -0.001657 -0.004000 -0.004000
v 1.206858 0.000000 0.000000
v 0.000000 0.000000 0.000000
v 1.191752 0.034337 0.000000
v 0.015106 0.034337 0.000000
v 0.015106 0.034337 -0.019928
v 1.191752 0.034337 -0.019928
v -0.017971 2.335249 -0.041291
v -0.017971 -0.012815 -0.056367
v -0.017971 -0.012815 -0.041290
v -0.017971 2.335249 -0.056368
v -0.019971 2.337249 -0.058368
v -0.019971 -0.014815 -0.058367
v -0.034327 -0.025316 -0.058367
v -0.030482 -0.029171 -0.058367
v -0.034327 2.348862 -0.058368
v -0.030217 2.351606 -0.058368
v -0.031874 2.355606 -0.054368
v -0.038327 -0.026973 -0.054367
v -0.032138 -0.033171 -0.054367
v -0.032138 -0.033171 -0.026523
v -0.038327 2.350519 -0.054368
v -0.031874 2.355606 -0.026524
v -0.038327 -0.026973 -0.026523
v -0.030482 -0.029171 -0.022523
v -0.038327 2.350519 -0.026524
v -0.034327 -0.025316 -0.022523
v -0.003313 -0.008000 -0.022523
v -0.034327 2.348862 -0.022524
v -0.030217 2.351606 -0.022524
v -0.013156 0.001843 -0.022523
v -0.001656 -0.004000 -0.018523
v -0.013156 2.320591 -0.022524
v -0.003313 2.330435 -0.022524
v -0.001656 2.326435 -0.018524
v -0.009156 0.003500 -0.018523
v -0.001657 -0.004000 -0.004000
v -0.009156 2.318935 -0.018524
v -0.001657 2.326435 -0.004001
v -0.009157 0.003500 -0.004000
v -0.009157 2.318935 -0.004001
v 0.000000 2.322435 -0.000001
v 0.000000 0.000000 0.000000
v -0.005157 2.317278 -0.000001
v 0.015106 2.288100 -0.000000
v -0.005157 0.005157 0.000000
v 0.015106 0.034337 0.000000
v 0.015106 0.034337 -0.019928
v 0.015106 2.288100 -0.019929
v 1.224829 2.335249 -0.041291
v 1.224830 -0.012815 -0.041290
v 1.224830 -0.012815 -0.056367
v 1.224829 2.335249 -0.056368
v 1.226829 2.337249 -0.058368
v 1.226830 -0.014815 -0.058367
v 1.241185 2.347553 -0.058368
v 1.237235 2.351606 -0.058368
v 1.241186 -0.025146 -0.058367
v 1.237061 -0.029171 -0.058367
v 1.238718 -0.033171 -0.054367
v 1.245185 2.349210 -0.054368
v 1.238892 2.355606 -0.054368
v 1.238892 2.355606 -0.026524
v 1.245186 -0.026803 -0.054367
v 1.245185 2.349210 -0.026524
v 1.237235 2.351606 -0.022524
v 1.245186 -0.026803 -0.026523
v 1.238718 -0.033171 -0.026523
v 1.241185 2.347553 -0.022524
v 1.210171 2.330435 -0.022524
v 1.241186 -0.025146 -0.022523
v 1.237061 -0.029171 -0.022523
v 1.220014 2.320591 -0.022524
v 1.220015 0.001843 -0.022523
v 1.210171 -0.008000 -0.022523
v 1.208515 -0.004000 -0.018523
v 1.216014 2.318935 -0.018524
v 1.208514 2.326435 -0.018524
v 1.208514 2.326435 -0.004001
v 1.216015 0.003500 -0.018523
v 1.216014 2.318935 -0.004001
v 1.206857 2.322435 -0.000001
v 1.216015 0.003500 -0.004000
v 1.208515 -0.004000 -0.004000
v 1.206858 0.000000 0.000000
v 1.212014 2.317278 -0.000001
v 1.191751 2.288100 -0.000000
v 1.212015 0.005157 0.000000
v 1.191752 0.034337 0.000000
v 1.191752 0.034337 -0.019928
v 1.191751 2.288100 -0.019929
v 1.224829 2.335249 -0.041291
v -0.017971 -0.012815 -0.041290
v 1.224830 -0.012815 -0.041290
v -0.017971 2.335249 -0.041291
vt 0.656250 0.762573
vt 0.656250 0.171387
vt 0.666016 0.171387
vt 0.666016 0.762573
vt 0.683105 0.163574
vt 0.683105 0.770142
vt 0.686035 0.163086
vt 0.686035 0.770996
vt 0.693359 0.163086
vt 0.693359 0.770996
vt 0.695801 0.162109
vt 0.695801 0.771851
vt 0.706055 0.148438
vt 0.706055 0.785400
vt 0.708984 0.147461
vt 0.708984 0.786255
vt 0.722656 0.786255
vt 0.722656 0.147461
vt 0.725586 0.785400
vt 0.725586 0.148438
vt 0.732422 0.780151
vt 0.732422 0.153809
vt 0.733887 0.154785
vt 0.733887 0.779175
vt 0.741699 0.154785
vt 0.741699 0.779175
vt 0.777832 0.147949
vt 0.785645 0.772217
vt 0.777832 0.772217
vt 0.785645 0.147949
vt 0.786621 0.773315
vt 0.786621 0.146973
vt 0.793945 0.778442
vt 0.793945 0.141602
vt 0.796875 0.779297
vt 0.796875 0.140625
vt 0.810547 0.140625
vt 0.810547 0.779297
vt 0.813477 0.141602
vt 0.813477 0.778442
vt 0.824219 0.155273
vt 0.824219 0.764893
vt 0.826660 0.764038
vt 0.826660 0.155762
vt 0.833984 0.764038
vt 0.833984 0.155762
vt 0.836914 0.763184
vt 0.836914 0.156738
vt 0.854004 0.755615
vt 0.854004 0.164551
vt 0.864258 0.164551
vt 0.864258 0.755615
vt 0.488525 1.091614
vt 0.480957 -0.087891
vt 0.488525 -0.087891
vt 0.480957 1.091614
vt 0.479736 1.092773
vt 0.479736 -0.088867
vt 0.472412 -0.094727
vt 0.473877 -0.096680
vt 0.472412 1.098511
vt 0.473877 1.100403
vt 0.470947 1.102783
vt 0.469971 -0.094727
vt 0.470703 -0.098633
vt 0.455811 -0.098633
vt 0.469971 1.099060
vt 0.455811 1.102783
vt 0.456543 -0.094727
vt 0.452637 -0.096680
vt 0.456543 1.099060
vt 0.454102 -0.094727
vt 0.438965 -0.086914
vt 0.454102 1.098572
vt 0.452637 1.100464
vt 0.442871 -0.081055
vt 0.437744 -0.084961
vt 0.442871 1.084412
vt 0.438965 1.090271
vt 0.437744 1.088867
vt 0.439697 -0.080078
vt 0.430664 -0.083984
vt 0.439697 1.083618
vt 0.430664 1.087708
vt 0.432373 -0.079102
vt 0.432373 1.083069
vt 0.427734 1.085510
vt 0.427734 -0.082031
vt 0.429932 1.082581
vt 0.419678 1.067993
vt 0.429932 -0.079102
vt 0.419678 -0.064453
vt 0.409668 -0.064453
vt 0.409668 1.067932
vt 0.536621 1.100342
vt 0.536621 -0.079102
vt 0.544434 -0.079102
vt 0.543945 1.100342
vt 0.545410 1.101501
vt 0.545410 -0.080078
vt 0.552734 1.106628
vt 0.551270 1.109009
vt 0.552734 -0.085938
vt 0.551270 -0.087891
vt 0.554199 -0.090820
vt 0.555176 1.107239
vt 0.554199 1.111389
vt 0.569336 1.111389
vt 0.555176 -0.085938
vt 0.568848 1.107239
vt 0.572754 1.109131
vt 0.568848 -0.085938
vt 0.569336 -0.090820
vt 0.571289 1.106689
vt 0.586426 1.099060
vt 0.571289 -0.085938
vt 0.572754 -0.087891
vt 0.582520 1.093201
vt 0.582520 -0.072266
vt 0.586426 -0.078125
vt 0.587402 -0.076172
vt 0.585449 1.092407
vt 0.587402 1.097595
vt 0.594727 1.096497
vt 0.585449 -0.071289
vt 0.592773 1.091858
vt 0.597656 1.094238
vt 0.592773 -0.070312
vt 0.594727 -0.075195
vt 0.597656 -0.073242
vt 0.595215 1.091309
vt 0.605469 1.076782
vt 0.595215 -0.070312
vt 0.605469 -0.055664
vt 0.615723 -0.055664
vt 0.615723 1.076721
vt 0.992676 0.030762
vt 0.007225 0.567871
vt 0.007225 0.030762
vt 0.992676 0.567871
vt1 0.834961 0.058594
vt1 0.834961 0.510742
vt1 0.827148 0.510742
vt1 0.827148 0.058594
vt1 0.813965 0.516602
vt1 0.813965 0.052734
vt1 0.812012 0.517334
vt1 0.812012 0.051758
vt1 0.806641 0.517334
vt1 0.806641 0.051758
vt1 0.804199 0.517822
vt1 0.804199 0.051270
vt1 0.796387 0.528320
vt1 0.796387 0.041016
vt1 0.794434 0.528809
vt1 0.794434 0.040039
vt1 0.783691 0.040039
vt1 0.783691 0.528809
vt1 0.781738 0.041016
vt1 0.781738 0.528320
vt1 0.776367 0.044922
vt1 0.776367 0.524414
vt1 0.775391 0.523438
vt1 0.775391 0.045410
vt1 0.769531 0.523438
vt1 0.769531 0.045410
vt1 0.877930 0.045898
vt1 0.883789 0.523438
vt1 0.877930 0.523438
vt1 0.883789 0.045898
vt1 0.884766 0.524170
vt1 0.884766 0.044922
vt1 0.890625 0.528320
vt1 0.890625 0.041016
vt1 0.892578 0.528809
vt1 0.892578 0.040039
vt1 0.903320 0.040039
vt1 0.903320 0.528809
vt1 0.905273 0.041016
vt1 0.905273 0.528320
vt1 0.913574 0.051270
vt1 0.913574 0.517822
vt1 0.915527 0.517334
vt1 0.915527 0.051758
vt1 0.921387 0.517334
vt1 0.921387 0.051758
vt1 0.923340 0.516602
vt1 0.923340 0.052734
vt1 0.936523 0.510742
vt1 0.936523 0.058594
vt1 0.944336 0.058594
vt1 0.944336 0.510742
vt1 0.100342 0.951477
vt1 0.094543 0.048828
vt1 0.100342 0.048828
vt1 0.094543 0.951477
vt1 0.093445 0.952332
vt1 0.093506 0.047852
vt1 0.088013 0.043945
vt1 0.089050 0.041992
vt1 0.087952 0.956757
vt1 0.089172 0.958160
vt1 0.086792 0.959991
vt1 0.086121 0.043457
vt1 0.086731 0.040039
vt1 0.075195 0.040039
vt1 0.086060 0.957153
vt1 0.075195 0.960022
vt1 0.075806 0.043457
vt1 0.072876 0.041992
vt1 0.075806 0.957153
vt1 0.073853 0.043945
vt1 0.062408 0.049805
vt1 0.073914 0.956787
vt1 0.072815 0.958252
vt1 0.065430 0.054199
vt1 0.061462 0.050781
vt1 0.065430 0.945953
vt1 0.062439 0.950439
vt1 0.061462 0.949341
vt1 0.062866 0.054688
vt1 0.056000 0.051758
vt1 0.062927 0.945374
vt1 0.056000 0.948486
vt1 0.057373 0.055176
vt1 0.057373 0.944946
vt1 0.053864 0.946777
vt1 0.053864 0.053223
vt1 0.055450 0.944550
vt1 0.047638 0.933411
vt1 0.055450 0.055664
vt1 0.047638 0.066895
vt1 0.039978 0.066895
vt1 0.039978 0.933350
vt1 0.139893 0.951477
vt1 0.139893 0.048828
vt1 0.145630 0.048828
vt1 0.145630 0.951477
vt1 0.146729 0.952332
vt1 0.146729 0.047852
vt1 0.152222 0.956238
vt1 0.151123 0.958099
vt1 0.152222 0.043945
vt1 0.151123 0.041992
vt1 0.153442 0.040039
vt1 0.154175 0.956726
vt1 0.153442 0.959900
vt1 0.165039 0.959900
vt1 0.154175 0.043457
vt1 0.164429 0.956726
vt1 0.167358 0.958160
vt1 0.164429 0.043457
vt1 0.165039 0.040039
vt1 0.166382 0.956268
vt1 0.177856 0.950439
vt1 0.166382 0.043945
vt1 0.167358 0.041992
vt1 0.174805 0.945953
vt1 0.174805 0.054199
vt1 0.177856 0.049805
vt1 0.178833 0.050781
vt1 0.177368 0.945374
vt1 0.178833 0.949341
vt1 0.184204 0.948486
vt1 0.177368 0.054688
vt1 0.182861 0.944946
vt1 0.186401 0.946777
vt1 0.182861 0.055176
vt1 0.184204 0.051758
vt1 0.186401 0.053223
vt1 0.184814 0.944550
vt1 0.192627 0.933411
vt1 0.184814 0.055664
vt1 0.192627 0.066895
vt1 0.200317 0.066895
vt1 0.200317 0.933350
vt1 0.726562 0.933716
vt1 0.239746 0.040039
vt1 0.726562 0.040039
vt1 0.239746 0.933716
vn -0.889764 -0.464567 0.000000
vn 0.889764 -0.464567 0.000000
vn 0.322835 -0.173228 0.929134
vn -0.330709 -0.173228 0.929134
vn 0.000000 0.157480 0.984252
vn 0.000000 0.157480 0.984252
vn -0.007874 0.984252 0.181102
vn 0.007874 0.984252 0.181102
vn -0.007874 0.968504 0.236220
vn 0.007874 0.968504 0.236220
vn 0.000000 0.086614 1.000000
vn 0.000000 0.086614 1.000000
vn 0.000000 0.330709 0.944882
vn 0.000000 0.322835 0.944882
vn 0.000000 0.992126 0.102362
vn 0.007874 0.992126 0.102362
vn 0.007874 0.992126 -0.102362
vn 0.000000 0.992126 -0.102362
vn 0.000000 0.330709 -0.944882
vn 0.000000 0.338583 -0.944882
vn -0.039370 -0.015748 -1.000000
vn 0.039370 -0.015748 -1.000000
vn 0.866142 -0.456693 -0.204724
vn -0.866142 -0.456693 -0.204724
vn 0.881890 -0.464567 0.000000
vn -0.881890 -0.464567 0.000000
vn 0.881890 0.464567 -0.000000
vn -0.866142 0.456693 -0.204724
vn -0.881890 0.464567 -0.000000
vn 0.866142 0.456693 -0.204724
vn -0.039370 0.023622 -1.000000
vn 0.039370 0.015748 -1.000000
vn 0.000000 -0.330709 -0.944882
vn 0.000000 -0.338583 -0.944882
vn 0.007874 -0.992126 -0.102362
vn -0.007874 -0.992126 -0.102362
vn -0.007874 -0.992126 0.102362
vn 0.007874 -0.992126 0.102362
vn 0.000000 -0.322834 0.944882
vn 0.000000 -0.330709 0.944882
vn 0.000000 -0.086614 1.000000
vn 0.000000 -0.086614 1.000000
vn 0.007874 -0.968504 0.236221
vn -0.007874 -0.968504 0.236221
vn 0.007874 -0.984252 0.181102
vn -0.007874 -0.984252 0.181102
vn 0.000000 -0.157480 0.984252
vn 0.000000 -0.157480 0.984252
vn -0.330709 0.173228 0.929134
vn 0.330709 0.173228 0.929134
vn 0.889764 0.464567 -0.000000
vn -0.889764 0.464567 -0.000000
vn 0.881890 -0.464567 0.000000
vn 0.866142 0.456693 -0.204724
vn 0.881890 0.464567 -0.000000
vn 0.866142 -0.456693 -0.204724
vn 0.039370 -0.015748 -1.000000
vn 0.039370 0.015748 -1.000000
vn -0.338583 -0.000000 -0.944882
vn 0.000000 -0.338583 -0.944882
vn -0.346457 -0.000000 -0.937008
vn 0.000000 0.338583 -0.944882
vn 0.000000 0.992126 -0.102362
vn -0.992126 -0.000000 -0.102362
vn -0.007874 -0.992126 -0.102362
vn -0.007874 -0.992126 0.102362
vn -0.992126 -0.000000 -0.102362
vn 0.000000 0.992126 0.102362
vn -0.992126 0.000000 0.102362
vn 0.000000 -0.322834 0.944882
vn -0.992126 0.000000 0.102362
vn -0.330709 0.000000 0.944882
vn 0.000000 -0.086614 1.000000
vn -0.330709 0.000000 0.944882
vn 0.000000 0.330709 0.944882
vn -0.086614 0.000000 0.992126
vn -0.007874 -0.968504 0.236221
vn -0.086614 0.000000 1.000000
vn 0.000000 0.086614 1.000000
vn -0.007874 0.968504 0.236220
vn -0.968504 0.000000 0.236220
vn -0.007874 -0.984252 0.181102
vn -0.968504 0.000000 0.236220
vn -0.007874 0.984252 0.181102
vn -0.984252 0.000000 0.181102
vn -0.984252 0.000000 0.181102
vn 0.000000 0.157480 0.984252
vn 0.000000 -0.157480 0.984252
vn -0.346457 0.000000 0.937008
vn 0.322835 -0.173228 0.929134
vn -0.354331 0.000000 0.937008
vn 0.330709 0.173228 0.929134
vn 0.889764 0.464567 -0.000000
vn 0.889764 -0.464567 0.000000
vn -0.881890 -0.464567 0.000000
vn -0.881890 0.464567 -0.000000
vn -0.866142 0.456693 -0.204724
vn -0.866142 -0.456693 -0.204724
vn -0.039370 -0.015748 -1.000000
vn -0.039370 0.023622 -1.000000
vn 0.330709 -0.000000 -0.944882
vn 0.000000 0.330709 -0.944882
vn 0.330709 -0.000000 -0.944882
vn 0.000000 -0.330709 -0.944882
vn 0.007874 -0.992126 -0.102362
vn 0.992126 -0.000000 -0.102362
vn 0.007874 0.992126 -0.102362
vn 0.007874 0.992126 0.102362
vn 0.992126 -0.000000 -0.102362
vn 0.992126 0.000000 0.102362
vn 0.000000 0.322835 0.944882
vn 0.992126 0.000000 0.102362
vn 0.007874 -0.992126 0.102362
vn 0.330709 0.000000 0.944882
vn 0.000000 0.086614 1.000000
vn 0.322835 0.000000 0.944882
vn 0.000000 -0.330709 0.944882
vn 0.086614 0.000000 0.992126
vn 0.086614 0.000000 1.000000
vn 0.000000 -0.086614 1.000000
vn 0.007874 -0.968504 0.236221
vn 0.968504 0.000000 0.236220
vn 0.007874 0.968504 0.236220
vn 0.007874 0.984252 0.181102
vn 0.968504 0.000000 0.236220
vn 0.984252 0.000000 0.181102
vn 0.000000 0.157480 0.984252
vn 0.984252 0.000000 0.181102
vn 0.007874 -0.984252 0.181102
vn 0.000000 -0.157480 0.984252
vn 0.346457 0.000000 0.937008
vn -0.330709 -0.173228 0.929134
vn 0.354331 0.000000 0.937008
vn -0.330709 0.173228 0.929134
vn -0.889764 0.464567 -0.000000
vn -0.889764 -0.464567 0.000000
vn 0.000000 -0.000000 -1.000000
vn 0.000000 -0.000000 -1.000000
vn 0.000000 -0.000000 -1.000000
vn 0.000000 -0.000000 -1.000000
tan -0.464567 0.889764 -0.000000 1.000000
tan -0.464567 -0.889764 0.000000 1.000000
tan -0.932110 -0.205406 0.285573 1.000000
tan -0.932110 0.207204 -0.293137 1.000000
tan -0.993552 0.000000 0.000000 1.000000
tan -0.993552 0.000000 0.000000 1.000000
tan -1.001550 -0.007750 -0.001426 1.000000
tan -1.001550 0.007750 0.001426 1.000000
tan -0.993800 -0.007626 -0.001860 1.000000
tan -0.993800 0.007626 0.001860 1.000000
tan -1.007502 0.000000 0.000000 1.000000
tan -1.007502 0.000000 0.000000 1.000000
tan -1.002170 0.000000 0.000000 1.000000
tan -0.997024 0.000000 0.000000 1.000000
tan -0.994792 0.000000 0.000000 1.000000
tan -0.994792 0.007812 0.000806 1.000000
tan -0.994792 0.007812 -0.000806 1.000000
tan -0.994792 0.000000 0.000000 1.000000
tan -1.002170 0.000000 0.000000 1.000000
tan -1.007440 0.000000 0.000000 1.000000
tan -1.000372 0.008804 0.039246 1.000000
tan -1.000372 -0.008804 -0.039246 1.000000
tan -0.502201 -0.781078 -0.382293 1.000000
tan -0.502201 0.781078 0.382293 1.000000
tan -0.464567 -0.881890 0.000000 1.000000
tan -0.464567 0.881890 -0.000000 1.000000
tan -0.464567 0.881890 -0.000000 1.000000
tan -0.502201 -0.781077 0.382293 1.000000
tan -0.464567 -0.881890 0.000000 1.000000
tan -0.502201 0.781077 -0.382293 1.000000
tan -1.000558 -0.008804 0.039184 1.000000
tan -1.000372 0.008804 -0.039246 1.000000
tan -1.002170 0.000000 0.000000 1.000000
tan -1.007440 0.000000 0.000000 1.000000
tan -0.994792 -0.007812 -0.000806 1.000000
tan -0.994792 0.007812 0.000806 1.000000
tan -0.994792 0.007812 -0.000806 1.000000
tan -0.994792 -0.007812 0.000806 1.000000
tan -0.997024 0.000000 0.000000 1.000000
tan -1.002170 0.000000 0.000000 1.000000
tan -1.007502 0.000000 0.000000 1.000000
tan -1.007502 0.000000 0.000000 1.000000
tan -0.993800 -0.007626 0.001860 1.000000
tan -0.993800 0.007626 -0.001860 1.000000
tan -1.001550 -0.007750 0.001426 1.000000
tan -1.001550 0.007750 -0.001426 1.000000
tan -0.993552 0.000000 0.000000 1.000000
tan -0.993552 0.000000 0.000000 1.000000
tan -0.932110 -0.207204 -0.293137 1.000000
tan -0.932110 0.207204 0.293137 1.000000
tan -0.464567 0.889764 -0.000000 1.000000
tan -0.464567 -0.889764 0.000000 1.000000
tan -0.464567 -0.881890 0.000000 1.000000
tan 0.402505 -0.879658 -0.259408 1.000000
tan 0.464567 -0.881890 0.000000 1.000000
tan -0.402505 -0.879658 0.259409 1.000000
tan 0.007254 -1.001550 0.016058 1.000000
tan -0.015128 -1.001550 -0.016368 1.000000
tan 0.074400 -1.000000 -0.026660 1.000000
tan 0.220100 -0.922562 0.330585 1.000000
tan -0.095914 -0.998016 0.035464 1.000000
tan -0.185008 -0.930002 -0.333251 1.000000
tan -0.868188 -0.049972 -0.484345 1.000000
tan 0.004836 -0.994792 -0.046872 1.000000
tan 0.883812 -0.054498 0.460227 1.000000
tan 0.884618 -0.053692 -0.452353 1.000000
tan -0.008060 -0.994792 0.078120 1.000000
tan -0.876000 -0.049166 0.476533 1.000000
tan 0.005642 -0.994792 0.054684 1.000000
tan 0.233740 -0.922562 -0.315208 1.000000
tan -0.008866 -0.994792 -0.085932 1.000000
tan 0.089280 -0.994730 0.031248 1.000000
tan 0.246140 -0.968504 -0.083886 1.000000
tan -0.119040 -0.994730 -0.041664 1.000000
tan -0.209436 -0.922562 0.322897 1.000000
tan 0.054684 -0.991816 0.004774 1.000000
tan 0.881456 -0.116498 -0.448261 1.000000
tan -0.055118 -0.999628 -0.004774 1.000000
tan -0.246140 -0.968504 0.083886 1.000000
tan -0.881456 -0.116498 0.448261 1.000000
tan -0.003720 -0.993800 -0.015252 1.000000
tan 0.881022 -0.093806 -0.471511 1.000000
tan 0.001860 -0.993800 0.007626 1.000000
tan -0.881022 -0.093806 0.471511 1.000000
tan 0.002852 -1.001550 0.015500 1.000000
tan -0.004278 -1.001550 -0.023250 1.000000
tan -0.150970 -0.976502 0.156240 1.000000
tan 0.150970 -0.968752 -0.155000 1.000000
tan -0.088536 -0.990638 -0.032736 1.000000
tan -0.147808 -0.982454 -0.131812 1.000000
tan 0.088536 -0.996156 0.033480 1.000000
tan 0.141856 -0.980470 0.132308 1.000000
tan 0.464567 -0.889764 0.007006 1.000000
tan -0.464567 -0.889764 -0.007006 1.000000
tan 0.464567 -0.881890 0.000000 1.000000
tan -0.464567 -0.881890 0.000000 1.000000
tan -0.402505 -0.879658 -0.259408 1.000000
tan 0.402505 -0.879658 0.259409 1.000000
tan -0.015128 -1.001550 0.016368 1.000000
tan 0.006944 -1.001550 -0.023932 1.000000
tan 0.074400 -0.994730 0.026040 1.000000
tan 0.216876 -0.922562 -0.322896 1.000000
tan -0.074400 -0.994730 -0.026040 1.000000
tan -0.174468 -0.930002 0.325501 1.000000
tan -0.884618 -0.054498 0.460165 1.000000
tan 0.004836 -0.994792 0.046872 1.000000
tan 0.884618 -0.053692 -0.452353 1.000000
tan 0.892430 -0.053754 0.452353 1.000000
tan -0.007254 -0.994792 -0.070308 1.000000
tan 0.006448 -0.994792 -0.062496 1.000000
tan 0.233740 -0.915122 0.312667 1.000000
tan -0.008060 -0.994792 0.078120 1.000000
tan -0.892430 -0.053754 -0.452353 1.000000
tan 0.096720 -0.992126 -0.033852 1.000000
tan 0.238266 -0.968504 0.083886 1.000000
tan -0.096720 -0.989584 0.033046 1.000000
tan -0.199392 -0.922562 -0.322896 1.000000
tan 0.039060 -0.991816 -0.003410 1.000000
tan -0.062992 -0.999628 0.005456 1.000000
tan -0.246140 -0.968504 -0.083886 1.000000
tan -0.889082 -0.112840 -0.433009 1.000000
tan 0.000000 -0.993800 0.000000 1.000000
tan 0.904334 -0.105524 0.402505 1.000000
tan 0.881022 -0.093806 0.471511 1.000000
tan 0.000000 -0.993800 0.000000 1.000000
tan 0.004278 -1.001550 -0.023250 1.000000
tan 0.150970 -0.968752 0.155000 1.000000
tan -0.001426 -1.001550 0.007750 1.000000
tan -0.865522 -0.097960 -0.494761 1.000000
tan -0.150970 -0.976502 -0.156240 1.000000
tan 0.088536 -0.990638 -0.032736 1.000000
tan 0.147808 -0.985182 -0.131068 1.000000
tan -0.088536 -0.996156 0.033480 1.000000
tan -0.140492 -0.977866 0.132308 1.000000
tan -0.464567 -0.889764 0.007006 1.000000
tan 0.464567 -0.889764 -0.007006 1.000000
tan 1.000000 0.000000 0.000000 1.000000
tan 1.000000 0.000000 0.000000 1.000000
tan 1.000000 0.000000 0.000000 1.000000
tan 1.000000 0.000000 0.000000 1.000000
f 3/3/3 2/2/2 1/1/1
f 4/4/4 3/3/3 1/1/1
f 3/3/3 4/4/4 5/5/5
f 6/6/6 5/5/5 4/4/4
f 5/5/5 6/6/6 7/7/7
f 6/6/6 8/8/8 7/7/7
f 7/7/7 8/8/8 9/9/9
f 10/10/10 9/9/9 8/8/8
f 9/9/9 10/10/10 11/11/11
f 12/12/12 11/11/11 10/10/10
f 11/11/11 12/12/12 13/13/13
f 12/12/12 14/14/14 13/13/13
f 13/13/13 14/14/14 15/15/15
f 14/14/14 16/16/16 15/15/15
f 16/16/16 17/17/17 15/15/15
f 18/18/18 15/15/15 17/17/17
f 17/17/17 19/19/19 18/18/18
f 20/20/20 18/18/18 19/19/19
f 21/21/21 20/20/20 19/19/19
f 22/22/22 20/20/20 21/21/21
f 23/23/23 22/22/22 21/21/21
f 24/24/24 23/23/23 21/21/21
f 25/25/25 23/23/23 24/24/24
f 26/26/26 25/25/25 24/24/24
f 29/29/29 28/28/28 27/27/27
f 30/30/30 27/27/27 28/28/28
f 28/28/28 31/31/31 30/30/30
f 32/32/32 30/30/30 31/31/31
f 31/31/31 33/33/33 32/32/32
f 34/34/34 32/32/32 33/33/33
f 33/33/33 35/35/35 34/34/34
f 36/36/36 34/34/34 35/35/35
f 37/37/37 36/36/36 35/35/35
f 38/38/38 37/37/37 35/35/35
f 37/37/37 38/38/38 39/39/39
f 38/38/38 40/40/40 39/39/39
f 41/41/41 39/39/39 40/40/40
f 42/42/42 41/41/41 40/40/40
f 42/42/42 43/43/43 41/41/41
f 44/44/44 41/41/41 43/43/43
f 43/43/43 45/45/45 44/44/44
f 46/46/46 44/44/44 45/45/45
f 45/45/45 47/47/47 46/46/46
f 48/48/48 46/46/46 47/47/47
f 47/47/47 49/49/49 48/48/48
f 50/50/50 48/48/48 49/49/49
f 51/51/51 50/50/50 49/49/49
f 52/52/52 51/51/51 49/49/49
f 55/55/55 54/54/54 53/53/53
f 56/56/56 53/53/53 54/54/54
f 56/56/56 54/54/54 57/57/57
f 54/54/54 58/58/58 57/57/57
f 58/58/58 59/59/59 57/57/57
f 59/59/59 58/58/58 60/60/60
f 57/57/57 59/59/59 61/61/61
f 62/62/62 57/57/57 61/61/61
f 62/62/62 61/61/61 63/63/63
f 59/59/59 60/60/60 64/64/64
f 65/65/65 64/64/64 60/60/60
f 65/65/65 66/66/66 64/64/64
f 61/61/61 59/59/59 67/67/67
f 67/67/67 63/63/63 61/61/61
f 59/59/59 64/64/64 67/67/67
f 63/63/63 67/67/67 68/68/68
f 66/66/66 69/69/69 64/64/64
f 66/66/66 70/70/70 69/69/69
f 71/71/71 67/67/67 64/64/64
f 64/64/64 69/69/69 71/71/71
f 71/71/71 68/68/68 67/67/67
f 72/72/72 69/69/69 70/70/70
f 69/69/69 72/72/72 71/71/71
f 72/72/72 70/70/70 73/73/73
f 71/71/71 74/74/74 68/68/68
f 74/74/74 71/71/71 72/72/72
f 75/75/75 68/68/68 74/74/74
f 73/73/73 76/76/76 72/72/72
f 73/73/73 77/77/77 76/76/76
f 78/78/78 74/74/74 72/72/72
f 75/75/75 74/74/74 78/78/78
f 76/76/76 78/78/78 72/72/72
f 79/79/79 75/75/75 78/78/78
f 79/79/79 78/78/78 80/80/80
f 81/81/81 76/76/76 77/77/77
f 76/76/76 81/81/81 78/78/78
f 81/81/81 77/77/77 82/82/82
f 83/83/83 80/80/80 78/78/78
f 83/83/83 78/78/78 81/81/81
f 80/80/80 83/83/83 84/84/84
f 82/82/82 85/85/85 81/81/81
f 86/86/86 84/84/84 83/83/83
f 86/86/86 83/83/83 81/81/81
f 81/81/81 85/85/85 86/86/86
f 87/87/87 84/84/84 86/86/86
f 82/82/82 88/88/88 85/85/85
f 86/86/86 89/89/89 87/87/87
f 89/89/89 86/86/86 85/85/85
f 89/89/89 90/90/90 87/87/87
f 91/91/91 85/85/85 88/88/88
f 91/91/91 89/89/89 85/85/85
f 88/88/88 92/92/92 91/91/91
f 91/91/91 92/92/92 89/89/89
f 90/90/90 89/89/89 92/92/92
f 92/92/92 93/93/93 90/90/90
f 94/94/94 90/90/90 93/93/93
f 97/97/97 96/96/96 95/95/95
f 95/95/95 98/98/98 97/97/97
f 98/98/98 99/99/99 97/97/97
f 100/100/100 97/97/97 99/99/99
f 99/99/99 101/101/101 100/100/100
f 101/101/101 99/99/99 102/102/102
f 103/103/103 100/100/100 101/101/101
f 104/104/104 100/100/100 103/103/103
f 104/104/104 103/103/103 105/105/105
f 106/106/106 101/101/101 102/102/102
f 102/102/102 107/107/107 106/106/106
f 106/106/106 107/107/107 108/108/108
f 103/103/103 101/101/101 109/109/109
f 101/101/101 106/106/106 109/109/109
f 103/103/103 109/109/109 105/105/105
f 110/110/110 106/106/106 108/108/108
f 106/106/106 110/110/110 109/109/109
f 108/108/108 111/111/111 110/110/110
f 105/105/105 109/109/109 112/112/112
f 112/112/112 109/109/109 110/110/110
f 112/112/112 113/113/113 105/105/105
f 114/114/114 110/110/110 111/111/111
f 110/110/110 114/114/114 112/112/112
f 111/111/111 115/115/115 114/114/114
f 116/116/116 113/113/113 112/112/112
f 116/116/116 112/112/112 114/114/114
f 117/117/117 113/113/113 116/116/116
f 118/118/118 114/114/114 115/115/115
f 116/116/116 119/119/119 117/117/117
f 119/119/119 116/116/116 114/114/114
f 118/118/118 119/119/119 114/114/114
f 119/119/119 120/120/120 117/117/117
f 121/121/121 120/120/120 119/119/119
f 118/118/118 115/115/115 122/122/122
f 115/115/115 123/123/123 122/122/122
f 123/123/123 124/124/124 122/122/122
f 125/125/125 119/119/119 118/118/118
f 122/122/122 125/125/125 118/118/118
f 125/125/125 121/121/121 119/119/119
f 126/126/126 122/122/122 124/124/124
f 122/122/122 126/126/126 125/125/125
f 124/124/124 127/127/127 126/126/126
f 121/121/121 125/125/125 128/128/128
f 128/128/128 125/125/125 126/126/126
f 128/128/128 129/129/129 121/121/121
f 129/129/129 128/128/128 130/130/130
f 131/131/131 126/126/126 127/127/127
f 126/126/126 131/131/131 128/128/128
f 127/127/127 132/132/132 131/131/131
f 133/133/133 130/130/130 128/128/128
f 133/133/133 128/128/128 131/131/131
f 133/133/133 134/134/134 130/130/130
f 133/133/133 131/131/131 134/134/134
f 132/132/132 134/134/134 131/131/131
f 134/134/134 132/132/132 135/135/135
f 136/136/136 135/135/135 132/132/132
f 139/139/139 138/138/138 137/137/137
f 140/140/140 137/137/137 138/138/138
