mtllib SM_Sticker_01.mtl
g SM_Sticker_01
#Vertices 4
#Indices 6
#Section 0 Offset 0 NumIndices 6 MaterialIndex 0 MI_Posters_01
v 0.000297 0.117023 -0.000000
v 0.159056 0.001311 -0.000000
v 0.159381 0.117517 -0.000000
v 0.000000 0.000000 -0.000000
vt 0.918457 0.796753
vt 0.995605 0.740234
vt 0.996094 0.796997
vt 0.917969 0.739502
vt1 0.111450 0.785156
vt1 0.888184 0.219238
vt1 0.889648 0.787598
vt1 0.109985 0.212891
vn 0.000000 -0.000000 -1.000000
vn 0.000000 -0.000000 -1.000000
vn 0.000000 -0.000000 -1.000000
vn 0.000000 -0.000000 -1.000000
tan 0.000000 -1.000000 0.000000 1.000000
tan 0.000000 -1.000000 0.000000 1.000000
tan 0.000000 -1.000000 0.000000 1.000000
tan 0.000000 -1.000000 0.000000 1.000000
f 3/3/3 2/2/2 1/1/1
f 4/4/4 1/1/1 2/2/2
