mtllib SM_Trash_Bags_02_LOD2.mtl
g SM_Trash_Bags_02_LOD2
#Vertices 356
#Indices 1965
#Section 0 Offset 0 NumIndices 1965 MaterialIndex 0 MI_Trash_Bag
v -0.032395 0.424015 0.100899
v -0.042113 0.424692 0.110352
v -0.045817 0.421252 0.100792
v -0.035615 0.420533 0.082354
v -0.021704 0.418045 0.099182
v 0.008597 0.419107 0.105815
v 0.002144 0.417529 0.119365
v 0.002592 0.428191 0.084890
v -0.017906 0.424045 0.042064
v -0.010598 0.428730 0.042598
v -0.005183 0.429559 0.045202
v 0.014066 0.409625 0.131449
v 0.031728 0.431238 0.034103
v 0.006258 0.427784 0.030186
v 0.026467 0.426257 0.111036
v 0.051078 0.425774 0.079387
v 0.040986 0.425823 0.149005
v 0.010882 0.395509 0.167298
v -0.021704 0.418045 0.099182
v -0.032395 0.424015 0.100899
v 0.065632 0.432118 0.104301
v -0.055757 0.420697 0.128725
v -0.042113 0.424692 0.110352
v -0.045817 0.421252 0.100792
v 0.111172 0.427099 0.131379
v -0.064189 0.415311 0.131534
v 0.095201 0.432092 0.154725
v -0.041032 0.418352 0.106580
v -0.035615 0.420533 0.082354
v 0.092287 0.413311 0.178343
v -0.061266 0.418490 0.115387
v -0.026494 0.428815 0.047437
v -0.017906 0.424045 0.042064
v -0.064382 0.422166 0.089241
v -0.097877 0.420513 0.096758
v -0.082359 0.382543 0.171939
v -0.074997 0.426893 0.074702
v -0.024376 0.427067 0.039547
v -0.112691 0.378939 0.160440
v -0.073892 0.425117 0.062235
v -0.068962 0.406681 0.156989
v -0.044502 0.392683 0.168999
v -0.110168 0.409499 0.097817
v -0.042958 0.428260 0.041237
v -0.018357 0.428657 0.033810
v -0.107272 0.420886 0.062830
v -0.037104 0.428830 0.025092
v -0.013016 0.427301 0.020326
v -0.029756 0.423764 -0.002951
v -0.084145 0.428084 0.053923
v -0.050554 0.430540 0.022180
v -0.060583 0.425369 0.049430
v -0.100839 0.418932 0.051671
v -0.071677 0.425270 0.047360
v -0.053260 0.428271 0.012119
v -0.089812 0.429032 0.017408
v -0.079155 0.415371 -0.015193
v -0.079061 0.410235 -0.035590
v -0.072988 0.400785 -0.047453
v -0.093214 0.390044 -0.063937
v -0.136152 0.396696 -0.064049
v -0.114975 0.369419 -0.092095
v -0.110885 0.417627 0.015654
v -0.158757 0.359149 -0.093079
v -0.135576 0.294081 -0.137669
v -0.120307 0.406663 -0.004479
v -0.160016 0.393412 -0.037499
v -0.194839 0.341899 -0.049036
v -0.192722 0.372757 -0.006357
v -0.187299 0.264477 -0.109192
v -0.152716 0.159947 -0.186084
v -0.209074 0.353867 -0.007171
v -0.230765 0.264247 -0.051869
v -0.223621 0.193851 -0.102930
v -0.205963 0.363773 0.008922
v -0.099758 0.424211 0.028704
v -0.249126 0.228290 -0.034457
v -0.099320 0.422140 0.037479
v -0.137956 0.416635 0.035268
v -0.161885 0.395274 0.038851
v -0.181852 0.384801 0.071342
v -0.186915 0.394191 0.030720
v -0.209344 0.375052 0.031668
v -0.198351 0.382618 0.038940
v -0.208444 0.361646 0.082443
v -0.198049 0.366873 0.105174
v -0.216222 0.332784 0.104580
v -0.152427 0.387889 0.116617
v -0.197828 0.361556 0.133596
v -0.215160 0.333312 0.139586
v -0.245964 0.239516 0.050655
v -0.176557 0.373773 0.136643
v -0.132098 0.383731 0.134815
v -0.186270 0.346429 0.151985
v -0.203847 0.345944 0.151561
v -0.203905 0.279885 0.168111
v -0.220512 0.284287 0.151427
v -0.231917 0.174467 0.103130
v -0.211959 0.213531 0.154145
v -0.249153 0.187053 0.029938
v -0.243815 0.146702 -0.035622
v -0.219007 0.093382 0.048950
v -0.224064 0.130627 -0.086879
v -0.147587 0.114911 -0.187334
v -0.157065 0.087981 -0.157542
v -0.207001 0.063192 0.008565
v -0.172857 0.071737 -0.112271
v -0.142895 0.059662 -0.141967
v -0.141360 0.029682 -0.116694
v -0.135961 0.011513 -0.100409
v -0.164277 0.042085 -0.055451
v -0.126007 0.000323 -0.037736
v -0.110182 0.000246 -0.102282
v -0.167587 0.034920 -0.024806
v -0.168379 0.023987 -0.003089
v -0.139108 0.007496 -0.002024
v -0.200539 0.057799 0.027951
v -0.105067 -0.003484 0.001889
v -0.141825 0.007513 0.013922
v -0.184735 0.063895 0.063724
v -0.172290 0.044272 0.039751
v -0.159445 0.038374 0.053480
v -0.157288 0.041527 0.074550
v -0.124085 -0.000462 0.026165
v -0.108410 0.000571 0.044529
v -0.177286 0.077622 0.106031
v -0.132282 0.052662 0.094835
v -0.084486 0.007993 0.049033
v -0.202644 0.145078 0.142647
v -0.163642 0.105599 0.176017
v -0.153217 0.079988 0.146151
v -0.094814 0.036570 0.085357
v -0.065066 0.016704 0.051973
v -0.079720 0.039572 0.114525
v -0.052736 0.002668 0.009213
v -0.017992 0.014218 0.063368
v -0.084244 0.077337 0.192123
v -0.030827 0.002800 -0.027014
v -0.114184 0.117003 0.223119
v -0.087773 0.000926 -0.063826
v -0.063120 0.009278 -0.084743
v 0.039923 0.003762 -0.004885
v -0.048399 0.026583 -0.118139
v 0.027720 0.019852 -0.104240
v -0.106252 0.021486 -0.121605
v -0.135961 0.011513 -0.100409
v -0.141360 0.029682 -0.116694
v -0.142895 0.059662 -0.141967
v -0.113877 0.069815 -0.166253
v -0.157065 0.087981 -0.157542
v -0.083514 0.045725 -0.150603
v -0.060205 0.069595 -0.229343
v -0.048542 0.044050 -0.180855
v 0.006622 0.040885 -0.163671
v -0.015521 0.061646 -0.225340
v -0.101749 0.105217 -0.226792
v -0.147587 0.114911 -0.187334
v -0.011330 0.077798 -0.236046
v -0.098920 0.133882 -0.228913
v -0.152716 0.159947 -0.186084
v -0.041972 0.091058 -0.245547
v -0.094062 0.245739 -0.209363
v -0.135576 0.294081 -0.137669
v -0.034425 0.197965 -0.224604
v -0.089858 0.326587 -0.148866
v -0.114975 0.369419 -0.092095
v -0.042787 0.277516 -0.200551
v 0.003605 0.152328 -0.230033
v 0.025355 0.116428 -0.226274
v 0.095107 0.176017 -0.220465
v 0.034414 0.221955 -0.220938
v 0.036301 0.091620 -0.211314
v 0.012198 0.057327 -0.190906
v 0.094447 0.097090 -0.191096
v 0.115833 0.132277 -0.205558
v 0.094991 0.073618 -0.167931
v 0.045153 0.055117 -0.169177
v 0.109369 0.055484 -0.125596
v 0.085357 0.029979 -0.103814
v 0.122609 0.104507 -0.170179
v 0.099374 0.031179 -0.056961
v 0.095577 0.012599 -0.001896
v 0.142775 0.125615 -0.194769
v 0.147200 0.089861 -0.154680
v 0.133686 0.178004 -0.203318
v 0.157427 0.118537 -0.183693
v 0.082621 0.278986 -0.208099
v 0.168687 0.184254 -0.164882
v 0.035777 0.310152 -0.196608
v 0.112995 0.291636 -0.185364
v 0.070525 0.343575 -0.177942
v -0.005633 0.332236 -0.157258
v 0.017604 0.353585 -0.150262
v -0.026507 0.354405 -0.125702
v -0.005432 0.346821 -0.138162
v -0.064694 0.369004 -0.098419
v 0.001867 0.372277 -0.122714
v -0.028940 0.379686 -0.095443
v -0.068076 0.394185 -0.080555
v -0.093214 0.390044 -0.063937
v -0.072988 0.400785 -0.047453
v -0.036041 0.396663 -0.062082
v -0.010036 0.398546 -0.060638
v -0.029037 0.413997 -0.031312
v -0.029756 0.423764 -0.002951
v -0.013016 0.427301 0.020326
v -0.007958 0.409895 -0.028148
v 0.017136 0.376087 -0.097605
v 0.013923 0.411027 -0.026598
v 0.006561 0.406757 -0.039405
v 0.043380 0.377124 -0.116394
v 0.031353 0.389231 -0.081704
v 0.020947 0.426010 0.012532
v 0.035714 0.419216 -0.016670
v 0.034584 0.410506 -0.044036
v 0.051056 0.396201 -0.077535
v 0.043005 0.410557 -0.037408
v 0.074481 0.376435 -0.093081
v 0.053818 0.395109 -0.059591
v 0.053662 0.410162 -0.026827
v 0.098726 0.382200 -0.087055
v 0.092874 0.404255 -0.058922
v 0.057570 0.421913 -0.020716
v 0.084114 0.356757 -0.139156
v 0.102566 0.356932 -0.111315
v 0.112631 0.329369 -0.151335
v 0.121521 0.347411 -0.119995
v 0.142334 0.329083 -0.114970
v 0.123409 0.376668 -0.096489
v 0.138043 0.381136 -0.082091
v 0.129543 0.400207 -0.062898
v 0.189029 0.268630 -0.077810
v 0.120095 0.403309 -0.043760
v 0.151309 0.367344 -0.057564
v 0.196507 0.150275 -0.138363
v 0.208201 0.261756 -0.020556
v 0.187998 0.114291 -0.131214
v 0.219441 0.180071 -0.071428
v 0.216168 0.116309 -0.051469
v 0.163043 0.082732 -0.118440
v 0.239273 0.145849 -0.017662
v 0.126660 0.045914 -0.057130
v 0.228509 0.191504 0.010876
v 0.127296 0.018162 -0.000885
v 0.141419 0.056773 -0.065145
v 0.184891 0.093408 -0.072592
v 0.137754 0.044332 -0.048815
v 0.148127 0.057673 -0.053983
v 0.139907 0.038266 -0.030934
v 0.198638 0.077476 -0.034585
v 0.151810 0.024704 0.006908
v 0.231412 0.100975 -0.024989
v 0.172257 0.045985 -0.009275
v 0.240490 0.079500 0.028786
v 0.249759 0.124319 0.021428
v 0.207557 0.065045 0.046979
v 0.212180 0.205898 0.134887
v 0.242484 0.110062 0.064690
v 0.215343 0.096262 0.110851
v 0.218269 0.162252 0.150562
v 0.198419 0.303885 0.050428
v 0.186519 0.222709 0.203582
v 0.163390 0.359740 -0.030425
v 0.155057 0.313129 0.186619
v 0.167361 0.377920 0.047749
v 0.190957 0.149546 0.201051
v 0.134534 0.404501 0.151244
v 0.129179 0.414938 0.017884
v 0.139533 0.405876 0.107292
v 0.124034 0.413058 0.100171
v 0.122883 0.405719 0.176737
v 0.090211 0.424669 0.052075
v 0.105721 0.423441 0.027619
v 0.076863 0.426372 0.022915
v 0.112252 0.408001 -0.001244
v 0.083019 0.415940 -0.022728
v 0.091530 0.416381 0.005866
v 0.096736 0.361719 0.210135
v 0.040239 0.374182 0.193886
v 0.149328 0.243896 0.232358
v 0.088519 0.311444 0.224365
v 0.018653 0.369595 0.189939
v 0.112092 0.220009 0.247395
v 0.146291 0.169767 0.244662
v 0.053070 0.284946 0.232201
v 0.155977 0.116786 0.211122
v 0.099069 0.168988 0.254908
v 0.111272 0.114134 0.228606
v 0.179193 0.070885 0.129580
v 0.118791 0.028255 0.114454
v 0.158322 0.063293 0.138626
v 0.187052 0.053331 0.082739
v 0.169718 0.017936 0.076299
v 0.168484 0.031211 0.047286
v 0.144895 0.001711 0.050383
v 0.148612 0.011684 0.081459
v 0.104370 0.004409 0.060120
v 0.067123 0.003469 0.058143
v 0.069511 0.026100 0.128179
v 0.033626 0.002043 0.092748
v 0.029039 0.105228 0.224067
v 0.003384 0.025161 0.100370
v 0.039139 0.031434 0.132915
v -0.010591 0.081455 0.198681
v -0.052893 0.100283 0.223200
v 0.020868 0.140286 0.240954
v -0.063161 0.140230 0.240166
v 0.020355 0.194119 0.238275
v -0.036565 0.184824 0.236980
v 0.054514 0.207772 0.239587
v 0.027260 0.304970 0.207567
v 0.003559 0.305257 0.201523
v -0.011704 0.242551 0.228828
v -0.022296 0.307116 0.203043
v -0.063516 0.355259 0.185454
v -0.033821 0.259354 0.213009
v -0.067715 0.277120 0.204195
v -0.090853 0.349544 0.190306
v -0.075928 0.202765 0.230351
v -0.085155 0.234124 0.222981
v -0.109426 0.207512 0.237610
v -0.100110 0.273244 0.218857
v -0.152608 0.177886 0.213677
v -0.118685 0.270155 0.211384
v -0.182582 0.212466 0.189589
v -0.129846 0.215425 0.224872
v -0.145740 0.225117 0.207795
v -0.165307 0.231109 0.186410
v -0.162409 0.305774 0.166222
v -0.133412 0.269088 0.180352
v -0.120584 0.266641 0.197107
v -0.131004 0.319183 0.173098
v -0.111922 0.308852 0.176934
v -0.091082 0.348543 0.182253
v -0.102173 0.314882 0.204068
v 0.016175 0.418549 0.008122
v 0.028464 0.419367 0.052798
v 0.030863 0.429716 0.045125
v 0.025821 0.425420 0.061900
v 0.020977 0.442422 0.008431
v 0.005609 0.420282 -0.002057
v 0.020822 0.449011 0.042416
v -0.006278 0.453083 0.047402
v -0.000167 0.423362 0.057475
v 0.008397 0.450654 0.017981
v -0.000892 0.433215 0.005645
v -0.019105 0.425177 0.011277
v -0.020055 0.445268 0.016898
v -0.023664 0.452712 0.021701
v -0.034514 0.451215 0.025378
v -0.024732 0.444272 0.049673
v -0.021347 0.417706 0.051670
v -0.036467 0.433852 0.016028
v -0.033194 0.417832 0.014693
v -0.040933 0.432107 0.032547
v -0.027798 0.413981 0.032896
vt 0.756348 0.942719
vt 0.760742 0.950867
vt 0.755859 0.949615
vt 0.746094 0.944763
vt 0.756348 0.935486
vt 0.766113 0.911926
vt 0.791504 0.899658
vt 0.740723 0.927246
vt 0.717285 0.952240
vt 0.708984 0.949310
vt 0.704590 0.946533
vt 0.787109 0.890320
vt 0.679688 0.935791
vt 0.670410 0.947479
vt 0.756836 0.908325
vt 0.718750 0.917664
vt 0.770508 0.888245
vt 0.795898 0.868774
vt 0.847656 0.866943
vt 0.857910 0.854980
vt 0.733398 0.905762
vt 0.858398 0.831299
vt 0.874023 0.839478
vt 0.878418 0.829834
vt 0.728516 0.888977
vt 0.861328 0.821411
vt 0.744629 0.885498
vt 0.879883 0.823975
vt 0.902832 0.810181
vt 0.754883 0.873901
vt 0.872559 0.815674
vt 0.926758 0.790771
vt 0.935547 0.789429
vt 0.892090 0.798950
vt 0.885254 0.782959
vt 0.842285 0.805420
vt 0.900391 0.783447
vt 0.933594 0.783203
vt 0.851074 0.785645
vt 0.908691 0.773438
vt 0.848145 0.819458
vt 0.830078 0.833496
vt 0.883789 0.773193
vt 0.927734 0.774902
vt 0.939453 0.781616
vt 0.899902 0.760132
vt 0.937988 0.767456
vt 0.949219 0.773682
vt 0.954590 0.753906
vt 0.910156 0.764282
vt 0.934082 0.760498
vt 0.920898 0.768433
vt 0.907227 0.753906
vt 0.917969 0.763184
vt 0.938965 0.752441
vt 0.926270 0.738525
vt 0.941895 0.722168
vt 0.949219 0.708984
vt 0.956055 0.702148
vt 0.951172 0.677246
vt 0.930664 0.667725
vt 0.940430 0.641357
vt 0.919922 0.727539
vt 0.915039 0.634277
vt 0.899902 0.577393
vt 0.922852 0.710449
vt 0.915039 0.675537
vt 0.890625 0.645020
vt 0.894043 0.676758
vt 0.865234 0.584717
vt 0.803223 0.515381
vt 0.883789 0.667236
vt 0.850586 0.614258
vt 0.814941 0.574707
vt 0.886230 0.677246
vt 0.918457 0.740967
vt 0.829590 0.611572
vt 0.913574 0.747070
vt 0.905273 0.727783
vt 0.894043 0.719482
vt 0.879395 0.721680
vt 0.890137 0.704102
vt 0.883789 0.690918
vt 0.884277 0.700439
vt 0.868164 0.707764
vt 0.865723 0.721680
vt 0.854492 0.704346
vt 0.869629 0.754028
vt 0.857910 0.729736
vt 0.849609 0.717529
vt 0.825684 0.649658
vt 0.860352 0.742920
vt 0.861816 0.770020
vt 0.849609 0.737305
vt 0.850098 0.728271
vt 0.827637 0.715332
vt 0.831055 0.706299
vt 0.794434 0.656006
vt 0.806152 0.688477
vt 0.803223 0.628906
vt 0.783691 0.594482
vt 0.754395 0.620850
vt 0.772461 0.569336
vt 0.769043 0.510986
vt 0.743164 0.524902
vt 0.732910 0.602295
vt 0.722656 0.548340
vt 0.710449 0.531494
vt 0.675781 0.553711
vt 0.650391 0.568848
vt 0.699707 0.575195
vt 0.664062 0.595703
vt 0.618652 0.588867
vt 0.701660 0.588623
vt 0.702637 0.598633
vt 0.686035 0.604248
vt 0.731445 0.610107
vt 0.672363 0.613770
vt 0.692383 0.610107
vt 0.735352 0.627441
vt 0.720215 0.619141
vt 0.717285 0.625244
vt 0.722168 0.633545
vt 0.687988 0.618408
vt 0.688965 0.627930
vt 0.745117 0.645508
vt 0.722656 0.646484
vt 0.685059 0.636230
vt 0.779785 0.668213
vt 0.762207 0.677246
vt 0.747070 0.664062
vt 0.706055 0.648926
vt 0.683105 0.643799
vt 0.710938 0.662842
vt 0.660156 0.635010
vt 0.677246 0.659180
vt 0.740723 0.691650
vt 0.638672 0.635986
vt 0.762207 0.703857
vt 0.632812 0.607178
vt 0.613281 0.618896
vt 0.639160 0.667725
vt 0.589355 0.630615
vt 0.597168 0.664062
vt 0.590332 0.600342
vt 0.605469 0.578613
vt 0.578613 0.587402
vt 0.538574 0.610107
vt 0.532227 0.633789
vt 0.508301 0.628662
vt 0.560547 0.627930
vt 0.528320 0.675781
vt 0.555664 0.653564
vt 0.569336 0.669434
vt 0.541016 0.684814
vt 0.502930 0.681885
vt 0.487549 0.662598
vt 0.535645 0.693848
vt 0.491455 0.698730
vt 0.452637 0.708984
vt 0.522949 0.692627
vt 0.475586 0.780151
vt 0.452881 0.834717
vt 0.501953 0.755371
vt 0.484863 0.853027
vt 0.488525 0.904663
vt 0.498779 0.807983
vt 0.522949 0.735840
vt 0.537598 0.720459
vt 0.547852 0.763794
vt 0.525879 0.779297
vt 0.548828 0.709473
vt 0.557129 0.683838
vt 0.563477 0.724854
vt 0.560059 0.746338
vt 0.573242 0.713135
vt 0.568848 0.689941
vt 0.589844 0.707275
vt 0.598145 0.689941
vt 0.573242 0.732666
vt 0.613281 0.695068
vt 0.635742 0.691650
vt 0.569336 0.749756
vt 0.583496 0.735596
vt 0.561035 0.770752
vt 0.575195 0.750000
vt 0.546387 0.813599
vt 0.577637 0.781494
vt 0.533691 0.831421
vt 0.562012 0.824097
vt 0.554688 0.848389
vt 0.524414 0.855225
vt 0.541992 0.865967
vt 0.526367 0.878479
vt 0.533691 0.870117
vt 0.517090 0.898926
vt 0.546387 0.885559
vt 0.541992 0.903015
vt 0.527344 0.917908
vt 0.515625 0.927429
vt 0.539551 0.937927
vt 0.556641 0.923889
vt 0.573242 0.921204
vt 0.583008 0.941986
vt 0.604492 0.956055
vt 0.641602 0.954987
vt 0.596680 0.936951
vt 0.563477 0.896240
vt 0.609863 0.931091
vt 0.596680 0.927673
vt 0.568848 0.884277
vt 0.580566 0.902466
vt 0.653809 0.938873
vt 0.629883 0.928345
vt 0.608887 0.918701
vt 0.592285 0.900879
vt 0.615234 0.918030
vt 0.588867 0.886108
vt 0.603516 0.906128
vt 0.625000 0.917725
vt 0.599609 0.884155
vt 0.616211 0.897339
vt 0.633789 0.919189
vt 0.571777 0.863525
vt 0.587402 0.869263
vt 0.574707 0.846558
vt 0.588867 0.859863
vt 0.594238 0.851074
vt 0.602051 0.874268
vt 0.611328 0.875427
vt 0.620117 0.885742
vt 0.611816 0.827515
vt 0.629395 0.892273
vt 0.622559 0.871826
vt 0.590820 0.771240
vt 0.635254 0.828491
vt 0.593750 0.755249
vt 0.614258 0.790161
vt 0.619141 0.763550
vt 0.596191 0.737061
vt 0.631836 0.780518
vt 0.613770 0.709717
vt 0.643066 0.801636
vt 0.635254 0.705078
vt 0.611816 0.719727
vt 0.610840 0.746338
vt 0.617188 0.714355
vt 0.615723 0.722168
vt 0.623535 0.713623
vt 0.623535 0.744873
vt 0.637207 0.715820
vt 0.628418 0.761597
vt 0.631836 0.727539
vt 0.645020 0.758301
vt 0.643555 0.775146
vt 0.650879 0.746338
vt 0.687012 0.807373
vt 0.657227 0.770264
vt 0.671875 0.762573
vt 0.687500 0.788452
vt 0.665039 0.848145
vt 0.713867 0.806030
vt 0.635254 0.869873
vt 0.726562 0.839844
vt 0.673340 0.877441
vt 0.704102 0.780029
vt 0.728027 0.875732
vt 0.664551 0.897888
vt 0.708496 0.882996
vt 0.708496 0.890259
vt 0.741699 0.871460
vt 0.688965 0.910034
vt 0.671875 0.906616
vt 0.667969 0.917725
vt 0.652832 0.900696
vt 0.636719 0.909546
vt 0.656250 0.910095
vt 0.756348 0.850098
vt 0.784180 0.853027
vt 0.731934 0.808594
vt 0.758789 0.829102
vt 0.794434 0.848267
vt 0.742188 0.794800
vt 0.725098 0.780640
vt 0.769043 0.812134
vt 0.708984 0.763184
vt 0.737793 0.772827
vt 0.720703 0.754028
vt 0.679199 0.747559
vt 0.678711 0.717529
vt 0.683594 0.740723
vt 0.663086 0.740479
vt 0.660645 0.725586
vt 0.650391 0.727539
vt 0.653320 0.713623
vt 0.663574 0.718262
vt 0.658691 0.699707
vt 0.661133 0.686768
vt 0.687988 0.704346
vt 0.677246 0.683105
vt 0.734375 0.732910
vt 0.687988 0.677246
vt 0.694336 0.697510
vt 0.729980 0.711426
vt 0.747070 0.712891
vt 0.747070 0.745850
vt 0.762207 0.726807
vt 0.761719 0.767212
vt 0.770508 0.750000
vt 0.756348 0.780151
vt 0.784668 0.816772
vt 0.792480 0.812256
vt 0.780762 0.779663
vt 0.800781 0.805420
vt 0.825684 0.808350
vt 0.791992 0.781250
vt 0.804199 0.777832
vt 0.831055 0.792480
vt 0.783203 0.746094
vt 0.793945 0.754517
vt 0.789551 0.736084
vt 0.808105 0.761475
vt 0.787109 0.709961
vt 0.811035 0.753296
vt 0.801758 0.706787
vt 0.795410 0.730957
vt 0.801758 0.726807
vt 0.808105 0.718994
vt 0.833984 0.740967
vt 0.818848 0.743408
vt 0.813965 0.749023
vt 0.834473 0.760010
vt 0.828125 0.764893
vt 0.834473 0.789185
vt 0.821777 0.775269
vt 0.735840 0.177734
vt 0.767090 0.179199
vt 0.760742 0.182129
vt 0.770508 0.187500
vt 0.741699 0.187012
vt 0.729004 0.187500
vt 0.756836 0.191406
vt 0.756348 0.203613
vt 0.770996 0.205078
vt 0.744141 0.194824
vt 0.732910 0.195312
vt 0.729492 0.209473
vt 0.738281 0.207031
vt 0.743164 0.208008
vt 0.744629 0.211914
vt 0.756348 0.212402
vt 0.764648 0.221191
vt 0.738770 0.217773
vt 0.736816 0.224609
vt 0.747559 0.220215
vt 0.750977 0.229004
vt1 0.587402 0.773315
vt1 0.594238 0.786011
vt1 0.586426 0.784058
vt1 0.571777 0.776489
vt1 0.587402 0.761963
vt1 0.603027 0.725342
vt1 0.642090 0.706299
vt1 0.562988 0.749268
vt1 0.526367 0.788086
vt1 0.513672 0.783569
vt1 0.506836 0.779175
vt1 0.635742 0.691650
vt1 0.467773 0.762451
vt1 0.453369 0.780762
vt1 0.588379 0.719727
vt1 0.528809 0.734131
vt1 0.609375 0.688477
vt1 0.648926 0.657959
vt1 0.729492 0.655029
vt1 0.746094 0.636475
vt1 0.551758 0.715820
vt1 0.746582 0.599609
vt1 0.770996 0.612305
vt1 0.777832 0.597168
vt1 0.544434 0.689453
vt1 0.750977 0.584229
vt1 0.569336 0.684082
vt1 0.780273 0.588135
vt1 0.815918 0.566650
vt1 0.584961 0.666016
vt1 0.769043 0.575195
vt1 0.853516 0.536377
vt1 0.866699 0.534180
vt1 0.799316 0.549072
vt1 0.788574 0.524170
vt1 0.721191 0.559082
vt1 0.812012 0.525146
vt1 0.863770 0.524658
vt1 0.734863 0.528320
vt1 0.824707 0.509277
vt1 0.730469 0.581055
vt1 0.702148 0.603027
vt1 0.786621 0.509033
vt1 0.854980 0.511719
vt1 0.872559 0.521973
vt1 0.811035 0.488770
vt1 0.870605 0.500000
vt1 0.888672 0.509766
vt1 0.896484 0.479004
vt1 0.827637 0.495117
vt1 0.864746 0.489258
vt1 0.843750 0.501709
vt1 0.822754 0.479004
vt1 0.839844 0.493164
vt1 0.872070 0.476562
vt1 0.852539 0.455078
vt1 0.876953 0.429688
vt1 0.887695 0.408691
vt1 0.898926 0.397949
vt1 0.891113 0.359375
vt1 0.858887 0.344727
vt1 0.874512 0.303711
vt1 0.842285 0.437988
vt1 0.834961 0.292480
vt1 0.811523 0.203613
vt1 0.846680 0.411133
vt1 0.834473 0.356445
vt1 0.796387 0.309082
vt1 0.802246 0.358398
vt1 0.757324 0.215332
vt1 0.660156 0.106934
vt1 0.785645 0.343750
vt1 0.734375 0.261230
vt1 0.678711 0.199219
vt1 0.790039 0.359375
vt1 0.840332 0.458984
vt1 0.701660 0.256836
vt1 0.832520 0.468262
vt1 0.819824 0.438477
vt1 0.801758 0.425293
vt1 0.779785 0.428711
vt1 0.795898 0.401367
vt1 0.786133 0.380371
vt1 0.787109 0.395508
vt1 0.762207 0.406738
vt1 0.757812 0.428711
vt1 0.740723 0.401855
vt1 0.764160 0.479004
vt1 0.746094 0.441406
vt1 0.732910 0.421875
vt1 0.695312 0.316406
vt1 0.750000 0.461914
vt1 0.752441 0.503906
vt1 0.732910 0.453125
vt1 0.733887 0.438965
vt1 0.698730 0.418945
vt1 0.704102 0.404297
vt1 0.646973 0.326172
vt1 0.665039 0.376953
vt1 0.660645 0.284180
vt1 0.629883 0.230469
vt1 0.584961 0.271484
vt1 0.612793 0.191406
vt1 0.606934 0.100098
vt1 0.566895 0.121582
vt1 0.550781 0.242188
vt1 0.534668 0.158691
vt1 0.515625 0.131836
vt1 0.461670 0.166504
vt1 0.422363 0.190430
vt1 0.499268 0.200195
vt1 0.443359 0.232422
vt1 0.373047 0.221680
vt1 0.502441 0.221191
vt1 0.503418 0.236816
vt1 0.477539 0.245605
vt1 0.548828 0.254883
vt1 0.456299 0.260742
vt1 0.487793 0.254883
vt1 0.555176 0.281738
vt1 0.530762 0.268555
vt1 0.526367 0.278320
vt1 0.534180 0.291016
vt1 0.480957 0.267578
vt1 0.482422 0.282227
vt1 0.570312 0.310059
vt1 0.535156 0.311523
vt1 0.476562 0.295410
vt1 0.624023 0.345215
vt1 0.596191 0.359375
vt1 0.573242 0.338867
vt1 0.508789 0.314941
vt1 0.473389 0.307129
vt1 0.516113 0.336914
vt1 0.437256 0.293457
vt1 0.463867 0.331055
vt1 0.563477 0.381836
vt1 0.404053 0.294922
vt1 0.596680 0.400879
vt1 0.394775 0.250000
vt1 0.364258 0.268555
vt1 0.405273 0.344238
vt1 0.326904 0.286621
vt1 0.339111 0.338867
vt1 0.328857 0.239258
vt1 0.352539 0.205566
vt1 0.310791 0.219238
vt1 0.248169 0.254395
vt1 0.237793 0.291992
vt1 0.201172 0.283691
vt1 0.281982 0.282715
vt1 0.231934 0.356934
vt1 0.274414 0.322266
vt1 0.295654 0.347168
vt1 0.251709 0.371094
vt1 0.192383 0.366699
vt1 0.168457 0.336426
vt1 0.243652 0.385254
vt1 0.174561 0.392578
vt1 0.114014 0.408691
vt1 0.223755 0.383301
vt1 0.149658 0.519775
vt1 0.114319 0.604980
vt1 0.190674 0.481445
vt1 0.164185 0.633301
vt1 0.169800 0.714111
vt1 0.185669 0.563232
vt1 0.223633 0.450684
vt1 0.246338 0.426758
vt1 0.262451 0.494629
vt1 0.228149 0.518555
vt1 0.263916 0.409668
vt1 0.276855 0.369629
vt1 0.286865 0.433594
vt1 0.281494 0.466797
vt1 0.302246 0.415527
vt1 0.294922 0.378906
vt1 0.327637 0.406250
vt1 0.340576 0.378906
vt1 0.302490 0.445801
vt1 0.364746 0.387207
vt1 0.399658 0.381836
vt1 0.295898 0.472168
vt1 0.317871 0.450195
vt1 0.283203 0.505127
vt1 0.304932 0.472656
vt1 0.260254 0.572021
vt1 0.308838 0.521729
vt1 0.240479 0.599854
vt1 0.284668 0.588379
vt1 0.272705 0.626221
vt1 0.225586 0.636719
vt1 0.253418 0.653564
vt1 0.229126 0.673096
vt1 0.240479 0.660156
vt1 0.214600 0.705078
vt1 0.260010 0.684082
vt1 0.253662 0.711426
vt1 0.230713 0.734619
vt1 0.212036 0.749512
vt1 0.249756 0.765869
vt1 0.276611 0.743896
vt1 0.302246 0.739746
vt1 0.316895 0.772217
vt1 0.351074 0.794067
vt1 0.408691 0.792358
vt1 0.338867 0.764282
vt1 0.286621 0.700928
vt1 0.359131 0.755127
vt1 0.338379 0.750000
vt1 0.294922 0.682129
vt1 0.313721 0.710693
vt1 0.427490 0.767334
vt1 0.390381 0.750854
vt1 0.357422 0.735840
vt1 0.331787 0.708252
vt1 0.367676 0.734863
vt1 0.326416 0.685059
vt1 0.348877 0.716309
vt1 0.382812 0.734375
vt1 0.343018 0.682129
vt1 0.368652 0.702637
vt1 0.396729 0.736572
vt1 0.299805 0.649902
vt1 0.324219 0.658691
vt1 0.304443 0.623291
vt1 0.326660 0.644043
vt1 0.335205 0.630371
vt1 0.346924 0.666748
vt1 0.361572 0.668457
vt1 0.375000 0.684570
vt1 0.362305 0.593750
vt1 0.389893 0.694580
vt1 0.378906 0.662842
vt1 0.329590 0.505859
vt1 0.398438 0.595215
vt1 0.333984 0.480957
vt1 0.366211 0.535400
vt1 0.373291 0.494141
vt1 0.338135 0.452637
vt1 0.393066 0.520264
vt1 0.364990 0.409668
vt1 0.410645 0.553467
vt1 0.398438 0.402344
vt1 0.362549 0.425293
vt1 0.360596 0.467285
vt1 0.370605 0.417480
vt1 0.368408 0.429688
vt1 0.380615 0.416016
vt1 0.380615 0.464844
vt1 0.401855 0.419434
vt1 0.388184 0.490723
vt1 0.393066 0.437988
vt1 0.414307 0.485840
vt1 0.411865 0.512207
vt1 0.422852 0.467285
vt1 0.479248 0.562256
vt1 0.432861 0.504395
vt1 0.456055 0.492676
vt1 0.480225 0.532715
vt1 0.445068 0.625977
vt1 0.520996 0.560059
vt1 0.399170 0.659668
vt1 0.540527 0.613037
vt1 0.458008 0.671631
vt1 0.505859 0.519531
vt1 0.543457 0.668945
vt1 0.444580 0.703369
vt1 0.513184 0.680176
vt1 0.512695 0.691406
vt1 0.564453 0.662354
vt1 0.482666 0.722412
vt1 0.455811 0.717041
vt1 0.449951 0.734375
vt1 0.426025 0.707764
vt1 0.400879 0.721680
vt1 0.431641 0.722412
vt1 0.587402 0.628906
vt1 0.630371 0.633545
vt1 0.549316 0.563965
vt1 0.591309 0.595947
vt1 0.646484 0.625977
vt1 0.565430 0.542725
vt1 0.539062 0.520752
vt1 0.607422 0.569824
vt1 0.513672 0.493164
vt1 0.558594 0.508545
vt1 0.531738 0.479004
vt1 0.467041 0.468750
vt1 0.466309 0.422363
vt1 0.474121 0.458496
vt1 0.441650 0.458008
vt1 0.438477 0.434570
vt1 0.422119 0.437988
vt1 0.426758 0.416016
vt1 0.442627 0.423340
vt1 0.435547 0.394531
vt1 0.438965 0.374512
vt1 0.481445 0.401855
vt1 0.464111 0.368652
vt1 0.553223 0.446289
vt1 0.480957 0.359375
vt1 0.490479 0.391113
vt1 0.546387 0.412598
vt1 0.572754 0.415039
vt1 0.573242 0.466309
vt1 0.596191 0.436523
vt1 0.595703 0.500000
vt1 0.609863 0.473145
vt1 0.587402 0.519775
vt1 0.631348 0.576904
vt1 0.643555 0.569824
vt1 0.625977 0.519043
vt1 0.656250 0.559082
vt1 0.695312 0.563721
vt1 0.642578 0.521484
vt1 0.662109 0.516113
vt1 0.704102 0.539062
vt1 0.629395 0.466797
vt1 0.646484 0.479980
vt1 0.639160 0.451172
vt1 0.668457 0.490723
vt1 0.635254 0.410156
vt1 0.672363 0.478027
vt1 0.658691 0.405273
vt1 0.648438 0.442871
vt1 0.658203 0.436523
vt1 0.667969 0.424316
vt1 0.708496 0.458496
vt1 0.684570 0.462402
vt1 0.677246 0.471191
vt1 0.708984 0.488281
vt1 0.699219 0.496094
vt1 0.709473 0.533936
vt1 0.689453 0.512207
vt1 0.841797 0.700439
vt1 0.890625 0.703369
vt1 0.880371 0.707520
vt1 0.895508 0.715820
vt1 0.851074 0.715332
vt1 0.831543 0.715820
vt1 0.874023 0.721924
vt1 0.873535 0.741211
vt1 0.896484 0.743652
vt1 0.854492 0.727539
vt1 0.837402 0.727783
vt1 0.831543 0.750122
vt1 0.845703 0.746826
vt1 0.853027 0.747803
vt1 0.855469 0.754395
vt1 0.873535 0.754395
vt1 0.886230 0.768677
vt1 0.846680 0.762817
vt1 0.843262 0.774048
vt1 0.859863 0.767090
vt1 0.865234 0.780518
vn 0.196850 0.976378 0.062992
vn 0.118110 0.968504 0.212598
vn -0.881890 0.070866 -0.472441
vn -0.220472 0.968504 -0.070866
vn 0.165354 0.976378 0.165354
vn -0.204724 0.850394 0.488189
vn 0.433071 0.897638 -0.039370
vn -0.236220 0.960630 0.165354
vn -0.362205 0.929134 0.007874
vn -0.771654 0.527559 -0.346457
vn -0.007874 1.000000 0.031496
vn -0.125984 0.968504 0.212598
vn -0.015748 1.000000 0.055118
vn -0.031496 0.992126 0.133858
vn -0.314961 0.929134 0.196850
vn 0.188976 0.968504 -0.141732
vn -0.362205 0.834646 0.417323
vn -0.086614 0.763779 0.645669
vn 0.165354 0.976378 0.165354
vn 0.196850 0.976378 0.062992
vn 0.070866 0.976378 -0.220473
vn 0.062992 0.960630 0.267716
vn 0.118110 0.968504 0.212598
vn -0.881890 0.070866 -0.472441
vn 0.307087 0.937008 -0.181102
vn -0.787402 0.535433 -0.314961
vn 0.000000 0.960630 0.291338
vn -0.921260 0.149606 -0.354331
vn -0.259843 0.960630 -0.078740
vn -0.031496 0.661417 0.755905
vn -0.125984 0.976378 0.188976
vn 0.299213 0.921260 0.244094
vn -0.362205 0.929134 0.007874
vn 0.118110 0.952756 0.275590
vn -0.307087 0.944882 0.133858
vn -0.645669 0.574803 0.511811
vn -0.488189 0.566929 -0.661417
vn -0.196850 0.937008 -0.283465
vn -0.370079 0.582677 0.724409
vn 0.023622 0.929134 0.370079
vn -0.307087 0.795276 0.527559
vn -0.023622 0.661417 0.748031
vn -0.566929 0.787401 -0.244095
vn -0.125984 0.921260 -0.362205
vn -0.212598 0.874016 0.433071
vn -0.409449 0.913386 0.007874
vn 0.173228 0.976378 0.102362
vn -0.322835 0.944882 -0.094488
vn -0.070866 0.984252 -0.173228
vn -0.149606 0.929134 -0.346457
vn 0.047244 0.944882 0.314960
vn -0.299213 0.543307 -0.787401
vn -0.488189 0.874016 -0.023622
vn -0.070866 0.984252 0.157480
vn 0.102362 0.913386 -0.393701
vn -0.236220 0.905512 0.354331
vn -0.141732 0.960630 -0.228347
vn 0.110236 0.834646 -0.543307
vn -0.023622 0.913386 -0.409449
vn -0.094488 0.850394 -0.519685
vn -0.188976 0.866142 -0.456693
vn -0.181102 0.700787 -0.685039
vn -0.503937 0.850394 0.141732
vn -0.519685 0.456693 -0.724409
vn -0.574803 0.456693 -0.677165
vn -0.330709 0.929134 -0.173228
vn -0.559055 0.826772 -0.023622
vn -0.763780 0.433071 -0.480315
vn -0.551181 0.803149 -0.204724
vn -0.685039 0.362205 -0.637795
vn -0.692913 0.102362 -0.708661
vn -0.834646 0.472441 -0.291339
vn -0.858268 0.322835 -0.401575
vn -0.811024 0.094488 -0.574803
vn -0.440945 0.826771 -0.338583
vn -0.259843 0.929134 -0.259843
vn -0.968504 0.181102 -0.165354
vn -0.236220 0.944882 0.228346
vn -0.346457 0.905512 0.244094
vn -0.307087 0.795276 0.527559
vn -0.385827 0.921260 0.047244
vn -0.370079 0.889764 -0.259843
vn -0.826772 0.551181 -0.070866
vn -0.582677 0.779527 0.236220
vn -0.874016 0.464567 0.118110
vn -0.559055 0.795275 0.236220
vn -0.960630 0.259842 0.055118
vn -0.519685 0.850394 0.047244
vn -0.543307 0.771653 0.338583
vn -0.913386 0.275591 0.291339
vn -0.984252 0.149606 0.094488
vn -0.275591 0.850394 0.448819
vn -0.330709 0.661417 0.669291
vn -0.023622 0.456693 0.889764
vn -0.559055 0.472441 0.677165
vn -0.503937 0.125984 0.858268
vn -0.874016 0.086614 0.472441
vn -0.913386 -0.267716 0.314961
vn -0.795276 -0.157480 0.590551
vn -0.976378 -0.141732 0.149606
vn -0.952756 -0.275591 -0.125984
vn -0.905512 -0.338583 0.244095
vn -0.858268 -0.322835 -0.393701
vn -0.716535 -0.228346 -0.661417
vn -0.661417 -0.511811 -0.551181
vn -0.748031 -0.661417 -0.039370
vn -0.763780 -0.535433 -0.362205
vn -0.496063 -0.606299 -0.622047
vn -0.582677 -0.582677 -0.566929
vn -0.669291 -0.677165 -0.299212
vn -0.724409 -0.661417 -0.181102
vn -0.393701 -0.913386 -0.047244
vn 0.055118 -0.921260 -0.385827
vn -0.669291 -0.700787 -0.259842
vn -0.582677 -0.811023 0.055118
vn -0.614173 -0.779527 -0.086614
vn -0.661417 -0.748031 0.000000
vn -0.015748 -1.000000 0.007874
vn -0.503937 -0.834646 0.204724
vn -0.527559 -0.700787 0.480315
vn -0.259843 -0.740157 0.622047
vn -0.622047 -0.755905 0.188976
vn -0.535433 -0.700787 0.472441
vn -0.393701 -0.913386 0.125984
vn -0.015748 -0.889764 0.448819
vn -0.559055 -0.724409 0.393701
vn -0.228346 -0.811023 0.535433
vn 0.236220 -0.755905 0.606299
vn -0.826772 -0.275590 0.488189
vn -0.661417 -0.496063 0.559055
vn -0.511811 -0.787401 0.338583
vn -0.377953 -0.889764 0.251969
vn 0.023622 -0.905512 0.425197
vn -0.094488 -0.929134 0.354331
vn 0.078740 -0.984252 0.165354
vn -0.196850 -0.937008 0.283465
vn -0.094488 -0.842520 0.527559
vn 0.078740 -0.992126 -0.086614
vn -0.377953 -0.425197 0.818898
vn 0.110236 -0.992126 -0.086614
vn 0.236220 -0.929134 -0.291338
vn 0.062992 -0.992126 -0.118110
vn 0.039370 -0.937008 -0.346457
vn 0.086614 -0.960630 -0.267716
vn -0.031496 -0.629921 -0.771653
vn -0.669291 -0.677165 -0.299212
vn -0.582677 -0.582677 -0.566929
vn -0.496063 -0.606299 -0.622047
vn -0.385827 -0.771653 -0.503937
vn -0.661417 -0.511811 -0.551181
vn -0.244094 -0.834646 -0.496063
vn -0.385827 -0.708661 -0.590551
vn -0.173228 -0.944882 -0.291338
vn 0.141732 -0.905512 -0.393701
vn 0.220472 -0.803150 -0.559055
vn -0.527559 -0.299213 -0.795275
vn -0.716535 -0.228346 -0.661417
vn 0.377953 -0.393701 -0.834646
vn -0.409449 0.094488 -0.905512
vn -0.700787 0.102362 -0.708661
vn -0.055118 -0.023622 -1.000000
vn -0.370079 0.346457 -0.858268
vn -0.574803 0.456693 -0.677165
vn -0.023622 0.204724 -0.976378
vn -0.299213 0.653543 -0.692913
vn -0.181102 0.700787 -0.685039
vn -0.110236 0.503937 -0.858268
vn 0.118110 0.118110 -0.984252
vn 0.299213 -0.149606 -0.937008
vn 0.157480 -0.047244 -0.984252
vn 0.007874 0.149606 -0.992126
vn 0.401575 -0.496063 -0.771653
vn 0.338583 -0.787401 -0.511811
vn 0.511811 -0.559055 -0.653543
vn 0.307087 -0.440945 -0.842520
vn 0.543307 -0.598425 -0.590551
vn 0.267717 -0.795276 -0.543307
vn 0.779528 -0.574803 -0.251968
vn 0.377953 -0.897638 -0.212598
vn 0.196850 -0.763779 -0.614173
vn 0.519685 -0.811024 -0.267716
vn 0.173228 -0.968504 -0.181102
vn 0.307087 -0.440945 -0.842520
vn 0.133858 -0.842520 -0.527559
vn 0.614173 0.086614 -0.779527
vn 0.629921 -0.377953 -0.677165
vn 0.188976 0.267716 -0.944882
vn 0.771654 0.236220 -0.590551
vn -0.204724 0.409449 -0.889764
vn 0.669291 0.354331 -0.653543
vn 0.220472 0.724409 -0.653543
vn -0.377953 0.622047 -0.692913
vn -0.314961 0.826771 -0.456693
vn -0.204724 0.732283 -0.653543
vn -0.023622 0.874016 -0.488189
vn 0.181102 0.771653 -0.614173
vn 0.110236 0.787401 -0.606299
vn -0.393701 0.740157 -0.543307
vn 0.039370 0.834646 -0.543307
vn -0.094488 0.850394 -0.519685
vn -0.023622 0.913386 -0.409449
vn -0.110236 0.913386 -0.393701
vn 0.173228 0.937008 -0.307087
vn 0.259843 0.858268 -0.440945
vn -0.047244 0.992126 -0.125984
vn -0.086614 0.976378 -0.188976
vn 0.133858 0.921260 -0.370079
vn -0.181102 0.866142 -0.464567
vn -0.110236 0.968504 -0.236221
vn -0.559055 0.732283 -0.385827
vn -0.062992 0.913386 -0.401575
vn 0.015748 0.881890 -0.480315
vn -0.062992 0.960630 -0.275591
vn -0.047244 0.944882 -0.322835
vn -0.259843 0.881890 -0.385827
vn 0.015748 0.905512 -0.425197
vn 0.488189 0.866142 -0.102362
vn 0.338583 0.818897 -0.464567
vn 0.385827 0.889764 -0.251969
vn -0.181102 0.755905 -0.629921
vn -0.188976 0.740157 -0.645669
vn -0.283465 0.779527 -0.559055
vn -0.149606 0.897638 -0.417323
vn 0.448819 0.826771 -0.322835
vn 0.173228 0.826771 -0.535433
vn 0.590551 0.622047 -0.511811
vn 0.417323 0.645669 -0.637795
vn 0.748031 0.409449 -0.519685
vn 0.157480 0.700787 -0.700787
vn 0.685039 0.582677 -0.433071
vn 0.496063 0.803149 -0.314961
vn 0.850394 0.377953 -0.370079
vn 0.519685 0.850394 0.086614
vn 0.858268 0.480315 -0.181102
vn 0.874016 -0.031496 -0.488189
vn 0.937008 0.314961 -0.149606
vn 0.803150 -0.472441 -0.362205
vn 0.952756 0.125984 -0.283465
vn 0.795276 -0.409449 -0.448819
vn 0.645669 -0.740157 -0.196850
vn 0.952756 0.118110 -0.283465
vn 0.362205 -0.842520 -0.393701
vn 0.960630 0.267716 -0.007874
vn 0.259843 -0.913386 -0.314960
vn 0.755906 -0.637795 -0.165354
vn 0.629921 -0.740157 -0.236220
vn -0.007874 -0.779527 -0.629921
vn 0.598425 -0.661417 -0.440945
vn 0.527559 -0.771653 -0.354331
vn 0.535433 -0.622047 -0.574803
vn 0.535433 -0.763779 -0.362205
vn 0.771654 -0.377953 -0.511811
vn 0.440945 -0.881890 -0.173228
vn 0.763780 -0.645669 0.023622
vn 1.000000 0.070866 -0.023622
vn 0.527559 -0.834646 0.141732
vn 0.944882 0.275591 0.188976
vn 0.952756 -0.094488 0.275591
vn 0.763780 -0.519685 0.393701
vn 0.944882 0.015748 0.314961
vn 0.944882 0.322835 0.078740
vn 0.826772 0.236221 0.503937
vn 0.850394 0.480315 -0.228346
vn 0.850394 0.354331 0.393701
vn 0.866142 0.503937 0.007874
vn 0.779528 -0.251968 0.574803
vn 0.866142 0.409449 0.299213
vn 0.440945 0.866142 -0.236221
vn 0.700787 0.708661 0.023622
vn 0.346457 0.929134 -0.102362
vn 0.637795 0.464567 0.614173
vn 0.196850 0.968504 0.133858
vn 0.401575 0.913386 0.055118
vn 0.062992 0.842520 -0.535433
vn 0.543307 0.803149 -0.244095
vn 0.314961 0.952756 0.031496
vn 0.244094 0.968504 -0.039370
vn 0.110236 0.385827 0.913386
vn -0.244094 0.456693 0.858268
vn 0.464567 0.259843 0.842520
vn -0.094488 0.244095 0.968504
vn -0.149606 0.464567 0.874016
vn 0.070866 0.196850 0.976378
vn 0.433071 -0.110236 0.889764
vn -0.236220 0.291339 0.929134
vn 0.464567 -0.606299 0.645669
vn 0.000000 -0.086614 1.000000
vn 0.157480 -0.645669 0.748031
vn 0.606299 -0.645669 0.464567
vn 0.236220 -0.763779 0.598425
vn 0.401575 -0.716535 0.566929
vn 0.858268 -0.488189 0.141732
vn 0.645669 -0.716535 0.267717
vn 0.874016 -0.417323 -0.251968
vn 0.165354 -0.984252 -0.070866
vn 0.244094 -0.881890 0.401575
vn 0.015748 -1.000000 0.078740
vn 0.110236 -0.992126 0.007874
vn 0.086614 -0.803149 0.582677
vn -0.220472 -0.944882 0.236221
vn 0.031496 -0.669291 0.748031
vn -0.338583 -0.858268 0.377953
vn -0.165354 -0.787401 0.598425
vn 0.055118 -0.826771 0.559055
vn -0.039370 -0.629921 0.779527
vn -0.070866 -0.157480 0.984252
vn -0.094488 -0.157480 0.984252
vn -0.094488 0.149606 0.984252
vn -0.039370 0.181102 0.984252
vn -0.228346 0.188976 0.952756
vn -0.519685 0.157480 0.834646
vn -0.062992 0.283465 0.952756
vn -0.055118 0.307087 0.952756
vn -0.055118 0.267717 0.960630
vn 0.015748 0.291339 0.960630
vn -0.283465 0.307087 0.905512
vn 0.110236 0.267717 0.952756
vn -0.236220 0.385827 0.897638
vn 0.086614 0.244095 0.968504
vn 0.299213 0.346457 0.889764
vn -0.173228 0.165354 0.968504
vn 0.000000 0.307087 0.952756
vn -0.661417 -0.094488 0.748031
vn -0.740157 0.409449 0.527559
vn -0.622047 0.062992 0.779527
vn -0.527559 0.165354 0.834646
vn -0.606299 0.370079 0.708661
vn -0.393701 0.433071 0.811023
vn -0.133858 0.204724 0.968504
vn -0.440945 0.385827 0.811023
vn -0.826772 0.472441 0.299213
vn -0.236220 0.086614 0.968504
vn -0.653543 0.299213 0.692913
vn -0.818898 0.385827 0.425197
vn -0.511811 0.409449 0.755905
vn 0.826772 -0.188976 -0.527559
vn 0.692913 -0.724409 0.031496
vn 0.984252 0.094488 -0.133858
vn 0.094488 0.188976 0.976378
vn 0.874016 0.212598 -0.433071
vn -0.204724 -0.015748 -0.976378
vn 0.551181 0.787401 0.267716
vn 0.078740 0.850394 0.519685
vn -0.007874 -0.299212 0.952756
vn -0.165354 0.929134 -0.322835
vn -0.574803 0.181102 -0.803149
vn 0.102362 0.275590 -0.952756
vn 0.015748 0.440945 -0.897638
vn 0.086614 0.905512 -0.425197
vn -0.685039 0.724409 -0.086614
vn -0.551181 0.338583 0.763779
vn -0.559055 -0.110236 0.818897
vn -0.724409 0.228346 -0.653543
vn -0.913386 -0.377953 -0.165354
vn -0.960630 -0.149606 0.236220
vn -0.811024 -0.559055 0.165354
tan 0.976378 -0.197842 0.015376 1.000000
tan 0.804080 0.021204 -0.543307 1.000000
tan 0.368095 0.694153 -0.582987 1.000000
tan 0.915122 0.231756 0.320293 1.000000
tan 0.946928 -0.203112 0.252403 1.000000
tan 0.168392 -0.441813 0.840226 1.000000
tan 0.551615 -0.234980 0.710211 1.000000
tan 0.627813 0.029388 0.726145 1.000000
tan 0.592969 0.224937 0.734081 1.000000
tan 0.401699 0.776118 0.287122 1.000000
tan 0.559055 -0.021638 0.826772 1.000000
tan -0.190650 -0.232376 0.945626 1.000000
tan 0.937008 -0.004340 0.346457 1.000000
tan 0.984314 0.014384 0.124992 1.000000
tan 0.164486 -0.141670 0.931862 1.000000
tan 0.640585 -0.018972 0.724471 1.000000
tan -0.151156 -0.481617 0.832042 1.000000
tan -0.117490 -0.652179 0.755719 1.000000
tan -0.954616 0.126294 0.208878 1.000000
tan -0.961498 0.183830 0.155310 1.000000
tan 0.399777 0.172360 0.891810 1.000000
tan -0.966954 0.084072 -0.074152 1.000000
tan -0.855788 0.204600 -0.456631 1.000000
tan 0.020646 -0.928514 -0.177816 1.000000
tan 0.716845 -0.113770 0.626883 1.000000
tan -0.477401 -0.807241 -0.178808 1.000000
tan 0.236778 -0.282162 0.930374 1.000000
tan -0.112158 -0.939116 -0.104904 1.000000
tan -0.718581 -0.246451 -0.635377 1.000000
tan 0.023808 -0.755905 0.662409 1.000000
tan -0.853370 -0.019344 -0.468969 1.000000
tan -0.464257 0.362205 -0.797942 1.000000
tan -0.680699 -0.259905 -0.643437 1.000000
tan -0.602331 0.287060 -0.734267 1.000000
tan -0.840722 -0.212102 -0.431521 1.000000
tan -0.761858 -0.567115 -0.324199 1.000000
tan -0.121272 -0.778722 -0.577965 1.000000
tan -0.523839 -0.344411 -0.774691 1.000000
tan -0.902846 -0.332011 -0.194184 1.000000
tan -0.526753 0.319363 -0.768182 1.000000
tan -0.898878 -0.395747 0.073346 1.000000
tan -0.484717 -0.659743 0.568045 1.000000
tan -0.707669 -0.617769 -0.349185 1.000000
tan -0.471511 -0.375349 -0.790687 1.000000
tan -0.309567 0.333809 -0.825656 1.000000
tan -0.740839 -0.327485 -0.535433 1.000000
tan -0.499721 0.176514 -0.837994 1.000000
tan -0.654721 -0.291401 -0.677041 1.000000
tan -0.589001 -0.181536 -0.790501 1.000000
tan -0.434373 -0.375039 -0.818215 1.000000
tan -0.580321 0.279496 -0.751441 1.000000
tan -0.170872 -0.825346 -0.504557 1.000000
tan -0.728935 -0.420299 -0.486391 1.000000
tan -0.566991 0.088226 -0.806560 1.000000
tan -0.427429 -0.302747 -0.813503 1.000000
tan -0.486081 0.176700 -0.775621 1.000000
tan -0.529481 -0.268709 -0.801785 1.000000
tan -0.194556 -0.507037 -0.818402 1.000000
tan -0.447641 -0.372249 -0.804575 1.000000
tan -0.268213 -0.522661 -0.806498 1.000000
tan -0.204600 -0.486949 -0.838862 1.000000
tan -0.077500 -0.702461 -0.698121 1.000000
tan -0.753302 -0.378573 -0.406969 1.000000
tan 0.130820 -0.787774 -0.590489 1.000000
tan 0.270569 -0.677227 -0.686403 1.000000
tan -0.613181 -0.348317 -0.697625 1.000000
tan -0.793850 -0.543741 -0.243164 1.000000
tan 0.072106 -0.602827 -0.658193 1.000000
tan -0.665385 -0.573997 -0.460413 1.000000
tan 0.430343 -0.499783 -0.746047 1.000000
tan 0.699051 -0.083080 -0.695517 1.000000
tan -0.175894 -0.695145 -0.623349 1.000000
tan 0.181350 -0.495319 -0.785789 1.000000
tan 0.528365 -0.276769 -0.790997 1.000000
tan -0.503627 -0.538223 -0.658379 1.000000
tan -0.541385 -0.362143 -0.753549 1.000000
tan 0.045074 -0.510943 -0.823609 1.000000
tan -0.552359 0.047554 -0.768181 1.000000
tan -0.550685 -0.003906 -0.767127 1.000000
tan -0.671275 0.180420 -0.662719 1.000000
tan -0.848720 -0.337219 -0.355447 1.000000
tan -0.616529 -0.442619 -0.637547 1.000000
tan -0.443921 -0.727820 -0.481741 1.000000
tan -0.772460 -0.491909 -0.282100 1.000000
tan -0.447393 -0.708289 -0.524769 1.000000
tan -0.795400 -0.458739 -0.338025 1.000000
tan -0.225990 -0.695455 -0.660115 1.000000
tan -0.817658 -0.486577 -0.235848 1.000000
tan -0.806126 -0.405605 -0.369149 1.000000
tan -0.400459 -0.589745 -0.697625 1.000000
tan -0.164238 -0.581251 -0.790501 1.000000
tan -0.885176 -0.131006 -0.295307 1.000000
tan -0.927398 -0.121148 -0.338521 1.000000
tan -0.802282 -0.392523 0.180172 1.000000
tan -0.820882 -0.351975 -0.432141 1.000000
tan -0.828446 -0.252403 -0.449377 1.000000
tan -0.462273 -0.407713 -0.780457 1.000000
tan -0.188976 -0.345217 -0.841465 1.000000
tan -0.535991 -0.232749 -0.783867 1.000000
tan -0.070680 -0.438217 -0.876434 1.000000
tan 0.237956 -0.435117 -0.847728 1.000000
tan -0.131254 -0.270941 -0.862732 1.000000
tan 0.469155 -0.246947 -0.820262 1.000000
tan 0.686775 -0.059458 -0.723479 1.000000
tan 0.615661 0.052080 -0.787153 1.000000
tan 0.271809 -0.253891 -0.899002 1.000000
tan 0.333685 0.136896 -0.906008 1.000000
tan 0.400893 0.471263 -0.779032 1.000000
tan 0.301817 0.492777 -0.816666 1.000000
tan -0.472069 0.698865 -0.525699 1.000000
tan -0.255688 0.503379 -0.815674 1.000000
tan -0.746109 0.349557 -0.540517 1.000000
tan -0.927336 -0.085498 0.071672 1.000000
tan -0.143716 0.462273 -0.876558 1.000000
tan -0.350301 0.191704 -0.882386 1.000000
tan -0.746109 0.613863 -0.234175 1.000000
tan 0.017670 -0.015624 -0.948850 1.000000
tan -0.692913 0.005270 -0.716535 1.000000
tan -0.573253 0.191332 -0.631037 1.000000
tan -0.346891 -0.329531 -0.861802 1.000000
tan -0.316201 -0.533759 -0.767189 1.000000
tan -0.303553 0.016678 -0.932482 1.000000
tan -0.340381 -0.297601 -0.827205 1.000000
tan -0.485585 0.097464 -0.810838 1.000000
tan -0.336351 -0.411185 -0.826957 1.000000
tan -0.223448 -0.306777 -0.881766 1.000000
tan -0.203980 -0.476037 -0.808047 1.000000
tan -0.265547 -0.650195 -0.707173 1.000000
tan -0.377147 -0.329283 -0.824601 1.000000
tan -0.430529 -0.338645 -0.809845 1.000000
tan -0.243722 -0.196292 -0.824912 1.000000
tan -0.443115 -0.046624 -0.829314 1.000000
tan -0.363631 -0.397855 -0.827081 1.000000
tan -0.397855 -0.280675 -0.842085 1.000000
tan -0.790502 -0.160890 -0.581251 1.000000
tan -0.614607 -0.085622 -0.709839 1.000000
tan -0.202368 -0.494265 -0.825593 1.000000
tan -0.960878 -0.055800 -0.234360 1.000000
tan -0.496497 -0.651249 -0.567301 1.000000
tan -0.945254 -0.077748 -0.312481 1.000000
tan -0.942898 -0.249984 0.032736 1.000000
tan -0.976502 -0.040610 -0.179676 1.000000
tan -0.814310 -0.205964 0.464505 1.000000
tan -0.929134 -0.156984 0.262695 1.000000
tan -0.189348 -0.757021 0.625705 1.000000
tan -0.281357 -0.141174 0.948850 1.000000
tan -0.474673 -0.319920 0.816666 1.000000
tan -0.328539 -0.530907 0.779465 1.000000
tan -0.177692 -0.460723 0.841528 1.000000
tan -0.221030 -0.560729 0.785914 1.000000
tan -0.333561 -0.372497 0.790874 1.000000
tan -0.145080 -0.563023 0.770414 1.000000
tan -0.545415 -0.139004 0.775125 1.000000
tan -0.688821 -0.368405 0.599355 1.000000
tan -0.367909 -0.599975 0.716845 1.000000
tan -0.466365 -0.677971 0.564449 1.000000
tan -0.336227 -0.710459 0.609523 1.000000
tan -0.389485 -0.833158 0.216628 1.000000
tan -0.529109 -0.740839 0.161944 1.000000
tan -0.436729 -0.848906 0.309257 1.000000
tan -0.464567 -0.889764 0.046624 1.000000
tan -0.073408 -0.901048 -0.332073 1.000000
tan -0.032612 -0.838366 -0.537727 1.000000
tan -0.238328 -0.945626 -0.192510 1.000000
tan -0.048050 -0.731477 -0.669167 1.000000
tan 0.015314 -0.689627 -0.709529 1.000000
tan -0.060388 -0.862608 -0.498729 1.000000
tan -0.302251 -0.937752 -0.148800 1.000000
tan -0.353835 -0.884742 0.028272 1.000000
tan -0.302251 -0.937752 -0.003348 1.000000
tan -0.187488 -0.976502 -0.148738 1.000000
tan -0.372807 -0.828383 0.338521 1.000000
tan -0.554901 -0.608159 0.568541 1.000000
tan -0.516833 -0.806125 0.284829 1.000000
tan -0.259347 -0.812388 0.330647 1.000000
tan -0.605865 -0.768367 0.221217 1.000000
tan -0.603013 -0.574927 0.544423 1.000000
tan -0.582739 -0.779527 -0.024552 1.000000
tan -0.885176 -0.408829 0.152520 1.000000
tan -0.525017 -0.608345 0.588257 1.000000
tan -0.815240 -0.530225 0.023746 1.000000
tan -0.971356 -0.158968 -0.078988 1.000000
tan -0.448199 -0.801041 0.255875 1.000000
tan -0.546531 -0.497613 0.656023 1.000000
tan -0.548329 -0.637795 -0.502883 1.000000
tan -0.610577 -0.742141 -0.153760 1.000000
tan -0.096720 -0.937442 -0.284952 1.000000
tan -0.205530 -0.707793 -0.551677 1.000000
tan 0.080848 -0.884370 -0.425569 1.000000
tan -0.032178 -0.858640 -0.498481 1.000000
tan 0.069006 -0.670965 -0.720441 1.000000
tan 0.018724 -0.723665 -0.659867 1.000000
tan -0.057908 -0.481493 -0.831731 1.000000
tan -0.008246 -0.661603 -0.738731 1.000000
tan 0.010726 -0.488003 -0.874202 1.000000
tan 0.051088 -0.628433 -0.774505 1.000000
tan 0.032426 -0.611507 -0.788269 1.000000
tan -0.029884 -0.573129 -0.759129 1.000000
tan 0.087420 -0.542749 -0.827453 1.000000
tan 0.040548 -0.517453 -0.854114 1.000000
tan 0.157480 -0.399095 -0.899374 1.000000
tan 0.122264 -0.375845 -0.906194 1.000000
tan 0.336971 -0.348069 -0.871970 1.000000
tan 0.290595 -0.504619 -0.810961 1.000000
tan 0.554653 -0.077748 -0.820262 1.000000
tan 0.814930 -0.031868 -0.538161 1.000000
tan 0.345279 -0.394445 -0.857027 1.000000
tan 0.137392 -0.435241 -0.865026 1.000000
tan 0.564325 -0.127348 -0.785479 1.000000
tan 0.451175 -0.110112 -0.862732 1.000000
tan 0.154194 -0.384835 -0.899498 1.000000
tan 0.191270 -0.472317 -0.860934 1.000000
tan 0.899064 -0.045632 -0.364561 1.000000
tan 0.677041 -0.192386 -0.662161 1.000000
tan 0.442681 -0.210366 -0.778969 1.000000
tan 0.380371 -0.394693 -0.826461 1.000000
tan 0.797136 -0.488437 -0.331205 1.000000
tan 0.405357 -0.573005 -0.714613 1.000000
tan 0.691611 -0.459483 -0.563519 1.000000
tan 0.517825 -0.461529 -0.702709 1.000000
tan 0.169508 -0.611693 -0.750821 1.000000
tan 0.334367 -0.423461 -0.759997 1.000000
tan 0.735383 -0.147436 -0.580755 1.000000
tan 0.565255 -0.544857 -0.609523 1.000000
tan 0.236282 -0.562093 -0.791493 1.000000
tan 0.341497 -0.767251 -0.538471 1.000000
tan 0.304855 -0.754789 -0.564635 1.000000
tan 0.270197 -0.886540 -0.309566 1.000000
tan 0.309009 -0.705561 -0.636121 1.000000
tan 0.524459 -0.778845 -0.218302 1.000000
tan 0.699485 -0.584847 -0.389671 1.000000
tan 0.325439 -0.864096 -0.134664 1.000000
tan 0.844380 -0.504681 -0.111228 1.000000
tan 0.442805 -0.860438 -0.183520 1.000000
tan -0.194556 -0.888958 -0.290966 1.000000
tan 0.295989 -0.933164 -0.110732 1.000000
tan -0.526877 -0.832662 -0.082212 1.000000
tan 0.064976 -0.930250 -0.195052 1.000000
tan -0.517329 -0.793043 -0.193192 1.000000
tan -0.743257 -0.653419 0.018972 1.000000
tan 0.045198 -0.931676 -0.236282 1.000000
tan -0.831484 -0.449997 0.198028 1.000000
tan 0.264741 -0.953066 -0.105896 1.000000
tan -0.933226 -0.269763 0.012400 1.000000
tan -0.644305 -0.759811 -0.014694 1.000000
tan -0.749209 -0.658441 0.065224 1.000000
tan -0.747039 -0.391159 0.493397 1.000000
tan -0.715233 -0.672081 0.037448 1.000000
tan -0.790688 -0.568045 0.059830 1.000000
tan -0.705499 -0.699733 0.100068 1.000000
tan -0.819890 -0.542749 -0.067518 1.000000
tan -0.561969 -0.751069 -0.292640 1.000000
tan -0.883254 -0.446401 0.024304 1.000000
tan -0.645669 -0.764523 -0.020336 1.000000
tan 0.067518 -0.992126 -0.118110 1.000000
tan -0.828074 -0.540145 -0.098580 1.000000
tan 0.246636 -0.937442 0.133920 1.000000
tan -0.100998 -0.959266 0.020274 1.000000
tan -0.541509 -0.829438 -0.044330 1.000000
tan -0.039060 -0.932482 0.163804 1.000000
tan 0.320975 -0.944882 0.022320 1.000000
tan -0.135160 -0.665757 0.533821 1.000000
tan 0.471325 -0.855788 -0.044826 1.000000
tan 0.153450 -0.794841 0.383905 1.000000
tan 0.503317 -0.866204 0.072168 1.000000
tan -0.599727 -0.560543 0.567611 1.000000
tan 0.264121 -0.809721 0.343481 1.000000
tan 0.868002 -0.455825 -0.051088 1.000000
tan 0.688387 -0.688325 0.227603 1.000000
tan 0.881146 -0.293509 0.318185 1.000000
tan -0.045198 -0.770971 0.630107 1.000000
tan 0.922748 -0.228656 0.297415 1.000000
tan 0.906194 -0.406659 0.136648 1.000000
tan 0.843078 -0.199640 -0.214954 1.000000
tan 0.793788 -0.582367 -0.149358 1.000000
tan 0.900738 -0.287681 -0.305041 1.000000
tan 0.953252 -0.247690 -0.183024 1.000000
tan -0.136648 -0.906194 0.399281 1.000000
tan -0.134602 -0.876496 0.428111 1.000000
tan -0.337281 -0.788517 0.429165 1.000000
tan -0.183024 -0.953252 0.222395 1.000000
tan -0.189472 -0.854548 0.421787 1.000000
tan -0.284457 -0.937938 0.209747 1.000000
tan -0.525451 -0.714613 0.167214 1.000000
tan -0.338831 -0.865150 0.185132 1.000000
tan -0.462831 -0.771591 -0.391531 1.000000
tan -0.433071 -0.897638 -0.077748 1.000000
tan -0.362143 -0.735941 -0.558993 1.000000
tan -0.643189 -0.735569 -0.182900 1.000000
tan -0.574865 -0.607849 -0.548887 1.000000
tan -0.610453 -0.672949 -0.418129 1.000000
tan -0.479261 -0.866080 -0.080972 1.000000
tan -0.710149 -0.685225 -0.121272 1.000000
tan -0.472317 -0.839606 -0.247752 1.000000
tan -0.976502 -0.154566 -0.131750 1.000000
tan -0.768306 -0.417509 -0.449873 1.000000
tan -0.952756 -0.038564 -0.299213 1.000000
tan -0.906194 -0.103974 -0.414037 1.000000
tan -0.340257 -0.569533 -0.734453 1.000000
tan -0.716101 0.012276 -0.619257 1.000000
tan -0.309071 -0.718643 -0.629983 1.000000
tan -0.524707 -0.106578 -0.712071 1.000000
tan -0.295369 -0.521979 -0.768429 1.000000
tan -0.232438 -0.555769 -0.798995 1.000000
tan -0.169756 -0.765081 -0.626821 1.000000
tan -0.472751 -0.868002 -0.172918 1.000000
tan -0.550251 -0.813752 -0.183024 1.000000
tan -0.458429 -0.876496 0.089218 1.000000
tan -0.503751 -0.844752 0.135284 1.000000
tan -0.397607 -0.862732 0.075826 1.000000
tan -0.432761 -0.830058 -0.112840 1.000000
tan -0.432079 -0.848720 0.223945 1.000000
tan -0.472379 -0.834026 0.241491 1.000000
tan -0.563953 -0.779961 0.185008 1.000000
tan -0.723169 -0.642693 0.206770 1.000000
tan -0.472999 -0.772273 0.113832 1.000000
tan -0.662285 -0.681815 0.268213 1.000000
tan -0.784674 -0.520801 0.017360 1.000000
tan -0.619629 -0.746667 0.243599 1.000000
tan -0.609523 -0.651559 0.458677 1.000000
tan -0.732097 -0.632959 -0.022878 1.000000
tan -0.704941 -0.645173 0.207948 1.000000
tan -0.731787 -0.143158 -0.665137 1.000000
tan -0.634881 -0.664207 -0.375225 1.000000
tan -0.719759 -0.419493 -0.540455 1.000000
tan -0.734453 -0.520305 -0.361151 1.000000
tan -0.744249 -0.547089 -0.351045 1.000000
tan -0.803088 -0.497861 -0.124000 1.000000
tan -0.849712 -0.467295 -0.018662 1.000000
tan -0.780210 -0.501209 -0.185752 1.000000
tan -0.550685 -0.768740 -0.307831 1.000000
tan -0.846488 -0.472813 -0.164176 1.000000
tan -0.721185 -0.484593 -0.470953 1.000000
tan -0.570153 -0.609461 -0.545043 1.000000
tan -0.774258 -0.528861 -0.237770 1.000000
tan 0.348937 -0.465249 0.713497 1.000000
tan -0.709281 -0.685225 -0.155992 1.000000
tan 0.042160 -0.922252 -0.341001 1.000000
tan 0.907186 -0.361337 -0.017856 1.000000
tan 0.410999 -0.743195 0.464629 1.000000
tan 0.899622 -0.378325 -0.182528 1.000000
tan 0.798066 -0.527869 -0.090520 1.000000
tan 0.605617 0.317813 -0.611817 1.000000
tan 0.919958 0.254944 0.087668 1.000000
tan 0.855974 0.027776 -0.358485 1.000000
tan 0.796826 -0.113832 -0.595945 1.000000
tan 0.930250 0.195052 0.156364 1.000000
tan 0.855106 0.296609 0.160704 1.000000
tan 0.918904 -0.079918 0.016988 1.000000
tan 0.727819 0.685721 -0.021266 1.000000
tan 0.722115 0.526443 0.287742 1.000000
tan 0.762973 0.312171 0.562899 1.000000
tan 0.671895 0.448075 -0.588195 1.000000
tan -0.302437 0.865646 -0.308017 1.000000
tan -0.114948 0.953066 0.136152 1.000000
tan -0.528117 0.817782 0.174592 1.000000
f 3/3/3 2/2/2 1/1/1
f 1/1/1 4/4/4 3/3/3
f 4/4/4 1/1/1 5/5/5
f 4/4/4 5/5/5 6/6/6
f 6/6/6 5/5/5 7/7/7
f 6/6/6 8/8/8 4/4/4
f 4/4/4 8/8/8 9/9/9
f 10/10/10 9/9/9 8/8/8
f 10/10/10 8/8/8 11/11/11
f 7/7/7 12/12/12 6/6/6
f 11/11/11 8/8/8 13/13/13
f 13/13/13 14/14/14 11/11/11
f 15/15/15 8/8/8 6/6/6
f 15/15/15 6/6/6 12/12/12
f 8/8/8 15/15/15 16/16/16
f 16/16/16 13/13/13 8/8/8
f 12/12/12 17/17/17 15/15/15
f 18/18/18 12/12/12 7/7/7
f 12/12/12 18/18/18 17/17/17
f 18/18/18 7/7/7 19/19/19
f 18/18/18 19/19/19 20/20/20
f 15/15/15 17/17/17 21/21/21
f 15/15/15 21/21/21 16/16/16
f 20/20/20 22/22/22 18/18/18
f 22/22/22 20/20/20 23/23/23
f 22/22/22 23/23/23 24/24/24
f 16/16/16 21/21/21 25/25/25
f 24/24/24 26/26/26 22/22/22
f 27/27/27 25/25/25 21/21/21
f 21/21/21 17/17/17 27/27/27
f 26/26/26 24/24/24 28/28/28
f 29/29/29 28/28/28 24/24/24
f 30/30/30 27/27/27 17/17/17
f 29/29/29 31/31/31 28/28/28
f 26/26/26 28/28/28 31/31/31
f 29/29/29 33/33/33 32/32/32
f 31/31/31 29/29/29 34/34/34
f 32/32/32 34/34/34 29/29/29
f 31/31/31 34/34/34 35/35/35
f 32/32/32 35/35/35 34/34/34
f 36/36/36 26/26/26 31/31/31
f 37/37/37 35/35/35 32/32/32
f 37/37/37 32/32/32 38/38/38
f 31/31/31 35/35/35 39/39/39
f 31/31/31 39/39/39 36/36/36
f 40/40/40 37/37/37 38/38/38
f 26/26/26 36/36/36 41/41/41
f 41/41/41 22/22/22 26/26/26
f 22/22/22 41/41/41 42/42/42
f 41/41/41 36/36/36 42/42/42
f 42/42/42 18/18/18 22/22/22
f 43/43/43 37/37/37 40/40/40
f 35/35/35 37/37/37 43/43/43
f 44/44/44 40/40/40 38/38/38
f 44/44/44 38/38/38 45/45/45
f 46/46/46 43/43/43 40/40/40
f 45/45/45 47/47/47 44/44/44
f 47/47/47 45/45/45 48/48/48
f 47/47/47 48/48/48 49/49/49
f 40/40/40 44/44/44 50/50/50
f 40/40/40 50/50/50 46/46/46
f 47/47/47 51/51/51 44/44/44
f 50/50/50 44/44/44 52/52/52
f 51/51/51 52/52/52 44/44/44
f 52/52/52 53/53/53 50/50/50
f 53/53/53 46/46/46 50/50/50
f 54/54/54 52/52/52 51/51/51
f 53/53/53 52/52/52 54/54/54
f 51/51/51 47/47/47 55/55/55
f 49/49/49 55/55/55 47/47/47
f 51/51/51 56/56/56 54/54/54
f 51/51/51 55/55/55 56/56/56
f 49/49/49 57/57/57 55/55/55
f 55/55/55 57/57/57 56/56/56
f 57/57/57 49/49/49 58/58/58
f 59/59/59 58/58/58 49/49/49
f 58/58/58 59/59/59 60/60/60
f 60/60/60 61/61/61 58/58/58
f 57/57/57 58/58/58 61/61/61
f 60/60/60 62/62/62 61/61/61
f 63/63/63 56/56/56 57/57/57
f 61/61/61 62/62/62 64/64/64
f 65/65/65 64/64/64 62/62/62
f 61/61/61 66/66/66 57/57/57
f 57/57/57 66/66/66 63/63/63
f 64/64/64 67/67/67 61/61/61
f 61/61/61 67/67/67 66/66/66
f 64/64/64 65/65/65 68/68/68
f 67/67/67 64/64/64 68/68/68
f 69/69/69 66/66/66 67/67/67
f 67/67/67 68/68/68 69/69/69
f 66/66/66 69/69/69 63/63/63
f 70/70/70 68/68/68 65/65/65
f 65/65/65 71/71/71 70/70/70
f 72/72/72 69/69/69 68/68/68
f 68/68/68 70/70/70 73/73/73
f 73/73/73 72/72/72 68/68/68
f 70/70/70 71/71/71 74/74/74
f 74/74/74 73/73/73 70/70/70
f 63/63/63 69/69/69 75/75/75
f 69/69/69 72/72/72 75/75/75
f 56/56/56 63/63/63 76/76/76
f 76/76/76 63/63/63 75/75/75
f 54/54/54 56/56/56 76/76/76
f 77/77/77 72/72/72 73/73/73
f 73/73/73 74/74/74 77/77/77
f 76/76/76 78/78/78 54/54/54
f 53/53/53 54/54/54 78/78/78
f 79/79/79 78/78/78 76/76/76
f 75/75/75 79/79/79 76/76/76
f 53/53/53 78/78/78 80/80/80
f 78/78/78 79/79/79 80/80/80
f 80/80/80 81/81/81 53/53/53
f 46/46/46 53/53/53 81/81/81
f 80/80/80 79/79/79 82/82/82
f 82/82/82 79/79/79 75/75/75
f 80/80/80 82/82/82 81/81/81
f 72/72/72 83/83/83 75/75/75
f 82/82/82 75/75/75 83/83/83
f 77/77/77 83/83/83 72/72/72
f 84/84/84 81/81/81 82/82/82
f 83/83/83 84/84/84 82/82/82
f 85/85/85 81/81/81 84/84/84
f 84/84/84 83/83/83 85/85/85
f 81/81/81 86/86/86 46/46/46
f 86/86/86 81/81/81 85/85/85
f 43/43/43 46/46/46 86/86/86
f 85/85/85 83/83/83 87/87/87
f 86/86/86 88/88/88 43/43/43
f 43/43/43 88/88/88 35/35/35
f 89/89/89 86/86/86 85/85/85
f 86/86/86 89/89/89 88/88/88
f 90/90/90 85/85/85 87/87/87
f 85/85/85 90/90/90 89/89/89
f 91/91/91 87/87/87 83/83/83
f 91/91/91 90/90/90 87/87/87
f 83/83/83 77/77/77 91/91/91
f 92/92/92 89/89/89 90/90/90
f 92/92/92 88/88/88 89/89/89
f 88/88/88 93/93/93 35/35/35
f 39/39/39 35/35/35 93/93/93
f 93/93/93 88/88/88 94/94/94
f 92/92/92 94/94/94 88/88/88
f 39/39/39 93/93/93 94/94/94
f 90/90/90 95/95/95 92/92/92
f 94/94/94 92/92/92 95/95/95
f 96/96/96 95/95/95 90/90/90
f 94/94/94 95/95/95 96/96/96
f 97/97/97 90/90/90 91/91/91
f 90/90/90 97/97/97 96/96/96
f 91/91/91 98/98/98 97/97/97
f 97/97/97 99/99/99 96/96/96
f 99/99/99 97/97/97 98/98/98
f 91/91/91 100/100/100 98/98/98
f 91/91/91 77/77/77 100/100/100
f 101/101/101 100/100/100 77/77/77
f 101/101/101 77/77/77 74/74/74
f 102/102/102 98/98/98 100/100/100
f 101/101/101 102/102/102 100/100/100
f 74/74/74 103/103/103 101/101/101
f 103/103/103 74/74/74 71/71/71
f 71/71/71 104/104/104 103/103/103
f 105/105/105 103/103/103 104/104/104
f 101/101/101 103/103/103 106/106/106
f 106/106/106 102/102/102 101/101/101
f 107/107/107 103/103/103 105/105/105
f 103/103/103 107/107/107 106/106/106
f 105/105/105 108/108/108 107/107/107
f 107/107/107 108/108/108 109/109/109
f 109/109/109 110/110/110 107/107/107
f 107/107/107 110/110/110 111/111/111
f 106/106/106 107/107/107 111/111/111
f 110/110/110 112/112/112 111/111/111
f 112/112/112 110/110/110 113/113/113
f 111/111/111 114/114/114 106/106/106
f 114/114/114 111/111/111 112/112/112
f 114/114/114 115/115/115 106/106/106
f 112/112/112 116/116/116 114/114/114
f 115/115/115 114/114/114 116/116/116
f 117/117/117 106/106/106 115/115/115
f 115/115/115 116/116/116 117/117/117
f 102/102/102 106/106/106 117/117/117
f 116/116/116 112/112/112 118/118/118
f 113/113/113 118/118/118 112/112/112
f 119/119/119 117/117/117 116/116/116
f 119/119/119 116/116/116 118/118/118
f 120/120/120 102/102/102 117/117/117
f 117/117/117 119/119/119 121/121/121
f 121/121/121 120/120/120 117/117/117
f 122/122/122 121/121/121 119/119/119
f 123/123/123 120/120/120 121/121/121
f 121/121/121 122/122/122 123/123/123
f 119/119/119 124/124/124 122/122/122
f 123/123/123 122/122/122 124/124/124
f 118/118/118 124/124/124 119/119/119
f 124/124/124 125/125/125 123/123/123
f 125/125/125 124/124/124 118/118/118
f 120/120/120 123/123/123 126/126/126
f 102/102/102 120/120/120 126/126/126
f 123/123/123 125/125/125 127/127/127
f 127/127/127 126/126/126 123/123/123
f 118/118/118 128/128/128 125/125/125
f 128/128/128 127/127/127 125/125/125
f 126/126/126 129/129/129 102/102/102
f 129/129/129 98/98/98 102/102/102
f 98/98/98 129/129/129 99/99/99
f 129/129/129 126/126/126 130/130/130
f 129/129/129 130/130/130 99/99/99
f 126/126/126 127/127/127 131/131/131
f 131/131/131 130/130/130 126/126/126
f 132/132/132 131/131/131 127/127/127
f 133/133/133 132/132/132 127/127/127
f 127/127/127 128/128/128 133/133/133
f 131/131/131 132/132/132 134/134/134
f 133/133/133 134/134/134 132/132/132
f 128/128/128 135/135/135 133/133/133
f 118/118/118 135/135/135 128/128/128
f 136/136/136 134/134/134 133/133/133
f 135/135/135 136/136/136 133/133/133
f 131/131/131 134/134/134 137/137/137
f 134/134/134 136/136/136 137/137/137
f 130/130/130 131/131/131 137/137/137
f 138/138/138 135/135/135 118/118/118
f 137/137/137 139/139/139 130/130/130
f 118/118/118 140/140/140 138/138/138
f 118/118/118 113/113/113 140/140/140
f 140/140/140 141/141/141 138/138/138
f 140/140/140 113/113/113 141/141/141
f 138/138/138 142/142/142 135/135/135
f 136/136/136 135/135/135 142/142/142
f 143/143/143 138/138/138 141/141/141
f 143/143/143 141/141/141 113/113/113
f 144/144/144 142/142/142 138/138/138
f 143/143/143 144/144/144 138/138/138
f 113/113/113 145/145/145 143/143/143
f 145/145/145 113/113/113 146/146/146
f 146/146/146 147/147/147 145/145/145
f 147/147/147 148/148/148 145/145/145
f 145/145/145 148/148/148 149/149/149
f 149/149/149 148/148/148 150/150/150
f 149/149/149 151/151/151 145/145/145
f 151/151/151 143/143/143 145/145/145
f 149/149/149 150/150/150 152/152/152
f 152/152/152 151/151/151 149/149/149
f 143/143/143 151/151/151 153/153/153
f 152/152/152 153/153/153 151/151/151
f 143/143/143 153/153/153 154/154/154
f 154/154/154 144/144/144 143/143/143
f 153/153/153 152/152/152 155/155/155
f 155/155/155 154/154/154 153/153/153
f 156/156/156 152/152/152 150/150/150
f 150/150/150 157/157/157 156/156/156
f 155/155/155 152/152/152 158/158/158
f 159/159/159 156/156/156 157/157/157
f 157/157/157 160/160/160 159/159/159
f 161/161/161 152/152/152 156/156/156
f 156/156/156 159/159/159 161/161/161
f 161/161/161 158/158/158 152/152/152
f 162/162/162 159/159/159 160/160/160
f 160/160/160 163/163/163 162/162/162
f 161/161/161 159/159/159 164/164/164
f 159/159/159 162/162/162 164/164/164
f 162/162/162 163/163/163 165/165/165
f 166/166/166 165/165/165 163/163/163
f 164/164/164 162/162/162 167/167/167
f 165/165/165 167/167/167 162/162/162
f 164/164/164 168/168/168 161/161/161
f 168/168/168 169/169/169 161/161/161
f 158/158/158 161/161/161 169/169/169
f 164/164/164 170/170/170 168/168/168
f 169/169/169 168/168/168 170/170/170
f 167/167/167 171/171/171 164/164/164
f 170/170/170 164/164/164 171/171/171
f 169/169/169 172/172/172 158/158/158
f 155/155/155 158/158/158 172/172/172
f 172/172/172 173/173/173 155/155/155
f 173/173/173 154/154/154 155/155/155
f 169/169/169 174/174/174 172/172/172
f 173/173/173 172/172/172 174/174/174
f 174/174/174 169/169/169 175/175/175
f 170/170/170 175/175/175 169/169/169
f 174/174/174 176/176/176 173/173/173
f 154/154/154 173/173/173 177/177/177
f 177/177/177 173/173/173 176/176/176
f 176/176/176 174/174/174 178/178/178
f 176/176/176 178/178/178 177/177/177
f 175/175/175 178/178/178 174/174/174
f 177/177/177 179/179/179 154/154/154
f 179/179/179 177/177/177 178/178/178
f 144/144/144 154/154/154 179/179/179
f 142/142/142 144/144/144 179/179/179
f 175/175/175 180/180/180 178/178/178
f 178/178/178 181/181/181 179/179/179
f 180/180/180 181/181/181 178/178/178
f 179/179/179 182/182/182 142/142/142
f 181/181/181 182/182/182 179/179/179
f 180/180/180 175/175/175 183/183/183
f 180/180/180 184/184/184 181/181/181
f 183/183/183 184/184/184 180/180/180
f 185/185/185 183/183/183 175/175/175
f 175/175/175 170/170/170 185/185/185
f 184/184/184 183/183/183 186/186/186
f 185/185/185 186/186/186 183/183/183
f 187/187/187 185/185/185 170/170/170
f 187/187/187 170/170/170 171/171/171
f 186/186/186 185/185/185 188/188/188
f 171/171/171 189/189/189 187/187/187
f 171/171/171 167/167/167 189/189/189
f 185/185/185 187/187/187 190/190/190
f 188/188/188 185/185/185 190/190/190
f 187/187/187 189/189/189 191/191/191
f 191/191/191 190/190/190 187/187/187
f 192/192/192 189/189/189 167/167/167
f 167/167/167 165/165/165 192/192/192
f 189/189/189 192/192/192 193/193/193
f 189/189/189 193/193/193 191/191/191
f 194/194/194 192/192/192 165/165/165
f 192/192/192 195/195/195 193/193/193
f 195/195/195 192/192/192 194/194/194
f 165/165/165 196/196/196 194/194/194
f 165/165/165 166/166/166 196/196/196
f 195/195/195 194/194/194 197/197/197
f 197/197/197 193/193/193 195/195/195
f 194/194/194 196/196/196 198/198/198
f 194/194/194 198/198/198 197/197/197
f 199/199/199 196/196/196 166/166/166
f 196/196/196 199/199/199 198/198/198
f 166/166/166 200/200/200 199/199/199
f 199/199/199 200/200/200 201/201/201
f 198/198/198 199/199/199 202/202/202
f 201/201/201 202/202/202 199/199/199
f 203/203/203 197/197/197 198/198/198
f 198/198/198 202/202/202 203/203/203
f 201/201/201 204/204/204 202/202/202
f 204/204/204 201/201/201 205/205/205
f 204/204/204 205/205/205 206/206/206
f 207/207/207 202/202/202 204/204/204
f 202/202/202 207/207/207 203/203/203
f 207/207/207 204/204/204 206/206/206
f 197/197/197 203/203/203 208/208/208
f 207/207/207 208/208/208 203/203/203
f 193/193/193 197/197/197 208/208/208
f 206/206/206 209/209/209 207/207/207
f 208/208/208 207/207/207 210/210/210
f 210/210/210 207/207/207 209/209/209
f 193/193/193 208/208/208 211/211/211
f 191/191/191 193/193/193 211/211/211
f 212/212/212 208/208/208 210/210/210
f 211/211/211 208/208/208 212/212/212
f 210/210/210 209/209/209 212/212/212
f 213/213/213 209/209/209 206/206/206
f 206/206/206 14/14/14 213/213/213
f 13/13/13 213/213/213 14/14/14
f 214/214/214 209/209/209 213/213/213
f 13/13/13 214/214/214 213/213/213
f 212/212/212 209/209/209 215/215/215
f 209/209/209 214/214/214 215/215/215
f 215/215/215 216/216/216 212/212/212
f 216/216/216 211/211/211 212/212/212
f 214/214/214 217/217/217 215/215/215
f 216/216/216 218/218/218 211/211/211
f 217/217/217 219/219/219 215/215/215
f 219/219/219 216/216/216 215/215/215
f 217/217/217 214/214/214 220/220/220
f 220/220/220 219/219/219 217/217/217
f 221/221/221 216/216/216 219/219/219
f 218/218/218 216/216/216 221/221/221
f 219/219/219 220/220/220 222/222/222
f 222/222/222 221/221/221 219/219/219
f 223/223/223 220/220/220 214/214/214
f 222/222/222 220/220/220 223/223/223
f 224/224/224 211/211/211 218/218/218
f 211/211/211 224/224/224 191/191/191
f 218/218/218 225/225/225 224/224/224
f 221/221/221 225/225/225 218/218/218
f 226/226/226 191/191/191 224/224/224
f 191/191/191 226/226/226 190/190/190
f 224/224/224 225/225/225 227/227/227
f 227/227/227 226/226/226 224/224/224
f 228/228/228 190/190/190 226/226/226
f 226/226/226 227/227/227 228/228/228
f 190/190/190 228/228/228 188/188/188
f 229/229/229 227/227/227 225/225/225
f 221/221/221 229/229/229 225/225/225
f 230/230/230 228/228/228 227/227/227
f 227/227/227 229/229/229 230/230/230
f 229/229/229 221/221/221 231/231/231
f 231/231/231 230/230/230 229/229/229
f 222/222/222 231/231/231 221/221/221
f 228/228/228 230/230/230 232/232/232
f 232/232/232 188/188/188 228/228/228
f 222/222/222 233/233/233 231/231/231
f 230/230/230 231/231/231 233/233/233
f 233/233/233 222/222/222 223/223/223
f 230/230/230 234/234/234 232/232/232
f 234/234/234 230/230/230 233/233/233
f 188/188/188 232/232/232 235/235/235
f 186/186/186 188/188/188 235/235/235
f 236/236/236 232/232/232 234/234/234
f 235/235/235 237/237/237 186/186/186
f 238/238/238 235/235/235 232/232/232
f 238/238/238 232/232/232 236/236/236
f 237/237/237 235/235/235 239/239/239
f 238/238/238 239/239/239 235/235/235
f 240/240/240 186/186/186 237/237/237
f 240/240/240 237/237/237 239/239/239
f 186/186/186 240/240/240 184/184/184
f 239/239/239 238/238/238 241/241/241
f 242/242/242 184/184/184 240/240/240
f 184/184/184 242/242/242 181/181/181
f 243/243/243 241/241/241 238/238/238
f 236/236/236 243/243/243 238/238/238
f 181/181/181 242/242/242 244/244/244
f 244/244/244 182/182/182 181/181/181
f 240/240/240 245/245/245 242/242/242
f 245/245/245 240/240/240 246/246/246
f 239/239/239 246/246/246 240/240/240
f 247/247/247 242/242/242 245/245/245
f 246/246/246 248/248/248 245/245/245
f 247/247/247 245/245/245 248/248/248
f 247/247/247 249/249/249 242/242/242
f 248/248/248 249/249/249 247/247/247
f 249/249/249 244/244/244 242/242/242
f 248/248/248 246/246/246 250/250/250
f 250/250/250 249/249/249 248/248/248
f 239/239/239 250/250/250 246/246/246
f 249/249/249 251/251/251 244/244/244
f 250/250/250 239/239/239 252/252/252
f 241/241/241 252/252/252 239/239/239
f 253/253/253 249/249/249 250/250/250
f 253/253/253 251/251/251 249/249/249
f 250/250/250 252/252/252 254/254/254
f 254/254/254 253/253/253 250/250/250
f 252/252/252 241/241/241 255/255/255
f 255/255/255 254/254/254 252/252/252
f 241/241/241 243/243/243 255/255/255
f 253/253/253 254/254/254 256/256/256
f 243/243/243 257/257/257 255/255/255
f 254/254/254 255/255/255 258/258/258
f 257/257/257 258/258/258 255/255/255
f 259/259/259 254/254/254 258/258/258
f 254/254/254 259/259/259 256/256/256
f 260/260/260 258/258/258 257/257/257
f 258/258/258 260/260/260 259/259/259
f 257/257/257 243/243/243 261/261/261
f 236/236/236 261/261/261 243/243/243
f 262/262/262 260/260/260 257/257/257
f 261/261/261 236/236/236 263/263/263
f 234/234/234 263/263/263 236/236/236
f 263/263/263 234/234/234 233/233/233
f 264/264/264 257/257/257 261/261/261
f 257/257/257 264/264/264 262/262/262
f 263/263/263 265/265/265 261/261/261
f 260/260/260 262/262/262 266/266/266
f 266/266/266 259/259/259 260/260/260
f 265/265/265 267/267/267 261/261/261
f 261/261/261 267/267/267 264/264/264
f 265/265/265 263/263/263 268/268/268
f 233/233/233 268/268/268 263/263/263
f 267/267/267 265/265/265 269/269/269
f 268/268/268 269/269/269 265/265/265
f 267/267/267 269/269/269 270/270/270
f 268/268/268 270/270/270 269/269/269
f 270/270/270 25/25/25 267/267/267
f 25/25/25 270/270/270 16/16/16
f 271/271/271 267/267/267 25/25/25
f 271/271/271 264/264/264 267/267/267
f 25/25/25 27/27/27 271/271/271
f 271/271/271 27/27/27 30/30/30
f 272/272/272 16/16/16 270/270/270
f 270/270/270 268/268/268 272/272/272
f 272/272/272 13/13/13 16/16/16
f 273/273/273 272/272/272 268/268/268
f 13/13/13 272/272/272 274/274/274
f 272/272/272 273/273/273 274/274/274
f 274/274/274 273/273/273 268/268/268
f 214/214/214 13/13/13 274/274/274
f 274/274/274 223/223/223 214/214/214
f 268/268/268 275/275/275 274/274/274
f 268/268/268 233/233/233 275/275/275
f 223/223/223 274/274/274 276/276/276
f 223/223/223 276/276/276 233/233/233
f 277/277/277 274/274/274 275/275/275
f 277/277/277 275/275/275 233/233/233
f 276/276/276 274/274/274 277/277/277
f 276/276/276 277/277/277 233/233/233
f 30/30/30 278/278/278 271/271/271
f 279/279/279 278/278/278 30/30/30
f 279/279/279 30/30/30 17/17/17
f 279/279/279 17/17/17 18/18/18
f 271/271/271 278/278/278 280/280/280
f 280/280/280 264/264/264 271/271/271
f 280/280/280 262/262/262 264/264/264
f 278/278/278 279/279/279 281/281/281
f 281/281/281 280/280/280 278/278/278
f 18/18/18 282/282/282 279/279/279
f 279/279/279 282/282/282 281/281/281
f 18/18/18 42/42/42 282/282/282
f 280/280/280 281/281/281 283/283/283
f 281/281/281 282/282/282 283/283/283
f 262/262/262 280/280/280 284/284/284
f 280/280/280 283/283/283 284/284/284
f 262/262/262 284/284/284 266/266/266
f 285/285/285 283/283/283 282/282/282
f 286/286/286 266/266/266 284/284/284
f 259/259/259 266/266/266 286/286/286
f 287/287/287 284/284/284 283/283/283
f 283/283/283 285/285/285 287/287/287
f 288/288/288 286/286/286 284/284/284
f 284/284/284 287/287/287 288/288/288
f 286/286/286 289/289/289 259/259/259
f 256/256/256 259/259/259 289/289/289
f 286/286/286 288/288/288 290/290/290
f 291/291/291 289/289/289 286/286/286
f 290/290/290 291/291/291 286/286/286
f 289/289/289 292/292/292 256/256/256
f 293/293/293 289/289/289 291/291/291
f 289/289/289 293/293/293 292/292/292
f 294/294/294 256/256/256 292/292/292
f 294/294/294 292/292/292 293/293/293
f 294/294/294 253/253/253 256/256/256
f 253/253/253 294/294/294 251/251/251
f 295/295/295 251/251/251 294/294/294
f 293/293/293 295/295/295 294/294/294
f 295/295/295 244/244/244 251/251/251
f 291/291/291 296/296/296 293/293/293
f 293/293/293 296/296/296 295/295/295
f 290/290/290 296/296/296 291/291/291
f 244/244/244 295/295/295 297/297/297
f 296/296/296 297/297/297 295/295/295
f 297/297/297 182/182/182 244/244/244
f 182/182/182 297/297/297 298/298/298
f 298/298/298 297/297/297 296/296/296
f 298/298/298 142/142/142 182/182/182
f 296/296/296 290/290/290 299/299/299
f 299/299/299 290/290/290 288/288/288
f 296/296/296 300/300/300 298/298/298
f 142/142/142 298/298/298 300/300/300
f 299/299/299 300/300/300 296/296/296
f 142/142/142 300/300/300 136/136/136
f 299/299/299 288/288/288 301/301/301
f 302/302/302 136/136/136 300/300/300
f 300/300/300 299/299/299 303/303/303
f 300/300/300 303/303/303 302/302/302
f 299/299/299 301/301/301 303/303/303
f 136/136/136 302/302/302 304/304/304
f 303/303/303 304/304/304 302/302/302
f 304/304/304 303/303/303 301/301/301
f 304/304/304 137/137/137 136/136/136
f 137/137/137 304/304/304 305/305/305
f 301/301/301 305/305/305 304/304/304
f 305/305/305 139/139/139 137/137/137
f 306/306/306 301/301/301 288/288/288
f 305/305/305 301/301/301 306/306/306
f 287/287/287 306/306/306 288/288/288
f 139/139/139 305/305/305 307/307/307
f 306/306/306 307/307/307 305/305/305
f 308/308/308 306/306/306 287/287/287
f 307/307/307 306/306/306 309/309/309
f 306/306/306 308/308/308 309/309/309
f 287/287/287 310/310/310 308/308/308
f 285/285/285 310/310/310 287/287/287
f 285/285/285 311/311/311 310/310/310
f 308/308/308 310/310/310 311/311/311
f 311/311/311 285/285/285 282/282/282
f 311/311/311 312/312/312 308/308/308
f 312/312/312 311/311/311 282/282/282
f 313/313/313 308/308/308 312/312/312
f 313/313/313 309/309/309 308/308/308
f 282/282/282 314/314/314 312/312/312
f 312/312/312 314/314/314 313/313/313
f 314/314/314 282/282/282 315/315/315
f 42/42/42 315/315/315 282/282/282
f 313/313/313 314/314/314 316/316/316
f 309/309/309 313/313/313 316/316/316
f 315/315/315 317/317/317 314/314/314
f 317/317/317 316/316/316 314/314/314
f 42/42/42 318/318/318 315/315/315
f 317/317/317 315/315/315 318/318/318
f 318/318/318 42/42/42 36/36/36
f 316/316/316 319/319/319 309/309/309
f 307/307/307 309/309/309 319/319/319
f 317/317/317 320/320/320 316/316/316
f 320/320/320 319/319/319 316/316/316
f 319/319/319 321/321/321 307/307/307
f 319/319/319 320/320/320 321/321/321
f 307/307/307 321/321/321 139/139/139
f 320/320/320 317/317/317 322/322/322
f 322/322/322 321/321/321 320/320/320
f 318/318/318 322/322/322 317/317/317
f 139/139/139 321/321/321 323/323/323
f 323/323/323 130/130/130 139/139/139
f 130/130/130 323/323/323 99/99/99
f 321/321/321 322/322/322 324/324/324
f 323/323/323 325/325/325 99/99/99
f 325/325/325 96/96/96 99/99/99
f 326/326/326 323/323/323 321/321/321
f 324/324/324 326/326/326 321/321/321
f 326/326/326 327/327/327 323/323/323
f 325/325/325 323/323/323 327/327/327
f 327/327/327 326/326/326 324/324/324
f 96/96/96 325/325/325 328/328/328
f 327/327/327 328/328/328 325/325/325
f 328/328/328 329/329/329 96/96/96
f 96/96/96 329/329/329 94/94/94
f 330/330/330 328/328/328 327/327/327
f 330/330/330 329/329/329 328/328/328
f 324/324/324 331/331/331 327/327/327
f 327/327/327 331/331/331 330/330/330
f 94/94/94 329/329/329 332/332/332
f 94/94/94 332/332/332 39/39/39
f 329/329/329 330/330/330 333/333/333
f 333/333/333 332/332/332 329/329/329
f 333/333/333 330/330/330 331/331/331
f 334/334/334 39/39/39 332/332/332
f 334/334/334 332/332/332 333/333/333
f 39/39/39 334/334/334 36/36/36
f 36/36/36 334/334/334 318/318/318
f 331/331/331 335/335/335 333/333/333
f 333/333/333 335/335/335 334/334/334
f 335/335/335 318/318/318 334/334/334
f 335/335/335 331/331/331 324/324/324
f 318/318/318 335/335/335 322/322/322
f 335/335/335 324/324/324 322/322/322
f 338/338/338 337/337/337 336/336/336
f 338/338/338 339/339/339 337/337/337
f 340/340/340 338/338/338 336/336/336
f 341/341/341 340/340/340 336/336/336
f 339/339/339 338/338/338 342/342/342
f 340/340/340 342/342/342 338/338/338
f 342/342/342 343/343/343 339/339/339
f 343/343/343 344/344/344 339/339/339
f 342/342/342 340/340/340 345/345/345
f 340/340/340 341/341/341 345/345/345
f 345/345/345 343/343/343 342/342/342
f 341/341/341 346/346/346 345/345/345
f 341/341/341 347/347/347 346/346/346
f 346/346/346 348/348/348 345/345/345
f 347/347/347 348/348/348 346/346/346
f 343/343/343 345/345/345 349/349/349
f 348/348/348 349/349/349 345/345/345
f 350/350/350 343/343/343 349/349/349
f 350/350/350 349/349/349 348/348/348
f 343/343/343 351/351/351 344/344/344
f 351/351/351 343/343/343 350/350/350
f 352/352/352 344/344/344 351/351/351
f 353/353/353 350/350/350 348/348/348
f 347/347/347 353/353/353 348/348/348
f 347/347/347 354/354/354 353/353/353
f 351/351/351 350/350/350 355/355/355
f 350/350/350 353/353/353 355/355/355
f 351/351/351 355/355/355 352/352/352
f 355/355/355 353/353/353 354/354/354
f 356/356/356 352/352/352 355/355/355
f 355/355/355 354/354/354 356/356/356
