mtllib SM_Trash_Bags_01_LOD2.mtl
g SM_Trash_Bags_01_LOD2
#Vertices 453
#Indices 2481
#Section 0 Offset 0 NumIndices 2481 MaterialIndex 0 MI_Trash_Bag
v 0.239639 0.051251 -0.091417
v 0.245640 0.066831 -0.087574
v 0.251922 0.108201 -0.093947
v 0.226241 0.136803 -0.140823
v 0.232076 0.041820 -0.093529
v 0.248251 0.215211 -0.135226
v 0.250939 0.160343 -0.085168
v 0.249149 0.210741 -0.089940
v 0.228038 0.030895 -0.123777
v 0.243817 0.269585 -0.146601
v 0.247564 0.237636 -0.062649
v 0.252371 0.303870 -0.035136
v 0.232156 0.019030 -0.105051
v 0.232943 0.026658 -0.084509
v 0.225488 0.015996 -0.085516
v 0.205115 0.002042 -0.069755
v 0.208384 0.020223 -0.126948
v 0.213565 0.059675 -0.141581
v 0.182271 0.006498 -0.083227
v 0.206849 0.001104 -0.055065
v 0.193354 0.187841 -0.199379
v 0.176957 0.018930 -0.042535
v 0.175239 0.021217 -0.023391
v 0.239206 0.246856 -0.167394
v 0.158805 0.048237 -0.046065
v 0.153582 0.027841 -0.017174
v 0.237214 0.330084 -0.164824
v 0.260769 0.378223 -0.004660
v 0.152756 0.069145 -0.113258
v 0.130472 0.020066 -0.020965
v 0.180223 0.042865 -0.052245
v 0.121502 0.035999 -0.099792
v 0.082088 0.006286 -0.023647
v 0.171844 0.030147 -0.074988
v 0.174623 0.067516 -0.071053
v 0.177759 0.080343 -0.100870
v 0.171007 0.029291 -0.097100
v 0.177246 0.044541 -0.131170
v 0.171864 0.084027 -0.160474
v 0.160626 0.089078 -0.153035
v 0.161422 0.106052 -0.128705
v 0.174408 0.114047 -0.135170
v 0.154996 0.125230 -0.192518
v 0.136595 0.082023 -0.157904
v 0.169546 0.126825 -0.193858
v 0.117154 0.051069 -0.136880
v 0.182102 0.132415 -0.189464
v 0.158969 0.161566 -0.216277
v 0.159179 0.198731 -0.222933
v 0.149414 0.171606 -0.199931
v 0.158310 0.133668 -0.180193
v 0.166396 0.141817 -0.172128
v 0.151375 0.178694 -0.188811
v 0.151661 0.145411 -0.163539
v 0.138242 0.203797 -0.213758
v 0.143802 0.170854 -0.198572
v 0.149243 0.131088 -0.175807
v 0.114433 0.147619 -0.209133
v 0.113774 0.200424 -0.224652
v 0.146139 0.237736 -0.235211
v 0.189440 0.223184 -0.225080
v 0.110764 0.229888 -0.232792
v 0.213913 0.262370 -0.203208
v 0.153666 0.271769 -0.223251
v 0.094342 0.269170 -0.244769
v 0.080058 0.207708 -0.246874
v 0.058107 0.325345 -0.246830
v 0.087587 0.073071 -0.162279
v 0.030622 0.324833 -0.248198
v 0.062609 0.026592 -0.114070
v 0.013515 0.007603 -0.029034
v 0.016058 0.017871 -0.073752
v -0.017258 0.001760 -0.031357
v -0.011871 0.054240 -0.137391
v -0.057131 -0.005526 -0.074334
v -0.061101 -0.005983 -0.032937
v -0.078876 0.000255 -0.033952
v -0.044729 0.010290 -0.109487
v -0.069063 0.046953 -0.129002
v -0.082299 0.015218 -0.102378
v -0.084782 0.009576 -0.069211
v -0.113905 0.060843 -0.069675
v -0.091120 0.044747 -0.112790
v -0.098951 0.027015 -0.026550
v -0.092562 0.008435 0.001679
v -0.131295 0.096216 -0.091090
v -0.120980 0.025951 -0.014749
v -0.123338 0.004308 0.000610
v -0.092367 0.086381 -0.130761
v -0.145883 0.010554 -0.013279
v -0.156762 0.019521 0.019434
v -0.023209 0.140977 -0.195413
v -0.186177 0.025627 -0.003218
v -0.191349 0.033921 0.027613
v 0.065344 0.154467 -0.218326
v -0.102968 0.157728 -0.156553
v -0.041187 0.205212 -0.206346
v 0.057318 0.223022 -0.246501
v -0.007181 0.321404 -0.228236
v -0.080567 0.201628 -0.185257
v 0.002823 0.330444 -0.236354
v -0.080288 0.363225 -0.172790
v 0.044859 0.341219 -0.237858
v -0.032530 0.374065 -0.208802
v -0.107968 0.268032 -0.164916
v -0.150931 0.177962 -0.124657
v -0.147131 0.143380 -0.118114
v -0.156428 0.085705 -0.079786
v -0.139623 0.032807 -0.036217
v -0.167518 0.033730 -0.041634
v -0.199511 0.099940 -0.070942
v -0.178914 0.148153 -0.096942
v -0.212007 0.118276 -0.041865
v -0.223982 0.092598 0.009154
v -0.175803 0.159353 -0.064932
v -0.221514 0.124832 0.001558
v -0.208731 0.050729 0.032799
v -0.215536 0.152274 0.020424
v -0.176991 0.057485 0.047186
v -0.230623 0.165153 0.061361
v -0.205018 0.178618 -0.016763
v -0.164836 0.195511 -0.097032
v -0.174107 0.218861 -0.102991
v -0.217010 0.227431 -0.007065
v -0.136293 0.320685 -0.116694
v -0.191144 0.322178 -0.011740
v -0.224448 0.200461 0.077249
v -0.211847 0.291061 0.020432
v -0.171066 0.368138 -0.008187
v -0.115134 0.357946 -0.131596
v -0.170789 0.393341 0.033205
v -0.160383 0.391524 -0.044818
v -0.178341 0.400833 0.078437
v -0.153096 0.440383 -0.038652
v -0.207693 0.293561 0.073875
v -0.164143 0.441722 0.008562
v -0.175664 0.394058 0.121996
v -0.156622 0.468504 0.083761
v -0.209203 0.207866 0.102761
v -0.226865 0.163379 0.082808
v -0.182465 0.283371 0.118083
v -0.211724 0.100070 0.035152
v -0.135076 0.193684 0.166682
v -0.202736 0.075453 0.036668
v -0.171901 0.095988 0.057938
v -0.183041 0.124666 0.075851
v -0.143650 0.083074 0.044603
v -0.170274 0.151133 0.111135
v -0.177151 0.176142 0.130313
v -0.148066 0.116093 0.103234
v -0.120893 0.142515 0.168984
v -0.089926 0.157287 0.206971
v -0.103573 0.262030 0.203929
v -0.084640 0.097589 0.186232
v -0.151530 0.344689 0.163699
v -0.071623 0.222725 0.230592
v -0.113898 0.328543 0.193256
v -0.118579 0.425880 0.200945
v -0.075744 0.395971 0.227005
v -0.124157 0.511908 0.150400
v -0.040309 0.514775 0.214865
v -0.119168 0.547048 0.078987
v -0.102025 0.557867 0.140968
v -0.125656 0.513324 0.026866
v -0.103125 0.574835 0.089555
v -0.132069 0.480728 -0.017801
v -0.075705 0.573588 0.034870
v -0.091409 0.410006 -0.142380
v -0.121511 0.515820 -0.017641
v -0.120673 0.471491 -0.070944
v -0.102014 0.547699 -0.014354
v -0.123181 0.519555 -0.058412
v -0.025295 0.596973 0.011296
v -0.087306 0.461153 -0.124971
v -0.088737 0.558812 -0.028754
v -0.103390 0.528106 -0.079123
v -0.049151 0.444771 -0.160407
v -0.023622 0.438675 -0.168242
v -0.065809 0.512162 -0.094387
v -0.041417 0.562815 -0.055671
v -0.019437 0.575570 -0.032509
v -0.031379 0.538185 -0.070470
v -0.019272 0.497594 -0.124927
v -0.026982 0.521630 -0.095924
v -0.018851 0.520559 -0.110553
v -0.010753 0.557234 -0.058646
v 0.000674 0.507533 -0.118131
v -0.004985 0.549024 -0.074400
v 0.003917 0.576545 -0.022980
v -0.011647 0.523426 -0.103856
v 0.002601 0.546334 -0.072175
v 0.021160 0.558865 -0.047444
v 0.017377 0.537544 -0.085848
v 0.012666 0.468681 -0.151740
v 0.021490 0.490376 -0.131539
v 0.036608 0.483941 -0.145927
v 0.038565 0.462630 -0.160014
v 0.057349 0.438125 -0.187236
v 0.078383 0.498845 -0.156195
v 0.097628 0.441706 -0.194835
v 0.126464 0.349016 -0.212787
v 0.191479 0.317315 -0.201675
v 0.224072 0.333041 -0.187250
v 0.179431 0.352538 -0.187456
v 0.209955 0.372234 -0.159964
v 0.170576 0.389412 -0.169522
v 0.231165 0.381790 -0.137904
v 0.247534 0.374653 -0.081946
v 0.262383 0.437651 -0.007017
v 0.220957 0.404779 -0.108349
v 0.237659 0.436515 -0.083306
v 0.139481 0.404789 -0.194616
v 0.188735 0.421129 -0.152477
v 0.121733 0.460230 -0.183587
v 0.195489 0.445638 -0.131056
v 0.139522 0.489938 -0.138375
v 0.145074 0.504014 -0.124411
v 0.099422 0.513884 -0.124870
v 0.182875 0.526345 -0.089483
v 0.231723 0.493712 -0.068262
v 0.239306 0.513526 -0.009778
v 0.255313 0.465783 0.016099
v 0.223616 0.514682 0.033050
v 0.198696 0.536292 -0.008461
v 0.185217 0.563336 0.041593
v 0.182862 0.549793 -0.040167
v 0.165489 0.571164 0.019616
v 0.146116 0.585324 0.049500
v 0.142779 0.567130 -0.047516
v 0.096091 0.600945 0.050050
v 0.102734 0.591975 0.062071
v 0.057394 0.595587 0.058190
v 0.135116 0.574158 -0.003841
v 0.096247 0.597996 0.037040
v 0.060086 0.596440 0.042069
v 0.045114 0.595226 0.054007
v 0.095789 0.585550 -0.012462
v 0.025304 0.595491 0.035506
v 0.025637 0.597445 0.054506
v 0.072423 0.594346 0.009368
v 0.090358 0.587126 -0.023513
v 0.051865 0.593874 0.005306
v 0.133655 0.545417 -0.088075
v 0.085852 0.577667 -0.037712
v 0.113739 0.539565 -0.085141
v 0.068077 0.572666 -0.026576
v 0.089559 0.537387 -0.074553
v 0.068302 0.565445 -0.052975
v 0.048842 0.582544 -0.028671
v 0.052152 0.553647 -0.070363
v 0.026031 0.587037 0.000748
v 0.027131 0.575307 -0.030904
v 0.036874 0.515433 -0.124771
v 0.017373 0.588738 0.016076
v 0.034182 0.521414 -0.109245
v 0.008244 0.587073 0.001983
v 0.040541 0.536908 -0.076470
v -0.001423 0.595989 0.011615
v -0.013740 0.597261 0.046997
v 0.032269 0.551969 -0.059143
v 0.025760 0.539883 -0.083536
v 0.053780 0.525520 -0.097946
v -0.079777 0.579127 0.062678
v -0.051197 0.588507 0.069347
v -0.075302 0.585696 0.090701
v -0.041485 0.594453 0.093897
v -0.063520 0.572036 0.156952
v -0.037097 0.543075 0.200105
v -0.028521 0.577412 0.151067
v -0.020861 0.581935 0.119598
v 0.011548 0.590999 0.075021
v 0.036528 0.592733 0.057571
v -0.006044 0.577711 0.136569
v 0.005999 0.548628 0.192144
v 0.021380 0.589719 0.101525
v 0.026682 0.564197 0.155357
v 0.035928 0.585380 0.107144
v 0.054354 0.580493 0.119111
v 0.052098 0.561575 0.150204
v 0.070101 0.575751 0.126384
v 0.045563 0.587942 0.083112
v 0.079436 0.556029 0.152633
v 0.079692 0.562070 0.141013
v 0.067154 0.577647 0.101705
v 0.064178 0.570816 0.121496
v 0.075747 0.578693 0.097922
v 0.066844 0.592404 0.087804
v 0.045114 0.595226 0.054007
v 0.101453 0.564144 0.132390
v 0.099408 0.569701 0.120828
v 0.098200 0.557172 0.137943
v 0.082108 0.551760 0.150135
v 0.117784 0.543106 0.146880
v 0.093924 0.582493 0.088214
v 0.057394 0.595587 0.058190
v 0.102734 0.591975 0.062071
v 0.126275 0.580146 0.099272
v 0.157033 0.570729 0.111844
v 0.146116 0.585324 0.049500
v 0.185217 0.563336 0.041593
v 0.206072 0.527047 0.095421
v 0.223616 0.514682 0.033050
v 0.167614 0.534299 0.123942
v 0.221476 0.488747 0.075112
v 0.255313 0.465783 0.016099
v 0.216271 0.492597 0.128814
v 0.233446 0.422798 0.090629
v 0.223747 0.451737 0.087304
v 0.215750 0.454403 0.126697
v 0.257133 0.417811 0.055148
v 0.262383 0.437651 -0.007017
v 0.260769 0.378223 -0.004660
v 0.217421 0.419680 0.157664
v 0.255385 0.382098 0.091299
v 0.211474 0.427695 0.176824
v 0.216667 0.380679 0.171633
v 0.256623 0.290825 0.036722
v 0.252371 0.303870 -0.035136
v 0.247564 0.237636 -0.062649
v 0.231702 0.189569 0.097710
v 0.228593 0.135926 0.081908
v 0.235245 0.183006 -0.029623
v 0.249149 0.210741 -0.089940
v 0.222174 0.147069 -0.044135
v 0.250939 0.160343 -0.085168
v 0.204145 0.089022 -0.003357
v 0.231160 0.142177 -0.067551
v 0.202094 0.082157 -0.050372
v 0.226465 0.056198 -0.080089
v 0.251922 0.108201 -0.093947
v 0.245640 0.066831 -0.087574
v 0.239639 0.051251 -0.091417
v 0.232076 0.041820 -0.093529
v 0.232943 0.026658 -0.084509
v 0.208164 0.042961 -0.064521
v 0.227686 0.028407 -0.074037
v 0.225488 0.015996 -0.085516
v 0.202991 0.061735 -0.019582
v 0.235614 0.008989 -0.074421
v 0.205115 0.002042 -0.069755
v 0.234410 0.041115 -0.052512
v 0.245193 0.028465 -0.060194
v 0.238421 0.020178 -0.023683
v 0.244316 0.005653 -0.047411
v 0.216550 0.001521 -0.045769
v 0.206849 0.001104 -0.055065
v 0.175239 0.021217 -0.023391
v 0.226247 0.043763 0.017088
v 0.186539 0.007749 0.009763
v 0.209501 0.065822 0.006929
v 0.224765 0.010821 0.000946
v 0.235900 0.029983 0.032193
v 0.229832 0.074150 0.072336
v 0.223873 0.017137 0.035946
v 0.226377 0.112496 0.102321
v 0.227789 0.055020 0.077266
v 0.195471 0.242180 0.174871
v 0.200783 0.005512 0.041774
v 0.194563 0.015256 0.080398
v 0.169827 0.007483 0.034623
v 0.153582 0.027841 -0.017174
v 0.145728 0.007690 0.017111
v 0.130472 0.020066 -0.020965
v 0.082088 0.006286 -0.023647
v 0.110995 0.002323 0.063321
v 0.030129 0.008513 0.041457
v 0.013515 0.007603 -0.029034
v -0.017258 0.001760 -0.031357
v 0.083635 0.014150 0.096839
v -0.005825 0.024087 0.048078
v 0.120469 0.033008 0.119104
v -0.002842 0.043273 0.092635
v 0.055864 0.114327 0.196073
v 0.167028 0.043198 0.105722
v 0.113429 0.135093 0.196823
v 0.211034 0.056733 0.093313
v 0.184811 0.179603 0.173628
v 0.131058 0.227671 0.225769
v 0.204032 0.373252 0.193775
v 0.008985 0.197193 0.236214
v 0.179001 0.417408 0.175539
v -0.026520 0.104831 0.187633
v 0.188983 0.444149 0.158493
v 0.153717 0.492024 0.142017
v 0.124027 0.516854 0.158813
v 0.156804 0.442900 0.175200
v 0.147909 0.438778 0.191251
v 0.170577 0.400401 0.194491
v 0.127898 0.451370 0.197289
v 0.093985 0.531647 0.161732
v 0.131706 0.388988 0.214730
v 0.088373 0.529054 0.172152
v 0.090780 0.438306 0.207616
v 0.052274 0.513722 0.183136
v 0.068913 0.394031 0.212467
v 0.049375 0.256372 0.240652
v 0.029488 0.528927 0.194342
v 0.040326 0.503582 0.188154
v 0.011559 0.510072 0.224750
v 0.028301 0.476926 0.223101
v 0.039166 0.433081 0.209226
v -0.002509 0.473939 0.229247
v 0.048893 0.381434 0.228701
v 0.023814 0.443328 0.235455
v -0.011455 0.432290 0.223319
v -0.048415 0.403395 0.230406
v 0.026614 0.322893 0.228232
v -0.048603 0.322202 0.220935
v -0.054773 0.288411 0.228090
v -0.063820 0.088567 0.187514
v -0.032865 0.069836 0.131674
v -0.064863 0.050575 0.132024
v -0.028036 0.042642 0.084245
v -0.086823 0.095649 0.160016
v -0.056373 0.000227 0.046586
v -0.061101 -0.005983 -0.032937
v -0.073999 -0.003744 0.006582
v -0.078876 0.000255 -0.033952
v -0.092562 0.008435 0.001679
v -0.081239 0.003246 0.041066
v -0.081051 0.052978 0.127346
v -0.095001 0.027906 0.034012
v -0.093921 0.078292 0.103463
v -0.128841 0.091908 0.117741
v -0.116392 0.078197 0.098397
v -0.141628 0.074116 0.058629
v -0.122295 0.061165 0.052962
v -0.136722 0.056415 0.033683
v -0.164605 0.035408 0.034991
v -0.156762 0.019521 0.019434
v -0.117808 0.024182 0.022779
v -0.123338 0.004308 0.000610
v 0.013841 0.597803 0.018921
v 0.011708 0.581679 0.058073
v 0.015247 0.571946 0.034719
v 0.040947 0.581261 0.014991
v 0.008259 0.616752 0.058219
v 0.024327 0.577334 0.092592
v 0.037262 0.603172 0.010180
v 0.048006 0.593507 0.013351
v 0.026627 0.629553 0.020148
v 0.043383 0.623921 0.030275
v 0.065106 0.589049 0.039319
v 0.025642 0.630224 0.050640
v 0.031604 0.618606 0.080922
v 0.050390 0.627510 0.065477
v 0.055686 0.615163 0.042977
v 0.070739 0.620584 0.056331
v 0.072579 0.609952 0.066752
v 0.070242 0.582313 0.062350
v 0.039427 0.572057 0.092942
v 0.059046 0.628422 0.068286
v 0.039728 0.615755 0.084707
vt 0.603027 0.502197
vt 0.596680 0.510010
vt 0.575195 0.523193
vt 0.549316 0.508057
vt 0.606445 0.495605
vt 0.513184 0.537354
vt 0.550781 0.543457
vt 0.520996 0.557861
vt 0.599609 0.482422
vt 0.485107 0.540283
vt 0.503906 0.577393
vt 0.462891 0.597168
vt 0.610352 0.480469
vt 0.617188 0.485352
vt 0.619629 0.475098
vt 0.625000 0.455566
vt 0.599609 0.471680
vt 0.581543 0.480957
vt 0.612793 0.448242
vt 0.629883 0.445312
vt 0.514160 0.491699
vt 0.620117 0.424805
vt 0.624512 0.415039
vt 0.493408 0.527100
vt 0.605469 0.410156
vt 0.620117 0.399902
vt 0.452637 0.537354
vt 0.417236 0.613281
vt 0.572266 0.415527
vt 0.615723 0.385254
vt 0.606934 0.422852
vt 0.577637 0.390625
vt 0.605469 0.354980
vt 0.605469 0.437012
vt 0.592773 0.423340
vt 0.579590 0.433105
vt 0.599609 0.446289
vt 0.585938 0.459473
vt 0.563477 0.464844
vt 0.562500 0.457031
vt 0.560059 0.433105
vt 0.558105 0.440918
vt 0.539062 0.463867
vt 0.550293 0.413574
vt 0.539062 0.470703
vt 0.560059 0.395020
vt 0.538574 0.477539
vt 0.520508 0.469238
vt 0.503906 0.471680
vt 0.518066 0.458984
vt 0.538574 0.457031
vt 0.538086 0.450684
vt 0.518066 0.452637
vt 0.536133 0.442871
vt 0.500977 0.458984
vt 0.515625 0.446289
vt 0.534668 0.434082
vt 0.514160 0.426758
vt 0.494385 0.445801
vt 0.483154 0.470215
vt 0.494629 0.488770
vt 0.481445 0.452148
vt 0.480957 0.509277
vt 0.468506 0.482422
vt 0.461182 0.454590
vt 0.481445 0.433105
vt 0.432129 0.451172
vt 0.541016 0.390625
vt 0.428223 0.440430
vt 0.560547 0.362305
vt 0.582520 0.316406
vt 0.563965 0.329102
vt 0.569336 0.297363
vt 0.526367 0.339355
vt 0.538574 0.290527
vt 0.545898 0.272461
vt 0.531738 0.262695
vt 0.532227 0.309570
vt 0.510254 0.313477
vt 0.519531 0.294922
vt 0.522949 0.279297
vt 0.492432 0.275391
vt 0.505371 0.299805
vt 0.510254 0.253906
vt 0.518555 0.238770
vt 0.473389 0.286133
vt 0.499512 0.242188
vt 0.500000 0.227539
vt 0.489014 0.312500
vt 0.484375 0.227051
vt 0.474365 0.206543
vt 0.486328 0.367188
vt 0.455811 0.214844
vt 0.428955 0.185547
vt 0.499756 0.409668
vt 0.460205 0.333008
vt 0.458740 0.378418
vt 0.471436 0.427734
vt 0.422363 0.423828
vt 0.450928 0.359863
vt 0.420654 0.431152
vt 0.388428 0.400879
vt 0.422852 0.450195
vt 0.395508 0.424805
vt 0.418945 0.364746
vt 0.438965 0.315430
vt 0.451660 0.303711
vt 0.465576 0.271484
vt 0.484131 0.243652
vt 0.468994 0.238281
vt 0.444580 0.262695
vt 0.439453 0.290039
vt 0.428711 0.256348
vt 0.416992 0.225586
vt 0.425537 0.285156
vt 0.411377 0.242676
vt 0.424805 0.200684
vt 0.397217 0.250000
vt 0.405518 0.186035
vt 0.377441 0.243652
vt 0.401611 0.272949
vt 0.424316 0.309082
vt 0.415527 0.317383
vt 0.382080 0.286621
vt 0.386963 0.360840
vt 0.355469 0.324707
vt 0.362061 0.254883
vt 0.355225 0.303223
vt 0.340820 0.342773
vt 0.378418 0.381348
vt 0.321045 0.341797
vt 0.343262 0.361328
vt 0.305420 0.333496
vt 0.325928 0.376953
vt 0.337158 0.291504
vt 0.312744 0.365234
vt 0.293457 0.321777
vt 0.283203 0.358887
vt 0.348877 0.251465
vt 0.369629 0.238770
vt 0.320801 0.277832
vt 0.403076 0.217773
vt 0.312500 0.230957
vt 0.410645 0.205078
vt 0.385986 0.198242
vt 0.373779 0.212402
vt 0.381836 0.181152
vt 0.350342 0.218750
vt 0.339600 0.230469
vt 0.352539 0.198730
vt 0.315918 0.207520
vt 0.291992 0.208984
vt 0.279297 0.252930
vt 0.302246 0.185059
vt 0.286865 0.294434
vt 0.269775 0.232422
vt 0.271484 0.281250
vt 0.253418 0.320312
vt 0.239624 0.303223
vt 0.249634 0.362305
vt 0.212036 0.351562
vt 0.257812 0.391602
vt 0.236694 0.381836
vt 0.282227 0.392090
vt 0.244873 0.400391
vt 0.305908 0.389648
vt 0.253418 0.421387
vt 0.364014 0.404785
vt 0.293701 0.401855
vt 0.323730 0.400879
vt 0.281006 0.416504
vt 0.304199 0.412109
vt 0.245361 0.448730
vt 0.342285 0.417480
vt 0.280762 0.425293
vt 0.306885 0.422363
vt 0.357910 0.430664
vt 0.364014 0.440430
vt 0.316162 0.434570
vt 0.283936 0.446289
vt 0.269531 0.455566
vt 0.297607 0.449219
vt 0.331299 0.451172
vt 0.312500 0.450195
vt 0.317383 0.454102
vt 0.286133 0.458008
vt 0.326172 0.460449
vt 0.294922 0.460938
vt 0.264160 0.466797
vt 0.314453 0.457031
vt 0.295410 0.464844
vt 0.281494 0.474609
vt 0.304199 0.470215
vt 0.351074 0.459961
vt 0.337158 0.466309
vt 0.345215 0.473145
vt 0.357666 0.469238
vt 0.376465 0.473145
vt 0.348877 0.492188
vt 0.382324 0.489258
vt 0.428955 0.486816
vt 0.452637 0.508789
vt 0.450439 0.526367
vt 0.432861 0.512695
vt 0.427734 0.533936
vt 0.412842 0.519043
vt 0.424072 0.548584
vt 0.423340 0.575928
vt 0.378906 0.609863
vt 0.405762 0.556885
vt 0.387695 0.570557
vt 0.403809 0.501709
vt 0.396240 0.531494
vt 0.375732 0.501953
vt 0.383545 0.541260
vt 0.355957 0.520020
vt 0.347412 0.525879
vt 0.335938 0.506348
vt 0.336426 0.547607
vt 0.354736 0.571289
vt 0.333496 0.591797
vt 0.353760 0.614746
vt 0.314697 0.604248
vt 0.310303 0.576660
vt 0.278320 0.582275
vt 0.312256 0.559326
vt 0.277588 0.565430
vt 0.255127 0.559082
vt 0.299805 0.538818
vt 0.235962 0.528809
vt 0.232422 0.536621
vt 0.220215 0.501465
vt 0.277100 0.545166
vt 0.242188 0.526367
vt 0.229126 0.501465
vt 0.216064 0.487793
vt 0.267334 0.522705
vt 0.224365 0.472656
vt 0.201782 0.458008
vt 0.249878 0.508789
vt 0.271484 0.517822
vt 0.248901 0.495605
vt 0.318848 0.529297
vt 0.279785 0.513916
vt 0.315674 0.520752
vt 0.273438 0.504395
vt 0.307861 0.510986
vt 0.287598 0.500732
vt 0.269775 0.494141
vt 0.296631 0.491699
vt 0.250000 0.480469
vt 0.269043 0.481445
vt 0.328125 0.479492
vt 0.239014 0.471191
vt 0.319336 0.476562
vt 0.248169 0.468750
vt 0.301514 0.476074
vt 0.242065 0.460938
vt 0.224121 0.445801
vt 0.289795 0.479492
vt 0.303467 0.481445
vt 0.310303 0.477539
vt 0.245239 0.414551
vt 0.232422 0.423828
vt 0.234253 0.409668
vt 0.219238 0.417480
vt 0.219849 0.385742
vt 0.208984 0.365723
vt 0.204956 0.392578
vt 0.203247 0.408691
vt 0.197144 0.438965
vt 0.177368 0.446777
vt 0.195435 0.399902
vt 0.191772 0.369141
vt 0.186035 0.420898
vt 0.180176 0.386230
vt 0.178467 0.415527
vt 0.168823 0.404785
vt 0.168701 0.384766
vt 0.161255 0.395996
vt 0.172852 0.427734
vt 0.155396 0.378418
vt 0.155151 0.384766
vt 0.159424 0.410156
vt 0.159546 0.399902
vt 0.155273 0.409668
vt 0.157837 0.420410
vt 0.166504 0.444336
vt 0.140259 0.385254
vt 0.138794 0.390625
vt 0.140747 0.380371
vt 0.150269 0.377441
vt 0.134155 0.366211
vt 0.136719 0.408691
vt 0.157959 0.437500
vt 0.122559 0.416016
vt 0.120300 0.391113
vt 0.108398 0.373047
vt 0.091309 0.396484
vt 0.069336 0.371582
vt 0.083862 0.339844
vt 0.050140 0.331543
vt 0.107849 0.351562
vt 0.068420 0.315918
vt 0.036163 0.290527
vt 0.093689 0.318359
vt 0.075439 0.276855
vt 0.074036 0.294922
vt 0.091919 0.297852
vt 0.057831 0.266113
vt 0.027115 0.269531
vt 0.036224 0.231934
vt 0.105591 0.280762
vt 0.078003 0.250000
vt 0.113220 0.286133
vt 0.115723 0.263672
vt 0.074707 0.193359
vt 0.042328 0.179688
vt 0.052277 0.138184
vt 0.127686 0.161133
vt 0.140503 0.135254
vt 0.083313 0.122559
vt 0.050507 0.116699
vt 0.091553 0.102051
vt 0.066833 0.093262
vt 0.128418 0.091309
vt 0.083130 0.091309
vt 0.115234 0.074707
vt 0.111084 0.051758
vt 0.080505 0.065430
vt 0.099365 0.049805
vt 0.107788 0.042969
vt 0.114380 0.039551
vt 0.125244 0.038574
vt 0.124146 0.056641
vt 0.128540 0.043457
vt 0.134399 0.033691
vt 0.133545 0.076660
vt 0.140503 0.038086
vt 0.153198 0.026855
vt 0.136719 0.054688
vt 0.138916 0.048340
vt 0.155029 0.057617
vt 0.150513 0.045898
vt 0.162476 0.039551
vt 0.161621 0.032715
vt 0.195190 0.042480
vt 0.155640 0.080566
vt 0.191772 0.060547
vt 0.140991 0.085938
vt 0.168335 0.063477
vt 0.166382 0.081543
vt 0.160156 0.109375
vt 0.175049 0.078613
vt 0.156738 0.131836
vt 0.168823 0.104492
vt 0.148682 0.202637
vt 0.188843 0.076660
vt 0.192627 0.093750
vt 0.205200 0.071777
vt 0.212646 0.044434
vt 0.219971 0.062988
vt 0.230347 0.045410
vt 0.263428 0.052246
vt 0.236572 0.087891
vt 0.284424 0.092773
vt 0.307129 0.066406
vt 0.325439 0.074219
vt 0.246582 0.106934
vt 0.302490 0.106934
vt 0.224243 0.115723
vt 0.289062 0.125977
vt 0.238159 0.169434
vt 0.200317 0.112305
vt 0.208740 0.171387
vt 0.177124 0.110352
vt 0.166504 0.177246
vt 0.184692 0.209961
vt 0.127686 0.263672
vt 0.240845 0.212402
vt 0.126953 0.290527
vt 0.276611 0.176270
vt 0.116150 0.301758
vt 0.120605 0.333496
vt 0.135620 0.350098
vt 0.131714 0.307129
vt 0.139404 0.304199
vt 0.136108 0.282227
vt 0.146606 0.312500
vt 0.147339 0.362793
vt 0.155884 0.281250
vt 0.152344 0.359863
vt 0.162964 0.310059
vt 0.169067 0.354004
vt 0.178711 0.291992
vt 0.213257 0.232422
vt 0.181641 0.359863
vt 0.175049 0.348633
vt 0.193848 0.346680
vt 0.189453 0.332520
vt 0.183716 0.312988
vt 0.202148 0.331543
vt 0.191895 0.287598
vt 0.195190 0.316895
vt 0.210205 0.313965
vt 0.228516 0.304199
vt 0.210938 0.263672
vt 0.242676 0.270996
vt 0.251221 0.256836
vt 0.295166 0.178223
vt 0.293457 0.150879
vt 0.312500 0.155762
vt 0.302979 0.128418
vt 0.313232 0.181152
vt 0.333008 0.117676
vt 0.351318 0.086426
vt 0.351074 0.107422
vt 0.361084 0.090332
vt 0.364746 0.114258
vt 0.347412 0.124023
vt 0.320557 0.159180
vt 0.361084 0.135742
vt 0.337891 0.168457
vt 0.342773 0.186035
vt 0.347656 0.174805
vt 0.374023 0.176758
vt 0.367676 0.162109
vt 0.382080 0.163086
vt 0.404053 0.168457
vt 0.401855 0.151855
vt 0.376953 0.139160
vt 0.385010 0.125977
vt 0.210205 0.797852
vt 0.232056 0.786011
vt 0.223145 0.804199
vt 0.196777 0.806396
vt 0.218140 0.779175
vt 0.231323 0.757568
vt 0.195557 0.795532
vt 0.187988 0.796021
vt 0.202026 0.786865
vt 0.195435 0.781738
vt 0.178711 0.768677
vt 0.207520 0.777344
vt 0.214355 0.765747
vt 0.203125 0.767944
vt 0.191284 0.773560
vt 0.193970 0.764160
vt 0.194824 0.756592
vt 0.191040 0.745117
vt 0.222290 0.745117
vt 0.201050 0.764771
vt 0.212402 0.761475
vt1 0.863281 0.729736
vt1 0.854980 0.740234
vt1 0.826172 0.757446
vt1 0.791992 0.737305
vt1 0.867676 0.720703
vt1 0.744141 0.776367
vt1 0.793945 0.784302
vt1 0.754395 0.803467
vt1 0.858887 0.703125
vt1 0.707031 0.780029
vt1 0.731934 0.829468
vt1 0.677246 0.855469
vt1 0.872559 0.700439
vt1 0.881836 0.707031
vt1 0.884766 0.693604
vt1 0.892090 0.667480
vt1 0.858398 0.688721
vt1 0.834473 0.701660
vt1 0.875977 0.658203
vt1 0.898438 0.654297
vt1 0.745605 0.715820
vt1 0.885254 0.627197
vt1 0.891602 0.614014
vt1 0.717773 0.762573
vt1 0.866211 0.607422
vt1 0.886230 0.593994
vt1 0.663574 0.776245
vt1 0.616699 0.876831
vt1 0.822266 0.614746
vt1 0.879883 0.574463
vt1 0.868652 0.624268
vt1 0.829590 0.581787
vt1 0.866211 0.534424
vt1 0.866699 0.642822
vt1 0.849609 0.625244
vt1 0.832031 0.638184
vt1 0.858398 0.655518
vt1 0.840820 0.672852
vt1 0.810547 0.679932
vt1 0.809570 0.669922
vt1 0.806152 0.637695
vt1 0.803711 0.648438
vt1 0.778320 0.678711
vt1 0.793457 0.611816
vt1 0.778320 0.687988
vt1 0.806152 0.587891
vt1 0.777832 0.697021
vt1 0.753906 0.685547
vt1 0.731445 0.689209
vt1 0.750977 0.672363
vt1 0.777832 0.669434
vt1 0.776855 0.660889
vt1 0.750488 0.663818
vt1 0.774414 0.650879
vt1 0.727539 0.672363
vt1 0.747559 0.655518
vt1 0.772949 0.639404
vt1 0.745605 0.629883
vt1 0.718750 0.655029
vt1 0.704102 0.687256
vt1 0.719238 0.711426
vt1 0.701660 0.663330
vt1 0.701172 0.739258
vt1 0.684570 0.703125
vt1 0.674805 0.666260
vt1 0.701660 0.637695
vt1 0.636230 0.662109
vt1 0.780762 0.581787
vt1 0.631348 0.647949
vt1 0.807129 0.543945
vt1 0.835938 0.483398
vt1 0.811523 0.500000
vt1 0.818848 0.458496
vt1 0.761719 0.513916
vt1 0.777832 0.449219
vt1 0.787598 0.425293
vt1 0.768555 0.412598
vt1 0.769043 0.474609
vt1 0.740234 0.479980
vt1 0.752441 0.455566
vt1 0.757324 0.434082
vt1 0.716309 0.429688
vt1 0.733398 0.461914
vt1 0.740234 0.400879
vt1 0.750977 0.380371
vt1 0.690918 0.443359
vt1 0.725586 0.385254
vt1 0.727051 0.365723
vt1 0.711914 0.478516
vt1 0.705566 0.365234
vt1 0.692383 0.338379
vt1 0.708496 0.550537
vt1 0.667969 0.348633
vt1 0.632324 0.310059
vt1 0.726074 0.606934
vt1 0.673828 0.505615
vt1 0.671875 0.565674
vt1 0.688477 0.630615
vt1 0.623535 0.625488
vt1 0.661133 0.540771
vt1 0.621094 0.635254
vt1 0.578613 0.594971
vt1 0.624023 0.660400
vt1 0.587891 0.626953
vt1 0.619141 0.547119
vt1 0.645508 0.482422
vt1 0.662598 0.466797
vt1 0.681152 0.424316
vt1 0.705078 0.387207
vt1 0.685547 0.379883
vt1 0.652832 0.412598
vt1 0.645996 0.448730
vt1 0.631836 0.403809
vt1 0.616699 0.363281
vt1 0.627930 0.442383
vt1 0.608887 0.385742
vt1 0.626953 0.330078
vt1 0.590332 0.395508
vt1 0.601074 0.310547
vt1 0.563965 0.387207
vt1 0.596191 0.425781
vt1 0.625977 0.474121
vt1 0.614746 0.484375
vt1 0.570312 0.444336
vt1 0.576660 0.542480
vt1 0.535156 0.494629
vt1 0.543457 0.401855
vt1 0.534668 0.465820
vt1 0.515625 0.518311
vt1 0.565430 0.569336
vt1 0.489258 0.516846
vt1 0.519043 0.542969
vt1 0.468750 0.505859
vt1 0.495850 0.563477
vt1 0.510742 0.450684
vt1 0.478271 0.548340
vt1 0.453125 0.490723
vt1 0.439209 0.539551
vt1 0.526367 0.397461
vt1 0.553711 0.380859
vt1 0.489258 0.432617
vt1 0.598145 0.352539
vt1 0.478027 0.370605
vt1 0.608398 0.335938
vt1 0.575195 0.326660
vt1 0.559082 0.345703
vt1 0.569824 0.304688
vt1 0.528320 0.354004
vt1 0.513672 0.370117
vt1 0.531250 0.327637
vt1 0.482666 0.338867
vt1 0.450928 0.341309
vt1 0.434082 0.398926
vt1 0.464355 0.309082
vt1 0.444092 0.454590
vt1 0.421387 0.372559
vt1 0.423828 0.437012
vt1 0.399658 0.488770
vt1 0.381348 0.465820
vt1 0.394775 0.544189
vt1 0.344971 0.530273
vt1 0.405762 0.582764
vt1 0.377686 0.570312
vt1 0.437988 0.583740
vt1 0.388428 0.594727
vt1 0.469482 0.580078
vt1 0.399658 0.622559
vt1 0.546387 0.600586
vt1 0.453125 0.596680
vt1 0.492920 0.595703
vt1 0.436279 0.615723
vt1 0.467285 0.609863
vt1 0.389160 0.658936
vt1 0.517090 0.616943
vt1 0.436035 0.627686
vt1 0.470703 0.623779
vt1 0.538086 0.634521
vt1 0.546387 0.647949
vt1 0.482910 0.640137
vt1 0.440430 0.655518
vt1 0.421143 0.667725
vt1 0.458496 0.659424
vt1 0.502930 0.661865
vt1 0.478271 0.660400
vt1 0.484619 0.666016
vt1 0.443359 0.670654
vt1 0.496094 0.674316
vt1 0.455078 0.675049
vt1 0.414062 0.682861
vt1 0.480957 0.669922
vt1 0.455566 0.679932
vt1 0.437012 0.693115
vt1 0.467285 0.687012
vt1 0.528809 0.673584
vt1 0.510742 0.682129
vt1 0.521484 0.691162
vt1 0.537598 0.686279
vt1 0.562988 0.690674
vt1 0.525879 0.716064
vt1 0.570801 0.712646
vt1 0.632324 0.709229
vt1 0.663574 0.738525
vt1 0.661133 0.761719
vt1 0.637695 0.743652
vt1 0.630859 0.771606
vt1 0.610840 0.751953
vt1 0.625977 0.791016
vt1 0.625000 0.827393
vt1 0.565918 0.872192
vt1 0.601562 0.802246
vt1 0.577637 0.820312
vt1 0.599121 0.729004
vt1 0.588867 0.768555
vt1 0.562012 0.729492
vt1 0.572266 0.781250
vt1 0.535645 0.753174
vt1 0.524414 0.760986
vt1 0.509277 0.735107
vt1 0.509766 0.789917
vt1 0.534180 0.821045
vt1 0.505859 0.848267
vt1 0.532715 0.878601
vt1 0.480957 0.864990
vt1 0.475342 0.828491
vt1 0.432861 0.835815
vt1 0.477783 0.805298
vt1 0.431885 0.813477
vt1 0.402100 0.805054
vt1 0.461426 0.778076
vt1 0.376709 0.764771
vt1 0.371826 0.775391
vt1 0.355713 0.728760
vt1 0.431152 0.786499
vt1 0.385010 0.761719
vt1 0.367676 0.728516
vt1 0.350098 0.710205
vt1 0.418213 0.756958
vt1 0.361328 0.690430
vt1 0.331299 0.670654
vt1 0.395020 0.738281
vt1 0.423828 0.750366
vt1 0.393799 0.720947
vt1 0.486572 0.765503
vt1 0.434814 0.745361
vt1 0.482422 0.754272
vt1 0.426514 0.732666
vt1 0.472168 0.741455
vt1 0.445312 0.727783
vt1 0.421631 0.718506
vt1 0.457031 0.715820
vt1 0.395264 0.700684
vt1 0.420654 0.702393
vt1 0.498779 0.699707
vt1 0.380615 0.688477
vt1 0.487061 0.695801
vt1 0.392822 0.685303
vt1 0.463379 0.695068
vt1 0.384766 0.674561
vt1 0.360840 0.654541
vt1 0.447998 0.699219
vt1 0.466309 0.701904
vt1 0.475342 0.696777
vt1 0.388916 0.613525
vt1 0.371826 0.625977
vt1 0.374512 0.606934
vt1 0.354492 0.617188
vt1 0.355225 0.575195
vt1 0.340820 0.548584
vt1 0.335693 0.584473
vt1 0.333252 0.605713
vt1 0.325195 0.645508
vt1 0.299072 0.656006
vt1 0.322998 0.594238
vt1 0.318115 0.552979
vt1 0.310547 0.622070
vt1 0.302734 0.576172
vt1 0.300537 0.614990
vt1 0.287598 0.600342
vt1 0.287598 0.573730
vt1 0.277832 0.588867
vt1 0.292969 0.631104
vt1 0.269775 0.565430
vt1 0.269775 0.573975
vt1 0.275146 0.607422
vt1 0.275391 0.593994
vt1 0.269775 0.607178
vt1 0.272949 0.620850
vt1 0.284668 0.652832
vt1 0.250000 0.574463
vt1 0.248047 0.581543
vt1 0.250488 0.568359
vt1 0.263184 0.564453
vt1 0.241821 0.549561
vt1 0.245239 0.605469
vt1 0.273193 0.643799
vt1 0.226440 0.615723
vt1 0.223511 0.582520
vt1 0.207642 0.558350
vt1 0.185059 0.589844
vt1 0.155884 0.556641
vt1 0.175171 0.514404
vt1 0.130493 0.503418
vt1 0.206909 0.530029
vt1 0.154663 0.482910
vt1 0.112000 0.449219
vt1 0.188110 0.486328
vt1 0.163940 0.431152
vt1 0.162109 0.455078
vt1 0.185791 0.458984
vt1 0.140625 0.416504
vt1 0.099976 0.420898
vt1 0.112061 0.371582
vt1 0.203857 0.436035
vt1 0.167358 0.395996
vt1 0.214111 0.442871
vt1 0.217285 0.414062
vt1 0.163086 0.320312
vt1 0.120117 0.302734
vt1 0.133301 0.247559
vt1 0.233276 0.277832
vt1 0.250244 0.243164
vt1 0.174438 0.227051
vt1 0.130981 0.218750
vt1 0.185303 0.199707
vt1 0.152588 0.187988
vt1 0.234131 0.185059
vt1 0.174194 0.185059
vt1 0.216797 0.163574
vt1 0.211182 0.132812
vt1 0.170654 0.150879
vt1 0.195679 0.130371
vt1 0.206909 0.121094
vt1 0.215576 0.116699
vt1 0.230103 0.115723
vt1 0.228516 0.139160
vt1 0.234375 0.122070
vt1 0.242065 0.108887
vt1 0.240967 0.166016
vt1 0.250244 0.114746
vt1 0.267090 0.100098
vt1 0.245117 0.136719
vt1 0.248169 0.127930
vt1 0.269287 0.140625
vt1 0.263428 0.125488
vt1 0.279297 0.116699
vt1 0.278320 0.107910
vt1 0.322754 0.120605
vt1 0.270264 0.171387
vt1 0.318115 0.144531
vt1 0.250732 0.178223
vt1 0.287109 0.148438
vt1 0.284424 0.172363
vt1 0.276367 0.209473
vt1 0.295898 0.168457
vt1 0.271729 0.239258
vt1 0.287842 0.202637
vt1 0.260986 0.333008
vt1 0.314209 0.166016
vt1 0.319336 0.187988
vt1 0.335938 0.159180
vt1 0.345703 0.123047
vt1 0.355469 0.147949
vt1 0.369141 0.124512
vt1 0.413330 0.133789
vt1 0.377441 0.180664
vt1 0.440918 0.187012
vt1 0.471191 0.152344
vt1 0.495361 0.162598
vt1 0.390625 0.206055
vt1 0.464844 0.206055
vt1 0.361084 0.217773
vt1 0.447266 0.230957
vt1 0.379395 0.289062
vt1 0.329590 0.212891
vt1 0.340576 0.291504
vt1 0.298584 0.210938
vt1 0.284668 0.298828
vt1 0.308838 0.342285
vt1 0.233276 0.414062
vt1 0.383057 0.345703
vt1 0.232300 0.449707
vt1 0.430664 0.297852
vt1 0.217896 0.464355
vt1 0.223755 0.506104
vt1 0.243652 0.528076
vt1 0.238525 0.471191
vt1 0.248657 0.467285
vt1 0.244507 0.437988
vt1 0.258301 0.478027
vt1 0.259277 0.544922
vt1 0.270508 0.437012
vt1 0.265869 0.541260
vt1 0.279785 0.475098
vt1 0.288086 0.533203
vt1 0.300781 0.451172
vt1 0.346680 0.372070
vt1 0.304688 0.540771
vt1 0.295898 0.526367
vt1 0.320801 0.523682
vt1 0.315186 0.504639
vt1 0.307373 0.479004
vt1 0.331787 0.503418
vt1 0.318115 0.445312
vt1 0.322510 0.484375
vt1 0.342529 0.480469
vt1 0.366699 0.467773
vt1 0.343506 0.414062
vt1 0.385498 0.423340
vt1 0.396729 0.404297
vt1 0.455078 0.300293
vt1 0.452881 0.264160
vt1 0.478271 0.270508
vt1 0.465332 0.234375
vt1 0.479004 0.304688
vt1 0.505371 0.220215
vt1 0.529297 0.178711
vt1 0.528809 0.206543
vt1 0.542480 0.184082
vt1 0.547363 0.215820
vt1 0.524414 0.229004
vt1 0.488770 0.275391
vt1 0.542480 0.243652
vt1 0.511719 0.287109
vt1 0.518066 0.310547
vt1 0.524902 0.295898
vt1 0.559570 0.298828
vt1 0.551270 0.279297
vt1 0.570312 0.280762
vt1 0.599609 0.287109
vt1 0.596191 0.265625
vt1 0.563477 0.248535
vt1 0.574219 0.231445
vt1 0.719727 0.173828
vt1 0.748535 0.158203
vt1 0.736816 0.182129
vt1 0.701660 0.185059
vt1 0.729980 0.148926
vt1 0.747559 0.120117
vt1 0.700195 0.170410
vt1 0.689941 0.171387
vt1 0.708496 0.159180
vt1 0.700195 0.152344
vt1 0.677734 0.134766
vt1 0.715820 0.146484
vt1 0.725098 0.130859
vt1 0.709961 0.133789
vt1 0.694336 0.141602
vt1 0.697754 0.128906
vt1 0.699219 0.119141
vt1 0.693848 0.104004
vt1 0.735352 0.103516
vt1 0.707520 0.129883
vt1 0.722168 0.125488
vn 0.929134 -0.362205 -0.070866
vn 0.929134 -0.165354 0.330709
vn 0.984252 -0.173228 -0.070866
vn 0.818898 -0.133858 -0.551181
vn 0.968504 -0.086614 -0.236220
vn 0.937008 -0.078740 -0.330709
vn 0.944882 0.031496 0.338583
vn 0.992126 -0.015748 0.125984
vn 0.787402 -0.307087 -0.527559
vn 0.984252 0.110236 -0.157480
vn 0.992126 -0.094488 0.031496
vn 0.992126 -0.055118 -0.094488
vn 0.755906 -0.614173 -0.228346
vn 0.889764 -0.307087 0.330709
vn 0.559055 -0.811023 -0.181102
vn 0.236220 -0.960630 -0.133858
vn 0.023622 -0.763779 -0.645669
vn 0.464567 -0.283465 -0.842520
vn -0.559055 -0.811023 -0.165354
vn -0.165354 -0.952756 0.236221
vn 0.645669 -0.354331 -0.677165
vn -0.763780 -0.645669 0.007874
vn -0.503937 -0.850394 -0.149606
vn 0.905512 -0.094488 -0.401575
vn 0.157480 -0.787401 -0.598425
vn 0.094488 -0.913386 -0.393701
vn 0.976378 0.007874 -0.220472
vn 1.000000 -0.015748 -0.086614
vn 0.834646 -0.496063 -0.251968
vn 0.322835 -0.897638 -0.291338
vn -0.866142 -0.236221 -0.448819
vn 0.401575 -0.866142 -0.291338
vn 0.094488 -0.984252 -0.157480
vn -0.992126 -0.007874 0.141732
vn -0.322835 -0.803150 -0.503937
vn -0.889764 -0.425197 -0.149606
vn -0.944882 -0.283465 -0.149606
vn -0.629921 -0.535433 -0.566929
vn -0.244094 -0.614173 -0.748031
vn -0.968504 -0.244094 -0.086614
vn 0.535433 -0.590551 -0.598425
vn -0.834646 -0.456693 -0.322835
vn -0.748031 -0.464567 -0.472441
vn 0.496063 -0.543307 -0.677165
vn 0.236220 -0.519685 -0.818897
vn 0.259843 -0.779527 -0.566929
vn 0.574803 -0.330709 -0.748031
vn -0.157480 -0.251969 -0.952756
vn 0.031496 -0.433071 -0.897638
vn -0.984252 0.031496 0.188976
vn -0.897638 0.118110 0.425197
vn -0.960630 -0.259842 0.047244
vn -0.204724 -0.811024 -0.551181
vn 0.480315 -0.519685 -0.708661
vn -0.535433 -0.456693 -0.716535
vn 0.771654 -0.188976 -0.606299
vn 0.842520 -0.220472 -0.488189
vn 0.251969 -0.511811 -0.818897
vn 0.511811 -0.133858 -0.850394
vn 0.039370 -0.133858 -0.992126
vn 0.551181 -0.118110 -0.826772
vn 0.354331 -0.259843 -0.897638
vn 0.535433 0.078740 -0.842520
vn 0.307087 0.212598 -0.929134
vn 0.228346 0.047244 -0.968504
vn 0.157480 -0.220473 -0.960630
vn 0.188976 0.299212 -0.937008
vn 0.039370 -0.637795 -0.771653
vn -0.173228 0.102362 -0.984252
vn 0.007874 -0.881890 -0.464567
vn 0.047244 -0.992126 -0.118110
vn 0.102362 -0.960630 -0.259842
vn 0.196850 -0.976378 -0.031496
vn -0.031496 -0.629921 -0.779527
vn 0.023622 -0.976378 -0.212598
vn -0.039370 -1.000000 0.000000
vn -0.598425 -0.795275 -0.062992
vn 0.173228 -0.763779 -0.622047
vn -0.322835 -0.393701 -0.858268
vn -0.622047 -0.653543 -0.425197
vn -0.818898 -0.566929 -0.078740
vn -0.787402 -0.582677 -0.212598
vn -0.732283 -0.377953 -0.574803
vn -0.574803 -0.692913 -0.440945
vn -0.456693 -0.889764 0.007874
vn -0.496063 -0.622047 -0.606299
vn 0.110236 -0.692913 -0.708661
vn 0.007874 -1.000000 0.015748
vn -0.574803 -0.338583 -0.740157
vn -0.078740 -0.937008 -0.338583
vn -0.141732 -0.834646 0.535433
vn -0.196850 -0.433071 -0.881890
vn -0.590551 -0.787401 -0.181102
vn -0.314961 -0.889764 0.330709
vn -0.133858 -0.511811 -0.850394
vn -0.606299 -0.299213 -0.740157
vn -0.338583 -0.125984 -0.929134
vn -0.196850 -0.181102 -0.960630
vn -0.566929 -0.062992 -0.826772
vn -0.535433 -0.086614 -0.842520
vn -0.283465 0.417323 -0.858268
vn -0.685039 0.157480 -0.708661
vn -0.023622 0.472441 -0.881890
vn -0.330709 0.338583 -0.881890
vn -0.559055 0.110236 -0.818897
vn -0.771654 -0.133858 -0.622047
vn -0.527559 -0.275591 -0.803149
vn -0.047244 -0.614173 -0.787401
vn 0.307087 -0.614173 -0.724409
vn -0.291339 -0.724409 -0.629921
vn -0.748031 -0.275591 -0.606299
vn -0.740157 0.307087 -0.598425
vn -0.937008 0.149606 -0.322835
vn -0.976378 -0.220472 0.000000
vn -0.905512 0.322835 -0.275591
vn -0.937008 0.228346 -0.275591
vn -0.850394 -0.385827 0.346457
vn -0.866142 0.196850 -0.448819
vn 0.102362 -0.133858 0.984252
vn -0.984252 -0.149606 0.070866
vn -0.803150 -0.401575 -0.433071
vn -0.850394 -0.165354 -0.503937
vn -0.834646 -0.007874 -0.543307
vn -0.952756 0.133858 -0.267717
vn -0.811024 0.314961 -0.496063
vn -0.874016 0.346457 -0.346457
vn -0.968504 0.149606 0.196850
vn -0.960630 0.228346 -0.157480
vn -0.905512 0.283464 -0.307087
vn -0.803150 0.196850 -0.566929
vn -0.984252 0.007874 -0.173228
vn -0.944882 -0.141732 -0.291339
vn -0.960630 0.283465 -0.055118
vn -0.740157 0.527559 -0.417323
vn -0.952756 0.188976 0.244094
vn -0.905512 0.401575 -0.149606
vn -0.921260 0.220472 0.322835
vn -0.921260 0.393701 0.047244
vn -0.716535 0.149606 0.677165
vn -0.811024 -0.354331 0.464567
vn -0.716535 -0.007874 0.700787
vn -0.677165 -0.433071 0.590551
vn -0.692913 -0.015748 0.724409
vn -0.511811 0.181102 0.834646
vn -0.133858 -0.496063 0.858268
vn -0.165354 -0.645669 0.748031
vn -0.543307 -0.464567 0.700787
vn -0.535433 -0.692913 0.480315
vn -0.653543 -0.251968 0.708661
vn -0.881890 -0.425197 0.228346
vn -0.692913 -0.401575 0.598425
vn -0.606299 -0.228346 0.763779
vn -0.724409 0.007874 0.692913
vn -0.535433 -0.566929 0.622047
vn -0.724409 -0.125984 0.677165
vn -0.346457 -0.015748 0.937008
vn -0.606299 -0.031496 0.795275
vn -0.653543 0.228347 0.724409
vn -0.275591 -0.157480 0.952756
vn -0.803150 0.370079 0.464567
vn -0.283465 0.338583 0.897638
vn -0.874016 0.464567 -0.125984
vn -0.653543 0.614173 0.448819
vn -0.842520 0.519685 -0.141732
vn -0.645669 0.763779 -0.039370
vn -0.897638 0.370079 -0.251969
vn -0.645669 0.755905 -0.102362
vn -0.748031 0.251968 -0.614173
vn -0.929134 0.362205 -0.000000
vn -0.952756 0.039370 -0.307087
vn -0.732283 0.677165 0.047244
vn -0.913386 0.314961 -0.259843
vn -0.125984 0.944882 -0.299213
vn -0.661417 0.314961 -0.685039
vn -0.456693 0.866142 -0.188976
vn -0.519685 0.582677 -0.622047
vn -0.346457 0.574803 -0.740157
vn 0.007874 0.574803 -0.818898
vn 0.023622 0.653543 -0.755905
vn 0.094488 0.748031 -0.653543
vn -0.031496 0.850394 -0.527559
vn -0.133858 0.748031 -0.653543
vn -0.267717 0.653543 -0.700787
vn -0.574803 0.535433 -0.622047
vn -0.314961 0.346457 -0.881890
vn -0.519685 0.732283 -0.440945
vn -0.188976 0.661417 -0.724409
vn 0.228346 0.748031 -0.622047
vn 0.566929 0.755905 -0.330709
vn 0.401575 0.653543 -0.637795
vn -0.047244 0.590551 -0.803150
vn 0.259843 0.897638 -0.346457
vn 0.000000 0.755905 -0.661417
vn -0.039370 0.582677 -0.811024
vn 0.244094 0.685039 -0.685039
vn -0.692913 0.354331 -0.629921
vn -0.354331 0.503937 -0.787401
vn -0.433071 0.401575 -0.803150
vn -0.173228 0.724409 -0.669291
vn 0.047244 0.377953 -0.921260
vn 0.409449 0.251968 -0.874016
vn 0.299213 0.267716 -0.913386
vn 0.543307 0.283464 -0.795276
vn 0.338583 0.519685 -0.787401
vn 0.196850 0.779527 -0.598425
vn 0.740157 0.196850 -0.637795
vn 0.566929 0.677165 -0.472441
vn 0.960630 0.173228 -0.212598
vn 1.000000 0.062992 -0.047244
vn 0.692913 0.409449 -0.598425
vn 0.803150 0.165354 -0.574803
vn 0.409449 0.275590 -0.866142
vn 0.748031 0.173228 -0.637795
vn 0.338583 0.496063 -0.803150
vn 0.708661 0.330709 -0.622047
vn 0.370079 0.700787 -0.606299
vn 0.165354 0.645669 -0.740157
vn 0.409449 0.850394 -0.330709
vn 0.488189 0.566929 -0.661417
vn 0.732283 0.480315 -0.472441
vn 0.732283 0.677165 -0.015748
vn 0.913386 0.307087 0.275590
vn 0.818898 0.551181 0.149606
vn 0.614173 0.771653 -0.181102
vn 0.653543 0.755905 -0.015748
vn 0.582677 0.811023 0.039370
vn 0.440945 0.866142 -0.244095
vn 0.346457 0.937008 -0.039370
vn 0.181102 0.921260 -0.354331
vn 0.141732 0.960630 0.220472
vn 0.110236 0.913386 0.385827
vn -0.133858 0.921260 0.362205
vn 0.393701 0.897638 -0.212599
vn 0.102362 0.944882 -0.307087
vn -0.165354 0.976378 -0.157480
vn 0.086614 0.921260 -0.385827
vn 0.196850 0.937008 -0.283465
vn 0.086614 0.992126 -0.086614
vn 0.188976 0.976378 0.102362
vn 0.480315 0.866142 0.141732
vn 0.330709 0.921260 -0.188976
vn -0.244094 0.897638 -0.362205
vn -0.047244 0.685039 -0.732283
vn -0.322835 0.724409 -0.606299
vn -0.307087 0.582677 -0.748031
vn -0.047244 0.818897 -0.574803
vn 0.039370 0.779527 -0.622047
vn 0.748031 0.661417 -0.078740
vn 0.212598 0.937008 -0.291339
vn -0.141732 0.795275 -0.582677
vn -0.472441 0.850394 -0.244095
vn -0.590551 0.700787 -0.401575
vn -0.314961 0.716535 -0.622047
vn 0.645669 0.425197 -0.637795
vn -0.685039 0.582677 -0.433071
vn 0.881890 0.346457 -0.314961
vn -0.842520 0.031496 -0.543307
vn -0.149606 0.960630 -0.228347
vn -0.055118 0.984252 0.173228
vn -0.842520 0.385827 -0.370079
vn -0.992126 -0.110236 0.007874
vn -0.921260 0.228346 0.330709
vn -0.425197 0.858268 -0.283465
vn -0.409449 0.763779 -0.503937
vn -0.251969 0.968504 0.015748
vn -0.228346 0.976378 -0.039370
vn -0.393701 0.755905 0.519685
vn -0.141732 0.637795 0.755905
vn 0.299213 0.842520 0.448819
vn 0.417323 0.850394 0.330709
vn 0.307087 0.858268 0.401575
vn -0.141732 0.944882 0.299212
vn -0.078740 0.921260 0.385827
vn 0.047244 0.803150 0.590551
vn 0.244094 0.968504 0.102362
vn 0.535433 0.590551 0.606299
vn -0.062992 0.944882 0.314960
vn 0.086614 0.921260 0.370079
vn 0.039370 0.818898 0.574803
vn 0.614173 0.787401 -0.007874
vn 0.574803 0.811023 -0.094488
vn 0.425197 0.677165 0.598425
vn 0.921260 -0.039370 -0.377953
vn 0.000000 0.905512 0.433071
vn 0.992126 -0.133858 -0.047244
vn -0.433071 0.511811 0.740157
vn -0.078740 0.921260 0.385827
vn -0.188976 0.110236 0.976378
vn 0.811024 0.244095 0.535433
vn 0.212598 0.874016 0.433071
vn 0.188976 0.787401 0.582677
vn 0.913386 0.251968 -0.314961
vn 0.299213 0.590551 0.748031
vn 0.000000 0.929134 0.370079
vn -0.133858 0.921260 0.362205
vn 0.110236 0.913386 0.385827
vn -0.110236 0.692913 0.716535
vn 0.377953 0.763779 0.519685
vn 0.346457 0.937008 -0.039370
vn 0.653543 0.755905 -0.015748
vn 0.787402 0.543307 0.299213
vn 0.818898 0.551181 0.149606
vn 0.433071 0.393701 0.811023
vn 0.937008 0.251969 0.236220
vn 0.929134 0.275591 0.244094
vn 0.755906 0.385827 0.527559
vn 0.795276 0.511811 0.322835
vn 0.952756 0.102362 0.283465
vn 0.992126 0.023622 0.110236
vn 0.921260 0.307087 0.236220
vn 1.000000 0.062992 -0.047244
vn 1.000000 -0.015748 -0.086614
vn 0.937008 0.251969 0.251968
vn 0.952756 0.000000 0.314961
vn 0.496063 0.409449 0.763779
vn 0.850394 -0.070866 0.527559
vn 0.984252 -0.133858 0.086614
vn 0.992126 -0.055118 -0.094488
vn 0.992126 -0.094488 0.031496
vn 0.952756 -0.118110 0.275591
vn 0.992126 -0.094488 0.023622
vn 0.960630 -0.275591 -0.023622
vn 0.992126 -0.015748 0.125984
vn 0.937008 -0.354331 0.031496
vn 0.944882 0.031496 0.338583
vn 0.960630 -0.157480 -0.220472
vn 0.598425 -0.228346 0.771653
vn 0.952756 -0.173228 0.244094
vn 0.401575 -0.149606 0.897638
vn 0.984252 -0.173228 -0.070866
vn 0.929134 -0.165354 0.330709
vn 0.929134 -0.362205 -0.070866
vn 0.968504 -0.157480 -0.181102
vn 0.905512 0.062992 0.417323
vn 0.779528 0.622047 0.055118
vn 0.818898 0.551181 -0.149606
vn 0.559055 -0.811023 -0.181102
vn 0.905512 0.409449 -0.110236
vn 0.582677 -0.496063 -0.645669
vn 0.070866 -0.984252 -0.157480
vn 0.582677 0.803149 -0.125984
vn 0.850394 0.456693 -0.267717
vn 0.913386 -0.078740 0.401575
vn 0.748031 -0.653543 0.118110
vn -0.110236 -0.976378 0.173228
vn -0.267717 -0.944882 0.173228
vn -0.503937 -0.850394 -0.149606
vn 0.881890 0.472441 -0.094488
vn -0.314961 -0.944882 -0.062992
vn 0.913386 0.291339 -0.283465
vn 0.653543 -0.755905 0.047244
vn 0.984252 -0.157480 -0.023622
vn 1.000000 0.015748 0.023622
vn 0.645669 -0.716535 0.267717
vn 0.881890 -0.133858 0.456693
vn 0.834646 -0.259842 0.480315
vn 0.755906 -0.133858 0.637795
vn 0.188976 -0.976378 0.078740
vn 0.314961 -0.755905 0.574803
vn -0.031496 -0.992126 -0.149606
vn 0.094488 -0.913386 -0.393701
vn 0.181102 -0.952756 -0.244094
vn 0.322835 -0.897638 -0.291338
vn 0.125984 -0.984252 -0.133858
vn 0.000000 -0.992126 0.133858
vn -0.181102 -0.952756 0.236221
vn 0.047244 -0.992126 -0.118110
vn 0.204724 -0.976378 -0.039370
vn -0.149606 -0.874016 0.464567
vn 0.023622 -0.905512 0.417323
vn 0.165354 -0.677165 0.716535
vn -0.196850 -0.858268 0.472441
vn 0.015748 -0.598425 0.803150
vn 0.370079 -0.480315 0.795276
vn 0.314961 -0.472441 0.818898
vn 0.511811 -0.409449 0.755905
vn 0.661417 -0.291338 0.692913
vn 0.338583 -0.094488 0.937008
vn 0.582677 0.055118 0.811023
vn 0.023622 -0.291338 0.960630
vn 0.220472 0.590551 0.779527
vn 0.133858 -0.685039 0.716535
vn -0.047244 0.456693 0.889764
vn 0.543307 0.346457 0.763779
vn 0.433071 0.401575 0.803149
vn 0.795276 0.448819 0.409449
vn 0.527559 0.338583 0.779527
vn 0.393701 0.425197 0.811023
vn 0.385827 0.503937 0.771653
vn 0.590551 0.511811 0.622047
vn 0.188976 0.141732 0.968504
vn 0.385827 0.496063 0.779527
vn -0.157480 0.228347 0.960630
vn 0.031496 0.377953 0.929134
vn 0.125984 0.228347 0.968504
vn 0.062992 0.110236 0.992126
vn 0.826772 0.440945 0.354331
vn 0.527559 0.314961 0.787401
vn 0.204724 0.346457 0.913386
vn 0.645669 0.173228 0.740157
vn 0.677165 0.228347 0.700787
vn -0.070866 0.125984 0.992126
vn 0.244094 0.086614 0.968504
vn 0.362205 0.110236 0.929134
vn -0.031496 -0.094488 0.992126
vn -0.015748 0.094488 0.992126
vn -0.078740 0.023622 1.000000
vn -0.141732 0.283465 0.944882
vn -0.228346 0.015748 0.976378
vn 0.023622 -0.677165 0.740157
vn 0.181102 -0.826771 0.527559
vn 0.070866 -0.787401 0.606299
vn 0.362205 -0.716535 0.598425
vn -0.795276 -0.535433 0.283465
vn 0.118110 -0.937008 0.322835
vn -0.039370 -1.000000 0.000000
vn -0.267717 -0.960630 0.055118
vn -0.598425 -0.795275 -0.062992
vn -0.456693 -0.889764 0.007874
vn -0.566929 -0.787401 0.259843
vn -0.637795 -0.614173 0.464567
vn -0.700787 -0.559055 0.448819
vn -0.661417 -0.653543 0.370079
vn -0.527559 -0.669291 0.527559
vn -0.118110 -0.858268 0.496063
vn -0.842520 -0.448819 0.299213
vn 0.000000 -0.937008 0.346457
vn 0.047244 -0.535433 0.842520
vn -0.039370 -0.535433 0.842520
vn -0.118110 -0.834646 0.543307
vn -0.055118 -0.622047 0.787401
vn 0.007874 -1.000000 0.015748
vn -0.716535 -0.181102 -0.669291
vn -0.818898 -0.425197 0.393701
vn -0.787402 -0.267717 -0.551181
vn -0.330709 -0.354331 -0.874016
vn -0.858268 0.362205 0.370079
vn -0.748031 -0.283464 0.598425
vn 0.110236 0.196850 -0.976378
vn 0.685039 0.409449 -0.598425
vn -0.330709 0.763779 -0.551181
vn 0.834646 0.503937 -0.220472
vn 0.732283 0.165354 -0.661417
vn -0.141732 0.968504 0.220472
vn -0.488189 0.708661 0.503937
vn -0.125984 0.992126 -0.000000
vn 0.433071 0.496063 -0.755905
vn 0.685039 0.606299 -0.401575
vn 0.803150 0.118110 0.582677
vn 0.826772 -0.133858 0.543307
vn 0.582677 -0.377953 0.716535
vn 0.354331 0.787401 0.503937
vn 0.283465 0.417323 0.858268
tan -0.335049 -0.751317 -0.552793 1.000000
tan 0.193998 -0.505797 -0.797941 1.000000
tan -0.161386 -0.596751 -0.782751 1.000000
tan -0.566247 -0.264493 -0.777047 1.000000
tan -0.207886 -0.785479 -0.564325 1.000000
tan -0.336413 -0.346767 -0.870606 1.000000
tan 0.311055 -0.459173 -0.825345 1.000000
tan 0.107384 -0.421849 -0.898382 1.000000
tan -0.591853 -0.589311 -0.540331 1.000000
tan -0.121768 -0.263501 -0.945502 1.000000
tan 0.005952 -0.257797 -0.960878 1.000000
tan -0.099820 -0.109368 -0.984314 1.000000
tan -0.636307 -0.766135 -0.045756 1.000000
tan -0.333127 -0.897576 0.062806 1.000000
tan -0.811768 -0.576043 0.073780 1.000000
tan -0.808296 -0.270692 0.516213 1.000000
tan -0.630851 -0.502387 0.571207 1.000000
tan -0.811644 -0.260091 -0.360035 1.000000
tan -0.732531 0.403001 0.500031 1.000000
tan -0.511997 0.287557 0.801413 1.000000
tan -0.719263 -0.102424 -0.632215 1.000000
tan -0.566247 0.675553 0.469403 1.000000
tan -0.764462 0.372125 0.459793 1.000000
tan -0.410875 -0.274103 -0.861988 1.000000
tan -0.914378 -0.316697 0.176080 1.000000
tan -0.901234 -0.207824 0.265857 1.000000
tan -0.217868 -0.107632 -0.968690 1.000000
tan -0.085994 0.039370 -1.000000 1.000000
tan -0.521917 -0.828074 -0.098580 1.000000
tan -0.883130 -0.379193 0.189720 1.000000
tan -0.507223 0.399095 0.768801 1.000000
tan -0.854920 -0.460041 0.189286 1.000000
tan -0.930002 -0.140120 0.317751 1.000000
tan 0.118854 0.492157 0.859322 1.000000
tan -0.864654 0.091698 0.407775 1.000000
tan -0.410503 0.636307 0.632959 1.000000
tan -0.289789 0.563085 0.763345 1.000000
tan -0.735073 0.159216 0.666377 1.000000
tan -0.842582 -0.239630 0.471697 1.000000
tan -0.211234 0.556017 0.795027 1.000000
tan -0.719821 -0.683737 0.030690 1.000000
tan -0.537851 0.506913 0.673445 1.000000
tan -0.643189 0.340381 0.683675 1.000000
tan -0.736809 -0.659061 -0.010974 1.000000
tan -0.892926 -0.326741 -0.050220 1.000000
tan -0.629983 -0.574555 0.501271 1.000000
tan -0.797260 -0.308823 -0.476099 1.000000
tan -0.951206 -0.123814 0.189968 1.000000
tan -0.893732 -0.163308 0.047430 1.000000
tan 0.190712 0.240251 0.953252 1.000000
tan 0.438217 0.363445 0.824167 1.000000
tan -0.090024 0.484841 0.836134 1.000000
tan -0.771592 -0.172360 0.540207 1.000000
tan -0.783062 -0.582801 -0.103354 1.000000
tan -0.717155 -0.207638 0.668237 1.000000
tan -0.549879 -0.667927 -0.491661 1.000000
tan -0.461529 -0.738173 -0.463141 1.000000
tan -0.529543 -0.689937 0.268275 1.000000
tan -0.789758 -0.352285 -0.419865 1.000000
tan -0.898382 -0.414037 0.020212 1.000000
tan -0.829562 -0.078120 -0.541881 1.000000
tan -0.802034 -0.478765 -0.178002 1.000000
tan -0.835266 -0.130262 -0.542997 1.000000
tan -0.841342 -0.387749 -0.366793 1.000000
tan -0.861368 -0.444107 -0.224750 1.000000
tan -0.786658 -0.552173 -0.002232 1.000000
tan -0.826028 -0.452973 -0.311241 1.000000
tan -0.393143 -0.710707 0.567363 1.000000
tan -0.868002 -0.465001 0.104408 1.000000
tan -0.677971 -0.316821 0.589931 1.000000
tan -0.921818 -0.087606 0.367165 1.000000
tan -0.821006 -0.222084 0.497613 1.000000
tan -0.876434 -0.190340 0.422841 1.000000
tan -0.154876 -0.766259 0.625457 1.000000
tan -0.691921 -0.167400 0.691921 1.000000
tan -0.787402 0.031000 0.614173 1.000000
tan -0.545849 0.352657 0.733275 1.000000
tan -0.329407 -0.639345 0.693285 1.000000
tan -0.702275 -0.495009 0.491227 1.000000
tan -0.539835 -0.027590 0.832166 1.000000
tan -0.283713 0.287185 0.882882 1.000000
tan -0.338521 0.135780 0.881642 1.000000
tan -0.568603 -0.126294 0.807428 1.000000
tan -0.498481 -0.128278 0.851386 1.000000
tan -0.398351 0.211916 0.842210 1.000000
tan -0.374605 -0.454833 0.773142 1.000000
tan -0.181784 -0.713993 0.669849 1.000000
tan -0.511811 0.009486 0.858268 1.000000
tan -0.684543 -0.286874 0.662843 1.000000
tan -0.401699 -0.273730 0.850952 1.000000
tan -0.081220 0.545725 0.829189 1.000000
tan -0.604005 -0.649637 0.453841 1.000000
tan 0.045446 -0.240498 0.897452 1.000000
tan 0.883564 -0.367289 -0.146692 1.000000
tan -0.515655 -0.684419 0.493087 1.000000
tan -0.695765 -0.246388 0.669539 1.000000
tan -0.841342 -0.395065 0.360159 1.000000
tan -0.824478 -0.499225 0.263067 1.000000
tan -0.799244 -0.228222 0.565441 1.000000
tan -0.762726 -0.380495 0.523839 1.000000
tan -0.712877 -0.488809 -0.002232 1.000000
tan -0.717341 -0.153264 0.659371 1.000000
tan -0.604625 -0.646165 -0.329965 1.000000
tan -0.809226 -0.378449 0.158162 1.000000
tan -0.770909 -0.373799 0.475975 1.000000
tan -0.602393 -0.104656 0.769793 1.000000
tan -0.659309 -0.469589 0.594209 1.000000
tan -0.184016 -0.766569 0.608965 1.000000
tan -0.340009 -0.768925 0.507781 1.000000
tan -0.179056 -0.587885 0.758881 1.000000
tan -0.549011 -0.186868 0.762291 1.000000
tan -0.668237 -0.422593 0.609647 1.000000
tan -0.339079 -0.632215 0.691177 1.000000
tan 0.149296 -0.661169 0.722673 1.000000
tan -0.422345 -0.691611 0.577531 1.000000
tan -0.348689 -0.749519 0.564511 1.000000
tan 0.509145 -0.503441 0.689069 1.000000
tan -0.459979 -0.600409 0.624341 1.000000
tan 0.751751 -0.635501 -0.164610 1.000000
tan 0.165354 -0.860252 0.480501 1.000000
tan -0.064914 -0.548763 0.629239 1.000000
tan -0.357059 -0.487817 0.762601 1.000000
tan -0.519747 -0.238576 0.801910 1.000000
tan -0.282473 -0.690185 0.660177 1.000000
tan -0.587327 -0.399839 0.706367 1.000000
tan -0.485585 -0.697811 0.527187 1.000000
tan -0.020646 -0.815983 0.518569 1.000000
tan -0.278629 -0.801785 0.537045 1.000000
tan -0.411805 -0.717837 0.551677 1.000000
tan -0.578585 -0.501457 0.645545 1.000000
tan -0.103354 -0.815115 0.550189 1.000000
tan -0.149172 -0.565441 0.758881 1.000000
tan -0.278319 -0.862298 0.416021 1.000000
tan -0.664827 -0.653481 0.353029 1.000000
tan -0.042594 -0.825221 0.472627 1.000000
tan -0.428049 -0.827081 0.370761 1.000000
tan -0.035092 -0.807737 0.451485 1.000000
tan -0.347945 -0.856345 0.351293 1.000000
tan 0.597433 -0.325749 0.704135 1.000000
tan 0.552669 -0.692479 0.436667 1.000000
tan 0.434931 -0.792609 0.435799 1.000000
tan 0.727571 -0.475665 0.485461 1.000000
tan 0.390973 -0.849402 0.355509 1.000000
tan 0.777792 -0.301259 0.542315 1.000000
tan 0.663215 -0.637113 -0.264802 1.000000
tan 0.402319 -0.712505 -0.526071 1.000000
tan 0.661045 -0.666935 0.070370 1.000000
tan 0.674499 -0.678157 -0.226424 1.000000
tan 0.491165 -0.848658 0.151218 1.000000
tan 0.425197 -0.883688 -0.003348 1.000000
tan 0.540951 -0.833530 0.067022 1.000000
tan 0.467047 -0.793601 0.133486 1.000000
tan 0.514353 -0.665137 0.545291 1.000000
tan 0.414037 -0.807366 -0.379441 1.000000
tan 0.638725 -0.496125 0.590985 1.000000
tan 0.346891 -0.873334 0.113584 1.000000
tan 0.436729 -0.823733 0.300329 1.000000
tan 0.487073 -0.605121 0.630169 1.000000
tan 0.246326 -0.920578 -0.080910 1.000000
tan -0.049910 -0.711575 0.480563 1.000000
tan 0.106020 -0.890570 0.369397 1.000000
tan -0.475603 -0.804203 0.333995 1.000000
tan -0.460723 -0.761423 0.371071 1.000000
tan -0.533449 -0.769483 0.349619 1.000000
tan -0.717713 -0.587823 0.366731 1.000000
tan -0.445781 -0.749209 0.487693 1.000000
tan -0.756402 -0.631719 0.106144 1.000000
tan -0.663897 -0.330027 0.673197 1.000000
tan -0.330833 -0.848657 0.381673 1.000000
tan -0.249737 -0.667431 0.689255 1.000000
tan -0.667741 -0.730237 0.116746 1.000000
tan -0.406411 -0.733585 0.539401 1.000000
tan -0.880278 -0.006324 0.350673 1.000000
tan -0.732221 -0.448075 0.500961 1.000000
tan -0.855478 -0.418253 0.150412 1.000000
tan -0.843946 -0.466241 0.268337 1.000000
tan -0.783248 -0.490297 -0.014136 1.000000
tan -0.461095 -0.689627 -0.488499 1.000000
tan -0.506045 -0.632773 -0.562899 1.000000
tan -0.959638 0.110546 -0.012214 1.000000
tan -0.889392 0.018600 0.083080 1.000000
tan -0.979416 -0.188914 -0.015624 1.000000
tan -0.781450 -0.539835 -0.204910 1.000000
tan -0.808978 -0.482671 0.332073 1.000000
tan -0.848410 -0.278256 0.193688 1.000000
tan -0.834274 -0.504929 0.144708 1.000000
tan -0.661665 -0.593217 -0.369025 1.000000
tan -0.914440 0.122202 -0.188728 1.000000
tan -0.766322 0.556513 -0.041664 1.000000
tan -0.889268 0.135036 -0.421539 1.000000
tan -0.773947 -0.439333 -0.277512 1.000000
tan -0.896026 0.214148 -0.117180 1.000000
tan -0.903962 -0.218736 -0.249984 1.000000
tan -0.698431 -0.529853 -0.346767 1.000000
tan -0.755161 -0.297725 -0.566805 1.000000
tan -0.714861 -0.357121 0.585467 1.000000
tan -0.833530 -0.469341 0.074710 1.000000
tan -0.762043 -0.327423 0.247194 1.000000
tan -0.598673 -0.619753 -0.515841 1.000000
tan -0.850766 -0.395995 -0.206088 1.000000
tan -0.839606 -0.247753 -0.464753 1.000000
tan -0.833406 -0.381301 -0.384773 1.000000
tan -0.775126 -0.204042 -0.602269 1.000000
tan -0.685349 -0.439147 -0.584537 1.000000
tan -0.307211 -0.508091 -0.762911 1.000000
tan -0.640895 -0.008432 -0.746357 1.000000
tan -0.668733 0.056544 -0.721433 1.000000
tan -0.230020 0.104222 -0.954430 1.000000
tan -0.061628 0.251968 -0.968504 1.000000
tan -0.651993 0.039184 -0.728129 1.000000
tan -0.587823 0.058714 -0.804451 1.000000
tan -0.836072 -0.236221 -0.470395 1.000000
tan -0.647343 0.001054 -0.758943 1.000000
tan -0.808358 -0.277513 -0.512183 1.000000
tan -0.664641 0.039494 -0.736189 1.000000
tan -0.766384 -0.123318 -0.610329 1.000000
tan -0.598301 -0.526877 -0.593279 1.000000
tan -0.794222 0.263872 -0.304793 1.000000
tan -0.776738 -0.060264 -0.624961 1.000000
tan -0.639841 0.297601 -0.689193 1.000000
tan -0.634137 0.677661 -0.347945 1.000000
tan 0.072354 0.486205 -0.781574 1.000000
tan -0.402381 0.733461 -0.499721 1.000000
tan -0.764090 0.544361 -0.271809 1.000000
tan -0.717093 0.613305 -0.320727 1.000000
tan -0.797942 0.580321 -0.145080 1.000000
tan -0.854052 0.350921 -0.297601 1.000000
tan -0.893360 0.318309 -0.285821 1.000000
tan -0.829748 0.003534 -0.414905 1.000000
tan -0.907682 0.206832 -0.317689 1.000000
tan -0.844194 0.269080 -0.395809 1.000000
tan -0.917912 -0.046934 -0.219852 1.000000
tan -0.879782 0.337529 -0.204104 1.000000
tan -0.922562 0.029822 -0.215760 1.000000
tan -0.976378 -0.175274 -0.061504 1.000000
tan -0.836072 -0.089342 -0.401017 1.000000
tan -0.924484 0.146878 -0.156488 1.000000
tan -0.960878 0.105710 0.249984 1.000000
tan -0.507409 0.010354 0.837994 1.000000
tan -0.871722 0.481431 0.012090 1.000000
tan -0.906752 0.292765 -0.159588 1.000000
tan -0.906194 -0.226982 0.048174 1.000000
tan -0.626821 -0.589807 -0.511315 1.000000
tan -0.856594 -0.480129 -0.117552 1.000000
tan -0.857090 -0.459669 -0.006200 1.000000
tan -0.952880 -0.134788 -0.113708 1.000000
tan -0.937194 -0.152644 -0.250604 1.000000
tan -0.663401 0.731911 -0.154256 1.000000
tan -0.937008 0.196540 -0.051646 1.000000
tan -0.898630 -0.313101 -0.208754 1.000000
tan -0.851386 -0.434125 0.135408 1.000000
tan -0.730051 -0.601711 0.023560 1.000000
tan -0.669415 -0.629735 -0.386447 1.000000
tan -0.644491 0.739661 -0.159340 1.000000
tan -0.715047 -0.607539 0.313659 1.000000
tan -0.442929 0.807985 -0.351417 1.000000
tan -0.426747 -0.633827 0.625023 1.000000
tan -0.922810 -0.080786 0.264740 1.000000
tan -0.736251 -0.155806 0.651001 1.000000
tan -0.517763 -0.747225 0.399715 1.000000
tan 0.101742 -0.882758 0.460909 1.000000
tan -0.040734 -0.831235 0.460475 1.000000
tan -0.824354 -0.308017 0.303925 1.000000
tan -0.769608 -0.030008 0.579825 1.000000
tan -0.739724 -0.202616 0.625333 1.000000
tan -0.568913 -0.101122 0.791865 1.000000
tan -0.246636 -0.630665 0.730485 1.000000
tan -0.033294 -0.765949 0.640027 1.000000
tan 0.012834 -0.455887 0.847232 1.000000
tan -0.081468 -0.312356 0.906008 1.000000
tan -0.059954 -0.384649 0.867940 1.000000
tan 0.528241 -0.170500 0.788642 1.000000
tan -0.043524 -0.389547 0.921260 1.000000
tan 0.056916 -0.593899 0.803150 1.000000
tan 0.183024 -0.146878 0.953252 1.000000
tan 0.070556 -0.742389 0.660797 1.000000
tan 0.205840 -0.294128 0.923554 1.000000
tan 0.278567 -0.378511 0.877054 1.000000
tan 0.062558 -0.577593 0.818588 1.000000
tan 0.584413 -0.449563 0.627937 1.000000
tan 0.707235 -0.446463 0.470209 1.000000
tan 0.180296 -0.699361 0.663277 1.000000
tan 0.356749 -0.226548 0.893174 1.000000
tan 0.274351 -0.412611 0.862732 1.000000
tan -0.013082 -0.414037 0.898382 1.000000
tan 0.433071 -0.597867 0.666811 1.000000
tan 0.356129 -0.329345 0.859074 1.000000
tan 0.761114 -0.607353 0.215884 1.000000
tan 0.274723 -0.928700 0.007254 1.000000
tan 0.608841 -0.462831 0.635191 1.000000
tan 0.309505 -0.611445 0.725897 1.000000
tan 0.400769 -0.479385 0.778722 1.000000
tan 0.308761 -0.785727 0.496807 1.000000
tan 0.563271 -0.300142 0.753549 1.000000
tan 0.513237 -0.233492 0.783557 1.000000
tan 0.648087 -0.352843 0.650133 1.000000
tan 0.483973 -0.594147 0.649017 1.000000
tan 0.473433 -0.639469 0.595511 1.000000
tan 0.886292 -0.314341 0.318061 1.000000
tan 0.751194 -0.646661 0.134788 1.000000
tan 0.550809 -0.825966 0.050282 1.000000
tan 0.552359 -0.827143 0.023932 1.000000
tan 0.372187 -0.785541 0.182590 1.000000
tan 0.272305 -0.937070 -0.080600 1.000000
tan 0.319053 -0.909108 -0.188046 1.000000
tan 0.501953 -0.848286 -0.098828 1.000000
tan 0.545911 -0.799181 -0.077810 1.000000
tan 0.135036 -0.951950 -0.110112 1.000000
tan 0.030566 -0.992126 -0.062496 1.000000
tan 0.353215 -0.899684 -0.207948 1.000000
tan 0.051088 -0.976378 -0.220472 1.000000
tan -0.041602 -0.952756 -0.307086 1.000000
tan 0.293633 -0.924236 -0.167710 1.000000
tan 0.114080 -0.885238 -0.345093 1.000000
tan 0.586645 -0.672577 -0.020460 1.000000
tan 0.249923 -0.731229 -0.501085 1.000000
tan -0.079546 -0.875752 -0.449501 1.000000
tan -0.092504 -0.874946 -0.460909 1.000000
tan -0.062744 -0.835886 -0.531217 1.000000
tan 0.058590 -0.787712 -0.540145 1.000000
tan -0.064914 -0.820262 -0.554653 1.000000
tan -0.246636 -0.816914 -0.499225 1.000000
tan 0.058528 -0.812450 -0.562465 1.000000
tan -0.284705 -0.796826 -0.494327 1.000000
tan 0.227912 -0.769545 -0.564449 1.000000
tan -0.261641 -0.748837 -0.605121 1.000000
tan 0.647467 -0.441317 -0.632711 1.000000
tan 0.035154 -0.712877 -0.643127 1.000000
tan 0.770414 -0.459421 -0.421229 1.000000
tan -0.175398 -0.720751 -0.674251 1.000000
tan 0.167958 -0.566929 -0.755347 1.000000
tan -0.248497 -0.479509 -0.807241 1.000000
tan -0.231818 -0.434683 -0.861740 1.000000
tan 0.400583 -0.423957 -0.805195 1.000000
tan 0.615909 -0.751937 -0.224564 1.000000
tan 0.348007 -0.678963 -0.596565 1.000000
tan -0.781388 -0.453717 -0.380247 1.000000
tan 0.280985 -0.763593 -0.528117 1.000000
tan -0.807614 -0.415773 -0.409387 1.000000
tan -0.844752 0.019778 -0.503751 1.000000
tan 0.724657 -0.583793 -0.370141 1.000000
tan 0.136028 -0.619505 -0.624713 1.000000
tan 0.275405 -0.552917 -0.734825 1.000000
tan -0.602703 -0.737181 -0.261950 1.000000
tan -0.461281 -0.100688 -0.861058 1.000000
tan -0.581685 0.028024 -0.746109 1.000000
tan -0.280923 0.319176 -0.868002 1.000000
tan 0.319177 -0.711761 -0.579825 1.000000
tan -0.347697 0.175088 -0.887842 1.000000
tan 0.041726 -0.719945 -0.605493 1.000000
tan -0.701221 -0.627627 -0.341807 1.000000
tan -0.128340 -0.697501 -0.697501 1.000000
tan 0.027342 -0.755905 -0.653543 1.000000
tan -0.369211 -0.599045 -0.712877 1.000000
tan 0.216938 -0.693037 -0.622047 1.000000
tan 0.249799 -0.507223 -0.708475 1.000000
tan 0.502387 -0.444727 -0.688759 1.000000
tan -0.261393 -0.126232 -0.937938 1.000000
tan -0.041168 -0.602517 -0.769793 1.000000
tan -0.007812 0.149854 -0.992126 1.000000
tan 0.061628 0.400397 -0.914130 1.000000
tan 0.135036 0.267840 -0.945254 1.000000
tan 0.231322 0.368839 -0.880092 1.000000
tan 0.395251 0.172856 -0.899002 1.000000
tan 0.218736 -0.130696 -0.968690 1.000000
tan 0.442619 -0.294315 -0.847728 1.000000
tan 0.492157 0.125736 -0.859322 1.000000
tan 0.561225 0.149916 -0.799553 1.000000
tan 0.227106 -0.488809 -0.846488 1.000000
tan 0.404737 -0.367847 -0.821067 1.000000
tan 0.050778 -0.716535 -0.688883 1.000000
tan 0.338583 -0.511191 -0.787587 1.000000
tan 0.061628 -0.803026 -0.599541 1.000000
tan 0.211358 -0.780147 -0.569533 1.000000
tan 0.208816 -0.800050 -0.541881 1.000000
tan 0.279249 -0.747598 -0.594023 1.000000
tan 0.525885 -0.472689 -0.700725 1.000000
tan 0.376279 -0.855850 -0.222270 1.000000
tan 0.562961 -0.659123 -0.359663 1.000000
tan 0.234484 -0.930374 -0.287928 1.000000
tan 0.308203 -0.791307 0.512307 1.000000
tan 0.105958 -0.705623 -0.694401 1.000000
tan 0.301259 -0.840722 0.447517 1.000000
tan 0.448137 -0.780395 0.035216 1.000000
tan 0.278257 -0.833405 0.266663 1.000000
tan 0.432389 -0.837374 0.078058 1.000000
tan 0.182466 -0.867134 0.253147 1.000000
tan 0.285635 -0.859322 0.311861 1.000000
tan 0.102548 -0.792919 0.466551 1.000000
tan 0.318929 -0.855912 0.401451 1.000000
tan 0.244032 -0.938000 0.089652 1.000000
tan 0.073098 -0.815921 0.483043 1.000000
tan 0.257177 -0.922810 0.261517 1.000000
tan 0.065844 -0.929134 0.375721 1.000000
tan 0.205902 -0.945626 0.196168 1.000000
tan 0.234360 -0.960878 0.091884 1.000000
tan 0.278567 -0.784921 0.326803 1.000000
tan 0.021080 -0.914316 0.351603 1.000000
tan 0.006448 -0.921446 0.348069 1.000000
tan -0.047120 -0.957654 0.265237 1.000000
tan 0.169632 -0.967512 0.151342 1.000000
tan 0.101556 -0.984314 0.132246 1.000000
tan 0.167772 -0.953252 0.042966 1.000000
tan 0.050840 -0.951950 0.093124 1.000000
tan 0.132804 -0.984314 -0.089528 1.000000
tan 0.187488 -0.976502 0.095976 1.000000
tan 0.212598 -0.976378 0.039804 1.000000
tan 0.133920 -0.937442 0.301321 1.000000
tan 0.284457 -0.930250 0.081530 1.000000
tan 0.141236 -0.732655 -0.674809 1.000000
tan 0.309133 -0.451299 -0.813379 1.000000
tan 0.222766 -0.571021 -0.767623 1.000000
tan 0.371939 -0.470581 -0.788579 1.000000
tan 0.522041 -0.813132 -0.071300 1.000000
tan 0.514415 -0.208754 -0.794097 1.000000
tan 0.543307 -0.021390 -0.842520 1.000000
tan 0.687457 -0.230455 -0.677413 1.000000
tan 0.606485 -0.404737 -0.651807 1.000000
tan 0.728005 -0.378449 -0.540393 1.000000
tan 0.667741 -0.620311 -0.422841 1.000000
tan 0.545291 -0.785604 -0.289974 1.000000
tan 0.485895 -0.823858 -0.267530 1.000000
tan 0.612375 -0.747969 -0.226424 1.000000
tan 0.610391 -0.726951 -0.311860 1.000000
tan 0.598177 -0.454213 -0.643437 1.000000
tan 0.457065 -0.868870 -0.016306 1.000000
tan 0.666749 -0.242793 -0.656643 1.000000
tan 0.355199 -0.768057 -0.508029 1.000000
tan 0.312977 -0.790998 -0.488065 1.000000
tan 0.328291 -0.549445 -0.772707 1.000000
tan 0.371753 -0.742017 -0.560171 1.000000
tan 0.519685 -0.009424 -0.858268 1.000000
tan -0.674189 0.333747 0.631471 1.000000
tan 0.277761 0.239941 0.836878 1.000000
tan -0.607849 0.465621 0.642197 1.000000
tan -0.052452 0.884432 -0.338707 1.000000
tan 0.502945 0.454771 0.721309 1.000000
tan 0.646537 -0.176700 0.724471 1.000000
tan 0.392089 0.891810 0.224068 1.000000
tan 0.456321 0.358361 0.767561 1.000000
tan 0.230206 0.626697 0.730299 1.000000
tan 0.466241 -0.457561 0.719201 1.000000
tan 0.670531 -0.014322 0.738793 1.000000
tan 0.480439 -0.120652 0.838862 1.000000
tan 0.512493 -0.185628 0.757517 1.000000
tan 0.531217 0.067456 0.835886 1.000000
tan 0.730981 0.289789 0.608965 1.000000
tan 0.713249 -0.518383 0.434063 1.000000
tan -0.350425 -0.651621 0.615103 1.000000
tan -0.473495 -0.645607 0.561473 1.000000
tan 0.653853 -0.283527 -0.681257 1.000000
tan 0.425569 -0.614297 0.660611 1.000000
tan 0.420609 -0.812821 0.256309 1.000000
f 3/3/3 2/2/2 1/1/1
f 4/4/4 3/3/3 1/1/1
f 1/1/1 5/5/5 4/4/4
f 3/3/3 4/4/4 6/6/6
f 3/3/3 6/6/6 7/7/7
f 8/8/8 7/7/7 6/6/6
f 4/4/4 5/5/5 9/9/9
f 10/10/10 8/8/8 6/6/6
f 11/11/11 8/8/8 10/10/10
f 11/11/11 10/10/10 12/12/12
f 9/9/9 5/5/5 13/13/13
f 14/14/14 13/13/13 5/5/5
f 13/13/13 14/14/14 15/15/15
f 13/13/13 15/15/15 16/16/16
f 13/13/13 17/17/17 9/9/9
f 13/13/13 16/16/16 17/17/17
f 4/4/4 9/9/9 18/18/18
f 18/18/18 9/9/9 17/17/17
f 19/19/19 17/17/17 16/16/16
f 16/16/16 20/20/20 19/19/19
f 18/18/18 21/21/21 4/4/4
f 4/4/4 21/21/21 6/6/6
f 19/19/19 20/20/20 22/22/22
f 23/23/23 22/22/22 20/20/20
f 24/24/24 6/6/6 21/21/21
f 6/6/6 24/24/24 10/10/10
f 22/22/22 23/23/23 25/25/25
f 25/25/25 23/23/23 26/26/26
f 24/24/24 27/27/27 10/10/10
f 12/12/12 10/10/10 27/27/27
f 27/27/27 28/28/28 12/12/12
f 29/29/29 25/25/25 26/26/26
f 29/29/29 26/26/26 30/30/30
f 25/25/25 31/31/31 22/22/22
f 30/30/30 32/32/32 29/29/29
f 32/32/32 30/30/30 33/33/33
f 34/34/34 22/22/22 31/31/31
f 22/22/22 34/34/34 19/19/19
f 35/35/35 31/31/31 25/25/25
f 25/25/25 29/29/29 35/35/35
f 34/34/34 31/31/31 36/36/36
f 31/31/31 35/35/35 36/36/36
f 19/19/19 34/34/34 37/37/37
f 34/34/34 36/36/36 37/37/37
f 38/38/38 19/19/19 37/37/37
f 17/17/17 19/19/19 38/38/38
f 17/17/17 38/38/38 39/39/39
f 39/39/39 38/38/38 37/37/37
f 39/39/39 18/18/18 17/17/17
f 40/40/40 37/37/37 36/36/36
f 37/37/37 40/40/40 39/39/39
f 35/35/35 41/41/41 36/36/36
f 41/41/41 35/35/35 29/29/29
f 36/36/36 42/42/42 40/40/40
f 42/42/42 36/36/36 41/41/41
f 39/39/39 40/40/40 43/43/43
f 29/29/29 44/44/44 41/41/41
f 43/43/43 45/45/45 39/39/39
f 18/18/18 39/39/39 45/45/45
f 44/44/44 29/29/29 46/46/46
f 32/32/32 46/46/46 29/29/29
f 45/45/45 47/47/47 18/18/18
f 47/47/47 21/21/21 18/18/18
f 47/47/47 45/45/45 48/48/48
f 45/45/45 43/43/43 48/48/48
f 21/21/21 47/47/47 49/49/49
f 48/48/48 49/49/49 47/47/47
f 50/50/50 48/48/48 43/43/43
f 49/49/49 48/48/48 50/50/50
f 43/43/43 51/51/51 50/50/50
f 51/51/51 43/43/43 40/40/40
f 52/52/52 51/51/51 40/40/40
f 51/51/51 52/52/52 50/50/50
f 40/40/40 42/42/42 52/52/52
f 53/53/53 50/50/50 52/52/52
f 54/54/54 52/52/52 42/42/42
f 52/52/52 54/54/54 53/53/53
f 42/42/42 41/41/41 54/54/54
f 50/50/50 53/53/53 55/55/55
f 55/55/55 49/49/49 50/50/50
f 56/56/56 53/53/53 54/54/54
f 55/55/55 53/53/53 56/56/56
f 57/57/57 54/54/54 41/41/41
f 54/54/54 57/57/57 56/56/56
f 44/44/44 57/57/57 41/41/41
f 57/57/57 44/44/44 58/58/58
f 58/58/58 56/56/56 57/57/57
f 44/44/44 46/46/46 58/58/58
f 56/56/56 59/59/59 55/55/55
f 56/56/56 58/58/58 59/59/59
f 49/49/49 55/55/55 60/60/60
f 60/60/60 55/55/55 59/59/59
f 49/49/49 61/61/61 21/21/21
f 49/49/49 60/60/60 61/61/61
f 21/21/21 61/61/61 24/24/24
f 62/62/62 60/60/60 59/59/59
f 61/61/61 63/63/63 24/24/24
f 63/63/63 27/27/27 24/24/24
f 60/60/60 64/64/64 61/61/61
f 64/64/64 63/63/63 61/61/61
f 60/60/60 62/62/62 65/65/65
f 65/65/65 64/64/64 60/60/60
f 66/66/66 62/62/62 59/59/59
f 65/65/65 62/62/62 66/66/66
f 66/66/66 59/59/59 58/58/58
f 64/64/64 65/65/65 67/67/67
f 58/58/58 68/68/68 66/66/66
f 68/68/68 58/58/58 46/46/46
f 69/69/69 65/65/65 66/66/66
f 65/65/65 69/69/69 67/67/67
f 46/46/46 70/70/70 68/68/68
f 46/46/46 32/32/32 70/70/70
f 32/32/32 33/33/33 70/70/70
f 70/70/70 33/33/33 71/71/71
f 71/71/71 72/72/72 70/70/70
f 71/71/71 73/73/73 72/72/72
f 74/74/74 68/68/68 70/70/70
f 70/70/70 72/72/72 74/74/74
f 75/75/75 72/72/72 73/73/73
f 73/73/73 76/76/76 75/75/75
f 76/76/76 77/77/77 75/75/75
f 78/78/78 74/74/74 72/72/72
f 78/78/78 72/72/72 75/75/75
f 78/78/78 79/79/79 74/74/74
f 80/80/80 78/78/78 75/75/75
f 79/79/79 78/78/78 80/80/80
f 77/77/77 81/81/81 75/75/75
f 80/80/80 75/75/75 81/81/81
f 81/81/81 77/77/77 82/82/82
f 80/80/80 83/83/83 79/79/79
f 84/84/84 82/82/82 77/77/77
f 77/77/77 85/85/85 84/84/84
f 86/86/86 80/80/80 81/81/81
f 81/81/81 82/82/82 86/86/86
f 80/80/80 86/86/86 83/83/83
f 82/82/82 84/84/84 87/87/87
f 87/87/87 84/84/84 85/85/85
f 87/87/87 86/86/86 82/82/82
f 85/85/85 88/88/88 87/87/87
f 86/86/86 89/89/89 83/83/83
f 89/89/89 79/79/79 83/83/83
f 90/90/90 87/87/87 88/88/88
f 88/88/88 91/91/91 90/90/90
f 92/92/92 79/79/79 89/89/89
f 74/74/74 79/79/79 92/92/92
f 68/68/68 74/74/74 92/92/92
f 93/93/93 90/90/90 91/91/91
f 94/94/94 93/93/93 91/91/91
f 92/92/92 95/95/95 68/68/68
f 95/95/95 66/66/66 68/68/68
f 89/89/89 96/96/96 92/92/92
f 86/86/86 96/96/96 89/89/89
f 95/95/95 92/92/92 97/97/97
f 97/97/97 92/92/92 96/96/96
f 95/95/95 98/98/98 66/66/66
f 98/98/98 95/95/95 97/97/97
f 69/69/69 66/66/66 98/98/98
f 97/97/97 99/99/99 98/98/98
f 69/69/69 98/98/98 99/99/99
f 96/96/96 100/100/100 97/97/97
f 99/99/99 97/97/97 100/100/100
f 69/69/69 99/99/99 101/101/101
f 100/100/100 102/102/102 99/99/99
f 101/101/101 99/99/99 102/102/102
f 101/101/101 103/103/103 69/69/69
f 103/103/103 67/67/67 69/69/69
f 102/102/102 104/104/104 101/101/101
f 103/103/103 101/101/101 104/104/104
f 102/102/102 100/100/100 105/105/105
f 100/100/100 96/96/96 106/106/106
f 106/106/106 105/105/105 100/100/100
f 107/107/107 106/106/106 96/96/96
f 96/96/96 86/86/86 107/107/107
f 108/108/108 107/107/107 86/86/86
f 86/86/86 87/87/87 108/108/108
f 109/109/109 108/108/108 87/87/87
f 87/87/87 90/90/90 109/109/109
f 90/90/90 110/110/110 109/109/109
f 108/108/108 109/109/109 110/110/110
f 110/110/110 90/90/90 93/93/93
f 110/110/110 111/111/111 108/108/108
f 111/111/111 110/110/110 93/93/93
f 107/107/107 108/108/108 111/111/111
f 111/111/111 112/112/112 107/107/107
f 112/112/112 106/106/106 107/107/107
f 112/112/112 111/111/111 113/113/113
f 93/93/93 114/114/114 111/111/111
f 113/113/113 111/111/111 114/114/114
f 113/113/113 115/115/115 112/112/112
f 106/106/106 112/112/112 115/115/115
f 114/114/114 116/116/116 113/113/113
f 115/115/115 113/113/113 116/116/116
f 114/114/114 93/93/93 117/117/117
f 94/94/94 117/117/117 93/93/93
f 116/116/116 118/118/118 115/115/115
f 117/117/117 94/94/94 119/119/119
f 118/118/118 116/116/116 120/120/120
f 114/114/114 120/120/120 116/116/116
f 121/121/121 115/115/115 118/118/118
f 118/118/118 120/120/120 121/121/121
f 122/122/122 115/115/115 121/121/121
f 115/115/115 122/122/122 106/106/106
f 122/122/122 123/123/123 106/106/106
f 123/123/123 122/122/122 121/121/121
f 105/105/105 106/106/106 123/123/123
f 121/121/121 124/124/124 123/123/123
f 124/124/124 121/121/121 120/120/120
f 123/123/123 125/125/125 105/105/105
f 102/102/102 105/105/105 125/125/125
f 124/124/124 126/126/126 123/123/123
f 125/125/125 123/123/123 126/126/126
f 120/120/120 127/127/127 124/124/124
f 124/124/124 128/128/128 126/126/126
f 128/128/128 124/124/124 127/127/127
f 126/126/126 129/129/129 125/125/125
f 129/129/129 126/126/126 128/128/128
f 125/125/125 130/130/130 102/102/102
f 128/128/128 131/131/131 129/129/129
f 132/132/132 125/125/125 129/129/129
f 132/132/132 129/129/129 131/131/131
f 125/125/125 132/132/132 130/130/130
f 131/131/131 128/128/128 133/133/133
f 131/131/131 133/133/133 132/132/132
f 130/130/130 134/134/134 102/102/102
f 130/130/130 132/132/132 134/134/134
f 135/135/135 133/133/133 128/128/128
f 127/127/127 135/135/135 128/128/128
f 136/136/136 132/132/132 133/133/133
f 134/134/134 132/132/132 136/136/136
f 135/135/135 137/137/137 133/133/133
f 136/136/136 133/133/133 138/138/138
f 138/138/138 133/133/133 137/137/137
f 139/139/139 135/135/135 127/127/127
f 137/137/137 135/135/135 139/139/139
f 140/140/140 139/139/139 127/127/127
f 127/127/127 120/120/120 140/140/140
f 137/137/137 139/139/139 141/141/141
f 142/142/142 140/140/140 120/120/120
f 120/120/120 114/114/114 142/142/142
f 141/141/141 139/139/139 143/143/143
f 144/144/144 142/142/142 114/114/114
f 117/117/117 144/144/144 114/114/114
f 117/117/117 119/119/119 144/144/144
f 145/145/145 142/142/142 144/144/144
f 144/144/144 119/119/119 145/145/145
f 145/145/145 146/146/146 142/142/142
f 140/140/140 142/142/142 146/146/146
f 145/145/145 119/119/119 147/147/147
f 146/146/146 145/145/145 147/147/147
f 140/140/140 146/146/146 148/148/148
f 148/148/148 146/146/146 147/147/147
f 139/139/139 140/140/140 149/149/149
f 148/148/148 149/149/149 140/140/140
f 149/149/149 143/143/143 139/139/139
f 148/148/148 147/147/147 150/150/150
f 149/149/149 148/148/148 151/151/151
f 151/151/151 148/148/148 150/150/150
f 143/143/143 149/149/149 152/152/152
f 151/151/151 152/152/152 149/149/149
f 152/152/152 153/153/153 143/143/143
f 143/143/143 153/153/153 141/141/141
f 152/152/152 151/151/151 154/154/154
f 155/155/155 141/141/141 153/153/153
f 141/141/141 155/155/155 137/137/137
f 153/153/153 152/152/152 156/156/156
f 154/154/154 156/156/156 152/152/152
f 153/153/153 157/157/157 155/155/155
f 157/157/157 153/153/153 156/156/156
f 155/155/155 158/158/158 137/137/137
f 159/159/159 155/155/155 157/157/157
f 158/158/158 155/155/155 159/159/159
f 137/137/137 158/158/158 160/160/160
f 160/160/160 138/138/138 137/137/137
f 159/159/159 161/161/161 158/158/158
f 160/160/160 158/158/158 161/161/161
f 160/160/160 162/162/162 138/138/138
f 138/138/138 162/162/162 136/136/136
f 162/162/162 160/160/160 163/163/163
f 161/161/161 163/163/163 160/160/160
f 164/164/164 136/136/136 162/162/162
f 165/165/165 162/162/162 163/163/163
f 162/162/162 165/165/165 164/164/164
f 136/136/136 164/164/164 166/166/166
f 166/166/166 134/134/134 136/136/136
f 167/167/167 164/164/164 165/165/165
f 134/134/134 166/166/166 168/168/168
f 102/102/102 134/134/134 168/168/168
f 104/104/104 102/102/102 168/168/168
f 169/169/169 166/166/166 164/164/164
f 170/170/170 168/168/168 166/166/166
f 166/166/166 169/169/169 170/170/170
f 171/171/171 169/169/169 164/164/164
f 164/164/164 167/167/167 171/171/171
f 170/170/170 169/169/169 172/172/172
f 171/171/171 172/172/172 169/169/169
f 168/168/168 170/170/170 172/172/172
f 171/171/171 167/167/167 173/173/173
f 172/172/172 174/174/174 168/168/168
f 168/168/168 174/174/174 104/104/104
f 172/172/172 171/171/171 175/175/175
f 173/173/173 175/175/175 171/171/171
f 174/174/174 172/172/172 176/176/176
f 175/175/175 176/176/176 172/172/172
f 104/104/104 174/174/174 177/177/177
f 176/176/176 177/177/177 174/174/174
f 177/177/177 178/178/178 104/104/104
f 104/104/104 178/178/178 103/103/103
f 177/177/177 176/176/176 179/179/179
f 176/176/176 175/175/175 180/180/180
f 180/180/180 179/179/179 176/176/176
f 181/181/181 180/180/180 175/175/175
f 175/175/175 173/173/173 181/181/181
f 179/179/179 180/180/180 182/182/182
f 181/181/181 182/182/182 180/180/180
f 177/177/177 179/179/179 183/183/183
f 183/183/183 178/178/178 177/177/177
f 182/182/182 184/184/184 179/179/179
f 184/184/184 183/183/183 179/179/179
f 185/185/185 184/184/184 182/182/182
f 185/185/185 183/183/183 184/184/184
f 182/182/182 181/181/181 186/186/186
f 178/178/178 183/183/183 187/187/187
f 183/183/183 185/185/185 187/187/187
f 186/186/186 188/188/188 182/182/182
f 182/182/182 188/188/188 185/185/185
f 189/189/189 186/186/186 181/181/181
f 189/189/189 188/188/188 186/186/186
f 190/190/190 185/185/185 188/188/188
f 187/187/187 185/185/185 190/190/190
f 191/191/191 190/190/190 188/188/188
f 190/190/190 191/191/191 187/187/187
f 191/191/191 188/188/188 192/192/192
f 189/189/189 192/192/192 188/188/188
f 193/193/193 187/187/187 191/191/191
f 192/192/192 193/193/193 191/191/191
f 178/178/178 187/187/187 194/194/194
f 194/194/194 103/103/103 178/178/178
f 193/193/193 195/195/195 187/187/187
f 194/194/194 187/187/187 195/195/195
f 195/195/195 193/193/193 196/196/196
f 194/194/194 195/195/195 197/197/197
f 196/196/196 197/197/197 195/195/195
f 197/197/197 198/198/198 194/194/194
f 103/103/103 194/194/194 198/198/198
f 198/198/198 197/197/197 199/199/199
f 199/199/199 197/197/197 196/196/196
f 103/103/103 198/198/198 200/200/200
f 199/199/199 200/200/200 198/198/198
f 103/103/103 200/200/200 201/201/201
f 67/67/67 103/103/103 201/201/201
f 201/201/201 64/64/64 67/67/67
f 202/202/202 64/64/64 201/201/201
f 64/64/64 202/202/202 63/63/63
f 202/202/202 203/203/203 63/63/63
f 27/27/27 63/63/63 203/203/203
f 203/203/203 202/202/202 204/204/204
f 204/204/204 202/202/202 201/201/201
f 204/204/204 205/205/205 203/203/203
f 27/27/27 203/203/203 205/205/205
f 201/201/201 206/206/206 204/204/204
f 204/204/204 206/206/206 205/205/205
f 205/205/205 207/207/207 27/27/27
f 207/207/207 205/205/205 206/206/206
f 208/208/208 27/27/27 207/207/207
f 27/27/27 208/208/208 28/28/28
f 28/28/28 208/208/208 209/209/209
f 207/207/207 210/210/210 208/208/208
f 206/206/206 210/210/210 207/207/207
f 211/211/211 209/209/209 208/208/208
f 208/208/208 210/210/210 211/211/211
f 201/201/201 212/212/212 206/206/206
f 212/212/212 201/201/201 200/200/200
f 210/210/210 206/206/206 213/213/213
f 212/212/212 213/213/213 206/206/206
f 212/212/212 200/200/200 214/214/214
f 214/214/214 213/213/213 212/212/212
f 214/214/214 200/200/200 199/199/199
f 213/213/213 215/215/215 210/210/210
f 211/211/211 210/210/210 215/215/215
f 214/214/214 216/216/216 213/213/213
f 213/213/213 217/217/217 215/215/215
f 217/217/217 213/213/213 216/216/216
f 218/218/218 216/216/216 214/214/214
f 217/217/217 216/216/216 218/218/218
f 214/214/214 199/199/199 218/218/218
f 215/215/215 219/219/219 211/211/211
f 219/219/219 215/215/215 217/217/217
f 220/220/220 211/211/211 219/219/219
f 209/209/209 211/211/211 220/220/220
f 209/209/209 220/220/220 221/221/221
f 221/221/221 222/222/222 209/209/209
f 221/221/221 223/223/223 222/222/222
f 223/223/223 221/221/221 224/224/224
f 220/220/220 224/224/224 221/221/221
f 224/224/224 225/225/225 223/223/223
f 224/224/224 220/220/220 226/226/226
f 220/220/220 219/219/219 226/226/226
f 227/227/227 225/225/225 224/224/224
f 224/224/224 226/226/226 227/227/227
f 228/228/228 225/225/225 227/227/227
f 229/229/229 226/226/226 219/219/219
f 230/230/230 228/228/228 227/227/227
f 228/228/228 230/230/230 231/231/231
f 232/232/232 231/231/231 230/230/230
f 226/226/226 233/233/233 227/227/227
f 226/226/226 229/229/229 233/233/233
f 227/227/227 234/234/234 230/230/230
f 233/233/233 234/234/234 227/227/227
f 230/230/230 235/235/235 232/232/232
f 230/230/230 234/234/234 235/235/235
f 235/235/235 236/236/236 232/232/232
f 237/237/237 234/234/234 233/233/233
f 235/235/235 234/234/234 237/237/237
f 233/233/233 229/229/229 237/237/237
f 238/238/238 236/236/236 235/235/235
f 238/238/238 239/239/239 236/236/236
f 235/235/235 237/237/237 240/240/240
f 241/241/241 237/237/237 229/229/229
f 241/241/241 240/240/240 237/237/237
f 235/235/235 240/240/240 242/242/242
f 241/241/241 242/242/242 240/240/240
f 242/242/242 238/238/238 235/235/235
f 229/229/229 243/243/243 241/241/241
f 219/219/219 243/243/243 229/229/229
f 217/217/217 243/243/243 219/219/219
f 244/244/244 241/241/241 243/243/243
f 217/217/217 245/245/245 243/243/243
f 245/245/245 244/244/244 243/243/243
f 246/246/246 241/241/241 244/244/244
f 246/246/246 244/244/244 245/245/245
f 241/241/241 246/246/246 242/242/242
f 245/245/245 217/217/217 247/247/247
f 245/245/245 247/247/247 246/246/246
f 218/218/218 247/247/247 217/217/217
f 248/248/248 246/246/246 247/247/247
f 247/247/247 218/218/218 248/248/248
f 249/249/249 242/242/242 246/246/246
f 246/246/246 248/248/248 249/249/249
f 250/250/250 248/248/248 218/218/218
f 250/250/250 249/249/249 248/248/248
f 218/218/218 199/199/199 250/250/250
f 251/251/251 242/242/242 249/249/249
f 242/242/242 251/251/251 238/238/238
f 249/249/249 250/250/250 252/252/252
f 252/252/252 251/251/251 249/249/249
f 253/253/253 250/250/250 199/199/199
f 250/250/250 253/253/253 252/252/252
f 199/199/199 196/196/196 253/253/253
f 254/254/254 238/238/238 251/251/251
f 196/196/196 255/255/255 253/253/253
f 255/255/255 196/196/196 193/193/193
f 251/251/251 256/256/256 254/254/254
f 257/257/257 255/255/255 193/193/193
f 192/192/192 257/257/257 193/193/193
f 256/256/256 251/251/251 189/189/189
f 189/189/189 251/251/251 252/252/252
f 252/252/252 192/192/192 189/189/189
f 254/254/254 256/256/256 258/258/258
f 258/258/258 256/256/256 189/189/189
f 258/258/258 238/238/238 254/254/254
f 181/181/181 258/258/258 189/189/189
f 258/258/258 181/181/181 173/173/173
f 238/238/238 258/258/258 239/239/239
f 259/259/259 258/258/258 173/173/173
f 239/239/239 258/258/258 259/259/259
f 259/259/259 173/173/173 167/167/167
f 252/252/252 260/260/260 192/192/192
f 260/260/260 252/252/252 253/253/253
f 192/192/192 260/260/260 257/257/257
f 253/253/253 261/261/261 260/260/260
f 260/260/260 261/261/261 257/257/257
f 253/253/253 255/255/255 261/261/261
f 261/261/261 262/262/262 257/257/257
f 257/257/257 262/262/262 255/255/255
f 255/255/255 262/262/262 261/261/261
f 263/263/263 259/259/259 167/167/167
f 165/165/165 263/263/263 167/167/167
f 263/263/263 264/264/264 259/259/259
f 165/165/165 265/265/265 263/263/263
f 263/263/263 265/265/265 264/264/264
f 265/265/265 165/165/165 163/163/163
f 266/266/266 259/259/259 264/264/264
f 264/264/264 265/265/265 266/266/266
f 239/239/239 259/259/259 266/266/266
f 265/265/265 163/163/163 267/267/267
f 267/267/267 266/266/266 265/265/265
f 163/163/163 268/268/268 267/267/267
f 268/268/268 163/163/163 161/161/161
f 266/266/266 267/267/267 269/269/269
f 269/269/269 267/267/267 268/268/268
f 239/239/239 266/266/266 270/270/270
f 269/269/269 270/270/270 266/266/266
f 270/270/270 271/271/271 239/239/239
f 272/272/272 239/239/239 271/271/271
f 273/273/273 270/270/270 269/269/269
f 269/269/269 268/268/268 274/274/274
f 273/273/273 269/269/269 274/274/274
f 161/161/161 274/274/274 268/268/268
f 270/270/270 273/273/273 275/275/275
f 275/275/275 271/271/271 270/270/270
f 274/274/274 276/276/276 273/273/273
f 276/276/276 275/275/275 273/273/273
f 275/275/275 277/277/277 271/271/271
f 271/271/271 277/277/277 272/272/272
f 277/277/277 275/275/275 278/278/278
f 275/275/275 279/279/279 278/278/278
f 276/276/276 279/279/279 275/275/275
f 277/277/277 278/278/278 280/280/280
f 280/280/280 278/278/278 279/279/279
f 281/281/281 277/277/277 280/280/280
f 277/277/277 281/281/281 272/272/272
f 279/279/279 282/282/282 280/280/280
f 283/283/283 281/281/281 280/280/280
f 280/280/280 282/282/282 283/283/283
f 272/272/272 281/281/281 284/284/284
f 281/281/281 283/283/283 285/285/285
f 281/281/281 285/285/285 284/284/284
f 286/286/286 272/272/272 284/284/284
f 285/285/285 286/286/286 284/284/284
f 272/272/272 286/286/286 287/287/287
f 272/272/272 287/287/287 288/288/288
f 289/289/289 287/287/287 286/286/286
f 290/290/290 288/288/288 287/287/287
f 287/287/287 289/289/289 290/290/290
f 286/286/286 291/291/291 289/289/289
f 291/291/291 286/286/286 285/285/285
f 290/290/290 289/289/289 291/291/291
f 292/292/292 285/285/285 283/283/283
f 285/285/285 292/292/292 291/291/291
f 283/283/283 282/282/282 292/292/292
f 293/293/293 290/290/290 291/291/291
f 293/293/293 291/291/291 292/292/292
f 288/288/288 290/290/290 294/294/294
f 294/294/294 295/295/295 288/288/288
f 295/295/295 294/294/294 296/296/296
f 294/294/294 297/297/297 296/296/296
f 298/298/298 294/294/294 290/290/290
f 294/294/294 298/298/298 297/297/297
f 298/298/298 296/296/296 297/297/297
f 290/290/290 293/293/293 298/298/298
f 296/296/296 298/298/298 299/299/299
f 300/300/300 299/299/299 298/298/298
f 301/301/301 300/300/300 298/298/298
f 302/302/302 300/300/300 301/301/301
f 293/293/293 303/303/303 298/298/298
f 298/298/298 303/303/303 301/301/301
f 301/301/301 304/304/304 302/302/302
f 305/305/305 302/302/302 304/304/304
f 306/306/306 301/301/301 303/303/303
f 304/304/304 301/301/301 306/306/306
f 307/307/307 305/305/305 304/304/304
f 306/306/306 308/308/308 304/304/304
f 304/304/304 308/308/308 307/307/307
f 309/309/309 308/308/308 306/306/306
f 308/308/308 309/309/309 307/307/307
f 307/307/307 310/310/310 305/305/305
f 310/310/310 311/311/311 305/305/305
f 311/311/311 310/310/310 312/312/312
f 309/309/309 313/313/313 307/307/307
f 314/314/314 310/310/310 307/307/307
f 312/312/312 310/310/310 314/314/314
f 307/307/307 313/313/313 314/314/314
f 313/313/313 309/309/309 315/315/315
f 306/306/306 315/315/315 309/309/309
f 313/313/313 316/316/316 314/314/314
f 316/316/316 313/313/313 315/315/315
f 314/314/314 317/317/317 312/312/312
f 312/312/312 317/317/317 318/318/318
f 317/317/317 319/319/319 318/318/318
f 317/317/317 314/314/314 320/320/320
f 314/314/314 316/316/316 320/320/320
f 319/319/319 317/317/317 321/321/321
f 320/320/320 321/321/321 317/317/317
f 321/321/321 322/322/322 319/319/319
f 323/323/323 319/319/319 322/322/322
f 322/322/322 324/324/324 323/323/323
f 325/325/325 323/323/323 324/324/324
f 321/321/321 326/326/326 322/322/322
f 322/322/322 326/326/326 324/324/324
f 324/324/324 327/327/327 325/325/325
f 328/328/328 327/327/327 324/324/324
f 324/324/324 326/326/326 328/328/328
f 329/329/329 325/325/325 327/327/327
f 328/328/328 329/329/329 327/327/327
f 325/325/325 329/329/329 330/330/330
f 329/329/329 331/331/331 330/330/330
f 329/329/329 332/332/332 331/331/331
f 334/334/334 333/333/333 332/332/332
f 332/332/332 329/329/329 334/334/334
f 335/335/335 329/329/329 328/328/328
f 334/334/334 329/329/329 335/335/335
f 335/335/335 328/328/328 326/326/326
f 335/335/335 336/336/336 334/334/334
f 336/336/336 337/337/337 334/334/334
f 326/326/326 338/338/338 335/335/335
f 339/339/339 337/337/337 336/336/336
f 337/337/337 339/339/339 340/340/340
f 341/341/341 336/336/336 335/335/335
f 341/341/341 335/335/335 338/338/338
f 342/342/342 336/336/336 341/341/341
f 336/336/336 342/342/342 339/339/339
f 341/341/341 338/338/338 343/343/343
f 343/343/343 342/342/342 341/341/341
f 344/344/344 339/339/339 342/342/342
f 343/343/343 344/344/344 342/342/342
f 345/345/345 340/340/340 339/339/339
f 339/339/339 344/344/344 345/345/345
f 345/345/345 344/344/344 343/343/343
f 340/340/340 345/345/345 346/346/346
f 346/346/346 345/345/345 347/347/347
f 343/343/343 338/338/338 348/348/348
f 349/349/349 347/347/347 345/345/345
f 338/338/338 350/350/350 348/348/348
f 326/326/326 350/350/350 338/338/338
f 343/343/343 351/351/351 345/345/345
f 351/351/351 343/343/343 348/348/348
f 345/345/345 351/351/351 349/349/349
f 348/348/348 350/350/350 352/352/352
f 348/348/348 352/352/352 351/351/351
f 350/350/350 326/326/326 353/353/353
f 353/353/353 352/352/352 350/350/350
f 321/321/321 353/353/353 326/326/326
f 351/351/351 352/352/352 354/354/354
f 353/353/353 321/321/321 355/355/355
f 355/355/355 321/321/321 320/320/320
f 353/353/353 356/356/356 352/352/352
f 355/355/355 356/356/356 353/353/353
f 356/356/356 354/354/354 352/352/352
f 355/355/355 320/320/320 357/357/357
f 357/357/357 320/320/320 316/316/316
f 351/351/351 354/354/354 358/358/358
f 358/358/358 349/349/349 351/351/351
f 359/359/359 358/358/358 354/354/354
f 354/354/354 356/356/356 359/359/359
f 358/358/358 360/360/360 349/349/349
f 359/359/359 360/360/360 358/358/358
f 347/347/347 349/349/349 360/360/360
f 360/360/360 361/361/361 347/347/347
f 361/361/361 360/360/360 362/362/362
f 362/362/362 363/363/363 361/361/361
f 362/362/362 364/364/364 363/363/363
f 362/362/362 360/360/360 365/365/365
f 359/359/359 365/365/365 360/360/360
f 364/364/364 362/362/362 366/366/366
f 365/365/365 366/366/366 362/362/362
f 366/366/366 367/367/367 364/364/364
f 368/368/368 367/367/367 366/366/366
f 369/369/369 366/366/366 365/365/365
f 368/368/368 366/366/366 370/370/370
f 371/371/371 369/369/369 365/365/365
f 371/371/371 365/365/365 359/359/359
f 369/369/369 372/372/372 366/366/366
f 370/370/370 366/366/366 372/372/372
f 369/369/369 371/371/371 373/373/373
f 372/372/372 369/369/369 373/373/373
f 359/359/359 374/374/374 371/371/371
f 375/375/375 373/373/373 371/371/371
f 375/375/375 371/371/371 374/374/374
f 359/359/359 376/376/376 374/374/374
f 359/359/359 356/356/356 376/376/376
f 376/376/376 377/377/377 374/374/374
f 377/377/377 376/376/376 356/356/356
f 374/374/374 377/377/377 375/375/375
f 356/356/356 355/355/355 377/377/377
f 357/357/357 377/377/377 355/355/355
f 375/375/375 377/377/377 378/378/378
f 378/378/378 377/377/377 357/357/357
f 373/373/373 375/375/375 378/378/378
f 357/357/357 379/379/379 378/378/378
f 357/357/357 316/316/316 379/379/379
f 315/315/315 379/379/379 316/316/316
f 378/378/378 380/380/380 373/373/373
f 379/379/379 315/315/315 381/381/381
f 382/382/382 373/373/373 380/380/380
f 382/382/382 372/372/372 373/373/373
f 383/383/383 381/381/381 315/315/315
f 383/383/383 315/315/315 306/306/306
f 303/303/303 383/383/383 306/306/306
f 384/384/384 383/383/383 303/303/303
f 381/381/381 383/383/383 384/384/384
f 385/385/385 384/384/384 303/303/303
f 303/303/303 293/293/293 385/385/385
f 384/384/384 386/386/386 381/381/381
f 384/384/384 385/385/385 386/386/386
f 387/387/387 381/381/381 386/386/386
f 385/385/385 387/387/387 386/386/386
f 388/388/388 381/381/381 387/387/387
f 381/381/381 388/388/388 379/379/379
f 387/387/387 385/385/385 389/389/389
f 387/387/387 389/389/389 388/388/388
f 385/385/385 293/293/293 390/390/390
f 390/390/390 389/389/389 385/385/385
f 292/292/292 390/390/390 293/293/293
f 388/388/388 391/391/391 379/379/379
f 391/391/391 388/388/388 389/389/389
f 379/379/379 391/391/391 378/378/378
f 292/292/292 392/392/392 390/390/390
f 390/390/390 392/392/392 389/389/389
f 292/292/292 282/282/282 392/392/392
f 389/389/389 392/392/392 393/393/393
f 389/389/389 393/393/393 391/391/391
f 282/282/282 394/394/394 392/392/392
f 393/393/393 392/392/392 394/394/394
f 282/282/282 279/279/279 394/394/394
f 276/276/276 394/394/394 279/279/279
f 393/393/393 395/395/395 391/391/391
f 394/394/394 395/395/395 393/393/393
f 378/378/378 391/391/391 396/396/396
f 391/391/391 395/395/395 396/396/396
f 380/380/380 378/378/378 396/396/396
f 276/276/276 397/397/397 394/394/394
f 274/274/274 397/397/397 276/276/276
f 395/395/395 394/394/394 398/398/398
f 398/398/398 394/394/394 397/397/397
f 399/399/399 397/397/397 274/274/274
f 274/274/274 161/161/161 399/399/399
f 397/397/397 400/400/400 398/398/398
f 400/400/400 397/397/397 399/399/399
f 398/398/398 401/401/401 395/395/395
f 401/401/401 398/398/398 400/400/400
f 402/402/402 399/399/399 161/161/161
f 399/399/399 402/402/402 400/400/400
f 403/403/403 395/395/395 401/401/401
f 395/395/395 403/403/403 396/396/396
f 400/400/400 404/404/404 401/401/401
f 404/404/404 403/403/403 401/401/401
f 404/404/404 400/400/400 402/402/402
f 403/403/403 404/404/404 405/405/405
f 402/402/402 405/405/405 404/404/404
f 406/406/406 402/402/402 161/161/161
f 402/402/402 406/406/406 405/405/405
f 161/161/161 159/159/159 406/406/406
f 407/407/407 403/403/403 405/405/405
f 405/405/405 406/406/406 407/407/407
f 406/406/406 159/159/159 407/407/407
f 403/403/403 407/407/407 396/396/396
f 407/407/407 159/159/159 408/408/408
f 396/396/396 407/407/407 408/408/408
f 159/159/159 157/157/157 408/408/408
f 408/408/408 157/157/157 409/409/409
f 396/396/396 408/408/408 409/409/409
f 156/156/156 409/409/409 157/157/157
f 156/156/156 396/396/396 409/409/409
f 156/156/156 380/380/380 396/396/396
f 380/380/380 156/156/156 410/410/410
f 410/410/410 382/382/382 380/380/380
f 154/154/154 410/410/410 156/156/156
f 382/382/382 410/410/410 411/411/411
f 411/411/411 372/372/372 382/382/382
f 410/410/410 154/154/154 412/412/412
f 412/412/412 411/411/411 410/410/410
f 413/413/413 372/372/372 411/411/411
f 412/412/412 413/413/413 411/411/411
f 372/372/372 413/413/413 370/370/370
f 413/413/413 412/412/412 370/370/370
f 412/412/412 154/154/154 414/414/414
f 414/414/414 154/154/154 151/151/151
f 415/415/415 370/370/370 412/412/412
f 368/368/368 370/370/370 415/415/415
f 368/368/368 415/415/415 416/416/416
f 415/415/415 417/417/417 416/416/416
f 418/418/418 416/416/416 417/417/417
f 417/417/417 419/419/419 418/418/418
f 420/420/420 417/417/417 415/415/415
f 419/419/419 417/417/417 420/420/420
f 420/420/420 415/415/415 412/412/412
f 412/412/412 421/421/421 420/420/420
f 414/414/414 421/421/421 412/412/412
f 420/420/420 422/422/422 419/419/419
f 422/422/422 420/420/420 421/421/421
f 423/423/423 421/421/421 414/414/414
f 421/421/421 423/423/423 422/422/422
f 424/424/424 414/414/414 151/151/151
f 414/414/414 424/424/424 423/423/423
f 151/151/151 150/150/150 424/424/424
f 425/425/425 423/423/423 424/424/424
f 424/424/424 150/150/150 426/426/426
f 423/423/423 425/425/425 427/427/427
f 425/425/425 424/424/424 427/427/427
f 427/427/427 422/422/422 423/423/423
f 426/426/426 427/427/427 424/424/424
f 426/426/426 150/150/150 147/147/147
f 426/426/426 428/428/428 427/427/427
f 428/428/428 426/426/426 147/147/147
f 422/422/422 427/427/427 428/428/428
f 429/429/429 428/428/428 147/147/147
f 147/147/147 119/119/119 429/429/429
f 94/94/94 429/429/429 119/119/119
f 430/430/430 429/429/429 94/94/94
f 422/422/422 428/428/428 431/431/431
f 429/429/429 431/431/431 428/428/428
f 431/431/431 429/429/429 430/430/430
f 431/431/431 419/419/419 422/422/422
f 430/430/430 432/432/432 431/431/431
f 419/419/419 431/431/431 432/432/432
f 435/435/435 434/434/434 433/433/433
f 435/435/435 433/433/433 436/436/436
f 437/437/437 433/433/433 434/434/434
f 437/437/437 434/434/434 438/438/438
f 433/433/433 439/439/439 436/436/436
f 440/440/440 436/436/436 439/439/439
f 433/433/433 441/441/441 439/439/439
f 433/433/433 437/437/437 441/441/441
f 442/442/442 440/440/440 439/439/439
f 439/439/439 441/441/441 442/442/442
f 442/442/442 443/443/443 440/440/440
f 437/437/437 444/444/444 441/441/441
f 444/444/444 442/442/442 441/441/441
f 445/445/445 444/444/444 437/437/437
f 438/438/438 445/445/445 437/437/437
f 444/444/444 446/446/446 442/442/442
f 445/445/445 446/446/446 444/444/444
f 443/443/443 442/442/442 447/447/447
f 446/446/446 447/447/447 442/442/442
f 447/447/447 448/448/448 443/443/443
f 446/446/446 448/448/448 447/447/447
f 443/443/443 448/448/448 449/449/449
f 449/449/449 450/450/450 443/443/443
f 450/450/450 449/449/449 451/451/451
f 448/448/448 446/446/446 452/452/452
f 452/452/452 449/449/449 448/448/448
f 445/445/445 452/452/452 446/446/446
f 449/449/449 453/453/453 451/451/451
f 453/453/453 449/449/449 452/452/452
f 452/452/452 445/445/445 453/453/453
f 438/438/438 451/451/451 453/453/453
f 453/453/453 445/445/445 438/438/438
