mtllib SM_Table_02_LOD1.mtl
g SM_Table_02_LOD1
#Vertices 495
#Indices 1560
#Section 0 Offset 0 NumIndices 420 MaterialIndex 0 MI_Plastic_Glossy_01
#Section 1 Offset 420 NumIndices 516 MaterialIndex 3 MI_Plastic_Dirty_01
#Section 2 Offset 936 NumIndices 558 MaterialIndex 2 MI_Metal_02
#Section 3 Offset 1494 NumIndices 66 MaterialIndex 1 MI_Checker_01
v 0.017361 0.011789 0.772328
v 0.163454 0.011789 0.772328
v 0.166217 0.008810 0.773764
v 0.014735 0.008987 0.773993
v 0.165458 0.000012 0.774773
v 0.015226 0.000000 0.774518
v 0.163454 0.011789 0.068986
v 0.017361 0.011789 0.068986
v 0.014598 0.008810 0.067550
v 0.166080 0.008986 0.067321
v 0.015357 0.000012 0.066541
v 0.165589 0.000000 0.066796
v -0.258800 0.000000 0.493626
v 0.014735 0.008987 0.773993
v 0.015226 0.000000 0.774518
v -0.258800 0.007727 0.493626
v 0.017361 0.011789 0.772328
v -0.260993 0.000000 0.488241
v -0.258081 0.011804 0.490196
v -0.260993 0.007727 0.488241
v -0.258081 0.011804 0.351118
v -0.260993 0.007727 0.353073
v -0.259631 0.000001 0.348242
v -0.258800 0.007727 0.347688
v 0.017361 0.011789 0.068986
v 0.014598 0.008810 0.067550
v 0.015357 0.000012 0.066541
v 0.440438 0.000000 0.348235
v 0.166080 0.008986 0.067321
v 0.165589 0.000000 0.066796
v 0.439615 0.007727 0.347688
v 0.163454 0.011789 0.068986
v 0.438897 0.011804 0.351118
v 0.441808 0.007727 0.353073
v 0.441808 0.000000 0.488241
v 0.438897 0.011804 0.490196
v 0.441808 0.007727 0.488241
v 0.439615 0.000000 0.493626
v 0.439615 0.007727 0.493626
v 0.163454 0.011789 0.772328
v 0.166217 0.008810 0.773764
v 0.165458 0.000012 0.774773
v 0.640324 1.046649 0.218881
v 0.289026 1.046649 -0.131898
v 0.290388 1.038922 -0.129798
v 0.640324 1.038922 0.218881
v 0.286577 1.034713 -0.128819
v 0.639512 1.034713 0.222850
v 0.642962 1.038922 0.225234
v 0.642962 1.046649 0.225234
v 0.642962 1.046649 0.616080
v 0.642962 1.038922 0.616080
v 0.639512 1.034713 0.618464
v 0.640324 1.038922 0.622432
v 0.640324 1.046649 0.622432
v 0.286577 1.034713 0.970132
v 0.289303 1.046649 0.972676
v 0.290388 1.038922 0.971112
v -0.459509 1.046649 0.622432
v -0.108211 1.046649 0.973212
v -0.109573 1.038922 0.971112
v -0.459509 1.038922 0.622432
v -0.105761 1.034713 0.970132
v -0.458697 1.034713 0.618464
v -0.462147 1.038922 0.616080
v -0.462147 1.046649 0.616080
v -0.462147 1.046649 0.225234
v -0.462147 1.038922 0.225234
v -0.458697 1.034713 0.222850
v -0.459509 1.038922 0.218881
v -0.459509 1.046649 0.218881
v -0.105761 1.034713 -0.128819
v -0.108487 1.046649 -0.131362
v -0.109573 1.038922 -0.129798
v 0.177395 0.066386 0.458908
v 0.185356 0.066391 0.421319
v 0.438897 0.011804 0.490196
v 0.158521 0.066480 0.487171
v 0.177442 0.066457 0.381694
v 0.163454 0.011789 0.772328
v 0.438897 0.011804 0.351118
v 0.126254 0.066324 0.508690
v 0.146590 0.066689 0.342685
v 0.017361 0.011789 0.772328
v 0.163454 0.011789 0.068986
v 0.088468 0.066359 0.515589
v 0.092584 0.066369 0.325529
v 0.035627 0.066615 0.500162
v 0.052870 0.065772 0.330035
v -0.258081 0.011804 0.490196
v 0.017361 0.011789 0.068986
v 0.003165 0.066428 0.458164
v 0.021307 0.065775 0.351284
v -0.007678 0.065751 0.420657
v -0.258081 0.011804 0.351118
v 0.002538 0.066441 0.384500
v -0.108487 1.046649 -0.131362
v -0.109573 1.038922 -0.129798
v -0.103594 1.038922 -0.132269
v 0.289026 1.046649 -0.131898
v -0.105761 1.034713 -0.128819
v 0.284409 1.038922 -0.132269
v 0.290388 1.038922 -0.129798
v 0.286577 1.034713 -0.128819
v 0.289303 1.046649 0.972676
v 0.290388 1.038922 0.971112
v 0.284409 1.038922 0.973582
v 0.286577 1.034713 0.970132
v -0.108211 1.046649 0.973212
v -0.105761 1.034713 0.970132
v -0.103594 1.038922 0.973582
v -0.109573 1.038922 0.971112
v 0.639512 1.034713 0.618464
v 0.179090 0.952747 0.459627
v 0.158925 0.952762 0.489138
v 0.190269 0.953405 0.420657
v 0.286577 1.034713 0.970132
v 0.639512 1.034713 0.222850
v 0.128627 0.953362 0.512923
v 0.182674 0.953363 0.382438
v 0.090408 0.953404 0.520518
v 0.160945 0.953311 0.350120
v -0.105761 1.034713 0.970132
v 0.286577 1.034713 -0.128819
v 0.052189 0.953362 0.512923
v 0.128627 0.953362 0.328391
v 0.019870 0.953311 0.491194
v 0.090408 0.953404 0.320796
v -0.458697 1.034713 0.618464
v -0.105761 1.034713 -0.128819
v -0.001858 0.953363 0.458876
v 0.052189 0.953362 0.328391
v -0.009454 0.953405 0.420657
v 0.019870 0.953311 0.350120
v -0.458697 1.034713 0.222850
v -0.001858 0.953363 0.382438
v -0.004327 0.069762 0.420657
v 0.003165 0.066428 0.458164
v 0.002538 0.066441 0.384500
v 0.023420 0.069762 0.353669
v 0.054154 0.069762 0.333134
v 0.092584 0.066369 0.325529
v 0.126661 0.135571 0.508180
v 0.126254 0.066324 0.508690
v 0.090408 0.135571 0.515392
v 0.088468 0.066359 0.515589
v 0.037814 0.136175 0.502343
v 0.035627 0.066615 0.500162
v 0.003165 0.066428 0.458164
v 0.002884 0.135571 0.456910
v -0.004327 0.069762 0.420657
v -0.004327 0.135571 0.420657
v 0.002538 0.066441 0.384500
v 0.016989 0.137266 0.358178
v 0.023420 0.069762 0.353669
v 0.054154 0.135571 0.333134
v 0.054154 0.069762 0.333134
v 0.109364 0.136550 0.325421
v 0.092584 0.066369 0.325529
v 0.146590 0.066689 0.342685
v 0.157395 0.135571 0.353669
v 0.185103 0.136350 0.401648
v 0.177442 0.066457 0.381694
v 0.185356 0.066391 0.421319
v 0.177931 0.135571 0.456910
v 0.177395 0.066386 0.458908
v 0.157395 0.135571 0.487644
v 0.158521 0.066480 0.487171
v 0.126254 0.066324 0.508690
v 0.126661 0.135571 0.508180
v 0.187348 0.949200 0.420658
v 0.187536 0.907205 0.420658
v 0.179090 0.952747 0.459627
v 0.165507 0.905226 0.484873
v 0.158925 0.952762 0.489138
v 0.127575 0.907205 0.510392
v 0.127504 0.949200 0.510219
v 0.071269 0.906549 0.518378
v 0.072483 0.950404 0.517854
v 0.021859 0.949200 0.489203
v 0.021727 0.907205 0.489336
v 0.000672 0.907205 0.457825
v 0.000846 0.949200 0.457753
v -0.007254 0.906548 0.401220
v -0.006533 0.950398 0.401443
v 0.021861 0.949200 0.352109
v 0.021729 0.907205 0.351976
v 0.053240 0.907205 0.330922
v 0.053312 0.949200 0.331095
v 0.109848 0.906545 0.322996
v 0.109621 0.950398 0.323716
v 0.158956 0.949200 0.352111
v 0.159089 0.907205 0.351978
v 0.180143 0.907205 0.383489
v 0.179969 0.949200 0.383561
v 0.187536 0.907205 0.420658
v 0.187348 0.949200 0.420658
v 0.158925 0.952762 0.489138
v 0.127504 0.949200 0.510219
v 0.072483 0.950404 0.517854
v 0.021859 0.949200 0.489203
v 0.000846 0.949200 0.457753
v -0.006533 0.950398 0.401443
v 0.021861 0.949200 0.352109
v 0.053312 0.949200 0.331095
v 0.109621 0.950398 0.323716
v 0.158956 0.949200 0.352111
v 0.179969 0.949200 0.383561
v 0.187348 0.949200 0.420658
v 0.179090 0.952747 0.459627
v 0.108488 0.139085 0.330155
v 0.119823 0.139071 0.349642
v 0.075142 0.139071 0.343911
v 0.155470 0.139071 0.377184
v 0.055451 0.139071 0.336263
v 0.024336 0.139071 0.376509
v 0.155000 0.139071 0.356065
v 0.109364 0.136550 0.325421
v 0.054154 0.135571 0.333134
v 0.157395 0.135571 0.353669
v 0.025815 0.139071 0.356065
v 0.016989 0.137266 0.358178
v 0.185103 0.136350 0.401648
v -0.000083 0.139091 0.402638
v -0.004327 0.135571 0.420657
v 0.013661 0.139071 0.435923
v 0.006014 0.139071 0.455614
v 0.002884 0.135571 0.456910
v 0.036055 0.139071 0.475010
v 0.037814 0.136175 0.502343
v 0.043696 0.139110 0.501189
v 0.075142 0.139071 0.497403
v 0.090408 0.135571 0.515392
v 0.108488 0.139085 0.511159
v 0.119823 0.139071 0.491672
v 0.126661 0.135571 0.508180
v 0.155470 0.139071 0.464130
v 0.155000 0.139071 0.485249
v 0.157395 0.135571 0.487644
v 0.174801 0.139071 0.455614
v 0.177931 0.135571 0.456910
v 0.167274 0.139071 0.420657
v 0.180912 0.139087 0.402581
v 0.159089 0.907205 0.351978
v 0.177387 0.903705 0.384629
v 0.180143 0.907205 0.383489
v 0.187536 0.907205 0.420658
v 0.156979 0.903705 0.354086
v 0.109848 0.906545 0.322996
v 0.183693 0.903690 0.439289
v 0.165507 0.905226 0.484873
v 0.131805 0.903706 0.352750
v 0.162100 0.903706 0.390961
v 0.167885 0.903706 0.436068
v 0.109041 0.903691 0.327373
v 0.074996 0.903706 0.343179
v 0.156979 0.903705 0.487228
v 0.145278 0.903706 0.475528
v 0.126436 0.903705 0.507636
v 0.127575 0.907205 0.510392
v 0.105819 0.903706 0.498135
v 0.071269 0.906549 0.518378
v 0.071775 0.903690 0.513942
v 0.060712 0.903706 0.492349
v 0.023836 0.903705 0.487228
v 0.021727 0.907205 0.489336
v 0.024725 0.903706 0.464545
v 0.003428 0.903705 0.456685
v 0.000672 0.907205 0.457825
v 0.011828 0.903706 0.408397
v -0.007254 0.906548 0.401220
v -0.002884 0.903687 0.402032
v 0.023836 0.903705 0.354086
v 0.035537 0.903706 0.365786
v 0.021729 0.907205 0.351976
v 0.054379 0.903705 0.333677
v 0.053240 0.907205 0.330922
v -0.167573 1.051017 -0.257229
v 0.350595 1.052375 -0.256460
v 0.349542 1.049990 -0.257450
v -0.168623 1.046543 -0.261207
v 0.350048 1.046543 -0.261207
v -0.170144 1.046543 -0.264493
v 0.351569 1.046543 -0.264493
v -0.168093 1.050043 -0.267992
v 0.349519 1.050043 -0.267992
v 0.349519 1.096500 -0.267993
v -0.168093 1.096500 -0.267993
v -0.170144 1.100000 -0.264493
v 0.351569 1.100000 -0.264493
v 0.350048 1.100000 -0.261207
v -0.168623 1.100000 -0.261207
v -0.167265 1.095621 -0.257269
v 0.349070 1.095548 -0.257187
v -0.589179 1.052363 0.163468
v -0.167573 1.051017 -0.257229
v -0.590043 1.050017 0.164759
v -0.168623 1.046543 -0.261207
v -0.593790 1.046543 0.163842
v -0.597075 1.046543 0.162319
v -0.170144 1.046543 -0.264493
v -0.598100 1.050043 0.158395
v -0.600575 1.050043 0.164369
v -0.174068 1.050043 -0.265518
v -0.168093 1.050043 -0.267992
v -0.168093 1.096500 -0.267993
v -0.174068 1.096500 -0.265518
v -0.598100 1.096500 0.158395
v -0.170144 1.100000 -0.264493
v -0.597075 1.100000 0.162319
v -0.600575 1.096500 0.164369
v -0.168623 1.100000 -0.261207
v -0.593790 1.100000 0.163842
v -0.591559 1.096505 0.167363
v -0.167265 1.095621 -0.257269
v -0.590973 1.094095 0.167617
v 0.348980 1.051009 1.103156
v -0.169081 1.052363 1.102417
v -0.168121 1.049990 1.103373
v 0.350052 1.046543 1.107129
v -0.168626 1.046543 1.107129
v 0.351570 1.046543 1.110417
v -0.170145 1.046543 1.110417
v -0.168093 1.050043 1.113917
v 0.349519 1.050043 1.113917
v 0.349519 1.096500 1.113917
v -0.168093 1.096500 1.113917
v 0.351570 1.100000 1.110417
v -0.170145 1.100000 1.110417
v -0.168626 1.100000 1.107129
v 0.350052 1.100000 1.107129
v 0.349547 1.096553 1.103373
v -0.167037 1.095489 1.103387
v 0.350483 1.094187 1.102421
v 0.771263 1.052259 0.681845
v 0.348980 1.051009 1.103156
v 0.771855 1.049686 0.681335
v 0.350052 1.046543 1.107129
v 0.775216 1.046543 0.682506
v 0.778501 1.046543 0.684030
v 0.351570 1.046543 1.110417
v 0.779525 1.050043 0.687954
v 0.782001 1.050043 0.681981
v 0.355495 1.050043 1.111444
v 0.349519 1.050043 1.113917
v 0.779525 1.096500 0.687954
v 0.355495 1.096500 1.111444
v 0.349519 1.096500 1.113917
v 0.351570 1.100000 1.110417
v 0.778501 1.100000 0.684030
v 0.782001 1.096500 0.681981
v 0.350052 1.100000 1.107129
v 0.775217 1.100000 0.682506
v 0.772849 1.096781 0.679246
v 0.349547 1.096553 1.103373
v 0.350483 1.094187 1.102421
v 0.772632 1.094103 0.678320
v 0.168333 0.904194 0.420657
v 0.157916 0.138893 0.379025
v 0.168333 0.138893 0.420657
v 0.156132 0.904196 0.375314
v 0.120228 0.138893 0.348664
v 0.120228 0.904194 0.348663
v 0.075994 0.138891 0.342121
v 0.072109 0.904194 0.343484
v 0.035306 0.138893 0.365556
v 0.035306 0.904194 0.365556
v 0.018414 0.138893 0.390836
v 0.013069 0.904194 0.404754
v 0.013095 0.138893 0.436039
v 0.018414 0.904194 0.450477
v 0.042800 0.138890 0.485020
v 0.048776 0.904194 0.488165
v 0.090408 0.138893 0.498582
v 0.090408 0.904194 0.498582
v 0.120228 0.138893 0.492650
v 0.120228 0.904194 0.492650
v 0.152141 0.138893 0.470430
v 0.155273 0.904191 0.467745
v 0.168333 0.138893 0.420657
v 0.168333 0.904194 0.420657
v -0.590043 1.050017 0.164759
v -0.590365 1.052247 0.681160
v -0.589179 1.052363 0.163468
v -0.591231 1.049774 0.679594
v -0.593790 1.046543 0.163842
v -0.593790 1.046543 0.682506
v -0.597075 1.046543 0.162319
v -0.597075 1.046543 0.684030
v -0.600575 1.050043 0.164369
v -0.600575 1.050043 0.681981
v -0.600575 1.096500 0.164369
v -0.598100 1.050043 0.158395
v -0.598100 1.096500 0.158395
v -0.600575 1.096500 0.681981
v -0.598098 1.050043 0.687954
v -0.598098 1.096500 0.687954
v -0.597075 1.100000 0.684030
v -0.597075 1.100000 0.162319
v -0.593790 1.100000 0.682506
v -0.593790 1.100000 0.163842
v -0.590429 1.096857 0.681335
v -0.591559 1.096505 0.167363
v -0.590973 1.094095 0.167617
v -0.590097 1.094266 0.681415
v 0.770348 1.095651 0.163510
v 0.772849 1.096781 0.679246
v 0.772632 1.094103 0.678320
v 0.775217 1.100000 0.163842
v 0.775217 1.100000 0.682506
v 0.778501 1.100000 0.162319
v 0.778501 1.100000 0.684030
v 0.782001 1.096500 0.164369
v 0.779526 1.096500 0.158395
v 0.779526 1.050043 0.158395
v 0.782001 1.096500 0.681981
v 0.782001 1.050043 0.164369
v 0.778501 1.046543 0.162319
v 0.779525 1.050043 0.687954
v 0.779525 1.096500 0.687954
v 0.782001 1.050043 0.681981
v 0.778501 1.046543 0.684030
v 0.775216 1.046543 0.682506
v 0.775216 1.046543 0.163842
v 0.771855 1.049686 0.681335
v 0.772366 1.050007 0.166327
v 0.771945 1.052327 0.166021
v 0.771263 1.052259 0.681845
v -0.167037 1.095489 1.103387
v -0.590429 1.096857 0.681335
v -0.590097 1.094266 0.681415
v -0.168626 1.100000 1.107129
v -0.593790 1.100000 0.682506
v -0.597075 1.100000 0.684030
v -0.170145 1.100000 1.110417
v -0.600575 1.096500 0.681981
v -0.598098 1.096500 0.687954
v -0.174070 1.096500 1.111444
v -0.168093 1.096500 1.113917
v -0.598098 1.050043 0.687954
v -0.174070 1.050043 1.111444
v -0.168093 1.050043 1.113917
v -0.170145 1.046543 1.110417
v -0.597075 1.046543 0.684030
v -0.600575 1.050043 0.681981
v -0.168626 1.046543 1.107129
v -0.593790 1.046543 0.682506
v -0.591231 1.049774 0.679594
v -0.168121 1.049990 1.103373
v -0.169081 1.052363 1.102417
v -0.590365 1.052247 0.681160
v 0.350595 1.052375 -0.256460
v 0.771945 1.052327 0.166021
v 0.772366 1.050007 0.166327
v 0.349542 1.049990 -0.257450
v 0.350048 1.046543 -0.261207
v 0.775216 1.046543 0.163842
v 0.778501 1.046543 0.162319
v 0.351569 1.046543 -0.264493
v 0.355494 1.050043 -0.265518
v 0.779526 1.050043 0.158395
v 0.349519 1.050043 -0.267992
v 0.779526 1.096500 0.158395
v 0.355494 1.096500 -0.265518
v 0.349519 1.096500 -0.267993
v 0.778501 1.100000 0.162319
v 0.351569 1.100000 -0.264493
v 0.350048 1.100000 -0.261207
v 0.775217 1.100000 0.163842
v 0.770348 1.095651 0.163510
v 0.349070 1.095548 -0.257187
v -0.590290 1.093624 0.681055
v 0.348603 1.093624 1.103629
v -0.167177 1.093624 1.103629
v 0.771717 1.093624 0.681055
v -0.590290 1.093624 0.165292
v 0.771717 1.093624 0.165292
v 0.348599 1.093624 -0.257707
v -0.167173 1.093624 -0.257707
v 0.622606 1.052920 0.227068
v 0.348599 1.052920 -0.257707
v 0.286847 1.052920 -0.108596
v -0.105422 1.052920 -0.108596
v 0.771716 1.052920 0.165292
v -0.167173 1.052920 -0.257707
v 0.642962 1.046649 0.619804
v -0.441180 1.052920 0.227068
v 0.771716 1.052920 0.681055
v -0.590290 1.052920 0.165292
v 0.286895 1.052920 0.954519
v -0.441180 1.052920 0.619236
v 0.348603 1.052920 1.103629
v -0.590290 1.052920 0.681055
v -0.105469 1.052920 0.954519
v -0.167177 1.052920 1.103629
vt 0.139404 0.182617
vt 0.066467 0.182129
vt 0.065186 0.180664
vt 0.140625 0.180664
vt 0.065491 0.176270
vt 0.140503 0.176270
vt 1.144531 0.400391
vt 1.071289 0.400391
vt 1.070312 0.398926
vt 1.145508 0.398438
vt 1.070312 0.394043
vt 1.145508 0.394043
vt 0.317139 1.467041
vt 0.121704 1.471436
vt 0.121277 1.467041
vt 0.317139 1.470947
vt 0.121460 1.473389
vt 0.319824 1.467041
vt 0.318359 1.473145
vt 0.319824 1.470947
vt 0.388428 1.473145
vt 0.386963 1.470947
vt 0.389404 1.467041
vt 0.389648 1.470947
vt 0.585449 1.473389
vt 0.584961 1.471436
vt 0.585449 1.467041
vt 0.316406 1.413330
vt 0.120605 1.417969
vt 0.120178 1.413330
vt 0.315918 1.417236
vt 0.120361 1.419678
vt 0.317383 1.419678
vt 0.318604 1.417236
vt 0.385986 1.413330
vt 0.387207 1.419678
vt 0.385986 1.417236
vt 0.388672 1.413330
vt 0.388672 1.417236
vt 0.584473 1.419678
vt 0.583984 1.417725
vt 0.584473 1.413330
vt 0.312744 0.123535
vt 0.065002 0.123047
vt 0.066284 0.119141
vt 0.312744 0.119629
vt 0.065369 0.116211
vt 0.314209 0.116699
vt 0.315918 0.119629
vt 0.315918 0.123535
vt 0.510742 0.123535
vt 0.510742 0.119629
vt 0.512207 0.116699
vt 0.513672 0.119629
vt 0.513672 0.123535
vt 0.761230 0.116211
vt 0.761230 0.123047
vt 0.760254 0.119141
vt 0.312744 0.076660
vt 0.065002 0.076172
vt 0.066284 0.072754
vt 0.312744 0.072754
vt 0.065369 0.069824
vt 0.314209 0.070312
vt 0.315918 0.072754
vt 0.315918 0.076660
vt 0.510742 0.076660
vt 0.510742 0.072754
vt 0.512207 0.070312
vt 0.513672 0.072754
vt 0.513672 0.076660
vt 0.761230 0.069824
vt 0.761230 0.076172
vt 0.760254 0.072266
vt 0.927246 1.037567
vt 0.943359 1.027359
vt 1.008789 1.143799
vt 0.910645 1.040405
vt 0.954102 1.010712
vt 0.811035 1.145264
vt 1.059570 1.093506
vt 0.892090 1.036926
vt 0.957031 0.986237
vt 0.757812 1.092773
vt 1.062500 0.894958
vt 0.876465 1.026276
vt 0.944824 0.961517
vt 0.863770 1.002563
vt 0.929199 0.949341
vt 0.761230 0.894165
vt 1.009766 0.842407
vt 0.867188 0.976501
vt 0.910645 0.946014
vt 0.876465 0.959625
vt 0.811523 0.844116
vt 0.892578 0.950684
vt 1.072266 0.801025
vt 1.071289 0.796875
vt 1.075195 0.797241
vt 1.270508 0.801025
vt 1.073242 0.794556
vt 1.268555 0.797241
vt 1.271484 0.796875
vt 1.269531 0.794556
vt 0.679199 0.734619
vt 0.678711 0.730469
vt 0.682129 0.730713
vt 0.680664 0.728271
vt 0.877930 0.734619
vt 0.876465 0.728271
vt 0.875488 0.730713
vt 0.878418 0.730469
vt 0.685547 1.250000
vt 0.468018 1.132324
vt 0.471924 1.115417
vt 0.458008 1.149292
vt 0.695801 0.999213
vt 0.538574 1.385010
vt 0.470703 1.096741
vt 0.441895 1.159302
vt 0.460693 1.080627
vt 0.423096 1.161865
vt 0.562012 0.853516
vt 0.287842 1.373779
vt 0.445068 1.069519
vt 0.404541 1.157593
vt 0.426758 1.065247
vt 0.389160 1.146484
vt 0.311035 0.842041
vt 0.153687 1.228027
vt 0.407959 1.067810
vt 0.379150 1.130371
vt 0.391846 1.077820
vt 0.376465 1.111694
vt 0.164185 0.977158
vt 0.380615 1.093262
vt 0.877930 0.961395
vt 0.866699 0.976273
vt 0.892578 0.950378
vt 0.910645 0.948456
vt 0.928223 0.951660
vt 0.944824 0.961243
vt 1.474609 1.446777
vt 1.474609 1.481445
vt 1.456055 1.446777
vt 1.455078 1.481445
vt 1.429688 1.446533
vt 1.427734 1.481201
vt 1.401367 1.481445
vt 1.400391 1.446777
vt 1.381836 1.479736
vt 1.381836 1.446777
vt 1.364258 1.481445
vt 1.348633 1.446045
vt 1.345703 1.479736
vt 1.327148 1.446777
vt 1.327148 1.479736
vt 1.298828 1.446289
vt 1.306641 1.481445
vt 1.278320 1.481201
vt 1.271484 1.446777
vt 1.243164 1.446533
vt 1.253906 1.481445
vt 1.233398 1.481445
vt 1.215820 1.446777
vt 1.214844 1.481445
vt 1.197266 1.446777
vt 1.198242 1.481201
vt 1.178711 1.481445
vt 1.178711 1.446777
vt 1.014648 0.741943
vt 1.014648 0.721680
vt 1.034180 0.743652
vt 1.047852 0.720703
vt 1.051758 0.743652
vt 1.071289 0.721680
vt 1.071289 0.741943
vt 1.100586 0.721191
vt 1.099609 0.742432
vt 1.130859 0.741943
vt 1.130859 0.721680
vt 1.150391 0.721680
vt 1.150391 0.741943
vt 1.180664 0.721191
vt 1.180664 0.742432
vt 1.210938 0.741943
vt 1.210938 0.721680
vt 1.231445 0.721680
vt 1.231445 0.741943
vt 1.260742 0.721191
vt 1.260742 0.742432
vt 1.289062 0.741943
vt 1.289062 0.721680
vt 1.308594 0.721680
vt 1.308594 0.741943
vt 1.327148 0.721680
vt 1.327148 0.741943
vt 0.472168 1.115479
vt 0.468506 1.097534
vt 0.453369 1.075745
vt 0.426514 1.067627
vt 0.408691 1.070068
vt 0.386475 1.085632
vt 0.378906 1.111816
vt 0.381348 1.129639
vt 0.396973 1.151733
vt 0.423096 1.159546
vt 0.440918 1.157104
vt 0.456299 1.147583
vt 0.468506 1.132690
vt 0.684082 0.861938
vt 0.672852 0.861206
vt 0.687988 0.844360
vt 0.651855 0.868164
vt 0.696289 0.838379
vt 0.688477 0.814331
vt 0.660645 0.873901
vt 0.686035 0.863770
vt 0.698730 0.838867
vt 0.661133 0.876221
vt 0.696777 0.820557
vt 0.698730 0.816040
vt 0.633301 0.874023
vt 0.684570 0.796997
vt 0.678711 0.789673
vt 0.666992 0.793335
vt 0.661133 0.784790
vt 0.661621 0.782349
vt 0.644531 0.791748
vt 0.632812 0.784668
vt 0.631836 0.787598
vt 0.624512 0.801636
vt 0.612305 0.802490
vt 0.609375 0.811523
vt 0.614258 0.821655
vt 0.604980 0.819702
vt 0.615723 0.843994
vt 0.607422 0.838013
vt 0.604980 0.838379
vt 0.614258 0.854370
vt 0.611816 0.855713
vt 0.630371 0.860962
vt 0.634277 0.871582
vt 1.116211 0.266113
vt 1.100586 0.275391
vt 1.098633 0.273438
vt 1.084961 0.287109
vt 1.117188 0.268555
vt 1.145508 0.268555
vt 1.082031 0.295898
vt 1.077148 0.319824
vt 1.127930 0.274902
vt 1.104492 0.282227
vt 1.089844 0.299316
vt 1.144531 0.270508
vt 1.154297 0.286621
vt 1.080078 0.323242
vt 1.087891 0.321777
vt 1.086914 0.340332
vt 1.084961 0.341797
vt 1.097656 0.342285
vt 1.106445 0.360352
vt 1.107422 0.358398
vt 1.118164 0.352539
vt 1.134766 0.360352
vt 1.135742 0.362793
vt 1.140625 0.351074
vt 1.152344 0.353516
vt 1.153320 0.355469
vt 1.162109 0.331055
vt 1.171875 0.333984
vt 1.169922 0.332520
vt 1.171875 0.305664
vt 1.164062 0.307129
vt 1.174805 0.305176
vt 1.165039 0.288574
vt 1.166992 0.287109
vt 1.140625 0.834473
vt 1.397461 0.833984
vt 1.397461 0.834961
vt 1.140625 0.837158
vt 1.397461 0.837158
vt 1.139648 0.838501
vt 1.398438 0.838501
vt 1.140625 0.840576
vt 1.397461 0.840576
vt 1.397461 0.863281
vt 1.140625 0.863281
vt 1.139648 0.865356
vt 1.398438 0.865356
vt 1.397461 0.866699
vt 1.140625 0.866699
vt 1.141602 0.869263
vt 1.396484 0.869507
vt 1.176758 1.372559
vt 1.471680 1.373291
vt 1.175781 1.373779
vt 1.472656 1.375977
vt 1.174805 1.375977
vt 1.174805 1.377197
vt 1.473633 1.377197
vt 1.175781 1.379395
vt 1.172852 1.378906
vt 1.472656 1.379395
vt 1.475586 1.379150
vt 1.475586 1.402344
vt 1.472656 1.402100
vt 1.175781 1.401855
vt 1.473633 1.404297
vt 1.174805 1.404053
vt 1.172852 1.402344
vt 1.472656 1.405518
vt 1.174805 1.405273
vt 1.174805 1.407715
vt 1.471680 1.408203
vt 1.174805 1.408691
vt 1.134766 0.907593
vt 1.391602 0.907104
vt 1.390625 0.908142
vt 1.133789 0.910339
vt 1.390625 0.910339
vt 1.132812 0.911682
vt 1.391602 0.911682
vt 1.390625 0.913818
vt 1.134766 0.913818
vt 1.134766 0.936462
vt 1.390625 0.936462
vt 1.133789 0.938599
vt 1.391602 0.938568
vt 1.390625 0.939972
vt 1.133789 0.939911
vt 1.134766 0.942108
vt 1.390625 0.942841
vt 1.133789 0.943146
vt 1.176758 1.213745
vt 1.471680 1.214233
vt 1.175781 1.215088
vt 1.472656 1.217041
vt 1.175781 1.217285
vt 1.174805 1.218506
vt 1.473633 1.218384
vt 1.175781 1.220581
vt 1.172852 1.220093
vt 1.472656 1.220459
vt 1.475586 1.220215
vt 1.175781 1.243042
vt 1.472656 1.243164
vt 1.475586 1.243408
vt 1.473633 1.245361
vt 1.174805 1.245239
vt 1.172852 1.243530
vt 1.472656 1.246704
vt 1.175781 1.246460
vt 1.174805 1.248779
vt 1.471680 1.248901
vt 1.470703 1.250000
vt 1.174805 1.249878
vt 0.739258 1.465576
vt 1.120117 1.443848
vt 1.120117 1.465576
vt 0.739258 1.441895
vt 1.120117 1.418945
vt 0.739258 1.418945
vt 1.120117 1.395508
vt 0.739258 1.393555
vt 1.120117 1.370605
vt 0.739258 1.370605
vt 1.120117 1.354248
vt 0.739258 1.346191
vt 1.120117 1.329590
vt 0.739258 1.321289
vt 1.120117 1.298828
vt 0.739258 1.295410
vt 1.120117 1.272705
vt 0.739258 1.272705
vt 1.120117 1.256592
vt 0.739258 1.256592
vt 1.120117 1.236694
vt 0.739258 1.234741
vt 1.120117 1.210205
vt 0.739258 1.210205
vt 1.136719 1.101807
vt 1.392578 1.102783
vt 1.135742 1.102783
vt 1.391602 1.101440
vt 1.135742 1.099548
vt 1.392578 1.099548
vt 1.134766 1.098206
vt 1.393555 1.098206
vt 1.135742 1.096069
vt 1.392578 1.096069
vt 1.135742 1.073242
vt 1.132812 1.096191
vt 1.132812 1.073181
vt 1.392578 1.073242
vt 1.395508 1.096191
vt 1.395508 1.073181
vt 1.393555 1.071106
vt 1.134766 1.071106
vt 1.392578 1.069702
vt 1.135742 1.069702
vt 1.392578 1.067566
vt 1.137695 1.067627
vt 1.137695 1.066345
vt 1.392578 1.066345
vt 1.392578 0.987900
vt 1.136719 0.988861
vt 1.137695 0.987427
vt 1.392578 0.990845
vt 1.134766 0.990730
vt 1.392578 0.992043
vt 1.134766 0.992043
vt 1.391602 0.994156
vt 1.394531 0.993950
vt 1.394531 1.017075
vt 1.135742 0.994114
vt 1.391602 1.016861
vt 1.392578 1.018982
vt 1.131836 1.017014
vt 1.131836 0.994011
vt 1.135742 1.016907
vt 1.134766 1.018982
vt 1.134766 1.020294
vt 1.392578 1.020187
vt 1.135742 1.022385
vt 1.390625 1.022400
vt 1.390625 1.023636
vt 1.135742 1.023636
vt 1.175781 1.328369
vt 1.472656 1.327637
vt 1.471680 1.328857
vt 1.174805 1.325439
vt 1.472656 1.325439
vt 1.473633 1.324219
vt 1.174805 1.324219
vt 1.475586 1.322510
vt 1.472656 1.322021
vt 1.175781 1.322266
vt 1.172852 1.322510
vt 1.472656 1.299561
vt 1.175781 1.299561
vt 1.172852 1.299316
vt 1.174805 1.297363
vt 1.473633 1.297363
vt 1.475586 1.299072
vt 1.174805 1.296143
vt 1.472656 1.296143
vt 1.472656 1.293701
vt 1.176758 1.293945
vt 1.176758 1.292725
vt 1.472656 1.292725
vt 1.177734 1.139648
vt 1.473633 1.139526
vt 1.473633 1.140503
vt 1.176758 1.140869
vt 1.175781 1.143066
vt 1.473633 1.142944
vt 1.474609 1.144409
vt 1.175781 1.144409
vt 1.176758 1.146606
vt 1.473633 1.146484
vt 1.173828 1.146362
vt 1.473633 1.169189
vt 1.176758 1.169312
vt 1.173828 1.169434
vt 1.474609 1.171387
vt 1.175781 1.171387
vt 1.175781 1.172729
vt 1.473633 1.172852
vt 1.471680 1.175415
vt 1.176758 1.175415
vt 0.787598 -0.143555
vt -0.168335 0.237793
vt 0.189819 -0.132812
vt -0.158203 0.835449
vt 1.158203 0.214355
vt 0.212646 1.193604
vt 0.810547 1.183105
vt 1.168945 0.812256
vt 0.257324 0.019531
vt 0.791016 -0.138672
vt 0.731934 0.010742
vt 1.013672 0.283203
vt 0.192993 -0.127930
vt 1.162109 0.218750
vt -0.029816 0.287598
vt 1.022461 0.757446
vt -0.165039 0.242676
vt 1.172852 0.816528
vt -0.005840 0.775635
vt 0.750488 1.039642
vt -0.153687 0.840210
vt 0.814941 1.187622
vt 0.276367 1.047913
vt 0.217407 1.197998
vt1 0.236694 0.834717
vt1 0.287354 0.834717
vt1 0.288086 0.838013
vt1 0.235840 0.838013
vt1 0.287842 0.846436
vt1 0.235962 0.846191
vt1 0.332764 0.737305
vt1 0.332764 0.686523
vt1 0.334961 0.685791
vt1 0.334961 0.738037
vt1 0.341064 0.685791
vt1 0.341064 0.738037
vt1 0.978516 0.180664
vt1 0.969238 0.030273
vt1 0.975586 0.029785
vt1 0.973145 0.180664
vt1 0.966309 0.030273
vt1 0.978516 0.182617
vt1 0.969238 0.181641
vt1 0.973145 0.182617
vt1 0.966797 0.235352
vt1 0.970215 0.234375
vt1 0.975586 0.236328
vt1 0.970215 0.236816
vt1 0.966797 0.387207
vt1 0.969727 0.387207
vt1 0.975586 0.387695
vt1 0.930176 0.244629
vt1 0.939453 0.395508
vt1 0.934082 0.395996
vt1 0.935059 0.245117
vt1 0.942383 0.395508
vt1 0.937988 0.244141
vt1 0.935059 0.243164
vt1 0.932617 0.190918
vt1 0.940430 0.189941
vt1 0.937500 0.190918
vt1 0.932617 0.188965
vt1 0.937500 0.188965
vt1 0.941895 0.038574
vt1 0.939453 0.038574
vt1 0.933594 0.038086
vt1 0.603516 0.046875
vt1 0.443115 0.046387
vt1 0.443848 0.040039
vt1 0.603516 0.040527
vt1 0.443359 0.035645
vt1 0.604980 0.036133
vt1 0.605957 0.040527
vt1 0.605957 0.046875
vt1 0.732422 0.046875
vt1 0.732422 0.040527
vt1 0.733398 0.036133
vt1 0.734375 0.040527
vt1 0.734375 0.046875
vt1 0.895020 0.035645
vt1 0.895020 0.046387
vt1 0.894043 0.040039
vt1 0.020233 0.182617
vt1 0.020248 0.021973
vt1 0.025925 0.022461
vt1 0.025909 0.182617
vt1 0.029892 0.021973
vt1 0.029678 0.183594
vt1 0.025848 0.184570
vt1 0.020172 0.184570
vt1 0.020386 0.311035
vt1 0.026062 0.311035
vt1 0.029892 0.312012
vt1 0.026138 0.313477
vt1 0.020462 0.313477
vt1 0.030121 0.473633
vt1 0.020462 0.473633
vt1 0.026138 0.473145
vt1 0.869141 0.871338
vt1 0.880371 0.863159
vt1 0.934570 0.946838
vt1 0.856934 0.874146
vt1 0.888184 0.850342
vt1 0.787109 0.956085
vt1 0.969727 0.907471
vt1 0.842773 0.872437
vt1 0.888672 0.832031
vt1 0.745605 0.919250
vt1 0.963867 0.760010
vt1 0.831055 0.865234
vt1 0.878906 0.814209
vt1 0.820312 0.848022
vt1 0.866699 0.805786
vt1 0.739746 0.771729
vt1 0.922363 0.723145
vt1 0.821777 0.828613
vt1 0.853027 0.804077
vt1 0.828125 0.815674
vt1 0.774902 0.732666
vt1 0.839844 0.808350
vt1 0.744629 0.638184
vt1 0.744141 0.633789
vt1 0.746094 0.634033
vt1 0.873535 0.638184
vt1 0.745605 0.631348
vt1 0.872070 0.634033
vt1 0.874023 0.633789
vt1 0.872559 0.631348
vt1 0.816406 0.590820
vt1 0.816406 0.595215
vt1 0.814453 0.594727
vt1 0.815430 0.597412
vt1 0.687500 0.590820
vt1 0.687988 0.597412
vt1 0.688965 0.594727
vt1 0.687012 0.595215
vt1 0.610352 0.426270
vt1 0.692383 0.287109
vt1 0.703125 0.290039
vt1 0.681152 0.280273
vt1 0.773926 0.438965
vt1 0.525879 0.327148
vt1 0.715332 0.290039
vt1 0.675293 0.269531
vt1 0.726074 0.283691
vt1 0.673828 0.256836
vt1 0.872070 0.354980
vt1 0.539062 0.164062
vt1 0.733887 0.273926
vt1 0.677246 0.245117
vt1 0.737305 0.261719
vt1 0.684570 0.234863
vt1 0.885254 0.191406
vt1 0.637207 0.079590
vt1 0.735840 0.249512
vt1 0.695312 0.229004
vt1 0.729980 0.238770
vt1 0.708008 0.227539
vt1 0.800781 0.092285
vt1 0.719727 0.230957
vt1 0.829590 0.816895
vt1 0.821777 0.828369
vt1 0.839355 0.808105
vt1 0.853027 0.805908
vt1 0.866211 0.807495
vt1 0.878906 0.813965
vt1 0.917480 0.425293
vt1 0.941406 0.425293
vt1 0.917480 0.437988
vt1 0.941406 0.438477
vt1 0.917480 0.456055
vt1 0.941406 0.457031
vt1 0.941406 0.475098
vt1 0.917480 0.475586
vt1 0.940430 0.488281
vt1 0.917480 0.488281
vt1 0.941406 0.500488
vt1 0.916992 0.510498
vt1 0.940430 0.513184
vt1 0.917480 0.525635
vt1 0.940430 0.525635
vt1 0.916992 0.544678
vt1 0.941406 0.539062
vt1 0.941406 0.558350
vt1 0.917480 0.563477
vt1 0.916992 0.582275
vt1 0.941406 0.575195
vt1 0.941406 0.588867
vt1 0.917480 0.601074
vt1 0.941406 0.601807
vt1 0.917480 0.613770
vt1 0.941406 0.613281
vt1 0.941406 0.626709
vt1 0.917480 0.626465
vt1 0.977051 0.653320
vt1 0.962402 0.653320
vt1 0.978027 0.639404
vt1 0.961914 0.629395
vt1 0.978027 0.626709
vt1 0.962402 0.613037
vt1 0.977051 0.613037
vt1 0.961914 0.592041
vt1 0.977051 0.592529
vt1 0.977051 0.570557
vt1 0.962402 0.570557
vt1 0.962402 0.556152
vt1 0.977051 0.556152
vt1 0.962402 0.534668
vt1 0.977051 0.534668
vt1 0.977051 0.512939
vt1 0.962402 0.512939
vt1 0.962402 0.499023
vt1 0.977051 0.499023
vt1 0.961914 0.477539
vt1 0.977051 0.477539
vt1 0.977051 0.457031
vt1 0.962402 0.457031
vt1 0.962402 0.443848
vt1 0.977051 0.443848
vt1 0.962402 0.430176
vt1 0.977051 0.430664
vt1 0.703125 0.290527
vt1 0.714844 0.288574
vt1 0.729492 0.278809
vt1 0.735840 0.261719
vt1 0.734375 0.250000
vt1 0.724609 0.234863
vt1 0.708008 0.229004
vt1 0.695801 0.230469
vt1 0.681152 0.240234
vt1 0.675293 0.257324
vt1 0.676758 0.269043
vt1 0.682617 0.279297
vt1 0.691895 0.287598
vt1 0.563965 0.510986
vt1 0.563477 0.518799
vt1 0.552246 0.508545
vt1 0.568359 0.533203
vt1 0.547852 0.502686
vt1 0.531738 0.508057
vt1 0.572266 0.527344
vt1 0.565430 0.509766
vt1 0.548340 0.500977
vt1 0.574219 0.526855
vt1 0.536133 0.502686
vt1 0.532715 0.501221
vt1 0.572266 0.545898
vt1 0.519531 0.510742
vt1 0.514648 0.514893
vt1 0.517090 0.522949
vt1 0.511230 0.526855
vt1 0.509766 0.526611
vt1 0.516113 0.538086
vt1 0.511230 0.546143
vt1 0.513184 0.546875
vt1 0.522949 0.552002
vt1 0.523438 0.560303
vt1 0.529785 0.562012
vt1 0.536621 0.558838
vt1 0.535156 0.565186
vt1 0.551758 0.557861
vt1 0.547852 0.563721
vt1 0.548340 0.565186
vt1 0.559082 0.559082
vt1 0.560059 0.560547
vt1 0.563477 0.547852
vt1 0.570801 0.545166
vt1 0.232788 0.708740
vt1 0.221191 0.715332
vt1 0.220337 0.713867
vt1 0.210693 0.723389
vt1 0.233154 0.710449
vt1 0.252930 0.710449
vt1 0.208618 0.729980
vt1 0.204590 0.746826
vt1 0.240723 0.715088
vt1 0.224365 0.720215
vt1 0.213867 0.732178
vt1 0.252197 0.712158
vt1 0.259033 0.723389
vt1 0.206909 0.749268
vt1 0.212646 0.748047
vt1 0.211792 0.761108
vt1 0.210449 0.762085
vt1 0.219727 0.762451
vt1 0.225708 0.775391
vt1 0.226562 0.773682
vt1 0.234009 0.769531
vt1 0.245728 0.775391
vt1 0.246094 0.776978
vt1 0.250000 0.768555
vt1 0.257568 0.770508
vt1 0.258545 0.771851
vt1 0.264648 0.754761
vt1 0.271973 0.756470
vt1 0.270264 0.755737
vt1 0.271973 0.736572
vt1 0.266113 0.737793
vt1 0.273438 0.736328
vt1 0.267090 0.724609
vt1 0.268311 0.723633
vt1 0.303223 0.483398
vt1 0.470215 0.482910
vt1 0.469971 0.483398
vt1 0.302979 0.484863
vt1 0.469971 0.484863
vt1 0.302490 0.485840
vt1 0.470459 0.485840
vt1 0.302979 0.487305
vt1 0.469971 0.487305
vt1 0.469971 0.501709
vt1 0.302979 0.501709
vt1 0.302490 0.503174
vt1 0.470459 0.503174
vt1 0.469971 0.503906
vt1 0.302979 0.503906
vt1 0.303467 0.505615
vt1 0.469727 0.505859
vt1 0.705566 0.669922
vt1 0.513672 0.669434
vt1 0.706055 0.669189
vt1 0.512695 0.667480
vt1 0.706543 0.667725
vt1 0.707031 0.666748
vt1 0.512207 0.666748
vt1 0.706055 0.665283
vt1 0.708008 0.665771
vt1 0.513184 0.665527
vt1 0.511230 0.665527
vt1 0.511230 0.650635
vt1 0.513184 0.650635
vt1 0.706055 0.650879
vt1 0.512207 0.649414
vt1 0.707031 0.649414
vt1 0.708008 0.650635
vt1 0.512695 0.648682
vt1 0.706543 0.648682
vt1 0.707031 0.646973
vt1 0.513672 0.646729
vt1 0.706543 0.646240
vt1 0.493652 0.596436
vt1 0.660645 0.595947
vt1 0.660156 0.596680
vt1 0.493164 0.598145
vt1 0.660156 0.598145
vt1 0.492676 0.598877
vt1 0.660645 0.598877
vt1 0.660156 0.600342
vt1 0.493408 0.600342
vt1 0.493408 0.614990
vt1 0.660156 0.614990
vt1 0.492676 0.616455
vt1 0.660645 0.616455
vt1 0.660156 0.617188
vt1 0.493164 0.617188
vt1 0.493408 0.618652
vt1 0.659668 0.619141
vt1 0.492920 0.619385
vt1 0.814453 0.497559
vt1 0.622559 0.497070
vt1 0.814941 0.497070
vt1 0.621582 0.495605
vt1 0.815430 0.495605
vt1 0.815918 0.494629
vt1 0.621094 0.494629
vt1 0.814941 0.493164
vt1 0.816895 0.493652
vt1 0.622070 0.493164
vt1 0.620117 0.493652
vt1 0.814941 0.478516
vt1 0.622070 0.478516
vt1 0.620117 0.478516
vt1 0.621094 0.477051
vt1 0.815918 0.477051
vt1 0.816895 0.478516
vt1 0.621582 0.476562
vt1 0.815430 0.476562
vt1 0.815430 0.475098
vt1 0.622559 0.475098
vt1 0.623047 0.474121
vt1 0.815918 0.474121
vt1 0.517578 0.695312
vt1 0.532715 0.957184
vt1 0.517578 0.957184
vt1 0.533691 0.695312
vt1 0.550293 0.957184
vt1 0.550293 0.695312
vt1 0.566406 0.957184
vt1 0.567871 0.695312
vt1 0.583984 0.957184
vt1 0.583984 0.695312
vt1 0.595703 0.957184
vt1 0.601074 0.695312
vt1 0.612793 0.957184
vt1 0.618652 0.695312
vt1 0.634277 0.957184
vt1 0.636719 0.695312
vt1 0.652832 0.957184
vt1 0.652832 0.695312
vt1 0.664062 0.957184
vt1 0.664062 0.695312
vt1 0.678223 0.957184
vt1 0.679199 0.695312
vt1 0.696289 0.957184
vt1 0.696289 0.695312
vt1 0.749023 0.695801
vt1 0.915039 0.696533
vt1 0.748535 0.696533
vt1 0.914551 0.695557
vt1 0.748535 0.694336
vt1 0.915527 0.694336
vt1 0.748047 0.693604
vt1 0.916016 0.693604
vt1 0.748535 0.692139
vt1 0.915527 0.692139
vt1 0.748535 0.677246
vt1 0.746582 0.692383
vt1 0.746582 0.677246
vt1 0.915527 0.677246
vt1 0.917480 0.692383
vt1 0.917480 0.677246
vt1 0.916016 0.676025
vt1 0.748047 0.676025
vt1 0.915527 0.675049
vt1 0.748535 0.675049
vt1 0.915527 0.673828
vt1 0.749512 0.673828
vt1 0.750000 0.673096
vt1 0.915527 0.673096
vt1 0.845703 0.417480
vt1 0.846191 0.583496
vt1 0.845215 0.583008
vt1 0.847656 0.417480
vt1 0.847656 0.584473
vt1 0.848145 0.416992
vt1 0.848145 0.584961
vt1 0.849609 0.417969
vt1 0.849609 0.415527
vt1 0.864746 0.415527
vt1 0.849609 0.584473
vt1 0.864258 0.417969
vt1 0.865723 0.416992
vt1 0.864746 0.586426
vt1 0.849609 0.586426
vt1 0.864258 0.584473
vt1 0.865723 0.584961
vt1 0.866699 0.584473
vt1 0.866699 0.417480
vt1 0.868164 0.583984
vt1 0.867676 0.418457
vt1 0.868652 0.418457
vt1 0.868652 0.584229
vt1 0.261963 0.483887
vt1 0.069336 0.484375
vt1 0.069519 0.483398
vt1 0.262451 0.485840
vt1 0.068909 0.485840
vt1 0.068481 0.486328
vt1 0.262939 0.486328
vt1 0.067200 0.487305
vt1 0.069214 0.487793
vt1 0.262207 0.487793
vt1 0.264160 0.487305
vt1 0.069214 0.502197
vt1 0.262207 0.502197
vt1 0.264160 0.502441
vt1 0.262939 0.503662
vt1 0.068481 0.503662
vt1 0.067200 0.502441
vt1 0.262451 0.504395
vt1 0.068909 0.504395
vt1 0.068848 0.506104
vt1 0.261719 0.505859
vt1 0.261230 0.506592
vt1 0.069397 0.506592
vt1 0.817871 0.555908
vt1 0.625488 0.556152
vt1 0.625488 0.555420
vt1 0.818359 0.555176
vt1 0.818848 0.553711
vt1 0.625488 0.553955
vt1 0.625000 0.552979
vt1 0.819336 0.552979
vt1 0.818848 0.551514
vt1 0.625488 0.551514
vt1 0.820801 0.551758
vt1 0.625488 0.536865
vt1 0.818848 0.536865
vt1 0.820801 0.536621
vt1 0.625000 0.535400
vt1 0.819336 0.535400
vt1 0.818848 0.534668
vt1 0.625488 0.534668
vt1 0.626465 0.532959
vt1 0.818359 0.532959
vt1 0.191406 0.456055
vt1 0.500977 0.332520
vt1 0.385010 0.452637
vt1 0.497803 0.138672
vt1 0.071289 0.340332
vt1 0.377686 0.022949
vt1 0.183960 0.026367
vt1 0.067932 0.146484
vt1 0.433350 0.675781
vt1 0.488525 0.860352
vt1 0.436279 0.839966
vt1 0.342285 0.937531
vt1 0.484619 0.653564
vt1 0.364502 0.988777
vt1 0.340576 0.576416
vt1 0.178101 0.940430
vt1 0.356201 0.529541
vt1 0.157715 0.992443
vt1 0.171753 0.584717
vt1 0.080505 0.846436
vt1 0.149414 0.533447
vt1 0.029282 0.868652
vt1 0.077576 0.682373
vt1 0.025620 0.661865
vn -0.188976 0.968504 0.181102
vn 0.023622 0.976378 0.196850
vn 0.031496 0.228347 0.976378
vn -0.047244 0.086614 0.992126
vn 0.023622 0.000000 1.000000
vn -0.055118 0.000000 1.000000
vn 0.188976 0.968504 -0.181102
vn -0.023622 0.976378 -0.196850
vn -0.031496 0.228346 -0.976378
vn 0.047244 0.086614 -0.992126
vn -0.023622 -0.000000 -1.000000
vn 0.055118 -0.000000 -1.000000
vn -0.716535 0.000000 0.700787
vn -0.716535 0.047244 0.700787
vn -0.716535 0.000000 0.700787
vn -0.716535 0.000000 0.700787
vn -0.188976 0.968504 0.181102
vn -1.000000 0.000000 0.000000
vn -0.188976 0.968504 0.181102
vn -1.000000 0.000000 0.000000
vn -0.188976 0.968504 -0.181102
vn -1.000000 0.000000 0.000000
vn -0.779528 -0.000000 -0.622047
vn -0.716535 -0.000000 -0.700787
vn -0.023622 0.976378 -0.196850
vn -0.708661 0.039370 -0.700787
vn -0.716535 -0.000000 -0.700787
vn 0.779528 -0.000000 -0.622047
vn 0.716535 0.047244 -0.700787
vn 0.716535 -0.000000 -0.700787
vn 0.716535 -0.000000 -0.700787
vn 0.188976 0.968504 -0.181102
vn 0.204724 0.976378 -0.023622
vn 1.000000 0.000000 0.000000
vn 1.000000 0.000000 0.000000
vn 0.188976 0.968504 0.181102
vn 1.000000 0.000000 0.000000
vn 0.716535 0.000000 0.700787
vn 0.716535 0.000000 0.700787
vn 0.023622 0.976378 0.196850
vn 0.708661 0.039370 0.700787
vn 0.716535 0.000000 0.700787
vn 0.708661 -0.000000 -0.708661
vn 0.708661 -0.000000 -0.708661
vn 0.708661 -0.000000 -0.708661
vn 0.708661 -0.000000 -0.708661
vn 0.000000 -0.984252 -0.173228
vn 0.173228 -0.984252 0.000000
vn 1.000000 0.000000 0.000000
vn 1.000000 0.000000 0.000000
vn 1.000000 0.000000 0.000000
vn 1.000000 0.000000 0.000000
vn 0.173228 -0.984252 0.000000
vn 0.708661 0.000000 0.708661
vn 0.708661 0.000000 0.708661
vn 0.000000 -0.984252 0.173228
vn 0.708661 0.000000 0.708661
vn 0.708661 0.000000 0.708661
vn -0.708661 0.000000 0.708661
vn -0.708661 0.000000 0.708661
vn -0.708661 0.000000 0.708661
vn -0.708661 0.000000 0.708661
vn 0.000000 -0.984252 0.173228
vn -0.173228 -0.984252 0.000000
vn -1.000000 0.000000 0.000000
vn -1.000000 0.000000 0.000000
vn -1.000000 0.000000 0.000000
vn -1.000000 0.000000 0.000000
vn -0.173228 -0.984252 0.000000
vn -0.708661 -0.000000 -0.708661
vn -0.708661 -0.000000 -0.708661
vn 0.000000 -0.984252 -0.173228
vn -0.708661 -0.000000 -0.708661
vn -0.708661 -0.000000 -0.708661
vn 0.188976 0.976378 0.125984
vn 0.220472 0.976378 -0.047244
vn 0.188976 0.968504 0.181102
vn 0.188976 0.968504 0.181102
vn 0.204724 0.976378 -0.031496
vn 0.023622 0.976378 0.196850
vn 0.204724 0.976378 -0.023622
vn 0.023622 0.976378 0.196850
vn 0.181102 0.968504 -0.188976
vn -0.188976 0.968504 0.181102
vn 0.188976 0.968504 -0.181102
vn 0.039370 0.976378 0.220472
vn -0.039370 0.976378 -0.220473
vn -0.181102 0.968504 0.188976
vn -0.023622 0.976378 -0.196850
vn -0.188976 0.968504 0.181102
vn -0.023622 0.976378 -0.196850
vn -0.204724 0.976378 0.007874
vn -0.188976 0.968504 -0.181102
vn -0.204724 0.976378 0.007874
vn -0.188976 0.968504 -0.181102
vn -0.188976 0.976378 -0.125984
vn -0.023622 -0.000000 -1.000000
vn -0.708661 -0.000000 -0.708661
vn 0.000000 -0.000000 -1.000000
vn 0.007874 -0.000000 -1.000000
vn 0.000000 -0.984252 -0.173228
vn 0.000000 -0.000000 -1.000000
vn 0.708661 -0.000000 -0.708661
vn 0.000000 -0.984252 -0.173228
vn 0.023622 0.000000 1.000000
vn 0.708661 0.000000 0.708661
vn 0.000000 0.000000 1.000000
vn 0.000000 -0.984252 0.173228
vn -0.007874 0.000000 1.000000
vn 0.000000 -0.984252 0.173228
vn 0.000000 0.000000 1.000000
vn -0.708661 0.000000 0.708661
vn 0.173228 -0.984252 0.000000
vn 0.173228 -0.984252 0.007874
vn 0.133858 -0.984252 0.133858
vn 0.173228 -0.984252 0.000000
vn 0.000000 -0.984252 0.173228
vn 0.173228 -0.984252 0.000000
vn 0.094488 -0.984252 0.141732
vn 0.141732 -0.984252 -0.094488
vn 0.000000 -0.984252 0.173228
vn 0.133858 -0.984252 -0.133858
vn 0.000000 -0.984252 0.173228
vn 0.000000 -0.984252 -0.173228
vn 0.000000 -0.984252 0.173228
vn 0.000000 -0.984252 -0.173228
vn -0.133858 -0.984252 0.133858
vn 0.000000 -0.984252 -0.173228
vn -0.173228 -0.984252 0.000000
vn 0.000000 -0.984252 -0.173228
vn -0.141732 -0.984252 0.094488
vn -0.094488 -0.984252 -0.141732
vn -0.173228 -0.984252 0.000000
vn -0.133858 -0.984252 -0.133858
vn -0.173228 -0.984252 0.000000
vn -0.173228 -0.984252 0.000000
vn -0.984252 -0.000000 -0.196850
vn -0.692913 0.645669 0.322835
vn -0.669291 0.661417 -0.330709
vn -0.834646 -0.000000 -0.559055
vn -0.385827 -0.000000 -0.921260
vn -0.062992 0.677165 -0.732283
vn 0.385827 0.000000 0.921260
vn 0.551181 0.000000 0.834646
vn 0.000000 0.000000 1.000000
vn -0.023622 0.000000 1.000000
vn -0.543307 0.000000 0.842520
vn -0.566929 0.000000 0.826772
vn -0.921260 0.000000 0.393701
vn -0.921260 0.000000 0.385827
vn -0.984252 -0.000000 -0.196850
vn -0.984252 -0.000000 -0.196850
vn -0.921260 -0.000000 -0.385827
vn -0.858268 -0.000000 -0.511811
vn -0.834646 -0.000000 -0.559055
vn -0.385827 -0.000000 -0.921260
vn -0.385827 -0.000000 -0.921260
vn 0.196850 -0.000000 -0.984252
vn 0.023622 -0.000000 -1.000000
vn 0.590551 -0.000000 -0.811023
vn 0.708661 -0.000000 -0.708661
vn 0.976378 -0.000000 -0.196850
vn 0.913386 -0.000000 -0.409449
vn 1.000000 0.000000 0.007874
vn 0.921260 0.000000 0.385827
vn 0.913386 0.000000 0.401575
vn 0.708661 0.000000 0.708661
vn 0.716535 0.000000 0.700787
vn 0.559055 0.000000 0.834646
vn 0.385827 0.000000 0.921260
vn 1.000000 0.007874 -0.000000
vn 1.000000 0.007874 -0.000000
vn 0.913386 0.007874 0.401575
vn 0.763780 0.007874 0.645669
vn 0.708661 0.007874 0.700787
vn 0.385827 0.007874 0.921260
vn 0.559055 0.007874 0.834646
vn -0.204724 0.007874 0.976378
vn -0.196850 0.007874 0.976378
vn -0.708661 0.007874 0.708661
vn -0.708661 0.007874 0.708661
vn -0.921260 0.007874 0.385827
vn -0.921260 0.007874 0.385827
vn -0.984252 0.007874 -0.196850
vn -0.984252 0.007874 -0.196850
vn -0.708661 0.007874 -0.708661
vn -0.708661 0.007874 -0.708661
vn -0.385827 0.007874 -0.921260
vn -0.385827 0.007874 -0.921260
vn 0.196850 0.007874 -0.984252
vn 0.196850 0.007874 -0.984252
vn 0.708661 0.007874 -0.708661
vn 0.708661 0.007874 -0.708661
vn 0.921260 0.007874 -0.385827
vn 0.984252 0.007874 -0.196850
vn 1.000000 0.007874 -0.000000
vn 1.000000 0.007874 -0.000000
vn 0.472441 -0.732283 0.488189
vn 0.559055 0.007874 0.834646
vn -0.259843 -0.322834 0.913386
vn -0.708661 0.007874 0.708661
vn -0.921260 0.007874 0.385827
vn -0.913386 -0.322835 -0.251968
vn -0.708661 0.007874 -0.708661
vn -0.385827 0.007874 -0.921260
vn 0.251969 -0.322835 -0.913386
vn 0.708661 0.007874 -0.708661
vn 0.984252 0.007874 -0.196850
vn 1.000000 0.007874 -0.000000
vn 0.637795 -0.708661 0.291339
vn -0.007874 1.000000 -0.000000
vn 0.000000 1.000000 -0.000000
vn 0.000000 1.000000 -0.000000
vn 0.000000 1.000000 -0.000000
vn 0.000000 1.000000 -0.000000
vn 0.000000 1.000000 -0.000000
vn 0.000000 1.000000 -0.000000
vn 0.173228 0.409449 -0.897638
vn -0.385827 -0.000000 -0.921260
vn 0.708661 -0.000000 -0.708661
vn 0.000000 1.000000 -0.000000
vn -0.866142 0.149606 -0.480315
vn 0.874016 0.456693 -0.173228
vn 0.000000 1.000000 0.007874
vn -0.984252 -0.000000 -0.196850
vn 0.000000 1.000000 -0.000000
vn 0.000000 1.000000 -0.000000
vn -0.921260 0.000000 0.385827
vn 0.000000 1.000000 -0.000000
vn -0.519685 0.401575 0.748031
vn -0.015748 1.000000 -0.023622
vn 0.000000 1.000000 -0.000000
vn 0.000000 0.000000 1.000000
vn -0.007874 1.000000 -0.000000
vn 0.000000 1.000000 -0.000000
vn 0.385827 0.000000 0.921260
vn 0.000000 1.000000 -0.000000
vn 0.000000 1.000000 -0.000000
vn 0.708661 0.000000 0.708661
vn 0.000000 1.000000 -0.000000
vn 0.921260 0.000000 0.385827
vn 0.000000 1.000000 -0.000000
vn 0.000000 1.000000 0.015748
vn 0.708661 0.007874 -0.708661
vn 0.000000 -1.000000 0.000000
vn 0.921260 0.007874 -0.385827
vn 1.000000 0.007874 -0.000000
vn 0.000000 -1.000000 0.000000
vn 0.173228 -0.401575 -0.897638
vn 0.000000 -1.000000 -0.007874
vn 0.795276 -0.212598 0.566929
vn 0.000000 -1.000000 0.000000
vn 0.000000 -1.000000 0.000000
vn 0.000000 -1.000000 0.000000
vn -0.007874 -1.000000 0.000000
vn 0.000000 -1.000000 0.000000
vn 0.000000 -1.000000 0.000000
vn 0.000000 -1.000000 0.000000
vn 0.000000 -1.000000 0.000000
vn 0.385827 0.007874 0.921260
vn 0.000000 -1.000000 0.000000
vn -0.165354 -0.401575 0.897638
vn 0.007874 -1.000000 0.000000
vn 0.000000 -1.000000 0.000000
vn 0.000000 -1.000000 0.000000
vn -0.708661 0.007874 0.708661
vn 0.000000 -1.000000 0.000000
vn 0.000000 -1.000000 0.000000
vn -0.921260 0.007874 0.385827
vn 0.000000 -1.000000 0.000000
vn -0.897638 -0.401575 -0.173228
vn 0.000000 -1.000000 0.015748
vn 0.000000 -1.000000 0.000000
vn 0.000000 -1.000000 0.000000
vn -0.708661 0.007874 -0.708661
vn 0.000000 -1.000000 0.000000
vn -0.385827 0.007874 -0.921260
vn 0.000000 -0.496063 0.866142
vn -0.015748 -0.165354 0.984252
vn 0.000000 -0.700787 0.708661
vn 0.000000 -1.000000 0.000000
vn 0.000000 -1.000000 0.000000
vn 0.000000 -1.000000 0.000000
vn 0.000000 -1.000000 0.000000
vn 0.000000 -0.000000 -1.000000
vn 0.000000 -0.000000 -1.000000
vn 0.000000 -0.000000 -1.000000
vn 0.000000 -0.000000 -1.000000
vn 0.000000 1.000000 -0.000000
vn 0.000000 1.000000 -0.000000
vn 0.000000 1.000000 -0.000000
vn 0.000000 1.000000 -0.000000
vn 0.000000 0.590551 0.803149
vn 0.000000 0.496063 0.866142
vn 0.700787 -0.141732 0.700787
vn 0.582677 -0.559055 0.590551
vn 0.488189 -0.724409 0.488189
vn 0.000000 -1.000000 0.000000
vn 0.000000 -1.000000 0.000000
vn 0.000000 -1.000000 0.000000
vn 0.000000 -1.000000 0.000000
vn -0.708661 -0.000000 -0.708661
vn -1.000000 0.000000 0.000000
vn -0.708661 -0.000000 -0.708661
vn 0.000000 -0.000000 -1.000000
vn 0.000000 -0.000000 -1.000000
vn -0.708661 -0.000000 -0.708661
vn -0.708661 -0.000000 -0.708661
vn 0.000000 1.000000 -0.000000
vn 0.000000 1.000000 -0.000000
vn -1.000000 0.000000 0.000000
vn 0.000000 1.000000 -0.000000
vn 0.000000 1.000000 -0.000000
vn 0.519685 0.685039 0.511811
vn 0.590551 0.543307 0.590551
vn 0.708661 0.165354 0.685039
vn 0.000000 -0.496063 -0.866142
vn 0.015748 -0.165354 -0.984252
vn 0.000000 -0.700787 -0.708661
vn 0.000000 -1.000000 0.000000
vn 0.000000 -1.000000 0.000000
vn 0.000000 -1.000000 0.000000
vn 0.000000 -1.000000 0.000000
vn 0.000000 0.000000 1.000000
vn 0.000000 0.000000 1.000000
vn 0.000000 0.000000 1.000000
vn 0.000000 0.000000 1.000000
vn 0.000000 1.000000 -0.000000
vn 0.000000 1.000000 -0.000000
vn 0.000000 1.000000 -0.000000
vn 0.000000 1.000000 -0.000000
vn 0.000000 0.700787 -0.708661
vn 0.000000 0.496063 -0.866142
vn -0.015748 0.165354 -0.984252
vn -0.700787 -0.165354 -0.692913
vn -0.582677 -0.566929 -0.590551
vn -0.464567 -0.755905 -0.456693
vn 0.000000 -1.000000 0.000000
vn 0.000000 -1.000000 0.000000
vn 0.000000 -1.000000 0.000000
vn 0.000000 -1.000000 0.000000
vn 0.708661 0.000000 0.708661
vn 1.000000 0.000000 0.000000
vn 0.708661 0.000000 0.708661
vn 0.000000 0.000000 1.000000
vn 0.708661 0.000000 0.708661
vn 0.708661 0.000000 0.708661
vn 0.000000 0.000000 1.000000
vn 0.000000 1.000000 -0.000000
vn 0.000000 1.000000 -0.000000
vn 1.000000 0.000000 0.000000
vn 0.000000 1.000000 -0.000000
vn 0.000000 1.000000 -0.000000
vn -0.496063 0.716535 -0.488189
vn -0.480315 0.740157 -0.480315
vn -0.700787 0.141732 -0.700787
vn -0.708661 0.157480 -0.685039
vn 1.000000 0.000000 0.000000
vn 0.850394 -0.000000 -0.527559
vn 1.000000 0.000000 0.000000
vn 0.826772 -0.000000 -0.566929
vn 0.385827 -0.000000 -0.921260
vn 0.385827 -0.000000 -0.921260
vn -0.181102 -0.000000 -0.984252
vn -0.228346 -0.000000 -0.976378
vn -0.708661 -0.000000 -0.708661
vn -0.708661 -0.000000 -0.708661
vn -0.921260 -0.000000 -0.385827
vn -0.976378 -0.000000 -0.204724
vn -0.984252 0.000000 0.196850
vn -0.921260 0.000000 0.385827
vn -0.598425 0.000000 0.803149
vn -0.527559 0.000000 0.850394
vn 0.000000 0.000000 1.000000
vn 0.000000 0.000000 1.000000
vn 0.559055 0.000000 0.834646
vn 0.559055 0.000000 0.834646
vn 0.771654 0.000000 0.637795
vn 0.803150 0.000000 0.598425
vn 1.000000 0.000000 0.000000
vn 1.000000 0.000000 0.000000
vn 0.708661 -0.700787 0.000000
vn 0.984252 -0.165354 -0.007874
vn 0.984252 -0.165354 0.015748
vn 0.622047 -0.779527 0.000000
vn 0.000000 -1.000000 0.000000
vn 0.000000 -1.000000 0.000000
vn 0.000000 -1.000000 0.000000
vn 0.000000 -1.000000 0.000000
vn -1.000000 0.000000 0.000000
vn -1.000000 0.000000 0.000000
vn -1.000000 0.000000 0.000000
vn -0.708661 -0.000000 -0.708661
vn -0.708661 -0.000000 -0.708661
vn -1.000000 0.000000 0.000000
vn -0.708661 0.000000 0.708661
vn -0.708661 0.000000 0.708661
vn 0.000000 1.000000 -0.000000
vn 0.000000 1.000000 -0.000000
vn 0.000000 1.000000 -0.000000
vn 0.000000 1.000000 -0.000000
vn 0.661417 0.748031 -0.000000
vn 0.645669 0.763779 -0.000000
vn 0.992126 0.149606 -0.000000
vn 0.984252 0.157480 -0.000000
vn -0.842520 0.535433 0.007874
vn -0.606299 0.795275 -0.000000
vn -0.984252 0.173228 -0.000000
vn 0.000000 1.000000 -0.000000
vn 0.000000 1.000000 -0.000000
vn 0.000000 1.000000 -0.000000
vn 0.000000 1.000000 -0.000000
vn 1.000000 0.000000 0.000000
vn 0.708661 -0.000000 -0.708661
vn 0.708661 -0.000000 -0.708661
vn 1.000000 0.000000 0.000000
vn 1.000000 0.000000 0.000000
vn 0.000000 -1.000000 0.000000
vn 0.708661 0.000000 0.708661
vn 0.708661 0.000000 0.708661
vn 1.000000 0.000000 0.000000
vn 0.000000 -1.000000 0.000000
vn 0.000000 -1.000000 0.000000
vn 0.000000 -1.000000 0.000000
vn -0.661417 -0.748031 0.000000
vn -0.669291 -0.740157 0.007874
vn -0.984252 -0.157480 0.000000
vn -0.984252 -0.157480 0.000000
vn 0.582677 0.559055 -0.590551
vn 0.464567 0.755905 -0.456693
vn 0.700787 0.157480 -0.692913
vn 0.000000 1.000000 -0.000000
vn 0.000000 1.000000 -0.000000
vn 0.000000 1.000000 -0.000000
vn 0.000000 1.000000 -0.000000
vn -1.000000 0.000000 0.000000
vn -0.708661 0.000000 0.708661
vn -0.708661 0.000000 0.708661
vn 0.000000 0.000000 1.000000
vn -0.708661 0.000000 0.708661
vn -0.708661 0.000000 0.708661
vn 0.000000 0.000000 1.000000
vn 0.000000 -1.000000 0.000000
vn 0.000000 -1.000000 0.000000
vn -1.000000 0.000000 0.000000
vn 0.000000 -1.000000 0.000000
vn 0.000000 -1.000000 0.000000
vn 0.488189 -0.724409 -0.488189
vn 0.480315 -0.740157 -0.480315
vn 0.700787 -0.141732 -0.700787
vn 0.700787 -0.157480 -0.700787
vn -0.700787 -0.141732 0.700787
vn -0.700787 -0.157480 0.700787
vn -0.503937 -0.700787 0.503937
vn -0.480315 -0.740157 0.480315
vn 0.000000 -1.000000 0.000000
vn 0.000000 -1.000000 0.000000
vn 0.000000 -1.000000 0.000000
vn 0.000000 -1.000000 0.000000
vn 0.708661 -0.000000 -0.708661
vn 0.708661 -0.000000 -0.708661
vn 0.000000 -0.000000 -1.000000
vn 0.708661 -0.000000 -0.708661
vn 0.708661 -0.000000 -0.708661
vn 0.000000 -0.000000 -1.000000
vn 0.000000 1.000000 -0.000000
vn 0.000000 1.000000 -0.000000
vn 0.000000 1.000000 -0.000000
vn 0.000000 1.000000 -0.000000
vn -0.551181 0.622047 0.551181
vn -0.582677 0.559055 0.590551
vn 0.000000 1.000000 -0.000000
vn 0.000000 1.000000 -0.000000
vn 0.000000 1.000000 -0.000000
vn 0.000000 1.000000 -0.000000
vn 0.000000 1.000000 -0.000000
vn 0.000000 1.000000 -0.000000
vn 0.000000 1.000000 -0.000000
vn 0.000000 1.000000 -0.000000
vn 0.000000 -1.000000 0.000000
vn 0.000000 -1.000000 0.000000
vn 0.000000 -1.000000 0.000000
vn 0.000000 -1.000000 0.000000
vn 0.000000 -1.000000 0.000000
vn 0.000000 -1.000000 0.000000
vn 0.007874 -1.000000 0.023622
vn 0.000000 -1.000000 0.000000
vn 0.007874 -1.000000 0.023622
vn 0.000000 -1.000000 0.000000
vn 0.000000 -1.000000 0.000000
vn 0.000000 -1.000000 0.000000
vn 0.000000 -1.000000 0.000000
vn 0.000000 -1.000000 0.000000
vn 0.000000 -1.000000 0.000000
vn 0.000000 -1.000000 0.000000
tan -0.204476 -0.217000 0.947114 1.000000
tan 0.184512 -0.198214 0.961002 1.000000
tan -0.038440 -0.976378 0.229587 1.000000
tan 0.046872 -0.992126 0.088846 1.000000
tan -0.039370 -1.000000 0.000930 1.000000
tan 0.047244 -1.000000 0.002604 1.000000
tan 0.204476 -0.217001 -0.947114 1.000000
tan -0.184512 -0.198214 -0.961002 1.000000
tan 0.038440 -0.976378 -0.229586 1.000000
tan -0.046872 -0.992126 -0.088846 1.000000
tan 0.039370 -1.000000 -0.000930 1.000000
tan -0.047244 -1.000000 -0.002604 1.000000
tan 0.000000 -1.004774 0.000000 1.000000
tan -0.035340 -1.005022 0.031620 1.000000
tan 0.000000 -0.999504 0.000000 1.000000
tan 0.000000 -1.004774 0.000000 1.000000
tan -0.693967 -0.262322 0.678715 1.000000
tan 0.000000 -1.000000 0.000000 1.000000
tan -0.893670 -0.243970 0.372187 1.000000
tan 0.000000 -1.000000 0.000000 1.000000
tan -0.893670 -0.243970 -0.372187 1.000000
tan 0.000000 -1.000000 0.000000 1.000000
tan 0.000000 -0.969124 0.000000 1.000000
tan 0.000000 -1.004774 0.000000 1.000000
tan -0.670407 -0.158782 -0.707111 1.000000
tan -0.029140 -0.999070 -0.026660 1.000000
tan 0.000000 -0.999504 0.000000 1.000000
tan 0.000000 -0.974022 0.000000 1.000000
tan 0.035340 -1.005022 -0.031620 1.000000
tan 0.000000 -0.999504 0.000000 1.000000
tan 0.000000 -1.004774 0.000000 1.000000
tan 0.693967 -0.262323 -0.678715 1.000000
tan 0.907186 -0.198772 -0.353649 1.000000
tan 0.000000 -1.000000 0.000000 1.000000
tan 0.000000 -1.000000 0.000000 1.000000
tan 0.893670 -0.243970 0.372187 1.000000
tan 0.000000 -1.000000 0.000000 1.000000
tan 0.000000 -1.004774 0.000000 1.000000
tan 0.000000 -1.004774 0.000000 1.000000
tan 0.670407 -0.158782 0.707111 1.000000
tan 0.029140 -0.999070 0.026660 1.000000
tan 0.000000 -0.999504 0.000000 1.000000
tan 0.000000 -0.998822 0.000000 1.000000
tan -0.005580 -1.004402 -0.005580 1.000000
tan 0.000000 -0.998822 0.000000 1.000000
tan 0.000000 -0.998822 0.000000 1.000000
tan -0.674251 -0.126852 0.720751 1.000000
tan -0.914502 -0.160952 0.364251 1.000000
tan 0.000000 -1.000000 0.000000 1.000000
tan 0.000000 -1.000000 0.000000 1.000000
tan 0.000000 -1.000000 0.000000 1.000000
tan 0.000000 -1.000000 0.000000 1.000000
tan -0.914502 -0.160952 -0.364251 1.000000
tan 0.000000 -0.998822 0.000000 1.000000
tan 0.000000 -0.998822 0.000000 1.000000
tan -0.675615 -0.126852 -0.720751 1.000000
tan -0.005580 -1.004402 0.005580 1.000000
tan 0.000000 -0.998822 0.000000 1.000000
tan 0.000000 -0.998822 0.000000 1.000000
tan 0.005580 -1.004402 0.005580 1.000000
tan 0.000000 -0.998822 0.000000 1.000000
tan 0.000000 -0.998822 0.000000 1.000000
tan 0.674251 -0.126852 -0.720751 1.000000
tan 0.914502 -0.160952 -0.364251 1.000000
tan 0.000000 -1.000000 0.000000 1.000000
tan 0.000000 -1.000000 0.000000 1.000000
tan 0.000000 -1.000000 0.000000 1.000000
tan 0.000000 -1.000000 0.000000 1.000000
tan 0.914502 -0.160952 0.364251 1.000000
tan 0.000000 -0.998822 0.000000 1.000000
tan 0.000000 -0.998822 0.000000 1.000000
tan 0.675615 -0.126852 0.720751 1.000000
tan 0.005580 -1.004402 -0.005580 1.000000
tan 0.000000 -0.998822 0.000000 1.000000
tan -0.730361 0.224688 -0.645793 1.000000
tan -0.768802 0.144584 -0.599665 1.000000
tan -0.671089 0.260710 -0.693967 1.000000
tan -0.686341 0.260834 -0.678715 1.000000
tan -0.730361 0.132308 -0.645793 1.000000
tan -0.670407 0.158782 -0.707111 1.000000
tan -0.699795 0.130324 -0.678157 1.000000
tan -0.622729 0.166966 -0.753425 1.000000
tan -0.671089 -0.009920 -0.693967 1.000000
tan -0.689193 -0.005580 -0.689317 1.000000
tan -0.689193 0.005580 -0.689317 1.000000
tan -0.622729 0.195238 -0.753425 1.000000
tan -0.622729 -0.195238 -0.753425 1.000000
tan -0.678715 0.008494 -0.693967 1.000000
tan -0.639655 -0.164238 -0.737863 1.000000
tan -0.689193 -0.007006 -0.681691 1.000000
tan -0.670407 -0.158782 -0.707111 1.000000
tan -0.730361 -0.147932 -0.645793 1.000000
tan -0.686341 -0.260835 -0.678715 1.000000
tan -0.745799 -0.151280 -0.632029 1.000000
tan -0.671089 -0.260711 -0.693967 1.000000
tan -0.730361 -0.224688 -0.645793 1.000000
tan -0.047244 -1.000000 0.001116 1.000000
tan -0.133920 -0.987662 0.133920 1.000000
tan -0.047244 -1.000000 0.000000 1.000000
tan 0.039370 -1.000000 0.000310 1.000000
tan 0.178250 -0.170500 0.968752 1.000000
tan 0.039370 -1.000000 0.000000 1.000000
tan 0.145080 -0.976502 0.145080 1.000000
tan -0.178250 -0.170500 0.968752 1.000000
tan 0.047244 -1.000000 -0.001116 1.000000
tan 0.133920 -0.987662 -0.133920 1.000000
tan 0.047244 -1.000000 0.000000 1.000000
tan -0.178250 -0.170500 -0.968752 1.000000
tan -0.039370 -1.000000 -0.000310 1.000000
tan 0.178250 -0.170500 -0.968752 1.000000
tan -0.039370 -1.000000 0.000000 1.000000
tan -0.145080 -0.976502 -0.145080 1.000000
tan -0.736251 -0.129580 0.651001 1.000000
tan -0.767252 -0.130076 0.620001 1.000000
tan -0.728501 -0.009486 0.658751 1.000000
tan -0.782752 -0.137764 0.596751 1.000000
tan -0.714365 0.118668 0.674251 1.000000
tan -0.744002 -0.130944 0.643251 1.000000
tan -0.675367 0.039060 0.721495 1.000000
tan -0.759502 -0.169632 0.627751 1.000000
tan -0.651001 0.129580 0.736251 1.000000
tan -0.720751 -0.188666 0.666501 1.000000
tan -0.706615 0.120032 0.682001 1.000000
tan -0.706615 -0.120032 0.682001 1.000000
tan -0.658751 0.128216 0.728501 1.000000
tan -0.658751 -0.128216 0.728501 1.000000
tan -0.720751 0.188666 0.666501 1.000000
tan -0.651001 -0.129580 0.736251 1.000000
tan -0.744002 0.130944 0.643251 1.000000
tan -0.714365 -0.118668 0.674251 1.000000
tan -0.759502 0.169632 0.627751 1.000000
tan -0.675367 -0.039060 0.721495 1.000000
tan -0.782752 0.137764 0.596751 1.000000
tan -0.729555 0.009486 0.659805 1.000000
tan -0.736251 0.129580 0.651001 1.000000
tan -0.759502 0.133672 0.627751 1.000000
tan 0.114700 -0.799802 -0.573501 1.000000
tan -0.683799 -0.462831 -0.542005 1.000000
tan -0.601525 -0.731415 -0.245458 1.000000
tan 0.013206 -0.960258 -0.019716 1.000000
tan -0.333685 -0.880278 0.139748 1.000000
tan -0.265485 -0.716349 -0.639593 1.000000
tan 0.000000 0.948602 -0.000000 1.000000
tan 0.000000 0.901854 -0.000000 1.000000
tan 0.000000 1.000000 -0.000000 1.000000
tan 0.000000 1.000000 -0.000000 1.000000
tan 0.000000 0.912890 -0.000000 1.000000
tan 0.000000 0.907496 -0.000000 1.000000
tan 0.000000 0.927460 -0.000000 1.000000
tan 0.000000 0.948602 -0.000000 1.000000
tan 0.000000 0.985802 -0.000000 1.000000
tan 0.000000 0.985802 -0.000000 1.000000
tan 0.000000 0.927336 -0.000000 1.000000
tan 0.000000 0.894538 -0.000000 1.000000
tan 0.000000 0.960258 -0.000000 1.000000
tan 0.000000 0.948602 -0.000000 1.000000
tan 0.000000 0.948602 -0.000000 1.000000
tan 0.000000 0.984252 -0.000000 1.000000
tan 0.000000 1.000000 -0.000000 1.000000
tan 0.000000 0.938930 -0.000000 1.000000
tan 0.000000 1.004402 -0.000000 1.000000
tan 0.000000 0.976378 -0.000000 1.000000
tan 0.000000 0.919834 -0.000000 1.000000
tan 0.000000 1.000000 -0.000000 1.000000
tan 0.000000 0.948602 -0.000000 1.000000
tan 0.000000 0.919710 -0.000000 1.000000
tan 0.000000 1.004402 -0.000000 1.000000
tan 0.000000 1.004774 -0.000000 1.000000
tan 0.000000 0.902908 -0.000000 1.000000
tan 0.000000 0.948602 -0.000000 1.000000
tan 0.007874 -1.000000 0.000000 1.000000
tan 0.007874 -1.000000 0.000000 1.000000
tan 0.007874 -0.919710 0.000124 1.000000
tan 0.007192 -0.956910 0.003162 1.000000
tan 0.005580 -0.998822 0.005580 1.000000
tan 0.000558 -0.948602 0.007874 1.000000
tan 0.002232 -0.960258 0.007564 1.000000
tan 0.000000 -0.976378 0.007874 1.000000
tan 0.000000 -0.976378 0.007874 1.000000
tan -0.005580 -1.004402 0.005580 1.000000
tan -0.005580 -1.004402 0.005580 1.000000
tan -0.007874 -0.948602 0.000558 1.000000
tan -0.007874 -0.948602 0.000558 1.000000
tan -0.007874 -0.984252 0.000000 1.000000
tan -0.007874 -0.984252 0.000000 1.000000
tan -0.005580 -1.004402 -0.005580 1.000000
tan -0.005580 -1.004402 -0.005580 1.000000
tan -0.000558 -0.948602 -0.007874 1.000000
tan -0.000558 -0.948602 -0.007874 1.000000
tan 0.000000 -0.984252 -0.007874 1.000000
tan 0.000000 -0.984252 -0.007874 1.000000
tan 0.005580 -1.004402 -0.005580 1.000000
tan 0.005580 -1.004402 -0.005580 1.000000
tan 0.007874 -0.948602 -0.000558 1.000000
tan 0.007874 -0.985802 -0.000062 1.000000
tan 0.007874 -1.000000 0.000000 1.000000
tan 0.007874 -1.000000 0.000000 1.000000
tan -0.697687 -0.016368 0.650629 1.000000
tan -0.821874 0.164424 0.548949 1.000000
tan -0.333809 0.864034 0.210428 1.000000
tan -0.050220 1.004402 -0.061380 1.000000
tan 0.144088 0.887532 0.325934 1.000000
tan -0.405915 0.646537 0.643065 1.000000
tan -0.708537 0.022320 0.708785 1.000000
tan -0.870668 -0.313783 0.361957 1.000000
tan -0.341001 -0.856594 0.208692 1.000000
tan -0.050220 -1.004402 -0.061380 1.000000
tan 0.072540 -0.931552 0.325439 1.000000
tan 0.006262 -0.795275 0.606299 1.000000
tan -0.721619 -0.453779 0.475975 1.000000
tan -0.771654 -0.006076 0.629921 1.000000
tan -0.826772 0.000000 0.559055 1.000000
tan -0.826772 0.000000 0.559055 1.000000
tan -0.826772 0.000000 0.566929 1.000000
tan -0.803150 0.000000 0.598425 1.000000
tan -0.834646 0.000000 0.551181 1.000000
tan -0.811024 0.000000 0.582677 1.000000
tan -0.383657 0.826710 0.303056 1.000000
tan -0.899498 0.201934 0.376713 1.000000
tan -0.189720 0.959762 -0.189720 1.000000
tan -0.850394 0.000000 0.527559 1.000000
tan -0.500217 -0.334181 0.797942 1.000000
tan -0.420857 0.865708 0.158906 1.000000
tan -0.881890 -0.003720 0.472441 1.000000
tan -0.094550 -0.861802 0.472751 1.000000
tan -0.834646 0.000000 0.551181 1.000000
tan -0.850394 0.000000 0.535433 1.000000
tan 0.069874 -0.934094 0.166842 1.000000
tan -0.826772 0.000000 0.559055 1.000000
tan -0.412797 -0.823858 0.155496 1.000000
tan -0.795276 0.001798 0.606299 1.000000
tan -0.826772 0.000000 0.559055 1.000000
tan -0.732283 -0.685039 0.000000 1.000000
tan -0.779528 -0.006138 0.629921 1.000000
tan -0.826772 0.000000 0.559055 1.000000
tan -0.899498 -0.201934 0.376713 1.000000
tan -0.834646 0.000000 0.551181 1.000000
tan -0.850394 0.000000 0.527559 1.000000
tan -0.703081 0.133920 0.703081 1.000000
tan -0.874016 0.000000 0.480315 1.000000
tan -0.312915 0.551987 0.747163 1.000000
tan -0.826772 0.000000 0.559055 1.000000
tan -0.866142 -0.007936 0.503937 1.000000
tan -0.206212 0.959762 -0.195548 1.000000
tan 0.629921 -0.000000 -0.771653 1.000000
tan -0.216256 0.800483 -0.500031 1.000000
tan -0.005208 0.661417 -0.748031 1.000000
tan 0.590551 -0.000000 -0.811023 1.000000
tan 0.186186 0.880526 -0.357989 1.000000
tan 0.637795 0.006014 -0.763779 1.000000
tan 0.576973 -0.002604 -0.810341 1.000000
tan 0.551181 -0.000000 -0.834646 1.000000
tan 0.559055 -0.000000 -0.834646 1.000000
tan 0.559055 -0.000000 -0.826772 1.000000
tan 0.496063 -0.003906 -0.866142 1.000000
tan 0.559055 -0.000000 -0.826772 1.000000
tan 0.519685 -0.000000 -0.858268 1.000000
tan 0.559055 -0.000000 -0.826772 1.000000
tan 0.464567 -0.000000 -0.881890 1.000000
tan 0.761982 -0.530225 -0.314589 1.000000
tan 0.559055 -0.000000 -0.826772 1.000000
tan 0.193254 -0.880340 -0.358237 1.000000
tan 0.503937 0.003968 -0.866142 1.000000
tan 0.559055 -0.000000 -0.826772 1.000000
tan 0.590551 -0.000000 -0.811023 1.000000
tan -0.206212 -0.959762 -0.195548 1.000000
tan 0.551181 -0.000000 -0.834646 1.000000
tan 0.629921 -0.000000 -0.771653 1.000000
tan -0.216256 -0.800484 -0.500031 1.000000
tan 0.566929 -0.000000 -0.818897 1.000000
tan 0.403745 -0.612437 -0.672391 1.000000
tan 0.645669 -0.012028 -0.763779 1.000000
tan 0.519685 -0.000000 -0.858268 1.000000
tan 0.559055 -0.000000 -0.826772 1.000000
tan 0.703825 0.128340 -0.702399 1.000000
tan 0.464567 -0.000000 -0.881890 1.000000
tan 0.761982 0.530225 -0.314589 1.000000
tan 0.027280 0.866142 0.496063 1.000000
tan -0.062000 0.984252 0.164362 1.000000
tan -0.022196 0.708661 0.700787 1.000000
tan 0.000000 0.000000 1.000000 1.000000
tan 0.000000 0.000000 1.000000 1.000000
tan 0.000000 0.000000 1.000000 1.000000
tan 0.000000 0.000000 1.000000 1.000000
tan 0.000000 -1.000000 0.000000 1.000000
tan 0.000000 -1.000000 0.000000 1.000000
tan 0.000000 -1.000000 0.000000 1.000000
tan 0.000000 -1.000000 0.000000 1.000000
tan 0.000000 -0.000000 -1.000000 1.000000
tan 0.000000 -0.000000 -1.000000 1.000000
tan 0.000000 -0.000000 -1.000000 1.000000
tan 0.000000 -0.000000 -1.000000 1.000000
tan -0.017298 0.803149 -0.590551 1.000000
tan 0.027280 0.866142 -0.496063 1.000000
tan 0.100440 0.993242 0.100440 1.000000
tan 0.400831 0.831422 0.391593 1.000000
tan 0.507657 0.688077 0.513361 1.000000
tan 0.685039 0.000000 0.732283 1.000000
tan 0.732283 0.000000 0.677165 1.000000
tan 0.795276 0.000000 0.606299 1.000000
tan 0.590551 0.000000 0.811023 1.000000
tan -0.039060 -1.004402 0.039060 1.000000
tan 0.000000 -0.992126 0.141732 1.000000
tan 0.044640 -1.004402 -0.044640 1.000000
tan 0.078740 -1.000000 0.000000 1.000000
tan -0.062992 -1.000000 0.000000 1.000000
tan -0.039060 -1.004402 0.039060 1.000000
tan 0.050220 -1.004402 -0.050220 1.000000
tan -0.590551 -0.000000 -0.811023 1.000000
tan -0.787402 -0.000000 -0.614173 1.000000
tan 0.000000 -0.984252 -0.181102 1.000000
tan -0.685039 -0.000000 -0.732283 1.000000
tan -0.748031 -0.000000 -0.669291 1.000000
tan -0.500279 0.727075 -0.465187 1.000000
tan -0.417571 0.832352 -0.348193 1.000000
tan 0.122760 0.927956 -0.350983 1.000000
tan -0.027280 0.866142 -0.496063 1.000000
tan 0.054250 0.984252 -0.164486 1.000000
tan 0.022196 0.708661 -0.700787 1.000000
tan 0.000000 -0.000000 -1.000000 1.000000
tan 0.000000 -0.000000 -1.000000 1.000000
tan 0.000000 -0.000000 -1.000000 1.000000
tan 0.000000 -0.000000 -1.000000 1.000000
tan 0.000000 -1.000000 0.000000 1.000000
tan 0.000000 -1.000000 0.000000 1.000000
tan 0.000000 -1.000000 0.000000 1.000000
tan 0.000000 -1.000000 0.000000 1.000000
tan 0.000000 0.000000 1.000000 1.000000
tan 0.000000 0.000000 1.000000 1.000000
tan 0.000000 0.000000 1.000000 1.000000
tan 0.000000 0.000000 1.000000 1.000000
tan 0.022196 0.708661 0.700787 1.000000
tan -0.006820 0.866142 0.496063 1.000000
tan 0.069750 0.984252 0.164238 1.000000
tan 0.129394 0.927336 -0.352161 1.000000
tan -0.387997 0.826834 -0.410937 1.000000
tan -0.551181 0.649389 -0.514167 1.000000
tan -0.685039 -0.000000 -0.732283 1.000000
tan -0.748031 -0.000000 -0.669291 1.000000
tan -0.795276 -0.000000 -0.606299 1.000000
tan -0.590551 -0.000000 -0.811023 1.000000
tan 0.044640 -0.998822 -0.044640 1.000000
tan 0.000000 -0.992126 -0.149606 1.000000
tan -0.044640 -0.998822 0.044640 1.000000
tan -0.070866 -1.000000 0.000000 1.000000
tan -0.044640 -0.998822 0.044640 1.000000
tan 0.039060 -0.998822 -0.039060 1.000000
tan 0.070866 -1.000000 0.000000 1.000000
tan 0.590551 0.000000 0.811023 1.000000
tan 0.795276 0.000000 0.606299 1.000000
tan 0.000000 -0.992126 0.149606 1.000000
tan 0.685039 0.000000 0.732283 1.000000
tan 0.748031 0.000000 0.669291 1.000000
tan 0.522909 0.693781 0.486949 1.000000
tan 0.528303 0.680761 0.520739 1.000000
tan 0.128030 0.993242 0.072850 1.000000
tan -0.128216 0.927956 0.345961 1.000000
tan 0.000000 -0.000000 -1.000000 1.000000
tan -0.527559 -0.000000 -0.850394 1.000000
tan 0.000000 -0.000000 -1.000000 1.000000
tan -0.566929 -0.000000 -0.826772 1.000000
tan -0.921260 -0.000000 -0.385827 1.000000
tan -0.921260 -0.000000 -0.385827 1.000000
tan -0.984252 0.000000 0.181102 1.000000
tan -0.976378 0.000000 0.228346 1.000000
tan -0.708661 0.000000 0.708661 1.000000
tan -0.708661 0.000000 0.708661 1.000000
tan -0.385827 0.000000 0.921260 1.000000
tan -0.204724 0.000000 0.976378 1.000000
tan 0.196850 0.000000 0.984252 1.000000
tan 0.385827 0.000000 0.921260 1.000000
tan 0.803150 0.000000 0.598425 1.000000
tan 0.850394 0.000000 0.527559 1.000000
tan 1.000000 0.000000 0.000000 1.000000
tan 1.000000 0.000000 0.000000 1.000000
tan 0.834646 -0.000000 -0.559055 1.000000
tan 0.834646 -0.000000 -0.559055 1.000000
tan 0.637795 -0.000000 -0.771653 1.000000
tan 0.598425 -0.000000 -0.803149 1.000000
tan 0.000000 -0.000000 -1.000000 1.000000
tan 0.000000 -0.000000 -1.000000 1.000000
tan -0.700787 -0.708661 -0.022196 1.000000
tan -0.164858 -0.984252 0.062000 1.000000
tan -0.164362 -0.984252 -0.062000 1.000000
tan -0.779528 -0.622047 0.023312 1.000000
tan -1.000000 0.000000 0.000000 1.000000
tan -1.000000 0.000000 0.000000 1.000000
tan -1.000000 0.000000 0.000000 1.000000
tan -1.000000 0.000000 0.000000 1.000000
tan 0.000000 1.000000 0.007874 1.000000
tan 0.000000 1.000000 -0.007874 1.000000
tan 0.000000 1.000000 -0.007874 1.000000
tan -0.033480 1.004402 0.033480 1.000000
tan 0.033480 1.004402 -0.033480 1.000000
tan 0.000000 1.000000 0.007874 1.000000
tan -0.033480 1.004402 -0.033480 1.000000
tan 0.033480 1.004402 0.033480 1.000000
tan 1.000000 0.000000 0.000000 1.000000
tan 1.000000 0.000000 0.000000 1.000000
tan 1.000000 0.000000 0.000000 1.000000
tan 1.000000 0.000000 0.000000 1.000000
tan 0.748031 -0.661417 0.000000 1.000000
tan 0.763780 -0.645669 0.000000 1.000000
tan 0.149606 -0.992126 0.000000 1.000000
tan 0.157480 -0.984252 0.000000 1.000000
tan -0.535495 -0.842520 -0.006634 1.000000
tan -0.795276 -0.606299 0.000000 1.000000
tan -0.173228 -0.984252 0.007750 1.000000
tan -1.000000 0.000000 0.055118 1.000000
tan -1.000000 0.000000 0.000000 1.000000
tan -0.984252 0.000000 0.165354 1.000000
tan -1.000000 0.000000 0.000000 1.000000
tan 0.000000 1.000000 -0.023622 1.000000
tan -0.094860 0.993242 -0.094860 1.000000
tan 0.083700 0.993242 0.083700 1.000000
tan 0.000000 1.000000 0.007874 1.000000
tan 0.000000 1.000000 0.031496 1.000000
tan 0.984252 -0.000000 -0.165354 1.000000
tan 0.039060 0.998822 -0.039060 1.000000
tan -0.050220 0.998822 0.050220 1.000000
tan 0.000000 1.000000 -0.007874 1.000000
tan 1.000000 0.000000 0.000000 1.000000
tan 1.000000 0.000000 0.000000 1.000000
tan 1.000000 -0.000000 -0.055118 1.000000
tan 0.748031 -0.661417 0.000000 1.000000
tan 0.740157 -0.669353 -0.005828 1.000000
tan 0.156240 -0.976502 0.100750 1.000000
tan 0.157480 -0.984252 0.000000 1.000000
tan -0.378821 0.827082 0.409201 1.000000
tan -0.551181 0.649389 0.514167 1.000000
tan 0.180792 0.899932 0.387377 1.000000
tan -0.669291 0.000000 0.748031 1.000000
tan -0.748031 0.000000 0.669291 1.000000
tan -0.795276 0.000000 0.614173 1.000000
tan -0.590551 0.000000 0.811023 1.000000
tan 0.000000 -0.984252 0.165354 1.000000
tan 0.050220 -0.998822 0.050220 1.000000
tan -0.044640 -0.998822 -0.044640 1.000000
tan -0.070866 -1.000000 0.000000 1.000000
tan -0.044640 -0.998822 -0.044640 1.000000
tan 0.039060 -0.998822 0.039060 1.000000
tan 0.078740 -1.000000 0.000000 1.000000
tan 0.590551 -0.000000 -0.811023 1.000000
tan 0.795276 -0.000000 -0.606299 1.000000
tan 0.000000 -0.984252 -0.157480 1.000000
tan 0.685039 -0.000000 -0.732283 1.000000
tan 0.732283 -0.000000 -0.685039 1.000000
tan 0.503813 0.688077 -0.517205 1.000000
tan 0.528303 0.680761 -0.520739 1.000000
tan 0.100440 0.993242 -0.100440 1.000000
tan 0.111600 0.993242 -0.111600 1.000000
tan -0.100440 0.993242 0.100440 1.000000
tan -0.111600 0.993242 0.111600 1.000000
tan -0.496621 0.714241 0.496621 1.000000
tan -0.528303 0.680761 0.520739 1.000000
tan -0.685039 0.000000 0.732283 1.000000
tan -0.708661 0.000000 0.708661 1.000000
tan -0.708661 0.000000 0.708661 1.000000
tan -0.590551 0.000000 0.811023 1.000000
tan -0.039060 -1.004402 -0.039060 1.000000
tan 0.000000 -1.004402 0.000000 1.000000
tan -0.062992 -1.000000 0.000000 1.000000
tan 0.000000 -1.004402 0.000000 1.000000
tan 0.039060 -1.004402 0.039060 1.000000
tan 0.070866 -1.000000 0.000000 1.000000
tan 0.708661 -0.000000 -0.708661 1.000000
tan 0.590551 -0.000000 -0.811023 1.000000
tan 0.685039 -0.000000 -0.732283 1.000000
tan 0.708661 -0.000000 -0.708661 1.000000
tan 0.440821 0.781201 -0.440821 1.000000
tan 0.396429 0.826834 -0.391593 1.000000
tan -0.716535 0.000000 0.692913 1.000000
tan -0.716535 0.000000 0.692913 1.000000
tan -0.716535 0.000000 0.692913 1.000000
tan -0.716535 0.000000 0.692913 1.000000
tan -0.716535 0.000000 0.692913 1.000000
tan -0.716535 0.000000 0.692913 1.000000
tan -0.716535 0.000000 0.692913 1.000000
tan -0.716535 0.000000 0.692913 1.000000
tan 0.692913 -0.000000 -0.716535 1.000000
tan 0.692913 -0.000000 -0.716535 1.000000
tan 0.692913 -0.000000 -0.716535 1.000000
tan 0.692913 -0.000000 -0.716535 1.000000
tan 0.692913 -0.000000 -0.716535 1.000000
tan 0.692913 -0.000000 -0.716535 1.000000
tan 0.692913 -0.011470 -0.716535 1.000000
tan 0.692913 -0.000000 -0.716535 1.000000
tan 0.692913 -0.011470 -0.716535 1.000000
tan 0.692913 -0.000000 -0.716535 1.000000
tan 0.692913 -0.000000 -0.716535 1.000000
tan 0.692913 -0.000000 -0.716535 1.000000
tan 0.692913 -0.000000 -0.716535 1.000000
tan 0.692913 -0.000000 -0.716535 1.000000
tan 0.692913 -0.000000 -0.716535 1.000000
tan 0.692913 -0.000000 -0.716535 1.000000
f 3/3/3 2/2/2 1/1/1
f 4/4/4 3/3/3 1/1/1
f 5/5/5 3/3/3 4/4/4
f 6/6/6 5/5/5 4/4/4
f 9/9/9 8/8/8 7/7/7
f 10/10/10 9/9/9 7/7/7
f 11/11/11 9/9/9 10/10/10
f 12/12/12 11/11/11 10/10/10
f 15/15/15 14/14/14 13/13/13
f 16/16/16 13/13/13 14/14/14
f 14/14/14 17/17/17 16/16/16
f 18/18/18 13/13/13 16/16/16
f 16/16/16 17/17/17 19/19/19
f 16/16/16 19/19/19 20/20/20
f 18/18/18 16/16/16 20/20/20
f 19/19/19 21/21/21 20/20/20
f 18/18/18 20/20/20 22/22/22
f 22/22/22 20/20/20 21/21/21
f 23/23/23 18/18/18 22/22/22
f 22/22/22 21/21/21 24/24/24
f 24/24/24 23/23/23 22/22/22
f 21/21/21 25/25/25 24/24/24
f 26/26/26 24/24/24 25/25/25
f 23/23/23 24/24/24 26/26/26
f 27/27/27 23/23/23 26/26/26
f 30/30/30 29/29/29 28/28/28
f 31/31/31 28/28/28 29/29/29
f 29/29/29 32/32/32 31/31/31
f 33/33/33 31/31/31 32/32/32
f 28/28/28 31/31/31 34/34/34
f 31/31/31 33/33/33 34/34/34
f 28/28/28 34/34/34 35/35/35
f 33/33/33 36/36/36 34/34/34
f 37/37/37 35/35/35 34/34/34
f 37/37/37 34/34/34 36/36/36
f 35/35/35 37/37/37 38/38/38
f 37/37/37 36/36/36 39/39/39
f 39/39/39 38/38/38 37/37/37
f 36/36/36 40/40/40 39/39/39
f 41/41/41 39/39/39 40/40/40
f 38/38/38 39/39/39 41/41/41
f 42/42/42 38/38/38 41/41/41
f 45/45/45 44/44/44 43/43/43
f 46/46/46 45/45/45 43/43/43
f 45/45/45 46/46/46 47/47/47
f 48/48/48 47/47/47 46/46/46
f 49/49/49 46/46/46 43/43/43
f 49/49/49 48/48/48 46/46/46
f 49/49/49 43/43/43 50/50/50
f 49/49/49 50/50/50 51/51/51
f 49/49/49 52/52/52 48/48/48
f 52/52/52 49/49/49 51/51/51
f 52/52/52 53/53/53 48/48/48
f 52/52/52 51/51/51 54/54/54
f 54/54/54 53/53/53 52/52/52
f 55/55/55 54/54/54 51/51/51
f 53/53/53 54/54/54 56/56/56
f 54/54/54 55/55/55 57/57/57
f 58/58/58 56/56/56 54/54/54
f 58/58/58 54/54/54 57/57/57
f 61/61/61 60/60/60 59/59/59
f 62/62/62 61/61/61 59/59/59
f 61/61/61 62/62/62 63/63/63
f 64/64/64 63/63/63 62/62/62
f 65/65/65 62/62/62 59/59/59
f 65/65/65 64/64/64 62/62/62
f 65/65/65 59/59/59 66/66/66
f 65/65/65 66/66/66 67/67/67
f 65/65/65 68/68/68 64/64/64
f 68/68/68 65/65/65 67/67/67
f 68/68/68 69/69/69 64/64/64
f 68/68/68 67/67/67 70/70/70
f 70/70/70 69/69/69 68/68/68
f 71/71/71 70/70/70 67/67/67
f 70/70/70 72/72/72 69/69/69
f 70/70/70 71/71/71 73/73/73
f 74/74/74 72/72/72 70/70/70
f 74/74/74 70/70/70 73/73/73
f 77/77/77 76/76/76 75/75/75
f 77/77/77 75/75/75 78/78/78
f 79/79/79 76/76/76 77/77/77
f 78/78/78 80/80/80 77/77/77
f 77/77/77 81/81/81 79/79/79
f 78/78/78 82/82/82 80/80/80
f 83/83/83 79/79/79 81/81/81
f 80/80/80 82/82/82 84/84/84
f 83/83/83 81/81/81 85/85/85
f 84/84/84 82/82/82 86/86/86
f 85/85/85 87/87/87 83/83/83
f 88/88/88 84/84/84 86/86/86
f 89/89/89 87/87/87 85/85/85
f 88/88/88 90/90/90 84/84/84
f 89/89/89 85/85/85 91/91/91
f 88/88/88 92/92/92 90/90/90
f 89/89/89 91/91/91 93/93/93
f 94/94/94 90/90/90 92/92/92
f 91/91/91 95/95/95 93/93/93
f 90/90/90 94/94/94 95/95/95
f 95/95/95 96/96/96 93/93/93
f 95/95/95 94/94/94 96/96/96
f 99/99/99 98/98/98 97/97/97
f 99/99/99 97/97/97 100/100/100
f 98/98/98 99/99/99 101/101/101
f 102/102/102 99/99/99 100/100/100
f 99/99/99 102/102/102 101/101/101
f 103/103/103 102/102/102 100/100/100
f 104/104/104 101/101/101 102/102/102
f 102/102/102 103/103/103 104/104/104
f 107/107/107 106/106/106 105/105/105
f 106/106/106 107/107/107 108/108/108
f 107/107/107 105/105/105 109/109/109
f 108/108/108 107/107/107 110/110/110
f 111/111/111 107/107/107 109/109/109
f 111/111/111 110/110/110 107/107/107
f 112/112/112 111/111/111 109/109/109
f 111/111/111 112/112/112 110/110/110
f 115/115/115 114/114/114 113/113/113
f 116/116/116 113/113/113 114/114/114
f 115/115/115 113/113/113 117/117/117
f 113/113/113 116/116/116 118/118/118
f 117/117/117 119/119/119 115/115/115
f 118/118/118 116/116/116 120/120/120
f 117/117/117 121/121/121 119/119/119
f 122/122/122 118/118/118 120/120/120
f 117/117/117 123/123/123 121/121/121
f 122/122/122 124/124/124 118/118/118
f 121/121/121 123/123/123 125/125/125
f 126/126/126 124/124/124 122/122/122
f 125/125/125 123/123/123 127/127/127
f 126/126/126 128/128/128 124/124/124
f 123/123/123 129/129/129 127/127/127
f 130/130/130 124/124/124 128/128/128
f 127/127/127 129/129/129 131/131/131
f 128/128/128 132/132/132 130/130/130
f 129/129/129 133/133/133 131/131/131
f 132/132/132 134/134/134 130/130/130
f 129/129/129 135/135/135 133/133/133
f 134/134/134 135/135/135 130/130/130
f 136/136/136 133/133/133 135/135/135
f 134/134/134 136/136/136 135/135/135
f 94/94/94 138/138/138 137/137/137
f 137/137/137 139/139/139 94/94/94
f 93/93/93 139/139/139 140/140/140
f 93/93/93 140/140/140 89/89/89
f 141/141/141 89/89/89 140/140/140
f 141/141/141 142/142/142 89/89/89
f 145/145/145 144/144/144 143/143/143
f 146/146/146 144/144/144 145/145/145
f 145/145/145 147/147/147 146/146/146
f 148/148/148 146/146/146 147/147/147
f 148/148/148 147/147/147 149/149/149
f 150/150/150 149/149/149 147/147/147
f 149/149/149 150/150/150 151/151/151
f 152/152/152 151/151/151 150/150/150
f 151/151/151 152/152/152 153/153/153
f 154/154/154 153/153/153 152/152/152
f 155/155/155 153/153/153 154/154/154
f 156/156/156 155/155/155 154/154/154
f 157/157/157 155/155/155 156/156/156
f 156/156/156 158/158/158 157/157/157
f 159/159/159 157/157/157 158/158/158
f 160/160/160 159/159/159 158/158/158
f 161/161/161 160/160/160 158/158/158
f 161/161/161 162/162/162 160/160/160
f 163/163/163 160/160/160 162/162/162
f 164/164/164 163/163/163 162/162/162
f 165/165/165 164/164/164 162/162/162
f 166/166/166 164/164/164 165/165/165
f 167/167/167 166/166/166 165/165/165
f 168/168/168 166/166/166 167/167/167
f 168/168/168 167/167/167 169/169/169
f 170/170/170 169/169/169 167/167/167
f 173/173/173 172/172/172 171/171/171
f 174/174/174 172/172/172 173/173/173
f 175/175/175 174/174/174 173/173/173
f 174/174/174 175/175/175 176/176/176
f 177/177/177 176/176/176 175/175/175
f 176/176/176 177/177/177 178/178/178
f 179/179/179 178/178/178 177/177/177
f 180/180/180 178/178/178 179/179/179
f 181/181/181 178/178/178 180/180/180
f 181/181/181 180/180/180 182/182/182
f 183/183/183 182/182/182 180/180/180
f 182/182/182 183/183/183 184/184/184
f 185/185/185 184/184/184 183/183/183
f 186/186/186 184/184/184 185/185/185
f 187/187/187 184/184/184 186/186/186
f 187/187/187 186/186/186 188/188/188
f 189/189/189 188/188/188 186/186/186
f 188/188/188 189/189/189 190/190/190
f 191/191/191 190/190/190 189/189/189
f 192/192/192 190/190/190 191/191/191
f 193/193/193 190/190/190 192/192/192
f 193/193/193 192/192/192 194/194/194
f 195/195/195 194/194/194 192/192/192
f 194/194/194 195/195/195 196/196/196
f 197/197/197 196/196/196 195/195/195
f 199/199/199 198/198/198 119/119/119
f 119/119/119 121/121/121 199/199/199
f 200/200/200 199/199/199 121/121/121
f 200/200/200 121/121/121 125/125/125
f 125/125/125 201/201/201 200/200/200
f 201/201/201 125/125/125 127/127/127
f 127/127/127 131/131/131 201/201/201
f 202/202/202 201/201/201 131/131/131
f 131/131/131 133/133/133 202/202/202
f 203/203/203 202/202/202 133/133/133
f 136/136/136 203/203/203 133/133/133
f 203/203/203 136/136/136 204/204/204
f 204/204/204 136/136/136 134/134/134
f 134/134/134 132/132/132 204/204/204
f 205/205/205 204/204/204 132/132/132
f 132/132/132 128/128/128 205/205/205
f 206/206/206 205/205/205 128/128/128
f 126/126/126 206/206/206 128/128/128
f 206/206/206 126/126/126 207/207/207
f 207/207/207 126/126/126 122/122/122
f 122/122/122 120/120/120 207/207/207
f 208/208/208 207/207/207 120/120/120
f 120/120/120 116/116/116 208/208/208
f 209/209/209 208/208/208 116/116/116
f 116/116/116 210/210/210 209/209/209
f 213/213/213 212/212/212 211/211/211
f 212/212/212 214/214/214 211/211/211
f 211/211/211 215/215/215 213/213/213
f 213/213/213 215/215/215 216/216/216
f 217/217/217 211/211/211 214/214/214
f 211/211/211 218/218/218 215/215/215
f 211/211/211 217/217/217 218/218/218
f 219/219/219 215/215/215 218/218/218
f 220/220/220 218/218/218 217/217/217
f 215/215/215 219/219/219 221/221/221
f 221/221/221 216/216/216 215/215/215
f 222/222/222 221/221/221 219/219/219
f 217/217/217 223/223/223 220/220/220
f 224/224/224 221/221/221 222/222/222
f 216/216/216 221/221/221 224/224/224
f 222/222/222 225/225/225 224/224/224
f 226/226/226 216/216/216 224/224/224
f 224/224/224 225/225/225 227/227/227
f 227/227/227 226/226/226 224/224/224
f 228/228/228 227/227/227 225/225/225
f 226/226/226 227/227/227 229/229/229
f 228/228/228 230/230/230 227/227/227
f 231/231/231 229/229/229 227/227/227
f 231/231/231 227/227/227 230/230/230
f 229/229/229 231/231/231 232/232/232
f 230/230/230 233/233/233 231/231/231
f 234/234/234 232/232/232 231/231/231
f 234/234/234 231/231/231 233/233/233
f 232/232/232 234/234/234 235/235/235
f 236/236/236 234/234/234 233/233/233
f 235/235/235 234/234/234 237/237/237
f 234/234/234 236/236/236 238/238/238
f 238/238/238 237/237/237 234/234/234
f 238/238/238 236/236/236 239/239/239
f 240/240/240 237/237/237 238/238/238
f 238/238/238 239/239/239 240/240/240
f 241/241/241 240/240/240 239/239/239
f 241/241/241 223/223/223 240/240/240
f 237/237/237 240/240/240 242/242/242
f 243/243/243 240/240/240 223/223/223
f 243/243/243 242/242/242 240/240/240
f 223/223/223 217/217/217 243/243/243
f 242/242/242 243/243/243 214/214/214
f 214/214/214 243/243/243 217/217/217
f 246/246/246 245/245/245 244/244/244
f 245/245/245 246/246/246 247/247/247
f 248/248/248 244/244/244 245/245/245
f 244/244/244 248/248/248 249/249/249
f 250/250/250 245/245/245 247/247/247
f 251/251/251 250/250/250 247/247/247
f 248/248/248 245/245/245 252/252/252
f 245/245/245 250/250/250 253/253/253
f 253/253/253 252/252/252 245/245/245
f 254/254/254 253/253/253 250/250/250
f 252/252/252 255/255/255 248/248/248
f 255/255/255 249/249/249 248/248/248
f 252/252/252 256/256/256 255/255/255
f 250/250/250 257/257/257 254/254/254
f 250/250/250 251/251/251 257/257/257
f 258/258/258 254/254/254 257/257/257
f 257/257/257 251/251/251 259/259/259
f 257/257/257 259/259/259 258/258/258
f 260/260/260 259/259/259 251/251/251
f 261/261/261 258/258/258 259/259/259
f 259/259/259 260/260/260 262/262/262
f 259/259/259 263/263/263 261/261/261
f 263/263/263 259/259/259 262/262/262
f 264/264/264 261/261/261 263/263/263
f 263/263/263 262/262/262 265/265/265
f 263/263/263 265/265/265 264/264/264
f 266/266/266 265/265/265 262/262/262
f 267/267/267 264/264/264 265/265/265
f 265/265/265 266/266/266 268/268/268
f 267/267/267 265/265/265 268/268/268
f 269/269/269 268/268/268 266/266/266
f 270/270/270 267/267/267 268/268/268
f 269/269/269 271/271/271 268/268/268
f 270/270/270 268/268/268 272/272/272
f 272/272/272 268/268/268 271/271/271
f 272/272/272 273/273/273 270/270/270
f 272/272/272 271/271/271 273/273/273
f 274/274/274 270/270/270 273/273/273
f 275/275/275 273/273/273 271/271/271
f 273/273/273 276/276/276 274/274/274
f 273/273/273 275/275/275 276/276/276
f 256/256/256 274/274/274 276/276/276
f 277/277/277 276/276/276 275/275/275
f 276/276/276 255/255/255 256/256/256
f 276/276/276 277/277/277 249/249/249
f 255/255/255 276/276/276 249/249/249
f 280/280/280 279/279/279 278/278/278
f 278/278/278 281/281/281 280/280/280
f 280/280/280 281/281/281 282/282/282
f 281/281/281 283/283/283 282/282/282
f 284/284/284 282/282/282 283/283/283
f 283/283/283 285/285/285 284/284/284
f 286/286/286 284/284/284 285/285/285
f 286/286/286 285/285/285 287/287/287
f 285/285/285 288/288/288 287/287/287
f 288/288/288 289/289/289 287/287/287
f 287/287/287 289/289/289 290/290/290
f 290/290/290 289/289/289 291/291/291
f 289/289/289 292/292/292 291/291/291
f 293/293/293 291/291/291 292/292/292
f 294/294/294 291/291/291 293/293/293
f 297/297/297 296/296/296 295/295/295
f 296/296/296 297/297/297 298/298/298
f 299/299/299 298/298/298 297/297/297
f 299/299/299 300/300/300 298/298/298
f 301/301/301 298/298/298 300/300/300
f 300/300/300 303/303/303 302/302/302
f 301/301/301 300/300/300 304/304/304
f 302/302/302 304/304/304 300/300/300
f 301/301/301 304/304/304 305/305/305
f 305/305/305 304/304/304 306/306/306
f 304/304/304 302/302/302 307/307/307
f 306/306/306 304/304/304 307/307/307
f 302/302/302 308/308/308 307/307/307
f 309/309/309 306/306/306 307/307/307
f 308/308/308 310/310/310 307/307/307
f 307/307/307 310/310/310 309/309/309
f 308/308/308 311/311/311 310/310/310
f 312/312/312 309/309/309 310/310/310
f 313/313/313 312/312/312 310/310/310
f 314/314/314 312/312/312 313/313/313
f 315/315/315 312/312/312 314/314/314
f 316/316/316 315/315/315 314/314/314
f 319/319/319 318/318/318 317/317/317
f 317/317/317 320/320/320 319/319/319
f 319/319/319 320/320/320 321/321/321
f 320/320/320 322/322/322 321/321/321
f 323/323/323 321/321/321 322/322/322
f 323/323/323 322/322/322 324/324/324
f 325/325/325 324/324/324 322/322/322
f 325/325/325 326/326/326 324/324/324
f 327/327/327 324/324/324 326/326/326
f 326/326/326 328/328/328 327/327/327
f 327/327/327 328/328/328 329/329/329
f 330/330/330 329/329/329 328/328/328
f 331/331/331 330/330/330 328/328/328
f 332/332/332 330/330/330 331/331/331
f 333/333/333 330/330/330 332/332/332
f 334/334/334 333/333/333 332/332/332
f 337/337/337 336/336/336 335/335/335
f 336/336/336 337/337/337 338/338/338
f 339/339/339 338/338/338 337/337/337
f 339/339/339 340/340/340 338/338/338
f 341/341/341 338/338/338 340/340/340
f 340/340/340 343/343/343 342/342/342
f 341/341/341 340/340/340 344/344/344
f 342/342/342 344/344/344 340/340/340
f 341/341/341 344/344/344 345/345/345
f 342/342/342 346/346/346 344/344/344
f 344/344/344 347/347/347 345/345/345
f 347/347/347 344/344/344 346/346/346
f 348/348/348 345/345/345 347/347/347
f 348/348/348 347/347/347 349/349/349
f 346/346/346 350/350/350 347/347/347
f 347/347/347 350/350/350 349/349/349
f 346/346/346 351/351/351 350/350/350
f 349/349/349 350/350/350 352/352/352
f 353/353/353 352/352/352 350/350/350
f 354/354/354 352/352/352 353/353/353
f 355/355/355 352/352/352 354/354/354
f 356/356/356 355/355/355 354/354/354
f 357/357/357 356/356/356 354/354/354
f 360/360/360 359/359/359 358/358/358
f 358/358/358 359/359/359 361/361/361
f 359/359/359 362/362/362 361/361/361
f 363/363/363 361/361/361 362/362/362
f 362/362/362 364/364/364 363/363/363
f 363/363/363 364/364/364 365/365/365
f 364/364/364 366/366/366 365/365/365
f 365/365/365 366/366/366 367/367/367
f 366/366/366 368/368/368 367/367/367
f 367/367/367 368/368/368 369/369/369
f 370/370/370 369/369/369 368/368/368
f 369/369/369 370/370/370 371/371/371
f 370/370/370 372/372/372 371/371/371
f 371/371/371 372/372/372 373/373/373
f 372/372/372 374/374/374 373/373/373
f 373/373/373 374/374/374 375/375/375
f 374/374/374 376/376/376 375/375/375
f 375/375/375 376/376/376 377/377/377
f 376/376/376 378/378/378 377/377/377
f 377/377/377 378/378/378 379/379/379
f 378/378/378 380/380/380 379/379/379
f 381/381/381 379/379/379 380/380/380
f 384/384/384 383/383/383 382/382/382
f 385/385/385 382/382/382 383/383/383
f 382/382/382 385/385/385 386/386/386
f 387/387/387 386/386/386 385/385/385
f 386/386/386 387/387/387 388/388/388
f 387/387/387 389/389/389 388/388/388
f 388/388/388 389/389/389 390/390/390
f 391/391/391 390/390/390 389/389/389
f 390/390/390 391/391/391 392/392/392
f 390/390/390 392/392/392 393/393/393
f 394/394/394 393/393/393 392/392/392
f 391/391/391 395/395/395 392/392/392
f 391/391/391 396/396/396 395/395/395
f 395/395/395 396/396/396 397/397/397
f 395/395/395 398/398/398 392/392/392
f 392/392/392 398/398/398 399/399/399
f 398/398/398 400/400/400 399/399/399
f 401/401/401 399/399/399 400/400/400
f 402/402/402 401/401/401 400/400/400
f 403/403/403 401/401/401 402/402/402
f 404/404/404 403/403/403 402/402/402
f 405/405/405 404/404/404 402/402/402
f 408/408/408 407/407/407 406/406/406
f 406/406/406 407/407/407 409/409/409
f 410/410/410 409/409/409 407/407/407
f 409/409/409 410/410/410 411/411/411
f 410/410/410 412/412/412 411/411/411
f 411/411/411 412/412/412 413/413/413
f 411/411/411 413/413/413 414/414/414
f 413/413/413 415/415/415 414/414/414
f 416/416/416 413/413/413 412/412/412
f 417/417/417 415/415/415 413/413/413
f 417/417/417 413/413/413 416/416/416
f 415/415/415 417/417/417 418/418/418
f 420/420/420 419/419/419 416/416/416
f 421/421/421 416/416/416 419/419/419
f 421/421/421 417/417/417 416/416/416
f 421/421/421 422/422/422 417/417/417
f 417/417/417 422/422/422 418/418/418
f 422/422/422 423/423/423 418/418/418
f 424/424/424 418/418/418 423/423/423
f 425/425/425 424/424/424 423/423/423
f 426/426/426 424/424/424 425/425/425
f 426/426/426 425/425/425 427/427/427
f 425/425/425 428/428/428 427/427/427
f 431/431/431 430/430/430 429/429/429
f 429/429/429 430/430/430 432/432/432
f 433/433/433 432/432/432 430/430/430
f 433/433/433 434/434/434 432/432/432
f 435/435/435 432/432/432 434/434/434
f 437/437/437 434/434/434 436/436/436
f 435/435/435 434/434/434 438/438/438
f 437/437/437 438/438/438 434/434/434
f 439/439/439 435/435/435 438/438/438
f 437/437/437 440/440/440 438/438/438
f 438/438/438 441/441/441 439/439/439
f 441/441/441 438/438/438 440/440/440
f 442/442/442 439/439/439 441/441/441
f 441/441/441 443/443/443 442/442/442
f 440/440/440 444/444/444 441/441/441
f 441/441/441 444/444/444 443/443/443
f 445/445/445 444/444/444 440/440/440
f 446/446/446 443/443/443 444/444/444
f 447/447/447 446/446/446 444/444/444
f 448/448/448 446/446/446 447/447/447
f 449/449/449 446/446/446 448/448/448
f 449/449/449 448/448/448 450/450/450
f 448/448/448 451/451/451 450/450/450
f 454/454/454 453/453/453 452/452/452
f 455/455/455 454/454/454 452/452/452
f 455/455/455 456/456/456 454/454/454
f 454/454/454 456/456/456 457/457/457
f 457/457/457 456/456/456 458/458/458
f 459/459/459 458/458/458 456/456/456
f 460/460/460 458/458/458 459/459/459
f 461/461/461 458/458/458 460/460/460
f 459/459/459 462/462/462 460/460/460
f 461/461/461 460/460/460 463/463/463
f 460/460/460 462/462/462 464/464/464
f 460/460/460 464/464/464 463/463/463
f 464/464/464 462/462/462 465/465/465
f 463/463/463 464/464/464 466/466/466
f 464/464/464 465/465/465 467/467/467
f 467/467/467 466/466/466 464/464/464
f 467/467/467 468/468/468 466/466/466
f 469/469/469 466/466/466 468/468/468
f 469/469/469 468/468/468 470/470/470
f 471/471/471 470/470/470 468/468/468
f 474/474/474 473/473/473 472/472/472
f 475/475/475 472/472/472 473/473/473
f 476/476/476 472/472/472 475/475/475
f 477/477/477 476/476/476 475/475/475
f 477/477/477 478/478/478 476/476/476
f 479/479/479 476/476/476 478/478/478
f 482/482/482 481/481/481 480/480/480
f 482/482/482 483/483/483 481/481/481
f 484/484/484 480/480/480 481/481/481
f 483/483/483 485/485/485 481/481/481
f 480/480/480 484/484/484 486/486/486
f 485/485/485 483/483/483 487/487/487
f 486/486/486 484/484/484 488/488/488
f 487/487/487 489/489/489 485/485/485
f 490/490/490 486/486/486 488/488/488
f 487/487/487 491/491/491 489/489/489
f 490/490/490 488/488/488 492/492/492
f 491/491/491 493/493/493 489/489/489
f 490/490/490 492/492/492 494/494/494
f 493/493/493 491/491/491 495/495/495
f 495/495/495 494/494/494 492/492/492
f 494/494/494 495/495/495 491/491/491
