mtllib SM_TrashCan_LOD2.mtl
g SM_TrashCan_LOD2
#Vertices 455
#Indices 1626
#Section 0 Offset 0 NumIndices 1626 MaterialIndex 0 MI_Trash_Can
v 0.564252 1.067075 0.107917
v 0.109234 1.067075 0.107917
v 0.564252 1.067075 0.556309
v 0.109234 1.067075 0.556309
v 0.025575 0.000008 0.004762
v 0.025391 0.000003 0.632177
v 0.647921 0.000001 0.005039
v 0.648086 0.000011 0.632434
v 0.638879 0.804976 0.024687
v 0.032481 0.803423 0.024658
v 0.032974 0.804303 0.007511
v 0.639126 0.804601 0.007568
v 0.033092 0.054069 0.007531
v 0.032974 0.804303 0.007511
v 0.032481 0.803423 0.024658
v 0.032657 0.054507 0.024661
v 0.638879 0.804976 0.024687
v 0.639238 0.054055 0.007385
v 0.639923 0.054873 0.024661
v 0.639126 0.804601 0.007568
v 0.639238 0.054055 0.007385
v 0.033092 0.054069 0.007531
v 0.032657 0.054507 0.024661
v 0.639923 0.054873 0.024661
v 0.054954 0.422669 0.021362
v 0.071850 0.395842 0.023044
v 0.090998 0.413586 0.016688
v 0.085443 0.437036 0.023812
v 0.028751 0.811932 0.001906
v 0.029573 0.047859 0.001236
v 0.028535 0.811159 0.022496
v 0.029088 0.048265 0.022931
v 0.031487 0.809388 0.024661
v 0.031487 0.050879 0.024661
v 0.037201 0.803670 0.024661
v 0.037200 0.056552 0.024661
v 0.025391 0.000003 0.632177
v 0.025575 0.000008 0.004762
v 0.018994 0.002249 0.001738
v 0.019205 0.003866 0.636049
v 0.013558 0.024416 0.004567
v 0.016101 0.024672 0.632746
v 0.008284 0.029817 0.002215
v 0.010393 0.027404 0.638383
v 0.001205 0.033572 0.660421
v 0.000000 0.038679 0.007282
v 0.000000 0.038679 0.656945
v 0.000000 0.870929 0.007282
v 0.000000 0.870929 0.656945
v 0.010058 0.896286 0.645892
v 0.009318 0.894656 0.017584
v 0.010648 0.896979 0.543145
v 0.085104 1.053330 0.514738
v 0.096506 1.077090 0.561155
v 0.096506 1.077090 0.103071
v 0.084430 1.052500 0.122047
v 0.011422 0.897906 0.086919
v 0.023973 0.904966 0.527032
v 0.087388 1.040467 0.505973
v 0.021809 0.900345 0.522592
v 0.087378 1.040449 0.130362
v 0.021809 0.900344 0.106658
v 0.023957 0.904932 0.102447
v 0.640878 0.050879 0.024661
v 0.635165 0.803670 0.024661
v 0.635165 0.056594 0.024661
v 0.640878 0.809388 0.024661
v 0.643755 0.049036 0.022667
v 0.643035 0.812165 0.023012
v 0.643410 0.812209 0.001888
v 0.643650 0.048361 0.001946
v 0.640878 0.809388 0.024661
v 0.037201 0.803670 0.024661
v 0.635165 0.803670 0.024661
v 0.031487 0.809388 0.024661
v 0.643035 0.812165 0.023012
v 0.028535 0.811159 0.022496
v 0.028751 0.811932 0.001906
v 0.643410 0.812209 0.001888
v 0.648086 0.000011 0.632434
v 0.654113 0.003117 0.002067
v 0.647921 0.000001 0.005039
v 0.655065 0.002287 0.635292
v 0.660913 0.023904 0.003262
v 0.659240 0.026456 0.639275
v 0.665982 0.030811 0.001937
v 0.661304 0.029842 0.642469
v 0.671888 0.033945 0.661606
v 0.673486 0.038679 0.007282
v 0.673486 0.038679 0.656945
v 0.673486 0.870929 0.656945
v 0.673486 0.870929 0.007282
v 0.663789 0.895452 0.646268
v 0.664503 0.893919 0.017245
v 0.662858 0.896996 0.543297
v 0.588395 1.053302 0.514753
v 0.576981 1.077090 0.561155
v 0.576981 1.077090 0.103071
v 0.589063 1.052475 0.122052
v 0.662075 0.897922 0.086902
v 0.649514 0.904966 0.527032
v 0.586098 1.040467 0.505975
v 0.651677 0.900345 0.522592
v 0.586108 1.040449 0.130361
v 0.651677 0.900344 0.106658
v 0.649530 0.904932 0.102447
v 0.654113 0.003117 0.002067
v 0.025575 0.000008 0.004762
v 0.647921 0.000001 0.005039
v 0.018994 0.002249 0.001738
v 0.660913 0.023904 0.003262
v 0.013558 0.024416 0.004567
v 0.008284 0.029817 0.002215
v 0.665982 0.030811 0.001937
v 0.007282 0.038679 -0.000000
v 0.000000 0.038679 0.007282
v 0.000000 0.870929 0.007282
v 0.666205 0.038679 -0.000000
v 0.673486 0.038679 0.007282
v 0.007282 0.870929 -0.000000
v 0.009318 0.894656 0.017584
v 0.666205 0.870929 -0.000000
v 0.673486 0.870929 0.007282
v 0.664503 0.893919 0.017245
v 0.645497 0.046260 -0.000000
v 0.655222 0.893371 0.008530
v 0.576981 1.077090 0.103071
v 0.569076 1.077074 0.095171
v 0.645497 0.814007 -0.000000
v 0.535317 1.052333 0.083486
v 0.104410 1.077074 0.095171
v 0.643650 0.048361 0.001946
v 0.029573 0.047859 0.001236
v 0.643410 0.812209 0.001888
v 0.026868 0.814007 -0.000000
v 0.028751 0.811932 0.001906
v 0.016897 0.890220 0.007498
v 0.096506 1.077090 0.103071
v 0.566544 0.897422 0.010492
v 0.136849 1.052119 0.083182
v 0.108908 0.898572 0.011743
v 0.548471 0.905008 0.023753
v 0.544071 0.900379 0.021616
v 0.526323 1.040545 0.086265
v 0.128345 0.900379 0.021616
v 0.146292 1.040581 0.086205
v 0.123952 0.905007 0.023753
v 0.062676 0.432502 0.005711
v 0.085443 0.437036 0.023812
v 0.087187 0.433089 0.005705
v 0.054954 0.422669 0.021362
v 0.058182 0.412817 0.005881
v 0.071850 0.395842 0.023044
v 0.084687 0.401252 0.005708
v 0.090998 0.413586 0.016688
v 0.095953 0.417737 0.005692
v 0.085443 0.437036 0.023812
v 0.087187 0.433089 0.005705
v 0.544071 0.900379 0.642610
v 0.128345 0.900379 0.642610
v 0.545369 0.892435 0.624391
v 0.127004 0.892291 0.624435
v 0.421768 0.891873 0.587658
v 0.640539 0.893504 0.631457
v 0.633352 0.892448 0.523777
v 0.651677 0.900344 0.106658
v 0.651677 0.900345 0.522592
v 0.633747 0.892294 0.105130
v 0.612824 0.893578 0.368974
v 0.569820 0.892323 0.181729
v 0.644787 0.892880 0.028458
v 0.545348 0.892286 0.039826
v 0.567039 0.883302 0.434759
v 0.591940 0.882886 0.269043
v 0.440631 0.891776 0.086462
v 0.487673 0.875207 0.168928
v 0.546360 0.870531 0.238639
v 0.565799 0.872331 0.312353
v 0.417543 0.870470 0.122275
v 0.549796 0.869999 0.396348
v 0.491268 0.872385 0.475537
v 0.418830 0.869595 0.535494
v 0.335929 0.873104 0.560418
v 0.191750 0.892902 0.554900
v 0.252755 0.869931 0.539411
v 0.032947 0.893504 0.631454
v 0.172215 0.872384 0.478642
v 0.040136 0.892447 0.523776
v 0.066800 0.891647 0.371245
v 0.119527 0.869946 0.398984
v 0.104558 0.872324 0.312743
v 0.126995 0.870481 0.238551
v 0.021809 0.900344 0.106658
v 0.021809 0.900345 0.522592
v 0.039745 0.892272 0.105127
v 0.096604 0.893020 0.204708
v 0.175840 0.872178 0.173991
v 0.028733 0.892872 0.028517
v 0.256623 0.870390 0.120119
v 0.127115 0.892461 0.039898
v 0.285707 0.893390 0.075895
v 0.336340 0.872324 0.103429
v 0.544071 0.900379 0.021616
v 0.128345 0.900379 0.021616
v 0.643650 0.048361 0.001946
v 0.029088 0.048265 0.022931
v 0.029573 0.047859 0.001236
v 0.643755 0.049036 0.022667
v 0.640878 0.050879 0.024661
v 0.031487 0.050879 0.024661
v 0.037200 0.056552 0.024661
v 0.635165 0.056594 0.024661
v 0.019205 0.003866 0.636049
v 0.648086 0.000011 0.632434
v 0.025391 0.000003 0.632177
v 0.655065 0.002287 0.635292
v 0.010393 0.027404 0.638383
v 0.016101 0.024672 0.632746
v 0.659240 0.026456 0.639275
v 0.019961 0.030214 0.644733
v 0.661304 0.029842 0.642469
v 0.001205 0.033572 0.660421
v 0.671888 0.033945 0.661606
v 0.007282 0.038679 0.664226
v 0.000000 0.038679 0.656945
v 0.666205 0.038679 0.664226
v 0.673486 0.038679 0.656945
v 0.007282 0.870929 0.664226
v 0.673486 0.870929 0.656945
v 0.000000 0.870929 0.656945
v 0.666205 0.870929 0.664226
v 0.655355 0.893358 0.655707
v 0.663789 0.895452 0.646268
v 0.576981 1.077090 0.561155
v 0.569076 1.077074 0.569055
v 0.016803 0.890221 0.656738
v 0.010058 0.896286 0.645892
v 0.096506 1.077090 0.561155
v 0.104410 1.077074 0.569055
v 0.535320 1.052334 0.580740
v 0.566552 0.897423 0.653733
v 0.136846 1.052120 0.581044
v 0.108908 0.898573 0.652483
v 0.548471 0.905008 0.640473
v 0.544071 0.900379 0.642610
v 0.526320 1.040613 0.578001
v 0.128345 0.900379 0.642610
v 0.146308 1.040486 0.577962
v 0.123952 0.905007 0.640473
v 0.548471 0.905008 0.023753
v 0.545348 0.892286 0.039826
v 0.544071 0.900379 0.021616
v 0.527300 1.031804 0.093061
v 0.526323 1.040545 0.086265
v 0.553640 0.898237 0.036329
v 0.644787 0.892880 0.028458
v 0.521390 1.036431 0.095188
v 0.146292 1.040581 0.086205
v 0.530474 1.038682 0.101123
v 0.564252 1.067075 0.107917
v 0.109234 1.067075 0.107917
v 0.151245 1.036431 0.095188
v 0.142168 1.038682 0.101117
v 0.028733 0.892872 0.028517
v 0.145327 1.031805 0.093062
v 0.123952 0.905007 0.023753
v 0.118783 0.898239 0.036321
v 0.127115 0.892461 0.039898
v 0.128345 0.900379 0.021616
v 0.649514 0.904966 0.527032
v 0.633352 0.892448 0.523777
v 0.651677 0.900345 0.522592
v 0.579380 1.031729 0.506935
v 0.586098 1.040467 0.505975
v 0.636947 0.898220 0.532198
v 0.640539 0.893504 0.631457
v 0.642943 0.898187 0.633890
v 0.564252 1.067075 0.556309
v 0.571289 1.038630 0.510162
v 0.564252 1.067075 0.107917
v 0.577225 1.036350 0.501067
v 0.586108 1.040449 0.130361
v 0.571506 1.038540 0.126622
v 0.644787 0.892880 0.028458
v 0.577225 1.036350 0.135320
v 0.579364 1.031763 0.129220
v 0.649530 0.904932 0.102447
v 0.637208 0.898294 0.097283
v 0.633747 0.892294 0.105130
v 0.651677 0.900344 0.106658
v 0.123952 0.905007 0.640473
v 0.127004 0.892291 0.624435
v 0.128345 0.900379 0.642610
v 0.145327 1.031805 0.571165
v 0.146308 1.040486 0.577962
v 0.118786 0.898245 0.627922
v 0.032947 0.893504 0.631454
v 0.030544 0.898187 0.633890
v 0.151245 1.036432 0.569038
v 0.142164 1.038735 0.563135
v 0.109234 1.067075 0.556309
v 0.526320 1.040613 0.578001
v 0.530479 1.038736 0.563129
v 0.564252 1.067075 0.556309
v 0.521390 1.036432 0.569038
v 0.642943 0.898187 0.633890
v 0.527300 1.031804 0.571165
v 0.548471 0.905008 0.640473
v 0.553637 0.898242 0.627914
v 0.640539 0.893504 0.631457
v 0.545369 0.892435 0.624391
v 0.544071 0.900379 0.642610
v 0.023957 0.904932 0.102447
v 0.039745 0.892272 0.105127
v 0.021809 0.900344 0.106658
v 0.094122 1.031763 0.129220
v 0.087378 1.040449 0.130362
v 0.036279 0.898294 0.097283
v 0.028733 0.892872 0.028517
v 0.096261 1.036350 0.135320
v 0.101982 1.038541 0.126620
v 0.109234 1.067075 0.107917
v 0.096261 1.036350 0.501067
v 0.087388 1.040467 0.505973
v 0.102198 1.038630 0.510163
v 0.109234 1.067075 0.556309
v 0.094106 1.031729 0.506935
v 0.023973 0.904966 0.527032
v 0.036540 0.898220 0.532198
v 0.030544 0.898187 0.633890
v 0.032947 0.893504 0.631454
v 0.040136 0.892447 0.523776
v 0.021809 0.900345 0.522592
v 0.336291 0.806550 0.122333
v 0.256623 0.870390 0.120119
v 0.336340 0.872324 0.103429
v 0.262799 0.830458 0.137785
v 0.152792 0.840684 0.222861
v 0.175840 0.872178 0.173991
v 0.126995 0.870481 0.238551
v 0.104558 0.872324 0.312743
v 0.256830 0.763269 0.118866
v 0.336316 0.757880 0.088708
v 0.337249 0.729752 0.066274
v 0.155795 0.791705 0.225611
v 0.117167 0.839515 0.344871
v 0.119527 0.869946 0.398984
v 0.230080 0.728903 0.096847
v 0.337264 0.435241 0.066283
v 0.241848 0.434721 0.090975
v 0.161023 0.433661 0.153755
v 0.129482 0.756830 0.219031
v 0.089113 0.728913 0.222449
v 0.102825 0.434354 0.233772
v 0.085843 0.758295 0.352312
v 0.062617 0.729661 0.311923
v 0.076994 0.434375 0.322253
v 0.119160 0.790752 0.358192
v 0.095398 0.727916 0.441217
v 0.096974 0.434359 0.409149
v 0.155340 0.433656 0.495150
v 0.236377 0.819746 0.509811
v 0.172215 0.872384 0.478642
v 0.252755 0.869931 0.539411
v 0.335929 0.873104 0.560418
v 0.230801 0.756985 0.529727
v 0.237484 0.728978 0.570645
v 0.243955 0.434720 0.564426
v 0.336306 0.757876 0.567541
v 0.336822 0.826782 0.547684
v 0.336517 0.729753 0.605882
v 0.336495 0.435234 0.596181
v 0.429184 0.434775 0.569885
v 0.435518 0.821652 0.513515
v 0.418830 0.869595 0.535494
v 0.491268 0.872385 0.475537
v 0.549796 0.869999 0.396348
v 0.475020 0.729383 0.555158
v 0.509835 0.433656 0.501233
v 0.571633 0.434355 0.408611
v 0.440049 0.756950 0.534327
v 0.558994 0.757138 0.398254
v 0.585801 0.728929 0.407578
v 0.598463 0.433573 0.318893
v 0.549835 0.821142 0.363061
v 0.565799 0.872331 0.312353
v 0.611554 0.729661 0.310609
v 0.565608 0.434355 0.236090
v 0.582126 0.758485 0.277149
v 0.579345 0.728918 0.224704
v 0.514623 0.433662 0.156663
v 0.445377 0.729706 0.097350
v 0.430398 0.434775 0.089893
v 0.337264 0.435241 0.066283
v 0.337249 0.729752 0.066274
v 0.441639 0.756805 0.120559
v 0.336316 0.757880 0.088708
v 0.517205 0.793012 0.229559
v 0.412652 0.790971 0.136228
v 0.336291 0.806550 0.122333
v 0.521326 0.840660 0.231965
v 0.546360 0.870531 0.238639
v 0.487673 0.875207 0.168928
v 0.417543 0.870470 0.122275
v 0.411564 0.840765 0.135714
v 0.336340 0.872324 0.103429
v 0.130492 0.423689 0.454220
v 0.155340 0.433656 0.495150
v 0.096974 0.434359 0.409149
v 0.243955 0.434720 0.564426
v 0.076994 0.434375 0.322253
v 0.298796 0.425132 0.584368
v 0.336495 0.435234 0.596181
v 0.429184 0.434775 0.569885
v 0.132640 0.423614 0.201279
v 0.102825 0.434354 0.233772
v 0.161023 0.433661 0.153755
v 0.424182 0.424790 0.560617
v 0.509835 0.433656 0.501233
v 0.293489 0.425243 0.072572
v 0.241848 0.434721 0.090975
v 0.337264 0.435241 0.066283
v 0.430398 0.434775 0.089893
v 0.477823 0.424114 0.128260
v 0.514623 0.433662 0.156663
v 0.565608 0.434355 0.236090
v 0.598463 0.433573 0.318893
v 0.542054 0.423490 0.444502
v 0.571633 0.434355 0.408611
v 0.576981 1.077090 0.561155
v 0.569076 1.077074 0.569055
v 0.566612 1.083685 0.558721
v 0.576981 1.077090 0.103071
v 0.106874 1.083685 0.558721
v 0.104410 1.077074 0.569055
v 0.096506 1.077090 0.561155
v 0.566612 1.083685 0.105505
v 0.569076 1.077074 0.095171
v 0.104410 1.077074 0.095171
v 0.106874 1.083685 0.105505
v 0.096506 1.077090 0.103071
v 0.084687 0.401252 0.005708
v 0.058182 0.412817 0.005881
v 0.034957 0.056224 0.005689
v 0.637408 0.056224 0.005689
v 0.095953 0.417737 0.005692
v 0.034957 0.418148 0.005689
v 0.062676 0.432502 0.005711
v 0.033092 0.054069 0.007531
v 0.639238 0.054055 0.007385
v 0.032974 0.804303 0.007511
v 0.637408 0.802328 0.005689
v 0.639126 0.804601 0.007568
v 0.087187 0.433089 0.005705
v 0.034957 0.802328 0.005689
vt 0.409912 0.938324
vt 0.302002 0.938324
vt 0.409912 0.832031
vt 0.302002 0.832031
vt 0.313477 0.516357
vt 0.379150 0.516357
vt 0.313477 0.581543
vt 0.379150 0.581543
vt 0.988281 0.012695
vt 0.988281 0.309570
vt 0.979980 0.309570
vt 0.979980 0.012695
vt 0.005844 0.700195
vt 0.374756 0.700195
vt 0.374268 0.708496
vt 0.006420 0.708496
vt 0.009804 0.722412
vt 0.378418 0.713867
vt 0.377930 0.722412
vt 0.009987 0.714111
vt 0.026627 0.684326
vt 0.323975 0.684326
vt 0.324219 0.692871
vt 0.026291 0.692871
vt 0.155518 0.493652
vt 0.163940 0.479980
vt 0.173096 0.489746
vt 0.171143 0.501465
vt 0.384277 0.759277
vt 0.009361 0.759644
vt 0.384033 0.749268
vt 0.009651 0.749023
vt 0.383301 0.747803
vt 0.010788 0.747803
vt 0.380371 0.744873
vt 0.013641 0.744873
vt 0.677246 0.005371
vt 0.968262 0.005371
vt 0.969727 0.007812
vt 0.675781 0.008301
vt 0.968262 0.018066
vt 0.677246 0.018066
vt 0.969238 0.022461
vt 0.674316 0.020996
vt 0.664062 0.025391
vt 0.967285 0.027344
vt 0.666016 0.026855
vt 0.967285 0.412598
vt 0.666016 0.412598
vt 0.670898 0.424805
vt 0.962891 0.423828
vt 0.718750 0.425293
vt 0.731934 0.505371
vt 0.710449 0.517578
vt 0.923340 0.517578
vt 0.914551 0.505127
vt 0.930664 0.425781
vt 0.727051 0.431641
vt 0.736328 0.499512
vt 0.728516 0.430176
vt 0.910156 0.499512
vt 0.920898 0.430176
vt 0.922852 0.431641
vt 0.010658 0.738281
vt 0.380127 0.740967
vt 0.013527 0.740967
vt 0.383057 0.738281
vt 0.009895 0.736816
vt 0.384277 0.737061
vt 0.384277 0.726562
vt 0.009476 0.726562
vt 0.687500 0.685059
vt 0.983887 0.687744
vt 0.689941 0.687744
vt 0.986328 0.685059
vt 0.686523 0.683594
vt 0.987793 0.683350
vt 0.987793 0.673340
vt 0.686035 0.673340
vt 0.992188 0.983536
vt 0.989258 0.690430
vt 0.992188 0.691895
vt 0.989746 0.984856
vt 0.979980 0.691162
vt 0.979004 0.986710
vt 0.976074 0.690430
vt 0.977539 0.988205
vt 0.973633 0.997103
vt 0.972168 0.692871
vt 0.972168 0.994938
vt 0.585938 0.994934
vt 0.585938 0.692871
vt 0.574707 0.990135
vt 0.575684 0.697510
vt 0.573730 0.942383
vt 0.493164 0.929077
vt 0.480957 0.950592
vt 0.480957 0.737305
vt 0.493652 0.746094
vt 0.573242 0.729736
vt 0.567383 0.934021
vt 0.499268 0.924438
vt 0.568848 0.932251
vt 0.499268 0.750488
vt 0.568848 0.739258
vt 0.567383 0.737793
vt 0.328857 0.007812
vt 0.018250 0.005371
vt 0.326172 0.005371
vt 0.015495 0.007324
vt 0.332520 0.018066
vt 0.012428 0.018555
vt 0.009933 0.021484
vt 0.334961 0.021484
vt 0.009575 0.025879
vt 0.004608 0.025391
vt 0.004646 0.437500
vt 0.334961 0.025879
vt 0.339844 0.025391
vt 0.009567 0.437012
vt 0.009171 0.451660
vt 0.334961 0.437012
vt 0.339844 0.437500
vt 0.335449 0.451172
vt 0.324707 0.029297
vt 0.329834 0.448242
vt 0.292236 0.551025
vt 0.287109 0.549072
vt 0.324707 0.408691
vt 0.270508 0.535645
vt 0.057404 0.549072
vt 0.323730 0.030762
vt 0.020462 0.030273
vt 0.323730 0.407715
vt 0.019165 0.408691
vt 0.020264 0.407715
vt 0.014038 0.446777
vt 0.052307 0.551025
vt 0.285889 0.450684
vt 0.073364 0.535400
vt 0.059509 0.451660
vt 0.276123 0.457520
vt 0.274414 0.455566
vt 0.265625 0.529785
vt 0.069641 0.455566
vt 0.078674 0.529785
vt 0.067871 0.457520
vt 0.778809 0.452148
vt 0.767578 0.460938
vt 0.766113 0.451660
vt 0.784668 0.459961
vt 0.789551 0.452148
vt 0.800293 0.460449
vt 0.805664 0.452148
vt 0.813477 0.457520
vt 0.816406 0.452148
vt 0.827148 0.461426
vt 0.825195 0.452148
vt 0.277832 0.764648
vt 0.433838 0.764648
vt 0.277344 0.772095
vt 0.434570 0.772095
vt 0.323486 0.786133
vt 0.240723 0.769409
vt 0.242920 0.810547
vt 0.236572 0.967224
vt 0.235474 0.811157
vt 0.243896 0.967865
vt 0.251221 0.868530
vt 0.267578 0.939423
vt 0.239624 0.997179
vt 0.277344 0.993095
vt 0.268799 0.843750
vt 0.260498 0.906189
vt 0.316406 0.975327
vt 0.298828 0.943817
vt 0.278076 0.917175
vt 0.270752 0.889893
vt 0.325439 0.960175
vt 0.276611 0.858765
vt 0.297607 0.828979
vt 0.325195 0.807739
vt 0.355957 0.798462
vt 0.410889 0.798218
vt 0.386963 0.806396
vt 0.470703 0.769409
vt 0.417236 0.827881
vt 0.468506 0.810547
vt 0.457520 0.867676
vt 0.436035 0.857788
vt 0.441650 0.889709
vt 0.433350 0.917114
vt 0.474609 0.967255
vt 0.475830 0.811157
vt 0.467285 0.967865
vt 0.446289 0.930786
vt 0.415039 0.940643
vt 0.471680 0.997120
vt 0.385010 0.960388
vt 0.434326 0.993015
vt 0.375000 0.979263
vt 0.355713 0.966492
vt 0.277832 1.000526
vt 0.433838 1.000464
vt 0.380371 0.688721
vt 0.682129 0.678467
vt 0.681641 0.689209
vt 0.380371 0.678467
vt 0.381836 0.677002
vt 0.680664 0.677002
vt 0.678223 0.674316
vt 0.384521 0.674316
vt 0.649414 0.008789
vt 0.357910 0.005859
vt 0.646973 0.005859
vt 0.355225 0.007812
vt 0.653809 0.019531
vt 0.652344 0.016602
vt 0.352783 0.019043
vt 0.649414 0.021484
vt 0.351807 0.020508
vt 0.658203 0.028809
vt 0.346924 0.029297
vt 0.655273 0.031250
vt 0.659668 0.030273
vt 0.349854 0.031250
vt 0.345459 0.030273
vt 0.655273 0.416504
vt 0.345215 0.416992
vt 0.659668 0.416992
vt 0.349854 0.416504
vt 0.354248 0.427734
vt 0.348877 0.430664
vt 0.389893 0.523438
vt 0.394775 0.521484
vt 0.651367 0.425781
vt 0.655762 0.431152
vt 0.615234 0.523438
vt 0.610352 0.521484
vt 0.410400 0.508789
vt 0.395508 0.429199
vt 0.595703 0.508545
vt 0.608887 0.430176
vt 0.404541 0.435547
vt 0.406494 0.434082
vt 0.415039 0.503174
vt 0.599121 0.434082
vt 0.590332 0.503174
vt 0.601074 0.435547
vt 0.606445 0.565674
vt 0.597168 0.564209
vt 0.607422 0.562988
vt 0.624512 0.635010
vt 0.627441 0.633789
vt 0.596680 0.566895
vt 0.551270 0.571777
vt 0.628418 0.637451
vt 0.812012 0.633789
vt 0.623535 0.640137
vt 0.608398 0.656006
vt 0.831055 0.656006
vt 0.811035 0.637695
vt 0.815918 0.640381
vt 0.885742 0.570312
vt 0.814941 0.635254
vt 0.831055 0.565430
vt 0.840820 0.566650
vt 0.840332 0.563965
vt 0.830078 0.562988
vt 0.301514 0.565186
vt 0.292725 0.562500
vt 0.302979 0.562988
vt 0.308105 0.636475
vt 0.311279 0.635498
vt 0.292236 0.564941
vt 0.242310 0.561768
vt 0.241699 0.564697
vt 0.283936 0.655762
vt 0.306641 0.641357
vt 0.505859 0.655762
vt 0.311523 0.639160
vt 0.493652 0.634766
vt 0.497070 0.641113
vt 0.550781 0.562988
vt 0.492676 0.638672
vt 0.496338 0.635986
vt 0.506836 0.564453
vt 0.516113 0.564941
vt 0.515625 0.562500
vt 0.505371 0.562012
vt 0.939941 0.619873
vt 0.949219 0.622314
vt 0.938477 0.622314
vt 0.930664 0.548828
vt 0.927734 0.550049
vt 0.949707 0.619629
vt 0.993164 0.619629
vt 0.993652 0.616943
vt 0.927246 0.546387
vt 0.931641 0.543701
vt 0.947266 0.529053
vt 0.743652 0.549561
vt 0.739258 0.543457
vt 0.723145 0.529053
vt 0.744141 0.545654
vt 0.678711 0.618164
vt 0.740723 0.548584
vt 0.733398 0.619873
vt 0.723633 0.619873
vt 0.679688 0.620850
vt 0.724121 0.622559
vt 0.734375 0.622314
vt 0.631836 0.621582
vt 0.641113 0.623779
vt 0.630859 0.624023
vt 0.622070 0.550049
vt 0.619629 0.551025
vt 0.641113 0.621338
vt 0.675781 0.623779
vt 0.618652 0.547363
vt 0.623047 0.544922
vt 0.632324 0.530518
vt 0.437744 0.547607
vt 0.437256 0.551270
vt 0.432861 0.545166
vt 0.410400 0.530518
vt 0.434082 0.550293
vt 0.426270 0.621338
vt 0.416992 0.621338
vt 0.366211 0.620605
vt 0.366699 0.623535
vt 0.417480 0.624023
vt 0.427490 0.623779
vt 0.248291 0.606689
vt 0.235352 0.597168
vt 0.248535 0.596191
vt 0.235352 0.604492
vt 0.211548 0.603516
vt 0.219849 0.597412
vt 0.206909 0.597656
vt 0.194336 0.597656
vt 0.238037 0.616211
vt 0.252441 0.615723
vt 0.255127 0.621826
vt 0.212158 0.611572
vt 0.188843 0.603760
vt 0.180054 0.597412
vt 0.237427 0.624023
vt 0.258545 0.671143
vt 0.242065 0.672363
vt 0.224854 0.673828
vt 0.211670 0.618652
vt 0.208740 0.625488
vt 0.208496 0.674072
vt 0.189209 0.618652
vt 0.195435 0.625488
vt 0.194092 0.674316
vt 0.186890 0.611816
vt 0.176392 0.625732
vt 0.180298 0.674316
vt 0.164551 0.674316
vt 0.152710 0.606934
vt 0.164185 0.597168
vt 0.147339 0.598145
vt 0.132812 0.597900
vt 0.151855 0.617920
vt 0.147827 0.625244
vt 0.147461 0.674072
vt 0.132935 0.618164
vt 0.132812 0.605957
vt 0.132812 0.625488
vt 0.132690 0.674072
vt 0.118347 0.674072
vt 0.113525 0.606689
vt 0.118042 0.598633
vt 0.101868 0.598145
vt 0.085205 0.598389
vt 0.111816 0.625244
vt 0.102356 0.674072
vt 0.085327 0.674072
vt 0.114563 0.617920
vt 0.084717 0.618408
vt 0.084290 0.625244
vt 0.070862 0.674316
vt 0.079468 0.606934
vt 0.071045 0.597900
vt 0.069824 0.625488
vt 0.056915 0.673828
vt 0.064758 0.618896
vt 0.056641 0.625244
vt 0.041412 0.673584
vt 0.028473 0.623779
vt 0.023300 0.672363
vt 0.007301 0.670898
vt 0.010651 0.621826
vt 0.030899 0.618408
vt 0.012955 0.615479
vt 0.053802 0.611328
vt 0.029449 0.610840
vt 0.017197 0.606689
vt 0.055267 0.603516
vt 0.058746 0.597656
vt 0.044098 0.596680
vt 0.030655 0.596924
vt 0.030457 0.602539
vt 0.017166 0.595947
vt 0.458008 0.733154
vt 0.459961 0.727051
vt 0.457520 0.740723
vt 0.458008 0.712158
vt 0.451172 0.750610
vt 0.454346 0.705322
vt 0.452148 0.700195
vt 0.440918 0.694092
vt 0.434570 0.756714
vt 0.440430 0.756836
vt 0.427490 0.759155
vt 0.440430 0.695801
vt 0.426758 0.693115
vt 0.407471 0.754028
vt 0.413818 0.757568
vt 0.402344 0.750854
vt 0.395752 0.739990
vt 0.395264 0.731934
vt 0.393799 0.725830
vt 0.396484 0.713379
vt 0.401367 0.702637
vt 0.418457 0.696045
vt 0.412109 0.696289
vt 0.227783 0.988022
vt 0.223755 0.992012
vt 0.222290 0.986549
vt 0.227783 0.775391
vt 0.009644 0.986549
vt 0.008156 0.992012
vt 0.004158 0.988022
vt 0.222290 0.776978
vt 0.223755 0.771484
vt 0.008156 0.771484
vt 0.009636 0.776978
vt 0.004158 0.775391
vt 0.049286 0.203613
vt 0.036133 0.209473
vt 0.025192 0.035645
vt 0.318359 0.035645
vt 0.054810 0.211914
vt 0.024826 0.211914
vt 0.038361 0.219238
vt 0.023941 0.034668
vt 0.319580 0.034668
vt 0.023987 0.400391
vt 0.318359 0.399414
vt 0.319580 0.400391
vt 0.050507 0.219727
vt 0.025192 0.399414
vt1 0.948730 0.939728
vt1 0.824707 0.939728
vt1 0.948730 0.817749
vt1 0.824707 0.817749
vt1 0.581543 0.954742
vt1 0.581543 0.784058
vt1 0.750977 0.954681
vt1 0.750977 0.784058
vt1 0.862793 0.075195
vt1 0.862793 0.222656
vt1 0.849609 0.222656
vt1 0.849609 0.075195
vt1 0.218384 0.788330
vt1 0.039520 0.788330
vt1 0.039734 0.770874
vt1 0.218140 0.770874
vt1 0.231567 0.619629
vt1 0.039429 0.630615
vt1 0.039642 0.619629
vt1 0.231445 0.630371
vt1 0.851074 0.463379
vt1 0.851562 0.317871
vt1 0.862305 0.317871
vt1 0.862305 0.463379
vt1 0.632812 0.205078
vt1 0.641113 0.201172
vt1 0.642090 0.208496
vt1 0.637695 0.213379
vt1 0.040222 0.559082
vt1 0.238770 0.558594
vt1 0.040466 0.572266
vt1 0.238647 0.572510
vt1 0.040863 0.574219
vt1 0.238037 0.574219
vt1 0.042389 0.577881
vt1 0.236572 0.577881
vt1 0.325439 0.040527
vt1 0.496582 0.040527
vt1 0.497559 0.041992
vt1 0.324219 0.041992
vt1 0.496582 0.047852
vt1 0.325195 0.047852
vt1 0.497314 0.050293
vt1 0.323730 0.049316
vt1 0.317627 0.052246
vt1 0.495850 0.053223
vt1 0.318604 0.053223
vt1 0.495850 0.280273
vt1 0.318604 0.280273
vt1 0.321533 0.287109
vt1 0.493408 0.286621
vt1 0.349609 0.287598
vt1 0.357422 0.334961
vt1 0.344482 0.341797
vt1 0.470215 0.342285
vt1 0.464844 0.334473
vt1 0.474365 0.288086
vt1 0.354492 0.291504
vt1 0.360107 0.331055
vt1 0.355469 0.290527
vt1 0.462158 0.331543
vt1 0.468750 0.290527
vt1 0.469727 0.291504
vt1 0.238037 0.250488
vt1 0.042389 0.247070
vt1 0.236572 0.247070
vt1 0.040863 0.250488
vt1 0.238525 0.252441
vt1 0.040222 0.252441
vt1 0.040161 0.265625
vt1 0.238647 0.265625
vt1 0.921875 0.464844
vt1 0.925293 0.304199
vt1 0.925293 0.463379
vt1 0.921875 0.302734
vt1 0.919922 0.465332
vt1 0.919922 0.301758
vt1 0.906738 0.301758
vt1 0.906738 0.465820
vt1 0.325439 0.773804
vt1 0.497559 0.772095
vt1 0.496582 0.773804
vt1 0.324707 0.772339
vt1 0.497070 0.766602
vt1 0.323486 0.765991
vt1 0.497559 0.764160
vt1 0.322510 0.765137
vt1 0.317383 0.762695
vt1 0.496094 0.761841
vt1 0.318604 0.761963
vt1 0.318604 0.535156
vt1 0.496094 0.535156
vt1 0.321533 0.528564
vt1 0.493408 0.529053
vt1 0.349609 0.528076
vt1 0.357178 0.480957
vt1 0.344482 0.473633
vt1 0.470215 0.473633
vt1 0.464844 0.480957
vt1 0.474365 0.527832
vt1 0.354492 0.524414
vt1 0.360107 0.484375
vt1 0.355469 0.525146
vt1 0.462158 0.484375
vt1 0.468750 0.525146
vt1 0.469727 0.524414
vt1 0.769531 0.494141
vt1 0.770996 0.323242
vt1 0.770996 0.492676
vt1 0.769531 0.321777
vt1 0.763672 0.496094
vt1 0.763672 0.319824
vt1 0.762207 0.318359
vt1 0.761719 0.497559
vt1 0.759766 0.318359
vt1 0.759766 0.315430
vt1 0.533203 0.315430
vt1 0.759766 0.497559
vt1 0.759766 0.500000
vt1 0.533691 0.318359
vt1 0.525391 0.318359
vt1 0.533691 0.497559
vt1 0.533203 0.500000
vt1 0.525879 0.497559
vt1 0.757812 0.491699
vt1 0.527344 0.494629
vt1 0.470215 0.473633
vt1 0.471924 0.471191
vt1 0.548828 0.491699
vt1 0.479492 0.461914
vt1 0.471924 0.344727
vt1 0.756836 0.491211
vt1 0.757324 0.324219
vt1 0.549805 0.491211
vt1 0.548828 0.323730
vt1 0.549805 0.324219
vt1 0.527832 0.320801
vt1 0.470215 0.342285
vt1 0.525879 0.470215
vt1 0.479492 0.353516
vt1 0.525391 0.345703
vt1 0.522461 0.464844
vt1 0.523438 0.463867
vt1 0.482666 0.458984
vt1 0.523438 0.351562
vt1 0.482422 0.356445
vt1 0.522461 0.350586
vt1 0.690918 0.160156
vt1 0.688965 0.167480
vt1 0.688965 0.160156
vt1 0.691895 0.166504
vt1 0.692871 0.160156
vt1 0.694824 0.166992
vt1 0.695801 0.160156
vt1 0.697266 0.164551
vt1 0.697754 0.160156
vt1 0.699707 0.167480
vt1 0.699219 0.160156
vt1 0.750977 0.705322
vt1 0.637695 0.705322
vt1 0.751465 0.699951
vt1 0.637207 0.699951
vt1 0.717773 0.689697
vt1 0.777832 0.701904
vt1 0.776367 0.672119
vt1 0.781250 0.558350
vt1 0.781738 0.671631
vt1 0.775879 0.557861
vt1 0.770508 0.629883
vt1 0.758301 0.578613
vt1 0.778809 0.536621
vt1 0.751465 0.539551
vt1 0.757812 0.647949
vt1 0.763672 0.602783
vt1 0.723145 0.552490
vt1 0.735840 0.575439
vt1 0.750977 0.594727
vt1 0.756348 0.614502
vt1 0.716309 0.563477
vt1 0.751953 0.637207
vt1 0.736816 0.658691
vt1 0.716797 0.674072
vt1 0.694336 0.680908
vt1 0.654785 0.681152
vt1 0.671875 0.675049
vt1 0.611328 0.701904
vt1 0.649902 0.659424
vt1 0.612793 0.672119
vt1 0.620605 0.630615
vt1 0.636230 0.637695
vt1 0.632324 0.614746
vt1 0.638184 0.594727
vt1 0.608398 0.558350
vt1 0.607422 0.671631
vt1 0.613770 0.557861
vt1 0.628906 0.584717
vt1 0.651367 0.577637
vt1 0.610352 0.536621
vt1 0.673340 0.563232
vt1 0.637695 0.539551
vt1 0.680664 0.549561
vt1 0.694824 0.558838
vt1 0.750977 0.534180
vt1 0.637695 0.534180
vt1 0.546875 0.568848
vt1 0.558105 0.733643
vt1 0.546387 0.733398
vt1 0.558105 0.568848
vt1 0.559570 0.569580
vt1 0.559570 0.732910
vt1 0.562988 0.731445
vt1 0.562988 0.571289
vt1 0.042267 0.321777
vt1 0.040710 0.492676
vt1 0.040649 0.323242
vt1 0.041870 0.494141
vt1 0.048462 0.319336
vt1 0.046814 0.319824
vt1 0.048187 0.495605
vt1 0.049835 0.321777
vt1 0.049255 0.496094
vt1 0.054077 0.316895
vt1 0.054352 0.499023
vt1 0.055450 0.318359
vt1 0.054871 0.315918
vt1 0.055450 0.497559
vt1 0.054871 0.500000
vt1 0.281250 0.318359
vt1 0.281494 0.500000
vt1 0.281494 0.315430
vt1 0.281250 0.497559
vt1 0.287598 0.494629
vt1 0.289307 0.498047
vt1 0.344482 0.473633
vt1 0.342773 0.471191
vt1 0.286621 0.320312
vt1 0.289551 0.317871
vt1 0.344482 0.341797
vt1 0.342773 0.344727
vt1 0.335205 0.461914
vt1 0.288574 0.470703
vt1 0.335205 0.353516
vt1 0.289062 0.345703
vt1 0.292236 0.465332
vt1 0.291504 0.464355
vt1 0.332031 0.458984
vt1 0.291504 0.351074
vt1 0.332031 0.356445
vt1 0.292236 0.350098
vt1 0.069702 0.677490
vt1 0.064514 0.676758
vt1 0.070251 0.676025
vt1 0.079651 0.715820
vt1 0.081421 0.715088
vt1 0.064331 0.678223
vt1 0.039185 0.680908
vt1 0.081726 0.717285
vt1 0.183594 0.715332
vt1 0.079102 0.718750
vt1 0.070618 0.727539
vt1 0.194092 0.727539
vt1 0.183105 0.717529
vt1 0.185669 0.718994
vt1 0.224365 0.680176
vt1 0.185181 0.716064
vt1 0.194092 0.677490
vt1 0.199463 0.677979
vt1 0.199219 0.676514
vt1 0.193481 0.676025
vt1 0.908203 0.213379
vt1 0.906738 0.218262
vt1 0.906738 0.212402
vt1 0.947754 0.209473
vt1 0.947266 0.208008
vt1 0.908203 0.218262
vt1 0.906250 0.246094
vt1 0.908203 0.246582
vt1 0.958496 0.222656
vt1 0.950195 0.210449
vt1 0.958496 0.099609
vt1 0.949219 0.207520
vt1 0.946777 0.106934
vt1 0.950195 0.104980
vt1 0.907227 0.074707
vt1 0.948730 0.107422
vt1 0.947754 0.105469
vt1 0.907715 0.099609
vt1 0.908203 0.094238
vt1 0.906738 0.094238
vt1 0.906738 0.100098
vt1 0.540039 0.220215
vt1 0.538574 0.225098
vt1 0.538574 0.219727
vt1 0.579590 0.215332
vt1 0.578613 0.213379
vt1 0.540039 0.225586
vt1 0.540039 0.249512
vt1 0.541504 0.250000
vt1 0.580566 0.213379
vt1 0.582031 0.215820
vt1 0.590332 0.224609
vt1 0.579102 0.111328
vt1 0.582520 0.108887
vt1 0.590332 0.100098
vt1 0.581055 0.111816
vt1 0.541016 0.075684
vt1 0.579590 0.109863
vt1 0.540039 0.105957
vt1 0.540039 0.100098
vt1 0.539551 0.076172
vt1 0.538574 0.100586
vt1 0.538574 0.106445
vt1 0.780273 0.125977
vt1 0.785156 0.127441
vt1 0.779785 0.127441
vt1 0.774902 0.086426
vt1 0.773438 0.086914
vt1 0.785645 0.125977
vt1 0.804688 0.126953
vt1 0.772949 0.084961
vt1 0.775391 0.083496
vt1 0.780762 0.075684
vt1 0.672363 0.084961
vt1 0.672363 0.086914
vt1 0.669922 0.083496
vt1 0.657227 0.075684
vt1 0.670410 0.086426
vt1 0.666016 0.125977
vt1 0.661133 0.125977
vt1 0.632812 0.125488
vt1 0.633301 0.126953
vt1 0.661133 0.127441
vt1 0.666992 0.127441
vt1 0.434814 0.849121
vt1 0.413818 0.833374
vt1 0.435303 0.831909
vt1 0.413574 0.845459
vt1 0.374756 0.844116
vt1 0.388428 0.833862
vt1 0.367188 0.834473
vt1 0.346680 0.834229
vt1 0.418213 0.864990
vt1 0.441895 0.864014
vt1 0.446045 0.874146
vt1 0.375732 0.857178
vt1 0.337646 0.844238
vt1 0.323242 0.833984
vt1 0.417236 0.877502
vt1 0.451660 0.954651
vt1 0.424805 0.956879
vt1 0.396484 0.959045
vt1 0.374756 0.868652
vt1 0.370117 0.879883
vt1 0.369873 0.959595
vt1 0.338135 0.868774
vt1 0.348389 0.879883
vt1 0.345947 0.959961
vt1 0.334473 0.857666
vt1 0.316895 0.880249
vt1 0.323486 0.959961
vt1 0.297607 0.960022
vt1 0.278320 0.849487
vt1 0.297119 0.833740
vt1 0.269531 0.835327
vt1 0.245728 0.834961
vt1 0.276855 0.867432
vt1 0.270264 0.879639
vt1 0.269531 0.959747
vt1 0.245850 0.867798
vt1 0.245605 0.848022
vt1 0.245605 0.880066
vt1 0.245605 0.959686
vt1 0.221924 0.959686
vt1 0.214111 0.849121
vt1 0.221436 0.836060
vt1 0.195068 0.835083
vt1 0.167603 0.835571
vt1 0.211304 0.879395
vt1 0.195801 0.959717
vt1 0.167969 0.959595
vt1 0.215820 0.867432
vt1 0.166870 0.868408
vt1 0.166260 0.879395
vt1 0.144165 0.959839
vt1 0.158203 0.849731
vt1 0.144531 0.834839
vt1 0.142456 0.879761
vt1 0.121277 0.959320
vt1 0.134155 0.869263
vt1 0.120850 0.879395
vt1 0.095886 0.958801
vt1 0.074646 0.877136
vt1 0.066223 0.956696
vt1 0.039978 0.954559
vt1 0.045471 0.874023
vt1 0.078674 0.868286
vt1 0.049255 0.863647
vt1 0.116211 0.856934
vt1 0.076294 0.856201
vt1 0.056213 0.849121
vt1 0.118591 0.844116
vt1 0.124329 0.834229
vt1 0.100281 0.832642
vt1 0.078247 0.833374
vt1 0.077942 0.842285
vt1 0.056183 0.831543
vt1 0.914551 0.565186
vt1 0.902832 0.559570
vt1 0.929688 0.568604
vt1 0.871582 0.559326
vt1 0.948242 0.584473
vt1 0.856934 0.565186
vt1 0.846191 0.567871
vt1 0.830078 0.589355
vt1 0.956055 0.620117
vt1 0.958008 0.607910
vt1 0.958984 0.635010
vt1 0.833984 0.590820
vt1 0.824219 0.617920
vt1 0.942871 0.674316
vt1 0.951660 0.662354
vt1 0.935059 0.683594
vt1 0.910645 0.694336
vt1 0.894043 0.692871
vt1 0.881348 0.693848
vt1 0.856934 0.684814
vt1 0.836426 0.671875
vt1 0.827637 0.635498
vt1 0.826172 0.648438
vt1 0.344482 0.473633
vt1 0.342773 0.471191
vt1 0.345947 0.470215
vt1 0.470215 0.473633
vt1 0.345947 0.345703
vt1 0.342773 0.344727
vt1 0.344482 0.341797
vt1 0.468750 0.470215
vt1 0.471924 0.471191
vt1 0.471924 0.344727
vt1 0.468750 0.345703
vt1 0.470215 0.342285
vt1 0.134521 0.191406
vt1 0.137695 0.198730
vt1 0.040710 0.205078
vt1 0.040741 0.041016
vt1 0.139038 0.188477
vt1 0.139160 0.205078
vt1 0.143066 0.197266
vt1 0.040009 0.205566
vt1 0.040039 0.040527
vt1 0.244385 0.205566
vt1 0.243652 0.041016
vt1 0.244385 0.040527
vt1 0.143311 0.190918
vt1 0.243774 0.205078
vn 0.000000 -1.000000 0.000000
vn 0.000000 -1.000000 0.000000
vn 0.000000 -1.000000 0.000000
vn 0.000000 -1.000000 0.000000
vn 0.000000 -1.000000 0.000000
vn 0.000000 -1.000000 0.000000
vn 0.000000 -1.000000 0.000000
vn 0.000000 -1.000000 0.000000
vn 0.000000 1.000000 -0.000000
vn -0.385827 0.921260 -0.000000
vn -0.385827 0.921260 -0.000000
vn 0.000000 1.000000 -0.000000
vn -1.000000 0.000000 0.000000
vn -1.000000 0.000000 0.000000
vn -1.000000 0.000000 0.000000
vn -1.000000 0.000000 0.000000
vn 0.921260 0.385827 -0.000000
vn 1.000000 0.000000 0.000000
vn 1.000000 0.000000 0.000000
vn 0.921260 0.385827 -0.000000
vn 0.385827 -0.921260 0.000000
vn -0.385827 -0.921260 0.000000
vn -0.385827 -0.921260 0.000000
vn 0.385827 -0.921260 0.000000
vn 0.677165 -0.141732 -0.716535
vn 0.125984 0.598425 -0.795276
vn -0.393701 0.125984 -0.905512
vn -0.291339 -0.543307 -0.787401
vn 0.921260 -0.385827 0.000000
vn 0.921260 0.385827 0.015748
vn 0.858268 -0.346457 -0.385827
vn 0.842520 0.346457 -0.409449
vn 0.496063 -0.133858 -0.858268
vn 0.496063 0.133858 -0.858268
vn 0.000000 -0.000000 -1.000000
vn 0.000000 -0.000000 -1.000000
vn -0.653543 -0.763779 0.000000
vn -0.645669 -0.763779 0.000000
vn -0.866142 -0.503937 0.000000
vn -0.889764 -0.456693 0.000000
vn -0.905512 -0.425197 0.000000
vn -0.889764 -0.448819 0.000000
vn -0.527559 -0.850394 0.000000
vn -0.488189 -0.874016 0.000000
vn -0.811024 -0.582677 0.000000
vn -0.960630 -0.275591 0.000000
vn -0.976378 -0.212598 0.000000
vn -0.992126 0.133858 -0.000000
vn -0.992126 0.133858 -0.000000
vn -0.850394 0.527559 -0.000000
vn -0.850394 0.527559 -0.015748
vn -0.795276 0.582677 -0.181102
vn -0.960630 0.236220 -0.165354
vn -0.905512 0.425197 -0.000000
vn -0.905512 0.425197 -0.000000
vn -0.960630 0.236220 0.157480
vn -0.795276 0.582677 0.188976
vn -0.669291 0.409449 -0.622047
vn -0.929134 -0.220472 -0.283464
vn -0.370079 0.913386 -0.188976
vn -0.921260 -0.196850 0.338583
vn -0.377953 0.905512 0.188976
vn -0.685039 0.385827 0.622047
vn -0.496063 0.133858 -0.858268
vn 0.000000 -0.000000 -1.000000
vn 0.000000 -0.000000 -1.000000
vn -0.496063 -0.133858 -0.858268
vn -0.850394 0.346457 -0.385827
vn -0.842520 -0.346457 -0.409449
vn -0.921260 -0.385827 0.000000
vn -0.921260 0.385827 -0.000000
vn 0.000000 -0.480315 -0.874016
vn 0.000000 -0.000000 -1.000000
vn 0.000000 -0.000000 -1.000000
vn 0.000000 -0.480315 -0.874016
vn 0.000000 -0.913386 -0.409449
vn 0.000000 -0.913386 -0.409449
vn 0.000000 -1.000000 0.000000
vn 0.000000 -1.000000 0.000000
vn 0.653543 -0.763779 0.000000
vn 0.866142 -0.496063 0.000000
vn 0.645669 -0.763779 0.000000
vn 0.881890 -0.464567 0.000000
vn 0.905512 -0.433071 0.000000
vn 0.850394 -0.527559 0.000000
vn 0.488189 -0.874016 0.000000
vn 0.440945 -0.897638 0.000000
vn 0.811024 -0.582677 0.000000
vn 0.960630 -0.275591 0.000000
vn 0.976378 -0.212598 0.000000
vn 0.992126 0.133858 -0.000000
vn 0.992126 0.133858 -0.000000
vn 0.858268 0.511811 0.007874
vn 0.858268 0.511811 -0.015748
vn 0.779528 0.598425 -0.181102
vn 0.960630 0.236220 -0.165354
vn 0.905512 0.425197 -0.000000
vn 0.905512 0.425197 -0.000000
vn 0.960630 0.236220 0.157480
vn 0.779528 0.598425 0.188976
vn 0.669291 0.409449 -0.622047
vn 0.929134 -0.220472 -0.291339
vn 0.370079 0.913386 -0.188976
vn 0.921260 -0.196850 0.338583
vn 0.377953 0.905512 0.188976
vn 0.685039 0.385827 0.622047
vn 0.346457 -0.480315 -0.803149
vn -0.236220 -0.748031 -0.622047
vn 0.236220 -0.755905 -0.614173
vn -0.330709 -0.464567 -0.818897
vn 0.314961 -0.149606 -0.937008
vn -0.322835 -0.173228 -0.929134
vn -0.330709 -0.385827 -0.866142
vn 0.330709 -0.425197 -0.842520
vn -0.425197 -0.188976 -0.881890
vn -0.677165 -0.220472 -0.700787
vn -0.692913 0.220472 -0.692913
vn 0.425197 -0.188976 -0.881890
vn 0.677165 -0.220472 -0.700787
vn -0.393701 0.188976 -0.897638
vn -0.559055 0.622047 -0.551181
vn 0.393701 0.188976 -0.897638
vn 0.692913 0.220472 -0.692913
vn 0.559055 0.622047 -0.551181
vn -0.102362 0.102362 -0.992126
vn 0.291339 0.590551 -0.748031
vn 0.590551 0.551181 -0.590551
vn 0.275591 0.503937 -0.818898
vn -0.102362 -0.102362 -0.992126
vn -0.149606 0.228346 -0.960630
vn -0.275591 0.503937 -0.818898
vn -0.393701 0.346457 -0.850394
vn 0.244094 0.181102 -0.952756
vn -0.314961 -0.409449 -0.858268
vn 0.102362 -0.102362 -0.992126
vn 0.385827 -0.338583 -0.858268
vn -0.299213 0.582677 -0.755905
vn -0.590551 0.551181 -0.590551
vn -0.149606 0.582677 -0.795276
vn 0.149606 0.244094 -0.960630
vn 0.181102 0.582677 -0.787401
vn -0.622047 0.393701 -0.677165
vn -0.188976 0.905512 -0.377953
vn -0.291339 -0.220473 -0.929134
vn 0.188976 0.905512 -0.377953
vn 0.338583 -0.188976 -0.921260
vn 0.622047 0.393701 -0.677165
vn 0.685039 -0.724409 0.000000
vn -0.346457 -0.937008 0.000000
vn -0.535433 -0.842520 0.000000
vn 0.976378 -0.220472 0.000000
vn 0.952756 0.299213 -0.000000
vn 0.196850 0.984252 -0.000000
vn -0.370079 0.929134 -0.000000
vn -0.944882 0.322835 -0.000000
vn -1.000000 0.015748 -0.000000
vn -0.503937 -0.866142 0.000000
vn -0.629921 -0.771653 0.000000
vn 0.000000 0.929134 -0.370079
vn 0.000000 0.929134 -0.370079
vn 0.000000 0.992126 -0.118110
vn 0.000000 0.992126 -0.118110
vn -0.062992 0.960630 -0.259843
vn 0.000000 1.000000 -0.000000
vn -0.118110 0.992126 -0.000000
vn -0.370079 0.929134 -0.000000
vn -0.370079 0.929134 -0.000000
vn -0.125984 0.992126 -0.000000
vn -0.196850 0.984252 -0.031496
vn -0.141732 0.984252 0.070866
vn -0.007874 1.000000 -0.007874
vn 0.000000 0.992126 0.125984
vn -0.385827 0.905512 -0.188976
vn -0.440945 0.889764 0.102362
vn -0.047244 0.984252 0.165354
vn -0.370079 0.803150 0.472441
vn -0.393701 0.889764 0.228346
vn -0.409449 0.913386 0.015748
vn -0.244094 0.732283 0.637795
vn -0.354331 0.921260 -0.141732
vn -0.275591 0.929134 -0.259843
vn -0.173228 0.913386 -0.377953
vn 0.007874 0.818897 -0.574803
vn 0.133858 0.968504 -0.220473
vn 0.188976 0.874016 -0.440945
vn 0.000000 1.000000 -0.000000
vn 0.346457 0.881890 -0.314961
vn 0.118110 0.992126 -0.000000
vn 0.291339 0.952756 -0.055118
vn 0.425197 0.889764 -0.173228
vn 0.440945 0.897638 0.015748
vn 0.401575 0.881890 0.236220
vn 0.370079 0.929134 -0.000000
vn 0.370079 0.929134 -0.000000
vn 0.118110 0.992126 -0.000000
vn 0.212598 0.968504 0.133858
vn 0.393701 0.787401 0.472441
vn -0.007874 1.000000 -0.007874
vn 0.291339 0.685039 0.669291
vn 0.000000 0.992126 0.118110
vn 0.055118 0.960630 0.275590
vn 0.000000 0.771653 0.637795
vn 0.000000 0.929134 0.370079
vn 0.000000 0.929134 0.370079
vn 0.000000 1.000000 -0.000000
vn 0.000000 0.913386 -0.409449
vn 0.000000 1.000000 0.015748
vn 0.000000 0.913386 -0.409449
vn 0.000000 0.480315 -0.874016
vn 0.000000 0.480315 -0.874016
vn 0.000000 -0.000000 -1.000000
vn 0.000000 -0.000000 -1.000000
vn -0.338583 -0.511811 0.787401
vn 0.228346 -0.779527 0.582677
vn -0.228346 -0.779527 0.574803
vn 0.330709 -0.496063 0.803150
vn -0.330709 -0.519685 0.787401
vn -0.614173 -0.480315 0.622047
vn 0.330709 -0.519685 0.787401
vn -0.149606 -0.921260 0.354331
vn 0.165354 -0.921260 0.354331
vn -0.204724 -0.826771 0.519685
vn 0.212598 -0.795275 0.566929
vn -0.370079 -0.322835 0.874016
vn -0.661417 -0.362205 0.661417
vn 0.370079 -0.322835 0.874016
vn 0.661417 -0.362205 0.661417
vn -0.393701 0.188976 0.897638
vn 0.692913 0.220472 0.692913
vn -0.692913 0.220472 0.692913
vn 0.393701 0.188976 0.897638
vn 0.291339 0.590551 0.748031
vn 0.559055 0.622047 0.543307
vn 0.590551 0.551181 0.590551
vn 0.275591 0.503937 0.818897
vn -0.299213 0.582677 0.755905
vn -0.559055 0.622047 0.543307
vn -0.590551 0.551181 0.590551
vn -0.275591 0.503937 0.818897
vn -0.149606 0.228347 0.960630
vn -0.141732 0.582677 0.795275
vn 0.149606 0.244095 0.960630
vn 0.181102 0.582677 0.787401
vn -0.622047 0.393701 0.677165
vn -0.188976 0.905512 0.377953
vn -0.291339 -0.220472 0.929134
vn 0.188976 0.905512 0.377953
vn 0.346457 -0.188976 0.921260
vn 0.622047 0.393701 0.677165
vn -0.952756 0.275591 0.118110
vn -0.511811 0.433071 0.740157
vn -0.716535 0.637795 0.275590
vn -0.787402 -0.535433 0.314961
vn -0.527559 -0.771653 -0.354331
vn -0.133858 0.196850 0.968504
vn 0.086614 0.102362 0.992126
vn -0.236220 -0.968504 0.094488
vn 0.456693 -0.803150 -0.377953
vn -0.070866 -0.448819 0.889764
vn 0.055118 -0.338583 0.937008
vn -0.055118 -0.338583 0.937008
vn 0.228346 -0.968504 0.094488
vn 0.070866 -0.448819 0.889764
vn -0.086614 0.110236 0.992126
vn 0.787402 -0.535433 0.314961
vn 0.952756 0.275591 0.118110
vn 0.133858 0.196850 0.968504
vn 0.511811 0.433071 0.740157
vn 0.716535 0.645669 0.275590
vn -0.118110 0.283464 -0.952756
vn -0.740157 0.440945 -0.503937
vn -0.275591 0.645669 -0.708661
vn -0.314961 -0.527559 -0.787401
vn 0.362205 -0.763779 -0.535433
vn -0.968504 0.196850 -0.149606
vn -0.842520 0.535433 0.055118
vn -0.992126 0.062992 0.070866
vn -0.929134 -0.362205 0.047244
vn -0.889764 -0.448819 -0.078740
vn -0.944882 -0.314961 -0.055118
vn -0.094488 -0.968504 -0.236220
vn 0.377953 -0.811023 0.448819
vn -0.881890 -0.464567 0.055118
vn -0.984252 0.118110 -0.110236
vn -0.094488 -0.968504 0.228347
vn -0.299213 -0.551181 0.771653
vn -0.102362 0.251969 0.960630
vn -0.976378 0.196850 0.110236
vn -0.748031 0.417323 0.519685
vn -0.267717 0.629921 0.724409
vn 0.952756 0.275591 -0.118110
vn 0.503937 0.440945 -0.740157
vn 0.716535 0.645669 -0.275591
vn 0.787402 -0.535433 -0.314961
vn 0.527559 -0.771653 0.354331
vn 0.133858 0.196850 -0.968504
vn -0.062992 0.535433 -0.842520
vn -0.086614 0.070866 -0.992126
vn 0.228346 -0.968504 -0.102362
vn 0.070866 -0.448819 -0.889764
vn -0.055118 -0.338583 -0.937008
vn -0.456693 -0.803149 0.377953
vn -0.070866 -0.448819 -0.889764
vn 0.055118 -0.338583 -0.937008
vn -0.228346 -0.968504 -0.102362
vn 0.086614 0.070866 -0.992126
vn -0.787402 -0.535433 -0.314961
vn -0.952756 0.275591 -0.118110
vn -0.133858 0.196850 -0.968504
vn 0.062992 0.535433 -0.842520
vn -0.511811 0.433071 -0.740157
vn -0.716535 0.645669 -0.275591
vn 0.102362 0.251969 0.960630
vn 0.748031 0.417323 0.519685
vn 0.267717 0.629921 0.724409
vn 0.299213 -0.551181 0.771653
vn -0.377953 -0.811023 0.448819
vn 0.976378 0.196850 0.110236
vn 0.984252 0.118110 -0.110236
vn 0.094488 -0.968504 0.228347
vn 0.881890 -0.464567 0.055118
vn 0.944882 -0.314961 -0.055118
vn 0.094488 -0.968504 -0.236220
vn -0.362205 -0.763779 -0.535433
vn 0.889764 -0.448819 -0.078740
vn 0.929134 -0.362205 0.047244
vn 0.314961 -0.527559 -0.787401
vn 0.118110 0.283464 -0.952756
vn 0.968504 0.196850 -0.149606
vn 0.992126 0.062992 0.070866
vn 0.842520 0.535433 0.055118
vn 0.740157 0.440945 -0.503937
vn 0.275591 0.645669 -0.708661
vn 0.023622 -0.102362 0.992126
vn 0.362205 0.425197 0.826771
vn -0.007874 0.393701 0.921260
vn 0.425197 0.228347 0.874016
vn 0.755906 0.362205 0.543307
vn 0.606299 0.488189 0.629921
vn 0.771654 0.488189 0.401575
vn 0.866142 0.488189 0.047244
vn 0.346457 -0.637795 0.692913
vn 0.007874 -0.629921 0.771653
vn 0.000000 -0.314960 0.944882
vn 0.748031 -0.346457 0.566929
vn 0.937008 0.299213 -0.157480
vn 0.771654 0.543307 -0.330709
vn 0.448819 -0.322835 0.834646
vn 0.000000 0.000000 1.000000
vn 0.440945 0.000000 0.897638
vn 0.685039 0.015748 0.732283
vn 0.614173 -0.653543 0.448819
vn 0.811024 -0.346457 0.464567
vn 0.874016 0.047244 0.480315
vn 0.716535 -0.677165 -0.157480
vn 0.929134 -0.362205 0.039370
vn 1.000000 0.055118 0.015748
vn 0.889764 -0.401575 -0.228346
vn 0.795276 -0.385827 -0.472441
vn 0.921260 0.039370 -0.393701
vn 0.724409 0.031496 -0.685039
vn 0.598425 0.094488 -0.795275
vn 0.653543 0.488189 -0.574803
vn 0.417323 0.354331 -0.842520
vn 0.000000 0.251968 -0.968504
vn 0.440945 -0.622047 -0.645669
vn 0.440945 -0.401575 -0.803149
vn 0.480315 0.031496 -0.874016
vn 0.015748 -0.653543 -0.755905
vn 0.007874 0.110236 -0.992126
vn 0.023622 -0.393701 -0.921260
vn 0.023622 0.031496 -1.000000
vn -0.472441 0.031496 -0.881890
vn -0.574803 0.078740 -0.811023
vn -0.464567 0.196850 -0.866142
vn -0.716535 0.251968 -0.653543
vn -0.866142 0.354331 -0.362205
vn -0.559055 -0.393701 -0.724409
vn -0.748031 0.031496 -0.669291
vn -0.905512 0.039370 -0.417323
vn -0.440945 -0.622047 -0.645669
vn -0.700787 -0.629921 -0.338583
vn -0.842520 -0.362205 -0.385827
vn -1.000000 0.055118 0.039370
vn -0.976378 -0.015748 -0.220472
vn -0.889764 0.448819 0.062992
vn -0.937008 -0.346457 0.047244
vn -0.874016 0.047244 0.488189
vn -0.700787 -0.677165 0.220472
vn -0.818898 -0.330709 0.472441
vn -0.708661 0.015748 0.708661
vn -0.464567 -0.314961 0.826772
vn -0.448819 0.000000 0.897638
vn 0.000000 0.000000 1.000000
vn 0.000000 -0.314960 0.944882
vn -0.417323 -0.598425 0.685039
vn 0.007874 -0.629921 0.771653
vn -0.748031 -0.393701 0.535433
vn -0.409449 -0.417323 0.811024
vn -0.007874 -0.141732 0.992126
vn -0.763780 0.377953 0.519685
vn -0.748031 0.543307 0.385827
vn -0.543307 0.574803 0.606299
vn -0.362205 0.488189 0.795275
vn -0.417323 0.338583 0.842520
vn -0.007874 0.393701 0.921260
vn 0.330709 0.913386 -0.228347
vn 0.503937 0.724409 -0.472441
vn 0.629921 0.732283 -0.259843
vn 0.322835 0.724409 -0.606299
vn 0.551181 0.834646 0.007874
vn 0.102362 0.905512 -0.409449
vn 0.015748 0.732283 -0.677165
vn -0.314961 0.724409 -0.606299
vn 0.330709 0.913386 0.220472
vn 0.614173 0.724409 0.299212
vn 0.496063 0.716535 0.488189
vn -0.188976 0.913386 -0.362205
vn -0.511811 0.724409 -0.456693
vn 0.094488 0.897638 0.425197
vn 0.299213 0.716535 0.629921
vn 0.000000 0.716535 0.700787
vn -0.307087 0.716535 0.629921
vn -0.259843 0.905512 0.322834
vn -0.511811 0.716535 0.464567
vn -0.622047 0.724409 0.307086
vn -0.496063 0.866142 0.023622
vn -0.346457 0.921260 -0.188976
vn -0.629921 0.724409 -0.275591
vn 0.496063 0.850394 0.188976
vn 0.188976 0.850394 0.496063
vn 0.236220 0.944882 0.236220
vn 0.496063 0.850394 -0.188976
vn -0.236220 0.944882 0.236220
vn -0.188976 0.850394 0.496063
vn -0.496063 0.850394 0.188976
vn 0.236220 0.944882 -0.236221
vn 0.188976 0.850394 -0.496063
vn -0.188976 0.850394 -0.496063
vn -0.236220 0.944882 -0.236221
vn -0.496063 0.850394 -0.188976
vn -0.236220 0.251968 -0.937008
vn 0.251969 0.236220 -0.937008
vn -0.338583 -0.338583 -0.874016
vn 0.338583 -0.338583 -0.874016
vn -0.322835 -0.000000 -0.944882
vn -0.385827 -0.000000 -0.921260
vn 0.259843 -0.275591 -0.929134
vn -0.456693 -0.511811 -0.724409
vn 0.559055 -0.385827 -0.740157
vn -0.543307 0.409449 -0.732283
vn 0.338583 0.338583 -0.874016
vn 0.417323 0.551181 -0.724409
vn -0.244094 -0.244095 -0.937008
vn -0.338583 0.338583 -0.874016
tan 0.000000 0.000000 1.000000 1.000000
tan 0.000000 0.000000 1.000000 1.000000
tan 0.000000 0.000000 1.000000 1.000000
tan 0.000000 0.000000 1.000000 1.000000
tan -1.000000 0.000000 0.000000 1.000000
tan -1.000000 0.000000 0.000000 1.000000
tan -1.000000 0.000000 0.000000 1.000000
tan -1.000000 0.000000 0.000000 1.000000
tan 1.000000 0.000000 0.000000 1.000000
tan 0.921260 0.385827 -0.000000 1.000000
tan 0.921260 0.385827 -0.000000 1.000000
tan 1.000000 0.000000 0.000000 1.000000
tan 0.000000 -0.000000 -1.000000 1.000000
tan 0.000000 -0.000000 -1.000000 1.000000
tan 0.000000 -0.000000 -1.000000 1.000000
tan 0.000000 -0.000000 -1.000000 1.000000
tan 0.000000 -0.000000 -0.927336 1.000000
tan 0.000000 -0.000000 -1.000000 1.000000
tan 0.000000 -0.000000 -1.000000 1.000000
tan 0.000000 -0.000000 -0.927336 1.000000
tan 0.000000 -0.000000 -0.927336 1.000000
tan 0.000000 -0.000000 -0.927336 1.000000
tan 0.000000 -0.000000 -0.927336 1.000000
tan 0.000000 -0.000000 -0.927336 1.000000
tan 0.029822 -0.884990 0.203236 1.000000
tan -0.023498 -0.794284 -0.601401 1.000000
tan -0.030504 -0.911712 -0.113584 1.000000
tan 0.016058 -0.806435 0.550499 1.000000
tan 0.012152 0.029016 0.927336 1.000000
tan 0.005518 -0.050778 0.921260 1.000000
tan 0.412797 0.062186 0.862422 1.000000
tan 0.436233 -0.056854 0.849526 1.000000
tan 0.853618 -0.100316 0.509021 1.000000
tan 0.853618 0.100316 0.509021 1.000000
tan 1.000000 0.000000 0.000000 1.000000
tan 1.000000 0.000000 0.000000 1.000000
tan 0.763780 -0.653543 0.000000 1.000000
tan 0.763780 -0.645669 0.000000 1.000000
tan 0.503937 -0.866142 0.000000 1.000000
tan 0.456693 -0.889764 0.000000 1.000000
tan 0.425197 -0.905512 0.000000 1.000000
tan 0.448819 -0.889764 0.000000 1.000000
tan 0.850394 -0.527559 0.000000 1.000000
tan 0.874016 -0.488189 0.000000 1.000000
tan 0.582677 -0.811023 0.000000 1.000000
tan 0.275591 -0.960630 0.000000 1.000000
tan 0.212598 -0.976378 0.000000 1.000000
tan -0.133858 -0.992126 0.000000 1.000000
tan -0.133858 -0.992126 0.000000 1.000000
tan -0.527559 -0.850394 0.000000 1.000000
tan -0.527559 -0.850394 0.000000 1.000000
tan -0.594085 -0.798127 0.040920 1.000000
tan -0.240126 -0.960630 0.022692 1.000000
tan -0.425197 -0.905512 0.000000 1.000000
tan -0.425197 -0.905512 0.000000 1.000000
tan -0.238700 -0.960630 -0.015128 1.000000
tan -0.594581 -0.798251 -0.040920 1.000000
tan -0.622977 -0.770413 0.163184 1.000000
tan 0.211544 -0.933598 0.032736 1.000000
tan -0.912146 -0.386509 -0.081840 1.000000
tan 0.183520 -0.929258 -0.040920 1.000000
tan -0.904334 -0.394321 0.080786 1.000000
tan -0.610019 -0.772521 -0.192634 1.000000
tan 0.853618 -0.100316 -0.509021 1.000000
tan 1.000000 0.000000 0.000000 1.000000
tan 1.000000 0.000000 0.000000 1.000000
tan 0.853618 0.100316 -0.509021 1.000000
tan 0.412797 0.061504 -0.854610 1.000000
tan 0.436233 -0.056854 -0.849526 1.000000
tan 0.018228 -0.043524 -0.927336 1.000000
tan 0.012152 0.029016 -0.927336 1.000000
tan 0.000000 0.874016 -0.480315 1.000000
tan 0.000000 1.000000 -0.000000 1.000000
tan 0.000000 1.000000 -0.000000 1.000000
tan 0.000000 0.874016 -0.480315 1.000000
tan 0.000000 0.409449 -0.913386 1.000000
tan 0.000000 0.409449 -0.913386 1.000000
tan 0.000000 -0.000000 -1.000000 1.000000
tan 0.000000 -0.000000 -1.000000 1.000000
tan 0.000000 -0.000000 -0.965218 1.000000
tan 0.000000 -0.000000 -0.901296 1.000000
tan 0.000000 -0.000000 -0.957840 1.000000
tan 0.000000 -0.000000 -0.900180 1.000000
tan 0.000000 -0.000000 -0.919152 1.000000
tan 0.000000 -0.000000 -0.906008 1.000000
tan 0.000000 -0.000000 -0.881704 1.000000
tan 0.000000 -0.000000 -0.911526 1.000000
tan 0.000000 -0.000000 -0.924918 1.000000
tan 0.000000 -0.000000 -0.967140 1.000000
tan 0.000000 -0.000000 -0.978052 1.000000
tan 0.000000 -0.000000 -0.992126 1.000000
tan 0.000000 -0.000000 -0.992126 1.000000
tan 0.028024 -0.033232 -0.894538 1.000000
tan -0.035898 0.032550 -0.898568 1.000000
tan -0.120714 -0.117428 -0.907620 1.000000
tan -0.161634 -0.015128 -0.960630 1.000000
tan -0.003348 0.007130 -0.941906 1.000000
tan 0.003348 -0.007130 -0.941906 1.000000
tan 0.151900 0.022692 -0.960630 1.000000
tan 0.129704 0.119598 -0.913758 1.000000
tan -0.598983 -0.194060 -0.772211 1.000000
tan -0.311613 -0.095108 -0.921818 1.000000
tan -0.124248 -0.143778 -0.938248 1.000000
tan 0.356067 0.094302 -0.914006 1.000000
tan 0.116188 0.145824 -0.931118 1.000000
tan 0.599913 0.174344 -0.768801 1.000000
tan 0.053196 -0.813193 0.509269 1.000000
tan 0.061876 -0.641329 0.747721 1.000000
tan -0.068820 -0.635377 0.755533 1.000000
tan -0.048980 -0.828073 0.489553 1.000000
tan 0.102114 -0.932110 0.183148 1.000000
tan -0.101060 -0.924360 0.207452 1.000000
tan -0.071982 -0.868746 0.414471 1.000000
tan 0.049600 -0.848906 0.447889 1.000000
tan -0.017856 -0.928514 0.207576 1.000000
tan 0.097898 -0.971914 0.211173 1.000000
tan 0.010664 -0.954802 -0.314464 1.000000
tan 0.017856 -0.928514 0.207576 1.000000
tan -0.097898 -0.971914 0.211173 1.000000
tan 0.081096 -0.927770 -0.230888 1.000000
tan -0.178932 -0.737429 -0.650753 1.000000
tan -0.081096 -0.927770 -0.230888 1.000000
tan -0.010664 -0.954802 -0.314464 1.000000
tan 0.174592 -0.737429 -0.655155 1.000000
tan 0.015624 -0.992126 -0.103974 1.000000
tan -0.032240 -0.758199 -0.611135 1.000000
tan 0.077810 -0.767251 -0.638291 1.000000
tan -0.053072 -0.836320 -0.532519 1.000000
tan -0.015624 -0.992126 0.103974 1.000000
tan 0.022692 -0.960630 -0.231880 1.000000
tan 0.053072 -0.836320 -0.532519 1.000000
tan 0.062496 -0.871598 -0.384029 1.000000
tan -0.045012 -0.952756 -0.192634 1.000000
tan -0.048236 -0.866390 0.431025 1.000000
tan 0.015624 -0.992126 0.103974 1.000000
tan 0.066526 -0.875814 0.375411 1.000000
tan 0.033356 -0.766445 -0.604005 1.000000
tan -0.077810 -0.767251 -0.638291 1.000000
tan 0.015872 -0.797632 -0.587389 1.000000
tan -0.022692 -0.960630 -0.247628 1.000000
tan -0.017236 -0.791680 -0.589807 1.000000
tan 0.185380 -0.766569 -0.615971 1.000000
tan -0.045136 -0.389857 -0.911464 1.000000
tan 0.047368 -0.933722 0.206708 1.000000
tan 0.045136 -0.389857 -0.911464 1.000000
tan -0.077004 -0.929258 0.162316 1.000000
tan -0.185380 -0.766569 -0.615971 1.000000
tan 0.000000 -0.000000 -0.895468 1.000000
tan 0.000000 -0.000000 -0.953376 1.000000
tan 0.000000 -0.000000 -0.934652 1.000000
tan 0.000000 -0.000000 -0.976378 1.000000
tan 0.000000 -0.000000 -0.952756 1.000000
tan 0.000000 -0.000000 -0.984252 1.000000
tan 0.000000 -0.000000 -0.937876 1.000000
tan 0.000000 -0.000000 -0.955050 1.000000
tan 0.000000 -0.000000 -1.000000 1.000000
tan 0.000000 -0.000000 -0.951702 1.000000
tan 0.000000 -0.000000 -0.983074 1.000000
tan 0.000000 0.370079 0.929134 1.000000
tan 0.000000 0.370079 0.929134 1.000000
tan 0.000000 0.118110 0.992126 1.000000
tan 0.000000 0.118110 0.992126 1.000000
tan 0.022692 0.261331 0.960630 1.000000
tan -0.007874 0.000000 1.000000 1.000000
tan -0.023436 -0.002790 0.992126 1.000000
tan 0.007316 0.002914 0.952446 1.000000
tan -0.021948 -0.008742 0.952446 1.000000
tan 0.015624 0.001984 0.992126 1.000000
tan -0.007750 0.029946 0.984252 1.000000
tan 0.000000 -0.070866 0.984252 1.000000
tan 0.015748 0.007998 1.000000 1.000000
tan 0.000000 -0.125984 0.992126 1.000000
tan 0.039804 0.207204 0.911588 1.000000
tan -0.024800 -0.116250 0.903652 1.000000
tan -0.015500 -0.166098 0.984252 1.000000
tan -0.039804 -0.500775 0.820138 1.000000
tan -0.018662 -0.245148 0.923058 1.000000
tan -0.005828 -0.018848 0.941658 1.000000
tan 0.001302 -0.647405 0.743815 1.000000
tan 0.005580 0.147312 0.943580 1.000000
tan 0.038936 0.275033 0.942154 1.000000
tan 0.024056 0.384773 0.918842 1.000000
tan 0.000000 0.574803 0.818897 1.000000
tan -0.030504 0.224689 0.968504 1.000000
tan -0.020460 0.449873 0.882944 1.000000
tan 0.007874 0.000000 1.000000 1.000000
tan -0.032736 0.337033 0.907682 1.000000
tan 0.023436 -0.002790 0.992126 1.000000
tan -0.007502 0.057412 0.952756 1.000000
tan -0.014570 0.188604 0.932978 1.000000
tan 0.005208 -0.019096 0.942650 1.000000
tan 0.022568 -0.256494 0.919214 1.000000
tan -0.007316 0.002914 0.952446 1.000000
tan 0.021948 -0.008742 0.952446 1.000000
tan -0.015624 0.001860 0.992126 1.000000
tan 0.015252 -0.137206 0.968504 1.000000
tan -0.008680 -0.501581 0.843202 1.000000
tan -0.015748 0.007750 1.000000 1.000000
tan -0.025606 -0.677785 0.704879 1.000000
tan 0.000000 -0.118110 0.992126 1.000000
tan 0.015128 -0.276458 0.960630 1.000000
tan 0.000000 -0.637795 0.771653 1.000000
tan 0.000000 -0.370079 0.929134 1.000000
tan 0.000000 -0.370079 0.929134 1.000000
tan 0.000000 0.000000 1.000000 1.000000
tan 0.000000 0.409449 0.913386 1.000000
tan 0.000000 -0.015748 1.000000 1.000000
tan 0.000000 0.409449 0.913386 1.000000
tan 0.000000 0.874016 0.480315 1.000000
tan 0.000000 0.874016 0.480315 1.000000
tan 0.000000 1.000000 -0.000000 1.000000
tan 0.000000 1.000000 -0.000000 1.000000
tan -0.058590 -0.799864 -0.545105 1.000000
tan -0.066030 -0.601463 -0.778783 1.000000
tan 0.072354 -0.595449 -0.778783 1.000000
tan 0.058776 -0.812450 -0.526009 1.000000
tan -0.093248 -0.790626 -0.560977 1.000000
tan -0.078306 -0.745862 -0.653233 1.000000
tan 0.087048 -0.796826 -0.562465 1.000000
tan 0.066960 -0.366111 -0.923616 1.000000
tan -0.087048 -0.367165 -0.914006 1.000000
tan 0.082956 -0.538161 -0.823485 1.000000
tan -0.085002 -0.587575 -0.792361 1.000000
tan -0.077066 -0.898134 -0.364375 1.000000
tan -0.044144 -0.859322 -0.514725 1.000000
tan 0.077066 -0.898134 -0.364375 1.000000
tan 0.033728 -0.859322 -0.504309 1.000000
tan 0.052824 -0.927770 0.218489 1.000000
tan -0.016120 -0.954802 0.319921 1.000000
tan 0.021576 -0.954802 0.325377 1.000000
tan -0.052824 -0.927770 0.218489 1.000000
tan -0.026350 -0.758199 0.608841 1.000000
tan 0.194928 -0.735445 0.641453 1.000000
tan 0.077810 -0.767251 0.638291 1.000000
tan -0.059520 -0.836319 0.534689 1.000000
tan 0.027404 -0.766445 0.601649 1.000000
tan -0.194928 -0.735445 0.641453 1.000000
tan -0.077810 -0.767251 0.638291 1.000000
tan 0.059520 -0.836319 0.534689 1.000000
tan 0.007564 -0.960630 0.229525 1.000000
tan 0.015872 -0.797507 0.587141 1.000000
tan -0.007564 -0.960630 0.245273 1.000000
tan -0.023436 -0.791679 0.591233 1.000000
tan 0.207576 -0.751441 0.627565 1.000000
tan -0.030876 -0.386881 0.911464 1.000000
tan 0.025420 -0.933722 -0.213590 1.000000
tan 0.030876 -0.386881 0.911464 1.000000
tan -0.040734 -0.929444 -0.175336 1.000000
tan -0.207576 -0.751441 0.627565 1.000000
tan -0.296361 -0.801786 -0.519809 1.000000
tan -0.627627 -0.741211 -0.000310 1.000000
tan -0.694463 -0.671833 -0.250790 1.000000
tan 0.139128 -0.626201 -0.716721 1.000000
tan 0.341187 0.150536 -0.835824 1.000000
tan -0.260835 -0.931428 0.153264 1.000000
tan -0.148428 -0.984314 0.114514 1.000000
tan 0.135780 -0.127224 -0.964598 1.000000
tan -0.230640 0.265360 -0.842582 1.000000
tan -0.066526 -0.890322 -0.454399 1.000000
tan -0.054312 -0.937442 -0.335544 1.000000
tan 0.046934 -0.937442 -0.335979 1.000000
tan -0.135780 -0.126108 -0.964474 1.000000
tan 0.066526 -0.890322 -0.454399 1.000000
tan 0.124992 -0.984314 0.120280 1.000000
tan -0.150040 -0.638601 -0.710521 1.000000
tan 0.295741 -0.809288 -0.497303 1.000000
tan 0.237956 -0.939054 0.157976 1.000000
tan 0.619381 -0.751069 0.011160 1.000000
tan 0.697625 -0.674003 -0.234732 1.000000
tan 0.367599 -0.877736 -0.306714 1.000000
tan -0.145824 -0.825098 -0.507781 1.000000
tan 0.125240 -0.702771 -0.689007 1.000000
tan 0.627069 -0.693161 0.213590 1.000000
tan 0.824726 0.135408 0.364747 1.000000
tan -0.177630 -0.962056 -0.115940 1.000000
tan -0.535433 -0.843388 0.008432 1.000000
tan -0.062992 -0.992126 0.000000 1.000000
tan 0.362949 -0.929506 0.011780 1.000000
tan 0.451299 -0.891004 -0.020956 1.000000
tan 0.315395 -0.945316 -0.004960 1.000000
tan 0.956972 -0.130200 0.151032 1.000000
tan 0.845558 0.270630 -0.223014 1.000000
tan 0.466737 -0.882324 0.031062 1.000000
tan -0.120714 -0.984252 0.023250 1.000000
tan 0.964474 -0.126108 -0.135780 1.000000
tan 0.671833 -0.657573 -0.209188 1.000000
tan 0.446277 -0.854734 0.271747 1.000000
tan -0.175522 -0.961870 0.162998 1.000000
tan -0.027280 -0.784301 0.590551 1.000000
tan 0.193936 -0.695889 0.676793 1.000000
tan -0.300701 0.862732 -0.412611 1.000000
tan -0.560233 0.795958 0.092752 1.000000
tan -0.692603 0.698307 -0.164734 1.000000
tan 0.190216 0.673321 -0.669105 1.000000
tan 0.329035 -0.161634 -0.841900 1.000000
tan -0.169322 0.954306 0.170562 1.000000
tan -0.024738 0.843512 0.537913 1.000000
tan -0.046872 0.992126 0.074958 1.000000
tan 0.135656 0.133920 -0.964474 1.000000
tan -0.038502 0.890322 -0.452167 1.000000
tan -0.010044 0.937442 -0.338149 1.000000
tan -0.274909 -0.234237 -0.829934 1.000000
tan 0.031496 0.890322 -0.451609 1.000000
tan 0.002666 0.937442 -0.338583 1.000000
tan -0.158534 0.138508 -0.956848 1.000000
tan 0.031248 0.992126 0.073594 1.000000
tan -0.212784 0.689441 -0.640089 1.000000
tan 0.301011 0.870234 -0.397607 1.000000
tan 0.154070 0.954306 0.172670 1.000000
tan 0.011470 0.843512 0.536921 1.000000
tan 0.544609 0.805753 0.094860 1.000000
tan 0.690433 0.700477 -0.154008 1.000000
tan 0.431149 0.862298 -0.272119 1.000000
tan -0.038750 0.794283 -0.582057 1.000000
tan 0.177568 0.703701 -0.677537 1.000000
tan 0.655341 0.667369 0.222580 1.000000
tan 0.839172 -0.260586 0.235786 1.000000
tan -0.178808 0.969558 -0.147622 1.000000
tan -0.118978 0.984252 -0.007750 1.000000
tan 0.964474 0.127906 0.143406 1.000000
tan 0.466303 0.882324 -0.024118 1.000000
tan 0.315829 0.945316 0.012400 1.000000
tan 0.956972 0.128340 -0.143406 1.000000
tan 0.830740 -0.146692 -0.352719 1.000000
tan 0.451919 0.891004 0.027962 1.000000
tan 0.362205 0.929506 0.002852 1.000000
tan 0.651869 0.674561 -0.191208 1.000000
tan 0.405109 0.862732 0.306900 1.000000
tan -0.174096 0.962056 0.138818 1.000000
tan -0.064108 0.992126 0.015624 1.000000
tan -0.535867 0.843388 -0.001798 1.000000
tan -0.119040 0.813442 0.536921 1.000000
tan 0.152148 0.692851 0.690433 1.000000
tan 0.140616 0.984314 0.098208 1.000000
tan 0.015624 0.846736 -0.442309 1.000000
tan -0.021762 0.921260 -0.393887 1.000000
tan 0.082274 0.880526 -0.270073 1.000000
tan -0.335111 0.880154 -0.120528 1.000000
tan -0.308017 0.872218 -0.379503 1.000000
tan -0.469651 0.845372 -0.125240 1.000000
tan -0.488561 0.866514 0.002976 1.000000
tan 0.158286 0.744745 0.606361 1.000000
tan 0.170004 0.760183 0.618823 1.000000
tan 0.166160 0.930002 0.310000 1.000000
tan 0.351665 0.841962 0.050530 1.000000
tan -0.297973 0.937008 0.007378 1.000000
tan -0.532147 0.821998 0.108748 1.000000
tan 0.093682 0.866948 0.284952 1.000000
tan 0.086614 1.000000 -0.000000 1.000000
tan 0.091884 0.935582 -0.045136 1.000000
tan 0.059148 0.996218 -0.076756 1.000000
tan 0.600471 0.744745 0.262756 1.000000
tan 0.346519 0.895220 0.062682 1.000000
tan -0.031372 0.939674 -0.035340 1.000000
tan 0.678405 0.721495 -0.015686 1.000000
tan 0.362205 0.929444 0.002852 1.000000
tan -0.054994 1.000000 -0.007874 1.000000
tan 0.405171 0.887966 0.017174 1.000000
tan 0.390229 0.852254 -0.039122 1.000000
tan -0.039370 0.952260 0.003100 1.000000
tan -0.018662 0.990204 0.025792 1.000000
tan -0.052452 0.876992 0.064728 1.000000
tan -0.401141 0.864344 0.278008 1.000000
tan -0.074648 0.901544 0.342179 1.000000
tan -0.007626 0.968504 0.251968 1.000000
tan 0.210428 0.757765 -0.586335 1.000000
tan 0.079050 0.884866 -0.399033 1.000000
tan -0.011842 0.935892 0.027218 1.000000
tan 0.005146 0.756029 -0.653543 1.000000
tan -0.007812 0.992126 0.110174 1.000000
tan 0.000000 0.921260 -0.393701 1.000000
tan 0.000000 1.000000 0.031496 1.000000
tan 0.018848 0.942402 0.023560 1.000000
tan 0.008060 0.863476 0.078120 1.000000
tan 0.034100 0.932978 0.193750 1.000000
tan 0.203546 0.965590 0.149110 1.000000
tan 0.351541 0.902102 0.041850 1.000000
tan -0.134292 0.879968 -0.374605 1.000000
tan 0.030814 0.996652 0.012462 1.000000
tan 0.039060 0.937814 0.003720 1.000000
tan -0.210428 0.757765 -0.586335 1.000000
tan -0.615413 0.766693 -0.152644 1.000000
tan -0.365429 0.893608 -0.040920 1.000000
tan 0.055118 1.000000 -0.000000 1.000000
tan -0.017484 0.976378 0.007688 1.000000
tan 0.447331 0.890756 -0.028086 1.000000
tan -0.346457 0.937380 0.002728 1.000000
tan 0.031124 0.944820 -0.035712 1.000000
tan -0.677165 0.718147 0.053320 1.000000
tan -0.331453 0.904706 0.058776 1.000000
tan -0.050220 0.998822 -0.072416 1.000000
tan -0.097340 0.867816 0.275900 1.000000
tan -0.084816 0.940046 -0.042408 1.000000
tan -0.086614 1.000000 -0.000000 1.000000
tan -0.166160 0.930002 0.310000 1.000000
tan -0.172360 0.768615 0.566433 1.000000
tan -0.171120 0.758881 0.621241 1.000000
tan -0.404365 0.820572 0.038440 1.000000
tan -0.141608 0.836940 0.359167 1.000000
tan -0.140616 0.984314 0.139500 1.000000
tan 0.349681 0.870668 -0.119288 1.000000
tan 0.512803 0.821874 -0.163122 1.000000
tan 0.311551 0.804513 -0.483539 1.000000
tan 0.013392 0.823795 -0.499597 1.000000
tan -0.006386 0.894972 -0.362825 1.000000
tan 0.014508 0.921260 -0.393577 1.000000
tan 0.701221 -0.105152 0.594953 1.000000
tan 0.698121 -0.038440 0.685721 1.000000
tan 0.704383 -0.404489 0.567673 1.000000
tan 0.601091 0.325501 0.708971 1.000000
tan 0.768492 -0.510757 0.345837 1.000000
tan 0.469899 0.299027 0.778783 1.000000
tan 0.456755 0.596937 0.656147 1.000000
tan 0.441441 0.674313 0.576353 1.000000
tan 0.697625 -0.396677 0.596937 1.000000
tan 0.573625 -0.673073 0.452105 1.000000
tan 0.503937 -0.693657 0.506045 1.000000
tan 0.583917 0.401389 0.707545 1.000000
tan 0.521793 0.688077 0.506665 1.000000
tan 0.441565 -0.417757 0.783805 1.000000
tan 0.433443 -0.689317 0.578213 1.000000
tan 0.452167 -0.623535 0.637547 1.000000
tan 0.580383 -0.372683 0.706863 1.000000
tan 0.596875 -0.074214 0.688573 1.000000
tan 0.687147 0.047678 0.683489 1.000000
tan 0.704941 0.351913 0.597805 1.000000
tan 0.805320 0.451981 0.339079 1.000000
tan 0.725401 0.388865 0.565813 1.000000
tan 0.578337 0.673011 0.447145 1.000000
tan -0.021576 0.219666 -0.931862 1.000000
tan 0.017856 0.499039 -0.862298 1.000000
tan -0.014880 0.241800 -0.952322 1.000000
tan 0.021576 -0.219667 -0.931862 1.000000
tan 0.014880 0.241800 -0.952322 1.000000
tan -0.017856 0.499039 -0.862298 1.000000
tan 0.021576 0.219666 -0.931862 1.000000
tan 0.014880 -0.241801 -0.952322 1.000000
tan -0.017856 -0.499039 -0.862298 1.000000
tan 0.017856 -0.499039 -0.862298 1.000000
tan -0.014880 -0.241801 -0.952322 1.000000
tan -0.021576 -0.219667 -0.931862 1.000000
tan 0.059024 -0.937008 -0.266848 1.000000
tan -0.059024 -0.937008 -0.252092 1.000000
tan -0.009300 -0.899126 0.351913 1.000000
tan 0.016182 -0.899126 0.354579 1.000000
tan 0.000000 -0.947424 0.000000 1.000000
tan 0.000000 -0.948602 0.000000 1.000000
tan 0.065844 -0.929134 0.294005 1.000000
tan 0.043400 -0.810961 0.545601 1.000000
tan 0.008990 -0.874140 0.462459 1.000000
tan -0.032984 -0.871412 -0.462769 1.000000
tan -0.016182 -0.899126 -0.354579 1.000000
tan 0.060140 -0.796020 -0.571021 1.000000
tan -0.059024 -0.937008 0.259471 1.000000
tan 0.016182 -0.899126 -0.354579 1.000000
f 3/3/3 2/2/2 1/1/1
f 3/3/3 4/4/4 2/2/2
f 7/7/7 6/6/6 5/5/5
f 8/8/8 6/6/6 7/7/7
f 11/11/11 10/10/10 9/9/9
f 12/12/12 11/11/11 9/9/9
f 15/15/15 14/14/14 13/13/13
f 13/13/13 16/16/16 15/15/15
f 19/19/19 18/18/18 17/17/17
f 20/20/20 17/17/17 18/18/18
f 23/23/23 22/22/22 21/21/21
f 24/24/24 23/23/23 21/21/21
f 27/27/27 26/26/26 25/25/25
f 25/25/25 28/28/28 27/27/27
f 31/31/31 30/30/30 29/29/29
f 32/32/32 30/30/30 31/31/31
f 31/31/31 33/33/33 32/32/32
f 34/34/34 32/32/32 33/33/33
f 33/33/33 35/35/35 34/34/34
f 36/36/36 34/34/34 35/35/35
f 39/39/39 38/38/38 37/37/37
f 37/37/37 40/40/40 39/39/39
f 39/39/39 40/40/40 41/41/41
f 40/40/40 42/42/42 41/41/41
f 41/41/41 42/42/42 43/43/43
f 42/42/42 44/44/44 43/43/43
f 45/45/45 43/43/43 44/44/44
f 43/43/43 45/45/45 46/46/46
f 45/45/45 47/47/47 46/46/46
f 46/46/46 47/47/47 48/48/48
f 47/47/47 49/49/49 48/48/48
f 49/49/49 50/50/50 48/48/48
f 51/51/51 48/48/48 50/50/50
f 50/50/50 52/52/52 51/51/51
f 52/52/52 50/50/50 53/53/53
f 54/54/54 53/53/53 50/50/50
f 53/53/53 54/54/54 55/55/55
f 55/55/55 51/51/51 56/56/56
f 56/56/56 53/53/53 55/55/55
f 57/57/57 51/51/51 52/52/52
f 57/57/57 56/56/56 51/51/51
f 52/52/52 53/53/53 58/58/58
f 59/59/59 58/58/58 53/53/53
f 53/53/53 56/56/56 59/59/59
f 58/58/58 60/60/60 52/52/52
f 61/61/61 59/59/59 56/56/56
f 60/60/60 62/62/62 52/52/52
f 57/57/57 52/52/52 62/62/62
f 61/61/61 56/56/56 63/63/63
f 63/63/63 57/57/57 62/62/62
f 57/57/57 63/63/63 56/56/56
f 66/66/66 65/65/65 64/64/64
f 65/65/65 67/67/67 64/64/64
f 64/64/64 67/67/67 68/68/68
f 69/69/69 68/68/68 67/67/67
f 70/70/70 68/68/68 69/69/69
f 71/71/71 68/68/68 70/70/70
f 74/74/74 73/73/73 72/72/72
f 75/75/75 72/72/72 73/73/73
f 72/72/72 75/75/75 76/76/76
f 75/75/75 77/77/77 76/76/76
f 78/78/78 76/76/76 77/77/77
f 76/76/76 78/78/78 79/79/79
f 82/82/82 81/81/81 80/80/80
f 83/83/83 80/80/80 81/81/81
f 81/81/81 84/84/84 83/83/83
f 85/85/85 83/83/83 84/84/84
f 84/84/84 86/86/86 85/85/85
f 87/87/87 85/85/85 86/86/86
f 87/87/87 86/86/86 88/88/88
f 86/86/86 89/89/89 88/88/88
f 90/90/90 88/88/88 89/89/89
f 90/90/90 89/89/89 91/91/91
f 89/89/89 92/92/92 91/91/91
f 91/91/91 92/92/92 93/93/93
f 92/92/92 94/94/94 93/93/93
f 93/93/93 94/94/94 95/95/95
f 95/95/95 96/96/96 93/93/93
f 97/97/97 93/93/93 96/96/96
f 96/96/96 98/98/98 97/97/97
f 98/98/98 99/99/99 94/94/94
f 99/99/99 98/98/98 96/96/96
f 100/100/100 95/95/95 94/94/94
f 100/100/100 94/94/94 99/99/99
f 95/95/95 101/101/101 96/96/96
f 102/102/102 96/96/96 101/101/101
f 102/102/102 99/99/99 96/96/96
f 101/101/101 95/95/95 103/103/103
f 99/99/99 102/102/102 104/104/104
f 103/103/103 95/95/95 105/105/105
f 105/105/105 95/95/95 100/100/100
f 104/104/104 106/106/106 99/99/99
f 106/106/106 105/105/105 100/100/100
f 100/100/100 99/99/99 106/106/106
f 109/109/109 108/108/108 107/107/107
f 108/108/108 110/110/110 107/107/107
f 107/107/107 110/110/110 111/111/111
f 110/110/110 112/112/112 111/111/111
f 112/112/112 113/113/113 111/111/111
f 114/114/114 111/111/111 113/113/113
f 113/113/113 115/115/115 114/114/114
f 115/115/115 113/113/113 116/116/116
f 116/116/116 117/117/117 115/115/115
f 118/118/118 114/114/114 115/115/115
f 119/119/119 114/114/114 118/118/118
f 120/120/120 115/115/115 117/117/117
f 120/120/120 117/117/117 121/121/121
f 119/119/119 118/118/118 122/122/122
f 122/122/122 123/123/123 119/119/119
f 123/123/123 122/122/122 124/124/124
f 118/118/118 115/115/115 125/125/125
f 126/126/126 124/124/124 122/122/122
f 124/124/124 126/126/126 127/127/127
f 128/128/128 127/127/127 126/126/126
f 126/126/126 122/122/122 120/120/120
f 129/129/129 122/122/122 118/118/118
f 122/122/122 129/129/129 120/120/120
f 125/125/125 129/129/129 118/118/118
f 128/128/128 126/126/126 130/130/130
f 128/128/128 130/130/130 131/131/131
f 125/125/125 132/132/132 129/129/129
f 132/132/132 125/125/125 133/133/133
f 133/133/133 125/125/125 115/115/115
f 134/134/134 129/129/129 132/132/132
f 133/133/133 115/115/115 135/135/135
f 129/129/129 134/134/134 135/135/135
f 135/135/135 115/115/115 120/120/120
f 135/135/135 120/120/120 129/129/129
f 136/136/136 135/135/135 134/134/134
f 136/136/136 133/133/133 135/135/135
f 137/137/137 126/126/126 120/120/120
f 121/121/121 137/137/137 120/120/120
f 137/137/137 121/121/121 138/138/138
f 138/138/138 131/131/131 137/137/137
f 126/126/126 137/137/137 139/139/139
f 139/139/139 130/130/130 126/126/126
f 131/131/131 140/140/140 137/137/137
f 140/140/140 131/131/131 130/130/130
f 141/141/141 139/139/139 137/137/137
f 141/141/141 137/137/137 140/140/140
f 139/139/139 142/142/142 130/130/130
f 143/143/143 142/142/142 139/139/139
f 144/144/144 130/130/130 142/142/142
f 144/144/144 140/140/140 130/130/130
f 143/143/143 139/139/139 145/145/145
f 141/141/141 145/145/145 139/139/139
f 140/140/140 144/144/144 146/146/146
f 145/145/145 141/141/141 147/147/147
f 146/146/146 147/147/147 140/140/140
f 141/141/141 140/140/140 147/147/147
f 150/150/150 149/149/149 148/148/148
f 149/149/149 151/151/151 148/148/148
f 148/148/148 151/151/151 152/152/152
f 153/153/153 152/152/152 151/151/151
f 154/154/154 152/152/152 153/153/153
f 155/155/155 154/154/154 153/153/153
f 156/156/156 154/154/154 155/155/155
f 155/155/155 157/157/157 156/156/156
f 158/158/158 156/156/156 157/157/157
f 161/161/161 160/160/160 159/159/159
f 160/160/160 161/161/161 162/162/162
f 161/161/161 163/163/163 162/162/162
f 164/164/164 163/163/163 161/161/161
f 164/164/164 165/165/165 163/163/163
f 165/165/165 167/167/167 166/166/166
f 166/166/166 168/168/168 165/165/165
f 169/169/169 165/165/165 168/168/168
f 169/169/169 163/163/163 165/165/165
f 170/170/170 169/169/169 168/168/168
f 168/168/168 171/171/171 170/170/170
f 171/171/171 172/172/172 170/170/170
f 173/173/173 163/163/163 169/169/169
f 174/174/174 169/169/169 170/170/170
f 174/174/174 173/173/173 169/169/169
f 175/175/175 170/170/170 172/172/172
f 170/170/170 176/176/176 174/174/174
f 176/176/176 170/170/170 175/175/175
f 177/177/177 174/174/174 176/176/176
f 174/174/174 177/177/177 178/178/178
f 175/175/175 179/179/179 176/176/176
f 174/174/174 178/178/178 180/180/180
f 180/180/180 173/173/173 174/174/174
f 181/181/181 173/173/173 180/180/180
f 181/181/181 182/182/182 173/173/173
f 163/163/163 173/173/173 182/182/182
f 182/182/182 183/183/183 163/163/163
f 183/183/183 184/184/184 163/163/163
f 163/163/163 184/184/184 162/162/162
f 185/185/185 184/184/184 183/183/183
f 186/186/186 162/162/162 184/184/184
f 187/187/187 184/184/184 185/185/185
f 184/184/184 188/188/188 186/186/186
f 184/184/184 187/187/187 189/189/189
f 188/188/188 184/184/184 189/189/189
f 190/190/190 189/189/189 187/187/187
f 190/190/190 191/191/191 189/189/189
f 191/191/191 192/192/192 189/189/189
f 194/194/194 188/188/188 193/193/193
f 195/195/195 193/193/193 188/188/188
f 189/189/189 195/195/195 188/188/188
f 192/192/192 196/196/196 189/189/189
f 189/189/189 196/196/196 195/195/195
f 196/196/196 192/192/192 197/197/197
f 198/198/198 195/195/195 196/196/196
f 196/196/196 197/197/197 199/199/199
f 200/200/200 198/198/198 196/196/196
f 201/201/201 196/196/196 199/199/199
f 196/196/196 201/201/201 200/200/200
f 202/202/202 201/201/201 199/199/199
f 201/201/201 202/202/202 179/179/179
f 179/179/179 175/175/175 201/201/201
f 201/201/201 175/175/175 172/172/172
f 201/201/201 172/172/172 200/200/200
f 172/172/172 203/203/203 200/200/200
f 204/204/204 200/200/200 203/203/203
f 207/207/207 206/206/206 205/205/205
f 208/208/208 205/205/205 206/206/206
f 208/208/208 206/206/206 209/209/209
f 206/206/206 210/210/210 209/209/209
f 210/210/210 211/211/211 209/209/209
f 212/212/212 209/209/209 211/211/211
f 215/215/215 214/214/214 213/213/213
f 216/216/216 213/213/213 214/214/214
f 213/213/213 216/216/216 217/217/217
f 218/218/218 213/213/213 217/217/217
f 216/216/216 219/219/219 217/217/217
f 217/217/217 219/219/219 220/220/220
f 219/219/219 221/221/221 220/220/220
f 217/217/217 220/220/220 222/222/222
f 220/220/220 221/221/221 222/222/222
f 223/223/223 222/222/222 221/221/221
f 222/222/222 223/223/223 224/224/224
f 222/222/222 224/224/224 225/225/225
f 223/223/223 226/226/226 224/224/224
f 226/226/226 223/223/223 227/227/227
f 225/225/225 224/224/224 228/228/228
f 224/224/224 226/226/226 228/228/228
f 226/226/226 227/227/227 229/229/229
f 228/228/228 230/230/230 225/225/225
f 229/229/229 231/231/231 226/226/226
f 231/231/231 228/228/228 226/226/226
f 231/231/231 229/229/229 232/232/232
f 231/231/231 232/232/232 228/228/228
f 233/233/233 232/232/232 229/229/229
f 232/232/232 233/233/233 234/234/234
f 234/234/234 235/235/235 232/232/232
f 230/230/230 228/228/228 236/236/236
f 236/236/236 228/228/228 232/232/232
f 236/236/236 237/237/237 230/230/230
f 237/237/237 236/236/236 238/238/238
f 239/239/239 238/238/238 236/236/236
f 235/235/235 240/240/240 232/232/232
f 240/240/240 235/235/235 239/239/239
f 232/232/232 241/241/241 236/236/236
f 241/241/241 232/232/232 240/240/240
f 239/239/239 236/236/236 242/242/242
f 242/242/242 240/240/240 239/239/239
f 243/243/243 236/236/236 241/241/241
f 243/243/243 242/242/242 236/236/236
f 241/241/241 240/240/240 244/244/244
f 245/245/245 241/241/241 244/244/244
f 246/246/246 244/244/244 240/240/240
f 240/240/240 242/242/242 246/246/246
f 245/245/245 247/247/247 241/241/241
f 247/247/247 243/243/243 241/241/241
f 248/248/248 246/246/246 242/242/242
f 247/247/247 249/249/249 243/243/243
f 248/248/248 242/242/242 249/249/249
f 243/243/243 249/249/249 242/242/242
f 252/252/252 251/251/251 250/250/250
f 250/250/250 251/251/251 253/253/253
f 253/253/253 254/254/254 250/250/250
f 251/251/251 255/255/255 253/253/253
f 255/255/255 251/251/251 256/256/256
f 257/257/257 254/254/254 253/253/253
f 254/254/254 257/257/257 258/258/258
f 253/253/253 255/255/255 259/259/259
f 255/255/255 256/256/256 259/259/259
f 259/259/259 257/257/257 253/253/253
f 260/260/260 259/259/259 256/256/256
f 260/260/260 261/261/261 259/259/259
f 262/262/262 258/258/258 257/257/257
f 257/257/257 259/259/259 262/262/262
f 263/263/263 259/259/259 261/261/261
f 263/263/263 262/262/262 259/259/259
f 261/261/261 264/264/264 263/263/263
f 262/262/262 265/265/265 258/258/258
f 265/265/265 262/262/262 263/263/263
f 258/258/258 265/265/265 266/266/266
f 267/267/267 263/263/263 264/264/264
f 265/265/265 263/263/263 267/267/267
f 268/268/268 267/267/267 264/264/264
f 268/268/268 265/265/265 267/267/267
f 268/268/268 266/266/266 265/265/265
f 269/269/269 266/266/266 268/268/268
f 272/272/272 271/271/271 270/270/270
f 270/270/270 271/271/271 273/273/273
f 273/273/273 274/274/274 270/270/270
f 271/271/271 275/275/275 273/273/273
f 275/275/275 271/271/271 276/276/276
f 276/276/276 277/277/277 275/275/275
f 277/277/277 278/278/278 275/275/275
f 279/279/279 275/275/275 278/278/278
f 273/273/273 275/275/275 279/279/279
f 278/278/278 280/280/280 279/279/279
f 273/273/273 281/281/281 274/274/274
f 279/279/279 281/281/281 273/273/273
f 274/274/274 281/281/281 282/282/282
f 283/283/283 279/279/279 280/280/280
f 281/281/281 279/279/279 283/283/283
f 280/280/280 284/284/284 283/283/283
f 285/285/285 282/282/282 281/281/281
f 285/285/285 281/281/281 283/283/283
f 285/285/285 286/286/286 282/282/282
f 283/283/283 286/286/286 285/285/285
f 282/282/282 286/286/286 287/287/287
f 288/288/288 283/283/283 284/284/284
f 286/286/286 283/283/283 288/288/288
f 289/289/289 288/288/288 284/284/284
f 289/289/289 286/286/286 288/288/288
f 289/289/289 287/287/287 286/286/286
f 287/287/287 289/289/289 290/290/290
f 293/293/293 292/292/292 291/291/291
f 291/291/291 292/292/292 294/294/294
f 294/294/294 295/295/295 291/291/291
f 292/292/292 296/296/296 294/294/294
f 296/296/296 292/292/292 297/297/297
f 297/297/297 298/298/298 296/296/296
f 295/295/295 294/294/294 299/299/299
f 296/296/296 298/298/298 300/300/300
f 294/294/294 296/296/296 300/300/300
f 300/300/300 299/299/299 294/294/294
f 301/301/301 300/300/300 298/298/298
f 295/295/295 299/299/299 302/302/302
f 300/300/300 301/301/301 303/303/303
f 303/303/303 301/301/301 304/304/304
f 299/299/299 300/300/300 305/305/305
f 305/305/305 302/302/302 299/299/299
f 303/303/303 305/305/305 300/300/300
f 304/304/304 306/306/306 303/303/303
f 305/305/305 307/307/307 302/302/302
f 303/303/303 307/307/307 305/305/305
f 302/302/302 307/307/307 308/308/308
f 309/309/309 303/303/303 306/306/306
f 307/307/307 303/303/303 309/309/309
f 306/306/306 310/310/310 309/309/309
f 311/311/311 309/309/309 310/310/310
f 311/311/311 307/307/307 309/309/309
f 311/311/311 308/308/308 307/307/307
f 308/308/308 311/311/311 312/312/312
f 315/315/315 314/314/314 313/313/313
f 313/313/313 314/314/314 316/316/316
f 316/316/316 317/317/317 313/313/313
f 314/314/314 318/318/318 316/316/316
f 318/318/318 314/314/314 319/319/319
f 320/320/320 317/317/317 316/316/316
f 318/318/318 319/319/319 321/321/321
f 316/316/316 318/318/318 321/321/321
f 321/321/321 320/320/320 316/316/316
f 322/322/322 321/321/321 319/319/319
f 320/320/320 323/323/323 317/317/317
f 320/320/320 321/321/321 323/323/323
f 324/324/324 317/317/317 323/323/323
f 321/321/321 322/322/322 325/325/325
f 325/325/325 323/323/323 321/321/321
f 326/326/326 325/325/325 322/322/322
f 323/323/323 327/327/327 324/324/324
f 327/327/327 323/323/323 325/325/325
f 324/324/324 327/327/327 328/328/328
f 326/326/326 329/329/329 325/325/325
f 327/327/327 325/325/325 329/329/329
f 326/326/326 330/330/330 329/329/329
f 330/330/330 331/331/331 329/329/329
f 332/332/332 329/329/329 331/331/331
f 332/332/332 327/327/327 329/329/329
f 332/332/332 328/328/328 327/327/327
f 333/333/333 328/328/328 332/332/332
f 336/336/336 335/335/335 334/334/334
f 337/337/337 334/334/334 335/335/335
f 335/335/335 338/338/338 337/337/337
f 338/338/338 335/335/335 339/339/339
f 339/339/339 340/340/340 338/338/338
f 340/340/340 341/341/341 338/338/338
f 342/342/342 334/334/334 337/337/337
f 334/334/334 342/342/342 343/343/343
f 343/343/343 342/342/342 344/344/344
f 345/345/345 337/337/337 338/338/338
f 342/342/342 337/337/337 345/345/345
f 346/346/346 338/338/338 341/341/341
f 338/338/338 346/346/346 345/345/345
f 346/346/346 341/341/341 347/347/347
f 348/348/348 344/344/344 342/342/342
f 344/344/344 348/348/348 349/349/349
f 350/350/350 349/349/349 348/348/348
f 351/351/351 350/350/350 348/348/348
f 348/348/348 342/342/342 352/352/352
f 352/352/352 342/342/342 345/345/345
f 348/348/348 353/353/353 351/351/351
f 353/353/353 348/348/348 352/352/352
f 354/354/354 351/351/351 353/353/353
f 352/352/352 345/345/345 355/355/355
f 353/353/353 352/352/352 355/355/355
f 353/353/353 356/356/356 354/354/354
f 355/355/355 356/356/356 353/353/353
f 357/357/357 354/354/354 356/356/356
f 358/358/358 355/355/355 345/345/345
f 358/358/358 345/345/345 346/346/346
f 359/359/359 357/357/357 356/356/356
f 355/355/355 359/359/359 356/356/356
f 360/360/360 357/357/357 359/359/359
f 361/361/361 360/360/360 359/359/359
f 346/346/346 362/362/362 358/358/358
f 358/358/358 362/362/362 355/355/355
f 347/347/347 362/362/362 346/346/346
f 362/362/362 347/347/347 363/363/363
f 363/363/363 364/364/364 362/362/362
f 362/362/362 364/364/364 365/365/365
f 366/366/366 359/359/359 355/355/355
f 366/366/366 355/355/355 362/362/362
f 359/359/359 367/367/367 361/361/361
f 359/359/359 366/366/366 367/367/367
f 368/368/368 361/361/361 367/367/367
f 366/366/366 362/362/362 369/369/369
f 366/366/366 369/369/369 367/367/367
f 370/370/370 362/362/362 365/365/365
f 370/370/370 369/369/369 362/362/362
f 367/367/367 371/371/371 368/368/368
f 371/371/371 367/367/367 369/369/369
f 372/372/372 368/368/368 371/371/371
f 372/372/372 371/371/371 373/373/373
f 365/365/365 374/374/374 370/370/370
f 370/370/370 374/374/374 369/369/369
f 374/374/374 365/365/365 375/375/375
f 376/376/376 374/374/374 375/375/375
f 374/374/374 376/376/376 377/377/377
f 378/378/378 373/373/373 371/371/371
f 369/369/369 378/378/378 371/371/371
f 373/373/373 378/378/378 379/379/379
f 379/379/379 378/378/378 380/380/380
f 381/381/381 369/369/369 374/374/374
f 381/381/381 378/378/378 369/369/369
f 381/381/381 374/374/374 382/382/382
f 381/381/381 382/382/382 378/378/378
f 383/383/383 380/380/380 378/378/378
f 382/382/382 383/383/383 378/378/378
f 380/380/380 383/383/383 384/384/384
f 385/385/385 382/382/382 374/374/374
f 385/385/385 374/374/374 377/377/377
f 386/386/386 385/385/385 377/377/377
f 387/387/387 384/384/384 383/383/383
f 384/384/384 387/387/387 388/388/388
f 382/382/382 389/389/389 383/383/383
f 387/387/387 383/383/383 389/389/389
f 382/382/382 385/385/385 389/389/389
f 390/390/390 388/388/388 387/387/387
f 389/389/389 390/390/390 387/387/387
f 388/388/388 390/390/390 391/391/391
f 392/392/392 391/391/391 390/390/390
f 389/389/389 392/392/392 390/390/390
f 391/391/391 392/392/392 393/393/393
f 393/393/393 392/392/392 394/394/394
f 395/395/395 394/394/394 392/392/392
f 392/392/392 396/396/396 395/395/395
f 392/392/392 389/389/389 396/396/396
f 397/397/397 395/395/395 396/396/396
f 396/396/396 389/389/389 398/398/398
f 385/385/385 398/398/398 389/389/389
f 396/396/396 399/399/399 397/397/397
f 399/399/399 396/396/396 398/398/398
f 400/400/400 397/397/397 399/399/399
f 401/401/401 398/398/398 385/385/385
f 385/385/385 386/386/386 401/401/401
f 402/402/402 401/401/401 386/386/386
f 403/403/403 401/401/401 402/402/402
f 401/401/401 403/403/403 404/404/404
f 399/399/399 398/398/398 405/405/405
f 401/401/401 405/405/405 398/398/398
f 404/404/404 405/405/405 401/401/401
f 405/405/405 400/400/400 399/399/399
f 405/405/405 404/404/404 406/406/406
f 400/400/400 405/405/405 406/406/406
f 409/409/409 408/408/408 407/407/407
f 408/408/408 410/410/410 407/407/407
f 407/407/407 411/411/411 409/409/409
f 412/412/412 407/407/407 410/410/410
f 413/413/413 412/412/412 410/410/410
f 412/412/412 413/413/413 414/414/414
f 415/415/415 411/411/411 407/407/407
f 407/407/407 412/412/412 415/415/415
f 415/415/415 416/416/416 411/411/411
f 416/416/416 415/415/415 417/417/417
f 414/414/414 418/418/418 412/412/412
f 418/418/418 414/414/414 419/419/419
f 420/420/420 415/415/415 412/412/412
f 415/415/415 420/420/420 417/417/417
f 418/418/418 420/420/420 412/412/412
f 421/421/421 417/417/417 420/420/420
f 420/420/420 422/422/422 421/421/421
f 422/422/422 420/420/420 423/423/423
f 424/424/424 423/423/423 420/420/420
f 424/424/424 420/420/420 418/418/418
f 423/423/423 424/424/424 425/425/425
f 425/425/425 424/424/424 426/426/426
f 427/427/427 426/426/426 424/424/424
f 428/428/428 424/424/424 418/418/418
f 427/427/427 424/424/424 428/428/428
f 419/419/419 428/428/428 418/418/418
f 428/428/428 429/429/429 427/427/427
f 429/429/429 428/428/428 419/419/419
f 432/432/432 431/431/431 430/430/430
f 430/430/430 433/433/433 432/432/432
f 432/432/432 434/434/434 431/431/431
f 434/434/434 435/435/435 431/431/431
f 434/434/434 436/436/436 435/435/435
f 437/437/437 432/432/432 433/433/433
f 432/432/432 437/437/437 434/434/434
f 437/437/437 433/433/433 438/438/438
f 438/438/438 439/439/439 437/437/437
f 436/436/436 434/434/434 440/440/440
f 440/440/440 434/434/434 437/437/437
f 439/439/439 440/440/440 437/437/437
f 440/440/440 441/441/441 436/436/436
f 440/440/440 439/439/439 441/441/441
f 444/444/444 443/443/443 442/442/442
f 444/444/444 442/442/442 445/445/445
f 442/442/442 446/446/446 445/445/445
f 447/447/447 443/443/443 444/444/444
f 443/443/443 447/447/447 448/448/448
f 449/449/449 444/444/444 445/445/445
f 447/447/447 444/444/444 449/449/449
f 450/450/450 449/449/449 445/445/445
f 449/449/449 451/451/451 447/447/447
f 450/450/450 445/445/445 452/452/452
f 445/445/445 446/446/446 452/452/452
f 452/452/452 453/453/453 450/450/450
f 454/454/454 452/452/452 446/446/446
f 455/455/455 451/451/451 453/453/453
f 452/452/452 455/455/455 453/453/453
f 455/455/455 447/447/447 451/451/451
f 454/454/454 455/455/455 452/452/452
f 448/448/448 447/447/447 455/455/455
f 454/454/454 448/448/448 455/455/455
