mtllib SM_Vending_Machine_01_LOD2.mtl
g SM_Vending_Machine_01_LOD2
#Vertices 535
#Indices 1464
#Section 0 Offset 0 NumIndices 6 MaterialIndex 1 MI_Vending_Machine_Screen_01
#Section 1 Offset 6 NumIndices 198 MaterialIndex 2 MI_Decal_Meshes_01
#Section 2 Offset 204 NumIndices 300 MaterialIndex 5 MI_Plastic_Dirty_03
#Section 3 Offset 504 NumIndices 270 MaterialIndex 3 MI_Metal_Rusty_02
#Section 4 Offset 774 NumIndices 246 MaterialIndex 4 MI_Walls_Plastic_02
#Section 5 Offset 1020 NumIndices 120 MaterialIndex 0 MI_Plastic_Dirty_04
#Section 6 Offset 1140 NumIndices 324 MaterialIndex 6 MI_Metal_04
v 0.116933 2.450513 -0.705167
v 0.116933 0.771360 -0.705167
v 1.343813 0.771360 -0.705167
v 1.343813 2.450513 -0.705167
v 0.302299 0.398987 -0.731882
v 0.278813 0.398987 -0.731882
v 0.290983 0.056926 -0.731196
v 1.182878 0.398987 -0.731882
v 1.159392 0.398987 -0.731882
v 1.171562 0.056926 -0.731196
v 0.304135 3.003447 -0.839814
v 0.279582 3.012793 -0.822099
v 0.285724 2.705810 -1.016818
v 0.279196 2.539411 -0.738868
v 0.300436 2.479131 -0.693564
v 0.278813 2.467490 -0.731616
v 1.182902 3.003447 -0.839814
v 1.158350 3.012793 -0.822099
v 1.164492 2.705810 -1.016818
v 1.157964 2.539411 -0.738868
v 1.179204 2.479131 -0.693564
v 1.157580 2.467490 -0.731616
v 0.420246 0.178345 -0.732104
v 1.050848 0.178345 -0.732104
v 1.050848 0.200312 -0.732104
v 0.420246 0.200312 -0.732104
v 0.420246 0.144799 -0.732104
v 1.050848 0.144799 -0.732104
v 1.050848 0.166766 -0.732104
v 0.420246 0.166766 -0.732104
v 0.420246 0.111511 -0.732104
v 1.050848 0.111511 -0.732104
v 1.050848 0.133479 -0.732104
v 0.420246 0.133479 -0.732104
v 0.420246 0.080976 -0.732104
v 1.050848 0.080976 -0.732104
v 1.050848 0.102943 -0.732104
v 0.420246 0.102943 -0.732104
v 0.010664 0.116430 -0.269959
v 0.010664 0.299600 -0.269959
v 0.010664 0.299600 -0.204877
v 0.010664 0.116430 -0.204877
v 0.010664 0.116430 -0.350407
v 0.010664 0.299600 -0.350407
v 0.010663 0.299600 -0.285326
v 0.010663 0.116430 -0.285326
v 0.010664 0.116430 -0.463306
v 0.010664 0.299600 -0.463306
v 0.010664 0.299600 -0.398224
v 0.010664 0.116430 -0.398224
v 0.010663 0.116430 -0.543755
v 0.010663 0.299600 -0.543755
v 0.010663 0.299600 -0.478673
v 0.010663 0.116430 -0.478673
v 0.010664 0.323799 -0.269959
v 0.010664 0.506970 -0.269959
v 0.010664 0.506970 -0.204877
v 0.010664 0.323799 -0.204877
v 0.010664 0.323799 -0.350407
v 0.010664 0.506970 -0.350407
v 0.010663 0.506970 -0.285326
v 0.010663 0.323799 -0.285326
v 0.010664 0.323799 -0.463306
v 0.010664 0.506970 -0.463306
v 0.010664 0.506970 -0.398224
v 0.010664 0.323799 -0.398224
v 0.010663 0.323799 -0.543755
v 0.010663 0.506970 -0.543755
v 0.010663 0.506970 -0.478673
v 0.010663 0.323799 -0.478673
v 1.448793 0.116430 -0.476493
v 1.448793 0.299600 -0.476493
v 1.448793 0.299600 -0.541575
v 1.448793 0.116430 -0.541574
v 1.448793 0.116430 -0.396044
v 1.448793 0.299600 -0.396044
v 1.448794 0.299600 -0.461126
v 1.448794 0.116430 -0.461126
v 1.448793 0.116430 -0.283145
v 1.448793 0.299600 -0.283145
v 1.448793 0.299600 -0.348228
v 1.448793 0.116430 -0.348228
v 1.448794 0.116430 -0.202697
v 1.448794 0.299600 -0.202697
v 1.448793 0.299600 -0.267779
v 1.448793 0.116430 -0.267779
v 1.448793 0.323799 -0.476493
v 1.448793 0.506970 -0.476493
v 1.448793 0.506970 -0.541575
v 1.448793 0.323799 -0.541575
v 1.448793 0.323799 -0.396044
v 1.448793 0.506970 -0.396044
v 1.448794 0.506970 -0.461126
v 1.448794 0.323799 -0.461126
v 1.448793 0.323799 -0.283145
v 1.448793 0.506970 -0.283145
v 1.448793 0.506970 -0.348228
v 1.448793 0.323799 -0.348228
v 1.448794 0.323799 -0.202697
v 1.448794 0.506970 -0.202697
v 1.448793 0.506970 -0.267779
v 1.448793 0.323799 -0.267779
v 1.447619 2.384418 -0.102324
v 1.447620 2.384419 -0.183817
v 1.447621 2.188568 -0.183817
v 1.447618 2.188566 -0.102326
v 0.669877 0.304335 -0.732104
v 0.804755 0.304335 -0.732104
v 0.804755 0.371401 -0.732104
v 0.669877 0.371401 -0.732104
v 1.372040 0.503909 -0.732104
v 1.372040 0.624209 -0.732104
v 1.251901 0.624209 -0.732104
v 1.251901 0.503909 -0.732104
v 0.107357 0.095523 -0.732104
v 0.204425 0.095523 -0.732104
v 0.204425 0.224140 -0.732104
v 0.107357 0.224140 -0.732104
v 0.201844 2.626468 -0.868291
v 0.081706 2.626468 -0.868291
v 0.081706 2.575069 -0.793426
v 0.201844 2.575069 -0.793426
v 1.109992 2.575330 -0.793805
v 0.357047 2.575329 -0.793804
v 0.357047 2.557693 -0.768116
v 1.109992 2.557693 -0.768116
v 1.448793 1.745319 -0.486548
v 1.448793 1.684370 -0.423893
v 1.448793 1.684370 -0.338370
v 1.448793 1.830726 -0.486548
v 1.448793 1.894240 -0.425142
v 1.448793 1.828528 -0.276351
v 1.448793 1.743396 -0.276351
v 1.448793 1.894240 -0.339110
v 0.052692 0.058078 -0.691623
v 0.307819 0.058078 -0.691623
v 0.293889 0.058078 -0.724935
v 0.029923 0.058078 -0.725579
v 0.291189 0.065077 -0.731393
v 0.033025 0.065078 -0.731393
v 0.288788 0.403606 -0.731332
v 0.026025 0.065077 -0.724393
v 0.287626 0.718026 -0.731287
v 0.291189 0.764360 -0.731393
v 0.109972 0.764734 -0.731393
v 0.109971 2.457139 -0.731393
v 0.291189 2.457513 -0.731393
v 0.291189 2.526701 -0.731393
v 0.033025 2.526701 -0.731393
v 0.291189 2.537642 -0.737178
v 0.026025 2.535327 -0.724369
v 0.026025 0.072724 -0.716746
v 0.026025 2.526055 -0.716747
v 0.033025 2.537642 -0.737178
v 0.291189 2.728987 -1.018071
v 0.026025 2.742639 -0.973260
v 0.026025 2.552812 -0.699038
v 0.033025 2.728987 -1.018071
v 0.291189 2.738742 -1.019958
v 0.026025 2.734801 -1.014172
v 0.033025 2.738742 -1.019958
v 0.291189 2.981746 -0.857002
v 0.026025 2.980560 -0.849369
v 0.024876 2.985855 -0.811659
v 0.032150 2.985117 -0.855091
v 0.291189 2.987560 -0.846103
v 0.291189 2.987560 -0.813138
v 1.434721 0.065078 -0.026460
v 1.434721 0.072724 -0.034106
v 1.435549 0.066841 -0.720159
v 1.430824 0.058078 -0.725578
v 1.430824 0.058078 -0.025275
v 1.408064 0.058078 -0.059230
v 1.408064 0.058078 -0.691623
v 0.026025 0.065077 -0.724393
v 0.026025 0.072724 -0.716746
v 0.025029 0.066884 -0.030530
v 0.029923 0.058078 -0.025274
v 0.029923 0.058078 -0.725579
v 0.052692 0.058078 -0.691623
v 0.052692 0.058078 -0.059230
v 1.167625 0.058078 -0.724936
v 1.153679 0.058078 -0.691623
v 1.408064 0.058078 -0.691623
v 1.430824 0.058078 -0.725578
v 1.427721 0.065077 -0.731393
v 1.170328 0.065077 -0.731393
v 1.172692 0.402419 -0.731347
v 1.435549 0.066841 -0.720159
v 1.173572 0.716783 -0.731204
v 1.350775 0.764736 -0.731393
v 1.170328 0.764360 -0.731393
v 1.350775 2.457138 -0.731393
v 1.434721 2.535369 -0.724371
v 1.434721 2.526055 -0.716747
v 1.427721 2.526701 -0.731393
v 1.170328 2.526701 -0.731393
v 1.170328 2.457513 -0.731393
v 1.427721 2.537642 -0.737178
v 1.170328 2.537642 -0.737178
v 1.434721 2.551444 -0.702720
v 1.434721 2.742639 -0.973260
v 1.427721 2.728987 -1.018071
v 1.170328 2.728987 -1.018071
v 1.434721 2.734801 -1.014172
v 1.427721 2.738742 -1.019958
v 1.170328 2.738742 -1.019958
v 1.434721 2.980560 -0.849369
v 1.434299 2.987504 -0.811633
v 1.427919 2.982846 -0.856529
v 1.170328 2.981746 -0.857002
v 1.170328 2.987560 -0.846103
v 1.170328 2.987560 -0.813138
v 1.434721 0.072724 -0.034106
v 1.434721 0.065078 -0.026460
v 1.436556 2.553852 -0.031289
v 1.427721 0.065078 -0.019460
v 1.427721 2.556453 -0.019460
v 1.430824 0.058078 -0.025275
v 0.033025 0.065078 -0.019460
v 0.033025 2.556453 -0.019460
v 0.023646 2.553517 -0.032728
v 0.025029 0.066884 -0.030530
v 0.029923 0.058078 -0.025274
v 0.052692 0.058078 -0.059230
v 1.408064 0.058078 -0.059230
v 0.287626 0.718026 -0.731287
v 1.173572 0.716783 -0.731204
v 1.432161 2.553395 -0.036886
v 1.453746 2.553394 -0.007001
v 1.460836 2.557371 -0.715245
v 1.432161 2.553385 -0.712933
v 1.460694 2.734039 -0.974468
v 1.432161 2.735349 -0.979955
v 1.453746 2.741181 -0.976429
v 1.432161 2.982845 -0.817449
v 1.460991 3.025169 -0.784644
v -0.000175 3.021270 -0.790743
v 0.007000 3.025111 -0.782643
v 0.026601 2.982845 -0.817449
v 0.007000 2.741181 -0.976429
v 0.026586 2.733894 -0.979025
v 0.000082 2.734399 -0.973583
v -0.000081 2.557483 -0.716468
v 0.026601 2.553023 -0.710822
v 0.026601 2.553395 -0.036886
v 0.007000 2.553394 -0.007001
v 0.288788 0.403606 -0.731332
v 1.172692 0.402419 -0.731347
v 0.000082 2.734399 -0.973583
v 0.007000 2.741181 -0.976429
v -0.000175 3.021270 -0.790743
v -0.000081 2.557483 -0.716468
v 0.000000 3.018111 -0.007001
v 0.007000 3.025111 -0.782643
v 0.007000 3.025111 -0.007001
v 0.000000 2.560394 -0.007001
v 0.007000 2.553394 -0.007001
v 0.007000 3.018111 -0.000001
v 1.454622 3.025276 -0.000327
v 0.007000 2.560393 -0.000000
v 1.453746 2.553394 -0.007001
v 0.026601 2.553395 -0.036886
v 1.432161 2.553395 -0.036886
v 1.453746 2.560393 -0.000000
v 1.460746 2.560394 -0.007001
v 1.460836 2.557371 -0.715245
v 1.460746 3.018111 -0.007001
v 1.460991 3.025169 -0.784644
v 1.460694 2.734039 -0.974468
v 1.453746 2.741181 -0.976429
v 1.447458 0.563498 -0.717636
v 1.434180 0.563096 -0.726137
v 1.434175 0.553744 -0.718536
v 1.435715 2.021735 -0.726834
v 1.447458 0.563498 -0.033217
v 1.435715 0.558217 -0.024019
v 1.447458 2.016454 -0.717636
v 1.434175 2.026208 -0.032317
v 1.447458 2.016454 -0.033217
v 1.434180 2.016856 -0.024716
v 0.013029 0.563498 -0.033217
v 0.026307 0.563096 -0.024716
v 0.026312 0.553744 -0.032317
v 0.024772 2.021735 -0.024019
v 0.013029 0.563498 -0.717636
v 0.024772 0.558217 -0.726834
v 0.013029 2.016454 -0.033217
v 0.026312 2.026208 -0.718536
v 0.013029 2.016454 -0.717636
v 0.026307 2.016856 -0.726137
v 0.007000 3.103806 -0.782643
v 1.453746 3.103806 -0.782643
v 1.453746 3.103806 -0.007000
v 0.007000 3.103806 -0.007000
v 0.054041 0.000000 -0.047721
v 0.051780 0.058030 -0.048912
v 1.401122 0.058078 -0.048010
v 1.401122 0.000000 -0.048010
v 1.408122 0.058078 -0.055010
v 1.408122 0.000000 -0.055010
v 1.408122 0.058078 -0.695843
v 1.408122 -0.000000 -0.695843
v 1.401122 0.058078 -0.702842
v 1.401122 -0.000000 -0.702842
v 0.059636 0.058078 -0.702842
v 0.059636 -0.000000 -0.702842
v 0.052636 0.058078 -0.695843
v 0.052636 -0.000000 -0.695843
v 0.051780 0.058030 -0.048912
v 0.054041 0.000000 -0.047721
v 0.298189 0.545632 -0.411345
v 0.298189 0.887122 -0.546976
v 0.292972 0.894893 -0.553212
v 0.291785 0.536578 -0.411022
v 0.293181 0.715317 -0.725959
v 0.295000 0.370458 -0.555011
v 0.298189 0.375003 -0.544787
v 0.291752 0.406083 -0.726519
v 0.287626 0.718026 -0.731287
v 0.288788 0.403606 -0.731332
v 1.167866 0.893669 -0.554307
v 1.163328 0.887122 -0.546976
v 1.163328 0.545632 -0.411345
v 1.168811 0.535751 -0.411035
v 1.168842 0.715156 -0.726594
v 1.163328 0.375003 -0.544787
v 1.167176 0.370161 -0.554477
v 1.169574 0.406069 -0.726048
v 1.173572 0.716783 -0.731204
v 1.172692 0.402419 -0.731347
v 0.288788 0.403606 -0.731332
v 1.172692 0.402419 -0.731347
v 1.169574 0.406069 -0.726048
v 0.291752 0.406083 -0.726519
v 0.295000 0.370458 -0.555011
v 1.167176 0.370161 -0.554477
v 1.163328 0.375003 -0.544787
v 0.298189 0.375003 -0.544787
v 1.168811 0.535751 -0.411035
v 0.291785 0.536578 -0.411022
v 1.163328 0.545632 -0.411345
v 0.298189 0.545632 -0.411345
v 0.298189 0.887122 -0.546976
v 1.163328 0.887122 -0.546976
v 1.167866 0.893669 -0.554307
v 0.292972 0.894893 -0.553212
v 0.293181 0.715317 -0.725959
v 1.168842 0.715156 -0.726594
v 1.173572 0.716783 -0.731204
v 0.287626 0.718026 -0.731287
v 1.453746 3.103806 -0.782643
v 0.007000 3.103806 -0.782643
v 0.002738 3.099120 -0.790057
v 1.453746 3.096806 -0.789643
v 1.453746 3.032112 -0.789643
v -0.000180 3.028553 -0.788729
v 0.007000 3.025111 -0.782643
v 1.453746 3.025111 -0.782643
v 1.460746 3.096806 -0.782643
v 1.453746 3.103806 -0.007000
v 1.460746 3.032112 -0.782643
v 1.460746 3.032111 -0.007000
v 1.454543 3.025009 -0.001778
v 1.460746 3.096806 -0.007000
v 1.453746 3.096806 -0.000000
v 0.004713 3.023758 -0.001038
v 0.007000 3.103806 -0.007000
v 0.007000 3.096806 -0.000000
v 0.007000 3.025111 -0.782643
v -0.000180 3.028553 -0.788729
v 0.000000 3.032111 -0.007000
v 0.000000 3.096806 -0.007000
v 0.007000 3.103806 -0.782643
v 0.002738 3.099120 -0.790057
v 1.436307 0.062932 -0.025508
v 1.436032 0.558464 -0.027195
v 1.447458 0.549613 -0.033217
v 1.447458 0.070778 -0.033217
v 1.436032 0.061928 -0.723658
v 1.447458 0.549613 -0.717636
v 1.436307 0.557460 -0.725345
v 1.447458 0.070778 -0.717636
v 1.436291 2.022747 -0.025361
v 1.436090 2.555164 -0.027034
v 1.447458 2.546395 -0.033217
v 1.447458 2.030454 -0.033217
v 1.436090 2.021685 -0.723819
v 1.447458 2.546395 -0.717636
v 1.436291 2.554102 -0.725492
v 1.447458 2.030454 -0.717636
v 0.024180 0.062932 -0.725345
v 0.024455 0.558464 -0.723658
v 0.013029 0.549613 -0.717636
v 0.013029 0.070778 -0.717636
v 0.024455 0.061928 -0.027194
v 0.013029 0.549613 -0.033217
v 0.024180 0.557460 -0.025508
v 0.013029 0.070778 -0.033217
v 0.024196 2.022747 -0.725492
v 0.024397 2.555164 -0.723819
v 0.013029 2.546395 -0.717636
v 0.013029 2.030454 -0.717636
v 0.024397 2.021685 -0.027034
v 0.013029 2.546395 -0.033217
v 0.024196 2.554102 -0.025361
v 0.013029 2.030454 -0.033217
v 1.156186 0.401558 -0.734272
v 1.163725 0.430980 -0.727809
v 1.162401 0.398375 -0.554756
v 1.156186 0.361948 -0.543772
v 1.161362 0.542332 -0.430644
v 1.156186 0.540485 -0.393324
v 1.156186 0.905680 -0.537473
v 1.164012 0.897064 -0.566340
v 1.183463 0.393477 -0.746853
v 1.181936 0.394400 -0.723735
v 1.182484 0.725954 -0.723363
v 1.181391 0.727694 -0.745966
v 1.179520 0.398287 -0.751352
v 1.179520 0.722612 -0.751352
v 1.161136 0.704227 -0.751352
v 1.161136 0.416672 -0.751352
v 1.155881 0.699757 -0.745403
v 1.156630 0.421603 -0.744910
v 1.155259 0.421135 -0.729613
v 1.158090 0.699108 -0.729059
v 1.161136 0.416672 -0.723067
v 1.161136 0.704227 -0.723067
v 1.181936 0.394400 -0.723735
v 1.182484 0.725954 -0.723363
v 0.278070 0.727383 -0.746852
v 0.273963 0.726041 -0.724376
v 0.274597 0.395730 -0.724510
v 0.279963 0.393177 -0.745958
v 0.281996 0.722612 -0.751352
v 0.281996 0.398287 -0.751352
v 0.300381 0.416672 -0.751352
v 0.300381 0.704227 -0.751352
v 0.305636 0.421142 -0.745403
v 0.304887 0.699295 -0.744910
v 0.306258 0.699764 -0.729613
v 0.303427 0.421791 -0.729059
v 0.300381 0.704227 -0.723067
v 0.300381 0.416672 -0.723067
v 0.273963 0.726041 -0.724376
v 0.274597 0.395730 -0.724510
v 0.299147 0.397914 -0.552825
v 0.296864 0.431317 -0.727858
v 0.305331 0.401558 -0.734272
v 0.305331 0.361948 -0.543772
v 0.299893 0.542875 -0.430990
v 0.305331 0.540485 -0.393324
v 0.305331 0.905680 -0.537473
v 0.296851 0.896824 -0.566694
v 1.363155 0.756347 -0.745748
v 1.362195 0.753085 -0.732647
v 1.363249 2.467871 -0.732663
v 1.361084 2.468810 -0.745863
v 1.358052 2.463702 -0.750499
v 1.358052 0.758527 -0.750498
v 1.339667 0.776912 -0.750498
v 1.339667 2.445318 -0.750499
v 1.334223 2.442453 -0.745585
v 1.335579 0.782113 -0.745740
v 1.334967 0.782662 -0.702423
v 1.333908 2.440868 -0.702419
v 0.098439 0.753420 -0.745863
v 0.096274 0.754358 -0.732663
v 1.362195 0.753085 -0.732647
v 1.363155 0.756347 -0.745748
v 1.358052 0.758527 -0.750498
v 0.101471 0.758527 -0.750498
v 0.119856 0.776912 -0.750498
v 1.339667 0.776912 -0.750498
v 1.335579 0.782113 -0.745740
v 0.125300 0.779777 -0.745585
v 0.125615 0.781362 -0.702419
v 1.334967 0.782662 -0.702423
v 0.096368 2.465883 -0.745748
v 0.097328 2.469145 -0.732648
v 0.096274 0.754358 -0.732663
v 0.098439 0.753420 -0.745863
v 0.101471 0.758527 -0.750498
v 0.101471 2.463702 -0.750499
v 0.119856 2.445318 -0.750499
v 0.119856 0.776912 -0.750498
v 0.125300 0.779777 -0.745585
v 0.123944 2.440117 -0.745740
v 0.124556 2.439567 -0.702423
v 0.125615 0.781362 -0.702419
v 1.361084 2.468810 -0.745863
v 1.363249 2.467871 -0.732663
v 0.097328 2.469145 -0.732648
v 0.096368 2.465883 -0.745748
v 0.101471 2.463702 -0.750499
v 1.358052 2.463702 -0.750499
v 1.339667 2.445318 -0.750499
v 0.119856 2.445318 -0.750499
v 0.123944 2.440117 -0.745740
v 1.334223 2.442453 -0.745585
v 1.333908 2.440868 -0.702419
v 0.124556 2.439567 -0.702423
v 0.279963 0.393177 -0.745958
v 0.274597 0.395730 -0.724510
v 1.181936 0.394400 -0.723735
v 1.183463 0.393477 -0.746853
v 1.179520 0.398287 -0.751352
v 0.281996 0.398287 -0.751352
v 0.300381 0.416672 -0.751352
v 1.161136 0.416672 -0.751352
v 1.156630 0.421603 -0.744910
v 0.305636 0.421142 -0.745403
v 0.303427 0.421791 -0.729059
v 1.155259 0.421135 -0.729613
v 1.161136 0.416672 -0.723067
v 0.300381 0.416672 -0.723067
v 0.274597 0.395730 -0.724510
v 1.181936 0.394400 -0.723735
v 1.181391 0.727694 -0.745966
v 1.182484 0.725954 -0.723363
v 0.273963 0.726041 -0.724376
v 0.278070 0.727383 -0.746852
v 0.281996 0.722612 -0.751352
v 1.179520 0.722612 -0.751352
v 1.161136 0.704227 -0.751352
v 0.300381 0.704227 -0.751352
v 0.304887 0.699295 -0.744910
v 1.155881 0.699757 -0.745403
v 1.158090 0.699108 -0.729059
v 0.306258 0.699764 -0.729613
v 0.300381 0.704227 -0.723067
v 1.161136 0.704227 -0.723067
v 1.182484 0.725954 -0.723363
v 0.273963 0.726041 -0.724376
vt 0.000219 1.000000
vt 0.000219 0.000488
vt 0.730469 0.000000
vt 0.730469 1.000000
vt 0.234985 0.956329
vt 0.234985 0.970825
vt 0.021896 0.963318
vt 0.234985 0.956329
vt 0.234985 0.970825
vt 0.021896 0.963318
vt 0.301270 0.958130
vt 0.309570 0.969360
vt 0.129639 0.963531
vt -0.031113 0.969162
vt -0.065125 0.957855
vt -0.067383 0.969391
vt 0.301270 0.958130
vt 0.309570 0.969360
vt 0.129639 0.963531
vt -0.031113 0.969162
vt -0.065125 0.957855
vt -0.067383 0.969391
vt 0.006538 0.003418
vt 0.597656 0.003418
vt 0.597656 0.024414
vt 0.006538 0.024414
vt 0.006538 0.003418
vt 0.597656 0.003418
vt 0.597656 0.024414
vt 0.006538 0.024414
vt 0.006538 0.003418
vt 0.597656 0.003418
vt 0.597656 0.024414
vt 0.006538 0.024414
vt 0.006538 0.003418
vt 0.597656 0.003418
vt 0.597656 0.024414
vt 0.006538 0.024414
vt 0.975098 0.933472
vt 0.767090 0.933472
vt 0.767090 0.859497
vt 0.975098 0.859497
vt 0.975098 0.933472
vt 0.767090 0.933472
vt 0.767090 0.859497
vt 0.975098 0.859497
vt 0.975098 0.933472
vt 0.767090 0.933472
vt 0.767090 0.859497
vt 0.975098 0.859497
vt 0.975098 0.933472
vt 0.767090 0.933472
vt 0.767090 0.859497
vt 0.975098 0.859497
vt 0.975098 0.933472
vt 0.767090 0.933472
vt 0.767090 0.859497
vt 0.975098 0.859497
vt 0.975098 0.933472
vt 0.767090 0.933472
vt 0.767090 0.859497
vt 0.975098 0.859497
vt 0.975098 0.933472
vt 0.767090 0.933472
vt 0.767090 0.859497
vt 0.975098 0.859497
vt 0.975098 0.933472
vt 0.767090 0.933472
vt 0.767090 0.859497
vt 0.975098 0.859497
vt 0.975098 0.933472
vt 0.767090 0.933472
vt 0.767090 0.859497
vt 0.975098 0.859497
vt 0.975098 0.933472
vt 0.767090 0.933472
vt 0.767090 0.859497
vt 0.975098 0.859497
vt 0.975098 0.933472
vt 0.767090 0.933472
vt 0.767090 0.859497
vt 0.975098 0.859497
vt 0.975098 0.933472
vt 0.767090 0.933472
vt 0.767090 0.859497
vt 0.975098 0.859497
vt 0.975098 0.933472
vt 0.767090 0.933472
vt 0.767090 0.859497
vt 0.975098 0.859497
vt 0.975098 0.933472
vt 0.767090 0.933472
vt 0.767090 0.859497
vt 0.975098 0.859497
vt 0.975098 0.933472
vt 0.767090 0.933472
vt 0.767090 0.859497
vt 0.975098 0.859497
vt 0.975098 0.933472
vt 0.767090 0.933472
vt 0.767090 0.859497
vt 0.975098 0.859497
vt 0.040283 0.210449
vt 0.106689 0.210449
vt 0.106689 0.370117
vt 0.040283 0.370117
vt 0.888672 0.714844
vt 0.984863 0.714844
vt 0.984863 0.775146
vt 0.888672 0.775146
vt 0.771973 0.859009
vt 0.850098 0.859009
vt 0.850098 0.937195
vt 0.771973 0.937195
vt 0.411377 0.392578
vt 0.411377 0.301270
vt 0.532227 0.301270
vt 0.532227 0.392578
vt 0.850098 0.859009
vt 0.850098 0.937195
vt 0.791016 0.937195
vt 0.791016 0.859009
vt 0.607422 0.004883
vt 0.973145 0.004883
vt 0.973145 0.023438
vt 0.607422 0.023438
vt 0.948242 0.571777
vt 0.986816 0.611328
vt 0.986816 0.665283
vt 0.894531 0.571777
vt 0.854492 0.610596
vt 0.895996 0.704346
vt 0.949707 0.704346
vt 0.854492 0.664795
vt 0.228149 -0.002930
vt 0.356689 -0.002930
vt 0.349609 0.013672
vt 0.216553 0.014160
vt 0.348145 0.018555
vt 0.218384 0.018066
vt 0.346924 0.188965
vt 0.213379 0.017578
vt 0.346436 0.347168
vt 0.348145 0.370117
vt 0.256836 0.370605
vt 0.256592 1.221924
vt 0.347900 1.220337
vt 0.348145 1.255127
vt 0.218140 1.257080
vt 0.348389 1.261230
vt 0.213013 1.260742
vt 0.209351 0.021484
vt 0.209229 1.256348
vt 0.218506 1.262939
vt 0.348389 1.431641
vt 0.201416 1.436035
vt 0.197510 1.258789
vt 0.219238 1.432617
vt 0.348633 1.435303
vt 0.215698 1.435059
vt 0.219604 1.435303
vt 0.348633 1.581055
vt 0.216064 1.581055
vt 0.206787 1.597656
vt 0.219238 1.582520
vt 0.347900 1.585938
vt 0.347412 1.602051
vt 2.339844 0.022461
vt 2.343750 0.026367
vt 2.339844 0.371094
vt 2.335938 0.374023
vt 2.335938 0.021973
vt 2.324219 0.039062
vt 2.324219 0.356934
vt 0.351562 1.998535
vt 0.347656 1.994629
vt 0.350830 1.650879
vt 0.355225 1.648438
vt 0.355225 2.000977
vt 0.366699 1.984375
vt 0.366699 1.665527
vt 0.789551 0.013672
vt 0.782227 -0.002930
vt 0.910645 -0.002930
vt 0.922363 0.014160
vt 0.920410 0.018066
vt 0.790527 0.018555
vt 0.791992 0.187988
vt 0.927246 0.018555
vt 0.792480 0.346191
vt 0.881836 0.370117
vt 0.790527 0.370117
vt 0.881836 1.221924
vt 0.925781 1.260986
vt 0.929199 1.256348
vt 0.920410 1.257080
vt 0.790527 1.255127
vt 0.791016 1.220337
vt 0.919922 1.262939
vt 0.790527 1.261230
vt 0.939453 1.259766
vt 0.937012 1.436035
vt 0.919434 1.432617
vt 0.790527 1.431641
vt 0.922852 1.435059
vt 0.918945 1.435303
vt 0.790527 1.435303
vt 0.922363 1.581055
vt 0.930176 1.599121
vt 0.918945 1.581543
vt 0.790527 1.581055
vt 0.791016 1.585938
vt 0.791504 1.602051
vt 1.703125 1.269775
vt 1.699219 1.273682
vt 1.702148 0.023438
vt 1.695312 1.273193
vt 1.695312 0.021973
vt 1.696289 1.277344
vt 0.994629 1.273193
vt 0.994629 0.021973
vt 0.986328 0.023438
vt 0.987793 1.272949
vt 0.992676 1.277344
vt 1.003906 1.294434
vt 1.685547 1.294434
vt 0.346436 0.347168
vt 0.792480 0.346191
vt 0.521973 2.323242
vt 0.511719 2.338867
vt 0.479492 1.984375
vt 0.494141 1.984863
vt 0.479736 1.825195
vt 0.493896 1.823730
vt 0.483643 1.820312
vt 0.518555 1.677734
vt 0.505859 1.649902
vt 1.239258 1.652832
vt 1.232422 1.648438
vt 1.227539 1.677246
vt 1.263672 1.819336
vt 1.254883 1.822754
vt 1.267578 1.823730
vt 1.267578 1.982422
vt 1.253906 1.984863
vt 1.229492 2.323242
vt 1.239258 2.337891
vt 0.347168 0.188965
vt 0.791992 0.187988
vt 1.725586 2.428711
vt 1.728516 2.432617
vt 1.634766 2.573242
vt 1.597656 2.339844
vt 1.241211 2.572266
vt 1.630859 2.577148
vt 1.240234 2.578125
vt 1.241211 2.341797
vt 1.239258 2.337891
vt 1.238281 2.573242
vt 0.512207 2.578125
vt 1.238281 2.342773
vt 0.511719 2.338867
vt 1.229492 2.323242
vt 0.521973 2.323242
vt 0.512207 2.343750
vt 0.509766 2.343750
vt 0.154419 2.342773
vt 0.509766 2.574219
vt 0.119629 2.578125
vt 0.024719 2.431641
vt 0.022385 2.435547
vt 1.330078 1.542480
vt 1.324219 1.541016
vt 1.329102 1.536133
vt 1.324219 2.276367
vt 1.673828 1.542480
vt 1.679688 1.538574
vt 1.330078 2.272461
vt 1.674805 2.279297
vt 1.673828 2.272461
vt 1.679688 2.274414
vt 1.930664 0.028809
vt 1.924805 0.027344
vt 1.929688 0.021973
vt 1.924805 0.762451
vt 2.273438 0.028809
vt 2.279297 0.024902
vt 1.930664 0.758789
vt 2.275391 0.765381
vt 2.273438 0.758789
vt 2.279297 0.760376
vt 2.175781 1.848633
vt 2.175781 2.575195
vt 1.786133 2.575195
vt 1.786133 1.848633
vt 0.139160 2.031250
vt 0.109985 2.032227
vt 0.109985 1.354492
vt 0.139160 1.354492
vt 0.109985 1.349609
vt 0.139160 1.349609
vt 0.109985 1.027725
vt 0.139160 1.027725
vt 0.109985 1.022766
vt 0.139160 1.022766
vt 0.109985 0.349121
vt 0.139160 0.349121
vt 0.109985 0.343750
vt 0.139160 0.343750
vt 0.109985 0.019043
vt 0.139160 0.018066
vt 2.552734 0.109863
vt 2.482422 0.283691
vt 2.478516 0.286621
vt 2.548828 0.106445
vt 2.390625 0.196289
vt 2.478516 0.022949
vt 2.484375 0.024414
vt 2.390625 0.040527
vt 2.388672 0.196777
vt 2.388672 0.039551
vt 1.030273 2.217773
vt 1.025391 2.215820
vt 0.957031 2.042969
vt 0.958496 2.038086
vt 1.117188 2.127930
vt 1.024414 1.956543
vt 1.030273 1.955078
vt 1.117188 1.972656
vt 1.120117 2.127930
vt 1.120117 1.971191
vt 1.759766 0.923645
vt 2.203125 0.923401
vt 2.203125 0.926453
vt 1.761719 0.926208
vt 1.763672 1.014206
vt 2.201172 1.014496
vt 2.199219 1.019638
vt 1.764648 1.019638
vt 2.201172 1.124695
vt 1.761719 1.124939
vt 2.199219 1.129028
vt 1.764648 1.129028
vt 1.764648 1.313721
vt 2.199219 1.313721
vt 2.201172 1.317383
vt 1.762695 1.316650
vt 1.762695 1.441895
vt 2.201172 1.442139
vt 2.205078 1.444580
vt 1.759766 1.444824
vt 0.071533 1.535645
vt 0.071045 2.264648
vt 0.067444 2.266602
vt 0.066833 1.537598
vt 0.034302 1.537598
vt 0.032532 2.267578
vt 0.029587 2.264648
vt 0.029602 1.535645
vt 0.066833 1.533691
vt 0.071533 1.142944
vt 0.034302 1.533691
vt 0.034332 1.145020
vt 0.030853 1.142334
vt 0.066833 1.144897
vt 0.066833 1.141235
vt 0.027710 0.414551
vt 0.068848 0.412598
vt 0.064209 0.414551
vt -0.002644 0.024414
vt 0.000413 0.020996
vt 0.031616 0.412109
vt 0.064148 0.410645
vt 0.039856 0.021973
vt 0.035828 0.018066
vt 2.580078 2.325195
vt 2.578125 2.576172
vt 2.574219 2.571289
vt 2.574219 2.331055
vt 2.226562 2.325195
vt 2.230469 2.571289
vt 2.224609 2.576172
vt 2.230469 2.331055
vt 2.091797 1.537598
vt 2.089844 1.807129
vt 2.085938 1.801270
vt 2.085938 1.542480
vt 1.739258 1.537109
vt 1.743164 1.801270
vt 1.738281 1.806641
vt 1.743164 1.542480
vt 0.932129 1.956055
vt 0.930664 2.207031
vt 0.926758 2.201172
vt 0.926758 1.960938
vt 0.578613 1.955078
vt 0.582520 2.201172
vt 0.577637 2.206055
vt 0.582520 1.960938
vt 2.580078 2.012695
vt 2.578125 2.282227
vt 2.574219 2.276367
vt 2.574219 2.017578
vt 2.226562 2.011719
vt 2.230469 2.276367
vt 2.224609 2.281250
vt 2.230469 2.017578
vt 0.277832 1.648438
vt 0.292725 1.652832
vt 0.290283 1.743652
vt 0.272461 1.741211
vt 0.290283 1.845703
vt 0.273682 1.849609
vt 0.279053 2.041992
vt 0.294922 2.039062
vt 0.569336 0.900024
vt 0.581543 0.900452
vt 0.581543 1.067017
vt 0.569336 1.067871
vt 0.566406 0.902405
vt 0.566406 1.065308
vt 0.557129 1.056122
vt 0.557129 0.911682
vt 0.553223 1.053864
vt 0.553223 0.914124
vt 0.545410 0.913879
vt 0.544922 1.053528
vt 0.541504 0.911682
vt 0.541504 1.056122
vt 0.530762 0.900452
vt 0.530762 1.067017
vt 0.130859 2.251953
vt 0.119812 2.250977
vt 0.119629 2.084961
vt 0.130737 2.083984
vt 0.133911 2.249023
vt 0.133911 2.085938
vt 0.143188 2.095703
vt 0.143188 2.240234
vt 0.146973 2.097656
vt 0.147217 2.237305
vt 0.154785 2.237305
vt 0.155396 2.097656
vt 0.158936 2.240234
vt 0.158936 2.095703
vt 0.171753 2.250977
vt 0.171387 2.084961
vt 0.206299 1.744629
vt 0.203125 1.652832
vt 0.218262 1.648438
vt 0.223511 1.741211
vt 0.206299 1.846191
vt 0.222900 1.849609
vt 0.217041 2.041992
vt 0.200928 2.039062
vt 1.751953 0.878601
vt 1.746094 0.880554
vt 1.746094 0.024414
vt 1.751953 0.023926
vt 1.754883 0.026367
vt 1.754883 0.877747
vt 1.763672 0.868408
vt 1.763672 0.035645
vt 1.768555 0.037109
vt 1.767578 0.866089
vt 1.790039 0.865479
vt 1.790039 0.038086
vt 0.403076 1.053162
vt 0.396484 1.054230
vt 0.396484 0.418457
vt 0.403564 0.417969
vt 0.406494 0.420410
vt 0.406494 1.051636
vt 0.415771 1.042389
vt 0.415771 0.429688
vt 0.418945 0.431641
vt 0.418945 1.039673
vt 0.440674 1.039490
vt 0.440674 0.432129
vt 1.873047 0.025391
vt 1.879883 0.023438
vt 1.879883 0.880066
vt 1.873047 0.880249
vt 1.870117 0.877930
vt 1.870117 0.026367
vt 1.861328 0.035645
vt 1.861328 0.868530
vt 1.857422 0.867432
vt 1.857422 0.038086
vt 1.834961 0.038574
vt 1.834961 0.866333
vt 0.501953 0.418945
vt 0.508301 0.417969
vt 0.508301 1.053711
vt 0.501465 1.054199
vt 0.498779 1.051636
vt 0.498779 0.420410
vt 0.489502 0.429688
vt 0.489502 1.042389
vt 0.486084 1.040344
vt 0.486328 0.432617
vt 0.464355 0.432617
vt 0.464355 1.040039
vt 0.543945 0.875854
vt 0.533691 0.878784
vt 0.533203 0.422852
vt 0.544434 0.422363
vt 0.547363 0.423828
vt 0.547363 0.875122
vt 0.556641 0.865601
vt 0.556641 0.433594
vt 0.561523 0.435547
vt 0.561035 0.863281
vt 0.569824 0.864380
vt 0.569824 0.436035
vt 0.574707 0.433594
vt 0.574707 0.865601
vt 0.585449 0.878723
vt 0.585938 0.422852
vt 0.647949 0.423340
vt 0.658691 0.422363
vt 0.658203 0.878906
vt 0.647461 0.876831
vt 0.644531 0.875122
vt 0.644531 0.423828
vt 0.635254 0.433594
vt 0.635254 0.865601
vt 0.630371 0.863647
vt 0.630859 0.436035
vt 0.621582 0.434570
vt 0.622070 0.862915
vt 0.617188 0.865601
vt 0.617188 0.433594
vt 0.605957 0.422852
vt 0.605957 0.879028
vt1 0.763184 0.559082
vt1 0.763184 0.283203
vt1 0.964844 0.283203
vt1 0.964844 0.559082
vt1 0.218384 0.285156
vt1 0.218384 0.281738
vt1 0.274902 0.283691
vt1 0.626465 0.257324
vt1 0.622559 0.257324
vt1 0.624512 0.201172
vt1 0.876953 0.193848
vt1 0.873535 0.196777
vt1 0.875488 0.137207
vt1 0.873535 0.083984
vt1 0.876953 0.072754
vt1 0.873535 0.071777
vt1 0.508301 0.545654
vt1 0.504883 0.548340
vt1 0.506348 0.488770
vt1 0.504883 0.435547
vt1 0.508301 0.424316
vt1 0.504395 0.423340
vt1 0.373291 0.722412
vt1 0.477051 0.722412
vt1 0.477051 0.726074
vt1 0.373291 0.726074
vt1 0.373291 0.686279
vt1 0.477051 0.686279
vt1 0.477051 0.689941
vt1 0.373291 0.689941
vt1 0.024521 0.804077
vt1 0.128174 0.804077
vt1 0.128174 0.807617
vt1 0.024521 0.807617
vt1 0.024521 0.772339
vt1 0.128174 0.772339
vt1 0.128174 0.775879
vt1 0.024521 0.775879
vt1 0.595215 0.639404
vt1 0.595215 0.609131
vt1 0.605957 0.609131
vt1 0.605957 0.639404
vt1 0.686035 0.494629
vt1 0.686035 0.464355
vt1 0.696777 0.464355
vt1 0.696777 0.494629
vt1 0.613281 0.322266
vt1 0.613281 0.291992
vt1 0.624023 0.291992
vt1 0.624023 0.322266
vt1 0.686035 0.304199
vt1 0.686035 0.273926
vt1 0.696777 0.273926
vt1 0.696777 0.304199
vt1 0.273682 0.826660
vt1 0.303711 0.826660
vt1 0.303711 0.837402
vt1 0.273682 0.837402
vt1 0.595215 0.512451
vt1 0.595215 0.482422
vt1 0.605957 0.482422
vt1 0.605957 0.512451
vt1 0.686035 0.431152
vt1 0.686035 0.400879
vt1 0.696777 0.400879
vt1 0.696777 0.431152
vt1 0.686035 0.367676
vt1 0.686035 0.337402
vt1 0.696777 0.337402
vt1 0.696777 0.367676
vt1 0.595215 0.449219
vt1 0.595215 0.418945
vt1 0.605957 0.418945
vt1 0.605957 0.449219
vt1 0.756836 0.819214
vt1 0.726562 0.819214
vt1 0.726562 0.808594
vt1 0.756836 0.808594
vt1 0.513672 0.680176
vt1 0.513672 0.649902
vt1 0.524414 0.649902
vt1 0.524414 0.680176
vt1 0.554688 0.607666
vt1 0.554688 0.577393
vt1 0.564941 0.577393
vt1 0.564941 0.607666
vt1 0.595215 0.575928
vt1 0.595215 0.545898
vt1 0.605957 0.545898
vt1 0.605957 0.575928
vt1 0.554688 0.671143
vt1 0.554688 0.640869
vt1 0.564941 0.640869
vt1 0.564941 0.671143
vt1 0.735840 0.489258
vt1 0.735840 0.519531
vt1 0.725098 0.519531
vt1 0.725098 0.489258
vt1 0.735840 0.766113
vt1 0.735840 0.736084
vt1 0.746582 0.736084
vt1 0.746582 0.766113
vt1 0.948730 0.949463
vt1 0.935059 0.949463
vt1 0.935059 0.917297
vt1 0.948730 0.917297
vt1 0.513672 0.713379
vt1 0.534180 0.713379
vt1 0.534180 0.726318
vt1 0.513672 0.726318
vt1 0.559082 0.704346
vt1 0.578613 0.704346
vt1 0.578613 0.724121
vt1 0.559082 0.724121
vt1 0.631348 0.833618
vt1 0.631348 0.817627
vt1 0.652832 0.817627
vt1 0.652832 0.833618
vt1 0.622559 0.366211
vt1 0.622559 0.346680
vt1 0.637207 0.346680
vt1 0.637207 0.366211
vt1 0.538086 0.423340
vt1 0.538086 0.546143
vt1 0.531738 0.546143
vt1 0.531738 0.423340
vt1 0.930664 0.868408
vt1 0.940918 0.858398
vt1 0.955078 0.858398
vt1 0.930664 0.882446
vt1 0.940918 0.892883
vt1 0.965332 0.882080
vt1 0.965332 0.868164
vt1 0.955078 0.892883
vt1 0.590332 0.161621
vt1 0.590332 0.203613
vt1 0.584961 0.201660
vt1 0.584473 0.157715
vt1 0.583008 0.201172
vt1 0.583008 0.158691
vt1 0.527344 0.200684
vt1 0.583496 0.156738
vt1 0.475830 0.200195
vt1 0.468262 0.201172
vt1 0.468262 0.170898
vt1 0.189575 0.170898
vt1 0.190063 0.200684
vt1 0.178711 0.201172
vt1 0.178101 0.158203
vt1 0.176758 0.201172
vt1 0.176880 0.156738
vt1 0.582031 0.155762
vt1 0.178345 0.155273
vt1 0.176147 0.158691
vt1 0.121033 0.201172
vt1 0.119568 0.152832
vt1 0.177490 0.151855
vt1 0.120667 0.158691
vt1 0.119812 0.201172
vt1 0.119873 0.157715
vt1 0.119751 0.158691
vt1 0.072144 0.201172
vt1 0.072144 0.157715
vt1 0.066650 0.154785
vt1 0.071594 0.158691
vt1 0.070496 0.200684
vt1 0.065308 0.200684
vt1 0.568359 0.423828
vt1 0.569824 0.424805
vt1 0.568848 0.537598
vt1 0.567383 0.538574
vt1 0.567383 0.423340
vt1 0.563477 0.429199
vt1 0.563477 0.532959
vt1 0.139038 0.836182
vt1 0.137695 0.837402
vt1 0.025391 0.836426
vt1 0.024521 0.834961
vt1 0.139893 0.834961
vt1 0.134399 0.831177
vt1 0.030121 0.831177
vt1 0.584961 0.345215
vt1 0.590332 0.343262
vt1 0.590332 0.384766
vt1 0.584473 0.388672
vt1 0.583008 0.388184
vt1 0.583008 0.345703
vt1 0.527832 0.346191
vt1 0.583008 0.390625
vt1 0.476074 0.346191
vt1 0.468262 0.375488
vt1 0.468262 0.345703
vt1 0.189575 0.375488
vt1 0.176758 0.389648
vt1 0.178345 0.391113
vt1 0.178101 0.388184
vt1 0.178711 0.345703
vt1 0.190063 0.345703
vt1 0.176147 0.388184
vt1 0.176758 0.345703
vt1 0.177124 0.394531
vt1 0.119568 0.393555
vt1 0.120667 0.387695
vt1 0.121033 0.345703
vt1 0.119873 0.389160
vt1 0.119751 0.387695
vt1 0.119812 0.345703
vt1 0.072144 0.388672
vt1 0.066162 0.391602
vt1 0.071960 0.387695
vt1 0.072144 0.345703
vt1 0.070496 0.345703
vt1 0.065308 0.346191
vt1 0.473633 0.418945
vt1 0.474854 0.420410
vt1 0.065735 0.419434
vt1 0.474609 0.421875
vt1 0.065308 0.421875
vt1 0.476074 0.421387
vt1 0.474609 0.650879
vt1 0.065308 0.650879
vt1 0.065796 0.653564
vt1 0.474609 0.653076
vt1 0.476074 0.651611
vt1 0.481445 0.647705
vt1 0.481445 0.424805
vt1 0.475830 0.200195
vt1 0.476074 0.346191
vt1 0.666992 0.263672
vt1 0.663574 0.268555
vt1 0.652832 0.152832
vt1 0.657715 0.152832
vt1 0.652832 0.100586
vt1 0.657715 0.100098
vt1 0.654297 0.099121
vt1 0.665527 0.052734
vt1 0.661621 0.043457
vt1 0.901367 0.044434
vt1 0.898926 0.042969
vt1 0.897461 0.052246
vt1 0.909668 0.098633
vt1 0.906250 0.100098
vt1 0.910645 0.100098
vt1 0.910645 0.151855
vt1 0.906250 0.152832
vt1 0.898438 0.263672
vt1 0.901367 0.268555
vt1 0.527344 0.200684
vt1 0.527832 0.346191
vt1 0.622559 0.082520
vt1 0.623535 0.083984
vt1 0.592773 0.129883
vt1 0.580566 0.053711
vt1 0.464355 0.129395
vt1 0.591797 0.130859
vt1 0.463623 0.131348
vt1 0.464111 0.054199
vt1 0.463379 0.053223
vt1 0.463379 0.129883
vt1 0.225586 0.131348
vt1 0.463379 0.054688
vt1 0.225464 0.053223
vt1 0.460449 0.047852
vt1 0.228882 0.048340
vt1 0.225586 0.054688
vt1 0.224731 0.055176
vt1 0.108521 0.054688
vt1 0.224731 0.130371
vt1 0.097107 0.131348
vt1 0.066040 0.083496
vt1 0.065308 0.084961
vt1 0.541992 0.865112
vt1 0.542480 0.863037
vt1 0.543945 0.864746
vt1 0.301758 0.863281
vt1 0.541992 0.977432
vt1 0.542969 0.979355
vt1 0.302979 0.865112
vt1 0.301025 0.977814
vt1 0.302979 0.977432
vt1 0.302490 0.979492
vt1 0.026749 0.977432
vt1 0.026245 0.979492
vt1 0.024597 0.977814
vt1 0.266602 0.979355
vt1 0.026749 0.865112
vt1 0.025528 0.863281
vt1 0.265381 0.977432
vt1 0.267578 0.864746
vt1 0.265381 0.865112
vt1 0.266113 0.863037
vt1 0.726562 0.583740
vt1 0.964355 0.583740
vt1 0.964355 0.711182
vt1 0.726562 0.711182
vt1 0.019989 0.080078
vt1 0.029526 0.079590
vt1 0.029541 0.301270
vt1 0.019989 0.301270
vt1 0.029541 0.302734
vt1 0.019989 0.302734
vt1 0.029541 0.408203
vt1 0.019989 0.408203
vt1 0.029541 0.409668
vt1 0.019989 0.409668
vt1 0.029541 0.630127
vt1 0.019989 0.630127
vt1 0.029541 0.631836
vt1 0.019989 0.631836
vt1 0.029526 0.738281
vt1 0.019989 0.738281
vt1 0.198242 0.785889
vt1 0.255127 0.808594
vt1 0.255859 0.809937
vt1 0.197144 0.786621
vt1 0.226562 0.838379
vt1 0.169800 0.810181
vt1 0.170166 0.808228
vt1 0.175659 0.838501
vt1 0.226685 0.839478
vt1 0.175293 0.839355
vt1 0.795898 0.822388
vt1 0.794434 0.821655
vt1 0.771973 0.765259
vt1 0.772461 0.763550
vt1 0.824219 0.793091
vt1 0.793945 0.736816
vt1 0.795898 0.736572
vt1 0.824219 0.742188
vt1 0.825684 0.793091
vt1 0.825195 0.741699
vt1 0.857422 0.071289
vt1 0.857422 0.216797
vt1 0.856445 0.216309
vt1 0.856445 0.071777
vt1 0.827637 0.072266
vt1 0.827637 0.215820
vt1 0.826172 0.215332
vt1 0.826172 0.073242
vt1 0.791504 0.216309
vt1 0.791504 0.071777
vt1 0.790039 0.215332
vt1 0.790039 0.073242
vt1 0.729980 0.073242
vt1 0.729980 0.215332
vt1 0.728516 0.215820
vt1 0.729004 0.072266
vt1 0.687988 0.072266
vt1 0.687988 0.216309
vt1 0.687012 0.216797
vt1 0.687012 0.071289
vt1 0.519531 0.020020
vt1 0.758301 0.020508
vt1 0.758789 0.021484
vt1 0.520020 0.021973
vt1 0.520020 0.032227
vt1 0.759277 0.033203
vt1 0.758301 0.034180
vt1 0.519531 0.034180
vt1 0.519043 0.021973
vt1 0.391113 0.020020
vt1 0.519043 0.032227
vt1 0.391846 0.032227
vt1 0.390869 0.033691
vt1 0.391846 0.021973
vt1 0.390625 0.021973
vt1 0.152832 0.034668
vt1 0.152222 0.020996
vt1 0.152954 0.022461
vt1 0.025284 0.044434
vt1 0.024200 0.043457
vt1 0.152100 0.033203
vt1 0.151611 0.022461
vt1 0.024582 0.030762
vt1 0.023285 0.031738
vt1 0.695312 0.863403
vt1 0.777832 0.863770
vt1 0.775879 0.865112
vt1 0.697266 0.865112
vt1 0.695312 0.978943
vt1 0.775879 0.977600
vt1 0.777344 0.979324
vt1 0.697266 0.977600
vt1 0.965332 0.736816
vt1 0.965332 0.824829
vt1 0.963867 0.822998
vt1 0.963867 0.738281
vt1 0.850098 0.736572
vt1 0.851074 0.822998
vt1 0.849609 0.824585
vt1 0.851074 0.738281
vt1 0.577637 0.863403
vt1 0.659668 0.863770
vt1 0.657715 0.865112
vt1 0.579590 0.865112
vt1 0.577637 0.978943
vt1 0.657715 0.977600
vt1 0.659668 0.979324
vt1 0.579590 0.977600
vt1 0.813477 0.863403
vt1 0.901367 0.863770
vt1 0.899902 0.865112
vt1 0.814941 0.865112
vt1 0.812988 0.978958
vt1 0.899902 0.977585
vt1 0.901367 0.979324
vt1 0.814941 0.977585
vt1 0.444336 0.315918
vt1 0.442871 0.320801
vt1 0.413086 0.319824
vt1 0.413818 0.313965
vt1 0.379639 0.319824
vt1 0.378418 0.314453
vt1 0.315674 0.316406
vt1 0.316406 0.321289
vt1 0.734375 0.398438
vt1 0.737793 0.398926
vt1 0.737793 0.453125
vt1 0.734375 0.453613
vt1 0.732910 0.399414
vt1 0.732910 0.452637
vt1 0.729980 0.449707
vt1 0.729980 0.402344
vt1 0.729004 0.449219
vt1 0.729004 0.403320
vt1 0.726074 0.403320
vt1 0.726074 0.448730
vt1 0.725098 0.402344
vt1 0.725098 0.449707
vt1 0.721680 0.398926
vt1 0.721680 0.453125
vt1 0.516602 0.626953
vt1 0.512695 0.626953
vt1 0.512695 0.572510
vt1 0.516602 0.572021
vt1 0.517578 0.626221
vt1 0.517578 0.572998
vt1 0.520508 0.575928
vt1 0.520508 0.623291
vt1 0.521973 0.576660
vt1 0.521973 0.622559
vt1 0.524414 0.622559
vt1 0.524414 0.576904
vt1 0.525879 0.623291
vt1 0.525879 0.575928
vt1 0.529785 0.626953
vt1 0.529785 0.572510
vt1 0.783691 0.234863
vt1 0.813965 0.233887
vt1 0.815430 0.238770
vt1 0.785156 0.240723
vt1 0.750977 0.234863
vt1 0.749512 0.240234
vt1 0.686523 0.238281
vt1 0.687500 0.232910
vt1 0.066467 0.678223
vt1 0.065857 0.676025
vt1 0.345947 0.676025
vt1 0.345947 0.678223
vt1 0.345215 0.679199
vt1 0.066772 0.679199
vt1 0.069824 0.682129
vt1 0.342041 0.682129
vt1 0.341797 0.683594
vt1 0.070618 0.683594
vt1 0.070740 0.690674
vt1 0.341553 0.690674
vt1 0.237305 0.223633
vt1 0.236938 0.221191
vt1 0.445068 0.221191
vt1 0.445068 0.223633
vt1 0.444336 0.224609
vt1 0.237793 0.224609
vt1 0.240845 0.227539
vt1 0.441406 0.227539
vt1 0.440674 0.228516
vt1 0.241821 0.228516
vt1 0.241821 0.235840
vt1 0.440430 0.235840
vt1 0.066589 0.714355
vt1 0.065979 0.712402
vt1 0.345703 0.712402
vt1 0.345947 0.714600
vt1 0.345215 0.715332
vt1 0.066833 0.715332
vt1 0.069946 0.718506
vt1 0.342041 0.718506
vt1 0.341797 0.719727
vt1 0.070679 0.719727
vt1 0.070862 0.726807
vt1 0.341309 0.726807
vt1 0.444824 0.263672
vt1 0.445068 0.266113
vt1 0.237183 0.266113
vt1 0.237061 0.263672
vt1 0.237793 0.262695
vt1 0.444336 0.262695
vt1 0.441406 0.259766
vt1 0.240845 0.259766
vt1 0.241577 0.258789
vt1 0.440430 0.258789
vt1 0.440430 0.251465
vt1 0.241699 0.251465
vt1 0.295410 0.285156
vt1 0.294434 0.281738
vt1 0.443604 0.281738
vt1 0.443848 0.285645
vt1 0.443115 0.286621
vt1 0.295654 0.286621
vt1 0.298584 0.289551
vt1 0.439941 0.289551
vt1 0.439453 0.291016
vt1 0.299316 0.291016
vt1 0.299072 0.293945
vt1 0.439209 0.293945
vt1 0.439941 0.295410
vt1 0.298584 0.295410
vt1 0.294434 0.298828
vt1 0.443604 0.299316
vt1 0.948242 0.039062
vt1 0.951660 0.039062
vt1 0.951660 0.188477
vt1 0.948242 0.187500
vt1 0.947266 0.187012
vt1 0.947266 0.039551
vt1 0.944336 0.042480
vt1 0.944336 0.184082
vt1 0.942383 0.183594
vt1 0.942871 0.043457
vt1 0.939941 0.042969
vt1 0.939941 0.183105
vt1 0.937988 0.184082
vt1 0.937988 0.042480
vt1 0.934570 0.039062
vt1 0.934570 0.188477
vn 0.000000 -0.000000 -1.000000
vn 0.000000 -0.000000 -1.000000
vn 0.000000 -0.000000 -1.000000
vn 0.000000 -0.000000 -1.000000
vn 0.000000 -0.000000 -1.000000
vn 0.000000 -0.000000 -1.000000
vn 0.000000 -0.015748 -1.000000
vn 0.000000 -0.000000 -1.000000
vn 0.000000 -0.000000 -1.000000
vn 0.000000 -0.015748 -1.000000
vn 0.000000 0.661417 -0.748031
vn 0.000000 0.795275 -0.606299
vn 0.000000 -0.307087 -0.952756
vn 0.000000 -0.755905 -0.653543
vn 0.000000 -0.527559 -0.850394
vn 0.000000 -0.000000 -1.000000
vn 0.000000 0.661417 -0.748031
vn 0.000000 0.795275 -0.606299
vn 0.000000 -0.307087 -0.952756
vn 0.000000 -0.755905 -0.653543
vn 0.000000 -0.527559 -0.850394
vn 0.000000 -0.000000 -1.000000
vn 0.000000 -0.000000 -1.000000
vn 0.000000 -0.000000 -1.000000
vn 0.000000 -0.000000 -1.000000
vn 0.000000 -0.000000 -1.000000
vn 0.000000 -0.000000 -1.000000
vn 0.000000 -0.000000 -1.000000
vn 0.000000 -0.000000 -1.000000
vn 0.000000 -0.000000 -1.000000
vn 0.000000 -0.000000 -1.000000
vn 0.000000 -0.000000 -1.000000
vn 0.000000 -0.000000 -1.000000
vn 0.000000 -0.000000 -1.000000
vn 0.000000 -0.000000 -1.000000
vn 0.000000 -0.000000 -1.000000
vn 0.000000 -0.000000 -1.000000
vn 0.000000 -0.000000 -1.000000
vn -1.000000 0.000000 0.000000
vn -1.000000 0.000000 0.000000
vn -1.000000 0.000000 0.000000
vn -1.000000 0.000000 0.000000
vn -1.000000 0.000000 0.000000
vn -1.000000 0.000000 0.000000
vn -1.000000 0.000000 0.000000
vn -1.000000 0.000000 0.000000
vn -1.000000 0.000000 0.000000
vn -1.000000 0.000000 0.000000
vn -1.000000 0.000000 0.000000
vn -1.000000 0.000000 0.000000
vn -1.000000 0.000000 0.000000
vn -1.000000 0.000000 0.000000
vn -1.000000 0.000000 0.000000
vn -1.000000 0.000000 0.000000
vn -1.000000 0.000000 0.000000
vn -1.000000 0.000000 0.000000
vn -1.000000 0.000000 0.000000
vn -1.000000 0.000000 0.000000
vn -1.000000 0.000000 0.000000
vn -1.000000 0.000000 0.000000
vn -1.000000 0.000000 0.000000
vn -1.000000 0.000000 0.000000
vn -1.000000 0.000000 0.000000
vn -1.000000 0.000000 0.000000
vn -1.000000 0.000000 0.000000
vn -1.000000 0.000000 0.000000
vn -1.000000 0.000000 0.000000
vn -1.000000 0.000000 0.000000
vn -1.000000 0.000000 0.000000
vn -1.000000 0.000000 0.000000
vn 1.000000 0.000000 0.000000
vn 1.000000 0.000000 0.000000
vn 1.000000 0.000000 0.000000
vn 1.000000 0.000000 0.000000
vn 1.000000 0.000000 0.000000
vn 1.000000 0.000000 0.000000
vn 1.000000 0.000000 0.000000
vn 1.000000 0.000000 0.000000
vn 1.000000 0.000000 0.000000
vn 1.000000 0.000000 0.000000
vn 1.000000 0.000000 0.000000
vn 1.000000 0.000000 0.000000
vn 1.000000 0.000000 0.000000
vn 1.000000 0.000000 0.000000
vn 1.000000 0.000000 0.000000
vn 1.000000 0.000000 0.000000
vn 1.000000 0.000000 0.000000
vn 1.000000 0.000000 0.000000
vn 1.000000 0.000000 0.000000
vn 1.000000 0.000000 0.000000
vn 1.000000 0.000000 0.000000
vn 1.000000 0.000000 0.000000
vn 1.000000 0.000000 0.000000
vn 1.000000 0.000000 0.000000
vn 1.000000 0.000000 0.000000
vn 1.000000 0.000000 0.000000
vn 1.000000 0.000000 0.000000
vn 1.000000 0.000000 0.000000
vn 1.000000 0.000000 0.000000
vn 1.000000 0.000000 0.000000
vn 1.000000 0.000000 0.000000
vn 1.000000 0.000000 0.000000
vn 1.000000 0.000000 0.000000
vn 1.000000 0.000000 0.000000
vn 1.000000 0.000000 0.000000
vn 1.000000 0.000000 0.000000
vn 0.000000 -0.000000 -1.000000
vn 0.000000 -0.000000 -1.000000
vn 0.000000 -0.000000 -1.000000
vn 0.000000 -0.000000 -1.000000
vn 0.000000 -0.000000 -1.000000
vn 0.000000 -0.000000 -1.000000
vn 0.000000 -0.000000 -1.000000
vn 0.000000 -0.000000 -1.000000
vn 0.000000 -0.000000 -1.000000
vn 0.000000 -0.000000 -1.000000
vn 0.000000 -0.000000 -1.000000
vn 0.000000 -0.000000 -1.000000
vn 0.000000 -0.826772 -0.566929
vn 0.000000 -0.826772 -0.566929
vn 0.000000 -0.826772 -0.566929
vn 0.000000 -0.826772 -0.566929
vn 0.000000 -0.826772 -0.566929
vn 0.000000 -0.826772 -0.566929
vn 0.000000 -0.826772 -0.566929
vn 0.000000 -0.826772 -0.566929
vn 1.000000 0.000000 0.000000
vn 1.000000 0.000000 0.000000
vn 1.000000 0.000000 0.000000
vn 1.000000 0.000000 0.000000
vn 1.000000 0.000000 0.000000
vn 1.000000 0.000000 0.000000
vn 1.000000 0.000000 0.000000
vn 1.000000 0.000000 0.000000
vn 0.000000 -1.000000 0.000000
vn 0.000000 -1.000000 0.000000
vn 0.000000 -1.000000 0.000000
vn 0.000000 -1.000000 0.000000
vn 0.000000 -0.000000 -1.000000
vn 0.000000 -0.000000 -1.000000
vn 0.000000 -0.000000 -1.000000
vn -1.000000 0.000000 0.000000
vn 0.000000 -0.000000 -1.000000
vn 0.000000 -0.000000 -1.000000
vn 0.000000 -0.000000 -1.000000
vn 0.000000 -0.000000 -1.000000
vn 0.000000 -0.000000 -1.000000
vn 0.000000 -0.000000 -1.000000
vn 0.000000 -0.000000 -1.000000
vn 0.000000 -0.826772 -0.559055
vn -1.000000 0.000000 0.000000
vn -1.000000 0.000000 0.000000
vn -1.000000 0.000000 0.000000
vn 0.000000 -0.826772 -0.559055
vn 0.000000 -0.826772 -0.559055
vn -1.000000 0.000000 0.000000
vn -1.000000 0.000000 0.000000
vn 0.000000 -0.826772 -0.559055
vn 0.000000 0.559055 -0.826772
vn -1.000000 0.000000 0.000000
vn 0.000000 0.559055 -0.826772
vn 0.000000 0.559055 -0.826772
vn -1.000000 0.000000 0.000000
vn -0.724409 0.685039 -0.000000
vn 0.015748 0.692913 -0.724409
vn 0.000000 1.000000 -0.000000
vn 0.000000 1.000000 -0.000000
vn 1.000000 0.000000 0.000000
vn 1.000000 0.000000 0.000000
vn 1.000000 0.062992 -0.000000
vn 0.000000 -1.000000 0.000000
vn 0.000000 -1.000000 0.000000
vn 0.000000 -1.000000 0.000000
vn 0.000000 -1.000000 0.000000
vn -1.000000 0.000000 0.000000
vn -1.000000 0.000000 0.000000
vn -1.000000 0.062992 -0.000000
vn 0.000000 -1.000000 0.000000
vn 0.000000 -1.000000 0.000000
vn 0.000000 -1.000000 0.000000
vn 0.000000 -1.000000 0.000000
vn 0.000000 -1.000000 0.000000
vn 0.000000 -1.000000 0.000000
vn 0.000000 -1.000000 0.000000
vn 0.000000 -1.000000 0.000000
vn 0.000000 -0.000000 -1.000000
vn 0.000000 -0.000000 -1.000000
vn 0.000000 -0.000000 -1.000000
vn 0.992126 0.000000 0.094488
vn 0.000000 -0.000000 -1.000000
vn 0.000000 -0.000000 -1.000000
vn 0.000000 -0.000000 -1.000000
vn 0.000000 -0.000000 -1.000000
vn 1.000000 0.000000 0.000000
vn 1.000000 0.000000 0.000000
vn 0.000000 -0.000000 -1.000000
vn 0.000000 -0.000000 -1.000000
vn 0.000000 -0.000000 -1.000000
vn 0.000000 -0.826772 -0.559055
vn 0.000000 -0.826772 -0.559055
vn 1.000000 0.000000 0.000000
vn 1.000000 0.000000 0.000000
vn 0.000000 -0.826772 -0.559055
vn 0.000000 -0.826772 -0.559055
vn 1.000000 0.000000 0.000000
vn 0.000000 0.559055 -0.826772
vn 0.000000 0.559055 -0.826772
vn 1.000000 0.000000 0.000000
vn 0.409449 0.913386 0.007874
vn 0.000000 0.598425 -0.803150
vn 0.000000 0.559055 -0.826772
vn 0.000000 1.000000 -0.000000
vn 0.000000 1.000000 -0.000000
vn 1.000000 0.000000 0.000000
vn 1.000000 0.000000 0.000000
vn 0.921260 0.000000 0.385827
vn 0.000000 0.000000 1.000000
vn 0.000000 0.000000 1.000000
vn 0.000000 -1.000000 0.000000
vn 0.000000 0.000000 1.000000
vn 0.000000 0.000000 1.000000
vn -0.984252 0.000000 0.173228
vn -0.992126 -0.000000 -0.125984
vn 0.000000 -1.000000 0.000000
vn 0.000000 -1.000000 0.000000
vn 0.000000 -1.000000 0.000000
vn 0.000000 -0.000000 -1.000000
vn 0.000000 -0.000000 -1.000000
vn 0.000000 -1.000000 0.000000
vn 0.000000 -1.000000 0.000000
vn 0.000000 -1.000000 -0.078740
vn 0.000000 -0.960630 -0.283464
vn 0.000000 -0.889764 -0.464567
vn 0.000000 -0.236221 -0.976378
vn 0.000000 0.551181 -0.834646
vn 0.000000 0.551181 -0.834646
vn 0.000000 0.677165 -0.740157
vn 0.000000 0.574803 -0.818898
vn 0.000000 0.881890 -0.472441
vn 0.000000 0.551181 -0.834646
vn 0.000000 0.551181 -0.834646
vn 0.000000 -0.574803 -0.818897
vn 0.000000 -0.818898 -0.574803
vn 0.000000 -0.984252 -0.181102
vn 0.000000 -0.984252 -0.188976
vn 0.000000 -1.000000 0.000000
vn 0.000000 -1.000000 0.000000
vn 0.000000 -0.000000 -1.000000
vn 0.000000 -0.000000 -1.000000
vn -1.000000 -0.015748 -0.015748
vn 0.000000 0.551181 -0.834646
vn -1.000000 0.007874 -0.007874
vn -1.000000 -0.007874 0.000000
vn -1.000000 0.000000 0.000000
vn 0.000000 0.881890 -0.472441
vn 0.000000 0.708661 0.708661
vn -1.000000 0.000000 0.000000
vn 0.000000 -1.000000 0.000000
vn 0.000000 0.000000 1.000000
vn 0.000000 0.031496 1.000000
vn 0.000000 0.000000 1.000000
vn 0.000000 -1.000000 0.000000
vn 0.000000 -1.000000 0.000000
vn 0.000000 -1.000000 0.000000
vn 0.000000 0.000000 1.000000
vn 1.000000 0.000000 0.000000
vn 1.000000 -0.007874 0.000000
vn 1.000000 0.000000 0.000000
vn 1.000000 0.015748 -0.007874
vn 1.000000 -0.023622 -0.015748
vn 0.000000 0.551181 -0.834646
vn 1.000000 0.000000 0.000000
vn 0.236220 -0.000000 -0.968504
vn 0.283465 -0.960630 0.000000
vn 0.448819 0.181102 -0.874016
vn 1.000000 0.000000 0.000000
vn 0.448819 -0.181102 0.874016
vn 1.000000 0.000000 0.000000
vn 0.283465 0.960630 -0.000000
vn 1.000000 0.000000 0.000000
vn 0.236220 0.000000 0.968504
vn -1.000000 0.000000 0.000000
vn -0.236220 0.000000 0.968504
vn -0.283465 -0.960630 0.000000
vn -0.448819 0.181102 0.874016
vn -1.000000 0.000000 0.000000
vn -0.448819 -0.181102 -0.874016
vn -1.000000 0.000000 0.000000
vn -0.283465 0.960630 -0.000000
vn -1.000000 0.000000 0.000000
vn -0.236220 -0.000000 -0.968504
vn 0.000000 1.000000 -0.000000
vn 0.000000 1.000000 -0.000000
vn 0.000000 1.000000 -0.000000
vn 0.000000 1.000000 -0.000000
vn -0.007874 0.000000 1.000000
vn -0.007874 0.000000 1.000000
vn 0.000000 0.000000 1.000000
vn 0.000000 0.000000 1.000000
vn 1.000000 0.000000 0.000000
vn 1.000000 0.000000 0.000000
vn 1.000000 0.000000 0.000000
vn 1.000000 0.000000 0.000000
vn 0.000000 -0.000000 -1.000000
vn 0.000000 -0.000000 -1.000000
vn 0.000000 -0.000000 -1.000000
vn 0.000000 -0.000000 -1.000000
vn -1.000000 0.000000 0.000000
vn -1.000000 0.000000 0.000000
vn -1.000000 0.000000 0.000000
vn -1.000000 0.000000 0.000000
vn 0.000000 -0.370079 -0.929134
vn 0.000000 -0.370079 -0.929134
vn 1.000000 -0.031496 -0.007874
vn 1.000000 0.007874 -0.015748
vn 1.000000 -0.015748 0.015748
vn 0.992126 0.110236 -0.023622
vn 0.000000 0.637795 -0.771653
vn 1.000000 0.023622 -0.000000
vn 0.330709 0.007874 -0.944882
vn 0.409449 -0.015748 -0.913386
vn -1.000000 -0.031496 0.000000
vn 0.000000 -0.370079 -0.929134
vn 0.000000 -0.370079 -0.929134
vn -1.000000 0.007874 -0.015748
vn -1.000000 -0.015748 0.007874
vn 0.000000 0.637795 -0.771653
vn -0.992126 0.102362 -0.023622
vn -1.000000 0.023622 -0.000000
vn -0.283465 0.007874 -0.960630
vn -0.401575 -0.015748 -0.913386
vn 0.000000 0.251968 -0.968504
vn 0.000000 0.165354 -0.984252
vn 0.000000 0.984252 0.196850
vn 0.000000 0.984252 0.196850
vn 0.000000 0.976378 0.196850
vn 0.000000 0.976378 0.196850
vn 0.000000 0.637795 -0.771653
vn 0.000000 0.637795 -0.771653
vn 0.000000 0.629921 -0.771653
vn 0.000000 0.614173 -0.787401
vn 0.000000 -0.370079 -0.929134
vn 0.000000 -0.370079 -0.929134
vn 0.000000 -0.370079 -0.929134
vn 0.000000 -0.370079 -0.929134
vn 0.000000 -0.692913 0.724409
vn 0.000000 -0.692913 0.716535
vn 0.000000 -0.692913 0.716535
vn 0.000000 -0.692913 0.716535
vn 0.000000 -0.259843 -0.968504
vn 0.000000 -0.181102 -0.984252
vn 0.000000 1.000000 -0.000000
vn 0.000000 1.000000 -0.000000
vn 0.000000 0.015748 -1.000000
vn 0.000000 -0.000000 -1.000000
vn 0.000000 -0.000000 -1.000000
vn -0.007874 -0.031496 -1.000000
vn 0.000000 -0.708661 -0.708661
vn 0.000000 -0.708661 -0.708661
vn 1.000000 0.000000 0.000000
vn 0.000000 1.000000 -0.000000
vn 1.000000 0.000000 0.000000
vn 1.000000 0.000000 0.000000
vn 0.007874 -0.181102 0.984252
vn 1.000000 0.000000 0.000000
vn 0.000000 0.000000 1.000000
vn -0.007874 -0.102362 0.992126
vn 0.000000 1.000000 -0.000000
vn 0.000000 0.000000 1.000000
vn 0.000000 -0.708661 -0.708661
vn -1.000000 -0.023622 0.000000
vn -1.000000 0.000000 0.000000
vn -1.000000 0.000000 0.000000
vn 0.000000 1.000000 -0.000000
vn -1.000000 0.047244 -0.000000
vn 0.503937 -0.566929 0.653543
vn 0.496063 0.826772 0.267716
vn 1.000000 0.000000 0.000000
vn 1.000000 0.000000 0.000000
vn 0.496063 -0.826772 -0.267716
vn 1.000000 0.000000 0.000000
vn 0.503937 0.566929 -0.653543
vn 1.000000 0.000000 0.000000
vn 0.503937 -0.535433 0.677165
vn 0.503937 0.811024 0.291338
vn 1.000000 0.000000 0.000000
vn 1.000000 0.000000 0.000000
vn 0.503937 -0.811024 -0.291338
vn 1.000000 0.000000 0.000000
vn 0.503937 0.535433 -0.677165
vn 1.000000 0.000000 0.000000
vn -0.503937 -0.566929 -0.653543
vn -0.496063 0.826771 -0.267717
vn -1.000000 0.000000 0.000000
vn -1.000000 0.000000 0.000000
vn -0.496063 -0.826771 0.267717
vn -1.000000 0.000000 0.000000
vn -0.503937 0.566929 0.653543
vn -1.000000 0.000000 0.000000
vn -0.503937 -0.535433 -0.677165
vn -0.503937 0.811023 -0.291339
vn -1.000000 0.000000 0.000000
vn -1.000000 0.000000 0.000000
vn -0.503937 -0.811023 0.291339
vn -1.000000 0.000000 0.000000
vn -0.503937 0.535433 0.677165
vn -1.000000 0.000000 0.000000
vn -1.000000 0.000000 0.000000
vn -0.818898 0.574803 0.023622
vn -0.881890 0.464567 -0.094488
vn -1.000000 0.000000 0.000000
vn -0.944882 -0.039370 -0.314961
vn -1.000000 0.000000 0.000000
vn -1.000000 0.000000 0.000000
vn -0.795276 -0.181102 -0.574803
vn 1.000000 -0.000000 -0.078740
vn 0.779528 0.000000 0.622047
vn 0.929134 0.000000 0.377953
vn 0.968504 -0.000000 -0.259842
vn 0.000000 -0.000000 -1.000000
vn 0.000000 -0.000000 -1.000000
vn 0.000000 -0.000000 -1.000000
vn 0.000000 -0.000000 -1.000000
vn -0.779528 -0.000000 -0.629921
vn -0.787402 -0.000000 -0.614173
vn -0.803150 0.000000 0.590551
vn -0.732283 0.000000 0.677165
vn 0.000000 0.000000 1.000000
vn 0.000000 0.000000 1.000000
vn 0.000000 0.000000 1.000000
vn 0.000000 0.000000 1.000000
vn -1.000000 -0.000000 -0.070866
vn -1.000000 0.000000 0.015748
vn -1.000000 0.000000 0.039370
vn -0.976378 -0.000000 -0.228346
vn 0.000000 -0.000000 -1.000000
vn 0.000000 -0.000000 -1.000000
vn 0.000000 -0.000000 -1.000000
vn 0.000000 -0.000000 -1.000000
vn 0.779528 -0.000000 -0.629921
vn 0.787402 -0.000000 -0.614173
vn 0.803150 0.000000 0.590551
vn 0.732283 0.000000 0.677165
vn 0.000000 0.000000 1.000000
vn 0.000000 0.000000 1.000000
vn -0.251969 0.000000 0.968504
vn -0.456693 0.000000 0.889764
vn 0.929134 0.338583 -0.118110
vn 0.787402 0.614173 0.055118
vn 1.000000 0.000000 0.000000
vn 1.000000 0.000000 0.000000
vn 0.944882 -0.007874 -0.330709
vn 1.000000 0.000000 0.000000
vn 1.000000 0.000000 0.000000
vn 0.779528 -0.165354 -0.606299
vn 0.992126 -0.000000 -0.094488
vn 1.000000 -0.007874 0.000000
vn 1.000000 0.000000 0.000000
vn 0.984252 0.007874 -0.181102
vn 0.000000 -0.000000 -1.000000
vn 0.000000 -0.000000 -1.000000
vn 0.000000 -0.000000 -1.000000
vn 0.000000 -0.000000 -1.000000
vn -1.000000 -0.007874 -0.031496
vn -1.000000 0.007874 -0.047244
vn -1.000000 0.000000 0.000000
vn -1.000000 -0.007874 0.000000
vn 0.000000 -0.992126 -0.118110
vn 0.000000 -1.000000 0.000000
vn 0.000000 -1.000000 0.000000
vn 0.000000 -0.976378 -0.212598
vn 0.000000 -0.000000 -1.000000
vn 0.000000 -0.000000 -1.000000
vn 0.000000 -0.000000 -1.000000
vn 0.000000 -0.000000 -1.000000
vn 0.000000 1.000000 -0.039370
vn 0.000000 1.000000 -0.062992
vn 0.000000 1.000000 -0.000000
vn 0.000000 1.000000 -0.000000
vn -0.992126 -0.000000 -0.094488
vn -1.000000 0.007874 -0.000000
vn -1.000000 0.000000 0.000000
vn -0.984252 -0.007874 -0.181102
vn 0.000000 -0.000000 -1.000000
vn 0.000000 -0.000000 -1.000000
vn 0.000000 -0.000000 -1.000000
vn 0.000000 -0.000000 -1.000000
vn 1.000000 0.007874 -0.031496
vn 1.000000 -0.007874 -0.047244
vn 1.000000 0.000000 0.000000
vn 1.000000 0.007874 -0.000000
vn 0.000000 0.992126 -0.118110
vn 0.000000 1.000000 -0.000000
vn 0.000000 1.000000 -0.000000
vn 0.000000 0.976378 -0.212599
vn 0.000000 -0.000000 -1.000000
vn 0.000000 -0.000000 -1.000000
vn 0.000000 -0.000000 -1.000000
vn 0.000000 -0.000000 -1.000000
vn 0.000000 -1.000000 -0.039370
vn 0.000000 -1.000000 -0.062992
vn 0.000000 -1.000000 0.000000
vn 0.000000 -1.000000 0.000000
vn 0.000000 -1.000000 -0.055118
vn -0.007874 -0.866142 0.503937
vn 0.000000 -0.952756 0.307087
vn 0.007874 -0.992126 -0.102362
vn 0.000000 -0.000000 -1.000000
vn 0.000000 -0.000000 -1.000000
vn 0.000000 -0.000000 -1.000000
vn 0.000000 -0.000000 -1.000000
vn -0.007874 1.000000 -0.023622
vn 0.007874 1.000000 -0.062992
vn 0.007874 1.000000 0.039370
vn -0.007874 1.000000 0.039370
vn 0.000000 0.000000 1.000000
vn 0.000000 0.000000 1.000000
vn 0.000000 0.000000 1.000000
vn 0.000000 0.000000 1.000000
vn 0.000000 1.000000 -0.055118
vn 0.007874 0.842520 0.535433
vn 0.000000 0.952756 0.299212
vn -0.007874 0.992126 -0.102362
vn 0.000000 -0.000000 -1.000000
vn 0.000000 -0.000000 -1.000000
vn 0.000000 -0.000000 -1.000000
vn 0.000000 -0.000000 -1.000000
vn 0.007874 -1.000000 -0.023622
vn -0.007874 -1.000000 -0.062992
vn -0.007874 -1.000000 0.039370
vn 0.007874 -1.000000 0.039370
vn 0.000000 0.000000 1.000000
vn 0.000000 0.000000 1.000000
vn 0.000000 0.000000 1.000000
vn 0.000000 0.000000 1.000000
tan 0.000000 -1.000000 0.000000 1.000000
tan 0.000000 -1.000000 0.000000 1.000000
tan 0.000000 -1.000000 0.000000 1.000000
tan 0.000000 -1.000000 0.000000 1.000000
tan 1.000000 0.000000 0.000000 1.000000
tan 1.000000 0.000000 0.000000 1.000000
tan 1.000000 0.000000 0.000000 1.000000
tan 1.000000 0.000000 0.000000 1.000000
tan 1.000000 0.000000 0.000000 1.000000
tan 1.000000 0.000000 0.000000 1.000000
tan 0.891128 0.000000 0.000000 1.000000
tan 1.002170 0.000000 0.000000 1.000000
tan 0.964846 0.000000 0.000000 1.000000
tan 0.925228 0.000000 0.000000 1.000000
tan 0.986980 0.000000 0.000000 1.000000
tan 1.000000 0.000000 0.000000 1.000000
tan 0.891128 0.000000 0.000000 1.000000
tan 1.002170 0.000000 0.000000 1.000000
tan 0.964846 0.000000 0.000000 1.000000
tan 0.925228 0.000000 0.000000 1.000000
tan 0.986980 0.000000 0.000000 1.000000
tan 1.000000 0.000000 0.000000 1.000000
tan 0.000000 -1.000000 0.000000 1.000000
tan 0.000000 -1.000000 0.000000 1.000000
tan 0.000000 -1.000000 0.000000 1.000000
tan 0.000000 -1.000000 0.000000 1.000000
tan 0.000000 -1.000000 0.000000 1.000000
tan 0.000000 -1.000000 0.000000 1.000000
tan 0.000000 -1.000000 0.000000 1.000000
tan 0.000000 -1.000000 0.000000 1.000000
tan 0.000000 -1.000000 0.000000 1.000000
tan 0.000000 -1.000000 0.000000 1.000000
tan 0.000000 -1.000000 0.000000 1.000000
tan 0.000000 -1.000000 0.000000 1.000000
tan 0.000000 -1.000000 0.000000 1.000000
tan 0.000000 -1.000000 0.000000 1.000000
tan 0.000000 -1.000000 0.000000 1.000000
tan 0.000000 -1.000000 0.000000 1.000000
tan 0.000000 0.000000 1.000000 1.000000
tan 0.000000 0.000000 1.000000 1.000000
tan 0.000000 0.000000 1.000000 1.000000
tan 0.000000 0.000000 1.000000 1.000000
tan 0.000000 0.000000 1.000000 1.000000
tan 0.000000 0.000000 1.000000 1.000000
tan 0.000000 0.000000 1.000000 1.000000
tan 0.000000 0.000000 1.000000 1.000000
tan 0.000000 0.000000 1.000000 1.000000
tan 0.000000 0.000000 1.000000 1.000000
tan 0.000000 0.000000 1.000000 1.000000
tan 0.000000 0.000000 1.000000 1.000000
tan 0.000000 0.000000 1.000000 1.000000
tan 0.000000 0.000000 1.000000 1.000000
tan 0.000000 0.000000 1.000000 1.000000
tan 0.000000 0.000000 1.000000 1.000000
tan 0.000000 0.000000 1.000000 1.000000
tan 0.000000 0.000000 1.000000 1.000000
tan 0.000000 0.000000 1.000000 1.000000
tan 0.000000 0.000000 1.000000 1.000000
tan 0.000000 0.000000 1.000000 1.000000
tan 0.000000 0.000000 1.000000 1.000000
tan 0.000000 0.000000 1.000000 1.000000
tan 0.000000 0.000000 1.000000 1.000000
tan 0.000000 0.000000 1.000000 1.000000
tan 0.000000 0.000000 1.000000 1.000000
tan 0.000000 0.000000 1.000000 1.000000
tan 0.000000 0.000000 1.000000 1.000000
tan 0.000000 0.000000 1.000000 1.000000
tan 0.000000 0.000000 1.000000 1.000000
tan 0.000000 0.000000 1.000000 1.000000
tan 0.000000 0.000000 1.000000 1.000000
tan 0.000000 -0.000000 -1.000000 1.000000
tan 0.000000 -0.000000 -1.000000 1.000000
tan 0.000000 -0.000000 -1.000000 1.000000
tan 0.000000 -0.000000 -1.000000 1.000000
tan 0.000000 -0.000000 -1.000000 1.000000
tan 0.000000 -0.000000 -1.000000 1.000000
tan 0.000000 -0.000000 -1.000000 1.000000
tan 0.000000 -0.000000 -1.000000 1.000000
tan 0.000000 -0.000000 -1.000000 1.000000
tan 0.000000 -0.000000 -1.000000 1.000000
tan 0.000000 -0.000000 -1.000000 1.000000
tan 0.000000 -0.000000 -1.000000 1.000000
tan 0.000000 -0.000000 -1.000000 1.000000
tan 0.000000 -0.000000 -1.000000 1.000000
tan 0.000000 -0.000000 -1.000000 1.000000
tan 0.000000 -0.000000 -1.000000 1.000000
tan 0.000000 -0.000000 -1.000000 1.000000
tan 0.000000 -0.000000 -1.000000 1.000000
tan 0.000000 -0.000000 -1.000000 1.000000
tan 0.000000 -0.000000 -1.000000 1.000000
tan 0.000000 -0.000000 -1.000000 1.000000
tan 0.000000 -0.000000 -1.000000 1.000000
tan 0.000000 -0.000000 -1.000000 1.000000
tan 0.000000 -0.000000 -1.000000 1.000000
tan 0.000000 -0.000000 -1.000000 1.000000
tan 0.000000 -0.000000 -1.000000 1.000000
tan 0.000000 -0.000000 -1.000000 1.000000
tan 0.000000 -0.000000 -1.000000 1.000000
tan 0.000000 -0.000000 -1.000000 1.000000
tan 0.000000 -0.000000 -1.000000 1.000000
tan 0.000000 -0.000000 -1.000000 1.000000
tan 0.000000 -0.000000 -1.000000 1.000000
tan 0.000000 1.000000 -0.000000 1.000000
tan 0.000000 1.000000 -0.000000 1.000000
tan 0.000000 1.000000 -0.000000 1.000000
tan 0.000000 1.000000 -0.000000 1.000000
tan 0.000000 -1.000000 0.000000 1.000000
tan 0.000000 -1.000000 0.000000 1.000000
tan 0.000000 -1.000000 0.000000 1.000000
tan 0.000000 -1.000000 0.000000 1.000000
tan 1.000000 0.000000 0.000000 1.000000
tan 1.000000 0.000000 0.000000 1.000000
tan 1.000000 0.000000 0.000000 1.000000
tan 1.000000 0.000000 0.000000 1.000000
tan 1.000000 0.000000 0.000000 1.000000
tan 1.000000 0.000000 0.000000 1.000000
tan 1.000000 0.000000 0.000000 1.000000
tan 1.000000 0.000000 0.000000 1.000000
tan 0.961808 0.000000 0.000000 1.000000
tan 0.961808 0.000000 0.000000 1.000000
tan 0.961808 0.000000 0.000000 1.000000
tan 0.961808 0.000000 0.000000 1.000000
tan 0.000000 0.566929 -0.826772 1.000000
tan 0.000000 0.566929 -0.826772 1.000000
tan 0.000000 0.566929 -0.826772 1.000000
tan 0.000000 0.566929 -0.826772 1.000000
tan 0.000000 -0.000000 -1.000000 1.000000
tan 0.000000 -0.000000 -1.000000 1.000000
tan 0.000000 -0.000000 -1.000000 1.000000
tan 0.000000 -0.000000 -1.000000 1.000000
tan 0.000000 -0.000000 -1.000000 1.000000
tan 0.000000 -0.000000 -1.000000 1.000000
tan 0.000000 -0.000000 -1.000000 1.000000
tan 0.000000 -0.000000 -1.000000 1.000000
tan 0.000000 0.000000 1.000000 1.000000
tan 0.000000 0.000000 1.000000 1.000000
tan 0.000000 0.000000 1.000000 1.000000
tan 0.393701 0.000000 0.921260 1.000000
tan 0.000000 -1.000000 0.000000 1.000000
tan -0.047244 -1.000000 0.000000 1.000000
tan 0.000000 -1.000000 0.000000 1.000000
tan 0.000000 -0.992126 0.110236 1.000000
tan 0.000000 -1.000000 0.000000 1.000000
tan 0.000000 -1.000000 0.000000 1.000000
tan 0.000000 -1.000000 0.000000 1.000000
tan 0.015748 -1.000000 0.000000 1.000000
tan 0.007874 -1.000000 0.000000 1.000000
tan 0.007874 -1.000000 0.000000 1.000000
tan -0.070866 -1.000000 0.000000 1.000000
tan 0.000000 -0.559055 0.826772 1.000000
tan 0.000000 -0.960630 0.283465 1.000000
tan 0.000000 -1.000000 -0.015748 1.000000
tan 0.000000 -1.000000 -0.023622 1.000000
tan 0.234918 -0.541447 0.800732 1.000000
tan 0.000000 -0.559055 0.826772 1.000000
tan 0.000000 -0.992126 0.149606 1.000000
tan 0.000000 -0.763779 0.645669 1.000000
tan 0.191456 -0.545849 0.807242 1.000000
tan 0.000000 -0.826772 -0.559055 1.000000
tan 0.000000 -0.992126 -0.118110 1.000000
tan -0.023932 -0.826772 -0.559055 1.000000
tan 0.000000 -0.826772 -0.559055 1.000000
tan 0.000000 -0.929134 -0.377953 1.000000
tan -0.652675 -0.690185 -0.292702 1.000000
tan -0.078120 -0.723541 -0.693781 1.000000
tan 0.000000 -0.000000 -1.000000 1.000000
tan 0.000000 -0.000000 -1.000000 1.000000
tan 0.000000 0.000000 1.000000 1.000000
tan 0.000000 0.000000 1.000000 1.000000
tan 0.000000 0.000000 1.000000 1.000000
tan 0.000000 0.000000 1.000000 1.000000
tan 0.000000 0.000000 1.000000 1.000000
tan 0.000000 0.000000 1.000000 1.000000
tan 0.000000 0.000000 1.000000 1.000000
tan 0.000000 0.385827 0.921260 1.000000
tan 0.000000 0.000000 1.000000 1.000000
tan 0.004464 0.070866 1.000000 1.000000
tan 0.000000 0.000000 1.000000 1.000000
tan -0.566929 0.000000 0.826772 1.000000
tan 0.000000 0.000000 1.000000 1.000000
tan 0.000000 0.000000 1.000000 1.000000
tan 0.000000 0.000000 1.000000 1.000000
tan 0.000000 0.000000 1.000000 1.000000
tan 0.000000 0.000000 1.000000 1.000000
tan -0.393701 0.000000 0.921260 1.000000
tan 0.047244 -1.000000 0.000000 1.000000
tan 0.000000 -1.000000 0.000000 1.000000
tan 0.000000 -1.000000 0.000000 1.000000
tan -0.007440 -0.992126 0.078120 1.000000
tan 0.000000 -1.000000 0.000000 1.000000
tan 0.000000 -1.000000 0.000000 1.000000
tan 0.000000 -1.000000 0.000000 1.000000
tan -0.015748 -1.000000 0.000000 1.000000
tan 0.000000 -0.984252 0.196850 1.000000
tan 0.000000 -1.000000 -0.023622 1.000000
tan 0.062992 -1.000000 0.000000 1.000000
tan -0.007874 -1.000000 0.000000 1.000000
tan -0.007874 -1.000000 0.000000 1.000000
tan -0.234918 -0.541447 0.800732 1.000000
tan 0.000000 -0.559055 0.826772 1.000000
tan 0.000000 -0.779527 0.622047 1.000000
tan 0.000000 -0.992126 0.149606 1.000000
tan -0.197966 -0.545849 0.807242 1.000000
tan 0.000000 -0.559055 0.826772 1.000000
tan 0.000000 -0.992126 -0.118110 1.000000
tan 0.023932 -0.826772 -0.559055 1.000000
tan 0.000000 -0.826772 -0.559055 1.000000
tan 0.000000 -0.929134 -0.377953 1.000000
tan 0.748217 -0.330771 -0.537913 1.000000
tan 0.071052 -0.803150 -0.598425 1.000000
tan 0.000000 -0.826772 -0.559055 1.000000
tan 0.007874 -0.000000 -1.000000 1.000000
tan 0.007874 -0.000000 -1.000000 1.000000
tan 0.000000 1.000000 -0.000000 1.000000
tan 0.000000 0.992126 0.118110 1.000000
tan -0.006076 0.948602 0.014508 1.000000
tan -0.062992 1.000000 -0.000000 1.000000
tan -0.007874 1.000000 -0.000000 1.000000
tan 0.393701 0.000000 0.921260 1.000000
tan 0.062992 1.000000 -0.000000 1.000000
tan 0.007874 1.000000 -0.000000 1.000000
tan 0.004092 0.985616 0.023250 1.000000
tan -0.009920 0.992126 0.078120 1.000000
tan -0.393701 0.000000 0.921260 1.000000
tan 0.000000 0.000000 1.000000 1.000000
tan 0.000000 0.000000 1.000000 1.000000
tan 0.000000 -1.000000 0.000000 1.000000
tan 0.000000 -1.000000 0.000000 1.000000
tan -0.031496 -0.000000 -1.000000 1.000000
tan -0.543307 -0.000000 -0.842520 1.000000
tan -0.118110 0.078120 -0.992126 1.000000
tan -0.030256 0.283464 -0.960630 1.000000
tan 0.007006 0.464567 -0.889764 1.000000
tan 0.030752 0.976378 -0.236221 1.000000
tan 0.048112 0.834646 0.551181 1.000000
tan 0.030628 0.834646 0.551181 1.000000
tan 0.000000 0.740157 0.677165 1.000000
tan -0.006448 0.818898 0.574803 1.000000
tan 0.000000 0.472441 0.881890 1.000000
tan -0.037200 0.834646 0.551181 1.000000
tan -0.061256 0.834646 0.551181 1.000000
tan -0.012896 0.818897 -0.574803 1.000000
tan -0.023870 0.574803 -0.818898 1.000000
tan 0.077500 0.181102 -0.984252 1.000000
tan 0.038750 0.188976 -0.984252 1.000000
tan 0.015748 -0.000000 -1.000000 1.000000
tan 0.519685 -0.000000 -0.858268 1.000000
tan -0.007874 -1.000000 0.000000 1.000000
tan 0.007874 -1.000000 0.000000 1.000000
tan 0.016492 -1.000000 -0.047244 1.000000
tan -0.273421 -0.801786 -0.529481 1.000000
tan -0.008494 -1.000000 0.078740 1.000000
tan 0.007874 -1.000000 -0.070866 1.000000
tan 0.000000 -1.000000 -0.070866 1.000000
tan -0.924794 -0.096720 -0.180544 1.000000
tan -0.111600 -0.703081 0.703081 1.000000
tan 0.000000 -1.000000 -0.070866 1.000000
tan 0.519685 -0.000000 -0.858268 1.000000
tan -0.094488 -0.992126 0.000000 1.000000
tan 0.023622 -1.000000 0.031496 1.000000
tan -0.007874 -1.000000 0.000000 1.000000
tan -0.543307 -0.000000 -0.842520 1.000000
tan 0.015748 -0.000000 -1.000000 1.000000
tan -0.031496 -0.000000 -1.000000 1.000000
tan -0.007874 -1.000000 0.000000 1.000000
tan 0.000000 -1.000000 0.000000 1.000000
tan -0.007874 -1.000000 -0.062992 1.000000
tan 0.000000 -1.000000 0.015748 1.000000
tan 0.016368 -0.992126 0.094488 1.000000
tan -0.023994 -1.000000 -0.023622 1.000000
tan 0.286565 -0.795214 -0.525141 1.000000
tan 0.000000 -1.000000 -0.062992 1.000000
tan -0.404179 -0.886478 -0.098580 1.000000
tan -0.953066 -0.281232 0.143716 1.000000
tan 0.457561 -0.792548 0.070742 1.000000
tan 0.000000 -1.000000 0.062992 1.000000
tan -0.457561 -0.792548 0.070742 1.000000
tan 0.000000 -1.000000 0.062992 1.000000
tan 0.953066 -0.281232 0.143716 1.000000
tan 0.000000 -1.000000 -0.062992 1.000000
tan 0.396553 -0.886478 -0.096720 1.000000
tan 0.000000 -1.000000 0.062992 1.000000
tan 0.404179 -0.886478 0.098580 1.000000
tan 0.953066 -0.281233 -0.143716 1.000000
tan -0.457561 -0.792548 -0.070742 1.000000
tan 0.000000 -1.000000 -0.062992 1.000000
tan 0.457561 -0.792548 -0.070742 1.000000
tan 0.000000 -1.000000 -0.062992 1.000000
tan -0.953066 -0.281233 -0.143716 1.000000
tan 0.000000 -1.000000 0.062992 1.000000
tan -0.404179 -0.886478 0.098580 1.000000
tan -1.000000 0.000000 0.000000 1.000000
tan -1.000000 0.000000 0.000000 1.000000
tan -1.000000 0.000000 0.000000 1.000000
tan -1.000000 0.000000 0.000000 1.000000
tan 1.000000 0.000000 0.007874 1.000000
tan 1.000000 0.000000 0.007874 1.000000
tan 1.000000 0.000000 0.000000 1.000000
tan 1.000000 0.000000 0.000000 1.000000
tan 0.000000 -0.000000 -1.000000 1.000000
tan 0.000000 -0.000000 -1.000000 1.000000
tan 0.000000 -0.000000 -1.000000 1.000000
tan 0.000000 -0.000000 -1.000000 1.000000
tan -1.000000 0.000000 0.000000 1.000000
tan -1.000000 0.000000 0.000000 1.000000
tan -1.000000 0.000000 0.000000 1.000000
tan -1.000000 0.000000 0.000000 1.000000
tan 0.000000 0.000000 1.000000 1.000000
tan 0.000000 0.000000 1.000000 1.000000
tan 0.000000 0.000000 1.000000 1.000000
tan 0.000000 0.000000 1.000000 1.000000
tan 0.105338 -0.921818 0.367165 1.000000
tan -0.541323 -0.760865 0.303057 1.000000
tan -0.031620 -1.000000 -0.015748 1.000000
tan 0.012648 -0.944882 0.330709 1.000000
tan -0.013392 -0.992126 -0.141732 1.000000
tan 0.111538 -0.992126 0.054684 1.000000
tan 0.615103 -0.607601 -0.502201 1.000000
tan 0.023622 -1.000000 0.086614 1.000000
tan -0.371691 -0.883502 -0.137454 1.000000
tan 0.243164 -0.912890 0.124744 1.000000
tan 0.031496 -1.000000 0.000000 1.000000
tan 0.523777 -0.775497 0.308885 1.000000
tan 0.196044 -0.907186 0.361337 1.000000
tan -0.008246 -1.000000 0.023622 1.000000
tan 0.014508 -0.992126 -0.141732 1.000000
tan -0.604005 -0.613677 -0.507223 1.000000
tan -0.104036 -0.992126 0.070308 1.000000
tan -0.023436 -0.992126 0.086614 1.000000
tan 0.362825 -0.901482 -0.114452 1.000000
tan -0.236096 -0.909046 0.119474 1.000000
tan 0.000000 -0.968504 -0.251968 1.000000
tan 0.000000 -0.984252 -0.165354 1.000000
tan 0.000000 0.196850 -0.984252 1.000000
tan 0.000000 0.196850 -0.984252 1.000000
tan 0.000000 0.196850 -0.976378 1.000000
tan 0.000000 0.196850 -0.976378 1.000000
tan 0.000000 -0.771653 -0.637795 1.000000
tan 0.000000 -0.771653 -0.637795 1.000000
tan 0.000000 -0.771653 -0.629921 1.000000
tan 0.000000 -0.787401 -0.614173 1.000000
tan 0.000000 -0.929134 0.370079 1.000000
tan 0.000000 -0.929134 0.370079 1.000000
tan 0.000000 -0.929134 0.370079 1.000000
tan 0.000000 -0.929134 0.370079 1.000000
tan 0.000000 0.724409 0.692913 1.000000
tan 0.000000 0.716535 0.692913 1.000000
tan 0.000000 0.716535 0.692913 1.000000
tan 0.000000 0.716535 0.692913 1.000000
tan 0.000000 -0.968504 0.259843 1.000000
tan 0.000000 -0.984252 0.181102 1.000000
tan 0.685039 0.000000 0.732283 1.000000
tan 0.992126 -0.000000 -0.125984 1.000000
tan 1.000000 -0.047244 -0.000744 1.000000
tan 0.968504 0.244094 -0.000000 1.000000
tan 0.968504 -0.236220 0.000000 1.000000
tan 1.000000 0.070866 -0.010106 1.000000
tan 0.982082 0.128340 -0.128340 1.000000
tan 0.624961 -0.552421 0.552421 1.000000
tan 0.000000 -0.220472 0.976378 1.000000
tan -0.732283 0.000000 0.677165 1.000000
tan 0.000000 0.228347 0.976378 1.000000
tan 0.000000 -0.212598 0.976378 1.000000
tan -0.860252 0.480501 0.095294 1.000000
tan 0.000000 0.251969 0.968504 1.000000
tan -0.976378 -0.220472 0.000000 1.000000
tan -0.960878 -0.257796 -0.034224 1.000000
tan -0.708661 -0.000000 -0.708661 1.000000
tan -0.968504 0.259842 -0.000000 1.000000
tan 0.301321 0.675181 -0.675181 1.000000
tan -0.002418 0.102362 -0.992126 1.000000
tan 0.000000 0.275590 -0.960630 1.000000
tan 0.000000 -0.228347 -0.976378 1.000000
tan -0.055118 -0.000000 -1.000000 1.000000
tan 0.000000 -0.000000 -1.000000 1.000000
tan -0.466489 -0.785169 -0.321408 1.000000
tan 0.798252 -0.554839 0.234361 1.000000
tan 0.000000 -1.000000 -0.062992 1.000000
tan 0.000000 -1.000000 0.062992 1.000000
tan -0.798252 -0.554839 0.234361 1.000000
tan 0.000000 -1.000000 0.062992 1.000000
tan 0.466489 -0.785169 -0.321408 1.000000
tan 0.000000 -1.000000 -0.062992 1.000000
tan -0.452477 -0.795337 -0.292144 1.000000
tan 0.777792 -0.570215 0.241987 1.000000
tan 0.000000 -1.000000 -0.062992 1.000000
tan 0.000000 -1.000000 0.062992 1.000000
tan -0.777792 -0.570215 0.241987 1.000000
tan 0.000000 -1.000000 0.062992 1.000000
tan 0.452477 -0.795337 -0.292144 1.000000
tan 0.000000 -1.000000 -0.062992 1.000000
tan 0.466489 -0.785169 0.321409 1.000000
tan -0.798252 -0.554839 -0.234360 1.000000
tan 0.000000 -1.000000 0.062992 1.000000
tan 0.000000 -1.000000 -0.062992 1.000000
tan 0.798252 -0.554839 -0.234360 1.000000
tan 0.000000 -1.000000 -0.062992 1.000000
tan -0.466489 -0.785169 0.321409 1.000000
tan 0.000000 -1.000000 0.062992 1.000000
tan 0.452477 -0.795337 0.292145 1.000000
tan -0.777792 -0.570215 -0.241986 1.000000
tan 0.000000 -1.000000 0.062992 1.000000
tan 0.000000 -1.000000 -0.062992 1.000000
tan 0.777792 -0.570215 -0.241986 1.000000
tan 0.000000 -1.000000 -0.062992 1.000000
tan -0.452477 -0.795337 0.292145 1.000000
tan 0.000000 -1.000000 0.062992 1.000000
tan 0.000000 -0.039370 -1.000000 1.000000
tan -0.317317 -0.417571 -0.839419 1.000000
tan -0.263749 -0.637609 -0.673259 1.000000
tan 0.000000 -0.433071 -0.905512 1.000000
tan 0.164920 -0.875442 -0.385331 1.000000
tan 0.000000 -0.976378 -0.212598 1.000000
tan 0.000000 -0.984252 0.173228 1.000000
tan 0.294067 -0.944014 -0.109430 1.000000
tan 0.000000 -1.000000 0.000000 1.000000
tan 0.000000 -0.945936 0.000000 1.000000
tan 0.000000 -0.941038 0.000000 1.000000
tan 0.000000 -0.974642 0.000000 1.000000
tan 0.000000 -1.000000 0.000000 1.000000
tan 0.000000 -1.000000 0.000000 1.000000
tan 0.000000 -1.000000 0.000000 1.000000
tan 0.000000 -1.000000 0.000000 1.000000
tan 0.000000 -0.917478 0.000000 1.000000
tan 0.000000 -0.907682 0.000000 1.000000
tan 0.000000 -0.906752 0.000000 1.000000
tan 0.000000 -0.945688 0.000000 1.000000
tan 0.000000 -1.000000 0.000000 1.000000
tan 0.000000 -1.000000 0.000000 1.000000
tan 0.000000 -1.000000 0.000000 1.000000
tan 0.000000 -1.000000 0.000000 1.000000
tan 0.000000 -1.000000 0.000000 1.000000
tan 0.000000 -1.000000 0.000000 1.000000
tan 0.000000 -1.000000 0.000000 1.000000
tan 0.000000 -0.979974 0.000000 1.000000
tan 0.000000 -1.000000 0.000000 1.000000
tan 0.000000 -1.000000 0.000000 1.000000
tan 0.000000 -1.000000 0.000000 1.000000
tan 0.000000 -1.000000 0.000000 1.000000
tan 0.000000 -0.917478 0.000000 1.000000
tan 0.000000 -0.907682 0.000000 1.000000
tan 0.000000 -0.906752 0.000000 1.000000
tan 0.000000 -0.945688 0.000000 1.000000
tan 0.000000 -1.000000 0.000000 1.000000
tan 0.000000 -1.000000 0.000000 1.000000
tan 0.000000 -0.972472 0.000000 1.000000
tan 0.000000 -0.943890 0.000000 1.000000
tan 0.091636 -0.526877 -0.789509 1.000000
tan 0.364375 -0.391965 -0.837745 1.000000
tan 0.000000 -0.039370 -1.000000 1.000000
tan 0.000000 -0.433071 -0.897638 1.000000
tan -0.150288 -0.863786 -0.408829 1.000000
tan 0.000000 -0.976378 -0.212598 1.000000
tan 0.000000 -0.984252 0.173228 1.000000
tan -0.276459 -0.951392 -0.095976 1.000000
tan -0.001488 0.992126 -0.015624 1.000000
tan 0.007874 1.000000 -0.062992 1.000000
tan 0.000000 1.000000 0.047244 1.000000
tan -0.005022 0.985678 0.015562 1.000000
tan 0.015748 1.000000 -0.000000 1.000000
tan -0.015748 1.000000 -0.000000 1.000000
tan 0.070866 1.000000 -0.000000 1.000000
tan -0.070866 1.000000 -0.000000 1.000000
tan -0.010602 1.000000 0.086614 1.000000
tan 0.011966 1.000000 -0.086614 1.000000
tan 0.000000 1.000000 0.015748 1.000000
tan -0.007874 1.000000 -0.015748 1.000000
tan 0.992126 0.000000 0.000000 1.000000
tan 1.000000 0.000000 0.000000 1.000000
tan 1.000000 0.000000 0.000000 1.000000
tan 0.978052 0.000000 0.000000 1.000000
tan 1.000000 0.000000 0.000000 1.000000
tan 1.000000 0.000000 0.000000 1.000000
tan 1.000000 0.000000 0.000000 1.000000
tan 1.000000 0.000000 0.000000 1.000000
tan 1.000000 0.000000 0.000000 1.000000
tan 1.000000 0.000000 0.000000 1.000000
tan 1.000000 0.000000 0.000000 1.000000
tan 1.000000 0.000000 0.000000 1.000000
tan -0.001488 0.992126 0.015624 1.000000
tan 0.007874 1.000000 0.062992 1.000000
tan 0.000000 1.000000 -0.047244 1.000000
tan -0.003596 0.985678 -0.023312 1.000000
tan 0.015748 1.000000 -0.000000 1.000000
tan -0.015748 1.000000 -0.000000 1.000000
tan 0.070866 1.000000 -0.000000 1.000000
tan -0.070866 1.000000 -0.000000 1.000000
tan -0.010602 1.000000 -0.086614 1.000000
tan 0.011966 1.000000 0.086614 1.000000
tan 0.000000 1.000000 -0.015748 1.000000
tan -0.007874 1.000000 0.015748 1.000000
tan 0.992126 0.000000 0.000000 1.000000
tan 1.000000 0.000000 0.000000 1.000000
tan 1.000000 0.000000 0.000000 1.000000
tan 0.978052 0.000000 0.000000 1.000000
tan 1.000000 0.000000 0.000000 1.000000
tan 1.000000 0.000000 0.000000 1.000000
tan 1.000000 0.000000 0.000000 1.000000
tan 1.000000 0.000000 0.000000 1.000000
tan 1.000000 0.000000 0.000000 1.000000
tan 1.000000 0.000000 0.000000 1.000000
tan 1.000000 0.000000 0.000000 1.000000
tan 1.000000 0.000000 0.000000 1.000000
tan 1.000000 -0.000868 0.015748 1.000000
tan 0.931862 -0.059334 -0.087420 1.000000
tan 0.960010 0.012090 0.037510 1.000000
tan 0.992126 0.010292 -0.023436 1.000000
tan 1.000000 0.000000 0.000000 1.000000
tan 1.000000 0.000000 0.000000 1.000000
tan 1.000000 -0.062992 0.000000 1.000000
tan 1.000000 0.062992 -0.000000 1.000000
tan 1.000000 0.009920 0.086614 1.000000
tan 0.992126 -0.014260 -0.102362 1.000000
tan 0.992126 -0.011222 0.086614 1.000000
tan 0.992126 0.011532 -0.094488 1.000000
tan 1.000000 0.070866 -0.000000 1.000000
tan 1.000000 -0.070866 0.000000 1.000000
tan 1.000000 0.015748 -0.000000 1.000000
tan 1.000000 -0.039370 0.000000 1.000000
tan 1.000000 -0.000868 -0.015748 1.000000
tan 0.928018 -0.070928 0.097960 1.000000
tan 0.959824 0.011780 -0.037510 1.000000
tan 0.992126 0.010292 0.023436 1.000000
tan 1.000000 0.000000 0.000000 1.000000
tan 1.000000 0.000000 0.000000 1.000000
tan 1.000000 -0.062992 0.000000 1.000000
tan 1.000000 0.055118 -0.000000 1.000000
tan 1.000000 0.009920 -0.086614 1.000000
tan 0.992126 -0.014260 0.102362 1.000000
tan 0.992126 -0.011222 -0.086614 1.000000
tan 0.992126 0.011532 0.094488 1.000000
tan 1.000000 0.070866 -0.000000 1.000000
tan 1.000000 -0.070866 0.000000 1.000000
tan 1.000000 0.015748 -0.000000 1.000000
tan 1.000000 -0.039370 0.000000 1.000000
f 3/3/3 2/2/2 1/1/1
f 1/1/1 4/4/4 3/3/3
f 7/7/7 6/6/6 5/5/5
f 10/10/10 9/9/9 8/8/8
f 13/13/13 12/12/12 11/11/11
f 13/13/13 15/15/15 14/14/14
f 15/15/15 16/16/16 14/14/14
f 19/19/19 18/18/18 17/17/17
f 19/19/19 21/21/21 20/20/20
f 21/21/21 22/22/22 20/20/20
f 25/25/25 24/24/24 23/23/23
f 23/23/23 26/26/26 25/25/25
f 29/29/29 28/28/28 27/27/27
f 27/27/27 30/30/30 29/29/29
f 33/33/33 32/32/32 31/31/31
f 31/31/31 34/34/34 33/33/33
f 37/37/37 36/36/36 35/35/35
f 35/35/35 38/38/38 37/37/37
f 41/41/41 40/40/40 39/39/39
f 39/39/39 42/42/42 41/41/41
f 45/45/45 44/44/44 43/43/43
f 43/43/43 46/46/46 45/45/45
f 49/49/49 48/48/48 47/47/47
f 47/47/47 50/50/50 49/49/49
f 53/53/53 52/52/52 51/51/51
f 51/51/51 54/54/54 53/53/53
f 57/57/57 56/56/56 55/55/55
f 55/55/55 58/58/58 57/57/57
f 61/61/61 60/60/60 59/59/59
f 59/59/59 62/62/62 61/61/61
f 65/65/65 64/64/64 63/63/63
f 63/63/63 66/66/66 65/65/65
f 69/69/69 68/68/68 67/67/67
f 67/67/67 70/70/70 69/69/69
f 73/73/73 72/72/72 71/71/71
f 71/71/71 74/74/74 73/73/73
f 77/77/77 76/76/76 75/75/75
f 75/75/75 78/78/78 77/77/77
f 81/81/81 80/80/80 79/79/79
f 79/79/79 82/82/82 81/81/81
f 85/85/85 84/84/84 83/83/83
f 83/83/83 86/86/86 85/85/85
f 89/89/89 88/88/88 87/87/87
f 87/87/87 90/90/90 89/89/89
f 93/93/93 92/92/92 91/91/91
f 91/91/91 94/94/94 93/93/93
f 97/97/97 96/96/96 95/95/95
f 95/95/95 98/98/98 97/97/97
f 101/101/101 100/100/100 99/99/99
f 99/99/99 102/102/102 101/101/101
f 105/105/105 104/104/104 103/103/103
f 103/103/103 106/106/106 105/105/105
f 109/109/109 108/108/108 107/107/107
f 107/107/107 110/110/110 109/109/109
f 113/113/113 112/112/112 111/111/111
f 111/111/111 114/114/114 113/113/113
f 117/117/117 116/116/116 115/115/115
f 115/115/115 118/118/118 117/117/117
f 121/121/121 120/120/120 119/119/119
f 119/119/119 122/122/122 121/121/121
f 125/125/125 124/124/124 123/123/123
f 123/123/123 126/126/126 125/125/125
f 129/129/129 128/128/128 127/127/127
f 131/131/131 127/127/127 130/130/130
f 131/131/131 129/129/129 127/127/127
f 131/131/131 132/132/132 129/129/129
f 132/132/132 133/133/133 129/129/129
f 131/131/131 134/134/134 132/132/132
f 137/137/137 136/136/136 135/135/135
f 135/135/135 138/138/138 137/137/137
f 139/139/139 137/137/137 138/138/138
f 138/138/138 140/140/140 139/139/139
f 139/139/139 140/140/140 141/141/141
f 142/142/142 140/140/140 138/138/138
f 140/140/140 143/143/143 141/141/141
f 143/143/143 145/145/145 144/144/144
f 143/143/143 140/140/140 145/145/145
f 146/146/146 145/145/145 140/140/140
f 148/148/148 147/147/147 146/146/146
f 146/146/146 149/149/149 148/148/148
f 140/140/140 149/149/149 146/146/146
f 150/150/150 148/148/148 149/149/149
f 140/140/140 142/142/142 151/151/151
f 151/151/151 149/149/149 140/140/140
f 151/151/151 142/142/142 152/152/152
f 152/152/152 153/153/153 151/151/151
f 149/149/149 154/154/154 150/150/150
f 154/154/154 149/149/149 151/151/151
f 155/155/155 150/150/150 154/154/154
f 151/151/151 157/157/157 156/156/156
f 154/154/154 158/158/158 155/155/155
f 159/159/159 155/155/155 158/158/158
f 154/154/154 151/151/151 160/160/160
f 160/160/160 158/158/158 154/154/154
f 156/156/156 160/160/160 151/151/151
f 158/158/158 161/161/161 159/159/159
f 160/160/160 161/161/161 158/158/158
f 162/162/162 159/159/159 161/161/161
f 163/163/163 160/160/160 156/156/156
f 156/156/156 164/164/164 163/163/163
f 165/165/165 161/161/161 160/160/160
f 160/160/160 163/163/163 165/165/165
f 161/161/161 165/165/165 162/162/162
f 165/165/165 163/163/163 164/164/164
f 166/166/166 162/162/162 165/165/165
f 165/165/165 164/164/164 167/167/167
f 167/167/167 166/166/166 165/165/165
f 170/170/170 169/169/169 168/168/168
f 171/171/171 170/170/170 168/168/168
f 168/168/168 172/172/172 171/171/171
f 171/171/171 172/172/172 173/173/173
f 173/173/173 174/174/174 171/171/171
f 177/177/177 176/176/176 175/175/175
f 178/178/178 177/177/177 175/175/175
f 175/175/175 179/179/179 178/178/178
f 178/178/178 179/179/179 180/180/180
f 180/180/180 181/181/181 178/178/178
f 184/184/184 183/183/183 182/182/182
f 182/182/182 185/185/185 184/184/184
f 186/186/186 185/185/185 182/182/182
f 182/182/182 187/187/187 186/186/186
f 188/188/188 186/186/186 187/187/187
f 185/185/185 186/186/186 189/189/189
f 188/188/188 190/190/190 186/186/186
f 190/190/190 192/192/192 191/191/191
f 191/191/191 186/186/186 190/190/190
f 186/186/186 191/191/191 193/193/193
f 195/195/195 189/189/189 194/194/194
f 186/186/186 194/194/194 189/189/189
f 193/193/193 196/196/196 186/186/186
f 194/194/194 186/186/186 196/196/196
f 193/193/193 198/198/198 197/197/197
f 197/197/197 196/196/196 193/193/193
f 199/199/199 196/196/196 197/197/197
f 194/194/194 196/196/196 199/199/199
f 197/197/197 200/200/200 199/199/199
f 202/202/202 201/201/201 194/194/194
f 203/203/203 199/199/199 200/200/200
f 200/200/200 204/204/204 203/203/203
f 205/205/205 194/194/194 199/199/199
f 199/199/199 203/203/203 205/205/205
f 194/194/194 205/205/205 202/202/202
f 206/206/206 203/203/203 204/204/204
f 203/203/203 206/206/206 205/205/205
f 204/204/204 207/207/207 206/206/206
f 202/202/202 205/205/205 208/208/208
f 208/208/208 209/209/209 202/202/202
f 205/205/205 206/206/206 210/210/210
f 210/210/210 208/208/208 205/205/205
f 210/210/210 206/206/206 207/207/207
f 209/209/209 208/208/208 210/210/210
f 207/207/207 211/211/211 210/210/210
f 211/211/211 212/212/212 210/210/210
f 209/209/209 210/210/210 212/212/212
f 212/212/212 213/213/213 209/209/209
f 216/216/216 215/215/215 214/214/214
f 217/217/217 215/215/215 216/216/216
f 216/216/216 218/218/218 217/217/217
f 215/215/215 217/217/217 219/219/219
f 220/220/220 217/217/217 218/218/218
f 219/219/219 217/217/217 220/220/220
f 218/218/218 221/221/221 220/220/220
f 220/220/220 221/221/221 222/222/222
f 222/222/222 223/223/223 220/220/220
f 224/224/224 220/220/220 223/223/223
f 220/220/220 224/224/224 219/219/219
f 219/219/219 224/224/224 225/225/225
f 225/225/225 226/226/226 219/219/219
f 228/228/228 227/227/227 144/144/144
f 144/144/144 192/192/192 228/228/228
f 231/231/231 230/230/230 229/229/229
f 229/229/229 232/232/232 231/231/231
f 233/233/233 231/231/231 232/232/232
f 232/232/232 234/234/234 233/233/233
f 235/235/235 233/233/233 234/234/234
f 235/235/235 234/234/234 236/236/236
f 236/236/236 237/237/237 235/235/235
f 238/238/238 237/237/237 236/236/236
f 238/238/238 239/239/239 237/237/237
f 236/236/236 240/240/240 238/238/238
f 241/241/241 238/238/238 240/240/240
f 240/240/240 242/242/242 241/241/241
f 243/243/243 241/241/241 242/242/242
f 244/244/244 243/243/243 242/242/242
f 242/242/242 245/245/245 244/244/244
f 244/244/244 245/245/245 246/246/246
f 246/246/246 247/247/247 244/244/244
f 167/167/167 213/213/213 212/212/212
f 212/212/212 166/166/166 167/167/167
f 162/162/162 166/166/166 212/212/212
f 212/212/212 211/211/211 162/162/162
f 162/162/162 211/211/211 207/207/207
f 207/207/207 159/159/159 162/162/162
f 155/155/155 159/159/159 207/207/207
f 207/207/207 204/204/204 155/155/155
f 155/155/155 204/204/204 200/200/200
f 200/200/200 150/150/150 155/155/155
f 148/148/148 150/150/150 200/200/200
f 200/200/200 197/197/197 148/148/148
f 148/148/148 197/197/197 198/198/198
f 198/198/198 147/147/147 148/148/148
f 183/183/183 136/136/136 137/137/137
f 137/137/137 182/182/182 183/183/183
f 187/187/187 182/182/182 137/137/137
f 137/137/137 139/139/139 187/187/187
f 187/187/187 139/139/139 248/248/248
f 248/248/248 249/249/249 187/187/187
f 252/252/252 251/251/251 250/250/250
f 252/252/252 250/250/250 253/253/253
f 254/254/254 252/252/252 253/253/253
f 255/255/255 252/252/252 254/254/254
f 254/254/254 256/256/256 255/255/255
f 253/253/253 257/257/257 254/254/254
f 253/253/253 258/258/258 257/257/257
f 254/254/254 259/259/259 256/256/256
f 259/259/259 254/254/254 257/257/257
f 256/256/256 259/259/259 260/260/260
f 258/258/258 261/261/261 257/257/257
f 257/257/257 261/261/261 259/259/259
f 261/261/261 258/258/258 262/262/262
f 262/262/262 258/258/258 263/263/263
f 263/263/263 264/264/264 262/262/262
f 259/259/259 261/261/261 265/265/265
f 262/262/262 265/265/265 261/261/261
f 265/265/265 260/260/260 259/259/259
f 266/266/266 265/265/265 262/262/262
f 266/266/266 262/262/262 267/267/267
f 268/268/268 260/260/260 265/265/265
f 265/265/265 266/266/266 268/268/268
f 268/268/268 266/266/266 267/267/267
f 260/260/260 268/268/268 269/269/269
f 267/267/267 269/269/269 268/268/268
f 270/270/270 269/269/269 267/267/267
f 270/270/270 271/271/271 269/269/269
f 274/274/274 273/273/273 272/272/272
f 272/272/272 273/273/273 275/275/275
f 274/274/274 272/272/272 276/276/276
f 276/276/276 277/277/277 274/274/274
f 275/275/275 278/278/278 272/272/272
f 276/276/276 272/272/272 278/278/278
f 278/278/278 275/275/275 279/279/279
f 277/277/277 276/276/276 280/280/280
f 278/278/278 280/280/280 276/276/276
f 279/279/279 280/280/280 278/278/278
f 280/280/280 281/281/281 277/277/277
f 280/280/280 279/279/279 281/281/281
f 284/284/284 283/283/283 282/282/282
f 282/282/282 283/283/283 285/285/285
f 284/284/284 282/282/282 286/286/286
f 286/286/286 287/287/287 284/284/284
f 285/285/285 288/288/288 282/282/282
f 286/286/286 282/282/282 288/288/288
f 288/288/288 285/285/285 289/289/289
f 287/287/287 286/286/286 290/290/290
f 288/288/288 290/290/290 286/286/286
f 289/289/289 290/290/290 288/288/288
f 290/290/290 291/291/291 287/287/287
f 290/290/290 289/289/289 291/291/291
f 294/294/294 293/293/293 292/292/292
f 292/292/292 295/295/295 294/294/294
f 298/298/298 297/297/297 296/296/296
f 296/296/296 299/299/299 298/298/298
f 300/300/300 298/298/298 299/299/299
f 299/299/299 301/301/301 300/300/300
f 302/302/302 300/300/300 301/301/301
f 301/301/301 303/303/303 302/302/302
f 304/304/304 302/302/302 303/303/303
f 303/303/303 305/305/305 304/304/304
f 306/306/306 304/304/304 305/305/305
f 305/305/305 307/307/307 306/306/306
f 308/308/308 306/306/306 307/307/307
f 307/307/307 309/309/309 308/308/308
f 310/310/310 308/308/308 309/309/309
f 309/309/309 311/311/311 310/310/310
f 314/314/314 313/313/313 312/312/312
f 312/312/312 315/315/315 314/314/314
f 314/314/314 315/315/315 316/316/316
f 315/315/315 318/318/318 317/317/317
f 315/315/315 317/317/317 319/319/319
f 319/319/319 316/316/316 315/315/315
f 320/320/320 316/316/316 319/319/319
f 319/319/319 321/321/321 320/320/320
f 324/324/324 323/323/323 322/322/322
f 322/322/322 325/325/325 324/324/324
f 325/325/325 322/322/322 326/326/326
f 328/328/328 327/327/327 325/325/325
f 329/329/329 328/328/328 325/325/325
f 325/325/325 326/326/326 329/329/329
f 329/329/329 326/326/326 330/330/330
f 330/330/330 331/331/331 329/329/329
f 334/334/334 333/333/333 332/332/332
f 332/332/332 335/335/335 334/334/334
f 334/334/334 335/335/335 336/336/336
f 336/336/336 337/337/337 334/334/334
f 338/338/338 337/337/337 336/336/336
f 336/336/336 339/339/339 338/338/338
f 340/340/340 338/338/338 339/339/339
f 339/339/339 341/341/341 340/340/340
f 342/342/342 340/340/340 341/341/341
f 341/341/341 343/343/343 342/342/342
f 342/342/342 343/343/343 344/344/344
f 344/344/344 345/345/345 342/342/342
f 346/346/346 345/345/345 344/344/344
f 344/344/344 347/347/347 346/346/346
f 346/346/346 347/347/347 348/348/348
f 348/348/348 349/349/349 346/346/346
f 350/350/350 349/349/349 348/348/348
f 348/348/348 351/351/351 350/350/350
f 354/354/354 353/353/353 352/352/352
f 352/352/352 355/355/355 354/354/354
f 354/354/354 355/355/355 356/356/356
f 356/356/356 357/357/357 354/354/354
f 358/358/358 357/357/357 356/356/356
f 356/356/356 359/359/359 358/358/358
f 360/360/360 355/355/355 352/352/352
f 360/360/360 352/352/352 361/361/361
f 362/362/362 356/356/356 355/355/355
f 362/362/362 359/359/359 356/356/356
f 355/355/355 360/360/360 362/362/362
f 359/359/359 362/362/362 363/363/363
f 363/363/363 362/362/362 360/360/360
f 363/363/363 364/364/364 359/359/359
f 360/360/360 365/365/365 363/363/363
f 364/364/364 363/363/363 365/365/365
f 361/361/361 365/365/365 360/360/360
f 365/365/365 366/366/366 364/364/364
f 361/361/361 366/366/366 365/365/365
f 367/367/367 364/364/364 366/366/366
f 366/366/366 361/361/361 368/368/368
f 366/366/366 369/369/369 367/367/367
f 368/368/368 369/369/369 366/366/366
f 371/371/371 370/370/370 367/367/367
f 372/372/372 367/367/367 369/369/369
f 367/367/367 372/372/372 371/371/371
f 368/368/368 373/373/373 369/369/369
f 369/369/369 373/373/373 372/372/372
f 371/371/371 372/372/372 373/373/373
f 373/373/373 368/368/368 374/374/374
f 373/373/373 375/375/375 371/371/371
f 374/374/374 375/375/375 373/373/373
f 378/378/378 377/377/377 376/376/376
f 376/376/376 379/379/379 378/378/378
f 379/379/379 376/376/376 380/380/380
f 377/377/377 378/378/378 381/381/381
f 381/381/381 378/378/378 379/379/379
f 381/381/381 382/382/382 377/377/377
f 380/380/380 383/383/383 379/379/379
f 383/383/383 380/380/380 382/382/382
f 379/379/379 383/383/383 381/381/381
f 382/382/382 381/381/381 383/383/383
f 386/386/386 385/385/385 384/384/384
f 384/384/384 387/387/387 386/386/386
f 387/387/387 384/384/384 388/388/388
f 385/385/385 386/386/386 389/389/389
f 389/389/389 386/386/386 387/387/387
f 389/389/389 390/390/390 385/385/385
f 388/388/388 391/391/391 387/387/387
f 391/391/391 388/388/388 390/390/390
f 387/387/387 391/391/391 389/389/389
f 390/390/390 389/389/389 391/391/391
f 394/394/394 393/393/393 392/392/392
f 392/392/392 395/395/395 394/394/394
f 395/395/395 392/392/392 396/396/396
f 393/393/393 394/394/394 397/397/397
f 397/397/397 394/394/394 395/395/395
f 397/397/397 398/398/398 393/393/393
f 396/396/396 399/399/399 395/395/395
f 399/399/399 396/396/396 398/398/398
f 395/395/395 399/399/399 397/397/397
f 398/398/398 397/397/397 399/399/399
f 402/402/402 401/401/401 400/400/400
f 400/400/400 403/403/403 402/402/402
f 403/403/403 400/400/400 404/404/404
f 401/401/401 402/402/402 405/405/405
f 405/405/405 402/402/402 403/403/403
f 405/405/405 406/406/406 401/401/401
f 404/404/404 407/407/407 403/403/403
f 407/407/407 404/404/404 406/406/406
f 403/403/403 407/407/407 405/405/405
f 406/406/406 405/405/405 407/407/407
f 410/410/410 409/409/409 408/408/408
f 408/408/408 411/411/411 410/410/410
f 412/412/412 410/410/410 411/411/411
f 411/411/411 413/413/413 412/412/412
f 412/412/412 413/413/413 414/414/414
f 414/414/414 415/415/415 412/412/412
f 418/418/418 417/417/417 416/416/416
f 416/416/416 419/419/419 418/418/418
f 419/419/419 416/416/416 420/420/420
f 420/420/420 421/421/421 419/419/419
f 422/422/422 421/421/421 420/420/420
f 420/420/420 423/423/423 422/422/422
f 424/424/424 422/422/422 423/423/423
f 423/423/423 425/425/425 424/424/424
f 424/424/424 425/425/425 426/426/426
f 426/426/426 427/427/427 424/424/424
f 427/427/427 426/426/426 428/428/428
f 428/428/428 429/429/429 427/427/427
f 429/429/429 428/428/428 430/430/430
f 430/430/430 431/431/431 429/429/429
f 434/434/434 433/433/433 432/432/432
f 432/432/432 435/435/435 434/434/434
f 435/435/435 432/432/432 436/436/436
f 436/436/436 437/437/437 435/435/435
f 438/438/438 437/437/437 436/436/436
f 436/436/436 439/439/439 438/438/438
f 440/440/440 438/438/438 439/439/439
f 439/439/439 441/441/441 440/440/440
f 440/440/440 441/441/441 442/442/442
f 442/442/442 443/443/443 440/440/440
f 443/443/443 442/442/442 444/444/444
f 444/444/444 445/445/445 443/443/443
f 445/445/445 444/444/444 446/446/446
f 446/446/446 447/447/447 445/445/445
f 450/450/450 449/449/449 448/448/448
f 448/448/448 451/451/451 450/450/450
f 451/451/451 448/448/448 452/452/452
f 452/452/452 453/453/453 451/451/451
f 454/454/454 453/453/453 452/452/452
f 452/452/452 455/455/455 454/454/454
f 458/458/458 457/457/457 456/456/456
f 456/456/456 459/459/459 458/458/458
f 460/460/460 459/459/459 456/456/456
f 456/456/456 461/461/461 460/460/460
f 460/460/460 461/461/461 462/462/462
f 462/462/462 463/463/463 460/460/460
f 464/464/464 463/463/463 462/462/462
f 462/462/462 465/465/465 464/464/464
f 464/464/464 465/465/465 466/466/466
f 466/466/466 467/467/467 464/464/464
f 470/470/470 469/469/469 468/468/468
f 468/468/468 471/471/471 470/470/470
f 472/472/472 471/471/471 468/468/468
f 468/468/468 473/473/473 472/472/472
f 472/472/472 473/473/473 474/474/474
f 474/474/474 475/475/475 472/472/472
f 476/476/476 475/475/475 474/474/474
f 474/474/474 477/477/477 476/476/476
f 476/476/476 477/477/477 478/478/478
f 478/478/478 479/479/479 476/476/476
f 482/482/482 481/481/481 480/480/480
f 480/480/480 483/483/483 482/482/482
f 484/484/484 483/483/483 480/480/480
f 480/480/480 485/485/485 484/484/484
f 484/484/484 485/485/485 486/486/486
f 486/486/486 487/487/487 484/484/484
f 488/488/488 487/487/487 486/486/486
f 486/486/486 489/489/489 488/488/488
f 488/488/488 489/489/489 490/490/490
f 490/490/490 491/491/491 488/488/488
f 494/494/494 493/493/493 492/492/492
f 492/492/492 495/495/495 494/494/494
f 496/496/496 495/495/495 492/492/492
f 492/492/492 497/497/497 496/496/496
f 496/496/496 497/497/497 498/498/498
f 498/498/498 499/499/499 496/496/496
f 500/500/500 499/499/499 498/498/498
f 498/498/498 501/501/501 500/500/500
f 500/500/500 501/501/501 502/502/502
f 502/502/502 503/503/503 500/500/500
f 506/506/506 505/505/505 504/504/504
f 504/504/504 507/507/507 506/506/506
f 508/508/508 507/507/507 504/504/504
f 504/504/504 509/509/509 508/508/508
f 508/508/508 509/509/509 510/510/510
f 510/510/510 511/511/511 508/508/508
f 512/512/512 511/511/511 510/510/510
f 510/510/510 513/513/513 512/512/512
f 512/512/512 513/513/513 514/514/514
f 514/514/514 515/515/515 512/512/512
f 516/516/516 515/515/515 514/514/514
f 514/514/514 517/517/517 516/516/516
f 516/516/516 517/517/517 518/518/518
f 518/518/518 519/519/519 516/516/516
f 522/522/522 521/521/521 520/520/520
f 520/520/520 523/523/523 522/522/522
f 524/524/524 523/523/523 520/520/520
f 520/520/520 525/525/525 524/524/524
f 524/524/524 525/525/525 526/526/526
f 526/526/526 527/527/527 524/524/524
f 528/528/528 527/527/527 526/526/526
f 526/526/526 529/529/529 528/528/528
f 528/528/528 529/529/529 530/530/530
f 530/530/530 531/531/531 528/528/528
f 532/532/532 531/531/531 530/530/530
f 530/530/530 533/533/533 532/532/532
f 532/532/532 533/533/533 534/534/534
f 534/534/534 535/535/535 532/532/532
