mtllib SM_WallsBase_01.mtl
g SM_WallsBase_01
#Vertices 220
#Indices 756
#Section 0 Offset 0 NumIndices 756 MaterialIndex 0 MI_Walls_Plastic_02
v 11.286160 0.056705 1.799112
v 11.285882 0.000002 11.245430
v 11.285885 0.000001 1.797758
v 11.285884 0.056706 11.245428
v 11.290991 0.069687 1.797607
v 11.290032 0.068429 11.249289
v 11.311181 0.094546 1.781708
v 11.313640 0.095945 11.287023
v 11.323547 0.100001 1.778547
v 11.325257 0.100002 11.292908
v 11.466274 0.100001 1.721804
v 11.464776 0.100003 11.421352
v 11.478993 0.094384 1.717467
v 11.477465 0.095946 11.426874
v 11.501055 0.069832 1.712929
v 11.510727 0.068406 11.461233
v 11.506174 0.056723 1.711207
v 11.515944 0.056706 11.464704
v 11.515944 0.000002 11.464707
v 11.505551 -0.000000 1.708162
v 11.287245 0.056705 8.084541
v 8.422664 0.000002 8.084574
v 11.289244 0.000002 8.084289
v 8.423521 0.056706 8.084576
v 11.292555 0.070042 8.089408
v 8.413930 0.069907 8.089566
v 11.317866 0.094209 8.109572
v 8.382216 0.094345 8.111125
v 11.327067 0.100002 8.121949
v 8.368987 0.100002 8.123660
v 11.327067 0.100002 8.264678
v 8.368987 0.100003 8.263178
v 8.382216 0.094166 8.275502
v 11.317866 0.094072 8.276885
v 8.413930 0.070087 8.295218
v 11.292555 0.070179 8.295671
v 8.423521 0.056706 8.299999
v 11.287245 0.056705 8.300255
v 8.422664 0.000002 8.299998
v 11.289244 0.000000 8.299664
v 8.190548 0.000002 6.530931
v 8.190546 0.056706 11.292137
v 8.190545 0.000002 11.292598
v 8.190801 0.056705 6.530931
v 8.195073 0.069047 6.526727
v 8.195562 0.069885 11.298514
v 8.217359 0.094368 11.320321
v 8.216480 0.095287 6.499989
v 8.228208 0.100002 6.492551
v 8.229918 0.100003 11.337306
v 8.369437 0.100003 11.337306
v 8.370936 0.100002 6.362059
v 8.383318 0.095908 11.320321
v 8.384054 0.095805 6.355029
v 8.425958 0.068346 11.298514
v 8.416952 0.068513 6.326314
v 8.432294 0.056707 11.292137
v 8.422494 0.056705 6.322485
v 8.421901 0.000000 6.322485
v 8.432294 0.000002 11.292598
v -0.000001 0.000878 0.025656
v 0.000766 0.056706 11.471204
v 0.000765 0.000882 11.471206
v 0.000000 0.056703 0.025655
v 0.025739 0.000878 -0.000001
v 0.025740 0.056703 -0.000002
v 0.006200 0.068897 11.468122
v 0.029403 0.069039 0.004615
v 0.005535 0.068942 0.028707
v 0.035899 0.095480 11.444754
v 0.035779 0.095390 0.049682
v 0.053549 0.095091 0.027834
v 0.061006 0.100000 0.040070
v 0.048809 0.100000 0.055204
v 0.048809 0.100003 11.439671
v 0.216539 0.100000 0.212314
v 0.195258 0.100000 0.238745
v 0.182926 0.100003 11.298615
v 0.225081 0.096287 0.221328
v 0.205022 0.096311 0.245410
v 0.194101 0.095361 11.292811
v 0.262657 0.067958 0.232600
v 0.217093 0.067936 0.289925
v 0.213297 0.068900 11.263054
v 0.267581 0.056703 0.234077
v 0.219316 0.056703 0.293927
v 0.267581 -0.000880 0.234077
v 0.216931 0.056706 11.259540
v 0.219315 -0.000880 0.293927
v 0.216930 -0.000877 11.259540
v 9.822353 0.056708 0.007834
v 9.791330 -0.000000 -0.000405
v 9.824408 -0.000000 0.007500
v 9.789141 0.056706 -0.000061
v 0.025739 0.000878 -0.000001
v 0.025740 0.056703 -0.000002
v 9.819085 0.069508 0.012574
v 0.029403 0.069039 0.004615
v 9.788304 0.069731 0.005150
v 9.801016 0.094789 0.034931
v 0.053549 0.095091 0.027834
v 9.783053 0.094477 0.027389
v 9.793444 0.100000 0.045761
v 0.061006 0.100000 0.040070
v 9.780391 0.100000 0.040072
v 9.728233 0.100000 0.200232
v 0.216539 0.100000 0.212314
v 9.709211 0.100000 0.194002
v 9.722724 0.093353 0.210089
v 0.225081 0.096287 0.221328
v 9.706689 0.093396 0.204383
v 9.720198 0.070907 0.220305
v 0.262657 0.067958 0.232600
v 9.693022 0.070843 0.212794
v 9.718813 0.056705 0.223519
v 0.267581 0.056703 0.234077
v 9.692700 0.000000 0.215459
v 9.719701 0.000000 0.223388
v 9.691772 0.056704 0.215603
v 0.267581 -0.000880 0.234077
v 11.483649 -0.000001 1.679591
v 9.822353 0.056708 0.007834
v 9.824408 -0.000000 0.007500
v 11.484451 0.056709 1.682800
v 11.505551 -0.000000 1.708162
v 9.819085 0.069508 0.012574
v 11.506174 0.056723 1.711207
v 11.480719 0.069789 1.686592
v 11.501055 0.069832 1.712929
v 9.801016 0.094789 0.034931
v 11.478993 0.094384 1.717467
v 11.466454 0.094458 1.702936
v 9.793444 0.100000 0.045761
v 11.466274 0.100001 1.721804
v 11.457337 0.100001 1.711709
v 11.323547 0.100001 1.778547
v 11.316347 0.100001 1.761250
v 9.728233 0.100000 0.200232
v 9.722724 0.093353 0.210089
v 11.305638 0.094324 1.768066
v 11.311181 0.094546 1.781708
v 11.283574 0.069937 1.778014
v 9.720198 0.070907 0.220305
v 11.290991 0.069687 1.797607
v 11.279203 0.056707 1.780363
v 9.718813 0.056705 0.223519
v 11.286160 0.056705 1.799112
v 9.719701 0.000000 0.223388
v 11.285885 0.000001 1.797758
v 11.278913 0.000001 1.779045
v 0.215345 0.056705 6.513120
v 8.167853 0.000002 6.513120
v 0.214429 0.000002 6.513120
v 8.168112 0.056705 6.513121
v 8.190548 0.000002 6.530931
v 8.190801 0.056705 6.530931
v 8.171709 0.068708 6.509001
v 0.210830 0.069638 6.507841
v 8.195073 0.069047 6.526727
v 0.196987 0.094613 6.483374
v 8.204038 0.095473 6.488403
v 8.216480 0.095287 6.499989
v 8.210654 0.100002 6.476709
v 0.188112 0.100002 6.470551
v 8.228208 0.100002 6.492551
v 0.188112 0.100002 6.348440
v 8.362663 0.100002 6.354593
v 8.370936 0.100002 6.362059
v 0.196987 0.094702 6.335526
v 8.368846 0.095621 6.341652
v 8.384054 0.095805 6.355029
v 0.210831 0.069549 6.310043
v 8.396739 0.068575 6.310037
v 8.416952 0.068513 6.326314
v 0.215346 0.056705 6.304674
v 8.399809 0.056705 6.304677
v 8.422494 0.056705 6.322485
v 8.421901 0.000000 6.322485
v 8.399207 0.000000 6.304674
v 0.214429 0.000000 6.304675
v 11.485168 0.056707 11.500003
v 11.515944 0.000002 11.464707
v 11.485170 0.000002 11.500006
v 0.027571 0.000882 11.499640
v 11.515944 0.056706 11.464704
v 0.027571 0.056706 11.499639
v 0.000765 0.000882 11.471206
v 0.000766 0.056706 11.471204
v 11.482319 0.068352 11.493655
v 11.510727 0.068406 11.461233
v 0.031118 0.068980 11.494612
v 0.006200 0.068897 11.468122
v 11.462636 0.095816 11.448938
v 11.477465 0.095946 11.426874
v 0.053539 0.095088 11.471004
v 0.035899 0.095480 11.444754
v 11.455564 0.100003 11.434988
v 11.464776 0.100003 11.421352
v 0.061403 0.100003 11.458313
v 0.048809 0.100003 11.439671
v 11.305364 0.100003 11.322602
v 11.325257 0.100002 11.292908
v 0.200417 0.100003 11.324506
v 0.182926 0.100003 11.298615
v 11.296130 0.096175 11.312082
v 11.313640 0.095945 11.287023
v 0.209178 0.095169 11.313777
v 0.194101 0.095361 11.292811
v 11.253425 0.067901 11.291343
v 11.290032 0.068429 11.249289
v 0.235937 0.069069 11.297146
v 0.213297 0.068900 11.263054
v 11.248510 0.056706 11.288486
v 11.285884 0.056706 11.245428
v 11.285882 0.000002 11.245430
v 11.248510 0.000002 11.288486
v 0.240674 0.056705 11.293971
v 0.216931 0.056706 11.259540
v 0.240674 -0.000877 11.293972
v 0.216930 -0.000877 11.259540
vt 0.663574 -1.060547
vt 0.635254 3.681641
vt 0.635254 -1.060547
vt 0.663574 3.681641
vt 0.669922 -1.060547
vt 0.669922 3.683594
vt 0.685547 -1.070312
vt 0.687988 3.701172
vt 0.691895 -1.072266
vt 0.693848 3.703125
vt 0.762695 -1.101562
vt 0.764160 3.767578
vt 0.769043 -1.103516
vt 0.770508 3.769531
vt 0.785156 -1.107422
vt 0.792480 3.787109
vt 0.791504 -1.107422
vt 0.798828 3.787109
vt 0.827148 3.787109
vt 0.819824 -1.109375
vt 1.513672 0.341309
vt 1.541992 -1.097656
vt 1.541992 0.342285
vt 1.513672 -1.095703
vt 1.506836 0.344238
vt 1.506836 -1.101562
vt 1.491211 0.356934
vt 1.491211 -1.117188
vt 1.485352 0.361328
vt 1.485352 -1.123047
vt 1.414062 0.361816
vt 1.416016 -1.123047
vt 1.410156 -1.117188
vt 1.408203 0.356934
vt 1.394531 -1.101562
vt 1.394531 0.344238
vt 1.387695 -1.095703
vt 1.387695 0.341797
vt 1.359375 -1.095703
vt 1.359375 0.342773
vt 1.099609 -1.017578
vt 1.129883 1.372314
vt 1.101562 1.372803
vt 1.127930 -1.017578
vt 1.133789 -1.019531
vt 1.136719 1.375488
vt 1.152344 1.386230
vt 1.150391 -1.033203
vt 1.155273 -1.037109
vt 1.158203 1.394775
vt 1.226562 1.394531
vt 1.226562 -1.103516
vt 1.232422 1.385742
vt 1.232422 -1.107422
vt 1.256836 1.374756
vt 1.253906 -1.121094
vt 1.262695 1.371582
vt 1.259766 -1.123047
vt 1.288086 -1.123047
vt 1.291016 1.371582
vt 0.256592 4.623047
vt 0.227295 -1.123047
vt 0.255371 -1.123047
vt 0.229492 4.621094
vt 0.253662 4.642578
vt 0.224487 4.638672
vt 0.220581 -1.123047
vt 0.216064 4.634766
vt 0.224243 4.621094
vt 0.200684 -1.111328
vt 0.205200 4.609375
vt 0.197388 4.621094
vt 0.192871 4.615234
vt 0.198975 4.607422
vt 0.193726 -1.109375
vt 0.116943 4.527344
vt 0.126465 4.513672
vt 0.126465 -1.039062
vt 0.113586 4.523438
vt 0.120972 4.509766
vt 0.120483 -1.035156
vt 0.091797 4.521484
vt 0.104614 4.486328
vt 0.104187 -1.021484
vt 0.088196 4.521484
vt 0.098022 4.484375
vt 0.061188 4.515625
vt 0.097839 -1.021484
vt 0.068909 4.480469
vt 0.068909 -1.021484
vt 0.496094 3.794922
vt 0.525391 3.777344
vt 0.524902 3.794922
vt 0.497070 3.777344
vt 0.534668 -1.123047
vt 0.506348 -1.123047
vt 0.488770 3.792969
vt 0.500000 -1.121094
vt 0.490234 3.777344
vt 0.471191 3.783203
vt 0.482422 -1.109375
vt 0.473633 3.775391
vt 0.464600 3.781250
vt 0.475830 -1.103516
vt 0.466797 3.773438
vt 0.386963 3.748047
vt 0.389404 -1.025391
vt 0.389404 3.738281
vt 0.381592 3.746094
vt 0.384521 -1.021484
vt 0.383057 3.738281
vt 0.369629 3.746094
vt 0.369141 -1.001953
vt 0.370605 3.730469
vt 0.362793 3.746094
vt 0.363525 -1.000000
vt 0.334473 3.732422
vt 0.334473 3.746094
vt 0.363037 3.730469
vt 0.334473 -1.000000
vt 1.803711 0.060059
vt 1.784180 -1.123047
vt 1.812500 -1.123047
vt 1.775391 0.061035
vt 1.803711 0.078125
vt 1.777344 -1.123047
vt 1.774414 0.078613
vt 1.768555 0.060547
vt 1.767578 0.077148
vt 1.758789 -1.123047
vt 1.751953 0.070312
vt 1.752930 0.060547
vt 1.750977 -1.121094
vt 1.745117 0.066895
vt 1.746094 0.060059
vt 1.675781 0.034668
vt 1.678711 0.026367
vt 1.673828 -1.091797
vt 1.666992 -1.089844
vt 1.671875 0.024414
vt 1.669922 0.031250
vt 1.655273 0.019531
vt 1.655273 -1.087891
vt 1.652344 0.029785
vt 1.648438 0.018555
vt 1.647461 -1.087891
vt 1.646484 0.028320
vt 1.619141 -1.087891
vt 1.619141 0.026855
vt 1.619141 0.017090
vt 0.869629 -1.111328
vt 0.841309 2.880859
vt 0.841309 -1.111328
vt 0.870117 2.881836
vt 0.840332 2.894531
vt 0.867676 2.895508
vt 0.876953 2.883789
vt 0.876465 -1.113281
vt 0.872070 2.897461
vt 0.893555 -1.119141
vt 0.894043 2.900391
vt 0.889160 2.907227
vt 0.899902 2.904297
vt 0.899902 -1.123047
vt 0.892578 2.913086
vt 0.960938 -1.123047
vt 0.959961 2.981445
vt 0.956055 2.985352
vt 0.967773 -1.119141
vt 0.966309 2.984375
vt 0.959961 2.992188
vt 0.985352 -1.111328
vt 0.985840 2.998047
vt 0.980469 3.009766
vt 0.992188 -1.109375
vt 0.991211 3.000000
vt 0.988281 3.013672
vt 1.017578 3.015625
vt 1.018555 3.000000
vt 1.020508 -1.109375
vt -0.035980 -1.150391
vt -0.013603 -1.177734
vt -0.008667 -1.154297
vt -0.009560 4.599609
vt -0.043365 -1.171875
vt -0.036743 4.599609
vt -0.012375 4.621094
vt -0.041595 4.617188
vt -0.040985 -1.150391
vt -0.052277 -1.167969
vt -0.042053 4.597656
vt -0.050262 4.613281
vt -0.066589 -1.140625
vt -0.076416 -1.150391
vt -0.058807 4.585938
vt -0.070007 4.597656
vt -0.073730 -1.138672
vt -0.080261 -1.142578
vt -0.065369 4.582031
vt -0.074158 4.589844
vt -0.130371 -1.062500
vt -0.144165 -1.074219
vt -0.132568 4.511719
vt -0.144409 4.521484
vt -0.136841 -1.056641
vt -0.146606 -1.068359
vt -0.139404 4.507812
vt -0.147095 4.517578
vt -0.156860 -1.037109
vt -0.169067 -1.062500
vt -0.156860 4.494141
vt -0.166016 4.513672
vt -0.164185 -1.033203
vt -0.171997 -1.062500
vt -0.198486 -1.058594
vt -0.193237 -1.031250
vt -0.164795 4.492188
vt -0.169312 4.513672
vt -0.194336 4.492188
vt -0.196655 4.511719
vt1 0.458740 0.829224
vt1 0.463623 0.047363
vt1 0.463623 0.829346
vt1 0.458740 0.047363
vt1 0.457764 0.829468
vt1 0.457764 0.046875
vt1 0.455322 0.830811
vt1 0.454834 0.043945
vt1 0.454102 0.831177
vt1 0.453857 0.043945
vt1 0.442383 0.836060
vt1 0.442383 0.033203
vt1 0.441406 0.836548
vt1 0.441162 0.032715
vt1 0.438721 0.837036
vt1 0.437500 0.030273
vt1 0.437744 0.837158
vt1 0.436523 0.029785
vt1 0.431885 0.029785
vt1 0.433105 0.837524
vt1 0.740234 0.306152
vt1 0.735840 0.543457
vt1 0.735352 0.306152
vt1 0.740234 0.543213
vt1 0.741211 0.305664
vt1 0.741211 0.544189
vt1 0.744141 0.303711
vt1 0.744141 0.546631
vt1 0.745117 0.302734
vt1 0.745117 0.547852
vt1 0.756836 0.302734
vt1 0.756348 0.547852
vt1 0.757324 0.546631
vt1 0.757812 0.303711
vt1 0.759766 0.543945
vt1 0.760254 0.305664
vt1 0.761230 0.543213
vt1 0.761230 0.306152
vt1 0.765625 0.543213
vt1 0.765625 0.306152
vt1 0.663086 0.629150
vt1 0.657715 0.234863
vt1 0.662598 0.234863
vt1 0.658203 0.629150
vt1 0.657227 0.629395
vt1 0.656738 0.234375
vt1 0.654297 0.232910
vt1 0.654297 0.631592
vt1 0.653809 0.632324
vt1 0.653320 0.231445
vt1 0.642090 0.231445
vt1 0.642090 0.643311
vt1 0.641113 0.232910
vt1 0.641113 0.643799
vt1 0.637207 0.234375
vt1 0.637207 0.646240
vt1 0.636230 0.235352
vt1 0.636230 0.646484
vt1 0.631836 0.646484
vt1 0.631348 0.235352
vt1 0.165039 0.035156
vt1 0.169922 0.982925
vt1 0.165283 0.982880
vt1 0.169556 0.035645
vt1 0.165649 0.032227
vt1 0.170410 0.032715
vt1 0.171021 0.982727
vt1 0.171753 0.033203
vt1 0.170410 0.036133
vt1 0.174316 0.980820
vt1 0.173584 0.037598
vt1 0.174927 0.035645
vt1 0.175659 0.036621
vt1 0.174561 0.038086
vt1 0.175415 0.980469
vt1 0.188110 0.051270
vt1 0.186523 0.053711
vt1 0.186523 0.968887
vt1 0.188721 0.051758
vt1 0.187500 0.054199
vt1 0.187500 0.968536
vt1 0.192261 0.052246
vt1 0.190186 0.058105
vt1 0.190186 0.966187
vt1 0.192871 0.052246
vt1 0.191284 0.058594
vt1 0.197266 0.053223
vt1 0.191284 0.966064
vt1 0.196045 0.059082
vt1 0.196045 0.966187
vt1 0.548828 0.031250
vt1 0.543945 0.034180
vt1 0.543945 0.031250
vt1 0.548828 0.034180
vt1 0.542480 0.842285
vt1 0.547363 0.842285
vt1 0.550293 0.031738
vt1 0.548340 0.841919
vt1 0.549805 0.034180
vt1 0.553223 0.033203
vt1 0.551270 0.839844
vt1 0.552734 0.034668
vt1 0.554199 0.033691
vt1 0.552246 0.839111
vt1 0.553711 0.034668
vt1 0.566895 0.039062
vt1 0.566406 0.826172
vt1 0.566406 0.040527
vt1 0.567871 0.039062
vt1 0.567383 0.825439
vt1 0.567383 0.040527
vt1 0.569824 0.039551
vt1 0.569824 0.822266
vt1 0.569824 0.041504
vt1 0.570801 0.039551
vt1 0.570801 0.821777
vt1 0.575684 0.041504
vt1 0.575684 0.039551
vt1 0.570801 0.041992
vt1 0.575684 0.821777
vt1 0.864746 0.319336
vt1 0.867676 0.514404
vt1 0.863281 0.514160
vt1 0.869141 0.318848
vt1 0.864746 0.315918
vt1 0.869141 0.514160
vt1 0.869629 0.315918
vt1 0.870605 0.319336
vt1 0.870605 0.316406
vt1 0.872070 0.514160
vt1 0.873047 0.317383
vt1 0.873047 0.318848
vt1 0.873535 0.514160
vt1 0.874512 0.317871
vt1 0.874023 0.319336
vt1 0.885742 0.323242
vt1 0.885254 0.324707
vt1 0.886230 0.509033
vt1 0.887207 0.508789
vt1 0.886230 0.325195
vt1 0.886719 0.323730
vt1 0.889160 0.325684
vt1 0.889160 0.508545
vt1 0.889648 0.324219
vt1 0.890137 0.326172
vt1 0.890625 0.508545
vt1 0.890625 0.324219
vt1 0.895020 0.508545
vt1 0.895020 0.324707
vt1 0.895020 0.326172
vt1 0.283447 0.938507
vt1 0.941406 0.943176
vt1 0.283447 0.943176
vt1 0.941895 0.938446
vt1 0.943848 0.943359
vt1 0.944336 0.938843
vt1 0.942383 0.937317
vt1 0.283203 0.937378
vt1 0.944336 0.938110
vt1 0.281982 0.934570
vt1 0.944824 0.934448
vt1 0.945801 0.935242
vt1 0.945312 0.933472
vt1 0.281494 0.933472
vt1 0.946777 0.934753
vt1 0.281494 0.923462
vt1 0.958008 0.923584
vt1 0.958984 0.924194
vt1 0.282227 0.922363
vt1 0.958496 0.922607
vt1 0.959961 0.923584
vt1 0.283447 0.919434
vt1 0.960938 0.919312
vt1 0.962891 0.920227
vt1 0.283691 0.918335
vt1 0.961426 0.918457
vt1 0.963379 0.918945
vt1 0.963867 0.914124
vt1 0.961426 0.913879
vt1 0.283691 0.913635
vt1 0.066895 0.971954
vt1 0.063171 0.976379
vt1 0.062378 0.972336
vt1 0.062500 0.023438
vt1 0.068115 0.975479
vt1 0.067017 0.023926
vt1 0.062988 0.020020
vt1 0.067810 0.020996
vt1 0.067688 0.971802
vt1 0.069580 0.974731
vt1 0.067871 0.023926
vt1 0.069214 0.021484
vt1 0.071899 0.970306
vt1 0.073547 0.971802
vt1 0.070618 0.025879
vt1 0.072510 0.023926
vt1 0.073120 0.969742
vt1 0.074158 0.970612
vt1 0.071716 0.026367
vt1 0.073181 0.025391
vt1 0.082458 0.957275
vt1 0.084717 0.959106
vt1 0.082825 0.038086
vt1 0.084778 0.036621
vt1 0.083496 0.956482
vt1 0.085144 0.958344
vt1 0.083923 0.039062
vt1 0.085205 0.037109
vt1 0.086792 0.953033
vt1 0.088806 0.957275
vt1 0.086792 0.041016
vt1 0.088318 0.038086
vt1 0.088013 0.952576
vt1 0.089294 0.957184
vt1 0.093689 0.956543
vt1 0.092834 0.952179
vt1 0.088135 0.041504
vt1 0.088867 0.038086
vt1 0.093018 0.041504
vt1 0.093384 0.038086
vn -1.000000 0.078740 -0.000000
vn -1.000000 -0.000000 -0.007874
vn -1.000000 0.007874 -0.000000
vn -1.000000 0.070866 -0.000000
vn -0.818898 0.566929 -0.000000
vn -0.795276 0.606299 -0.000000
vn -0.637795 0.763779 -0.000000
vn -0.574803 0.818897 -0.000000
vn -0.023622 1.000000 -0.000000
vn -0.015748 1.000000 -0.000000
vn 0.055118 1.000000 -0.000000
vn 0.055118 1.000000 -0.000000
vn 0.677165 0.740157 -0.000000
vn 0.598425 0.803149 -0.000000
vn 0.818898 0.574803 -0.000000
vn 0.755906 0.653543 -0.000000
vn 1.000000 0.055118 -0.000000
vn 1.000000 0.062992 -0.000000
vn 1.000000 0.000000 0.000000
vn 1.000000 -0.007874 0.000000
vn 0.000000 0.086614 -1.000000
vn 0.000000 -0.000000 -1.000000
vn 0.000000 0.007874 -1.000000
vn 0.000000 0.094488 -0.992126
vn 0.000000 0.590551 -0.811024
vn 0.000000 0.622047 -0.787401
vn 0.000000 0.795275 -0.606299
vn 0.000000 0.818897 -0.574803
vn 0.000000 1.000000 -0.023622
vn 0.000000 1.000000 -0.023622
vn 0.000000 1.000000 0.023622
vn 0.000000 1.000000 0.023622
vn 0.000000 0.811024 0.590551
vn 0.000000 0.787401 0.622047
vn 0.000000 0.590551 0.803149
vn 0.000000 0.566929 0.826771
vn 0.000000 0.086614 1.000000
vn 0.000000 0.070866 1.000000
vn 0.000000 0.000000 1.000000
vn 0.000000 -0.007874 1.000000
vn -1.000000 0.007874 0.007874
vn -1.000000 0.086614 -0.000000
vn -1.000000 0.000000 0.000000
vn -1.000000 0.078740 0.007874
vn -0.811024 0.582677 -0.000000
vn -0.787402 0.614173 -0.000000
vn -0.590551 0.811023 -0.000000
vn -0.606299 0.795275 -0.000000
vn -0.015748 1.000000 -0.000000
vn -0.015748 1.000000 -0.000000
vn 0.015748 1.000000 -0.000000
vn 0.055118 1.000000 -0.000000
vn 0.448819 0.889764 -0.000000
vn 0.598425 0.803149 -0.000000
vn 0.598425 0.803149 -0.000000
vn 0.748031 0.661417 -0.007874
vn 0.992126 0.110236 -0.000000
vn 1.000000 0.062992 -0.007874
vn 1.000000 -0.007874 -0.007874
vn 1.000000 0.000000 0.000000
vn -1.000000 0.000000 0.000000
vn -1.000000 0.070866 -0.000000
vn -1.000000 0.000000 0.000000
vn -1.000000 0.070866 -0.000000
vn 0.000000 -0.000000 -1.000000
vn 0.000000 0.055118 -1.000000
vn -0.771654 0.637795 -0.000000
vn 0.000000 0.543307 -0.842520
vn -0.763780 0.645669 -0.000000
vn -0.614173 0.787401 -0.000000
vn -0.606299 0.795275 -0.000000
vn 0.000000 0.716535 -0.700787
vn 0.000000 1.000000 -0.062992
vn -0.070866 1.000000 -0.000000
vn -0.070866 1.000000 -0.000000
vn 0.000000 1.000000 0.007874
vn 0.007874 1.000000 -0.000000
vn 0.015748 1.000000 -0.000000
vn 0.007874 0.716535 0.692913
vn 0.661417 0.748031 0.007874
vn 0.629921 0.779527 -0.000000
vn 0.007874 0.338583 0.937008
vn 0.929134 0.362205 -0.000000
vn 0.842520 0.535433 -0.000000
vn 0.007874 0.023622 1.000000
vn 1.000000 0.039370 0.007874
vn 0.007874 0.000000 1.000000
vn 1.000000 0.062992 -0.000000
vn 1.000000 0.000000 0.007874
vn 1.000000 0.000000 0.000000
vn 0.700787 0.102362 -0.708661
vn 0.000000 0.007874 -1.000000
vn 0.700787 0.031496 -0.708661
vn 0.000000 0.078740 -1.000000
vn 0.000000 -0.000000 -1.000000
vn 0.000000 0.055118 -1.000000
vn 0.527559 0.661417 -0.535433
vn 0.000000 0.543307 -0.842520
vn 0.000000 0.582677 -0.818898
vn 0.425197 0.803149 -0.425197
vn 0.000000 0.716535 -0.700787
vn 0.000000 0.740157 -0.669291
vn 0.031496 1.000000 -0.031496
vn 0.000000 1.000000 -0.062992
vn 0.000000 1.000000 -0.047244
vn -0.015748 1.000000 0.015748
vn 0.000000 1.000000 0.007874
vn 0.000000 1.000000 0.031496
vn -0.559055 0.606299 0.566929
vn 0.007874 0.716535 0.692913
vn 0.000000 0.606299 0.795275
vn -0.661417 0.322835 0.677165
vn 0.007874 0.338583 0.937008
vn 0.000000 0.307087 0.952756
vn -0.700787 0.039370 0.708661
vn 0.007874 0.023622 1.000000
vn 0.000000 0.000000 1.000000
vn -0.700787 -0.015748 0.708661
vn 0.000000 0.039370 1.000000
vn 0.007874 0.000000 1.000000
vn 0.708661 0.031496 -0.700787
vn 0.700787 0.102362 -0.708661
vn 0.700787 0.031496 -0.708661
vn 0.708661 0.102362 -0.700787
vn 1.000000 -0.007874 0.000000
vn 0.527559 0.661417 -0.535433
vn 1.000000 0.055118 -0.000000
vn 0.574803 0.582677 -0.574803
vn 0.818898 0.574803 -0.000000
vn 0.425197 0.803149 -0.425197
vn 0.677165 0.740157 -0.000000
vn 0.464567 0.748031 -0.464567
vn 0.031496 1.000000 -0.031496
vn 0.055118 1.000000 -0.000000
vn 0.039370 1.000000 -0.039370
vn -0.023622 1.000000 -0.000000
vn -0.015748 1.000000 0.015748
vn -0.015748 1.000000 0.015748
vn -0.559055 0.606299 0.566929
vn -0.440945 0.771653 0.448819
vn -0.637795 0.763779 -0.000000
vn -0.566929 0.598425 0.566929
vn -0.661417 0.322835 0.677165
vn -0.818898 0.566929 -0.000000
vn -0.708661 0.062992 0.700787
vn -0.700787 0.039370 0.708661
vn -1.000000 0.078740 -0.000000
vn -0.700787 -0.015748 0.708661
vn -1.000000 0.007874 -0.000000
vn -0.708661 -0.015748 0.708661
vn 0.000000 0.086614 1.000000
vn 0.000000 0.000000 1.000000
vn 0.000000 0.000000 1.000000
vn 0.000000 0.070866 1.000000
vn -1.000000 0.007874 0.007874
vn -1.000000 0.078740 0.007874
vn 0.000000 0.566929 0.826771
vn 0.000000 0.637795 0.763779
vn -0.811024 0.582677 -0.000000
vn 0.000000 0.811024 0.590551
vn 0.000000 0.795276 0.606299
vn -0.606299 0.795275 -0.000000
vn 0.000000 1.000000 0.015748
vn 0.000000 1.000000 0.023622
vn -0.015748 1.000000 -0.000000
vn 0.000000 1.000000 -0.023622
vn 0.000000 1.000000 -0.078740
vn 0.055118 1.000000 -0.000000
vn 0.000000 0.811023 -0.582677
vn 0.000000 0.795275 -0.606299
vn 0.598425 0.803149 -0.000000
vn 0.000000 0.653543 -0.755905
vn 0.000000 0.645669 -0.763779
vn 0.748031 0.661417 -0.007874
vn 0.000000 0.086614 -1.000000
vn 0.000000 0.070866 -1.000000
vn 1.000000 0.062992 -0.007874
vn 1.000000 -0.007874 -0.007874
vn 0.000000 -0.000000 -1.000000
vn 0.000000 -0.000000 -1.000000
vn 0.000000 0.078740 1.000000
vn 1.000000 0.000000 0.000000
vn 0.000000 0.000000 1.000000
vn 0.000000 0.000000 1.000000
vn 1.000000 0.062992 -0.000000
vn 0.000000 0.062992 1.000000
vn -1.000000 0.000000 0.000000
vn -1.000000 0.070866 -0.000000
vn 0.000000 0.771653 0.637795
vn 0.755906 0.653543 -0.000000
vn 0.000000 0.559055 0.826771
vn -0.771654 0.637795 -0.000000
vn 0.000000 0.874016 0.488189
vn 0.598425 0.803149 -0.000000
vn 0.000000 0.724409 0.692913
vn -0.614173 0.787401 -0.000000
vn 0.000000 1.000000 0.086614
vn 0.055118 1.000000 -0.000000
vn 0.000000 1.000000 0.078740
vn -0.070866 1.000000 -0.000000
vn 0.000000 1.000000 -0.007874
vn -0.015748 1.000000 -0.000000
vn 0.000000 1.000000 -0.015748
vn 0.015748 1.000000 -0.000000
vn 0.000000 0.803149 -0.590551
vn -0.574803 0.818897 -0.000000
vn 0.000000 0.755905 -0.653543
vn 0.629921 0.779527 -0.000000
vn 0.000000 0.551181 -0.834646
vn -0.795276 0.606299 -0.000000
vn 0.000000 0.488189 -0.874016
vn 0.842520 0.535433 -0.000000
vn -0.007874 0.047244 -1.000000
vn -1.000000 0.070866 -0.000000
vn -1.000000 -0.000000 -0.007874
vn -0.007874 -0.000000 -1.000000
vn 0.000000 0.055118 -1.000000
vn 1.000000 0.062992 -0.000000
vn 0.000000 -0.000000 -1.000000
vn 1.000000 0.000000 0.000000
tan 0.002480 0.031496 -1.006200 1.000000
tan 0.007874 0.007874 -1.000000 1.000000
tan 0.000062 0.007874 -1.000062 1.000000
tan 0.002790 0.039370 -1.005022 1.000000
tan 0.026784 0.038688 -0.992002 1.000000
tan 0.028644 0.037572 -1.000062 1.000000
tan 0.066154 0.055242 -0.990142 1.000000
tan 0.077376 0.054312 -0.994544 1.000000
tan 0.055118 0.001302 -1.000558 1.000000
tan 0.047244 0.000744 -1.000248 1.000000
tan 0.070866 -0.003906 -0.995164 1.000000
tan 0.078740 -0.004340 -0.995164 1.000000
tan 0.046624 -0.042656 -1.001054 1.000000
tan 0.044268 -0.032984 -1.003162 1.000000
tan 0.027156 -0.038688 -1.000992 1.000000
tan 0.036022 -0.041664 -0.993366 1.000000
tan 0.001736 -0.031496 -1.003038 1.000000
tan 0.001984 -0.031496 -1.003968 1.000000
tan 0.000000 -0.007874 -1.000000 1.000000
tan -0.000062 -0.007874 -1.000062 1.000000
tan -1.007502 0.000000 0.000000 1.000000
tan -1.000000 0.000000 0.000000 1.000000
tan -1.000062 0.000000 0.000000 1.000000
tan -0.993242 0.000000 0.000000 1.000000
tan -1.006510 -0.006386 -0.004650 1.000000
tan -1.006944 -0.006200 -0.004898 1.000000
tan -1.000062 -0.004774 -0.006262 1.000000
tan -1.000992 -0.004526 -0.006448 1.000000
tan -1.000558 0.000000 0.000000 1.000000
tan -1.000558 0.000000 0.000000 1.000000
tan -1.000558 0.000000 0.000000 1.000000
tan -1.000558 0.000000 0.000000 1.000000
tan -1.006510 0.004650 -0.006386 1.000000
tan -1.006944 0.004898 -0.006200 1.000000
tan -0.993800 0.000000 0.000000 1.000000
tan -1.004960 0.006510 -0.004464 1.000000
tan -1.007502 0.000000 0.000000 1.000000
tan -1.005022 0.000000 0.000000 1.000000
tan -1.000000 0.000000 0.000000 1.000000
tan -1.000062 0.000000 0.000000 1.000000
tan -0.007874 0.000062 -1.000062 1.000000
tan 0.000682 0.007874 -1.007502 1.000000
tan 0.000000 -0.000000 -1.000000 1.000000
tan -0.007254 0.008494 -1.006200 1.000000
tan 0.004588 0.006386 -0.997272 1.000000
tan 0.004836 0.006200 -0.997210 1.000000
tan 0.012772 0.009300 -1.006510 1.000000
tan 0.018786 0.014322 -1.000062 1.000000
tan 0.007874 0.000124 -1.000248 1.000000
tan 0.007874 0.000124 -1.000248 1.000000
tan 0.007874 -0.000124 -1.000248 1.000000
tan 0.015748 -0.000868 -1.003038 1.000000
tan 0.014012 -0.007068 -0.993118 1.000000
tan 0.012648 -0.009424 -1.003162 1.000000
tan 0.006324 -0.004712 -1.003162 1.000000
tan -0.000682 -0.011098 -0.997024 1.000000
tan 0.000868 -0.007812 -0.996466 1.000000
tan -0.007378 -0.008370 -1.003968 1.000000
tan -0.007874 0.000062 -1.000062 1.000000
tan 0.000000 -0.000000 -1.000000 1.000000
tan 0.000000 0.055118 1.000000 1.000000
tan 0.002232 0.031496 1.005022 1.000000
tan 0.000000 0.007874 1.000000 1.000000
tan 0.002232 0.031496 1.005022 1.000000
tan -1.000000 0.062992 -0.000000 1.000000
tan -0.924298 0.377953 0.020832 1.000000
tan 0.025110 0.030380 1.002232 1.000000
tan -0.617521 0.663401 0.427801 1.000000
tan -0.025420 -0.030070 1.000248 1.000000
tan 0.018600 0.014508 0.997210 1.000000
tan 0.006262 0.004774 1.000062 1.000000
tan -0.279001 0.673197 0.688325 1.000000
tan -0.007874 0.062992 1.000000 1.000000
tan 0.007874 0.000558 1.005022 1.000000
tan 0.047244 0.003348 1.005022 1.000000
tan -0.062992 -0.007874 1.000000 1.000000
tan 0.015748 -0.000124 1.000062 1.000000
tan 0.047244 -0.000744 1.000248 1.000000
tan -0.399529 -0.630665 0.656705 1.000000
tan -0.011098 -0.000682 0.997024 1.000000
tan 0.073656 -0.059520 0.998326 1.000000
tan -0.816356 -0.536425 0.200694 1.000000
tan 0.008556 -0.021948 0.994482 1.000000
tan 0.050592 -0.079608 0.996528 1.000000
tan -0.969062 -0.236034 0.013206 1.000000
tan -0.003472 -0.110546 0.993676 1.000000
tan -0.992126 -0.094488 0.007812 1.000000
tan 0.006944 -0.110236 0.995598 1.000000
tan -0.007812 -0.102362 0.992126 1.000000
tan 0.000000 -0.023622 1.000000 1.000000
tan -0.715233 0.138136 -0.687333 1.000000
tan -1.000062 0.007874 0.000062 1.000000
tan -0.709901 0.022010 -0.701035 1.000000
tan -1.006200 -0.015748 -0.001240 1.000000
tan -1.000000 0.000000 0.000000 1.000000
tan -1.003038 -0.015748 -0.000868 1.000000
tan -0.833530 0.268584 -0.489491 1.000000
tan -1.005022 -0.026536 -0.017112 1.000000
tan -1.003658 -0.032240 -0.022940 1.000000
tan -0.903590 0.328105 -0.283837 1.000000
tan -0.999008 -0.033108 -0.033852 1.000000
tan -0.995784 -0.036890 -0.040796 1.000000
tan -1.000992 0.030008 -0.048236 1.000000
tan -0.996094 -0.003968 -0.062992 1.000000
tan -1.002232 -0.002604 -0.055118 1.000000
tan -1.000372 -0.014756 -0.063364 1.000000
tan -1.000062 0.000248 -0.031496 1.000000
tan -1.000992 0.001488 -0.047244 1.000000
tan -0.826028 -0.333871 -0.457499 1.000000
tan -0.993552 0.065658 -0.056606 1.000000
tan -1.000062 0.050096 -0.038192 1.000000
tan -0.745861 -0.201996 -0.632215 1.000000
tan -0.992622 0.032178 -0.003286 1.000000
tan -1.002046 0.037510 -0.012090 1.000000
tan -0.711451 -0.060822 -0.700167 1.000000
tan -1.000558 0.023808 0.007316 1.000000
tan -1.000000 0.000000 0.000000 1.000000
tan -0.708785 -0.000062 -0.700911 1.000000
tan -1.001550 0.015748 -0.000620 1.000000
tan -1.000000 0.000000 0.007874 1.000000
tan -0.702027 0.022382 -0.708909 1.000000
tan -0.713559 0.038254 -0.700105 1.000000
tan -0.709653 0.016492 -0.701035 1.000000
tan -0.705747 0.039432 -0.707917 1.000000
tan 0.000310 0.039370 -1.000062 1.000000
tan -0.733833 0.033976 -0.681071 1.000000
tan -0.009548 0.173228 -0.987290 1.000000
tan -0.723107 0.036208 -0.686403 1.000000
tan -0.221774 0.315952 -0.922252 1.000000
tan -0.741398 0.036828 -0.671833 1.000000
tan -0.437101 0.399901 -0.810838 1.000000
tan -0.737243 0.040238 -0.672453 1.000000
tan -0.749520 0.002728 -0.662905 1.000000
tan -0.740157 0.040796 -0.679335 1.000000
tan -0.742328 0.002790 -0.671461 1.000000
tan -0.724409 -0.017112 -0.685411 1.000000
tan -0.740529 -0.001116 -0.669663 1.000000
tan -0.748403 -0.001240 -0.669663 1.000000
tan -0.742079 -0.058714 -0.668981 1.000000
tan -0.732345 -0.027218 -0.672701 1.000000
tan -0.469093 -0.391717 -0.784487 1.000000
tan -0.719449 -0.026784 -0.691177 1.000000
tan -0.726269 -0.043772 -0.688511 1.000000
tan -0.232128 -0.335297 -0.907186 1.000000
tan -0.704755 -0.028086 -0.710149 1.000000
tan -0.710521 -0.033108 -0.700787 1.000000
tan -0.011780 -0.149606 -0.990452 1.000000
tan -0.708785 -0.005642 -0.701035 1.000000
tan -0.000124 -0.015748 -1.000062 1.000000
tan -0.708661 -0.011160 -0.708909 1.000000
tan -0.999628 -0.039370 0.003410 1.000000
tan -1.000000 -0.023622 0.000000 1.000000
tan -1.000000 -0.007874 0.000000 1.000000
tan -1.005022 -0.023622 0.001674 1.000000
tan -0.008060 -0.023560 -1.000062 1.000000
tan -0.026846 -0.243537 -0.974084 1.000000
tan -1.004960 0.006510 -0.004464 1.000000
tan -0.990142 -0.024056 0.020088 1.000000
tan -0.426685 -0.593899 -0.682807 1.000000
tan -1.000124 -0.027900 0.038316 1.000000
tan -1.000062 0.004774 -0.006262 1.000000
tan -0.763966 -0.582429 -0.286626 1.000000
tan -1.000248 -0.000124 0.007874 1.000000
tan -1.000558 -0.000744 0.031496 1.000000
tan -1.000000 -0.015748 -0.015748 1.000000
tan -1.000558 0.000372 0.015748 1.000000
tan -1.006200 0.000620 0.007874 1.000000
tan -1.000000 0.055118 -0.015748 1.000000
tan -0.997272 0.013764 0.019158 1.000000
tan -1.000062 0.000000 0.000000 1.000000
tan -0.777854 0.579577 -0.236593 1.000000
tan -0.998512 0.011904 0.010292 1.000000
tan -1.000248 -0.024056 -0.020336 1.000000
tan -0.534751 0.597681 -0.596131 1.000000
tan -0.999628 0.015748 0.001364 1.000000
tan -1.005022 0.015748 0.001116 1.000000
tan -0.028706 0.338149 -0.940480 1.000000
tan -0.007688 0.023684 -1.000062 1.000000
tan -1.000000 0.031496 -0.000000 1.000000
tan -1.000000 0.007874 -0.000000 1.000000
tan 1.006200 0.000000 0.000000 1.000000
tan 0.000000 -0.094488 -0.992126 1.000000
tan 1.000000 -0.062992 0.000000 1.000000
tan 1.000000 0.039370 -0.000000 1.000000
tan 0.028768 -0.456693 -0.893236 1.000000
tan 1.003968 -0.007874 0.000496 1.000000
tan 0.000000 0.055118 1.000000 1.000000
tan 0.026226 0.370079 0.933598 1.000000
tan 1.002232 0.045198 -0.054684 1.000000
tan 0.581499 -0.672577 -0.452291 1.000000
tan 0.996094 -0.045570 0.030814 1.000000
tan 0.522289 0.631905 0.571269 1.000000
tan 0.995350 0.023064 -0.041292 1.000000
tan 0.790502 -0.589001 -0.186124 1.000000
tan 1.004898 -0.038192 0.039928 1.000000
tan 0.762601 0.594829 0.240684 1.000000
tan 0.999628 0.002728 -0.031496 1.000000
tan 1.000000 -0.055118 -0.031496 1.000000
tan 0.998326 -0.003720 0.047244 1.000000
tan 1.000000 0.070866 0.031496 1.000000
tan 1.000062 -0.000124 -0.015748 1.000000
tan 0.992126 0.015624 -0.133858 1.000000
tan 1.000248 0.000248 0.015748 1.000000
tan 0.992126 -0.015624 0.141732 1.000000
tan 0.993800 -0.032550 -0.044268 1.000000
tan 0.754417 0.529543 -0.395623 1.000000
tan 0.998512 0.046314 0.053568 1.000000
tan 0.687457 -0.555521 0.470829 1.000000
tan 1.000434 -0.059148 -0.039060 1.000000
tan 0.391469 0.513485 -0.763841 1.000000
tan 0.995350 0.096348 0.053816 1.000000
tan 0.307769 -0.484283 0.819890 1.000000
tan 1.002232 0.031868 -0.006386 1.000000
tan 0.016182 0.228346 -0.973526 1.000000
tan 0.007874 0.086614 -1.000000 1.000000
tan 1.000000 0.070866 -0.007874 1.000000
tan 1.003038 0.023622 0.001302 1.000000
tan 0.011408 -0.181102 0.987724 1.000000
tan 1.000000 -0.031496 0.000000 1.000000
tan 0.000000 -0.047244 1.000000 1.000000
f 3/3/3 2/2/2 1/1/1
f 2/2/2 4/4/4 1/1/1
f 1/1/1 4/4/4 5/5/5
f 6/6/6 5/5/5 4/4/4
f 5/5/5 6/6/6 7/7/7
f 6/6/6 8/8/8 7/7/7
f 7/7/7 8/8/8 9/9/9
f 10/10/10 9/9/9 8/8/8
f 9/9/9 10/10/10 11/11/11
f 10/10/10 12/12/12 11/11/11
f 11/11/11 12/12/12 13/13/13
f 14/14/14 13/13/13 12/12/12
f 13/13/13 14/14/14 15/15/15
f 14/14/14 16/16/16 15/15/15
f 15/15/15 16/16/16 17/17/17
f 18/18/18 17/17/17 16/16/16
f 18/18/18 19/19/19 17/17/17
f 20/20/20 17/17/17 19/19/19
f 23/23/23 22/22/22 21/21/21
f 22/22/22 24/24/24 21/21/21
f 21/21/21 24/24/24 25/25/25
f 26/26/26 25/25/25 24/24/24
f 25/25/25 26/26/26 27/27/27
f 26/26/26 28/28/28 27/27/27
f 27/27/27 28/28/28 29/29/29
f 30/30/30 29/29/29 28/28/28
f 29/29/29 30/30/30 31/31/31
f 32/32/32 31/31/31 30/30/30
f 32/32/32 33/33/33 31/31/31
f 34/34/34 31/31/31 33/33/33
f 33/33/33 35/35/35 34/34/34
f 36/36/36 34/34/34 35/35/35
f 37/37/37 36/36/36 35/35/35
f 38/38/38 36/36/36 37/37/37
f 37/37/37 39/39/39 38/38/38
f 40/40/40 38/38/38 39/39/39
f 43/43/43 42/42/42 41/41/41
f 44/44/44 41/41/41 42/42/42
f 44/44/44 42/42/42 45/45/45
f 46/46/46 45/45/45 42/42/42
f 46/46/46 47/47/47 45/45/45
f 48/48/48 45/45/45 47/47/47
f 48/48/48 47/47/47 49/49/49
f 50/50/50 49/49/49 47/47/47
f 51/51/51 49/49/49 50/50/50
f 52/52/52 49/49/49 51/51/51
f 53/53/53 52/52/52 51/51/51
f 54/54/54 52/52/52 53/53/53
f 55/55/55 54/54/54 53/53/53
f 56/56/56 54/54/54 55/55/55
f 57/57/57 56/56/56 55/55/55
f 58/58/58 56/56/56 57/57/57
f 59/59/59 58/58/58 57/57/57
f 60/60/60 59/59/59 57/57/57
f 63/63/63 62/62/62 61/61/61
f 64/64/64 61/61/61 62/62/62
f 61/61/61 64/64/64 65/65/65
f 66/66/66 65/65/65 64/64/64
f 62/62/62 67/67/67 64/64/64
f 66/66/66 64/64/64 68/68/68
f 69/69/69 64/64/64 67/67/67
f 69/69/69 68/68/68 64/64/64
f 67/67/67 70/70/70 69/69/69
f 69/69/69 71/71/71 68/68/68
f 71/71/71 69/69/69 70/70/70
f 72/72/72 68/68/68 71/71/71
f 72/72/72 71/71/71 73/73/73
f 71/71/71 70/70/70 74/74/74
f 74/74/74 73/73/73 71/71/71
f 75/75/75 74/74/74 70/70/70
f 74/74/74 76/76/76 73/73/73
f 77/77/77 74/74/74 75/75/75
f 76/76/76 74/74/74 77/77/77
f 78/78/78 77/77/77 75/75/75
f 79/79/79 76/76/76 77/77/77
f 77/77/77 78/78/78 80/80/80
f 80/80/80 79/79/79 77/77/77
f 81/81/81 80/80/80 78/78/78
f 79/79/79 80/80/80 82/82/82
f 83/83/83 80/80/80 81/81/81
f 83/83/83 82/82/82 80/80/80
f 84/84/84 83/83/83 81/81/81
f 82/82/82 83/83/83 85/85/85
f 83/83/83 84/84/84 86/86/86
f 86/86/86 85/85/85 83/83/83
f 85/85/85 86/86/86 87/87/87
f 88/88/88 86/86/86 84/84/84
f 89/89/89 87/87/87 86/86/86
f 89/89/89 86/86/86 88/88/88
f 90/90/90 89/89/89 88/88/88
f 93/93/93 92/92/92 91/91/91
f 91/91/91 92/92/92 94/94/94
f 92/92/92 95/95/95 94/94/94
f 95/95/95 96/96/96 94/94/94
f 91/91/91 94/94/94 97/97/97
f 96/96/96 98/98/98 94/94/94
f 94/94/94 99/99/99 97/97/97
f 99/99/99 94/94/94 98/98/98
f 97/97/97 99/99/99 100/100/100
f 98/98/98 101/101/101 99/99/99
f 102/102/102 100/100/100 99/99/99
f 102/102/102 99/99/99 101/101/101
f 100/100/100 102/102/102 103/103/103
f 104/104/104 102/102/102 101/101/101
f 105/105/105 103/103/103 102/102/102
f 102/102/102 104/104/104 105/105/105
f 105/105/105 106/106/106 103/103/103
f 107/107/107 105/105/105 104/104/104
f 106/106/106 105/105/105 108/108/108
f 108/108/108 105/105/105 107/107/107
f 106/106/106 108/108/108 109/109/109
f 107/107/107 110/110/110 108/108/108
f 111/111/111 109/109/109 108/108/108
f 111/111/111 108/108/108 110/110/110
f 111/111/111 112/112/112 109/109/109
f 110/110/110 113/113/113 111/111/111
f 111/111/111 114/114/114 112/112/112
f 114/114/114 111/111/111 113/113/113
f 115/115/115 112/112/112 114/114/114
f 116/116/116 114/114/114 113/113/113
f 118/118/118 115/115/115 117/117/117
f 119/119/119 114/114/114 116/116/116
f 119/119/119 115/115/115 114/114/114
f 119/119/119 117/117/117 115/115/115
f 116/116/116 120/120/120 119/119/119
f 117/117/117 119/119/119 120/120/120
f 123/123/123 122/122/122 121/121/121
f 124/124/124 121/121/121 122/122/122
f 121/121/121 124/124/124 125/125/125
f 126/126/126 124/124/124 122/122/122
f 127/127/127 125/125/125 124/124/124
f 124/124/124 126/126/126 128/128/128
f 124/124/124 128/128/128 127/127/127
f 129/129/129 127/127/127 128/128/128
f 126/126/126 130/130/130 128/128/128
f 128/128/128 131/131/131 129/129/129
f 132/132/132 128/128/128 130/130/130
f 132/132/132 131/131/131 128/128/128
f 130/130/130 133/133/133 132/132/132
f 132/132/132 134/134/134 131/131/131
f 135/135/135 134/134/134 132/132/132
f 135/135/135 132/132/132 133/133/133
f 135/135/135 136/136/136 134/134/134
f 135/135/135 133/133/133 137/137/137
f 136/136/136 135/135/135 137/137/137
f 138/138/138 137/137/137 133/133/133
f 139/139/139 137/137/137 138/138/138
f 137/137/137 140/140/140 136/136/136
f 137/137/137 139/139/139 140/140/140
f 141/141/141 136/136/136 140/140/140
f 142/142/142 140/140/140 139/139/139
f 142/142/142 141/141/141 140/140/140
f 143/143/143 142/142/142 139/139/139
f 142/142/142 144/144/144 141/141/141
f 142/142/142 143/143/143 145/145/145
f 145/145/145 144/144/144 142/142/142
f 146/146/146 145/145/145 143/143/143
f 145/145/145 147/147/147 144/144/144
f 146/146/146 148/148/148 145/145/145
f 145/145/145 149/149/149 147/147/147
f 150/150/150 145/145/145 148/148/148
f 150/150/150 149/149/149 145/145/145
f 153/153/153 152/152/152 151/151/151
f 154/154/154 151/151/151 152/152/152
f 152/152/152 155/155/155 154/154/154
f 156/156/156 154/154/154 155/155/155
f 157/157/157 151/151/151 154/154/154
f 154/154/154 156/156/156 157/157/157
f 151/151/151 157/157/157 158/158/158
f 157/157/157 156/156/156 159/159/159
f 158/158/158 157/157/157 160/160/160
f 157/157/157 159/159/159 161/161/161
f 161/161/161 160/160/160 157/157/157
f 162/162/162 161/161/161 159/159/159
f 161/161/161 163/163/163 160/160/160
f 161/161/161 162/162/162 163/163/163
f 164/164/164 160/160/160 163/163/163
f 162/162/162 165/165/165 163/163/163
f 166/166/166 164/164/164 163/163/163
f 163/163/163 165/165/165 167/167/167
f 163/163/163 167/167/167 166/166/166
f 167/167/167 165/165/165 168/168/168
f 166/166/166 167/167/167 169/169/169
f 167/167/167 168/168/168 170/170/170
f 170/170/170 169/169/169 167/167/167
f 168/168/168 171/171/171 170/170/170
f 172/172/172 169/169/169 170/170/170
f 170/170/170 171/171/171 173/173/173
f 173/173/173 172/172/172 170/170/170
f 174/174/174 173/173/173 171/171/171
f 172/172/172 173/173/173 175/175/175
f 176/176/176 173/173/173 174/174/174
f 176/176/176 175/175/175 173/173/173
f 174/174/174 177/177/177 176/176/176
f 177/177/177 178/178/178 176/176/176
f 179/179/179 176/176/176 178/178/178
f 179/179/179 175/175/175 176/176/176
f 175/175/175 179/179/179 180/180/180
f 183/183/183 182/182/182 181/181/181
f 183/183/183 181/181/181 184/184/184
f 182/182/182 185/185/185 181/181/181
f 186/186/186 184/184/184 181/181/181
f 184/184/184 186/186/186 187/187/187
f 188/188/188 187/187/187 186/186/186
f 181/181/181 185/185/185 189/189/189
f 185/185/185 190/190/190 189/189/189
f 186/186/186 181/181/181 191/191/191
f 186/186/186 191/191/191 188/188/188
f 189/189/189 191/191/191 181/181/181
f 192/192/192 188/188/188 191/191/191
f 189/189/189 190/190/190 193/193/193
f 193/193/193 190/190/190 194/194/194
f 195/195/195 191/191/191 189/189/189
f 192/192/192 191/191/191 195/195/195
f 193/193/193 195/195/195 189/189/189
f 192/192/192 195/195/195 196/196/196
f 197/197/197 193/193/193 194/194/194
f 194/194/194 198/198/198 197/197/197
f 195/195/195 193/193/193 199/199/199
f 195/195/195 199/199/199 196/196/196
f 197/197/197 199/199/199 193/193/193
f 200/200/200 196/196/196 199/199/199
f 197/197/197 198/198/198 201/201/201
f 197/197/197 201/201/201 199/199/199
f 202/202/202 201/201/201 198/198/198
f 200/200/200 199/199/199 203/203/203
f 203/203/203 199/199/199 201/201/201
f 203/203/203 204/204/204 200/200/200
f 201/201/201 202/202/202 205/205/205
f 205/205/205 203/203/203 201/201/201
f 206/206/206 205/205/205 202/202/202
f 207/207/207 204/204/204 203/203/203
f 207/207/207 203/203/203 205/205/205
f 204/204/204 207/207/207 208/208/208
f 205/205/205 206/206/206 209/209/209
f 205/205/205 209/209/209 207/207/207
f 210/210/210 209/209/209 206/206/206
f 208/208/208 207/207/207 211/211/211
f 211/211/211 207/207/207 209/209/209
f 208/208/208 211/211/211 212/212/212
f 209/209/209 210/210/210 213/213/213
f 213/213/213 211/211/211 209/209/209
f 214/214/214 213/213/213 210/210/210
f 215/215/215 213/213/213 214/214/214
f 215/215/215 216/216/216 213/213/213
f 217/217/217 212/212/212 211/211/211
f 217/217/217 211/211/211 213/213/213
f 213/213/213 216/216/216 217/217/217
f 212/212/212 217/217/217 218/218/218
f 219/219/219 217/217/217 216/216/216
f 218/218/218 217/217/217 220/220/220
f 219/219/219 220/220/220 217/217/217
