mtllib SM_Wall_Cover_600cm.mtl
g SM_Wall_Cover_600cm
#Vertices 12
#Indices 42
#Section 0 Offset 0 NumIndices 42 MaterialIndex 0 MI_Stone_Tiles_01
v 5.763003 2.980000 0.000001
v 5.753004 2.990000 0.000001
v 5.753004 2.980000 -0.009999
v 5.763003 0.000000 0.000000
v 0.010000 2.990000 0.000001
v 5.753004 -0.000000 -0.010000
v 5.753004 -0.010000 0.000000
v 0.010000 2.980000 -0.009999
v 0.000000 2.980000 0.000001
v 0.000000 -0.000000 -0.000000
v 0.010000 -0.000000 -0.010000
v 0.010000 -0.010000 -0.000000
vt 2.898438 1.249634
vt 2.894531 1.254395
vt 2.892578 1.249023
vt 2.898438 -0.249023
vt 0.004990 1.254395
vt 2.892578 -0.249023
vt 2.894531 -0.253906
vt 0.005650 1.249023
vt 0.000142 1.249634
vt 0.000143 -0.249023
vt 0.005650 -0.249023
vt 0.004990 -0.253906
vt1 0.958008 0.517334
vt1 0.956543 0.518799
vt1 0.956543 0.517090
vt1 0.958008 0.043457
vt1 0.043152 0.518799
vt1 0.956543 0.043457
vt1 0.956543 0.041992
vt1 0.043365 0.517090
vt1 0.041626 0.517334
vt1 0.041626 0.043457
vt1 0.043365 0.043457
vt1 0.043152 0.041992
vn 0.921260 -0.000000 -0.393701
vn 0.000000 0.921260 -0.393701
vn 0.000000 -0.000000 -1.000000
vn 0.921260 -0.000000 -0.393701
vn 0.000000 0.921260 -0.393701
vn 0.000000 -0.000000 -1.000000
vn 0.000000 -0.921260 -0.393701
vn 0.000000 -0.000000 -1.000000
vn -0.921260 -0.000000 -0.393701
vn -0.921260 -0.000000 -0.393701
vn 0.000000 -0.000000 -1.000000
vn 0.000000 -0.921260 -0.393701
tan -0.040300 -0.993366 -0.094302 1.000000
tan 0.275529 -0.378201 -0.884990 1.000000
tan -0.062992 -1.000000 0.000000 1.000000
tan 0.040300 -0.993366 0.094302 1.000000
tan -0.275529 -0.378201 -0.884990 1.000000
tan 0.062992 -1.000000 0.000000 1.000000
tan -0.275529 -0.378201 0.884990 1.000000
tan 0.062992 -1.000000 0.000000 1.000000
tan 0.040300 -0.993366 -0.094302 1.000000
tan -0.040300 -0.993366 0.094302 1.000000
tan -0.062992 -1.000000 0.000000 1.000000
tan 0.275529 -0.378201 0.884990 1.000000
f 3/3/3 2/2/2 1/1/1
f 1/1/1 4/4/4 3/3/3
f 3/3/3 5/5/5 2/2/2
f 6/6/6 3/3/3 4/4/4
f 6/6/6 4/4/4 7/7/7
f 5/5/5 3/3/3 8/8/8
f 6/6/6 8/8/8 3/3/3
f 8/8/8 9/9/9 5/5/5
f 8/8/8 10/10/10 9/9/9
f 6/6/6 7/7/7 11/11/11
f 8/8/8 6/6/6 11/11/11
f 11/11/11 10/10/10 8/8/8
f 12/12/12 11/11/11 7/7/7
f 12/12/12 10/10/10 11/11/11
